<?xml version="1.0" encoding="utf-8" standalone="no"?>
<!DOCTYPE svg PUBLIC "-//W3C//DTD SVG 1.1//EN"
  "http://www.w3.org/Graphics/SVG/1.1/DTD/svg11.dtd">
<svg xmlns:xlink="http://www.w3.org/1999/xlink" width="393.622805pt" height="362.097812pt" viewBox="0 0 393.622805 362.097812" xmlns="http://www.w3.org/2000/svg" version="1.1">
 <metadata>
  <rdf:RDF xmlns:dc="http://purl.org/dc/elements/1.1/" xmlns:cc="http://creativecommons.org/ns#" xmlns:rdf="http://www.w3.org/1999/02/22-rdf-syntax-ns#">
   <cc:Work>
    <dc:type rdf:resource="http://purl.org/dc/dcmitype/StillImage"/>
    <dc:date>2022-11-20T08:25:30.123185</dc:date>
    <dc:format>image/svg+xml</dc:format>
    <dc:creator>
     <cc:Agent>
      <dc:title>Matplotlib v3.5.2, https://matplotlib.org/</dc:title>
     </cc:Agent>
    </dc:creator>
   </cc:Work>
  </rdf:RDF>
 </metadata>
 <defs>
  <style type="text/css">*{stroke-linejoin: round; stroke-linecap: butt}</style>
 </defs>
 <g id="figure_1">
  <g id="patch_1">
   <path d="M 0 362.097812 
L 393.622805 362.097812 
L 393.622805 0 
L 0 0 
z
" style="fill: #ffffff"/>
  </g>
  <g id="axes_1">
   <g id="patch_2">
    <path d="M 53.31 319.138125 
L 341.236605 319.138125 
L 341.236605 22.318125 
L 53.31 22.318125 
z
" style="fill: #eaeaf2"/>
   </g>
   <g id="matplotlib.axis_1">
    <g id="xtick_1">
     <g id="line2d_1">
      <path d="M 66.397573 319.138125 
L 66.397573 22.318125 
" clip-path="url(#p9e374f17ae)" style="fill: none; stroke: #ffffff; stroke-linecap: round"/>
     </g>
     <g id="text_1">
      <!-- 0 -->
      <g style="fill: #262626" transform="translate(62.898198 336.996406)scale(0.11 -0.11)">
       <defs>
        <path id="DejaVuSans-30" d="M 2034 4250 
Q 1547 4250 1301 3770 
Q 1056 3291 1056 2328 
Q 1056 1369 1301 889 
Q 1547 409 2034 409 
Q 2525 409 2770 889 
Q 3016 1369 3016 2328 
Q 3016 3291 2770 3770 
Q 2525 4250 2034 4250 
z
M 2034 4750 
Q 2819 4750 3233 4129 
Q 3647 3509 3647 2328 
Q 3647 1150 3233 529 
Q 2819 -91 2034 -91 
Q 1250 -91 836 529 
Q 422 1150 422 2328 
Q 422 3509 836 4129 
Q 1250 4750 2034 4750 
z
" transform="scale(0.015625)"/>
       </defs>
       <use xlink:href="#DejaVuSans-30"/>
      </g>
     </g>
    </g>
    <g id="xtick_2">
     <g id="line2d_2">
      <path d="M 132.164271 319.138125 
L 132.164271 22.318125 
" clip-path="url(#p9e374f17ae)" style="fill: none; stroke: #ffffff; stroke-linecap: round"/>
     </g>
     <g id="text_2">
      <!-- 50 -->
      <g style="fill: #262626" transform="translate(125.165521 336.996406)scale(0.11 -0.11)">
       <defs>
        <path id="DejaVuSans-35" d="M 691 4666 
L 3169 4666 
L 3169 4134 
L 1269 4134 
L 1269 2991 
Q 1406 3038 1543 3061 
Q 1681 3084 1819 3084 
Q 2600 3084 3056 2656 
Q 3513 2228 3513 1497 
Q 3513 744 3044 326 
Q 2575 -91 1722 -91 
Q 1428 -91 1123 -41 
Q 819 9 494 109 
L 494 744 
Q 775 591 1075 516 
Q 1375 441 1709 441 
Q 2250 441 2565 725 
Q 2881 1009 2881 1497 
Q 2881 1984 2565 2268 
Q 2250 2553 1709 2553 
Q 1456 2553 1204 2497 
Q 953 2441 691 2322 
L 691 4666 
z
" transform="scale(0.015625)"/>
       </defs>
       <use xlink:href="#DejaVuSans-35"/>
       <use xlink:href="#DejaVuSans-30" x="63.623047"/>
      </g>
     </g>
    </g>
    <g id="xtick_3">
     <g id="line2d_3">
      <path d="M 197.930969 319.138125 
L 197.930969 22.318125 
" clip-path="url(#p9e374f17ae)" style="fill: none; stroke: #ffffff; stroke-linecap: round"/>
     </g>
     <g id="text_3">
      <!-- 100 -->
      <g style="fill: #262626" transform="translate(187.432844 336.996406)scale(0.11 -0.11)">
       <defs>
        <path id="DejaVuSans-31" d="M 794 531 
L 1825 531 
L 1825 4091 
L 703 3866 
L 703 4441 
L 1819 4666 
L 2450 4666 
L 2450 531 
L 3481 531 
L 3481 0 
L 794 0 
L 794 531 
z
" transform="scale(0.015625)"/>
       </defs>
       <use xlink:href="#DejaVuSans-31"/>
       <use xlink:href="#DejaVuSans-30" x="63.623047"/>
       <use xlink:href="#DejaVuSans-30" x="127.246094"/>
      </g>
     </g>
    </g>
    <g id="xtick_4">
     <g id="line2d_4">
      <path d="M 263.697668 319.138125 
L 263.697668 22.318125 
" clip-path="url(#p9e374f17ae)" style="fill: none; stroke: #ffffff; stroke-linecap: round"/>
     </g>
     <g id="text_4">
      <!-- 150 -->
      <g style="fill: #262626" transform="translate(253.199543 336.996406)scale(0.11 -0.11)">
       <use xlink:href="#DejaVuSans-31"/>
       <use xlink:href="#DejaVuSans-35" x="63.623047"/>
       <use xlink:href="#DejaVuSans-30" x="127.246094"/>
      </g>
     </g>
    </g>
    <g id="xtick_5">
     <g id="line2d_5">
      <path d="M 329.464366 319.138125 
L 329.464366 22.318125 
" clip-path="url(#p9e374f17ae)" style="fill: none; stroke: #ffffff; stroke-linecap: round"/>
     </g>
     <g id="text_5">
      <!-- 200 -->
      <g style="fill: #262626" transform="translate(318.966241 336.996406)scale(0.11 -0.11)">
       <defs>
        <path id="DejaVuSans-32" d="M 1228 531 
L 3431 531 
L 3431 0 
L 469 0 
L 469 531 
Q 828 903 1448 1529 
Q 2069 2156 2228 2338 
Q 2531 2678 2651 2914 
Q 2772 3150 2772 3378 
Q 2772 3750 2511 3984 
Q 2250 4219 1831 4219 
Q 1534 4219 1204 4116 
Q 875 4013 500 3803 
L 500 4441 
Q 881 4594 1212 4672 
Q 1544 4750 1819 4750 
Q 2544 4750 2975 4387 
Q 3406 4025 3406 3419 
Q 3406 3131 3298 2873 
Q 3191 2616 2906 2266 
Q 2828 2175 2409 1742 
Q 1991 1309 1228 531 
z
" transform="scale(0.015625)"/>
       </defs>
       <use xlink:href="#DejaVuSans-32"/>
       <use xlink:href="#DejaVuSans-30" x="63.623047"/>
       <use xlink:href="#DejaVuSans-30" x="127.246094"/>
      </g>
     </g>
    </g>
    <g id="text_6">
     <!-- Generation -->
     <g style="fill: #262626" transform="translate(163.80174 352.402187)scale(0.12 -0.12)">
      <defs>
       <path id="DejaVuSans-47" d="M 3809 666 
L 3809 1919 
L 2778 1919 
L 2778 2438 
L 4434 2438 
L 4434 434 
Q 4069 175 3628 42 
Q 3188 -91 2688 -91 
Q 1594 -91 976 548 
Q 359 1188 359 2328 
Q 359 3472 976 4111 
Q 1594 4750 2688 4750 
Q 3144 4750 3555 4637 
Q 3966 4525 4313 4306 
L 4313 3634 
Q 3963 3931 3569 4081 
Q 3175 4231 2741 4231 
Q 1884 4231 1454 3753 
Q 1025 3275 1025 2328 
Q 1025 1384 1454 906 
Q 1884 428 2741 428 
Q 3075 428 3337 486 
Q 3600 544 3809 666 
z
" transform="scale(0.015625)"/>
       <path id="DejaVuSans-65" d="M 3597 1894 
L 3597 1613 
L 953 1613 
Q 991 1019 1311 708 
Q 1631 397 2203 397 
Q 2534 397 2845 478 
Q 3156 559 3463 722 
L 3463 178 
Q 3153 47 2828 -22 
Q 2503 -91 2169 -91 
Q 1331 -91 842 396 
Q 353 884 353 1716 
Q 353 2575 817 3079 
Q 1281 3584 2069 3584 
Q 2775 3584 3186 3129 
Q 3597 2675 3597 1894 
z
M 3022 2063 
Q 3016 2534 2758 2815 
Q 2500 3097 2075 3097 
Q 1594 3097 1305 2825 
Q 1016 2553 972 2059 
L 3022 2063 
z
" transform="scale(0.015625)"/>
       <path id="DejaVuSans-6e" d="M 3513 2113 
L 3513 0 
L 2938 0 
L 2938 2094 
Q 2938 2591 2744 2837 
Q 2550 3084 2163 3084 
Q 1697 3084 1428 2787 
Q 1159 2491 1159 1978 
L 1159 0 
L 581 0 
L 581 3500 
L 1159 3500 
L 1159 2956 
Q 1366 3272 1645 3428 
Q 1925 3584 2291 3584 
Q 2894 3584 3203 3211 
Q 3513 2838 3513 2113 
z
" transform="scale(0.015625)"/>
       <path id="DejaVuSans-72" d="M 2631 2963 
Q 2534 3019 2420 3045 
Q 2306 3072 2169 3072 
Q 1681 3072 1420 2755 
Q 1159 2438 1159 1844 
L 1159 0 
L 581 0 
L 581 3500 
L 1159 3500 
L 1159 2956 
Q 1341 3275 1631 3429 
Q 1922 3584 2338 3584 
Q 2397 3584 2469 3576 
Q 2541 3569 2628 3553 
L 2631 2963 
z
" transform="scale(0.015625)"/>
       <path id="DejaVuSans-61" d="M 2194 1759 
Q 1497 1759 1228 1600 
Q 959 1441 959 1056 
Q 959 750 1161 570 
Q 1363 391 1709 391 
Q 2188 391 2477 730 
Q 2766 1069 2766 1631 
L 2766 1759 
L 2194 1759 
z
M 3341 1997 
L 3341 0 
L 2766 0 
L 2766 531 
Q 2569 213 2275 61 
Q 1981 -91 1556 -91 
Q 1019 -91 701 211 
Q 384 513 384 1019 
Q 384 1609 779 1909 
Q 1175 2209 1959 2209 
L 2766 2209 
L 2766 2266 
Q 2766 2663 2505 2880 
Q 2244 3097 1772 3097 
Q 1472 3097 1187 3025 
Q 903 2953 641 2809 
L 641 3341 
Q 956 3463 1253 3523 
Q 1550 3584 1831 3584 
Q 2591 3584 2966 3190 
Q 3341 2797 3341 1997 
z
" transform="scale(0.015625)"/>
       <path id="DejaVuSans-74" d="M 1172 4494 
L 1172 3500 
L 2356 3500 
L 2356 3053 
L 1172 3053 
L 1172 1153 
Q 1172 725 1289 603 
Q 1406 481 1766 481 
L 2356 481 
L 2356 0 
L 1766 0 
Q 1100 0 847 248 
Q 594 497 594 1153 
L 594 3053 
L 172 3053 
L 172 3500 
L 594 3500 
L 594 4494 
L 1172 4494 
z
" transform="scale(0.015625)"/>
       <path id="DejaVuSans-69" d="M 603 3500 
L 1178 3500 
L 1178 0 
L 603 0 
L 603 3500 
z
M 603 4863 
L 1178 4863 
L 1178 4134 
L 603 4134 
L 603 4863 
z
" transform="scale(0.015625)"/>
       <path id="DejaVuSans-6f" d="M 1959 3097 
Q 1497 3097 1228 2736 
Q 959 2375 959 1747 
Q 959 1119 1226 758 
Q 1494 397 1959 397 
Q 2419 397 2687 759 
Q 2956 1122 2956 1747 
Q 2956 2369 2687 2733 
Q 2419 3097 1959 3097 
z
M 1959 3584 
Q 2709 3584 3137 3096 
Q 3566 2609 3566 1747 
Q 3566 888 3137 398 
Q 2709 -91 1959 -91 
Q 1206 -91 779 398 
Q 353 888 353 1747 
Q 353 2609 779 3096 
Q 1206 3584 1959 3584 
z
" transform="scale(0.015625)"/>
      </defs>
      <use xlink:href="#DejaVuSans-47"/>
      <use xlink:href="#DejaVuSans-65" x="77.490234"/>
      <use xlink:href="#DejaVuSans-6e" x="139.013672"/>
      <use xlink:href="#DejaVuSans-65" x="202.392578"/>
      <use xlink:href="#DejaVuSans-72" x="263.916016"/>
      <use xlink:href="#DejaVuSans-61" x="305.029297"/>
      <use xlink:href="#DejaVuSans-74" x="366.308594"/>
      <use xlink:href="#DejaVuSans-69" x="405.517578"/>
      <use xlink:href="#DejaVuSans-6f" x="433.300781"/>
      <use xlink:href="#DejaVuSans-6e" x="494.482422"/>
     </g>
    </g>
   </g>
   <g id="matplotlib.axis_2">
    <g id="ytick_1">
     <g id="line2d_6">
      <path d="M 53.31 307.483714 
L 341.236605 307.483714 
" clip-path="url(#p9e374f17ae)" style="fill: none; stroke: #ffffff; stroke-linecap: round"/>
     </g>
     <g id="text_7">
      <!-- 0 -->
      <g style="fill: #262626" transform="translate(36.81125 311.662855)scale(0.11 -0.11)">
       <use xlink:href="#DejaVuSans-30"/>
      </g>
     </g>
    </g>
    <g id="ytick_2">
     <g id="line2d_7">
      <path d="M 53.31 265.485836 
L 341.236605 265.485836 
" clip-path="url(#p9e374f17ae)" style="fill: none; stroke: #ffffff; stroke-linecap: round"/>
     </g>
     <g id="text_8">
      <!-- 20 -->
      <g style="fill: #262626" transform="translate(29.8125 269.664977)scale(0.11 -0.11)">
       <use xlink:href="#DejaVuSans-32"/>
       <use xlink:href="#DejaVuSans-30" x="63.623047"/>
      </g>
     </g>
    </g>
    <g id="ytick_3">
     <g id="line2d_8">
      <path d="M 53.31 223.487959 
L 341.236605 223.487959 
" clip-path="url(#p9e374f17ae)" style="fill: none; stroke: #ffffff; stroke-linecap: round"/>
     </g>
     <g id="text_9">
      <!-- 40 -->
      <g style="fill: #262626" transform="translate(29.8125 227.667099)scale(0.11 -0.11)">
       <defs>
        <path id="DejaVuSans-34" d="M 2419 4116 
L 825 1625 
L 2419 1625 
L 2419 4116 
z
M 2253 4666 
L 3047 4666 
L 3047 1625 
L 3713 1625 
L 3713 1100 
L 3047 1100 
L 3047 0 
L 2419 0 
L 2419 1100 
L 313 1100 
L 313 1709 
L 2253 4666 
z
" transform="scale(0.015625)"/>
       </defs>
       <use xlink:href="#DejaVuSans-34"/>
       <use xlink:href="#DejaVuSans-30" x="63.623047"/>
      </g>
     </g>
    </g>
    <g id="ytick_4">
     <g id="line2d_9">
      <path d="M 53.31 181.490081 
L 341.236605 181.490081 
" clip-path="url(#p9e374f17ae)" style="fill: none; stroke: #ffffff; stroke-linecap: round"/>
     </g>
     <g id="text_10">
      <!-- 60 -->
      <g style="fill: #262626" transform="translate(29.8125 185.669222)scale(0.11 -0.11)">
       <defs>
        <path id="DejaVuSans-36" d="M 2113 2584 
Q 1688 2584 1439 2293 
Q 1191 2003 1191 1497 
Q 1191 994 1439 701 
Q 1688 409 2113 409 
Q 2538 409 2786 701 
Q 3034 994 3034 1497 
Q 3034 2003 2786 2293 
Q 2538 2584 2113 2584 
z
M 3366 4563 
L 3366 3988 
Q 3128 4100 2886 4159 
Q 2644 4219 2406 4219 
Q 1781 4219 1451 3797 
Q 1122 3375 1075 2522 
Q 1259 2794 1537 2939 
Q 1816 3084 2150 3084 
Q 2853 3084 3261 2657 
Q 3669 2231 3669 1497 
Q 3669 778 3244 343 
Q 2819 -91 2113 -91 
Q 1303 -91 875 529 
Q 447 1150 447 2328 
Q 447 3434 972 4092 
Q 1497 4750 2381 4750 
Q 2619 4750 2861 4703 
Q 3103 4656 3366 4563 
z
" transform="scale(0.015625)"/>
       </defs>
       <use xlink:href="#DejaVuSans-36"/>
       <use xlink:href="#DejaVuSans-30" x="63.623047"/>
      </g>
     </g>
    </g>
    <g id="ytick_5">
     <g id="line2d_10">
      <path d="M 53.31 139.492204 
L 341.236605 139.492204 
" clip-path="url(#p9e374f17ae)" style="fill: none; stroke: #ffffff; stroke-linecap: round"/>
     </g>
     <g id="text_11">
      <!-- 80 -->
      <g style="fill: #262626" transform="translate(29.8125 143.671344)scale(0.11 -0.11)">
       <defs>
        <path id="DejaVuSans-38" d="M 2034 2216 
Q 1584 2216 1326 1975 
Q 1069 1734 1069 1313 
Q 1069 891 1326 650 
Q 1584 409 2034 409 
Q 2484 409 2743 651 
Q 3003 894 3003 1313 
Q 3003 1734 2745 1975 
Q 2488 2216 2034 2216 
z
M 1403 2484 
Q 997 2584 770 2862 
Q 544 3141 544 3541 
Q 544 4100 942 4425 
Q 1341 4750 2034 4750 
Q 2731 4750 3128 4425 
Q 3525 4100 3525 3541 
Q 3525 3141 3298 2862 
Q 3072 2584 2669 2484 
Q 3125 2378 3379 2068 
Q 3634 1759 3634 1313 
Q 3634 634 3220 271 
Q 2806 -91 2034 -91 
Q 1263 -91 848 271 
Q 434 634 434 1313 
Q 434 1759 690 2068 
Q 947 2378 1403 2484 
z
M 1172 3481 
Q 1172 3119 1398 2916 
Q 1625 2713 2034 2713 
Q 2441 2713 2670 2916 
Q 2900 3119 2900 3481 
Q 2900 3844 2670 4047 
Q 2441 4250 2034 4250 
Q 1625 4250 1398 4047 
Q 1172 3844 1172 3481 
z
" transform="scale(0.015625)"/>
       </defs>
       <use xlink:href="#DejaVuSans-38"/>
       <use xlink:href="#DejaVuSans-30" x="63.623047"/>
      </g>
     </g>
    </g>
    <g id="ytick_6">
     <g id="line2d_11">
      <path d="M 53.31 97.494326 
L 341.236605 97.494326 
" clip-path="url(#p9e374f17ae)" style="fill: none; stroke: #ffffff; stroke-linecap: round"/>
     </g>
     <g id="text_12">
      <!-- 100 -->
      <g style="fill: #262626" transform="translate(22.81375 101.673467)scale(0.11 -0.11)">
       <use xlink:href="#DejaVuSans-31"/>
       <use xlink:href="#DejaVuSans-30" x="63.623047"/>
       <use xlink:href="#DejaVuSans-30" x="127.246094"/>
      </g>
     </g>
    </g>
    <g id="ytick_7">
     <g id="line2d_12">
      <path d="M 53.31 55.496448 
L 341.236605 55.496448 
" clip-path="url(#p9e374f17ae)" style="fill: none; stroke: #ffffff; stroke-linecap: round"/>
     </g>
     <g id="text_13">
      <!-- 120 -->
      <g style="fill: #262626" transform="translate(22.81375 59.675589)scale(0.11 -0.11)">
       <use xlink:href="#DejaVuSans-31"/>
       <use xlink:href="#DejaVuSans-32" x="63.623047"/>
       <use xlink:href="#DejaVuSans-30" x="127.246094"/>
      </g>
     </g>
    </g>
    <g id="text_14">
     <!-- Fitness -->
     <g style="fill: #262626" transform="translate(16.318125 191.50875)rotate(-90)scale(0.12 -0.12)">
      <defs>
       <path id="DejaVuSans-46" d="M 628 4666 
L 3309 4666 
L 3309 4134 
L 1259 4134 
L 1259 2759 
L 3109 2759 
L 3109 2228 
L 1259 2228 
L 1259 0 
L 628 0 
L 628 4666 
z
" transform="scale(0.015625)"/>
       <path id="DejaVuSans-73" d="M 2834 3397 
L 2834 2853 
Q 2591 2978 2328 3040 
Q 2066 3103 1784 3103 
Q 1356 3103 1142 2972 
Q 928 2841 928 2578 
Q 928 2378 1081 2264 
Q 1234 2150 1697 2047 
L 1894 2003 
Q 2506 1872 2764 1633 
Q 3022 1394 3022 966 
Q 3022 478 2636 193 
Q 2250 -91 1575 -91 
Q 1294 -91 989 -36 
Q 684 19 347 128 
L 347 722 
Q 666 556 975 473 
Q 1284 391 1588 391 
Q 1994 391 2212 530 
Q 2431 669 2431 922 
Q 2431 1156 2273 1281 
Q 2116 1406 1581 1522 
L 1381 1569 
Q 847 1681 609 1914 
Q 372 2147 372 2553 
Q 372 3047 722 3315 
Q 1072 3584 1716 3584 
Q 2034 3584 2315 3537 
Q 2597 3491 2834 3397 
z
" transform="scale(0.015625)"/>
      </defs>
      <use xlink:href="#DejaVuSans-46"/>
      <use xlink:href="#DejaVuSans-69" x="50.269531"/>
      <use xlink:href="#DejaVuSans-74" x="78.052734"/>
      <use xlink:href="#DejaVuSans-6e" x="117.261719"/>
      <use xlink:href="#DejaVuSans-65" x="180.640625"/>
      <use xlink:href="#DejaVuSans-73" x="242.164062"/>
      <use xlink:href="#DejaVuSans-73" x="294.263672"/>
     </g>
    </g>
   </g>
   <g id="PolyCollection_1">
    <defs>
     <path id="me40dc8e168" d="M 66.397573 -72.267972 
L 66.397573 -59.337219 
L 67.712907 -64.258846 
L 69.028241 -84.140575 
L 70.343575 -84.339081 
L 71.658909 -84.993657 
L 72.974243 -103.820518 
L 74.289577 -112.226656 
L 75.604911 -119.38106 
L 76.920245 -130.535106 
L 78.235579 -148.648331 
L 79.550913 -175.67134 
L 80.866247 -205.343825 
L 82.181581 -218.922592 
L 83.496915 -231.850064 
L 84.812248 -236.845514 
L 86.127582 -241.767141 
L 87.442916 -248.985526 
L 88.75825 -253.042586 
L 90.073584 -242.226492 
L 91.388918 -241.37177 
L 92.704252 -243.670169 
L 94.019586 -230.278424 
L 95.33492 -245.564996 
L 96.650254 -231.786083 
L 97.965588 -224.764562 
L 99.280922 -227.72246 
L 100.596256 -243.342061 
L 101.91159 -252.791584 
L 103.226924 -270.903168 
L 104.542258 -241.832762 
L 105.857592 -252.791584 
L 107.172926 -241.045302 
L 108.48826 -246.470575 
L 109.803594 -247.407324 
L 111.118928 -252.857205 
L 112.434262 -272.609332 
L 113.749596 -254.038395 
L 115.06493 -229.951956 
L 116.380264 -249.443237 
L 117.695598 -256.400776 
L 119.010932 -247.344984 
L 120.326266 -247.735433 
L 121.641599 -238.74034 
L 122.956933 -245.376333 
L 124.272267 -219.76255 
L 125.587601 -239.534363 
L 126.902935 -240.257842 
L 128.218269 -249.57448 
L 129.533603 -230.93136 
L 130.848937 -251.657969 
L 132.164271 -245.440314 
L 133.479605 -224.703862 
L 134.794939 -263.487918 
L 136.110273 -248.916623 
L 137.425607 -278.83847 
L 138.740941 -254.167998 
L 140.056275 -234.282988 
L 141.371609 -231.923888 
L 142.686943 -259.342268 
L 144.002277 -231.38579 
L 145.317611 -236.973477 
L 146.632945 -254.756953 
L 147.948279 -266.30965 
L 149.263613 -276.733655 
L 150.578947 -294.461353 
L 151.894281 -291.508377 
L 153.209615 -262.766079 
L 154.524949 -271.034412 
L 155.840283 -270.227265 
L 157.155617 -262.503593 
L 158.470951 -291.508377 
L 159.786284 -282.718352 
L 161.101618 -278.515284 
L 162.416952 -291.705242 
L 163.732286 -291.705242 
L 165.04762 -298.201789 
L 166.362954 -282.846315 
L 167.678288 -275.365443 
L 168.993622 -279.696474 
L 170.308956 -279.696474 
L 171.62429 -298.201789 
L 172.939624 -298.201789 
L 174.254958 -298.201789 
L 175.570292 -277.924688 
L 176.885626 -275.365443 
L 178.20096 -285.208695 
L 179.516294 -267.097111 
L 180.831628 -281.665124 
L 182.146962 -276.743498 
L 183.462296 -298.201789 
L 184.77763 -298.201789 
L 186.092964 -275.365443 
L 187.408298 -279.696474 
L 188.723632 -298.201789 
L 190.038966 -280.680799 
L 191.3543 -261.453646 
L 192.669634 -298.201789 
L 193.984968 -298.201789 
L 195.300302 -298.201789 
L 196.615636 -282.64945 
L 197.930969 -277.334093 
L 199.246303 -263.55354 
L 200.561637 -298.201789 
L 201.876971 -298.201789 
L 203.192305 -298.201789 
L 204.507639 -298.201789 
L 205.822973 -294.461353 
L 207.138307 -281.337016 
L 208.453641 -253.178751 
L 209.768975 -263.15981 
L 211.084309 -280.877664 
L 212.399643 -298.201789 
L 213.714977 -279.499609 
L 215.030311 -298.201789 
L 216.345645 -298.201789 
L 217.660979 -277.530958 
L 218.976313 -298.201789 
L 220.291647 -282.25572 
L 221.606981 -298.201789 
L 222.922315 -298.201789 
L 224.237649 -298.201789 
L 225.552983 -298.201789 
L 226.868317 -298.201789 
L 228.183651 -298.201789 
L 229.498985 -298.201789 
L 230.814319 -298.201789 
L 232.129653 -298.201789 
L 233.444987 -298.201789 
L 234.760321 -275.365443 
L 236.075654 -276.349768 
L 237.390988 -298.201789 
L 238.706322 -298.201789 
L 240.021656 -298.201789 
L 241.33699 -298.201789 
L 242.652324 -298.201789 
L 243.967658 -298.201789 
L 245.282992 -281.665124 
L 246.598326 -280.483934 
L 247.91366 -280.483934 
L 249.228994 -263.287772 
L 250.544328 -266.900246 
L 251.859662 -275.365443 
L 253.174996 -298.201789 
L 254.49033 -298.201789 
L 255.805664 -298.201789 
L 257.120998 -298.201789 
L 258.436332 -298.201789 
L 259.751666 -287.964806 
L 261.067 -254.299242 
L 262.382334 -259.80326 
L 263.697668 -275.365443 
L 265.013002 -298.201789 
L 266.328336 -278.909014 
L 267.64367 -260.600564 
L 268.959004 -275.365443 
L 270.274338 -298.201789 
L 271.589672 -252.657059 
L 272.905006 -285.695936 
L 274.220339 -280.680799 
L 275.535673 -275.365443 
L 276.851007 -298.201789 
L 278.166341 -298.201789 
L 279.481675 -288.752266 
L 280.797009 -282.452585 
L 282.112343 -282.452585 
L 283.427677 -282.452585 
L 284.743011 -279.223998 
L 286.058345 -264.970968 
L 287.373679 -258.031475 
L 288.689013 -282.25572 
L 290.004347 -298.201789 
L 291.319681 -298.201789 
L 292.635015 -267.753327 
L 293.950349 -298.201789 
L 295.265683 -298.201789 
L 296.581017 -275.365443 
L 297.896351 -276.743498 
L 299.211685 -298.201789 
L 300.527019 -266.506515 
L 301.842353 -282.64945 
L 303.157687 -298.201789 
L 304.473021 -298.201789 
L 305.788355 -298.201789 
L 307.103689 -275.365443 
L 308.419023 -298.201789 
L 309.734357 -260.141212 
L 311.04969 -275.365443 
L 312.365024 -298.201789 
L 313.680358 -298.201789 
L 314.995692 -298.201789 
L 316.311026 -266.637759 
L 317.62636 -278.909014 
L 318.941694 -298.201789 
L 320.257028 -298.201789 
L 321.572362 -298.201789 
L 322.887696 -298.201789 
L 324.20303 -298.201789 
L 325.518364 -298.201789 
L 326.833698 -276.284146 
L 328.149032 -284.014381 
L 328.149032 -298.201789 
L 328.149032 -298.201789 
L 326.833698 -298.201789 
L 325.518364 -298.201789 
L 324.20303 -298.201789 
L 322.887696 -298.201789 
L 321.572362 -298.201789 
L 320.257028 -298.201789 
L 318.941694 -298.201789 
L 317.62636 -298.201789 
L 316.311026 -298.201789 
L 314.995692 -298.201789 
L 313.680358 -298.201789 
L 312.365024 -298.201789 
L 311.04969 -298.201789 
L 309.734357 -298.201789 
L 308.419023 -298.201789 
L 307.103689 -298.201789 
L 305.788355 -298.201789 
L 304.473021 -298.201789 
L 303.157687 -298.201789 
L 301.842353 -298.201789 
L 300.527019 -298.201789 
L 299.211685 -298.201789 
L 297.896351 -298.201789 
L 296.581017 -298.201789 
L 295.265683 -298.201789 
L 293.950349 -298.201789 
L 292.635015 -298.201789 
L 291.319681 -298.201789 
L 290.004347 -298.201789 
L 288.689013 -298.201789 
L 287.373679 -298.201789 
L 286.058345 -298.201789 
L 284.743011 -298.201789 
L 283.427677 -298.201789 
L 282.112343 -298.201789 
L 280.797009 -298.201789 
L 279.481675 -298.201789 
L 278.166341 -298.201789 
L 276.851007 -298.201789 
L 275.535673 -298.201789 
L 274.220339 -298.201789 
L 272.905006 -298.201789 
L 271.589672 -298.201789 
L 270.274338 -298.201789 
L 268.959004 -298.201789 
L 267.64367 -298.201789 
L 266.328336 -298.201789 
L 265.013002 -298.201789 
L 263.697668 -298.201789 
L 262.382334 -298.201789 
L 261.067 -294.789461 
L 259.751666 -298.201789 
L 258.436332 -298.201789 
L 257.120998 -298.201789 
L 255.805664 -298.201789 
L 254.49033 -298.201789 
L 253.174996 -298.201789 
L 251.859662 -298.201789 
L 250.544328 -298.201789 
L 249.228994 -298.201789 
L 247.91366 -298.201789 
L 246.598326 -298.201789 
L 245.282992 -298.201789 
L 243.967658 -298.201789 
L 242.652324 -298.201789 
L 241.33699 -298.201789 
L 240.021656 -298.201789 
L 238.706322 -298.201789 
L 237.390988 -298.201789 
L 236.075654 -298.201789 
L 234.760321 -298.201789 
L 233.444987 -298.201789 
L 232.129653 -298.201789 
L 230.814319 -298.201789 
L 229.498985 -298.201789 
L 228.183651 -298.201789 
L 226.868317 -298.201789 
L 225.552983 -298.201789 
L 224.237649 -298.201789 
L 222.922315 -298.201789 
L 221.606981 -298.201789 
L 220.291647 -298.201789 
L 218.976313 -298.201789 
L 217.660979 -298.201789 
L 216.345645 -298.201789 
L 215.030311 -298.201789 
L 213.714977 -298.201789 
L 212.399643 -298.201789 
L 211.084309 -298.201789 
L 209.768975 -298.201789 
L 208.453641 -298.201789 
L 207.138307 -298.201789 
L 205.822973 -298.201789 
L 204.507639 -298.201789 
L 203.192305 -298.201789 
L 201.876971 -298.201789 
L 200.561637 -298.201789 
L 199.246303 -298.201789 
L 197.930969 -298.201789 
L 196.615636 -298.201789 
L 195.300302 -298.201789 
L 193.984968 -298.201789 
L 192.669634 -298.201789 
L 191.3543 -298.201789 
L 190.038966 -298.201789 
L 188.723632 -298.201789 
L 187.408298 -298.201789 
L 186.092964 -298.201789 
L 184.77763 -298.201789 
L 183.462296 -298.201789 
L 182.146962 -298.201789 
L 180.831628 -298.201789 
L 179.516294 -298.201789 
L 178.20096 -298.201789 
L 176.885626 -298.201789 
L 175.570292 -298.201789 
L 174.254958 -298.201789 
L 172.939624 -298.201789 
L 171.62429 -298.201789 
L 170.308956 -298.201789 
L 168.993622 -298.201789 
L 167.678288 -298.201789 
L 166.362954 -298.201789 
L 165.04762 -298.201789 
L 163.732286 -298.201789 
L 162.416952 -298.201789 
L 161.101618 -298.201789 
L 159.786284 -298.201789 
L 158.470951 -298.201789 
L 157.155617 -298.201789 
L 155.840283 -298.201789 
L 154.524949 -298.201789 
L 153.209615 -298.201789 
L 151.894281 -298.201789 
L 150.578947 -298.201789 
L 149.263613 -298.201789 
L 147.948279 -297.348707 
L 146.632945 -295.642543 
L 145.317611 -289.736591 
L 144.002277 -281.468259 
L 142.686943 -294.138166 
L 141.371609 -283.768299 
L 140.056275 -284.554119 
L 138.740941 -291.846329 
L 137.425607 -295.642543 
L 136.110273 -291.393539 
L 134.794939 -292.230215 
L 133.479605 -277.402996 
L 132.164271 -283.699397 
L 130.848937 -286.194661 
L 129.533603 -278.923779 
L 128.218269 -280.287069 
L 126.902935 -279.435628 
L 125.587601 -275.824795 
L 124.272267 -270.383116 
L 122.956933 -276.874741 
L 121.641599 -274.315496 
L 120.326266 -278.580905 
L 119.010932 -281.140151 
L 117.695598 -277.727823 
L 116.380264 -276.874741 
L 115.06493 -270.916293 
L 113.749596 -278.580905 
L 112.434262 -280.287069 
L 111.118928 -276.02166 
L 109.803594 -273.462414 
L 108.48826 -274.315496 
L 107.172926 -272.609332 
L 105.857592 -274.315496 
L 104.542258 -273.462414 
L 103.226924 -273.462414 
L 101.91159 -273.462414 
L 100.596256 -272.609332 
L 99.280922 -269.000139 
L 97.965588 -266.709943 
L 96.650254 -268.806555 
L 95.33492 -275.565589 
L 94.019586 -273.462414 
L 92.704252 -276.874741 
L 91.388918 -275.168578 
L 90.073584 -275.168578 
L 88.75825 -276.874741 
L 87.442916 -274.315496 
L 86.127582 -273.462414 
L 84.812248 -271.75625 
L 83.496915 -270.312573 
L 82.181581 -265.005419 
L 80.866247 -251.744918 
L 79.550913 -229.367923 
L 78.235579 -199.967769 
L 76.920245 -173.328646 
L 75.604911 -157.576161 
L 74.289577 -136.183492 
L 72.974243 -125.951431 
L 71.658909 -108.163033 
L 70.343575 -103.638418 
L 69.028241 -105.275679 
L 67.712907 -82.045603 
L 66.397573 -72.267972 
z
" style="stroke: #edd1cb; stroke-opacity: 0.2"/>
    </defs>
    <g clip-path="url(#p9e374f17ae)">
     <use xlink:href="#me40dc8e168" x="0" y="362.097812" style="fill: #edd1cb; fill-opacity: 0.2; stroke: #edd1cb; stroke-opacity: 0.2"/>
    </g>
   </g>
   <g id="PolyCollection_2">
    <defs>
     <path id="m1bc8c7871a" d="M 66.397573 -63.540288 
L 66.397573 -56.909217 
L 67.712907 -69.116491 
L 69.028241 -72.725683 
L 70.343575 -79.809544 
L 71.658909 -81.254862 
L 72.974243 -92.344926 
L 74.289577 -93.196368 
L 75.604911 -89.459213 
L 76.920245 -90.377916 
L 78.235579 -95.890138 
L 79.550913 -131.708093 
L 80.866247 -161.050829 
L 82.181581 -164.133408 
L 83.496915 -187.826117 
L 84.812248 -206.397053 
L 86.127582 -218.405821 
L 87.442916 -218.405821 
L 88.75825 -218.405821 
L 90.073584 -218.405821 
L 91.388918 -218.405821 
L 92.704252 -218.405821 
L 94.019586 -218.405821 
L 95.33492 -218.405821 
L 96.650254 -218.405821 
L 97.965588 -218.405821 
L 99.280922 -209.350029 
L 100.596256 -218.405821 
L 101.91159 -218.405821 
L 103.226924 -218.405821 
L 104.542258 -218.405821 
L 105.857592 -218.405821 
L 107.172926 -218.405821 
L 108.48826 -218.405821 
L 109.803594 -218.405821 
L 111.118928 -219.849498 
L 112.434262 -224.180529 
L 113.749596 -228.511561 
L 115.06493 -220.751796 
L 116.380264 -221.686905 
L 117.695598 -222.736852 
L 119.010932 -221.424419 
L 120.326266 -235.729946 
L 121.641599 -231.362823 
L 122.956933 -232.186375 
L 124.272267 -241.504654 
L 125.587601 -247.279362 
L 126.902935 -254.497747 
L 128.218269 -251.610393 
L 129.533603 -253.05407 
L 130.848937 -245.179468 
L 132.164271 -237.43611 
L 133.479605 -264.603487 
L 134.794939 -264.603487 
L 136.110273 -264.603487 
L 137.425607 -264.603487 
L 138.740941 -264.603487 
L 140.056275 -264.603487 
L 141.371609 -264.603487 
L 142.686943 -264.603487 
L 144.002277 -264.603487 
L 145.317611 -244.916981 
L 146.632945 -264.603487 
L 147.948279 -264.603487 
L 149.263613 -264.603487 
L 150.578947 -264.603487 
L 151.894281 -264.603487 
L 153.209615 -264.603487 
L 154.524949 -264.603487 
L 155.840283 -264.603487 
L 157.155617 -264.603487 
L 158.470951 -264.603487 
L 159.786284 -264.603487 
L 161.101618 -264.603487 
L 162.416952 -264.603487 
L 163.732286 -264.603487 
L 165.04762 -264.603487 
L 166.362954 -264.603487 
L 167.678288 -264.603487 
L 168.993622 -264.603487 
L 170.308956 -264.603487 
L 171.62429 -264.603487 
L 172.939624 -264.603487 
L 174.254958 -264.603487 
L 175.570292 -264.603487 
L 176.885626 -264.603487 
L 178.20096 -264.603487 
L 179.516294 -264.603487 
L 180.831628 -258.828778 
L 182.146962 -260.272455 
L 183.462296 -264.603487 
L 184.77763 -264.603487 
L 186.092964 -264.603487 
L 187.408298 -264.603487 
L 188.723632 -244.916981 
L 190.038966 -264.603487 
L 191.3543 -264.603487 
L 192.669634 -264.603487 
L 193.984968 -264.603487 
L 195.300302 -264.603487 
L 196.615636 -264.603487 
L 197.930969 -264.603487 
L 199.246303 -264.603487 
L 200.561637 -264.603487 
L 201.876971 -264.603487 
L 203.192305 -264.603487 
L 204.507639 -264.603487 
L 205.822973 -264.603487 
L 207.138307 -264.603487 
L 208.453641 -264.603487 
L 209.768975 -264.603487 
L 211.084309 -264.603487 
L 212.399643 -264.603487 
L 213.714977 -264.603487 
L 215.030311 -264.603487 
L 216.345645 -264.603487 
L 217.660979 -264.603487 
L 218.976313 -264.603487 
L 220.291647 -249.248013 
L 221.606981 -264.603487 
L 222.922315 -264.603487 
L 224.237649 -264.603487 
L 225.552983 -264.603487 
L 226.868317 -264.603487 
L 228.183651 -251.610393 
L 229.498985 -264.603487 
L 230.814319 -264.603487 
L 232.129653 -264.603487 
L 233.444987 -264.603487 
L 234.760321 -264.603487 
L 236.075654 -264.603487 
L 237.390988 -264.603487 
L 238.706322 -264.603487 
L 240.021656 -264.603487 
L 241.33699 -264.603487 
L 242.652324 -264.603487 
L 243.967658 -264.603487 
L 245.282992 -264.603487 
L 246.598326 -264.603487 
L 247.91366 -264.603487 
L 249.228994 -264.603487 
L 250.544328 -264.603487 
L 251.859662 -249.248013 
L 253.174996 -264.603487 
L 254.49033 -264.603487 
L 255.805664 -264.603487 
L 257.120998 -264.603487 
L 258.436332 -264.603487 
L 259.751666 -249.248013 
L 261.067 -264.603487 
L 262.382334 -264.603487 
L 263.697668 -264.603487 
L 265.013002 -264.603487 
L 266.328336 -264.603487 
L 267.64367 -264.603487 
L 268.959004 -264.603487 
L 270.274338 -264.603487 
L 271.589672 -264.603487 
L 272.905006 -264.603487 
L 274.220339 -264.603487 
L 275.535673 -264.603487 
L 276.851007 -264.603487 
L 278.166341 -264.603487 
L 279.481675 -251.610393 
L 280.797009 -264.603487 
L 282.112343 -264.603487 
L 283.427677 -264.603487 
L 284.743011 -264.603487 
L 286.058345 -264.603487 
L 287.373679 -264.603487 
L 288.689013 -264.603487 
L 290.004347 -264.603487 
L 291.319681 -264.603487 
L 292.635015 -264.603487 
L 293.950349 -264.603487 
L 295.265683 -264.603487 
L 296.581017 -264.603487 
L 297.896351 -264.603487 
L 299.211685 -264.603487 
L 300.527019 -264.603487 
L 301.842353 -264.603487 
L 303.157687 -264.603487 
L 304.473021 -264.603487 
L 305.788355 -264.603487 
L 307.103689 -264.603487 
L 308.419023 -247.673092 
L 309.734357 -264.603487 
L 311.04969 -264.603487 
L 312.365024 -264.603487 
L 313.680358 -260.272455 
L 314.995692 -244.916981 
L 316.311026 -264.603487 
L 317.62636 -264.603487 
L 318.941694 -264.603487 
L 320.257028 -264.603487 
L 321.572362 -264.603487 
L 322.887696 -264.603487 
L 324.20303 -264.603487 
L 325.518364 -264.603487 
L 326.833698 -264.603487 
L 328.149032 -264.603487 
L 328.149032 -264.603487 
L 328.149032 -264.603487 
L 326.833698 -264.603487 
L 325.518364 -264.603487 
L 324.20303 -264.603487 
L 322.887696 -264.603487 
L 321.572362 -264.603487 
L 320.257028 -264.603487 
L 318.941694 -264.603487 
L 317.62636 -264.603487 
L 316.311026 -264.603487 
L 314.995692 -264.603487 
L 313.680358 -264.603487 
L 312.365024 -264.603487 
L 311.04969 -264.603487 
L 309.734357 -264.603487 
L 308.419023 -264.603487 
L 307.103689 -264.603487 
L 305.788355 -264.603487 
L 304.473021 -264.603487 
L 303.157687 -264.603487 
L 301.842353 -264.603487 
L 300.527019 -264.603487 
L 299.211685 -264.603487 
L 297.896351 -264.603487 
L 296.581017 -264.603487 
L 295.265683 -264.603487 
L 293.950349 -264.603487 
L 292.635015 -264.603487 
L 291.319681 -264.603487 
L 290.004347 -264.603487 
L 288.689013 -264.603487 
L 287.373679 -264.603487 
L 286.058345 -264.603487 
L 284.743011 -264.603487 
L 283.427677 -264.603487 
L 282.112343 -264.603487 
L 280.797009 -264.603487 
L 279.481675 -264.603487 
L 278.166341 -264.603487 
L 276.851007 -264.603487 
L 275.535673 -264.603487 
L 274.220339 -264.603487 
L 272.905006 -264.603487 
L 271.589672 -264.603487 
L 270.274338 -264.603487 
L 268.959004 -264.603487 
L 267.64367 -264.603487 
L 266.328336 -264.603487 
L 265.013002 -264.603487 
L 263.697668 -264.603487 
L 262.382334 -264.603487 
L 261.067 -264.603487 
L 259.751666 -264.603487 
L 258.436332 -264.603487 
L 257.120998 -264.603487 
L 255.805664 -264.603487 
L 254.49033 -264.603487 
L 253.174996 -264.603487 
L 251.859662 -264.603487 
L 250.544328 -264.603487 
L 249.228994 -264.603487 
L 247.91366 -264.603487 
L 246.598326 -264.603487 
L 245.282992 -264.603487 
L 243.967658 -264.603487 
L 242.652324 -264.603487 
L 241.33699 -264.603487 
L 240.021656 -264.603487 
L 238.706322 -264.603487 
L 237.390988 -264.603487 
L 236.075654 -264.603487 
L 234.760321 -264.603487 
L 233.444987 -264.603487 
L 232.129653 -264.603487 
L 230.814319 -264.603487 
L 229.498985 -264.603487 
L 228.183651 -264.603487 
L 226.868317 -264.603487 
L 225.552983 -264.603487 
L 224.237649 -264.603487 
L 222.922315 -264.603487 
L 221.606981 -264.603487 
L 220.291647 -264.603487 
L 218.976313 -264.603487 
L 217.660979 -264.603487 
L 216.345645 -264.603487 
L 215.030311 -264.603487 
L 213.714977 -264.603487 
L 212.399643 -264.603487 
L 211.084309 -264.603487 
L 209.768975 -264.603487 
L 208.453641 -264.603487 
L 207.138307 -264.603487 
L 205.822973 -264.603487 
L 204.507639 -264.603487 
L 203.192305 -264.603487 
L 201.876971 -264.603487 
L 200.561637 -264.603487 
L 199.246303 -264.603487 
L 197.930969 -264.603487 
L 196.615636 -264.603487 
L 195.300302 -264.603487 
L 193.984968 -264.603487 
L 192.669634 -264.603487 
L 191.3543 -264.603487 
L 190.038966 -264.603487 
L 188.723632 -264.603487 
L 187.408298 -264.603487 
L 186.092964 -264.603487 
L 184.77763 -264.603487 
L 183.462296 -264.603487 
L 182.146962 -264.603487 
L 180.831628 -264.603487 
L 179.516294 -264.603487 
L 178.20096 -264.603487 
L 176.885626 -264.603487 
L 175.570292 -264.603487 
L 174.254958 -264.603487 
L 172.939624 -264.603487 
L 171.62429 -264.603487 
L 170.308956 -264.603487 
L 168.993622 -264.603487 
L 167.678288 -264.603487 
L 166.362954 -264.603487 
L 165.04762 -264.603487 
L 163.732286 -264.603487 
L 162.416952 -264.603487 
L 161.101618 -264.603487 
L 159.786284 -264.603487 
L 158.470951 -264.603487 
L 157.155617 -264.603487 
L 155.840283 -264.603487 
L 154.524949 -264.603487 
L 153.209615 -264.603487 
L 151.894281 -264.603487 
L 150.578947 -264.603487 
L 149.263613 -264.603487 
L 147.948279 -264.603487 
L 146.632945 -264.603487 
L 145.317611 -264.603487 
L 144.002277 -264.603487 
L 142.686943 -264.603487 
L 141.371609 -264.603487 
L 140.056275 -264.603487 
L 138.740941 -264.603487 
L 137.425607 -264.603487 
L 136.110273 -264.603487 
L 134.794939 -264.603487 
L 133.479605 -264.603487 
L 132.164271 -264.603487 
L 130.848937 -264.603487 
L 129.533603 -263.15981 
L 128.218269 -263.15981 
L 126.902935 -264.603487 
L 125.587601 -260.272455 
L 124.272267 -257.385101 
L 122.956933 -255.941424 
L 121.641599 -255.941424 
L 120.326266 -250.202808 
L 119.010932 -243.473304 
L 117.695598 -242.948331 
L 116.380264 -242.948331 
L 115.06493 -242.948331 
L 113.749596 -242.948331 
L 112.434262 -237.173623 
L 111.118928 -231.398915 
L 109.803594 -228.511561 
L 108.48826 -222.736852 
L 107.172926 -222.736852 
L 105.857592 -218.405821 
L 104.542258 -218.405821 
L 103.226924 -218.405821 
L 101.91159 -218.405821 
L 100.596256 -218.405821 
L 99.280922 -218.405821 
L 97.965588 -218.405821 
L 96.650254 -218.405821 
L 95.33492 -218.405821 
L 94.019586 -218.405821 
L 92.704252 -218.405821 
L 91.388918 -218.405821 
L 90.073584 -218.405821 
L 88.75825 -218.405821 
L 87.442916 -218.405821 
L 86.127582 -218.405821 
L 84.812248 -218.405821 
L 83.496915 -214.46852 
L 82.181581 -203.053628 
L 80.866247 -198.927665 
L 79.550913 -172.670789 
L 78.235579 -132.774446 
L 76.920245 -120.170161 
L 75.604911 -111.970731 
L 74.289577 -113.286446 
L 72.974243 -108.686366 
L 71.658909 -93.201289 
L 70.343575 -95.104318 
L 69.028241 -85.0642 
L 67.712907 -80.600285 
L 66.397573 -63.540288 
z
" style="stroke: #d499a7; stroke-opacity: 0.2"/>
    </defs>
    <g clip-path="url(#p9e374f17ae)">
     <use xlink:href="#m1bc8c7871a" x="0" y="362.097812" style="fill: #d499a7; fill-opacity: 0.2; stroke: #d499a7; stroke-opacity: 0.2"/>
    </g>
   </g>
   <g id="PolyCollection_3">
    <defs>
     <path id="m921ca3f6ed" d="M 66.397573 -69.510221 
L 66.397573 -58.287272 
L 67.712907 -78.298605 
L 69.028241 -84.078235 
L 70.343575 -89.977624 
L 71.658909 -88.146779 
L 72.974243 -87.685787 
L 74.289577 -86.63584 
L 75.604911 -90.966871 
L 76.920245 -99.427146 
L 78.235579 -112.093772 
L 79.550913 -111.767304 
L 80.866247 -109.144077 
L 82.181581 -111.96581 
L 83.496915 -117.02032 
L 84.812248 -120.627872 
L 86.127582 -121.874684 
L 87.442916 -125.354274 
L 88.75825 -130.864855 
L 90.073584 -145.628093 
L 91.388918 -129.682024 
L 92.704252 -146.810924 
L 94.019586 -144.054813 
L 95.33492 -152.452748 
L 96.650254 -155.469705 
L 97.965588 -152.390407 
L 99.280922 -158.755711 
L 100.596256 -162.23366 
L 101.91159 -167.28653 
L 103.226924 -165.121014 
L 104.542258 -172.208156 
L 105.857592 -163.546094 
L 107.172926 -172.208156 
L 108.48826 -172.208156 
L 109.803594 -167.68026 
L 111.118928 -153.69956 
L 112.434262 -154.222893 
L 113.749596 -172.208156 
L 115.06493 -164.530419 
L 116.380264 -164.530419 
L 117.695598 -172.208156 
L 119.010932 -165.514744 
L 120.326266 -161.577443 
L 121.641599 -157.049547 
L 122.956933 -157.507258 
L 124.272267 -157.18079 
L 125.587601 -161.643065 
L 126.902935 -161.511821 
L 128.218269 -154.094931 
L 129.533603 -164.267932 
L 130.848937 -167.68026 
L 132.164271 -172.208156 
L 133.479605 -166.499069 
L 134.794939 -172.208156 
L 136.110273 -172.208156 
L 137.425607 -172.208156 
L 138.740941 -172.208156 
L 140.056275 -172.208156 
L 141.371609 -165.121014 
L 142.686943 -172.208156 
L 144.002277 -167.28653 
L 145.317611 -172.208156 
L 146.632945 -172.208156 
L 147.948279 -167.089665 
L 149.263613 -162.168038 
L 150.578947 -172.208156 
L 151.894281 -172.208156 
L 153.209615 -166.105339 
L 154.524949 -166.105339 
L 155.840283 -166.105339 
L 157.155617 -172.208156 
L 158.470951 -172.208156 
L 159.786284 -166.054482 
L 161.101618 -158.361981 
L 162.416952 -159.343025 
L 163.732286 -159.936901 
L 165.04762 -159.083819 
L 166.362954 -167.68026 
L 167.678288 -168.664585 
L 168.993622 -166.302204 
L 170.308956 -161.971173 
L 171.62429 -155.146518 
L 172.939624 -154.030949 
L 174.254958 -172.208156 
L 175.570292 -172.208156 
L 176.885626 -172.208156 
L 178.20096 -172.208156 
L 179.516294 -159.477549 
L 180.831628 -172.208156 
L 182.146962 -172.208156 
L 183.462296 -172.208156 
L 184.77763 -164.727284 
L 186.092964 -172.208156 
L 187.408298 -172.208156 
L 188.723632 -164.136689 
L 190.038966 -165.514744 
L 191.3543 -163.939824 
L 192.669634 -164.530419 
L 193.984968 -172.208156 
L 195.300302 -172.208156 
L 196.615636 -172.208156 
L 197.930969 -161.700484 
L 199.246303 -158.033872 
L 200.561637 -165.514744 
L 201.876971 -167.68026 
L 203.192305 -167.68026 
L 204.507639 -164.267932 
L 205.822973 -158.883673 
L 207.138307 -151.209217 
L 208.453641 -165.711609 
L 209.768975 -164.727284 
L 211.084309 -155.409005 
L 212.399643 -172.208156 
L 213.714977 -164.333554 
L 215.030311 -161.05247 
L 216.345645 -162.561768 
L 217.660979 -162.561768 
L 218.976313 -166.695934 
L 220.291647 -158.493224 
L 221.606981 -165.514744 
L 222.922315 -160.724361 
L 224.237649 -164.136689 
L 225.552983 -172.208156 
L 226.868317 -164.530419 
L 228.183651 -162.168038 
L 229.498985 -172.208156 
L 230.814319 -163.349229 
L 232.129653 -172.208156 
L 233.444987 -172.208156 
L 234.760321 -172.208156 
L 236.075654 -172.208156 
L 237.390988 -164.924149 
L 238.706322 -155.927416 
L 240.021656 -165.711609 
L 241.33699 -164.136689 
L 242.652324 -159.018197 
L 243.967658 -161.971173 
L 245.282992 -172.208156 
L 246.598326 -164.136689 
L 247.91366 -164.136689 
L 249.228994 -167.28653 
L 250.544328 -164.924149 
L 251.859662 -172.208156 
L 253.174996 -172.208156 
L 254.49033 -164.333554 
L 255.805664 -172.208156 
L 257.120998 -172.208156 
L 258.436332 -157.046266 
L 259.751666 -158.030591 
L 261.067 -172.208156 
L 262.382334 -167.089665 
L 263.697668 -172.208156 
L 265.013002 -156.065222 
L 266.328336 -172.208156 
L 267.64367 -172.208156 
L 268.959004 -166.695934 
L 270.274338 -163.546094 
L 271.589672 -172.208156 
L 272.905006 -167.483395 
L 274.220339 -172.208156 
L 275.535673 -164.333554 
L 276.851007 -172.208156 
L 278.166341 -166.105339 
L 279.481675 -161.372375 
L 280.797009 -172.208156 
L 282.112343 -172.208156 
L 283.427677 -172.208156 
L 284.743011 -172.208156 
L 286.058345 -172.208156 
L 287.373679 -158.558846 
L 288.689013 -160.776859 
L 290.004347 -166.499069 
L 291.319681 -163.152363 
L 292.635015 -165.061954 
L 293.950349 -155.015275 
L 295.265683 -172.208156 
L 296.581017 -172.208156 
L 297.896351 -166.695934 
L 299.211685 -160.460234 
L 300.527019 -163.742959 
L 301.842353 -172.208156 
L 303.157687 -172.208156 
L 304.473021 -167.28653 
L 305.788355 -159.016557 
L 307.103689 -172.208156 
L 308.419023 -167.089665 
L 309.734357 -167.089665 
L 311.04969 -165.317879 
L 312.365024 -172.208156 
L 313.680358 -172.208156 
L 314.995692 -172.208156 
L 316.311026 -172.208156 
L 317.62636 -172.208156 
L 318.941694 -164.924149 
L 320.257028 -172.208156 
L 321.572362 -165.121014 
L 322.887696 -165.121014 
L 324.20303 -162.561768 
L 325.518364 -172.208156 
L 326.833698 -158.821332 
L 328.149032 -172.208156 
L 328.149032 -172.208156 
L 328.149032 -172.208156 
L 326.833698 -172.208156 
L 325.518364 -172.208156 
L 324.20303 -172.208156 
L 322.887696 -172.208156 
L 321.572362 -172.208156 
L 320.257028 -172.208156 
L 318.941694 -172.208156 
L 317.62636 -172.208156 
L 316.311026 -172.208156 
L 314.995692 -172.208156 
L 313.680358 -172.208156 
L 312.365024 -172.208156 
L 311.04969 -172.208156 
L 309.734357 -172.208156 
L 308.419023 -172.208156 
L 307.103689 -172.208156 
L 305.788355 -172.208156 
L 304.473021 -172.208156 
L 303.157687 -172.208156 
L 301.842353 -172.208156 
L 300.527019 -172.208156 
L 299.211685 -172.208156 
L 297.896351 -172.208156 
L 296.581017 -172.208156 
L 295.265683 -172.208156 
L 293.950349 -172.208156 
L 292.635015 -172.208156 
L 291.319681 -172.208156 
L 290.004347 -172.208156 
L 288.689013 -172.208156 
L 287.373679 -172.208156 
L 286.058345 -172.208156 
L 284.743011 -172.208156 
L 283.427677 -172.208156 
L 282.112343 -172.208156 
L 280.797009 -172.208156 
L 279.481675 -172.208156 
L 278.166341 -172.208156 
L 276.851007 -172.208156 
L 275.535673 -172.208156 
L 274.220339 -172.208156 
L 272.905006 -172.208156 
L 271.589672 -172.208156 
L 270.274338 -172.208156 
L 268.959004 -172.208156 
L 267.64367 -172.208156 
L 266.328336 -172.208156 
L 265.013002 -172.208156 
L 263.697668 -172.208156 
L 262.382334 -172.208156 
L 261.067 -172.208156 
L 259.751666 -172.208156 
L 258.436332 -172.208156 
L 257.120998 -172.208156 
L 255.805664 -172.208156 
L 254.49033 -172.208156 
L 253.174996 -172.208156 
L 251.859662 -172.208156 
L 250.544328 -172.208156 
L 249.228994 -172.208156 
L 247.91366 -172.208156 
L 246.598326 -172.208156 
L 245.282992 -172.208156 
L 243.967658 -172.208156 
L 242.652324 -172.208156 
L 241.33699 -172.208156 
L 240.021656 -172.208156 
L 238.706322 -172.208156 
L 237.390988 -172.208156 
L 236.075654 -172.208156 
L 234.760321 -172.208156 
L 233.444987 -172.208156 
L 232.129653 -172.208156 
L 230.814319 -172.208156 
L 229.498985 -172.208156 
L 228.183651 -172.208156 
L 226.868317 -172.208156 
L 225.552983 -172.208156 
L 224.237649 -172.208156 
L 222.922315 -172.208156 
L 221.606981 -172.208156 
L 220.291647 -172.208156 
L 218.976313 -172.208156 
L 217.660979 -172.208156 
L 216.345645 -172.208156 
L 215.030311 -172.208156 
L 213.714977 -172.208156 
L 212.399643 -172.208156 
L 211.084309 -172.208156 
L 209.768975 -172.208156 
L 208.453641 -172.208156 
L 207.138307 -172.208156 
L 205.822973 -172.208156 
L 204.507639 -172.208156 
L 203.192305 -172.208156 
L 201.876971 -172.208156 
L 200.561637 -172.208156 
L 199.246303 -172.208156 
L 197.930969 -172.208156 
L 196.615636 -172.208156 
L 195.300302 -172.208156 
L 193.984968 -172.208156 
L 192.669634 -172.208156 
L 191.3543 -172.208156 
L 190.038966 -172.208156 
L 188.723632 -172.208156 
L 187.408298 -172.208156 
L 186.092964 -172.208156 
L 184.77763 -172.208156 
L 183.462296 -172.208156 
L 182.146962 -172.208156 
L 180.831628 -172.208156 
L 179.516294 -172.208156 
L 178.20096 -172.208156 
L 176.885626 -172.208156 
L 175.570292 -172.208156 
L 174.254958 -172.208156 
L 172.939624 -172.208156 
L 171.62429 -171.026966 
L 170.308956 -172.208156 
L 168.993622 -172.208156 
L 167.678288 -172.208156 
L 166.362954 -172.208156 
L 165.04762 -172.208156 
L 163.732286 -172.208156 
L 162.416952 -172.208156 
L 161.101618 -172.208156 
L 159.786284 -172.208156 
L 158.470951 -172.208156 
L 157.155617 -172.208156 
L 155.840283 -172.208156 
L 154.524949 -172.208156 
L 153.209615 -172.208156 
L 151.894281 -172.208156 
L 150.578947 -172.208156 
L 149.263613 -172.208156 
L 147.948279 -172.208156 
L 146.632945 -172.208156 
L 145.317611 -172.208156 
L 144.002277 -172.208156 
L 142.686943 -172.208156 
L 141.371609 -172.208156 
L 140.056275 -172.208156 
L 138.740941 -172.208156 
L 137.425607 -172.208156 
L 136.110273 -172.208156 
L 134.794939 -172.208156 
L 133.479605 -172.208156 
L 132.164271 -172.208156 
L 130.848937 -172.208156 
L 129.533603 -172.208156 
L 128.218269 -170.698857 
L 126.902935 -172.208156 
L 125.587601 -172.208156 
L 124.272267 -172.208156 
L 122.956933 -172.208156 
L 121.641599 -172.208156 
L 120.326266 -172.208156 
L 119.010932 -172.208156 
L 117.695598 -172.208156 
L 116.380264 -172.208156 
L 115.06493 -172.208156 
L 113.749596 -172.208156 
L 112.434262 -172.208156 
L 111.118928 -172.208156 
L 109.803594 -172.208156 
L 108.48826 -172.208156 
L 107.172926 -172.208156 
L 105.857592 -172.208156 
L 104.542258 -172.208156 
L 103.226924 -172.208156 
L 101.91159 -172.208156 
L 100.596256 -172.208156 
L 99.280922 -172.208156 
L 97.965588 -170.04264 
L 96.650254 -172.667508 
L 95.33492 -171.228752 
L 94.019586 -168.994334 
L 92.704252 -167.942746 
L 91.388918 -157.508899 
L 90.073584 -169.584929 
L 88.75825 -157.446558 
L 87.442916 -150.749865 
L 86.127582 -147.800171 
L 84.812248 -147.998676 
L 83.496915 -143.533121 
L 82.181581 -136.708465 
L 80.866247 -134.87598 
L 79.550913 -135.855384 
L 78.235579 -134.411707 
L 76.920245 -120.235782 
L 75.604911 -113.611273 
L 74.289577 -109.217902 
L 72.974243 -106.194383 
L 71.658909 -111.312874 
L 70.343575 -111.517942 
L 69.028241 -102.386684 
L 67.712907 -95.9574 
L 66.397573 -69.510221 
z
" style="stroke: #a9678f; stroke-opacity: 0.2"/>
    </defs>
    <g clip-path="url(#p9e374f17ae)">
     <use xlink:href="#m921ca3f6ed" x="0" y="362.097812" style="fill: #a9678f; fill-opacity: 0.2; stroke: #a9678f; stroke-opacity: 0.2"/>
    </g>
   </g>
   <g id="PolyCollection_4">
    <defs>
     <path id="mb279f9320c" d="M 66.397573 -64.852722 
L 66.397573 -56.451506 
L 67.712907 -72.397575 
L 69.028241 -79.611038 
L 70.343575 -83.814107 
L 71.658909 -93.919847 
L 72.974243 -103.699118 
L 74.289577 -106.320704 
L 75.604911 -110.655016 
L 76.920245 -109.080096 
L 78.235579 -109.867556 
L 79.550913 -111.442477 
L 80.866247 -108.686366 
L 82.181581 -110.782979 
L 83.496915 -109.9988 
L 84.812248 -110.655016 
L 86.127582 -111.704963 
L 87.442916 -106.455229 
L 88.75825 -110.78626 
L 90.073584 -112.229937 
L 91.388918 -109.473826 
L 92.704252 -108.686366 
L 94.019586 -100.545996 
L 95.33492 -108.292636 
L 96.650254 -108.686366 
L 97.965588 -107.373932 
L 99.280922 -111.836207 
L 100.596256 -111.704963 
L 101.91159 -111.048747 
L 103.226924 -111.442477 
L 104.542258 -110.78626 
L 105.857592 -107.898906 
L 107.172926 -112.229937 
L 108.48826 -112.623667 
L 109.803594 -111.832926 
L 111.118928 -112.623667 
L 112.434262 -111.57372 
L 113.749596 -110.261286 
L 115.06493 -113.411127 
L 116.380264 -112.098694 
L 117.695598 -108.292636 
L 119.010932 -109.736313 
L 120.326266 -112.623667 
L 121.641599 -111.048747 
L 122.956933 -112.098694 
L 124.272267 -112.098694 
L 125.587601 -112.098694 
L 126.902935 -111.57372 
L 128.218269 -112.098694 
L 129.533603 -112.623667 
L 130.848937 -112.623667 
L 132.164271 -109.867556 
L 133.479605 -109.867556 
L 134.794939 -113.411127 
L 136.110273 -109.473826 
L 137.425607 -111.442477 
L 138.740941 -113.411127 
L 140.056275 -113.411127 
L 141.371609 -113.411127 
L 142.686943 -109.080096 
L 144.002277 -113.411127 
L 145.317611 -113.411127 
L 146.632945 -113.411127 
L 147.948279 -113.411127 
L 149.263613 -113.411127 
L 150.578947 -113.411127 
L 151.894281 -113.411127 
L 153.209615 -113.411127 
L 154.524949 -113.411127 
L 155.840283 -113.411127 
L 157.155617 -113.411127 
L 158.470951 -113.411127 
L 159.786284 -113.411127 
L 161.101618 -113.411127 
L 162.416952 -113.411127 
L 163.732286 -113.411127 
L 165.04762 -113.411127 
L 166.362954 -113.411127 
L 167.678288 -113.411127 
L 168.993622 -113.411127 
L 170.308956 -108.686366 
L 171.62429 -113.411127 
L 172.939624 -113.411127 
L 174.254958 -113.411127 
L 175.570292 -113.411127 
L 176.885626 -113.411127 
L 178.20096 -113.411127 
L 179.516294 -113.411127 
L 180.831628 -113.411127 
L 182.146962 -111.442477 
L 183.462296 -111.442477 
L 184.77763 -113.411127 
L 186.092964 -113.411127 
L 187.408298 -111.442477 
L 188.723632 -111.442477 
L 190.038966 -111.442477 
L 191.3543 -111.442477 
L 192.669634 -107.898906 
L 193.984968 -111.442477 
L 195.300302 -111.442477 
L 196.615636 -110.78626 
L 197.930969 -111.442477 
L 199.246303 -111.442477 
L 200.561637 -111.442477 
L 201.876971 -113.411127 
L 203.192305 -113.411127 
L 204.507639 -113.411127 
L 205.822973 -113.411127 
L 207.138307 -113.411127 
L 208.453641 -113.411127 
L 209.768975 -113.411127 
L 211.084309 -113.411127 
L 212.399643 -113.411127 
L 213.714977 -113.411127 
L 215.030311 -113.411127 
L 216.345645 -113.411127 
L 217.660979 -113.411127 
L 218.976313 -113.411127 
L 220.291647 -113.411127 
L 221.606981 -113.411127 
L 222.922315 -113.411127 
L 224.237649 -113.411127 
L 225.552983 -113.411127 
L 226.868317 -113.411127 
L 228.183651 -113.411127 
L 229.498985 -113.411127 
L 230.814319 -113.411127 
L 232.129653 -113.411127 
L 233.444987 -113.411127 
L 234.760321 -113.411127 
L 236.075654 -113.411127 
L 237.390988 -113.411127 
L 238.706322 -113.411127 
L 240.021656 -113.411127 
L 241.33699 -113.411127 
L 242.652324 -113.411127 
L 243.967658 -113.411127 
L 245.282992 -113.411127 
L 246.598326 -113.411127 
L 247.91366 -113.411127 
L 249.228994 -113.411127 
L 250.544328 -107.898906 
L 251.859662 -113.411127 
L 253.174996 -113.411127 
L 254.49033 -113.411127 
L 255.805664 -113.411127 
L 257.120998 -113.411127 
L 258.436332 -113.411127 
L 259.751666 -113.411127 
L 261.067 -113.411127 
L 262.382334 -113.411127 
L 263.697668 -113.411127 
L 265.013002 -113.411127 
L 266.328336 -113.411127 
L 267.64367 -113.411127 
L 268.959004 -113.411127 
L 270.274338 -113.411127 
L 271.589672 -113.411127 
L 272.905006 -113.411127 
L 274.220339 -113.411127 
L 275.535673 -113.411127 
L 276.851007 -113.411127 
L 278.166341 -113.411127 
L 279.481675 -113.411127 
L 280.797009 -113.411127 
L 282.112343 -113.411127 
L 283.427677 -113.411127 
L 284.743011 -113.411127 
L 286.058345 -113.411127 
L 287.373679 -113.411127 
L 288.689013 -113.411127 
L 290.004347 -113.411127 
L 291.319681 -113.411127 
L 292.635015 -113.411127 
L 293.950349 -113.411127 
L 295.265683 -113.411127 
L 296.581017 -113.411127 
L 297.896351 -113.411127 
L 299.211685 -113.411127 
L 300.527019 -113.411127 
L 301.842353 -113.411127 
L 303.157687 -113.411127 
L 304.473021 -113.411127 
L 305.788355 -113.411127 
L 307.103689 -113.411127 
L 308.419023 -113.411127 
L 309.734357 -113.411127 
L 311.04969 -113.411127 
L 312.365024 -113.411127 
L 313.680358 -113.411127 
L 314.995692 -113.411127 
L 316.311026 -113.411127 
L 317.62636 -113.411127 
L 318.941694 -106.586472 
L 320.257028 -106.586472 
L 321.572362 -113.411127 
L 322.887696 -113.411127 
L 324.20303 -113.411127 
L 325.518364 -109.473826 
L 326.833698 -113.411127 
L 328.149032 -113.411127 
L 328.149032 -113.411127 
L 328.149032 -113.411127 
L 326.833698 -113.411127 
L 325.518364 -113.411127 
L 324.20303 -113.411127 
L 322.887696 -113.411127 
L 321.572362 -113.411127 
L 320.257028 -113.411127 
L 318.941694 -113.411127 
L 317.62636 -113.411127 
L 316.311026 -113.411127 
L 314.995692 -113.411127 
L 313.680358 -113.411127 
L 312.365024 -113.411127 
L 311.04969 -113.411127 
L 309.734357 -113.411127 
L 308.419023 -113.411127 
L 307.103689 -113.411127 
L 305.788355 -113.411127 
L 304.473021 -113.411127 
L 303.157687 -113.411127 
L 301.842353 -113.411127 
L 300.527019 -113.411127 
L 299.211685 -113.411127 
L 297.896351 -113.411127 
L 296.581017 -113.411127 
L 295.265683 -113.411127 
L 293.950349 -113.411127 
L 292.635015 -113.411127 
L 291.319681 -113.411127 
L 290.004347 -113.411127 
L 288.689013 -113.411127 
L 287.373679 -113.411127 
L 286.058345 -113.411127 
L 284.743011 -113.411127 
L 283.427677 -113.411127 
L 282.112343 -113.411127 
L 280.797009 -113.411127 
L 279.481675 -113.411127 
L 278.166341 -113.411127 
L 276.851007 -113.411127 
L 275.535673 -113.411127 
L 274.220339 -113.411127 
L 272.905006 -113.411127 
L 271.589672 -113.411127 
L 270.274338 -113.411127 
L 268.959004 -113.411127 
L 267.64367 -113.411127 
L 266.328336 -113.411127 
L 265.013002 -113.411127 
L 263.697668 -113.411127 
L 262.382334 -113.411127 
L 261.067 -113.411127 
L 259.751666 -113.411127 
L 258.436332 -113.411127 
L 257.120998 -113.411127 
L 255.805664 -113.411127 
L 254.49033 -113.411127 
L 253.174996 -113.411127 
L 251.859662 -113.411127 
L 250.544328 -113.411127 
L 249.228994 -113.411127 
L 247.91366 -113.411127 
L 246.598326 -113.411127 
L 245.282992 -113.411127 
L 243.967658 -113.411127 
L 242.652324 -113.411127 
L 241.33699 -113.411127 
L 240.021656 -113.411127 
L 238.706322 -113.411127 
L 237.390988 -113.411127 
L 236.075654 -113.411127 
L 234.760321 -113.411127 
L 233.444987 -113.411127 
L 232.129653 -113.411127 
L 230.814319 -113.411127 
L 229.498985 -113.411127 
L 228.183651 -113.411127 
L 226.868317 -113.411127 
L 225.552983 -113.411127 
L 224.237649 -113.411127 
L 222.922315 -113.411127 
L 221.606981 -113.411127 
L 220.291647 -113.411127 
L 218.976313 -113.411127 
L 217.660979 -113.411127 
L 216.345645 -113.411127 
L 215.030311 -113.411127 
L 213.714977 -113.411127 
L 212.399643 -113.411127 
L 211.084309 -113.411127 
L 209.768975 -113.411127 
L 208.453641 -113.411127 
L 207.138307 -113.411127 
L 205.822973 -113.411127 
L 204.507639 -113.411127 
L 203.192305 -113.411127 
L 201.876971 -113.411127 
L 200.561637 -113.411127 
L 199.246303 -113.411127 
L 197.930969 -113.411127 
L 196.615636 -113.411127 
L 195.300302 -113.411127 
L 193.984968 -113.411127 
L 192.669634 -113.411127 
L 191.3543 -113.411127 
L 190.038966 -113.411127 
L 188.723632 -113.411127 
L 187.408298 -113.411127 
L 186.092964 -113.411127 
L 184.77763 -113.411127 
L 183.462296 -113.411127 
L 182.146962 -113.411127 
L 180.831628 -113.411127 
L 179.516294 -113.411127 
L 178.20096 -113.411127 
L 176.885626 -113.411127 
L 175.570292 -113.411127 
L 174.254958 -113.411127 
L 172.939624 -113.411127 
L 171.62429 -113.411127 
L 170.308956 -113.411127 
L 168.993622 -113.411127 
L 167.678288 -113.411127 
L 166.362954 -113.411127 
L 165.04762 -113.411127 
L 163.732286 -113.411127 
L 162.416952 -113.411127 
L 161.101618 -113.411127 
L 159.786284 -113.411127 
L 158.470951 -113.411127 
L 157.155617 -113.411127 
L 155.840283 -113.411127 
L 154.524949 -113.411127 
L 153.209615 -113.411127 
L 151.894281 -113.411127 
L 150.578947 -113.411127 
L 149.263613 -113.411127 
L 147.948279 -113.411127 
L 146.632945 -113.411127 
L 145.317611 -113.411127 
L 144.002277 -113.411127 
L 142.686943 -113.411127 
L 141.371609 -113.411127 
L 140.056275 -113.411127 
L 138.740941 -113.411127 
L 137.425607 -113.411127 
L 136.110273 -113.411127 
L 134.794939 -113.411127 
L 133.479605 -113.411127 
L 132.164271 -113.411127 
L 130.848937 -113.411127 
L 129.533603 -113.411127 
L 128.218269 -113.411127 
L 126.902935 -113.411127 
L 125.587601 -113.411127 
L 124.272267 -113.411127 
L 122.956933 -113.411127 
L 121.641599 -113.411127 
L 120.326266 -113.411127 
L 119.010932 -113.14864 
L 117.695598 -113.411127 
L 116.380264 -113.411127 
L 115.06493 -114.067344 
L 113.749596 -113.804857 
L 112.434262 -113.411127 
L 111.118928 -113.411127 
L 109.803594 -113.411127 
L 108.48826 -113.411127 
L 107.172926 -113.411127 
L 105.857592 -113.411127 
L 104.542258 -113.279884 
L 103.226924 -113.411127 
L 101.91159 -113.411127 
L 100.596256 -113.411127 
L 99.280922 -113.411127 
L 97.965588 -112.889435 
L 96.650254 -113.017397 
L 95.33492 -112.623667 
L 94.019586 -111.048747 
L 92.704252 -113.804857 
L 91.388918 -113.017397 
L 90.073584 -113.411127 
L 88.75825 -113.14864 
L 87.442916 -113.020678 
L 86.127582 -113.411127 
L 84.812248 -113.411127 
L 83.496915 -113.017397 
L 82.181581 -113.411127 
L 80.866247 -113.017397 
L 79.550913 -113.411127 
L 78.235579 -113.411127 
L 76.920245 -113.411127 
L 75.604911 -113.411127 
L 74.289577 -112.886154 
L 72.974243 -111.57372 
L 71.658909 -108.883231 
L 70.343575 -99.107241 
L 69.028241 -96.021381 
L 67.712907 -89.003142 
L 66.397573 -64.852722 
z
" style="stroke: #6c3f70; stroke-opacity: 0.2"/>
    </defs>
    <g clip-path="url(#p9e374f17ae)">
     <use xlink:href="#mb279f9320c" x="0" y="362.097812" style="fill: #6c3f70; fill-opacity: 0.2; stroke: #6c3f70; stroke-opacity: 0.2"/>
    </g>
   </g>
   <g id="PolyCollection_5">
    <defs>
     <path id="m8cd5f5117c" d="M 66.397573 -70.2337 
L 66.397573 -57.501453 
L 67.712907 -73.444241 
L 69.028241 -101.986392 
L 70.343575 -105.470903 
L 71.658909 -121.213545 
L 72.974243 -128.568096 
L 74.289577 -163.546094 
L 75.604911 -193.336697 
L 76.920245 -233.07883 
L 78.235579 -284.814965 
L 79.550913 -299.510941 
L 80.866247 -248.84608 
L 82.181581 -285.861631 
L 83.496915 -324.712949 
L 84.812248 -268.471885 
L 86.127582 -284.878946 
L 87.442916 -293.276881 
L 88.75825 -267.421938 
L 90.073584 -282.321341 
L 91.388918 -323.794245 
L 92.704252 -287.236405 
L 94.019586 -270.896606 
L 95.33492 -243.473304 
L 96.650254 -275.352318 
L 97.965588 -276.471168 
L 99.280922 -250.819652 
L 100.596256 -282.974277 
L 101.91159 -256.135008 
L 103.226924 -264.731449 
L 104.542258 -258.948538 
L 105.857592 -266.306369 
L 107.172926 -267.485919 
L 108.48826 -298.201789 
L 109.803594 -282.843034 
L 111.118928 -272.412467 
L 112.434262 -280.086923 
L 113.749596 -291.373852 
L 115.06493 -282.190098 
L 116.380264 -290.786538 
L 117.695598 -323.400515 
L 119.010932 -323.400515 
L 120.326266 -311.063639 
L 121.641599 -298.201789 
L 122.956933 -296.29876 
L 124.272267 -282.715071 
L 125.587601 -323.400515 
L 126.902935 -323.531759 
L 128.218269 -323.531759 
L 129.533603 -323.531759 
L 130.848937 -323.531759 
L 132.164271 -323.531759 
L 133.479605 -292.026788 
L 134.794939 -299.251736 
L 136.110273 -323.663002 
L 137.425607 -284.288351 
L 138.740941 -323.663002 
L 140.056275 -278.643246 
L 141.371609 -286.452226 
L 142.686943 -285.602425 
L 144.002277 -323.400515 
L 145.317611 -298.201789 
L 146.632945 -299.776709 
L 147.948279 -298.595519 
L 149.263613 -298.201789 
L 150.578947 -323.400515 
L 151.894281 -323.400515 
L 153.209615 -323.400515 
L 154.524949 -323.400515 
L 155.840283 -298.595519 
L 157.155617 -323.400515 
L 158.470951 -298.595519 
L 159.786284 -323.400515 
L 161.101618 -323.400515 
L 162.416952 -301.154764 
L 163.732286 -299.382979 
L 165.04762 -323.400515 
L 166.362954 -323.400515 
L 167.678288 -323.400515 
L 168.993622 -301.154764 
L 170.308956 -299.776709 
L 171.62429 -323.400515 
L 172.939624 -323.400515 
L 174.254958 -323.400515 
L 175.570292 -298.201789 
L 176.885626 -323.400515 
L 178.20096 -323.400515 
L 179.516294 -323.400515 
L 180.831628 -323.400515 
L 182.146962 -323.400515 
L 183.462296 -323.400515 
L 184.77763 -298.201789 
L 186.092964 -323.400515 
L 187.408298 -323.400515 
L 188.723632 -284.552478 
L 190.038966 -299.776709 
L 191.3543 -323.400515 
L 192.669634 -299.382979 
L 193.984968 -323.400515 
L 195.300302 -323.400515 
L 196.615636 -298.595519 
L 197.930969 -298.201789 
L 199.246303 -301.154764 
L 200.561637 -323.400515 
L 201.876971 -323.400515 
L 203.192305 -323.400515 
L 204.507639 -323.400515 
L 205.822973 -282.058854 
L 207.138307 -323.400515 
L 208.453641 -301.351629 
L 209.768975 -323.400515 
L 211.084309 -312.966668 
L 212.399643 -292.820811 
L 213.714977 -323.400515 
L 215.030311 -300.367304 
L 216.345645 -297.991799 
L 217.660979 -323.400515 
L 218.976313 -298.201789 
L 220.291647 -323.400515 
L 221.606981 -323.400515 
L 222.922315 -323.400515 
L 224.237649 -300.170439 
L 225.552983 -298.201789 
L 226.868317 -301.154764 
L 228.183651 -281.796368 
L 229.498985 -298.201789 
L 230.814319 -323.400515 
L 232.129653 -298.989249 
L 233.444987 -323.400515 
L 234.760321 -323.400515 
L 236.075654 -283.568153 
L 237.390988 -323.400515 
L 238.706322 -323.400515 
L 240.021656 -323.400515 
L 241.33699 -298.201789 
L 242.652324 -291.24589 
L 243.967658 -312.966668 
L 245.282992 -323.400515 
L 246.598326 -323.400515 
L 247.91366 -323.400515 
L 249.228994 -323.400515 
L 250.544328 -323.400515 
L 251.859662 -282.715071 
L 253.174996 -298.989249 
L 254.49033 -323.400515 
L 255.805664 -323.400515 
L 257.120998 -323.400515 
L 258.436332 -323.400515 
L 259.751666 -323.400515 
L 261.067 -299.776709 
L 262.382334 -323.400515 
L 263.697668 -323.400515 
L 265.013002 -323.400515 
L 266.328336 -323.400515 
L 267.64367 -287.374211 
L 268.959004 -301.351629 
L 270.274338 -298.201789 
L 271.589672 -323.400515 
L 272.905006 -323.400515 
L 274.220339 -323.400515 
L 275.535673 -300.564169 
L 276.851007 -323.400515 
L 278.166341 -323.400515 
L 279.481675 -303.71401 
L 280.797009 -277.714699 
L 282.112343 -298.595519 
L 283.427677 -323.400515 
L 284.743011 -298.989249 
L 286.058345 -323.400515 
L 287.373679 -323.400515 
L 288.689013 -323.400515 
L 290.004347 -323.400515 
L 291.319681 -284.289992 
L 292.635015 -323.400515 
L 293.950349 -323.400515 
L 295.265683 -298.201789 
L 296.581017 -323.400515 
L 297.896351 -302.13909 
L 299.211685 -323.400515 
L 300.527019 -298.595519 
L 301.842353 -323.400515 
L 303.157687 -323.400515 
L 304.473021 -323.400515 
L 305.788355 -298.201789 
L 307.103689 -323.400515 
L 308.419023 -300.170439 
L 309.734357 -300.170439 
L 311.04969 -323.400515 
L 312.365024 -298.201789 
L 313.680358 -323.400515 
L 314.995692 -323.400515 
L 316.311026 -323.400515 
L 317.62636 -323.400515 
L 318.941694 -323.400515 
L 320.257028 -323.400515 
L 321.572362 -323.400515 
L 322.887696 -323.400515 
L 324.20303 -323.400515 
L 325.518364 -323.400515 
L 326.833698 -300.564169 
L 328.149032 -298.595519 
L 328.149032 -323.400515 
L 328.149032 -323.400515 
L 326.833698 -323.400515 
L 325.518364 -323.400515 
L 324.20303 -323.400515 
L 322.887696 -323.400515 
L 321.572362 -323.400515 
L 320.257028 -323.400515 
L 318.941694 -323.400515 
L 317.62636 -323.400515 
L 316.311026 -323.400515 
L 314.995692 -323.400515 
L 313.680358 -323.400515 
L 312.365024 -323.400515 
L 311.04969 -323.400515 
L 309.734357 -323.400515 
L 308.419023 -323.400515 
L 307.103689 -323.400515 
L 305.788355 -323.400515 
L 304.473021 -323.400515 
L 303.157687 -323.400515 
L 301.842353 -323.400515 
L 300.527019 -323.400515 
L 299.211685 -323.400515 
L 297.896351 -323.400515 
L 296.581017 -323.400515 
L 295.265683 -323.400515 
L 293.950349 -323.400515 
L 292.635015 -323.400515 
L 291.319681 -323.400515 
L 290.004347 -323.400515 
L 288.689013 -323.400515 
L 287.373679 -323.400515 
L 286.058345 -323.400515 
L 284.743011 -323.400515 
L 283.427677 -323.400515 
L 282.112343 -323.400515 
L 280.797009 -323.400515 
L 279.481675 -323.400515 
L 278.166341 -323.400515 
L 276.851007 -323.400515 
L 275.535673 -323.400515 
L 274.220339 -323.400515 
L 272.905006 -323.400515 
L 271.589672 -323.400515 
L 270.274338 -323.400515 
L 268.959004 -323.400515 
L 267.64367 -323.400515 
L 266.328336 -323.400515 
L 265.013002 -323.400515 
L 263.697668 -323.400515 
L 262.382334 -323.400515 
L 261.067 -323.400515 
L 259.751666 -323.400515 
L 258.436332 -323.400515 
L 257.120998 -323.400515 
L 255.805664 -323.400515 
L 254.49033 -323.400515 
L 253.174996 -323.400515 
L 251.859662 -323.400515 
L 250.544328 -323.400515 
L 249.228994 -323.400515 
L 247.91366 -323.400515 
L 246.598326 -323.400515 
L 245.282992 -323.400515 
L 243.967658 -323.400515 
L 242.652324 -323.400515 
L 241.33699 -323.400515 
L 240.021656 -323.400515 
L 238.706322 -323.400515 
L 237.390988 -323.400515 
L 236.075654 -323.400515 
L 234.760321 -323.400515 
L 233.444987 -323.400515 
L 232.129653 -323.400515 
L 230.814319 -323.400515 
L 229.498985 -323.794245 
L 228.183651 -323.400515 
L 226.868317 -323.400515 
L 225.552983 -323.400515 
L 224.237649 -323.400515 
L 222.922315 -323.400515 
L 221.606981 -323.400515 
L 220.291647 -323.400515 
L 218.976313 -323.400515 
L 217.660979 -323.400515 
L 216.345645 -323.400515 
L 215.030311 -323.400515 
L 213.714977 -323.400515 
L 212.399643 -323.400515 
L 211.084309 -323.400515 
L 209.768975 -323.400515 
L 208.453641 -323.400515 
L 207.138307 -323.400515 
L 205.822973 -323.400515 
L 204.507639 -323.400515 
L 203.192305 -323.400515 
L 201.876971 -323.400515 
L 200.561637 -323.400515 
L 199.246303 -323.400515 
L 197.930969 -323.400515 
L 196.615636 -323.400515 
L 195.300302 -323.400515 
L 193.984968 -323.400515 
L 192.669634 -323.400515 
L 191.3543 -323.400515 
L 190.038966 -323.400515 
L 188.723632 -323.400515 
L 187.408298 -323.400515 
L 186.092964 -323.794245 
L 184.77763 -323.400515 
L 183.462296 -323.400515 
L 182.146962 -323.400515 
L 180.831628 -323.400515 
L 179.516294 -323.400515 
L 178.20096 -323.400515 
L 176.885626 -323.400515 
L 175.570292 -323.400515 
L 174.254958 -323.400515 
L 172.939624 -323.400515 
L 171.62429 -323.400515 
L 170.308956 -323.400515 
L 168.993622 -323.400515 
L 167.678288 -323.400515 
L 166.362954 -323.400515 
L 165.04762 -323.400515 
L 163.732286 -323.400515 
L 162.416952 -323.663002 
L 161.101618 -323.400515 
L 159.786284 -323.400515 
L 158.470951 -323.400515 
L 157.155617 -323.400515 
L 155.840283 -323.400515 
L 154.524949 -323.400515 
L 153.209615 -323.400515 
L 151.894281 -323.400515 
L 150.578947 -323.400515 
L 149.263613 -323.400515 
L 147.948279 -323.400515 
L 146.632945 -323.400515 
L 145.317611 -323.400515 
L 144.002277 -323.794245 
L 142.686943 -323.794245 
L 141.371609 -324.056732 
L 140.056275 -324.056732 
L 138.740941 -324.712949 
L 137.425607 -324.187975 
L 136.110273 -324.712949 
L 134.794939 -324.581706 
L 133.479605 -324.191257 
L 132.164271 -324.450462 
L 130.848937 -324.581706 
L 129.533603 -324.581706 
L 128.218269 -324.450462 
L 126.902935 -324.450462 
L 125.587601 -324.056732 
L 124.272267 -323.663002 
L 122.956933 -323.663002 
L 121.641599 -323.794245 
L 120.326266 -323.400515 
L 119.010932 -323.794245 
L 117.695598 -323.794245 
L 116.380264 -323.663002 
L 115.06493 -323.663002 
L 113.749596 -323.663002 
L 112.434262 -323.663002 
L 111.118928 -323.531759 
L 109.803594 -323.663002 
L 108.48826 -323.925489 
L 107.172926 -320.385199 
L 105.857592 -320.381918 
L 104.542258 -316.188692 
L 103.226924 -315.791681 
L 101.91159 -315.919643 
L 100.596256 -324.319219 
L 99.280922 -315.7884 
L 97.965588 -324.187975 
L 96.650254 -324.187975 
L 95.33492 -309.098269 
L 94.019586 -320.513161 
L 92.704252 -324.584987 
L 91.388918 -324.975436 
L 90.073584 -324.844192 
L 88.75825 -317.428942 
L 87.442916 -325.106679 
L 86.127582 -325.106679 
L 84.812248 -324.844192 
L 83.496915 -326.287869 
L 82.181581 -325.500409 
L 80.866247 -309.096629 
L 79.550913 -325.106679 
L 78.235579 -324.975436 
L 76.920245 -299.514222 
L 75.604911 -264.214678 
L 74.289577 -231.336574 
L 72.974243 -189.212375 
L 71.658909 -169.327364 
L 70.343575 -142.089444 
L 69.028241 -126.079393 
L 67.712907 -97.13695 
L 66.397573 -70.2337 
z
" style="stroke: #2d1e3e; stroke-opacity: 0.2"/>
    </defs>
    <g clip-path="url(#p9e374f17ae)">
     <use xlink:href="#m8cd5f5117c" x="0" y="362.097812" style="fill: #2d1e3e; fill-opacity: 0.2; stroke: #2d1e3e; stroke-opacity: 0.2"/>
    </g>
   </g>
   <g id="line2d_13">
    <path d="M 66.397573 297.18111 
L 67.712907 289.765859 
L 69.028241 267.454487 
L 70.343575 268.832542 
L 71.658909 265.485836 
L 72.974243 246.52117 
L 74.289577 237.006026 
L 76.920245 211.544812 
L 78.235579 188.117871 
L 79.550913 159.309952 
L 80.866247 132.995657 
L 82.181581 118.821373 
L 83.496915 108.58439 
L 84.812248 106.353253 
L 86.127582 101.103519 
L 87.442916 98.084921 
L 88.75825 95.656919 
L 90.073584 101.16914 
L 91.388918 102.744061 
L 92.704252 98.675516 
L 94.019586 106.878227 
L 95.33492 98.938003 
L 96.650254 110.487419 
L 97.965588 114.293477 
L 99.280922 112.324826 
L 100.596256 101.16914 
L 101.91159 96.378757 
L 103.226924 90.341562 
L 104.542258 101.431627 
L 105.857592 95.525675 
L 107.172926 102.481574 
L 108.48826 98.938003 
L 109.803594 97.428704 
L 111.118928 94.93508 
L 112.434262 86.076153 
L 113.749596 92.835186 
L 115.06493 109.634337 
L 116.380264 96.969352 
L 117.695598 92.900808 
L 119.010932 95.72254 
L 120.326266 96.050649 
L 121.641599 103.072169 
L 122.956933 98.544273 
L 124.272267 114.884072 
L 125.587601 103.465899 
L 126.902935 100.053572 
L 128.218269 95.131945 
L 129.533603 103.925251 
L 130.848937 91.719618 
L 132.164271 94.475728 
L 133.479605 109.371851 
L 134.794939 82.007609 
L 136.110273 88.70102 
L 137.425607 73.47679 
L 140.056275 100.447302 
L 141.371609 101.56287 
L 142.686943 83.910637 
L 144.002277 102.940926 
L 145.317611 98.150543 
L 146.632945 85.94491 
L 147.948279 77.282847 
L 149.263613 72.164356 
L 150.578947 65.142836 
L 151.894281 66.127161 
L 153.209615 77.807821 
L 154.524949 74.920467 
L 155.840283 74.920467 
L 157.155617 77.939064 
L 158.470951 66.127161 
L 159.786284 69.014515 
L 161.101618 70.458192 
L 162.416952 66.061539 
L 163.732286 66.061539 
L 165.04762 63.896024 
L 166.362954 69.014515 
L 167.678288 71.508139 
L 168.993622 70.064462 
L 170.308956 70.064462 
L 171.62429 63.896024 
L 174.254958 63.896024 
L 175.570292 70.655057 
L 176.885626 71.508139 
L 178.20096 68.227055 
L 179.516294 76.036035 
L 180.831628 69.408245 
L 182.146962 71.048787 
L 183.462296 63.896024 
L 184.77763 63.896024 
L 186.092964 71.508139 
L 187.408298 70.064462 
L 188.723632 63.896024 
L 190.038966 69.736354 
L 191.3543 78.464038 
L 192.669634 63.896024 
L 195.300302 63.896024 
L 196.615636 69.080137 
L 197.930969 70.851922 
L 199.246303 77.742199 
L 200.561637 63.896024 
L 204.507639 63.896024 
L 205.822973 65.142836 
L 207.138307 69.933219 
L 208.453641 86.076153 
L 211.084309 69.670732 
L 212.399643 63.896024 
L 213.714977 70.130084 
L 215.030311 63.896024 
L 216.345645 63.896024 
L 217.660979 70.786301 
L 218.976313 63.896024 
L 220.291647 69.21138 
L 221.606981 63.896024 
L 233.444987 63.896024 
L 234.760321 71.508139 
L 236.075654 71.180031 
L 237.390988 63.896024 
L 243.967658 63.896024 
L 245.282992 69.408245 
L 246.598326 69.801975 
L 247.91366 69.801975 
L 249.228994 79.907715 
L 251.859662 71.508139 
L 253.174996 63.896024 
L 258.436332 63.896024 
L 259.751666 67.308351 
L 261.067 85.94491 
L 262.382334 80.367066 
L 263.697668 71.508139 
L 265.013002 63.896024 
L 266.328336 70.326949 
L 267.64367 78.923389 
L 270.274338 63.896024 
L 271.589672 86.601126 
L 272.905006 68.03019 
L 275.535673 71.508139 
L 276.851007 63.896024 
L 278.166341 63.896024 
L 280.797009 70.195705 
L 283.427677 70.195705 
L 284.743011 73.345546 
L 286.058345 78.923389 
L 287.373679 81.220148 
L 288.689013 69.21138 
L 290.004347 63.896024 
L 291.319681 63.896024 
L 292.635015 71.508139 
L 293.950349 63.896024 
L 295.265683 63.896024 
L 296.581017 71.508139 
L 297.896351 71.048787 
L 299.211685 63.896024 
L 300.527019 76.429765 
L 301.842353 69.080137 
L 303.157687 63.896024 
L 305.788355 63.896024 
L 307.103689 71.508139 
L 308.419023 63.896024 
L 309.734357 79.120254 
L 312.365024 63.896024 
L 314.995692 63.896024 
L 316.311026 76.757874 
L 318.941694 63.896024 
L 325.518364 63.896024 
L 326.833698 71.639383 
L 328.149032 69.670732 
L 328.149032 69.670732 
" clip-path="url(#p9e374f17ae)" style="fill: none; stroke: #edd1cb; stroke-width: 1.5; stroke-linecap: round"/>
   </g>
   <g id="line2d_14">
    <path d="M 66.397573 302.168358 
L 67.712907 287.4691 
L 69.028241 283.597421 
L 70.343575 274.869737 
L 71.658909 275.000981 
L 72.974243 261.286049 
L 74.289577 260.039237 
L 75.604911 262.073509 
L 76.920245 257.348748 
L 78.235579 248.358577 
L 79.550913 210.69173 
L 80.866247 182.21192 
L 82.181581 177.815267 
L 83.496915 158.981844 
L 84.812248 147.694914 
L 86.127582 143.691991 
L 97.965588 143.691991 
L 99.280922 146.710589 
L 100.596256 143.691991 
L 105.857592 143.691991 
L 107.172926 142.248314 
L 108.48826 142.248314 
L 111.118928 136.473606 
L 112.434262 132.142575 
L 113.749596 126.367867 
L 115.06493 129.911438 
L 116.380264 129.780194 
L 119.010932 128.730247 
L 120.326266 119.149482 
L 121.641599 117.705805 
L 122.956933 115.999641 
L 125.587601 107.600065 
L 126.902935 101.825357 
L 128.218269 104.712711 
L 129.533603 103.269034 
L 130.848937 104.450224 
L 132.164271 108.256282 
L 133.479605 97.494326 
L 144.002277 97.494326 
L 145.317611 104.056494 
L 146.632945 97.494326 
L 179.516294 97.494326 
L 180.831628 98.938003 
L 182.146962 98.938003 
L 183.462296 97.494326 
L 187.408298 97.494326 
L 188.723632 104.056494 
L 190.038966 97.494326 
L 218.976313 97.494326 
L 220.291647 102.612817 
L 221.606981 97.494326 
L 226.868317 97.494326 
L 228.183651 101.825357 
L 229.498985 97.494326 
L 250.544328 97.494326 
L 251.859662 102.612817 
L 253.174996 97.494326 
L 258.436332 97.494326 
L 259.751666 102.612817 
L 261.067 97.494326 
L 278.166341 97.494326 
L 279.481675 101.825357 
L 280.797009 97.494326 
L 307.103689 97.494326 
L 308.419023 103.137791 
L 309.734357 97.494326 
L 312.365024 97.494326 
L 313.680358 98.938003 
L 314.995692 104.056494 
L 316.311026 97.494326 
L 328.149032 97.494326 
L 328.149032 97.494326 
" clip-path="url(#p9e374f17ae)" style="fill: none; stroke: #d499a7; stroke-width: 1.5; stroke-linecap: round"/>
   </g>
   <g id="line2d_15">
    <path d="M 66.397573 298.821652 
L 67.712907 275.132224 
L 69.028241 269.685624 
L 70.343575 261.548535 
L 71.658909 262.992212 
L 72.974243 265.879566 
L 74.289577 264.895241 
L 75.604911 260.104858 
L 76.920245 251.836526 
L 78.235579 238.515324 
L 79.550913 238.121594 
L 80.866247 240.483975 
L 82.181581 238.252838 
L 83.496915 232.478129 
L 84.812248 227.622125 
L 86.127582 226.900286 
L 87.442916 223.619202 
L 88.75825 217.647629 
L 90.073584 203.998319 
L 91.388918 218.303846 
L 92.704252 203.735832 
L 94.019586 204.785779 
L 95.33492 199.273557 
L 96.650254 196.714312 
L 97.965588 199.798531 
L 99.280922 194.876905 
L 100.596256 193.761336 
L 101.91159 191.530199 
L 103.226924 192.252037 
L 104.542258 189.889657 
L 105.857592 192.777011 
L 107.172926 189.889657 
L 108.48826 189.889657 
L 109.803594 191.398955 
L 111.118928 198.289232 
L 112.434262 197.698637 
L 113.749596 189.889657 
L 115.06493 192.448902 
L 116.380264 192.448902 
L 117.695598 189.889657 
L 119.010932 192.120794 
L 120.326266 193.433228 
L 121.641599 196.123717 
L 122.956933 196.714312 
L 124.272267 196.714312 
L 125.587601 193.958201 
L 126.902935 194.089444 
L 128.218269 198.945449 
L 129.533603 193.039497 
L 132.164271 189.889657 
L 133.479605 191.792685 
L 134.794939 189.889657 
L 140.056275 189.889657 
L 141.371609 192.252037 
L 142.686943 189.889657 
L 144.002277 191.530199 
L 145.317611 189.889657 
L 146.632945 189.889657 
L 149.263613 193.236363 
L 150.578947 189.889657 
L 151.894281 189.889657 
L 153.209615 191.923929 
L 155.840283 191.923929 
L 157.155617 189.889657 
L 158.470951 189.889657 
L 159.786284 191.923929 
L 161.101618 195.533121 
L 162.416952 195.86123 
L 163.732286 194.745661 
L 165.04762 194.942526 
L 166.362954 191.398955 
L 167.678288 191.070847 
L 168.993622 192.252037 
L 170.308956 194.220688 
L 171.62429 198.026745 
L 172.939624 198.617341 
L 174.254958 189.889657 
L 178.20096 189.889657 
L 179.516294 194.942526 
L 180.831628 189.889657 
L 183.462296 189.889657 
L 184.77763 192.383281 
L 186.092964 189.889657 
L 187.408298 189.889657 
L 188.723632 192.580146 
L 190.038966 192.120794 
L 191.3543 192.645767 
L 192.669634 192.448902 
L 193.984968 189.889657 
L 196.615636 189.889657 
L 197.930969 193.498849 
L 199.246303 196.058095 
L 200.561637 192.120794 
L 201.876971 191.398955 
L 203.192305 191.398955 
L 204.507639 193.039497 
L 205.822973 195.795608 
L 207.138307 198.945449 
L 208.453641 192.055172 
L 209.768975 192.383281 
L 211.084309 197.567394 
L 212.399643 189.889657 
L 213.714977 192.514524 
L 215.030311 194.155066 
L 216.345645 193.105119 
L 217.660979 193.105119 
L 218.976313 191.727064 
L 220.291647 195.07377 
L 221.606981 192.120794 
L 222.922315 194.483175 
L 224.237649 192.580146 
L 225.552983 189.889657 
L 226.868317 192.448902 
L 228.183651 193.236363 
L 229.498985 189.889657 
L 230.814319 192.842632 
L 232.129653 189.889657 
L 236.075654 189.889657 
L 237.390988 192.317659 
L 238.706322 197.43615 
L 240.021656 192.055172 
L 241.33699 192.580146 
L 242.652324 195.008148 
L 243.967658 193.301984 
L 245.282992 189.889657 
L 246.598326 192.580146 
L 247.91366 192.580146 
L 249.228994 191.530199 
L 250.544328 192.317659 
L 251.859662 189.889657 
L 253.174996 189.889657 
L 254.49033 192.514524 
L 255.805664 189.889657 
L 257.120998 189.889657 
L 258.436332 196.517447 
L 259.751666 196.517447 
L 261.067 189.889657 
L 262.382334 191.59582 
L 263.697668 189.889657 
L 265.013002 197.370529 
L 266.328336 189.889657 
L 267.64367 189.889657 
L 268.959004 191.727064 
L 270.274338 192.777011 
L 271.589672 189.889657 
L 272.905006 191.464577 
L 274.220339 189.889657 
L 275.535673 192.514524 
L 276.851007 189.889657 
L 278.166341 191.923929 
L 279.481675 194.286309 
L 280.797009 189.889657 
L 286.058345 189.889657 
L 287.373679 195.270635 
L 288.689013 194.351931 
L 290.004347 191.792685 
L 291.319681 192.908254 
L 292.635015 192.252037 
L 293.950349 197.370529 
L 295.265683 189.889657 
L 296.581017 189.889657 
L 297.896351 191.727064 
L 299.211685 195.533121 
L 301.842353 189.889657 
L 303.157687 189.889657 
L 304.473021 191.530199 
L 305.788355 195.992473 
L 307.103689 189.889657 
L 308.419023 191.59582 
L 309.734357 191.59582 
L 311.04969 192.186416 
L 312.365024 189.889657 
L 317.62636 189.889657 
L 318.941694 192.317659 
L 320.257028 189.889657 
L 321.572362 192.252037 
L 322.887696 192.252037 
L 324.20303 193.105119 
L 325.518364 189.889657 
L 326.833698 195.139391 
L 328.149032 189.889657 
L 328.149032 189.889657 
" clip-path="url(#p9e374f17ae)" style="fill: none; stroke: #a9678f; stroke-width: 1.5; stroke-linecap: round"/>
   </g>
   <g id="line2d_16">
    <path d="M 66.397573 302.168358 
L 67.712907 281.431906 
L 69.028241 273.885412 
L 70.343575 270.735571 
L 71.658909 260.301723 
L 72.974243 254.198907 
L 75.604911 249.605389 
L 76.920245 250.130362 
L 78.235579 249.867876 
L 79.550913 249.474146 
L 80.866247 250.917823 
L 82.181581 249.736632 
L 83.496915 250.392849 
L 84.812248 249.736632 
L 86.127582 249.342902 
L 87.442916 251.836526 
L 88.75825 249.999119 
L 90.073584 249.080415 
L 91.388918 250.655336 
L 92.704252 250.655336 
L 94.019586 255.905071 
L 95.33492 251.442796 
L 96.650254 251.049066 
L 97.965588 251.574039 
L 99.280922 249.342902 
L 100.596256 249.342902 
L 101.91159 249.736632 
L 103.226924 249.474146 
L 105.857592 250.524092 
L 107.172926 249.080415 
L 108.48826 248.949172 
L 109.803594 249.342902 
L 111.118928 248.949172 
L 112.434262 249.474146 
L 113.749596 249.605389 
L 115.06493 248.424199 
L 116.380264 249.211659 
L 117.695598 250.917823 
L 119.010932 250.261606 
L 120.326266 248.949172 
L 121.641599 249.736632 
L 122.956933 249.211659 
L 125.587601 249.211659 
L 126.902935 249.474146 
L 129.533603 248.949172 
L 130.848937 248.949172 
L 132.164271 249.867876 
L 133.479605 249.867876 
L 134.794939 248.686685 
L 136.110273 249.999119 
L 138.740941 248.686685 
L 141.371609 248.686685 
L 142.686943 250.130362 
L 144.002277 248.686685 
L 168.993622 248.686685 
L 170.308956 250.261606 
L 171.62429 248.686685 
L 180.831628 248.686685 
L 182.146962 249.342902 
L 183.462296 249.342902 
L 184.77763 248.686685 
L 186.092964 248.686685 
L 187.408298 249.342902 
L 191.3543 249.342902 
L 192.669634 250.524092 
L 193.984968 249.342902 
L 200.561637 249.342902 
L 201.876971 248.686685 
L 249.228994 248.686685 
L 250.544328 250.524092 
L 251.859662 248.686685 
L 317.62636 248.686685 
L 318.941694 251.311553 
L 320.257028 251.311553 
L 321.572362 248.686685 
L 324.20303 248.686685 
L 325.518364 249.999119 
L 326.833698 248.686685 
L 328.149032 248.686685 
L 328.149032 248.686685 
" clip-path="url(#p9e374f17ae)" style="fill: none; stroke: #6c3f70; stroke-width: 1.5; stroke-linecap: round"/>
   </g>
   <g id="line2d_17">
    <path d="M 66.397573 298.887273 
L 67.712907 276.904009 
L 69.028241 247.833603 
L 70.343575 239.302785 
L 71.658909 218.369467 
L 72.974243 202.948372 
L 74.289577 164.953417 
L 75.604911 132.995657 
L 78.235579 53.265311 
L 79.550913 45.653196 
L 80.866247 80.235823 
L 82.181581 52.543473 
L 83.496915 36.597403 
L 84.812248 61.599265 
L 86.127582 53.199689 
L 87.442916 49.262388 
L 88.75825 65.864674 
L 90.073584 54.446501 
L 91.388918 37.778594 
L 92.704252 51.887256 
L 94.019586 64.355376 
L 95.33492 82.401339 
L 96.650254 59.433749 
L 97.965588 59.368128 
L 99.280922 77.873442 
L 100.596256 54.315258 
L 101.91159 74.067385 
L 103.226924 67.63646 
L 104.542258 71.770626 
L 105.857592 66.520891 
L 107.172926 66.192783 
L 108.48826 46.834386 
L 109.803594 54.052771 
L 111.118928 58.318181 
L 112.434262 57.202612 
L 113.749596 50.443579 
L 115.06493 55.102718 
L 116.380264 50.837309 
L 117.695598 38.566054 
L 119.010932 38.566054 
L 120.326266 41.781516 
L 121.641599 46.965629 
L 122.956933 49.656118 
L 124.272267 54.708988 
L 125.587601 38.434811 
L 126.902935 38.172324 
L 128.218269 38.172324 
L 129.533603 38.04108 
L 130.848937 38.04108 
L 132.164271 38.172324 
L 133.479605 50.246714 
L 134.794939 46.178169 
L 136.110273 37.909837 
L 137.425607 54.118393 
L 138.740941 37.909837 
L 140.056275 59.630614 
L 141.371609 53.462176 
L 142.686943 53.593419 
L 144.002277 38.566054 
L 145.317611 47.096873 
L 146.632945 46.571899 
L 147.948279 46.965629 
L 149.263613 47.096873 
L 150.578947 38.697297 
L 154.524949 38.697297 
L 155.840283 46.965629 
L 157.155617 38.697297 
L 158.470951 46.965629 
L 159.786284 38.697297 
L 161.101618 38.697297 
L 162.416952 45.981304 
L 163.732286 46.703143 
L 165.04762 38.697297 
L 167.678288 38.697297 
L 168.993622 46.112548 
L 170.308956 46.571899 
L 171.62429 38.697297 
L 174.254958 38.697297 
L 175.570292 47.096873 
L 176.885626 38.697297 
L 183.462296 38.697297 
L 184.77763 47.096873 
L 186.092964 38.566054 
L 187.408298 38.697297 
L 188.723632 54.118393 
L 191.3543 38.697297 
L 192.669634 46.703143 
L 193.984968 38.697297 
L 195.300302 38.697297 
L 196.615636 46.965629 
L 197.930969 47.096873 
L 199.246303 46.112548 
L 200.561637 38.697297 
L 204.507639 38.697297 
L 205.822973 54.840231 
L 207.138307 38.697297 
L 208.453641 46.046926 
L 209.768975 38.697297 
L 211.084309 42.175247 
L 212.399643 50.049849 
L 213.714977 38.697297 
L 215.030311 46.375034 
L 216.345645 47.096873 
L 217.660979 38.697297 
L 218.976313 47.096873 
L 220.291647 38.697297 
L 222.922315 38.697297 
L 224.237649 46.440656 
L 225.552983 47.096873 
L 226.868317 46.112548 
L 228.183651 55.365205 
L 230.814319 38.697297 
L 232.129653 46.834386 
L 233.444987 38.697297 
L 234.760321 38.697297 
L 236.075654 54.77461 
L 237.390988 38.697297 
L 240.021656 38.697297 
L 241.33699 47.096873 
L 242.652324 50.574822 
L 243.967658 42.175247 
L 245.282992 38.697297 
L 250.544328 38.697297 
L 251.859662 54.971475 
L 254.49033 38.697297 
L 259.751666 38.697297 
L 261.067 46.571899 
L 262.382334 38.697297 
L 266.328336 38.697297 
L 267.64367 53.068446 
L 268.959004 46.046926 
L 270.274338 47.096873 
L 271.589672 38.697297 
L 274.220339 38.697297 
L 275.535673 46.309413 
L 276.851007 38.697297 
L 278.166341 38.697297 
L 279.481675 45.259466 
L 280.797009 60.352453 
L 282.112343 46.965629 
L 283.427677 38.697297 
L 284.743011 46.834386 
L 286.058345 38.697297 
L 290.004347 38.697297 
L 291.319681 53.396554 
L 292.635015 38.697297 
L 293.950349 38.697297 
L 295.265683 47.096873 
L 296.581017 38.697297 
L 297.896351 45.784439 
L 299.211685 38.697297 
L 300.527019 46.965629 
L 301.842353 38.697297 
L 304.473021 38.697297 
L 305.788355 47.096873 
L 307.103689 38.697297 
L 308.419023 46.440656 
L 309.734357 46.440656 
L 311.04969 38.697297 
L 312.365024 47.096873 
L 313.680358 38.697297 
L 325.518364 38.697297 
L 326.833698 46.309413 
L 328.149032 46.965629 
L 328.149032 46.965629 
" clip-path="url(#p9e374f17ae)" style="fill: none; stroke: #2d1e3e; stroke-width: 1.5; stroke-linecap: round"/>
   </g>
   <g id="line2d_18"/>
   <g id="line2d_19"/>
   <g id="line2d_20"/>
   <g id="line2d_21"/>
   <g id="line2d_22"/>
   <g id="patch_3">
    <path d="M 53.31 319.138125 
L 53.31 22.318125 
" style="fill: none; stroke: #ffffff; stroke-width: 1.25; stroke-linejoin: miter; stroke-linecap: square"/>
   </g>
   <g id="patch_4">
    <path d="M 53.31 319.138125 
L 341.236605 319.138125 
" style="fill: none; stroke: #ffffff; stroke-width: 1.25; stroke-linejoin: miter; stroke-linecap: square"/>
   </g>
   <g id="text_15">
    <!-- Evolved For Still Life For Three Cycle -->
    <g style="fill: #262626" transform="translate(87.799553 16.318125)scale(0.12 -0.12)">
     <defs>
      <path id="DejaVuSans-45" d="M 628 4666 
L 3578 4666 
L 3578 4134 
L 1259 4134 
L 1259 2753 
L 3481 2753 
L 3481 2222 
L 1259 2222 
L 1259 531 
L 3634 531 
L 3634 0 
L 628 0 
L 628 4666 
z
" transform="scale(0.015625)"/>
      <path id="DejaVuSans-76" d="M 191 3500 
L 800 3500 
L 1894 563 
L 2988 3500 
L 3597 3500 
L 2284 0 
L 1503 0 
L 191 3500 
z
" transform="scale(0.015625)"/>
      <path id="DejaVuSans-6c" d="M 603 4863 
L 1178 4863 
L 1178 0 
L 603 0 
L 603 4863 
z
" transform="scale(0.015625)"/>
      <path id="DejaVuSans-64" d="M 2906 2969 
L 2906 4863 
L 3481 4863 
L 3481 0 
L 2906 0 
L 2906 525 
Q 2725 213 2448 61 
Q 2172 -91 1784 -91 
Q 1150 -91 751 415 
Q 353 922 353 1747 
Q 353 2572 751 3078 
Q 1150 3584 1784 3584 
Q 2172 3584 2448 3432 
Q 2725 3281 2906 2969 
z
M 947 1747 
Q 947 1113 1208 752 
Q 1469 391 1925 391 
Q 2381 391 2643 752 
Q 2906 1113 2906 1747 
Q 2906 2381 2643 2742 
Q 2381 3103 1925 3103 
Q 1469 3103 1208 2742 
Q 947 2381 947 1747 
z
" transform="scale(0.015625)"/>
      <path id="DejaVuSans-20" transform="scale(0.015625)"/>
      <path id="DejaVuSans-53" d="M 3425 4513 
L 3425 3897 
Q 3066 4069 2747 4153 
Q 2428 4238 2131 4238 
Q 1616 4238 1336 4038 
Q 1056 3838 1056 3469 
Q 1056 3159 1242 3001 
Q 1428 2844 1947 2747 
L 2328 2669 
Q 3034 2534 3370 2195 
Q 3706 1856 3706 1288 
Q 3706 609 3251 259 
Q 2797 -91 1919 -91 
Q 1588 -91 1214 -16 
Q 841 59 441 206 
L 441 856 
Q 825 641 1194 531 
Q 1563 422 1919 422 
Q 2459 422 2753 634 
Q 3047 847 3047 1241 
Q 3047 1584 2836 1778 
Q 2625 1972 2144 2069 
L 1759 2144 
Q 1053 2284 737 2584 
Q 422 2884 422 3419 
Q 422 4038 858 4394 
Q 1294 4750 2059 4750 
Q 2388 4750 2728 4690 
Q 3069 4631 3425 4513 
z
" transform="scale(0.015625)"/>
      <path id="DejaVuSans-4c" d="M 628 4666 
L 1259 4666 
L 1259 531 
L 3531 531 
L 3531 0 
L 628 0 
L 628 4666 
z
" transform="scale(0.015625)"/>
      <path id="DejaVuSans-66" d="M 2375 4863 
L 2375 4384 
L 1825 4384 
Q 1516 4384 1395 4259 
Q 1275 4134 1275 3809 
L 1275 3500 
L 2222 3500 
L 2222 3053 
L 1275 3053 
L 1275 0 
L 697 0 
L 697 3053 
L 147 3053 
L 147 3500 
L 697 3500 
L 697 3744 
Q 697 4328 969 4595 
Q 1241 4863 1831 4863 
L 2375 4863 
z
" transform="scale(0.015625)"/>
      <path id="DejaVuSans-54" d="M -19 4666 
L 3928 4666 
L 3928 4134 
L 2272 4134 
L 2272 0 
L 1638 0 
L 1638 4134 
L -19 4134 
L -19 4666 
z
" transform="scale(0.015625)"/>
      <path id="DejaVuSans-68" d="M 3513 2113 
L 3513 0 
L 2938 0 
L 2938 2094 
Q 2938 2591 2744 2837 
Q 2550 3084 2163 3084 
Q 1697 3084 1428 2787 
Q 1159 2491 1159 1978 
L 1159 0 
L 581 0 
L 581 4863 
L 1159 4863 
L 1159 2956 
Q 1366 3272 1645 3428 
Q 1925 3584 2291 3584 
Q 2894 3584 3203 3211 
Q 3513 2838 3513 2113 
z
" transform="scale(0.015625)"/>
      <path id="DejaVuSans-43" d="M 4122 4306 
L 4122 3641 
Q 3803 3938 3442 4084 
Q 3081 4231 2675 4231 
Q 1875 4231 1450 3742 
Q 1025 3253 1025 2328 
Q 1025 1406 1450 917 
Q 1875 428 2675 428 
Q 3081 428 3442 575 
Q 3803 722 4122 1019 
L 4122 359 
Q 3791 134 3420 21 
Q 3050 -91 2638 -91 
Q 1578 -91 968 557 
Q 359 1206 359 2328 
Q 359 3453 968 4101 
Q 1578 4750 2638 4750 
Q 3056 4750 3426 4639 
Q 3797 4528 4122 4306 
z
" transform="scale(0.015625)"/>
      <path id="DejaVuSans-79" d="M 2059 -325 
Q 1816 -950 1584 -1140 
Q 1353 -1331 966 -1331 
L 506 -1331 
L 506 -850 
L 844 -850 
Q 1081 -850 1212 -737 
Q 1344 -625 1503 -206 
L 1606 56 
L 191 3500 
L 800 3500 
L 1894 763 
L 2988 3500 
L 3597 3500 
L 2059 -325 
z
" transform="scale(0.015625)"/>
      <path id="DejaVuSans-63" d="M 3122 3366 
L 3122 2828 
Q 2878 2963 2633 3030 
Q 2388 3097 2138 3097 
Q 1578 3097 1268 2742 
Q 959 2388 959 1747 
Q 959 1106 1268 751 
Q 1578 397 2138 397 
Q 2388 397 2633 464 
Q 2878 531 3122 666 
L 3122 134 
Q 2881 22 2623 -34 
Q 2366 -91 2075 -91 
Q 1284 -91 818 406 
Q 353 903 353 1747 
Q 353 2603 823 3093 
Q 1294 3584 2113 3584 
Q 2378 3584 2631 3529 
Q 2884 3475 3122 3366 
z
" transform="scale(0.015625)"/>
     </defs>
     <use xlink:href="#DejaVuSans-45"/>
     <use xlink:href="#DejaVuSans-76" x="63.183594"/>
     <use xlink:href="#DejaVuSans-6f" x="122.363281"/>
     <use xlink:href="#DejaVuSans-6c" x="183.544922"/>
     <use xlink:href="#DejaVuSans-76" x="211.328125"/>
     <use xlink:href="#DejaVuSans-65" x="270.507812"/>
     <use xlink:href="#DejaVuSans-64" x="332.03125"/>
     <use xlink:href="#DejaVuSans-20" x="395.507812"/>
     <use xlink:href="#DejaVuSans-46" x="427.294922"/>
     <use xlink:href="#DejaVuSans-6f" x="481.189453"/>
     <use xlink:href="#DejaVuSans-72" x="542.371094"/>
     <use xlink:href="#DejaVuSans-20" x="583.484375"/>
     <use xlink:href="#DejaVuSans-53" x="615.271484"/>
     <use xlink:href="#DejaVuSans-74" x="678.748047"/>
     <use xlink:href="#DejaVuSans-69" x="717.957031"/>
     <use xlink:href="#DejaVuSans-6c" x="745.740234"/>
     <use xlink:href="#DejaVuSans-6c" x="773.523438"/>
     <use xlink:href="#DejaVuSans-20" x="801.306641"/>
     <use xlink:href="#DejaVuSans-4c" x="833.09375"/>
     <use xlink:href="#DejaVuSans-69" x="888.806641"/>
     <use xlink:href="#DejaVuSans-66" x="916.589844"/>
     <use xlink:href="#DejaVuSans-65" x="951.794922"/>
     <use xlink:href="#DejaVuSans-20" x="1013.318359"/>
     <use xlink:href="#DejaVuSans-46" x="1045.105469"/>
     <use xlink:href="#DejaVuSans-6f" x="1099"/>
     <use xlink:href="#DejaVuSans-72" x="1160.181641"/>
     <use xlink:href="#DejaVuSans-20" x="1201.294922"/>
     <use xlink:href="#DejaVuSans-54" x="1233.082031"/>
     <use xlink:href="#DejaVuSans-68" x="1294.166016"/>
     <use xlink:href="#DejaVuSans-72" x="1357.544922"/>
     <use xlink:href="#DejaVuSans-65" x="1396.408203"/>
     <use xlink:href="#DejaVuSans-65" x="1457.931641"/>
     <use xlink:href="#DejaVuSans-20" x="1519.455078"/>
     <use xlink:href="#DejaVuSans-43" x="1551.242188"/>
     <use xlink:href="#DejaVuSans-79" x="1621.066406"/>
     <use xlink:href="#DejaVuSans-63" x="1680.246094"/>
     <use xlink:href="#DejaVuSans-6c" x="1735.226562"/>
     <use xlink:href="#DejaVuSans-65" x="1763.009766"/>
    </g>
   </g>
  </g>
  <g id="legend_1">
   <g id="text_16">
    <!-- Trial -->
    <g style="fill: #262626" transform="translate(352.566555 143.995312)scale(0.12 -0.12)">
     <use xlink:href="#DejaVuSans-54"/>
     <use xlink:href="#DejaVuSans-72" x="46.333984"/>
     <use xlink:href="#DejaVuSans-69" x="87.447266"/>
     <use xlink:href="#DejaVuSans-61" x="115.230469"/>
     <use xlink:href="#DejaVuSans-6c" x="176.509766"/>
    </g>
   </g>
   <g id="line2d_23">
    <path d="M 345.924055 156.499219 
L 356.924055 156.499219 
L 367.924055 156.499219 
" style="fill: none; stroke: #edd1cb; stroke-width: 1.5; stroke-linecap: round"/>
   </g>
   <g id="text_17">
    <!-- 0 -->
    <g style="fill: #262626" transform="translate(376.724055 160.349219)scale(0.11 -0.11)">
     <use xlink:href="#DejaVuSans-30"/>
    </g>
   </g>
   <g id="line2d_24">
    <path d="M 345.924055 172.645156 
L 356.924055 172.645156 
L 367.924055 172.645156 
" style="fill: none; stroke: #d499a7; stroke-width: 1.5; stroke-linecap: round"/>
   </g>
   <g id="text_18">
    <!-- 1 -->
    <g style="fill: #262626" transform="translate(376.724055 176.495156)scale(0.11 -0.11)">
     <use xlink:href="#DejaVuSans-31"/>
    </g>
   </g>
   <g id="line2d_25">
    <path d="M 345.924055 188.791094 
L 356.924055 188.791094 
L 367.924055 188.791094 
" style="fill: none; stroke: #a9678f; stroke-width: 1.5; stroke-linecap: round"/>
   </g>
   <g id="text_19">
    <!-- 2 -->
    <g style="fill: #262626" transform="translate(376.724055 192.641094)scale(0.11 -0.11)">
     <use xlink:href="#DejaVuSans-32"/>
    </g>
   </g>
   <g id="line2d_26">
    <path d="M 345.924055 204.937031 
L 356.924055 204.937031 
L 367.924055 204.937031 
" style="fill: none; stroke: #6c3f70; stroke-width: 1.5; stroke-linecap: round"/>
   </g>
   <g id="text_20">
    <!-- 3 -->
    <g style="fill: #262626" transform="translate(376.724055 208.787031)scale(0.11 -0.11)">
     <defs>
      <path id="DejaVuSans-33" d="M 2597 2516 
Q 3050 2419 3304 2112 
Q 3559 1806 3559 1356 
Q 3559 666 3084 287 
Q 2609 -91 1734 -91 
Q 1441 -91 1130 -33 
Q 819 25 488 141 
L 488 750 
Q 750 597 1062 519 
Q 1375 441 1716 441 
Q 2309 441 2620 675 
Q 2931 909 2931 1356 
Q 2931 1769 2642 2001 
Q 2353 2234 1838 2234 
L 1294 2234 
L 1294 2753 
L 1863 2753 
Q 2328 2753 2575 2939 
Q 2822 3125 2822 3475 
Q 2822 3834 2567 4026 
Q 2313 4219 1838 4219 
Q 1578 4219 1281 4162 
Q 984 4106 628 3988 
L 628 4550 
Q 988 4650 1302 4700 
Q 1616 4750 1894 4750 
Q 2613 4750 3031 4423 
Q 3450 4097 3450 3541 
Q 3450 3153 3228 2886 
Q 3006 2619 2597 2516 
z
" transform="scale(0.015625)"/>
     </defs>
     <use xlink:href="#DejaVuSans-33"/>
    </g>
   </g>
   <g id="line2d_27">
    <path d="M 345.924055 221.082969 
L 356.924055 221.082969 
L 367.924055 221.082969 
" style="fill: none; stroke: #2d1e3e; stroke-width: 1.5; stroke-linecap: round"/>
   </g>
   <g id="text_21">
    <!-- 4 -->
    <g style="fill: #262626" transform="translate(376.724055 224.932969)scale(0.11 -0.11)">
     <use xlink:href="#DejaVuSans-34"/>
    </g>
   </g>
  </g>
 </g>
 <defs>
  <clipPath id="p9e374f17ae">
   <rect x="53.31" y="22.318125" width="287.926605" height="296.82"/>
  </clipPath>
 </defs>
</svg>
