<?xml version="1.0" encoding="utf-8" standalone="no"?>
<!DOCTYPE svg PUBLIC "-//W3C//DTD SVG 1.1//EN"
  "http://www.w3.org/Graphics/SVG/1.1/DTD/svg11.dtd">
<svg xmlns:xlink="http://www.w3.org/1999/xlink" width="864pt" height="360pt" viewBox="0 0 864 360" xmlns="http://www.w3.org/2000/svg" version="1.1">
 <metadata>
  <rdf:RDF xmlns:dc="http://purl.org/dc/elements/1.1/" xmlns:cc="http://creativecommons.org/ns#" xmlns:rdf="http://www.w3.org/1999/02/22-rdf-syntax-ns#">
   <cc:Work>
    <dc:type rdf:resource="http://purl.org/dc/dcmitype/StillImage"/>
    <dc:date>2022-11-20T08:53:29.139292</dc:date>
    <dc:format>image/svg+xml</dc:format>
    <dc:creator>
     <cc:Agent>
      <dc:title>Matplotlib v3.5.2, https://matplotlib.org/</dc:title>
     </cc:Agent>
    </dc:creator>
   </cc:Work>
  </rdf:RDF>
 </metadata>
 <defs>
  <style type="text/css">*{stroke-linejoin: round; stroke-linecap: butt}</style>
 </defs>
 <g id="figure_1">
  <g id="patch_1">
   <path d="M 0 360 
L 864 360 
L 864 0 
L 0 0 
z
" style="fill: #ffffff"/>
  </g>
  <g id="axes_1">
   <g id="patch_2">
    <path d="M 67.14 309.78 
L 337.45 309.78 
L 337.45 55.68 
L 67.14 55.68 
z
" style="fill: #eaeaf2"/>
   </g>
   <g id="matplotlib.axis_1">
    <g id="xtick_1">
     <g id="line2d_1">
      <path d="M 79.426818 309.78 
L 79.426818 55.68 
" clip-path="url(#pee584afad4)" style="fill: none; stroke: #ffffff; stroke-linecap: round"/>
     </g>
     <g id="text_1">
      <!-- 0 -->
      <g style="fill: #262626" transform="translate(75.927443 327.638281)scale(0.11 -0.11)">
       <defs>
        <path id="DejaVuSans-30" d="M 2034 4250 
Q 1547 4250 1301 3770 
Q 1056 3291 1056 2328 
Q 1056 1369 1301 889 
Q 1547 409 2034 409 
Q 2525 409 2770 889 
Q 3016 1369 3016 2328 
Q 3016 3291 2770 3770 
Q 2525 4250 2034 4250 
z
M 2034 4750 
Q 2819 4750 3233 4129 
Q 3647 3509 3647 2328 
Q 3647 1150 3233 529 
Q 2819 -91 2034 -91 
Q 1250 -91 836 529 
Q 422 1150 422 2328 
Q 422 3509 836 4129 
Q 1250 4750 2034 4750 
z
" transform="scale(0.015625)"/>
       </defs>
       <use xlink:href="#DejaVuSans-30"/>
      </g>
     </g>
    </g>
    <g id="xtick_2">
     <g id="line2d_2">
      <path d="M 141.169623 309.78 
L 141.169623 55.68 
" clip-path="url(#pee584afad4)" style="fill: none; stroke: #ffffff; stroke-linecap: round"/>
     </g>
     <g id="text_2">
      <!-- 50 -->
      <g style="fill: #262626" transform="translate(134.170873 327.638281)scale(0.11 -0.11)">
       <defs>
        <path id="DejaVuSans-35" d="M 691 4666 
L 3169 4666 
L 3169 4134 
L 1269 4134 
L 1269 2991 
Q 1406 3038 1543 3061 
Q 1681 3084 1819 3084 
Q 2600 3084 3056 2656 
Q 3513 2228 3513 1497 
Q 3513 744 3044 326 
Q 2575 -91 1722 -91 
Q 1428 -91 1123 -41 
Q 819 9 494 109 
L 494 744 
Q 775 591 1075 516 
Q 1375 441 1709 441 
Q 2250 441 2565 725 
Q 2881 1009 2881 1497 
Q 2881 1984 2565 2268 
Q 2250 2553 1709 2553 
Q 1456 2553 1204 2497 
Q 953 2441 691 2322 
L 691 4666 
z
" transform="scale(0.015625)"/>
       </defs>
       <use xlink:href="#DejaVuSans-35"/>
       <use xlink:href="#DejaVuSans-30" x="63.623047"/>
      </g>
     </g>
    </g>
    <g id="xtick_3">
     <g id="line2d_3">
      <path d="M 202.912428 309.78 
L 202.912428 55.68 
" clip-path="url(#pee584afad4)" style="fill: none; stroke: #ffffff; stroke-linecap: round"/>
     </g>
     <g id="text_3">
      <!-- 100 -->
      <g style="fill: #262626" transform="translate(192.414303 327.638281)scale(0.11 -0.11)">
       <defs>
        <path id="DejaVuSans-31" d="M 794 531 
L 1825 531 
L 1825 4091 
L 703 3866 
L 703 4441 
L 1819 4666 
L 2450 4666 
L 2450 531 
L 3481 531 
L 3481 0 
L 794 0 
L 794 531 
z
" transform="scale(0.015625)"/>
       </defs>
       <use xlink:href="#DejaVuSans-31"/>
       <use xlink:href="#DejaVuSans-30" x="63.623047"/>
       <use xlink:href="#DejaVuSans-30" x="127.246094"/>
      </g>
     </g>
    </g>
    <g id="xtick_4">
     <g id="line2d_4">
      <path d="M 264.655233 309.78 
L 264.655233 55.68 
" clip-path="url(#pee584afad4)" style="fill: none; stroke: #ffffff; stroke-linecap: round"/>
     </g>
     <g id="text_4">
      <!-- 150 -->
      <g style="fill: #262626" transform="translate(254.157108 327.638281)scale(0.11 -0.11)">
       <use xlink:href="#DejaVuSans-31"/>
       <use xlink:href="#DejaVuSans-35" x="63.623047"/>
       <use xlink:href="#DejaVuSans-30" x="127.246094"/>
      </g>
     </g>
    </g>
    <g id="xtick_5">
     <g id="line2d_5">
      <path d="M 326.398038 309.78 
L 326.398038 55.68 
" clip-path="url(#pee584afad4)" style="fill: none; stroke: #ffffff; stroke-linecap: round"/>
     </g>
     <g id="text_5">
      <!-- 200 -->
      <g style="fill: #262626" transform="translate(315.899913 327.638281)scale(0.11 -0.11)">
       <defs>
        <path id="DejaVuSans-32" d="M 1228 531 
L 3431 531 
L 3431 0 
L 469 0 
L 469 531 
Q 828 903 1448 1529 
Q 2069 2156 2228 2338 
Q 2531 2678 2651 2914 
Q 2772 3150 2772 3378 
Q 2772 3750 2511 3984 
Q 2250 4219 1831 4219 
Q 1534 4219 1204 4116 
Q 875 4013 500 3803 
L 500 4441 
Q 881 4594 1212 4672 
Q 1544 4750 1819 4750 
Q 2544 4750 2975 4387 
Q 3406 4025 3406 3419 
Q 3406 3131 3298 2873 
Q 3191 2616 2906 2266 
Q 2828 2175 2409 1742 
Q 1991 1309 1228 531 
z
" transform="scale(0.015625)"/>
       </defs>
       <use xlink:href="#DejaVuSans-32"/>
       <use xlink:href="#DejaVuSans-30" x="63.623047"/>
       <use xlink:href="#DejaVuSans-30" x="127.246094"/>
      </g>
     </g>
    </g>
    <g id="text_6">
     <!-- Generation -->
     <g style="fill: #262626" transform="translate(168.823437 343.044062)scale(0.12 -0.12)">
      <defs>
       <path id="DejaVuSans-47" d="M 3809 666 
L 3809 1919 
L 2778 1919 
L 2778 2438 
L 4434 2438 
L 4434 434 
Q 4069 175 3628 42 
Q 3188 -91 2688 -91 
Q 1594 -91 976 548 
Q 359 1188 359 2328 
Q 359 3472 976 4111 
Q 1594 4750 2688 4750 
Q 3144 4750 3555 4637 
Q 3966 4525 4313 4306 
L 4313 3634 
Q 3963 3931 3569 4081 
Q 3175 4231 2741 4231 
Q 1884 4231 1454 3753 
Q 1025 3275 1025 2328 
Q 1025 1384 1454 906 
Q 1884 428 2741 428 
Q 3075 428 3337 486 
Q 3600 544 3809 666 
z
" transform="scale(0.015625)"/>
       <path id="DejaVuSans-65" d="M 3597 1894 
L 3597 1613 
L 953 1613 
Q 991 1019 1311 708 
Q 1631 397 2203 397 
Q 2534 397 2845 478 
Q 3156 559 3463 722 
L 3463 178 
Q 3153 47 2828 -22 
Q 2503 -91 2169 -91 
Q 1331 -91 842 396 
Q 353 884 353 1716 
Q 353 2575 817 3079 
Q 1281 3584 2069 3584 
Q 2775 3584 3186 3129 
Q 3597 2675 3597 1894 
z
M 3022 2063 
Q 3016 2534 2758 2815 
Q 2500 3097 2075 3097 
Q 1594 3097 1305 2825 
Q 1016 2553 972 2059 
L 3022 2063 
z
" transform="scale(0.015625)"/>
       <path id="DejaVuSans-6e" d="M 3513 2113 
L 3513 0 
L 2938 0 
L 2938 2094 
Q 2938 2591 2744 2837 
Q 2550 3084 2163 3084 
Q 1697 3084 1428 2787 
Q 1159 2491 1159 1978 
L 1159 0 
L 581 0 
L 581 3500 
L 1159 3500 
L 1159 2956 
Q 1366 3272 1645 3428 
Q 1925 3584 2291 3584 
Q 2894 3584 3203 3211 
Q 3513 2838 3513 2113 
z
" transform="scale(0.015625)"/>
       <path id="DejaVuSans-72" d="M 2631 2963 
Q 2534 3019 2420 3045 
Q 2306 3072 2169 3072 
Q 1681 3072 1420 2755 
Q 1159 2438 1159 1844 
L 1159 0 
L 581 0 
L 581 3500 
L 1159 3500 
L 1159 2956 
Q 1341 3275 1631 3429 
Q 1922 3584 2338 3584 
Q 2397 3584 2469 3576 
Q 2541 3569 2628 3553 
L 2631 2963 
z
" transform="scale(0.015625)"/>
       <path id="DejaVuSans-61" d="M 2194 1759 
Q 1497 1759 1228 1600 
Q 959 1441 959 1056 
Q 959 750 1161 570 
Q 1363 391 1709 391 
Q 2188 391 2477 730 
Q 2766 1069 2766 1631 
L 2766 1759 
L 2194 1759 
z
M 3341 1997 
L 3341 0 
L 2766 0 
L 2766 531 
Q 2569 213 2275 61 
Q 1981 -91 1556 -91 
Q 1019 -91 701 211 
Q 384 513 384 1019 
Q 384 1609 779 1909 
Q 1175 2209 1959 2209 
L 2766 2209 
L 2766 2266 
Q 2766 2663 2505 2880 
Q 2244 3097 1772 3097 
Q 1472 3097 1187 3025 
Q 903 2953 641 2809 
L 641 3341 
Q 956 3463 1253 3523 
Q 1550 3584 1831 3584 
Q 2591 3584 2966 3190 
Q 3341 2797 3341 1997 
z
" transform="scale(0.015625)"/>
       <path id="DejaVuSans-74" d="M 1172 4494 
L 1172 3500 
L 2356 3500 
L 2356 3053 
L 1172 3053 
L 1172 1153 
Q 1172 725 1289 603 
Q 1406 481 1766 481 
L 2356 481 
L 2356 0 
L 1766 0 
Q 1100 0 847 248 
Q 594 497 594 1153 
L 594 3053 
L 172 3053 
L 172 3500 
L 594 3500 
L 594 4494 
L 1172 4494 
z
" transform="scale(0.015625)"/>
       <path id="DejaVuSans-69" d="M 603 3500 
L 1178 3500 
L 1178 0 
L 603 0 
L 603 3500 
z
M 603 4863 
L 1178 4863 
L 1178 4134 
L 603 4134 
L 603 4863 
z
" transform="scale(0.015625)"/>
       <path id="DejaVuSans-6f" d="M 1959 3097 
Q 1497 3097 1228 2736 
Q 959 2375 959 1747 
Q 959 1119 1226 758 
Q 1494 397 1959 397 
Q 2419 397 2687 759 
Q 2956 1122 2956 1747 
Q 2956 2369 2687 2733 
Q 2419 3097 1959 3097 
z
M 1959 3584 
Q 2709 3584 3137 3096 
Q 3566 2609 3566 1747 
Q 3566 888 3137 398 
Q 2709 -91 1959 -91 
Q 1206 -91 779 398 
Q 353 888 353 1747 
Q 353 2609 779 3096 
Q 1206 3584 1959 3584 
z
" transform="scale(0.015625)"/>
      </defs>
      <use xlink:href="#DejaVuSans-47"/>
      <use xlink:href="#DejaVuSans-65" x="77.490234"/>
      <use xlink:href="#DejaVuSans-6e" x="139.013672"/>
      <use xlink:href="#DejaVuSans-65" x="202.392578"/>
      <use xlink:href="#DejaVuSans-72" x="263.916016"/>
      <use xlink:href="#DejaVuSans-61" x="305.029297"/>
      <use xlink:href="#DejaVuSans-74" x="366.308594"/>
      <use xlink:href="#DejaVuSans-69" x="405.517578"/>
      <use xlink:href="#DejaVuSans-6f" x="433.300781"/>
      <use xlink:href="#DejaVuSans-6e" x="494.482422"/>
     </g>
    </g>
   </g>
   <g id="matplotlib.axis_2">
    <g id="ytick_1">
     <g id="line2d_6">
      <path d="M 67.14 298.23 
L 337.45 298.23 
" clip-path="url(#pee584afad4)" style="fill: none; stroke: #ffffff; stroke-linecap: round"/>
     </g>
     <g id="text_7">
      <!-- 0 -->
      <g style="fill: #262626" transform="translate(50.64125 302.409141)scale(0.11 -0.11)">
       <use xlink:href="#DejaVuSans-30"/>
      </g>
     </g>
    </g>
    <g id="ytick_2">
     <g id="line2d_7">
      <path d="M 67.14 253.635405 
L 337.45 253.635405 
" clip-path="url(#pee584afad4)" style="fill: none; stroke: #ffffff; stroke-linecap: round"/>
     </g>
     <g id="text_8">
      <!-- 200 -->
      <g style="fill: #262626" transform="translate(36.64375 257.814546)scale(0.11 -0.11)">
       <use xlink:href="#DejaVuSans-32"/>
       <use xlink:href="#DejaVuSans-30" x="63.623047"/>
       <use xlink:href="#DejaVuSans-30" x="127.246094"/>
      </g>
     </g>
    </g>
    <g id="ytick_3">
     <g id="line2d_8">
      <path d="M 67.14 209.040811 
L 337.45 209.040811 
" clip-path="url(#pee584afad4)" style="fill: none; stroke: #ffffff; stroke-linecap: round"/>
     </g>
     <g id="text_9">
      <!-- 400 -->
      <g style="fill: #262626" transform="translate(36.64375 213.219951)scale(0.11 -0.11)">
       <defs>
        <path id="DejaVuSans-34" d="M 2419 4116 
L 825 1625 
L 2419 1625 
L 2419 4116 
z
M 2253 4666 
L 3047 4666 
L 3047 1625 
L 3713 1625 
L 3713 1100 
L 3047 1100 
L 3047 0 
L 2419 0 
L 2419 1100 
L 313 1100 
L 313 1709 
L 2253 4666 
z
" transform="scale(0.015625)"/>
       </defs>
       <use xlink:href="#DejaVuSans-34"/>
       <use xlink:href="#DejaVuSans-30" x="63.623047"/>
       <use xlink:href="#DejaVuSans-30" x="127.246094"/>
      </g>
     </g>
    </g>
    <g id="ytick_4">
     <g id="line2d_9">
      <path d="M 67.14 164.446216 
L 337.45 164.446216 
" clip-path="url(#pee584afad4)" style="fill: none; stroke: #ffffff; stroke-linecap: round"/>
     </g>
     <g id="text_10">
      <!-- 600 -->
      <g style="fill: #262626" transform="translate(36.64375 168.625357)scale(0.11 -0.11)">
       <defs>
        <path id="DejaVuSans-36" d="M 2113 2584 
Q 1688 2584 1439 2293 
Q 1191 2003 1191 1497 
Q 1191 994 1439 701 
Q 1688 409 2113 409 
Q 2538 409 2786 701 
Q 3034 994 3034 1497 
Q 3034 2003 2786 2293 
Q 2538 2584 2113 2584 
z
M 3366 4563 
L 3366 3988 
Q 3128 4100 2886 4159 
Q 2644 4219 2406 4219 
Q 1781 4219 1451 3797 
Q 1122 3375 1075 2522 
Q 1259 2794 1537 2939 
Q 1816 3084 2150 3084 
Q 2853 3084 3261 2657 
Q 3669 2231 3669 1497 
Q 3669 778 3244 343 
Q 2819 -91 2113 -91 
Q 1303 -91 875 529 
Q 447 1150 447 2328 
Q 447 3434 972 4092 
Q 1497 4750 2381 4750 
Q 2619 4750 2861 4703 
Q 3103 4656 3366 4563 
z
" transform="scale(0.015625)"/>
       </defs>
       <use xlink:href="#DejaVuSans-36"/>
       <use xlink:href="#DejaVuSans-30" x="63.623047"/>
       <use xlink:href="#DejaVuSans-30" x="127.246094"/>
      </g>
     </g>
    </g>
    <g id="ytick_5">
     <g id="line2d_10">
      <path d="M 67.14 119.851622 
L 337.45 119.851622 
" clip-path="url(#pee584afad4)" style="fill: none; stroke: #ffffff; stroke-linecap: round"/>
     </g>
     <g id="text_11">
      <!-- 800 -->
      <g style="fill: #262626" transform="translate(36.64375 124.030762)scale(0.11 -0.11)">
       <defs>
        <path id="DejaVuSans-38" d="M 2034 2216 
Q 1584 2216 1326 1975 
Q 1069 1734 1069 1313 
Q 1069 891 1326 650 
Q 1584 409 2034 409 
Q 2484 409 2743 651 
Q 3003 894 3003 1313 
Q 3003 1734 2745 1975 
Q 2488 2216 2034 2216 
z
M 1403 2484 
Q 997 2584 770 2862 
Q 544 3141 544 3541 
Q 544 4100 942 4425 
Q 1341 4750 2034 4750 
Q 2731 4750 3128 4425 
Q 3525 4100 3525 3541 
Q 3525 3141 3298 2862 
Q 3072 2584 2669 2484 
Q 3125 2378 3379 2068 
Q 3634 1759 3634 1313 
Q 3634 634 3220 271 
Q 2806 -91 2034 -91 
Q 1263 -91 848 271 
Q 434 634 434 1313 
Q 434 1759 690 2068 
Q 947 2378 1403 2484 
z
M 1172 3481 
Q 1172 3119 1398 2916 
Q 1625 2713 2034 2713 
Q 2441 2713 2670 2916 
Q 2900 3119 2900 3481 
Q 2900 3844 2670 4047 
Q 2441 4250 2034 4250 
Q 1625 4250 1398 4047 
Q 1172 3844 1172 3481 
z
" transform="scale(0.015625)"/>
       </defs>
       <use xlink:href="#DejaVuSans-38"/>
       <use xlink:href="#DejaVuSans-30" x="63.623047"/>
       <use xlink:href="#DejaVuSans-30" x="127.246094"/>
      </g>
     </g>
    </g>
    <g id="ytick_6">
     <g id="line2d_11">
      <path d="M 67.14 75.257027 
L 337.45 75.257027 
" clip-path="url(#pee584afad4)" style="fill: none; stroke: #ffffff; stroke-linecap: round"/>
     </g>
     <g id="text_12">
      <!-- 1000 -->
      <g style="fill: #262626" transform="translate(29.645 79.436168)scale(0.11 -0.11)">
       <use xlink:href="#DejaVuSans-31"/>
       <use xlink:href="#DejaVuSans-30" x="63.623047"/>
       <use xlink:href="#DejaVuSans-30" x="127.246094"/>
       <use xlink:href="#DejaVuSans-30" x="190.869141"/>
      </g>
     </g>
    </g>
    <g id="text_13">
     <!-- Fitness -->
     <g style="fill: #262626" transform="translate(23.149375 203.510625)rotate(-90)scale(0.12 -0.12)">
      <defs>
       <path id="DejaVuSans-46" d="M 628 4666 
L 3309 4666 
L 3309 4134 
L 1259 4134 
L 1259 2759 
L 3109 2759 
L 3109 2228 
L 1259 2228 
L 1259 0 
L 628 0 
L 628 4666 
z
" transform="scale(0.015625)"/>
       <path id="DejaVuSans-73" d="M 2834 3397 
L 2834 2853 
Q 2591 2978 2328 3040 
Q 2066 3103 1784 3103 
Q 1356 3103 1142 2972 
Q 928 2841 928 2578 
Q 928 2378 1081 2264 
Q 1234 2150 1697 2047 
L 1894 2003 
Q 2506 1872 2764 1633 
Q 3022 1394 3022 966 
Q 3022 478 2636 193 
Q 2250 -91 1575 -91 
Q 1294 -91 989 -36 
Q 684 19 347 128 
L 347 722 
Q 666 556 975 473 
Q 1284 391 1588 391 
Q 1994 391 2212 530 
Q 2431 669 2431 922 
Q 2431 1156 2273 1281 
Q 2116 1406 1581 1522 
L 1381 1569 
Q 847 1681 609 1914 
Q 372 2147 372 2553 
Q 372 3047 722 3315 
Q 1072 3584 1716 3584 
Q 2034 3584 2315 3537 
Q 2597 3491 2834 3397 
z
" transform="scale(0.015625)"/>
      </defs>
      <use xlink:href="#DejaVuSans-46"/>
      <use xlink:href="#DejaVuSans-69" x="50.269531"/>
      <use xlink:href="#DejaVuSans-74" x="78.052734"/>
      <use xlink:href="#DejaVuSans-6e" x="117.261719"/>
      <use xlink:href="#DejaVuSans-65" x="180.640625"/>
      <use xlink:href="#DejaVuSans-73" x="242.164062"/>
      <use xlink:href="#DejaVuSans-73" x="294.263672"/>
     </g>
    </g>
   </g>
   <g id="PolyCollection_1">
    <defs>
     <path id="m4f582e3cc3" d="M 79.426818 -68.514932 
L 79.426818 -61.77 
L 80.661674 -66.675405 
L 81.89653 -67.567297 
L 83.131386 -68.236216 
L 84.366243 -68.013243 
L 85.601099 -68.682162 
L 86.835955 -69.072365 
L 88.070811 -69.351081 
L 89.305667 -69.797027 
L 90.540523 -70.02 
L 91.775379 -69.574054 
L 93.010235 -70.18723 
L 94.245091 -70.18723 
L 95.479947 -70.242973 
L 96.714804 -70.633176 
L 97.94966 -70.688919 
L 99.184516 -71.302095 
L 100.419372 -70.688919 
L 101.654228 -71.357838 
L 102.889084 -71.079122 
L 104.12394 -71.580811 
L 105.358796 -71.525068 
L 106.593652 -71.525068 
L 107.828508 -71.134865 
L 109.063365 -71.134865 
L 110.298221 -71.357838 
L 111.533077 -71.357838 
L 112.767933 -71.803784 
L 114.002789 -71.580811 
L 115.237645 -71.525068 
L 116.472501 -71.803784 
L 117.707357 -72.026757 
L 118.942213 -71.803784 
L 120.177069 -71.748041 
L 121.411926 -71.971014 
L 122.646782 -71.357838 
L 123.881638 -71.357838 
L 125.116494 -71.134865 
L 126.35135 -71.134865 
L 127.586206 -70.911892 
L 128.821062 -71.580811 
L 130.055918 -71.580811 
L 131.290774 -71.357838 
L 132.52563 -71.971014 
L 133.760487 -71.748041 
L 134.995343 -71.748041 
L 136.230199 -72.026757 
L 137.465055 -72.026757 
L 138.699911 -72.416959 
L 139.934767 -71.803784 
L 141.169623 -71.580811 
L 142.404479 -71.748041 
L 143.639335 -71.580811 
L 144.874191 -71.580811 
L 146.109048 -71.580811 
L 147.343904 -71.580811 
L 148.57876 -71.748041 
L 149.813616 -71.803784 
L 151.048472 -71.357838 
L 152.283328 -70.688919 
L 153.518184 -70.911892 
L 154.75304 -71.134865 
L 155.987896 -71.357838 
L 157.222752 -71.357838 
L 158.457608 -71.134865 
L 159.692465 -71.357838 
L 160.927321 -71.357838 
L 162.162177 -71.134865 
L 163.397033 -71.357838 
L 164.631889 -70.911892 
L 165.866745 -70.688919 
L 167.101601 -70.465946 
L 168.336457 -70.911892 
L 169.571313 -70.688919 
L 170.806169 -70.911892 
L 172.041026 -70.688919 
L 173.275882 -70.911892 
L 174.510738 -70.911892 
L 175.745594 -70.688919 
L 176.98045 -70.911892 
L 178.215306 -71.134865 
L 179.450162 -70.465946 
L 180.685018 -70.688919 
L 181.919874 -70.242973 
L 183.15473 -70.242973 
L 184.389587 -70.465946 
L 185.624443 -70.242973 
L 186.859299 -70.242973 
L 188.094155 -70.465946 
L 189.329011 -70.856149 
L 190.563867 -70.911892 
L 191.798723 -70.688919 
L 193.033579 -70.242973 
L 194.268435 -70.688919 
L 195.503291 -70.688919 
L 196.738148 -70.02 
L 197.973004 -70.410203 
L 199.20786 -70.242973 
L 200.442716 -70.242973 
L 201.677572 -69.797027 
L 202.912428 -70.02 
L 204.147284 -70.242973 
L 205.38214 -70.242973 
L 206.616996 -69.797027 
L 207.851852 -70.465946 
L 209.086709 -69.797027 
L 210.321565 -70.242973 
L 211.556421 -70.02 
L 212.791277 -69.741284 
L 214.026133 -69.797027 
L 215.260989 -69.797027 
L 216.495845 -70.242973 
L 217.730701 -69.964257 
L 218.965557 -69.964257 
L 220.200413 -70.02 
L 221.43527 -69.797027 
L 222.670126 -69.351081 
L 223.904982 -69.574054 
L 225.139838 -69.574054 
L 226.374694 -70.02 
L 227.60955 -69.574054 
L 228.844406 -69.574054 
L 230.079262 -69.574054 
L 231.314118 -69.797027 
L 232.548974 -69.574054 
L 233.783831 -69.797027 
L 235.018687 -69.741284 
L 236.253543 -69.741284 
L 237.488399 -69.351081 
L 238.723255 -70.02 
L 239.958111 -69.518311 
L 241.192967 -69.574054 
L 242.427823 -69.574054 
L 243.662679 -69.797027 
L 244.897535 -69.351081 
L 246.132392 -69.518311 
L 247.367248 -69.574054 
L 248.602104 -69.574054 
L 249.83696 -69.574054 
L 251.071816 -69.351081 
L 252.306672 -69.574054 
L 253.541528 -69.351081 
L 254.776384 -69.128108 
L 256.01124 -69.351081 
L 257.246096 -69.128108 
L 258.480952 -69.351081 
L 259.715809 -69.574054 
L 260.950665 -69.351081 
L 262.185521 -69.351081 
L 263.420377 -69.574054 
L 264.655233 -69.295338 
L 265.890089 -69.351081 
L 267.124945 -69.574054 
L 268.359801 -69.574054 
L 269.594657 -69.574054 
L 270.829513 -68.905135 
L 272.06437 -69.351081 
L 273.299226 -69.351081 
L 274.534082 -69.128108 
L 275.768938 -69.128108 
L 277.003794 -68.849392 
L 278.23865 -69.128108 
L 279.473506 -69.295338 
L 280.708362 -68.905135 
L 281.943218 -69.128108 
L 283.178074 -69.351081 
L 284.412931 -69.351081 
L 285.647787 -69.128108 
L 286.882643 -68.905135 
L 288.117499 -69.351081 
L 289.352355 -69.351081 
L 290.587211 -69.128108 
L 291.822067 -68.905135 
L 293.056923 -68.905135 
L 294.291779 -68.905135 
L 295.526635 -68.905135 
L 296.761492 -69.295338 
L 297.996348 -68.905135 
L 299.231204 -69.128108 
L 300.46606 -68.905135 
L 301.700916 -69.128108 
L 302.935772 -69.128108 
L 304.170628 -68.905135 
L 305.405484 -69.072365 
L 306.64034 -68.682162 
L 307.875196 -68.905135 
L 309.110053 -69.295338 
L 310.344909 -68.905135 
L 311.579765 -68.905135 
L 312.814621 -68.682162 
L 314.049477 -68.682162 
L 315.284333 -68.459189 
L 316.519189 -68.682162 
L 317.754045 -68.682162 
L 318.988901 -69.128108 
L 320.223757 -68.459189 
L 321.458614 -68.849392 
L 322.69347 -68.682162 
L 323.928326 -68.905135 
L 325.163182 -68.905135 
L 325.163182 -70.911892 
L 325.163182 -70.911892 
L 323.928326 -71.190608 
L 322.69347 -70.688919 
L 321.458614 -70.911892 
L 320.223757 -70.521689 
L 318.988901 -70.688919 
L 317.754045 -70.911892 
L 316.519189 -70.911892 
L 315.284333 -70.911892 
L 314.049477 -70.688919 
L 312.814621 -70.911892 
L 311.579765 -71.134865 
L 310.344909 -71.190608 
L 309.110053 -70.911892 
L 307.875196 -71.134865 
L 306.64034 -70.911892 
L 305.405484 -70.911892 
L 304.170628 -71.134865 
L 302.935772 -71.190608 
L 301.700916 -71.134865 
L 300.46606 -71.134865 
L 299.231204 -71.580811 
L 297.996348 -70.911892 
L 296.761492 -71.357838 
L 295.526635 -70.911892 
L 294.291779 -71.134865 
L 293.056923 -70.911892 
L 291.822067 -71.803784 
L 290.587211 -71.357838 
L 289.352355 -71.803784 
L 288.117499 -71.580811 
L 286.882643 -71.134865 
L 285.647787 -71.580811 
L 284.412931 -71.580811 
L 283.178074 -71.580811 
L 281.943218 -71.636554 
L 280.708362 -72.026757 
L 279.473506 -71.413581 
L 278.23865 -71.357838 
L 277.003794 -71.134865 
L 275.768938 -72.026757 
L 274.534082 -71.580811 
L 273.299226 -71.580811 
L 272.06437 -71.580811 
L 270.829513 -71.580811 
L 269.594657 -71.859527 
L 268.359801 -71.580811 
L 267.124945 -71.580811 
L 265.890089 -71.580811 
L 264.655233 -71.636554 
L 263.420377 -71.580811 
L 262.185521 -71.803784 
L 260.950665 -71.803784 
L 259.715809 -72.026757 
L 258.480952 -71.636554 
L 257.246096 -72.026757 
L 256.01124 -72.026757 
L 254.776384 -71.636554 
L 253.541528 -71.803784 
L 252.306672 -71.803784 
L 251.071816 -71.803784 
L 249.83696 -72.24973 
L 248.602104 -71.803784 
L 247.367248 -71.859527 
L 246.132392 -72.026757 
L 244.897535 -71.803784 
L 243.662679 -72.24973 
L 242.427823 -72.026757 
L 241.192967 -72.026757 
L 239.958111 -72.24973 
L 238.723255 -72.695676 
L 237.488399 -72.24973 
L 236.253543 -72.472703 
L 235.018687 -72.528446 
L 233.783831 -72.472703 
L 232.548974 -71.859527 
L 231.314118 -72.24973 
L 230.079262 -72.24973 
L 228.844406 -72.472703 
L 227.60955 -72.305473 
L 226.374694 -72.695676 
L 225.139838 -72.24973 
L 223.904982 -72.472703 
L 222.670126 -72.528446 
L 221.43527 -72.24973 
L 220.200413 -72.695676 
L 218.965557 -72.695676 
L 217.730701 -72.918649 
L 216.495845 -72.751419 
L 215.260989 -72.472703 
L 214.026133 -72.24973 
L 212.791277 -72.472703 
L 211.556421 -72.472703 
L 210.321565 -72.695676 
L 209.086709 -72.918649 
L 207.851852 -73.141622 
L 206.616996 -73.197365 
L 205.38214 -72.974392 
L 204.147284 -72.918649 
L 202.912428 -73.197365 
L 201.677572 -73.197365 
L 200.442716 -72.695676 
L 199.20786 -73.364595 
L 197.973004 -73.420338 
L 196.738148 -73.141622 
L 195.503291 -73.810541 
L 194.268435 -73.141622 
L 193.033579 -73.587568 
L 191.798723 -73.810541 
L 190.563867 -73.364595 
L 189.329011 -73.643311 
L 188.094155 -74.033514 
L 186.859299 -73.587568 
L 185.624443 -73.364595 
L 184.389587 -73.810541 
L 183.15473 -73.810541 
L 181.919874 -73.643311 
L 180.685018 -73.587568 
L 179.450162 -73.810541 
L 178.215306 -74.033514 
L 176.98045 -73.643311 
L 175.745594 -74.033514 
L 174.510738 -73.643311 
L 173.275882 -74.256486 
L 172.041026 -74.033514 
L 170.806169 -74.479459 
L 169.571313 -74.256486 
L 168.336457 -74.033514 
L 167.101601 -73.810541 
L 165.866745 -73.810541 
L 164.631889 -73.810541 
L 163.397033 -74.256486 
L 162.162177 -74.479459 
L 160.927321 -74.256486 
L 159.692465 -74.479459 
L 158.457608 -74.256486 
L 157.222752 -74.702432 
L 155.987896 -74.535203 
L 154.75304 -74.479459 
L 153.518184 -74.479459 
L 152.283328 -74.702432 
L 151.048472 -74.758176 
L 149.813616 -75.148378 
L 148.57876 -74.256486 
L 147.343904 -74.925405 
L 146.109048 -74.925405 
L 144.874191 -74.702432 
L 143.639335 -74.925405 
L 142.404479 -75.371351 
L 141.169623 -74.925405 
L 139.934767 -75.650068 
L 138.699911 -75.371351 
L 137.465055 -75.594324 
L 136.230199 -75.148378 
L 134.995343 -76.04027 
L 133.760487 -75.371351 
L 132.52563 -75.594324 
L 131.290774 -75.371351 
L 130.055918 -74.535203 
L 128.821062 -74.981149 
L 127.586206 -75.148378 
L 126.35135 -75.371351 
L 125.116494 -75.148378 
L 123.881638 -75.427095 
L 122.646782 -75.371351 
L 121.411926 -75.371351 
L 120.177069 -75.371351 
L 118.942213 -74.925405 
L 117.707357 -75.148378 
L 116.472501 -76.04027 
L 115.237645 -75.427095 
L 114.002789 -75.371351 
L 112.767933 -75.873041 
L 111.533077 -75.594324 
L 110.298221 -74.925405 
L 109.063365 -75.148378 
L 107.828508 -74.702432 
L 106.593652 -74.925405 
L 105.358796 -75.204122 
L 104.12394 -74.981149 
L 102.889084 -74.256486 
L 101.654228 -74.702432 
L 100.419372 -74.702432 
L 99.184516 -74.925405 
L 97.94966 -74.925405 
L 96.714804 -74.702432 
L 95.479947 -74.479459 
L 94.245091 -74.033514 
L 93.010235 -73.810541 
L 91.775379 -73.587568 
L 90.540523 -73.587568 
L 89.305667 -73.420338 
L 88.070811 -72.918649 
L 86.835955 -73.364595 
L 85.601099 -72.528446 
L 84.366243 -71.859527 
L 83.131386 -71.859527 
L 81.89653 -71.859527 
L 80.661674 -70.688919 
L 79.426818 -68.514932 
z
" style="stroke: #4c72b0; stroke-opacity: 0.2"/>
    </defs>
    <g clip-path="url(#pee584afad4)">
     <use xlink:href="#m4f582e3cc3" x="0" y="360" style="fill: #4c72b0; fill-opacity: 0.2; stroke: #4c72b0; stroke-opacity: 0.2"/>
    </g>
   </g>
   <g id="PolyCollection_2">
    <defs>
     <path id="m889ec6ca45" d="M 79.426818 -71.413581 
L 79.426818 -62.215946 
L 80.661674 -67.567297 
L 81.89653 -70.911892 
L 83.131386 -78.43723 
L 84.366243 -82.952432 
L 85.601099 -85.851081 
L 86.835955 -86.965946 
L 88.070811 -95.215946 
L 89.305667 -95.104459 
L 90.540523 -95.606149 
L 91.775379 -93.097703 
L 93.010235 -96.553784 
L 94.245091 -96.553784 
L 95.479947 -94.77 
L 96.714804 -96.498041 
L 97.94966 -96.553784 
L 99.184516 -96.888243 
L 100.419372 -96.99973 
L 101.654228 -96.99973 
L 102.889084 -96.99973 
L 104.12394 -96.99973 
L 105.358796 -96.99973 
L 106.593652 -97.445676 
L 107.828508 -96.99973 
L 109.063365 -96.99973 
L 110.298221 -96.99973 
L 111.533077 -96.99973 
L 112.767933 -96.99973 
L 114.002789 -96.99973 
L 115.237645 -97.445676 
L 116.472501 -97.780135 
L 117.707357 -97.891622 
L 118.942213 -97.891622 
L 120.177069 -97.891622 
L 121.411926 -97.891622 
L 122.646782 -97.445676 
L 123.881638 -97.891622 
L 125.116494 -97.891622 
L 126.35135 -97.891622 
L 127.586206 -97.891622 
L 128.821062 -101.682162 
L 130.055918 -97.891622 
L 131.290774 -97.891622 
L 132.52563 -101.682162 
L 133.760487 -100.734527 
L 134.995343 -102.239595 
L 136.230199 -97.891622 
L 137.465055 -97.891622 
L 138.699911 -101.682162 
L 139.934767 -98.337568 
L 141.169623 -98.337568 
L 142.404479 -98.226081 
L 143.639335 -97.891622 
L 144.874191 -97.891622 
L 146.109048 -98.337568 
L 147.343904 -98.337568 
L 148.57876 -98.783514 
L 149.813616 -98.783514 
L 151.048472 -97.891622 
L 152.283328 -97.891622 
L 153.518184 -97.445676 
L 154.75304 -97.891622 
L 155.987896 -97.891622 
L 157.222752 -98.337568 
L 158.457608 -98.337568 
L 159.692465 -98.672027 
L 160.927321 -100.9575 
L 162.162177 -98.783514 
L 163.397033 -98.783514 
L 164.631889 -100.288581 
L 165.866745 -102.183851 
L 167.101601 -100.288581 
L 168.336457 -100.79027 
L 169.571313 -98.337568 
L 170.806169 -98.672027 
L 172.041026 -100.79027 
L 173.275882 -100.79027 
L 174.510738 -102.351081 
L 175.745594 -102.183851 
L 176.98045 -101.570676 
L 178.215306 -100.79027 
L 179.450162 -101.236216 
L 180.685018 -101.12473 
L 181.919874 -101.570676 
L 183.15473 -102.351081 
L 184.389587 -99.285203 
L 185.624443 -102.797027 
L 186.859299 -101.12473 
L 188.094155 -101.682162 
L 189.329011 -99.285203 
L 190.563867 -100.79027 
L 191.798723 -101.682162 
L 193.033579 -101.236216 
L 194.268435 -101.236216 
L 195.503291 -102.183851 
L 196.738148 -102.183851 
L 197.973004 -102.351081 
L 199.20786 -101.236216 
L 200.442716 -101.682162 
L 201.677572 -101.682162 
L 202.912428 -101.682162 
L 204.147284 -102.183851 
L 205.38214 -101.682162 
L 206.616996 -102.351081 
L 207.851852 -101.682162 
L 209.086709 -103.18723 
L 210.321565 -101.682162 
L 211.556421 -102.351081 
L 212.791277 -102.351081 
L 214.026133 -101.849392 
L 215.260989 -102.239595 
L 216.495845 -102.351081 
L 217.730701 -102.183851 
L 218.965557 -101.682162 
L 220.200413 -101.849392 
L 221.43527 -115.506486 
L 222.670126 -102.351081 
L 223.904982 -101.682162 
L 225.139838 -103.131486 
L 226.374694 -103.911892 
L 227.60955 -105.026757 
L 228.844406 -106.197365 
L 230.079262 -113.778446 
L 231.314118 -103.911892 
L 232.548974 -103.911892 
L 233.783831 -103.911892 
L 235.018687 -103.911892 
L 236.253543 -102.183851 
L 237.488399 -103.911892 
L 238.723255 -106.587568 
L 239.958111 -103.911892 
L 241.192967 -103.800405 
L 242.427823 -103.744662 
L 243.662679 -103.911892 
L 244.897535 -103.911892 
L 246.132392 -103.911892 
L 247.367248 -104.079122 
L 248.602104 -104.079122 
L 249.83696 -103.465946 
L 251.071816 -106.531824 
L 252.306672 -104.413581 
L 253.541528 -107.423716 
L 254.776384 -103.465946 
L 256.01124 -114.447365 
L 257.246096 -103.967635 
L 258.480952 -105.026757 
L 259.715809 -103.967635 
L 260.950665 -103.354459 
L 262.185521 -114.057162 
L 263.420377 -114.057162 
L 264.655233 -104.636554 
L 265.890089 -103.465946 
L 267.124945 -103.967635 
L 268.359801 -105.528446 
L 269.594657 -104.636554 
L 270.829513 -104.636554 
L 272.06437 -105.807162 
L 273.299226 -104.134865 
L 274.534082 -104.134865 
L 275.768938 -117.736216 
L 277.003794 -104.134865 
L 278.23865 -104.803784 
L 279.473506 -104.134865 
L 280.708362 -104.134865 
L 281.943218 -104.636554 
L 283.178074 -104.803784 
L 284.412931 -104.134865 
L 285.647787 -105.807162 
L 286.882643 -105.807162 
L 288.117499 -104.134865 
L 289.352355 -118.237905 
L 290.587211 -104.134865 
L 291.822067 -104.636554 
L 293.056923 -104.636554 
L 294.291779 -104.134865 
L 295.526635 -117.736216 
L 296.761492 -104.302095 
L 297.996348 -104.134865 
L 299.231204 -104.134865 
L 300.46606 -104.134865 
L 301.700916 -104.134865 
L 302.935772 -103.465946 
L 304.170628 -104.134865 
L 305.405484 -117.736216 
L 306.64034 -104.134865 
L 307.875196 -104.134865 
L 309.110053 -104.636554 
L 310.344909 -104.692297 
L 311.579765 -111.827432 
L 312.814621 -104.692297 
L 314.049477 -104.134865 
L 315.284333 -104.134865 
L 316.519189 -104.134865 
L 317.754045 -104.134865 
L 318.988901 -104.134865 
L 320.223757 -104.134865 
L 321.458614 -104.134865 
L 322.69347 -104.803784 
L 323.928326 -115.004797 
L 325.163182 -104.134865 
L 325.163182 -226.101081 
L 325.163182 -226.101081 
L 323.928326 -226.101081 
L 322.69347 -226.101081 
L 321.458614 -226.101081 
L 320.223757 -226.101081 
L 318.988901 -226.101081 
L 317.754045 -226.101081 
L 316.519189 -226.101081 
L 315.284333 -226.101081 
L 314.049477 -226.101081 
L 312.814621 -226.101081 
L 311.579765 -226.101081 
L 310.344909 -226.101081 
L 309.110053 -226.101081 
L 307.875196 -226.101081 
L 306.64034 -226.101081 
L 305.405484 -226.101081 
L 304.170628 -226.101081 
L 302.935772 -226.101081 
L 301.700916 -226.101081 
L 300.46606 -226.101081 
L 299.231204 -226.101081 
L 297.996348 -226.101081 
L 296.761492 -226.101081 
L 295.526635 -226.101081 
L 294.291779 -226.101081 
L 293.056923 -226.101081 
L 291.822067 -226.101081 
L 290.587211 -226.101081 
L 289.352355 -226.101081 
L 288.117499 -226.101081 
L 286.882643 -218.910203 
L 285.647787 -226.101081 
L 284.412931 -216.513243 
L 283.178074 -226.101081 
L 281.943218 -216.513243 
L 280.708362 -216.513243 
L 279.473506 -216.513243 
L 278.23865 -216.513243 
L 277.003794 -216.513243 
L 275.768938 -216.513243 
L 274.534082 -216.513243 
L 273.299226 -216.513243 
L 272.06437 -218.910203 
L 270.829513 -226.101081 
L 269.594657 -218.910203 
L 268.359801 -216.513243 
L 267.124945 -216.513243 
L 265.890089 -216.513243 
L 264.655233 -216.513243 
L 263.420377 -216.513243 
L 262.185521 -216.513243 
L 260.950665 -216.513243 
L 259.715809 -218.910203 
L 258.480952 -216.513243 
L 257.246096 -216.513243 
L 256.01124 -216.513243 
L 254.776384 -216.513243 
L 253.541528 -216.513243 
L 252.306672 -216.513243 
L 251.071816 -216.513243 
L 249.83696 -216.513243 
L 248.602104 -226.101081 
L 247.367248 -216.513243 
L 246.132392 -216.513243 
L 244.897535 -216.513243 
L 243.662679 -216.513243 
L 242.427823 -216.513243 
L 241.192967 -222.923716 
L 239.958111 -218.910203 
L 238.723255 -216.513243 
L 237.488399 -216.513243 
L 236.253543 -216.513243 
L 235.018687 -216.513243 
L 233.783831 -216.513243 
L 232.548974 -216.513243 
L 231.314118 -216.513243 
L 230.079262 -216.513243 
L 228.844406 -218.910203 
L 227.60955 -226.101081 
L 226.374694 -226.101081 
L 225.139838 -226.101081 
L 223.904982 -216.513243 
L 222.670126 -226.101081 
L 221.43527 -218.910203 
L 220.200413 -216.513243 
L 218.965557 -218.910203 
L 217.730701 -226.101081 
L 216.495845 -226.101081 
L 215.260989 -216.513243 
L 214.026133 -207.817297 
L 212.791277 -209.991284 
L 211.556421 -207.817297 
L 210.321565 -207.817297 
L 209.086709 -207.817297 
L 207.851852 -207.817297 
L 206.616996 -207.817297 
L 205.38214 -207.817297 
L 204.147284 -207.817297 
L 202.912428 -207.817297 
L 201.677572 -207.817297 
L 200.442716 -202.131486 
L 199.20786 -207.817297 
L 197.973004 -201.85277 
L 196.738148 -207.817297 
L 195.503291 -202.131486 
L 194.268435 -200.236216 
L 193.033579 -200.236216 
L 191.798723 -200.236216 
L 190.563867 -200.236216 
L 189.329011 -200.236216 
L 188.094155 -200.236216 
L 186.859299 -200.236216 
L 185.624443 -200.236216 
L 184.389587 -200.236216 
L 183.15473 -200.236216 
L 181.919874 -200.236216 
L 180.685018 -200.236216 
L 179.450162 -200.236216 
L 178.215306 -200.236216 
L 176.98045 -200.236216 
L 175.745594 -200.236216 
L 174.510738 -200.236216 
L 173.275882 -193.324054 
L 172.041026 -193.324054 
L 170.806169 -186.857838 
L 169.571313 -186.857838 
L 168.336457 -186.857838 
L 167.101601 -188.474392 
L 165.866745 -188.474392 
L 164.631889 -186.857838 
L 163.397033 -186.857838 
L 162.162177 -181.283514 
L 160.927321 -182.677095 
L 159.692465 -182.677095 
L 158.457608 -186.857838 
L 157.222752 -186.857838 
L 155.987896 -182.677095 
L 154.75304 -186.857838 
L 153.518184 -181.283514 
L 152.283328 -186.857838 
L 151.048472 -186.857838 
L 149.813616 -186.857838 
L 148.57876 -186.857838 
L 147.343904 -186.857838 
L 146.109048 -186.857838 
L 144.874191 -182.677095 
L 143.639335 -181.283514 
L 142.404479 -182.677095 
L 141.169623 -186.857838 
L 139.934767 -181.283514 
L 138.699911 -181.283514 
L 137.465055 -181.283514 
L 136.230199 -181.283514 
L 134.995343 -181.283514 
L 133.760487 -181.283514 
L 132.52563 -181.283514 
L 131.290774 -181.283514 
L 130.055918 -181.283514 
L 128.821062 -181.283514 
L 127.586206 -181.283514 
L 126.35135 -181.283514 
L 125.116494 -181.283514 
L 123.881638 -181.283514 
L 122.646782 -181.283514 
L 121.411926 -181.283514 
L 120.177069 -181.283514 
L 118.942213 -181.283514 
L 117.707357 -176.155135 
L 116.472501 -176.155135 
L 115.237645 -176.155135 
L 114.002789 -172.97777 
L 112.767933 -165.06223 
L 111.533077 -158.317297 
L 110.298221 -153.634865 
L 109.063365 -157.648378 
L 107.828508 -153.634865 
L 106.593652 -157.648378 
L 105.358796 -153.857838 
L 104.12394 -157.648378 
L 102.889084 -152.464257 
L 101.654228 -153.634865 
L 100.419372 -153.634865 
L 99.184516 -153.634865 
L 97.94966 -153.634865 
L 96.714804 -142.653446 
L 95.479947 -140.200743 
L 94.245091 -142.653446 
L 93.010235 -148.785203 
L 91.775379 -117.736216 
L 90.540523 -116.844324 
L 89.305667 -116.844324 
L 88.070811 -116.844324 
L 86.835955 -115.729459 
L 85.601099 -115.729459 
L 84.366243 -115.729459 
L 83.131386 -111.27 
L 81.89653 -102.351081 
L 80.661674 -89.864595 
L 79.426818 -71.413581 
z
" style="stroke: #dd8452; stroke-opacity: 0.2"/>
    </defs>
    <g clip-path="url(#pee584afad4)">
     <use xlink:href="#m889ec6ca45" x="0" y="360" style="fill: #dd8452; fill-opacity: 0.2; stroke: #dd8452; stroke-opacity: 0.2"/>
    </g>
   </g>
   <g id="line2d_12">
    <path d="M 79.426818 295.331351 
L 80.661674 291.317838 
L 83.131386 290.091486 
L 84.366243 290.091486 
L 86.835955 289.088108 
L 88.070811 288.865135 
L 89.305667 288.196216 
L 90.540523 288.419189 
L 91.775379 287.973243 
L 93.010235 288.08473 
L 94.245091 287.638784 
L 95.479947 287.75027 
L 96.714804 287.304324 
L 97.94966 287.081351 
L 99.184516 287.081351 
L 100.419372 287.527297 
L 101.654228 286.858378 
L 102.889084 287.527297 
L 104.12394 287.081351 
L 105.358796 286.858378 
L 106.593652 287.081351 
L 110.298221 286.858378 
L 111.533077 286.412432 
L 112.767933 286.412432 
L 114.002789 286.635405 
L 115.237645 287.081351 
L 116.472501 286.412432 
L 117.707357 286.412432 
L 118.942213 286.746892 
L 120.177069 286.635405 
L 121.411926 286.300946 
L 122.646782 286.746892 
L 123.881638 286.635405 
L 125.116494 287.081351 
L 126.35135 286.858378 
L 127.586206 286.858378 
L 128.821062 286.746892 
L 130.055918 287.081351 
L 131.290774 286.412432 
L 132.52563 286.300946 
L 133.760487 286.412432 
L 134.995343 286.300946 
L 136.230199 286.635405 
L 137.465055 286.635405 
L 138.699911 286.189459 
L 141.169623 286.635405 
L 142.404479 286.412432 
L 143.639335 286.858378 
L 144.874191 286.412432 
L 146.109048 286.858378 
L 147.343904 287.081351 
L 148.57876 287.081351 
L 149.813616 286.858378 
L 151.048472 286.858378 
L 152.283328 287.081351 
L 153.518184 287.081351 
L 155.987896 287.304324 
L 157.222752 287.192838 
L 158.457608 287.304324 
L 159.692465 286.858378 
L 160.927321 287.081351 
L 162.162177 287.081351 
L 164.631889 287.527297 
L 165.866745 288.196216 
L 167.101601 287.973243 
L 168.336457 287.304324 
L 169.571313 287.75027 
L 170.806169 287.75027 
L 172.041026 287.527297 
L 173.275882 287.75027 
L 175.745594 287.75027 
L 176.98045 287.973243 
L 178.215306 287.75027 
L 179.450162 287.973243 
L 180.685018 287.75027 
L 181.919874 287.973243 
L 183.15473 287.75027 
L 184.389587 287.75027 
L 185.624443 288.419189 
L 186.859299 288.196216 
L 188.094155 287.75027 
L 189.329011 287.973243 
L 190.563867 287.75027 
L 193.033579 288.307703 
L 195.503291 287.75027 
L 196.738148 288.642162 
L 197.973004 288.307703 
L 201.677572 288.642162 
L 202.912428 288.196216 
L 204.147284 288.642162 
L 205.38214 288.642162 
L 207.851852 288.307703 
L 209.086709 288.865135 
L 210.321565 288.642162 
L 211.556421 288.865135 
L 215.260989 288.865135 
L 216.495845 288.419189 
L 217.730701 288.419189 
L 218.965557 288.642162 
L 220.200413 288.419189 
L 221.43527 289.088108 
L 222.670126 288.865135 
L 223.904982 289.088108 
L 225.139838 289.088108 
L 226.374694 288.865135 
L 227.60955 289.088108 
L 228.844406 289.088108 
L 230.079262 288.865135 
L 231.314118 288.865135 
L 232.548974 289.311081 
L 233.783831 288.865135 
L 235.018687 288.753649 
L 237.488399 289.311081 
L 238.723255 288.865135 
L 239.958111 288.865135 
L 241.192967 289.088108 
L 243.662679 289.088108 
L 244.897535 289.311081 
L 248.602104 289.311081 
L 249.83696 289.088108 
L 251.071816 289.534054 
L 252.306672 289.534054 
L 253.541528 289.645541 
L 254.776384 289.311081 
L 256.01124 289.311081 
L 258.480952 289.422568 
L 259.715809 289.311081 
L 262.185521 289.645541 
L 263.420377 289.534054 
L 264.655233 289.757027 
L 265.890089 289.757027 
L 267.124945 289.534054 
L 269.594657 289.534054 
L 270.829513 289.311081 
L 273.299226 289.757027 
L 274.534082 289.757027 
L 275.768938 289.311081 
L 277.003794 289.757027 
L 278.23865 289.757027 
L 279.473506 289.534054 
L 280.708362 289.534054 
L 281.943218 289.757027 
L 283.178074 289.534054 
L 286.882643 289.98 
L 288.117499 289.534054 
L 289.352355 289.534054 
L 293.056923 289.98 
L 294.291779 289.757027 
L 295.526635 290.202973 
L 296.761492 289.757027 
L 297.996348 290.091486 
L 299.231204 289.757027 
L 301.700916 289.757027 
L 302.935772 289.98 
L 305.405484 289.98 
L 306.64034 290.202973 
L 307.875196 290.202973 
L 309.110053 289.98 
L 311.579765 289.98 
L 314.049477 290.425946 
L 316.519189 289.98 
L 317.754045 290.202973 
L 318.988901 290.202973 
L 320.223757 290.425946 
L 321.458614 290.202973 
L 322.69347 290.202973 
L 323.928326 289.98 
L 325.163182 290.202973 
L 325.163182 290.202973 
" clip-path="url(#pee584afad4)" style="fill: none; stroke: #4c72b0; stroke-width: 1.5; stroke-linecap: round"/>
   </g>
   <g id="line2d_13">
    <path d="M 79.426818 293.770541 
L 80.661674 287.081351 
L 81.89653 272.365135 
L 83.131386 263.446216 
L 84.366243 260.770541 
L 85.601099 258.763784 
L 86.835955 257.648919 
L 90.540523 257.648919 
L 91.775379 257.425946 
L 93.010235 249.733378 
L 94.245091 248.73 
L 95.479947 256.757027 
L 96.714804 251.405676 
L 97.94966 245.162432 
L 99.184516 244.270541 
L 100.419372 244.716486 
L 101.654228 247.169189 
L 102.889084 244.716486 
L 104.12394 243.713108 
L 105.358796 243.155676 
L 106.593652 243.155676 
L 107.828508 244.716486 
L 109.063365 243.155676 
L 110.298221 244.270541 
L 115.237645 244.270541 
L 116.472501 242.821216 
L 117.707357 244.382027 
L 118.942213 234.45973 
L 120.177069 242.932703 
L 121.411926 244.270541 
L 122.646782 244.382027 
L 123.881638 243.155676 
L 125.116494 227.770541 
L 126.35135 226.655676 
L 127.586206 227.770541 
L 128.821062 226.655676 
L 130.055918 232.787432 
L 131.290774 226.655676 
L 133.760487 226.655676 
L 134.995343 225.317838 
L 136.230199 226.655676 
L 137.465055 227.213108 
L 138.699911 225.986757 
L 141.169623 225.986757 
L 142.404479 226.655676 
L 143.639335 227.770541 
L 144.874191 226.655676 
L 146.109048 226.655676 
L 147.343904 227.213108 
L 148.57876 226.655676 
L 151.048472 226.655676 
L 152.283328 225.317838 
L 153.518184 242.263784 
L 154.75304 226.655676 
L 155.987896 226.655676 
L 157.222752 225.317838 
L 158.457608 225.986757 
L 159.692465 227.213108 
L 160.927321 225.317838 
L 162.162177 226.655676 
L 163.397033 226.655676 
L 165.866745 225.317838 
L 167.101601 225.986757 
L 168.336457 225.986757 
L 169.571313 240.034054 
L 170.806169 233.233378 
L 172.041026 225.317838 
L 173.275882 224.648919 
L 174.510738 222.419189 
L 175.745594 222.419189 
L 176.98045 224.648919 
L 178.215306 224.648919 
L 179.450162 220.858378 
L 183.15473 220.858378 
L 184.389587 242.263784 
L 185.624443 220.858378 
L 190.563867 220.858378 
L 191.798723 219.297568 
L 193.033579 220.077973 
L 194.268435 221.638784 
L 195.503291 219.186081 
L 196.738148 219.186081 
L 197.973004 217.513784 
L 200.442716 215.952973 
L 201.677572 217.95973 
L 202.912428 218.740135 
L 204.147284 215.172568 
L 205.38214 214.392162 
L 206.616996 214.392162 
L 207.851852 215.172568 
L 209.086709 214.392162 
L 210.321565 219.855 
L 211.556421 219.297568 
L 214.026133 219.297568 
L 216.495845 215.952973 
L 218.965557 214.392162 
L 220.200413 222.08473 
L 221.43527 212.608378 
L 223.904982 214.392162 
L 227.60955 214.392162 
L 230.079262 212.608378 
L 231.314118 213.50027 
L 232.548974 216.844865 
L 233.783831 216.844865 
L 235.018687 215.172568 
L 236.253543 240.702973 
L 237.488399 215.952973 
L 239.958111 214.392162 
L 241.192967 216.844865 
L 242.427823 218.517162 
L 243.662679 214.392162 
L 244.897535 214.392162 
L 246.132392 212.608378 
L 248.602104 212.608378 
L 249.83696 215.172568 
L 251.071816 214.392162 
L 252.306672 215.952973 
L 253.541528 215.952973 
L 254.776384 213.50027 
L 256.01124 212.608378 
L 257.246096 214.392162 
L 258.480952 214.392162 
L 259.715809 212.608378 
L 260.950665 214.392162 
L 262.185521 212.608378 
L 263.420377 213.50027 
L 264.655233 212.608378 
L 265.890089 239.699595 
L 267.124945 214.392162 
L 268.359801 212.608378 
L 272.06437 212.608378 
L 273.299226 214.392162 
L 275.768938 214.392162 
L 277.003794 215.952973 
L 278.23865 212.608378 
L 279.473506 214.280676 
L 280.708362 239.811081 
L 281.943218 211.827973 
L 283.178074 211.047568 
L 284.412931 211.827973 
L 285.647787 210.044189 
L 286.882643 211.047568 
L 288.117499 214.392162 
L 289.352355 210.044189 
L 290.587211 214.392162 
L 291.822067 211.047568 
L 293.056923 211.047568 
L 294.291779 214.392162 
L 295.526635 211.047568 
L 296.761492 213.50027 
L 297.996348 225.317838 
L 299.231204 212.608378 
L 301.700916 212.608378 
L 302.935772 239.811081 
L 304.170628 236.912432 
L 305.405484 212.608378 
L 306.64034 231.226622 
L 307.875196 230.33473 
L 309.110053 212.719865 
L 310.344909 211.047568 
L 312.814621 211.047568 
L 314.049477 213.50027 
L 315.284333 212.608378 
L 316.519189 211.047568 
L 317.754045 211.047568 
L 318.988901 222.865135 
L 320.223757 212.608378 
L 321.458614 237.135405 
L 322.69347 211.047568 
L 323.928326 212.608378 
L 325.163182 211.047568 
L 325.163182 211.047568 
" clip-path="url(#pee584afad4)" style="fill: none; stroke: #dd8452; stroke-width: 1.5; stroke-linecap: round"/>
   </g>
   <g id="line2d_14"/>
   <g id="line2d_15"/>
   <g id="patch_3">
    <path d="M 67.14 309.78 
L 67.14 55.68 
" style="fill: none; stroke: #ffffff; stroke-width: 1.25; stroke-linejoin: miter; stroke-linecap: square"/>
   </g>
   <g id="patch_4">
    <path d="M 337.45 309.78 
L 337.45 55.68 
" style="fill: none; stroke: #ffffff; stroke-width: 1.25; stroke-linejoin: miter; stroke-linecap: square"/>
   </g>
   <g id="patch_5">
    <path d="M 67.14 309.78 
L 337.45 309.78 
" style="fill: none; stroke: #ffffff; stroke-width: 1.25; stroke-linejoin: miter; stroke-linecap: square"/>
   </g>
   <g id="patch_6">
    <path d="M 67.14 55.68 
L 337.45 55.68 
" style="fill: none; stroke: #ffffff; stroke-width: 1.25; stroke-linejoin: miter; stroke-linecap: square"/>
   </g>
   <g id="text_14">
    <!-- Median By Generation -->
    <g style="fill: #262626" transform="translate(135.517812 49.68)scale(0.12 -0.12)">
     <defs>
      <path id="DejaVuSans-4d" d="M 628 4666 
L 1569 4666 
L 2759 1491 
L 3956 4666 
L 4897 4666 
L 4897 0 
L 4281 0 
L 4281 4097 
L 3078 897 
L 2444 897 
L 1241 4097 
L 1241 0 
L 628 0 
L 628 4666 
z
" transform="scale(0.015625)"/>
      <path id="DejaVuSans-64" d="M 2906 2969 
L 2906 4863 
L 3481 4863 
L 3481 0 
L 2906 0 
L 2906 525 
Q 2725 213 2448 61 
Q 2172 -91 1784 -91 
Q 1150 -91 751 415 
Q 353 922 353 1747 
Q 353 2572 751 3078 
Q 1150 3584 1784 3584 
Q 2172 3584 2448 3432 
Q 2725 3281 2906 2969 
z
M 947 1747 
Q 947 1113 1208 752 
Q 1469 391 1925 391 
Q 2381 391 2643 752 
Q 2906 1113 2906 1747 
Q 2906 2381 2643 2742 
Q 2381 3103 1925 3103 
Q 1469 3103 1208 2742 
Q 947 2381 947 1747 
z
" transform="scale(0.015625)"/>
      <path id="DejaVuSans-20" transform="scale(0.015625)"/>
      <path id="DejaVuSans-42" d="M 1259 2228 
L 1259 519 
L 2272 519 
Q 2781 519 3026 730 
Q 3272 941 3272 1375 
Q 3272 1813 3026 2020 
Q 2781 2228 2272 2228 
L 1259 2228 
z
M 1259 4147 
L 1259 2741 
L 2194 2741 
Q 2656 2741 2882 2914 
Q 3109 3088 3109 3444 
Q 3109 3797 2882 3972 
Q 2656 4147 2194 4147 
L 1259 4147 
z
M 628 4666 
L 2241 4666 
Q 2963 4666 3353 4366 
Q 3744 4066 3744 3513 
Q 3744 3084 3544 2831 
Q 3344 2578 2956 2516 
Q 3422 2416 3680 2098 
Q 3938 1781 3938 1306 
Q 3938 681 3513 340 
Q 3088 0 2303 0 
L 628 0 
L 628 4666 
z
" transform="scale(0.015625)"/>
      <path id="DejaVuSans-79" d="M 2059 -325 
Q 1816 -950 1584 -1140 
Q 1353 -1331 966 -1331 
L 506 -1331 
L 506 -850 
L 844 -850 
Q 1081 -850 1212 -737 
Q 1344 -625 1503 -206 
L 1606 56 
L 191 3500 
L 800 3500 
L 1894 763 
L 2988 3500 
L 3597 3500 
L 2059 -325 
z
" transform="scale(0.015625)"/>
     </defs>
     <use xlink:href="#DejaVuSans-4d"/>
     <use xlink:href="#DejaVuSans-65" x="86.279297"/>
     <use xlink:href="#DejaVuSans-64" x="147.802734"/>
     <use xlink:href="#DejaVuSans-69" x="211.279297"/>
     <use xlink:href="#DejaVuSans-61" x="239.0625"/>
     <use xlink:href="#DejaVuSans-6e" x="300.341797"/>
     <use xlink:href="#DejaVuSans-20" x="363.720703"/>
     <use xlink:href="#DejaVuSans-42" x="395.507812"/>
     <use xlink:href="#DejaVuSans-79" x="464.111328"/>
     <use xlink:href="#DejaVuSans-20" x="523.291016"/>
     <use xlink:href="#DejaVuSans-47" x="555.078125"/>
     <use xlink:href="#DejaVuSans-65" x="632.568359"/>
     <use xlink:href="#DejaVuSans-6e" x="694.091797"/>
     <use xlink:href="#DejaVuSans-65" x="757.470703"/>
     <use xlink:href="#DejaVuSans-72" x="818.994141"/>
     <use xlink:href="#DejaVuSans-61" x="860.107422"/>
     <use xlink:href="#DejaVuSans-74" x="921.386719"/>
     <use xlink:href="#DejaVuSans-69" x="960.595703"/>
     <use xlink:href="#DejaVuSans-6f" x="988.378906"/>
     <use xlink:href="#DejaVuSans-6e" x="1049.560547"/>
    </g>
   </g>
   <g id="legend_1">
    <g id="text_15">
     <!-- GenomeConfig -->
     <g style="fill: #262626" transform="translate(383.545078 169.895312)scale(0.12 -0.12)">
      <defs>
       <path id="DejaVuSans-6d" d="M 3328 2828 
Q 3544 3216 3844 3400 
Q 4144 3584 4550 3584 
Q 5097 3584 5394 3201 
Q 5691 2819 5691 2113 
L 5691 0 
L 5113 0 
L 5113 2094 
Q 5113 2597 4934 2840 
Q 4756 3084 4391 3084 
Q 3944 3084 3684 2787 
Q 3425 2491 3425 1978 
L 3425 0 
L 2847 0 
L 2847 2094 
Q 2847 2600 2669 2842 
Q 2491 3084 2119 3084 
Q 1678 3084 1418 2786 
Q 1159 2488 1159 1978 
L 1159 0 
L 581 0 
L 581 3500 
L 1159 3500 
L 1159 2956 
Q 1356 3278 1631 3431 
Q 1906 3584 2284 3584 
Q 2666 3584 2933 3390 
Q 3200 3197 3328 2828 
z
" transform="scale(0.015625)"/>
       <path id="DejaVuSans-43" d="M 4122 4306 
L 4122 3641 
Q 3803 3938 3442 4084 
Q 3081 4231 2675 4231 
Q 1875 4231 1450 3742 
Q 1025 3253 1025 2328 
Q 1025 1406 1450 917 
Q 1875 428 2675 428 
Q 3081 428 3442 575 
Q 3803 722 4122 1019 
L 4122 359 
Q 3791 134 3420 21 
Q 3050 -91 2638 -91 
Q 1578 -91 968 557 
Q 359 1206 359 2328 
Q 359 3453 968 4101 
Q 1578 4750 2638 4750 
Q 3056 4750 3426 4639 
Q 3797 4528 4122 4306 
z
" transform="scale(0.015625)"/>
       <path id="DejaVuSans-66" d="M 2375 4863 
L 2375 4384 
L 1825 4384 
Q 1516 4384 1395 4259 
Q 1275 4134 1275 3809 
L 1275 3500 
L 2222 3500 
L 2222 3053 
L 1275 3053 
L 1275 0 
L 697 0 
L 697 3053 
L 147 3053 
L 147 3500 
L 697 3500 
L 697 3744 
Q 697 4328 969 4595 
Q 1241 4863 1831 4863 
L 2375 4863 
z
" transform="scale(0.015625)"/>
       <path id="DejaVuSans-67" d="M 2906 1791 
Q 2906 2416 2648 2759 
Q 2391 3103 1925 3103 
Q 1463 3103 1205 2759 
Q 947 2416 947 1791 
Q 947 1169 1205 825 
Q 1463 481 1925 481 
Q 2391 481 2648 825 
Q 2906 1169 2906 1791 
z
M 3481 434 
Q 3481 -459 3084 -895 
Q 2688 -1331 1869 -1331 
Q 1566 -1331 1297 -1286 
Q 1028 -1241 775 -1147 
L 775 -588 
Q 1028 -725 1275 -790 
Q 1522 -856 1778 -856 
Q 2344 -856 2625 -561 
Q 2906 -266 2906 331 
L 2906 616 
Q 2728 306 2450 153 
Q 2172 0 1784 0 
Q 1141 0 747 490 
Q 353 981 353 1791 
Q 353 2603 747 3093 
Q 1141 3584 1784 3584 
Q 2172 3584 2450 3431 
Q 2728 3278 2906 2969 
L 2906 3500 
L 3481 3500 
L 3481 434 
z
" transform="scale(0.015625)"/>
      </defs>
      <use xlink:href="#DejaVuSans-47"/>
      <use xlink:href="#DejaVuSans-65" x="77.490234"/>
      <use xlink:href="#DejaVuSans-6e" x="139.013672"/>
      <use xlink:href="#DejaVuSans-6f" x="202.392578"/>
      <use xlink:href="#DejaVuSans-6d" x="263.574219"/>
      <use xlink:href="#DejaVuSans-65" x="360.986328"/>
      <use xlink:href="#DejaVuSans-43" x="422.509766"/>
      <use xlink:href="#DejaVuSans-6f" x="492.333984"/>
      <use xlink:href="#DejaVuSans-6e" x="553.515625"/>
      <use xlink:href="#DejaVuSans-66" x="616.894531"/>
      <use xlink:href="#DejaVuSans-69" x="652.099609"/>
      <use xlink:href="#DejaVuSans-67" x="679.882812"/>
     </g>
    </g>
    <g id="line2d_16">
     <path d="M 347.35 182.399219 
L 358.35 182.399219 
L 369.35 182.399219 
" style="fill: none; stroke: #4c72b0; stroke-width: 1.5; stroke-linecap: round"/>
    </g>
    <g id="text_16">
     <!-- Control -->
     <g style="fill: #262626" transform="translate(378.15 186.249219)scale(0.11 -0.11)">
      <defs>
       <path id="DejaVuSans-6c" d="M 603 4863 
L 1178 4863 
L 1178 0 
L 603 0 
L 603 4863 
z
" transform="scale(0.015625)"/>
      </defs>
      <use xlink:href="#DejaVuSans-43"/>
      <use xlink:href="#DejaVuSans-6f" x="69.824219"/>
      <use xlink:href="#DejaVuSans-6e" x="131.005859"/>
      <use xlink:href="#DejaVuSans-74" x="194.384766"/>
      <use xlink:href="#DejaVuSans-72" x="233.59375"/>
      <use xlink:href="#DejaVuSans-6f" x="272.457031"/>
      <use xlink:href="#DejaVuSans-6c" x="333.638672"/>
     </g>
    </g>
    <g id="line2d_17">
     <path d="M 347.35 198.545156 
L 358.35 198.545156 
L 369.35 198.545156 
" style="fill: none; stroke: #dd8452; stroke-width: 1.5; stroke-linecap: round"/>
    </g>
    <g id="text_17">
     <!-- No Vector x Global Only -->
     <g style="fill: #262626" transform="translate(378.15 202.395156)scale(0.11 -0.11)">
      <defs>
       <path id="DejaVuSans-4e" d="M 628 4666 
L 1478 4666 
L 3547 763 
L 3547 4666 
L 4159 4666 
L 4159 0 
L 3309 0 
L 1241 3903 
L 1241 0 
L 628 0 
L 628 4666 
z
" transform="scale(0.015625)"/>
       <path id="DejaVuSans-56" d="M 1831 0 
L 50 4666 
L 709 4666 
L 2188 738 
L 3669 4666 
L 4325 4666 
L 2547 0 
L 1831 0 
z
" transform="scale(0.015625)"/>
       <path id="DejaVuSans-63" d="M 3122 3366 
L 3122 2828 
Q 2878 2963 2633 3030 
Q 2388 3097 2138 3097 
Q 1578 3097 1268 2742 
Q 959 2388 959 1747 
Q 959 1106 1268 751 
Q 1578 397 2138 397 
Q 2388 397 2633 464 
Q 2878 531 3122 666 
L 3122 134 
Q 2881 22 2623 -34 
Q 2366 -91 2075 -91 
Q 1284 -91 818 406 
Q 353 903 353 1747 
Q 353 2603 823 3093 
Q 1294 3584 2113 3584 
Q 2378 3584 2631 3529 
Q 2884 3475 3122 3366 
z
" transform="scale(0.015625)"/>
       <path id="DejaVuSans-78" d="M 3513 3500 
L 2247 1797 
L 3578 0 
L 2900 0 
L 1881 1375 
L 863 0 
L 184 0 
L 1544 1831 
L 300 3500 
L 978 3500 
L 1906 2253 
L 2834 3500 
L 3513 3500 
z
" transform="scale(0.015625)"/>
       <path id="DejaVuSans-62" d="M 3116 1747 
Q 3116 2381 2855 2742 
Q 2594 3103 2138 3103 
Q 1681 3103 1420 2742 
Q 1159 2381 1159 1747 
Q 1159 1113 1420 752 
Q 1681 391 2138 391 
Q 2594 391 2855 752 
Q 3116 1113 3116 1747 
z
M 1159 2969 
Q 1341 3281 1617 3432 
Q 1894 3584 2278 3584 
Q 2916 3584 3314 3078 
Q 3713 2572 3713 1747 
Q 3713 922 3314 415 
Q 2916 -91 2278 -91 
Q 1894 -91 1617 61 
Q 1341 213 1159 525 
L 1159 0 
L 581 0 
L 581 4863 
L 1159 4863 
L 1159 2969 
z
" transform="scale(0.015625)"/>
       <path id="DejaVuSans-4f" d="M 2522 4238 
Q 1834 4238 1429 3725 
Q 1025 3213 1025 2328 
Q 1025 1447 1429 934 
Q 1834 422 2522 422 
Q 3209 422 3611 934 
Q 4013 1447 4013 2328 
Q 4013 3213 3611 3725 
Q 3209 4238 2522 4238 
z
M 2522 4750 
Q 3503 4750 4090 4092 
Q 4678 3434 4678 2328 
Q 4678 1225 4090 567 
Q 3503 -91 2522 -91 
Q 1538 -91 948 565 
Q 359 1222 359 2328 
Q 359 3434 948 4092 
Q 1538 4750 2522 4750 
z
" transform="scale(0.015625)"/>
      </defs>
      <use xlink:href="#DejaVuSans-4e"/>
      <use xlink:href="#DejaVuSans-6f" x="74.804688"/>
      <use xlink:href="#DejaVuSans-20" x="135.986328"/>
      <use xlink:href="#DejaVuSans-56" x="167.773438"/>
      <use xlink:href="#DejaVuSans-65" x="228.431641"/>
      <use xlink:href="#DejaVuSans-63" x="289.955078"/>
      <use xlink:href="#DejaVuSans-74" x="344.935547"/>
      <use xlink:href="#DejaVuSans-6f" x="384.144531"/>
      <use xlink:href="#DejaVuSans-72" x="445.326172"/>
      <use xlink:href="#DejaVuSans-20" x="486.439453"/>
      <use xlink:href="#DejaVuSans-78" x="518.226562"/>
      <use xlink:href="#DejaVuSans-20" x="577.40625"/>
      <use xlink:href="#DejaVuSans-47" x="609.193359"/>
      <use xlink:href="#DejaVuSans-6c" x="686.683594"/>
      <use xlink:href="#DejaVuSans-6f" x="714.466797"/>
      <use xlink:href="#DejaVuSans-62" x="775.648438"/>
      <use xlink:href="#DejaVuSans-61" x="839.125"/>
      <use xlink:href="#DejaVuSans-6c" x="900.404297"/>
      <use xlink:href="#DejaVuSans-20" x="928.1875"/>
      <use xlink:href="#DejaVuSans-4f" x="959.974609"/>
      <use xlink:href="#DejaVuSans-6e" x="1038.685547"/>
      <use xlink:href="#DejaVuSans-6c" x="1102.064453"/>
      <use xlink:href="#DejaVuSans-79" x="1129.847656"/>
     </g>
    </g>
   </g>
  </g>
  <g id="axes_2">
   <g id="patch_7">
    <path d="M 580.73 309.78 
L 851.04 309.78 
L 851.04 55.68 
L 580.73 55.68 
z
" style="fill: #eaeaf2"/>
   </g>
   <g id="matplotlib.axis_3">
    <g id="xtick_6"/>
    <g id="xtick_7"/>
    <g id="text_18">
     <!-- GenomeConfig -->
     <g style="fill: #262626" transform="translate(671.2825 332.398125)scale(0.12 -0.12)">
      <use xlink:href="#DejaVuSans-47"/>
      <use xlink:href="#DejaVuSans-65" x="77.490234"/>
      <use xlink:href="#DejaVuSans-6e" x="139.013672"/>
      <use xlink:href="#DejaVuSans-6f" x="202.392578"/>
      <use xlink:href="#DejaVuSans-6d" x="263.574219"/>
      <use xlink:href="#DejaVuSans-65" x="360.986328"/>
      <use xlink:href="#DejaVuSans-43" x="422.509766"/>
      <use xlink:href="#DejaVuSans-6f" x="492.333984"/>
      <use xlink:href="#DejaVuSans-6e" x="553.515625"/>
      <use xlink:href="#DejaVuSans-66" x="616.894531"/>
      <use xlink:href="#DejaVuSans-69" x="652.099609"/>
      <use xlink:href="#DejaVuSans-67" x="679.882812"/>
     </g>
    </g>
   </g>
   <g id="matplotlib.axis_4">
    <g id="ytick_7">
     <g id="line2d_18">
      <path d="M 580.73 298.23 
L 851.04 298.23 
" clip-path="url(#pf6b3c75735)" style="fill: none; stroke: #ffffff; stroke-linecap: round"/>
     </g>
     <g id="text_19">
      <!-- 0 -->
      <g style="fill: #262626" transform="translate(564.23125 302.409141)scale(0.11 -0.11)">
       <use xlink:href="#DejaVuSans-30"/>
      </g>
     </g>
    </g>
    <g id="ytick_8">
     <g id="line2d_19">
      <path d="M 580.73 253.635405 
L 851.04 253.635405 
" clip-path="url(#pf6b3c75735)" style="fill: none; stroke: #ffffff; stroke-linecap: round"/>
     </g>
     <g id="text_20">
      <!-- 200 -->
      <g style="fill: #262626" transform="translate(550.23375 257.814546)scale(0.11 -0.11)">
       <use xlink:href="#DejaVuSans-32"/>
       <use xlink:href="#DejaVuSans-30" x="63.623047"/>
       <use xlink:href="#DejaVuSans-30" x="127.246094"/>
      </g>
     </g>
    </g>
    <g id="ytick_9">
     <g id="line2d_20">
      <path d="M 580.73 209.040811 
L 851.04 209.040811 
" clip-path="url(#pf6b3c75735)" style="fill: none; stroke: #ffffff; stroke-linecap: round"/>
     </g>
     <g id="text_21">
      <!-- 400 -->
      <g style="fill: #262626" transform="translate(550.23375 213.219951)scale(0.11 -0.11)">
       <use xlink:href="#DejaVuSans-34"/>
       <use xlink:href="#DejaVuSans-30" x="63.623047"/>
       <use xlink:href="#DejaVuSans-30" x="127.246094"/>
      </g>
     </g>
    </g>
    <g id="ytick_10">
     <g id="line2d_21">
      <path d="M 580.73 164.446216 
L 851.04 164.446216 
" clip-path="url(#pf6b3c75735)" style="fill: none; stroke: #ffffff; stroke-linecap: round"/>
     </g>
     <g id="text_22">
      <!-- 600 -->
      <g style="fill: #262626" transform="translate(550.23375 168.625357)scale(0.11 -0.11)">
       <use xlink:href="#DejaVuSans-36"/>
       <use xlink:href="#DejaVuSans-30" x="63.623047"/>
       <use xlink:href="#DejaVuSans-30" x="127.246094"/>
      </g>
     </g>
    </g>
    <g id="ytick_11">
     <g id="line2d_22">
      <path d="M 580.73 119.851622 
L 851.04 119.851622 
" clip-path="url(#pf6b3c75735)" style="fill: none; stroke: #ffffff; stroke-linecap: round"/>
     </g>
     <g id="text_23">
      <!-- 800 -->
      <g style="fill: #262626" transform="translate(550.23375 124.030762)scale(0.11 -0.11)">
       <use xlink:href="#DejaVuSans-38"/>
       <use xlink:href="#DejaVuSans-30" x="63.623047"/>
       <use xlink:href="#DejaVuSans-30" x="127.246094"/>
      </g>
     </g>
    </g>
    <g id="ytick_12">
     <g id="line2d_23">
      <path d="M 580.73 75.257027 
L 851.04 75.257027 
" clip-path="url(#pf6b3c75735)" style="fill: none; stroke: #ffffff; stroke-linecap: round"/>
     </g>
     <g id="text_24">
      <!-- 1000 -->
      <g style="fill: #262626" transform="translate(543.235 79.436168)scale(0.11 -0.11)">
       <use xlink:href="#DejaVuSans-31"/>
       <use xlink:href="#DejaVuSans-30" x="63.623047"/>
       <use xlink:href="#DejaVuSans-30" x="127.246094"/>
       <use xlink:href="#DejaVuSans-30" x="190.869141"/>
      </g>
     </g>
    </g>
    <g id="text_25">
     <!-- Fitness -->
     <g style="fill: #262626" transform="translate(536.739375 203.510625)rotate(-90)scale(0.12 -0.12)">
      <use xlink:href="#DejaVuSans-46"/>
      <use xlink:href="#DejaVuSans-69" x="50.269531"/>
      <use xlink:href="#DejaVuSans-74" x="78.052734"/>
      <use xlink:href="#DejaVuSans-6e" x="117.261719"/>
      <use xlink:href="#DejaVuSans-65" x="180.640625"/>
      <use xlink:href="#DejaVuSans-73" x="242.164062"/>
      <use xlink:href="#DejaVuSans-73" x="294.263672"/>
     </g>
    </g>
   </g>
   <g id="patch_8">
    <path d="M 594.2455 285.743514 
L 702.3695 285.743514 
L 702.3695 285.074595 
L 594.2455 285.074595 
L 594.2455 285.743514 
z
" clip-path="url(#pf6b3c75735)" style="fill: #5875a4; stroke: #4c4c4c; stroke-width: 1.5; stroke-linejoin: miter"/>
   </g>
   <g id="patch_9">
    <path d="M 729.4005 238.919189 
L 837.5245 238.919189 
L 837.5245 133.898919 
L 729.4005 133.898919 
L 729.4005 238.919189 
z
" clip-path="url(#pf6b3c75735)" style="fill: #cc8963; stroke: #4c4c4c; stroke-width: 1.5; stroke-linejoin: miter"/>
   </g>
   <g id="line2d_24">
    <path d="M 648.3075 285.743514 
L 648.3075 286.189459 
" clip-path="url(#pf6b3c75735)" style="fill: none; stroke: #4c4c4c; stroke-width: 1.5; stroke-linecap: round"/>
   </g>
   <g id="line2d_25">
    <path d="M 648.3075 285.074595 
L 648.3075 284.071216 
" clip-path="url(#pf6b3c75735)" style="fill: none; stroke: #4c4c4c; stroke-width: 1.5; stroke-linecap: round"/>
   </g>
   <g id="line2d_26">
    <path d="M 621.2765 286.189459 
L 675.3385 286.189459 
" clip-path="url(#pf6b3c75735)" style="fill: none; stroke: #4c4c4c; stroke-width: 1.5; stroke-linecap: round"/>
   </g>
   <g id="line2d_27">
    <path d="M 621.2765 284.071216 
L 675.3385 284.071216 
" clip-path="url(#pf6b3c75735)" style="fill: none; stroke: #4c4c4c; stroke-width: 1.5; stroke-linecap: round"/>
   </g>
   <g id="line2d_28"/>
   <g id="line2d_29">
    <path d="M 783.4625 238.919189 
L 783.4625 256.534054 
" clip-path="url(#pf6b3c75735)" style="fill: none; stroke: #4c4c4c; stroke-width: 1.5; stroke-linecap: round"/>
   </g>
   <g id="line2d_30">
    <path d="M 783.4625 133.898919 
L 783.4625 67.23 
" clip-path="url(#pf6b3c75735)" style="fill: none; stroke: #4c4c4c; stroke-width: 1.5; stroke-linecap: round"/>
   </g>
   <g id="line2d_31">
    <path d="M 756.4315 256.534054 
L 810.4935 256.534054 
" clip-path="url(#pf6b3c75735)" style="fill: none; stroke: #4c4c4c; stroke-width: 1.5; stroke-linecap: round"/>
   </g>
   <g id="line2d_32">
    <path d="M 756.4315 67.23 
L 810.4935 67.23 
" clip-path="url(#pf6b3c75735)" style="fill: none; stroke: #4c4c4c; stroke-width: 1.5; stroke-linecap: round"/>
   </g>
   <g id="line2d_33"/>
   <g id="line2d_34">
    <path d="M 594.2455 285.409054 
L 702.3695 285.409054 
" clip-path="url(#pf6b3c75735)" style="fill: none; stroke: #4c4c4c; stroke-width: 1.5; stroke-linecap: round"/>
   </g>
   <g id="line2d_35">
    <path d="M 729.4005 209.040811 
L 837.5245 209.040811 
" clip-path="url(#pf6b3c75735)" style="fill: none; stroke: #4c4c4c; stroke-width: 1.5; stroke-linecap: round"/>
   </g>
   <g id="patch_10">
    <path d="M 580.73 309.78 
L 580.73 55.68 
" style="fill: none; stroke: #ffffff; stroke-width: 1.25; stroke-linejoin: miter; stroke-linecap: square"/>
   </g>
   <g id="patch_11">
    <path d="M 851.04 309.78 
L 851.04 55.68 
" style="fill: none; stroke: #ffffff; stroke-width: 1.25; stroke-linejoin: miter; stroke-linecap: square"/>
   </g>
   <g id="patch_12">
    <path d="M 580.73 309.78 
L 851.04 309.78 
" style="fill: none; stroke: #ffffff; stroke-width: 1.25; stroke-linejoin: miter; stroke-linecap: square"/>
   </g>
   <g id="patch_13">
    <path d="M 580.73 55.68 
L 851.04 55.68 
" style="fill: none; stroke: #ffffff; stroke-width: 1.25; stroke-linejoin: miter; stroke-linecap: square"/>
   </g>
   <g id="text_26">
    <!-- Best Performance Across Trials -->
    <g style="fill: #262626" transform="translate(623.924688 49.68)scale(0.12 -0.12)">
     <defs>
      <path id="DejaVuSans-50" d="M 1259 4147 
L 1259 2394 
L 2053 2394 
Q 2494 2394 2734 2622 
Q 2975 2850 2975 3272 
Q 2975 3691 2734 3919 
Q 2494 4147 2053 4147 
L 1259 4147 
z
M 628 4666 
L 2053 4666 
Q 2838 4666 3239 4311 
Q 3641 3956 3641 3272 
Q 3641 2581 3239 2228 
Q 2838 1875 2053 1875 
L 1259 1875 
L 1259 0 
L 628 0 
L 628 4666 
z
" transform="scale(0.015625)"/>
      <path id="DejaVuSans-41" d="M 2188 4044 
L 1331 1722 
L 3047 1722 
L 2188 4044 
z
M 1831 4666 
L 2547 4666 
L 4325 0 
L 3669 0 
L 3244 1197 
L 1141 1197 
L 716 0 
L 50 0 
L 1831 4666 
z
" transform="scale(0.015625)"/>
      <path id="DejaVuSans-54" d="M -19 4666 
L 3928 4666 
L 3928 4134 
L 2272 4134 
L 2272 0 
L 1638 0 
L 1638 4134 
L -19 4134 
L -19 4666 
z
" transform="scale(0.015625)"/>
     </defs>
     <use xlink:href="#DejaVuSans-42"/>
     <use xlink:href="#DejaVuSans-65" x="68.603516"/>
     <use xlink:href="#DejaVuSans-73" x="130.126953"/>
     <use xlink:href="#DejaVuSans-74" x="182.226562"/>
     <use xlink:href="#DejaVuSans-20" x="221.435547"/>
     <use xlink:href="#DejaVuSans-50" x="253.222656"/>
     <use xlink:href="#DejaVuSans-65" x="309.900391"/>
     <use xlink:href="#DejaVuSans-72" x="371.423828"/>
     <use xlink:href="#DejaVuSans-66" x="412.537109"/>
     <use xlink:href="#DejaVuSans-6f" x="447.742188"/>
     <use xlink:href="#DejaVuSans-72" x="508.923828"/>
     <use xlink:href="#DejaVuSans-6d" x="548.287109"/>
     <use xlink:href="#DejaVuSans-61" x="645.699219"/>
     <use xlink:href="#DejaVuSans-6e" x="706.978516"/>
     <use xlink:href="#DejaVuSans-63" x="770.357422"/>
     <use xlink:href="#DejaVuSans-65" x="825.337891"/>
     <use xlink:href="#DejaVuSans-20" x="886.861328"/>
     <use xlink:href="#DejaVuSans-41" x="918.648438"/>
     <use xlink:href="#DejaVuSans-63" x="985.306641"/>
     <use xlink:href="#DejaVuSans-72" x="1040.287109"/>
     <use xlink:href="#DejaVuSans-6f" x="1079.150391"/>
     <use xlink:href="#DejaVuSans-73" x="1140.332031"/>
     <use xlink:href="#DejaVuSans-73" x="1192.431641"/>
     <use xlink:href="#DejaVuSans-20" x="1244.53125"/>
     <use xlink:href="#DejaVuSans-54" x="1276.318359"/>
     <use xlink:href="#DejaVuSans-72" x="1322.652344"/>
     <use xlink:href="#DejaVuSans-69" x="1363.765625"/>
     <use xlink:href="#DejaVuSans-61" x="1391.548828"/>
     <use xlink:href="#DejaVuSans-6c" x="1452.828125"/>
     <use xlink:href="#DejaVuSans-73" x="1480.611328"/>
    </g>
   </g>
  </g>
  <g id="text_27">
   <!-- Compare Default To Evolved Rates For Explode -->
   <g style="fill: #262626" transform="translate(262.956375 18.14175)scale(0.144 -0.144)">
    <defs>
     <path id="DejaVuSans-70" d="M 1159 525 
L 1159 -1331 
L 581 -1331 
L 581 3500 
L 1159 3500 
L 1159 2969 
Q 1341 3281 1617 3432 
Q 1894 3584 2278 3584 
Q 2916 3584 3314 3078 
Q 3713 2572 3713 1747 
Q 3713 922 3314 415 
Q 2916 -91 2278 -91 
Q 1894 -91 1617 61 
Q 1341 213 1159 525 
z
M 3116 1747 
Q 3116 2381 2855 2742 
Q 2594 3103 2138 3103 
Q 1681 3103 1420 2742 
Q 1159 2381 1159 1747 
Q 1159 1113 1420 752 
Q 1681 391 2138 391 
Q 2594 391 2855 752 
Q 3116 1113 3116 1747 
z
" transform="scale(0.015625)"/>
     <path id="DejaVuSans-44" d="M 1259 4147 
L 1259 519 
L 2022 519 
Q 2988 519 3436 956 
Q 3884 1394 3884 2338 
Q 3884 3275 3436 3711 
Q 2988 4147 2022 4147 
L 1259 4147 
z
M 628 4666 
L 1925 4666 
Q 3281 4666 3915 4102 
Q 4550 3538 4550 2338 
Q 4550 1131 3912 565 
Q 3275 0 1925 0 
L 628 0 
L 628 4666 
z
" transform="scale(0.015625)"/>
     <path id="DejaVuSans-75" d="M 544 1381 
L 544 3500 
L 1119 3500 
L 1119 1403 
Q 1119 906 1312 657 
Q 1506 409 1894 409 
Q 2359 409 2629 706 
Q 2900 1003 2900 1516 
L 2900 3500 
L 3475 3500 
L 3475 0 
L 2900 0 
L 2900 538 
Q 2691 219 2414 64 
Q 2138 -91 1772 -91 
Q 1169 -91 856 284 
Q 544 659 544 1381 
z
M 1991 3584 
L 1991 3584 
z
" transform="scale(0.015625)"/>
     <path id="DejaVuSans-45" d="M 628 4666 
L 3578 4666 
L 3578 4134 
L 1259 4134 
L 1259 2753 
L 3481 2753 
L 3481 2222 
L 1259 2222 
L 1259 531 
L 3634 531 
L 3634 0 
L 628 0 
L 628 4666 
z
" transform="scale(0.015625)"/>
     <path id="DejaVuSans-76" d="M 191 3500 
L 800 3500 
L 1894 563 
L 2988 3500 
L 3597 3500 
L 2284 0 
L 1503 0 
L 191 3500 
z
" transform="scale(0.015625)"/>
     <path id="DejaVuSans-52" d="M 2841 2188 
Q 3044 2119 3236 1894 
Q 3428 1669 3622 1275 
L 4263 0 
L 3584 0 
L 2988 1197 
Q 2756 1666 2539 1819 
Q 2322 1972 1947 1972 
L 1259 1972 
L 1259 0 
L 628 0 
L 628 4666 
L 2053 4666 
Q 2853 4666 3247 4331 
Q 3641 3997 3641 3322 
Q 3641 2881 3436 2590 
Q 3231 2300 2841 2188 
z
M 1259 4147 
L 1259 2491 
L 2053 2491 
Q 2509 2491 2742 2702 
Q 2975 2913 2975 3322 
Q 2975 3731 2742 3939 
Q 2509 4147 2053 4147 
L 1259 4147 
z
" transform="scale(0.015625)"/>
    </defs>
    <use xlink:href="#DejaVuSans-43"/>
    <use xlink:href="#DejaVuSans-6f" x="69.824219"/>
    <use xlink:href="#DejaVuSans-6d" x="131.005859"/>
    <use xlink:href="#DejaVuSans-70" x="228.417969"/>
    <use xlink:href="#DejaVuSans-61" x="291.894531"/>
    <use xlink:href="#DejaVuSans-72" x="353.173828"/>
    <use xlink:href="#DejaVuSans-65" x="392.037109"/>
    <use xlink:href="#DejaVuSans-20" x="453.560547"/>
    <use xlink:href="#DejaVuSans-44" x="485.347656"/>
    <use xlink:href="#DejaVuSans-65" x="562.349609"/>
    <use xlink:href="#DejaVuSans-66" x="623.873047"/>
    <use xlink:href="#DejaVuSans-61" x="659.078125"/>
    <use xlink:href="#DejaVuSans-75" x="720.357422"/>
    <use xlink:href="#DejaVuSans-6c" x="783.736328"/>
    <use xlink:href="#DejaVuSans-74" x="811.519531"/>
    <use xlink:href="#DejaVuSans-20" x="850.728516"/>
    <use xlink:href="#DejaVuSans-54" x="882.515625"/>
    <use xlink:href="#DejaVuSans-6f" x="926.599609"/>
    <use xlink:href="#DejaVuSans-20" x="987.78125"/>
    <use xlink:href="#DejaVuSans-45" x="1019.568359"/>
    <use xlink:href="#DejaVuSans-76" x="1082.751953"/>
    <use xlink:href="#DejaVuSans-6f" x="1141.931641"/>
    <use xlink:href="#DejaVuSans-6c" x="1203.113281"/>
    <use xlink:href="#DejaVuSans-76" x="1230.896484"/>
    <use xlink:href="#DejaVuSans-65" x="1290.076172"/>
    <use xlink:href="#DejaVuSans-64" x="1351.599609"/>
    <use xlink:href="#DejaVuSans-20" x="1415.076172"/>
    <use xlink:href="#DejaVuSans-52" x="1446.863281"/>
    <use xlink:href="#DejaVuSans-61" x="1514.095703"/>
    <use xlink:href="#DejaVuSans-74" x="1575.375"/>
    <use xlink:href="#DejaVuSans-65" x="1614.583984"/>
    <use xlink:href="#DejaVuSans-73" x="1676.107422"/>
    <use xlink:href="#DejaVuSans-20" x="1728.207031"/>
    <use xlink:href="#DejaVuSans-46" x="1759.994141"/>
    <use xlink:href="#DejaVuSans-6f" x="1813.888672"/>
    <use xlink:href="#DejaVuSans-72" x="1875.070312"/>
    <use xlink:href="#DejaVuSans-20" x="1916.183594"/>
    <use xlink:href="#DejaVuSans-45" x="1947.970703"/>
    <use xlink:href="#DejaVuSans-78" x="2011.154297"/>
    <use xlink:href="#DejaVuSans-70" x="2070.333984"/>
    <use xlink:href="#DejaVuSans-6c" x="2133.810547"/>
    <use xlink:href="#DejaVuSans-6f" x="2161.59375"/>
    <use xlink:href="#DejaVuSans-64" x="2222.775391"/>
    <use xlink:href="#DejaVuSans-65" x="2286.251953"/>
   </g>
  </g>
 </g>
 <defs>
  <clipPath id="pee584afad4">
   <rect x="67.14" y="55.68" width="270.31" height="254.1"/>
  </clipPath>
  <clipPath id="pf6b3c75735">
   <rect x="580.73" y="55.68" width="270.31" height="254.1"/>
  </clipPath>
 </defs>
</svg>
