<?xml version="1.0" encoding="utf-8" standalone="no"?>
<!DOCTYPE svg PUBLIC "-//W3C//DTD SVG 1.1//EN"
  "http://www.w3.org/Graphics/SVG/1.1/DTD/svg11.dtd">
<svg xmlns:xlink="http://www.w3.org/1999/xlink" width="864pt" height="360pt" viewBox="0 0 864 360" xmlns="http://www.w3.org/2000/svg" version="1.1">
 <metadata>
  <rdf:RDF xmlns:dc="http://purl.org/dc/elements/1.1/" xmlns:cc="http://creativecommons.org/ns#" xmlns:rdf="http://www.w3.org/1999/02/22-rdf-syntax-ns#">
   <cc:Work>
    <dc:type rdf:resource="http://purl.org/dc/dcmitype/StillImage"/>
    <dc:date>2022-11-20T08:14:16.359052</dc:date>
    <dc:format>image/svg+xml</dc:format>
    <dc:creator>
     <cc:Agent>
      <dc:title>Matplotlib v3.5.2, https://matplotlib.org/</dc:title>
     </cc:Agent>
    </dc:creator>
   </cc:Work>
  </rdf:RDF>
 </metadata>
 <defs>
  <style type="text/css">*{stroke-linejoin: round; stroke-linecap: butt}</style>
 </defs>
 <g id="figure_1">
  <g id="patch_1">
   <path d="M 0 360 
L 864 360 
L 864 0 
L 0 0 
z
" style="fill: #ffffff"/>
  </g>
  <g id="axes_1">
   <g id="patch_2">
    <path d="M 67.14 309.78 
L 337.45 309.78 
L 337.45 55.68 
L 67.14 55.68 
z
" style="fill: #eaeaf2"/>
   </g>
   <g id="matplotlib.axis_1">
    <g id="xtick_1">
     <g id="line2d_1">
      <path d="M 79.426818 309.78 
L 79.426818 55.68 
" clip-path="url(#p5d4c7f61b1)" style="fill: none; stroke: #ffffff; stroke-linecap: round"/>
     </g>
     <g id="text_1">
      <!-- 0 -->
      <g style="fill: #262626" transform="translate(75.927443 327.638281)scale(0.11 -0.11)">
       <defs>
        <path id="DejaVuSans-30" d="M 2034 4250 
Q 1547 4250 1301 3770 
Q 1056 3291 1056 2328 
Q 1056 1369 1301 889 
Q 1547 409 2034 409 
Q 2525 409 2770 889 
Q 3016 1369 3016 2328 
Q 3016 3291 2770 3770 
Q 2525 4250 2034 4250 
z
M 2034 4750 
Q 2819 4750 3233 4129 
Q 3647 3509 3647 2328 
Q 3647 1150 3233 529 
Q 2819 -91 2034 -91 
Q 1250 -91 836 529 
Q 422 1150 422 2328 
Q 422 3509 836 4129 
Q 1250 4750 2034 4750 
z
" transform="scale(0.015625)"/>
       </defs>
       <use xlink:href="#DejaVuSans-30"/>
      </g>
     </g>
    </g>
    <g id="xtick_2">
     <g id="line2d_2">
      <path d="M 141.169623 309.78 
L 141.169623 55.68 
" clip-path="url(#p5d4c7f61b1)" style="fill: none; stroke: #ffffff; stroke-linecap: round"/>
     </g>
     <g id="text_2">
      <!-- 50 -->
      <g style="fill: #262626" transform="translate(134.170873 327.638281)scale(0.11 -0.11)">
       <defs>
        <path id="DejaVuSans-35" d="M 691 4666 
L 3169 4666 
L 3169 4134 
L 1269 4134 
L 1269 2991 
Q 1406 3038 1543 3061 
Q 1681 3084 1819 3084 
Q 2600 3084 3056 2656 
Q 3513 2228 3513 1497 
Q 3513 744 3044 326 
Q 2575 -91 1722 -91 
Q 1428 -91 1123 -41 
Q 819 9 494 109 
L 494 744 
Q 775 591 1075 516 
Q 1375 441 1709 441 
Q 2250 441 2565 725 
Q 2881 1009 2881 1497 
Q 2881 1984 2565 2268 
Q 2250 2553 1709 2553 
Q 1456 2553 1204 2497 
Q 953 2441 691 2322 
L 691 4666 
z
" transform="scale(0.015625)"/>
       </defs>
       <use xlink:href="#DejaVuSans-35"/>
       <use xlink:href="#DejaVuSans-30" x="63.623047"/>
      </g>
     </g>
    </g>
    <g id="xtick_3">
     <g id="line2d_3">
      <path d="M 202.912428 309.78 
L 202.912428 55.68 
" clip-path="url(#p5d4c7f61b1)" style="fill: none; stroke: #ffffff; stroke-linecap: round"/>
     </g>
     <g id="text_3">
      <!-- 100 -->
      <g style="fill: #262626" transform="translate(192.414303 327.638281)scale(0.11 -0.11)">
       <defs>
        <path id="DejaVuSans-31" d="M 794 531 
L 1825 531 
L 1825 4091 
L 703 3866 
L 703 4441 
L 1819 4666 
L 2450 4666 
L 2450 531 
L 3481 531 
L 3481 0 
L 794 0 
L 794 531 
z
" transform="scale(0.015625)"/>
       </defs>
       <use xlink:href="#DejaVuSans-31"/>
       <use xlink:href="#DejaVuSans-30" x="63.623047"/>
       <use xlink:href="#DejaVuSans-30" x="127.246094"/>
      </g>
     </g>
    </g>
    <g id="xtick_4">
     <g id="line2d_4">
      <path d="M 264.655233 309.78 
L 264.655233 55.68 
" clip-path="url(#p5d4c7f61b1)" style="fill: none; stroke: #ffffff; stroke-linecap: round"/>
     </g>
     <g id="text_4">
      <!-- 150 -->
      <g style="fill: #262626" transform="translate(254.157108 327.638281)scale(0.11 -0.11)">
       <use xlink:href="#DejaVuSans-31"/>
       <use xlink:href="#DejaVuSans-35" x="63.623047"/>
       <use xlink:href="#DejaVuSans-30" x="127.246094"/>
      </g>
     </g>
    </g>
    <g id="xtick_5">
     <g id="line2d_5">
      <path d="M 326.398038 309.78 
L 326.398038 55.68 
" clip-path="url(#p5d4c7f61b1)" style="fill: none; stroke: #ffffff; stroke-linecap: round"/>
     </g>
     <g id="text_5">
      <!-- 200 -->
      <g style="fill: #262626" transform="translate(315.899913 327.638281)scale(0.11 -0.11)">
       <defs>
        <path id="DejaVuSans-32" d="M 1228 531 
L 3431 531 
L 3431 0 
L 469 0 
L 469 531 
Q 828 903 1448 1529 
Q 2069 2156 2228 2338 
Q 2531 2678 2651 2914 
Q 2772 3150 2772 3378 
Q 2772 3750 2511 3984 
Q 2250 4219 1831 4219 
Q 1534 4219 1204 4116 
Q 875 4013 500 3803 
L 500 4441 
Q 881 4594 1212 4672 
Q 1544 4750 1819 4750 
Q 2544 4750 2975 4387 
Q 3406 4025 3406 3419 
Q 3406 3131 3298 2873 
Q 3191 2616 2906 2266 
Q 2828 2175 2409 1742 
Q 1991 1309 1228 531 
z
" transform="scale(0.015625)"/>
       </defs>
       <use xlink:href="#DejaVuSans-32"/>
       <use xlink:href="#DejaVuSans-30" x="63.623047"/>
       <use xlink:href="#DejaVuSans-30" x="127.246094"/>
      </g>
     </g>
    </g>
    <g id="text_6">
     <!-- Generation -->
     <g style="fill: #262626" transform="translate(168.823437 343.044062)scale(0.12 -0.12)">
      <defs>
       <path id="DejaVuSans-47" d="M 3809 666 
L 3809 1919 
L 2778 1919 
L 2778 2438 
L 4434 2438 
L 4434 434 
Q 4069 175 3628 42 
Q 3188 -91 2688 -91 
Q 1594 -91 976 548 
Q 359 1188 359 2328 
Q 359 3472 976 4111 
Q 1594 4750 2688 4750 
Q 3144 4750 3555 4637 
Q 3966 4525 4313 4306 
L 4313 3634 
Q 3963 3931 3569 4081 
Q 3175 4231 2741 4231 
Q 1884 4231 1454 3753 
Q 1025 3275 1025 2328 
Q 1025 1384 1454 906 
Q 1884 428 2741 428 
Q 3075 428 3337 486 
Q 3600 544 3809 666 
z
" transform="scale(0.015625)"/>
       <path id="DejaVuSans-65" d="M 3597 1894 
L 3597 1613 
L 953 1613 
Q 991 1019 1311 708 
Q 1631 397 2203 397 
Q 2534 397 2845 478 
Q 3156 559 3463 722 
L 3463 178 
Q 3153 47 2828 -22 
Q 2503 -91 2169 -91 
Q 1331 -91 842 396 
Q 353 884 353 1716 
Q 353 2575 817 3079 
Q 1281 3584 2069 3584 
Q 2775 3584 3186 3129 
Q 3597 2675 3597 1894 
z
M 3022 2063 
Q 3016 2534 2758 2815 
Q 2500 3097 2075 3097 
Q 1594 3097 1305 2825 
Q 1016 2553 972 2059 
L 3022 2063 
z
" transform="scale(0.015625)"/>
       <path id="DejaVuSans-6e" d="M 3513 2113 
L 3513 0 
L 2938 0 
L 2938 2094 
Q 2938 2591 2744 2837 
Q 2550 3084 2163 3084 
Q 1697 3084 1428 2787 
Q 1159 2491 1159 1978 
L 1159 0 
L 581 0 
L 581 3500 
L 1159 3500 
L 1159 2956 
Q 1366 3272 1645 3428 
Q 1925 3584 2291 3584 
Q 2894 3584 3203 3211 
Q 3513 2838 3513 2113 
z
" transform="scale(0.015625)"/>
       <path id="DejaVuSans-72" d="M 2631 2963 
Q 2534 3019 2420 3045 
Q 2306 3072 2169 3072 
Q 1681 3072 1420 2755 
Q 1159 2438 1159 1844 
L 1159 0 
L 581 0 
L 581 3500 
L 1159 3500 
L 1159 2956 
Q 1341 3275 1631 3429 
Q 1922 3584 2338 3584 
Q 2397 3584 2469 3576 
Q 2541 3569 2628 3553 
L 2631 2963 
z
" transform="scale(0.015625)"/>
       <path id="DejaVuSans-61" d="M 2194 1759 
Q 1497 1759 1228 1600 
Q 959 1441 959 1056 
Q 959 750 1161 570 
Q 1363 391 1709 391 
Q 2188 391 2477 730 
Q 2766 1069 2766 1631 
L 2766 1759 
L 2194 1759 
z
M 3341 1997 
L 3341 0 
L 2766 0 
L 2766 531 
Q 2569 213 2275 61 
Q 1981 -91 1556 -91 
Q 1019 -91 701 211 
Q 384 513 384 1019 
Q 384 1609 779 1909 
Q 1175 2209 1959 2209 
L 2766 2209 
L 2766 2266 
Q 2766 2663 2505 2880 
Q 2244 3097 1772 3097 
Q 1472 3097 1187 3025 
Q 903 2953 641 2809 
L 641 3341 
Q 956 3463 1253 3523 
Q 1550 3584 1831 3584 
Q 2591 3584 2966 3190 
Q 3341 2797 3341 1997 
z
" transform="scale(0.015625)"/>
       <path id="DejaVuSans-74" d="M 1172 4494 
L 1172 3500 
L 2356 3500 
L 2356 3053 
L 1172 3053 
L 1172 1153 
Q 1172 725 1289 603 
Q 1406 481 1766 481 
L 2356 481 
L 2356 0 
L 1766 0 
Q 1100 0 847 248 
Q 594 497 594 1153 
L 594 3053 
L 172 3053 
L 172 3500 
L 594 3500 
L 594 4494 
L 1172 4494 
z
" transform="scale(0.015625)"/>
       <path id="DejaVuSans-69" d="M 603 3500 
L 1178 3500 
L 1178 0 
L 603 0 
L 603 3500 
z
M 603 4863 
L 1178 4863 
L 1178 4134 
L 603 4134 
L 603 4863 
z
" transform="scale(0.015625)"/>
       <path id="DejaVuSans-6f" d="M 1959 3097 
Q 1497 3097 1228 2736 
Q 959 2375 959 1747 
Q 959 1119 1226 758 
Q 1494 397 1959 397 
Q 2419 397 2687 759 
Q 2956 1122 2956 1747 
Q 2956 2369 2687 2733 
Q 2419 3097 1959 3097 
z
M 1959 3584 
Q 2709 3584 3137 3096 
Q 3566 2609 3566 1747 
Q 3566 888 3137 398 
Q 2709 -91 1959 -91 
Q 1206 -91 779 398 
Q 353 888 353 1747 
Q 353 2609 779 3096 
Q 1206 3584 1959 3584 
z
" transform="scale(0.015625)"/>
      </defs>
      <use xlink:href="#DejaVuSans-47"/>
      <use xlink:href="#DejaVuSans-65" x="77.490234"/>
      <use xlink:href="#DejaVuSans-6e" x="139.013672"/>
      <use xlink:href="#DejaVuSans-65" x="202.392578"/>
      <use xlink:href="#DejaVuSans-72" x="263.916016"/>
      <use xlink:href="#DejaVuSans-61" x="305.029297"/>
      <use xlink:href="#DejaVuSans-74" x="366.308594"/>
      <use xlink:href="#DejaVuSans-69" x="405.517578"/>
      <use xlink:href="#DejaVuSans-6f" x="433.300781"/>
      <use xlink:href="#DejaVuSans-6e" x="494.482422"/>
     </g>
    </g>
   </g>
   <g id="matplotlib.axis_2">
    <g id="ytick_1">
     <g id="line2d_6">
      <path d="M 67.14 298.23 
L 337.45 298.23 
" clip-path="url(#p5d4c7f61b1)" style="fill: none; stroke: #ffffff; stroke-linecap: round"/>
     </g>
     <g id="text_7">
      <!-- 0 -->
      <g style="fill: #262626" transform="translate(50.64125 302.409141)scale(0.11 -0.11)">
       <use xlink:href="#DejaVuSans-30"/>
      </g>
     </g>
    </g>
    <g id="ytick_2">
     <g id="line2d_7">
      <path d="M 67.14 245.321159 
L 337.45 245.321159 
" clip-path="url(#p5d4c7f61b1)" style="fill: none; stroke: #ffffff; stroke-linecap: round"/>
     </g>
     <g id="text_8">
      <!-- 500 -->
      <g style="fill: #262626" transform="translate(36.64375 249.5003)scale(0.11 -0.11)">
       <use xlink:href="#DejaVuSans-35"/>
       <use xlink:href="#DejaVuSans-30" x="63.623047"/>
       <use xlink:href="#DejaVuSans-30" x="127.246094"/>
      </g>
     </g>
    </g>
    <g id="ytick_3">
     <g id="line2d_8">
      <path d="M 67.14 192.412318 
L 337.45 192.412318 
" clip-path="url(#p5d4c7f61b1)" style="fill: none; stroke: #ffffff; stroke-linecap: round"/>
     </g>
     <g id="text_9">
      <!-- 1000 -->
      <g style="fill: #262626" transform="translate(29.645 196.591459)scale(0.11 -0.11)">
       <use xlink:href="#DejaVuSans-31"/>
       <use xlink:href="#DejaVuSans-30" x="63.623047"/>
       <use xlink:href="#DejaVuSans-30" x="127.246094"/>
       <use xlink:href="#DejaVuSans-30" x="190.869141"/>
      </g>
     </g>
    </g>
    <g id="ytick_4">
     <g id="line2d_9">
      <path d="M 67.14 139.503477 
L 337.45 139.503477 
" clip-path="url(#p5d4c7f61b1)" style="fill: none; stroke: #ffffff; stroke-linecap: round"/>
     </g>
     <g id="text_10">
      <!-- 1500 -->
      <g style="fill: #262626" transform="translate(29.645 143.682617)scale(0.11 -0.11)">
       <use xlink:href="#DejaVuSans-31"/>
       <use xlink:href="#DejaVuSans-35" x="63.623047"/>
       <use xlink:href="#DejaVuSans-30" x="127.246094"/>
       <use xlink:href="#DejaVuSans-30" x="190.869141"/>
      </g>
     </g>
    </g>
    <g id="ytick_5">
     <g id="line2d_10">
      <path d="M 67.14 86.594636 
L 337.45 86.594636 
" clip-path="url(#p5d4c7f61b1)" style="fill: none; stroke: #ffffff; stroke-linecap: round"/>
     </g>
     <g id="text_11">
      <!-- 2000 -->
      <g style="fill: #262626" transform="translate(29.645 90.773776)scale(0.11 -0.11)">
       <use xlink:href="#DejaVuSans-32"/>
       <use xlink:href="#DejaVuSans-30" x="63.623047"/>
       <use xlink:href="#DejaVuSans-30" x="127.246094"/>
       <use xlink:href="#DejaVuSans-30" x="190.869141"/>
      </g>
     </g>
    </g>
    <g id="text_12">
     <!-- Fitness -->
     <g style="fill: #262626" transform="translate(23.149375 203.510625)rotate(-90)scale(0.12 -0.12)">
      <defs>
       <path id="DejaVuSans-46" d="M 628 4666 
L 3309 4666 
L 3309 4134 
L 1259 4134 
L 1259 2759 
L 3109 2759 
L 3109 2228 
L 1259 2228 
L 1259 0 
L 628 0 
L 628 4666 
z
" transform="scale(0.015625)"/>
       <path id="DejaVuSans-73" d="M 2834 3397 
L 2834 2853 
Q 2591 2978 2328 3040 
Q 2066 3103 1784 3103 
Q 1356 3103 1142 2972 
Q 928 2841 928 2578 
Q 928 2378 1081 2264 
Q 1234 2150 1697 2047 
L 1894 2003 
Q 2506 1872 2764 1633 
Q 3022 1394 3022 966 
Q 3022 478 2636 193 
Q 2250 -91 1575 -91 
Q 1294 -91 989 -36 
Q 684 19 347 128 
L 347 722 
Q 666 556 975 473 
Q 1284 391 1588 391 
Q 1994 391 2212 530 
Q 2431 669 2431 922 
Q 2431 1156 2273 1281 
Q 2116 1406 1581 1522 
L 1381 1569 
Q 847 1681 609 1914 
Q 372 2147 372 2553 
Q 372 3047 722 3315 
Q 1072 3584 1716 3584 
Q 2034 3584 2315 3537 
Q 2597 3491 2834 3397 
z
" transform="scale(0.015625)"/>
      </defs>
      <use xlink:href="#DejaVuSans-46"/>
      <use xlink:href="#DejaVuSans-69" x="50.269531"/>
      <use xlink:href="#DejaVuSans-74" x="78.052734"/>
      <use xlink:href="#DejaVuSans-6e" x="117.261719"/>
      <use xlink:href="#DejaVuSans-65" x="180.640625"/>
      <use xlink:href="#DejaVuSans-73" x="242.164062"/>
      <use xlink:href="#DejaVuSans-73" x="294.263672"/>
     </g>
    </g>
   </g>
   <g id="PolyCollection_1">
    <defs>
     <path id="m547622658f" d="M 79.426818 -66.55825 
L 79.426818 -61.77 
L 80.661674 -63.965717 
L 81.89653 -64.309624 
L 83.131386 -65.870435 
L 84.366243 -66.79634 
L 85.601099 -65.261984 
L 86.835955 -68.542332 
L 88.070811 -71.796225 
L 89.305667 -72.669221 
L 90.540523 -71.478772 
L 91.775379 -71.240683 
L 93.010235 -77.483926 
L 94.245091 -74.494576 
L 95.479947 -70.92323 
L 96.714804 -74.679757 
L 97.94966 -72.166587 
L 99.184516 -84.467893 
L 100.419372 -77.325199 
L 101.654228 -83.700715 
L 102.889084 -84.520802 
L 104.12394 -83.515534 
L 105.358796 -85.869977 
L 106.593652 -83.489079 
L 107.828508 -87.986331 
L 109.063365 -87.166244 
L 110.298221 -87.483697 
L 111.533077 -87.589514 
L 112.767933 -89.917503 
L 114.002789 -89.335506 
L 115.237645 -87.483697 
L 116.472501 -82.166358 
L 117.707357 -82.113449 
L 118.942213 -89.018053 
L 120.177069 -89.811686 
L 121.411926 -90.55241 
L 122.646782 -89.996867 
L 123.881638 -90.023321 
L 125.116494 -90.420137 
L 126.35135 -84.653074 
L 127.586206 -83.039354 
L 128.821062 -86.848791 
L 130.055918 -89.520687 
L 131.290774 -86.213885 
L 132.52563 -89.388415 
L 133.760487 -87.774695 
L 134.995343 -87.08688 
L 136.230199 -89.494233 
L 137.465055 -85.684796 
L 138.699911 -90.023321 
L 139.934767 -85.367343 
L 141.169623 -72.933765 
L 142.404479 -82.721901 
L 143.639335 -83.965259 
L 144.874191 -91.610586 
L 146.109048 -91.610586 
L 147.343904 -91.610586 
L 148.57876 -88.224421 
L 149.813616 -87.033972 
L 151.048472 -91.610586 
L 152.283328 -86.293248 
L 153.518184 -86.134521 
L 154.75304 -85.393798 
L 155.987896 -84.044622 
L 157.222752 -85.790614 
L 158.457608 -88.171512 
L 159.692465 -90.07623 
L 160.927321 -89.891049 
L 162.162177 -92.139675 
L 163.397033 -90.922771 
L 164.631889 -83.330353 
L 165.866745 -84.8118 
L 167.101601 -82.272176 
L 168.336457 -91.478314 
L 169.571313 -91.081498 
L 170.806169 -82.827719 
L 172.041026 -82.827719 
L 173.275882 -82.827719 
L 174.510738 -91.610586 
L 175.745594 -91.081498 
L 176.98045 -91.610586 
L 178.215306 -91.081498 
L 179.450162 -90.525955 
L 180.685018 -91.584132 
L 181.919874 -91.610586 
L 183.15473 -87.139789 
L 184.389587 -86.637155 
L 185.624443 -92.007403 
L 186.859299 -88.092148 
L 188.094155 -92.139675 
L 189.329011 -92.007403 
L 190.563867 -91.610586 
L 191.798723 -91.610586 
L 193.033579 -90.420137 
L 194.268435 -92.007403 
L 195.503291 -82.483811 
L 196.738148 -92.668763 
L 197.973004 -77.087109 
L 199.20786 -89.943958 
L 200.442716 -92.139675 
L 201.677572 -91.610586 
L 202.912428 -91.610586 
L 204.147284 -92.139675 
L 205.38214 -91.478314 
L 206.616996 -91.610586 
L 207.851852 -88.674146 
L 209.086709 -88.488965 
L 210.321565 -91.478314 
L 211.556421 -92.536491 
L 212.791277 -93.144943 
L 214.026133 -92.536491 
L 215.260989 -92.007403 
L 216.495845 -89.60005 
L 217.730701 -92.139675 
L 218.965557 -92.668763 
L 220.200413 -87.007517 
L 221.43527 -92.007403 
L 222.670126 -90.790499 
L 223.904982 -93.144943 
L 225.139838 -81.531452 
L 226.374694 -91.478314 
L 227.60955 -90.843408 
L 228.844406 -93.144943 
L 230.079262 -83.647806 
L 231.314118 -91.875131 
L 232.548974 -92.007403 
L 233.783831 -88.859327 
L 235.018687 -91.081498 
L 236.253543 -92.668763 
L 237.488399 -88.330238 
L 238.723255 -91.21377 
L 239.958111 -93.303669 
L 241.192967 -93.303669 
L 242.427823 -90.949226 
L 243.662679 -93.303669 
L 244.897535 -83.885896 
L 246.132392 -85.340889 
L 247.367248 -86.451974 
L 248.602104 -91.610586 
L 249.83696 -85.869977 
L 251.071816 -93.303669 
L 252.306672 -83.303898 
L 253.541528 -84.38853 
L 254.776384 -89.917503 
L 256.01124 -93.462396 
L 257.246096 -83.885896 
L 258.480952 -86.848791 
L 259.715809 -87.959876 
L 260.950665 -92.536491 
L 262.185521 -86.954608 
L 263.420377 -84.176894 
L 264.655233 -82.933536 
L 265.890089 -86.981063 
L 267.124945 -85.896432 
L 268.359801 -94.229574 
L 269.594657 -89.891049 
L 270.829513 -91.980948 
L 272.06437 -87.166244 
L 273.299226 -92.615854 
L 274.534082 -87.166244 
L 275.768938 -87.166244 
L 277.003794 -93.515305 
L 278.23865 -87.113335 
L 279.473506 -93.515305 
L 280.708362 -85.94934 
L 281.943218 -84.864709 
L 283.178074 -87.113335 
L 284.412931 -87.80115 
L 285.647787 -89.60005 
L 286.882643 -86.637155 
L 288.117499 -97.589285 
L 289.352355 -96.927925 
L 290.587211 -97.589285 
L 291.822067 -96.054929 
L 293.056923 -95.737476 
L 294.291779 -97.113106 
L 295.526635 -93.753394 
L 296.761492 -89.864595 
L 297.996348 -89.758777 
L 299.231204 -96.980834 
L 300.46606 -98.726825 
L 301.700916 -98.885552 
L 302.935772 -81.795996 
L 304.170628 -97.113106 
L 305.405484 -98.303555 
L 306.64034 -93.515305 
L 307.875196 -97.748012 
L 309.110053 -98.488736 
L 310.344909 -93.039125 
L 311.579765 -96.769198 
L 312.814621 -88.7006 
L 314.049477 -98.303555 
L 315.284333 -96.372382 
L 316.519189 -87.483697 
L 317.754045 -98.488736 
L 318.988901 -98.488736 
L 320.223757 -98.488736 
L 321.458614 -98.488736 
L 322.69347 -97.748012 
L 323.928326 -87.589514 
L 325.163182 -88.674146 
L 325.163182 -135.842377 
L 325.163182 -135.842377 
L 323.928326 -135.842377 
L 322.69347 -135.842377 
L 321.458614 -152.032483 
L 320.223757 -135.842377 
L 318.988901 -135.842377 
L 317.754045 -135.842377 
L 316.519189 -135.842377 
L 315.284333 -135.842377 
L 314.049477 -135.842377 
L 312.814621 -135.842377 
L 311.579765 -135.842377 
L 310.344909 -135.842377 
L 309.110053 -135.842377 
L 307.875196 -135.842377 
L 306.64034 -135.842377 
L 305.405484 -135.842377 
L 304.170628 -135.842377 
L 302.935772 -135.842377 
L 301.700916 -135.842377 
L 300.46606 -135.842377 
L 299.231204 -135.842377 
L 297.996348 -135.842377 
L 296.761492 -135.842377 
L 295.526635 -135.842377 
L 294.291779 -135.842377 
L 293.056923 -135.842377 
L 291.822067 -135.842377 
L 290.587211 -135.842377 
L 289.352355 -135.842377 
L 288.117499 -139.334361 
L 286.882643 -135.842377 
L 285.647787 -135.842377 
L 284.412931 -135.842377 
L 283.178074 -135.842377 
L 281.943218 -135.842377 
L 280.708362 -135.842377 
L 279.473506 -135.842377 
L 278.23865 -135.842377 
L 277.003794 -135.842377 
L 275.768938 -135.842377 
L 274.534082 -135.842377 
L 273.299226 -135.842377 
L 272.06437 -135.842377 
L 270.829513 -135.842377 
L 269.594657 -135.842377 
L 268.359801 -135.842377 
L 267.124945 -135.842377 
L 265.890089 -135.842377 
L 264.655233 -135.842377 
L 263.420377 -135.842377 
L 262.185521 -135.842377 
L 260.950665 -135.842377 
L 259.715809 -139.334361 
L 258.480952 -135.842377 
L 257.246096 -135.842377 
L 256.01124 -135.842377 
L 254.776384 -135.842377 
L 253.541528 -135.842377 
L 252.306672 -136.715373 
L 251.071816 -139.334361 
L 249.83696 -135.842377 
L 248.602104 -135.842377 
L 247.367248 -135.842377 
L 246.132392 -135.842377 
L 244.897535 -135.842377 
L 243.662679 -136.715373 
L 242.427823 -138.858181 
L 241.192967 -136.556647 
L 239.958111 -135.842377 
L 238.723255 -135.842377 
L 237.488399 -135.842377 
L 236.253543 -135.842377 
L 235.018687 -135.842377 
L 233.783831 -135.842377 
L 232.548974 -135.842377 
L 231.314118 -135.842377 
L 230.079262 -135.842377 
L 228.844406 -135.842377 
L 227.60955 -135.842377 
L 226.374694 -135.842377 
L 225.139838 -135.842377 
L 223.904982 -135.842377 
L 222.670126 -135.842377 
L 221.43527 -135.842377 
L 220.200413 -135.842377 
L 218.965557 -135.842377 
L 217.730701 -135.842377 
L 216.495845 -135.842377 
L 215.260989 -135.842377 
L 214.026133 -135.842377 
L 212.791277 -135.842377 
L 211.556421 -135.842377 
L 210.321565 -135.842377 
L 209.086709 -135.842377 
L 207.851852 -135.842377 
L 206.616996 -135.842377 
L 205.38214 -135.842377 
L 204.147284 -135.842377 
L 202.912428 -135.842377 
L 201.677572 -135.842377 
L 200.442716 -135.842377 
L 199.20786 -135.842377 
L 197.973004 -135.842377 
L 196.738148 -135.842377 
L 195.503291 -135.842377 
L 194.268435 -135.842377 
L 193.033579 -135.842377 
L 191.798723 -135.842377 
L 190.563867 -135.842377 
L 189.329011 -135.842377 
L 188.094155 -135.842377 
L 186.859299 -135.842377 
L 185.624443 -135.842377 
L 184.389587 -135.842377 
L 183.15473 -135.842377 
L 181.919874 -135.842377 
L 180.685018 -135.842377 
L 179.450162 -135.842377 
L 178.215306 -135.842377 
L 176.98045 -135.842377 
L 175.745594 -135.842377 
L 174.510738 -135.842377 
L 173.275882 -135.842377 
L 172.041026 -135.842377 
L 170.806169 -135.842377 
L 169.571313 -135.842377 
L 168.336457 -135.842377 
L 167.101601 -135.842377 
L 165.866745 -135.842377 
L 164.631889 -135.842377 
L 163.397033 -135.842377 
L 162.162177 -135.842377 
L 160.927321 -135.842377 
L 159.692465 -135.842377 
L 158.457608 -135.842377 
L 157.222752 -135.842377 
L 155.987896 -135.842377 
L 154.75304 -135.842377 
L 153.518184 -135.842377 
L 152.283328 -135.842377 
L 151.048472 -135.842377 
L 149.813616 -129.757861 
L 148.57876 -135.842377 
L 147.343904 -135.842377 
L 146.109048 -135.842377 
L 144.874191 -135.842377 
L 143.639335 -135.842377 
L 142.404479 -135.842377 
L 141.169623 -135.842377 
L 139.934767 -135.842377 
L 138.699911 -135.842377 
L 137.465055 -135.842377 
L 136.230199 -135.842377 
L 134.995343 -135.842377 
L 133.760487 -135.842377 
L 132.52563 -135.842377 
L 131.290774 -135.842377 
L 130.055918 -135.842377 
L 128.821062 -135.842377 
L 127.586206 -135.842377 
L 126.35135 -135.842377 
L 125.116494 -135.842377 
L 123.881638 -135.842377 
L 122.646782 -135.842377 
L 121.411926 -135.842377 
L 120.177069 -135.842377 
L 118.942213 -135.842377 
L 117.707357 -135.842377 
L 116.472501 -135.842377 
L 115.237645 -135.842377 
L 114.002789 -135.842377 
L 112.767933 -135.842377 
L 111.533077 -135.842377 
L 110.298221 -135.842377 
L 109.063365 -127.588598 
L 107.828508 -127.588598 
L 106.593652 -127.588598 
L 105.358796 -127.588598 
L 104.12394 -127.588598 
L 102.889084 -127.588598 
L 101.654228 -127.588598 
L 100.419372 -127.588598 
L 99.184516 -127.588598 
L 97.94966 -127.588598 
L 96.714804 -127.588598 
L 95.479947 -127.588598 
L 94.245091 -127.588598 
L 93.010235 -127.588598 
L 91.775379 -127.588598 
L 90.540523 -127.588598 
L 89.305667 -127.588598 
L 88.070811 -127.588598 
L 86.835955 -113.620664 
L 85.601099 -108.753051 
L 84.366243 -94.758662 
L 83.131386 -87.166244 
L 81.89653 -77.166473 
L 80.661674 -72.193042 
L 79.426818 -66.55825 
z
" style="stroke: #4c72b0; stroke-opacity: 0.2"/>
    </defs>
    <g clip-path="url(#p5d4c7f61b1)">
     <use xlink:href="#m547622658f" x="0" y="360" style="fill: #4c72b0; fill-opacity: 0.2; stroke: #4c72b0; stroke-opacity: 0.2"/>
    </g>
   </g>
   <g id="PolyCollection_2">
    <defs>
     <path id="m92c8dddbe0" d="M 79.426818 -66.346615 
L 79.426818 -61.981635 
L 80.661674 -64.52126 
L 81.89653 -66.108525 
L 83.131386 -69.679872 
L 84.366243 -71.82268 
L 85.601099 -73.19831 
L 86.835955 -73.727398 
L 88.070811 -77.642652 
L 89.305667 -77.589743 
L 90.540523 -77.827833 
L 91.775379 -76.637384 
L 93.010235 -78.277558 
L 94.245091 -78.277558 
L 95.479947 -77.431017 
L 96.714804 -78.251104 
L 97.94966 -78.277558 
L 99.184516 -78.436285 
L 100.419372 -78.489194 
L 101.654228 -78.489194 
L 102.889084 -78.489194 
L 104.12394 -78.489194 
L 105.358796 -78.489194 
L 106.593652 -78.700829 
L 107.828508 -78.489194 
L 109.063365 -78.489194 
L 110.298221 -78.489194 
L 111.533077 -78.489194 
L 112.767933 -78.489194 
L 114.002789 -78.489194 
L 115.237645 -78.700829 
L 116.472501 -78.859556 
L 117.707357 -78.912464 
L 118.942213 -78.912464 
L 120.177069 -78.912464 
L 121.411926 -78.912464 
L 122.646782 -78.700829 
L 123.881638 -78.912464 
L 125.116494 -78.912464 
L 126.35135 -78.912464 
L 127.586206 -78.912464 
L 128.821062 -80.711365 
L 130.055918 -78.912464 
L 131.290774 -78.912464 
L 132.52563 -80.711365 
L 133.760487 -80.26164 
L 134.995343 -80.975909 
L 136.230199 -78.912464 
L 137.465055 -78.912464 
L 138.699911 -80.711365 
L 139.934767 -79.1241 
L 141.169623 -79.1241 
L 142.404479 -79.071191 
L 143.639335 -78.912464 
L 144.874191 -78.912464 
L 146.109048 -79.1241 
L 147.343904 -79.1241 
L 148.57876 -79.335735 
L 149.813616 -79.335735 
L 151.048472 -78.912464 
L 152.283328 -78.912464 
L 153.518184 -78.700829 
L 154.75304 -78.912464 
L 155.987896 -78.912464 
L 157.222752 -79.1241 
L 158.457608 -79.1241 
L 159.692465 -79.282826 
L 160.927321 -80.367458 
L 162.162177 -79.335735 
L 163.397033 -79.335735 
L 164.631889 -80.050005 
L 165.866745 -80.949455 
L 167.101601 -80.050005 
L 168.336457 -80.288094 
L 169.571313 -79.1241 
L 170.806169 -79.282826 
L 172.041026 -80.288094 
L 173.275882 -80.288094 
L 174.510738 -81.028818 
L 175.745594 -80.949455 
L 176.98045 -80.658456 
L 178.215306 -80.288094 
L 179.450162 -80.49973 
L 180.685018 -80.446821 
L 181.919874 -80.658456 
L 183.15473 -81.028818 
L 184.389587 -79.573825 
L 185.624443 -81.240454 
L 186.859299 -80.446821 
L 188.094155 -80.711365 
L 189.329011 -79.573825 
L 190.563867 -80.288094 
L 191.798723 -80.711365 
L 193.033579 -80.49973 
L 194.268435 -80.49973 
L 195.503291 -80.949455 
L 196.738148 -80.949455 
L 197.973004 -81.028818 
L 199.20786 -80.49973 
L 200.442716 -80.711365 
L 201.677572 -80.711365 
L 202.912428 -80.711365 
L 204.147284 -80.949455 
L 205.38214 -80.711365 
L 206.616996 -81.028818 
L 207.851852 -80.711365 
L 209.086709 -81.425634 
L 210.321565 -80.711365 
L 211.556421 -81.028818 
L 212.791277 -81.028818 
L 214.026133 -80.790728 
L 215.260989 -80.975909 
L 216.495845 -81.028818 
L 217.730701 -80.949455 
L 218.965557 -80.711365 
L 220.200413 -80.790728 
L 221.43527 -87.272061 
L 222.670126 -81.028818 
L 223.904982 -80.711365 
L 225.139838 -81.39918 
L 226.374694 -81.769542 
L 227.60955 -82.29863 
L 228.844406 -82.854173 
L 230.079262 -86.451974 
L 231.314118 -81.769542 
L 232.548974 -81.769542 
L 233.783831 -81.769542 
L 235.018687 -81.769542 
L 236.253543 -80.949455 
L 237.488399 -81.769542 
L 238.723255 -83.039354 
L 239.958111 -81.769542 
L 241.192967 -81.716633 
L 242.427823 -81.690179 
L 243.662679 -81.769542 
L 244.897535 -81.769542 
L 246.132392 -81.769542 
L 247.367248 -81.848905 
L 248.602104 -81.848905 
L 249.83696 -81.557907 
L 251.071816 -83.0129 
L 252.306672 -82.007632 
L 253.541528 -83.43617 
L 254.776384 -81.557907 
L 256.01124 -86.769427 
L 257.246096 -81.795996 
L 258.480952 -82.29863 
L 259.715809 -81.795996 
L 260.950665 -81.504998 
L 262.185521 -86.584246 
L 263.420377 -86.584246 
L 264.655233 -82.113449 
L 265.890089 -81.557907 
L 267.124945 -81.795996 
L 268.359801 -82.53672 
L 269.594657 -82.113449 
L 270.829513 -82.113449 
L 272.06437 -82.668992 
L 273.299226 -81.87536 
L 274.534082 -81.87536 
L 275.768938 -88.330238 
L 277.003794 -81.87536 
L 278.23865 -82.192813 
L 279.473506 -81.87536 
L 280.708362 -81.87536 
L 281.943218 -82.113449 
L 283.178074 -82.192813 
L 284.412931 -81.87536 
L 285.647787 -82.668992 
L 286.882643 -82.668992 
L 288.117499 -81.87536 
L 289.352355 -88.568328 
L 290.587211 -81.87536 
L 291.822067 -82.113449 
L 293.056923 -82.113449 
L 294.291779 -81.87536 
L 295.526635 -88.330238 
L 296.761492 -81.954723 
L 297.996348 -81.87536 
L 299.231204 -81.87536 
L 300.46606 -81.87536 
L 301.700916 -81.87536 
L 302.935772 -81.557907 
L 304.170628 -81.87536 
L 305.405484 -88.330238 
L 306.64034 -81.87536 
L 307.875196 -81.87536 
L 309.110053 -82.113449 
L 310.344909 -82.139904 
L 311.579765 -85.52607 
L 312.814621 -82.139904 
L 314.049477 -81.87536 
L 315.284333 -81.87536 
L 316.519189 -81.87536 
L 317.754045 -81.87536 
L 318.988901 -81.87536 
L 320.223757 -81.87536 
L 321.458614 -81.87536 
L 322.69347 -82.192813 
L 323.928326 -87.033972 
L 325.163182 -81.87536 
L 325.163182 -139.757632 
L 325.163182 -139.757632 
L 323.928326 -139.757632 
L 322.69347 -139.757632 
L 321.458614 -139.757632 
L 320.223757 -139.757632 
L 318.988901 -139.757632 
L 317.754045 -139.757632 
L 316.519189 -139.757632 
L 315.284333 -139.757632 
L 314.049477 -139.757632 
L 312.814621 -139.757632 
L 311.579765 -139.757632 
L 310.344909 -139.757632 
L 309.110053 -139.757632 
L 307.875196 -139.757632 
L 306.64034 -139.757632 
L 305.405484 -139.757632 
L 304.170628 -139.757632 
L 302.935772 -139.757632 
L 301.700916 -139.757632 
L 300.46606 -139.757632 
L 299.231204 -139.757632 
L 297.996348 -139.757632 
L 296.761492 -139.757632 
L 295.526635 -139.757632 
L 294.291779 -139.757632 
L 293.056923 -139.757632 
L 291.822067 -139.757632 
L 290.587211 -139.757632 
L 289.352355 -139.757632 
L 288.117499 -139.757632 
L 286.882643 -136.345011 
L 285.647787 -139.757632 
L 284.412931 -135.207471 
L 283.178074 -139.757632 
L 281.943218 -135.207471 
L 280.708362 -135.207471 
L 279.473506 -135.207471 
L 278.23865 -135.207471 
L 277.003794 -135.207471 
L 275.768938 -135.207471 
L 274.534082 -135.207471 
L 273.299226 -135.207471 
L 272.06437 -136.345011 
L 270.829513 -139.757632 
L 269.594657 -136.345011 
L 268.359801 -135.207471 
L 267.124945 -135.207471 
L 265.890089 -135.207471 
L 264.655233 -135.207471 
L 263.420377 -135.207471 
L 262.185521 -135.207471 
L 260.950665 -135.207471 
L 259.715809 -136.345011 
L 258.480952 -135.207471 
L 257.246096 -135.207471 
L 256.01124 -135.207471 
L 254.776384 -135.207471 
L 253.541528 -135.207471 
L 252.306672 -135.207471 
L 251.071816 -135.207471 
L 249.83696 -135.207471 
L 248.602104 -139.757632 
L 247.367248 -135.207471 
L 246.132392 -135.207471 
L 244.897535 -135.207471 
L 243.662679 -135.207471 
L 242.427823 -135.207471 
L 241.192967 -138.24973 
L 239.958111 -136.345011 
L 238.723255 -135.207471 
L 237.488399 -135.207471 
L 236.253543 -135.207471 
L 235.018687 -135.207471 
L 233.783831 -135.207471 
L 232.548974 -135.207471 
L 231.314118 -135.207471 
L 230.079262 -135.207471 
L 228.844406 -136.345011 
L 227.60955 -139.757632 
L 226.374694 -139.757632 
L 225.139838 -139.757632 
L 223.904982 -135.207471 
L 222.670126 -139.757632 
L 221.43527 -136.345011 
L 220.200413 -135.207471 
L 218.965557 -136.345011 
L 217.730701 -139.757632 
L 216.495845 -139.757632 
L 215.260989 -135.207471 
L 214.026133 -131.080582 
L 212.791277 -132.112304 
L 211.556421 -131.080582 
L 210.321565 -131.080582 
L 209.086709 -131.080582 
L 207.851852 -131.080582 
L 206.616996 -131.080582 
L 205.38214 -131.080582 
L 204.147284 -131.080582 
L 202.912428 -131.080582 
L 201.677572 -131.080582 
L 200.442716 -128.382231 
L 199.20786 -131.080582 
L 197.973004 -128.249959 
L 196.738148 -131.080582 
L 195.503291 -128.382231 
L 194.268435 -127.482781 
L 193.033579 -127.482781 
L 191.798723 -127.482781 
L 190.563867 -127.482781 
L 189.329011 -127.482781 
L 188.094155 -127.482781 
L 186.859299 -127.482781 
L 185.624443 -127.482781 
L 184.389587 -127.482781 
L 183.15473 -127.482781 
L 181.919874 -127.482781 
L 180.685018 -127.482781 
L 179.450162 -127.482781 
L 178.215306 -127.482781 
L 176.98045 -127.482781 
L 175.745594 -127.482781 
L 174.510738 -127.482781 
L 173.275882 -124.202432 
L 172.041026 -124.202432 
L 170.806169 -121.13372 
L 169.571313 -121.13372 
L 168.336457 -121.13372 
L 167.101601 -121.900898 
L 165.866745 -121.900898 
L 164.631889 -121.13372 
L 163.397033 -121.13372 
L 162.162177 -118.488278 
L 160.927321 -119.149638 
L 159.692465 -119.149638 
L 158.457608 -121.13372 
L 157.222752 -121.13372 
L 155.987896 -119.149638 
L 154.75304 -121.13372 
L 153.518184 -118.488278 
L 152.283328 -121.13372 
L 151.048472 -121.13372 
L 149.813616 -121.13372 
L 148.57876 -121.13372 
L 147.343904 -121.13372 
L 146.109048 -121.13372 
L 144.874191 -119.149638 
L 143.639335 -118.488278 
L 142.404479 -119.149638 
L 141.169623 -121.13372 
L 139.934767 -118.488278 
L 138.699911 -118.488278 
L 137.465055 -118.488278 
L 136.230199 -118.488278 
L 134.995343 -118.488278 
L 133.760487 -118.488278 
L 132.52563 -118.488278 
L 131.290774 -118.488278 
L 130.055918 -118.488278 
L 128.821062 -118.488278 
L 127.586206 -118.488278 
L 126.35135 -118.488278 
L 125.116494 -118.488278 
L 123.881638 -118.488278 
L 122.646782 -118.488278 
L 121.411926 -118.488278 
L 120.177069 -118.488278 
L 118.942213 -118.488278 
L 117.707357 -116.054471 
L 116.472501 -116.054471 
L 115.237645 -116.054471 
L 114.002789 -114.546569 
L 112.767933 -110.790041 
L 111.533077 -107.589056 
L 110.298221 -105.366885 
L 109.063365 -107.271603 
L 107.828508 -105.366885 
L 106.593652 -107.271603 
L 105.358796 -105.472703 
L 104.12394 -107.271603 
L 102.889084 -104.811342 
L 101.654228 -105.366885 
L 100.419372 -105.366885 
L 99.184516 -105.366885 
L 97.94966 -105.366885 
L 96.714804 -100.155364 
L 95.479947 -98.99137 
L 94.245091 -100.155364 
L 93.010235 -103.06535 
L 91.775379 -88.330238 
L 90.540523 -87.906967 
L 89.305667 -87.906967 
L 88.070811 -87.906967 
L 86.835955 -87.377879 
L 85.601099 -87.377879 
L 84.366243 -87.377879 
L 83.131386 -85.261525 
L 81.89653 -81.028818 
L 80.661674 -75.103028 
L 79.426818 -66.346615 
z
" style="stroke: #dd8452; stroke-opacity: 0.2"/>
    </defs>
    <g clip-path="url(#p5d4c7f61b1)">
     <use xlink:href="#m92c8dddbe0" x="0" y="360" style="fill: #dd8452; fill-opacity: 0.2; stroke: #dd8452; stroke-opacity: 0.2"/>
    </g>
   </g>
   <g id="PolyCollection_3">
    <defs>
     <path id="m2a29e5aebe" d="M 79.426818 -66.769885 
L 79.426818 -61.77 
L 80.661674 -63.436628 
L 81.89653 -64.812258 
L 83.131386 -65.738163 
L 84.366243 -66.399524 
L 85.601099 -67.589973 
L 86.835955 -68.304242 
L 88.070811 -73.85967 
L 89.305667 -79.150554 
L 90.540523 -81.716633 
L 91.775379 -82.801264 
L 93.010235 -82.854173 
L 94.245091 -88.832872 
L 95.479947 -90.234956 
L 96.714804 -91.954494 
L 97.94966 -99.837911 
L 99.184516 -105.57852 
L 100.419372 -105.57852 
L 101.654228 -105.657884 
L 102.889084 -105.57852 
L 104.12394 -105.57852 
L 105.358796 -107.165786 
L 106.593652 -106.795424 
L 107.828508 -106.795424 
L 109.063365 -105.657884 
L 110.298221 -105.57852 
L 111.533077 -105.657884 
L 112.767933 -107.165786 
L 114.002789 -107.165786 
L 115.237645 -106.795424 
L 116.472501 -106.795424 
L 117.707357 -107.165786 
L 118.942213 -107.165786 
L 120.177069 -111.504311 
L 121.411926 -107.165786 
L 122.646782 -106.768969 
L 123.881638 -105.57852 
L 125.116494 -108.356235 
L 126.35135 -107.165786 
L 127.586206 -107.165786 
L 128.821062 -108.356235 
L 130.055918 -107.165786 
L 131.290774 -108.753051 
L 132.52563 -108.753051 
L 133.760487 -108.753051 
L 134.995343 -108.753051 
L 136.230199 -111.504311 
L 137.465055 -110.816496 
L 138.699911 -108.753051 
L 139.934767 -108.753051 
L 141.169623 -108.753051 
L 142.404479 -108.753051 
L 143.639335 -108.753051 
L 144.874191 -108.753051 
L 146.109048 -108.753051 
L 147.343904 -108.753051 
L 148.57876 -105.57852 
L 149.813616 -107.959418 
L 151.048472 -105.57852 
L 152.283328 -105.57852 
L 153.518184 -107.959418 
L 154.75304 -110.816496 
L 155.987896 -105.57852 
L 157.222752 -111.504311 
L 158.457608 -111.504311 
L 159.692465 -111.504311 
L 160.927321 -111.504311 
L 162.162177 -105.57852 
L 163.397033 -108.356235 
L 164.631889 -108.753051 
L 165.866745 -108.753051 
L 167.101601 -108.753051 
L 168.336457 -108.753051 
L 169.571313 -108.753051 
L 170.806169 -108.753051 
L 172.041026 -108.753051 
L 173.275882 -108.753051 
L 174.510738 -108.753051 
L 175.745594 -108.753051 
L 176.98045 -108.753051 
L 178.215306 -105.57852 
L 179.450162 -108.753051 
L 180.685018 -108.753051 
L 181.919874 -106.768969 
L 183.15473 -108.753051 
L 184.389587 -108.753051 
L 185.624443 -108.753051 
L 186.859299 -107.165786 
L 188.094155 -108.753051 
L 189.329011 -108.753051 
L 190.563867 -108.753051 
L 191.798723 -105.57852 
L 193.033579 -108.753051 
L 194.268435 -111.504311 
L 195.503291 -110.816496 
L 196.738148 -111.504311 
L 197.973004 -110.816496 
L 199.20786 -108.753051 
L 200.442716 -110.816496 
L 201.677572 -111.504311 
L 202.912428 -110.816496 
L 204.147284 -110.816496 
L 205.38214 -110.816496 
L 206.616996 -111.504311 
L 207.851852 -111.504311 
L 209.086709 -111.504311 
L 210.321565 -111.504311 
L 211.556421 -111.504311 
L 212.791277 -111.504311 
L 214.026133 -111.504311 
L 215.260989 -111.504311 
L 216.495845 -107.165786 
L 217.730701 -107.165786 
L 218.965557 -111.504311 
L 220.200413 -111.504311 
L 221.43527 -111.504311 
L 222.670126 -111.504311 
L 223.904982 -106.768969 
L 225.139838 -105.57852 
L 226.374694 -111.31913 
L 227.60955 -111.504311 
L 228.844406 -111.504311 
L 230.079262 -111.239766 
L 231.314118 -111.504311 
L 232.548974 -105.57852 
L 233.783831 -111.504311 
L 235.018687 -111.504311 
L 236.253543 -111.504311 
L 237.488399 -111.504311 
L 238.723255 -111.504311 
L 239.958111 -111.504311 
L 241.192967 -111.504311 
L 242.427823 -111.504311 
L 243.662679 -111.504311 
L 244.897535 -111.504311 
L 246.132392 -111.504311 
L 247.367248 -111.504311 
L 248.602104 -111.504311 
L 249.83696 -111.504311 
L 251.071816 -111.504311 
L 252.306672 -111.504311 
L 253.541528 -111.504311 
L 254.776384 -111.504311 
L 256.01124 -111.504311 
L 257.246096 -111.504311 
L 258.480952 -111.504311 
L 259.715809 -111.504311 
L 260.950665 -111.504311 
L 262.185521 -111.504311 
L 263.420377 -111.504311 
L 264.655233 -111.504311 
L 265.890089 -111.504311 
L 267.124945 -111.504311 
L 268.359801 -111.504311 
L 269.594657 -111.504311 
L 270.829513 -111.504311 
L 272.06437 -111.504311 
L 273.299226 -111.504311 
L 274.534082 -111.504311 
L 275.768938 -111.504311 
L 277.003794 -111.504311 
L 278.23865 -111.504311 
L 279.473506 -111.504311 
L 280.708362 -111.504311 
L 281.943218 -111.504311 
L 283.178074 -111.504311 
L 284.412931 -111.504311 
L 285.647787 -111.504311 
L 286.882643 -111.504311 
L 288.117499 -111.504311 
L 289.352355 -111.504311 
L 290.587211 -111.504311 
L 291.822067 -111.504311 
L 293.056923 -111.504311 
L 294.291779 -111.504311 
L 295.526635 -111.504311 
L 296.761492 -111.504311 
L 297.996348 -111.504311 
L 299.231204 -111.504311 
L 300.46606 -111.504311 
L 301.700916 -111.504311 
L 302.935772 -111.504311 
L 304.170628 -111.504311 
L 305.405484 -111.504311 
L 306.64034 -111.504311 
L 307.875196 -111.504311 
L 309.110053 -111.504311 
L 310.344909 -111.504311 
L 311.579765 -110.816496 
L 312.814621 -111.504311 
L 314.049477 -108.753051 
L 315.284333 -110.816496 
L 316.519189 -108.753051 
L 317.754045 -111.504311 
L 318.988901 -108.753051 
L 320.223757 -110.816496 
L 321.458614 -108.753051 
L 322.69347 -108.753051 
L 323.928326 -108.753051 
L 325.163182 -108.753051 
L 325.163182 -168.434224 
L 325.163182 -168.434224 
L 323.928326 -168.434224 
L 322.69347 -168.434224 
L 321.458614 -168.434224 
L 320.223757 -168.434224 
L 318.988901 -168.434224 
L 317.754045 -168.434224 
L 316.519189 -168.434224 
L 315.284333 -168.434224 
L 314.049477 -168.434224 
L 312.814621 -168.434224 
L 311.579765 -168.434224 
L 310.344909 -168.434224 
L 309.110053 -168.434224 
L 307.875196 -168.434224 
L 306.64034 -168.434224 
L 305.405484 -168.434224 
L 304.170628 -168.434224 
L 302.935772 -168.434224 
L 301.700916 -168.434224 
L 300.46606 -168.434224 
L 299.231204 -168.434224 
L 297.996348 -168.434224 
L 296.761492 -168.434224 
L 295.526635 -168.434224 
L 294.291779 -168.434224 
L 293.056923 -168.434224 
L 291.822067 -168.434224 
L 290.587211 -168.434224 
L 289.352355 -168.434224 
L 288.117499 -168.434224 
L 286.882643 -168.434224 
L 285.647787 -168.434224 
L 284.412931 -168.434224 
L 283.178074 -168.434224 
L 281.943218 -168.434224 
L 280.708362 -168.434224 
L 279.473506 -168.434224 
L 278.23865 -168.434224 
L 277.003794 -168.434224 
L 275.768938 -168.434224 
L 274.534082 -168.434224 
L 273.299226 -168.434224 
L 272.06437 -168.434224 
L 270.829513 -168.434224 
L 269.594657 -168.434224 
L 268.359801 -168.434224 
L 267.124945 -168.434224 
L 265.890089 -168.434224 
L 264.655233 -168.434224 
L 263.420377 -168.434224 
L 262.185521 -168.434224 
L 260.950665 -168.434224 
L 259.715809 -168.434224 
L 258.480952 -168.434224 
L 257.246096 -168.434224 
L 256.01124 -168.434224 
L 254.776384 -168.434224 
L 253.541528 -168.434224 
L 252.306672 -168.434224 
L 251.071816 -168.434224 
L 249.83696 -168.434224 
L 248.602104 -168.434224 
L 247.367248 -168.434224 
L 246.132392 -168.434224 
L 244.897535 -168.434224 
L 243.662679 -168.434224 
L 242.427823 -168.434224 
L 241.192967 -168.434224 
L 239.958111 -168.434224 
L 238.723255 -168.434224 
L 237.488399 -168.434224 
L 236.253543 -168.434224 
L 235.018687 -168.434224 
L 233.783831 -168.434224 
L 232.548974 -168.434224 
L 231.314118 -168.434224 
L 230.079262 -168.434224 
L 228.844406 -168.434224 
L 227.60955 -168.434224 
L 226.374694 -168.434224 
L 225.139838 -168.434224 
L 223.904982 -168.434224 
L 222.670126 -168.434224 
L 221.43527 -168.434224 
L 220.200413 -168.434224 
L 218.965557 -168.434224 
L 217.730701 -168.434224 
L 216.495845 -168.434224 
L 215.260989 -168.434224 
L 214.026133 -168.434224 
L 212.791277 -168.434224 
L 211.556421 -168.434224 
L 210.321565 -168.434224 
L 209.086709 -168.434224 
L 207.851852 -168.434224 
L 206.616996 -168.434224 
L 205.38214 -168.434224 
L 204.147284 -168.434224 
L 202.912428 -168.434224 
L 201.677572 -168.434224 
L 200.442716 -168.434224 
L 199.20786 -168.434224 
L 197.973004 -168.434224 
L 196.738148 -168.434224 
L 195.503291 -168.434224 
L 194.268435 -168.434224 
L 193.033579 -168.434224 
L 191.798723 -168.434224 
L 190.563867 -168.434224 
L 189.329011 -168.434224 
L 188.094155 -168.434224 
L 186.859299 -168.434224 
L 185.624443 -168.434224 
L 184.389587 -168.434224 
L 183.15473 -168.434224 
L 181.919874 -168.434224 
L 180.685018 -168.434224 
L 179.450162 -168.434224 
L 178.215306 -168.434224 
L 176.98045 -168.434224 
L 175.745594 -168.434224 
L 174.510738 -168.434224 
L 173.275882 -168.434224 
L 172.041026 -168.434224 
L 170.806169 -168.434224 
L 169.571313 -168.434224 
L 168.336457 -168.434224 
L 167.101601 -168.434224 
L 165.866745 -168.434224 
L 164.631889 -168.434224 
L 163.397033 -168.434224 
L 162.162177 -168.434224 
L 160.927321 -168.434224 
L 159.692465 -168.434224 
L 158.457608 -168.434224 
L 157.222752 -168.434224 
L 155.987896 -168.434224 
L 154.75304 -168.434224 
L 153.518184 -168.434224 
L 152.283328 -168.434224 
L 151.048472 -168.434224 
L 149.813616 -168.434224 
L 148.57876 -168.434224 
L 147.343904 -168.434224 
L 146.109048 -168.434224 
L 144.874191 -168.434224 
L 143.639335 -168.434224 
L 142.404479 -168.434224 
L 141.169623 -168.434224 
L 139.934767 -168.434224 
L 138.699911 -168.434224 
L 137.465055 -168.434224 
L 136.230199 -158.593179 
L 134.995343 -158.593179 
L 133.760487 -154.360472 
L 132.52563 -154.360472 
L 131.290774 -155.312831 
L 130.055918 -154.043019 
L 128.821062 -154.043019 
L 127.586206 -154.043019 
L 126.35135 -154.043019 
L 125.116494 -154.043019 
L 123.881638 -154.043019 
L 122.646782 -154.043019 
L 121.411926 -154.043019 
L 120.177069 -154.043019 
L 118.942213 -145.78924 
L 117.707357 -145.78924 
L 116.472501 -145.78924 
L 115.237645 -145.78924 
L 114.002789 -145.78924 
L 112.767933 -145.78924 
L 111.533077 -145.78924 
L 110.298221 -145.78924 
L 109.063365 -145.78924 
L 107.828508 -145.78924 
L 106.593652 -145.78924 
L 105.358796 -145.78924 
L 104.12394 -145.78924 
L 102.889084 -145.78924 
L 101.654228 -145.78924 
L 100.419372 -133.514388 
L 99.184516 -131.450944 
L 97.94966 -126.107151 
L 96.714804 -126.107151 
L 95.479947 -126.107151 
L 94.245091 -126.107151 
L 93.010235 -126.107151 
L 91.775379 -123.355891 
L 90.540523 -123.355891 
L 89.305667 -114.25557 
L 88.070811 -105.790156 
L 86.835955 -103.038896 
L 85.601099 -100.102455 
L 84.366243 -95.525841 
L 83.131386 -86.160976 
L 81.89653 -79.78546 
L 80.661674 -72.087224 
L 79.426818 -66.769885 
z
" style="stroke: #55a868; stroke-opacity: 0.2"/>
    </defs>
    <g clip-path="url(#p5d4c7f61b1)">
     <use xlink:href="#m2a29e5aebe" x="0" y="360" style="fill: #55a868; fill-opacity: 0.2; stroke: #55a868; stroke-opacity: 0.2"/>
    </g>
   </g>
   <g id="PolyCollection_4">
    <defs>
     <path id="m269b9fd60f" d="M 79.426818 -66.214343 
L 79.426818 -61.77 
L 80.661674 -63.754082 
L 81.89653 -64.891622 
L 83.131386 -66.769885 
L 84.366243 -66.082071 
L 85.601099 -66.293706 
L 86.835955 -67.563518 
L 88.070811 -70.738049 
L 89.305667 -71.796225 
L 90.540523 -76.240568 
L 91.775379 -77.563289 
L 93.010235 -78.356922 
L 94.245091 -78.304013 
L 95.479947 -80.49973 
L 96.714804 -80.73782 
L 97.94966 -81.293362 
L 99.184516 -83.568443 
L 100.419372 -87.695332 
L 101.654228 -93.435941 
L 102.889084 -91.610586 
L 104.12394 -84.732437 
L 105.358796 -84.732437 
L 106.593652 -79.018282 
L 107.828508 -83.780078 
L 109.063365 -82.510266 
L 110.298221 -90.102684 
L 111.533077 -86.557792 
L 112.767933 -88.753509 
L 114.002789 -87.695332 
L 115.237645 -85.711251 
L 116.472501 -85.975795 
L 117.707357 -89.388415 
L 118.942213 -83.885896 
L 120.177069 -90.684682 
L 121.411926 -89.150325 
L 122.646782 -89.388415 
L 123.881638 -93.753394 
L 125.116494 -90.949226 
L 126.35135 -93.330124 
L 127.586206 -94.044393 
L 128.821062 -89.203234 
L 130.055918 -88.594782 
L 131.290774 -87.377879 
L 132.52563 -97.298287 
L 133.760487 -88.93869 
L 134.995343 -95.869748 
L 136.230199 -93.435941 
L 137.465055 -94.044393 
L 138.699911 -94.044393 
L 139.934767 -93.674031 
L 141.169623 -94.044393 
L 142.404479 -87.192698 
L 143.639335 -82.986445 
L 144.874191 -87.642423 
L 146.109048 -91.716404 
L 147.343904 -85.711251 
L 148.57876 -88.647691 
L 149.813616 -89.044508 
L 151.048472 -95.076115 
L 152.283328 -93.25076 
L 153.518184 -95.314205 
L 154.75304 -88.674146 
L 155.987896 -95.975566 
L 157.222752 -96.134292 
L 158.457608 -96.266564 
L 159.692465 -98.2771 
L 160.927321 -99.017824 
L 162.162177 -99.017824 
L 163.397033 -99.017824 
L 164.631889 -99.017824 
L 165.866745 -98.462281 
L 167.101601 -94.785117 
L 168.336457 -99.970183 
L 169.571313 -100.763816 
L 170.806169 -93.409487 
L 172.041026 -98.832643 
L 173.275882 -96.107838 
L 174.510738 -98.039011 
L 175.745594 -83.171626 
L 176.98045 -88.012785 
L 178.215306 -88.012785 
L 179.450162 -90.367229 
L 180.685018 -83.885896 
L 181.919874 -94.308937 
L 183.15473 -88.568328 
L 184.389587 -90.023321 
L 185.624443 -96.663381 
L 186.859299 -96.980834 
L 188.094155 -110.631315 
L 189.329011 -110.869404 
L 190.563867 -111.398493 
L 191.798723 -111.398493 
L 193.033579 -109.917045 
L 194.268435 -109.387957 
L 195.503291 -109.811228 
L 196.738148 -105.287522 
L 197.973004 -107.350967 
L 199.20786 -110.631315 
L 200.442716 -111.398493 
L 201.677572 -111.398493 
L 202.912428 -111.398493 
L 204.147284 -111.398493 
L 205.38214 -111.398493 
L 206.616996 -111.398493 
L 207.851852 -109.811228 
L 209.086709 -92.853944 
L 210.321565 -109.46732 
L 211.556421 -107.774237 
L 212.791277 -106.610243 
L 214.026133 -107.985873 
L 215.260989 -109.917045 
L 216.495845 -109.811228 
L 217.730701 -111.398493 
L 218.965557 -111.398493 
L 220.200413 -111.398493 
L 221.43527 -111.398493 
L 222.670126 -111.398493 
L 223.904982 -109.917045 
L 225.139838 -109.917045 
L 226.374694 -111.398493 
L 227.60955 -111.398493 
L 228.844406 -111.398493 
L 230.079262 -111.398493 
L 231.314118 -111.398493 
L 232.548974 -111.398493 
L 233.783831 -111.398493 
L 235.018687 -111.398493 
L 236.253543 -111.398493 
L 237.488399 -111.398493 
L 238.723255 -111.398493 
L 239.958111 -111.398493 
L 241.192967 -111.398493 
L 242.427823 -111.398493 
L 243.662679 -111.398493 
L 244.897535 -111.398493 
L 246.132392 -111.398493 
L 247.367248 -111.398493 
L 248.602104 -111.398493 
L 249.83696 -111.398493 
L 251.071816 -111.398493 
L 252.306672 -111.398493 
L 253.541528 -111.398493 
L 254.776384 -111.398493 
L 256.01124 -111.398493 
L 257.246096 -111.398493 
L 258.480952 -111.398493 
L 259.715809 -111.398493 
L 260.950665 -111.398493 
L 262.185521 -111.398493 
L 263.420377 -111.398493 
L 264.655233 -111.398493 
L 265.890089 -111.398493 
L 267.124945 -111.398493 
L 268.359801 -111.398493 
L 269.594657 -111.398493 
L 270.829513 -111.398493 
L 272.06437 -111.398493 
L 273.299226 -111.398493 
L 274.534082 -111.398493 
L 275.768938 -111.398493 
L 277.003794 -111.398493 
L 278.23865 -111.398493 
L 279.473506 -111.398493 
L 280.708362 -111.398493 
L 281.943218 -111.398493 
L 283.178074 -111.398493 
L 284.412931 -111.398493 
L 285.647787 -111.398493 
L 286.882643 -111.398493 
L 288.117499 -111.398493 
L 289.352355 -111.398493 
L 290.587211 -111.398493 
L 291.822067 -112.827032 
L 293.056923 -111.398493 
L 294.291779 -111.398493 
L 295.526635 -111.398493 
L 296.761492 -111.398493 
L 297.996348 -111.398493 
L 299.231204 -118.779276 
L 300.46606 -111.398493 
L 301.700916 -111.398493 
L 302.935772 -111.398493 
L 304.170628 -111.398493 
L 305.405484 -111.398493 
L 306.64034 -111.398493 
L 307.875196 -111.398493 
L 309.110053 -111.398493 
L 310.344909 -111.398493 
L 311.579765 -111.398493 
L 312.814621 -111.398493 
L 314.049477 -111.398493 
L 315.284333 -111.398493 
L 316.519189 -111.398493 
L 317.754045 -113.223848 
L 318.988901 -111.398493 
L 320.223757 -111.398493 
L 321.458614 -111.398493 
L 322.69347 -111.398493 
L 323.928326 -111.398493 
L 325.163182 -111.398493 
L 325.163182 -259.860701 
L 325.163182 -259.860701 
L 323.928326 -259.781338 
L 322.69347 -259.754883 
L 321.458614 -258.908342 
L 320.223757 -259.754883 
L 318.988901 -258.908342 
L 317.754045 -259.754883 
L 316.519189 -259.754883 
L 315.284333 -259.781338 
L 314.049477 -259.754883 
L 312.814621 -259.754883 
L 311.579765 -259.754883 
L 310.344909 -259.781338 
L 309.110053 -259.860701 
L 307.875196 -259.781338 
L 306.64034 -259.860701 
L 305.405484 -259.754883 
L 304.170628 -258.908342 
L 302.935772 -258.908342 
L 301.700916 -259.119977 
L 300.46606 -258.908342 
L 299.231204 -259.860701 
L 297.996348 -259.754883 
L 296.761492 -259.119977 
L 295.526635 -258.908342 
L 294.291779 -258.908342 
L 293.056923 -258.908342 
L 291.822067 -258.908342 
L 290.587211 -243.353142 
L 289.352355 -243.353142 
L 288.117499 -242.718236 
L 286.882643 -242.718236 
L 285.647787 -242.718236 
L 284.412931 -242.506601 
L 283.178074 -243.353142 
L 281.943218 -236.871809 
L 280.708362 -243.353142 
L 279.473506 -234.993546 
L 278.23865 -229.385208 
L 277.003794 -232.877192 
L 275.768938 -220.41716 
L 274.534082 -229.385208 
L 273.299226 -229.385208 
L 272.06437 -243.353142 
L 270.829513 -243.353142 
L 269.594657 -243.353142 
L 268.359801 -243.353142 
L 267.124945 -243.353142 
L 265.890089 -243.353142 
L 264.655233 -243.353142 
L 263.420377 -243.353142 
L 262.185521 -243.353142 
L 260.950665 -201.237705 
L 259.715809 -201.237705 
L 258.480952 -201.237705 
L 257.246096 -201.237705 
L 256.01124 -201.237705 
L 254.776384 -204.729689 
L 253.541528 -201.237705 
L 252.306672 -201.237705 
L 251.071816 -201.237705 
L 249.83696 -201.237705 
L 248.602104 -201.237705 
L 247.367248 -201.237705 
L 246.132392 -201.237705 
L 244.897535 -201.237705 
L 243.662679 -201.237705 
L 242.427823 -201.237705 
L 241.192967 -201.237705 
L 239.958111 -201.237705 
L 238.723255 -201.237705 
L 237.488399 -201.237705 
L 236.253543 -201.237705 
L 235.018687 -189.59776 
L 233.783831 -189.59776 
L 232.548974 -189.59776 
L 231.314118 -189.59776 
L 230.079262 -189.59776 
L 228.844406 -192.507746 
L 227.60955 -171.291301 
L 226.374694 -159.862991 
L 225.139838 -145.154333 
L 223.904982 -145.154333 
L 222.670126 -145.154333 
L 221.43527 -145.154333 
L 220.200413 -145.154333 
L 218.965557 -145.154333 
L 217.730701 -145.154333 
L 216.495845 -145.154333 
L 215.260989 -145.154333 
L 214.026133 -145.154333 
L 212.791277 -145.154333 
L 211.556421 -145.154333 
L 210.321565 -145.154333 
L 209.086709 -145.154333 
L 207.851852 -145.154333 
L 206.616996 -145.154333 
L 205.38214 -145.154333 
L 204.147284 -145.154333 
L 202.912428 -135.842377 
L 201.677572 -145.154333 
L 200.442716 -145.154333 
L 199.20786 -135.842377 
L 197.973004 -145.154333 
L 196.738148 -135.842377 
L 195.503291 -135.842377 
L 194.268435 -145.154333 
L 193.033579 -145.154333 
L 191.798723 -145.154333 
L 190.563867 -145.154333 
L 189.329011 -145.154333 
L 188.094155 -145.154333 
L 186.859299 -145.154333 
L 185.624443 -145.154333 
L 184.389587 -145.154333 
L 183.15473 -145.154333 
L 181.919874 -145.154333 
L 180.685018 -136.900554 
L 179.450162 -135.842377 
L 178.215306 -135.842377 
L 176.98045 -135.842377 
L 175.745594 -135.842377 
L 174.510738 -135.842377 
L 173.275882 -135.842377 
L 172.041026 -135.842377 
L 170.806169 -135.842377 
L 169.571313 -135.842377 
L 168.336457 -135.842377 
L 167.101601 -135.842377 
L 165.866745 -135.842377 
L 164.631889 -135.842377 
L 163.397033 -135.842377 
L 162.162177 -135.842377 
L 160.927321 -135.842377 
L 159.692465 -135.842377 
L 158.457608 -135.842377 
L 157.222752 -135.842377 
L 155.987896 -135.842377 
L 154.75304 -135.842377 
L 153.518184 -128.43514 
L 152.283328 -128.43514 
L 151.048472 -128.43514 
L 149.813616 -128.43514 
L 148.57876 -128.43514 
L 147.343904 -128.43514 
L 146.109048 -135.842377 
L 144.874191 -135.842377 
L 143.639335 -135.842377 
L 142.404479 -128.43514 
L 141.169623 -128.43514 
L 139.934767 -128.43514 
L 138.699911 -128.43514 
L 137.465055 -128.43514 
L 136.230199 -135.842377 
L 134.995343 -128.43514 
L 133.760487 -128.43514 
L 132.52563 -128.43514 
L 131.290774 -128.43514 
L 130.055918 -128.43514 
L 128.821062 -128.43514 
L 127.586206 -128.43514 
L 126.35135 -128.43514 
L 125.116494 -128.43514 
L 123.881638 -128.43514 
L 122.646782 -128.43514 
L 121.411926 -128.43514 
L 120.177069 -128.43514 
L 118.942213 -128.43514 
L 117.707357 -128.43514 
L 116.472501 -128.43514 
L 115.237645 -128.43514 
L 114.002789 -128.43514 
L 112.767933 -128.43514 
L 111.533077 -116.080925 
L 110.298221 -114.996294 
L 109.063365 -114.996294 
L 107.828508 -114.996294 
L 106.593652 -114.996294 
L 105.358796 -114.996294 
L 104.12394 -114.996294 
L 102.889084 -114.996294 
L 101.654228 -114.996294 
L 100.419372 -114.996294 
L 99.184516 -114.996294 
L 97.94966 -114.996294 
L 96.714804 -114.996294 
L 95.479947 -114.996294 
L 94.245091 -114.996294 
L 93.010235 -114.996294 
L 91.775379 -114.996294 
L 90.540523 -114.996294 
L 89.305667 -113.938117 
L 88.070811 -102.933078 
L 86.835955 -102.774352 
L 85.601099 -102.721443 
L 84.366243 -90.869863 
L 83.131386 -87.245607 
L 81.89653 -80.711365 
L 80.661674 -73.991942 
L 79.426818 -66.214343 
z
" style="stroke: #c44e52; stroke-opacity: 0.2"/>
    </defs>
    <g clip-path="url(#p5d4c7f61b1)">
     <use xlink:href="#m269b9fd60f" x="0" y="360" style="fill: #c44e52; fill-opacity: 0.2; stroke: #c44e52; stroke-opacity: 0.2"/>
    </g>
   </g>
   <g id="line2d_11">
    <path d="M 79.426818 296.113646 
L 80.661674 294.10311 
L 81.89653 292.410027 
L 83.131386 289.288406 
L 84.366243 283.521342 
L 85.601099 282.939345 
L 86.835955 269.817952 
L 88.070811 266.484695 
L 89.305667 261.140902 
L 90.540523 251.246949 
L 278.23865 251.246949 
L 279.473506 247.172968 
L 280.708362 251.246949 
L 300.46606 251.246949 
L 301.700916 244.686253 
L 302.935772 251.246949 
L 304.170628 251.246949 
L 305.405484 241.882084 
L 306.64034 251.246949 
L 307.875196 251.246949 
L 309.110053 249.871319 
L 310.344909 251.246949 
L 316.519189 251.246949 
L 317.754045 239.607004 
L 318.988901 251.246949 
L 320.223757 249.606775 
L 321.458614 251.19404 
L 325.163182 251.246949 
L 325.163182 251.246949 
" clip-path="url(#p5d4c7f61b1)" style="fill: none; stroke: #4c72b0; stroke-width: 1.5; stroke-linecap: round"/>
   </g>
   <g id="line2d_12">
    <path d="M 79.426818 296.113646 
L 80.661674 292.939116 
L 81.89653 285.955149 
L 83.131386 281.722442 
L 84.366243 280.452629 
L 85.601099 279.50027 
L 86.835955 278.971182 
L 91.775379 278.865364 
L 93.010235 275.214654 
L 94.245091 274.738475 
L 95.479947 278.547911 
L 96.714804 276.008287 
L 97.94966 273.045392 
L 99.184516 272.622121 
L 100.419372 272.833756 
L 101.654228 273.997751 
L 102.889084 272.833756 
L 104.12394 272.357577 
L 105.358796 272.093033 
L 106.593652 272.093033 
L 107.828508 272.833756 
L 109.063365 272.093033 
L 110.298221 272.622121 
L 115.237645 272.622121 
L 116.472501 271.934306 
L 117.707357 272.67503 
L 118.942213 267.966143 
L 120.177069 271.987215 
L 121.411926 272.622121 
L 122.646782 272.67503 
L 123.881638 272.093033 
L 125.116494 264.791612 
L 126.35135 264.262524 
L 127.586206 264.791612 
L 128.821062 264.262524 
L 130.055918 267.17251 
L 131.290774 264.262524 
L 133.760487 264.262524 
L 134.995343 263.627618 
L 136.230199 264.262524 
L 137.465055 264.527068 
L 138.699911 263.945071 
L 141.169623 263.945071 
L 142.404479 264.262524 
L 143.639335 264.791612 
L 144.874191 264.262524 
L 146.109048 264.262524 
L 147.343904 264.527068 
L 148.57876 264.262524 
L 151.048472 264.262524 
L 152.283328 263.627618 
L 153.518184 271.669762 
L 154.75304 264.262524 
L 155.987896 264.262524 
L 157.222752 263.627618 
L 158.457608 263.945071 
L 159.692465 264.527068 
L 160.927321 263.627618 
L 162.162177 264.262524 
L 163.397033 264.262524 
L 165.866745 263.627618 
L 167.101601 263.945071 
L 168.336457 263.945071 
L 169.571313 270.611585 
L 170.806169 267.384146 
L 172.041026 263.627618 
L 173.275882 263.310165 
L 174.510738 262.251988 
L 175.745594 262.251988 
L 176.98045 263.310165 
L 178.215306 263.310165 
L 179.450162 261.511264 
L 183.15473 261.511264 
L 184.389587 271.669762 
L 185.624443 261.511264 
L 190.563867 261.511264 
L 191.798723 260.770541 
L 193.033579 261.140902 
L 194.268435 261.881626 
L 195.503291 260.717632 
L 196.738148 260.717632 
L 197.973004 259.923999 
L 200.442716 259.183275 
L 201.677572 260.135634 
L 202.912428 260.505996 
L 204.147284 258.812913 
L 205.38214 258.442552 
L 206.616996 258.442552 
L 207.851852 258.812913 
L 209.086709 258.442552 
L 210.321565 261.035085 
L 211.556421 260.770541 
L 214.026133 260.770541 
L 216.495845 259.183275 
L 218.965557 258.442552 
L 220.200413 262.093262 
L 221.43527 257.59601 
L 223.904982 258.442552 
L 227.60955 258.442552 
L 230.079262 257.59601 
L 231.314118 258.019281 
L 232.548974 259.606546 
L 233.783831 259.606546 
L 235.018687 258.812913 
L 236.253543 270.929038 
L 237.488399 259.183275 
L 239.958111 258.442552 
L 241.192967 259.606546 
L 242.427823 260.400179 
L 243.662679 258.442552 
L 244.897535 258.442552 
L 246.132392 257.59601 
L 248.602104 257.59601 
L 249.83696 258.812913 
L 251.071816 258.442552 
L 252.306672 259.183275 
L 253.541528 259.183275 
L 254.776384 258.019281 
L 256.01124 257.59601 
L 257.246096 258.442552 
L 258.480952 258.442552 
L 259.715809 257.59601 
L 260.950665 258.442552 
L 262.185521 257.59601 
L 263.420377 258.019281 
L 264.655233 257.59601 
L 265.890089 270.452858 
L 267.124945 258.442552 
L 268.359801 257.59601 
L 272.06437 257.59601 
L 273.299226 258.442552 
L 275.768938 258.442552 
L 277.003794 259.183275 
L 278.23865 257.59601 
L 279.473506 258.389643 
L 280.708362 270.505767 
L 281.943218 257.225648 
L 283.178074 256.855286 
L 284.412931 257.225648 
L 285.647787 256.379107 
L 286.882643 256.855286 
L 288.117499 258.442552 
L 289.352355 256.379107 
L 290.587211 258.442552 
L 291.822067 256.855286 
L 293.056923 256.855286 
L 294.291779 258.442552 
L 295.526635 256.855286 
L 296.761492 258.019281 
L 297.996348 263.627618 
L 299.231204 257.59601 
L 301.700916 257.59601 
L 302.935772 270.505767 
L 304.170628 269.130137 
L 305.405484 257.59601 
L 306.64034 266.431787 
L 307.875196 266.008516 
L 309.110053 257.648919 
L 310.344909 256.855286 
L 312.814621 256.855286 
L 314.049477 258.019281 
L 315.284333 257.59601 
L 316.519189 256.855286 
L 317.754045 256.855286 
L 318.988901 262.463623 
L 320.223757 257.59601 
L 321.458614 269.235955 
L 322.69347 256.855286 
L 323.928326 257.59601 
L 325.163182 256.855286 
L 325.163182 256.855286 
" clip-path="url(#p5d4c7f61b1)" style="fill: none; stroke: #dd8452; stroke-width: 1.5; stroke-linecap: round"/>
   </g>
   <g id="line2d_13">
    <path d="M 79.426818 296.219464 
L 80.661674 294.367655 
L 81.89653 289.658768 
L 83.131386 289.235497 
L 84.366243 283.732978 
L 85.601099 283.256798 
L 86.835955 279.606088 
L 88.070811 270.082497 
L 89.305667 267.225419 
L 90.540523 266.484695 
L 91.775379 263.680527 
L 94.245091 255.32093 
L 95.479947 254.42148 
L 96.714804 251.141131 
L 97.94966 248.495689 
L 99.184516 246.64388 
L 100.419372 248.495689 
L 101.654228 243.733894 
L 107.828508 243.733894 
L 109.063365 241.934993 
L 112.767933 241.934993 
L 114.002789 243.733894 
L 117.707357 243.733894 
L 118.942213 241.934993 
L 120.177069 236.855744 
L 121.411926 242.834443 
L 122.646782 241.934993 
L 123.881638 242.834443 
L 125.116494 230.718319 
L 126.35135 242.781535 
L 127.586206 243.733894 
L 128.821062 240.189001 
L 130.055918 240.189001 
L 131.290774 221.406363 
L 132.52563 224.686711 
L 133.760487 221.406363 
L 138.699911 221.406363 
L 139.934767 222.781993 
L 141.169623 214.21076 
L 144.874191 214.21076 
L 146.109048 210.083871 
L 147.343904 214.21076 
L 148.57876 210.083871 
L 149.813616 214.21076 
L 151.048472 214.21076 
L 152.283328 205.956981 
L 153.518184 210.083871 
L 154.75304 205.956981 
L 155.987896 214.21076 
L 157.222752 210.083871 
L 158.457608 214.21076 
L 159.692465 214.21076 
L 160.927321 207.015158 
L 162.162177 214.21076 
L 163.397033 214.21076 
L 164.631889 205.956981 
L 191.798723 205.956981 
L 193.033579 192.412318 
L 317.754045 192.412318 
L 318.988901 191.565776 
L 325.163182 191.565776 
L 325.163182 191.565776 
" clip-path="url(#p5d4c7f61b1)" style="fill: none; stroke: #55a868; stroke-width: 1.5; stroke-linecap: round"/>
   </g>
   <g id="line2d_14">
    <path d="M 79.426818 296.113646 
L 80.661674 294.473472 
L 81.89653 288.494773 
L 83.131386 285.00279 
L 84.366243 286.484237 
L 85.601099 283.256798 
L 86.835955 278.389185 
L 88.070811 272.357577 
L 89.305667 271.140673 
L 90.540523 261.193811 
L 91.775379 265.955607 
L 93.010235 258.548369 
L 94.245091 257.278557 
L 100.419372 257.278557 
L 101.654228 257.066922 
L 102.889084 257.066922 
L 104.12394 257.278557 
L 111.533077 257.278557 
L 112.767933 257.066922 
L 115.237645 255.585474 
L 116.472501 251.987673 
L 117.707357 246.061883 
L 118.942213 245.162432 
L 120.177069 246.061883 
L 121.411926 245.162432 
L 122.646782 246.061883 
L 123.881638 245.003706 
L 125.116494 246.061883 
L 126.35135 246.855515 
L 127.586206 246.061883 
L 128.821062 246.061883 
L 130.055918 255.585474 
L 131.290774 246.061883 
L 133.760487 246.061883 
L 134.995343 245.003706 
L 136.230199 246.061883 
L 138.699911 246.061883 
L 139.934767 247.649148 
L 141.169623 253.786574 
L 142.404479 254.368571 
L 143.639335 246.061883 
L 144.874191 253.839482 
L 146.109048 247.649148 
L 147.343904 255.585474 
L 148.57876 255.585474 
L 149.813616 252.040582 
L 151.048472 246.061883 
L 152.283328 246.061883 
L 153.518184 246.220609 
L 154.75304 246.855515 
L 155.987896 247.014242 
L 157.222752 246.855515 
L 159.692465 245.321159 
L 160.927321 245.003706 
L 163.397033 247.649148 
L 164.631889 250.030046 
L 165.866745 248.125328 
L 167.101601 245.321159 
L 169.571313 245.321159 
L 172.041026 247.649148 
L 174.510738 247.649148 
L 175.745594 248.601507 
L 176.98045 248.601507 
L 178.215306 247.649148 
L 179.450162 247.649148 
L 180.685018 247.172968 
L 181.919874 244.844979 
L 183.15473 246.061883 
L 184.389587 242.569899 
L 186.859299 242.569899 
L 188.094155 235.850476 
L 189.329011 235.850476 
L 190.563867 238.125557 
L 191.798723 234.739391 
L 193.033579 233.575396 
L 195.503291 242.569899 
L 196.738148 242.887352 
L 197.973004 235.374297 
L 199.20786 237.649377 
L 200.442716 233.575396 
L 201.677572 238.601736 
L 202.912428 242.569899 
L 204.147284 240.347728 
L 205.38214 237.649377 
L 206.616996 242.569899 
L 210.321565 242.569899 
L 211.556421 241.987902 
L 212.791277 242.569899 
L 214.026133 244.3688 
L 215.260989 242.569899 
L 216.495845 241.405905 
L 217.730701 241.247178 
L 218.965557 240.030275 
L 220.200413 240.030275 
L 221.43527 239.077916 
L 222.670126 237.173197 
L 223.904982 242.569899 
L 225.139838 240.400637 
L 226.374694 237.173197 
L 227.60955 233.575396 
L 228.844406 214.845667 
L 247.367248 214.845667 
L 248.602104 204.263898 
L 249.83696 204.263898 
L 251.071816 214.845667 
L 253.541528 214.845667 
L 254.776384 204.263898 
L 256.01124 218.020197 
L 257.246096 214.845667 
L 258.480952 214.845667 
L 259.715809 204.263898 
L 260.950665 214.21076 
L 262.185521 214.21076 
L 263.420377 217.914379 
L 264.655233 204.263898 
L 265.890089 213.575854 
L 267.124945 204.263898 
L 268.359801 204.263898 
L 269.594657 208.919876 
L 270.829513 214.21076 
L 272.06437 204.263898 
L 273.299226 204.263898 
L 274.534082 206.90934 
L 275.768938 204.263898 
L 286.882643 204.263898 
L 288.117499 211.565318 
L 289.352355 204.263898 
L 290.587211 208.919876 
L 291.822067 204.263898 
L 317.754045 204.263898 
L 318.988901 208.919876 
L 320.223757 204.263898 
L 325.163182 204.263898 
L 325.163182 204.263898 
" clip-path="url(#p5d4c7f61b1)" style="fill: none; stroke: #c44e52; stroke-width: 1.5; stroke-linecap: round"/>
   </g>
   <g id="line2d_15"/>
   <g id="line2d_16"/>
   <g id="line2d_17"/>
   <g id="line2d_18"/>
   <g id="patch_3">
    <path d="M 67.14 309.78 
L 67.14 55.68 
" style="fill: none; stroke: #ffffff; stroke-width: 1.25; stroke-linejoin: miter; stroke-linecap: square"/>
   </g>
   <g id="patch_4">
    <path d="M 337.45 309.78 
L 337.45 55.68 
" style="fill: none; stroke: #ffffff; stroke-width: 1.25; stroke-linejoin: miter; stroke-linecap: square"/>
   </g>
   <g id="patch_5">
    <path d="M 67.14 309.78 
L 337.45 309.78 
" style="fill: none; stroke: #ffffff; stroke-width: 1.25; stroke-linejoin: miter; stroke-linecap: square"/>
   </g>
   <g id="patch_6">
    <path d="M 67.14 55.68 
L 337.45 55.68 
" style="fill: none; stroke: #ffffff; stroke-width: 1.25; stroke-linejoin: miter; stroke-linecap: square"/>
   </g>
   <g id="text_13">
    <!-- Median By Generation -->
    <g style="fill: #262626" transform="translate(135.517812 49.68)scale(0.12 -0.12)">
     <defs>
      <path id="DejaVuSans-4d" d="M 628 4666 
L 1569 4666 
L 2759 1491 
L 3956 4666 
L 4897 4666 
L 4897 0 
L 4281 0 
L 4281 4097 
L 3078 897 
L 2444 897 
L 1241 4097 
L 1241 0 
L 628 0 
L 628 4666 
z
" transform="scale(0.015625)"/>
      <path id="DejaVuSans-64" d="M 2906 2969 
L 2906 4863 
L 3481 4863 
L 3481 0 
L 2906 0 
L 2906 525 
Q 2725 213 2448 61 
Q 2172 -91 1784 -91 
Q 1150 -91 751 415 
Q 353 922 353 1747 
Q 353 2572 751 3078 
Q 1150 3584 1784 3584 
Q 2172 3584 2448 3432 
Q 2725 3281 2906 2969 
z
M 947 1747 
Q 947 1113 1208 752 
Q 1469 391 1925 391 
Q 2381 391 2643 752 
Q 2906 1113 2906 1747 
Q 2906 2381 2643 2742 
Q 2381 3103 1925 3103 
Q 1469 3103 1208 2742 
Q 947 2381 947 1747 
z
" transform="scale(0.015625)"/>
      <path id="DejaVuSans-20" transform="scale(0.015625)"/>
      <path id="DejaVuSans-42" d="M 1259 2228 
L 1259 519 
L 2272 519 
Q 2781 519 3026 730 
Q 3272 941 3272 1375 
Q 3272 1813 3026 2020 
Q 2781 2228 2272 2228 
L 1259 2228 
z
M 1259 4147 
L 1259 2741 
L 2194 2741 
Q 2656 2741 2882 2914 
Q 3109 3088 3109 3444 
Q 3109 3797 2882 3972 
Q 2656 4147 2194 4147 
L 1259 4147 
z
M 628 4666 
L 2241 4666 
Q 2963 4666 3353 4366 
Q 3744 4066 3744 3513 
Q 3744 3084 3544 2831 
Q 3344 2578 2956 2516 
Q 3422 2416 3680 2098 
Q 3938 1781 3938 1306 
Q 3938 681 3513 340 
Q 3088 0 2303 0 
L 628 0 
L 628 4666 
z
" transform="scale(0.015625)"/>
      <path id="DejaVuSans-79" d="M 2059 -325 
Q 1816 -950 1584 -1140 
Q 1353 -1331 966 -1331 
L 506 -1331 
L 506 -850 
L 844 -850 
Q 1081 -850 1212 -737 
Q 1344 -625 1503 -206 
L 1606 56 
L 191 3500 
L 800 3500 
L 1894 763 
L 2988 3500 
L 3597 3500 
L 2059 -325 
z
" transform="scale(0.015625)"/>
     </defs>
     <use xlink:href="#DejaVuSans-4d"/>
     <use xlink:href="#DejaVuSans-65" x="86.279297"/>
     <use xlink:href="#DejaVuSans-64" x="147.802734"/>
     <use xlink:href="#DejaVuSans-69" x="211.279297"/>
     <use xlink:href="#DejaVuSans-61" x="239.0625"/>
     <use xlink:href="#DejaVuSans-6e" x="300.341797"/>
     <use xlink:href="#DejaVuSans-20" x="363.720703"/>
     <use xlink:href="#DejaVuSans-42" x="395.507812"/>
     <use xlink:href="#DejaVuSans-79" x="464.111328"/>
     <use xlink:href="#DejaVuSans-20" x="523.291016"/>
     <use xlink:href="#DejaVuSans-47" x="555.078125"/>
     <use xlink:href="#DejaVuSans-65" x="632.568359"/>
     <use xlink:href="#DejaVuSans-6e" x="694.091797"/>
     <use xlink:href="#DejaVuSans-65" x="757.470703"/>
     <use xlink:href="#DejaVuSans-72" x="818.994141"/>
     <use xlink:href="#DejaVuSans-61" x="860.107422"/>
     <use xlink:href="#DejaVuSans-74" x="921.386719"/>
     <use xlink:href="#DejaVuSans-69" x="960.595703"/>
     <use xlink:href="#DejaVuSans-6f" x="988.378906"/>
     <use xlink:href="#DejaVuSans-6e" x="1049.560547"/>
    </g>
   </g>
   <g id="legend_1">
    <g id="text_14">
     <!-- GenomeConfig -->
     <g style="fill: #262626" transform="translate(383.545078 153.749375)scale(0.12 -0.12)">
      <defs>
       <path id="DejaVuSans-6d" d="M 3328 2828 
Q 3544 3216 3844 3400 
Q 4144 3584 4550 3584 
Q 5097 3584 5394 3201 
Q 5691 2819 5691 2113 
L 5691 0 
L 5113 0 
L 5113 2094 
Q 5113 2597 4934 2840 
Q 4756 3084 4391 3084 
Q 3944 3084 3684 2787 
Q 3425 2491 3425 1978 
L 3425 0 
L 2847 0 
L 2847 2094 
Q 2847 2600 2669 2842 
Q 2491 3084 2119 3084 
Q 1678 3084 1418 2786 
Q 1159 2488 1159 1978 
L 1159 0 
L 581 0 
L 581 3500 
L 1159 3500 
L 1159 2956 
Q 1356 3278 1631 3431 
Q 1906 3584 2284 3584 
Q 2666 3584 2933 3390 
Q 3200 3197 3328 2828 
z
" transform="scale(0.015625)"/>
       <path id="DejaVuSans-43" d="M 4122 4306 
L 4122 3641 
Q 3803 3938 3442 4084 
Q 3081 4231 2675 4231 
Q 1875 4231 1450 3742 
Q 1025 3253 1025 2328 
Q 1025 1406 1450 917 
Q 1875 428 2675 428 
Q 3081 428 3442 575 
Q 3803 722 4122 1019 
L 4122 359 
Q 3791 134 3420 21 
Q 3050 -91 2638 -91 
Q 1578 -91 968 557 
Q 359 1206 359 2328 
Q 359 3453 968 4101 
Q 1578 4750 2638 4750 
Q 3056 4750 3426 4639 
Q 3797 4528 4122 4306 
z
" transform="scale(0.015625)"/>
       <path id="DejaVuSans-66" d="M 2375 4863 
L 2375 4384 
L 1825 4384 
Q 1516 4384 1395 4259 
Q 1275 4134 1275 3809 
L 1275 3500 
L 2222 3500 
L 2222 3053 
L 1275 3053 
L 1275 0 
L 697 0 
L 697 3053 
L 147 3053 
L 147 3500 
L 697 3500 
L 697 3744 
Q 697 4328 969 4595 
Q 1241 4863 1831 4863 
L 2375 4863 
z
" transform="scale(0.015625)"/>
       <path id="DejaVuSans-67" d="M 2906 1791 
Q 2906 2416 2648 2759 
Q 2391 3103 1925 3103 
Q 1463 3103 1205 2759 
Q 947 2416 947 1791 
Q 947 1169 1205 825 
Q 1463 481 1925 481 
Q 2391 481 2648 825 
Q 2906 1169 2906 1791 
z
M 3481 434 
Q 3481 -459 3084 -895 
Q 2688 -1331 1869 -1331 
Q 1566 -1331 1297 -1286 
Q 1028 -1241 775 -1147 
L 775 -588 
Q 1028 -725 1275 -790 
Q 1522 -856 1778 -856 
Q 2344 -856 2625 -561 
Q 2906 -266 2906 331 
L 2906 616 
Q 2728 306 2450 153 
Q 2172 0 1784 0 
Q 1141 0 747 490 
Q 353 981 353 1791 
Q 353 2603 747 3093 
Q 1141 3584 1784 3584 
Q 2172 3584 2450 3431 
Q 2728 3278 2906 2969 
L 2906 3500 
L 3481 3500 
L 3481 434 
z
" transform="scale(0.015625)"/>
      </defs>
      <use xlink:href="#DejaVuSans-47"/>
      <use xlink:href="#DejaVuSans-65" x="77.490234"/>
      <use xlink:href="#DejaVuSans-6e" x="139.013672"/>
      <use xlink:href="#DejaVuSans-6f" x="202.392578"/>
      <use xlink:href="#DejaVuSans-6d" x="263.574219"/>
      <use xlink:href="#DejaVuSans-65" x="360.986328"/>
      <use xlink:href="#DejaVuSans-43" x="422.509766"/>
      <use xlink:href="#DejaVuSans-6f" x="492.333984"/>
      <use xlink:href="#DejaVuSans-6e" x="553.515625"/>
      <use xlink:href="#DejaVuSans-66" x="616.894531"/>
      <use xlink:href="#DejaVuSans-69" x="652.099609"/>
      <use xlink:href="#DejaVuSans-67" x="679.882812"/>
     </g>
    </g>
    <g id="line2d_19">
     <path d="M 347.35 166.253281 
L 358.35 166.253281 
L 369.35 166.253281 
" style="fill: none; stroke: #4c72b0; stroke-width: 1.5; stroke-linecap: round"/>
    </g>
    <g id="text_15">
     <!-- No Vector x Fine-Grain -->
     <g style="fill: #262626" transform="translate(378.15 170.103281)scale(0.11 -0.11)">
      <defs>
       <path id="DejaVuSans-4e" d="M 628 4666 
L 1478 4666 
L 3547 763 
L 3547 4666 
L 4159 4666 
L 4159 0 
L 3309 0 
L 1241 3903 
L 1241 0 
L 628 0 
L 628 4666 
z
" transform="scale(0.015625)"/>
       <path id="DejaVuSans-56" d="M 1831 0 
L 50 4666 
L 709 4666 
L 2188 738 
L 3669 4666 
L 4325 4666 
L 2547 0 
L 1831 0 
z
" transform="scale(0.015625)"/>
       <path id="DejaVuSans-63" d="M 3122 3366 
L 3122 2828 
Q 2878 2963 2633 3030 
Q 2388 3097 2138 3097 
Q 1578 3097 1268 2742 
Q 959 2388 959 1747 
Q 959 1106 1268 751 
Q 1578 397 2138 397 
Q 2388 397 2633 464 
Q 2878 531 3122 666 
L 3122 134 
Q 2881 22 2623 -34 
Q 2366 -91 2075 -91 
Q 1284 -91 818 406 
Q 353 903 353 1747 
Q 353 2603 823 3093 
Q 1294 3584 2113 3584 
Q 2378 3584 2631 3529 
Q 2884 3475 3122 3366 
z
" transform="scale(0.015625)"/>
       <path id="DejaVuSans-78" d="M 3513 3500 
L 2247 1797 
L 3578 0 
L 2900 0 
L 1881 1375 
L 863 0 
L 184 0 
L 1544 1831 
L 300 3500 
L 978 3500 
L 1906 2253 
L 2834 3500 
L 3513 3500 
z
" transform="scale(0.015625)"/>
       <path id="DejaVuSans-2d" d="M 313 2009 
L 1997 2009 
L 1997 1497 
L 313 1497 
L 313 2009 
z
" transform="scale(0.015625)"/>
      </defs>
      <use xlink:href="#DejaVuSans-4e"/>
      <use xlink:href="#DejaVuSans-6f" x="74.804688"/>
      <use xlink:href="#DejaVuSans-20" x="135.986328"/>
      <use xlink:href="#DejaVuSans-56" x="167.773438"/>
      <use xlink:href="#DejaVuSans-65" x="228.431641"/>
      <use xlink:href="#DejaVuSans-63" x="289.955078"/>
      <use xlink:href="#DejaVuSans-74" x="344.935547"/>
      <use xlink:href="#DejaVuSans-6f" x="384.144531"/>
      <use xlink:href="#DejaVuSans-72" x="445.326172"/>
      <use xlink:href="#DejaVuSans-20" x="486.439453"/>
      <use xlink:href="#DejaVuSans-78" x="518.226562"/>
      <use xlink:href="#DejaVuSans-20" x="577.40625"/>
      <use xlink:href="#DejaVuSans-46" x="609.193359"/>
      <use xlink:href="#DejaVuSans-69" x="659.462891"/>
      <use xlink:href="#DejaVuSans-6e" x="687.246094"/>
      <use xlink:href="#DejaVuSans-65" x="750.625"/>
      <use xlink:href="#DejaVuSans-2d" x="812.148438"/>
      <use xlink:href="#DejaVuSans-47" x="851.857422"/>
      <use xlink:href="#DejaVuSans-72" x="929.347656"/>
      <use xlink:href="#DejaVuSans-61" x="970.460938"/>
      <use xlink:href="#DejaVuSans-69" x="1031.740234"/>
      <use xlink:href="#DejaVuSans-6e" x="1059.523438"/>
     </g>
    </g>
    <g id="line2d_20">
     <path d="M 347.35 182.399219 
L 358.35 182.399219 
L 369.35 182.399219 
" style="fill: none; stroke: #dd8452; stroke-width: 1.5; stroke-linecap: round"/>
    </g>
    <g id="text_16">
     <!-- No Vector x Global Only -->
     <g style="fill: #262626" transform="translate(378.15 186.249219)scale(0.11 -0.11)">
      <defs>
       <path id="DejaVuSans-6c" d="M 603 4863 
L 1178 4863 
L 1178 0 
L 603 0 
L 603 4863 
z
" transform="scale(0.015625)"/>
       <path id="DejaVuSans-62" d="M 3116 1747 
Q 3116 2381 2855 2742 
Q 2594 3103 2138 3103 
Q 1681 3103 1420 2742 
Q 1159 2381 1159 1747 
Q 1159 1113 1420 752 
Q 1681 391 2138 391 
Q 2594 391 2855 752 
Q 3116 1113 3116 1747 
z
M 1159 2969 
Q 1341 3281 1617 3432 
Q 1894 3584 2278 3584 
Q 2916 3584 3314 3078 
Q 3713 2572 3713 1747 
Q 3713 922 3314 415 
Q 2916 -91 2278 -91 
Q 1894 -91 1617 61 
Q 1341 213 1159 525 
L 1159 0 
L 581 0 
L 581 4863 
L 1159 4863 
L 1159 2969 
z
" transform="scale(0.015625)"/>
       <path id="DejaVuSans-4f" d="M 2522 4238 
Q 1834 4238 1429 3725 
Q 1025 3213 1025 2328 
Q 1025 1447 1429 934 
Q 1834 422 2522 422 
Q 3209 422 3611 934 
Q 4013 1447 4013 2328 
Q 4013 3213 3611 3725 
Q 3209 4238 2522 4238 
z
M 2522 4750 
Q 3503 4750 4090 4092 
Q 4678 3434 4678 2328 
Q 4678 1225 4090 567 
Q 3503 -91 2522 -91 
Q 1538 -91 948 565 
Q 359 1222 359 2328 
Q 359 3434 948 4092 
Q 1538 4750 2522 4750 
z
" transform="scale(0.015625)"/>
      </defs>
      <use xlink:href="#DejaVuSans-4e"/>
      <use xlink:href="#DejaVuSans-6f" x="74.804688"/>
      <use xlink:href="#DejaVuSans-20" x="135.986328"/>
      <use xlink:href="#DejaVuSans-56" x="167.773438"/>
      <use xlink:href="#DejaVuSans-65" x="228.431641"/>
      <use xlink:href="#DejaVuSans-63" x="289.955078"/>
      <use xlink:href="#DejaVuSans-74" x="344.935547"/>
      <use xlink:href="#DejaVuSans-6f" x="384.144531"/>
      <use xlink:href="#DejaVuSans-72" x="445.326172"/>
      <use xlink:href="#DejaVuSans-20" x="486.439453"/>
      <use xlink:href="#DejaVuSans-78" x="518.226562"/>
      <use xlink:href="#DejaVuSans-20" x="577.40625"/>
      <use xlink:href="#DejaVuSans-47" x="609.193359"/>
      <use xlink:href="#DejaVuSans-6c" x="686.683594"/>
      <use xlink:href="#DejaVuSans-6f" x="714.466797"/>
      <use xlink:href="#DejaVuSans-62" x="775.648438"/>
      <use xlink:href="#DejaVuSans-61" x="839.125"/>
      <use xlink:href="#DejaVuSans-6c" x="900.404297"/>
      <use xlink:href="#DejaVuSans-20" x="928.1875"/>
      <use xlink:href="#DejaVuSans-4f" x="959.974609"/>
      <use xlink:href="#DejaVuSans-6e" x="1038.685547"/>
      <use xlink:href="#DejaVuSans-6c" x="1102.064453"/>
      <use xlink:href="#DejaVuSans-79" x="1129.847656"/>
     </g>
    </g>
    <g id="line2d_21">
     <path d="M 347.35 198.545156 
L 358.35 198.545156 
L 369.35 198.545156 
" style="fill: none; stroke: #55a868; stroke-width: 1.5; stroke-linecap: round"/>
    </g>
    <g id="text_17">
     <!-- Vector x Fine-Grain -->
     <g style="fill: #262626" transform="translate(378.15 202.395156)scale(0.11 -0.11)">
      <use xlink:href="#DejaVuSans-56"/>
      <use xlink:href="#DejaVuSans-65" x="60.658203"/>
      <use xlink:href="#DejaVuSans-63" x="122.181641"/>
      <use xlink:href="#DejaVuSans-74" x="177.162109"/>
      <use xlink:href="#DejaVuSans-6f" x="216.371094"/>
      <use xlink:href="#DejaVuSans-72" x="277.552734"/>
      <use xlink:href="#DejaVuSans-20" x="318.666016"/>
      <use xlink:href="#DejaVuSans-78" x="350.453125"/>
      <use xlink:href="#DejaVuSans-20" x="409.632812"/>
      <use xlink:href="#DejaVuSans-46" x="441.419922"/>
      <use xlink:href="#DejaVuSans-69" x="491.689453"/>
      <use xlink:href="#DejaVuSans-6e" x="519.472656"/>
      <use xlink:href="#DejaVuSans-65" x="582.851562"/>
      <use xlink:href="#DejaVuSans-2d" x="644.375"/>
      <use xlink:href="#DejaVuSans-47" x="684.083984"/>
      <use xlink:href="#DejaVuSans-72" x="761.574219"/>
      <use xlink:href="#DejaVuSans-61" x="802.6875"/>
      <use xlink:href="#DejaVuSans-69" x="863.966797"/>
      <use xlink:href="#DejaVuSans-6e" x="891.75"/>
     </g>
    </g>
    <g id="line2d_22">
     <path d="M 347.35 214.691094 
L 358.35 214.691094 
L 369.35 214.691094 
" style="fill: none; stroke: #c44e52; stroke-width: 1.5; stroke-linecap: round"/>
    </g>
    <g id="text_18">
     <!-- Vector x Global Only -->
     <g style="fill: #262626" transform="translate(378.15 218.541094)scale(0.11 -0.11)">
      <use xlink:href="#DejaVuSans-56"/>
      <use xlink:href="#DejaVuSans-65" x="60.658203"/>
      <use xlink:href="#DejaVuSans-63" x="122.181641"/>
      <use xlink:href="#DejaVuSans-74" x="177.162109"/>
      <use xlink:href="#DejaVuSans-6f" x="216.371094"/>
      <use xlink:href="#DejaVuSans-72" x="277.552734"/>
      <use xlink:href="#DejaVuSans-20" x="318.666016"/>
      <use xlink:href="#DejaVuSans-78" x="350.453125"/>
      <use xlink:href="#DejaVuSans-20" x="409.632812"/>
      <use xlink:href="#DejaVuSans-47" x="441.419922"/>
      <use xlink:href="#DejaVuSans-6c" x="518.910156"/>
      <use xlink:href="#DejaVuSans-6f" x="546.693359"/>
      <use xlink:href="#DejaVuSans-62" x="607.875"/>
      <use xlink:href="#DejaVuSans-61" x="671.351562"/>
      <use xlink:href="#DejaVuSans-6c" x="732.630859"/>
      <use xlink:href="#DejaVuSans-20" x="760.414062"/>
      <use xlink:href="#DejaVuSans-4f" x="792.201172"/>
      <use xlink:href="#DejaVuSans-6e" x="870.912109"/>
      <use xlink:href="#DejaVuSans-6c" x="934.291016"/>
      <use xlink:href="#DejaVuSans-79" x="962.074219"/>
     </g>
    </g>
   </g>
  </g>
  <g id="axes_2">
   <g id="patch_7">
    <path d="M 580.73 309.78 
L 851.04 309.78 
L 851.04 55.68 
L 580.73 55.68 
z
" style="fill: #eaeaf2"/>
   </g>
   <g id="matplotlib.axis_3">
    <g id="xtick_6"/>
    <g id="xtick_7"/>
    <g id="xtick_8"/>
    <g id="xtick_9"/>
    <g id="text_19">
     <!-- GenomeConfig -->
     <g style="fill: #262626" transform="translate(671.2825 332.398125)scale(0.12 -0.12)">
      <use xlink:href="#DejaVuSans-47"/>
      <use xlink:href="#DejaVuSans-65" x="77.490234"/>
      <use xlink:href="#DejaVuSans-6e" x="139.013672"/>
      <use xlink:href="#DejaVuSans-6f" x="202.392578"/>
      <use xlink:href="#DejaVuSans-6d" x="263.574219"/>
      <use xlink:href="#DejaVuSans-65" x="360.986328"/>
      <use xlink:href="#DejaVuSans-43" x="422.509766"/>
      <use xlink:href="#DejaVuSans-6f" x="492.333984"/>
      <use xlink:href="#DejaVuSans-6e" x="553.515625"/>
      <use xlink:href="#DejaVuSans-66" x="616.894531"/>
      <use xlink:href="#DejaVuSans-69" x="652.099609"/>
      <use xlink:href="#DejaVuSans-67" x="679.882812"/>
     </g>
    </g>
   </g>
   <g id="matplotlib.axis_4">
    <g id="ytick_6">
     <g id="line2d_23">
      <path d="M 580.73 298.23 
L 851.04 298.23 
" clip-path="url(#p8b52e53160)" style="fill: none; stroke: #ffffff; stroke-linecap: round"/>
     </g>
     <g id="text_20">
      <!-- 0 -->
      <g style="fill: #262626" transform="translate(564.23125 302.409141)scale(0.11 -0.11)">
       <use xlink:href="#DejaVuSans-30"/>
      </g>
     </g>
    </g>
    <g id="ytick_7">
     <g id="line2d_24">
      <path d="M 580.73 245.321159 
L 851.04 245.321159 
" clip-path="url(#p8b52e53160)" style="fill: none; stroke: #ffffff; stroke-linecap: round"/>
     </g>
     <g id="text_21">
      <!-- 500 -->
      <g style="fill: #262626" transform="translate(550.23375 249.5003)scale(0.11 -0.11)">
       <use xlink:href="#DejaVuSans-35"/>
       <use xlink:href="#DejaVuSans-30" x="63.623047"/>
       <use xlink:href="#DejaVuSans-30" x="127.246094"/>
      </g>
     </g>
    </g>
    <g id="ytick_8">
     <g id="line2d_25">
      <path d="M 580.73 192.412318 
L 851.04 192.412318 
" clip-path="url(#p8b52e53160)" style="fill: none; stroke: #ffffff; stroke-linecap: round"/>
     </g>
     <g id="text_22">
      <!-- 1000 -->
      <g style="fill: #262626" transform="translate(543.235 196.591459)scale(0.11 -0.11)">
       <use xlink:href="#DejaVuSans-31"/>
       <use xlink:href="#DejaVuSans-30" x="63.623047"/>
       <use xlink:href="#DejaVuSans-30" x="127.246094"/>
       <use xlink:href="#DejaVuSans-30" x="190.869141"/>
      </g>
     </g>
    </g>
    <g id="ytick_9">
     <g id="line2d_26">
      <path d="M 580.73 139.503477 
L 851.04 139.503477 
" clip-path="url(#p8b52e53160)" style="fill: none; stroke: #ffffff; stroke-linecap: round"/>
     </g>
     <g id="text_23">
      <!-- 1500 -->
      <g style="fill: #262626" transform="translate(543.235 143.682617)scale(0.11 -0.11)">
       <use xlink:href="#DejaVuSans-31"/>
       <use xlink:href="#DejaVuSans-35" x="63.623047"/>
       <use xlink:href="#DejaVuSans-30" x="127.246094"/>
       <use xlink:href="#DejaVuSans-30" x="190.869141"/>
      </g>
     </g>
    </g>
    <g id="ytick_10">
     <g id="line2d_27">
      <path d="M 580.73 86.594636 
L 851.04 86.594636 
" clip-path="url(#p8b52e53160)" style="fill: none; stroke: #ffffff; stroke-linecap: round"/>
     </g>
     <g id="text_24">
      <!-- 2000 -->
      <g style="fill: #262626" transform="translate(543.235 90.773776)scale(0.11 -0.11)">
       <use xlink:href="#DejaVuSans-32"/>
       <use xlink:href="#DejaVuSans-30" x="63.623047"/>
       <use xlink:href="#DejaVuSans-30" x="127.246094"/>
       <use xlink:href="#DejaVuSans-30" x="190.869141"/>
      </g>
     </g>
    </g>
    <g id="text_25">
     <!-- Fitness -->
     <g style="fill: #262626" transform="translate(536.739375 203.510625)rotate(-90)scale(0.12 -0.12)">
      <use xlink:href="#DejaVuSans-46"/>
      <use xlink:href="#DejaVuSans-69" x="50.269531"/>
      <use xlink:href="#DejaVuSans-74" x="78.052734"/>
      <use xlink:href="#DejaVuSans-6e" x="117.261719"/>
      <use xlink:href="#DejaVuSans-65" x="180.640625"/>
      <use xlink:href="#DejaVuSans-73" x="242.164062"/>
      <use xlink:href="#DejaVuSans-73" x="294.263672"/>
     </g>
    </g>
   </g>
   <g id="patch_8">
    <path d="M 587.48775 251.246949 
L 641.54975 251.246949 
L 641.54975 220.665639 
L 587.48775 220.665639 
L 587.48775 251.246949 
z
" clip-path="url(#p8b52e53160)" style="fill: #5875a4; stroke: #4c4c4c; stroke-width: 1.5; stroke-linejoin: miter"/>
   </g>
   <g id="patch_9">
    <path d="M 655.06525 270.082497 
L 709.12725 270.082497 
L 709.12725 220.242368 
L 655.06525 220.242368 
L 655.06525 270.082497 
z
" clip-path="url(#p8b52e53160)" style="fill: #cc8963; stroke: #4c4c4c; stroke-width: 1.5; stroke-linejoin: miter"/>
   </g>
   <g id="patch_10">
    <path d="M 722.64275 248.495689 
L 776.70475 248.495689 
L 776.70475 189.978511 
L 722.64275 189.978511 
L 722.64275 248.495689 
z
" clip-path="url(#p8b52e53160)" style="fill: #5f9e6e; stroke: #4c4c4c; stroke-width: 1.5; stroke-linejoin: miter"/>
   </g>
   <g id="patch_11">
    <path d="M 790.22025 232.675946 
L 844.28225 232.675946 
L 844.28225 100.139299 
L 790.22025 100.139299 
L 790.22025 232.675946 
z
" clip-path="url(#p8b52e53160)" style="fill: #b55d60; stroke: #4c4c4c; stroke-width: 1.5; stroke-linejoin: miter"/>
   </g>
   <g id="line2d_28">
    <path d="M 614.51875 251.246949 
L 614.51875 262.251988 
" clip-path="url(#p8b52e53160)" style="fill: none; stroke: #4c4c4c; stroke-width: 1.5; stroke-linecap: round"/>
   </g>
   <g id="line2d_29">
    <path d="M 614.51875 220.665639 
L 614.51875 191.671594 
" clip-path="url(#p8b52e53160)" style="fill: none; stroke: #4c4c4c; stroke-width: 1.5; stroke-linecap: round"/>
   </g>
   <g id="line2d_30">
    <path d="M 601.00325 262.251988 
L 628.03425 262.251988 
" clip-path="url(#p8b52e53160)" style="fill: none; stroke: #4c4c4c; stroke-width: 1.5; stroke-linecap: round"/>
   </g>
   <g id="line2d_31">
    <path d="M 601.00325 191.671594 
L 628.03425 191.671594 
" clip-path="url(#p8b52e53160)" style="fill: none; stroke: #4c4c4c; stroke-width: 1.5; stroke-linecap: round"/>
   </g>
   <g id="line2d_32"/>
   <g id="line2d_33">
    <path d="M 682.09625 270.082497 
L 682.09625 278.442093 
" clip-path="url(#p8b52e53160)" style="fill: none; stroke: #4c4c4c; stroke-width: 1.5; stroke-linecap: round"/>
   </g>
   <g id="line2d_34">
    <path d="M 682.09625 220.242368 
L 682.09625 188.602881 
" clip-path="url(#p8b52e53160)" style="fill: none; stroke: #4c4c4c; stroke-width: 1.5; stroke-linecap: round"/>
   </g>
   <g id="line2d_35">
    <path d="M 668.58075 278.442093 
L 695.61175 278.442093 
" clip-path="url(#p8b52e53160)" style="fill: none; stroke: #4c4c4c; stroke-width: 1.5; stroke-linecap: round"/>
   </g>
   <g id="line2d_36">
    <path d="M 668.58075 188.602881 
L 695.61175 188.602881 
" clip-path="url(#p8b52e53160)" style="fill: none; stroke: #4c4c4c; stroke-width: 1.5; stroke-linecap: round"/>
   </g>
   <g id="line2d_37"/>
   <g id="line2d_38">
    <path d="M 749.67375 248.495689 
L 749.67375 254.42148 
" clip-path="url(#p8b52e53160)" style="fill: none; stroke: #4c4c4c; stroke-width: 1.5; stroke-linecap: round"/>
   </g>
   <g id="line2d_39">
    <path d="M 749.67375 189.978511 
L 749.67375 116.858493 
" clip-path="url(#p8b52e53160)" style="fill: none; stroke: #4c4c4c; stroke-width: 1.5; stroke-linecap: round"/>
   </g>
   <g id="line2d_40">
    <path d="M 736.15825 254.42148 
L 763.18925 254.42148 
" clip-path="url(#p8b52e53160)" style="fill: none; stroke: #4c4c4c; stroke-width: 1.5; stroke-linecap: round"/>
   </g>
   <g id="line2d_41">
    <path d="M 736.15825 116.858493 
L 763.18925 116.858493 
" clip-path="url(#p8b52e53160)" style="fill: none; stroke: #4c4c4c; stroke-width: 1.5; stroke-linecap: round"/>
   </g>
   <g id="line2d_42"/>
   <g id="line2d_43">
    <path d="M 817.25125 232.675946 
L 817.25125 248.601507 
" clip-path="url(#p8b52e53160)" style="fill: none; stroke: #4c4c4c; stroke-width: 1.5; stroke-linecap: round"/>
   </g>
   <g id="line2d_44">
    <path d="M 817.25125 100.139299 
L 817.25125 67.23 
" clip-path="url(#p8b52e53160)" style="fill: none; stroke: #4c4c4c; stroke-width: 1.5; stroke-linecap: round"/>
   </g>
   <g id="line2d_45">
    <path d="M 803.73575 248.601507 
L 830.76675 248.601507 
" clip-path="url(#p8b52e53160)" style="fill: none; stroke: #4c4c4c; stroke-width: 1.5; stroke-linecap: round"/>
   </g>
   <g id="line2d_46">
    <path d="M 803.73575 67.23 
L 830.76675 67.23 
" clip-path="url(#p8b52e53160)" style="fill: none; stroke: #4c4c4c; stroke-width: 1.5; stroke-linecap: round"/>
   </g>
   <g id="line2d_47"/>
   <g id="line2d_48">
    <path d="M 587.48775 224.157623 
L 641.54975 224.157623 
" clip-path="url(#p8b52e53160)" style="fill: none; stroke: #4c4c4c; stroke-width: 1.5; stroke-linecap: round"/>
   </g>
   <g id="line2d_49">
    <path d="M 655.06525 255.902927 
L 709.12725 255.902927 
" clip-path="url(#p8b52e53160)" style="fill: none; stroke: #4c4c4c; stroke-width: 1.5; stroke-linecap: round"/>
   </g>
   <g id="line2d_50">
    <path d="M 722.64275 191.565776 
L 776.70475 191.565776 
" clip-path="url(#p8b52e53160)" style="fill: none; stroke: #4c4c4c; stroke-width: 1.5; stroke-linecap: round"/>
   </g>
   <g id="line2d_51">
    <path d="M 790.22025 204.263898 
L 844.28225 204.263898 
" clip-path="url(#p8b52e53160)" style="fill: none; stroke: #4c4c4c; stroke-width: 1.5; stroke-linecap: round"/>
   </g>
   <g id="patch_12">
    <path d="M 580.73 309.78 
L 580.73 55.68 
" style="fill: none; stroke: #ffffff; stroke-width: 1.25; stroke-linejoin: miter; stroke-linecap: square"/>
   </g>
   <g id="patch_13">
    <path d="M 851.04 309.78 
L 851.04 55.68 
" style="fill: none; stroke: #ffffff; stroke-width: 1.25; stroke-linejoin: miter; stroke-linecap: square"/>
   </g>
   <g id="patch_14">
    <path d="M 580.73 309.78 
L 851.04 309.78 
" style="fill: none; stroke: #ffffff; stroke-width: 1.25; stroke-linejoin: miter; stroke-linecap: square"/>
   </g>
   <g id="patch_15">
    <path d="M 580.73 55.68 
L 851.04 55.68 
" style="fill: none; stroke: #ffffff; stroke-width: 1.25; stroke-linejoin: miter; stroke-linecap: square"/>
   </g>
   <g id="text_26">
    <!-- Best Performance Across Trials -->
    <g style="fill: #262626" transform="translate(623.924688 49.68)scale(0.12 -0.12)">
     <defs>
      <path id="DejaVuSans-50" d="M 1259 4147 
L 1259 2394 
L 2053 2394 
Q 2494 2394 2734 2622 
Q 2975 2850 2975 3272 
Q 2975 3691 2734 3919 
Q 2494 4147 2053 4147 
L 1259 4147 
z
M 628 4666 
L 2053 4666 
Q 2838 4666 3239 4311 
Q 3641 3956 3641 3272 
Q 3641 2581 3239 2228 
Q 2838 1875 2053 1875 
L 1259 1875 
L 1259 0 
L 628 0 
L 628 4666 
z
" transform="scale(0.015625)"/>
      <path id="DejaVuSans-41" d="M 2188 4044 
L 1331 1722 
L 3047 1722 
L 2188 4044 
z
M 1831 4666 
L 2547 4666 
L 4325 0 
L 3669 0 
L 3244 1197 
L 1141 1197 
L 716 0 
L 50 0 
L 1831 4666 
z
" transform="scale(0.015625)"/>
      <path id="DejaVuSans-54" d="M -19 4666 
L 3928 4666 
L 3928 4134 
L 2272 4134 
L 2272 0 
L 1638 0 
L 1638 4134 
L -19 4134 
L -19 4666 
z
" transform="scale(0.015625)"/>
     </defs>
     <use xlink:href="#DejaVuSans-42"/>
     <use xlink:href="#DejaVuSans-65" x="68.603516"/>
     <use xlink:href="#DejaVuSans-73" x="130.126953"/>
     <use xlink:href="#DejaVuSans-74" x="182.226562"/>
     <use xlink:href="#DejaVuSans-20" x="221.435547"/>
     <use xlink:href="#DejaVuSans-50" x="253.222656"/>
     <use xlink:href="#DejaVuSans-65" x="309.900391"/>
     <use xlink:href="#DejaVuSans-72" x="371.423828"/>
     <use xlink:href="#DejaVuSans-66" x="412.537109"/>
     <use xlink:href="#DejaVuSans-6f" x="447.742188"/>
     <use xlink:href="#DejaVuSans-72" x="508.923828"/>
     <use xlink:href="#DejaVuSans-6d" x="548.287109"/>
     <use xlink:href="#DejaVuSans-61" x="645.699219"/>
     <use xlink:href="#DejaVuSans-6e" x="706.978516"/>
     <use xlink:href="#DejaVuSans-63" x="770.357422"/>
     <use xlink:href="#DejaVuSans-65" x="825.337891"/>
     <use xlink:href="#DejaVuSans-20" x="886.861328"/>
     <use xlink:href="#DejaVuSans-41" x="918.648438"/>
     <use xlink:href="#DejaVuSans-63" x="985.306641"/>
     <use xlink:href="#DejaVuSans-72" x="1040.287109"/>
     <use xlink:href="#DejaVuSans-6f" x="1079.150391"/>
     <use xlink:href="#DejaVuSans-73" x="1140.332031"/>
     <use xlink:href="#DejaVuSans-73" x="1192.431641"/>
     <use xlink:href="#DejaVuSans-20" x="1244.53125"/>
     <use xlink:href="#DejaVuSans-54" x="1276.318359"/>
     <use xlink:href="#DejaVuSans-72" x="1322.652344"/>
     <use xlink:href="#DejaVuSans-69" x="1363.765625"/>
     <use xlink:href="#DejaVuSans-61" x="1391.548828"/>
     <use xlink:href="#DejaVuSans-6c" x="1452.828125"/>
     <use xlink:href="#DejaVuSans-73" x="1480.611328"/>
    </g>
   </g>
  </g>
  <g id="text_27">
   <!-- Compare Evolved Variations For Explode -->
   <g style="fill: #262626" transform="translate(285.98175 18.14175)scale(0.144 -0.144)">
    <defs>
     <path id="DejaVuSans-70" d="M 1159 525 
L 1159 -1331 
L 581 -1331 
L 581 3500 
L 1159 3500 
L 1159 2969 
Q 1341 3281 1617 3432 
Q 1894 3584 2278 3584 
Q 2916 3584 3314 3078 
Q 3713 2572 3713 1747 
Q 3713 922 3314 415 
Q 2916 -91 2278 -91 
Q 1894 -91 1617 61 
Q 1341 213 1159 525 
z
M 3116 1747 
Q 3116 2381 2855 2742 
Q 2594 3103 2138 3103 
Q 1681 3103 1420 2742 
Q 1159 2381 1159 1747 
Q 1159 1113 1420 752 
Q 1681 391 2138 391 
Q 2594 391 2855 752 
Q 3116 1113 3116 1747 
z
" transform="scale(0.015625)"/>
     <path id="DejaVuSans-45" d="M 628 4666 
L 3578 4666 
L 3578 4134 
L 1259 4134 
L 1259 2753 
L 3481 2753 
L 3481 2222 
L 1259 2222 
L 1259 531 
L 3634 531 
L 3634 0 
L 628 0 
L 628 4666 
z
" transform="scale(0.015625)"/>
     <path id="DejaVuSans-76" d="M 191 3500 
L 800 3500 
L 1894 563 
L 2988 3500 
L 3597 3500 
L 2284 0 
L 1503 0 
L 191 3500 
z
" transform="scale(0.015625)"/>
    </defs>
    <use xlink:href="#DejaVuSans-43"/>
    <use xlink:href="#DejaVuSans-6f" x="69.824219"/>
    <use xlink:href="#DejaVuSans-6d" x="131.005859"/>
    <use xlink:href="#DejaVuSans-70" x="228.417969"/>
    <use xlink:href="#DejaVuSans-61" x="291.894531"/>
    <use xlink:href="#DejaVuSans-72" x="353.173828"/>
    <use xlink:href="#DejaVuSans-65" x="392.037109"/>
    <use xlink:href="#DejaVuSans-20" x="453.560547"/>
    <use xlink:href="#DejaVuSans-45" x="485.347656"/>
    <use xlink:href="#DejaVuSans-76" x="548.53125"/>
    <use xlink:href="#DejaVuSans-6f" x="607.710938"/>
    <use xlink:href="#DejaVuSans-6c" x="668.892578"/>
    <use xlink:href="#DejaVuSans-76" x="696.675781"/>
    <use xlink:href="#DejaVuSans-65" x="755.855469"/>
    <use xlink:href="#DejaVuSans-64" x="817.378906"/>
    <use xlink:href="#DejaVuSans-20" x="880.855469"/>
    <use xlink:href="#DejaVuSans-56" x="912.642578"/>
    <use xlink:href="#DejaVuSans-61" x="973.300781"/>
    <use xlink:href="#DejaVuSans-72" x="1034.580078"/>
    <use xlink:href="#DejaVuSans-69" x="1075.693359"/>
    <use xlink:href="#DejaVuSans-61" x="1103.476562"/>
    <use xlink:href="#DejaVuSans-74" x="1164.755859"/>
    <use xlink:href="#DejaVuSans-69" x="1203.964844"/>
    <use xlink:href="#DejaVuSans-6f" x="1231.748047"/>
    <use xlink:href="#DejaVuSans-6e" x="1292.929688"/>
    <use xlink:href="#DejaVuSans-73" x="1356.308594"/>
    <use xlink:href="#DejaVuSans-20" x="1408.408203"/>
    <use xlink:href="#DejaVuSans-46" x="1440.195312"/>
    <use xlink:href="#DejaVuSans-6f" x="1494.089844"/>
    <use xlink:href="#DejaVuSans-72" x="1555.271484"/>
    <use xlink:href="#DejaVuSans-20" x="1596.384766"/>
    <use xlink:href="#DejaVuSans-45" x="1628.171875"/>
    <use xlink:href="#DejaVuSans-78" x="1691.355469"/>
    <use xlink:href="#DejaVuSans-70" x="1750.535156"/>
    <use xlink:href="#DejaVuSans-6c" x="1814.011719"/>
    <use xlink:href="#DejaVuSans-6f" x="1841.794922"/>
    <use xlink:href="#DejaVuSans-64" x="1902.976562"/>
    <use xlink:href="#DejaVuSans-65" x="1966.453125"/>
   </g>
  </g>
 </g>
 <defs>
  <clipPath id="p5d4c7f61b1">
   <rect x="67.14" y="55.68" width="270.31" height="254.1"/>
  </clipPath>
  <clipPath id="p8b52e53160">
   <rect x="580.73" y="55.68" width="270.31" height="254.1"/>
  </clipPath>
 </defs>
</svg>
