<?xml version="1.0" encoding="utf-8" standalone="no"?>
<!DOCTYPE svg PUBLIC "-//W3C//DTD SVG 1.1//EN"
  "http://www.w3.org/Graphics/SVG/1.1/DTD/svg11.dtd">
<svg xmlns:xlink="http://www.w3.org/1999/xlink" width="393.52115pt" height="362.097812pt" viewBox="0 0 393.52115 362.097812" xmlns="http://www.w3.org/2000/svg" version="1.1">
 <metadata>
  <rdf:RDF xmlns:dc="http://purl.org/dc/elements/1.1/" xmlns:cc="http://creativecommons.org/ns#" xmlns:rdf="http://www.w3.org/1999/02/22-rdf-syntax-ns#">
   <cc:Work>
    <dc:type rdf:resource="http://purl.org/dc/dcmitype/StillImage"/>
    <dc:date>2022-11-20T08:15:19.522019</dc:date>
    <dc:format>image/svg+xml</dc:format>
    <dc:creator>
     <cc:Agent>
      <dc:title>Matplotlib v3.5.2, https://matplotlib.org/</dc:title>
     </cc:Agent>
    </dc:creator>
   </cc:Work>
  </rdf:RDF>
 </metadata>
 <defs>
  <style type="text/css">*{stroke-linejoin: round; stroke-linecap: butt}</style>
 </defs>
 <g id="figure_1">
  <g id="patch_1">
   <path d="M 0 362.097812 
L 393.52115 362.097812 
L 393.52115 0 
L 0 0 
z
" style="fill: #ffffff"/>
  </g>
  <g id="axes_1">
   <g id="patch_2">
    <path d="M 53.31 319.138125 
L 341.13495 319.138125 
L 341.13495 22.318125 
L 53.31 22.318125 
z
" style="fill: #eaeaf2"/>
   </g>
   <g id="matplotlib.axis_1">
    <g id="xtick_1">
     <g id="line2d_1">
      <path d="M 66.392952 319.138125 
L 66.392952 22.318125 
" clip-path="url(#pe74a7daece)" style="fill: none; stroke: #ffffff; stroke-linecap: round"/>
     </g>
     <g id="text_1">
      <!-- 0 -->
      <g style="fill: #262626" transform="translate(62.893577 336.996406)scale(0.11 -0.11)">
       <defs>
        <path id="DejaVuSans-30" d="M 2034 4250 
Q 1547 4250 1301 3770 
Q 1056 3291 1056 2328 
Q 1056 1369 1301 889 
Q 1547 409 2034 409 
Q 2525 409 2770 889 
Q 3016 1369 3016 2328 
Q 3016 3291 2770 3770 
Q 2525 4250 2034 4250 
z
M 2034 4750 
Q 2819 4750 3233 4129 
Q 3647 3509 3647 2328 
Q 3647 1150 3233 529 
Q 2819 -91 2034 -91 
Q 1250 -91 836 529 
Q 422 1150 422 2328 
Q 422 3509 836 4129 
Q 1250 4750 2034 4750 
z
" transform="scale(0.015625)"/>
       </defs>
       <use xlink:href="#DejaVuSans-30"/>
      </g>
     </g>
    </g>
    <g id="xtick_2">
     <g id="line2d_2">
      <path d="M 132.136431 319.138125 
L 132.136431 22.318125 
" clip-path="url(#pe74a7daece)" style="fill: none; stroke: #ffffff; stroke-linecap: round"/>
     </g>
     <g id="text_2">
      <!-- 50 -->
      <g style="fill: #262626" transform="translate(125.137681 336.996406)scale(0.11 -0.11)">
       <defs>
        <path id="DejaVuSans-35" d="M 691 4666 
L 3169 4666 
L 3169 4134 
L 1269 4134 
L 1269 2991 
Q 1406 3038 1543 3061 
Q 1681 3084 1819 3084 
Q 2600 3084 3056 2656 
Q 3513 2228 3513 1497 
Q 3513 744 3044 326 
Q 2575 -91 1722 -91 
Q 1428 -91 1123 -41 
Q 819 9 494 109 
L 494 744 
Q 775 591 1075 516 
Q 1375 441 1709 441 
Q 2250 441 2565 725 
Q 2881 1009 2881 1497 
Q 2881 1984 2565 2268 
Q 2250 2553 1709 2553 
Q 1456 2553 1204 2497 
Q 953 2441 691 2322 
L 691 4666 
z
" transform="scale(0.015625)"/>
       </defs>
       <use xlink:href="#DejaVuSans-35"/>
       <use xlink:href="#DejaVuSans-30" x="63.623047"/>
      </g>
     </g>
    </g>
    <g id="xtick_3">
     <g id="line2d_3">
      <path d="M 197.87991 319.138125 
L 197.87991 22.318125 
" clip-path="url(#pe74a7daece)" style="fill: none; stroke: #ffffff; stroke-linecap: round"/>
     </g>
     <g id="text_3">
      <!-- 100 -->
      <g style="fill: #262626" transform="translate(187.381785 336.996406)scale(0.11 -0.11)">
       <defs>
        <path id="DejaVuSans-31" d="M 794 531 
L 1825 531 
L 1825 4091 
L 703 3866 
L 703 4441 
L 1819 4666 
L 2450 4666 
L 2450 531 
L 3481 531 
L 3481 0 
L 794 0 
L 794 531 
z
" transform="scale(0.015625)"/>
       </defs>
       <use xlink:href="#DejaVuSans-31"/>
       <use xlink:href="#DejaVuSans-30" x="63.623047"/>
       <use xlink:href="#DejaVuSans-30" x="127.246094"/>
      </g>
     </g>
    </g>
    <g id="xtick_4">
     <g id="line2d_4">
      <path d="M 263.623389 319.138125 
L 263.623389 22.318125 
" clip-path="url(#pe74a7daece)" style="fill: none; stroke: #ffffff; stroke-linecap: round"/>
     </g>
     <g id="text_4">
      <!-- 150 -->
      <g style="fill: #262626" transform="translate(253.125264 336.996406)scale(0.11 -0.11)">
       <use xlink:href="#DejaVuSans-31"/>
       <use xlink:href="#DejaVuSans-35" x="63.623047"/>
       <use xlink:href="#DejaVuSans-30" x="127.246094"/>
      </g>
     </g>
    </g>
    <g id="xtick_5">
     <g id="line2d_5">
      <path d="M 329.366867 319.138125 
L 329.366867 22.318125 
" clip-path="url(#pe74a7daece)" style="fill: none; stroke: #ffffff; stroke-linecap: round"/>
     </g>
     <g id="text_5">
      <!-- 200 -->
      <g style="fill: #262626" transform="translate(318.868742 336.996406)scale(0.11 -0.11)">
       <defs>
        <path id="DejaVuSans-32" d="M 1228 531 
L 3431 531 
L 3431 0 
L 469 0 
L 469 531 
Q 828 903 1448 1529 
Q 2069 2156 2228 2338 
Q 2531 2678 2651 2914 
Q 2772 3150 2772 3378 
Q 2772 3750 2511 3984 
Q 2250 4219 1831 4219 
Q 1534 4219 1204 4116 
Q 875 4013 500 3803 
L 500 4441 
Q 881 4594 1212 4672 
Q 1544 4750 1819 4750 
Q 2544 4750 2975 4387 
Q 3406 4025 3406 3419 
Q 3406 3131 3298 2873 
Q 3191 2616 2906 2266 
Q 2828 2175 2409 1742 
Q 1991 1309 1228 531 
z
" transform="scale(0.015625)"/>
       </defs>
       <use xlink:href="#DejaVuSans-32"/>
       <use xlink:href="#DejaVuSans-30" x="63.623047"/>
       <use xlink:href="#DejaVuSans-30" x="127.246094"/>
      </g>
     </g>
    </g>
    <g id="text_6">
     <!-- Generation -->
     <g style="fill: #262626" transform="translate(163.750912 352.402187)scale(0.12 -0.12)">
      <defs>
       <path id="DejaVuSans-47" d="M 3809 666 
L 3809 1919 
L 2778 1919 
L 2778 2438 
L 4434 2438 
L 4434 434 
Q 4069 175 3628 42 
Q 3188 -91 2688 -91 
Q 1594 -91 976 548 
Q 359 1188 359 2328 
Q 359 3472 976 4111 
Q 1594 4750 2688 4750 
Q 3144 4750 3555 4637 
Q 3966 4525 4313 4306 
L 4313 3634 
Q 3963 3931 3569 4081 
Q 3175 4231 2741 4231 
Q 1884 4231 1454 3753 
Q 1025 3275 1025 2328 
Q 1025 1384 1454 906 
Q 1884 428 2741 428 
Q 3075 428 3337 486 
Q 3600 544 3809 666 
z
" transform="scale(0.015625)"/>
       <path id="DejaVuSans-65" d="M 3597 1894 
L 3597 1613 
L 953 1613 
Q 991 1019 1311 708 
Q 1631 397 2203 397 
Q 2534 397 2845 478 
Q 3156 559 3463 722 
L 3463 178 
Q 3153 47 2828 -22 
Q 2503 -91 2169 -91 
Q 1331 -91 842 396 
Q 353 884 353 1716 
Q 353 2575 817 3079 
Q 1281 3584 2069 3584 
Q 2775 3584 3186 3129 
Q 3597 2675 3597 1894 
z
M 3022 2063 
Q 3016 2534 2758 2815 
Q 2500 3097 2075 3097 
Q 1594 3097 1305 2825 
Q 1016 2553 972 2059 
L 3022 2063 
z
" transform="scale(0.015625)"/>
       <path id="DejaVuSans-6e" d="M 3513 2113 
L 3513 0 
L 2938 0 
L 2938 2094 
Q 2938 2591 2744 2837 
Q 2550 3084 2163 3084 
Q 1697 3084 1428 2787 
Q 1159 2491 1159 1978 
L 1159 0 
L 581 0 
L 581 3500 
L 1159 3500 
L 1159 2956 
Q 1366 3272 1645 3428 
Q 1925 3584 2291 3584 
Q 2894 3584 3203 3211 
Q 3513 2838 3513 2113 
z
" transform="scale(0.015625)"/>
       <path id="DejaVuSans-72" d="M 2631 2963 
Q 2534 3019 2420 3045 
Q 2306 3072 2169 3072 
Q 1681 3072 1420 2755 
Q 1159 2438 1159 1844 
L 1159 0 
L 581 0 
L 581 3500 
L 1159 3500 
L 1159 2956 
Q 1341 3275 1631 3429 
Q 1922 3584 2338 3584 
Q 2397 3584 2469 3576 
Q 2541 3569 2628 3553 
L 2631 2963 
z
" transform="scale(0.015625)"/>
       <path id="DejaVuSans-61" d="M 2194 1759 
Q 1497 1759 1228 1600 
Q 959 1441 959 1056 
Q 959 750 1161 570 
Q 1363 391 1709 391 
Q 2188 391 2477 730 
Q 2766 1069 2766 1631 
L 2766 1759 
L 2194 1759 
z
M 3341 1997 
L 3341 0 
L 2766 0 
L 2766 531 
Q 2569 213 2275 61 
Q 1981 -91 1556 -91 
Q 1019 -91 701 211 
Q 384 513 384 1019 
Q 384 1609 779 1909 
Q 1175 2209 1959 2209 
L 2766 2209 
L 2766 2266 
Q 2766 2663 2505 2880 
Q 2244 3097 1772 3097 
Q 1472 3097 1187 3025 
Q 903 2953 641 2809 
L 641 3341 
Q 956 3463 1253 3523 
Q 1550 3584 1831 3584 
Q 2591 3584 2966 3190 
Q 3341 2797 3341 1997 
z
" transform="scale(0.015625)"/>
       <path id="DejaVuSans-74" d="M 1172 4494 
L 1172 3500 
L 2356 3500 
L 2356 3053 
L 1172 3053 
L 1172 1153 
Q 1172 725 1289 603 
Q 1406 481 1766 481 
L 2356 481 
L 2356 0 
L 1766 0 
Q 1100 0 847 248 
Q 594 497 594 1153 
L 594 3053 
L 172 3053 
L 172 3500 
L 594 3500 
L 594 4494 
L 1172 4494 
z
" transform="scale(0.015625)"/>
       <path id="DejaVuSans-69" d="M 603 3500 
L 1178 3500 
L 1178 0 
L 603 0 
L 603 3500 
z
M 603 4863 
L 1178 4863 
L 1178 4134 
L 603 4134 
L 603 4863 
z
" transform="scale(0.015625)"/>
       <path id="DejaVuSans-6f" d="M 1959 3097 
Q 1497 3097 1228 2736 
Q 959 2375 959 1747 
Q 959 1119 1226 758 
Q 1494 397 1959 397 
Q 2419 397 2687 759 
Q 2956 1122 2956 1747 
Q 2956 2369 2687 2733 
Q 2419 3097 1959 3097 
z
M 1959 3584 
Q 2709 3584 3137 3096 
Q 3566 2609 3566 1747 
Q 3566 888 3137 398 
Q 2709 -91 1959 -91 
Q 1206 -91 779 398 
Q 353 888 353 1747 
Q 353 2609 779 3096 
Q 1206 3584 1959 3584 
z
" transform="scale(0.015625)"/>
      </defs>
      <use xlink:href="#DejaVuSans-47"/>
      <use xlink:href="#DejaVuSans-65" x="77.490234"/>
      <use xlink:href="#DejaVuSans-6e" x="139.013672"/>
      <use xlink:href="#DejaVuSans-65" x="202.392578"/>
      <use xlink:href="#DejaVuSans-72" x="263.916016"/>
      <use xlink:href="#DejaVuSans-61" x="305.029297"/>
      <use xlink:href="#DejaVuSans-74" x="366.308594"/>
      <use xlink:href="#DejaVuSans-69" x="405.517578"/>
      <use xlink:href="#DejaVuSans-6f" x="433.300781"/>
      <use xlink:href="#DejaVuSans-6e" x="494.482422"/>
     </g>
    </g>
   </g>
   <g id="matplotlib.axis_2">
    <g id="ytick_1">
     <g id="line2d_6">
      <path d="M 53.31 307.691433 
L 341.13495 307.691433 
" clip-path="url(#pe74a7daece)" style="fill: none; stroke: #ffffff; stroke-linecap: round"/>
     </g>
     <g id="text_7">
      <!-- 0 -->
      <g style="fill: #262626" transform="translate(36.81125 311.870574)scale(0.11 -0.11)">
       <use xlink:href="#DejaVuSans-30"/>
      </g>
     </g>
    </g>
    <g id="ytick_2">
     <g id="line2d_7">
      <path d="M 53.31 259.570815 
L 341.13495 259.570815 
" clip-path="url(#pe74a7daece)" style="fill: none; stroke: #ffffff; stroke-linecap: round"/>
     </g>
     <g id="text_8">
      <!-- 100 -->
      <g style="fill: #262626" transform="translate(22.81375 263.749956)scale(0.11 -0.11)">
       <use xlink:href="#DejaVuSans-31"/>
       <use xlink:href="#DejaVuSans-30" x="63.623047"/>
       <use xlink:href="#DejaVuSans-30" x="127.246094"/>
      </g>
     </g>
    </g>
    <g id="ytick_3">
     <g id="line2d_8">
      <path d="M 53.31 211.450198 
L 341.13495 211.450198 
" clip-path="url(#pe74a7daece)" style="fill: none; stroke: #ffffff; stroke-linecap: round"/>
     </g>
     <g id="text_9">
      <!-- 200 -->
      <g style="fill: #262626" transform="translate(22.81375 215.629338)scale(0.11 -0.11)">
       <use xlink:href="#DejaVuSans-32"/>
       <use xlink:href="#DejaVuSans-30" x="63.623047"/>
       <use xlink:href="#DejaVuSans-30" x="127.246094"/>
      </g>
     </g>
    </g>
    <g id="ytick_4">
     <g id="line2d_9">
      <path d="M 53.31 163.32958 
L 341.13495 163.32958 
" clip-path="url(#pe74a7daece)" style="fill: none; stroke: #ffffff; stroke-linecap: round"/>
     </g>
     <g id="text_10">
      <!-- 300 -->
      <g style="fill: #262626" transform="translate(22.81375 167.508721)scale(0.11 -0.11)">
       <defs>
        <path id="DejaVuSans-33" d="M 2597 2516 
Q 3050 2419 3304 2112 
Q 3559 1806 3559 1356 
Q 3559 666 3084 287 
Q 2609 -91 1734 -91 
Q 1441 -91 1130 -33 
Q 819 25 488 141 
L 488 750 
Q 750 597 1062 519 
Q 1375 441 1716 441 
Q 2309 441 2620 675 
Q 2931 909 2931 1356 
Q 2931 1769 2642 2001 
Q 2353 2234 1838 2234 
L 1294 2234 
L 1294 2753 
L 1863 2753 
Q 2328 2753 2575 2939 
Q 2822 3125 2822 3475 
Q 2822 3834 2567 4026 
Q 2313 4219 1838 4219 
Q 1578 4219 1281 4162 
Q 984 4106 628 3988 
L 628 4550 
Q 988 4650 1302 4700 
Q 1616 4750 1894 4750 
Q 2613 4750 3031 4423 
Q 3450 4097 3450 3541 
Q 3450 3153 3228 2886 
Q 3006 2619 2597 2516 
z
" transform="scale(0.015625)"/>
       </defs>
       <use xlink:href="#DejaVuSans-33"/>
       <use xlink:href="#DejaVuSans-30" x="63.623047"/>
       <use xlink:href="#DejaVuSans-30" x="127.246094"/>
      </g>
     </g>
    </g>
    <g id="ytick_5">
     <g id="line2d_10">
      <path d="M 53.31 115.208962 
L 341.13495 115.208962 
" clip-path="url(#pe74a7daece)" style="fill: none; stroke: #ffffff; stroke-linecap: round"/>
     </g>
     <g id="text_11">
      <!-- 400 -->
      <g style="fill: #262626" transform="translate(22.81375 119.388103)scale(0.11 -0.11)">
       <defs>
        <path id="DejaVuSans-34" d="M 2419 4116 
L 825 1625 
L 2419 1625 
L 2419 4116 
z
M 2253 4666 
L 3047 4666 
L 3047 1625 
L 3713 1625 
L 3713 1100 
L 3047 1100 
L 3047 0 
L 2419 0 
L 2419 1100 
L 313 1100 
L 313 1709 
L 2253 4666 
z
" transform="scale(0.015625)"/>
       </defs>
       <use xlink:href="#DejaVuSans-34"/>
       <use xlink:href="#DejaVuSans-30" x="63.623047"/>
       <use xlink:href="#DejaVuSans-30" x="127.246094"/>
      </g>
     </g>
    </g>
    <g id="ytick_6">
     <g id="line2d_11">
      <path d="M 53.31 67.088345 
L 341.13495 67.088345 
" clip-path="url(#pe74a7daece)" style="fill: none; stroke: #ffffff; stroke-linecap: round"/>
     </g>
     <g id="text_12">
      <!-- 500 -->
      <g style="fill: #262626" transform="translate(22.81375 71.267485)scale(0.11 -0.11)">
       <use xlink:href="#DejaVuSans-35"/>
       <use xlink:href="#DejaVuSans-30" x="63.623047"/>
       <use xlink:href="#DejaVuSans-30" x="127.246094"/>
      </g>
     </g>
    </g>
    <g id="text_13">
     <!-- Fitness -->
     <g style="fill: #262626" transform="translate(16.318125 191.50875)rotate(-90)scale(0.12 -0.12)">
      <defs>
       <path id="DejaVuSans-46" d="M 628 4666 
L 3309 4666 
L 3309 4134 
L 1259 4134 
L 1259 2759 
L 3109 2759 
L 3109 2228 
L 1259 2228 
L 1259 0 
L 628 0 
L 628 4666 
z
" transform="scale(0.015625)"/>
       <path id="DejaVuSans-73" d="M 2834 3397 
L 2834 2853 
Q 2591 2978 2328 3040 
Q 2066 3103 1784 3103 
Q 1356 3103 1142 2972 
Q 928 2841 928 2578 
Q 928 2378 1081 2264 
Q 1234 2150 1697 2047 
L 1894 2003 
Q 2506 1872 2764 1633 
Q 3022 1394 3022 966 
Q 3022 478 2636 193 
Q 2250 -91 1575 -91 
Q 1294 -91 989 -36 
Q 684 19 347 128 
L 347 722 
Q 666 556 975 473 
Q 1284 391 1588 391 
Q 1994 391 2212 530 
Q 2431 669 2431 922 
Q 2431 1156 2273 1281 
Q 2116 1406 1581 1522 
L 1381 1569 
Q 847 1681 609 1914 
Q 372 2147 372 2553 
Q 372 3047 722 3315 
Q 1072 3584 1716 3584 
Q 2034 3584 2315 3537 
Q 2597 3491 2834 3397 
z
" transform="scale(0.015625)"/>
      </defs>
      <use xlink:href="#DejaVuSans-46"/>
      <use xlink:href="#DejaVuSans-69" x="50.269531"/>
      <use xlink:href="#DejaVuSans-74" x="78.052734"/>
      <use xlink:href="#DejaVuSans-6e" x="117.261719"/>
      <use xlink:href="#DejaVuSans-65" x="180.640625"/>
      <use xlink:href="#DejaVuSans-73" x="242.164062"/>
      <use xlink:href="#DejaVuSans-73" x="294.263672"/>
     </g>
    </g>
   </g>
   <g id="PolyCollection_1">
    <defs>
     <path id="m8b4d01b3a4" d="M 66.392952 -68.813617 
L 66.392952 -60.661308 
L 67.707822 -68.616623 
L 69.022691 -79.68399 
L 70.337561 -85.819744 
L 71.652431 -84.826881 
L 72.9673 -82.794912 
L 74.28217 -87.532913 
L 75.597039 -90.991583 
L 76.911909 -95.008151 
L 78.226778 -91.214517 
L 79.541648 -99.908935 
L 80.856518 -99.458556 
L 82.171387 -94.269424 
L 83.486257 -87.398702 
L 84.801126 -90.645716 
L 86.115996 -92.722421 
L 87.430865 -88.978036 
L 88.745735 -89.383677 
L 90.060605 -88.1957 
L 91.375474 -88.94796 
L 92.690344 -89.035931 
L 94.005213 -92.511518 
L 95.320083 -92.961897 
L 96.634953 -96.526582 
L 97.949822 -92.721669 
L 99.264692 -95.082963 
L 100.579561 -93.049491 
L 101.894431 -90.646468 
L 103.2093 -90.361503 
L 104.52417 -91.894972 
L 105.83904 -93.308139 
L 107.153909 -95.188603 
L 108.468779 -93.57957 
L 109.783648 -94.616043 
L 111.098518 -97.098014 
L 112.413387 -95.489357 
L 113.728257 -98.796897 
L 115.043127 -94.165664 
L 116.357996 -90.646844 
L 117.672866 -98.647272 
L 118.987735 -93.849496 
L 120.302605 -96.466431 
L 121.617474 -96.99275 
L 122.932344 -94.435966 
L 124.247214 -100.405555 
L 125.562083 -94.431079 
L 126.876953 -97.12433 
L 128.191822 -99.594271 
L 129.506692 -99.728858 
L 130.821561 -96.211166 
L 132.136431 -95.413416 
L 133.451301 -96.767185 
L 134.76617 -92.600992 
L 136.08104 -94.690855 
L 137.395909 -93.08107 
L 138.710779 -96.029962 
L 140.025648 -95.081083 
L 141.340518 -95.369055 
L 142.655388 -95.277701 
L 143.970257 -98.180728 
L 145.285127 -100.015326 
L 146.599996 -98.26945 
L 147.914866 -95.699133 
L 149.229736 -100.31608 
L 150.544605 -94.421681 
L 151.859475 -94.902511 
L 153.174344 -93.382952 
L 154.489214 -95.383717 
L 155.804083 -97.667943 
L 157.118953 -99.699535 
L 158.433823 -93.819797 
L 159.748692 -99.518707 
L 161.063562 -96.962299 
L 162.378431 -93.383704 
L 163.693301 -94.329199 
L 165.00817 -95.007775 
L 166.32304 -100.196155 
L 167.63791 -98.932237 
L 168.952779 -100.421344 
L 170.267649 -93.218665 
L 171.582518 -95.924698 
L 172.897388 -97.473204 
L 174.212257 -94.450252 
L 175.527127 -96.857787 
L 176.841997 -96.451017 
L 178.156866 -102.057821 
L 179.471736 -102.255943 
L 180.786605 -102.419102 
L 182.101475 -100.119838 
L 183.416344 -104.299941 
L 184.731214 -101.878121 
L 186.046084 -102.40632 
L 187.360953 -105.368745 
L 188.675823 -101.170973 
L 189.990692 -102.436019 
L 191.305562 -106.932665 
L 192.620431 -106.676273 
L 193.935301 -110.751111 
L 195.250171 -110.932692 
L 196.56504 -110.481185 
L 197.87991 -113.96993 
L 199.194779 -110.059378 
L 200.509649 -103.481891 
L 201.824519 -109.669901 
L 203.139388 -114.164668 
L 204.454258 -115.247382 
L 205.769127 -112.931953 
L 207.083997 -113.021803 
L 208.398866 -116.718068 
L 209.713736 -119.594779 
L 211.028606 -118.96282 
L 212.343475 -118.181236 
L 213.658345 -115.473699 
L 214.973214 -117.398524 
L 216.288084 -119.865081 
L 217.602953 -113.759026 
L 218.917823 -119.068083 
L 220.232693 -114.451136 
L 221.547562 -119.066204 
L 222.862432 -110.614268 
L 224.177301 -113.338347 
L 225.492171 -115.35227 
L 226.80704 -111.969165 
L 228.12191 -122.316601 
L 229.43678 -120.69253 
L 230.751649 -114.91768 
L 232.066519 -117.474088 
L 233.381388 -121.534641 
L 234.696258 -118.405297 
L 236.011127 -116.253779 
L 237.325997 -112.690222 
L 238.640867 -118.632366 
L 239.955736 -115.519564 
L 241.270606 -116.916942 
L 242.585475 -114.314669 
L 243.900345 -109.112379 
L 245.215214 -119.157558 
L 246.530084 -109.396967 
L 247.844954 -117.834993 
L 249.159823 -114.060532 
L 250.474693 -117.549652 
L 251.789562 -115.30866 
L 253.104432 -110.839458 
L 254.419302 -120.903058 
L 255.734171 -111.458259 
L 257.049041 -110.827052 
L 258.36391 -111.489086 
L 259.67878 -118.647404 
L 260.993649 -120.045158 
L 262.308519 -112.837967 
L 263.623389 -112.947366 
L 264.938258 -113.125563 
L 266.253128 -115.097005 
L 267.567997 -118.060934 
L 268.882867 -116.330847 
L 270.197736 -109.759752 
L 271.512606 -113.850004 
L 272.827476 -115.835355 
L 274.142345 -117.248899 
L 275.457215 -113.472934 
L 276.772084 -111.03382 
L 278.086954 -115.684227 
L 279.401823 -117.743639 
L 280.716693 -115.955657 
L 282.031563 -116.086485 
L 283.346432 -117.338373 
L 284.661302 -116.767692 
L 285.976171 -121.579754 
L 287.291041 -124.030898 
L 288.60591 -124.662481 
L 289.92078 -118.286499 
L 291.23565 -124.662481 
L 292.550519 -116.600774 
L 293.865389 -114.195871 
L 295.180258 -118.556426 
L 296.495128 -119.579365 
L 297.809997 -117.819203 
L 299.124867 -117.865444 
L 300.439737 -117.85003 
L 301.754606 -128.526792 
L 303.069476 -118.730487 
L 304.384345 -119.156806 
L 305.699215 -116.990626 
L 307.014085 -125.052709 
L 308.328954 -118.27071 
L 309.643824 -125.019626 
L 310.958693 -127.242949 
L 312.273563 -115.112418 
L 313.588432 -119.652298 
L 314.903302 -126.989564 
L 316.218172 -132.103884 
L 317.533041 -134.102769 
L 318.847911 -145.127278 
L 320.16278 -131.215908 
L 321.47765 -138.929492 
L 322.792519 -129.78056 
L 324.107389 -142.841548 
L 325.422259 -139.111825 
L 326.737128 -131.425308 
L 328.051998 -137.924599 
L 328.051998 -151.911533 
L 328.051998 -151.911533 
L 326.737128 -151.385214 
L 325.422259 -153.790493 
L 324.107389 -155.000651 
L 322.792519 -149.806256 
L 321.47765 -153.811545 
L 320.16278 -151.158896 
L 318.847911 -155.56494 
L 317.533041 -152.169429 
L 316.218172 -150.772428 
L 314.903302 -147.148344 
L 313.588432 -142.673126 
L 312.273563 -138.512572 
L 310.958693 -145.266 
L 309.643824 -142.016355 
L 308.328954 -138.711822 
L 307.014085 -140.527623 
L 305.699215 -136.470454 
L 304.384345 -136.664816 
L 303.069476 -136.573462 
L 301.754606 -142.017107 
L 300.439737 -133.098627 
L 299.124867 -132.498623 
L 297.809997 -130.619663 
L 296.495128 -130.558761 
L 295.180258 -130.364023 
L 293.865389 -126.603471 
L 292.550519 -126.857984 
L 291.23565 -128.063631 
L 289.92078 -127.639944 
L 288.60591 -124.978273 
L 287.291041 -124.978273 
L 285.976171 -124.873009 
L 284.661302 -124.662481 
L 283.346432 -124.451954 
L 282.031563 -124.662481 
L 280.716693 -124.451954 
L 279.401823 -124.21135 
L 278.086954 -124.060974 
L 276.772084 -122.046299 
L 275.457215 -123.221118 
L 274.142345 -123.489541 
L 272.827476 -122.707581 
L 271.512606 -123.550068 
L 270.197736 -121.07148 
L 268.882867 -123.15984 
L 267.567997 -123.700069 
L 266.253128 -124.03165 
L 264.938258 -122.347428 
L 263.623389 -122.963598 
L 262.308519 -123.790295 
L 260.993649 -124.000823 
L 259.67878 -123.940672 
L 258.36391 -122.46773 
L 257.049041 -121.836899 
L 255.734171 -122.347804 
L 254.419302 -124.242178 
L 253.104432 -121.444415 
L 251.789562 -122.948184 
L 250.474693 -124.060974 
L 249.159823 -124.421878 
L 247.844954 -124.106463 
L 246.530084 -122.151562 
L 245.215214 -123.776009 
L 243.900345 -121.038773 
L 242.585475 -123.565857 
L 241.270606 -124.060974 
L 239.955736 -124.064733 
L 238.640867 -124.21135 
L 237.325997 -123.474503 
L 236.011127 -124.784287 
L 234.696258 -124.512104 
L 233.381388 -124.662481 
L 232.066519 -124.045936 
L 230.751649 -124.196313 
L 229.43678 -124.662481 
L 228.12191 -124.662481 
L 226.80704 -123.499316 
L 225.492171 -123.609843 
L 224.177301 -122.632393 
L 222.862432 -121.053435 
L 221.547562 -123.850446 
L 220.232693 -122.827883 
L 218.917823 -123.685407 
L 217.602953 -122.588031 
L 216.288084 -124.061349 
L 214.973214 -124.272253 
L 213.658345 -124.062853 
L 212.343475 -124.888047 
L 211.028606 -124.73767 
L 209.713736 -124.662481 
L 208.398866 -124.662481 
L 207.083997 -123.189163 
L 205.769127 -122.78277 
L 204.454258 -123.15984 
L 203.139388 -121.730507 
L 201.824519 -119.235378 
L 200.509649 -117.35529 
L 199.194779 -120.842907 
L 197.87991 -122.437279 
L 196.56504 -121.219225 
L 195.250171 -120.752681 
L 193.935301 -119.806434 
L 192.620431 -116.979348 
L 191.305562 -116.07671 
L 189.990692 -114.603016 
L 188.675823 -113.146992 
L 187.360953 -114.738356 
L 186.046084 -112.678944 
L 184.731214 -112.27255 
L 183.416344 -112.97857 
L 182.101475 -111.475552 
L 180.786605 -111.429311 
L 179.471736 -112.033075 
L 178.156866 -110.918782 
L 176.841997 -106.060855 
L 175.527127 -107.475902 
L 174.212257 -104.379641 
L 172.897388 -105.80559 
L 171.582518 -104.407837 
L 170.267649 -104.963479 
L 168.952779 -109.806368 
L 167.63791 -107.806355 
L 166.32304 -107.308983 
L 165.00817 -104.527762 
L 163.693301 -104.42325 
L 162.378431 -102.557824 
L 161.063562 -104.979269 
L 159.748692 -107.925905 
L 158.433823 -104.903329 
L 157.118953 -107.354473 
L 155.804083 -107.098456 
L 154.489214 -105.67401 
L 153.174344 -103.640162 
L 151.859475 -105.670627 
L 150.544605 -105.910478 
L 149.229736 -110.512764 
L 147.914866 -106.557475 
L 146.599996 -108.543954 
L 145.285127 -108.633428 
L 143.970257 -107.161614 
L 142.655388 -104.167609 
L 141.340518 -104.15182 
L 140.025648 -104.91799 
L 138.710779 -105.565363 
L 137.395909 -104.663477 
L 136.08104 -104.769493 
L 134.76617 -101.233756 
L 133.451301 -106.166495 
L 132.136431 -103.264596 
L 130.821561 -106.017622 
L 129.506692 -106.196946 
L 128.191822 -109.564637 
L 126.876953 -105.730402 
L 125.562083 -104.406709 
L 124.247214 -109.805241 
L 122.932344 -106.30221 
L 121.617474 -106.828529 
L 120.302605 -105.92702 
L 118.987735 -103.26422 
L 117.672866 -105.582656 
L 116.357996 -101.610074 
L 115.043127 -104.692801 
L 113.728257 -110.091333 
L 112.413387 -108.422525 
L 111.098518 -108.482299 
L 109.783648 -105.822883 
L 108.468779 -104.256708 
L 107.153909 -101.204432 
L 105.83904 -101.745037 
L 104.52417 -102.002182 
L 103.2093 -100.076229 
L 101.894431 -103.158956 
L 100.579561 -105.11348 
L 99.264692 -103.990541 
L 97.949822 -102.121355 
L 96.634953 -102.121731 
L 95.320083 -101.038641 
L 94.005213 -101.039393 
L 92.690344 -98.602535 
L 91.375474 -97.850275 
L 90.060605 -98.361556 
L 88.745735 -99.176223 
L 87.430865 -97.459671 
L 86.115996 -102.469854 
L 84.801126 -99.745024 
L 83.486257 -99.068328 
L 82.171387 -103.655576 
L 80.856518 -110.559381 
L 79.541648 -111.203746 
L 78.226778 -104.496935 
L 76.911909 -102.918353 
L 75.597039 -99.008553 
L 74.28217 -97.955914 
L 72.9673 -93.550622 
L 71.652431 -96.61756 
L 70.337561 -95.930713 
L 69.022691 -90.242706 
L 67.707822 -79.911811 
L 66.392952 -68.813617 
z
" style="stroke: #edd1cb; stroke-opacity: 0.2"/>
    </defs>
    <g clip-path="url(#pe74a7daece)">
     <use xlink:href="#m8b4d01b3a4" x="0" y="362.097812" style="fill: #edd1cb; fill-opacity: 0.2; stroke: #edd1cb; stroke-opacity: 0.2"/>
    </g>
   </g>
   <g id="PolyCollection_2">
    <defs>
     <path id="m4b8086deed" d="M 66.392952 -70.143325 
L 66.392952 -59.29363 
L 67.707822 -76.812166 
L 69.022691 -91.066771 
L 70.337561 -88.37352 
L 71.652431 -97.87847 
L 72.9673 -100.867212 
L 74.28217 -91.937078 
L 75.597039 -96.405904 
L 76.911909 -94.390477 
L 78.226778 -94.902511 
L 79.541648 -101.865339 
L 80.856518 -98.601783 
L 82.171387 -100.329238 
L 83.486257 -100.435254 
L 84.801126 -99.288254 
L 86.115996 -107.218005 
L 87.430865 -110.390207 
L 88.745735 -111.080437 
L 90.060605 -94.628073 
L 91.375474 -99.413819 
L 92.690344 -90.675791 
L 94.005213 -89.544957 
L 95.320083 -96.375829 
L 96.634953 -108.617263 
L 97.949822 -104.179264 
L 99.264692 -106.767251 
L 100.579561 -103.502192 
L 101.894431 -99.636753 
L 103.2093 -97.443505 
L 104.52417 -96.405152 
L 105.83904 -96.766809 
L 107.153909 -100.103297 
L 108.468779 -106.646573 
L 109.783648 -109.133432 
L 111.098518 -121.20306 
L 112.413387 -125.504592 
L 113.728257 -137.248278 
L 115.043127 -137.679108 
L 116.357996 -125.392561 
L 117.672866 -140.748677 
L 118.987735 -140.856573 
L 120.302605 -147.488195 
L 121.617474 -149.422419 
L 122.932344 -150.435959 
L 124.247214 -159.360078 
L 125.562083 -161.309339 
L 126.876953 -170.78083 
L 128.191822 -177.098165 
L 129.506692 -173.593631 
L 130.821561 -154.646513 
L 132.136431 -158.353305 
L 133.451301 -170.495866 
L 134.76617 -169.30864 
L 136.08104 -161.397686 
L 137.395909 -161.325505 
L 138.710779 -172.948514 
L 140.025648 -171.428203 
L 141.340518 -179.941041 
L 142.655388 -171.489857 
L 143.970257 -175.790638 
L 145.285127 -176.662448 
L 146.599996 -171.022937 
L 147.914866 -162.432655 
L 149.229736 -166.572532 
L 150.544605 -168.899239 
L 151.859475 -175.082362 
L 153.174344 -183.504974 
L 154.489214 -179.489534 
L 155.804083 -198.394546 
L 157.118953 -193.753162 
L 158.433823 -180.345931 
L 159.748692 -197.517472 
L 161.063562 -208.350626 
L 162.378431 -208.867171 
L 163.693301 -244.437706 
L 165.00817 -233.969968 
L 166.32304 -227.97068 
L 167.63791 -244.591843 
L 168.952779 -240.03091 
L 170.267649 -244.573045 
L 171.582518 -246.753511 
L 172.897388 -246.340726 
L 174.212257 -247.580584 
L 175.527127 -248.091866 
L 176.841997 -245.261772 
L 178.156866 -252.603173 
L 179.471736 -242.015134 
L 180.786605 -239.911361 
L 182.101475 -237.204576 
L 183.416344 -251.683243 
L 184.731214 -246.665916 
L 186.046084 -261.263381 
L 187.360953 -269.914566 
L 188.675823 -235.424113 
L 189.990692 -231.884992 
L 191.305562 -244.06026 
L 192.620431 -265.230324 
L 193.935301 -251.399406 
L 195.250171 -261.756241 
L 196.56504 -233.068082 
L 197.87991 -230.614307 
L 199.194779 -252.503925 
L 200.509649 -236.781641 
L 201.824519 -255.183642 
L 203.139388 -261.80549 
L 204.454258 -262.707375 
L 205.769127 -241.710621 
L 207.083997 -256.731396 
L 208.398866 -264.617538 
L 209.713736 -237.383524 
L 211.028606 -238.960227 
L 212.343475 -234.663206 
L 213.658345 -239.309477 
L 214.973214 -282.865027 
L 216.288084 -267.204397 
L 217.602953 -268.995763 
L 218.917823 -280.212378 
L 220.232693 -264.89536 
L 221.547562 -252.503925 
L 222.862432 -247.008776 
L 224.177301 -267.331842 
L 225.492171 -273.174738 
L 226.80704 -260.497586 
L 228.12191 -265.637094 
L 229.43678 -271.445403 
L 230.751649 -265.949126 
L 232.066519 -271.908564 
L 233.381388 -257.533281 
L 234.696258 -278.227402 
L 236.011127 -300.242585 
L 237.325997 -268.72358 
L 238.640867 -280.337943 
L 239.955736 -265.831832 
L 241.270606 -259.167127 
L 242.585475 -276.122125 
L 243.900345 -240.268882 
L 245.215214 -251.368955 
L 246.530084 -246.120424 
L 247.844954 -255.729886 
L 249.159823 -262.764519 
L 250.474693 -281.224415 
L 251.789562 -274.639409 
L 253.104432 -257.308844 
L 254.419302 -227.024058 
L 255.734171 -262.700984 
L 257.049041 -253.924987 
L 258.36391 -227.939853 
L 259.67878 -264.105129 
L 260.993649 -250.746018 
L 262.308519 -252.552045 
L 263.623389 -253.334005 
L 264.938258 -264.620546 
L 266.253128 -296.813991 
L 267.567997 -253.008439 
L 268.882867 -265.114534 
L 270.197736 -259.397955 
L 271.512606 -248.419311 
L 272.827476 -282.889087 
L 274.142345 -255.263341 
L 275.457215 -270.246147 
L 276.772084 -269.325088 
L 278.086954 -263.000234 
L 279.401823 -268.482977 
L 280.716693 -283.031945 
L 282.031563 -252.436631 
L 283.346432 -260.542324 
L 284.661302 -262.573164 
L 285.976171 -288.874089 
L 287.291041 -271.260439 
L 288.60591 -272.975864 
L 289.92078 -292.347796 
L 291.23565 -283.089089 
L 292.550519 -258.708101 
L 293.865389 -272.437891 
L 295.180258 -233.429363 
L 296.495128 -257.834787 
L 297.809997 -275.812725 
L 299.124867 -277.440179 
L 300.439737 -270.122086 
L 301.754606 -265.981457 
L 303.069476 -243.213638 
L 304.384345 -248.142994 
L 305.699215 -262.587826 
L 307.014085 -259.625024 
L 308.328954 -264.952879 
L 309.643824 -275.787161 
L 310.958693 -243.007622 
L 312.273563 -264.692727 
L 313.588432 -256.39192 
L 314.903302 -236.948183 
L 316.218172 -240.984676 
L 317.533041 -249.17082 
L 318.847911 -297.039556 
L 320.16278 -271.884503 
L 321.47765 -245.368539 
L 322.792519 -285.625947 
L 324.107389 -274.257451 
L 325.422259 -289.622214 
L 326.737128 -254.632134 
L 328.051998 -267.798762 
L 328.051998 -300.66364 
L 328.051998 -300.66364 
L 326.737128 -299.114758 
L 325.422259 -305.656154 
L 324.107389 -304.753893 
L 322.792519 -306.558416 
L 321.47765 -296.678652 
L 320.16278 -302.678691 
L 318.847911 -306.558416 
L 317.533041 -296.317747 
L 316.218172 -287.554156 
L 314.903302 -287.747766 
L 313.588432 -298.410618 
L 312.273563 -302.960272 
L 310.958693 -297.09106 
L 309.643824 -306.558416 
L 308.328954 -303.397117 
L 307.014085 -300.01702 
L 305.699215 -302.505758 
L 304.384345 -292.905695 
L 303.069476 -287.012423 
L 301.754606 -300.60349 
L 300.439737 -301.686204 
L 299.124867 -305.656154 
L 297.809997 -305.656154 
L 296.495128 -302.006506 
L 295.180258 -292.590279 
L 293.865389 -306.558416 
L 292.550519 -301.851618 
L 291.23565 -306.558416 
L 289.92078 -306.558416 
L 288.60591 -306.558416 
L 287.291041 -305.656154 
L 285.976171 -305.656154 
L 284.661302 -299.971907 
L 283.346432 -299.385436 
L 282.031563 -297.311363 
L 280.716693 -304.753893 
L 279.401823 -304.753893 
L 278.086954 -299.325286 
L 276.772084 -303.490727 
L 275.457215 -301.866656 
L 274.142345 -300.968906 
L 272.827476 -305.656154 
L 271.512606 -296.874142 
L 270.197736 -297.475649 
L 268.882867 -297.956856 
L 267.567997 -297.957983 
L 266.253128 -306.137361 
L 264.938258 -301.4456 
L 263.623389 -296.289176 
L 262.308519 -298.25761 
L 260.993649 -297.239934 
L 259.67878 -299.340323 
L 258.36391 -278.754474 
L 257.049041 -294.835031 
L 255.734171 -299.580927 
L 254.419302 -285.171433 
L 253.104432 -299.927169 
L 251.789562 -306.137361 
L 250.474693 -306.137361 
L 249.159823 -302.588465 
L 247.844954 -301.204997 
L 246.530084 -292.442158 
L 245.215214 -295.015483 
L 243.900345 -288.499651 
L 242.585475 -306.558416 
L 241.270606 -303.656141 
L 239.955736 -302.064777 
L 238.640867 -306.558416 
L 237.325997 -302.468164 
L 236.011127 -306.558416 
L 234.696258 -306.558416 
L 233.381388 -300.062133 
L 232.066519 -306.558416 
L 230.751649 -302.768917 
L 229.43678 -301.58094 
L 228.12191 -299.82153 
L 226.80704 -300.498226 
L 225.492171 -305.656154 
L 224.177301 -305.678711 
L 222.862432 -296.197446 
L 221.547562 -299.731303 
L 220.232693 -303.656141 
L 218.917823 -306.558416 
L 217.602953 -303.874188 
L 216.288084 -303.851631 
L 214.973214 -305.656154 
L 213.658345 -296.814367 
L 212.343475 -289.509808 
L 211.028606 -291.574483 
L 209.713736 -290.999667 
L 208.398866 -298.859117 
L 207.083997 -297.054594 
L 205.769127 -286.90979 
L 204.454258 -296.633539 
L 203.139388 -294.218485 
L 201.824519 -288.498899 
L 200.509649 -284.669174 
L 199.194779 -288.513184 
L 197.87991 -276.34957 
L 196.56504 -279.129664 
L 195.250171 -284.904138 
L 193.935301 -282.021412 
L 192.620431 -282.197353 
L 191.305562 -275.821372 
L 189.990692 -274.979261 
L 188.675823 -271.461192 
L 187.360953 -284.001877 
L 186.046084 -280.39283 
L 184.731214 -279.490569 
L 183.416344 -283.099615 
L 182.101475 -274.257451 
L 180.786605 -275.252947 
L 179.471736 -275.889041 
L 178.156866 -278.588307 
L 176.841997 -274.016848 
L 175.527127 -277.686045 
L 174.212257 -277.686045 
L 172.897388 -277.686045 
L 171.582518 -277.686045 
L 170.267649 -277.686045 
L 168.952779 -272.57323 
L 167.63791 -274.738658 
L 166.32304 -272.485259 
L 165.00817 -270.093514 
L 163.693301 -274.03527 
L 162.378431 -260.815634 
L 161.063562 -261.430299 
L 159.748692 -250.455415 
L 158.433823 -235.535768 
L 157.118953 -235.616595 
L 155.804083 -232.181986 
L 154.489214 -212.738625 
L 153.174344 -212.362307 
L 151.859475 -200.602831 
L 150.544605 -196.635888 
L 149.229736 -192.768945 
L 147.914866 -191.490741 
L 146.599996 -191.672697 
L 145.285127 -195.674227 
L 143.970257 -192.031346 
L 142.655388 -192.031346 
L 141.340518 -192.031346 
L 140.025648 -188.542601 
L 138.710779 -189.760654 
L 137.395909 -186.318902 
L 136.08104 -185.206489 
L 134.76617 -188.407262 
L 133.451301 -187.865905 
L 132.136431 -183.476402 
L 130.821561 -182.563614 
L 129.506692 -190.317049 
L 128.191822 -189.777196 
L 126.876953 -188.108764 
L 125.562083 -185.506115 
L 124.247214 -182.513614 
L 122.932344 -174.276342 
L 121.617474 -169.446987 
L 120.302605 -170.395865 
L 118.987735 -163.822138 
L 117.672866 -158.335635 
L 116.357996 -150.034453 
L 115.043127 -153.973201 
L 113.728257 -149.98934 
L 112.413387 -141.445674 
L 111.098518 -137.415573 
L 109.783648 -131.265908 
L 108.468779 -124.154583 
L 107.153909 -117.47484 
L 105.83904 -116.858295 
L 104.52417 -113.810906 
L 103.2093 -114.410534 
L 101.894431 -117.205665 
L 100.579561 -121.28088 
L 99.264692 -125.164364 
L 97.949822 -124.083906 
L 96.634953 -126.227153 
L 95.320083 -118.045896 
L 94.005213 -111.716531 
L 92.690344 -110.286823 
L 91.375474 -117.68612 
L 90.060605 -116.709045 
L 88.745735 -124.43842 
L 87.430865 -126.964376 
L 86.115996 -124.634286 
L 84.801126 -118.500035 
L 83.486257 -117.777849 
L 82.171387 -118.41056 
L 80.856518 -117.492133 
L 79.541648 -118.045896 
L 78.226778 -113.944366 
L 76.911909 -113.459776 
L 75.597039 -113.340602 
L 74.28217 -109.430802 
L 72.9673 -114.39512 
L 71.652431 -112.559394 
L 70.337561 -104.59092 
L 69.022691 -103.535274 
L 67.707822 -91.594594 
L 66.392952 -70.143325 
z
" style="stroke: #d499a7; stroke-opacity: 0.2"/>
    </defs>
    <g clip-path="url(#pe74a7daece)">
     <use xlink:href="#m4b8086deed" x="0" y="362.097812" style="fill: #d499a7; fill-opacity: 0.2; stroke: #d499a7; stroke-opacity: 0.2"/>
    </g>
   </g>
   <g id="PolyCollection_3">
    <defs>
     <path id="m662bb04833" d="M 66.392952 -63.489146 
L 66.392952 -56.451506 
L 67.707822 -70.494831 
L 69.022691 -78.346011 
L 70.337561 -81.592649 
L 71.652431 -83.323863 
L 72.9673 -83.156569 
L 74.28217 -84.240035 
L 75.597039 -87.398702 
L 76.911909 -89.323527 
L 78.226778 -99.335247 
L 79.541648 -95.832592 
L 80.856518 -94.0604 
L 82.171387 -96.81117 
L 83.486257 -93.428065 
L 84.801126 -93.635585 
L 86.115996 -87.410732 
L 87.430865 -95.23334 
L 88.745735 -104.614605 
L 90.060605 -105.472129 
L 91.375474 -108.343201 
L 92.690344 -111.037955 
L 94.005213 -122.316601 
L 95.320083 -127.970774 
L 96.634953 -126.827909 
L 97.949822 -129.685071 
L 99.264692 -127.098588 
L 100.579561 -129.685071 
L 101.894431 -125.079025 
L 103.2093 -126.166251 
L 104.52417 -123.8121 
L 105.83904 -122.734649 
L 107.153909 -122.70119 
L 108.468779 -127.937315 
L 109.783648 -130.091088 
L 111.098518 -128.346716 
L 112.413387 -130.091088 
L 113.728257 -124.34669 
L 115.043127 -127.639193 
L 116.357996 -127.233927 
L 117.672866 -128.542206 
L 118.987735 -129.685071 
L 120.302605 -128.542206 
L 121.617474 -127.053474 
L 122.932344 -127.053474 
L 124.247214 -125.639555 
L 125.562083 -125.579781 
L 126.876953 -124.54218 
L 128.191822 -131.399368 
L 129.506692 -130.572295 
L 130.821561 -123.727889 
L 132.136431 -130.076051 
L 133.451301 -128.572281 
L 134.76617 -127.534305 
L 136.08104 -124.43654 
L 137.395909 -127.639193 
L 138.710779 -125.487299 
L 140.025648 -127.895585 
L 141.340518 -129.128676 
L 142.655388 -130.903124 
L 143.970257 -125.369253 
L 145.285127 -123.36924 
L 146.599996 -128.737696 
L 147.914866 -131.399368 
L 149.229736 -131.399368 
L 150.544605 -128.061 
L 151.859475 -131.399368 
L 153.174344 -131.399368 
L 154.489214 -131.399368 
L 155.804083 -126.88806 
L 157.118953 -121.775244 
L 158.433823 -131.399368 
L 159.748692 -131.399368 
L 161.063562 -131.399368 
L 162.378431 -131.399368 
L 163.693301 -131.399368 
L 165.00817 -129.685071 
L 166.32304 -129.685071 
L 167.63791 -129.685071 
L 168.952779 -121.519603 
L 170.267649 -126.827909 
L 171.582518 -126.827909 
L 172.897388 -126.735803 
L 174.212257 -129.354241 
L 175.527127 -129.685071 
L 176.841997 -129.685071 
L 178.156866 -131.399368 
L 179.471736 -125.534667 
L 180.786605 -127.880548 
L 182.101475 -124.492931 
L 183.416344 -124.508721 
L 184.731214 -127.023399 
L 186.046084 -123.608715 
L 187.360953 -124.826392 
L 188.675823 -127.052723 
L 189.990692 -127.113249 
L 191.305562 -124.436916 
L 192.620431 -124.000823 
L 193.935301 -122.039156 
L 195.250171 -126.060987 
L 196.56504 -129.670785 
L 197.87991 -129.685071 
L 199.194779 -129.685071 
L 200.509649 -128.542206 
L 201.824519 -127.970774 
L 203.139388 -126.256477 
L 204.454258 -119.276731 
L 205.769127 -129.685071 
L 207.083997 -126.707607 
L 208.398866 -131.399368 
L 209.713736 -124.181275 
L 211.028606 -127.925661 
L 212.343475 -131.399368 
L 213.658345 -131.399368 
L 214.973214 -127.700095 
L 216.288084 -126.557231 
L 217.602953 -129.685071 
L 218.917823 -129.685071 
L 220.232693 -129.685071 
L 221.547562 -128.542206 
L 222.862432 -123.880521 
L 224.177301 -126.044069 
L 225.492171 -129.354241 
L 226.80704 -125.384291 
L 228.12191 -126.527155 
L 229.43678 -125.71512 
L 230.751649 -125.713616 
L 232.066519 -127.880548 
L 233.381388 -126.587306 
L 234.696258 -123.36924 
L 236.011127 -124.090673 
L 237.325997 -124.54218 
L 238.640867 -129.459505 
L 239.955736 -129.098601 
L 241.270606 -125.173763 
L 242.585475 -120.474108 
L 243.900345 -121.727124 
L 245.215214 -123.669242 
L 246.530084 -126.076024 
L 247.844954 -124.301577 
L 249.159823 -124.1512 
L 250.474693 -120.963209 
L 251.789562 -125.790308 
L 253.104432 -124.497067 
L 254.419302 -121.715093 
L 255.734171 -122.421489 
L 257.049041 -126.271514 
L 258.36391 -128.898599 
L 259.67878 -121.624867 
L 260.993649 -125.624894 
L 262.308519 -129.685071 
L 263.623389 -124.179771 
L 264.938258 -127.549718 
L 266.253128 -124.510225 
L 267.567997 -123.309089 
L 268.882867 -121.730131 
L 270.197736 -125.564743 
L 271.512606 -127.242573 
L 272.827476 -120.840652 
L 274.142345 -123.248938 
L 275.457215 -122.104946 
L 276.772084 -127.113625 
L 278.086954 -127.880548 
L 279.401823 -125.534667 
L 280.716693 -131.399368 
L 282.031563 -130.903124 
L 283.346432 -130.572295 
L 284.661302 -129.685071 
L 285.976171 -126.557231 
L 287.291041 -124.241426 
L 288.60591 -125.294064 
L 289.92078 -131.399368 
L 291.23565 -131.399368 
L 292.550519 -129.098601 
L 293.865389 -129.098601 
L 295.180258 -127.880548 
L 296.495128 -131.399368 
L 297.809997 -127.700095 
L 299.124867 -127.700095 
L 300.439737 -131.399368 
L 301.754606 -126.076024 
L 303.069476 -131.399368 
L 304.384345 -131.399368 
L 305.699215 -127.880548 
L 307.014085 -123.697061 
L 308.328954 -126.045949 
L 309.643824 -126.467004 
L 310.958693 -130.091088 
L 312.273563 -126.30159 
L 313.588432 -130.091088 
L 314.903302 -129.459505 
L 316.218172 -129.459505 
L 317.533041 -131.399368 
L 318.847911 -123.639918 
L 320.16278 -128.196339 
L 321.47765 -131.399368 
L 322.792519 -121.549679 
L 324.107389 -122.06096 
L 325.422259 -131.399368 
L 326.737128 -129.098601 
L 328.051998 -127.955736 
L 328.051998 -131.399368 
L 328.051998 -131.399368 
L 326.737128 -131.399368 
L 325.422259 -131.399368 
L 324.107389 -131.399368 
L 322.792519 -131.399368 
L 321.47765 -131.399368 
L 320.16278 -131.399368 
L 318.847911 -131.399368 
L 317.533041 -131.399368 
L 316.218172 -131.399368 
L 314.903302 -131.399368 
L 313.588432 -131.399368 
L 312.273563 -131.399368 
L 310.958693 -131.399368 
L 309.643824 -131.399368 
L 308.328954 -131.399368 
L 307.014085 -131.399368 
L 305.699215 -131.399368 
L 304.384345 -131.399368 
L 303.069476 -131.399368 
L 301.754606 -131.399368 
L 300.439737 -131.399368 
L 299.124867 -131.399368 
L 297.809997 -131.399368 
L 296.495128 -131.399368 
L 295.180258 -131.399368 
L 293.865389 -131.399368 
L 292.550519 -131.399368 
L 291.23565 -131.399368 
L 289.92078 -131.399368 
L 288.60591 -130.256503 
L 287.291041 -130.827935 
L 285.976171 -131.399368 
L 284.661302 -131.399368 
L 283.346432 -131.399368 
L 282.031563 -131.399368 
L 280.716693 -131.399368 
L 279.401823 -131.399368 
L 278.086954 -131.399368 
L 276.772084 -131.399368 
L 275.457215 -129.687326 
L 274.142345 -130.361767 
L 272.827476 -130.542219 
L 271.512606 -131.399368 
L 270.197736 -131.399368 
L 268.882867 -129.609882 
L 267.567997 -130.361767 
L 266.253128 -130.827935 
L 264.938258 -131.399368 
L 263.623389 -131.399368 
L 262.308519 -131.399368 
L 260.993649 -131.399368 
L 259.67878 -131.399368 
L 258.36391 -131.399368 
L 257.049041 -131.008388 
L 255.734171 -130.436955 
L 254.419302 -130.061013 
L 253.104432 -130.827935 
L 251.789562 -131.399368 
L 250.474693 -131.399368 
L 249.159823 -131.399368 
L 247.844954 -131.399368 
L 246.530084 -131.399368 
L 245.215214 -131.399368 
L 243.900345 -131.399368 
L 242.585475 -130.632445 
L 241.270606 -131.399368 
L 239.955736 -131.399368 
L 238.640867 -131.399368 
L 237.325997 -130.752747 
L 236.011127 -130.752747 
L 234.696258 -131.399368 
L 233.381388 -131.399368 
L 232.066519 -131.399368 
L 230.751649 -131.399368 
L 229.43678 -131.399368 
L 228.12191 -131.399368 
L 226.80704 -131.399368 
L 225.492171 -131.399368 
L 224.177301 -131.399368 
L 222.862432 -131.399368 
L 221.547562 -131.399368 
L 220.232693 -131.399368 
L 218.917823 -131.399368 
L 217.602953 -131.399368 
L 216.288084 -131.399368 
L 214.973214 -131.399368 
L 213.658345 -131.399368 
L 212.343475 -131.399368 
L 211.028606 -131.399368 
L 209.713736 -131.399368 
L 208.398866 -131.399368 
L 207.083997 -131.399368 
L 205.769127 -131.399368 
L 204.454258 -131.399368 
L 203.139388 -130.827935 
L 201.824519 -131.399368 
L 200.509649 -131.399368 
L 199.194779 -131.399368 
L 197.87991 -131.399368 
L 196.56504 -131.399368 
L 195.250171 -131.399368 
L 193.935301 -131.399368 
L 192.620431 -131.399368 
L 191.305562 -131.399368 
L 189.990692 -131.399368 
L 188.675823 -131.233953 
L 187.360953 -130.79786 
L 186.046084 -130.497106 
L 184.731214 -130.963275 
L 183.416344 -130.963275 
L 182.101475 -131.399368 
L 180.786605 -131.399368 
L 179.471736 -131.399368 
L 178.156866 -131.399368 
L 176.841997 -131.399368 
L 175.527127 -131.399368 
L 174.212257 -131.399368 
L 172.897388 -131.399368 
L 171.582518 -131.399368 
L 170.267649 -131.399368 
L 168.952779 -130.827935 
L 167.63791 -131.399368 
L 166.32304 -131.399368 
L 165.00817 -131.399368 
L 163.693301 -131.399368 
L 162.378431 -131.399368 
L 161.063562 -131.399368 
L 159.748692 -131.399368 
L 158.433823 -131.399368 
L 157.118953 -131.399368 
L 155.804083 -131.399368 
L 154.489214 -131.399368 
L 153.174344 -131.399368 
L 151.859475 -131.399368 
L 150.544605 -131.399368 
L 149.229736 -131.399368 
L 147.914866 -131.399368 
L 146.599996 -131.399368 
L 145.285127 -130.752747 
L 143.970257 -131.399368 
L 142.655388 -131.399368 
L 141.340518 -131.399368 
L 140.025648 -131.068538 
L 138.710779 -131.068538 
L 137.395909 -130.903124 
L 136.08104 -129.925674 
L 134.76617 -130.737709 
L 133.451301 -130.903124 
L 132.136431 -131.233953 
L 130.821561 -130.737709 
L 129.506692 -131.399368 
L 128.191822 -131.399368 
L 126.876953 -131.399368 
L 125.562083 -131.399368 
L 124.247214 -131.399368 
L 122.932344 -131.399368 
L 121.617474 -131.399368 
L 120.302605 -131.399368 
L 118.987735 -131.399368 
L 117.672866 -131.399368 
L 116.357996 -130.903124 
L 115.043127 -131.233953 
L 113.728257 -131.399368 
L 112.413387 -131.399368 
L 111.098518 -131.399368 
L 109.783648 -131.399368 
L 108.468779 -131.399368 
L 107.153909 -130.827935 
L 105.83904 -130.286578 
L 104.52417 -130.300112 
L 103.2093 -131.399368 
L 101.894431 -131.399368 
L 100.579561 -131.399368 
L 99.264692 -131.399368 
L 97.949822 -131.399368 
L 96.634953 -130.827935 
L 95.320083 -131.399368 
L 94.005213 -130.963275 
L 92.690344 -126.331665 
L 91.375474 -122.489911 
L 90.060605 -120.137263 
L 88.745735 -118.151536 
L 87.430865 -110.59096 
L 86.115996 -104.755583 
L 84.801126 -110.181559 
L 83.486257 -108.483427 
L 82.171387 -110.331936 
L 80.856518 -109.03907 
L 79.541648 -109.639826 
L 78.226778 -111.357882 
L 76.911909 -103.582643 
L 75.597039 -99.278855 
L 74.28217 -96.40816 
L 72.9673 -93.478441 
L 71.652431 -94.52732 
L 70.337561 -92.603248 
L 69.022691 -87.851712 
L 67.707822 -80.290009 
L 66.392952 -63.489146 
z
" style="stroke: #a9678f; stroke-opacity: 0.2"/>
    </defs>
    <g clip-path="url(#pe74a7daece)">
     <use xlink:href="#m662bb04833" x="0" y="362.097812" style="fill: #a9678f; fill-opacity: 0.2; stroke: #a9678f; stroke-opacity: 0.2"/>
    </g>
   </g>
   <g id="PolyCollection_4">
    <defs>
     <path id="ma2031e3822" d="M 66.392952 -63.609824 
L 66.392952 -57.459031 
L 67.707822 -65.669236 
L 69.022691 -76.209155 
L 70.337561 -82.316338 
L 71.652431 -92.241215 
L 72.9673 -95.504394 
L 74.28217 -96.253648 
L 75.597039 -95.895374 
L 76.911909 -95.578079 
L 78.226778 -90.149848 
L 79.541648 -102.917225 
L 80.856518 -101.066837 
L 82.171387 -109.865015 
L 83.486257 -120.429371 
L 84.801126 -133.454268 
L 86.115996 -158.583381 
L 87.430865 -219.968372 
L 88.745735 -226.091345 
L 90.060605 -241.161745 
L 91.375474 -213.044266 
L 92.690344 -232.712065 
L 94.005213 -256.197182 
L 95.320083 -258.603213 
L 96.634953 -243.727551 
L 97.949822 -264.631448 
L 99.264692 -229.215801 
L 100.579561 -250.015187 
L 101.894431 -245.763279 
L 103.2093 -265.825817 
L 104.52417 -288.994391 
L 105.83904 -256.99418 
L 107.153909 -266.618679 
L 108.468779 -295.490674 
L 109.783648 -268.418315 
L 111.098518 -290.016954 
L 112.413387 -290.573348 
L 113.728257 -297.114745 
L 115.043127 -270.42096 
L 116.357996 -259.17239 
L 117.672866 -268.493504 
L 118.987735 -293.265095 
L 120.302605 -308.483241 
L 121.617474 -308.483241 
L 122.932344 -291.701175 
L 124.247214 -308.483241 
L 125.562083 -277.881535 
L 126.876953 -257.699448 
L 128.191822 -279.355229 
L 129.506692 -275.084525 
L 130.821561 -276.197314 
L 132.136431 -247.467801 
L 133.451301 -252.511068 
L 134.76617 -276.889048 
L 136.08104 -271.430365 
L 137.395909 -289.265069 
L 138.710779 -277.204839 
L 140.025648 -280.874036 
L 141.340518 -297.832043 
L 142.655388 -269.678098 
L 143.970257 -302.16741 
L 145.285127 -271.956684 
L 146.599996 -258.855846 
L 147.914866 -249.038112 
L 149.229736 -304.693742 
L 150.544605 -302.16741 
L 151.859475 -275.50558 
L 153.174344 -304.693742 
L 154.489214 -279.61087 
L 155.804083 -247.759909 
L 157.118953 -270.669834 
L 158.433823 -263.499486 
L 159.748692 -302.16741 
L 161.063562 -253.689271 
L 162.378431 -254.677623 
L 163.693301 -261.357366 
L 165.00817 -285.746249 
L 166.32304 -264.520921 
L 167.63791 -288.167318 
L 168.952779 -272.843908 
L 170.267649 -273.021729 
L 171.582518 -287.271071 
L 172.897388 -251.525347 
L 174.212257 -242.986569 
L 175.527127 -281.340205 
L 176.841997 -303.250124 
L 178.156866 -273.821358 
L 179.471736 -290.077105 
L 180.786605 -276.708595 
L 182.101475 -308.483241 
L 183.416344 -290.122218 
L 184.731214 -308.483241 
L 186.046084 -280.256739 
L 187.360953 -270.934121 
L 188.675823 -276.919123 
L 189.990692 -261.580676 
L 191.305562 -288.317694 
L 192.620431 -276.28754 
L 193.935301 -267.221315 
L 195.250171 -285.556774 
L 196.56504 -241.51889 
L 197.87991 -276.789799 
L 199.194779 -287.550772 
L 200.509649 -268.798769 
L 201.824519 -305.596004 
L 203.139388 -304.633591 
L 204.454258 -303.671179 
L 205.769127 -288.107167 
L 207.083997 -282.15224 
L 208.398866 -264.357762 
L 209.713736 -265.531078 
L 211.028606 -290.031991 
L 212.343475 -287.647013 
L 213.658345 -305.596004 
L 214.973214 -261.232554 
L 216.288084 -291.701175 
L 217.602953 -280.874036 
L 218.917823 -308.483241 
L 220.232693 -308.483241 
L 221.547562 -242.51025 
L 222.862432 -279.405606 
L 224.177301 -283.640972 
L 225.492171 -283.807138 
L 226.80704 -274.828884 
L 228.12191 -308.483241 
L 229.43678 -308.483241 
L 230.751649 -274.91911 
L 232.066519 -276.783784 
L 233.381388 -290.438009 
L 234.696258 -258.64607 
L 236.011127 -289.039504 
L 237.325997 -308.483241 
L 238.640867 -266.521686 
L 239.955736 -267.385226 
L 241.270606 -281.189828 
L 242.585475 -294.949317 
L 243.900345 -289.535748 
L 245.215214 -259.590062 
L 246.530084 -266.392362 
L 247.844954 -248.422695 
L 249.159823 -238.10571 
L 250.474693 -263.008505 
L 251.789562 -298.498213 
L 253.104432 -281.412386 
L 254.419302 -274.011961 
L 255.734171 -284.301503 
L 257.049041 -256.225002 
L 258.36391 -272.227363 
L 259.67878 -308.483241 
L 260.993649 -287.099641 
L 262.308519 -277.528902 
L 263.623389 -258.046818 
L 264.938258 -254.974994 
L 266.253128 -278.031912 
L 267.567997 -278.663496 
L 268.882867 -276.48303 
L 270.197736 -263.0664 
L 271.512606 -300.332811 
L 272.827476 -264.942728 
L 274.142345 -255.294545 
L 275.457215 -270.407802 
L 276.772084 -305.596004 
L 278.086954 -273.445416 
L 279.401823 -233.908689 
L 280.716693 -247.59111 
L 282.031563 -238.317365 
L 283.346432 -274.678507 
L 284.661302 -297.069632 
L 285.976171 -278.513119 
L 287.291041 -288.949278 
L 288.60591 -289.265069 
L 289.92078 -289.265069 
L 291.23565 -308.483241 
L 292.550519 -271.520591 
L 293.865389 -285.656023 
L 295.180258 -256.621245 
L 296.495128 -290.483122 
L 297.809997 -277.039425 
L 299.124867 -285.069553 
L 300.439737 -291.701175 
L 301.754606 -264.752878 
L 303.069476 -269.595767 
L 304.384345 -278.107101 
L 305.699215 -247.293364 
L 307.014085 -253.562202 
L 308.328954 -224.827427 
L 309.643824 -236.09517 
L 310.958693 -258.221256 
L 312.273563 -254.354689 
L 313.588432 -290.663575 
L 314.903302 -261.274659 
L 316.218172 -259.836304 
L 317.533041 -280.874036 
L 318.847911 -308.483241 
L 320.16278 -308.483241 
L 321.47765 -277.986799 
L 322.792519 -271.79127 
L 324.107389 -255.308079 
L 325.422259 -260.537812 
L 326.737128 -272.96421 
L 328.051998 -300.362887 
L 328.051998 -308.483241 
L 328.051998 -308.483241 
L 326.737128 -308.483241 
L 325.422259 -304.182461 
L 324.107389 -302.483201 
L 322.792519 -308.483241 
L 321.47765 -308.483241 
L 320.16278 -308.483241 
L 318.847911 -308.483241 
L 317.533041 -308.483241 
L 316.218172 -303.069671 
L 314.903302 -304.182461 
L 313.588432 -308.483241 
L 312.273563 -301.12041 
L 310.958693 -303.069671 
L 309.643824 -295.202326 
L 308.328954 -287.626336 
L 307.014085 -302.919294 
L 305.699215 -301.510263 
L 304.384345 -308.483241 
L 303.069476 -308.483241 
L 301.754606 -308.483241 
L 300.439737 -308.483241 
L 299.124867 -308.483241 
L 297.809997 -308.483241 
L 296.495128 -308.483241 
L 295.180258 -302.483201 
L 293.865389 -308.483241 
L 292.550519 -308.483241 
L 291.23565 -308.483241 
L 289.92078 -308.483241 
L 288.60591 -308.483241 
L 287.291041 -308.483241 
L 285.976171 -308.483241 
L 284.661302 -308.483241 
L 283.346432 -308.483241 
L 282.031563 -294.332772 
L 280.716693 -300.535068 
L 279.401823 -289.988006 
L 278.086954 -308.483241 
L 276.772084 -308.483241 
L 275.457215 -308.483241 
L 274.142345 -301.979439 
L 272.827476 -306.408039 
L 271.512606 -308.483241 
L 270.197736 -306.408039 
L 268.882867 -308.483241 
L 267.567997 -308.483241 
L 266.253128 -308.483241 
L 264.938258 -297.656102 
L 263.623389 -303.069671 
L 262.308519 -308.483241 
L 260.993649 -308.483241 
L 259.67878 -308.483241 
L 258.36391 -308.483241 
L 257.049041 -301.490714 
L 255.734171 -308.483241 
L 254.419302 -307.520828 
L 253.104432 -305.596004 
L 251.789562 -307.520828 
L 250.474693 -301.626053 
L 249.159823 -291.786138 
L 247.844954 -295.791428 
L 246.530084 -300.513263 
L 245.215214 -300.362887 
L 243.900345 -308.483241 
L 242.585475 -308.483241 
L 241.270606 -308.483241 
L 239.955736 -308.483241 
L 238.640867 -308.483241 
L 237.325997 -308.483241 
L 236.011127 -308.483241 
L 234.696258 -302.468164 
L 233.381388 -308.483241 
L 232.066519 -308.483241 
L 230.751649 -308.483241 
L 229.43678 -308.483241 
L 228.12191 -308.483241 
L 226.80704 -308.483241 
L 225.492171 -308.483241 
L 224.177301 -308.483241 
L 222.862432 -308.483241 
L 221.547562 -296.663614 
L 220.232693 -308.483241 
L 218.917823 -308.483241 
L 217.602953 -308.483241 
L 216.288084 -308.483241 
L 214.973214 -303.069671 
L 213.658345 -308.483241 
L 212.343475 -308.483241 
L 211.028606 -308.483241 
L 209.713736 -307.520828 
L 208.398866 -307.520828 
L 207.083997 -308.483241 
L 205.769127 -308.483241 
L 204.454258 -308.483241 
L 203.139388 -308.483241 
L 201.824519 -308.483241 
L 200.509649 -306.558416 
L 199.194779 -308.483241 
L 197.87991 -308.483241 
L 196.56504 -294.686533 
L 195.250171 -308.483241 
L 193.935301 -308.483241 
L 192.620431 -308.483241 
L 191.305562 -308.483241 
L 189.990692 -304.182461 
L 188.675823 -308.483241 
L 187.360953 -308.483241 
L 186.046084 -308.483241 
L 184.731214 -308.483241 
L 183.416344 -308.483241 
L 182.101475 -308.483241 
L 180.786605 -308.483241 
L 179.471736 -308.483241 
L 178.156866 -308.483241 
L 176.841997 -308.483241 
L 175.527127 -308.483241 
L 174.212257 -296.037294 
L 172.897388 -297.957232 
L 171.582518 -308.483241 
L 170.267649 -307.520828 
L 168.952779 -307.520828 
L 167.63791 -308.483241 
L 166.32304 -308.483241 
L 165.00817 -308.483241 
L 163.693301 -308.483241 
L 162.378431 -308.483241 
L 161.063562 -301.204997 
L 159.748692 -308.483241 
L 158.433823 -305.415551 
L 157.118953 -305.063669 
L 155.804083 -299.776417 
L 154.489214 -308.483241 
L 153.174344 -308.483241 
L 151.859475 -307.220075 
L 150.544605 -308.483241 
L 149.229736 -308.483241 
L 147.914866 -298.070014 
L 146.599996 -302.062146 
L 145.285127 -307.220075 
L 143.970257 -308.483241 
L 142.655388 -307.220075 
L 141.340518 -308.483241 
L 140.025648 -308.483241 
L 138.710779 -308.483241 
L 137.395909 -308.483241 
L 136.08104 -308.483241 
L 134.76617 -308.483241 
L 133.451301 -296.89933 
L 132.136431 -302.062146 
L 130.821561 -308.483241 
L 129.506692 -308.483241 
L 128.191822 -308.483241 
L 126.876953 -302.483201 
L 125.562083 -308.483241 
L 124.247214 -308.483241 
L 122.932344 -308.483241 
L 121.617474 -308.483241 
L 120.302605 -308.483241 
L 118.987735 -308.483241 
L 117.672866 -305.235099 
L 116.357996 -301.986957 
L 115.043127 -305.235099 
L 113.728257 -308.483241 
L 112.413387 -306.85917 
L 111.098518 -306.85917 
L 109.783648 -303.611028 
L 108.468779 -306.85917 
L 107.153909 -303.611028 
L 105.83904 -299.069645 
L 104.52417 -303.611028 
L 103.2093 -295.490674 
L 101.894431 -285.821437 
L 100.579561 -285.746249 
L 99.264692 -272.866841 
L 97.949822 -282.964276 
L 96.634953 -273.219851 
L 95.320083 -276.467992 
L 94.005213 -270.347651 
L 92.690344 -264.413402 
L 91.375474 -257.700951 
L 90.060605 -264.208137 
L 88.745735 -263.97806 
L 87.430865 -258.093811 
L 86.115996 -213.07171 
L 84.801126 -184.066256 
L 83.486257 -163.76537 
L 82.171387 -142.3235 
L 80.856518 -126.561366 
L 79.541648 -118.333868 
L 78.226778 -106.663115 
L 76.911909 -110.092085 
L 75.597039 -107.805603 
L 74.28217 -108.166508 
L 72.9673 -108.333426 
L 71.652431 -105.971381 
L 70.337561 -95.986353 
L 69.022691 -87.101708 
L 67.707822 -74.333202 
L 66.392952 -63.609824 
z
" style="stroke: #6c3f70; stroke-opacity: 0.2"/>
    </defs>
    <g clip-path="url(#pe74a7daece)">
     <use xlink:href="#ma2031e3822" x="0" y="362.097812" style="fill: #6c3f70; fill-opacity: 0.2; stroke: #6c3f70; stroke-opacity: 0.2"/>
    </g>
   </g>
   <g id="PolyCollection_5">
    <defs>
     <path id="m5b74a8df77" d="M 66.392952 -68.392938 
L 66.392952 -58.766559 
L 67.707822 -76.601262 
L 69.022691 -87.233287 
L 70.337561 -86.8096 
L 71.652431 -90.841206 
L 72.9673 -96.493123 
L 74.28217 -101.202552 
L 75.597039 -99.593143 
L 76.911909 -101.743909 
L 78.226778 -115.305277 
L 79.541648 -108.701098 
L 80.856518 -112.149241 
L 82.171387 -115.290991 
L 83.486257 -117.564314 
L 84.801126 -125.907226 
L 86.115996 -128.37604 
L 87.430865 -108.842828 
L 88.745735 -114.703769 
L 90.060605 -121.078999 
L 91.375474 -113.322557 
L 92.690344 -127.214754 
L 94.005213 -139.367465 
L 95.320083 -143.095685 
L 96.634953 -131.458015 
L 97.949822 -133.653894 
L 99.264692 -148.179553 
L 100.579561 -165.998092 
L 101.894431 -160.584898 
L 103.2093 -154.266436 
L 104.52417 -181.892181 
L 105.83904 -197.709955 
L 107.153909 -208.387469 
L 108.468779 -209.517175 
L 109.783648 -217.033766 
L 111.098518 -241.798591 
L 112.413387 -233.180865 
L 113.728257 -230.1128 
L 115.043127 -248.000512 
L 116.357996 -255.204694 
L 117.672866 -221.438307 
L 118.987735 -245.429066 
L 120.302605 -271.437508 
L 121.617474 -260.059238 
L 122.932344 -264.326559 
L 124.247214 -305.429461 
L 125.562083 -291.776364 
L 126.876953 -298.407986 
L 128.191822 -309.415578 
L 129.506692 -296.693689 
L 130.821561 -278.104845 
L 132.136431 -285.051883 
L 133.451301 -263.840841 
L 134.76617 -293.25908 
L 136.08104 -314.979524 
L 137.395909 -287.189867 
L 138.710779 -285.956777 
L 140.025648 -289.610936 
L 141.340518 -282.325174 
L 142.655388 -252.274976 
L 143.970257 -247.939985 
L 145.285127 -285.275569 
L 146.599996 -291.776364 
L 147.914866 -267.3153 
L 149.229736 -260.586685 
L 150.544605 -268.307788 
L 151.859475 -281.324039 
L 153.174344 -259.30209 
L 154.489214 -260.91601 
L 155.804083 -297.204971 
L 157.118953 -257.380649 
L 158.433823 -248.101264 
L 159.748692 -285.385344 
L 161.063562 -292.356819 
L 162.378431 -301.078681 
L 163.693301 -273.710079 
L 165.00817 -281.289077 
L 166.32304 -290.949291 
L 167.63791 -269.291253 
L 168.952779 -266.9762 
L 170.267649 -285.665421 
L 171.582518 -263.801743 
L 172.897388 -264.75175 
L 174.212257 -252.119336 
L 175.527127 -281.805621 
L 176.841997 -277.568751 
L 178.156866 -288.690253 
L 179.471736 -299.325286 
L 180.786605 -293.858708 
L 182.101475 -294.54142 
L 183.416344 -282.961268 
L 184.731214 -283.490595 
L 186.046084 -272.842405 
L 187.360953 -256.913352 
L 188.675823 -258.336294 
L 189.990692 -255.082137 
L 191.305562 -264.912277 
L 192.620431 -273.121354 
L 193.935301 -247.078325 
L 195.250171 -282.227429 
L 196.56504 -277.198824 
L 197.87991 -287.351523 
L 199.194779 -296.687674 
L 200.509649 -255.880639 
L 201.824519 -277.203336 
L 203.139388 -271.940895 
L 204.454258 -265.999878 
L 205.769127 -262.554743 
L 207.083997 -246.706142 
L 208.398866 -257.195685 
L 209.713736 -271.24465 
L 211.028606 -274.870989 
L 212.343475 -272.143528 
L 213.658345 -274.674747 
L 214.973214 -287.078589 
L 216.288084 -284.506015 
L 217.602953 -294.964355 
L 218.917823 -298.524153 
L 220.232693 -286.077078 
L 221.547562 -284.359022 
L 222.862432 -275.952575 
L 224.177301 -256.536282 
L 225.492171 -259.594949 
L 226.80704 -262.53557 
L 228.12191 -279.142822 
L 229.43678 -260.919018 
L 230.751649 -288.862059 
L 232.066519 -266.104766 
L 233.381388 -279.684931 
L 234.696258 -281.563515 
L 236.011127 -268.98862 
L 237.325997 -285.531586 
L 238.640867 -281.187196 
L 239.955736 -296.887676 
L 241.270606 -287.908669 
L 242.585475 -289.268829 
L 243.900345 -256.629892 
L 245.215214 -261.482931 
L 246.530084 -299.453106 
L 247.844954 -293.064342 
L 249.159823 -304.683592 
L 250.474693 -285.051508 
L 251.789562 -275.819868 
L 253.104432 -278.489434 
L 254.419302 -270.212312 
L 255.734171 -295.639171 
L 257.049041 -275.723251 
L 258.36391 -270.643894 
L 259.67878 -255.482516 
L 260.993649 -272.873608 
L 262.308519 -301.382442 
L 263.623389 -265.853637 
L 264.938258 -293.316224 
L 266.253128 -280.510124 
L 267.567997 -277.983792 
L 268.882867 -261.563759 
L 270.197736 -250.52722 
L 271.512606 -251.093765 
L 272.827476 -269.385239 
L 274.142345 -264.373928 
L 275.457215 -285.848129 
L 276.772084 -239.12301 
L 278.086954 -227.339473 
L 279.401823 -241.999344 
L 280.716693 -233.385002 
L 282.031563 -263.444222 
L 283.346432 -259.439685 
L 284.661302 -247.947504 
L 285.976171 -256.22613 
L 287.291041 -268.943507 
L 288.60591 -288.513184 
L 289.92078 -273.337145 
L 291.23565 -275.637912 
L 292.550519 -237.879392 
L 293.865389 -256.100565 
L 295.180258 -292.362834 
L 296.495128 -260.295705 
L 297.809997 -280.039444 
L 299.124867 -284.928198 
L 300.439737 -291.137638 
L 301.754606 -301.024545 
L 303.069476 -297.750463 
L 304.384345 -277.09356 
L 305.699215 -273.208948 
L 307.014085 -290.919215 
L 308.328954 -288.627471 
L 309.643824 -313.295303 
L 310.958693 -267.561919 
L 312.273563 -323.881838 
L 313.588432 -279.545456 
L 314.903302 -256.430642 
L 316.218172 -290.438009 
L 317.533041 -275.514603 
L 318.847911 -279.760119 
L 320.16278 -291.063577 
L 321.47765 -294.629766 
L 322.792519 -312.814096 
L 324.107389 -312.814096 
L 325.422259 -292.513211 
L 326.737128 -305.114798 
L 328.051998 -292.0602 
L 328.051998 -324.603648 
L 328.051998 -324.603648 
L 326.737128 -325.325457 
L 325.422259 -325.084854 
L 324.107389 -325.56606 
L 322.792519 -325.56606 
L 321.47765 -324.603648 
L 320.16278 -324.363045 
L 318.847911 -316.429158 
L 317.533041 -319.791586 
L 316.218172 -320.272792 
L 314.903302 -307.855417 
L 313.588432 -319.31038 
L 312.273563 -325.56606 
L 310.958693 -317.39157 
L 309.643824 -326.287869 
L 308.328954 -325.325457 
L 307.014085 -325.084854 
L 305.699215 -319.791586 
L 304.384345 -320.272792 
L 303.069476 -324.363045 
L 301.754606 -324.122442 
L 300.439737 -324.844251 
L 299.124867 -321.722426 
L 297.809997 -320.453244 
L 296.495128 -314.26185 
L 295.180258 -320.038204 
L 293.865389 -308.875725 
L 292.550519 -292.438022 
L 291.23565 -316.663746 
L 289.92078 -320.513395 
L 288.60591 -321.716411 
L 287.291041 -313.301318 
L 285.976171 -305.438484 
L 284.661302 -303.871556 
L 283.346432 -309.446781 
L 282.031563 -311.129875 
L 280.716693 -294.082018 
L 279.401823 -297.780539 
L 278.086954 -288.874465 
L 276.772084 -296.567749 
L 275.457215 -321.65626 
L 274.142345 -314.105834 
L 272.827476 -313.295303 
L 271.512606 -306.560672 
L 270.197736 -299.317767 
L 268.882867 -307.986997 
L 267.567997 -319.373538 
L 266.253128 -320.633697 
L 264.938258 -319.009626 
L 263.623389 -310.859948 
L 262.308519 -320.453244 
L 260.993649 -315.710356 
L 259.67878 -305.296754 
L 258.36391 -311.683262 
L 257.049041 -315.159976 
L 255.734171 -320.516403 
L 254.419302 -314.260722 
L 253.104432 -318.350975 
L 251.789562 -315.941937 
L 250.474693 -320.513395 
L 249.159823 -321.415657 
L 247.844954 -320.033693 
L 246.530084 -320.513395 
L 245.215214 -309.808062 
L 243.900345 -308.485872 
L 242.585475 -319.732939 
L 241.270606 -318.769023 
L 239.955736 -319.732939 
L 238.640867 -317.866761 
L 237.325997 -318.107364 
L 236.011127 -312.092287 
L 234.696258 -314.257715 
L 233.381388 -314.498318 
L 232.066519 -307.926846 
L 230.751649 -318.107364 
L 229.43678 -309.962198 
L 228.12191 -317.626158 
L 226.80704 -310.086635 
L 225.492171 -308.283991 
L 224.177301 -306.07721 
L 222.862432 -317.144952 
L 221.547562 -317.626158 
L 220.232693 -317.385555 
L 218.917823 -317.872776 
L 217.602953 -318.829174 
L 216.288084 -317.385555 
L 214.973214 -318.347967 
L 213.658345 -314.062225 
L 212.343475 -311.932888 
L 211.028606 -315.220127 
L 209.713736 -311.615216 
L 208.398866 -309.325352 
L 207.083997 -302.559893 
L 205.769127 -307.069698 
L 204.454258 -305.356153 
L 203.139388 -310.618593 
L 201.824519 -309.656933 
L 200.509649 -306.894133 
L 199.194779 -318.347967 
L 197.87991 -314.985539 
L 196.56504 -314.498318 
L 195.250171 -317.39157 
L 193.935301 -303.912534 
L 192.620431 -313.295303 
L 191.305562 -309.596406 
L 189.990692 -304.125317 
L 188.675823 -304.425319 
L 187.360953 -306.983231 
L 186.046084 -313.987788 
L 184.731214 -320.032189 
L 183.416344 -320.513395 
L 182.101475 -320.994601 
L 180.786605 -321.235204 
L 179.471736 -320.760013 
L 178.156866 -319.797601 
L 176.841997 -318.58857 
L 175.527127 -318.829174 
L 174.212257 -304.544493 
L 172.897388 -311.852812 
L 171.582518 -311.0701 
L 170.267649 -317.144952 
L 168.952779 -309.932874 
L 167.63791 -311.851684 
L 166.32304 -318.113379 
L 165.00817 -318.113379 
L 163.693301 -313.776509 
L 162.378431 -319.31038 
L 161.063562 -318.829174 
L 159.748692 -317.626158 
L 158.433823 -302.714782 
L 157.118953 -311.226116 
L 155.804083 -320.994601 
L 154.489214 -305.355401 
L 153.174344 -307.242255 
L 151.859475 -317.385555 
L 150.544605 -312.335146 
L 149.229736 -307.129848 
L 147.914866 -313.301318 
L 146.599996 -318.58857 
L 145.285127 -318.107364 
L 143.970257 -304.634343 
L 142.655388 -304.095994 
L 141.340518 -315.707349 
L 140.025648 -316.663746 
L 138.710779 -316.663746 
L 137.395909 -316.663746 
L 136.08104 -316.904349 
L 134.76617 -316.423143 
L 133.451301 -309.463322 
L 132.136431 -314.347941 
L 130.821561 -314.588544 
L 129.506692 -316.18254 
L 128.191822 -316.18254 
L 126.876953 -316.18254 
L 125.562083 -315.701333 
L 124.247214 -316.18254 
L 122.932344 -307.416316 
L 121.617474 -303.371177 
L 120.302605 -306.832854 
L 118.987735 -290.649665 
L 117.672866 -274.907832 
L 116.357996 -293.055696 
L 115.043127 -287.764683 
L 113.728257 -279.536058 
L 112.413387 -277.415367 
L 111.098518 -276.745062 
L 109.783648 -263.732946 
L 108.468779 -255.779886 
L 107.153909 -254.00995 
L 105.83904 -244.305374 
L 104.52417 -220.573263 
L 103.2093 -195.823476 
L 101.894431 -198.996429 
L 100.579561 -197.991912 
L 99.264692 -179.415473 
L 97.949822 -162.168367 
L 96.634953 -158.377365 
L 95.320083 -163.415368 
L 94.005213 -158.99391 
L 92.690344 -155.136366 
L 91.375474 -140.590406 
L 90.060605 -147.996845 
L 88.745735 -141.640037 
L 87.430865 -136.019323 
L 86.115996 -155.038621 
L 84.801126 -154.293128 
L 83.486257 -147.46 
L 82.171387 -144.076895 
L 80.856518 -139.760325 
L 79.541648 -133.896377 
L 78.226778 -135.422702 
L 76.911909 -120.769598 
L 75.597039 -121.519603 
L 74.28217 -121.793289 
L 72.9673 -114.275571 
L 71.652431 -104.15182 
L 70.337561 -102.212333 
L 69.022691 -96.97884 
L 67.707822 -88.662244 
L 66.392952 -68.392938 
z
" style="stroke: #2d1e3e; stroke-opacity: 0.2"/>
    </defs>
    <g clip-path="url(#pe74a7daece)">
     <use xlink:href="#m5b74a8df77" x="0" y="362.097812" style="fill: #2d1e3e; fill-opacity: 0.2; stroke: #2d1e3e; stroke-opacity: 0.2"/>
    </g>
   </g>
   <g id="line2d_12">
    <path d="M 66.392952 297.811669 
L 67.707822 288.232658 
L 69.022691 277.255142 
L 70.337561 271.315254 
L 71.652431 271.435555 
L 72.9673 274.157378 
L 74.28217 269.179901 
L 75.597039 267.134775 
L 76.911909 263.179862 
L 78.226778 264.202425 
L 79.541648 256.954257 
L 80.856518 257.164785 
L 83.486257 269.029524 
L 84.801126 267.059587 
L 86.115996 264.698669 
L 87.430865 268.608469 
L 88.745735 267.811471 
L 90.060605 268.834034 
L 91.375474 268.563356 
L 92.690344 268.47313 
L 94.005213 265.495666 
L 95.320083 264.668593 
L 96.634953 262.86407 
L 97.949822 264.864083 
L 99.264692 262.894146 
L 100.579561 263.089636 
L 101.894431 264.924234 
L 103.2093 267.014473 
L 104.52417 265.20995 
L 105.83904 264.367839 
L 108.468779 263.495653 
L 109.783648 261.721205 
L 111.098518 259.585853 
L 112.413387 259.976833 
L 113.728257 257.841481 
L 115.043127 262.909183 
L 116.357996 265.916722 
L 117.672866 259.841494 
L 118.987735 263.661068 
L 120.302605 260.578341 
L 121.617474 260.367813 
L 122.932344 261.375339 
L 124.247214 256.668541 
L 125.562083 262.518203 
L 126.876953 260.803906 
L 128.191822 257.405388 
L 130.821561 260.743755 
L 132.136431 262.894146 
L 133.451301 260.879095 
L 134.76617 265.194913 
L 136.08104 262.47309 
L 137.395909 263.104673 
L 138.710779 261.555791 
L 140.025648 262.157299 
L 142.655388 262.187374 
L 143.970257 259.495627 
L 145.285127 257.630953 
L 146.599996 258.849006 
L 147.914866 261.10466 
L 149.229736 256.683578 
L 150.544605 261.856545 
L 151.859475 261.856545 
L 153.174344 263.84152 
L 154.489214 261.375339 
L 155.804083 259.600891 
L 157.118953 258.578328 
L 158.433823 262.578354 
L 159.748692 258.397875 
L 161.063562 261.044509 
L 162.378431 264.006935 
L 163.693301 262.638505 
L 165.00817 262.067072 
L 166.32304 258.3678 
L 167.63791 258.713667 
L 168.952779 256.80388 
L 170.267649 262.86407 
L 171.582518 261.916696 
L 172.897388 260.412926 
L 174.212257 262.653542 
L 175.527127 260.067059 
L 176.841997 260.999396 
L 178.156866 255.540714 
L 179.471736 254.984319 
L 180.786605 255.059507 
L 182.101475 255.856505 
L 183.416344 253.300097 
L 184.731214 254.773791 
L 186.046084 254.442962 
L 187.360953 251.826403 
L 188.675823 254.698603 
L 189.990692 253.510625 
L 191.305562 250.638426 
L 192.620431 250.41286 
L 193.935301 246.728626 
L 195.250171 245.886515 
L 196.56504 246.066967 
L 197.87991 243.450408 
L 199.194779 246.337646 
L 200.509649 251.104594 
L 201.824519 247.269982 
L 203.139388 243.931615 
L 204.454258 242.713562 
L 205.769127 243.315069 
L 207.083997 243.17973 
L 208.398866 240.773699 
L 209.713736 239.495495 
L 211.028606 239.751136 
L 212.343475 239.690985 
L 213.658345 241.766187 
L 216.288084 239.916551 
L 217.602953 243.555672 
L 218.917823 240.503021 
L 220.232693 242.833863 
L 221.547562 240.292493 
L 222.862432 245.886515 
L 224.177301 243.630861 
L 225.492171 242.081978 
L 226.80704 243.96169 
L 228.12191 238.608271 
L 229.43678 238.818799 
L 230.751649 241.901526 
L 232.066519 241.014302 
L 233.381388 238.578196 
L 234.696258 240.097003 
L 236.011127 240.668435 
L 237.325997 243.630861 
L 238.640867 240.142116 
L 239.955736 241.706036 
L 241.270606 240.698511 
L 242.585475 242.638373 
L 243.900345 246.773739 
L 245.215214 240.307531 
L 246.530084 245.811326 
L 247.844954 240.653398 
L 249.159823 242.322581 
L 250.474693 240.713548 
L 251.789562 242.818825 
L 253.104432 245.269969 
L 254.419302 239.315043 
L 255.734171 244.488009 
L 257.049041 245.179743 
L 258.36391 244.54816 
L 259.67878 240.487983 
L 260.993649 239.766174 
L 262.308519 242.969202 
L 263.623389 243.751162 
L 264.938258 243.796275 
L 266.253128 242.066941 
L 267.567997 240.63836 
L 268.882867 241.916564 
L 270.197736 246.262457 
L 271.512606 242.894014 
L 272.827476 242.578222 
L 274.142345 241.089491 
L 275.457215 243.495522 
L 276.772084 244.683499 
L 278.086954 241.525584 
L 279.401823 240.44287 
L 280.716693 241.254905 
L 282.031563 240.984227 
L 284.661302 240.939114 
L 285.976171 238.427819 
L 287.291041 237.540595 
L 288.60591 237.330067 
L 289.92078 238.533083 
L 291.23565 236.232316 
L 292.550519 239.510533 
L 293.865389 241.284981 
L 295.180258 237.345105 
L 296.495128 237.134577 
L 297.809997 237.781198 
L 299.124867 236.563145 
L 300.439737 236.277429 
L 301.754606 227.149549 
L 303.069476 234.096963 
L 304.384345 233.781172 
L 305.699215 235.179677 
L 307.014085 229.239789 
L 308.328954 233.104476 
L 309.643824 228.247301 
L 310.958693 225.284875 
L 312.273563 234.863886 
L 313.588432 230.172126 
L 314.903302 224.66833 
L 316.218172 219.826193 
L 317.533041 218.41265 
L 318.847911 211.119368 
L 320.16278 219.600627 
L 321.47765 215.134433 
L 322.792519 221.450264 
L 324.107389 212.051705 
L 325.422259 214.683302 
L 326.737128 219.540477 
L 328.051998 216.5179 
L 328.051998 216.5179 
" clip-path="url(#pe74a7daece)" style="fill: none; stroke: #edd1cb; stroke-width: 1.5; stroke-linecap: round"/>
   </g>
   <g id="line2d_13">
    <path d="M 66.392952 298.142498 
L 67.707822 277.721311 
L 69.022691 265.029498 
L 70.337561 265.40544 
L 71.652431 256.442975 
L 72.9673 254.337698 
L 74.28217 261.570829 
L 75.597039 257.059521 
L 76.911909 257.931707 
L 78.226778 257.856518 
L 79.541648 252.247459 
L 80.856518 254.232434 
L 82.171387 252.728665 
L 83.486257 252.097082 
L 84.801126 252.89408 
L 86.115996 245.931628 
L 87.430865 242.78875 
L 88.745735 243.691012 
L 90.060605 256.067033 
L 91.375474 253.450474 
L 92.690344 261.224962 
L 94.005213 261.751281 
L 95.320083 254.743716 
L 96.634953 244.262444 
L 97.949822 247.600812 
L 99.264692 245.630874 
L 100.579561 249.17977 
L 101.894431 253.525663 
L 103.2093 256.006882 
L 104.52417 256.939219 
L 105.83904 255.330186 
L 107.153909 253.330173 
L 108.468779 246.30757 
L 109.783648 241.42032 
L 111.098518 232.412742 
L 112.413387 228.096924 
L 113.728257 218.27731 
L 115.043127 215.675789 
L 116.357996 223.69088 
L 117.672866 212.292309 
L 118.987735 209.465222 
L 120.302605 202.412544 
L 121.617474 202.036602 
L 122.932344 198.608008 
L 124.247214 190.247051 
L 125.562083 187.856057 
L 126.876953 181.209397 
L 128.191822 178.171783 
L 129.506692 179.119158 
L 130.821561 192.788421 
L 132.136431 190.247051 
L 133.451301 182.081583 
L 134.76617 182.547752 
L 136.08104 187.825982 
L 137.395909 187.389889 
L 138.710779 179.88608 
L 140.025648 181.284586 
L 141.340518 174.096568 
L 142.655388 177.886067 
L 143.970257 176.186808 
L 145.285127 175.961242 
L 146.599996 180.126683 
L 147.914866 183.60039 
L 149.229736 181.946244 
L 150.544605 179.540213 
L 151.859475 173.810852 
L 153.174344 164.517558 
L 154.489214 165.028839 
L 155.804083 147.058796 
L 157.118953 146.442251 
L 158.433823 153.179137 
L 159.748692 136.577524 
L 161.063562 124.261654 
L 162.378431 126.381968 
L 163.693301 102.020906 
L 165.00817 109.314187 
L 166.32304 110.622466 
L 167.63791 100.637438 
L 168.952779 104.231446 
L 170.267649 97.479522 
L 171.582518 96.727638 
L 172.897388 98.577274 
L 174.212257 96.532148 
L 175.527127 97.464485 
L 176.841997 100.953229 
L 178.156866 94.517097 
L 179.471736 100.6224 
L 182.101475 104.321673 
L 183.416344 91.945651 
L 184.731214 97.840427 
L 186.046084 89.464432 
L 187.360953 83.990712 
L 188.675823 106.562289 
L 189.990692 107.810417 
L 191.305562 101.855491 
L 192.620431 87.78021 
L 193.935301 93.103554 
L 195.250171 87.674946 
L 196.56504 105.404387 
L 197.87991 106.727703 
L 199.194779 88.742623 
L 200.509649 99.299083 
L 201.824519 89.659922 
L 203.139388 82.411754 
L 204.454258 80.757608 
L 205.769127 96.351695 
L 207.083997 81.689945 
L 208.398866 78.381652 
L 209.713736 94.306569 
L 211.028606 94.983265 
L 212.343475 97.29907 
L 213.658345 92.8028 
L 214.973214 65.058256 
L 216.288084 75.434264 
L 217.602953 73.359063 
L 218.917823 66.186083 
L 220.232693 76.366601 
L 221.547562 83.329053 
L 222.862432 89.058414 
L 224.177301 73.629741 
L 225.492171 71.178597 
L 226.80704 79.870384 
L 228.12191 77.434277 
L 229.43678 73.389138 
L 230.751649 76.787657 
L 232.066519 70.877843 
L 233.381388 81.584681 
L 234.696258 64.983068 
L 236.011127 57.644673 
L 237.325997 73.554553 
L 238.640867 65.238708 
L 239.955736 77.088411 
L 241.270606 78.261351 
L 242.585475 67.855267 
L 243.900345 96.065979 
L 245.215214 87.765173 
L 246.530084 91.329106 
L 247.844954 82.141075 
L 249.159823 77.329014 
L 250.474693 66.186083 
L 251.789562 68.261285 
L 253.104432 81.960623 
L 254.419302 104.547238 
L 255.734171 78.923009 
L 257.049041 85.915536 
L 258.36391 107.088608 
L 259.67878 78.411728 
L 260.993649 85.509519 
L 262.308519 83.464392 
L 263.623389 84.772672 
L 264.938258 77.058335 
L 266.253128 59.870252 
L 267.567997 83.750109 
L 268.882867 79.118499 
L 270.197736 82.336565 
L 271.512606 87.614796 
L 272.827476 65.930442 
L 274.142345 79.253838 
L 275.457215 74.87787 
L 276.772084 72.622216 
L 278.086954 78.847821 
L 279.401823 72.622216 
L 280.716693 65.479312 
L 282.031563 86.832836 
L 283.346432 79.298951 
L 284.661302 79.329027 
L 285.976171 63.238695 
L 287.291041 70.486863 
L 288.60591 68.998132 
L 289.92078 60.27627 
L 291.23565 65.825178 
L 292.550519 80.065874 
L 293.865389 69.719941 
L 295.180258 96.772751 
L 296.495128 79.268876 
L 297.809997 68.366549 
L 299.124867 68.727453 
L 300.439737 74.216211 
L 301.754606 77.780144 
L 303.069476 94.968228 
L 304.384345 91.178729 
L 305.699215 76.922996 
L 307.014085 79.359102 
L 308.328954 75.644792 
L 309.643824 67.479325 
L 310.958693 89.118565 
L 312.273563 74.922983 
L 313.588432 82.080925 
L 314.903302 96.847939 
L 316.218172 96.592298 
L 317.533041 87.118552 
L 318.847911 59.614611 
L 320.16278 72.953045 
L 321.47765 88.517057 
L 322.792519 62.81764 
L 324.107389 70.998145 
L 325.422259 62.968017 
L 326.737128 82.50198 
L 328.051998 76.772619 
L 328.051998 76.772619 
" clip-path="url(#pe74a7daece)" style="fill: none; stroke: #d499a7; stroke-width: 1.5; stroke-linecap: round"/>
   </g>
   <g id="line2d_14">
    <path d="M 66.392952 302.488391 
L 67.707822 286.924379 
L 69.022691 279.22508 
L 70.337561 274.969413 
L 71.652431 273.029551 
L 72.9673 273.901737 
L 75.597039 269.270127 
L 76.911909 265.240026 
L 78.226778 256.683578 
L 79.541648 258.909157 
L 80.856518 260.142248 
L 82.171387 258.503139 
L 83.486257 260.578341 
L 84.801126 260.142248 
L 86.115996 266.202438 
L 87.430865 259.239986 
L 88.745735 250.713614 
L 90.060605 248.773752 
L 91.375474 246.623362 
L 92.690344 242.999278 
L 94.005213 234.984187 
L 95.320083 232.277403 
L 96.634953 232.984174 
L 97.949822 231.269877 
L 99.264692 232.563119 
L 100.579561 231.269877 
L 101.894431 233.375154 
L 103.2093 233.01425 
L 104.52417 234.698471 
L 105.83904 235.209753 
L 107.153909 234.44283 
L 108.468779 232.277403 
L 109.783648 231.134538 
L 111.098518 232.006724 
L 112.413387 231.134538 
L 113.728257 233.194702 
L 115.043127 232.442817 
L 116.357996 232.743571 
L 117.672866 231.841309 
L 118.987735 231.269877 
L 121.617474 232.337553 
L 122.932344 232.337553 
L 124.247214 233.104476 
L 125.562083 233.104476 
L 126.876953 232.984174 
L 128.191822 230.698445 
L 129.506692 231.029274 
L 130.821561 234.412755 
L 132.136431 231.360103 
L 133.451301 232.232289 
L 134.76617 232.713496 
L 136.08104 234.743584 
L 137.395909 232.713496 
L 138.710779 233.194702 
L 142.655388 230.863859 
L 143.970257 232.924023 
L 145.285127 234.548094 
L 146.599996 231.585669 
L 147.914866 230.698445 
L 149.229736 230.698445 
L 150.544605 231.811234 
L 151.859475 230.698445 
L 154.489214 230.698445 
L 155.804083 232.202214 
L 157.118953 234.232303 
L 158.433823 230.698445 
L 163.693301 230.698445 
L 165.00817 231.269877 
L 167.63791 231.269877 
L 168.952779 235.375167 
L 170.267649 232.412742 
L 171.582518 232.412742 
L 172.897388 232.578156 
L 174.212257 231.435292 
L 175.527127 231.269877 
L 176.841997 231.269877 
L 178.156866 230.698445 
L 179.471736 233.044325 
L 180.786605 231.871385 
L 182.101475 233.480418 
L 183.416344 233.781172 
L 184.731214 232.924023 
L 186.046084 234.668396 
L 187.360953 233.871398 
L 188.675823 232.728533 
L 189.990692 232.563119 
L 191.305562 233.164626 
L 192.620431 233.60072 
L 193.935301 234.608245 
L 195.250171 232.833797 
L 196.56504 231.269877 
L 199.194779 231.269877 
L 201.824519 232.412742 
L 203.139388 233.555606 
L 204.454258 235.600733 
L 205.769127 231.269877 
L 207.083997 232.442817 
L 208.398866 230.698445 
L 209.713736 233.104476 
L 212.343475 230.698445 
L 213.658345 230.698445 
L 214.973214 231.931536 
L 216.288084 232.502968 
L 217.602953 231.269877 
L 220.232693 231.269877 
L 221.547562 231.841309 
L 222.862432 233.705983 
L 224.177301 232.367629 
L 225.492171 231.435292 
L 226.80704 232.202214 
L 228.12191 231.916498 
L 229.43678 232.984174 
L 230.751649 232.984174 
L 232.066519 231.871385 
L 233.381388 232.518006 
L 234.696258 234.021775 
L 236.011127 234.472906 
L 237.325997 234.127039 
L 238.640867 231.345066 
L 239.955736 231.465367 
L 242.585475 235.75111 
L 245.215214 233.946586 
L 246.530084 232.472893 
L 247.844954 233.435305 
L 249.159823 233.435305 
L 250.474693 235.0293 
L 251.789562 233.315003 
L 253.104432 234.081926 
L 254.419302 235.916524 
L 255.734171 235.254866 
L 257.049041 233.119513 
L 258.36391 231.660857 
L 259.67878 234.788697 
L 260.993649 233.194702 
L 262.308519 231.269877 
L 263.623389 233.841323 
L 264.938258 232.337553 
L 266.253128 234.021775 
L 268.882867 235.961637 
L 270.197736 233.420267 
L 271.512606 232.382666 
L 272.827476 235.796223 
L 274.142345 235.059376 
L 275.457215 235.931562 
L 276.772084 232.412742 
L 278.086954 231.871385 
L 279.401823 233.044325 
L 280.716693 230.698445 
L 284.661302 231.269877 
L 287.291041 233.871398 
L 288.60591 233.871398 
L 289.92078 230.698445 
L 291.23565 230.698445 
L 292.550519 231.465367 
L 293.865389 231.465367 
L 295.180258 231.871385 
L 296.495128 230.698445 
L 297.809997 231.931536 
L 299.124867 231.931536 
L 300.439737 230.698445 
L 301.754606 232.472893 
L 303.069476 230.698445 
L 304.384345 230.698445 
L 305.699215 231.871385 
L 307.014085 234.18719 
L 308.328954 232.863873 
L 309.643824 232.367629 
L 310.958693 231.134538 
L 312.273563 232.653345 
L 313.588432 231.134538 
L 314.903302 231.345066 
L 316.218172 231.345066 
L 317.533041 230.698445 
L 318.847911 233.690946 
L 320.16278 231.766121 
L 321.47765 230.698445 
L 322.792519 234.57817 
L 324.107389 234.487943 
L 325.422259 230.698445 
L 326.737128 231.465367 
L 328.051998 232.036799 
L 328.051998 232.036799 
" clip-path="url(#pe74a7daece)" style="fill: none; stroke: #a9678f; stroke-width: 1.5; stroke-linecap: round"/>
   </g>
   <g id="line2d_15">
    <path d="M 66.392952 301.962072 
L 67.707822 292.413137 
L 69.022691 280.909302 
L 70.337561 272.593458 
L 71.652431 262.984372 
L 72.9673 259.841494 
L 74.28217 259.646004 
L 75.597039 260.067059 
L 76.911909 259.089609 
L 78.226778 263.375352 
L 79.541648 251.52565 
L 80.856518 249.57075 
L 82.171387 237.540595 
L 83.486257 221.645754 
L 84.801126 201.9163 
L 86.115996 175.600338 
L 87.430865 121.47968 
L 88.745735 115.690169 
L 90.060605 108.637491 
L 91.375474 124.472181 
L 92.690344 110.848031 
L 94.005213 99.404347 
L 95.320083 94.908077 
L 96.634953 101.073531 
L 97.949822 88.517057 
L 99.264692 109.254036 
L 100.579561 93.238893 
L 101.894431 94.441908 
L 103.2093 78.998198 
L 104.52417 64.983068 
L 105.83904 80.892947 
L 107.153909 75.374114 
L 108.468779 60.110855 
L 109.783648 73.103422 
L 111.098518 62.291321 
L 112.413387 62.291321 
L 113.728257 58.486784 
L 115.043127 72.456801 
L 116.357996 78.697444 
L 117.672866 72.98312 
L 118.987735 59.043179 
L 120.302605 53.614572 
L 121.617474 53.614572 
L 122.932344 59.208594 
L 124.247214 53.614572 
L 126.876953 78.577142 
L 128.191822 65.178558 
L 129.506692 67.073307 
L 130.821561 66.516912 
L 132.136431 84.532069 
L 133.451301 84.622295 
L 134.76617 66.186083 
L 136.08104 70.24626 
L 137.395909 60.020629 
L 138.710779 65.629688 
L 140.025648 62.81764 
L 141.340518 57.584523 
L 142.655388 71.659803 
L 143.970257 56.140904 
L 145.285127 70.607165 
L 146.599996 79.17865 
L 147.914866 84.126051 
L 149.229736 54.877738 
L 150.544605 56.140904 
L 151.859475 68.156021 
L 153.174344 54.877738 
L 154.489214 65.885329 
L 155.804083 88.050889 
L 157.118953 72.050783 
L 158.433823 74.74253 
L 159.748692 56.140904 
L 161.063562 80.892947 
L 162.378431 80.532042 
L 163.693301 74.171098 
L 165.00817 61.193569 
L 166.32304 72.907932 
L 167.63791 61.028154 
L 168.952779 69.569564 
L 170.267649 69.088358 
L 171.582518 61.960491 
L 172.897388 84.562144 
L 174.212257 88.95315 
L 175.527127 63.464261 
L 176.841997 55.358944 
L 178.156866 67.238722 
L 179.471736 59.74995 
L 180.786605 66.261272 
L 182.101475 53.614572 
L 183.416344 59.734913 
L 184.731214 53.614572 
L 186.046084 66.261272 
L 187.360953 70.020695 
L 188.675823 66.14097 
L 189.990692 76.862845 
L 191.305562 60.336421 
L 192.620431 66.201121 
L 193.935301 72.59214 
L 195.250171 61.193569 
L 196.56504 91.750161 
L 197.87991 66.216158 
L 199.194779 60.592061 
L 200.509649 73.17861 
L 201.824519 54.576984 
L 203.139388 54.576984 
L 204.454258 55.539396 
L 205.769127 60.727401 
L 207.083997 64.035693 
L 208.398866 74.186136 
L 209.713736 74.787644 
L 211.028606 59.764988 
L 212.343475 61.193569 
L 213.658345 54.576984 
L 214.973214 77.283901 
L 216.288084 59.208594 
L 217.602953 64.622163 
L 218.917823 53.614572 
L 220.232693 53.614572 
L 221.547562 89.855412 
L 222.862432 65.434198 
L 224.177301 63.328921 
L 225.492171 64.080806 
L 226.80704 68.787604 
L 228.12191 53.614572 
L 229.43678 53.614572 
L 230.751649 67.389099 
L 232.066519 66.186083 
L 233.381388 59.629649 
L 234.696258 79.329027 
L 236.011127 60.095817 
L 237.325997 53.614572 
L 238.640867 72.065821 
L 239.955736 71.509426 
L 241.270606 63.614638 
L 242.585475 59.028141 
L 243.900345 61.734926 
L 245.215214 79.689931 
L 246.530084 77.81022 
L 247.844954 86.727572 
L 249.159823 93.449421 
L 250.474693 77.013222 
L 251.789562 58.546935 
L 253.104432 66.817666 
L 254.419302 68.396624 
L 255.734171 63.79509 
L 257.049041 81.148588 
L 258.36391 69.283848 
L 259.67878 53.614572 
L 260.993649 60.742438 
L 262.308519 66.276309 
L 263.623389 78.516991 
L 264.938258 82.862885 
L 266.253128 65.629688 
L 267.567997 65.419161 
L 268.882867 66.050744 
L 270.197736 74.697417 
L 271.512606 56.652186 
L 272.827476 75.509453 
L 274.142345 80.065874 
L 275.457215 68.68234 
L 276.772084 54.576984 
L 278.086954 68.306398 
L 279.401823 97.389296 
L 280.716693 86.697496 
L 282.031563 95.133642 
L 283.346432 67.479325 
L 284.661302 57.419108 
L 285.976171 65.374048 
L 287.291041 60.125893 
L 289.92078 60.020629 
L 291.23565 53.614572 
L 292.550519 68.125945 
L 293.865389 61.223644 
L 295.180258 79.058348 
L 296.495128 59.614611 
L 297.809997 66.095857 
L 299.124867 62.321396 
L 300.439737 59.208594 
L 301.754606 72.712442 
L 303.069476 71.704916 
L 304.384345 66.005631 
L 305.699215 85.870423 
L 307.014085 80.336552 
L 308.328954 104.547238 
L 309.643824 94.547172 
L 310.958693 80.426778 
L 312.273563 81.314002 
L 313.588432 59.55446 
L 314.903302 76.516978 
L 316.218172 77.449315 
L 317.533041 64.622163 
L 318.847911 53.614572 
L 320.16278 53.614572 
L 321.47765 65.584575 
L 322.792519 69.810167 
L 324.107389 80.1561 
L 325.422259 77.825257 
L 326.737128 69.328961 
L 328.051998 56.321356 
L 328.051998 56.321356 
" clip-path="url(#pe74a7daece)" style="fill: none; stroke: #6c3f70; stroke-width: 1.5; stroke-linecap: round"/>
   </g>
   <g id="line2d_16">
    <path d="M 66.392952 299.270325 
L 67.707822 279.691249 
L 69.022691 269.886673 
L 70.337561 267.796433 
L 71.652431 264.788895 
L 72.9673 256.864031 
L 74.28217 250.292559 
L 75.597039 251.480537 
L 76.911909 251.239933 
L 78.226778 236.653371 
L 79.541648 241.22483 
L 82.171387 231.736046 
L 83.486257 229.405203 
L 84.801126 221.705904 
L 86.115996 219.3901 
L 87.430865 239.510533 
L 88.745735 233.946586 
L 90.060605 227.314964 
L 91.375474 235.375167 
L 92.690344 219.074308 
L 94.005213 212.593062 
L 95.320083 208.412584 
L 96.634953 216.743466 
L 97.949822 213.555475 
L 99.264692 198.893724 
L 100.579561 180.653002 
L 101.894431 182.998883 
L 103.2093 187.044022 
L 104.52417 160.442343 
L 105.83904 142.126433 
L 107.153909 130.99854 
L 108.468779 129.058678 
L 109.783648 120.592456 
L 111.098518 102.487074 
L 112.413387 104.5322 
L 113.728257 107.07357 
L 115.043127 94.351682 
L 116.357996 87.765173 
L 117.672866 112.68263 
L 118.987735 93.058441 
L 120.302605 71.328974 
L 121.617474 78.652331 
L 122.932344 74.54704 
L 124.247214 50.110789 
L 125.562083 55.434133 
L 126.876953 53.193516 
L 128.191822 48.622058 
L 129.506692 54.727361 
L 130.821561 63.870278 
L 132.136431 60.065742 
L 133.451301 73.208686 
L 134.76617 53.795024 
L 136.08104 46.155876 
L 137.395909 57.103317 
L 138.710779 57.840163 
L 140.025648 56.42662 
L 141.340518 61.780039 
L 142.655388 81.659869 
L 143.970257 82.547093 
L 145.285127 59.013104 
L 146.599996 54.531871 
L 147.914866 68.441737 
L 149.229736 75.885395 
L 150.544605 70.366562 
L 151.859475 60.456722 
L 153.174344 74.607191 
L 154.489214 76.592167 
L 155.804083 49.674696 
L 157.118953 74.757568 
L 158.433823 85.028312 
L 159.748692 58.667237 
L 161.063562 53.855175 
L 162.378431 48.185965 
L 163.693301 65.94548 
L 165.00817 59.990554 
L 166.32304 54.967964 
L 167.63791 70.321449 
L 168.952779 71.780105 
L 170.267649 59.614611 
L 171.582518 72.547027 
L 172.897388 71.795143 
L 174.212257 81.975661 
L 175.527127 59.74995 
L 176.841997 63.01313 
L 178.156866 54.772474 
L 179.471736 48.727321 
L 180.786605 51.855162 
L 182.101475 51.764935 
L 183.416344 58.426633 
L 184.731214 56.922864 
L 186.046084 65.5545 
L 187.360953 78.532029 
L 188.675823 78.216238 
L 189.990692 81.509492 
L 192.620431 66.231196 
L 193.935301 84.968162 
L 195.250171 60.050704 
L 196.56504 62.998092 
L 197.87991 59.49431 
L 199.194779 52.892762 
L 200.509649 78.366614 
L 201.824519 67.569551 
L 203.139388 68.411662 
L 204.454258 74.892907 
L 205.769127 75.614717 
L 207.083997 86.99825 
L 208.398866 76.953071 
L 209.713736 68.622189 
L 211.028606 64.546975 
L 212.343475 69.163546 
L 213.658345 64.952992 
L 214.973214 55.84015 
L 216.288084 60.546948 
L 217.602953 51.704785 
L 218.917823 52.095765 
L 220.232693 58.561973 
L 221.547562 58.57701 
L 222.862432 63.253733 
L 224.177301 78.471878 
L 225.492171 75.644792 
L 226.80704 74.2914 
L 228.12191 62.171019 
L 229.43678 74.216211 
L 230.751649 57.103317 
L 232.066519 73.479364 
L 233.381388 62.261245 
L 234.696258 62.42666 
L 236.011127 69.509413 
L 237.325997 58.592048 
L 238.640867 61.509361 
L 239.955736 50.381468 
L 241.270606 56.892789 
L 242.585475 54.201042 
L 243.900345 78.050823 
L 245.215214 74.471852 
L 246.530084 50.426581 
L 247.844954 54.576984 
L 249.159823 46.682195 
L 250.474693 55.930376 
L 251.789562 64.020655 
L 253.104432 61.539436 
L 254.419302 68.216172 
L 255.734171 53.208554 
L 257.049041 65.404123 
L 258.36391 68.201134 
L 259.67878 80.441816 
L 262.308519 49.464168 
L 263.623389 72.14101 
L 264.938258 54.697286 
L 266.253128 58.005578 
L 267.567997 60.652212 
L 268.882867 75.52449 
L 270.197736 87.840361 
L 271.512606 79.329027 
L 272.827476 68.712416 
L 274.142345 70.336486 
L 275.457215 56.246168 
L 276.772084 91.705048 
L 278.086954 104.592351 
L 279.401823 91.29903 
L 280.716693 95.915602 
L 282.031563 71.840256 
L 283.346432 75.840282 
L 284.661302 84.336579 
L 285.976171 79.028273 
L 287.291041 69.088358 
L 288.60591 55.05819 
L 289.92078 62.005604 
L 291.23565 63.840203 
L 292.550519 95.359208 
L 293.865389 77.554579 
L 295.180258 54.817587 
L 296.495128 73.043271 
L 297.809997 59.855214 
L 299.124867 56.727374 
L 301.754606 47.358891 
L 303.069476 49.328829 
L 304.384345 61.900341 
L 305.699215 62.080793 
L 307.014085 52.652159 
L 308.328954 53.193516 
L 309.643824 40.622005 
L 310.958693 66.953005 
L 312.273563 37.494165 
L 313.588432 61.584549 
L 314.903302 78.712481 
L 316.218172 54.817587 
L 317.533041 61.313871 
L 318.847911 62.080793 
L 320.16278 52.456669 
L 321.47765 49.088226 
L 322.792519 41.103211 
L 324.107389 41.103211 
L 325.422259 49.825073 
L 326.737128 44.952861 
L 328.051998 52.065689 
L 328.051998 52.065689 
" clip-path="url(#pe74a7daece)" style="fill: none; stroke: #2d1e3e; stroke-width: 1.5; stroke-linecap: round"/>
   </g>
   <g id="line2d_17"/>
   <g id="line2d_18"/>
   <g id="line2d_19"/>
   <g id="line2d_20"/>
   <g id="line2d_21"/>
   <g id="patch_3">
    <path d="M 53.31 319.138125 
L 53.31 22.318125 
" style="fill: none; stroke: #ffffff; stroke-width: 1.25; stroke-linejoin: miter; stroke-linecap: square"/>
   </g>
   <g id="patch_4">
    <path d="M 53.31 319.138125 
L 341.13495 319.138125 
" style="fill: none; stroke: #ffffff; stroke-width: 1.25; stroke-linejoin: miter; stroke-linecap: square"/>
   </g>
   <g id="text_14">
    <!-- Best Trials (Vector x Fine-Grain) -->
    <g style="fill: #262626" transform="translate(102.751538 16.318125)scale(0.12 -0.12)">
     <defs>
      <path id="DejaVuSans-42" d="M 1259 2228 
L 1259 519 
L 2272 519 
Q 2781 519 3026 730 
Q 3272 941 3272 1375 
Q 3272 1813 3026 2020 
Q 2781 2228 2272 2228 
L 1259 2228 
z
M 1259 4147 
L 1259 2741 
L 2194 2741 
Q 2656 2741 2882 2914 
Q 3109 3088 3109 3444 
Q 3109 3797 2882 3972 
Q 2656 4147 2194 4147 
L 1259 4147 
z
M 628 4666 
L 2241 4666 
Q 2963 4666 3353 4366 
Q 3744 4066 3744 3513 
Q 3744 3084 3544 2831 
Q 3344 2578 2956 2516 
Q 3422 2416 3680 2098 
Q 3938 1781 3938 1306 
Q 3938 681 3513 340 
Q 3088 0 2303 0 
L 628 0 
L 628 4666 
z
" transform="scale(0.015625)"/>
      <path id="DejaVuSans-20" transform="scale(0.015625)"/>
      <path id="DejaVuSans-54" d="M -19 4666 
L 3928 4666 
L 3928 4134 
L 2272 4134 
L 2272 0 
L 1638 0 
L 1638 4134 
L -19 4134 
L -19 4666 
z
" transform="scale(0.015625)"/>
      <path id="DejaVuSans-6c" d="M 603 4863 
L 1178 4863 
L 1178 0 
L 603 0 
L 603 4863 
z
" transform="scale(0.015625)"/>
      <path id="DejaVuSans-28" d="M 1984 4856 
Q 1566 4138 1362 3434 
Q 1159 2731 1159 2009 
Q 1159 1288 1364 580 
Q 1569 -128 1984 -844 
L 1484 -844 
Q 1016 -109 783 600 
Q 550 1309 550 2009 
Q 550 2706 781 3412 
Q 1013 4119 1484 4856 
L 1984 4856 
z
" transform="scale(0.015625)"/>
      <path id="DejaVuSans-56" d="M 1831 0 
L 50 4666 
L 709 4666 
L 2188 738 
L 3669 4666 
L 4325 4666 
L 2547 0 
L 1831 0 
z
" transform="scale(0.015625)"/>
      <path id="DejaVuSans-63" d="M 3122 3366 
L 3122 2828 
Q 2878 2963 2633 3030 
Q 2388 3097 2138 3097 
Q 1578 3097 1268 2742 
Q 959 2388 959 1747 
Q 959 1106 1268 751 
Q 1578 397 2138 397 
Q 2388 397 2633 464 
Q 2878 531 3122 666 
L 3122 134 
Q 2881 22 2623 -34 
Q 2366 -91 2075 -91 
Q 1284 -91 818 406 
Q 353 903 353 1747 
Q 353 2603 823 3093 
Q 1294 3584 2113 3584 
Q 2378 3584 2631 3529 
Q 2884 3475 3122 3366 
z
" transform="scale(0.015625)"/>
      <path id="DejaVuSans-78" d="M 3513 3500 
L 2247 1797 
L 3578 0 
L 2900 0 
L 1881 1375 
L 863 0 
L 184 0 
L 1544 1831 
L 300 3500 
L 978 3500 
L 1906 2253 
L 2834 3500 
L 3513 3500 
z
" transform="scale(0.015625)"/>
      <path id="DejaVuSans-2d" d="M 313 2009 
L 1997 2009 
L 1997 1497 
L 313 1497 
L 313 2009 
z
" transform="scale(0.015625)"/>
      <path id="DejaVuSans-29" d="M 513 4856 
L 1013 4856 
Q 1481 4119 1714 3412 
Q 1947 2706 1947 2009 
Q 1947 1309 1714 600 
Q 1481 -109 1013 -844 
L 513 -844 
Q 928 -128 1133 580 
Q 1338 1288 1338 2009 
Q 1338 2731 1133 3434 
Q 928 4138 513 4856 
z
" transform="scale(0.015625)"/>
     </defs>
     <use xlink:href="#DejaVuSans-42"/>
     <use xlink:href="#DejaVuSans-65" x="68.603516"/>
     <use xlink:href="#DejaVuSans-73" x="130.126953"/>
     <use xlink:href="#DejaVuSans-74" x="182.226562"/>
     <use xlink:href="#DejaVuSans-20" x="221.435547"/>
     <use xlink:href="#DejaVuSans-54" x="253.222656"/>
     <use xlink:href="#DejaVuSans-72" x="299.556641"/>
     <use xlink:href="#DejaVuSans-69" x="340.669922"/>
     <use xlink:href="#DejaVuSans-61" x="368.453125"/>
     <use xlink:href="#DejaVuSans-6c" x="429.732422"/>
     <use xlink:href="#DejaVuSans-73" x="457.515625"/>
     <use xlink:href="#DejaVuSans-20" x="509.615234"/>
     <use xlink:href="#DejaVuSans-28" x="541.402344"/>
     <use xlink:href="#DejaVuSans-56" x="580.416016"/>
     <use xlink:href="#DejaVuSans-65" x="641.074219"/>
     <use xlink:href="#DejaVuSans-63" x="702.597656"/>
     <use xlink:href="#DejaVuSans-74" x="757.578125"/>
     <use xlink:href="#DejaVuSans-6f" x="796.787109"/>
     <use xlink:href="#DejaVuSans-72" x="857.96875"/>
     <use xlink:href="#DejaVuSans-20" x="899.082031"/>
     <use xlink:href="#DejaVuSans-78" x="930.869141"/>
     <use xlink:href="#DejaVuSans-20" x="990.048828"/>
     <use xlink:href="#DejaVuSans-46" x="1021.835938"/>
     <use xlink:href="#DejaVuSans-69" x="1072.105469"/>
     <use xlink:href="#DejaVuSans-6e" x="1099.888672"/>
     <use xlink:href="#DejaVuSans-65" x="1163.267578"/>
     <use xlink:href="#DejaVuSans-2d" x="1224.791016"/>
     <use xlink:href="#DejaVuSans-47" x="1264.5"/>
     <use xlink:href="#DejaVuSans-72" x="1341.990234"/>
     <use xlink:href="#DejaVuSans-61" x="1383.103516"/>
     <use xlink:href="#DejaVuSans-69" x="1444.382812"/>
     <use xlink:href="#DejaVuSans-6e" x="1472.166016"/>
     <use xlink:href="#DejaVuSans-29" x="1535.544922"/>
    </g>
   </g>
  </g>
  <g id="legend_1">
   <g id="text_15">
    <!-- Trial -->
    <g style="fill: #262626" transform="translate(352.4649 143.995312)scale(0.12 -0.12)">
     <use xlink:href="#DejaVuSans-54"/>
     <use xlink:href="#DejaVuSans-72" x="46.333984"/>
     <use xlink:href="#DejaVuSans-69" x="87.447266"/>
     <use xlink:href="#DejaVuSans-61" x="115.230469"/>
     <use xlink:href="#DejaVuSans-6c" x="176.509766"/>
    </g>
   </g>
   <g id="line2d_22">
    <path d="M 345.8224 156.499219 
L 356.8224 156.499219 
L 367.8224 156.499219 
" style="fill: none; stroke: #edd1cb; stroke-width: 1.5; stroke-linecap: round"/>
   </g>
   <g id="text_16">
    <!-- 0 -->
    <g style="fill: #262626" transform="translate(376.6224 160.349219)scale(0.11 -0.11)">
     <use xlink:href="#DejaVuSans-30"/>
    </g>
   </g>
   <g id="line2d_23">
    <path d="M 345.8224 172.645156 
L 356.8224 172.645156 
L 367.8224 172.645156 
" style="fill: none; stroke: #d499a7; stroke-width: 1.5; stroke-linecap: round"/>
   </g>
   <g id="text_17">
    <!-- 1 -->
    <g style="fill: #262626" transform="translate(376.6224 176.495156)scale(0.11 -0.11)">
     <use xlink:href="#DejaVuSans-31"/>
    </g>
   </g>
   <g id="line2d_24">
    <path d="M 345.8224 188.791094 
L 356.8224 188.791094 
L 367.8224 188.791094 
" style="fill: none; stroke: #a9678f; stroke-width: 1.5; stroke-linecap: round"/>
   </g>
   <g id="text_18">
    <!-- 2 -->
    <g style="fill: #262626" transform="translate(376.6224 192.641094)scale(0.11 -0.11)">
     <use xlink:href="#DejaVuSans-32"/>
    </g>
   </g>
   <g id="line2d_25">
    <path d="M 345.8224 204.937031 
L 356.8224 204.937031 
L 367.8224 204.937031 
" style="fill: none; stroke: #6c3f70; stroke-width: 1.5; stroke-linecap: round"/>
   </g>
   <g id="text_19">
    <!-- 3 -->
    <g style="fill: #262626" transform="translate(376.6224 208.787031)scale(0.11 -0.11)">
     <use xlink:href="#DejaVuSans-33"/>
    </g>
   </g>
   <g id="line2d_26">
    <path d="M 345.8224 221.082969 
L 356.8224 221.082969 
L 367.8224 221.082969 
" style="fill: none; stroke: #2d1e3e; stroke-width: 1.5; stroke-linecap: round"/>
   </g>
   <g id="text_20">
    <!-- 4 -->
    <g style="fill: #262626" transform="translate(376.6224 224.932969)scale(0.11 -0.11)">
     <use xlink:href="#DejaVuSans-34"/>
    </g>
   </g>
  </g>
 </g>
 <defs>
  <clipPath id="pe74a7daece">
   <rect x="53.31" y="22.318125" width="287.82495" height="296.82"/>
  </clipPath>
 </defs>
</svg>
