<?xml version="1.0" encoding="utf-8" standalone="no"?>
<!DOCTYPE svg PUBLIC "-//W3C//DTD SVG 1.1//EN"
  "http://www.w3.org/Graphics/SVG/1.1/DTD/svg11.dtd">
<svg xmlns:xlink="http://www.w3.org/1999/xlink" width="391.86378pt" height="359.574553pt" viewBox="0 0 391.86378 359.574553" xmlns="http://www.w3.org/2000/svg" version="1.1">
 <metadata>
  <rdf:RDF xmlns:dc="http://purl.org/dc/elements/1.1/" xmlns:cc="http://creativecommons.org/ns#" xmlns:rdf="http://www.w3.org/1999/02/22-rdf-syntax-ns#">
   <cc:Work>
    <dc:type rdf:resource="http://purl.org/dc/dcmitype/StillImage"/>
    <dc:date>2022-11-20T08:19:04.503650</dc:date>
    <dc:format>image/svg+xml</dc:format>
    <dc:creator>
     <cc:Agent>
      <dc:title>Matplotlib v3.5.2, https://matplotlib.org/</dc:title>
     </cc:Agent>
    </dc:creator>
   </cc:Work>
  </rdf:RDF>
 </metadata>
 <defs>
  <style type="text/css">*{stroke-linejoin: round; stroke-linecap: butt}</style>
 </defs>
 <g id="figure_1">
  <g id="patch_1">
   <path d="M 0 359.574553 
L 391.86378 359.574553 
L 391.86378 0 
L 0 0 
z
" style="fill: #ffffff"/>
  </g>
  <g id="axes_1">
   <g id="patch_2">
    <path d="M 67.3075 316.614865 
L 339.47758 316.614865 
L 339.47758 22.318125 
L 67.3075 22.318125 
z
" style="fill: #eaeaf2"/>
   </g>
   <g id="matplotlib.axis_1">
    <g id="xtick_1">
     <g id="line2d_1">
      <path d="M 79.678867 316.614865 
L 79.678867 22.318125 
" clip-path="url(#p70b1d95771)" style="fill: none; stroke: #ffffff; stroke-linecap: round"/>
     </g>
     <g id="text_1">
      <!-- 0 -->
      <g style="fill: #262626" transform="translate(76.179492 334.473147)scale(0.11 -0.11)">
       <defs>
        <path id="DejaVuSans-30" d="M 2034 4250 
Q 1547 4250 1301 3770 
Q 1056 3291 1056 2328 
Q 1056 1369 1301 889 
Q 1547 409 2034 409 
Q 2525 409 2770 889 
Q 3016 1369 3016 2328 
Q 3016 3291 2770 3770 
Q 2525 4250 2034 4250 
z
M 2034 4750 
Q 2819 4750 3233 4129 
Q 3647 3509 3647 2328 
Q 3647 1150 3233 529 
Q 2819 -91 2034 -91 
Q 1250 -91 836 529 
Q 422 1150 422 2328 
Q 422 3509 836 4129 
Q 1250 4750 2034 4750 
z
" transform="scale(0.015625)"/>
       </defs>
       <use xlink:href="#DejaVuSans-30"/>
      </g>
     </g>
    </g>
    <g id="xtick_2">
     <g id="line2d_2">
      <path d="M 141.846542 316.614865 
L 141.846542 22.318125 
" clip-path="url(#p70b1d95771)" style="fill: none; stroke: #ffffff; stroke-linecap: round"/>
     </g>
     <g id="text_2">
      <!-- 50 -->
      <g style="fill: #262626" transform="translate(134.847792 334.473147)scale(0.11 -0.11)">
       <defs>
        <path id="DejaVuSans-35" d="M 691 4666 
L 3169 4666 
L 3169 4134 
L 1269 4134 
L 1269 2991 
Q 1406 3038 1543 3061 
Q 1681 3084 1819 3084 
Q 2600 3084 3056 2656 
Q 3513 2228 3513 1497 
Q 3513 744 3044 326 
Q 2575 -91 1722 -91 
Q 1428 -91 1123 -41 
Q 819 9 494 109 
L 494 744 
Q 775 591 1075 516 
Q 1375 441 1709 441 
Q 2250 441 2565 725 
Q 2881 1009 2881 1497 
Q 2881 1984 2565 2268 
Q 2250 2553 1709 2553 
Q 1456 2553 1204 2497 
Q 953 2441 691 2322 
L 691 4666 
z
" transform="scale(0.015625)"/>
       </defs>
       <use xlink:href="#DejaVuSans-35"/>
       <use xlink:href="#DejaVuSans-30" x="63.623047"/>
      </g>
     </g>
    </g>
    <g id="xtick_3">
     <g id="line2d_3">
      <path d="M 204.014217 316.614865 
L 204.014217 22.318125 
" clip-path="url(#p70b1d95771)" style="fill: none; stroke: #ffffff; stroke-linecap: round"/>
     </g>
     <g id="text_3">
      <!-- 100 -->
      <g style="fill: #262626" transform="translate(193.516092 334.473147)scale(0.11 -0.11)">
       <defs>
        <path id="DejaVuSans-31" d="M 794 531 
L 1825 531 
L 1825 4091 
L 703 3866 
L 703 4441 
L 1819 4666 
L 2450 4666 
L 2450 531 
L 3481 531 
L 3481 0 
L 794 0 
L 794 531 
z
" transform="scale(0.015625)"/>
       </defs>
       <use xlink:href="#DejaVuSans-31"/>
       <use xlink:href="#DejaVuSans-30" x="63.623047"/>
       <use xlink:href="#DejaVuSans-30" x="127.246094"/>
      </g>
     </g>
    </g>
    <g id="xtick_4">
     <g id="line2d_4">
      <path d="M 266.181891 316.614865 
L 266.181891 22.318125 
" clip-path="url(#p70b1d95771)" style="fill: none; stroke: #ffffff; stroke-linecap: round"/>
     </g>
     <g id="text_4">
      <!-- 150 -->
      <g style="fill: #262626" transform="translate(255.683766 334.473147)scale(0.11 -0.11)">
       <use xlink:href="#DejaVuSans-31"/>
       <use xlink:href="#DejaVuSans-35" x="63.623047"/>
       <use xlink:href="#DejaVuSans-30" x="127.246094"/>
      </g>
     </g>
    </g>
    <g id="xtick_5">
     <g id="line2d_5">
      <path d="M 328.349566 316.614865 
L 328.349566 22.318125 
" clip-path="url(#p70b1d95771)" style="fill: none; stroke: #ffffff; stroke-linecap: round"/>
     </g>
     <g id="text_5">
      <!-- 200 -->
      <g style="fill: #262626" transform="translate(317.851441 334.473147)scale(0.11 -0.11)">
       <defs>
        <path id="DejaVuSans-32" d="M 1228 531 
L 3431 531 
L 3431 0 
L 469 0 
L 469 531 
Q 828 903 1448 1529 
Q 2069 2156 2228 2338 
Q 2531 2678 2651 2914 
Q 2772 3150 2772 3378 
Q 2772 3750 2511 3984 
Q 2250 4219 1831 4219 
Q 1534 4219 1204 4116 
Q 875 4013 500 3803 
L 500 4441 
Q 881 4594 1212 4672 
Q 1544 4750 1819 4750 
Q 2544 4750 2975 4387 
Q 3406 4025 3406 3419 
Q 3406 3131 3298 2873 
Q 3191 2616 2906 2266 
Q 2828 2175 2409 1742 
Q 1991 1309 1228 531 
z
" transform="scale(0.015625)"/>
       </defs>
       <use xlink:href="#DejaVuSans-32"/>
       <use xlink:href="#DejaVuSans-30" x="63.623047"/>
       <use xlink:href="#DejaVuSans-30" x="127.246094"/>
      </g>
     </g>
    </g>
    <g id="text_6">
     <!-- Generation -->
     <g style="fill: #262626" transform="translate(169.920978 349.878928)scale(0.12 -0.12)">
      <defs>
       <path id="DejaVuSans-47" d="M 3809 666 
L 3809 1919 
L 2778 1919 
L 2778 2438 
L 4434 2438 
L 4434 434 
Q 4069 175 3628 42 
Q 3188 -91 2688 -91 
Q 1594 -91 976 548 
Q 359 1188 359 2328 
Q 359 3472 976 4111 
Q 1594 4750 2688 4750 
Q 3144 4750 3555 4637 
Q 3966 4525 4313 4306 
L 4313 3634 
Q 3963 3931 3569 4081 
Q 3175 4231 2741 4231 
Q 1884 4231 1454 3753 
Q 1025 3275 1025 2328 
Q 1025 1384 1454 906 
Q 1884 428 2741 428 
Q 3075 428 3337 486 
Q 3600 544 3809 666 
z
" transform="scale(0.015625)"/>
       <path id="DejaVuSans-65" d="M 3597 1894 
L 3597 1613 
L 953 1613 
Q 991 1019 1311 708 
Q 1631 397 2203 397 
Q 2534 397 2845 478 
Q 3156 559 3463 722 
L 3463 178 
Q 3153 47 2828 -22 
Q 2503 -91 2169 -91 
Q 1331 -91 842 396 
Q 353 884 353 1716 
Q 353 2575 817 3079 
Q 1281 3584 2069 3584 
Q 2775 3584 3186 3129 
Q 3597 2675 3597 1894 
z
M 3022 2063 
Q 3016 2534 2758 2815 
Q 2500 3097 2075 3097 
Q 1594 3097 1305 2825 
Q 1016 2553 972 2059 
L 3022 2063 
z
" transform="scale(0.015625)"/>
       <path id="DejaVuSans-6e" d="M 3513 2113 
L 3513 0 
L 2938 0 
L 2938 2094 
Q 2938 2591 2744 2837 
Q 2550 3084 2163 3084 
Q 1697 3084 1428 2787 
Q 1159 2491 1159 1978 
L 1159 0 
L 581 0 
L 581 3500 
L 1159 3500 
L 1159 2956 
Q 1366 3272 1645 3428 
Q 1925 3584 2291 3584 
Q 2894 3584 3203 3211 
Q 3513 2838 3513 2113 
z
" transform="scale(0.015625)"/>
       <path id="DejaVuSans-72" d="M 2631 2963 
Q 2534 3019 2420 3045 
Q 2306 3072 2169 3072 
Q 1681 3072 1420 2755 
Q 1159 2438 1159 1844 
L 1159 0 
L 581 0 
L 581 3500 
L 1159 3500 
L 1159 2956 
Q 1341 3275 1631 3429 
Q 1922 3584 2338 3584 
Q 2397 3584 2469 3576 
Q 2541 3569 2628 3553 
L 2631 2963 
z
" transform="scale(0.015625)"/>
       <path id="DejaVuSans-61" d="M 2194 1759 
Q 1497 1759 1228 1600 
Q 959 1441 959 1056 
Q 959 750 1161 570 
Q 1363 391 1709 391 
Q 2188 391 2477 730 
Q 2766 1069 2766 1631 
L 2766 1759 
L 2194 1759 
z
M 3341 1997 
L 3341 0 
L 2766 0 
L 2766 531 
Q 2569 213 2275 61 
Q 1981 -91 1556 -91 
Q 1019 -91 701 211 
Q 384 513 384 1019 
Q 384 1609 779 1909 
Q 1175 2209 1959 2209 
L 2766 2209 
L 2766 2266 
Q 2766 2663 2505 2880 
Q 2244 3097 1772 3097 
Q 1472 3097 1187 3025 
Q 903 2953 641 2809 
L 641 3341 
Q 956 3463 1253 3523 
Q 1550 3584 1831 3584 
Q 2591 3584 2966 3190 
Q 3341 2797 3341 1997 
z
" transform="scale(0.015625)"/>
       <path id="DejaVuSans-74" d="M 1172 4494 
L 1172 3500 
L 2356 3500 
L 2356 3053 
L 1172 3053 
L 1172 1153 
Q 1172 725 1289 603 
Q 1406 481 1766 481 
L 2356 481 
L 2356 0 
L 1766 0 
Q 1100 0 847 248 
Q 594 497 594 1153 
L 594 3053 
L 172 3053 
L 172 3500 
L 594 3500 
L 594 4494 
L 1172 4494 
z
" transform="scale(0.015625)"/>
       <path id="DejaVuSans-69" d="M 603 3500 
L 1178 3500 
L 1178 0 
L 603 0 
L 603 3500 
z
M 603 4863 
L 1178 4863 
L 1178 4134 
L 603 4134 
L 603 4863 
z
" transform="scale(0.015625)"/>
       <path id="DejaVuSans-6f" d="M 1959 3097 
Q 1497 3097 1228 2736 
Q 959 2375 959 1747 
Q 959 1119 1226 758 
Q 1494 397 1959 397 
Q 2419 397 2687 759 
Q 2956 1122 2956 1747 
Q 2956 2369 2687 2733 
Q 2419 3097 1959 3097 
z
M 1959 3584 
Q 2709 3584 3137 3096 
Q 3566 2609 3566 1747 
Q 3566 888 3137 398 
Q 2709 -91 1959 -91 
Q 1206 -91 779 398 
Q 353 888 353 1747 
Q 353 2609 779 3096 
Q 1206 3584 1959 3584 
z
" transform="scale(0.015625)"/>
      </defs>
      <use xlink:href="#DejaVuSans-47"/>
      <use xlink:href="#DejaVuSans-65" x="77.490234"/>
      <use xlink:href="#DejaVuSans-6e" x="139.013672"/>
      <use xlink:href="#DejaVuSans-65" x="202.392578"/>
      <use xlink:href="#DejaVuSans-72" x="263.916016"/>
      <use xlink:href="#DejaVuSans-61" x="305.029297"/>
      <use xlink:href="#DejaVuSans-74" x="366.308594"/>
      <use xlink:href="#DejaVuSans-69" x="405.517578"/>
      <use xlink:href="#DejaVuSans-6f" x="433.300781"/>
      <use xlink:href="#DejaVuSans-6e" x="494.482422"/>
     </g>
    </g>
   </g>
   <g id="matplotlib.axis_2">
    <g id="ytick_1">
     <g id="line2d_6">
      <path d="M 67.3075 303.238322 
L 339.47758 303.238322 
" clip-path="url(#p70b1d95771)" style="fill: none; stroke: #ffffff; stroke-linecap: round"/>
     </g>
     <g id="text_7">
      <!-- 0 -->
      <g style="fill: #262626" transform="translate(50.80875 307.417463)scale(0.11 -0.11)">
       <use xlink:href="#DejaVuSans-30"/>
      </g>
     </g>
    </g>
    <g id="ytick_2">
     <g id="line2d_7">
      <path d="M 67.3075 256.703073 
L 339.47758 256.703073 
" clip-path="url(#p70b1d95771)" style="fill: none; stroke: #ffffff; stroke-linecap: round"/>
     </g>
     <g id="text_8">
      <!-- 5000 -->
      <g style="fill: #262626" transform="translate(29.8125 260.882214)scale(0.11 -0.11)">
       <use xlink:href="#DejaVuSans-35"/>
       <use xlink:href="#DejaVuSans-30" x="63.623047"/>
       <use xlink:href="#DejaVuSans-30" x="127.246094"/>
       <use xlink:href="#DejaVuSans-30" x="190.869141"/>
      </g>
     </g>
    </g>
    <g id="ytick_3">
     <g id="line2d_8">
      <path d="M 67.3075 210.167824 
L 339.47758 210.167824 
" clip-path="url(#p70b1d95771)" style="fill: none; stroke: #ffffff; stroke-linecap: round"/>
     </g>
     <g id="text_9">
      <!-- 10000 -->
      <g style="fill: #262626" transform="translate(22.81375 214.346964)scale(0.11 -0.11)">
       <use xlink:href="#DejaVuSans-31"/>
       <use xlink:href="#DejaVuSans-30" x="63.623047"/>
       <use xlink:href="#DejaVuSans-30" x="127.246094"/>
       <use xlink:href="#DejaVuSans-30" x="190.869141"/>
       <use xlink:href="#DejaVuSans-30" x="254.492188"/>
      </g>
     </g>
    </g>
    <g id="ytick_4">
     <g id="line2d_9">
      <path d="M 67.3075 163.632575 
L 339.47758 163.632575 
" clip-path="url(#p70b1d95771)" style="fill: none; stroke: #ffffff; stroke-linecap: round"/>
     </g>
     <g id="text_10">
      <!-- 15000 -->
      <g style="fill: #262626" transform="translate(22.81375 167.811715)scale(0.11 -0.11)">
       <use xlink:href="#DejaVuSans-31"/>
       <use xlink:href="#DejaVuSans-35" x="63.623047"/>
       <use xlink:href="#DejaVuSans-30" x="127.246094"/>
       <use xlink:href="#DejaVuSans-30" x="190.869141"/>
       <use xlink:href="#DejaVuSans-30" x="254.492188"/>
      </g>
     </g>
    </g>
    <g id="ytick_5">
     <g id="line2d_10">
      <path d="M 67.3075 117.097325 
L 339.47758 117.097325 
" clip-path="url(#p70b1d95771)" style="fill: none; stroke: #ffffff; stroke-linecap: round"/>
     </g>
     <g id="text_11">
      <!-- 20000 -->
      <g style="fill: #262626" transform="translate(22.81375 121.276466)scale(0.11 -0.11)">
       <use xlink:href="#DejaVuSans-32"/>
       <use xlink:href="#DejaVuSans-30" x="63.623047"/>
       <use xlink:href="#DejaVuSans-30" x="127.246094"/>
       <use xlink:href="#DejaVuSans-30" x="190.869141"/>
       <use xlink:href="#DejaVuSans-30" x="254.492188"/>
      </g>
     </g>
    </g>
    <g id="ytick_6">
     <g id="line2d_11">
      <path d="M 67.3075 70.562076 
L 339.47758 70.562076 
" clip-path="url(#p70b1d95771)" style="fill: none; stroke: #ffffff; stroke-linecap: round"/>
     </g>
     <g id="text_12">
      <!-- 25000 -->
      <g style="fill: #262626" transform="translate(22.81375 74.741217)scale(0.11 -0.11)">
       <use xlink:href="#DejaVuSans-32"/>
       <use xlink:href="#DejaVuSans-35" x="63.623047"/>
       <use xlink:href="#DejaVuSans-30" x="127.246094"/>
       <use xlink:href="#DejaVuSans-30" x="190.869141"/>
       <use xlink:href="#DejaVuSans-30" x="254.492188"/>
      </g>
     </g>
    </g>
    <g id="ytick_7">
     <g id="line2d_12">
      <path d="M 67.3075 24.026827 
L 339.47758 24.026827 
" clip-path="url(#p70b1d95771)" style="fill: none; stroke: #ffffff; stroke-linecap: round"/>
     </g>
     <g id="text_13">
      <!-- 30000 -->
      <g style="fill: #262626" transform="translate(22.81375 28.205967)scale(0.11 -0.11)">
       <defs>
        <path id="DejaVuSans-33" d="M 2597 2516 
Q 3050 2419 3304 2112 
Q 3559 1806 3559 1356 
Q 3559 666 3084 287 
Q 2609 -91 1734 -91 
Q 1441 -91 1130 -33 
Q 819 25 488 141 
L 488 750 
Q 750 597 1062 519 
Q 1375 441 1716 441 
Q 2309 441 2620 675 
Q 2931 909 2931 1356 
Q 2931 1769 2642 2001 
Q 2353 2234 1838 2234 
L 1294 2234 
L 1294 2753 
L 1863 2753 
Q 2328 2753 2575 2939 
Q 2822 3125 2822 3475 
Q 2822 3834 2567 4026 
Q 2313 4219 1838 4219 
Q 1578 4219 1281 4162 
Q 984 4106 628 3988 
L 628 4550 
Q 988 4650 1302 4700 
Q 1616 4750 1894 4750 
Q 2613 4750 3031 4423 
Q 3450 4097 3450 3541 
Q 3450 3153 3228 2886 
Q 3006 2619 2597 2516 
z
" transform="scale(0.015625)"/>
       </defs>
       <use xlink:href="#DejaVuSans-33"/>
       <use xlink:href="#DejaVuSans-30" x="63.623047"/>
       <use xlink:href="#DejaVuSans-30" x="127.246094"/>
       <use xlink:href="#DejaVuSans-30" x="190.869141"/>
       <use xlink:href="#DejaVuSans-30" x="254.492188"/>
      </g>
     </g>
    </g>
    <g id="text_14">
     <!-- Fitness -->
     <g style="fill: #262626" transform="translate(16.318125 190.24712)rotate(-90)scale(0.12 -0.12)">
      <defs>
       <path id="DejaVuSans-46" d="M 628 4666 
L 3309 4666 
L 3309 4134 
L 1259 4134 
L 1259 2759 
L 3109 2759 
L 3109 2228 
L 1259 2228 
L 1259 0 
L 628 0 
L 628 4666 
z
" transform="scale(0.015625)"/>
       <path id="DejaVuSans-73" d="M 2834 3397 
L 2834 2853 
Q 2591 2978 2328 3040 
Q 2066 3103 1784 3103 
Q 1356 3103 1142 2972 
Q 928 2841 928 2578 
Q 928 2378 1081 2264 
Q 1234 2150 1697 2047 
L 1894 2003 
Q 2506 1872 2764 1633 
Q 3022 1394 3022 966 
Q 3022 478 2636 193 
Q 2250 -91 1575 -91 
Q 1294 -91 989 -36 
Q 684 19 347 128 
L 347 722 
Q 666 556 975 473 
Q 1284 391 1588 391 
Q 1994 391 2212 530 
Q 2431 669 2431 922 
Q 2431 1156 2273 1281 
Q 2116 1406 1581 1522 
L 1381 1569 
Q 847 1681 609 1914 
Q 372 2147 372 2553 
Q 372 3047 722 3315 
Q 1072 3584 1716 3584 
Q 2034 3584 2315 3537 
Q 2597 3491 2834 3397 
z
" transform="scale(0.015625)"/>
      </defs>
      <use xlink:href="#DejaVuSans-46"/>
      <use xlink:href="#DejaVuSans-69" x="50.269531"/>
      <use xlink:href="#DejaVuSans-74" x="78.052734"/>
      <use xlink:href="#DejaVuSans-6e" x="117.261719"/>
      <use xlink:href="#DejaVuSans-65" x="180.640625"/>
      <use xlink:href="#DejaVuSans-73" x="242.164062"/>
      <use xlink:href="#DejaVuSans-73" x="294.263672"/>
     </g>
    </g>
   </g>
   <g id="PolyCollection_1">
    <defs>
     <path id="md1b7ffbae3" d="M 79.678867 -56.345828 
L 79.678867 -56.339721 
L 80.922221 -56.350475 
L 82.165574 -56.381311 
L 83.408928 -56.499954 
L 84.652281 -56.458073 
L 85.895635 -56.676468 
L 87.138988 -56.748896 
L 88.382342 -56.572942 
L 89.625695 -56.586903 
L 90.869049 -56.520575 
L 92.112402 -56.472797 
L 93.355756 -56.503146 
L 94.599109 -56.588677 
L 95.842463 -56.479879 
L 97.085816 -56.486881 
L 98.32917 -56.462137 
L 99.572523 -56.450234 
L 100.815877 -56.481348 
L 102.05923 -56.482816 
L 103.302584 -56.636659 
L 104.545937 -56.575858 
L 105.789291 -56.472324 
L 107.032644 -56.476418 
L 108.275998 -56.457506 
L 109.519351 -56.444999 
L 110.762705 -56.429577 
L 112.006058 -56.408942 
L 113.249412 -56.405452 
L 114.492765 -56.390909 
L 115.736119 -56.401365 
L 116.979472 -56.385674 
L 118.222826 -56.375204 
L 119.466179 -56.376941 
L 120.709533 -56.378687 
L 121.952886 -56.395563 
L 123.19624 -56.382766 
L 124.439593 -56.378985 
L 125.682947 -56.37287 
L 126.9263 -56.367045 
L 128.169654 -56.36967 
L 129.413007 -56.368798 
L 130.656361 -56.361817 
L 131.899714 -56.364442 
L 133.143068 -56.36008 
L 134.386421 -56.357455 
L 135.629775 -56.354554 
L 136.873128 -56.358625 
L 138.116482 -56.356008 
L 139.359835 -56.355426 
L 140.603189 -56.355717 
L 141.846542 -56.351645 
L 143.089896 -56.356299 
L 144.333249 -56.355717 
L 145.576602 -56.355717 
L 146.819956 -56.356299 
L 148.063309 -56.358044 
L 149.306663 -56.363861 
L 150.550016 -56.367053 
L 151.79337 -56.361534 
L 153.036723 -56.355426 
L 154.280077 -56.353681 
L 155.52343 -56.357164 
L 156.766784 -56.356299 
L 158.010137 -56.361534 
L 159.253491 -56.357164 
L 160.496844 -56.358335 
L 161.740198 -56.358618 
L 162.983551 -56.354263 
L 164.226905 -56.353099 
L 165.470258 -56.35688 
L 166.713612 -56.353972 
L 167.956965 -56.348737 
L 169.200319 -56.349318 
L 170.443672 -56.349318 
L 171.687026 -56.350482 
L 172.930379 -56.351645 
L 174.173733 -56.352518 
L 175.417086 -56.349028 
L 176.66044 -56.3499 
L 177.903793 -56.349311 
L 179.147147 -56.351063 
L 180.3905 -56.347573 
L 181.633854 -56.349609 
L 182.877207 -56.348737 
L 184.120561 -56.349028 
L 185.363914 -56.349609 
L 186.607268 -56.346119 
L 187.850621 -56.346701 
L 189.093975 -56.347282 
L 190.337328 -56.349318 
L 191.580682 -56.349609 
L 192.824035 -56.349609 
L 194.067389 -56.347864 
L 195.310742 -56.351354 
L 196.554096 -56.352809 
L 197.797449 -56.351063 
L 199.040803 -56.351063 
L 200.284156 -56.346992 
L 201.52751 -56.345537 
L 202.770863 -56.388575 
L 204.014217 -56.5151 
L 205.25757 -56.547086 
L 206.500924 -56.620626 
L 207.744277 -56.75853 
L 208.987631 -56.999343 
L 210.230984 -57.325395 
L 211.474338 -57.259868 
L 212.717691 -57.353884 
L 213.961045 -57.458893 
L 215.204398 -57.153498 
L 216.447752 -57.459759 
L 217.691105 -57.244824 
L 218.934459 -57.193344 
L 220.177812 -57.217775 
L 221.421166 -57.356807 
L 222.664519 -57.122363 
L 223.907873 -57.199641 
L 225.151226 -57.222683 
L 226.39458 -57.163074 
L 227.637933 -57.356807 
L 228.881287 -57.296311 
L 230.12464 -57.460638 
L 231.367994 -57.382401 
L 232.611347 -57.294268 
L 233.854701 -57.360006 
L 235.098054 -57.46122 
L 236.341408 -57.381819 
L 237.584761 -57.298637 
L 238.828115 -57.371931 
L 240.071468 -57.266048 
L 241.314822 -57.325672 
L 242.558175 -57.257919 
L 243.801529 -57.292792 
L 245.044882 -57.51936 
L 246.288236 -57.863859 
L 247.531589 -58.352792 
L 248.774943 -58.729662 
L 250.018296 -58.886769 
L 251.26165 -59.349969 
L 252.505003 -59.181221 
L 253.748357 -60.020106 
L 254.99171 -61.292031 
L 256.235064 -61.656874 
L 257.478417 -62.91257 
L 258.721771 -63.81022 
L 259.965124 -64.866716 
L 261.208478 -64.166637 
L 262.451831 -63.892159 
L 263.695184 -64.666913 
L 264.938538 -64.452327 
L 266.181891 -64.536607 
L 267.425245 -64.421163 
L 268.668598 -64.77627 
L 269.911952 -64.615106 
L 271.155305 -64.485098 
L 272.398659 -65.88061 
L 273.642012 -65.400715 
L 274.885366 -64.933327 
L 276.128719 -64.287599 
L 277.372073 -64.63492 
L 278.615426 -64.518938 
L 279.85878 -65.379774 
L 281.102133 -66.313388 
L 282.345487 -65.387627 
L 283.58884 -64.957758 
L 284.832194 -65.713083 
L 286.075547 -66.313388 
L 287.318901 -64.308511 
L 288.562254 -64.064267 
L 289.805608 -64.274955 
L 291.048961 -64.466949 
L 292.292315 -64.844008 
L 293.535668 -65.515017 
L 294.779022 -65.451322 
L 296.022375 -64.468847 
L 297.265729 -65.066243 
L 298.509082 -65.479243 
L 299.752436 -64.762841 
L 300.995789 -64.939435 
L 302.239143 -65.727335 
L 303.482496 -64.770446 
L 304.72585 -64.380721 
L 305.969203 -64.864724 
L 307.212557 -63.791454 
L 308.45591 -64.376496 
L 309.699264 -65.089351 
L 310.942617 -65.091765 
L 312.185971 -65.173856 
L 313.429324 -64.498651 
L 314.672678 -63.648343 
L 315.916031 -63.875319 
L 317.159385 -65.005318 
L 318.402738 -65.084959 
L 319.646092 -63.814765 
L 320.889445 -64.993379 
L 322.132799 -65.245113 
L 323.376152 -64.664469 
L 324.619506 -64.828848 
L 325.862859 -64.350924 
L 327.106213 -64.629866 
L 327.106213 -66.319786 
L 327.106213 -66.319786 
L 325.862859 -66.103398 
L 324.619506 -66.31775 
L 323.376152 -66.160447 
L 322.132799 -66.320077 
L 320.889445 -66.30728 
L 319.646092 -65.90723 
L 318.402738 -66.492258 
L 317.159385 -66.35207 
L 315.916031 -66.023291 
L 314.672678 -65.776349 
L 313.429324 -66.31397 
L 312.185971 -66.338982 
L 310.942617 -66.338982 
L 309.699264 -66.339142 
L 308.45591 -66.332584 
L 307.212557 -66.028665 
L 305.969203 -66.351779 
L 304.72585 -66.338982 
L 303.482496 -66.326185 
L 302.239143 -66.345541 
L 300.995789 -66.332584 
L 299.752436 -66.421001 
L 298.509082 -66.326185 
L 297.265729 -66.313388 
L 296.022375 -66.313388 
L 294.779022 -66.313388 
L 293.535668 -66.313388 
L 292.292315 -66.313388 
L 291.048961 -66.301172 
L 289.805608 -66.10078 
L 288.562254 -66.115671 
L 287.318901 -66.426817 
L 286.075547 -66.603361 
L 284.832194 -66.483532 
L 283.58884 -66.426817 
L 282.345487 -66.483532 
L 281.102133 -66.313388 
L 279.85878 -66.313388 
L 278.615426 -66.301325 
L 277.372073 -66.30728 
L 276.128719 -66.109796 
L 274.885366 -66.313388 
L 273.642012 -66.313388 
L 272.398659 -66.313388 
L 271.155305 -66.313388 
L 269.911952 -66.408203 
L 268.668598 -66.313388 
L 267.425245 -66.165638 
L 266.181891 -66.30728 
L 264.938538 -66.30728 
L 263.695184 -66.30728 
L 262.451831 -66.09473 
L 261.208478 -66.209847 
L 259.965124 -66.63539 
L 258.721771 -66.169361 
L 257.478417 -65.5294 
L 256.235064 -64.642212 
L 254.99171 -63.706309 
L 253.748357 -61.887304 
L 252.505003 -60.521494 
L 251.26165 -60.342043 
L 250.018296 -59.670314 
L 248.774943 -59.609578 
L 247.531589 -59.366649 
L 246.288236 -58.80755 
L 245.044882 -58.263408 
L 243.801529 -57.74025 
L 242.558175 -57.64827 
L 241.314822 -57.52173 
L 240.071468 -57.487978 
L 238.828115 -57.511245 
L 237.584761 -57.49903 
L 236.341408 -57.486814 
L 235.098054 -57.510664 
L 233.854701 -57.462383 
L 232.611347 -57.461802 
L 231.367994 -57.462383 
L 230.12464 -57.462383 
L 228.881287 -57.462383 
L 227.637933 -57.465001 
L 226.39458 -57.427482 
L 225.151226 -57.435916 
L 223.907873 -57.435916 
L 222.664519 -57.401015 
L 221.421166 -57.465874 
L 220.177812 -57.463547 
L 218.934459 -57.433008 
L 217.691105 -57.463256 
L 216.447752 -57.46471 
L 215.204398 -57.427773 
L 213.961045 -57.464419 
L 212.717691 -57.461802 
L 211.474338 -57.458312 
L 210.230984 -57.46122 
L 208.987631 -57.303 
L 207.744277 -57.064093 
L 206.500924 -56.865285 
L 205.25757 -56.668405 
L 204.014217 -56.585485 
L 202.770863 -56.463061 
L 201.52751 -56.373757 
L 200.284156 -56.353099 
L 199.040803 -56.359207 
L 197.797449 -56.359498 
L 196.554096 -56.362406 
L 195.310742 -56.363861 
L 194.067389 -56.356008 
L 192.824035 -56.359505 
L 191.580682 -56.35688 
L 190.337328 -56.356008 
L 189.093975 -56.353681 
L 187.850621 -56.354844 
L 186.607268 -56.352816 
L 185.363914 -56.355426 
L 184.120561 -56.355135 
L 182.877207 -56.357171 
L 181.633854 -56.356008 
L 180.3905 -56.355135 
L 179.147147 -56.358342 
L 177.903793 -56.355426 
L 176.66044 -56.358916 
L 175.417086 -56.358335 
L 174.173733 -56.361243 
L 172.930379 -56.361534 
L 171.687026 -56.359214 
L 170.443672 -56.358916 
L 169.200319 -56.356008 
L 167.956965 -56.356299 
L 166.713612 -56.365897 
L 165.470258 -56.372295 
L 164.226905 -56.362123 
L 162.983551 -56.365024 
L 161.740198 -56.37404 
L 160.496844 -56.372586 
L 159.253491 -56.369387 
L 158.010137 -56.37753 
L 156.766784 -56.375785 
L 155.52343 -56.393527 
L 154.280077 -56.368521 
L 153.036723 -56.363861 
L 151.79337 -56.378112 
L 150.550016 -56.390909 
L 149.306663 -56.379275 
L 148.063309 -56.371437 
L 146.819956 -56.366769 
L 145.576602 -56.369387 
L 144.333249 -56.372302 
L 143.089896 -56.369678 
L 141.846542 -56.361534 
L 140.603189 -56.368514 
L 139.359835 -56.368514 
L 138.116482 -56.367351 
L 136.873128 -56.373749 
L 135.629775 -56.367351 
L 134.386421 -56.372004 
L 133.143068 -56.375204 
L 131.899714 -56.390909 
L 130.656361 -56.37841 
L 129.413007 -56.404295 
L 128.169654 -56.479915 
L 126.9263 -56.390328 
L 125.682947 -56.401387 
L 124.439593 -56.433664 
L 123.19624 -56.429599 
L 121.952886 -56.454023 
L 120.709533 -56.438317 
L 119.466179 -56.419412 
L 118.222826 -56.395272 
L 116.979472 -56.422902 
L 115.736119 -56.569503 
L 114.492765 -56.550925 
L 113.249412 -56.56077 
L 112.006058 -56.54713 
L 110.762705 -56.75275 
L 109.519351 -56.731511 
L 108.275998 -56.693716 
L 107.032644 -56.820495 
L 105.789291 -56.741102 
L 104.545937 -57.02008 
L 103.302584 -57.103226 
L 102.05923 -56.752721 
L 100.815877 -56.799889 
L 99.572523 -56.668957 
L 98.32917 -56.649769 
L 97.085816 -56.721324 
L 95.842463 -56.82693 
L 94.599109 -56.932558 
L 93.355756 -56.743421 
L 92.112402 -56.782125 
L 90.869049 -56.834776 
L 89.625695 -56.895882 
L 88.382342 -56.915383 
L 87.138988 -57.175108 
L 85.895635 -57.109312 
L 84.652281 -56.74894 
L 83.408928 -56.813806 
L 82.165574 -56.491869 
L 80.922221 -56.37724 
L 79.678867 -56.345828 
z
" style="stroke: #edd1cb; stroke-opacity: 0.2"/>
    </defs>
    <g clip-path="url(#p70b1d95771)">
     <use xlink:href="#md1b7ffbae3" x="0" y="359.574553" style="fill: #edd1cb; fill-opacity: 0.2; stroke: #edd1cb; stroke-opacity: 0.2"/>
    </g>
   </g>
   <g id="PolyCollection_2">
    <defs>
     <path id="m10b1562e20" d="M 79.678867 -56.350198 
L 79.678867 -56.338266 
L 80.922221 -56.359782 
L 82.165574 -56.392654 
L 83.408928 -56.388866 
L 84.652281 -56.402536 
L 85.895635 -56.398762 
L 87.138988 -56.401961 
L 88.382342 -56.441516 
L 89.625695 -56.415035 
L 90.869049 -56.424349 
L 92.112402 -56.496755 
L 93.355756 -56.43599 
L 94.599109 -56.572957 
L 95.842463 -56.566856 
L 97.085816 -56.597693 
L 98.32917 -56.626763 
L 99.572523 -56.731744 
L 100.815877 -57.014474 
L 102.05923 -56.919666 
L 103.302584 -57.036295 
L 104.545937 -57.093293 
L 105.789291 -57.193635 
L 107.032644 -57.141574 
L 108.275998 -57.232034 
L 109.519351 -57.183172 
L 110.762705 -57.230856 
L 112.006058 -57.210482 
L 113.249412 -57.184037 
L 114.492765 -57.198863 
L 115.736119 -57.29951 
L 116.979472 -57.155251 
L 118.222826 -57.383273 
L 119.466179 -57.237851 
L 120.709533 -57.243959 
L 121.952886 -57.136346 
L 123.19624 -57.297765 
L 124.439593 -57.172062 
L 125.682947 -57.251811 
L 126.9263 -57.238433 
L 128.169654 -57.397234 
L 129.413007 -57.254138 
L 130.656361 -57.397234 
L 131.899714 -57.397234 
L 133.143068 -57.297765 
L 134.386421 -57.232034 
L 135.629775 -57.303 
L 136.873128 -57.133728 
L 138.116482 -57.303 
L 139.359835 -57.205567 
L 140.603189 -57.297765 
L 141.846542 -57.110722 
L 143.089896 -57.02669 
L 144.333249 -57.144199 
L 145.576602 -57.231452 
L 146.819956 -57.248321 
L 148.063309 -57.301255 
L 149.306663 -57.297765 
L 150.550016 -57.234361 
L 151.79337 -57.108068 
L 153.036723 -57.397234 
L 154.280077 -57.297765 
L 155.52343 -57.29951 
L 156.766784 -57.16511 
L 158.010137 -57.214285 
L 159.253491 -57.124385 
L 160.496844 -57.197423 
L 161.740198 -57.185346 
L 162.983551 -57.316343 
L 164.226905 -57.151455 
L 165.470258 -57.303793 
L 166.713612 -57.166848 
L 167.956965 -57.195089 
L 169.200319 -57.194791 
L 170.443672 -57.243617 
L 171.687026 -57.322196 
L 172.930379 -57.147318 
L 174.173733 -57.339036 
L 175.417086 -57.439988 
L 176.66044 -57.046431 
L 177.903793 -57.48099 
L 179.147147 -57.542933 
L 180.3905 -57.377398 
L 181.633854 -57.462354 
L 182.877207 -57.243064 
L 184.120561 -57.296572 
L 185.363914 -57.565604 
L 186.607268 -57.528892 
L 187.850621 -57.40737 
L 189.093975 -57.545769 
L 190.337328 -57.413478 
L 191.580682 -57.511769 
L 192.824035 -57.4682 
L 194.067389 -57.246809 
L 195.310742 -57.558624 
L 196.554096 -57.460318 
L 197.797449 -57.409428 
L 199.040803 -57.287869 
L 200.284156 -57.668556 
L 201.52751 -57.468753 
L 202.770863 -57.448125 
L 204.014217 -57.642998 
L 205.25757 -57.642998 
L 206.500924 -57.556028 
L 207.744277 -57.509442 
L 208.987631 -57.524566 
L 210.230984 -57.304164 
L 211.474338 -57.438527 
L 212.717691 -57.58219 
L 213.961045 -57.393431 
L 215.204398 -57.506854 
L 216.447752 -57.499313 
L 217.691105 -57.447245 
L 218.934459 -57.570556 
L 220.177812 -57.475755 
L 221.421166 -57.312293 
L 222.664519 -57.516757 
L 223.907873 -57.404505 
L 225.151226 -57.512656 
L 226.39458 -57.735487 
L 227.637933 -57.409988 
L 228.881287 -57.602556 
L 230.12464 -57.60228 
L 231.367994 -57.537712 
L 232.611347 -57.614495 
L 233.854701 -57.834665 
L 235.098054 -57.834665 
L 236.341408 -57.694187 
L 237.584761 -57.694187 
L 238.828115 -57.65405 
L 240.071468 -57.606934 
L 241.314822 -57.670047 
L 242.558175 -57.523679 
L 243.801529 -57.5095 
L 245.044882 -57.784058 
L 246.288236 -57.553709 
L 247.531589 -57.555454 
L 248.774943 -57.756137 
L 250.018296 -57.504847 
L 251.26165 -57.435328 
L 252.505003 -57.515026 
L 253.748357 -57.834665 
L 254.99171 -57.694187 
L 256.235064 -57.519665 
L 257.478417 -57.552873 
L 258.721771 -57.772715 
L 259.965124 -57.600535 
L 261.208478 -57.600535 
L 262.451831 -57.508628 
L 263.695184 -57.510955 
L 264.938538 -57.600535 
L 266.181891 -57.834665 
L 267.425245 -57.600535 
L 268.668598 -57.46703 
L 269.911952 -57.602862 
L 271.155305 -57.512103 
L 272.398659 -57.694187 
L 273.642012 -57.694187 
L 274.885366 -57.460638 
L 276.128719 -57.69506 
L 277.372073 -57.600535 
L 278.615426 -57.463838 
L 279.85878 -57.459424 
L 281.102133 -57.395736 
L 282.345487 -57.46122 
L 283.58884 -57.601117 
L 284.832194 -57.701167 
L 286.075547 -57.695932 
L 287.318901 -57.584829 
L 288.562254 -57.787548 
L 289.805608 -57.654632 
L 291.048961 -57.615659 
L 292.292315 -57.604607 
L 293.535668 -57.600535 
L 294.779022 -57.565633 
L 296.022375 -57.649688 
L 297.265729 -57.553709 
L 298.509082 -57.834665 
L 299.752436 -57.600535 
L 300.995789 -57.834665 
L 302.239143 -57.508046 
L 303.482496 -57.69506 
L 304.72585 -57.600535 
L 305.969203 -57.694187 
L 307.212557 -57.625838 
L 308.45591 -57.510366 
L 309.699264 -57.600535 
L 310.942617 -57.647361 
L 312.185971 -57.601117 
L 313.429324 -57.426319 
L 314.672678 -57.745958 
L 315.916031 -57.492624 
L 317.159385 -57.472505 
L 318.402738 -57.694187 
L 319.646092 -57.834665 
L 320.889445 -57.601698 
L 322.132799 -57.694187 
L 323.376152 -57.699422 
L 324.619506 -57.601109 
L 325.862859 -57.834665 
L 327.106213 -57.556901 
L 327.106213 -57.834665 
L 327.106213 -57.834665 
L 325.862859 -57.834665 
L 324.619506 -57.834665 
L 323.376152 -57.834665 
L 322.132799 -57.834665 
L 320.889445 -57.834665 
L 319.646092 -57.834665 
L 318.402738 -57.834665 
L 317.159385 -57.798019 
L 315.916031 -57.789003 
L 314.672678 -57.834665 
L 313.429324 -57.770098 
L 312.185971 -57.834665 
L 310.942617 -57.834665 
L 309.699264 -57.834665 
L 308.45591 -57.834665 
L 307.212557 -57.834665 
L 305.969203 -57.834665 
L 304.72585 -57.834665 
L 303.482496 -57.834665 
L 302.239143 -57.834665 
L 300.995789 -57.834665 
L 299.752436 -57.834665 
L 298.509082 -57.834665 
L 297.265729 -57.834665 
L 296.022375 -57.834665 
L 294.779022 -57.834665 
L 293.535668 -57.834665 
L 292.292315 -57.834665 
L 291.048961 -57.835829 
L 289.805608 -57.834665 
L 288.562254 -57.834665 
L 287.318901 -57.834665 
L 286.075547 -57.834665 
L 284.832194 -57.834665 
L 283.58884 -57.834665 
L 282.345487 -57.78813 
L 281.102133 -57.744547 
L 279.85878 -57.788712 
L 278.615426 -57.78813 
L 277.372073 -57.834665 
L 276.128719 -57.834665 
L 274.885366 -57.787839 
L 273.642012 -57.834665 
L 272.398659 -57.834665 
L 271.155305 -57.834665 
L 269.911952 -57.834665 
L 268.668598 -57.791039 
L 267.425245 -57.834665 
L 266.181891 -57.834665 
L 264.938538 -57.834665 
L 263.695184 -57.834665 
L 262.451831 -57.834665 
L 261.208478 -57.834665 
L 259.965124 -57.834665 
L 258.721771 -57.834665 
L 257.478417 -57.834665 
L 256.235064 -57.834665 
L 254.99171 -57.834665 
L 253.748357 -57.834665 
L 252.505003 -57.834665 
L 251.26165 -57.787839 
L 250.018296 -57.788421 
L 248.774943 -57.834665 
L 247.531589 -57.834665 
L 246.288236 -57.834665 
L 245.044882 -57.834665 
L 243.801529 -57.817796 
L 242.558175 -57.796739 
L 241.314822 -57.834665 
L 240.071468 -57.834665 
L 238.828115 -57.834665 
L 237.584761 -57.834665 
L 236.341408 -57.834665 
L 235.098054 -57.834665 
L 233.854701 -57.834665 
L 232.611347 -57.834665 
L 231.367994 -57.834665 
L 230.12464 -57.834665 
L 228.881287 -57.834665 
L 227.637933 -57.783186 
L 226.39458 -57.834665 
L 225.151226 -57.827685 
L 223.907873 -57.77854 
L 222.664519 -57.814306 
L 221.421166 -57.720654 
L 220.177812 -57.77854 
L 218.934459 -57.820705 
L 217.691105 -57.778532 
L 216.447752 -57.811398 
L 215.204398 -57.806802 
L 213.961045 -57.731161 
L 212.717691 -57.816109 
L 211.474338 -57.759918 
L 210.230984 -57.709042 
L 208.987631 -57.790457 
L 207.744277 -57.78813 
L 206.500924 -57.790457 
L 205.25757 -57.792842 
L 204.014217 -57.792784 
L 202.770863 -57.741013 
L 201.52751 -57.761082 
L 200.284156 -57.778823 
L 199.040803 -57.678212 
L 197.797449 -57.731997 
L 196.554096 -57.764863 
L 195.310742 -57.785832 
L 194.067389 -57.65725 
L 192.824035 -57.785803 
L 191.580682 -57.78813 
L 190.337328 -57.738985 
L 189.093975 -57.775624 
L 187.850621 -57.731713 
L 186.607268 -57.765153 
L 185.363914 -57.77449 
L 184.120561 -57.650277 
L 182.877207 -57.60958 
L 181.633854 -57.728536 
L 180.3905 -57.702643 
L 179.147147 -57.734033 
L 177.903793 -57.719491 
L 176.66044 -57.464717 
L 175.417086 -57.653483 
L 174.173733 -57.597641 
L 172.930379 -57.519425 
L 171.687026 -57.585716 
L 170.443672 -57.525206 
L 169.200319 -57.487113 
L 167.956965 -57.48536 
L 166.713612 -57.467619 
L 165.470258 -57.506017 
L 164.226905 -57.427795 
L 162.983551 -57.490326 
L 161.740198 -57.445514 
L 160.496844 -57.433924 
L 159.253491 -57.385324 
L 158.010137 -57.417593 
L 156.766784 -57.410904 
L 155.52343 -57.438243 
L 154.280077 -57.438243 
L 153.036723 -57.420793 
L 151.79337 -57.346496 
L 150.550016 -57.41294 
L 149.306663 -57.397234 
L 148.063309 -57.397234 
L 146.819956 -57.397234 
L 145.576602 -57.397234 
L 144.333249 -57.36495 
L 143.089896 -57.311747 
L 141.846542 -57.364085 
L 140.603189 -57.397234 
L 139.359835 -57.412649 
L 138.116482 -57.397234 
L 136.873128 -57.364078 
L 135.629775 -57.397234 
L 134.386421 -57.397234 
L 133.143068 -57.397234 
L 131.899714 -57.397234 
L 130.656361 -57.397234 
L 129.413007 -57.397234 
L 128.169654 -57.397234 
L 126.9263 -57.397234 
L 125.682947 -57.397234 
L 124.439593 -57.397234 
L 123.19624 -57.397234 
L 121.952886 -57.378038 
L 120.709533 -57.411195 
L 119.466179 -57.397234 
L 118.222826 -57.397234 
L 116.979472 -57.37164 
L 115.736119 -57.397234 
L 114.492765 -57.397234 
L 113.249412 -57.397234 
L 112.006058 -57.38909 
L 110.762705 -57.38909 
L 109.519351 -57.38211 
L 108.275998 -57.38909 
L 107.032644 -57.364659 
L 105.789291 -57.372803 
L 104.545937 -57.324414 
L 103.302584 -57.275268 
L 102.05923 -57.16863 
L 100.815877 -57.231467 
L 99.572523 -57.024378 
L 98.32917 -56.89205 
L 97.085816 -56.843181 
L 95.842463 -56.793468 
L 94.599109 -56.777457 
L 93.355756 -56.585841 
L 92.112402 -56.652096 
L 90.869049 -56.568325 
L 89.625695 -56.536361 
L 88.382342 -56.538077 
L 87.138988 -56.46626 
L 85.895635 -56.445886 
L 84.652281 -56.462166 
L 83.408928 -56.430181 
L 82.165574 -56.430173 
L 80.922221 -56.395279 
L 79.678867 -56.350198 
z
" style="stroke: #d499a7; stroke-opacity: 0.2"/>
    </defs>
    <g clip-path="url(#p70b1d95771)">
     <use xlink:href="#m10b1562e20" x="0" y="359.574553" style="fill: #d499a7; fill-opacity: 0.2; stroke: #d499a7; stroke-opacity: 0.2"/>
    </g>
   </g>
   <g id="PolyCollection_3">
    <defs>
     <path id="mcd67e4efe7" d="M 79.678867 -56.611086 
L 79.678867 -56.340302 
L 80.922221 -57.029736 
L 82.165574 -57.932818 
L 83.408928 -58.143252 
L 84.652281 -58.147237 
L 85.895635 -58.065138 
L 87.138988 -58.213041 
L 88.382342 -58.064128 
L 89.625695 -58.746756 
L 90.869049 -58.526005 
L 92.112402 -58.223206 
L 93.355756 -58.373296 
L 94.599109 -58.525394 
L 95.842463 -58.293568 
L 97.085816 -58.01147 
L 98.32917 -58.707172 
L 99.572523 -58.498651 
L 100.815877 -58.301763 
L 102.05923 -58.404402 
L 103.302584 -58.683308 
L 104.545937 -58.166105 
L 105.789291 -58.37675 
L 107.032644 -58.533821 
L 108.275998 -58.440692 
L 109.519351 -58.294383 
L 110.762705 -58.053374 
L 112.006058 -58.184247 
L 113.249412 -58.454588 
L 114.492765 -58.48224 
L 115.736119 -63.031853 
L 116.979472 -74.957958 
L 118.222826 -87.313001 
L 119.466179 -85.597275 
L 120.709533 -92.302743 
L 121.952886 -92.154121 
L 123.19624 -83.891693 
L 124.439593 -86.874879 
L 125.682947 -88.930442 
L 126.9263 -86.676399 
L 128.169654 -83.504338 
L 129.413007 -81.011248 
L 130.656361 -85.572292 
L 131.899714 -86.732648 
L 133.143068 -84.673252 
L 134.386421 -84.912414 
L 135.629775 -92.111657 
L 136.873128 -82.221397 
L 138.116482 -85.573142 
L 139.359835 -83.550917 
L 140.603189 -85.349606 
L 141.846542 -82.145734 
L 143.089896 -88.820743 
L 144.333249 -85.14288 
L 145.576602 -92.302743 
L 146.819956 -84.785846 
L 148.063309 -85.627552 
L 149.306663 -86.990744 
L 150.550016 -88.969365 
L 151.79337 -88.990596 
L 153.036723 -92.345206 
L 154.280077 -88.058728 
L 155.52343 -88.039583 
L 156.766784 -88.212585 
L 158.010137 -92.281511 
L 159.253491 -83.554829 
L 160.496844 -86.813583 
L 161.740198 -86.848608 
L 162.983551 -82.275036 
L 164.226905 -84.651134 
L 165.470258 -84.267509 
L 166.713612 -87.127732 
L 167.956965 -89.044112 
L 169.200319 -87.534676 
L 170.443672 -88.990596 
L 171.687026 -92.345206 
L 172.930379 -85.620281 
L 174.173733 -85.916122 
L 175.417086 -86.869462 
L 176.66044 -86.688265 
L 177.903793 -84.512139 
L 179.147147 -89.281442 
L 180.3905 -86.704254 
L 181.633854 -83.378707 
L 182.877207 -82.231642 
L 184.120561 -81.90948 
L 185.363914 -86.767666 
L 186.607268 -92.345206 
L 187.850621 -92.345206 
L 189.093975 -88.990596 
L 190.337328 -84.584981 
L 191.580682 -87.162394 
L 192.824035 -92.217816 
L 194.067389 -85.7675 
L 195.310742 -120.100247 
L 196.554096 -225.151565 
L 197.797449 -238.205844 
L 199.040803 -299.766773 
L 200.284156 -284.082067 
L 201.52751 -268.891864 
L 202.770863 -263.382025 
L 204.014217 -296.540135 
L 205.25757 -297.141312 
L 206.500924 -285.461837 
L 207.744277 -321.224176 
L 208.987631 -257.795672 
L 210.230984 -248.846187 
L 211.474338 -258.600441 
L 212.717691 -272.655017 
L 213.961045 -298.235312 
L 215.204398 -319.836844 
L 216.447752 -281.907497 
L 217.691105 -253.836293 
L 218.934459 -293.055227 
L 220.177812 -278.735538 
L 221.421166 -293.523778 
L 222.664519 -301.069469 
L 223.907873 -273.151519 
L 225.151226 -280.8412 
L 226.39458 -225.701336 
L 227.637933 -281.828169 
L 228.881287 -265.214314 
L 230.12464 -293.260731 
L 231.367994 -277.600725 
L 232.611347 -282.103323 
L 233.854701 -212.434834 
L 235.098054 -267.761741 
L 236.341408 -278.493809 
L 237.584761 -282.447807 
L 238.828115 -280.251634 
L 240.071468 -256.108609 
L 241.314822 -255.868618 
L 242.558175 -318.796781 
L 243.801529 -280.371172 
L 245.044882 -273.125437 
L 246.288236 -297.653949 
L 247.531589 -220.737355 
L 248.774943 -264.439051 
L 250.018296 -257.162843 
L 251.26165 -264.655535 
L 252.505003 -266.501246 
L 253.748357 -224.677873 
L 254.99171 -246.776299 
L 256.235064 -254.258084 
L 257.478417 -254.653517 
L 258.721771 -266.788362 
L 259.965124 -274.268641 
L 261.208478 -256.780295 
L 262.451831 -233.678677 
L 263.695184 -256.937351 
L 264.938538 -320.130889 
L 266.181891 -296.114338 
L 267.425245 -247.961996 
L 268.668598 -280.209753 
L 269.911952 -281.280522 
L 271.155305 -281.743962 
L 272.398659 -255.870799 
L 273.642012 -288.27053 
L 274.885366 -257.947871 
L 276.128719 -282.095594 
L 277.372073 -299.766773 
L 278.615426 -280.065784 
L 279.85878 -280.889458 
L 281.102133 -271.667997 
L 282.345487 -282.103447 
L 283.58884 -321.224176 
L 284.832194 -296.392677 
L 286.075547 -239.088669 
L 287.318901 -296.390931 
L 288.562254 -321.224176 
L 289.805608 -296.390931 
L 291.048961 -269.228328 
L 292.292315 -298.142984 
L 293.535668 -282.353283 
L 294.779022 -296.408382 
L 296.022375 -281.929812 
L 297.265729 -283.242688 
L 298.509082 -271.788712 
L 299.752436 -263.826975 
L 300.995789 -263.806485 
L 302.239143 -283.215348 
L 303.482496 -268.402887 
L 304.72585 -264.912693 
L 305.969203 -278.49202 
L 307.212557 -268.528802 
L 308.45591 -255.829936 
L 309.699264 -296.391804 
L 310.942617 -264.322335 
L 312.185971 -320.755625 
L 313.429324 -231.595767 
L 314.672678 -279.836017 
L 315.916031 -242.756323 
L 317.159385 -264.336863 
L 318.402738 -256.270792 
L 319.646092 -321.224176 
L 320.889445 -282.314019 
L 322.132799 -296.466842 
L 323.376152 -273.224456 
L 324.619506 -258.295228 
L 325.862859 -296.774847 
L 327.106213 -263.593157 
L 327.106213 -321.224176 
L 327.106213 -321.224176 
L 325.862859 -321.224176 
L 324.619506 -314.071709 
L 323.376152 -321.224176 
L 322.132799 -321.224176 
L 320.889445 -321.224176 
L 319.646092 -321.224176 
L 318.402738 -313.389676 
L 317.159385 -318.34568 
L 315.916031 -305.606867 
L 314.672678 -321.224176 
L 313.429324 -304.737145 
L 312.185971 -321.640376 
L 310.942617 -321.224176 
L 309.699264 -321.224176 
L 308.45591 -313.154092 
L 307.212557 -316.912104 
L 305.969203 -321.224176 
L 304.72585 -321.224176 
L 303.482496 -321.224176 
L 302.239143 -321.224176 
L 300.995789 -321.224176 
L 299.752436 -321.067992 
L 298.509082 -321.224176 
L 297.265729 -322.057157 
L 296.022375 -321.848912 
L 294.779022 -321.224176 
L 293.535668 -320.638029 
L 292.292315 -321.224176 
L 291.048961 -321.224176 
L 289.805608 -321.224176 
L 288.562254 -321.224176 
L 287.318901 -321.224176 
L 286.075547 -304.930731 
L 284.832194 -321.224176 
L 283.58884 -321.224176 
L 282.345487 -321.224176 
L 281.102133 -321.067992 
L 279.85878 -321.224176 
L 278.615426 -321.224176 
L 277.372073 -321.224176 
L 276.128719 -321.224176 
L 274.885366 -314.071709 
L 273.642012 -321.38036 
L 272.398659 -313.210516 
L 271.155305 -321.38036 
L 269.911952 -320.911809 
L 268.668598 -321.067992 
L 267.425245 -305.922056 
L 266.181891 -322.005096 
L 264.938538 -321.540449 
L 263.695184 -312.961676 
L 262.451831 -304.99687 
L 261.208478 -313.603157 
L 259.965124 -318.392754 
L 258.721771 -319.169769 
L 257.478417 -312.048712 
L 256.235064 -312.186231 
L 254.99171 -306.515751 
L 253.748357 -298.080706 
L 252.505003 -317.745397 
L 251.26165 -320.271367 
L 250.018296 -314.823253 
L 248.774943 -322.16128 
L 247.531589 -293.727806 
L 246.288236 -323.879303 
L 245.044882 -322.477552 
L 243.801529 -322.629832 
L 242.558175 -323.414656 
L 241.314822 -314.445736 
L 240.071468 -314.285494 
L 238.828115 -322.16128 
L 237.584761 -322.16128 
L 236.341408 -322.005096 
L 235.098054 -319.274473 
L 233.854701 -289.616046 
L 232.611347 -321.536544 
L 231.367994 -322.317464 
L 230.12464 -323.098384 
L 228.881287 -320.680128 
L 227.637933 -323.283361 
L 226.39458 -298.951577 
L 225.151226 -322.477552 
L 223.907873 -321.852817 
L 222.664519 -321.848912 
L 221.421166 -321.536544 
L 220.177812 -321.38036 
L 218.934459 -321.38036 
L 217.691105 -311.825219 
L 216.447752 -321.38036 
L 215.204398 -321.224176 
L 213.961045 -321.224176 
L 212.717691 -321.224176 
L 211.474338 -314.071709 
L 210.230984 -312.959516 
L 208.987631 -314.071709 
L 207.744277 -321.224176 
L 206.500924 -321.224176 
L 205.25757 -321.224176 
L 204.014217 -321.224176 
L 202.770863 -321.224176 
L 201.52751 -321.224176 
L 200.284156 -321.224176 
L 199.040803 -321.692728 
L 197.797449 -306.919241 
L 196.554096 -292.929516 
L 195.310742 -196.508152 
L 194.067389 -125.140501 
L 192.824035 -113.781378 
L 191.580682 -92.366438 
L 190.337328 -91.561669 
L 189.093975 -92.51506 
L 187.850621 -92.451365 
L 186.607268 -92.451365 
L 185.363914 -92.38767 
L 184.120561 -90.403174 
L 182.877207 -91.219926 
L 181.633854 -91.283621 
L 180.3905 -92.366438 
L 179.147147 -92.430133 
L 177.903793 -92.366438 
L 176.66044 -92.38767 
L 175.417086 -92.408901 
L 174.173733 -92.303274 
L 172.930379 -92.38767 
L 171.687026 -92.557523 
L 170.443672 -92.493828 
L 169.200319 -92.51506 
L 167.956965 -92.494359 
L 166.713612 -92.451365 
L 165.470258 -91.199756 
L 164.226905 -92.408901 
L 162.983551 -90.265161 
L 161.740198 -92.430133 
L 160.496844 -92.430133 
L 159.253491 -91.368548 
L 158.010137 -92.451896 
L 156.766784 -92.451365 
L 155.52343 -92.38767 
L 154.280077 -92.408901 
L 153.036723 -92.408901 
L 151.79337 -92.430133 
L 150.550016 -92.38767 
L 149.306663 -92.38767 
L 148.063309 -92.366438 
L 146.819956 -92.345737 
L 145.576602 -92.430133 
L 144.333249 -92.217816 
L 143.089896 -92.366438 
L 141.846542 -91.092645 
L 140.603189 -92.196584 
L 139.359835 -91.210568 
L 138.116482 -92.239048 
L 136.873128 -91.135472 
L 135.629775 -92.472597 
L 134.386421 -92.323975 
L 133.143068 -91.461807 
L 131.899714 -92.408901 
L 130.656361 -92.38767 
L 129.413007 -90.140475 
L 128.169654 -91.307761 
L 126.9263 -92.451365 
L 125.682947 -92.430664 
L 124.439593 -92.430133 
L 123.19624 -91.362222 
L 121.952886 -92.366438 
L 120.709533 -92.451365 
L 119.466179 -92.38767 
L 118.222826 -92.408901 
L 116.979472 -85.974283 
L 115.736119 -72.635929 
L 114.492765 -62.083806 
L 113.249412 -59.165973 
L 112.006058 -58.994011 
L 110.762705 -58.900395 
L 109.519351 -58.998803 
L 108.275998 -59.067086 
L 107.032644 -59.015926 
L 105.789291 -58.981199 
L 104.545937 -58.848923 
L 103.302584 -59.008546 
L 102.05923 -58.905034 
L 100.815877 -58.84099 
L 99.572523 -58.878218 
L 98.32917 -58.877055 
L 97.085816 -58.624805 
L 95.842463 -58.78024 
L 94.599109 -58.792128 
L 93.355756 -58.75141 
L 92.112402 -58.701152 
L 90.869049 -58.825583 
L 89.625695 -58.830811 
L 88.382342 -58.666454 
L 87.138988 -58.711855 
L 85.895635 -58.678713 
L 84.652281 -58.650217 
L 83.408928 -58.62519 
L 82.165574 -58.507129 
L 80.922221 -57.783564 
L 79.678867 -56.611086 
z
" style="stroke: #a9678f; stroke-opacity: 0.2"/>
    </defs>
    <g clip-path="url(#p70b1d95771)">
     <use xlink:href="#mcd67e4efe7" x="0" y="359.574553" style="fill: #a9678f; fill-opacity: 0.2; stroke: #a9678f; stroke-opacity: 0.2"/>
    </g>
   </g>
   <g id="PolyCollection_4">
    <defs>
     <path id="m49f28b8410" d="M 79.678867 -56.340593 
L 79.678867 -56.336812 
L 80.922221 -56.346119 
L 82.165574 -56.3912 
L 83.408928 -56.459542 
L 84.652281 -56.455128 
L 85.895635 -56.509531 
L 87.138988 -56.591287 
L 88.382342 -56.911421 
L 89.625695 -57.43199 
L 90.869049 -58.158376 
L 92.112402 -58.225561 
L 93.355756 -58.42101 
L 94.599109 -58.225561 
L 95.842463 -58.244757 
L 97.085816 -58.031248 
L 98.32917 -58.227307 
L 99.572523 -58.262208 
L 100.815877 -57.964368 
L 102.05923 -58.005951 
L 103.302584 -58.42101 
L 104.545937 -58.262208 
L 105.789291 -58.42101 
L 107.032644 -58.225561 
L 108.275998 -58.230797 
L 109.519351 -58.051054 
L 110.762705 -58.291874 
L 112.006058 -58.291874 
L 113.249412 -58.016735 
L 114.492765 -58.225561 
L 115.736119 -58.225561 
L 116.979472 -58.338991 
L 118.222826 -58.42101 
L 119.466179 -58.42101 
L 120.709533 -58.030113 
L 121.952886 -58.095263 
L 123.19624 -58.09759 
L 124.439593 -58.103697 
L 125.682947 -58.225561 
L 126.9263 -58.234287 
L 128.169654 -58.42101 
L 129.413007 -58.236032 
L 130.656361 -58.42101 
L 131.899714 -58.42101 
L 133.143068 -58.226434 
L 134.386421 -58.244757 
L 135.629775 -58.415193 
L 136.873128 -58.411702 
L 138.116482 -58.118501 
L 139.359835 -58.265698 
L 140.603189 -58.219454 
L 141.846542 -58.103116 
L 143.089896 -58.260725 
L 144.333249 -58.415193 
L 145.576602 -58.223235 
L 146.819956 -58.417519 
L 148.063309 -58.021388 
L 149.306663 -58.417519 
L 150.550016 -58.225852 
L 151.79337 -58.223235 
L 153.036723 -58.23196 
L 154.280077 -58.412866 
L 155.52343 -58.219715 
L 156.766784 -58.416356 
L 158.010137 -60.693464 
L 159.253491 -66.445941 
L 160.496844 -71.793539 
L 161.740198 -72.089372 
L 162.983551 -79.685001 
L 164.226905 -73.9437 
L 165.470258 -79.685292 
L 166.713612 -73.882259 
L 167.956965 -77.463234 
L 169.200319 -75.322539 
L 170.443672 -73.60733 
L 171.687026 -77.610401 
L 172.930379 -77.598767 
L 174.173733 -74.722802 
L 175.417086 -76.140644 
L 176.66044 -73.281118 
L 177.903793 -77.800032 
L 179.147147 -74.876746 
L 180.3905 -74.712709 
L 181.633854 -73.159225 
L 182.877207 -75.454903 
L 184.120561 -76.536891 
L 185.363914 -79.731827 
L 186.607268 -77.561539 
L 187.850621 -75.070158 
L 189.093975 -75.45755 
L 190.337328 -73.954658 
L 191.580682 -77.583644 
L 192.824035 -76.234994 
L 194.067389 -74.748658 
L 195.310742 -79.538175 
L 196.554096 -135.146496 
L 197.797449 -211.019108 
L 199.040803 -237.208856 
L 200.284156 -237.364749 
L 201.52751 -269.933025 
L 202.770863 -240.778691 
L 204.014217 -238.549362 
L 205.25757 -220.574082 
L 206.500924 -210.794663 
L 207.744277 -225.781253 
L 208.987631 -249.833287 
L 210.230984 -237.054126 
L 211.474338 -249.835032 
L 212.717691 -236.961928 
L 213.961045 -210.403687 
L 215.204398 -250.080215 
L 216.447752 -210.180885 
L 217.691105 -269.82832 
L 218.934459 -237.15534 
L 220.177812 -230.310819 
L 221.421166 -230.555413 
L 222.664519 -219.530136 
L 223.907873 -218.305947 
L 225.151226 -236.905213 
L 226.39458 -228.646101 
L 227.637933 -238.369059 
L 228.881287 -230.050971 
L 230.12464 -210.805628 
L 231.367994 -236.25401 
L 232.611347 -223.469032 
L 233.854701 -225.541182 
L 235.098054 -218.143284 
L 236.341408 -217.333651 
L 237.584761 -251.958785 
L 238.828115 -237.1976 
L 240.071468 -237.583755 
L 241.314822 -201.297153 
L 242.558175 -205.136645 
L 243.801529 -236.896677 
L 245.044882 -238.175044 
L 246.288236 -224.116985 
L 247.531589 -237.091354 
L 248.774943 -252.689097 
L 250.018296 -270.247138 
L 251.26165 -250.351573 
L 252.505003 -210.83813 
L 253.748357 -252.58701 
L 254.99171 -250.385602 
L 256.235064 -270.770659 
L 257.478417 -224.423856 
L 258.721771 -237.586664 
L 259.965124 -250.180556 
L 261.208478 -237.495396 
L 262.451831 -250.732872 
L 263.695184 -224.304609 
L 264.938538 -237.890037 
L 266.181891 -239.507697 
L 267.425245 -252.691715 
L 268.668598 -224.054795 
L 269.911952 -252.901123 
L 271.155305 -237.26877 
L 272.398659 -250.906506 
L 273.642012 -223.601578 
L 274.885366 -250.109881 
L 276.128719 -218.108128 
L 277.372073 -210.737861 
L 278.615426 -224.215167 
L 279.85878 -238.135198 
L 281.102133 -230.213248 
L 282.345487 -238.05667 
L 283.58884 -237.782781 
L 284.832194 -250.042696 
L 286.075547 -219.304913 
L 287.318901 -205.985739 
L 288.562254 -252.901123 
L 289.805608 -239.409159 
L 291.048961 -269.542129 
L 292.292315 -249.936246 
L 293.535668 -202.955495 
L 294.779022 -216.687727 
L 296.022375 -236.698713 
L 297.265729 -237.446476 
L 298.509082 -269.43725 
L 299.752436 -269.500247 
L 300.995789 -192.272514 
L 302.239143 -219.083747 
L 303.482496 -217.749938 
L 304.72585 -252.272898 
L 305.969203 -224.278179 
L 307.212557 -252.901123 
L 308.45591 -219.681776 
L 309.699264 -230.988918 
L 310.942617 -250.755558 
L 312.185971 -252.901123 
L 313.429324 -223.978303 
L 314.672678 -223.972558 
L 315.916031 -217.458387 
L 317.159385 -237.650359 
L 318.402738 -237.067745 
L 319.646092 -240.464578 
L 320.889445 -226.550153 
L 322.132799 -218.776578 
L 323.376152 -229.909249 
L 324.619506 -227.142409 
L 325.862859 -237.527331 
L 327.106213 -224.218548 
L 327.106213 -270.561251 
L 327.106213 -270.561251 
L 325.862859 -270.247138 
L 324.619506 -270.181697 
L 323.376152 -270.289019 
L 322.132799 -264.32989 
L 320.889445 -270.456546 
L 319.646092 -270.351842 
L 318.402738 -270.665955 
L 317.159385 -270.665955 
L 315.916031 -264.142585 
L 314.672678 -270.665955 
L 313.429324 -270.665955 
L 312.185971 -270.770659 
L 310.942617 -270.770659 
L 309.699264 -270.665955 
L 308.45591 -264.814147 
L 307.212557 -270.770659 
L 305.969203 -270.456546 
L 304.72585 -270.665955 
L 303.482496 -264.500034 
L 302.239143 -264.407836 
L 300.995789 -250.773016 
L 299.752436 -270.665955 
L 298.509082 -270.665955 
L 297.265729 -270.442586 
L 296.022375 -270.268078 
L 294.779022 -263.668595 
L 293.535668 -256.832218 
L 292.292315 -270.54729 
L 291.048961 -270.770659 
L 289.805608 -270.770659 
L 288.562254 -270.770659 
L 287.318901 -263.734537 
L 286.075547 -264.308658 
L 284.832194 -270.770659 
L 283.58884 -270.770659 
L 282.345487 -270.770659 
L 281.102133 -270.665955 
L 279.85878 -270.770659 
L 278.615426 -270.770659 
L 277.372073 -257.626196 
L 276.128719 -264.118736 
L 274.885366 -270.770659 
L 273.642012 -270.491448 
L 272.398659 -270.770659 
L 271.155305 -270.770659 
L 269.911952 -270.770659 
L 268.668598 -270.770659 
L 267.425245 -270.770659 
L 266.181891 -270.770659 
L 264.938538 -270.770659 
L 263.695184 -270.770659 
L 262.451831 -271.084772 
L 261.208478 -270.435605 
L 259.965124 -270.770659 
L 258.721771 -270.770659 
L 257.478417 -270.770659 
L 256.235064 -270.770659 
L 254.99171 -270.770659 
L 253.748357 -270.770659 
L 252.505003 -263.966333 
L 251.26165 -270.770659 
L 250.018296 -270.770659 
L 248.774943 -270.770659 
L 247.531589 -270.665955 
L 246.288236 -270.354459 
L 245.044882 -270.665955 
L 243.801529 -270.561251 
L 242.558175 -263.87588 
L 241.314822 -257.541357 
L 240.071468 -270.351842 
L 238.828115 -270.351842 
L 237.584761 -270.456546 
L 236.341408 -263.768849 
L 235.098054 -263.860175 
L 233.854701 -269.621529 
L 232.611347 -269.723616 
L 231.367994 -270.037729 
L 230.12464 -258.12994 
L 228.881287 -270.142433 
L 227.637933 -270.247138 
L 226.39458 -270.249755 
L 225.151226 -270.456546 
L 223.907873 -264.278992 
L 222.664519 -264.397948 
L 221.421166 -270.351842 
L 220.177812 -270.142433 
L 218.934459 -270.459164 
L 217.691105 -270.665955 
L 216.447752 -263.343946 
L 215.204398 -270.875363 
L 213.961045 -263.23573 
L 212.717691 -270.456546 
L 211.474338 -270.561251 
L 210.230984 -270.456546 
L 208.987631 -270.456546 
L 207.744277 -270.354459 
L 206.500924 -263.771445 
L 205.25757 -264.604739 
L 204.014217 -270.665955 
L 202.770863 -270.665955 
L 201.52751 -270.770659 
L 200.284156 -270.665955 
L 199.040803 -270.665955 
L 197.797449 -258.979209 
L 196.554096 -202.428076 
L 195.310742 -124.042851 
L 194.067389 -96.3127 
L 192.824035 -79.871433 
L 191.580682 -79.871433 
L 190.337328 -79.126869 
L 189.093975 -79.824897 
L 187.850621 -79.801921 
L 186.607268 -79.813264 
L 185.363914 -79.848165 
L 184.120561 -79.836531 
L 182.877207 -79.825188 
L 181.633854 -79.058542 
L 180.3905 -79.380195 
L 179.147147 -79.813264 
L 177.903793 -79.813264 
L 176.66044 -78.450733 
L 175.417086 -79.80163 
L 174.173733 -79.766728 
L 172.930379 -79.789996 
L 171.687026 -79.778362 
L 170.443672 -79.066831 
L 169.200319 -79.743752 
L 167.956965 -79.743461 
L 166.713612 -78.998897 
L 165.470258 -79.778362 
L 164.226905 -79.028563 
L 162.983551 -79.789996 
L 161.740198 -78.333734 
L 160.496844 -77.72005 
L 159.253491 -73.981975 
L 158.010137 -67.508435 
L 156.766784 -60.423189 
L 155.52343 -58.42101 
L 154.280077 -58.42101 
L 153.036723 -58.42101 
L 151.79337 -58.42101 
L 150.550016 -58.42101 
L 149.306663 -58.42101 
L 148.063309 -58.418712 
L 146.819956 -58.42101 
L 145.576602 -58.42101 
L 144.333249 -58.42101 
L 143.089896 -58.419846 
L 141.846542 -58.419846 
L 140.603189 -58.418683 
L 139.359835 -58.418712 
L 138.116482 -58.418683 
L 136.873128 -58.419846 
L 135.629775 -58.42101 
L 134.386421 -58.42101 
L 133.143068 -58.42101 
L 131.899714 -58.42101 
L 130.656361 -58.42101 
L 129.413007 -58.42101 
L 128.169654 -58.42101 
L 126.9263 -58.42101 
L 125.682947 -58.42101 
L 124.439593 -58.42101 
L 123.19624 -58.42101 
L 121.952886 -58.42101 
L 120.709533 -58.42101 
L 119.466179 -58.42101 
L 118.222826 -58.42101 
L 116.979472 -58.42101 
L 115.736119 -58.42101 
L 114.492765 -58.42101 
L 113.249412 -58.42101 
L 112.006058 -58.42101 
L 110.762705 -58.42101 
L 109.519351 -58.42101 
L 108.275998 -58.42101 
L 107.032644 -58.42101 
L 105.789291 -58.42101 
L 104.545937 -58.42101 
L 103.302584 -58.42101 
L 102.05923 -58.42101 
L 100.815877 -58.368076 
L 99.572523 -58.42101 
L 98.32917 -58.42101 
L 97.085816 -58.42101 
L 95.842463 -58.42101 
L 94.599109 -58.42101 
L 93.355756 -58.42101 
L 92.112402 -58.42101 
L 90.869049 -58.42101 
L 89.625695 -58.103414 
L 88.382342 -57.561562 
L 87.138988 -57.102622 
L 85.895635 -56.942076 
L 84.652281 -56.768157 
L 83.408928 -56.702179 
L 82.165574 -56.474964 
L 80.922221 -56.411283 
L 79.678867 -56.340593 
z
" style="stroke: #6c3f70; stroke-opacity: 0.2"/>
    </defs>
    <g clip-path="url(#p70b1d95771)">
     <use xlink:href="#m49f28b8410" x="0" y="359.574553" style="fill: #6c3f70; fill-opacity: 0.2; stroke: #6c3f70; stroke-opacity: 0.2"/>
    </g>
   </g>
   <g id="PolyCollection_5">
    <defs>
     <path id="m50ac46cdf5" d="M 79.678867 -56.39557 
L 79.678867 -56.344665 
L 80.922221 -56.420576 
L 82.165574 -56.513064 
L 83.408928 -56.61422 
L 84.652281 -56.915594 
L 85.895635 -59.001784 
L 87.138988 -60.381947 
L 88.382342 -60.524403 
L 89.625695 -61.051415 
L 90.869049 -61.070029 
L 92.112402 -61.463251 
L 93.355756 -61.499898 
L 94.599109 -61.116564 
L 95.842463 -61.499898 
L 97.085816 -61.222432 
L 98.32917 -61.92046 
L 99.572523 -60.593042 
L 100.815877 -61.396939 
L 102.05923 -61.396939 
L 103.302584 -60.69891 
L 104.545937 -61.116564 
L 105.789291 -61.92046 
L 107.032644 -60.873417 
L 108.275998 -61.047924 
L 109.519351 -61.391122 
L 110.762705 -61.461216 
L 112.006058 -61.382324 
L 113.249412 -60.915168 
L 114.492765 -61.396939 
L 115.736119 -61.006261 
L 116.979472 -62.122583 
L 118.222826 -67.454054 
L 119.466179 -68.251203 
L 120.709533 -75.021238 
L 121.952886 -75.863148 
L 123.19624 -73.109723 
L 124.439593 -78.166461 
L 125.682947 -82.642796 
L 126.9263 -80.8065 
L 128.169654 -80.805628 
L 129.413007 -77.23532 
L 130.656361 -80.013227 
L 131.899714 -77.212394 
L 133.143068 -75.496319 
L 134.386421 -82.958174 
L 135.629775 -75.601133 
L 136.873128 -76.381813 
L 138.116482 -79.166584 
L 139.359835 -80.950178 
L 140.603189 -80.91812 
L 141.846542 -82.767089 
L 143.089896 -79.211985 
L 144.333249 -81.061179 
L 145.576602 -78.151374 
L 146.819956 -79.13278 
L 148.063309 -79.394737 
L 149.306663 -78.369697 
L 150.550016 -79.972836 
L 151.79337 -77.343391 
L 153.036723 -85.423088 
L 154.280077 -83.293228 
L 155.52343 -81.114375 
L 156.766784 -80.020578 
L 158.010137 -78.802285 
L 159.253491 -81.426001 
L 160.496844 -82.752735 
L 161.740198 -81.67351 
L 162.983551 -85.391677 
L 164.226905 -78.253722 
L 165.470258 -80.876303 
L 166.713612 -82.611777 
L 167.956965 -82.80897 
L 169.200319 -80.920635 
L 170.443672 -77.281055 
L 171.687026 -78.705587 
L 172.930379 -77.766803 
L 174.173733 -77.335131 
L 175.417086 -80.860707 
L 176.66044 -75.316657 
L 177.903793 -81.082963 
L 179.147147 -81.886598 
L 180.3905 -78.098149 
L 181.633854 -76.280017 
L 182.877207 -78.254384 
L 184.120561 -78.1476 
L 185.363914 -80.831164 
L 186.607268 -82.800245 
L 187.850621 -80.814331 
L 189.093975 -76.410781 
L 190.337328 -77.550858 
L 191.580682 -82.56117 
L 192.824035 -78.665486 
L 194.067389 -83.557606 
L 195.310742 -77.598687 
L 196.554096 -79.093836 
L 197.797449 -78.520005 
L 199.040803 -82.765038 
L 200.284156 -84.83092 
L 201.52751 -154.758283 
L 202.770863 -219.563991 
L 204.014217 -279.147004 
L 205.25757 -279.817112 
L 206.500924 -259.384545 
L 207.744277 -223.957362 
L 208.987631 -224.14114 
L 210.230984 -263.480229 
L 211.474338 -234.147185 
L 212.717691 -245.955607 
L 213.961045 -208.027088 
L 215.204398 -197.641097 
L 216.447752 -246.163837 
L 217.691105 -217.620133 
L 218.934459 -245.219623 
L 220.177812 -227.829611 
L 221.421166 -238.861388 
L 222.664519 -229.960656 
L 223.907873 -221.941258 
L 225.151226 -239.587163 
L 226.39458 -216.118739 
L 227.637933 -241.571572 
L 228.881287 -203.437178 
L 230.12464 -232.330856 
L 231.367994 -234.195197 
L 232.611347 -286.830861 
L 233.854701 -234.883024 
L 235.098054 -199.711326 
L 236.341408 -244.392807 
L 237.584761 -243.928509 
L 238.828115 -227.834933 
L 240.071468 -184.551262 
L 241.314822 -234.469689 
L 242.558175 -209.942646 
L 243.801529 -199.850183 
L 245.044882 -273.459073 
L 246.288236 -231.466108 
L 247.531589 -240.519337 
L 248.774943 -267.920564 
L 250.018296 -239.418131 
L 251.26165 -212.133526 
L 252.505003 -248.69321 
L 253.748357 -219.235481 
L 254.99171 -233.312634 
L 256.235064 -250.949151 
L 257.478417 -255.34562 
L 258.721771 -229.425741 
L 259.965124 -234.191205 
L 261.208478 -242.382717 
L 262.451831 -226.25821 
L 263.695184 -207.54784 
L 264.938538 -238.198515 
L 266.181891 -248.928685 
L 267.425245 -249.028024 
L 268.668598 -237.285064 
L 269.911952 -252.11118 
L 271.155305 -223.371672 
L 272.398659 -243.835475 
L 273.642012 -260.430047 
L 274.885366 -265.850138 
L 276.128719 -276.278106 
L 277.372073 -254.269449 
L 278.615426 -248.117111 
L 279.85878 -277.264028 
L 281.102133 -275.456177 
L 282.345487 -287.903295 
L 283.58884 -242.399972 
L 284.832194 -265.971261 
L 286.075547 -233.239108 
L 287.318901 -255.717226 
L 288.562254 -278.129453 
L 289.805608 -212.986946 
L 291.048961 -263.478324 
L 292.292315 -231.872804 
L 293.535668 -253.453657 
L 294.779022 -229.548696 
L 296.022375 -277.560734 
L 297.265729 -253.27166 
L 298.509082 -254.585343 
L 299.752436 -243.699367 
L 300.995789 -267.971135 
L 302.239143 -253.790739 
L 303.482496 -278.629299 
L 304.72585 -269.295492 
L 305.969203 -266.879011 
L 307.212557 -253.747876 
L 308.45591 -255.060606 
L 309.699264 -279.694666 
L 310.942617 -248.713416 
L 312.185971 -246.310678 
L 313.429324 -245.672054 
L 314.672678 -318.683352 
L 315.916031 -257.83895 
L 317.159385 -269.493034 
L 318.402738 -277.408912 
L 319.646092 -278.015616 
L 320.889445 -318.40065 
L 322.132799 -261.153568 
L 323.376152 -294.367477 
L 324.619506 -294.097035 
L 325.862859 -293.805608 
L 327.106213 -277.844017 
L 327.106213 -318.683352 
L 327.106213 -318.683352 
L 325.862859 -318.683352 
L 324.619506 -318.683352 
L 323.376152 -318.966053 
L 322.132799 -318.40065 
L 320.889445 -319.252289 
L 319.646092 -319.107404 
L 318.402738 -318.824703 
L 317.159385 -318.117949 
L 315.916031 -311.888042 
L 314.672678 -319.390106 
L 313.429324 -310.660093 
L 312.185971 -311.050873 
L 310.942617 -311.087221 
L 309.699264 -319.248755 
L 308.45591 -311.479433 
L 307.212557 -311.242358 
L 305.969203 -318.545535 
L 304.72585 -318.40065 
L 303.482496 -319.390106 
L 302.239143 -311.073704 
L 300.995789 -318.683352 
L 299.752436 -303.178497 
L 298.509082 -310.928027 
L 297.265729 -311.050408 
L 296.022375 -318.966053 
L 294.779022 -302.583675 
L 293.535668 -310.836927 
L 292.292315 -296.143786 
L 291.048961 -318.542001 
L 289.805608 -294.435113 
L 288.562254 -319.531457 
L 287.318901 -311.339617 
L 286.075547 -300.261544 
L 284.832194 -316.168747 
L 283.58884 -307.657115 
L 282.345487 -318.824703 
L 281.102133 -318.40065 
L 279.85878 -319.107404 
L 278.615426 -310.540149 
L 277.372073 -310.406476 
L 276.128719 -317.835247 
L 274.885366 -316.849325 
L 273.642012 -316.280388 
L 272.398659 -309.072216 
L 271.155305 -293.586121 
L 269.911952 -308.677692 
L 268.668598 -303.594225 
L 267.425245 -307.998277 
L 266.181891 -308.280979 
L 264.938538 -298.314175 
L 263.695184 -283.794748 
L 262.451831 -296.765889 
L 261.208478 -302.411582 
L 259.965124 -298.913491 
L 258.721771 -298.429452 
L 257.478417 -309.913951 
L 256.235064 -309.488626 
L 254.99171 -300.030453 
L 253.748357 -293.242524 
L 252.505003 -307.305287 
L 251.26165 -284.646307 
L 250.018296 -302.365708 
L 248.774943 -310.27036 
L 247.531589 -297.899488 
L 246.288236 -291.892034 
L 245.044882 -304.616459 
L 243.801529 -271.861685 
L 242.558175 -276.403489 
L 241.314822 -289.386126 
L 240.071468 -259.207137 
L 238.828115 -290.368681 
L 237.584761 -292.813534 
L 236.341408 -291.738744 
L 235.098054 -268.70805 
L 233.854701 -291.282285 
L 232.611347 -299.302584 
L 231.367994 -287.730772 
L 230.12464 -285.846015 
L 228.881287 -269.957063 
L 227.637933 -289.339053 
L 226.39458 -275.001062 
L 225.151226 -285.518523 
L 223.907873 -275.310965 
L 222.664519 -279.062441 
L 221.421166 -283.089121 
L 220.177812 -279.432905 
L 218.934459 -282.246252 
L 217.691105 -272.560259 
L 216.447752 -283.607408 
L 215.204398 -261.141993 
L 213.961045 -265.351215 
L 212.717691 -282.430139 
L 211.474338 -278.906184 
L 210.230984 -279.696702 
L 208.987631 -272.835784 
L 207.744277 -273.074154 
L 206.500924 -283.340412 
L 205.25757 -283.036769 
L 204.014217 -283.823622 
L 202.770863 -267.39918 
L 201.52751 -224.289536 
L 200.284156 -131.016449 
L 199.040803 -103.625932 
L 197.797449 -84.640714 
L 196.554096 -85.34456 
L 195.310742 -83.85802 
L 194.067389 -85.407382 
L 192.824035 -84.477673 
L 191.580682 -85.391677 
L 190.337328 -84.323984 
L 189.093975 -83.545376 
L 187.850621 -85.219307 
L 186.607268 -85.391677 
L 185.363914 -85.391677 
L 184.120561 -84.456318 
L 182.877207 -84.540663 
L 181.633854 -83.592049 
L 180.3905 -84.496455 
L 179.147147 -85.486303 
L 177.903793 -85.533027 
L 176.66044 -82.806527 
L 175.417086 -85.407382 
L 174.173733 -84.48088 
L 172.930379 -84.040817 
L 171.687026 -84.590689 
L 170.443672 -84.496549 
L 169.200319 -85.501616 
L 167.956965 -85.517322 
L 166.713612 -85.533027 
L 165.470258 -85.533027 
L 164.226905 -84.622107 
L 162.983551 -85.642967 
L 161.740198 -85.517322 
L 160.496844 -85.549126 
L 159.253491 -85.548733 
L 158.010137 -84.765588 
L 156.766784 -85.454892 
L 155.52343 -85.533027 
L 154.280077 -85.564439 
L 153.036723 -85.548733 
L 151.79337 -84.591329 
L 150.550016 -85.439579 
L 149.306663 -84.62908 
L 148.063309 -85.454892 
L 146.819956 -85.423088 
L 145.576602 -84.590689 
L 144.333249 -85.564831 
L 143.089896 -85.438794 
L 141.846542 -85.596243 
L 140.603189 -85.517322 
L 139.359835 -85.517322 
L 138.116482 -84.995545 
L 136.873128 -83.696049 
L 135.629775 -83.721643 
L 134.386421 -85.533027 
L 133.143068 -83.648401 
L 131.899714 -84.51216 
L 130.656361 -85.407382 
L 129.413007 -83.805406 
L 128.169654 -85.423088 
L 126.9263 -85.391677 
L 125.682947 -85.548733 
L 124.439593 -84.51216 
L 123.19624 -81.849704 
L 121.952886 -83.347376 
L 120.709533 -82.749289 
L 119.466179 -77.339152 
L 118.222826 -74.675205 
L 116.979472 -67.590344 
L 115.736119 -64.080336 
L 114.492765 -62.510295 
L 113.249412 -61.914643 
L 112.006058 -61.917552 
L 110.762705 -61.92046 
L 109.519351 -61.92046 
L 108.275998 -61.92046 
L 107.032644 -61.92046 
L 105.789291 -61.92046 
L 104.545937 -61.92046 
L 103.302584 -61.92046 
L 102.05923 -61.92046 
L 100.815877 -61.92046 
L 99.572523 -61.780273 
L 98.32917 -61.92046 
L 97.085816 -61.92046 
L 95.842463 -61.92046 
L 94.599109 -61.92046 
L 93.355756 -61.92046 
L 92.112402 -61.92046 
L 90.869049 -61.92046 
L 89.625695 -61.92046 
L 88.382342 -61.75177 
L 87.138988 -61.68633 
L 85.895635 -60.653589 
L 84.652281 -58.129648 
L 83.408928 -57.225672 
L 82.165574 -56.671401 
L 80.922221 -56.542745 
L 79.678867 -56.39557 
z
" style="stroke: #2d1e3e; stroke-opacity: 0.2"/>
    </defs>
    <g clip-path="url(#p70b1d95771)">
     <use xlink:href="#m50ac46cdf5" x="0" y="359.574553" style="fill: #2d1e3e; fill-opacity: 0.2; stroke: #2d1e3e; stroke-opacity: 0.2"/>
    </g>
   </g>
   <g id="line2d_13">
    <path d="M 79.678867 303.231924 
L 82.165574 303.146997 
L 83.408928 302.947477 
L 84.652281 302.987323 
L 85.895635 302.690952 
L 87.138988 302.609515 
L 88.382342 302.837538 
L 102.05923 302.975398 
L 103.302584 302.711602 
L 104.545937 302.79013 
L 105.789291 302.982088 
L 108.275998 303.0103 
L 110.762705 303.014662 
L 113.249412 303.103661 
L 123.19624 303.170555 
L 202.770863 303.150196 
L 208.987631 302.414067 
L 210.230984 302.168012 
L 212.717691 302.149107 
L 213.961045 302.113042 
L 215.204398 302.282314 
L 216.447752 302.11246 
L 218.934459 302.245667 
L 221.421166 302.146198 
L 222.664519 302.301801 
L 225.151226 302.234034 
L 226.39458 302.271843 
L 227.637933 302.146489 
L 232.611347 302.174992 
L 238.828115 302.122349 
L 240.071468 302.190988 
L 243.801529 302.074941 
L 246.288236 301.247195 
L 247.531589 300.685282 
L 248.774943 300.385712 
L 250.018296 300.285952 
L 251.26165 299.744398 
L 252.505003 299.756322 
L 253.748357 298.709861 
L 254.99171 297.070657 
L 256.235064 296.356632 
L 257.478417 295.312206 
L 259.965124 293.700923 
L 261.208478 294.25731 
L 262.451831 294.514999 
L 263.695184 294.022598 
L 266.181891 294.090656 
L 267.425245 294.143299 
L 268.668598 293.952504 
L 269.911952 293.977517 
L 271.155305 294.167439 
L 272.398659 293.405424 
L 274.885366 293.795448 
L 276.128719 294.296865 
L 277.372073 294.003402 
L 278.615426 294.113342 
L 279.85878 293.572369 
L 281.102133 293.261165 
L 283.58884 293.730589 
L 286.075547 293.141337 
L 287.318901 294.065352 
L 288.562254 294.359106 
L 289.805608 294.289885 
L 293.535668 293.527288 
L 294.779022 293.54852 
L 296.022375 294.171511 
L 297.265729 293.572951 
L 298.509082 293.532814 
L 299.752436 293.90626 
L 300.995789 293.796902 
L 302.239143 293.439453 
L 303.482496 293.936508 
L 304.72585 294.065352 
L 305.969203 293.914694 
L 307.212557 294.558044 
L 309.699264 293.741932 
L 312.185971 293.684054 
L 313.429324 294.090656 
L 314.672678 294.796247 
L 315.916031 294.576658 
L 317.159385 293.758801 
L 318.402738 293.673293 
L 319.646092 294.57026 
L 320.889445 293.773925 
L 322.132799 293.683763 
L 323.376152 294.079895 
L 324.619506 293.900734 
L 325.862859 294.238696 
L 327.106213 294.023471 
L 327.106213 294.023471 
" clip-path="url(#p70b1d95771)" style="fill: none; stroke: #edd1cb; stroke-width: 1.5; stroke-linecap: round"/>
   </g>
   <g id="line2d_14">
    <path d="M 79.678867 303.231633 
L 88.382342 303.088828 
L 90.869049 303.083011 
L 92.112402 303.00361 
L 93.355756 303.068469 
L 94.599109 302.898033 
L 98.32917 302.816888 
L 99.572523 302.691824 
L 100.815877 302.437334 
L 102.05923 302.526042 
L 105.789291 302.282896 
L 109.519351 302.282023 
L 113.249412 302.267772 
L 116.979472 302.301801 
L 118.222826 302.181972 
L 121.952886 302.30151 
L 123.19624 302.210475 
L 125.682947 302.234324 
L 146.819956 302.235488 
L 150.550016 302.234615 
L 151.79337 302.334084 
L 153.036723 302.169466 
L 160.496844 302.247412 
L 170.443672 302.172084 
L 171.687026 302.107225 
L 172.930379 302.215129 
L 175.417086 302.014155 
L 176.66044 302.313725 
L 177.903793 301.960348 
L 179.147147 301.916721 
L 180.3905 302.018226 
L 181.633854 301.96093 
L 182.877207 302.127002 
L 184.120561 302.086284 
L 185.363914 301.885019 
L 190.337328 301.981871 
L 192.824035 301.924283 
L 194.067389 302.104898 
L 195.310742 301.884728 
L 199.040803 302.074941 
L 200.284156 301.844301 
L 202.770863 301.959185 
L 204.014217 301.835576 
L 208.987631 301.90945 
L 210.230984 302.046729 
L 212.717691 301.853608 
L 213.961045 301.988851 
L 216.447752 301.898107 
L 217.691105 301.940571 
L 218.934459 301.862042 
L 221.421166 302.039749 
L 222.664519 301.894908 
L 223.907873 301.980416 
L 226.39458 301.780315 
L 227.637933 301.975472 
L 228.881287 301.83383 
L 250.018296 301.905378 
L 251.26165 301.952786 
L 254.99171 301.786713 
L 257.478417 301.879784 
L 258.721771 301.760537 
L 262.451831 301.879784 
L 264.938538 301.83354 
L 266.181891 301.739887 
L 268.668598 301.92312 
L 269.911952 301.832085 
L 271.155305 301.878621 
L 273.642012 301.786713 
L 274.885366 301.926901 
L 276.128719 301.786423 
L 282.345487 301.92661 
L 284.832194 301.784387 
L 312.185971 301.833249 
L 313.429324 301.96093 
L 314.672678 301.775371 
L 315.916031 301.915558 
L 317.159385 301.915849 
L 319.646092 301.739887 
L 320.889445 301.832958 
L 323.376152 301.784968 
L 324.619506 301.833249 
L 325.862859 301.739887 
L 327.106213 301.877457 
L 327.106213 301.877457 
" clip-path="url(#p70b1d95771)" style="fill: none; stroke: #d499a7; stroke-width: 1.5; stroke-linecap: round"/>
   </g>
   <g id="line2d_15">
    <path d="M 79.678867 303.142343 
L 82.165574 301.340848 
L 83.408928 301.169249 
L 88.382342 301.190771 
L 89.625695 300.79813 
L 90.869049 300.872587 
L 92.112402 301.095665 
L 94.599109 300.879276 
L 97.085816 301.24196 
L 98.32917 300.782425 
L 102.05923 300.899054 
L 103.302584 300.716984 
L 104.545937 301.041568 
L 107.032644 300.780389 
L 108.275998 300.790859 
L 110.762705 301.04244 
L 112.006058 300.953151 
L 113.249412 300.742579 
L 114.492765 299.78308 
L 115.736119 292.19289 
L 116.979472 278.99433 
L 118.222826 269.150961 
L 119.466179 270.440279 
L 120.709533 267.208115 
L 121.952886 267.293042 
L 123.19624 271.516406 
L 124.439593 269.399634 
L 125.682947 268.346192 
L 126.9263 269.437153 
L 129.413007 273.85393 
L 130.656361 270.541493 
L 131.899714 269.454022 
L 133.143068 271.046691 
L 134.386421 270.455112 
L 135.629775 267.27181 
L 136.873128 272.815031 
L 138.116482 270.594718 
L 139.359835 271.679571 
L 140.603189 270.720944 
L 141.846542 272.71149 
L 143.089896 268.439554 
L 144.333249 270.388799 
L 145.576602 267.208115 
L 146.819956 270.451913 
L 148.063309 270.451622 
L 150.550016 268.333395 
L 151.79337 268.312164 
L 153.036723 267.208115 
L 154.280077 268.778098 
L 155.52343 268.798457 
L 156.766784 268.235962 
L 158.010137 267.208115 
L 159.253491 271.623728 
L 160.496844 269.385092 
L 161.740198 269.393526 
L 162.983551 272.755407 
L 164.226905 270.522297 
L 165.470258 271.446022 
L 166.713612 269.269917 
L 167.956965 268.258939 
L 169.200319 269.039859 
L 170.443672 268.2697 
L 171.687026 267.123188 
L 172.930379 270.530732 
L 174.173733 270.2617 
L 175.417086 269.390036 
L 176.66044 269.468855 
L 177.903793 270.576394 
L 179.147147 268.222292 
L 180.3905 269.494741 
L 181.633854 271.677535 
L 182.877207 272.841788 
L 184.120561 273.087553 
L 185.363914 269.442388 
L 186.607268 267.186883 
L 187.850621 267.186883 
L 189.093975 268.2697 
L 190.337328 271.075194 
L 191.580682 269.258283 
L 192.824035 260.140574 
L 194.067389 257.261496 
L 195.310742 201.060585 
L 196.554096 97.63483 
L 197.797449 83.355779 
L 199.040803 45.34666 
L 201.52751 61.273931 
L 202.770863 63.149592 
L 204.014217 46.57839 
L 205.25757 46.377998 
L 206.500924 52.655312 
L 207.744277 38.350376 
L 208.987631 70.06444 
L 210.230984 78.224105 
L 211.474338 69.355359 
L 212.717691 62.056887 
L 213.961045 45.965288 
L 215.204398 38.81282 
L 216.447752 54.795643 
L 217.691105 74.036514 
L 218.934459 48.061701 
L 220.177812 55.93721 
L 221.421166 47.905517 
L 222.664519 44.756244 
L 223.907873 61.277421 
L 225.151226 53.873081 
L 226.39458 93.687768 
L 227.637933 53.128808 
L 228.881287 63.034999 
L 230.12464 47.488445 
L 231.367994 55.699008 
L 232.611347 55.403218 
L 233.854701 105.825615 
L 235.098054 64.709687 
L 236.341408 56.058202 
L 237.584761 53.419363 
L 238.828115 54.229949 
L 240.071468 70.597559 
L 241.314822 70.05775 
L 242.558175 37.962098 
L 243.801529 54.013269 
L 245.044882 60.639016 
L 246.288236 44.904285 
L 247.531589 99.133556 
L 248.774943 62.229358 
L 250.018296 69.59996 
L 251.26165 63.728084 
L 252.505003 65.933273 
L 253.748357 93.746228 
L 254.99171 79.359856 
L 256.235064 73.581341 
L 257.478417 73.278862 
L 258.721771 63.748152 
L 259.965124 61.802688 
L 261.208478 70.492273 
L 262.451831 87.37119 
L 263.695184 70.636823 
L 264.938538 38.662744 
L 266.181891 46.460016 
L 267.425245 78.90381 
L 268.668598 55.085034 
L 271.155305 54.045843 
L 272.398659 70.997762 
L 273.642012 47.229011 
L 274.885366 69.947229 
L 276.128719 53.777393 
L 277.372073 45.502844 
L 278.615426 54.790698 
L 279.85878 54.378861 
L 281.102133 62.063285 
L 282.345487 53.774776 
L 283.58884 38.350376 
L 284.832194 46.627543 
L 286.075547 87.449136 
L 287.318901 46.628125 
L 288.562254 38.350376 
L 289.805608 46.628125 
L 291.048961 61.309996 
L 292.292315 46.444892 
L 293.535668 53.947538 
L 294.779022 46.622308 
L 296.022375 53.382134 
L 297.265729 53.348396 
L 298.509082 62.841878 
L 299.752436 63.105093 
L 300.995789 63.03849 
L 302.239143 53.778557 
L 303.482496 61.700601 
L 304.72585 62.603094 
L 305.969203 56.249287 
L 307.212557 64.981045 
L 308.45591 71.04866 
L 309.699264 46.627834 
L 310.942617 62.832862 
L 312.185971 38.367827 
L 313.429324 87.534063 
L 314.672678 54.905582 
L 315.916031 81.16775 
L 317.159385 65.797739 
L 318.402738 70.914871 
L 319.646092 38.350376 
L 320.889445 53.798625 
L 322.132799 46.602821 
L 323.376152 61.853295 
L 324.619506 69.811986 
L 325.862859 46.500153 
L 327.106213 63.098985 
L 327.106213 63.098985 
" clip-path="url(#p70b1d95771)" style="fill: none; stroke: #a9678f; stroke-width: 1.5; stroke-linecap: round"/>
   </g>
   <g id="line2d_16">
    <path d="M 79.678867 303.235996 
L 84.652281 303.003319 
L 87.138988 302.746503 
L 88.382342 302.335539 
L 90.869049 301.257957 
L 94.599109 301.218693 
L 95.842463 301.212294 
L 97.085816 301.341429 
L 98.32917 301.218111 
L 99.572523 301.206477 
L 100.815877 301.388255 
L 102.05923 301.335322 
L 103.302584 301.153543 
L 107.032644 301.218693 
L 112.006058 301.196588 
L 113.249412 301.323106 
L 115.736119 301.218693 
L 119.466179 301.153543 
L 120.709533 301.336194 
L 125.682947 301.218693 
L 146.819956 301.154707 
L 148.063309 301.331831 
L 149.306663 301.154707 
L 151.79337 301.219856 
L 155.52343 301.221019 
L 156.766784 300.488089 
L 158.010137 295.799081 
L 159.253491 289.174498 
L 160.496844 284.780988 
L 161.740198 284.065218 
L 162.983551 279.842726 
L 164.226905 282.734019 
L 165.470258 279.842726 
L 166.713612 282.772701 
L 167.956965 280.610557 
L 169.200319 282.013595 
L 170.443672 283.135967 
L 171.687026 280.534356 
L 172.930379 280.522722 
L 174.173733 281.961243 
L 175.417086 281.245182 
L 176.66044 283.393075 
L 177.903793 280.451756 
L 179.147147 281.906855 
L 180.3905 282.342541 
L 181.633854 283.373588 
L 182.877207 281.880679 
L 184.120561 281.038682 
L 185.363914 279.784557 
L 186.607268 280.527376 
L 187.850621 281.819601 
L 189.093975 281.896094 
L 190.337328 282.671778 
L 191.580682 280.488984 
L 192.824035 281.169853 
L 194.067389 276.657097 
L 195.310742 260.046049 
L 196.554096 192.748226 
L 197.797449 118.842397 
L 199.040803 102.473623 
L 200.284156 102.347396 
L 201.52751 89.118007 
L 202.770863 100.926326 
L 204.014217 101.669436 
L 205.25757 114.129249 
L 206.500924 122.194098 
L 207.744277 108.476089 
L 208.987631 96.132032 
L 210.230984 102.573383 
L 211.474338 96.13145 
L 212.717691 102.725786 
L 213.961045 121.853519 
L 215.204398 95.805413 
L 216.447752 122.399726 
L 217.691105 89.327415 
L 218.934459 102.541972 
L 220.177812 108.644197 
L 221.421166 108.525241 
L 222.664519 115.21352 
L 223.907873 115.226027 
L 225.151226 102.595487 
L 226.39458 107.498558 
L 227.637933 102.182487 
L 228.881287 109.248283 
L 230.12464 122.21184 
L 231.367994 103.22604 
L 232.611347 109.745047 
L 233.854701 108.867276 
L 235.098054 115.77776 
L 236.341408 115.581439 
L 237.584761 95.493336 
L 238.828115 102.634751 
L 240.071468 102.414 
L 241.314822 127.269058 
L 242.558175 121.833159 
L 243.801529 102.574546 
L 245.044882 101.856449 
L 246.288236 108.988267 
L 247.531589 102.390441 
L 248.774943 94.86511 
L 250.018296 89.013302 
L 251.26165 95.609383 
L 252.505003 121.428012 
L 253.748357 94.969814 
L 254.99171 95.667843 
L 256.235064 88.803894 
L 257.478417 108.651759 
L 259.965124 96.002315 
L 261.208478 102.642895 
L 262.451831 95.378452 
L 263.695184 108.710219 
L 264.938538 101.565313 
L 266.181891 101.457119 
L 267.425245 94.86511 
L 268.668598 108.841681 
L 269.911952 94.760406 
L 271.155305 102.204591 
L 272.398659 95.611419 
L 273.642012 109.179643 
L 274.885366 95.78389 
L 276.128719 115.150988 
L 277.372073 122.03646 
L 278.615426 108.773042 
L 279.85878 101.795663 
L 281.102133 108.837028 
L 282.345487 101.821839 
L 283.58884 102.031538 
L 284.832194 95.824899 
L 286.075547 114.94507 
L 287.318901 121.900926 
L 288.562254 94.760406 
L 289.805608 101.554552 
L 291.048961 89.306474 
L 292.292315 96.060484 
L 293.535668 129.429748 
L 296.022375 102.886914 
L 297.265729 102.445702 
L 298.509082 89.411179 
L 299.752436 89.404198 
L 300.995789 135.324019 
L 302.239143 114.547775 
L 303.482496 115.153024 
L 304.72585 95.179223 
L 305.969203 108.932716 
L 307.212557 94.760406 
L 308.45591 114.706577 
L 309.699264 108.127947 
L 310.942617 95.475594 
L 312.185971 94.760406 
L 313.429324 108.973434 
L 314.672678 108.967617 
L 315.916031 115.566897 
L 317.159385 101.876809 
L 318.402738 102.411091 
L 319.646092 101.240439 
L 322.132799 114.732753 
L 323.376152 108.873965 
L 324.619506 108.551418 
L 325.862859 102.258107 
L 327.106213 108.997574 
L 327.106213 108.997574 
" clip-path="url(#p70b1d95771)" style="fill: none; stroke: #6c3f70; stroke-width: 1.5; stroke-linecap: round"/>
   </g>
   <g id="line2d_17">
    <path d="M 79.678867 303.208075 
L 82.165574 302.985287 
L 83.408928 302.719454 
L 84.652281 302.094137 
L 85.895635 299.758358 
L 87.138988 298.469914 
L 88.382342 298.349213 
L 89.625695 298.001943 
L 90.869049 297.981003 
L 92.112402 297.806495 
L 93.355756 297.79428 
L 94.599109 297.968787 
L 95.842463 297.79428 
L 97.085816 297.8286 
L 98.32917 297.654093 
L 99.572523 298.317801 
L 100.815877 297.8286 
L 102.05923 297.8286 
L 103.302584 298.177614 
L 105.789291 297.654093 
L 107.032644 298.177614 
L 109.519351 297.831508 
L 112.006058 297.837325 
L 113.249412 298.135151 
L 114.492765 297.631988 
L 115.736119 297.296934 
L 116.979472 294.903568 
L 118.222826 288.462217 
L 119.466179 286.676718 
L 120.709533 280.351705 
L 121.952886 279.829347 
L 123.19624 281.979275 
L 124.439593 277.819024 
L 125.682947 275.030981 
L 126.9263 276.020146 
L 128.169654 276.036142 
L 129.413007 278.610996 
L 130.656361 276.590203 
L 131.899714 278.659858 
L 133.143068 279.570785 
L 134.386421 274.941692 
L 135.629775 279.529195 
L 136.873128 279.488767 
L 138.116482 277.281251 
L 139.359835 276.162951 
L 140.603189 275.90788 
L 141.846542 274.947799 
L 143.089896 276.801356 
L 144.333249 275.821789 
L 145.576602 277.732352 
L 146.819956 276.844983 
L 148.063309 276.746096 
L 149.306663 277.630847 
L 150.550016 276.821425 
L 151.79337 278.592673 
L 153.036723 274.088642 
L 154.280077 274.798596 
L 155.52343 275.811028 
L 158.010137 277.411841 
L 159.253491 275.661243 
L 160.496844 274.983864 
L 161.740198 275.539379 
L 162.983551 274.057231 
L 164.226905 277.705013 
L 165.470258 275.893337 
L 166.713612 275.046687 
L 167.956965 275.001897 
L 169.200319 275.947435 
L 170.443672 278.533631 
L 171.687026 277.593619 
L 172.930379 278.24424 
L 174.173733 278.553699 
L 175.417086 276.011421 
L 176.66044 280.4599 
L 177.903793 275.858145 
L 179.147147 275.07868 
L 180.3905 277.849563 
L 181.633854 279.605978 
L 182.877207 277.782669 
L 184.120561 277.828331 
L 185.363914 276.044286 
L 186.607268 275.104274 
L 187.850621 276.120778 
L 189.093975 279.486731 
L 190.337328 278.494949 
L 191.580682 275.189201 
L 192.824035 277.644517 
L 194.067389 274.820409 
L 195.310742 278.707557 
L 196.554096 276.9334 
L 197.797449 277.624158 
L 199.040803 269.048002 
L 200.284156 254.691587 
L 201.52751 167.632279 
L 202.770863 112.935329 
L 204.014217 78.726104 
L 205.25757 78.684222 
L 206.500924 85.432997 
L 207.744277 107.682081 
L 208.987631 107.882473 
L 210.230984 85.634843 
L 211.474338 100.672127 
L 212.717691 92.541838 
L 213.961045 121.636839 
L 215.204398 127.120727 
L 216.447752 91.39009 
L 217.691105 113.346584 
L 218.934459 92.47378 
L 220.177812 103.648056 
L 221.421166 96.281236 
L 222.664519 102.443957 
L 223.907873 109.747373 
L 225.151226 94.514641 
L 226.39458 112.187566 
L 227.637933 92.19864 
L 228.881287 120.35043 
L 230.12464 96.97432 
L 231.367994 96.053213 
L 232.611347 66.627521 
L 233.854701 94.313085 
L 235.098054 125.232559 
L 236.341408 88.79226 
L 237.584761 89.39431 
L 238.828115 99.084694 
L 240.071468 135.972313 
L 241.314822 93.83639 
L 242.558175 114.36367 
L 243.801529 121.192718 
L 245.044882 67.686779 
L 246.288236 95.224304 
L 247.531589 87.537553 
L 248.774943 67.215319 
L 250.018296 86.821492 
L 251.26165 109.624346 
L 252.505003 79.324082 
L 253.748357 99.744622 
L 254.99171 92.11255 
L 256.235064 76.142525 
L 257.478417 75.405232 
L 258.721771 93.313159 
L 259.965124 92.600297 
L 261.208478 85.026104 
L 262.451831 95.88714 
L 263.695184 111.351967 
L 264.938538 89.780552 
L 266.181891 78.617037 
L 267.425245 79.563738 
L 268.668598 87.021303 
L 269.911952 76.155322 
L 271.155305 98.625158 
L 273.642012 67.249348 
L 274.885366 64.645701 
L 276.128719 58.418703 
L 277.372073 73.643 
L 278.615426 80.138449 
L 279.85878 57.287896 
L 281.102133 59.381982 
L 282.345487 51.379955 
L 283.58884 82.942488 
L 284.832194 67.059426 
L 286.075547 90.265973 
L 288.562254 56.719003 
L 289.805608 105.590903 
L 291.048961 64.968248 
L 292.292315 94.958762 
L 293.535668 73.607226 
L 294.779022 89.805274 
L 296.022375 57.331523 
L 297.265729 73.509502 
L 298.509082 73.223601 
L 299.752436 81.989097 
L 300.995789 65.32657 
L 302.239143 73.376004 
L 303.482496 56.623896 
L 304.72585 65.287887 
L 305.969203 64.367362 
L 307.212557 73.147691 
L 308.45591 72.3182 
L 309.699264 56.182975 
L 310.942617 79.524765 
L 313.429324 81.271291 
L 314.672678 40.608499 
L 315.916031 71.313039 
L 317.159385 64.857436 
L 318.402738 57.429247 
L 319.646092 57.125895 
L 320.889445 40.74985 
L 322.132799 65.627594 
L 323.376152 48.948198 
L 325.862859 49.230899 
L 327.106213 57.286733 
L 327.106213 57.286733 
" clip-path="url(#p70b1d95771)" style="fill: none; stroke: #2d1e3e; stroke-width: 1.5; stroke-linecap: round"/>
   </g>
   <g id="line2d_18"/>
   <g id="line2d_19"/>
   <g id="line2d_20"/>
   <g id="line2d_21"/>
   <g id="line2d_22"/>
   <g id="patch_3">
    <path d="M 67.3075 316.614865 
L 67.3075 22.318125 
" style="fill: none; stroke: #ffffff; stroke-width: 1.25; stroke-linejoin: miter; stroke-linecap: square"/>
   </g>
   <g id="patch_4">
    <path d="M 67.3075 316.614865 
L 339.47758 316.614865 
" style="fill: none; stroke: #ffffff; stroke-width: 1.25; stroke-linejoin: miter; stroke-linecap: square"/>
   </g>
   <g id="text_15">
    <!-- Best Trials (Vector x Fine-Grain) -->
    <g style="fill: #262626" transform="translate(108.921603 16.318125)scale(0.12 -0.12)">
     <defs>
      <path id="DejaVuSans-42" d="M 1259 2228 
L 1259 519 
L 2272 519 
Q 2781 519 3026 730 
Q 3272 941 3272 1375 
Q 3272 1813 3026 2020 
Q 2781 2228 2272 2228 
L 1259 2228 
z
M 1259 4147 
L 1259 2741 
L 2194 2741 
Q 2656 2741 2882 2914 
Q 3109 3088 3109 3444 
Q 3109 3797 2882 3972 
Q 2656 4147 2194 4147 
L 1259 4147 
z
M 628 4666 
L 2241 4666 
Q 2963 4666 3353 4366 
Q 3744 4066 3744 3513 
Q 3744 3084 3544 2831 
Q 3344 2578 2956 2516 
Q 3422 2416 3680 2098 
Q 3938 1781 3938 1306 
Q 3938 681 3513 340 
Q 3088 0 2303 0 
L 628 0 
L 628 4666 
z
" transform="scale(0.015625)"/>
      <path id="DejaVuSans-20" transform="scale(0.015625)"/>
      <path id="DejaVuSans-54" d="M -19 4666 
L 3928 4666 
L 3928 4134 
L 2272 4134 
L 2272 0 
L 1638 0 
L 1638 4134 
L -19 4134 
L -19 4666 
z
" transform="scale(0.015625)"/>
      <path id="DejaVuSans-6c" d="M 603 4863 
L 1178 4863 
L 1178 0 
L 603 0 
L 603 4863 
z
" transform="scale(0.015625)"/>
      <path id="DejaVuSans-28" d="M 1984 4856 
Q 1566 4138 1362 3434 
Q 1159 2731 1159 2009 
Q 1159 1288 1364 580 
Q 1569 -128 1984 -844 
L 1484 -844 
Q 1016 -109 783 600 
Q 550 1309 550 2009 
Q 550 2706 781 3412 
Q 1013 4119 1484 4856 
L 1984 4856 
z
" transform="scale(0.015625)"/>
      <path id="DejaVuSans-56" d="M 1831 0 
L 50 4666 
L 709 4666 
L 2188 738 
L 3669 4666 
L 4325 4666 
L 2547 0 
L 1831 0 
z
" transform="scale(0.015625)"/>
      <path id="DejaVuSans-63" d="M 3122 3366 
L 3122 2828 
Q 2878 2963 2633 3030 
Q 2388 3097 2138 3097 
Q 1578 3097 1268 2742 
Q 959 2388 959 1747 
Q 959 1106 1268 751 
Q 1578 397 2138 397 
Q 2388 397 2633 464 
Q 2878 531 3122 666 
L 3122 134 
Q 2881 22 2623 -34 
Q 2366 -91 2075 -91 
Q 1284 -91 818 406 
Q 353 903 353 1747 
Q 353 2603 823 3093 
Q 1294 3584 2113 3584 
Q 2378 3584 2631 3529 
Q 2884 3475 3122 3366 
z
" transform="scale(0.015625)"/>
      <path id="DejaVuSans-78" d="M 3513 3500 
L 2247 1797 
L 3578 0 
L 2900 0 
L 1881 1375 
L 863 0 
L 184 0 
L 1544 1831 
L 300 3500 
L 978 3500 
L 1906 2253 
L 2834 3500 
L 3513 3500 
z
" transform="scale(0.015625)"/>
      <path id="DejaVuSans-2d" d="M 313 2009 
L 1997 2009 
L 1997 1497 
L 313 1497 
L 313 2009 
z
" transform="scale(0.015625)"/>
      <path id="DejaVuSans-29" d="M 513 4856 
L 1013 4856 
Q 1481 4119 1714 3412 
Q 1947 2706 1947 2009 
Q 1947 1309 1714 600 
Q 1481 -109 1013 -844 
L 513 -844 
Q 928 -128 1133 580 
Q 1338 1288 1338 2009 
Q 1338 2731 1133 3434 
Q 928 4138 513 4856 
z
" transform="scale(0.015625)"/>
     </defs>
     <use xlink:href="#DejaVuSans-42"/>
     <use xlink:href="#DejaVuSans-65" x="68.603516"/>
     <use xlink:href="#DejaVuSans-73" x="130.126953"/>
     <use xlink:href="#DejaVuSans-74" x="182.226562"/>
     <use xlink:href="#DejaVuSans-20" x="221.435547"/>
     <use xlink:href="#DejaVuSans-54" x="253.222656"/>
     <use xlink:href="#DejaVuSans-72" x="299.556641"/>
     <use xlink:href="#DejaVuSans-69" x="340.669922"/>
     <use xlink:href="#DejaVuSans-61" x="368.453125"/>
     <use xlink:href="#DejaVuSans-6c" x="429.732422"/>
     <use xlink:href="#DejaVuSans-73" x="457.515625"/>
     <use xlink:href="#DejaVuSans-20" x="509.615234"/>
     <use xlink:href="#DejaVuSans-28" x="541.402344"/>
     <use xlink:href="#DejaVuSans-56" x="580.416016"/>
     <use xlink:href="#DejaVuSans-65" x="641.074219"/>
     <use xlink:href="#DejaVuSans-63" x="702.597656"/>
     <use xlink:href="#DejaVuSans-74" x="757.578125"/>
     <use xlink:href="#DejaVuSans-6f" x="796.787109"/>
     <use xlink:href="#DejaVuSans-72" x="857.96875"/>
     <use xlink:href="#DejaVuSans-20" x="899.082031"/>
     <use xlink:href="#DejaVuSans-78" x="930.869141"/>
     <use xlink:href="#DejaVuSans-20" x="990.048828"/>
     <use xlink:href="#DejaVuSans-46" x="1021.835938"/>
     <use xlink:href="#DejaVuSans-69" x="1072.105469"/>
     <use xlink:href="#DejaVuSans-6e" x="1099.888672"/>
     <use xlink:href="#DejaVuSans-65" x="1163.267578"/>
     <use xlink:href="#DejaVuSans-2d" x="1224.791016"/>
     <use xlink:href="#DejaVuSans-47" x="1264.5"/>
     <use xlink:href="#DejaVuSans-72" x="1341.990234"/>
     <use xlink:href="#DejaVuSans-61" x="1383.103516"/>
     <use xlink:href="#DejaVuSans-69" x="1444.382812"/>
     <use xlink:href="#DejaVuSans-6e" x="1472.166016"/>
     <use xlink:href="#DejaVuSans-29" x="1535.544922"/>
    </g>
   </g>
  </g>
  <g id="legend_1">
   <g id="text_16">
    <!-- Trial -->
    <g style="fill: #262626" transform="translate(350.80753 142.733683)scale(0.12 -0.12)">
     <use xlink:href="#DejaVuSans-54"/>
     <use xlink:href="#DejaVuSans-72" x="46.333984"/>
     <use xlink:href="#DejaVuSans-69" x="87.447266"/>
     <use xlink:href="#DejaVuSans-61" x="115.230469"/>
     <use xlink:href="#DejaVuSans-6c" x="176.509766"/>
    </g>
   </g>
   <g id="line2d_23">
    <path d="M 344.16503 155.237589 
L 355.16503 155.237589 
L 366.16503 155.237589 
" style="fill: none; stroke: #edd1cb; stroke-width: 1.5; stroke-linecap: round"/>
   </g>
   <g id="text_17">
    <!-- 0 -->
    <g style="fill: #262626" transform="translate(374.96503 159.087589)scale(0.11 -0.11)">
     <use xlink:href="#DejaVuSans-30"/>
    </g>
   </g>
   <g id="line2d_24">
    <path d="M 344.16503 171.383526 
L 355.16503 171.383526 
L 366.16503 171.383526 
" style="fill: none; stroke: #d499a7; stroke-width: 1.5; stroke-linecap: round"/>
   </g>
   <g id="text_18">
    <!-- 1 -->
    <g style="fill: #262626" transform="translate(374.96503 175.233526)scale(0.11 -0.11)">
     <use xlink:href="#DejaVuSans-31"/>
    </g>
   </g>
   <g id="line2d_25">
    <path d="M 344.16503 187.529464 
L 355.16503 187.529464 
L 366.16503 187.529464 
" style="fill: none; stroke: #a9678f; stroke-width: 1.5; stroke-linecap: round"/>
   </g>
   <g id="text_19">
    <!-- 2 -->
    <g style="fill: #262626" transform="translate(374.96503 191.379464)scale(0.11 -0.11)">
     <use xlink:href="#DejaVuSans-32"/>
    </g>
   </g>
   <g id="line2d_26">
    <path d="M 344.16503 203.675401 
L 355.16503 203.675401 
L 366.16503 203.675401 
" style="fill: none; stroke: #6c3f70; stroke-width: 1.5; stroke-linecap: round"/>
   </g>
   <g id="text_20">
    <!-- 3 -->
    <g style="fill: #262626" transform="translate(374.96503 207.525401)scale(0.11 -0.11)">
     <use xlink:href="#DejaVuSans-33"/>
    </g>
   </g>
   <g id="line2d_27">
    <path d="M 344.16503 219.821339 
L 355.16503 219.821339 
L 366.16503 219.821339 
" style="fill: none; stroke: #2d1e3e; stroke-width: 1.5; stroke-linecap: round"/>
   </g>
   <g id="text_21">
    <!-- 4 -->
    <g style="fill: #262626" transform="translate(374.96503 223.671339)scale(0.11 -0.11)">
     <defs>
      <path id="DejaVuSans-34" d="M 2419 4116 
L 825 1625 
L 2419 1625 
L 2419 4116 
z
M 2253 4666 
L 3047 4666 
L 3047 1625 
L 3713 1625 
L 3713 1100 
L 3047 1100 
L 3047 0 
L 2419 0 
L 2419 1100 
L 313 1100 
L 313 1709 
L 2253 4666 
z
" transform="scale(0.015625)"/>
     </defs>
     <use xlink:href="#DejaVuSans-34"/>
    </g>
   </g>
  </g>
 </g>
 <defs>
  <clipPath id="p70b1d95771">
   <rect x="67.3075" y="22.318125" width="272.17008" height="294.29674"/>
  </clipPath>
 </defs>
</svg>
