<?xml version="1.0" encoding="utf-8" standalone="no"?>
<!DOCTYPE svg PUBLIC "-//W3C//DTD SVG 1.1//EN"
  "http://www.w3.org/Graphics/SVG/1.1/DTD/svg11.dtd">
<svg xmlns:xlink="http://www.w3.org/1999/xlink" width="391.965435pt" height="362.097812pt" viewBox="0 0 391.965435 362.097812" xmlns="http://www.w3.org/2000/svg" version="1.1">
 <metadata>
  <rdf:RDF xmlns:dc="http://purl.org/dc/elements/1.1/" xmlns:cc="http://creativecommons.org/ns#" xmlns:rdf="http://www.w3.org/1999/02/22-rdf-syntax-ns#">
   <cc:Work>
    <dc:type rdf:resource="http://purl.org/dc/dcmitype/StillImage"/>
    <dc:date>2022-11-20T08:18:26.334946</dc:date>
    <dc:format>image/svg+xml</dc:format>
    <dc:creator>
     <cc:Agent>
      <dc:title>Matplotlib v3.5.2, https://matplotlib.org/</dc:title>
     </cc:Agent>
    </dc:creator>
   </cc:Work>
  </rdf:RDF>
 </metadata>
 <defs>
  <style type="text/css">*{stroke-linejoin: round; stroke-linecap: butt}</style>
 </defs>
 <g id="figure_1">
  <g id="patch_1">
   <path d="M 0 362.097812 
L 391.965435 362.097812 
L 391.965435 0 
L 0 0 
z
" style="fill: #ffffff"/>
  </g>
  <g id="axes_1">
   <g id="patch_2">
    <path d="M 67.3075 319.138125 
L 339.579235 319.138125 
L 339.579235 22.318125 
L 67.3075 22.318125 
z
" style="fill: #eaeaf2"/>
   </g>
   <g id="matplotlib.axis_1">
    <g id="xtick_1">
     <g id="line2d_1">
      <path d="M 79.683488 319.138125 
L 79.683488 22.318125 
" clip-path="url(#pa7c3846a8d)" style="fill: none; stroke: #ffffff; stroke-linecap: round"/>
     </g>
     <g id="text_1">
      <!-- 0 -->
      <g style="fill: #262626" transform="translate(76.184113 336.996406)scale(0.11 -0.11)">
       <defs>
        <path id="DejaVuSans-30" d="M 2034 4250 
Q 1547 4250 1301 3770 
Q 1056 3291 1056 2328 
Q 1056 1369 1301 889 
Q 1547 409 2034 409 
Q 2525 409 2770 889 
Q 3016 1369 3016 2328 
Q 3016 3291 2770 3770 
Q 2525 4250 2034 4250 
z
M 2034 4750 
Q 2819 4750 3233 4129 
Q 3647 3509 3647 2328 
Q 3647 1150 3233 529 
Q 2819 -91 2034 -91 
Q 1250 -91 836 529 
Q 422 1150 422 2328 
Q 422 3509 836 4129 
Q 1250 4750 2034 4750 
z
" transform="scale(0.015625)"/>
       </defs>
       <use xlink:href="#DejaVuSans-30"/>
      </g>
     </g>
    </g>
    <g id="xtick_2">
     <g id="line2d_2">
      <path d="M 141.874382 319.138125 
L 141.874382 22.318125 
" clip-path="url(#pa7c3846a8d)" style="fill: none; stroke: #ffffff; stroke-linecap: round"/>
     </g>
     <g id="text_2">
      <!-- 50 -->
      <g style="fill: #262626" transform="translate(134.875632 336.996406)scale(0.11 -0.11)">
       <defs>
        <path id="DejaVuSans-35" d="M 691 4666 
L 3169 4666 
L 3169 4134 
L 1269 4134 
L 1269 2991 
Q 1406 3038 1543 3061 
Q 1681 3084 1819 3084 
Q 2600 3084 3056 2656 
Q 3513 2228 3513 1497 
Q 3513 744 3044 326 
Q 2575 -91 1722 -91 
Q 1428 -91 1123 -41 
Q 819 9 494 109 
L 494 744 
Q 775 591 1075 516 
Q 1375 441 1709 441 
Q 2250 441 2565 725 
Q 2881 1009 2881 1497 
Q 2881 1984 2565 2268 
Q 2250 2553 1709 2553 
Q 1456 2553 1204 2497 
Q 953 2441 691 2322 
L 691 4666 
z
" transform="scale(0.015625)"/>
       </defs>
       <use xlink:href="#DejaVuSans-35"/>
       <use xlink:href="#DejaVuSans-30" x="63.623047"/>
      </g>
     </g>
    </g>
    <g id="xtick_3">
     <g id="line2d_3">
      <path d="M 204.065276 319.138125 
L 204.065276 22.318125 
" clip-path="url(#pa7c3846a8d)" style="fill: none; stroke: #ffffff; stroke-linecap: round"/>
     </g>
     <g id="text_3">
      <!-- 100 -->
      <g style="fill: #262626" transform="translate(193.567151 336.996406)scale(0.11 -0.11)">
       <defs>
        <path id="DejaVuSans-31" d="M 794 531 
L 1825 531 
L 1825 4091 
L 703 3866 
L 703 4441 
L 1819 4666 
L 2450 4666 
L 2450 531 
L 3481 531 
L 3481 0 
L 794 0 
L 794 531 
z
" transform="scale(0.015625)"/>
       </defs>
       <use xlink:href="#DejaVuSans-31"/>
       <use xlink:href="#DejaVuSans-30" x="63.623047"/>
       <use xlink:href="#DejaVuSans-30" x="127.246094"/>
      </g>
     </g>
    </g>
    <g id="xtick_4">
     <g id="line2d_4">
      <path d="M 266.256171 319.138125 
L 266.256171 22.318125 
" clip-path="url(#pa7c3846a8d)" style="fill: none; stroke: #ffffff; stroke-linecap: round"/>
     </g>
     <g id="text_4">
      <!-- 150 -->
      <g style="fill: #262626" transform="translate(255.758046 336.996406)scale(0.11 -0.11)">
       <use xlink:href="#DejaVuSans-31"/>
       <use xlink:href="#DejaVuSans-35" x="63.623047"/>
       <use xlink:href="#DejaVuSans-30" x="127.246094"/>
      </g>
     </g>
    </g>
    <g id="xtick_5">
     <g id="line2d_5">
      <path d="M 328.447065 319.138125 
L 328.447065 22.318125 
" clip-path="url(#pa7c3846a8d)" style="fill: none; stroke: #ffffff; stroke-linecap: round"/>
     </g>
     <g id="text_5">
      <!-- 200 -->
      <g style="fill: #262626" transform="translate(317.94894 336.996406)scale(0.11 -0.11)">
       <defs>
        <path id="DejaVuSans-32" d="M 1228 531 
L 3431 531 
L 3431 0 
L 469 0 
L 469 531 
Q 828 903 1448 1529 
Q 2069 2156 2228 2338 
Q 2531 2678 2651 2914 
Q 2772 3150 2772 3378 
Q 2772 3750 2511 3984 
Q 2250 4219 1831 4219 
Q 1534 4219 1204 4116 
Q 875 4013 500 3803 
L 500 4441 
Q 881 4594 1212 4672 
Q 1544 4750 1819 4750 
Q 2544 4750 2975 4387 
Q 3406 4025 3406 3419 
Q 3406 3131 3298 2873 
Q 3191 2616 2906 2266 
Q 2828 2175 2409 1742 
Q 1991 1309 1228 531 
z
" transform="scale(0.015625)"/>
       </defs>
       <use xlink:href="#DejaVuSans-32"/>
       <use xlink:href="#DejaVuSans-30" x="63.623047"/>
       <use xlink:href="#DejaVuSans-30" x="127.246094"/>
      </g>
     </g>
    </g>
    <g id="text_6">
     <!-- Generation -->
     <g style="fill: #262626" transform="translate(169.971805 352.402187)scale(0.12 -0.12)">
      <defs>
       <path id="DejaVuSans-47" d="M 3809 666 
L 3809 1919 
L 2778 1919 
L 2778 2438 
L 4434 2438 
L 4434 434 
Q 4069 175 3628 42 
Q 3188 -91 2688 -91 
Q 1594 -91 976 548 
Q 359 1188 359 2328 
Q 359 3472 976 4111 
Q 1594 4750 2688 4750 
Q 3144 4750 3555 4637 
Q 3966 4525 4313 4306 
L 4313 3634 
Q 3963 3931 3569 4081 
Q 3175 4231 2741 4231 
Q 1884 4231 1454 3753 
Q 1025 3275 1025 2328 
Q 1025 1384 1454 906 
Q 1884 428 2741 428 
Q 3075 428 3337 486 
Q 3600 544 3809 666 
z
" transform="scale(0.015625)"/>
       <path id="DejaVuSans-65" d="M 3597 1894 
L 3597 1613 
L 953 1613 
Q 991 1019 1311 708 
Q 1631 397 2203 397 
Q 2534 397 2845 478 
Q 3156 559 3463 722 
L 3463 178 
Q 3153 47 2828 -22 
Q 2503 -91 2169 -91 
Q 1331 -91 842 396 
Q 353 884 353 1716 
Q 353 2575 817 3079 
Q 1281 3584 2069 3584 
Q 2775 3584 3186 3129 
Q 3597 2675 3597 1894 
z
M 3022 2063 
Q 3016 2534 2758 2815 
Q 2500 3097 2075 3097 
Q 1594 3097 1305 2825 
Q 1016 2553 972 2059 
L 3022 2063 
z
" transform="scale(0.015625)"/>
       <path id="DejaVuSans-6e" d="M 3513 2113 
L 3513 0 
L 2938 0 
L 2938 2094 
Q 2938 2591 2744 2837 
Q 2550 3084 2163 3084 
Q 1697 3084 1428 2787 
Q 1159 2491 1159 1978 
L 1159 0 
L 581 0 
L 581 3500 
L 1159 3500 
L 1159 2956 
Q 1366 3272 1645 3428 
Q 1925 3584 2291 3584 
Q 2894 3584 3203 3211 
Q 3513 2838 3513 2113 
z
" transform="scale(0.015625)"/>
       <path id="DejaVuSans-72" d="M 2631 2963 
Q 2534 3019 2420 3045 
Q 2306 3072 2169 3072 
Q 1681 3072 1420 2755 
Q 1159 2438 1159 1844 
L 1159 0 
L 581 0 
L 581 3500 
L 1159 3500 
L 1159 2956 
Q 1341 3275 1631 3429 
Q 1922 3584 2338 3584 
Q 2397 3584 2469 3576 
Q 2541 3569 2628 3553 
L 2631 2963 
z
" transform="scale(0.015625)"/>
       <path id="DejaVuSans-61" d="M 2194 1759 
Q 1497 1759 1228 1600 
Q 959 1441 959 1056 
Q 959 750 1161 570 
Q 1363 391 1709 391 
Q 2188 391 2477 730 
Q 2766 1069 2766 1631 
L 2766 1759 
L 2194 1759 
z
M 3341 1997 
L 3341 0 
L 2766 0 
L 2766 531 
Q 2569 213 2275 61 
Q 1981 -91 1556 -91 
Q 1019 -91 701 211 
Q 384 513 384 1019 
Q 384 1609 779 1909 
Q 1175 2209 1959 2209 
L 2766 2209 
L 2766 2266 
Q 2766 2663 2505 2880 
Q 2244 3097 1772 3097 
Q 1472 3097 1187 3025 
Q 903 2953 641 2809 
L 641 3341 
Q 956 3463 1253 3523 
Q 1550 3584 1831 3584 
Q 2591 3584 2966 3190 
Q 3341 2797 3341 1997 
z
" transform="scale(0.015625)"/>
       <path id="DejaVuSans-74" d="M 1172 4494 
L 1172 3500 
L 2356 3500 
L 2356 3053 
L 1172 3053 
L 1172 1153 
Q 1172 725 1289 603 
Q 1406 481 1766 481 
L 2356 481 
L 2356 0 
L 1766 0 
Q 1100 0 847 248 
Q 594 497 594 1153 
L 594 3053 
L 172 3053 
L 172 3500 
L 594 3500 
L 594 4494 
L 1172 4494 
z
" transform="scale(0.015625)"/>
       <path id="DejaVuSans-69" d="M 603 3500 
L 1178 3500 
L 1178 0 
L 603 0 
L 603 3500 
z
M 603 4863 
L 1178 4863 
L 1178 4134 
L 603 4134 
L 603 4863 
z
" transform="scale(0.015625)"/>
       <path id="DejaVuSans-6f" d="M 1959 3097 
Q 1497 3097 1228 2736 
Q 959 2375 959 1747 
Q 959 1119 1226 758 
Q 1494 397 1959 397 
Q 2419 397 2687 759 
Q 2956 1122 2956 1747 
Q 2956 2369 2687 2733 
Q 2419 3097 1959 3097 
z
M 1959 3584 
Q 2709 3584 3137 3096 
Q 3566 2609 3566 1747 
Q 3566 888 3137 398 
Q 2709 -91 1959 -91 
Q 1206 -91 779 398 
Q 353 888 353 1747 
Q 353 2609 779 3096 
Q 1206 3584 1959 3584 
z
" transform="scale(0.015625)"/>
      </defs>
      <use xlink:href="#DejaVuSans-47"/>
      <use xlink:href="#DejaVuSans-65" x="77.490234"/>
      <use xlink:href="#DejaVuSans-6e" x="139.013672"/>
      <use xlink:href="#DejaVuSans-65" x="202.392578"/>
      <use xlink:href="#DejaVuSans-72" x="263.916016"/>
      <use xlink:href="#DejaVuSans-61" x="305.029297"/>
      <use xlink:href="#DejaVuSans-74" x="366.308594"/>
      <use xlink:href="#DejaVuSans-69" x="405.517578"/>
      <use xlink:href="#DejaVuSans-6f" x="433.300781"/>
      <use xlink:href="#DejaVuSans-6e" x="494.482422"/>
     </g>
    </g>
   </g>
   <g id="matplotlib.axis_2">
    <g id="ytick_1">
     <g id="line2d_6">
      <path d="M 67.3075 305.646647 
L 339.579235 305.646647 
" clip-path="url(#pa7c3846a8d)" style="fill: none; stroke: #ffffff; stroke-linecap: round"/>
     </g>
     <g id="text_7">
      <!-- 0 -->
      <g style="fill: #262626" transform="translate(50.80875 309.825787)scale(0.11 -0.11)">
       <use xlink:href="#DejaVuSans-30"/>
      </g>
     </g>
    </g>
    <g id="ytick_2">
     <g id="line2d_7">
      <path d="M 67.3075 251.287581 
L 339.579235 251.287581 
" clip-path="url(#pa7c3846a8d)" style="fill: none; stroke: #ffffff; stroke-linecap: round"/>
     </g>
     <g id="text_8">
      <!-- 5000 -->
      <g style="fill: #262626" transform="translate(29.8125 255.466721)scale(0.11 -0.11)">
       <use xlink:href="#DejaVuSans-35"/>
       <use xlink:href="#DejaVuSans-30" x="63.623047"/>
       <use xlink:href="#DejaVuSans-30" x="127.246094"/>
       <use xlink:href="#DejaVuSans-30" x="190.869141"/>
      </g>
     </g>
    </g>
    <g id="ytick_3">
     <g id="line2d_8">
      <path d="M 67.3075 196.928515 
L 339.579235 196.928515 
" clip-path="url(#pa7c3846a8d)" style="fill: none; stroke: #ffffff; stroke-linecap: round"/>
     </g>
     <g id="text_9">
      <!-- 10000 -->
      <g style="fill: #262626" transform="translate(22.81375 201.107656)scale(0.11 -0.11)">
       <use xlink:href="#DejaVuSans-31"/>
       <use xlink:href="#DejaVuSans-30" x="63.623047"/>
       <use xlink:href="#DejaVuSans-30" x="127.246094"/>
       <use xlink:href="#DejaVuSans-30" x="190.869141"/>
       <use xlink:href="#DejaVuSans-30" x="254.492188"/>
      </g>
     </g>
    </g>
    <g id="ytick_4">
     <g id="line2d_9">
      <path d="M 67.3075 142.569449 
L 339.579235 142.569449 
" clip-path="url(#pa7c3846a8d)" style="fill: none; stroke: #ffffff; stroke-linecap: round"/>
     </g>
     <g id="text_10">
      <!-- 15000 -->
      <g style="fill: #262626" transform="translate(22.81375 146.74859)scale(0.11 -0.11)">
       <use xlink:href="#DejaVuSans-31"/>
       <use xlink:href="#DejaVuSans-35" x="63.623047"/>
       <use xlink:href="#DejaVuSans-30" x="127.246094"/>
       <use xlink:href="#DejaVuSans-30" x="190.869141"/>
       <use xlink:href="#DejaVuSans-30" x="254.492188"/>
      </g>
     </g>
    </g>
    <g id="ytick_5">
     <g id="line2d_10">
      <path d="M 67.3075 88.210384 
L 339.579235 88.210384 
" clip-path="url(#pa7c3846a8d)" style="fill: none; stroke: #ffffff; stroke-linecap: round"/>
     </g>
     <g id="text_11">
      <!-- 20000 -->
      <g style="fill: #262626" transform="translate(22.81375 92.389524)scale(0.11 -0.11)">
       <use xlink:href="#DejaVuSans-32"/>
       <use xlink:href="#DejaVuSans-30" x="63.623047"/>
       <use xlink:href="#DejaVuSans-30" x="127.246094"/>
       <use xlink:href="#DejaVuSans-30" x="190.869141"/>
       <use xlink:href="#DejaVuSans-30" x="254.492188"/>
      </g>
     </g>
    </g>
    <g id="ytick_6">
     <g id="line2d_11">
      <path d="M 67.3075 33.851318 
L 339.579235 33.851318 
" clip-path="url(#pa7c3846a8d)" style="fill: none; stroke: #ffffff; stroke-linecap: round"/>
     </g>
     <g id="text_12">
      <!-- 25000 -->
      <g style="fill: #262626" transform="translate(22.81375 38.030459)scale(0.11 -0.11)">
       <use xlink:href="#DejaVuSans-32"/>
       <use xlink:href="#DejaVuSans-35" x="63.623047"/>
       <use xlink:href="#DejaVuSans-30" x="127.246094"/>
       <use xlink:href="#DejaVuSans-30" x="190.869141"/>
       <use xlink:href="#DejaVuSans-30" x="254.492188"/>
      </g>
     </g>
    </g>
    <g id="text_13">
     <!-- Fitness -->
     <g style="fill: #262626" transform="translate(16.318125 191.50875)rotate(-90)scale(0.12 -0.12)">
      <defs>
       <path id="DejaVuSans-46" d="M 628 4666 
L 3309 4666 
L 3309 4134 
L 1259 4134 
L 1259 2759 
L 3109 2759 
L 3109 2228 
L 1259 2228 
L 1259 0 
L 628 0 
L 628 4666 
z
" transform="scale(0.015625)"/>
       <path id="DejaVuSans-73" d="M 2834 3397 
L 2834 2853 
Q 2591 2978 2328 3040 
Q 2066 3103 1784 3103 
Q 1356 3103 1142 2972 
Q 928 2841 928 2578 
Q 928 2378 1081 2264 
Q 1234 2150 1697 2047 
L 1894 2003 
Q 2506 1872 2764 1633 
Q 3022 1394 3022 966 
Q 3022 478 2636 193 
Q 2250 -91 1575 -91 
Q 1294 -91 989 -36 
Q 684 19 347 128 
L 347 722 
Q 666 556 975 473 
Q 1284 391 1588 391 
Q 1994 391 2212 530 
Q 2431 669 2431 922 
Q 2431 1156 2273 1281 
Q 2116 1406 1581 1522 
L 1381 1569 
Q 847 1681 609 1914 
Q 372 2147 372 2553 
Q 372 3047 722 3315 
Q 1072 3584 1716 3584 
Q 2034 3584 2315 3537 
Q 2597 3491 2834 3397 
z
" transform="scale(0.015625)"/>
      </defs>
      <use xlink:href="#DejaVuSans-46"/>
      <use xlink:href="#DejaVuSans-69" x="50.269531"/>
      <use xlink:href="#DejaVuSans-74" x="78.052734"/>
      <use xlink:href="#DejaVuSans-6e" x="117.261719"/>
      <use xlink:href="#DejaVuSans-65" x="180.640625"/>
      <use xlink:href="#DejaVuSans-73" x="242.164062"/>
      <use xlink:href="#DejaVuSans-73" x="294.263672"/>
     </g>
    </g>
   </g>
   <g id="PolyCollection_1">
    <defs>
     <path id="m6f8db7e1e5" d="M 79.683488 -56.457281 
L 79.683488 -56.452185 
L 80.927306 -56.466794 
L 82.171124 -56.588728 
L 83.414942 -56.987928 
L 84.658759 -57.246278 
L 85.902577 -57.45133 
L 87.146395 -57.539299 
L 88.390213 -57.208388 
L 89.634031 -57.505893 
L 90.877849 -57.467604 
L 92.121667 -58.211253 
L 93.365485 -58.287823 
L 94.609303 -58.53508 
L 95.85312 -58.679353 
L 97.096938 -59.226629 
L 98.340756 -58.425734 
L 99.584574 -59.024473 
L 100.828392 -65.671245 
L 102.07221 -86.573885 
L 103.316028 -99.880552 
L 104.559846 -103.954568 
L 105.803664 -93.258156 
L 107.047481 -93.16178 
L 108.291299 -98.333917 
L 109.535117 -85.918893 
L 110.778935 -99.170877 
L 112.022753 -86.942635 
L 113.266571 -89.536735 
L 114.510389 -87.376947 
L 115.754207 -91.089629 
L 116.998025 -93.871887 
L 118.241842 -95.418615 
L 119.48566 -102.479085 
L 120.729478 -100.141611 
L 121.973296 -81.464465 
L 123.217114 -83.193745 
L 124.460932 -91.592875 
L 125.70475 -94.417177 
L 126.948568 -91.536698 
L 128.192385 -101.766115 
L 129.436203 -100.522439 
L 130.680021 -86.069858 
L 131.923839 -101.373982 
L 133.167657 -99.625106 
L 134.411475 -91.124546 
L 135.655293 -98.720121 
L 136.899111 -97.158887 
L 138.142929 -105.453146 
L 139.386746 -99.995164 
L 140.630564 -107.097244 
L 141.874382 -93.188687 
L 143.1182 -97.762697 
L 144.362018 -93.761759 
L 145.605836 -92.944012 
L 146.849654 -98.524607 
L 148.093472 -107.852903 
L 149.33729 -93.937968 
L 150.581107 -103.445249 
L 151.824925 -96.204859 
L 153.068743 -93.963899 
L 154.312561 -86.63402 
L 155.556379 -111.427063 
L 156.800197 -99.12857 
L 158.044015 -99.270575 
L 159.287833 -74.610789 
L 160.53165 -104.15585 
L 161.775468 -91.994971 
L 163.019286 -94.303889 
L 164.263104 -103.94514 
L 165.506922 -104.117586 
L 166.75074 -111.257369 
L 167.994558 -101.270742 
L 169.238376 -91.07226 
L 170.482194 -94.050737 
L 171.726011 -98.538002 
L 172.969829 -93.645618 
L 174.213647 -93.903271 
L 175.457465 -98.480661 
L 176.701283 -98.829562 
L 177.945101 -95.35025 
L 179.188919 -91.38124 
L 180.432737 -103.745022 
L 181.676555 -93.4742 
L 182.920372 -102.989321 
L 184.16419 -100.71374 
L 185.408008 -101.143618 
L 186.651826 -93.479568 
L 187.895644 -102.76706 
L 189.139462 -93.156318 
L 190.38328 -83.752251 
L 191.627098 -103.011574 
L 192.870915 -91.187798 
L 194.114733 -92.894053 
L 195.358551 -86.415148 
L 196.602369 -94.09013 
L 197.846187 -105.843444 
L 199.090005 -103.673642 
L 200.333823 -99.877893 
L 201.577641 -105.658708 
L 202.821459 -99.74248 
L 204.065276 -105.913193 
L 205.309094 -92.909732 
L 206.552912 -109.606756 
L 207.79673 -112.586898 
L 209.040548 -104.556569 
L 210.284366 -93.796778 
L 211.528184 -94.899919 
L 212.772002 -107.63782 
L 214.01582 -97.728722 
L 215.259637 -88.085433 
L 216.503455 -102.66247 
L 217.747273 -102.72348 
L 218.991091 -98.253916 
L 220.234909 -102.455685 
L 221.478727 -94.780508 
L 222.722545 -93.249807 
L 223.966363 -102.018247 
L 225.21018 -91.616801 
L 226.453998 -107.152062 
L 227.697816 -101.139686 
L 228.941634 -94.244323 
L 230.185452 -90.00052 
L 231.42927 -94.459636 
L 232.673088 -85.907172 
L 233.916906 -89.928689 
L 235.160724 -96.513041 
L 236.404541 -113.567723 
L 237.648359 -108.305502 
L 238.892177 -101.975499 
L 240.135995 -102.368464 
L 241.379813 -104.540449 
L 242.623631 -99.48249 
L 243.867449 -99.707129 
L 245.111267 -99.828299 
L 246.355085 -103.691258 
L 247.598902 -103.77447 
L 248.84272 -104.858211 
L 250.086538 -100.80367 
L 251.330356 -103.627089 
L 252.574174 -95.572562 
L 253.817992 -92.562802 
L 255.06181 -103.761152 
L 256.305628 -88.537607 
L 257.549445 -93.068622 
L 258.793263 -100.312366 
L 260.037081 -85.566136 
L 261.280899 -106.072915 
L 262.524717 -99.17616 
L 263.768535 -98.297768 
L 265.012353 -95.564374 
L 266.256171 -102.618202 
L 267.499989 -88.303447 
L 268.743806 -102.686235 
L 269.987624 -90.127312 
L 271.231442 -87.447903 
L 272.47526 -89.877728 
L 273.719078 -113.583708 
L 274.962896 -96.907501 
L 276.206714 -87.062438 
L 277.450532 -96.923367 
L 278.69435 -84.946171 
L 279.938167 -104.606699 
L 281.181985 -101.494413 
L 282.425803 -92.620567 
L 283.669621 -94.558765 
L 284.913439 -97.17223 
L 286.157257 -99.461494 
L 287.401075 -87.444115 
L 288.644893 -95.167111 
L 289.88871 -85.32654 
L 291.132528 -95.31174 
L 292.376346 -101.860657 
L 293.620164 -97.199647 
L 294.863982 -94.731364 
L 296.1078 -113.561174 
L 297.351618 -110.562499 
L 298.595436 -101.308743 
L 299.839254 -107.512182 
L 301.083071 -90.100022 
L 302.326889 -101.8978 
L 303.570707 -106.645953 
L 304.814525 -88.874913 
L 306.058343 -99.868635 
L 307.302161 -99.771816 
L 308.545979 -102.324433 
L 309.789797 -97.094726 
L 311.033615 -90.158526 
L 312.277432 -96.922934 
L 313.52125 -93.814479 
L 314.765068 -93.712836 
L 316.008886 -99.319617 
L 317.252704 -82.948526 
L 318.496522 -99.139094 
L 319.74034 -96.892714 
L 320.984158 -111.233918 
L 322.227976 -94.809649 
L 323.471793 -92.241285 
L 324.715611 -99.376533 
L 325.959429 -85.321886 
L 327.203247 -96.71541 
L 327.203247 -120.590438 
L 327.203247 -120.590438 
L 325.959429 -109.459876 
L 324.715611 -122.95307 
L 323.471793 -118.305803 
L 322.227976 -118.756287 
L 320.984158 -128.760266 
L 319.74034 -120.595093 
L 318.496522 -123.145705 
L 317.252704 -109.152357 
L 316.008886 -122.98634 
L 314.765068 -117.600019 
L 313.52125 -118.581565 
L 312.277432 -120.84895 
L 311.033615 -116.195763 
L 309.789797 -121.253661 
L 308.545979 -125.950939 
L 307.302161 -123.68239 
L 306.058343 -123.590056 
L 304.814525 -114.360626 
L 303.570707 -128.113741 
L 302.326889 -125.362544 
L 301.083071 -114.100688 
L 299.839254 -127.871164 
L 298.595436 -124.356502 
L 297.351618 -129.107638 
L 296.1078 -130.557181 
L 294.863982 -118.605118 
L 293.620164 -123.227541 
L 292.376346 -125.595379 
L 291.132528 -121.111793 
L 289.88871 -113.745851 
L 288.644893 -121.124966 
L 287.401075 -113.664737 
L 286.157257 -123.119485 
L 284.913439 -120.747621 
L 283.669621 -118.627991 
L 282.425803 -118.615845 
L 281.181985 -123.466517 
L 279.938167 -126.246992 
L 278.69435 -111.27659 
L 277.450532 -120.912015 
L 276.206714 -111.447643 
L 274.962896 -120.78591 
L 273.719078 -130.640155 
L 272.47526 -114.275529 
L 271.231442 -113.02623 
L 269.987624 -114.399382 
L 268.743806 -124.300878 
L 267.499989 -114.75354 
L 266.256171 -124.936497 
L 265.012353 -119.902924 
L 263.768535 -122.142704 
L 262.524717 -124.158355 
L 261.280899 -127.864887 
L 260.037081 -112.248912 
L 258.793263 -124.426515 
L 257.549445 -117.720016 
L 256.305628 -115.408321 
L 255.06181 -125.404876 
L 253.817992 -117.548862 
L 252.574174 -119.90768 
L 251.330356 -125.763935 
L 250.086538 -123.877259 
L 248.84272 -126.751716 
L 247.598902 -124.740999 
L 246.355085 -124.83888 
L 245.111267 -123.626511 
L 243.867449 -123.195919 
L 242.623631 -123.178618 
L 241.379813 -125.838169 
L 240.135995 -123.972651 
L 238.892177 -125.105358 
L 237.648359 -127.805296 
L 236.404541 -130.169457 
L 235.160724 -120.963494 
L 233.916906 -114.306471 
L 232.673088 -112.128422 
L 231.42927 -118.85579 
L 230.185452 -115.985792 
L 228.941634 -117.645205 
L 227.697816 -123.325702 
L 226.453998 -127.003305 
L 225.21018 -116.361736 
L 223.966363 -124.875326 
L 222.722545 -118.46358 
L 221.478727 -118.823488 
L 220.234909 -125.061183 
L 218.991091 -122.395295 
L 217.747273 -124.476823 
L 216.503455 -124.329654 
L 215.259637 -114.452952 
L 214.01582 -121.873423 
L 212.772002 -128.678124 
L 211.528184 -120.288049 
L 210.284366 -119.624962 
L 209.040548 -126.407147 
L 207.79673 -130.871504 
L 206.552912 -129.378668 
L 205.309094 -116.733382 
L 204.065276 -127.29743 
L 202.821459 -123.502241 
L 201.577641 -127.33171 
L 200.333823 -122.586019 
L 199.090005 -126.170464 
L 197.846187 -127.72527 
L 196.602369 -118.221903 
L 195.358551 -113.120585 
L 194.114733 -118.075499 
L 192.870915 -116.323702 
L 191.627098 -125.819458 
L 190.38328 -108.884715 
L 189.139462 -118.320412 
L 187.895644 -125.598904 
L 186.651826 -119.620503 
L 185.408008 -124.770667 
L 184.16419 -124.710652 
L 182.920372 -127.315861 
L 181.676555 -118.906157 
L 180.432737 -127.040626 
L 179.188919 -117.889124 
L 177.945101 -120.393837 
L 176.701283 -123.042287 
L 175.457465 -122.902737 
L 174.213647 -121.386765 
L 172.969829 -119.308133 
L 171.726011 -123.023966 
L 170.482194 -120.573587 
L 169.238376 -116.486949 
L 167.994558 -125.596619 
L 166.75074 -131.441833 
L 165.506922 -128.10535 
L 164.263104 -128.153492 
L 163.019286 -121.391903 
L 161.775468 -120.703004 
L 160.53165 -126.466849 
L 159.287833 -101.809967 
L 158.044015 -124.043284 
L 156.800197 -123.827546 
L 155.556379 -131.456128 
L 154.312561 -113.504131 
L 153.068743 -120.974918 
L 151.824925 -120.904668 
L 150.581107 -125.664212 
L 149.33729 -118.729447 
L 148.093472 -128.040569 
L 146.849654 -124.987025 
L 145.605836 -117.713323 
L 144.362018 -117.984652 
L 143.1182 -122.367759 
L 141.874382 -117.856356 
L 140.630564 -128.946276 
L 139.386746 -124.668328 
L 138.142929 -127.057061 
L 136.899111 -121.122512 
L 135.655293 -121.903694 
L 134.411475 -115.759412 
L 133.167657 -122.244525 
L 131.923839 -123.384622 
L 130.680021 -111.021247 
L 129.436203 -121.111096 
L 128.192385 -121.235519 
L 126.948568 -114.43695 
L 125.70475 -115.346589 
L 124.460932 -113.804083 
L 123.217114 -105.05483 
L 121.973296 -106.438166 
L 120.729478 -119.796762 
L 119.48566 -121.890435 
L 118.241842 -116.775663 
L 116.998025 -115.107808 
L 115.754207 -112.584138 
L 114.510389 -110.208366 
L 113.266571 -110.701666 
L 112.022753 -110.557233 
L 110.778935 -118.204305 
L 109.535117 -109.243943 
L 108.291299 -118.890231 
L 107.047481 -114.738736 
L 105.803664 -114.844787 
L 104.559846 -121.293462 
L 103.316028 -119.218424 
L 102.07221 -108.995607 
L 100.828392 -83.742262 
L 99.584574 -65.916455 
L 98.340756 -59.479994 
L 97.096938 -59.961071 
L 95.85312 -59.574774 
L 94.609303 -59.547365 
L 93.365485 -59.390029 
L 92.121667 -59.260587 
L 90.877849 -58.479507 
L 89.634031 -58.509752 
L 88.390213 -58.067737 
L 87.146395 -58.508368 
L 85.902577 -58.20772 
L 84.658759 -57.888343 
L 83.414942 -57.418783 
L 82.171124 -56.841218 
L 80.927306 -56.516754 
L 79.683488 -56.457281 
z
" style="stroke: #edd1cb; stroke-opacity: 0.2"/>
    </defs>
    <g clip-path="url(#pa7c3846a8d)">
     <use xlink:href="#m6f8db7e1e5" x="0" y="362.097812" style="fill: #edd1cb; fill-opacity: 0.2; stroke: #edd1cb; stroke-opacity: 0.2"/>
    </g>
   </g>
   <g id="PolyCollection_2">
    <defs>
     <path id="mf32bcedef9" d="M 79.683488 -56.597935 
L 79.683488 -56.451845 
L 80.927306 -57.623615 
L 82.171124 -57.383364 
L 83.414942 -57.519619 
L 84.658759 -57.625594 
L 85.902577 -57.866489 
L 87.146395 -58.031308 
L 88.390213 -58.09151 
L 89.634031 -58.048227 
L 90.877849 -57.679655 
L 92.121667 -58.24448 
L 93.365485 -58.290481 
L 94.609303 -58.577225 
L 95.85312 -59.682744 
L 97.096938 -61.229183 
L 98.340756 -62.319558 
L 99.584574 -63.225469 
L 100.828392 -62.419647 
L 102.07221 -61.860284 
L 103.316028 -62.751628 
L 104.559846 -64.491594 
L 105.803664 -64.753443 
L 107.047481 -65.233697 
L 108.291299 -63.839124 
L 109.535117 -63.993376 
L 110.778935 -66.495524 
L 112.022753 -66.244886 
L 113.266571 -66.184998 
L 114.510389 -68.621439 
L 115.754207 -67.459981 
L 116.998025 -68.106548 
L 118.241842 -68.523151 
L 119.48566 -68.426765 
L 120.729478 -73.538632 
L 121.973296 -72.431568 
L 123.217114 -73.291757 
L 124.460932 -73.889885 
L 125.70475 -73.049112 
L 126.948568 -71.06707 
L 128.192385 -67.210082 
L 129.436203 -72.520691 
L 130.680021 -70.989294 
L 131.923839 -70.638899 
L 133.167657 -69.670959 
L 134.411475 -71.533785 
L 135.655293 -73.602623 
L 136.899111 -73.712446 
L 138.142929 -76.305033 
L 139.386746 -70.726086 
L 140.630564 -69.302932 
L 141.874382 -71.610924 
L 143.1182 -74.34798 
L 144.362018 -73.134813 
L 145.605836 -70.307895 
L 146.849654 -69.326119 
L 148.093472 -70.591734 
L 149.33729 -74.175126 
L 150.581107 -74.289204 
L 151.824925 -68.943975 
L 153.068743 -70.597433 
L 154.312561 -67.689733 
L 155.556379 -69.601083 
L 156.800197 -71.489466 
L 158.044015 -73.827823 
L 159.287833 -73.861321 
L 160.53165 -70.979595 
L 161.775468 -69.085436 
L 163.019286 -72.71629 
L 164.263104 -72.568578 
L 165.506922 -72.464132 
L 166.75074 -74.304237 
L 167.994558 -72.295432 
L 169.238376 -73.741264 
L 170.482194 -73.116483 
L 171.726011 -74.519814 
L 172.969829 -75.934823 
L 174.213647 -72.523587 
L 175.457465 -70.499638 
L 176.701283 -71.60277 
L 177.945101 -72.208763 
L 179.188919 -72.356968 
L 180.432737 -70.573864 
L 181.676555 -69.34534 
L 182.920372 -74.758671 
L 184.16419 -71.024772 
L 185.408008 -74.079471 
L 186.651826 -73.086543 
L 187.895644 -74.842808 
L 189.139462 -75.085895 
L 190.38328 -73.705727 
L 191.627098 -73.768945 
L 192.870915 -73.240787 
L 194.114733 -75.616304 
L 195.358551 -73.828273 
L 196.602369 -73.279773 
L 197.846187 -75.442024 
L 199.090005 -74.614526 
L 200.333823 -72.542537 
L 201.577641 -73.642399 
L 202.821459 -70.424376 
L 204.065276 -73.327481 
L 205.309094 -72.546231 
L 206.552912 -72.747929 
L 207.79673 -78.095281 
L 209.040548 -73.885384 
L 210.284366 -69.392548 
L 211.528184 -76.147536 
L 212.772002 -76.18732 
L 214.01582 -71.214103 
L 215.259637 -75.838361 
L 216.503455 -71.453937 
L 217.747273 -72.386101 
L 218.991091 -74.782198 
L 220.234909 -73.032014 
L 221.478727 -74.179271 
L 222.722545 -71.96622 
L 223.966363 -73.658358 
L 225.21018 -95.208594 
L 226.453998 -160.753957 
L 227.697816 -201.709962 
L 228.941634 -196.352622 
L 230.185452 -209.638207 
L 231.42927 -222.307606 
L 232.673088 -190.320872 
L 233.916906 -173.519436 
L 235.160724 -209.490775 
L 236.404541 -218.953626 
L 237.648359 -239.710406 
L 238.892177 -256.592846 
L 240.135995 -244.195887 
L 241.379813 -221.439135 
L 242.623631 -186.073 
L 243.867449 -166.150835 
L 245.111267 -196.246545 
L 246.355085 -195.927967 
L 247.598902 -202.011468 
L 248.84272 -201.429121 
L 250.086538 -213.56249 
L 251.330356 -209.665913 
L 252.574174 -211.643045 
L 253.817992 -212.051333 
L 255.06181 -171.944934 
L 256.305628 -185.747813 
L 257.549445 -168.521748 
L 258.793263 -257.499665 
L 260.037081 -215.944699 
L 261.280899 -196.583716 
L 262.524717 -188.701999 
L 263.768535 -171.080667 
L 265.012353 -190.817009 
L 266.256171 -208.506612 
L 267.499989 -195.319485 
L 268.743806 -187.017505 
L 269.987624 -190.916095 
L 271.231442 -188.787309 
L 272.47526 -190.406063 
L 273.719078 -236.199142 
L 274.962896 -174.207248 
L 276.206714 -222.194667 
L 277.450532 -210.342997 
L 278.69435 -197.437518 
L 279.938167 -189.600062 
L 281.181985 -217.854427 
L 282.425803 -182.734376 
L 283.669621 -225.699527 
L 284.913439 -208.386555 
L 286.157257 -206.632193 
L 287.401075 -202.131101 
L 288.644893 -201.874721 
L 289.88871 -218.498395 
L 291.132528 -193.597985 
L 292.376346 -219.017226 
L 293.620164 -238.549144 
L 294.863982 -171.64996 
L 296.1078 -251.671252 
L 297.351618 -178.597074 
L 298.595436 -194.119806 
L 299.839254 -227.723825 
L 301.083071 -227.571169 
L 302.326889 -233.002633 
L 303.570707 -166.283573 
L 304.814525 -169.634996 
L 306.058343 -211.238622 
L 307.302161 -187.908875 
L 308.545979 -186.254848 
L 309.789797 -194.890864 
L 311.033615 -185.385629 
L 312.277432 -211.85615 
L 313.52125 -202.004427 
L 314.765068 -237.03233 
L 316.008886 -187.358022 
L 317.252704 -257.08195 
L 318.496522 -209.522082 
L 319.74034 -200.214035 
L 320.984158 -218.38227 
L 322.227976 -217.463593 
L 323.471793 -185.722265 
L 324.715611 -185.049877 
L 325.959429 -206.641137 
L 327.203247 -183.131163 
L 327.203247 -265.314376 
L 327.203247 -265.314376 
L 325.959429 -285.629454 
L 324.715611 -271.232991 
L 323.471793 -266.832845 
L 322.227976 -297.134024 
L 320.984158 -295.854182 
L 319.74034 -286.276964 
L 318.496522 -283.527219 
L 317.252704 -316.136866 
L 316.008886 -277.272342 
L 314.765068 -309.162224 
L 313.52125 -284.625493 
L 312.277432 -293.180005 
L 311.033615 -270.132058 
L 309.789797 -278.74205 
L 308.545979 -275.891036 
L 307.302161 -270.715501 
L 306.058343 -293.248217 
L 304.814525 -260.311193 
L 303.570707 -250.707797 
L 302.326889 -304.056124 
L 301.083071 -300.570451 
L 299.839254 -302.17147 
L 298.595436 -277.656185 
L 297.351618 -262.566516 
L 296.1078 -315.85887 
L 294.863982 -261.62827 
L 293.620164 -309.498138 
L 292.376346 -300.576312 
L 291.132528 -277.815126 
L 289.88871 -296.304037 
L 288.644893 -284.663816 
L 287.401075 -276.489827 
L 286.157257 -287.558054 
L 284.913439 -288.050233 
L 283.669621 -304.270851 
L 282.425803 -268.487374 
L 281.181985 -292.572338 
L 279.938167 -277.577271 
L 278.69435 -280.971366 
L 277.450532 -288.656541 
L 276.206714 -294.66354 
L 274.962896 -262.698405 
L 273.719078 -302.446467 
L 272.47526 -273.109907 
L 271.231442 -272.717605 
L 269.987624 -272.132293 
L 268.743806 -274.415213 
L 267.499989 -276.516692 
L 266.256171 -291.177994 
L 265.012353 -278.465779 
L 263.768535 -257.850052 
L 262.524717 -273.082898 
L 261.280899 -280.858588 
L 260.037081 -295.456223 
L 258.793263 -314.169535 
L 257.549445 -251.702636 
L 256.305628 -268.657067 
L 255.06181 -262.040991 
L 253.817992 -294.694261 
L 252.574174 -295.104367 
L 251.330356 -293.861158 
L 250.086538 -294.898346 
L 248.84272 -287.010905 
L 247.598902 -286.753871 
L 246.355085 -279.58527 
L 245.111267 -280.464341 
L 243.867449 -257.684851 
L 242.623631 -278.335555 
L 241.379813 -295.750331 
L 240.135995 -311.929644 
L 238.892177 -315.013943 
L 237.648359 -313.601483 
L 236.404541 -296.987866 
L 235.160724 -290.723179 
L 233.916906 -266.258584 
L 232.673088 -274.87002 
L 231.42927 -299.570788 
L 230.185452 -298.498886 
L 228.941634 -281.530789 
L 227.697816 -291.325188 
L 226.453998 -245.391982 
L 225.21018 -170.696638 
L 223.966363 -103.461175 
L 222.722545 -80.24046 
L 221.478727 -81.683914 
L 220.234909 -80.895962 
L 218.991091 -81.98948 
L 217.747273 -80.106346 
L 216.503455 -79.575886 
L 215.259637 -82.898686 
L 214.01582 -79.802708 
L 212.772002 -83.01701 
L 211.528184 -82.231191 
L 210.284366 -77.065143 
L 209.040548 -81.385924 
L 207.79673 -83.480838 
L 206.552912 -81.004825 
L 205.309094 -80.17663 
L 204.065276 -80.305147 
L 202.821459 -78.747386 
L 201.577641 -80.626664 
L 200.333823 -80.383713 
L 199.090005 -82.413472 
L 197.846187 -82.62261 
L 196.602369 -81.194606 
L 195.358551 -81.864794 
L 194.114733 -82.639733 
L 192.870915 -79.872262 
L 191.627098 -80.268429 
L 190.38328 -80.450532 
L 189.139462 -81.409273 
L 187.895644 -81.423466 
L 186.651826 -79.999258 
L 185.408008 -80.171806 
L 184.16419 -78.197527 
L 182.920372 -80.809769 
L 181.676555 -77.335095 
L 180.432737 -77.95884 
L 179.188919 -79.226043 
L 177.945101 -78.781896 
L 176.701283 -78.461228 
L 175.457465 -78.131022 
L 174.213647 -79.687314 
L 172.969829 -81.373456 
L 171.726011 -80.550009 
L 170.482194 -80.506242 
L 169.238376 -80.120029 
L 167.994558 -79.388679 
L 166.75074 -80.437766 
L 165.506922 -79.779546 
L 164.263104 -79.184127 
L 163.019286 -79.385103 
L 161.775468 -76.339823 
L 160.53165 -77.666031 
L 159.287833 -80.805182 
L 158.044015 -80.480353 
L 156.800197 -78.712936 
L 155.556379 -76.758583 
L 154.312561 -75.25107 
L 153.068743 -77.524791 
L 151.824925 -76.740449 
L 150.581107 -79.80529 
L 149.33729 -80.212006 
L 148.093472 -77.82713 
L 146.849654 -76.464416 
L 145.605836 -77.556082 
L 144.362018 -79.619153 
L 143.1182 -80.24965 
L 141.874382 -78.211618 
L 140.630564 -76.623543 
L 139.386746 -77.286248 
L 138.142929 -81.150745 
L 136.899111 -79.859615 
L 135.655293 -79.003655 
L 134.411475 -77.775123 
L 133.167657 -76.343942 
L 131.923839 -77.927465 
L 130.680021 -77.215114 
L 129.436203 -78.239655 
L 128.192385 -74.041666 
L 126.948568 -78.359687 
L 125.70475 -79.522708 
L 124.460932 -79.711325 
L 123.217114 -78.959268 
L 121.973296 -78.954859 
L 120.729478 -79.244109 
L 119.48566 -75.384216 
L 118.241842 -75.582865 
L 116.998025 -73.891864 
L 115.754207 -73.012428 
L 114.510389 -74.575234 
L 113.266571 -70.406718 
L 112.022753 -70.238706 
L 110.778935 -70.897334 
L 109.535117 -68.283699 
L 108.291299 -68.152804 
L 107.047481 -68.188766 
L 105.803664 -68.009636 
L 104.559846 -67.398428 
L 103.316028 -66.004033 
L 102.07221 -65.025739 
L 100.828392 -65.077058 
L 99.584574 -65.537105 
L 98.340756 -64.729737 
L 97.096938 -63.609626 
L 95.85312 -62.388764 
L 94.609303 -60.695581 
L 93.365485 -60.255196 
L 92.121667 -59.812314 
L 90.877849 -59.161687 
L 89.634031 -59.260595 
L 88.390213 -59.141617 
L 87.146395 -58.932581 
L 85.902577 -58.573132 
L 84.658759 -58.409808 
L 83.414942 -58.135346 
L 82.171124 -57.859448 
L 80.927306 -57.953183 
L 79.683488 -56.597935 
z
" style="stroke: #d499a7; stroke-opacity: 0.2"/>
    </defs>
    <g clip-path="url(#pa7c3846a8d)">
     <use xlink:href="#mf32bcedef9" x="0" y="362.097812" style="fill: #d499a7; fill-opacity: 0.2; stroke: #d499a7; stroke-opacity: 0.2"/>
    </g>
   </g>
   <g id="PolyCollection_3">
    <defs>
     <path id="m37abba2128" d="M 79.683488 -56.771545 
L 79.683488 -56.454903 
L 80.927306 -57.243789 
L 82.171124 -57.680641 
L 83.414942 -57.884479 
L 84.658759 -58.563016 
L 85.902577 -57.637553 
L 87.146395 -57.636508 
L 88.390213 -57.47445 
L 89.634031 -57.988118 
L 90.877849 -58.217419 
L 92.121667 -58.682215 
L 93.365485 -58.620067 
L 94.609303 -59.257087 
L 95.85312 -59.023581 
L 97.096938 -59.16844 
L 98.340756 -59.321325 
L 99.584574 -59.992769 
L 100.828392 -59.815822 
L 102.07221 -59.340359 
L 103.316028 -58.473731 
L 104.559846 -59.290994 
L 105.803664 -60.234209 
L 107.047481 -60.017443 
L 108.291299 -59.256094 
L 109.535117 -59.003579 
L 110.778935 -59.940525 
L 112.022753 -59.527872 
L 113.266571 -59.417107 
L 114.510389 -59.54604 
L 115.754207 -59.433024 
L 116.998025 -59.472579 
L 118.241842 -60.050568 
L 119.48566 -60.283293 
L 120.729478 -59.462072 
L 121.973296 -60.130935 
L 123.217114 -60.558104 
L 124.460932 -59.946896 
L 125.70475 -60.239517 
L 126.948568 -60.660486 
L 128.192385 -61.302942 
L 129.436203 -60.304697 
L 130.680021 -59.928983 
L 131.923839 -60.29295 
L 133.167657 -60.071106 
L 134.411475 -60.697679 
L 135.655293 -60.475699 
L 136.899111 -60.786879 
L 138.142929 -61.632511 
L 139.386746 -60.753924 
L 140.630564 -60.873913 
L 141.874382 -60.346987 
L 143.1182 -60.381963 
L 144.362018 -60.749465 
L 145.605836 -60.81794 
L 146.849654 -62.800984 
L 148.093472 -66.122604 
L 149.33729 -77.364457 
L 150.581107 -78.744176 
L 151.824925 -83.699429 
L 153.068743 -77.878788 
L 154.312561 -80.010232 
L 155.556379 -76.659633 
L 156.800197 -84.282065 
L 158.044015 -75.22508 
L 159.287833 -76.121028 
L 160.53165 -81.802323 
L 161.775468 -78.924894 
L 163.019286 -83.736138 
L 164.263104 -79.305238 
L 165.506922 -76.617199 
L 166.75074 -77.547299 
L 167.994558 -81.245967 
L 169.238376 -85.688682 
L 170.482194 -81.00592 
L 171.726011 -83.781104 
L 172.969829 -77.534296 
L 174.213647 -84.014227 
L 175.457465 -80.558944 
L 176.701283 -78.738859 
L 177.945101 -77.246583 
L 179.188919 -77.647566 
L 180.432737 -78.797609 
L 181.676555 -83.52864 
L 182.920372 -76.179489 
L 184.16419 -86.854327 
L 185.408008 -74.365638 
L 186.651826 -80.41722 
L 187.895644 -78.391258 
L 189.139462 -82.272283 
L 190.38328 -74.346756 
L 191.627098 -77.738839 
L 192.870915 -73.046173 
L 194.114733 -82.223377 
L 195.358551 -81.729473 
L 196.602369 -77.847438 
L 197.846187 -78.14406 
L 199.090005 -84.652547 
L 200.333823 -82.517714 
L 201.577641 -82.87966 
L 202.821459 -81.732208 
L 204.065276 -81.466554 
L 205.309094 -81.136688 
L 206.552912 -86.460326 
L 207.79673 -80.793716 
L 209.040548 -78.373149 
L 210.284366 -76.883838 
L 211.528184 -83.012313 
L 212.772002 -83.505197 
L 214.01582 -80.686688 
L 215.259637 -84.92684 
L 216.503455 -70.380872 
L 217.747273 -77.156874 
L 218.991091 -81.819659 
L 220.234909 -74.870158 
L 221.478727 -84.531157 
L 222.722545 -75.764008 
L 223.966363 -84.121544 
L 225.21018 -83.62336 
L 226.453998 -81.175589 
L 227.697816 -80.417271 
L 228.941634 -79.258684 
L 230.185452 -83.031339 
L 231.42927 -84.344612 
L 232.673088 -75.665287 
L 233.916906 -83.622545 
L 235.160724 -74.008099 
L 236.404541 -77.412081 
L 237.648359 -75.512189 
L 238.892177 -79.511929 
L 240.135995 -81.393186 
L 241.379813 -76.078424 
L 242.623631 -79.705431 
L 243.867449 -77.609269 
L 245.111267 -80.977773 
L 246.355085 -81.006413 
L 247.598902 -79.975527 
L 248.84272 -74.444993 
L 250.086538 -82.092915 
L 251.330356 -80.778207 
L 252.574174 -82.909762 
L 253.817992 -83.909442 
L 255.06181 -81.957595 
L 256.305628 -81.917114 
L 257.549445 -81.803809 
L 258.793263 -75.964032 
L 260.037081 -78.983236 
L 261.280899 -78.936997 
L 262.524717 -83.802975 
L 263.768535 -77.031644 
L 265.012353 -76.448057 
L 266.256171 -76.894133 
L 267.499989 -74.720042 
L 268.743806 -75.135676 
L 269.987624 -81.330809 
L 271.231442 -83.654184 
L 272.47526 -79.651972 
L 273.719078 -80.056318 
L 274.962896 -76.726231 
L 276.206714 -70.353582 
L 277.450532 -79.363113 
L 278.69435 -80.977874 
L 279.938167 -85.425278 
L 281.181985 -81.564366 
L 282.425803 -75.913325 
L 283.669621 -78.142803 
L 284.913439 -79.037171 
L 286.157257 -73.990959 
L 287.401075 -78.18477 
L 288.644893 -78.094466 
L 289.88871 -79.408944 
L 291.132528 -77.308646 
L 292.376346 -77.154096 
L 293.620164 -81.929022 
L 294.863982 -81.92379 
L 296.1078 -77.59776 
L 297.351618 -78.773716 
L 298.595436 -74.257344 
L 299.839254 -77.828174 
L 301.083071 -77.808588 
L 302.326889 -80.957422 
L 303.570707 -78.58081 
L 304.814525 -73.797891 
L 306.058343 -85.152651 
L 307.302161 -74.255425 
L 308.545979 -78.499186 
L 309.789797 -75.29353 
L 311.033615 -77.368687 
L 312.277432 -75.487227 
L 313.52125 -75.77809 
L 314.765068 -77.786131 
L 316.008886 -76.158629 
L 317.252704 -79.911282 
L 318.496522 -78.204067 
L 319.74034 -78.678342 
L 320.984158 -79.277421 
L 322.227976 -76.461689 
L 323.471793 -75.698318 
L 324.715611 -82.600594 
L 325.959429 -83.110839 
L 327.203247 -72.649063 
L 327.203247 -83.506318 
L 327.203247 -83.506318 
L 325.959429 -90.481011 
L 324.715611 -90.176889 
L 323.471793 -86.731883 
L 322.227976 -87.034154 
L 320.984158 -88.223912 
L 319.74034 -88.078307 
L 318.496522 -88.04564 
L 317.252704 -88.893625 
L 316.008886 -86.064482 
L 314.765068 -87.238102 
L 313.52125 -86.011218 
L 312.277432 -85.726207 
L 311.033615 -87.960933 
L 309.789797 -86.251349 
L 308.545979 -88.516661 
L 307.302161 -85.575335 
L 306.058343 -91.872892 
L 304.814525 -85.676842 
L 303.570707 -88.696293 
L 302.326889 -89.73202 
L 301.083071 -87.882682 
L 299.839254 -87.863333 
L 298.595436 -85.601104 
L 297.351618 -88.67522 
L 296.1078 -87.806375 
L 294.863982 -90.637548 
L 293.620164 -90.120356 
L 292.376346 -87.528983 
L 291.132528 -87.974753 
L 289.88871 -89.223508 
L 288.644893 -88.801095 
L 287.401075 -89.041354 
L 286.157257 -85.362128 
L 284.913439 -89.409271 
L 283.669621 -88.747135 
L 282.425803 -86.873803 
L 281.181985 -90.236548 
L 279.938167 -91.996559 
L 278.69435 -90.076962 
L 277.450532 -89.330017 
L 276.206714 -81.966054 
L 274.962896 -87.793168 
L 273.719078 -89.522584 
L 272.47526 -89.337764 
L 271.231442 -91.540826 
L 269.987624 -90.87982 
L 268.743806 -86.381268 
L 267.499989 -86.16784 
L 266.256171 -88.013449 
L 265.012353 -87.606088 
L 263.768535 -88.452484 
L 262.524717 -91.41992 
L 261.280899 -89.664997 
L 260.037081 -89.596097 
L 258.793263 -87.261995 
L 257.549445 -90.9596 
L 256.305628 -91.092415 
L 255.06181 -91.00736 
L 253.817992 -92.165938 
L 252.574174 -91.227794 
L 251.330356 -91.007666 
L 250.086538 -91.375609 
L 248.84272 -85.913202 
L 247.598902 -90.53058 
L 246.355085 -91.246846 
L 245.111267 -91.07874 
L 243.867449 -88.890584 
L 242.623631 -90.071331 
L 241.379813 -87.533544 
L 240.135995 -91.255662 
L 238.892177 -89.933972 
L 237.648359 -86.579542 
L 236.404541 -87.838532 
L 235.160724 -86.168163 
L 233.916906 -91.97947 
L 232.673088 -87.317985 
L 231.42927 -92.500502 
L 230.185452 -92.262247 
L 228.941634 -90.180677 
L 227.697816 -90.494074 
L 226.453998 -91.101478 
L 225.21018 -93.159911 
L 223.966363 -93.427561 
L 222.722545 -88.891637 
L 221.478727 -93.622039 
L 220.234909 -86.971038 
L 218.991091 -91.896921 
L 217.747273 -89.293554 
L 216.503455 -83.939883 
L 215.259637 -93.309483 
L 214.01582 -91.558467 
L 212.772002 -92.738849 
L 211.528184 -92.765281 
L 210.284366 -88.922936 
L 209.040548 -90.070957 
L 207.79673 -91.398006 
L 206.552912 -94.788339 
L 205.309094 -91.75106 
L 204.065276 -91.708957 
L 202.821459 -92.332226 
L 201.577641 -93.428886 
L 200.333823 -92.341501 
L 199.090005 -93.322445 
L 197.846187 -88.922325 
L 196.602369 -88.907605 
L 195.358551 -91.74311 
L 194.114733 -91.622942 
L 192.870915 -84.849803 
L 191.627098 -89.768525 
L 190.38328 -86.745167 
L 189.139462 -92.138334 
L 187.895644 -89.776076 
L 186.651826 -90.893563 
L 185.408008 -86.300595 
L 184.16419 -93.71067 
L 182.920372 -87.40163 
L 181.676555 -92.721335 
L 180.432737 -89.924094 
L 179.188919 -89.770997 
L 177.945101 -88.692887 
L 176.701283 -90.530665 
L 175.457465 -91.196402 
L 174.213647 -93.009854 
L 172.969829 -88.74463 
L 171.726011 -92.527002 
L 170.482194 -91.124045 
L 169.238376 -93.622337 
L 167.994558 -91.324375 
L 166.75074 -89.131165 
L 165.506922 -88.458769 
L 164.263104 -89.807655 
L 163.019286 -92.208933 
L 161.775468 -90.494907 
L 160.53165 -91.280761 
L 159.287833 -87.658366 
L 158.044015 -87.477027 
L 156.800197 -92.984391 
L 155.556379 -88.942616 
L 154.312561 -91.250285 
L 153.068743 -89.369513 
L 151.824925 -94.011004 
L 150.581107 -90.638075 
L 149.33729 -88.888953 
L 148.093472 -77.385819 
L 146.849654 -70.561828 
L 145.605836 -65.440151 
L 144.362018 -62.557124 
L 143.1182 -62.394395 
L 141.874382 -62.361415 
L 140.630564 -62.731923 
L 139.386746 -62.607398 
L 138.142929 -63.075498 
L 136.899111 -62.729995 
L 135.655293 -62.48047 
L 134.411475 -62.608706 
L 133.167657 -62.037299 
L 131.923839 -62.136895 
L 130.680021 -61.891022 
L 129.436203 -62.120842 
L 128.192385 -62.566943 
L 126.948568 -62.125811 
L 125.70475 -61.655426 
L 124.460932 -61.556349 
L 123.217114 -61.769572 
L 121.973296 -61.559253 
L 120.729478 -61.044949 
L 119.48566 -61.507298 
L 118.241842 -61.334147 
L 116.998025 -60.789062 
L 115.754207 -60.86998 
L 114.510389 -60.823351 
L 113.266571 -60.735374 
L 112.022753 -60.766622 
L 110.778935 -60.962697 
L 109.535117 -60.43679 
L 108.291299 -60.667272 
L 107.047481 -61.00316 
L 105.803664 -61.109067 
L 104.559846 -60.619895 
L 103.316028 -60.051876 
L 102.07221 -60.69841 
L 100.828392 -60.897236 
L 99.584574 -60.917443 
L 98.340756 -60.47716 
L 97.096938 -60.332505 
L 95.85312 -60.172511 
L 94.609303 -60.325269 
L 93.365485 -59.753556 
L 92.121667 -59.479382 
L 90.877849 -59.076734 
L 89.634031 -58.703695 
L 88.390213 -58.277631 
L 87.146395 -58.447919 
L 85.902577 -58.367323 
L 84.658759 -58.818843 
L 83.414942 -58.558268 
L 82.171124 -58.37416 
L 80.927306 -58.034051 
L 79.683488 -56.771545 
z
" style="stroke: #a9678f; stroke-opacity: 0.2"/>
    </defs>
    <g clip-path="url(#pa7c3846a8d)">
     <use xlink:href="#m37abba2128" x="0" y="362.097812" style="fill: #a9678f; fill-opacity: 0.2; stroke: #a9678f; stroke-opacity: 0.2"/>
    </g>
   </g>
   <g id="PolyCollection_4">
    <defs>
     <path id="maa269a34f8" d="M 79.683488 -56.463736 
L 79.683488 -56.451506 
L 80.927306 -56.509942 
L 82.171124 -56.534743 
L 83.414942 -56.519429 
L 84.658759 -56.682515 
L 85.902577 -58.647221 
L 87.146395 -58.842243 
L 88.390213 -59.498178 
L 89.634031 -59.927691 
L 90.877849 -59.681071 
L 92.121667 -59.876118 
L 93.365485 -60.618077 
L 94.609303 -62.92629 
L 95.85312 -64.446068 
L 97.096938 -65.429194 
L 98.340756 -69.205383 
L 99.584574 -71.762951 
L 100.828392 -68.530804 
L 102.07221 -66.842904 
L 103.316028 -72.189933 
L 104.559846 -68.263306 
L 105.803664 -66.115962 
L 107.047481 -69.497996 
L 108.291299 -67.14418 
L 109.535117 -65.598438 
L 110.778935 -71.845373 
L 112.022753 -68.50754 
L 113.266571 -67.347126 
L 114.510389 -68.528094 
L 115.754207 -69.276924 
L 116.998025 -67.49624 
L 118.241842 -69.305301 
L 119.48566 -63.633307 
L 120.729478 -68.824164 
L 121.973296 -65.911393 
L 123.217114 -70.151043 
L 124.460932 -69.924494 
L 125.70475 -75.679666 
L 126.948568 -68.775861 
L 128.192385 -69.005672 
L 129.436203 -71.324104 
L 130.680021 -70.339423 
L 131.923839 -69.984416 
L 133.167657 -69.865488 
L 134.411475 -71.187127 
L 135.655293 -68.499122 
L 136.899111 -70.575605 
L 138.142929 -68.617939 
L 139.386746 -71.079479 
L 140.630564 -71.627631 
L 141.874382 -71.388714 
L 143.1182 -69.451468 
L 144.362018 -69.638327 
L 145.605836 -68.694161 
L 146.849654 -70.290602 
L 148.093472 -70.907424 
L 149.33729 -67.600966 
L 150.581107 -69.781911 
L 151.824925 -71.956571 
L 153.068743 -70.554838 
L 154.312561 -69.526161 
L 155.556379 -74.078435 
L 156.800197 -66.926676 
L 158.044015 -69.04414 
L 159.287833 -70.739701 
L 160.53165 -71.783225 
L 161.775468 -67.688255 
L 163.019286 -69.672488 
L 164.263104 -73.640836 
L 165.506922 -72.6051 
L 166.75074 -78.469645 
L 167.994558 -79.100932 
L 169.238376 -76.915876 
L 170.482194 -80.276201 
L 171.726011 -77.690238 
L 172.969829 -76.181061 
L 174.213647 -77.323382 
L 175.457465 -81.026441 
L 176.701283 -74.110048 
L 177.945101 -73.485896 
L 179.188919 -74.867236 
L 180.432737 -83.416694 
L 181.676555 -78.010379 
L 182.920372 -76.340358 
L 184.16419 -72.347804 
L 185.408008 -80.424839 
L 186.651826 -77.072923 
L 187.895644 -76.093041 
L 189.139462 -76.310648 
L 190.38328 -75.830317 
L 191.627098 -76.287485 
L 192.870915 -72.506226 
L 194.114733 -74.699759 
L 195.358551 -82.569126 
L 196.602369 -76.618779 
L 197.846187 -73.214449 
L 199.090005 -80.48832 
L 200.333823 -82.988982 
L 201.577641 -74.692956 
L 202.821459 -84.119344 
L 204.065276 -74.060038 
L 205.309094 -79.052052 
L 206.552912 -81.871138 
L 207.79673 -89.607571 
L 209.040548 -89.225555 
L 210.284366 -93.560104 
L 211.528184 -81.795859 
L 212.772002 -87.923791 
L 214.01582 -83.027398 
L 215.259637 -83.56478 
L 216.503455 -89.950552 
L 217.747273 -80.94407 
L 218.991091 -85.93244 
L 220.234909 -89.21504 
L 221.478727 -84.509957 
L 222.722545 -79.934817 
L 223.966363 -86.995805 
L 225.21018 -88.764301 
L 226.453998 -86.628304 
L 227.697816 -89.604565 
L 228.941634 -96.820196 
L 230.185452 -80.939263 
L 231.42927 -90.07872 
L 232.673088 -92.206088 
L 233.916906 -80.373648 
L 235.160724 -92.616923 
L 236.404541 -84.990899 
L 237.648359 -98.259292 
L 238.892177 -95.121933 
L 240.135995 -95.697282 
L 241.379813 -84.167911 
L 242.623631 -87.232378 
L 243.867449 -81.910268 
L 245.111267 -83.034303 
L 246.355085 -88.237969 
L 247.598902 -85.850681 
L 248.84272 -91.4816 
L 250.086538 -82.079452 
L 251.330356 -83.542858 
L 252.574174 -88.790368 
L 253.817992 -89.050196 
L 255.06181 -84.347516 
L 256.305628 -92.139914 
L 257.549445 -78.182527 
L 258.793263 -80.306098 
L 260.037081 -82.417269 
L 261.280899 -82.25741 
L 262.524717 -85.097366 
L 263.768535 -88.990282 
L 265.012353 -94.895477 
L 266.256171 -84.953195 
L 267.499989 -82.690678 
L 268.743806 -84.852725 
L 269.987624 -96.646332 
L 271.231442 -87.124305 
L 272.47526 -91.702188 
L 273.719078 -85.459542 
L 274.962896 -85.076251 
L 276.206714 -86.583322 
L 277.450532 -86.701188 
L 278.69435 -96.448889 
L 279.938167 -101.694199 
L 281.181985 -98.784197 
L 282.425803 -189.647626 
L 283.669621 -229.689805 
L 284.913439 -236.889154 
L 286.157257 -219.316864 
L 287.401075 -237.998877 
L 288.644893 -250.433479 
L 289.88871 -220.226401 
L 291.132528 -211.177766 
L 292.376346 -228.772131 
L 293.620164 -201.997191 
L 294.863982 -238.468752 
L 296.1078 -241.221605 
L 297.351618 -202.565098 
L 298.595436 -219.58623 
L 299.839254 -249.054764 
L 301.083071 -220.011496 
L 302.326889 -245.530309 
L 303.570707 -228.282491 
L 304.814525 -219.777081 
L 306.058343 -228.358246 
L 307.302161 -238.044437 
L 308.545979 -247.54748 
L 309.789797 -237.679458 
L 311.033615 -184.193543 
L 312.277432 -230.646032 
L 313.52125 -238.991049 
L 314.765068 -228.851308 
L 316.008886 -201.325559 
L 317.252704 -238.476642 
L 318.496522 -228.417922 
L 319.74034 -184.602961 
L 320.984158 -228.130328 
L 322.227976 -212.195758 
L 323.471793 -211.027582 
L 324.715611 -231.286781 
L 325.959429 -204.427695 
L 327.203247 -194.168789 
L 327.203247 -290.772832 
L 327.203247 -290.772832 
L 325.959429 -299.296546 
L 324.715611 -309.711879 
L 323.471793 -299.483414 
L 322.227976 -307.702505 
L 320.984158 -308.983051 
L 319.74034 -273.929277 
L 318.496522 -316.786754 
L 317.252704 -317.378418 
L 316.008886 -290.419549 
L 314.765068 -316.842481 
L 313.52125 -317.645551 
L 312.277432 -309.080533 
L 311.033615 -272.712874 
L 309.789797 -317.086578 
L 308.545979 -325.738503 
L 307.302161 -317.879974 
L 306.058343 -308.273971 
L 304.814525 -308.135636 
L 303.570707 -308.178639 
L 302.326889 -320.377688 
L 301.083071 -308.330632 
L 299.839254 -325.696375 
L 298.595436 -299.497208 
L 297.351618 -290.631142 
L 296.1078 -318.411385 
L 294.863982 -317.243829 
L 293.620164 -290.755217 
L 292.376346 -308.357616 
L 291.132528 -299.35567 
L 289.88871 -307.95 
L 288.644893 -326.287869 
L 287.401075 -317.030045 
L 286.157257 -307.921733 
L 284.913439 -316.809466 
L 283.669621 -309.360626 
L 282.425803 -285.100404 
L 281.181985 -176.879964 
L 279.938167 -158.490072 
L 278.69435 -125.830431 
L 277.450532 -103.263214 
L 276.206714 -103.053567 
L 274.962896 -101.647153 
L 273.719078 -101.741899 
L 272.47526 -106.458449 
L 271.231442 -103.04227 
L 269.987624 -108.190847 
L 268.743806 -101.891166 
L 267.499989 -100.101173 
L 266.256171 -101.642448 
L 265.012353 -108.350824 
L 263.768535 -104.945976 
L 262.524717 -101.670842 
L 261.280899 -98.841903 
L 260.037081 -98.92948 
L 258.793263 -98.096003 
L 257.549445 -95.184973 
L 256.305628 -106.523 
L 255.06181 -100.293494 
L 253.817992 -104.737245 
L 252.574174 -104.8572 
L 251.330356 -100.120513 
L 250.086538 -99.259185 
L 248.84272 -106.472106 
L 247.598902 -103.149961 
L 246.355085 -104.927901 
L 245.111267 -100.250346 
L 243.867449 -98.610214 
L 242.623631 -102.583386 
L 241.379813 -101.458893 
L 240.135995 -109.599103 
L 238.892177 -108.115041 
L 237.648359 -109.691454 
L 236.404541 -101.591665 
L 235.160724 -106.691513 
L 233.916906 -97.09589 
L 232.673088 -106.657879 
L 231.42927 -104.933337 
L 230.185452 -98.950205 
L 228.941634 -109.680243 
L 227.697816 -104.752118 
L 226.453998 -103.177208 
L 225.21018 -103.639438 
L 223.966363 -103.367278 
L 222.722545 -96.720447 
L 221.478727 -100.310931 
L 220.234909 -104.993344 
L 218.991091 -102.101119 
L 217.747273 -97.750695 
L 216.503455 -105.244883 
L 215.259637 -100.208863 
L 214.01582 -99.081023 
L 212.772002 -101.822979 
L 211.528184 -98.670935 
L 210.284366 -105.811975 
L 209.040548 -102.865102 
L 207.79673 -102.829888 
L 206.552912 -96.935165 
L 205.309094 -92.593523 
L 204.065276 -88.317189 
L 202.821459 -95.334809 
L 201.577641 -88.762203 
L 200.333823 -93.691313 
L 199.090005 -91.423326 
L 197.846187 -85.234002 
L 196.602369 -87.97347 
L 195.358551 -92.481374 
L 194.114733 -85.772353 
L 192.870915 -85.135672 
L 191.627098 -87.101304 
L 190.38328 -87.208765 
L 189.139462 -87.443333 
L 187.895644 -88.126661 
L 186.651826 -88.07389 
L 185.408008 -91.370411 
L 184.16419 -83.974104 
L 182.920372 -88.169825 
L 181.676555 -89.34021 
L 180.432737 -93.116016 
L 179.188919 -86.878441 
L 177.945101 -85.632973 
L 176.701283 -86.63898 
L 175.457465 -91.324885 
L 174.213647 -88.448721 
L 172.969829 -87.127592 
L 171.726011 -89.050298 
L 170.482194 -90.976002 
L 169.238376 -87.564393 
L 167.994558 -88.324078 
L 166.75074 -88.626339 
L 165.506922 -82.799048 
L 164.263104 -82.213923 
L 163.019286 -79.164108 
L 161.775468 -76.539618 
L 160.53165 -79.748442 
L 159.287833 -77.777017 
L 158.044015 -76.418058 
L 156.800197 -74.493849 
L 155.556379 -79.210967 
L 154.312561 -76.773982 
L 153.068743 -77.286877 
L 151.824925 -77.985102 
L 150.581107 -76.322156 
L 149.33729 -75.164206 
L 148.093472 -76.963271 
L 146.849654 -76.818599 
L 145.605836 -75.423261 
L 144.362018 -76.403313 
L 143.1182 -76.262659 
L 141.874382 -77.956971 
L 140.630564 -77.720187 
L 139.386746 -77.88024 
L 138.142929 -75.42919 
L 136.899111 -76.8116 
L 135.655293 -75.998083 
L 134.411475 -77.362521 
L 133.167657 -76.70137 
L 131.923839 -76.597111 
L 130.680021 -76.683907 
L 129.436203 -77.3614 
L 128.192385 -76.358212 
L 126.948568 -75.426395 
L 125.70475 -79.945154 
L 124.460932 -76.70002 
L 123.217114 -76.787793 
L 121.973296 -73.710721 
L 120.729478 -75.969995 
L 119.48566 -70.624545 
L 118.241842 -76.07343 
L 116.998025 -74.383568 
L 115.754207 -75.632484 
L 114.510389 -75.865005 
L 113.266571 -74.372067 
L 112.022753 -75.448207 
L 110.778935 -78.071525 
L 109.535117 -72.794899 
L 108.291299 -74.663415 
L 107.047481 -76.119694 
L 105.803664 -73.649474 
L 104.559846 -75.309523 
L 103.316028 -78.585218 
L 102.07221 -75.090991 
L 100.828392 -75.749416 
L 99.584574 -77.941921 
L 98.340756 -75.835719 
L 97.096938 -72.424458 
L 95.85312 -70.66906 
L 94.609303 -68.687094 
L 93.365485 -65.315626 
L 92.121667 -63.599043 
L 90.877849 -62.514869 
L 89.634031 -62.528187 
L 88.390213 -62.151453 
L 87.146395 -60.844873 
L 85.902577 -60.801301 
L 84.658759 -58.026458 
L 83.414942 -56.621114 
L 82.171124 -56.583326 
L 80.927306 -56.550711 
L 79.683488 -56.463736 
z
" style="stroke: #6c3f70; stroke-opacity: 0.2"/>
    </defs>
    <g clip-path="url(#pa7c3846a8d)">
     <use xlink:href="#maa269a34f8" x="0" y="362.097812" style="fill: #6c3f70; fill-opacity: 0.2; stroke: #6c3f70; stroke-opacity: 0.2"/>
    </g>
   </g>
   <g id="PolyCollection_5">
    <defs>
     <path id="m6e26005480" d="M 79.683488 -56.465775 
L 79.683488 -56.454563 
L 80.927306 -56.474269 
L 82.171124 -56.563282 
L 83.414942 -56.600636 
L 84.658759 -56.749784 
L 85.902577 -56.786459 
L 87.146395 -56.949222 
L 88.390213 -56.969955 
L 89.634031 -56.847248 
L 90.877849 -57.138366 
L 92.121667 -57.100366 
L 93.365485 -57.154411 
L 94.609303 -57.274213 
L 95.85312 -57.139488 
L 97.096938 -56.957954 
L 98.340756 -56.945128 
L 99.584574 -56.755577 
L 100.828392 -56.707333 
L 102.07221 -56.866282 
L 103.316028 -56.966074 
L 104.559846 -56.915927 
L 105.803664 -56.790842 
L 107.047481 -56.97027 
L 108.291299 -56.892477 
L 109.535117 -56.914229 
L 110.778935 -56.849626 
L 112.022753 -56.971263 
L 113.266571 -57.134001 
L 114.510389 -56.771502 
L 115.754207 -56.8191 
L 116.998025 -56.79153 
L 118.241842 -56.977073 
L 119.48566 -56.779656 
L 120.729478 -56.740619 
L 121.973296 -56.799743 
L 123.217114 -57.004218 
L 124.460932 -56.997466 
L 125.70475 -56.779011 
L 126.948568 -56.954658 
L 128.192385 -56.742989 
L 129.436203 -56.779665 
L 130.680021 -56.829981 
L 131.923839 -56.772496 
L 133.167657 -56.793603 
L 134.411475 -56.708658 
L 135.655293 -56.638628 
L 136.899111 -56.603337 
L 138.142929 -56.801434 
L 139.386746 -56.695442 
L 140.630564 -56.780718 
L 141.874382 -56.680782 
L 143.1182 -56.610489 
L 144.362018 -56.611168 
L 145.605836 -56.646493 
L 146.849654 -56.587743 
L 148.093472 -56.671312 
L 149.33729 -56.582978 
L 150.581107 -56.572387 
L 151.824925 -56.571096 
L 153.068743 -56.571775 
L 154.312561 -56.591455 
L 155.556379 -56.604042 
L 156.800197 -56.542557 
L 158.044015 -56.54051 
L 159.287833 -56.536756 
L 160.53165 -56.567698 
L 161.775468 -56.509602 
L 163.019286 -56.532025 
L 164.263104 -56.561889 
L 165.506922 -56.633948 
L 166.75074 -56.517739 
L 167.994558 -56.502459 
L 169.238376 -56.539482 
L 170.482194 -56.522164 
L 171.726011 -56.489549 
L 172.969829 -56.495664 
L 174.213647 -56.48819 
L 175.457465 -56.489888 
L 176.701283 -56.478006 
L 177.945101 -56.489897 
L 179.188919 -56.490576 
L 180.432737 -56.477666 
L 181.676555 -56.474269 
L 182.920372 -56.479016 
L 184.16419 -56.475628 
L 185.408008 -56.467134 
L 186.651826 -56.467474 
L 187.895644 -56.467474 
L 189.139462 -56.465766 
L 190.38328 -56.462717 
L 191.627098 -56.464756 
L 192.870915 -56.463057 
L 194.114733 -56.457281 
L 195.358551 -56.463057 
L 196.602369 -56.464076 
L 197.846187 -56.462038 
L 199.090005 -56.461358 
L 200.333823 -56.460679 
L 201.577641 -56.462377 
L 202.821459 -56.461358 
L 204.065276 -56.460339 
L 205.309094 -56.461019 
L 206.552912 -56.461358 
L 207.79673 -56.462038 
L 209.040548 -56.45864 
L 210.284366 -56.461019 
L 211.528184 -56.464076 
L 212.772002 -56.459999 
L 214.01582 -56.462038 
L 215.259637 -56.45864 
L 216.503455 -56.45932 
L 217.747273 -56.45932 
L 218.991091 -56.460339 
L 220.234909 -56.460339 
L 221.478727 -56.46101 
L 222.722545 -56.45898 
L 223.966363 -56.45966 
L 225.21018 -56.460679 
L 226.453998 -56.45966 
L 227.697816 -56.459999 
L 228.941634 -56.457961 
L 230.185452 -56.460339 
L 231.42927 -56.461358 
L 232.673088 -56.457281 
L 233.916906 -56.457621 
L 235.160724 -56.460339 
L 236.404541 -56.460339 
L 237.648359 -56.460339 
L 238.892177 -56.459999 
L 240.135995 -56.460339 
L 241.379813 -56.460339 
L 242.623631 -56.459999 
L 243.867449 -56.463057 
L 245.111267 -56.45932 
L 246.355085 -56.459999 
L 247.598902 -56.45864 
L 248.84272 -56.460679 
L 250.086538 -56.461019 
L 251.330356 -56.45966 
L 252.574174 -56.460339 
L 253.817992 -56.457621 
L 255.06181 -56.461019 
L 256.305628 -56.457961 
L 257.549445 -56.460339 
L 258.793263 -56.461019 
L 260.037081 -56.460339 
L 261.280899 -56.460679 
L 262.524717 -56.459999 
L 263.768535 -56.463057 
L 265.012353 -56.45966 
L 266.256171 -56.45966 
L 267.499989 -56.45966 
L 268.743806 -56.459991 
L 269.987624 -56.459999 
L 271.231442 -56.458301 
L 272.47526 -56.461358 
L 273.719078 -56.458301 
L 274.962896 -56.456262 
L 276.206714 -56.45966 
L 277.450532 -56.459999 
L 278.69435 -56.457961 
L 279.938167 -56.45898 
L 281.181985 -56.457961 
L 282.425803 -56.45966 
L 283.669621 -56.457281 
L 284.913439 -56.45864 
L 286.157257 -56.457952 
L 287.401075 -56.456602 
L 288.644893 -56.459999 
L 289.88871 -56.45898 
L 291.132528 -56.457621 
L 292.376346 -56.457961 
L 293.620164 -56.457961 
L 294.863982 -56.461358 
L 296.1078 -56.457621 
L 297.351618 -56.45932 
L 298.595436 -56.459999 
L 299.839254 -56.457961 
L 301.083071 -56.460339 
L 302.326889 -56.45966 
L 303.570707 -56.457621 
L 304.814525 -56.456942 
L 306.058343 -56.456602 
L 307.302161 -56.45932 
L 308.545979 -56.457621 
L 309.789797 -56.460339 
L 311.033615 -56.45864 
L 312.277432 -56.45966 
L 313.52125 -56.457621 
L 314.765068 -56.45932 
L 316.008886 -56.456942 
L 317.252704 -56.45864 
L 318.496522 -56.457961 
L 319.74034 -56.45932 
L 320.984158 -56.457961 
L 322.227976 -56.456602 
L 323.471793 -56.456602 
L 324.715611 -56.457621 
L 325.959429 -56.45966 
L 327.203247 -56.459999 
L 327.203247 -56.465435 
L 327.203247 -56.465435 
L 325.959429 -56.463736 
L 324.715611 -56.461698 
L 323.471793 -56.461698 
L 322.227976 -56.463397 
L 320.984158 -56.462377 
L 319.74034 -56.463397 
L 318.496522 -56.465095 
L 317.252704 -56.463397 
L 316.008886 -56.461698 
L 314.765068 -56.465435 
L 313.52125 -56.461698 
L 312.277432 -56.463397 
L 311.033615 -56.463405 
L 309.789797 -56.465095 
L 308.545979 -56.462717 
L 307.302161 -56.465095 
L 306.058343 -56.462386 
L 304.814525 -56.461358 
L 303.570707 -56.461698 
L 302.326889 -56.466794 
L 301.083071 -56.465775 
L 299.839254 -56.463736 
L 298.595436 -56.465095 
L 297.351618 -56.463736 
L 296.1078 -56.462717 
L 294.863982 -56.469521 
L 293.620164 -56.462377 
L 292.376346 -56.463397 
L 291.132528 -56.463057 
L 289.88871 -56.468153 
L 288.644893 -56.466115 
L 287.401075 -56.461019 
L 286.157257 -56.464756 
L 284.913439 -56.463736 
L 283.669621 -56.462038 
L 282.425803 -56.464416 
L 281.181985 -56.463057 
L 279.938167 -56.464416 
L 278.69435 -56.463057 
L 277.450532 -56.466454 
L 276.206714 -56.465095 
L 274.962896 -56.460339 
L 273.719078 -56.463736 
L 272.47526 -56.466454 
L 271.231442 -56.463057 
L 269.987624 -56.464756 
L 268.743806 -56.466454 
L 267.499989 -56.464416 
L 266.256171 -56.464076 
L 265.012353 -56.465435 
L 263.768535 -56.470871 
L 262.524717 -56.466454 
L 261.280899 -56.465435 
L 260.037081 -56.466794 
L 258.793263 -56.467813 
L 257.549445 -56.465095 
L 256.305628 -56.463057 
L 255.06181 -56.465095 
L 253.817992 -56.462717 
L 252.574174 -56.466115 
L 251.330356 -56.465783 
L 250.086538 -56.464756 
L 248.84272 -56.467142 
L 247.598902 -56.463397 
L 246.355085 -56.465095 
L 245.111267 -56.465095 
L 243.867449 -56.468153 
L 242.623631 -56.467474 
L 241.379813 -56.465435 
L 240.135995 -56.464416 
L 238.892177 -56.467134 
L 237.648359 -56.470531 
L 236.404541 -56.467134 
L 235.160724 -56.467813 
L 233.916906 -56.463057 
L 232.673088 -56.461698 
L 231.42927 -56.466794 
L 230.185452 -56.466115 
L 228.941634 -56.462038 
L 227.697816 -56.463736 
L 226.453998 -56.463736 
L 225.21018 -56.466794 
L 223.966363 -56.466454 
L 222.722545 -56.464416 
L 221.478727 -56.465775 
L 220.234909 -56.466115 
L 218.991091 -56.466115 
L 217.747273 -56.465095 
L 216.503455 -56.465775 
L 215.259637 -56.465095 
L 214.01582 -56.467474 
L 212.772002 -56.465435 
L 211.528184 -56.473249 
L 210.284366 -56.470871 
L 209.040548 -56.469172 
L 207.79673 -56.469512 
L 206.552912 -56.469172 
L 205.309094 -56.467134 
L 204.065276 -56.466794 
L 202.821459 -56.469512 
L 201.577641 -56.474948 
L 200.333823 -56.467474 
L 199.090005 -56.466794 
L 197.846187 -56.473598 
L 196.602369 -56.474269 
L 195.358551 -56.469852 
L 194.114733 -56.462717 
L 192.870915 -56.471551 
L 191.627098 -56.475296 
L 190.38328 -56.471551 
L 189.139462 -56.475628 
L 187.895644 -56.475628 
L 186.651826 -56.477666 
L 185.408008 -56.483442 
L 184.16419 -56.492275 
L 182.920372 -56.492615 
L 181.676555 -56.491595 
L 180.432737 -56.494313 
L 179.188919 -56.516745 
L 177.945101 -56.545292 
L 176.701283 -56.533384 
L 175.457465 -56.521153 
L 174.213647 -56.514707 
L 172.969829 -56.560224 
L 171.726011 -56.516745 
L 170.482194 -56.594538 
L 169.238376 -56.853126 
L 167.994558 -56.6941 
L 166.75074 -56.761047 
L 165.506922 -57.028816 
L 164.263104 -56.811371 
L 163.019286 -56.711801 
L 161.775468 -56.694525 
L 160.53165 -56.831679 
L 159.287833 -56.776989 
L 158.044015 -56.684927 
L 156.800197 -56.68254 
L 155.556379 -56.90712 
L 154.312561 -56.97066 
L 153.068743 -56.86635 
L 151.824925 -56.901786 
L 150.581107 -56.86703 
L 149.33729 -56.848803 
L 148.093472 -57.088942 
L 146.849654 -56.885809 
L 145.605836 -57.045115 
L 144.362018 -56.943141 
L 143.1182 -56.855461 
L 141.874382 -57.011413 
L 140.630564 -57.162938 
L 139.386746 -57.090233 
L 138.142929 -57.24209 
L 136.899111 -56.953316 
L 135.655293 -57.052547 
L 134.411475 -57.066494 
L 133.167657 -57.281169 
L 131.923839 -57.323986 
L 130.680021 -57.304603 
L 129.436203 -57.282537 
L 128.192385 -57.174303 
L 126.948568 -57.473473 
L 125.70475 -57.324257 
L 124.460932 -57.519356 
L 123.217114 -57.536708 
L 121.973296 -57.279267 
L 120.729478 -57.106881 
L 119.48566 -57.23397 
L 118.241842 -57.401159 
L 116.998025 -57.173496 
L 115.754207 -57.279904 
L 114.510389 -57.283573 
L 113.266571 -57.601896 
L 112.022753 -57.402254 
L 110.778935 -57.272353 
L 109.535117 -57.362801 
L 108.291299 -57.408234 
L 107.047481 -57.401311 
L 105.803664 -57.204073 
L 104.559846 -57.339631 
L 103.316028 -57.428967 
L 102.07221 -57.176528 
L 100.828392 -57.007038 
L 99.584574 -57.192844 
L 98.340756 -57.396428 
L 97.096938 -57.39162 
L 95.85312 -57.670873 
L 94.609303 -57.737463 
L 93.365485 -57.649121 
L 92.121667 -57.585589 
L 90.877849 -57.648798 
L 89.634031 -57.283887 
L 88.390213 -57.416065 
L 87.146395 -57.430997 
L 85.902577 -57.081748 
L 84.658759 -57.036902 
L 83.414942 -56.887431 
L 82.171124 -56.902805 
L 80.927306 -56.532713 
L 79.683488 -56.465775 
z
" style="stroke: #2d1e3e; stroke-opacity: 0.2"/>
    </defs>
    <g clip-path="url(#pa7c3846a8d)">
     <use xlink:href="#m6e26005480" x="0" y="362.097812" style="fill: #2d1e3e; fill-opacity: 0.2; stroke: #2d1e3e; stroke-opacity: 0.2"/>
    </g>
   </g>
   <g id="line2d_12">
    <path d="M 79.683488 305.643249 
L 80.927306 305.610634 
L 82.171124 305.397954 
L 83.414942 304.902607 
L 84.658759 304.534664 
L 87.146395 304.076689 
L 88.390213 304.478606 
L 89.634031 304.079067 
L 90.877849 304.130708 
L 92.121667 303.347938 
L 95.85312 302.935148 
L 97.096938 302.475814 
L 98.340756 303.154623 
L 99.584574 300.62251 
L 100.828392 287.722084 
L 102.07221 265.215053 
L 103.316028 251.536274 
L 104.559846 249.407437 
L 105.803664 257.855855 
L 107.047481 258.024368 
L 108.291299 253.003289 
L 109.535117 263.683486 
L 110.778935 252.939757 
L 112.022753 262.308881 
L 113.266571 262.007528 
L 114.510389 262.445119 
L 115.754207 260.137577 
L 116.998025 257.593912 
L 118.241842 255.932563 
L 119.48566 249.063276 
L 120.729478 251.190754 
L 121.973296 268.161994 
L 123.217114 268.052596 
L 124.460932 259.029331 
L 125.70475 256.705481 
L 126.948568 259.195466 
L 128.192385 250.083188 
L 129.436203 251.437068 
L 130.680021 263.646454 
L 131.923839 249.259988 
L 133.167657 250.97026 
L 134.411475 258.67158 
L 135.655293 251.413966 
L 136.899111 252.80216 
L 138.142929 244.916698 
L 139.386746 249.598033 
L 140.630564 242.923419 
L 141.874382 256.690532 
L 143.1182 251.785986 
L 144.362018 255.995076 
L 145.605836 256.493481 
L 146.849654 249.123071 
L 148.093472 243.52001 
L 149.33729 255.663825 
L 150.581107 246.398662 
L 151.824925 253.49252 
L 153.068743 253.717431 
L 154.312561 262.998902 
L 155.556379 240.533659 
L 156.800197 250.50583 
L 158.044015 250.374349 
L 159.287833 272.885457 
L 160.53165 245.741597 
L 161.775468 255.630191 
L 163.019286 252.959462 
L 164.263104 245.729706 
L 165.506922 245.789841 
L 166.75074 240.035934 
L 167.994558 248.568269 
L 169.238376 258.214285 
L 170.482194 253.673264 
L 171.726011 251.206042 
L 172.969829 255.610486 
L 175.457465 251.342619 
L 176.701283 251.241036 
L 177.945101 253.537027 
L 179.188919 258.430362 
L 180.432737 246.266842 
L 181.676555 256.044679 
L 182.920372 246.870227 
L 184.16419 249.221597 
L 185.408008 249.003821 
L 186.651826 254.345278 
L 187.895644 246.772381 
L 190.38328 265.876195 
L 191.627098 246.847125 
L 192.870915 258.546894 
L 194.114733 256.402429 
L 195.358551 261.357598 
L 196.602369 255.824864 
L 197.846187 244.0918 
L 199.090005 246.357893 
L 200.333823 249.630649 
L 201.577641 244.868455 
L 202.821459 250.379784 
L 204.065276 244.47673 
L 205.309094 256.990866 
L 206.552912 242.354688 
L 207.79673 239.772972 
L 209.040548 245.242853 
L 210.284366 254.769959 
L 211.528184 254.366003 
L 212.772002 242.805868 
L 214.01582 251.786325 
L 215.259637 259.746871 
L 216.503455 248.442224 
L 217.747273 247.759678 
L 218.991091 251.770697 
L 220.234909 247.576555 
L 221.478727 254.936773 
L 222.722545 255.487158 
L 223.966363 248.297153 
L 225.21018 257.959816 
L 226.453998 244.893596 
L 227.697816 248.875397 
L 228.941634 255.907762 
L 230.185452 259.874275 
L 231.42927 255.305395 
L 232.673088 262.201522 
L 233.916906 259.921839 
L 235.160724 253.271347 
L 236.404541 239.490984 
L 237.648359 243.627369 
L 238.892177 248.216633 
L 240.135995 248.050838 
L 241.379813 245.998444 
L 242.623631 250.718849 
L 243.867449 250.573099 
L 245.111267 250.286355 
L 246.355085 247.057087 
L 247.598902 247.381542 
L 248.84272 246.437733 
L 250.086538 249.043231 
L 251.330356 246.29606 
L 252.574174 254.439727 
L 253.817992 256.903892 
L 255.06181 246.579067 
L 256.305628 258.9906 
L 257.549445 256.528814 
L 258.793263 249.577649 
L 260.037081 264.243385 
L 261.280899 244.309236 
L 262.524717 249.406417 
L 263.768535 251.473081 
L 265.012353 254.301791 
L 266.256171 247.279279 
L 267.499989 259.497499 
L 268.743806 247.449151 
L 269.987624 259.818217 
L 271.231442 261.635848 
L 272.47526 259.996583 
L 273.719078 238.797227 
L 274.962896 253.189808 
L 276.206714 262.64319 
L 277.450532 253.072597 
L 278.69435 264.997617 
L 279.938167 245.673309 
L 281.181985 248.382089 
L 282.425803 255.248658 
L 283.669621 255.364511 
L 286.157257 250.714093 
L 287.401075 262.547722 
L 288.644893 252.904084 
L 289.88871 262.449875 
L 291.132528 252.700577 
L 292.376346 248.277448 
L 293.620164 250.733798 
L 294.863982 255.375722 
L 296.1078 239.069701 
L 297.351618 241.619821 
L 298.595436 248.849917 
L 299.839254 243.670857 
L 301.083071 259.992506 
L 302.326889 248.292396 
L 303.570707 243.540395 
L 304.814525 259.68096 
L 306.058343 250.361778 
L 307.302161 250.335278 
L 308.545979 247.927171 
L 311.033615 257.997868 
L 312.277432 253.113706 
L 313.52125 256.181256 
L 314.765068 256.382045 
L 316.008886 250.804804 
L 317.252704 265.02004 
L 318.496522 250.827907 
L 319.74034 253.322309 
L 320.984158 241.266487 
L 322.227976 255.253414 
L 323.471793 255.665184 
L 324.715611 250.88974 
L 325.959429 264.803963 
L 327.203247 253.390257 
L 327.203247 253.390257 
" clip-path="url(#pa7c3846a8d)" style="fill: none; stroke: #edd1cb; stroke-width: 1.5; stroke-linecap: round"/>
   </g>
   <g id="line2d_13">
    <path d="M 79.683488 305.596364 
L 80.927306 304.290048 
L 82.171124 304.469093 
L 88.390213 303.49097 
L 89.634031 303.473303 
L 90.877849 303.708746 
L 92.121667 303.089053 
L 94.609303 302.500616 
L 97.096938 299.641669 
L 98.340756 298.52357 
L 99.584574 297.686781 
L 100.828392 298.355397 
L 102.07221 298.738289 
L 103.316028 297.81996 
L 104.559846 296.149438 
L 107.047481 295.404719 
L 108.291299 296.206176 
L 109.535117 295.953746 
L 110.778935 293.454588 
L 113.266571 293.833742 
L 114.510389 290.735955 
L 115.754207 291.769796 
L 116.998025 291.143988 
L 118.241842 289.980364 
L 119.48566 289.935518 
L 120.729478 285.580677 
L 121.973296 286.297537 
L 123.217114 285.921101 
L 124.460932 285.239914 
L 125.70475 285.726427 
L 126.948568 287.337834 
L 128.192385 291.324392 
L 129.436203 286.70557 
L 130.680021 287.976893 
L 131.923839 287.898072 
L 133.167657 288.945503 
L 135.655293 285.713857 
L 136.899111 285.325529 
L 138.142929 283.063173 
L 139.386746 287.985726 
L 140.630564 289.208465 
L 143.1182 284.733695 
L 144.362018 285.768895 
L 145.605836 288.182438 
L 146.849654 289.044708 
L 148.093472 287.797847 
L 149.33729 284.647739 
L 150.581107 284.944676 
L 151.824925 289.323299 
L 153.068743 288.031591 
L 154.312561 290.604814 
L 156.800197 287.047352 
L 158.044015 284.823047 
L 159.287833 284.594739 
L 160.53165 287.642584 
L 161.775468 289.392946 
L 163.019286 286.108639 
L 164.263104 286.219056 
L 165.506922 285.963908 
L 166.75074 284.549553 
L 167.994558 286.144313 
L 169.238376 285.049657 
L 170.482194 284.986125 
L 171.726011 284.473111 
L 172.969829 283.287064 
L 174.213647 285.906492 
L 175.457465 287.825027 
L 176.701283 287.028327 
L 179.188919 286.250313 
L 180.432737 287.766931 
L 181.676555 288.813003 
L 182.920372 284.032803 
L 184.16419 287.313372 
L 185.408008 284.853285 
L 186.651826 285.47026 
L 187.895644 283.764744 
L 189.139462 283.709026 
L 190.38328 284.683073 
L 191.627098 284.843092 
L 192.870915 285.338439 
L 194.114733 282.924557 
L 195.358551 284.065078 
L 196.602369 284.611047 
L 197.846187 282.844717 
L 199.090005 283.472225 
L 200.333823 285.41726 
L 201.577641 284.976952 
L 202.821459 287.640546 
L 204.065276 285.278305 
L 205.309094 285.832088 
L 206.552912 285.101977 
L 207.79673 281.223118 
L 209.040548 284.335854 
L 210.284366 288.982875 
L 211.528184 282.90757 
L 212.772002 282.315736 
L 214.01582 286.405576 
L 215.259637 282.85491 
L 216.503455 286.527544 
L 217.747273 285.707741 
L 218.991091 283.402917 
L 220.234909 285.068003 
L 221.478727 284.066777 
L 222.722545 286.151107 
L 223.966363 277.384009 
L 225.21018 231.867805 
L 226.453998 159.437068 
L 227.697816 112.247283 
L 228.941634 122.708346 
L 230.185452 104.292513 
L 231.42927 97.13954 
L 232.673088 128.489772 
L 233.916906 138.939283 
L 235.160724 112.176616 
L 236.404541 107.326089 
L 237.648359 81.772572 
L 238.892177 73.158698 
L 240.135995 83.638447 
L 241.379813 99.961455 
L 242.623631 130.56459 
L 243.867449 148.129702 
L 245.111267 122.414467 
L 246.355085 123.527129 
L 247.598902 117.314907 
L 248.84272 117.153189 
L 250.086538 107.309442 
L 251.330356 108.835912 
L 252.574174 108.871585 
L 253.817992 108.00252 
L 255.06181 141.356223 
L 256.305628 133.919223 
L 257.549445 152.092478 
L 258.793263 73.337743 
L 260.037081 105.166675 
L 261.280899 122.754551 
L 262.524717 130.287358 
L 263.768535 145.309486 
L 265.012353 126.929667 
L 266.256171 111.33507 
L 267.499989 125.320638 
L 268.743806 128.927702 
L 269.987624 129.920095 
L 271.231442 131.597752 
L 272.47526 129.732896 
L 273.719078 91.498768 
L 274.962896 140.090676 
L 276.206714 99.073024 
L 277.450532 112.940701 
L 278.69435 121.846075 
L 279.938167 128.313445 
L 281.181985 103.384717 
L 282.425803 133.907672 
L 283.669621 96.447821 
L 284.913439 112.874111 
L 286.157257 112.668566 
L 287.401075 119.755969 
L 288.644893 118.694608 
L 289.88871 104.824553 
L 291.132528 126.754359 
L 292.376346 102.153484 
L 293.620164 85.20059 
L 294.863982 141.914083 
L 296.1078 76.738922 
L 297.351618 142.073083 
L 298.595436 126.097633 
L 299.839254 93.989432 
L 301.083071 94.554766 
L 302.326889 94.560202 
L 303.570707 153.36482 
L 304.814525 150.195347 
L 306.058343 110.038267 
L 307.302161 132.948574 
L 308.545979 126.891615 
L 309.789797 124.598682 
L 311.033615 133.583896 
L 312.277432 109.23715 
L 313.52125 118.265171 
L 314.765068 85.499905 
L 316.008886 125.99537 
L 317.252704 71.066893 
L 318.496522 111.782853 
L 319.74034 120.836355 
L 320.984158 104.981515 
L 322.227976 104.744373 
L 323.471793 135.906727 
L 324.715611 130.218051 
L 325.959429 114.0306 
L 327.203247 137.322441 
L 327.203247 137.322441 
" clip-path="url(#pa7c3846a8d)" style="fill: none; stroke: #d499a7; stroke-width: 1.5; stroke-linecap: round"/>
   </g>
   <g id="line2d_14">
    <path d="M 79.683488 305.521281 
L 80.927306 304.429343 
L 82.171124 304.068875 
L 83.414942 303.846342 
L 84.658759 303.3707 
L 85.902577 304.090279 
L 87.146395 304.033202 
L 88.390213 304.188125 
L 89.634031 303.754951 
L 93.365485 302.908988 
L 94.609303 302.266872 
L 95.85312 302.493141 
L 98.340756 302.131314 
L 99.584574 301.584326 
L 100.828392 301.679794 
L 102.07221 302.031429 
L 103.316028 302.758481 
L 105.803664 301.401543 
L 107.047481 301.541518 
L 108.291299 302.079673 
L 109.535117 302.377968 
L 110.778935 301.624076 
L 112.022753 301.928147 
L 113.266571 302.001871 
L 115.754207 301.882621 
L 116.998025 301.949551 
L 118.241842 301.336312 
L 119.48566 301.147075 
L 120.729478 301.864275 
L 121.973296 301.14062 
L 123.217114 300.905517 
L 124.460932 301.315588 
L 125.70475 301.101549 
L 126.948568 300.692157 
L 128.192385 300.120028 
L 129.436203 300.818542 
L 130.680021 301.188184 
L 131.923839 300.8746 
L 133.167657 301.04719 
L 134.411475 300.401336 
L 135.655293 300.616734 
L 136.899111 300.34358 
L 138.142929 299.66613 
L 139.386746 300.374157 
L 140.630564 300.251509 
L 141.874382 300.734965 
L 143.1182 300.672113 
L 144.362018 300.418324 
L 145.605836 299.439181 
L 146.849654 295.900746 
L 148.093472 290.743089 
L 149.33729 279.063025 
L 150.581107 277.147547 
L 151.824925 272.760771 
L 153.068743 278.383876 
L 154.312561 276.276783 
L 155.556379 278.666544 
L 156.800197 272.950008 
L 158.044015 280.276251 
L 159.287833 280.074443 
L 160.53165 275.149852 
L 161.775468 277.308246 
L 163.019286 273.690311 
L 164.263104 277.259323 
L 165.506922 279.213192 
L 166.75074 278.648877 
L 169.238376 272.061917 
L 170.482194 275.6965 
L 171.726011 273.387259 
L 172.969829 278.761332 
L 174.213647 273.329163 
L 175.457465 275.828661 
L 176.701283 277.339163 
L 177.945101 279.174121 
L 179.188919 277.970068 
L 180.432737 277.245054 
L 181.676555 273.937645 
L 182.920372 280.219854 
L 184.16419 271.476538 
L 185.408008 281.493215 
L 186.651826 276.21461 
L 187.895644 277.899401 
L 189.139462 274.43571 
L 190.38328 281.556747 
L 191.627098 278.189882 
L 192.870915 283.202468 
L 194.114733 274.941589 
L 195.358551 274.895044 
L 196.602369 278.401883 
L 197.846187 278.134844 
L 199.090005 273.045816 
L 200.333823 274.597428 
L 201.577641 273.369592 
L 202.821459 274.447261 
L 204.065276 275.145435 
L 205.309094 275.336711 
L 206.552912 270.86296 
L 207.79673 275.475666 
L 209.040548 277.706427 
L 210.284366 279.047736 
L 211.528184 274.10276 
L 212.772002 273.832324 
L 214.01582 275.455621 
L 215.259637 272.289206 
L 216.503455 284.677977 
L 217.747273 278.810595 
L 218.991091 275.16582 
L 220.234909 281.088919 
L 221.478727 272.866431 
L 222.722545 279.203 
L 223.966363 273.174239 
L 225.21018 273.152156 
L 226.453998 275.500468 
L 227.697816 276.616188 
L 228.941634 277.185938 
L 230.185452 274.243075 
L 231.42927 273.542522 
L 232.673088 280.495386 
L 233.916906 273.896875 
L 235.160724 281.772485 
L 236.404541 278.981826 
L 237.648359 281.099112 
L 238.892177 276.86556 
L 240.135995 275.32482 
L 241.379813 280.059495 
L 242.623631 277.112554 
L 243.867449 278.76405 
L 245.111267 275.612583 
L 246.355085 275.371365 
L 247.598902 276.561828 
L 248.84272 281.833639 
L 250.086538 275.164121 
L 251.330356 275.666263 
L 253.817992 273.553734 
L 255.06181 275.53716 
L 256.305628 275.328217 
L 257.549445 275.522891 
L 258.793263 280.431854 
L 260.037081 277.60892 
L 261.280899 277.777773 
L 262.524717 274.1296 
L 263.768535 279.187032 
L 265.012353 279.849533 
L 266.256171 279.554975 
L 267.499989 281.561164 
L 268.743806 281.249279 
L 269.987624 275.566038 
L 271.231442 273.873433 
L 272.47526 277.351734 
L 273.719078 277.084355 
L 274.962896 279.599141 
L 276.206714 285.829709 
L 277.450532 277.047323 
L 278.69435 276.384822 
L 279.938167 273.261554 
L 281.181985 276.040321 
L 282.425803 280.454617 
L 283.669621 278.434159 
L 284.913439 277.852856 
L 286.157257 282.261037 
L 287.401075 278.296902 
L 288.644893 278.518415 
L 289.88871 277.380952 
L 291.132528 279.444897 
L 292.376346 279.649423 
L 293.620164 275.631609 
L 294.863982 275.557545 
L 296.1078 278.887717 
L 297.351618 277.878677 
L 298.595436 281.865575 
L 299.839254 278.595877 
L 301.083071 278.756915 
L 302.326889 276.615168 
L 303.570707 278.28569 
L 304.814525 282.03103 
L 306.058343 273.484086 
L 307.302161 281.917555 
L 308.545979 278.148773 
L 309.789797 281.282234 
L 311.033615 279.352827 
L 312.277432 281.272381 
L 313.52125 280.645553 
L 314.765068 279.181935 
L 316.008886 280.529021 
L 317.252704 277.404394 
L 318.496522 278.532345 
L 319.74034 278.261568 
L 320.984158 278.31321 
L 322.227976 280.429476 
L 323.471793 280.55756 
L 324.715611 275.186544 
L 325.959429 274.901159 
L 327.203247 283.879918 
L 327.203247 283.879918 
" clip-path="url(#pa7c3846a8d)" style="fill: none; stroke: #a9678f; stroke-width: 1.5; stroke-linecap: round"/>
   </g>
   <g id="line2d_15">
    <path d="M 79.683488 305.64189 
L 82.171124 305.539627 
L 83.414942 305.537249 
L 84.658759 304.820049 
L 85.902577 302.462564 
L 87.146395 302.263814 
L 88.390213 301.332915 
L 89.634031 301.062818 
L 90.877849 301.170857 
L 92.121667 300.540292 
L 93.365485 299.301585 
L 94.609303 296.257817 
L 95.85312 294.491827 
L 97.096938 293.117901 
L 98.340756 289.529184 
L 99.584574 287.032743 
L 100.828392 289.933479 
L 102.07221 291.125981 
L 103.316028 286.654948 
L 104.559846 290.133928 
L 105.803664 292.076585 
L 107.047481 289.239722 
L 108.291299 290.914321 
L 109.535117 292.971811 
L 110.778935 286.831275 
L 112.022753 290.117281 
L 113.266571 291.105936 
L 114.510389 289.631447 
L 115.754207 289.482978 
L 116.998025 291.117827 
L 118.241842 289.29442 
L 119.48566 295.010956 
L 120.729478 289.430318 
L 121.973296 292.301496 
L 123.217114 288.572804 
L 124.460932 288.726708 
L 125.70475 284.07595 
L 126.948568 289.913434 
L 128.192385 289.516953 
L 129.436203 287.481885 
L 130.680021 288.28504 
L 131.923839 288.677445 
L 133.167657 288.53849 
L 134.411475 287.493437 
L 135.655293 289.737786 
L 136.899111 288.105316 
L 138.142929 289.921248 
L 139.386746 287.558667 
L 140.630564 287.321866 
L 141.874382 287.401706 
L 143.1182 289.278113 
L 144.362018 288.997144 
L 145.605836 289.894748 
L 146.849654 288.469522 
L 148.093472 288.064886 
L 149.33729 290.885442 
L 151.824925 287.398648 
L 153.068743 288.009508 
L 154.312561 288.773593 
L 155.556379 285.283061 
L 156.800197 291.141949 
L 158.044015 289.006657 
L 160.53165 286.144313 
L 161.775468 290.09112 
L 163.019286 287.811437 
L 164.263104 284.012418 
L 165.506922 284.513201 
L 166.75074 278.470171 
L 167.994558 277.968709 
L 169.238376 279.453051 
L 170.482194 276.407924 
L 171.726011 278.381838 
L 172.969829 280.763105 
L 174.213647 279.067102 
L 175.457465 275.397865 
L 176.701283 282.215851 
L 177.945101 282.778127 
L 179.188919 281.438856 
L 180.432737 273.51874 
L 181.676555 278.454883 
L 182.920372 279.780904 
L 184.16419 283.962476 
L 185.408008 276.141225 
L 186.651826 279.489404 
L 187.895644 279.645007 
L 189.139462 280.202527 
L 190.38328 280.457335 
L 191.627098 280.389726 
L 192.870915 283.089673 
L 194.114733 281.834998 
L 195.358551 274.041946 
L 196.602369 279.716693 
L 197.846187 283.118551 
L 199.090005 275.712128 
L 200.333823 273.137887 
L 201.577641 280.077841 
L 202.821459 272.030661 
L 204.065276 280.785188 
L 205.309094 276.354924 
L 206.552912 272.769944 
L 207.79673 265.609836 
L 209.040548 265.726028 
L 210.284366 261.861099 
L 211.528184 272.11152 
L 212.772002 266.861113 
L 214.01582 271.2873 
L 215.259637 269.929003 
L 216.503455 264.324244 
L 217.747273 272.729854 
L 218.991091 267.819871 
L 220.234909 265.044162 
L 222.722545 274.127562 
L 223.966363 266.738126 
L 225.21018 265.010527 
L 226.453998 267.195082 
L 227.697816 264.809398 
L 228.941634 258.835337 
L 230.185452 271.676307 
L 231.42927 263.872724 
L 232.673088 261.997336 
L 233.916906 273.182733 
L 235.160724 261.656573 
L 236.404541 268.617591 
L 237.648359 257.31804 
L 238.892177 260.380494 
L 240.135995 258.891735 
L 241.379813 268.460969 
L 242.623631 267.3303 
L 243.867449 271.527499 
L 245.111267 269.908279 
L 246.355085 265.413464 
L 247.598902 266.90494 
L 248.84272 262.808645 
L 250.086538 271.043364 
L 251.330356 270.150177 
L 252.574174 265.175643 
L 253.817992 264.899091 
L 255.06181 269.775439 
L 256.305628 262.087029 
L 257.549445 275.594917 
L 258.793263 273.24015 
L 260.037081 271.50032 
L 261.280899 271.542788 
L 262.524717 267.990423 
L 263.768535 265.156617 
L 265.012353 260.365545 
L 266.256171 268.623706 
L 267.499989 269.953805 
L 268.743806 268.410347 
L 269.987624 258.875087 
L 271.231442 266.923966 
L 272.47526 262.211715 
L 273.719078 268.489507 
L 274.962896 268.602642 
L 276.206714 267.26371 
L 277.450532 266.79894 
L 278.69435 253.234994 
L 279.938167 234.022122 
L 281.181985 225.172127 
L 282.425803 126.096614 
L 283.669621 88.806635 
L 284.913439 80.810756 
L 286.157257 98.332382 
L 287.401075 80.298762 
L 288.644893 70.330328 
L 289.88871 98.060586 
L 291.132528 106.803902 
L 292.376346 89.267668 
L 293.620164 115.847212 
L 294.863982 80.228095 
L 296.1078 78.807285 
L 297.351618 114.99989 
L 298.595436 98.195804 
L 299.839254 71.015932 
L 301.083071 94.487497 
L 302.326889 76.498044 
L 303.570707 89.405264 
L 304.814525 97.738169 
L 306.058343 89.382161 
L 308.545979 71.450125 
L 309.789797 80.348364 
L 311.033615 133.624325 
L 312.277432 88.25557 
L 313.52125 79.799338 
L 314.765068 89.039699 
L 316.008886 116.018443 
L 317.252704 79.762645 
L 318.496522 89.448751 
L 319.74034 133.175523 
L 320.984158 89.525194 
L 323.471793 106.743088 
L 324.715611 87.931454 
L 325.959429 106.656453 
L 327.203247 115.532609 
L 327.203247 115.532609 
" clip-path="url(#pa7c3846a8d)" style="fill: none; stroke: #6c3f70; stroke-width: 1.5; stroke-linecap: round"/>
   </g>
   <g id="line2d_16">
    <path d="M 79.683488 305.638493 
L 80.927306 305.599082 
L 82.171124 305.409165 
L 83.414942 305.369755 
L 84.658759 305.206338 
L 85.902577 305.166588 
L 87.146395 304.918575 
L 88.390213 304.913479 
L 89.634031 305.030011 
L 90.877849 304.705895 
L 93.365485 304.690946 
L 94.609303 304.596497 
L 95.85312 304.69876 
L 97.096938 304.92503 
L 98.340756 304.928088 
L 100.828392 305.249825 
L 103.316028 304.907703 
L 105.803664 305.120043 
L 107.047481 304.913818 
L 110.778935 305.047338 
L 113.266571 304.724241 
L 114.510389 305.088447 
L 118.241842 304.91144 
L 119.48566 305.104755 
L 120.729478 305.182896 
L 121.973296 305.066024 
L 123.217114 304.835338 
L 124.460932 304.84587 
L 125.70475 305.075537 
L 126.948568 304.883241 
L 128.192385 305.152659 
L 130.680021 305.03069 
L 136.899111 305.342915 
L 138.142929 305.078594 
L 139.386746 305.225024 
L 140.630564 305.130915 
L 143.1182 305.374511 
L 148.093472 305.236575 
L 149.33729 305.400332 
L 155.556379 305.35005 
L 156.800197 305.498178 
L 164.263104 305.437024 
L 165.506922 305.292633 
L 166.75074 305.476095 
L 167.994558 305.526037 
L 169.238376 305.448915 
L 171.726011 305.594666 
L 177.945101 305.584473 
L 196.602369 305.62898 
L 327.203247 305.635095 
L 327.203247 305.635095 
" clip-path="url(#pa7c3846a8d)" style="fill: none; stroke: #2d1e3e; stroke-width: 1.5; stroke-linecap: round"/>
   </g>
   <g id="line2d_17"/>
   <g id="line2d_18"/>
   <g id="line2d_19"/>
   <g id="line2d_20"/>
   <g id="line2d_21"/>
   <g id="patch_3">
    <path d="M 67.3075 319.138125 
L 67.3075 22.318125 
" style="fill: none; stroke: #ffffff; stroke-width: 1.25; stroke-linejoin: miter; stroke-linecap: square"/>
   </g>
   <g id="patch_4">
    <path d="M 67.3075 319.138125 
L 339.579235 319.138125 
" style="fill: none; stroke: #ffffff; stroke-width: 1.25; stroke-linejoin: miter; stroke-linecap: square"/>
   </g>
   <g id="text_14">
    <!-- Best Trials (No Vector x Global Only) -->
    <g style="fill: #262626" transform="translate(94.93618 16.318125)scale(0.12 -0.12)">
     <defs>
      <path id="DejaVuSans-42" d="M 1259 2228 
L 1259 519 
L 2272 519 
Q 2781 519 3026 730 
Q 3272 941 3272 1375 
Q 3272 1813 3026 2020 
Q 2781 2228 2272 2228 
L 1259 2228 
z
M 1259 4147 
L 1259 2741 
L 2194 2741 
Q 2656 2741 2882 2914 
Q 3109 3088 3109 3444 
Q 3109 3797 2882 3972 
Q 2656 4147 2194 4147 
L 1259 4147 
z
M 628 4666 
L 2241 4666 
Q 2963 4666 3353 4366 
Q 3744 4066 3744 3513 
Q 3744 3084 3544 2831 
Q 3344 2578 2956 2516 
Q 3422 2416 3680 2098 
Q 3938 1781 3938 1306 
Q 3938 681 3513 340 
Q 3088 0 2303 0 
L 628 0 
L 628 4666 
z
" transform="scale(0.015625)"/>
      <path id="DejaVuSans-20" transform="scale(0.015625)"/>
      <path id="DejaVuSans-54" d="M -19 4666 
L 3928 4666 
L 3928 4134 
L 2272 4134 
L 2272 0 
L 1638 0 
L 1638 4134 
L -19 4134 
L -19 4666 
z
" transform="scale(0.015625)"/>
      <path id="DejaVuSans-6c" d="M 603 4863 
L 1178 4863 
L 1178 0 
L 603 0 
L 603 4863 
z
" transform="scale(0.015625)"/>
      <path id="DejaVuSans-28" d="M 1984 4856 
Q 1566 4138 1362 3434 
Q 1159 2731 1159 2009 
Q 1159 1288 1364 580 
Q 1569 -128 1984 -844 
L 1484 -844 
Q 1016 -109 783 600 
Q 550 1309 550 2009 
Q 550 2706 781 3412 
Q 1013 4119 1484 4856 
L 1984 4856 
z
" transform="scale(0.015625)"/>
      <path id="DejaVuSans-4e" d="M 628 4666 
L 1478 4666 
L 3547 763 
L 3547 4666 
L 4159 4666 
L 4159 0 
L 3309 0 
L 1241 3903 
L 1241 0 
L 628 0 
L 628 4666 
z
" transform="scale(0.015625)"/>
      <path id="DejaVuSans-56" d="M 1831 0 
L 50 4666 
L 709 4666 
L 2188 738 
L 3669 4666 
L 4325 4666 
L 2547 0 
L 1831 0 
z
" transform="scale(0.015625)"/>
      <path id="DejaVuSans-63" d="M 3122 3366 
L 3122 2828 
Q 2878 2963 2633 3030 
Q 2388 3097 2138 3097 
Q 1578 3097 1268 2742 
Q 959 2388 959 1747 
Q 959 1106 1268 751 
Q 1578 397 2138 397 
Q 2388 397 2633 464 
Q 2878 531 3122 666 
L 3122 134 
Q 2881 22 2623 -34 
Q 2366 -91 2075 -91 
Q 1284 -91 818 406 
Q 353 903 353 1747 
Q 353 2603 823 3093 
Q 1294 3584 2113 3584 
Q 2378 3584 2631 3529 
Q 2884 3475 3122 3366 
z
" transform="scale(0.015625)"/>
      <path id="DejaVuSans-78" d="M 3513 3500 
L 2247 1797 
L 3578 0 
L 2900 0 
L 1881 1375 
L 863 0 
L 184 0 
L 1544 1831 
L 300 3500 
L 978 3500 
L 1906 2253 
L 2834 3500 
L 3513 3500 
z
" transform="scale(0.015625)"/>
      <path id="DejaVuSans-62" d="M 3116 1747 
Q 3116 2381 2855 2742 
Q 2594 3103 2138 3103 
Q 1681 3103 1420 2742 
Q 1159 2381 1159 1747 
Q 1159 1113 1420 752 
Q 1681 391 2138 391 
Q 2594 391 2855 752 
Q 3116 1113 3116 1747 
z
M 1159 2969 
Q 1341 3281 1617 3432 
Q 1894 3584 2278 3584 
Q 2916 3584 3314 3078 
Q 3713 2572 3713 1747 
Q 3713 922 3314 415 
Q 2916 -91 2278 -91 
Q 1894 -91 1617 61 
Q 1341 213 1159 525 
L 1159 0 
L 581 0 
L 581 4863 
L 1159 4863 
L 1159 2969 
z
" transform="scale(0.015625)"/>
      <path id="DejaVuSans-4f" d="M 2522 4238 
Q 1834 4238 1429 3725 
Q 1025 3213 1025 2328 
Q 1025 1447 1429 934 
Q 1834 422 2522 422 
Q 3209 422 3611 934 
Q 4013 1447 4013 2328 
Q 4013 3213 3611 3725 
Q 3209 4238 2522 4238 
z
M 2522 4750 
Q 3503 4750 4090 4092 
Q 4678 3434 4678 2328 
Q 4678 1225 4090 567 
Q 3503 -91 2522 -91 
Q 1538 -91 948 565 
Q 359 1222 359 2328 
Q 359 3434 948 4092 
Q 1538 4750 2522 4750 
z
" transform="scale(0.015625)"/>
      <path id="DejaVuSans-79" d="M 2059 -325 
Q 1816 -950 1584 -1140 
Q 1353 -1331 966 -1331 
L 506 -1331 
L 506 -850 
L 844 -850 
Q 1081 -850 1212 -737 
Q 1344 -625 1503 -206 
L 1606 56 
L 191 3500 
L 800 3500 
L 1894 763 
L 2988 3500 
L 3597 3500 
L 2059 -325 
z
" transform="scale(0.015625)"/>
      <path id="DejaVuSans-29" d="M 513 4856 
L 1013 4856 
Q 1481 4119 1714 3412 
Q 1947 2706 1947 2009 
Q 1947 1309 1714 600 
Q 1481 -109 1013 -844 
L 513 -844 
Q 928 -128 1133 580 
Q 1338 1288 1338 2009 
Q 1338 2731 1133 3434 
Q 928 4138 513 4856 
z
" transform="scale(0.015625)"/>
     </defs>
     <use xlink:href="#DejaVuSans-42"/>
     <use xlink:href="#DejaVuSans-65" x="68.603516"/>
     <use xlink:href="#DejaVuSans-73" x="130.126953"/>
     <use xlink:href="#DejaVuSans-74" x="182.226562"/>
     <use xlink:href="#DejaVuSans-20" x="221.435547"/>
     <use xlink:href="#DejaVuSans-54" x="253.222656"/>
     <use xlink:href="#DejaVuSans-72" x="299.556641"/>
     <use xlink:href="#DejaVuSans-69" x="340.669922"/>
     <use xlink:href="#DejaVuSans-61" x="368.453125"/>
     <use xlink:href="#DejaVuSans-6c" x="429.732422"/>
     <use xlink:href="#DejaVuSans-73" x="457.515625"/>
     <use xlink:href="#DejaVuSans-20" x="509.615234"/>
     <use xlink:href="#DejaVuSans-28" x="541.402344"/>
     <use xlink:href="#DejaVuSans-4e" x="580.416016"/>
     <use xlink:href="#DejaVuSans-6f" x="655.220703"/>
     <use xlink:href="#DejaVuSans-20" x="716.402344"/>
     <use xlink:href="#DejaVuSans-56" x="748.189453"/>
     <use xlink:href="#DejaVuSans-65" x="808.847656"/>
     <use xlink:href="#DejaVuSans-63" x="870.371094"/>
     <use xlink:href="#DejaVuSans-74" x="925.351562"/>
     <use xlink:href="#DejaVuSans-6f" x="964.560547"/>
     <use xlink:href="#DejaVuSans-72" x="1025.742188"/>
     <use xlink:href="#DejaVuSans-20" x="1066.855469"/>
     <use xlink:href="#DejaVuSans-78" x="1098.642578"/>
     <use xlink:href="#DejaVuSans-20" x="1157.822266"/>
     <use xlink:href="#DejaVuSans-47" x="1189.609375"/>
     <use xlink:href="#DejaVuSans-6c" x="1267.099609"/>
     <use xlink:href="#DejaVuSans-6f" x="1294.882812"/>
     <use xlink:href="#DejaVuSans-62" x="1356.064453"/>
     <use xlink:href="#DejaVuSans-61" x="1419.541016"/>
     <use xlink:href="#DejaVuSans-6c" x="1480.820312"/>
     <use xlink:href="#DejaVuSans-20" x="1508.603516"/>
     <use xlink:href="#DejaVuSans-4f" x="1540.390625"/>
     <use xlink:href="#DejaVuSans-6e" x="1619.101562"/>
     <use xlink:href="#DejaVuSans-6c" x="1682.480469"/>
     <use xlink:href="#DejaVuSans-79" x="1710.263672"/>
     <use xlink:href="#DejaVuSans-29" x="1769.443359"/>
    </g>
   </g>
  </g>
  <g id="legend_1">
   <g id="text_15">
    <!-- Trial -->
    <g style="fill: #262626" transform="translate(350.909185 143.995312)scale(0.12 -0.12)">
     <use xlink:href="#DejaVuSans-54"/>
     <use xlink:href="#DejaVuSans-72" x="46.333984"/>
     <use xlink:href="#DejaVuSans-69" x="87.447266"/>
     <use xlink:href="#DejaVuSans-61" x="115.230469"/>
     <use xlink:href="#DejaVuSans-6c" x="176.509766"/>
    </g>
   </g>
   <g id="line2d_22">
    <path d="M 344.266685 156.499219 
L 355.266685 156.499219 
L 366.266685 156.499219 
" style="fill: none; stroke: #edd1cb; stroke-width: 1.5; stroke-linecap: round"/>
   </g>
   <g id="text_16">
    <!-- 0 -->
    <g style="fill: #262626" transform="translate(375.066685 160.349219)scale(0.11 -0.11)">
     <use xlink:href="#DejaVuSans-30"/>
    </g>
   </g>
   <g id="line2d_23">
    <path d="M 344.266685 172.645156 
L 355.266685 172.645156 
L 366.266685 172.645156 
" style="fill: none; stroke: #d499a7; stroke-width: 1.5; stroke-linecap: round"/>
   </g>
   <g id="text_17">
    <!-- 1 -->
    <g style="fill: #262626" transform="translate(375.066685 176.495156)scale(0.11 -0.11)">
     <use xlink:href="#DejaVuSans-31"/>
    </g>
   </g>
   <g id="line2d_24">
    <path d="M 344.266685 188.791094 
L 355.266685 188.791094 
L 366.266685 188.791094 
" style="fill: none; stroke: #a9678f; stroke-width: 1.5; stroke-linecap: round"/>
   </g>
   <g id="text_18">
    <!-- 2 -->
    <g style="fill: #262626" transform="translate(375.066685 192.641094)scale(0.11 -0.11)">
     <use xlink:href="#DejaVuSans-32"/>
    </g>
   </g>
   <g id="line2d_25">
    <path d="M 344.266685 204.937031 
L 355.266685 204.937031 
L 366.266685 204.937031 
" style="fill: none; stroke: #6c3f70; stroke-width: 1.5; stroke-linecap: round"/>
   </g>
   <g id="text_19">
    <!-- 3 -->
    <g style="fill: #262626" transform="translate(375.066685 208.787031)scale(0.11 -0.11)">
     <defs>
      <path id="DejaVuSans-33" d="M 2597 2516 
Q 3050 2419 3304 2112 
Q 3559 1806 3559 1356 
Q 3559 666 3084 287 
Q 2609 -91 1734 -91 
Q 1441 -91 1130 -33 
Q 819 25 488 141 
L 488 750 
Q 750 597 1062 519 
Q 1375 441 1716 441 
Q 2309 441 2620 675 
Q 2931 909 2931 1356 
Q 2931 1769 2642 2001 
Q 2353 2234 1838 2234 
L 1294 2234 
L 1294 2753 
L 1863 2753 
Q 2328 2753 2575 2939 
Q 2822 3125 2822 3475 
Q 2822 3834 2567 4026 
Q 2313 4219 1838 4219 
Q 1578 4219 1281 4162 
Q 984 4106 628 3988 
L 628 4550 
Q 988 4650 1302 4700 
Q 1616 4750 1894 4750 
Q 2613 4750 3031 4423 
Q 3450 4097 3450 3541 
Q 3450 3153 3228 2886 
Q 3006 2619 2597 2516 
z
" transform="scale(0.015625)"/>
     </defs>
     <use xlink:href="#DejaVuSans-33"/>
    </g>
   </g>
   <g id="line2d_26">
    <path d="M 344.266685 221.082969 
L 355.266685 221.082969 
L 366.266685 221.082969 
" style="fill: none; stroke: #2d1e3e; stroke-width: 1.5; stroke-linecap: round"/>
   </g>
   <g id="text_20">
    <!-- 4 -->
    <g style="fill: #262626" transform="translate(375.066685 224.932969)scale(0.11 -0.11)">
     <defs>
      <path id="DejaVuSans-34" d="M 2419 4116 
L 825 1625 
L 2419 1625 
L 2419 4116 
z
M 2253 4666 
L 3047 4666 
L 3047 1625 
L 3713 1625 
L 3713 1100 
L 3047 1100 
L 3047 0 
L 2419 0 
L 2419 1100 
L 313 1100 
L 313 1709 
L 2253 4666 
z
" transform="scale(0.015625)"/>
     </defs>
     <use xlink:href="#DejaVuSans-34"/>
    </g>
   </g>
  </g>
 </g>
 <defs>
  <clipPath id="pa7c3846a8d">
   <rect x="67.3075" y="22.318125" width="272.271735" height="296.82"/>
  </clipPath>
 </defs>
</svg>
