<?xml version="1.0" encoding="utf-8" standalone="no"?>
<!DOCTYPE svg PUBLIC "-//W3C//DTD SVG 1.1//EN"
  "http://www.w3.org/Graphics/SVG/1.1/DTD/svg11.dtd">
<svg xmlns:xlink="http://www.w3.org/1999/xlink" width="393.52115pt" height="362.097812pt" viewBox="0 0 393.52115 362.097812" xmlns="http://www.w3.org/2000/svg" version="1.1">
 <metadata>
  <rdf:RDF xmlns:dc="http://purl.org/dc/elements/1.1/" xmlns:cc="http://creativecommons.org/ns#" xmlns:rdf="http://www.w3.org/1999/02/22-rdf-syntax-ns#">
   <cc:Work>
    <dc:type rdf:resource="http://purl.org/dc/dcmitype/StillImage"/>
    <dc:date>2022-11-20T08:11:34.398315</dc:date>
    <dc:format>image/svg+xml</dc:format>
    <dc:creator>
     <cc:Agent>
      <dc:title>Matplotlib v3.5.2, https://matplotlib.org/</dc:title>
     </cc:Agent>
    </dc:creator>
   </cc:Work>
  </rdf:RDF>
 </metadata>
 <defs>
  <style type="text/css">*{stroke-linejoin: round; stroke-linecap: butt}</style>
 </defs>
 <g id="figure_1">
  <g id="patch_1">
   <path d="M 0 362.097812 
L 393.52115 362.097812 
L 393.52115 0 
L 0 0 
z
" style="fill: #ffffff"/>
  </g>
  <g id="axes_1">
   <g id="patch_2">
    <path d="M 53.31 319.138125 
L 341.13495 319.138125 
L 341.13495 22.318125 
L 53.31 22.318125 
z
" style="fill: #eaeaf2"/>
   </g>
   <g id="matplotlib.axis_1">
    <g id="xtick_1">
     <g id="line2d_1">
      <path d="M 66.392952 319.138125 
L 66.392952 22.318125 
" clip-path="url(#pb8f6715985)" style="fill: none; stroke: #ffffff; stroke-linecap: round"/>
     </g>
     <g id="text_1">
      <!-- 0 -->
      <g style="fill: #262626" transform="translate(62.893577 336.996406)scale(0.11 -0.11)">
       <defs>
        <path id="DejaVuSans-30" d="M 2034 4250 
Q 1547 4250 1301 3770 
Q 1056 3291 1056 2328 
Q 1056 1369 1301 889 
Q 1547 409 2034 409 
Q 2525 409 2770 889 
Q 3016 1369 3016 2328 
Q 3016 3291 2770 3770 
Q 2525 4250 2034 4250 
z
M 2034 4750 
Q 2819 4750 3233 4129 
Q 3647 3509 3647 2328 
Q 3647 1150 3233 529 
Q 2819 -91 2034 -91 
Q 1250 -91 836 529 
Q 422 1150 422 2328 
Q 422 3509 836 4129 
Q 1250 4750 2034 4750 
z
" transform="scale(0.015625)"/>
       </defs>
       <use xlink:href="#DejaVuSans-30"/>
      </g>
     </g>
    </g>
    <g id="xtick_2">
     <g id="line2d_2">
      <path d="M 132.136431 319.138125 
L 132.136431 22.318125 
" clip-path="url(#pb8f6715985)" style="fill: none; stroke: #ffffff; stroke-linecap: round"/>
     </g>
     <g id="text_2">
      <!-- 50 -->
      <g style="fill: #262626" transform="translate(125.137681 336.996406)scale(0.11 -0.11)">
       <defs>
        <path id="DejaVuSans-35" d="M 691 4666 
L 3169 4666 
L 3169 4134 
L 1269 4134 
L 1269 2991 
Q 1406 3038 1543 3061 
Q 1681 3084 1819 3084 
Q 2600 3084 3056 2656 
Q 3513 2228 3513 1497 
Q 3513 744 3044 326 
Q 2575 -91 1722 -91 
Q 1428 -91 1123 -41 
Q 819 9 494 109 
L 494 744 
Q 775 591 1075 516 
Q 1375 441 1709 441 
Q 2250 441 2565 725 
Q 2881 1009 2881 1497 
Q 2881 1984 2565 2268 
Q 2250 2553 1709 2553 
Q 1456 2553 1204 2497 
Q 953 2441 691 2322 
L 691 4666 
z
" transform="scale(0.015625)"/>
       </defs>
       <use xlink:href="#DejaVuSans-35"/>
       <use xlink:href="#DejaVuSans-30" x="63.623047"/>
      </g>
     </g>
    </g>
    <g id="xtick_3">
     <g id="line2d_3">
      <path d="M 197.87991 319.138125 
L 197.87991 22.318125 
" clip-path="url(#pb8f6715985)" style="fill: none; stroke: #ffffff; stroke-linecap: round"/>
     </g>
     <g id="text_3">
      <!-- 100 -->
      <g style="fill: #262626" transform="translate(187.381785 336.996406)scale(0.11 -0.11)">
       <defs>
        <path id="DejaVuSans-31" d="M 794 531 
L 1825 531 
L 1825 4091 
L 703 3866 
L 703 4441 
L 1819 4666 
L 2450 4666 
L 2450 531 
L 3481 531 
L 3481 0 
L 794 0 
L 794 531 
z
" transform="scale(0.015625)"/>
       </defs>
       <use xlink:href="#DejaVuSans-31"/>
       <use xlink:href="#DejaVuSans-30" x="63.623047"/>
       <use xlink:href="#DejaVuSans-30" x="127.246094"/>
      </g>
     </g>
    </g>
    <g id="xtick_4">
     <g id="line2d_4">
      <path d="M 263.623389 319.138125 
L 263.623389 22.318125 
" clip-path="url(#pb8f6715985)" style="fill: none; stroke: #ffffff; stroke-linecap: round"/>
     </g>
     <g id="text_4">
      <!-- 150 -->
      <g style="fill: #262626" transform="translate(253.125264 336.996406)scale(0.11 -0.11)">
       <use xlink:href="#DejaVuSans-31"/>
       <use xlink:href="#DejaVuSans-35" x="63.623047"/>
       <use xlink:href="#DejaVuSans-30" x="127.246094"/>
      </g>
     </g>
    </g>
    <g id="xtick_5">
     <g id="line2d_5">
      <path d="M 329.366867 319.138125 
L 329.366867 22.318125 
" clip-path="url(#pb8f6715985)" style="fill: none; stroke: #ffffff; stroke-linecap: round"/>
     </g>
     <g id="text_5">
      <!-- 200 -->
      <g style="fill: #262626" transform="translate(318.868742 336.996406)scale(0.11 -0.11)">
       <defs>
        <path id="DejaVuSans-32" d="M 1228 531 
L 3431 531 
L 3431 0 
L 469 0 
L 469 531 
Q 828 903 1448 1529 
Q 2069 2156 2228 2338 
Q 2531 2678 2651 2914 
Q 2772 3150 2772 3378 
Q 2772 3750 2511 3984 
Q 2250 4219 1831 4219 
Q 1534 4219 1204 4116 
Q 875 4013 500 3803 
L 500 4441 
Q 881 4594 1212 4672 
Q 1544 4750 1819 4750 
Q 2544 4750 2975 4387 
Q 3406 4025 3406 3419 
Q 3406 3131 3298 2873 
Q 3191 2616 2906 2266 
Q 2828 2175 2409 1742 
Q 1991 1309 1228 531 
z
" transform="scale(0.015625)"/>
       </defs>
       <use xlink:href="#DejaVuSans-32"/>
       <use xlink:href="#DejaVuSans-30" x="63.623047"/>
       <use xlink:href="#DejaVuSans-30" x="127.246094"/>
      </g>
     </g>
    </g>
    <g id="text_6">
     <!-- Generation -->
     <g style="fill: #262626" transform="translate(163.750912 352.402187)scale(0.12 -0.12)">
      <defs>
       <path id="DejaVuSans-47" d="M 3809 666 
L 3809 1919 
L 2778 1919 
L 2778 2438 
L 4434 2438 
L 4434 434 
Q 4069 175 3628 42 
Q 3188 -91 2688 -91 
Q 1594 -91 976 548 
Q 359 1188 359 2328 
Q 359 3472 976 4111 
Q 1594 4750 2688 4750 
Q 3144 4750 3555 4637 
Q 3966 4525 4313 4306 
L 4313 3634 
Q 3963 3931 3569 4081 
Q 3175 4231 2741 4231 
Q 1884 4231 1454 3753 
Q 1025 3275 1025 2328 
Q 1025 1384 1454 906 
Q 1884 428 2741 428 
Q 3075 428 3337 486 
Q 3600 544 3809 666 
z
" transform="scale(0.015625)"/>
       <path id="DejaVuSans-65" d="M 3597 1894 
L 3597 1613 
L 953 1613 
Q 991 1019 1311 708 
Q 1631 397 2203 397 
Q 2534 397 2845 478 
Q 3156 559 3463 722 
L 3463 178 
Q 3153 47 2828 -22 
Q 2503 -91 2169 -91 
Q 1331 -91 842 396 
Q 353 884 353 1716 
Q 353 2575 817 3079 
Q 1281 3584 2069 3584 
Q 2775 3584 3186 3129 
Q 3597 2675 3597 1894 
z
M 3022 2063 
Q 3016 2534 2758 2815 
Q 2500 3097 2075 3097 
Q 1594 3097 1305 2825 
Q 1016 2553 972 2059 
L 3022 2063 
z
" transform="scale(0.015625)"/>
       <path id="DejaVuSans-6e" d="M 3513 2113 
L 3513 0 
L 2938 0 
L 2938 2094 
Q 2938 2591 2744 2837 
Q 2550 3084 2163 3084 
Q 1697 3084 1428 2787 
Q 1159 2491 1159 1978 
L 1159 0 
L 581 0 
L 581 3500 
L 1159 3500 
L 1159 2956 
Q 1366 3272 1645 3428 
Q 1925 3584 2291 3584 
Q 2894 3584 3203 3211 
Q 3513 2838 3513 2113 
z
" transform="scale(0.015625)"/>
       <path id="DejaVuSans-72" d="M 2631 2963 
Q 2534 3019 2420 3045 
Q 2306 3072 2169 3072 
Q 1681 3072 1420 2755 
Q 1159 2438 1159 1844 
L 1159 0 
L 581 0 
L 581 3500 
L 1159 3500 
L 1159 2956 
Q 1341 3275 1631 3429 
Q 1922 3584 2338 3584 
Q 2397 3584 2469 3576 
Q 2541 3569 2628 3553 
L 2631 2963 
z
" transform="scale(0.015625)"/>
       <path id="DejaVuSans-61" d="M 2194 1759 
Q 1497 1759 1228 1600 
Q 959 1441 959 1056 
Q 959 750 1161 570 
Q 1363 391 1709 391 
Q 2188 391 2477 730 
Q 2766 1069 2766 1631 
L 2766 1759 
L 2194 1759 
z
M 3341 1997 
L 3341 0 
L 2766 0 
L 2766 531 
Q 2569 213 2275 61 
Q 1981 -91 1556 -91 
Q 1019 -91 701 211 
Q 384 513 384 1019 
Q 384 1609 779 1909 
Q 1175 2209 1959 2209 
L 2766 2209 
L 2766 2266 
Q 2766 2663 2505 2880 
Q 2244 3097 1772 3097 
Q 1472 3097 1187 3025 
Q 903 2953 641 2809 
L 641 3341 
Q 956 3463 1253 3523 
Q 1550 3584 1831 3584 
Q 2591 3584 2966 3190 
Q 3341 2797 3341 1997 
z
" transform="scale(0.015625)"/>
       <path id="DejaVuSans-74" d="M 1172 4494 
L 1172 3500 
L 2356 3500 
L 2356 3053 
L 1172 3053 
L 1172 1153 
Q 1172 725 1289 603 
Q 1406 481 1766 481 
L 2356 481 
L 2356 0 
L 1766 0 
Q 1100 0 847 248 
Q 594 497 594 1153 
L 594 3053 
L 172 3053 
L 172 3500 
L 594 3500 
L 594 4494 
L 1172 4494 
z
" transform="scale(0.015625)"/>
       <path id="DejaVuSans-69" d="M 603 3500 
L 1178 3500 
L 1178 0 
L 603 0 
L 603 3500 
z
M 603 4863 
L 1178 4863 
L 1178 4134 
L 603 4134 
L 603 4863 
z
" transform="scale(0.015625)"/>
       <path id="DejaVuSans-6f" d="M 1959 3097 
Q 1497 3097 1228 2736 
Q 959 2375 959 1747 
Q 959 1119 1226 758 
Q 1494 397 1959 397 
Q 2419 397 2687 759 
Q 2956 1122 2956 1747 
Q 2956 2369 2687 2733 
Q 2419 3097 1959 3097 
z
M 1959 3584 
Q 2709 3584 3137 3096 
Q 3566 2609 3566 1747 
Q 3566 888 3137 398 
Q 2709 -91 1959 -91 
Q 1206 -91 779 398 
Q 353 888 353 1747 
Q 353 2609 779 3096 
Q 1206 3584 1959 3584 
z
" transform="scale(0.015625)"/>
      </defs>
      <use xlink:href="#DejaVuSans-47"/>
      <use xlink:href="#DejaVuSans-65" x="77.490234"/>
      <use xlink:href="#DejaVuSans-6e" x="139.013672"/>
      <use xlink:href="#DejaVuSans-65" x="202.392578"/>
      <use xlink:href="#DejaVuSans-72" x="263.916016"/>
      <use xlink:href="#DejaVuSans-61" x="305.029297"/>
      <use xlink:href="#DejaVuSans-74" x="366.308594"/>
      <use xlink:href="#DejaVuSans-69" x="405.517578"/>
      <use xlink:href="#DejaVuSans-6f" x="433.300781"/>
      <use xlink:href="#DejaVuSans-6e" x="494.482422"/>
     </g>
    </g>
   </g>
   <g id="matplotlib.axis_2">
    <g id="ytick_1">
     <g id="line2d_6">
      <path d="M 53.31 310.734892 
L 341.13495 310.734892 
" clip-path="url(#pb8f6715985)" style="fill: none; stroke: #ffffff; stroke-linecap: round"/>
     </g>
     <g id="text_7">
      <!-- 0 -->
      <g style="fill: #262626" transform="translate(36.81125 314.914033)scale(0.11 -0.11)">
       <use xlink:href="#DejaVuSans-30"/>
      </g>
     </g>
    </g>
    <g id="ytick_2">
     <g id="line2d_7">
      <path d="M 53.31 273.041669 
L 341.13495 273.041669 
" clip-path="url(#pb8f6715985)" style="fill: none; stroke: #ffffff; stroke-linecap: round"/>
     </g>
     <g id="text_8">
      <!-- 100 -->
      <g style="fill: #262626" transform="translate(22.81375 277.220809)scale(0.11 -0.11)">
       <use xlink:href="#DejaVuSans-31"/>
       <use xlink:href="#DejaVuSans-30" x="63.623047"/>
       <use xlink:href="#DejaVuSans-30" x="127.246094"/>
      </g>
     </g>
    </g>
    <g id="ytick_3">
     <g id="line2d_8">
      <path d="M 53.31 235.348445 
L 341.13495 235.348445 
" clip-path="url(#pb8f6715985)" style="fill: none; stroke: #ffffff; stroke-linecap: round"/>
     </g>
     <g id="text_9">
      <!-- 200 -->
      <g style="fill: #262626" transform="translate(22.81375 239.527586)scale(0.11 -0.11)">
       <use xlink:href="#DejaVuSans-32"/>
       <use xlink:href="#DejaVuSans-30" x="63.623047"/>
       <use xlink:href="#DejaVuSans-30" x="127.246094"/>
      </g>
     </g>
    </g>
    <g id="ytick_4">
     <g id="line2d_9">
      <path d="M 53.31 197.655222 
L 341.13495 197.655222 
" clip-path="url(#pb8f6715985)" style="fill: none; stroke: #ffffff; stroke-linecap: round"/>
     </g>
     <g id="text_10">
      <!-- 300 -->
      <g style="fill: #262626" transform="translate(22.81375 201.834362)scale(0.11 -0.11)">
       <defs>
        <path id="DejaVuSans-33" d="M 2597 2516 
Q 3050 2419 3304 2112 
Q 3559 1806 3559 1356 
Q 3559 666 3084 287 
Q 2609 -91 1734 -91 
Q 1441 -91 1130 -33 
Q 819 25 488 141 
L 488 750 
Q 750 597 1062 519 
Q 1375 441 1716 441 
Q 2309 441 2620 675 
Q 2931 909 2931 1356 
Q 2931 1769 2642 2001 
Q 2353 2234 1838 2234 
L 1294 2234 
L 1294 2753 
L 1863 2753 
Q 2328 2753 2575 2939 
Q 2822 3125 2822 3475 
Q 2822 3834 2567 4026 
Q 2313 4219 1838 4219 
Q 1578 4219 1281 4162 
Q 984 4106 628 3988 
L 628 4550 
Q 988 4650 1302 4700 
Q 1616 4750 1894 4750 
Q 2613 4750 3031 4423 
Q 3450 4097 3450 3541 
Q 3450 3153 3228 2886 
Q 3006 2619 2597 2516 
z
" transform="scale(0.015625)"/>
       </defs>
       <use xlink:href="#DejaVuSans-33"/>
       <use xlink:href="#DejaVuSans-30" x="63.623047"/>
       <use xlink:href="#DejaVuSans-30" x="127.246094"/>
      </g>
     </g>
    </g>
    <g id="ytick_5">
     <g id="line2d_10">
      <path d="M 53.31 159.961998 
L 341.13495 159.961998 
" clip-path="url(#pb8f6715985)" style="fill: none; stroke: #ffffff; stroke-linecap: round"/>
     </g>
     <g id="text_11">
      <!-- 400 -->
      <g style="fill: #262626" transform="translate(22.81375 164.141139)scale(0.11 -0.11)">
       <defs>
        <path id="DejaVuSans-34" d="M 2419 4116 
L 825 1625 
L 2419 1625 
L 2419 4116 
z
M 2253 4666 
L 3047 4666 
L 3047 1625 
L 3713 1625 
L 3713 1100 
L 3047 1100 
L 3047 0 
L 2419 0 
L 2419 1100 
L 313 1100 
L 313 1709 
L 2253 4666 
z
" transform="scale(0.015625)"/>
       </defs>
       <use xlink:href="#DejaVuSans-34"/>
       <use xlink:href="#DejaVuSans-30" x="63.623047"/>
       <use xlink:href="#DejaVuSans-30" x="127.246094"/>
      </g>
     </g>
    </g>
    <g id="ytick_6">
     <g id="line2d_11">
      <path d="M 53.31 122.268775 
L 341.13495 122.268775 
" clip-path="url(#pb8f6715985)" style="fill: none; stroke: #ffffff; stroke-linecap: round"/>
     </g>
     <g id="text_12">
      <!-- 500 -->
      <g style="fill: #262626" transform="translate(22.81375 126.447915)scale(0.11 -0.11)">
       <use xlink:href="#DejaVuSans-35"/>
       <use xlink:href="#DejaVuSans-30" x="63.623047"/>
       <use xlink:href="#DejaVuSans-30" x="127.246094"/>
      </g>
     </g>
    </g>
    <g id="ytick_7">
     <g id="line2d_12">
      <path d="M 53.31 84.575551 
L 341.13495 84.575551 
" clip-path="url(#pb8f6715985)" style="fill: none; stroke: #ffffff; stroke-linecap: round"/>
     </g>
     <g id="text_13">
      <!-- 600 -->
      <g style="fill: #262626" transform="translate(22.81375 88.754692)scale(0.11 -0.11)">
       <defs>
        <path id="DejaVuSans-36" d="M 2113 2584 
Q 1688 2584 1439 2293 
Q 1191 2003 1191 1497 
Q 1191 994 1439 701 
Q 1688 409 2113 409 
Q 2538 409 2786 701 
Q 3034 994 3034 1497 
Q 3034 2003 2786 2293 
Q 2538 2584 2113 2584 
z
M 3366 4563 
L 3366 3988 
Q 3128 4100 2886 4159 
Q 2644 4219 2406 4219 
Q 1781 4219 1451 3797 
Q 1122 3375 1075 2522 
Q 1259 2794 1537 2939 
Q 1816 3084 2150 3084 
Q 2853 3084 3261 2657 
Q 3669 2231 3669 1497 
Q 3669 778 3244 343 
Q 2819 -91 2113 -91 
Q 1303 -91 875 529 
Q 447 1150 447 2328 
Q 447 3434 972 4092 
Q 1497 4750 2381 4750 
Q 2619 4750 2861 4703 
Q 3103 4656 3366 4563 
z
" transform="scale(0.015625)"/>
       </defs>
       <use xlink:href="#DejaVuSans-36"/>
       <use xlink:href="#DejaVuSans-30" x="63.623047"/>
       <use xlink:href="#DejaVuSans-30" x="127.246094"/>
      </g>
     </g>
    </g>
    <g id="ytick_8">
     <g id="line2d_13">
      <path d="M 53.31 46.882328 
L 341.13495 46.882328 
" clip-path="url(#pb8f6715985)" style="fill: none; stroke: #ffffff; stroke-linecap: round"/>
     </g>
     <g id="text_14">
      <!-- 700 -->
      <g style="fill: #262626" transform="translate(22.81375 51.061468)scale(0.11 -0.11)">
       <defs>
        <path id="DejaVuSans-37" d="M 525 4666 
L 3525 4666 
L 3525 4397 
L 1831 0 
L 1172 0 
L 2766 4134 
L 525 4134 
L 525 4666 
z
" transform="scale(0.015625)"/>
       </defs>
       <use xlink:href="#DejaVuSans-37"/>
       <use xlink:href="#DejaVuSans-30" x="63.623047"/>
       <use xlink:href="#DejaVuSans-30" x="127.246094"/>
      </g>
     </g>
    </g>
    <g id="text_15">
     <!-- Fitness -->
     <g style="fill: #262626" transform="translate(16.318125 191.50875)rotate(-90)scale(0.12 -0.12)">
      <defs>
       <path id="DejaVuSans-46" d="M 628 4666 
L 3309 4666 
L 3309 4134 
L 1259 4134 
L 1259 2759 
L 3109 2759 
L 3109 2228 
L 1259 2228 
L 1259 0 
L 628 0 
L 628 4666 
z
" transform="scale(0.015625)"/>
       <path id="DejaVuSans-73" d="M 2834 3397 
L 2834 2853 
Q 2591 2978 2328 3040 
Q 2066 3103 1784 3103 
Q 1356 3103 1142 2972 
Q 928 2841 928 2578 
Q 928 2378 1081 2264 
Q 1234 2150 1697 2047 
L 1894 2003 
Q 2506 1872 2764 1633 
Q 3022 1394 3022 966 
Q 3022 478 2636 193 
Q 2250 -91 1575 -91 
Q 1294 -91 989 -36 
Q 684 19 347 128 
L 347 722 
Q 666 556 975 473 
Q 1284 391 1588 391 
Q 1994 391 2212 530 
Q 2431 669 2431 922 
Q 2431 1156 2273 1281 
Q 2116 1406 1581 1522 
L 1381 1569 
Q 847 1681 609 1914 
Q 372 2147 372 2553 
Q 372 3047 722 3315 
Q 1072 3584 1716 3584 
Q 2034 3584 2315 3537 
Q 2597 3491 2834 3397 
z
" transform="scale(0.015625)"/>
      </defs>
      <use xlink:href="#DejaVuSans-46"/>
      <use xlink:href="#DejaVuSans-69" x="50.269531"/>
      <use xlink:href="#DejaVuSans-74" x="78.052734"/>
      <use xlink:href="#DejaVuSans-6e" x="117.261719"/>
      <use xlink:href="#DejaVuSans-65" x="180.640625"/>
      <use xlink:href="#DejaVuSans-73" x="242.164062"/>
      <use xlink:href="#DejaVuSans-73" x="294.263672"/>
     </g>
    </g>
   </g>
   <g id="PolyCollection_1">
    <defs>
     <path id="m2abda92699" d="M 66.392952 -69.734244 
L 66.392952 -56.451506 
L 67.707822 -78.756176 
L 69.022691 -97.194052 
L 70.337561 -108.779712 
L 71.652431 -105.200034 
L 72.9673 -111.164986 
L 74.28217 -116.087191 
L 75.597039 -109.7403 
L 76.911909 -117.948294 
L 78.226778 -115.381327 
L 79.541648 -112.27782 
L 80.856518 -118.665643 
L 82.171387 -116.912614 
L 83.486257 -123.508634 
L 84.801126 -124.333467 
L 86.115996 -118.184466 
L 87.430865 -119.456318 
L 88.745735 -124.793148 
L 90.060605 -120.86893 
L 91.375474 -120.621863 
L 92.690344 -123.95683 
L 94.005213 -124.814939 
L 95.320083 -119.655091 
L 96.634953 -118.17357 
L 97.949822 -120.798844 
L 99.264692 -121.872512 
L 100.579561 -121.353936 
L 101.894431 -126.98495 
L 103.2093 -121.083016 
L 104.52417 -129.351083 
L 105.83904 -123.18029 
L 107.153909 -120.62363 
L 108.468779 -125.017541 
L 109.783648 -123.285714 
L 111.098518 -123.062499 
L 112.413387 -128.06333 
L 113.728257 -126.709024 
L 115.043127 -123.329591 
L 116.357996 -125.08586 
L 117.672866 -124.825246 
L 118.987735 -118.550208 
L 120.302605 -125.547013 
L 121.617474 -125.251651 
L 122.932344 -119.477815 
L 124.247214 -125.17862 
L 125.562083 -109.795957 
L 126.876953 -119.314968 
L 128.191822 -124.298425 
L 129.506692 -110.693527 
L 130.821561 -133.110099 
L 132.136431 -121.636046 
L 133.451301 -125.076436 
L 134.76617 -118.420932 
L 136.08104 -121.282672 
L 137.395909 -124.405026 
L 138.710779 -124.817295 
L 140.025648 -119.492244 
L 141.340518 -119.043459 
L 142.655388 -115.240861 
L 143.970257 -101.995226 
L 145.285127 -114.710505 
L 146.599996 -117.767779 
L 147.914866 -112.67301 
L 149.229736 -111.679146 
L 150.544605 -120.83536 
L 151.859475 -123.851112 
L 153.174344 -114.21372 
L 154.489214 -121.153396 
L 155.804083 -130.117905 
L 157.118953 -123.274229 
L 158.433823 -117.241841 
L 159.748692 -129.197071 
L 161.063562 -123.929738 
L 162.378431 -128.833979 
L 163.693301 -138.125359 
L 165.00817 -130.989561 
L 166.32304 -137.796427 
L 167.63791 -147.172027 
L 168.952779 -140.914952 
L 170.267649 -147.981548 
L 171.582518 -156.07234 
L 172.897388 -177.492692 
L 174.212257 -188.560364 
L 175.527127 -198.383866 
L 176.841997 -198.140627 
L 178.156866 -224.191945 
L 179.471736 -250.87757 
L 180.786605 -249.636344 
L 182.101475 -265.984307 
L 183.416344 -288.425321 
L 184.731214 -301.045189 
L 186.046084 -299.714147 
L 187.360953 -309.71463 
L 188.675823 -301.056968 
L 189.990692 -304.131321 
L 191.305562 -310.78182 
L 192.620431 -322.75413 
L 193.935301 -322.75413 
L 195.250171 -322.75413 
L 196.56504 -322.75413 
L 197.87991 -322.75413 
L 199.194779 -319.36174 
L 200.509649 -319.36174 
L 201.824519 -319.36174 
L 203.139388 -310.880764 
L 204.454258 -309.184569 
L 205.769127 -309.184569 
L 207.083997 -322.75413 
L 208.398866 -322.75413 
L 209.713736 -322.75413 
L 211.028606 -322.75413 
L 212.343475 -322.75413 
L 213.658345 -322.75413 
L 214.973214 -322.75413 
L 216.288084 -322.75413 
L 217.602953 -322.75413 
L 218.917823 -322.75413 
L 220.232693 -322.75413 
L 221.547562 -322.75413 
L 222.862432 -322.75413 
L 224.177301 -322.75413 
L 225.492171 -322.75413 
L 226.80704 -322.75413 
L 228.12191 -322.75413 
L 229.43678 -322.75413 
L 230.751649 -322.75413 
L 232.066519 -322.75413 
L 233.381388 -309.184569 
L 234.696258 -299.518024 
L 236.011127 -308.265797 
L 237.325997 -322.75413 
L 238.640867 -322.75413 
L 239.955736 -322.75413 
L 241.270606 -322.75413 
L 242.585475 -322.75413 
L 243.900345 -322.75413 
L 245.215214 -322.75413 
L 246.530084 -322.75413 
L 247.844954 -309.184569 
L 249.159823 -322.75413 
L 250.474693 -322.75413 
L 251.789562 -322.75413 
L 253.104432 -322.75413 
L 254.419302 -322.75413 
L 255.734171 -322.75413 
L 257.049041 -322.75413 
L 258.36391 -322.75413 
L 259.67878 -322.75413 
L 260.993649 -309.184569 
L 262.308519 -307.382362 
L 263.623389 -322.75413 
L 264.938258 -322.75413 
L 266.253128 -322.75413 
L 267.567997 -322.75413 
L 268.882867 -322.75413 
L 270.197736 -322.75413 
L 271.512606 -322.75413 
L 272.827476 -322.75413 
L 274.142345 -307.94776 
L 275.457215 -322.75413 
L 276.772084 -322.75413 
L 278.086954 -322.75413 
L 279.401823 -307.382362 
L 280.716693 -322.75413 
L 282.031563 -309.184569 
L 283.346432 -304.661382 
L 284.661302 -322.75413 
L 285.976171 -322.75413 
L 287.291041 -322.75413 
L 288.60591 -322.75413 
L 289.92078 -310.880764 
L 291.23565 -310.78182 
L 292.550519 -309.290581 
L 293.865389 -322.75413 
L 295.180258 -322.75413 
L 296.495128 -308.265797 
L 297.809997 -297.923719 
L 299.124867 -322.75413 
L 300.439737 -304.732057 
L 301.754606 -322.75413 
L 303.069476 -322.75413 
L 304.384345 -322.75413 
L 305.699215 -322.75413 
L 307.014085 -322.75413 
L 308.328954 -322.75413 
L 309.643824 -322.75413 
L 310.958693 -301.233655 
L 312.273563 -309.290581 
L 313.588432 -309.290581 
L 314.903302 -309.290581 
L 316.218172 -309.290581 
L 317.533041 -322.75413 
L 318.847911 -308.265797 
L 320.16278 -308.795858 
L 321.47765 -299.490343 
L 322.792519 -322.75413 
L 324.107389 -322.75413 
L 325.422259 -322.75413 
L 326.737128 -322.75413 
L 328.051998 -322.75413 
L 328.051998 -322.75413 
L 328.051998 -322.75413 
L 326.737128 -322.75413 
L 325.422259 -322.75413 
L 324.107389 -322.75413 
L 322.792519 -322.75413 
L 321.47765 -322.75413 
L 320.16278 -322.75413 
L 318.847911 -322.75413 
L 317.533041 -322.75413 
L 316.218172 -322.75413 
L 314.903302 -322.75413 
L 313.588432 -322.75413 
L 312.273563 -322.75413 
L 310.958693 -322.75413 
L 309.643824 -322.75413 
L 308.328954 -322.75413 
L 307.014085 -322.75413 
L 305.699215 -322.75413 
L 304.384345 -322.75413 
L 303.069476 -322.75413 
L 301.754606 -322.75413 
L 300.439737 -322.75413 
L 299.124867 -322.75413 
L 297.809997 -322.75413 
L 296.495128 -322.75413 
L 295.180258 -322.75413 
L 293.865389 -322.75413 
L 292.550519 -322.75413 
L 291.23565 -322.75413 
L 289.92078 -322.75413 
L 288.60591 -322.75413 
L 287.291041 -322.75413 
L 285.976171 -322.75413 
L 284.661302 -322.75413 
L 283.346432 -322.75413 
L 282.031563 -322.75413 
L 280.716693 -322.75413 
L 279.401823 -322.75413 
L 278.086954 -322.75413 
L 276.772084 -322.75413 
L 275.457215 -322.75413 
L 274.142345 -322.75413 
L 272.827476 -322.75413 
L 271.512606 -322.75413 
L 270.197736 -322.75413 
L 268.882867 -322.75413 
L 267.567997 -322.75413 
L 266.253128 -322.75413 
L 264.938258 -322.75413 
L 263.623389 -322.75413 
L 262.308519 -322.75413 
L 260.993649 -322.75413 
L 259.67878 -322.75413 
L 258.36391 -322.75413 
L 257.049041 -322.75413 
L 255.734171 -322.75413 
L 254.419302 -322.75413 
L 253.104432 -322.75413 
L 251.789562 -322.75413 
L 250.474693 -322.75413 
L 249.159823 -322.75413 
L 247.844954 -322.75413 
L 246.530084 -322.75413 
L 245.215214 -322.75413 
L 243.900345 -322.75413 
L 242.585475 -322.75413 
L 241.270606 -322.75413 
L 239.955736 -322.75413 
L 238.640867 -322.75413 
L 237.325997 -322.75413 
L 236.011127 -322.75413 
L 234.696258 -322.75413 
L 233.381388 -322.75413 
L 232.066519 -322.75413 
L 230.751649 -322.75413 
L 229.43678 -322.75413 
L 228.12191 -322.75413 
L 226.80704 -322.75413 
L 225.492171 -322.75413 
L 224.177301 -322.75413 
L 222.862432 -322.75413 
L 221.547562 -322.75413 
L 220.232693 -322.75413 
L 218.917823 -322.75413 
L 217.602953 -322.75413 
L 216.288084 -322.75413 
L 214.973214 -322.75413 
L 213.658345 -322.75413 
L 212.343475 -322.75413 
L 211.028606 -322.75413 
L 209.713736 -322.75413 
L 208.398866 -322.75413 
L 207.083997 -322.75413 
L 205.769127 -322.75413 
L 204.454258 -322.75413 
L 203.139388 -322.75413 
L 201.824519 -322.75413 
L 200.509649 -322.75413 
L 199.194779 -322.75413 
L 197.87991 -322.75413 
L 196.56504 -322.75413 
L 195.250171 -322.75413 
L 193.935301 -322.75413 
L 192.620431 -322.75413 
L 191.305562 -322.75413 
L 189.990692 -322.75413 
L 188.675823 -322.75413 
L 187.360953 -322.75413 
L 186.046084 -322.75413 
L 184.731214 -322.75413 
L 183.416344 -318.796341 
L 182.101475 -309.610974 
L 180.786605 -299.525681 
L 179.471736 -300.070466 
L 178.156866 -274.035638 
L 176.841997 -244.243562 
L 175.527127 -246.284002 
L 174.212257 -230.306198 
L 172.897388 -211.100029 
L 171.582518 -191.113786 
L 170.267649 -186.133863 
L 168.952779 -161.596458 
L 167.63791 -168.165386 
L 166.32304 -158.708509 
L 165.00817 -153.784243 
L 163.693301 -155.904487 
L 162.378431 -150.544687 
L 161.063562 -144.581501 
L 159.748692 -142.912987 
L 158.433823 -134.583079 
L 157.118953 -139.204622 
L 155.804083 -142.733945 
L 154.489214 -139.106266 
L 153.174344 -136.613507 
L 151.859475 -140.59456 
L 150.544605 -140.884326 
L 149.229736 -132.52232 
L 147.914866 -132.627155 
L 146.599996 -134.936159 
L 145.285127 -131.355892 
L 143.970257 -122.685567 
L 142.655388 -132.431326 
L 141.340518 -138.859493 
L 140.025648 -139.262634 
L 138.710779 -139.825088 
L 137.395909 -142.46273 
L 136.08104 -136.106416 
L 134.76617 -133.559767 
L 133.451301 -137.76639 
L 132.136431 -134.619595 
L 130.821561 -145.397501 
L 129.506692 -129.729782 
L 128.191822 -139.494389 
L 126.876953 -133.877804 
L 125.562083 -128.517121 
L 124.247214 -138.033776 
L 122.932344 -133.913436 
L 121.617474 -136.679176 
L 120.302605 -136.857041 
L 118.987735 -133.793583 
L 117.672866 -137.375028 
L 116.357996 -135.078392 
L 115.043127 -135.51422 
L 113.728257 -138.010512 
L 112.413387 -138.84742 
L 111.098518 -136.961875 
L 109.783648 -138.198684 
L 108.468779 -141.40732 
L 107.153909 -135.246245 
L 105.83904 -137.503715 
L 104.52417 -143.852962 
L 103.2093 -135.151717 
L 101.894431 -139.743517 
L 100.579561 -134.606343 
L 99.264692 -132.13302 
L 97.949822 -132.357118 
L 96.634953 -129.670887 
L 95.320083 -132.015229 
L 94.005213 -136.267201 
L 92.690344 -135.878784 
L 91.375474 -133.901068 
L 90.060605 -140.3151 
L 88.745735 -137.351176 
L 87.430865 -139.189898 
L 86.115996 -132.334149 
L 84.801126 -135.04276 
L 83.486257 -137.50401 
L 82.171387 -136.928894 
L 80.856518 -133.734687 
L 79.541648 -125.818816 
L 78.226778 -130.461856 
L 76.911909 -130.001586 
L 75.597039 -124.559332 
L 74.28217 -129.399967 
L 72.9673 -125.996681 
L 71.652431 -120.696366 
L 70.337561 -126.949907 
L 69.022691 -117.162037 
L 67.707822 -99.374664 
L 66.392952 -69.734244 
z
" style="stroke: #edd1cb; stroke-opacity: 0.2"/>
    </defs>
    <g clip-path="url(#pb8f6715985)">
     <use xlink:href="#m2abda92699" x="0" y="362.097812" style="fill: #edd1cb; fill-opacity: 0.2; stroke: #edd1cb; stroke-opacity: 0.2"/>
    </g>
   </g>
   <g id="PolyCollection_2">
    <defs>
     <path id="md3d555002f" d="M 66.392952 -69.519275 
L 66.392952 -59.407773 
L 67.707822 -70.833532 
L 69.022691 -90.111554 
L 70.337561 -107.416867 
L 71.652431 -103.897262 
L 72.9673 -101.904822 
L 74.28217 -95.521415 
L 75.597039 -109.738828 
L 76.911909 -107.855639 
L 78.226778 -110.433208 
L 79.541648 -104.058341 
L 80.856518 -111.636152 
L 82.171387 -108.443418 
L 83.486257 -118.714821 
L 84.801126 -122.070696 
L 86.115996 -119.528465 
L 87.430865 -120.938133 
L 88.745735 -120.05882 
L 90.060605 -126.653073 
L 91.375474 -125.825589 
L 92.690344 -129.446494 
L 94.005213 -135.866416 
L 95.320083 -125.809393 
L 96.634953 -136.324035 
L 97.949822 -118.585251 
L 99.264692 -123.32164 
L 100.579561 -133.780037 
L 101.894431 -145.263219 
L 103.2093 -155.675677 
L 104.52417 -156.559407 
L 105.83904 -158.754742 
L 107.153909 -159.844018 
L 108.468779 -159.588116 
L 109.783648 -162.067918 
L 111.098518 -170.436991 
L 112.413387 -170.19817 
L 113.728257 -173.74575 
L 115.043127 -164.616333 
L 116.357996 -177.551293 
L 117.672866 -170.903151 
L 118.987735 -174.937503 
L 120.302605 -172.018929 
L 121.617474 -170.292108 
L 122.932344 -185.086698 
L 124.247214 -184.688564 
L 125.562083 -199.744651 
L 126.876953 -213.206726 
L 128.191822 -202.887912 
L 129.506692 -203.335225 
L 130.821561 -196.974788 
L 132.136431 -206.02175 
L 133.451301 -205.571787 
L 134.76617 -205.350634 
L 136.08104 -220.102231 
L 137.395909 -218.143655 
L 138.710779 -219.694378 
L 140.025648 -219.755335 
L 141.340518 -206.823615 
L 142.655388 -220.052169 
L 143.970257 -213.097769 
L 145.285127 -211.859194 
L 146.599996 -242.936668 
L 147.914866 -252.064906 
L 149.229736 -260.959623 
L 150.544605 -236.855985 
L 151.859475 -246.755462 
L 153.174344 -236.420452 
L 154.489214 -228.923623 
L 155.804083 -238.402879 
L 157.118953 -254.272021 
L 158.433823 -264.150001 
L 159.748692 -277.833231 
L 161.063562 -258.475404 
L 162.378431 -259.168312 
L 163.693301 -266.223129 
L 165.00817 -275.331343 
L 166.32304 -286.391948 
L 167.63791 -301.268992 
L 168.952779 -301.268992 
L 170.267649 -301.268992 
L 171.582518 -301.268992 
L 172.897388 -301.268992 
L 174.212257 -272.38656 
L 175.527127 -285.484955 
L 176.841997 -277.781402 
L 178.156866 -283.670969 
L 179.471736 -282.728638 
L 180.786605 -299.855496 
L 182.101475 -301.268992 
L 183.416344 -299.855496 
L 184.731214 -299.855496 
L 186.046084 -270.817285 
L 187.360953 -281.845203 
L 188.675823 -279.889867 
L 189.990692 -281.06778 
L 191.305562 -283.352932 
L 192.620431 -301.268992 
L 193.935301 -277.840298 
L 195.250171 -301.268992 
L 196.56504 -301.268992 
L 197.87991 -286.462623 
L 199.194779 -301.268992 
L 200.509649 -301.268992 
L 201.824519 -301.268992 
L 203.139388 -301.268992 
L 204.454258 -283.070233 
L 205.769127 -301.268992 
L 207.083997 -301.268992 
L 208.398866 -301.268992 
L 209.713736 -301.268992 
L 211.028606 -301.268992 
L 212.343475 -301.268992 
L 213.658345 -301.268992 
L 214.973214 -291.939919 
L 216.288084 -301.268992 
L 217.602953 -301.268992 
L 218.917823 -301.268992 
L 220.232693 -301.268992 
L 221.547562 -301.268992 
L 222.862432 -280.997105 
L 224.177301 -292.434643 
L 225.492171 -301.268992 
L 226.80704 -299.024184 
L 228.12191 -297.62924 
L 229.43678 -297.62924 
L 230.751649 -289.006915 
L 232.066519 -275.460913 
L 233.381388 -283.635631 
L 234.696258 -280.608394 
L 236.011127 -273.152203 
L 237.325997 -273.140424 
L 238.640867 -282.516614 
L 239.955736 -297.028505 
L 241.270606 -297.028505 
L 242.585475 -297.028505 
L 243.900345 -280.490603 
L 245.215214 -301.268992 
L 246.530084 -301.268992 
L 247.844954 -291.374521 
L 249.159823 -283.294036 
L 250.474693 -291.374521 
L 251.789562 -301.268992 
L 253.104432 -277.204225 
L 254.419302 -277.852077 
L 255.734171 -291.021147 
L 257.049041 -301.268992 
L 258.36391 -292.434643 
L 259.67878 -285.484955 
L 260.993649 -276.17944 
L 262.308519 -292.434643 
L 263.623389 -292.434643 
L 264.938258 -301.268992 
L 266.253128 -284.589741 
L 267.567997 -301.268992 
L 268.882867 -301.268992 
L 270.197736 -301.268992 
L 271.512606 -301.268992 
L 272.827476 -301.268992 
L 274.142345 -301.268992 
L 275.457215 -301.268992 
L 276.772084 -301.268992 
L 278.086954 -291.374521 
L 279.401823 -289.006915 
L 280.716693 -289.006915 
L 282.031563 -301.268992 
L 283.346432 -301.268992 
L 284.661302 -301.268992 
L 285.976171 -301.268992 
L 287.291041 -301.268992 
L 288.60591 -301.268992 
L 289.92078 -286.886672 
L 291.23565 -301.268992 
L 292.550519 -301.268992 
L 293.865389 -301.268992 
L 295.180258 -288.26483 
L 296.495128 -301.268992 
L 297.809997 -291.374521 
L 299.124867 -291.374521 
L 300.439737 -291.374521 
L 301.754606 -301.268992 
L 303.069476 -301.268992 
L 304.384345 -291.374521 
L 305.699215 -290.832681 
L 307.014085 -290.832681 
L 308.328954 -299.914392 
L 309.643824 -299.914392 
L 310.958693 -300.456232 
L 312.273563 -279.250555 
L 313.588432 -286.073912 
L 314.903302 -287.86434 
L 316.218172 -273.657234 
L 317.533041 -278.134776 
L 318.847911 -284.766428 
L 320.16278 -281.409375 
L 321.47765 -274.235884 
L 322.792519 -284.893937 
L 324.107389 -279.489377 
L 325.422259 -276.144103 
L 326.737128 -270.888254 
L 328.051998 -287.391407 
L 328.051998 -304.896965 
L 328.051998 -304.896965 
L 326.737128 -301.646513 
L 325.422259 -303.212549 
L 324.107389 -305.839296 
L 322.792519 -306.981871 
L 321.47765 -301.398563 
L 320.16278 -304.69672 
L 318.847911 -304.69672 
L 317.533041 -303.554144 
L 316.218172 -299.384331 
L 314.903302 -301.268992 
L 313.588432 -301.268992 
L 312.273563 -300.998072 
L 310.958693 -301.268992 
L 309.643824 -301.268992 
L 308.328954 -301.268992 
L 307.014085 -301.268992 
L 305.699215 -301.268992 
L 304.384345 -301.268992 
L 303.069476 -301.268992 
L 301.754606 -301.268992 
L 300.439737 -301.268992 
L 299.124867 -301.268992 
L 297.809997 -301.268992 
L 296.495128 -301.268992 
L 295.180258 -301.268992 
L 293.865389 -301.268992 
L 292.550519 -301.268992 
L 291.23565 -301.268992 
L 289.92078 -301.268992 
L 288.60591 -301.268992 
L 287.291041 -301.268992 
L 285.976171 -301.268992 
L 284.661302 -301.268992 
L 283.346432 -301.268992 
L 282.031563 -301.268992 
L 280.716693 -301.268992 
L 279.401823 -301.268992 
L 278.086954 -301.268992 
L 276.772084 -301.268992 
L 275.457215 -301.268992 
L 274.142345 -301.268992 
L 272.827476 -301.268992 
L 271.512606 -301.268992 
L 270.197736 -301.268992 
L 268.882867 -301.268992 
L 267.567997 -301.268992 
L 266.253128 -301.268992 
L 264.938258 -301.268992 
L 263.623389 -301.268992 
L 262.308519 -301.268992 
L 260.993649 -301.268992 
L 259.67878 -301.268992 
L 258.36391 -301.268992 
L 257.049041 -301.268992 
L 255.734171 -301.268992 
L 254.419302 -301.268992 
L 253.104432 -301.268992 
L 251.789562 -301.268992 
L 250.474693 -301.268992 
L 249.159823 -301.268992 
L 247.844954 -301.268992 
L 246.530084 -301.268992 
L 245.215214 -301.268992 
L 243.900345 -301.268992 
L 242.585475 -301.268992 
L 241.270606 -301.268992 
L 239.955736 -301.268992 
L 238.640867 -301.268992 
L 237.325997 -301.268992 
L 236.011127 -301.268992 
L 234.696258 -301.268992 
L 233.381388 -301.268992 
L 232.066519 -301.268992 
L 230.751649 -301.268992 
L 229.43678 -301.268992 
L 228.12191 -301.268992 
L 226.80704 -301.268992 
L 225.492171 -301.268992 
L 224.177301 -301.268992 
L 222.862432 -301.268992 
L 221.547562 -301.268992 
L 220.232693 -301.268992 
L 218.917823 -301.268992 
L 217.602953 -301.268992 
L 216.288084 -301.268992 
L 214.973214 -301.268992 
L 213.658345 -301.268992 
L 212.343475 -301.268992 
L 211.028606 -301.268992 
L 209.713736 -301.268992 
L 208.398866 -301.268992 
L 207.083997 -301.268992 
L 205.769127 -301.268992 
L 204.454258 -301.268992 
L 203.139388 -301.268992 
L 201.824519 -301.268992 
L 200.509649 -301.268992 
L 199.194779 -301.268992 
L 197.87991 -301.268992 
L 196.56504 -301.268992 
L 195.250171 -301.268992 
L 193.935301 -301.268992 
L 192.620431 -301.268992 
L 191.305562 -301.268992 
L 189.990692 -301.268992 
L 188.675823 -301.268992 
L 187.360953 -301.268992 
L 186.046084 -301.268992 
L 184.731214 -301.268992 
L 183.416344 -301.268992 
L 182.101475 -301.268992 
L 180.786605 -301.268992 
L 179.471736 -301.268992 
L 178.156866 -301.268992 
L 176.841997 -301.268992 
L 175.527127 -301.268992 
L 174.212257 -301.268992 
L 172.897388 -301.268992 
L 171.582518 -301.268992 
L 170.267649 -301.268992 
L 168.952779 -301.268992 
L 167.63791 -301.268992 
L 166.32304 -301.268992 
L 165.00817 -301.268992 
L 163.693301 -300.644698 
L 162.378431 -297.699915 
L 161.063562 -296.00372 
L 159.748692 -297.821535 
L 158.433823 -294.672678 
L 157.118953 -293.930593 
L 155.804083 -283.430085 
L 154.489214 -280.103953 
L 153.174344 -279.655757 
L 151.859475 -279.189892 
L 150.544605 -279.173696 
L 149.229736 -286.688782 
L 147.914866 -284.348858 
L 146.599996 -274.909355 
L 145.285127 -254.709321 
L 143.970257 -253.8465 
L 142.655388 -261.561537 
L 141.340518 -257.179405 
L 140.025648 -261.691402 
L 138.710779 -260.445464 
L 137.395909 -256.823676 
L 136.08104 -256.968853 
L 134.76617 -241.645086 
L 133.451301 -244.265354 
L 132.136431 -241.560865 
L 130.821561 -229.793512 
L 129.506692 -240.741626 
L 128.191822 -237.93672 
L 126.876953 -242.710508 
L 125.562083 -235.686023 
L 124.247214 -226.596066 
L 122.932344 -226.92117 
L 121.617474 -212.221991 
L 120.302605 -209.358778 
L 118.987735 -209.784594 
L 117.672866 -201.713238 
L 116.357996 -209.055171 
L 115.043127 -203.928893 
L 113.728257 -206.989406 
L 112.413387 -204.103813 
L 111.098518 -193.840066 
L 109.783648 -187.932242 
L 108.468779 -190.92208 
L 107.153909 -192.465147 
L 105.83904 -190.887038 
L 104.52417 -183.972392 
L 103.2093 -182.914626 
L 101.894431 -173.501333 
L 100.579561 -158.884607 
L 99.264692 -146.364568 
L 97.949822 -145.303562 
L 96.634953 -154.561666 
L 95.320083 -142.949503 
L 94.005213 -155.220414 
L 92.690344 -146.351905 
L 91.375474 -144.330311 
L 90.060605 -148.439462 
L 88.745735 -141.604031 
L 87.430865 -135.915299 
L 86.115996 -138.187494 
L 84.801126 -138.506414 
L 83.486257 -133.510884 
L 82.171387 -126.422791 
L 80.856518 -131.369143 
L 79.541648 -123.512756 
L 78.226778 -127.52679 
L 76.911909 -127.810078 
L 75.597039 -126.655723 
L 74.28217 -116.703534 
L 72.9673 -117.232712 
L 71.652431 -117.833448 
L 70.337561 -122.79364 
L 69.022691 -109.365135 
L 67.707822 -88.094672 
L 66.392952 -69.519275 
z
" style="stroke: #d499a7; stroke-opacity: 0.2"/>
    </defs>
    <g clip-path="url(#pb8f6715985)">
     <use xlink:href="#md3d555002f" x="0" y="362.097812" style="fill: #d499a7; fill-opacity: 0.2; stroke: #d499a7; stroke-opacity: 0.2"/>
    </g>
   </g>
   <g id="PolyCollection_3">
    <defs>
     <path id="m97f5446227" d="M 66.392952 -75.405013 
L 66.392952 -59.287037 
L 67.707822 -75.662093 
L 69.022691 -95.450446 
L 70.337561 -99.020701 
L 71.652431 -102.354784 
L 72.9673 -113.929549 
L 74.28217 -116.167878 
L 75.597039 -124.440069 
L 76.911909 -117.666479 
L 78.226778 -114.153352 
L 79.541648 -116.654357 
L 80.856518 -111.706532 
L 82.171387 -113.66923 
L 83.486257 -117.606699 
L 84.801126 -118.915361 
L 86.115996 -111.551636 
L 87.430865 -117.195902 
L 88.745735 -121.376905 
L 90.060605 -126.169834 
L 91.375474 -124.387651 
L 92.690344 -125.241344 
L 94.005213 -119.607091 
L 95.320083 -124.204191 
L 96.634953 -125.900975 
L 97.949822 -122.447628 
L 99.264692 -118.232466 
L 100.579561 -127.619256 
L 101.894431 -129.716236 
L 103.2093 -122.587211 
L 104.52417 -122.566892 
L 105.83904 -129.894396 
L 107.153909 -128.374004 
L 108.468779 -127.938176 
L 109.783648 -121.540635 
L 111.098518 -125.558497 
L 112.413387 -126.418963 
L 113.728257 -123.97921 
L 115.043127 -129.080752 
L 116.357996 -123.684732 
L 117.672866 -125.416264 
L 118.987735 -122.353101 
L 120.302605 -122.426131 
L 121.617474 -126.79619 
L 122.932344 -128.728262 
L 124.247214 -127.184312 
L 125.562083 -126.113 
L 126.876953 -123.284536 
L 128.191822 -124.051946 
L 129.506692 -123.922376 
L 130.821561 -128.279477 
L 132.136431 -129.17528 
L 133.451301 -132.1981 
L 134.76617 -122.472365 
L 136.08104 -126.017 
L 137.395909 -122.75418 
L 138.710779 -129.540727 
L 140.025648 -130.12939 
L 141.340518 -130.584653 
L 142.655388 -128.62225 
L 143.970257 -128.101317 
L 145.285127 -119.716637 
L 146.599996 -123.203849 
L 147.914866 -122.996536 
L 149.229736 -118.617938 
L 150.544605 -124.496903 
L 151.859475 -127.748827 
L 153.174344 -122.519481 
L 154.489214 -121.682279 
L 155.804083 -130.364678 
L 157.118953 -125.536117 
L 158.433823 -120.244636 
L 159.748692 -122.779211 
L 161.063562 -126.051159 
L 162.378431 -125.688951 
L 163.693301 -126.04262 
L 165.00817 -129.399378 
L 166.32304 -129.750101 
L 167.63791 -129.20355 
L 168.952779 -125.79408 
L 170.267649 -125.93484 
L 171.582518 -126.28792 
L 172.897388 -128.021514 
L 174.212257 -124.334056 
L 175.527127 -130.023377 
L 176.841997 -124.121738 
L 178.156866 -130.729536 
L 179.471736 -122.732094 
L 180.786605 -120.376857 
L 182.101475 -123.355799 
L 183.416344 -125.970178 
L 184.731214 -120.211655 
L 186.046084 -127.805956 
L 187.360953 -120.287924 
L 188.675823 -128.433489 
L 189.990692 -130.082567 
L 191.305562 -123.367579 
L 192.620431 -126.771453 
L 193.935301 -128.457047 
L 195.250171 -126.148337 
L 196.56504 -129.057783 
L 197.87991 -126.734055 
L 199.194779 -130.930959 
L 200.509649 -128.691452 
L 201.824519 -119.633299 
L 203.139388 -123.189714 
L 204.454258 -129.952997 
L 205.769127 -129.740384 
L 207.083997 -130.094347 
L 208.398866 -129.269218 
L 209.713736 -127.101858 
L 211.028606 -125.464264 
L 212.343475 -116.936172 
L 213.658345 -127.514422 
L 214.973214 -124.888265 
L 216.288084 -130.023377 
L 217.602953 -128.797759 
L 218.917823 -130.318445 
L 220.232693 -127.97263 
L 221.547562 -121.727334 
L 222.862432 -125.464559 
L 224.177301 -120.387458 
L 225.492171 -121.493519 
L 226.80704 -126.901613 
L 228.12191 -126.100926 
L 229.43678 -122.343089 
L 230.751649 -126.371552 
L 232.066519 -128.550691 
L 233.381388 -120.647188 
L 234.696258 -121.977346 
L 236.011127 -121.412832 
L 237.325997 -126.571503 
L 238.640867 -126.405711 
L 239.955736 -121.942009 
L 241.270606 -119.728416 
L 242.585475 -122.176414 
L 243.900345 -124.626768 
L 245.215214 -121.893715 
L 246.530084 -129.081341 
L 247.844954 -125.983135 
L 249.159823 -129.63496 
L 250.474693 -126.690177 
L 251.789562 -132.30794 
L 253.104432 -128.914961 
L 254.419302 -125.155945 
L 255.734171 -125.087921 
L 257.049041 -120.388342 
L 258.36391 -118.878846 
L 259.67878 -119.385348 
L 260.993649 -128.704703 
L 262.308519 -128.76301 
L 263.623389 -122.73445 
L 264.938258 -118.689791 
L 266.253128 -123.309566 
L 267.567997 -127.277956 
L 268.882867 -119.208661 
L 270.197736 -125.204829 
L 271.512606 -122.614598 
L 272.827476 -124.028093 
L 274.142345 -125.948386 
L 275.457215 -134.284478 
L 276.772084 -129.575181 
L 278.086954 -121.989126 
L 279.401823 -123.934155 
L 280.716693 -123.109321 
L 282.031563 -126.466374 
L 283.346432 -123.543677 
L 284.661302 -122.942941 
L 285.976171 -127.266471 
L 287.291041 -127.054447 
L 288.60591 -130.989561 
L 289.92078 -123.226818 
L 291.23565 -124.050768 
L 292.550519 -124.108192 
L 293.865389 -124.97543 
L 295.180258 -128.810127 
L 296.495128 -123.144364 
L 297.809997 -124.248952 
L 299.124867 -122.496806 
L 300.439737 -127.4676 
L 301.754606 -119.669226 
L 303.069476 -128.668188 
L 304.384345 -129.821365 
L 305.699215 -125.217786 
L 307.014085 -126.19457 
L 308.328954 -130.035156 
L 309.643824 -128.232066 
L 310.958693 -130.457733 
L 312.273563 -122.602229 
L 313.588432 -135.795741 
L 314.903302 -127.686692 
L 316.218172 -121.169887 
L 317.533041 -123.356388 
L 318.847911 -122.259751 
L 320.16278 -132.461069 
L 321.47765 -122.636389 
L 322.792519 -123.862008 
L 324.107389 -132.589756 
L 325.422259 -122.614892 
L 326.737128 -131.470444 
L 328.051998 -124.977492 
L 328.051998 -139.907247 
L 328.051998 -139.907247 
L 326.737128 -143.771097 
L 325.422259 -136.492182 
L 324.107389 -143.923637 
L 322.792519 -137.563494 
L 321.47765 -136.929483 
L 320.16278 -142.322558 
L 318.847911 -138.281138 
L 317.533041 -137.587053 
L 316.218172 -139.085064 
L 314.903302 -139.530904 
L 313.588432 -145.772961 
L 312.273563 -136.161483 
L 310.958693 -143.216594 
L 309.643824 -139.447272 
L 308.328954 -142.016006 
L 307.014085 -139.223763 
L 305.699215 -140.048008 
L 304.384345 -140.01267 
L 303.069476 -137.256354 
L 301.754606 -136.597017 
L 300.439737 -140.629308 
L 299.124867 -134.936453 
L 297.809997 -138.976696 
L 296.495128 -137.080256 
L 295.180258 -140.307443 
L 293.865389 -139.059739 
L 292.550519 -139.814781 
L 291.23565 -141.309847 
L 289.92078 -138.011396 
L 288.60591 -142.535172 
L 287.291041 -137.951911 
L 285.976171 -137.339102 
L 284.661302 -136.694489 
L 283.346432 -135.138466 
L 282.031563 -136.467741 
L 280.716693 -134.535668 
L 279.401823 -132.969338 
L 278.086954 -134.735914 
L 276.772084 -144.430434 
L 275.457215 -144.877452 
L 274.142345 -138.42396 
L 272.827476 -134.92438 
L 271.512606 -136.126146 
L 270.197736 -136.196821 
L 268.882867 -132.950786 
L 267.567997 -138.37596 
L 266.253128 -137.915985 
L 264.938258 -133.712013 
L 263.623389 -136.764575 
L 262.308519 -142.077258 
L 260.993649 -137.791715 
L 259.67878 -134.630196 
L 258.36391 -133.016749 
L 257.049041 -137.020771 
L 255.734171 -137.576157 
L 254.419302 -137.942194 
L 253.104432 -135.619349 
L 251.789562 -142.274853 
L 250.474693 -139.390438 
L 249.159823 -142.39235 
L 247.844954 -138.307641 
L 246.530084 -141.710632 
L 245.215214 -136.718047 
L 243.900345 -138.459003 
L 242.585475 -135.736845 
L 241.270606 -133.737043 
L 239.955736 -136.18563 
L 238.640867 -137.601188 
L 237.325997 -138.400991 
L 236.011127 -134.547448 
L 234.696258 -133.393093 
L 233.381388 -134.539202 
L 232.066519 -141.355492 
L 230.751649 -140.366339 
L 229.43678 -134.300086 
L 228.12191 -136.385581 
L 226.80704 -139.200794 
L 225.492171 -136.079913 
L 224.177301 -136.903274 
L 222.862432 -139.082708 
L 221.547562 -136.597606 
L 220.232693 -138.611248 
L 218.917823 -143.018705 
L 217.602953 -141.206191 
L 216.288084 -143.14592 
L 214.973214 -139.616008 
L 213.658345 -140.250314 
L 212.343475 -132.228725 
L 211.028606 -138.505236 
L 209.713736 -137.610316 
L 208.398866 -139.319469 
L 207.083997 -139.046782 
L 205.769127 -140.155492 
L 204.454258 -141.982436 
L 203.139388 -135.183521 
L 201.824519 -134.712061 
L 200.509649 -140.262094 
L 199.194779 -140.81424 
L 197.87991 -138.352107 
L 196.56504 -141.084866 
L 195.250171 -138.075592 
L 193.935301 -140.636965 
L 192.620431 -138.187788 
L 191.305562 -137.952795 
L 189.990692 -140.684376 
L 188.675823 -141.794559 
L 187.360953 -135.454735 
L 186.046084 -140.2724 
L 184.731214 -136.938611 
L 183.416344 -137.197752 
L 182.101475 -136.491299 
L 180.786605 -132.950786 
L 179.471736 -135.408208 
L 178.156866 -142.251884 
L 176.841997 -137.316133 
L 175.527127 -139.894879 
L 174.212257 -137.092035 
L 172.897388 -139.954069 
L 171.582518 -137.185973 
L 170.267649 -137.245163 
L 168.952779 -138.116525 
L 167.63791 -142.58111 
L 166.32304 -141.143762 
L 165.00817 -137.232795 
L 163.693301 -137.291985 
L 162.378431 -137.696599 
L 161.063562 -136.562857 
L 159.748692 -137.610611 
L 158.433823 -134.511816 
L 157.118953 -138.223126 
L 155.804083 -144.100029 
L 154.489214 -137.562905 
L 153.174344 -135.280404 
L 151.859475 -137.575274 
L 150.544605 -136.644428 
L 149.229736 -135.961238 
L 147.914866 -136.349655 
L 146.599996 -134.194074 
L 145.285127 -132.251106 
L 143.970257 -137.199519 
L 142.655388 -139.685211 
L 141.340518 -141.143467 
L 140.025648 -140.568646 
L 138.710779 -141.889086 
L 137.395909 -136.903274 
L 136.08104 -140.250609 
L 134.76617 -136.396477 
L 133.451301 -143.524324 
L 132.136431 -145.620421 
L 130.821561 -140.684376 
L 129.506692 -134.595153 
L 128.191822 -136.376747 
L 126.876953 -136.656207 
L 125.562083 -139.011739 
L 124.247214 -137.928353 
L 122.932344 -141.944448 
L 121.617474 -140.072155 
L 120.302605 -137.409777 
L 118.987735 -138.446929 
L 117.672866 -140.638437 
L 116.357996 -135.278048 
L 115.043127 -139.070929 
L 113.728257 -134.346908 
L 112.413387 -138.364475 
L 111.098518 -137.280206 
L 109.783648 -136.904452 
L 108.468779 -141.05159 
L 107.153909 -140.979148 
L 105.83904 -140.048302 
L 104.52417 -135.325459 
L 103.2093 -133.428136 
L 101.894431 -140.448793 
L 100.579561 -140.567762 
L 99.264692 -135.407619 
L 97.949822 -138.389506 
L 96.634953 -142.274264 
L 95.320083 -137.939543 
L 94.005213 -135.619349 
L 92.690344 -136.423569 
L 91.375474 -138.306169 
L 90.060605 -138.906315 
L 88.745735 -136.341409 
L 87.430865 -130.813168 
L 86.115996 -127.008803 
L 84.801126 -134.429951 
L 83.486257 -135.349018 
L 82.171387 -129.860531 
L 80.856518 -131.001929 
L 79.541648 -134.502981 
L 78.226778 -131.933069 
L 76.911909 -135.79633 
L 75.597039 -139.791517 
L 74.28217 -136.963053 
L 72.9673 -130.085512 
L 71.652431 -120.627163 
L 70.337561 -119.442477 
L 69.022691 -114.618334 
L 67.707822 -95.26463 
L 66.392952 -75.405013 
z
" style="stroke: #a9678f; stroke-opacity: 0.2"/>
    </defs>
    <g clip-path="url(#pb8f6715985)">
     <use xlink:href="#m97f5446227" x="0" y="362.097812" style="fill: #a9678f; fill-opacity: 0.2; stroke: #a9678f; stroke-opacity: 0.2"/>
    </g>
   </g>
   <g id="PolyCollection_4">
    <defs>
     <path id="m723bb1fcbf" d="M 66.392952 -73.132524 
L 66.392952 -56.933567 
L 67.707822 -76.946607 
L 69.022691 -98.688235 
L 70.337561 -100.150614 
L 71.652431 -114.086506 
L 72.9673 -107.006953 
L 74.28217 -119.25725 
L 75.597039 -114.291168 
L 76.911909 -105.629089 
L 78.226778 -114.486996 
L 79.541648 -106.296671 
L 80.856518 -111.550753 
L 82.171387 -117.712712 
L 83.486257 -114.839781 
L 84.801126 -117.50216 
L 86.115996 -122.566892 
L 87.430865 -120.74201 
L 88.745735 -118.71541 
L 90.060605 -113.504028 
L 91.375474 -116.607535 
L 92.690344 -115.261474 
L 94.005213 -120.647188 
L 95.320083 -122.366058 
L 96.634953 -126.372141 
L 97.949822 -126.254644 
L 99.264692 -123.616118 
L 100.579561 -118.514282 
L 101.894431 -118.809349 
L 103.2093 -123.389076 
L 104.52417 -120.952268 
L 105.83904 -125.970472 
L 107.153909 -127.903133 
L 108.468779 -123.957124 
L 109.783648 -116.735927 
L 111.098518 -127.113048 
L 112.413387 -129.538372 
L 113.728257 -129.269513 
L 115.043127 -121.565371 
L 116.357996 -120.962869 
L 117.672866 -120.057348 
L 118.987735 -121.459654 
L 120.302605 -122.507407 
L 121.617474 -127.181367 
L 122.932344 -133.32978 
L 124.247214 -126.876288 
L 125.562083 -136.05341 
L 126.876953 -123.788388 
L 128.191822 -125.829417 
L 129.506692 -129.210323 
L 130.821561 -130.200359 
L 132.136431 -128.615771 
L 133.451301 -126.442816 
L 134.76617 -131.74372 
L 136.08104 -133.157215 
L 137.395909 -128.479722 
L 138.710779 -131.095573 
L 140.025648 -124.7104 
L 141.340518 -126.100632 
L 142.655388 -130.58907 
L 143.970257 -134.570417 
L 145.285127 -123.401149 
L 146.599996 -118.277227 
L 147.914866 -116.381964 
L 149.229736 -123.539554 
L 150.544605 -125.688068 
L 151.859475 -123.023628 
L 153.174344 -124.993099 
L 154.489214 -113.178924 
L 155.804083 -121.200807 
L 157.118953 -126.407773 
L 158.433823 -125.816755 
L 159.748692 -124.381467 
L 161.063562 -124.356437 
L 162.378431 -123.380241 
L 163.693301 -124.626473 
L 165.00817 -125.464853 
L 166.32304 -123.604045 
L 167.63791 -122.709125 
L 168.952779 -125.571454 
L 170.267649 -124.098768 
L 171.582518 -126.018767 
L 172.897388 -121.632512 
L 174.212257 -125.181565 
L 175.527127 -128.278888 
L 176.841997 -126.406006 
L 178.156866 -134.487963 
L 179.471736 -133.944945 
L 180.786605 -128.395796 
L 182.101475 -119.128269 
L 183.416344 -122.526843 
L 184.731214 -122.307751 
L 186.046084 -115.699658 
L 187.360953 -123.533664 
L 188.675823 -124.733663 
L 189.990692 -123.473885 
L 191.305562 -127.090373 
L 192.620431 -125.995209 
L 193.935301 -126.70019 
L 195.250171 -131.755204 
L 196.56504 -132.790296 
L 197.87991 -129.280998 
L 199.194779 -129.092826 
L 200.509649 -129.916187 
L 201.824519 -126.254644 
L 203.139388 -130.506322 
L 204.454258 -135.123153 
L 205.769127 -130.985143 
L 207.083997 -129.622592 
L 208.398866 -126.454595 
L 209.713736 -122.224414 
L 211.028606 -125.382105 
L 212.343475 -126.960803 
L 213.658345 -122.154917 
L 214.973214 -128.987403 
L 216.288084 -127.467306 
L 217.602953 -133.934049 
L 218.917823 -131.236922 
L 220.232693 -124.450375 
L 221.547562 -125.758742 
L 222.862432 -133.424602 
L 224.177301 -131.260481 
L 225.492171 -129.70593 
L 226.80704 -126.653073 
L 228.12191 -131.425094 
L 229.43678 -129.245366 
L 230.751649 -126.393638 
L 232.066519 -121.435212 
L 233.381388 -130.364678 
L 234.696258 -129.328997 
L 236.011127 -132.720799 
L 237.325997 -128.668483 
L 238.640867 -123.88586 
L 239.955736 -130.269856 
L 241.270606 -132.756725 
L 242.585475 -135.513042 
L 243.900345 -133.568602 
L 245.215214 -133.933755 
L 246.530084 -125.792607 
L 247.844954 -127.983526 
L 249.159823 -132.61302 
L 250.474693 -132.08502 
L 251.789562 -135.195005 
L 253.104432 -129.432948 
L 254.419302 -129.361979 
L 255.734171 -125.040804 
L 257.049041 -131.964873 
L 258.36391 -127.536802 
L 259.67878 -125.453663 
L 260.993649 -133.428136 
L 262.308519 -132.390394 
L 263.623389 -130.63177 
L 264.938258 -131.295818 
L 266.253128 -127.627502 
L 267.567997 -124.905933 
L 268.882867 -135.842269 
L 270.197736 -125.921883 
L 271.512606 -132.389511 
L 272.827476 -128.96355 
L 274.142345 -123.015383 
L 275.457215 -127.983526 
L 276.772084 -130.667401 
L 278.086954 -128.279477 
L 279.401823 -130.410322 
L 280.716693 -132.967571 
L 282.031563 -129.800163 
L 283.346432 -137.880648 
L 284.661302 -127.643698 
L 285.976171 -128.26328 
L 287.291041 -128.289784 
L 288.60591 -124.389713 
L 289.92078 -131.531695 
L 291.23565 -126.925171 
L 292.550519 -133.168995 
L 293.865389 -127.748827 
L 295.180258 -128.560998 
L 296.495128 -126.089442 
L 297.809997 -126.782938 
L 299.124867 -123.680315 
L 300.439737 -131.741364 
L 301.754606 -131.3768 
L 303.069476 -130.396776 
L 304.384345 -134.853411 
L 305.699215 -131.268726 
L 307.014085 -136.711863 
L 308.328954 -135.29984 
L 309.643824 -133.852184 
L 310.958693 -129.691795 
L 312.273563 -129.752163 
L 313.588432 -133.392504 
L 314.903302 -133.932577 
L 316.218172 -130.530469 
L 317.533041 -128.032704 
L 318.847911 -123.03629 
L 320.16278 -127.550054 
L 321.47765 -133.875154 
L 322.792519 -131.21307 
L 324.107389 -135.194711 
L 325.422259 -132.002566 
L 326.737128 -128.669072 
L 328.051998 -129.387304 
L 328.051998 -136.904452 
L 328.051998 -136.904452 
L 326.737128 -137.46985 
L 325.422259 -141.673528 
L 324.107389 -145.715537 
L 322.792519 -140.285063 
L 321.47765 -140.967958 
L 320.16278 -137.928353 
L 318.847911 -137.385924 
L 317.533041 -139.18872 
L 316.218172 -141.547197 
L 314.903302 -143.570852 
L 313.588432 -143.959563 
L 312.273563 -141.744497 
L 310.958693 -139.164867 
L 309.643824 -144.939293 
L 308.328954 -146.150482 
L 307.014085 -145.348912 
L 305.699215 -144.300275 
L 304.384345 -144.277011 
L 303.069476 -142.215368 
L 301.754606 -143.217183 
L 300.439737 -142.111712 
L 299.124867 -135.325165 
L 297.809997 -139.67137 
L 296.495128 -137.422145 
L 295.180258 -137.680991 
L 293.865389 -136.715986 
L 292.550519 -141.70916 
L 291.23565 -138.65807 
L 289.92078 -140.732375 
L 288.60591 -138.848598 
L 287.291041 -140.484719 
L 285.976171 -140.919958 
L 284.661302 -137.9045 
L 283.346432 -148.483928 
L 282.031563 -140.131051 
L 280.716693 -141.43824 
L 279.401823 -142.240104 
L 278.086954 -135.608158 
L 276.772084 -139.614241 
L 275.457215 -137.612378 
L 274.142345 -134.08865 
L 272.827476 -138.399224 
L 271.512606 -142.639711 
L 270.197736 -138.139788 
L 268.882867 -145.77355 
L 267.567997 -139.153088 
L 266.253128 -139.624843 
L 264.938258 -143.005159 
L 263.623389 -141.43824 
L 262.308519 -141.169381 
L 260.993649 -143.06376 
L 259.67878 -137.693948 
L 258.36391 -137.822046 
L 257.049041 -141.097234 
L 255.734171 -135.432355 
L 254.419302 -138.305874 
L 253.104432 -139.977628 
L 251.789562 -144.502287 
L 250.474693 -141.510976 
L 249.159823 -142.359074 
L 247.844954 -138.482561 
L 246.530084 -137.539053 
L 245.215214 -142.889724 
L 243.900345 -141.897332 
L 242.585475 -145.396323 
L 241.270606 -141.297479 
L 239.955736 -139.344499 
L 238.640867 -136.998391 
L 237.325997 -139.320058 
L 236.011127 -140.944105 
L 234.696258 -137.292574 
L 233.381388 -139.815076 
L 232.066519 -132.662786 
L 230.751649 -139.400156 
L 229.43678 -139.494389 
L 228.12191 -142.498656 
L 226.80704 -137.93012 
L 225.492171 -137.16212 
L 224.177301 -138.894242 
L 222.862432 -143.110877 
L 221.547562 -136.667397 
L 220.232693 -136.103176 
L 218.917823 -141.897626 
L 217.602953 -142.121135 
L 216.288084 -139.389554 
L 214.973214 -139.460229 
L 213.658345 -136.585237 
L 212.343475 -135.986269 
L 211.028606 -137.103519 
L 209.713736 -137.057875 
L 208.398866 -139.201972 
L 207.083997 -138.17542 
L 205.769127 -143.607073 
L 204.454258 -144.501109 
L 203.139388 -140.224989 
L 201.824519 -139.254389 
L 200.509649 -140.154315 
L 199.194779 -139.544156 
L 197.87991 -140.708523 
L 196.56504 -144.866262 
L 195.250171 -141.520988 
L 193.935301 -139.355395 
L 192.620431 -136.384992 
L 191.305562 -139.378953 
L 189.990692 -137.163887 
L 188.675823 -138.059396 
L 187.360953 -134.842515 
L 186.046084 -130.370273 
L 184.731214 -136.798145 
L 183.416344 -136.396477 
L 182.101475 -136.21979 
L 180.786605 -138.717555 
L 179.471736 -145.542679 
L 178.156866 -142.345528 
L 176.841997 -140.189652 
L 175.527127 -137.304059 
L 174.212257 -135.960943 
L 172.897388 -137.598537 
L 171.582518 -136.656501 
L 170.267649 -135.37287 
L 168.952779 -133.818319 
L 167.63791 -135.607275 
L 166.32304 -135.87849 
L 165.00817 -133.805951 
L 163.693301 -137.209531 
L 162.378431 -134.478245 
L 161.063562 -137.506071 
L 159.748692 -135.902048 
L 158.433823 -138.882463 
L 157.118953 -138.521432 
L 155.804083 -136.842317 
L 154.489214 -128.89317 
L 153.174344 -135.94887 
L 151.859475 -137.175372 
L 150.544605 -139.227002 
L 149.229736 -135.737729 
L 147.914866 -133.888111 
L 146.599996 -133.404872 
L 145.285127 -137.059053 
L 143.970257 -143.443048 
L 142.655388 -141.745381 
L 141.340518 -136.643839 
L 140.025648 -136.397066 
L 138.710779 -144.484324 
L 137.395909 -140.908768 
L 136.08104 -143.193625 
L 134.76617 -144.114164 
L 133.451301 -136.280158 
L 132.136431 -139.860425 
L 130.821561 -139.953775 
L 129.506692 -139.494683 
L 128.191822 -136.562857 
L 126.876953 -138.033776 
L 125.562083 -148.341989 
L 124.247214 -138.247862 
L 122.932344 -143.959563 
L 121.617474 -139.543567 
L 120.302605 -136.786366 
L 118.987735 -134.217632 
L 117.672866 -131.107941 
L 116.357996 -133.181068 
L 115.043127 -136.43417 
L 113.728257 -141.792792 
L 112.413387 -142.486877 
L 111.098518 -136.891495 
L 109.783648 -128.1876 
L 108.468779 -136.032502 
L 107.153909 -139.639566 
L 105.83904 -138.273187 
L 104.52417 -135.008012 
L 103.2093 -136.255716 
L 101.894431 -131.520211 
L 100.579561 -133.842467 
L 99.264692 -134.868429 
L 97.949822 -136.973654 
L 96.634953 -139.471419 
L 95.320083 -136.609385 
L 94.005213 -130.744555 
L 92.690344 -133.063277 
L 91.375474 -129.234764 
L 90.060605 -129.023329 
L 88.745735 -131.885069 
L 87.430865 -134.959717 
L 86.115996 -130.059598 
L 84.801126 -129.648801 
L 83.486257 -129.400556 
L 82.171387 -133.923154 
L 80.856518 -128.353685 
L 79.541648 -121.886058 
L 78.226778 -127.009097 
L 76.911909 -121.085372 
L 75.597039 -128.372826 
L 74.28217 -132.181314 
L 72.9673 -126.737588 
L 71.652431 -128.752409 
L 70.337561 -119.839434 
L 69.022691 -119.246944 
L 67.707822 -96.535893 
L 66.392952 -73.132524 
z
" style="stroke: #6c3f70; stroke-opacity: 0.2"/>
    </defs>
    <g clip-path="url(#pb8f6715985)">
     <use xlink:href="#m723bb1fcbf" x="0" y="362.097812" style="fill: #6c3f70; fill-opacity: 0.2; stroke: #6c3f70; stroke-opacity: 0.2"/>
    </g>
   </g>
   <g id="PolyCollection_5">
    <defs>
     <path id="maf3d0ded70" d="M 66.392952 -72.934635 
L 66.392952 -60.313883 
L 67.707822 -76.176841 
L 69.022691 -96.014372 
L 70.337561 -96.204899 
L 71.652431 -100.228062 
L 72.9673 -109.703785 
L 74.28217 -114.451953 
L 75.597039 -114.825941 
L 76.911909 -114.049401 
L 78.226778 -113.367095 
L 79.541648 -116.631093 
L 80.856518 -120.070305 
L 82.171387 -123.391726 
L 83.486257 -125.835012 
L 84.801126 -118.324638 
L 86.115996 -124.521639 
L 87.430865 -117.71389 
L 88.745735 -127.865735 
L 90.060605 -121.069764 
L 91.375474 -118.397668 
L 92.690344 -127.727035 
L 94.005213 -119.598845 
L 95.320083 -117.900883 
L 96.634953 -128.703231 
L 97.949822 -124.967479 
L 99.264692 -113.069672 
L 100.579561 -113.968125 
L 101.894431 -120.482575 
L 103.2093 -112.154434 
L 104.52417 -117.71065 
L 105.83904 -119.292588 
L 107.153909 -118.090822 
L 108.468779 -127.149564 
L 109.783648 -116.217645 
L 111.098518 -115.370137 
L 112.413387 -123.433247 
L 113.728257 -129.46858 
L 115.043127 -132.048799 
L 116.357996 -124.369688 
L 117.672866 -121.754426 
L 118.987735 -111.870556 
L 120.302605 -122.473248 
L 121.617474 -120.312072 
L 122.932344 -124.674179 
L 124.247214 -125.063479 
L 125.562083 -120.18574 
L 126.876953 -116.346921 
L 128.191822 -112.937451 
L 129.506692 -108.56916 
L 130.821561 -112.891807 
L 132.136431 -116.936172 
L 133.451301 -110.740054 
L 134.76617 -118.584662 
L 136.08104 -126.654251 
L 137.395909 -129.387599 
L 138.710779 -139.27353 
L 140.025648 -146.011488 
L 141.340518 -207.401087 
L 142.655388 -224.330939 
L 143.970257 -257.920607 
L 145.285127 -258.522226 
L 146.599996 -308.123564 
L 147.914866 -307.464816 
L 149.229736 -273.251148 
L 150.544605 -262.640211 
L 151.859475 -309.549722 
L 153.174344 -298.960282 
L 154.489214 -294.283967 
L 155.804083 -290.168043 
L 157.118953 -310.244691 
L 158.433823 -288.13526 
L 159.748692 -267.886931 
L 161.063562 -291.374521 
L 162.378431 -292.75268 
L 163.693301 -311.622555 
L 165.00817 -312.953892 
L 166.32304 -312.282481 
L 167.63791 -290.067037 
L 168.952779 -313.707756 
L 170.267649 -313.719535 
L 171.582518 -297.063842 
L 172.897388 -271.408008 
L 174.212257 -294.23685 
L 175.527127 -316.464073 
L 176.841997 -294.212997 
L 178.156866 -320.633886 
L 179.471736 -297.576234 
L 180.786605 -322.75413 
L 182.101475 -322.75413 
L 183.416344 -322.75413 
L 184.731214 -322.75413 
L 186.046084 -322.75413 
L 187.360953 -322.75413 
L 188.675823 -322.75413 
L 189.990692 -322.75413 
L 191.305562 -322.75413 
L 192.620431 -322.75413 
L 193.935301 -322.75413 
L 195.250171 -322.75413 
L 196.56504 -322.75413 
L 197.87991 -322.75413 
L 199.194779 -322.75413 
L 200.509649 -322.75413 
L 201.824519 -303.60126 
L 203.139388 -322.75413 
L 204.454258 -322.75413 
L 205.769127 -322.75413 
L 207.083997 -322.75413 
L 208.398866 -322.75413 
L 209.713736 -322.75413 
L 211.028606 -322.75413 
L 212.343475 -322.75413 
L 213.658345 -303.60126 
L 214.973214 -322.75413 
L 216.288084 -322.75413 
L 217.602953 -322.75413 
L 218.917823 -322.75413 
L 220.232693 -322.75413 
L 221.547562 -322.75413 
L 222.862432 -297.311204 
L 224.177301 -322.75413 
L 225.492171 -285.00201 
L 226.80704 -303.60126 
L 228.12191 -322.75413 
L 229.43678 -322.75413 
L 230.751649 -297.311204 
L 232.066519 -322.75413 
L 233.381388 -322.75413 
L 234.696258 -322.75413 
L 236.011127 -322.75413 
L 237.325997 -322.75413 
L 238.640867 -322.75413 
L 239.955736 -322.75413 
L 241.270606 -322.75413 
L 242.585475 -322.75413 
L 243.900345 -322.75413 
L 245.215214 -322.75413 
L 246.530084 -322.75413 
L 247.844954 -322.75413 
L 249.159823 -322.75413 
L 250.474693 -322.75413 
L 251.789562 -322.75413 
L 253.104432 -322.75413 
L 254.419302 -322.75413 
L 255.734171 -299.254761 
L 257.049041 -322.75413 
L 258.36391 -322.75413 
L 259.67878 -322.75413 
L 260.993649 -322.75413 
L 262.308519 -322.75413 
L 263.623389 -322.75413 
L 264.938258 -299.113411 
L 266.253128 -322.75413 
L 267.567997 -322.75413 
L 268.882867 -322.75413 
L 270.197736 -297.77059 
L 271.512606 -322.75413 
L 272.827476 -322.75413 
L 274.142345 -322.75413 
L 275.457215 -322.75413 
L 276.772084 -322.75413 
L 278.086954 -322.75413 
L 279.401823 -322.75413 
L 280.716693 -322.75413 
L 282.031563 -322.75413 
L 283.346432 -322.75413 
L 284.661302 -322.75413 
L 285.976171 -322.75413 
L 287.291041 -297.805927 
L 288.60591 -322.75413 
L 289.92078 -299.254761 
L 291.23565 -322.75413 
L 292.550519 -322.75413 
L 293.865389 -322.75413 
L 295.180258 -322.75413 
L 296.495128 -322.75413 
L 297.809997 -322.75413 
L 299.124867 -322.75413 
L 300.439737 -322.75413 
L 301.754606 -322.75413 
L 303.069476 -322.75413 
L 304.384345 -322.75413 
L 305.699215 -322.75413 
L 307.014085 -322.75413 
L 308.328954 -322.75413 
L 309.643824 -322.75413 
L 310.958693 -322.75413 
L 312.273563 -322.75413 
L 313.588432 -298.442 
L 314.903302 -322.75413 
L 316.218172 -322.75413 
L 317.533041 -322.75413 
L 318.847911 -322.75413 
L 320.16278 -322.75413 
L 321.47765 -322.75413 
L 322.792519 -322.75413 
L 324.107389 -322.75413 
L 325.422259 -297.523228 
L 326.737128 -322.75413 
L 328.051998 -299.007399 
L 328.051998 -322.75413 
L 328.051998 -322.75413 
L 326.737128 -322.75413 
L 325.422259 -322.75413 
L 324.107389 -322.75413 
L 322.792519 -322.75413 
L 321.47765 -322.75413 
L 320.16278 -322.75413 
L 318.847911 -322.75413 
L 317.533041 -322.75413 
L 316.218172 -322.75413 
L 314.903302 -322.75413 
L 313.588432 -322.75413 
L 312.273563 -322.75413 
L 310.958693 -322.75413 
L 309.643824 -322.75413 
L 308.328954 -322.75413 
L 307.014085 -322.75413 
L 305.699215 -322.75413 
L 304.384345 -322.75413 
L 303.069476 -322.75413 
L 301.754606 -322.75413 
L 300.439737 -322.75413 
L 299.124867 -322.75413 
L 297.809997 -322.75413 
L 296.495128 -322.75413 
L 295.180258 -322.75413 
L 293.865389 -322.75413 
L 292.550519 -322.75413 
L 291.23565 -322.75413 
L 289.92078 -322.75413 
L 288.60591 -322.75413 
L 287.291041 -322.75413 
L 285.976171 -322.75413 
L 284.661302 -322.75413 
L 283.346432 -322.75413 
L 282.031563 -322.75413 
L 280.716693 -322.75413 
L 279.401823 -322.75413 
L 278.086954 -322.75413 
L 276.772084 -322.75413 
L 275.457215 -322.75413 
L 274.142345 -322.75413 
L 272.827476 -322.75413 
L 271.512606 -322.75413 
L 270.197736 -322.75413 
L 268.882867 -322.75413 
L 267.567997 -322.75413 
L 266.253128 -326.287869 
L 264.938258 -324.167625 
L 263.623389 -324.874373 
L 262.308519 -324.874373 
L 260.993649 -322.75413 
L 259.67878 -322.75413 
L 258.36391 -322.75413 
L 257.049041 -322.75413 
L 255.734171 -322.75413 
L 254.419302 -322.75413 
L 253.104432 -322.75413 
L 251.789562 -322.75413 
L 250.474693 -322.75413 
L 249.159823 -322.75413 
L 247.844954 -322.75413 
L 246.530084 -322.75413 
L 245.215214 -322.75413 
L 243.900345 -322.75413 
L 242.585475 -322.75413 
L 241.270606 -322.75413 
L 239.955736 -322.75413 
L 238.640867 -322.75413 
L 237.325997 -322.75413 
L 236.011127 -322.75413 
L 234.696258 -322.75413 
L 233.381388 -322.75413 
L 232.066519 -322.75413 
L 230.751649 -322.75413 
L 229.43678 -322.75413 
L 228.12191 -322.75413 
L 226.80704 -322.75413 
L 225.492171 -322.75413 
L 224.177301 -322.75413 
L 222.862432 -322.75413 
L 221.547562 -322.75413 
L 220.232693 -322.75413 
L 218.917823 -322.75413 
L 217.602953 -322.75413 
L 216.288084 -322.75413 
L 214.973214 -322.75413 
L 213.658345 -322.75413 
L 212.343475 -322.75413 
L 211.028606 -322.75413 
L 209.713736 -322.75413 
L 208.398866 -322.75413 
L 207.083997 -322.75413 
L 205.769127 -322.75413 
L 204.454258 -322.75413 
L 203.139388 -322.75413 
L 201.824519 -322.75413 
L 200.509649 -322.75413 
L 199.194779 -322.75413 
L 197.87991 -322.75413 
L 196.56504 -322.75413 
L 195.250171 -322.75413 
L 193.935301 -322.75413 
L 192.620431 -322.75413 
L 191.305562 -322.75413 
L 189.990692 -322.75413 
L 188.675823 -322.75413 
L 187.360953 -322.75413 
L 186.046084 -322.75413 
L 184.731214 -322.75413 
L 183.416344 -322.75413 
L 182.101475 -322.75413 
L 180.786605 -322.75413 
L 179.471736 -322.75413 
L 178.156866 -322.75413 
L 176.841997 -321.364192 
L 175.527127 -322.047382 
L 174.212257 -321.364192 
L 172.897388 -318.560759 
L 171.582518 -319.950696 
L 170.267649 -319.974254 
L 168.952779 -319.974254 
L 167.63791 -318.572538 
L 166.32304 -319.267506 
L 165.00817 -319.295776 
L 163.693301 -318.584317 
L 162.378431 -318.572538 
L 161.063562 -315.804442 
L 159.748692 -310.916102 
L 158.433823 -315.804442 
L 157.118953 -317.889348 
L 155.804083 -318.572538 
L 154.489214 -318.584317 
L 153.174344 -317.889348 
L 151.859475 -316.49941 
L 150.544605 -313.024566 
L 149.229736 -313.736909 
L 147.914866 -315.109473 
L 146.599996 -315.109473 
L 145.285127 -307.857061 
L 143.970257 -304.028843 
L 142.655388 -282.671215 
L 141.340518 -265.980184 
L 140.025648 -209.182975 
L 138.710779 -196.771892 
L 137.395909 -177.923513 
L 136.08104 -164.394885 
L 134.76617 -144.289084 
L 133.451301 -128.693513 
L 132.136431 -131.626812 
L 130.821561 -127.657539 
L 129.506692 -125.419503 
L 128.191822 -129.989218 
L 126.876953 -134.947644 
L 125.562083 -138.317359 
L 124.247214 -141.180571 
L 122.932344 -140.454093 
L 121.617474 -135.055423 
L 120.302605 -140.523001 
L 118.987735 -130.167083 
L 117.672866 -137.328206 
L 116.357996 -138.247273 
L 115.043127 -146.529475 
L 113.728257 -144.890115 
L 112.413387 -140.260032 
L 111.098518 -134.703227 
L 109.783648 -132.898664 
L 108.468779 -140.225578 
L 107.153909 -135.230343 
L 105.83904 -136.056649 
L 104.52417 -134.985337 
L 103.2093 -131.956922 
L 101.894431 -137.905089 
L 100.579561 -130.166788 
L 99.264692 -129.16674 
L 97.949822 -137.471028 
L 96.634953 -142.22862 
L 95.320083 -135.303079 
L 94.005213 -133.463767 
L 92.690344 -138.129482 
L 91.375474 -138.400402 
L 90.060605 -133.065044 
L 88.745735 -138.365064 
L 87.430865 -133.702295 
L 86.115996 -138.788524 
L 84.801126 -133.452283 
L 83.486257 -139.260573 
L 82.171387 -137.646832 
L 80.856518 -135.881434 
L 79.541648 -129.29631 
L 78.226778 -131.865339 
L 76.911909 -127.597465 
L 75.597039 -128.104262 
L 74.28217 -128.858421 
L 72.9673 -125.973712 
L 71.652431 -116.607829 
L 70.337561 -116.196148 
L 69.022691 -117.243608 
L 67.707822 -97.01177 
L 66.392952 -72.934635 
z
" style="stroke: #2d1e3e; stroke-opacity: 0.2"/>
    </defs>
    <g clip-path="url(#pb8f6715985)">
     <use xlink:href="#maf3d0ded70" x="0" y="362.097812" style="fill: #2d1e3e; fill-opacity: 0.2; stroke: #2d1e3e; stroke-opacity: 0.2"/>
    </g>
   </g>
   <g id="line2d_14">
    <path d="M 66.392952 299.532937 
L 67.707822 273.135902 
L 69.022691 254.678001 
L 70.337561 243.982549 
L 71.652431 249.188926 
L 72.9673 243.593838 
L 74.28217 239.365129 
L 75.597039 244.712855 
L 76.911909 238.12832 
L 78.226778 239.212 
L 79.541648 243.464267 
L 80.856518 235.41912 
L 82.171387 235.395562 
L 83.486257 231.237528 
L 84.801126 232.792373 
L 86.115996 236.396788 
L 87.430865 232.380104 
L 88.745735 230.860596 
L 90.060605 231.449552 
L 91.375474 234.288323 
L 92.690344 231.88538 
L 94.005213 231.449552 
L 95.320083 235.890285 
L 96.634953 238.151879 
L 97.949822 235.41912 
L 99.264692 235.207095 
L 100.579561 233.852495 
L 101.894431 228.90526 
L 103.2093 234.05274 
L 104.52417 225.78379 
L 105.83904 231.826484 
L 107.153909 234.512127 
L 108.468779 228.846364 
L 109.783648 231.390657 
L 111.098518 232.168079 
L 112.413387 228.481211 
L 113.728257 229.706241 
L 115.043127 232.29765 
L 116.357996 231.802926 
L 117.672866 230.884154 
L 118.987735 235.336666 
L 120.302605 230.884154 
L 121.617474 231.508448 
L 122.932344 235.584028 
L 124.247214 230.059615 
L 125.562083 242.781078 
L 126.876953 235.395562 
L 128.191822 229.776915 
L 129.506692 241.367582 
L 130.821561 222.756553 
L 132.136431 233.92317 
L 133.451301 230.848816 
L 134.76617 236.137647 
L 136.08104 233.675808 
L 137.395909 227.904033 
L 138.710779 230.471884 
L 140.025648 232.014951 
L 141.340518 232.980839 
L 142.655388 238.187216 
L 143.970257 249.094692 
L 145.285127 238.552369 
L 146.599996 235.136421 
L 147.914866 239.400467 
L 149.229736 240.083656 
L 150.544605 231.155074 
L 151.859475 230.330535 
L 153.174344 236.149426 
L 154.489214 231.414215 
L 155.804083 225.50109 
L 158.433823 235.878506 
L 159.748692 225.972256 
L 161.063562 228.021825 
L 162.378431 222.002688 
L 163.693301 215.088337 
L 165.00817 218.916555 
L 166.32304 214.381589 
L 167.63791 204.616689 
L 168.952779 210.953862 
L 170.267649 194.733997 
L 171.582518 189.480504 
L 172.897388 169.055488 
L 174.212257 152.576482 
L 175.527127 140.597104 
L 176.841997 141.138945 
L 179.471736 85.67101 
L 180.786605 86.754691 
L 182.101475 72.77286 
L 183.416344 56.505879 
L 184.731214 48.024903 
L 186.046084 48.47251 
L 187.360953 43.690183 
L 188.675823 46.57607 
L 189.990692 45.551286 
L 191.305562 43.301471 
L 192.620431 39.343683 
L 197.87991 39.343683 
L 199.194779 40.47448 
L 201.824519 40.47448 
L 203.139388 43.301471 
L 204.454258 43.86687 
L 205.769127 43.86687 
L 207.083997 39.343683 
L 232.066519 39.343683 
L 234.696258 48.696314 
L 237.325997 39.343683 
L 246.530084 39.343683 
L 247.844954 43.86687 
L 249.159823 39.343683 
L 259.67878 39.343683 
L 260.993649 43.86687 
L 262.308519 44.467605 
L 263.623389 39.343683 
L 272.827476 39.343683 
L 274.142345 44.279139 
L 275.457215 39.343683 
L 278.086954 39.343683 
L 279.401823 44.467605 
L 280.716693 39.343683 
L 282.031563 43.86687 
L 283.346432 43.86687 
L 284.661302 39.343683 
L 288.60591 39.343683 
L 289.92078 43.301471 
L 291.23565 43.301471 
L 292.550519 43.831532 
L 293.865389 39.343683 
L 295.180258 39.343683 
L 296.495128 44.173127 
L 297.809997 45.551286 
L 299.124867 39.343683 
L 300.439737 45.35104 
L 301.754606 39.343683 
L 309.643824 39.343683 
L 310.958693 46.517174 
L 312.273563 43.831532 
L 316.218172 43.831532 
L 317.533041 39.343683 
L 318.847911 44.173127 
L 320.16278 43.99644 
L 321.47765 48.649197 
L 322.792519 39.343683 
L 328.051998 39.343683 
L 328.051998 39.343683 
" clip-path="url(#pb8f6715985)" style="fill: none; stroke: #edd1cb; stroke-width: 1.5; stroke-linecap: round"/>
   </g>
   <g id="line2d_15">
    <path d="M 66.392952 297.989871 
L 67.707822 282.983256 
L 69.022691 262.758486 
L 70.337561 247.021565 
L 71.652431 251.273832 
L 72.9673 252.498862 
L 74.28217 255.832356 
L 75.597039 243.499605 
L 76.911909 244.630401 
L 78.226778 243.087335 
L 79.541648 248.069908 
L 80.856518 239.694945 
L 82.171387 244.64218 
L 83.486257 235.654702 
L 84.801126 231.850043 
L 86.115996 233.558017 
L 87.430865 233.605133 
L 88.745735 230.577896 
L 90.060605 224.971029 
L 91.375474 226.855691 
L 92.690344 224.570539 
L 94.005213 217.185023 
L 95.320083 227.692009 
L 96.634953 216.395821 
L 97.949822 230.978387 
L 99.264692 227.091273 
L 100.579561 215.971772 
L 101.894431 203.10896 
L 103.2093 192.707986 
L 104.52417 192.342833 
L 105.83904 187.784309 
L 107.153909 185.687623 
L 108.468779 185.793635 
L 109.783648 186.688849 
L 111.098518 179.904069 
L 112.413387 176.205422 
L 113.728257 173.154626 
L 115.043127 177.71315 
L 116.357996 168.49009 
L 117.672866 175.239533 
L 118.987735 170.704567 
L 120.302605 171.717572 
L 121.617474 171.917817 
L 122.932344 156.970098 
L 124.247214 155.59194 
L 126.876953 133.706312 
L 128.191822 140.856245 
L 129.506692 140.773791 
L 130.821561 148.12397 
L 132.136431 138.335511 
L 133.451301 136.886678 
L 134.76617 138.712443 
L 136.08104 123.093314 
L 137.395909 125.025092 
L 138.710779 122.150983 
L 140.025648 120.713929 
L 141.340518 129.406929 
L 142.655388 120.101414 
L 143.970257 127.687175 
L 145.285127 127.62828 
L 146.599996 102.279587 
L 147.914866 92.432232 
L 149.229736 87.720579 
L 150.544605 103.4575 
L 151.859475 97.615051 
L 153.174344 102.032225 
L 154.489214 105.271487 
L 155.804083 99.982656 
L 157.118953 86.483771 
L 158.433823 81.913467 
L 159.748692 73.503167 
L 161.063562 82.773344 
L 162.378431 82.855798 
L 165.00817 71.335806 
L 166.32304 66.412129 
L 167.63791 60.82882 
L 172.897388 60.82882 
L 174.212257 71.9601 
L 175.527127 67.07176 
L 176.841997 69.639611 
L 178.156866 66.694828 
L 179.471736 67.165993 
L 180.786605 61.299986 
L 182.101475 60.82882 
L 183.416344 61.299986 
L 184.731214 61.299986 
L 186.046084 73.915436 
L 187.360953 68.402802 
L 188.675823 69.38047 
L 189.990692 68.791514 
L 191.305562 66.80084 
L 192.620431 60.82882 
L 193.935301 68.638385 
L 195.250171 60.82882 
L 196.56504 60.82882 
L 197.87991 65.764277 
L 199.194779 60.82882 
L 203.139388 60.82882 
L 204.454258 66.895073 
L 205.769127 60.82882 
L 213.658345 60.82882 
L 214.973214 63.938511 
L 216.288084 60.82882 
L 221.547562 60.82882 
L 222.862432 68.56771 
L 224.177301 63.773603 
L 225.492171 60.82882 
L 226.80704 61.570906 
L 228.12191 62.042071 
L 229.43678 62.042071 
L 230.751649 64.916179 
L 232.066519 70.793966 
L 233.381388 66.706607 
L 234.696258 68.815072 
L 236.011127 73.32648 
L 237.325997 73.408934 
L 238.640867 65.516915 
L 239.955736 62.242316 
L 242.585475 62.242316 
L 243.900345 68.791514 
L 245.215214 60.82882 
L 246.530084 60.82882 
L 247.844954 64.126977 
L 249.159823 68.16722 
L 250.474693 64.126977 
L 251.789562 60.82882 
L 253.104432 70.6055 
L 254.419302 66.683049 
L 255.734171 64.244769 
L 257.049041 60.82882 
L 258.36391 63.773603 
L 259.67878 67.07176 
L 260.993649 71.724518 
L 262.308519 63.773603 
L 263.623389 63.773603 
L 264.938258 60.82882 
L 266.253128 66.388571 
L 267.567997 60.82882 
L 276.772084 60.82882 
L 278.086954 64.126977 
L 279.401823 64.916179 
L 280.716693 64.916179 
L 282.031563 60.82882 
L 288.60591 60.82882 
L 289.92078 65.622927 
L 291.23565 60.82882 
L 293.865389 60.82882 
L 295.180258 65.163541 
L 296.495128 60.82882 
L 297.809997 64.126977 
L 300.439737 64.126977 
L 301.754606 60.82882 
L 303.069476 60.82882 
L 304.384345 64.126977 
L 305.699215 64.397897 
L 307.014085 64.397897 
L 308.328954 61.37066 
L 309.643824 61.37066 
L 310.958693 61.09974 
L 312.273563 69.745623 
L 313.588432 65.893847 
L 314.903302 65.611148 
L 316.218172 73.750528 
L 317.533041 68.473477 
L 318.847911 66.046976 
L 320.16278 66.918632 
L 321.47765 72.631511 
L 322.792519 64.892621 
L 324.107389 67.177773 
L 325.422259 70.558384 
L 326.737128 74.53973 
L 328.051998 64.268327 
L 328.051998 64.268327 
" clip-path="url(#pb8f6715985)" style="fill: none; stroke: #d499a7; stroke-width: 1.5; stroke-linecap: round"/>
   </g>
   <g id="line2d_16">
    <path d="M 66.392952 295.480916 
L 67.707822 277.282156 
L 69.022691 257.222294 
L 70.337561 252.852236 
L 71.652431 250.649538 
L 72.9673 240.177889 
L 74.28217 235.395562 
L 75.597039 230.036056 
L 76.911909 235.207095 
L 78.226778 239.329792 
L 79.541648 236.973965 
L 80.856518 240.719729 
L 82.171387 239.906969 
L 83.486257 235.348445 
L 84.801126 235.159979 
L 86.115996 242.957765 
L 88.745735 232.651024 
L 90.060605 229.470658 
L 91.375474 231.025503 
L 92.690344 231.296423 
L 94.005213 234.46501 
L 96.634953 227.633113 
L 99.264692 234.547464 
L 100.579561 228.198512 
L 101.894431 226.99704 
L 103.2093 233.687587 
L 104.52417 232.96906 
L 105.83904 227.209065 
L 107.153909 227.432868 
L 108.468779 227.291518 
L 109.783648 232.615686 
L 111.098518 230.837037 
L 112.413387 229.494216 
L 113.728257 232.521453 
L 115.043127 228.22207 
L 116.357996 232.450778 
L 117.672866 229.011272 
L 118.987735 231.296423 
L 120.302605 232.191638 
L 121.617474 228.410536 
L 122.932344 226.337409 
L 124.247214 229.612008 
L 125.562083 229.270413 
L 126.876953 231.708693 
L 128.191822 231.48489 
L 129.506692 232.674582 
L 130.821561 227.621334 
L 132.136431 224.488085 
L 133.451301 223.958024 
L 134.76617 232.721699 
L 136.08104 228.90526 
L 137.395909 232.073846 
L 138.710779 226.125384 
L 140.025648 226.938145 
L 141.340518 225.889802 
L 142.655388 227.750905 
L 143.970257 229.341088 
L 145.285127 235.654702 
L 146.599996 233.487342 
L 147.914866 232.415441 
L 149.229736 233.887833 
L 150.544605 231.155074 
L 151.859475 229.57667 
L 153.174344 232.874827 
L 154.489214 232.391883 
L 155.804083 224.759005 
L 157.118953 229.941823 
L 158.433823 234.547464 
L 159.748692 231.555564 
L 161.063562 230.707467 
L 162.378431 230.471884 
L 163.693301 230.577896 
L 165.00817 228.681456 
L 166.32304 226.349188 
L 167.63791 226.101826 
L 168.952779 230.377651 
L 170.267649 230.460105 
L 171.582518 230.283418 
L 172.897388 228.410536 
L 174.212257 230.789921 
L 175.527127 227.397531 
L 176.841997 231.626239 
L 178.156866 225.548207 
L 179.471736 233.004398 
L 180.786605 235.560469 
L 182.101475 232.073846 
L 183.416344 230.754583 
L 184.731214 232.945502 
L 186.046084 227.750905 
L 187.360953 233.887833 
L 188.675823 227.020598 
L 189.990692 227.079494 
L 191.305562 230.895933 
L 192.620431 229.470658 
L 193.935301 227.515322 
L 195.250171 229.953602 
L 196.56504 227.350414 
L 197.87991 229.470658 
L 199.194779 226.219617 
L 200.509649 227.597776 
L 201.824519 234.912617 
L 203.139388 232.827711 
L 204.454258 225.677777 
L 205.769127 227.326856 
L 207.083997 227.798021 
L 208.398866 227.597776 
L 209.713736 229.647345 
L 211.028606 230.165627 
L 212.343475 237.657155 
L 213.658345 227.739126 
L 214.973214 229.553112 
L 216.288084 225.124158 
L 217.602953 226.902807 
L 218.917823 225.065262 
L 220.232693 228.528327 
L 221.547562 232.462558 
L 222.862432 229.494216 
L 224.177301 233.263539 
L 225.492171 233.063293 
L 226.80704 229.129063 
L 228.12191 230.471884 
L 229.43678 233.958507 
L 230.751649 228.599002 
L 232.066519 227.079494 
L 233.381388 234.523906 
L 234.696258 234.252986 
L 236.011127 234.182311 
L 237.325997 229.470658 
L 238.640867 230.306976 
L 239.955736 232.804152 
L 241.270606 234.500347 
L 243.900345 230.8017 
L 245.215214 232.321208 
L 246.530084 226.514096 
L 247.844954 229.800474 
L 249.159823 225.736673 
L 250.474693 228.49299 
L 251.789562 224.711889 
L 253.104432 229.84759 
L 254.419302 230.342314 
L 255.734171 230.66035 
L 257.049041 233.169306 
L 258.36391 236.455683 
L 259.67878 235.360224 
L 260.993649 228.846364 
L 262.308519 226.514096 
L 263.623389 232.120963 
L 264.938258 235.866727 
L 266.253128 231.21397 
L 267.567997 228.975934 
L 268.882867 235.866727 
L 270.197736 231.20219 
L 271.512606 232.085625 
L 272.827476 232.29765 
L 274.142345 229.98894 
L 275.457215 222.426737 
L 276.772084 225.029925 
L 278.086954 233.640471 
L 279.401823 233.640471 
L 280.716693 233.287097 
L 282.031563 230.789921 
L 283.346432 233.063293 
L 284.661302 232.368325 
L 285.976171 229.423541 
L 287.291041 229.482437 
L 288.60591 225.147716 
L 289.92078 231.190411 
L 291.23565 229.235075 
L 292.550519 230.047835 
L 293.865389 229.98894 
L 295.180258 227.362193 
L 296.495128 231.555564 
L 297.809997 230.342314 
L 299.124867 233.393109 
L 300.439737 228.36342 
L 301.754606 233.78182 
L 303.069476 228.975934 
L 304.384345 227.256181 
L 305.699215 229.093726 
L 307.014085 229.364646 
L 308.328954 226.05471 
L 309.643824 227.998266 
L 310.958693 225.277287 
L 312.273563 232.757036 
L 313.588432 221.343057 
L 314.903302 227.821579 
L 316.218172 231.520227 
L 317.533041 231.272865 
L 318.847911 231.649797 
L 320.16278 225.183054 
L 321.47765 232.097404 
L 322.792519 231.390657 
L 324.107389 223.828454 
L 325.422259 232.203417 
L 326.737128 224.299619 
L 328.051998 229.329308 
L 328.051998 229.329308 
" clip-path="url(#pb8f6715985)" style="fill: none; stroke: #a9678f; stroke-width: 1.5; stroke-linecap: round"/>
   </g>
   <g id="line2d_17">
    <path d="M 66.392952 297.989871 
L 69.022691 253.182051 
L 70.337561 252.039476 
L 71.652431 240.43703 
L 72.9673 244.818867 
L 74.28217 236.196543 
L 75.597039 240.625496 
L 76.911909 248.635306 
L 78.226778 240.955312 
L 79.541648 247.516289 
L 82.171387 236.455683 
L 83.486257 240.248564 
L 84.801126 238.281449 
L 86.115996 235.878506 
L 87.430865 234.182311 
L 88.745735 236.64415 
L 90.060605 240.354576 
L 91.375474 239.424025 
L 92.690344 237.810284 
L 94.005213 236.63237 
L 95.320083 232.497895 
L 96.634953 229.081947 
L 97.949822 230.683909 
L 99.264692 232.709919 
L 100.579561 235.313108 
L 101.894431 236.679487 
L 103.2093 232.274091 
L 104.52417 234.323661 
L 105.83904 230.059615 
L 107.153909 228.49299 
L 108.468779 232.191638 
L 109.783648 239.612491 
L 111.098518 229.670903 
L 112.413387 226.090047 
L 113.728257 226.04293 
L 115.043127 233.23998 
L 117.672866 236.36145 
L 118.987735 233.675808 
L 120.302605 232.391883 
L 121.617474 228.63434 
L 122.932344 223.439742 
L 124.247214 229.199738 
L 125.562083 220.08269 
L 126.876953 231.025503 
L 128.191822 230.966608 
L 129.506692 227.750905 
L 130.821561 227.032378 
L 132.136431 227.856917 
L 133.451301 230.495442 
L 134.76617 223.899128 
L 136.08104 224.14649 
L 137.395909 227.633113 
L 138.710779 224.299619 
L 140.025648 231.272865 
L 141.340518 230.766363 
L 142.655388 225.995814 
L 143.970257 223.109927 
L 145.285127 231.308203 
L 146.599996 236.243659 
L 147.914866 236.302555 
L 149.229736 232.69814 
L 150.544605 229.788695 
L 151.859475 232.050288 
L 153.174344 231.543785 
L 154.489214 241.108441 
L 155.804083 232.674582 
L 157.118953 229.694461 
L 158.433823 229.706241 
L 159.748692 232.356545 
L 161.063562 230.919491 
L 162.378431 232.898385 
L 163.693301 230.94305 
L 165.00817 232.356545 
L 166.32304 232.097404 
L 167.63791 233.122189 
L 168.952779 232.215196 
L 170.267649 232.132742 
L 171.582518 230.613234 
L 172.897388 232.29765 
L 174.212257 231.331761 
L 175.527127 229.235075 
L 176.841997 228.35164 
L 178.156866 223.651767 
L 179.471736 222.179375 
L 182.101475 234.205869 
L 183.416344 232.438999 
L 184.731214 232.391883 
L 186.046084 238.787952 
L 187.360953 232.651024 
L 188.675823 230.577896 
L 189.990692 231.696914 
L 191.305562 228.76391 
L 192.620431 230.754583 
L 193.935301 228.681456 
L 195.250171 225.241949 
L 196.56504 223.003914 
L 197.87991 226.86747 
L 199.194779 227.656672 
L 200.509649 226.926365 
L 201.824519 229.341088 
L 203.139388 226.843911 
L 204.454258 222.332504 
L 205.769127 224.994588 
L 207.083997 228.127837 
L 208.398866 229.093726 
L 209.713736 232.179858 
L 211.028606 231.143295 
L 212.343475 230.471884 
L 213.658345 232.709919 
L 214.973214 228.104279 
L 216.288084 228.551886 
L 217.602953 224.170048 
L 218.917823 225.536428 
L 220.232693 231.88538 
L 221.547562 231.025503 
L 222.862432 224.14649 
L 224.177301 227.055936 
L 225.492171 228.705014 
L 226.80704 229.859369 
L 228.12191 225.006367 
L 229.43678 227.786242 
L 230.751649 229.199738 
L 232.066519 234.971513 
L 233.381388 227.197285 
L 234.696258 228.716794 
L 236.011127 225.524649 
L 237.325997 227.880475 
L 238.640867 231.190411 
L 239.955736 227.456426 
L 241.270606 224.841459 
L 242.585475 221.778885 
L 243.900345 224.240723 
L 245.215214 223.651767 
L 246.530084 230.248081 
L 247.844954 228.928818 
L 249.159823 224.41741 
L 250.474693 225.277287 
L 251.789562 222.096921 
L 253.104432 227.185506 
L 254.419302 228.563665 
L 255.734171 231.626239 
L 257.049041 225.51287 
L 258.36391 229.776915 
L 259.67878 230.047835 
L 260.993649 223.746 
L 262.308519 225.124158 
L 263.623389 225.972256 
L 264.938258 225.112379 
L 266.253128 228.375199 
L 267.567997 229.553112 
L 268.882867 221.02502 
L 270.197736 229.588449 
L 271.512606 224.594097 
L 272.827476 228.481211 
L 274.142345 233.52268 
L 275.457215 229.352867 
L 276.772084 226.985261 
L 278.086954 230.094952 
L 279.401823 225.607103 
L 280.716693 224.95925 
L 282.031563 226.832132 
L 283.346432 218.763427 
L 284.661302 229.129063 
L 285.976171 226.785016 
L 287.291041 227.550659 
L 288.60591 229.505995 
L 289.92078 225.854464 
L 291.23565 229.482437 
L 292.550519 224.594097 
L 293.865389 229.659124 
L 295.180258 228.975934 
L 296.495128 230.318756 
L 297.809997 228.339861 
L 299.124867 232.521453 
L 300.439737 225.277287 
L 301.754606 224.523422 
L 303.069476 225.50109 
L 304.384345 222.532749 
L 305.699215 224.28784 
L 307.014085 221.331278 
L 308.328954 221.225265 
L 309.643824 222.638761 
L 310.958693 227.703788 
L 312.273563 225.866243 
L 313.588432 223.569313 
L 314.903302 223.098147 
L 316.218172 225.630661 
L 317.533041 228.457653 
L 318.847911 231.602681 
L 320.16278 229.388204 
L 321.47765 224.617655 
L 322.792519 226.266734 
L 324.107389 221.602198 
L 325.422259 225.618882 
L 326.737128 228.952376 
L 328.051998 228.917039 
L 328.051998 228.917039 
" clip-path="url(#pb8f6715985)" style="fill: none; stroke: #6c3f70; stroke-width: 1.5; stroke-linecap: round"/>
   </g>
   <g id="line2d_18">
    <path d="M 66.392952 295.69294 
L 69.022691 255.302295 
L 70.337561 256.397755 
L 71.652431 254.01837 
L 72.9673 244.430156 
L 74.28217 240.495926 
L 75.597039 240.342797 
L 76.911909 241.238011 
L 78.226778 239.706724 
L 79.541648 238.870406 
L 80.856518 233.7936 
L 83.486257 229.376425 
L 84.801126 236.149426 
L 86.115996 230.412989 
L 87.430865 235.996297 
L 88.745735 228.881701 
L 90.060605 235.207095 
L 91.375474 232.815932 
L 92.690344 229.129063 
L 94.005213 235.654702 
L 95.320083 235.395562 
L 96.634953 226.820353 
L 97.949822 230.636792 
L 99.264692 240.460588 
L 100.579561 239.671387 
L 101.894431 232.96906 
L 103.2093 239.129546 
L 104.52417 235.772494 
L 105.83904 234.806605 
L 107.153909 235.289549 
L 108.468779 228.481211 
L 109.783648 237.562922 
L 111.098518 237.421572 
L 112.413387 230.318756 
L 113.728257 224.794342 
L 115.043127 222.968577 
L 116.357996 230.460105 
L 117.672866 232.521453 
L 118.987735 240.861079 
L 120.302605 230.778142 
L 121.617474 234.653476 
L 122.932344 229.470658 
L 124.247214 228.36342 
L 125.562083 232.391883 
L 126.876953 235.784273 
L 129.506692 244.936659 
L 130.821561 241.93298 
L 132.136431 237.751388 
L 133.451301 242.109667 
L 134.76617 231.508448 
L 136.08104 218.103795 
L 137.395909 210.612267 
L 138.710779 196.807124 
L 140.025648 186.441488 
L 141.340518 123.576258 
L 142.655388 108.710993 
L 143.970257 78.638868 
L 145.285127 76.636416 
L 146.599996 50.474963 
L 147.914866 51.158153 
L 149.229736 64.020965 
L 150.544605 70.841083 
L 151.859475 49.073246 
L 153.174344 51.676434 
L 154.489214 52.771894 
L 155.804083 54.138273 
L 157.118953 47.683309 
L 158.433823 56.906369 
L 159.748692 70.6055 
L 161.063562 56.058272 
L 162.378431 53.290176 
L 163.693301 47.000119 
L 165.00817 45.63374 
L 166.32304 46.316929 
L 167.63791 54.644776 
L 168.952779 44.915212 
L 170.267649 44.903433 
L 171.582518 51.158153 
L 172.897388 64.986854 
L 174.212257 50.710546 
L 175.527127 42.830306 
L 176.841997 50.486742 
L 178.156866 40.050431 
L 179.471736 47.966008 
L 180.786605 39.343683 
L 200.509649 39.343683 
L 201.824519 45.727973 
L 203.139388 39.343683 
L 212.343475 39.343683 
L 213.658345 45.727973 
L 214.973214 39.343683 
L 221.547562 39.343683 
L 222.862432 47.824658 
L 224.177301 39.343683 
L 225.492171 54.055819 
L 226.80704 45.727973 
L 228.12191 39.343683 
L 229.43678 39.343683 
L 230.751649 47.824658 
L 232.066519 39.343683 
L 254.419302 39.343683 
L 255.734171 47.176806 
L 257.049041 39.343683 
L 260.993649 39.343683 
L 262.308519 38.636935 
L 263.623389 38.636935 
L 264.938258 46.517174 
L 266.253128 37.930187 
L 267.567997 39.343683 
L 268.882867 39.343683 
L 270.197736 47.671529 
L 271.512606 39.343683 
L 285.976171 39.343683 
L 287.291041 47.65975 
L 288.60591 39.343683 
L 289.92078 47.176806 
L 291.23565 39.343683 
L 312.273563 39.343683 
L 313.588432 47.447726 
L 314.903302 39.343683 
L 324.107389 39.343683 
L 325.422259 47.753983 
L 326.737128 39.343683 
L 328.051998 47.25926 
L 328.051998 47.25926 
" clip-path="url(#pb8f6715985)" style="fill: none; stroke: #2d1e3e; stroke-width: 1.5; stroke-linecap: round"/>
   </g>
   <g id="line2d_19"/>
   <g id="line2d_20"/>
   <g id="line2d_21"/>
   <g id="line2d_22"/>
   <g id="line2d_23"/>
   <g id="patch_3">
    <path d="M 53.31 319.138125 
L 53.31 22.318125 
" style="fill: none; stroke: #ffffff; stroke-width: 1.25; stroke-linejoin: miter; stroke-linecap: square"/>
   </g>
   <g id="patch_4">
    <path d="M 53.31 319.138125 
L 341.13495 319.138125 
" style="fill: none; stroke: #ffffff; stroke-width: 1.25; stroke-linejoin: miter; stroke-linecap: square"/>
   </g>
   <g id="text_16">
    <!-- Best Trials (Vector x Fine-Grain) -->
    <g style="fill: #262626" transform="translate(102.751538 16.318125)scale(0.12 -0.12)">
     <defs>
      <path id="DejaVuSans-42" d="M 1259 2228 
L 1259 519 
L 2272 519 
Q 2781 519 3026 730 
Q 3272 941 3272 1375 
Q 3272 1813 3026 2020 
Q 2781 2228 2272 2228 
L 1259 2228 
z
M 1259 4147 
L 1259 2741 
L 2194 2741 
Q 2656 2741 2882 2914 
Q 3109 3088 3109 3444 
Q 3109 3797 2882 3972 
Q 2656 4147 2194 4147 
L 1259 4147 
z
M 628 4666 
L 2241 4666 
Q 2963 4666 3353 4366 
Q 3744 4066 3744 3513 
Q 3744 3084 3544 2831 
Q 3344 2578 2956 2516 
Q 3422 2416 3680 2098 
Q 3938 1781 3938 1306 
Q 3938 681 3513 340 
Q 3088 0 2303 0 
L 628 0 
L 628 4666 
z
" transform="scale(0.015625)"/>
      <path id="DejaVuSans-20" transform="scale(0.015625)"/>
      <path id="DejaVuSans-54" d="M -19 4666 
L 3928 4666 
L 3928 4134 
L 2272 4134 
L 2272 0 
L 1638 0 
L 1638 4134 
L -19 4134 
L -19 4666 
z
" transform="scale(0.015625)"/>
      <path id="DejaVuSans-6c" d="M 603 4863 
L 1178 4863 
L 1178 0 
L 603 0 
L 603 4863 
z
" transform="scale(0.015625)"/>
      <path id="DejaVuSans-28" d="M 1984 4856 
Q 1566 4138 1362 3434 
Q 1159 2731 1159 2009 
Q 1159 1288 1364 580 
Q 1569 -128 1984 -844 
L 1484 -844 
Q 1016 -109 783 600 
Q 550 1309 550 2009 
Q 550 2706 781 3412 
Q 1013 4119 1484 4856 
L 1984 4856 
z
" transform="scale(0.015625)"/>
      <path id="DejaVuSans-56" d="M 1831 0 
L 50 4666 
L 709 4666 
L 2188 738 
L 3669 4666 
L 4325 4666 
L 2547 0 
L 1831 0 
z
" transform="scale(0.015625)"/>
      <path id="DejaVuSans-63" d="M 3122 3366 
L 3122 2828 
Q 2878 2963 2633 3030 
Q 2388 3097 2138 3097 
Q 1578 3097 1268 2742 
Q 959 2388 959 1747 
Q 959 1106 1268 751 
Q 1578 397 2138 397 
Q 2388 397 2633 464 
Q 2878 531 3122 666 
L 3122 134 
Q 2881 22 2623 -34 
Q 2366 -91 2075 -91 
Q 1284 -91 818 406 
Q 353 903 353 1747 
Q 353 2603 823 3093 
Q 1294 3584 2113 3584 
Q 2378 3584 2631 3529 
Q 2884 3475 3122 3366 
z
" transform="scale(0.015625)"/>
      <path id="DejaVuSans-78" d="M 3513 3500 
L 2247 1797 
L 3578 0 
L 2900 0 
L 1881 1375 
L 863 0 
L 184 0 
L 1544 1831 
L 300 3500 
L 978 3500 
L 1906 2253 
L 2834 3500 
L 3513 3500 
z
" transform="scale(0.015625)"/>
      <path id="DejaVuSans-2d" d="M 313 2009 
L 1997 2009 
L 1997 1497 
L 313 1497 
L 313 2009 
z
" transform="scale(0.015625)"/>
      <path id="DejaVuSans-29" d="M 513 4856 
L 1013 4856 
Q 1481 4119 1714 3412 
Q 1947 2706 1947 2009 
Q 1947 1309 1714 600 
Q 1481 -109 1013 -844 
L 513 -844 
Q 928 -128 1133 580 
Q 1338 1288 1338 2009 
Q 1338 2731 1133 3434 
Q 928 4138 513 4856 
z
" transform="scale(0.015625)"/>
     </defs>
     <use xlink:href="#DejaVuSans-42"/>
     <use xlink:href="#DejaVuSans-65" x="68.603516"/>
     <use xlink:href="#DejaVuSans-73" x="130.126953"/>
     <use xlink:href="#DejaVuSans-74" x="182.226562"/>
     <use xlink:href="#DejaVuSans-20" x="221.435547"/>
     <use xlink:href="#DejaVuSans-54" x="253.222656"/>
     <use xlink:href="#DejaVuSans-72" x="299.556641"/>
     <use xlink:href="#DejaVuSans-69" x="340.669922"/>
     <use xlink:href="#DejaVuSans-61" x="368.453125"/>
     <use xlink:href="#DejaVuSans-6c" x="429.732422"/>
     <use xlink:href="#DejaVuSans-73" x="457.515625"/>
     <use xlink:href="#DejaVuSans-20" x="509.615234"/>
     <use xlink:href="#DejaVuSans-28" x="541.402344"/>
     <use xlink:href="#DejaVuSans-56" x="580.416016"/>
     <use xlink:href="#DejaVuSans-65" x="641.074219"/>
     <use xlink:href="#DejaVuSans-63" x="702.597656"/>
     <use xlink:href="#DejaVuSans-74" x="757.578125"/>
     <use xlink:href="#DejaVuSans-6f" x="796.787109"/>
     <use xlink:href="#DejaVuSans-72" x="857.96875"/>
     <use xlink:href="#DejaVuSans-20" x="899.082031"/>
     <use xlink:href="#DejaVuSans-78" x="930.869141"/>
     <use xlink:href="#DejaVuSans-20" x="990.048828"/>
     <use xlink:href="#DejaVuSans-46" x="1021.835938"/>
     <use xlink:href="#DejaVuSans-69" x="1072.105469"/>
     <use xlink:href="#DejaVuSans-6e" x="1099.888672"/>
     <use xlink:href="#DejaVuSans-65" x="1163.267578"/>
     <use xlink:href="#DejaVuSans-2d" x="1224.791016"/>
     <use xlink:href="#DejaVuSans-47" x="1264.5"/>
     <use xlink:href="#DejaVuSans-72" x="1341.990234"/>
     <use xlink:href="#DejaVuSans-61" x="1383.103516"/>
     <use xlink:href="#DejaVuSans-69" x="1444.382812"/>
     <use xlink:href="#DejaVuSans-6e" x="1472.166016"/>
     <use xlink:href="#DejaVuSans-29" x="1535.544922"/>
    </g>
   </g>
  </g>
  <g id="legend_1">
   <g id="text_17">
    <!-- Trial -->
    <g style="fill: #262626" transform="translate(352.4649 143.995312)scale(0.12 -0.12)">
     <use xlink:href="#DejaVuSans-54"/>
     <use xlink:href="#DejaVuSans-72" x="46.333984"/>
     <use xlink:href="#DejaVuSans-69" x="87.447266"/>
     <use xlink:href="#DejaVuSans-61" x="115.230469"/>
     <use xlink:href="#DejaVuSans-6c" x="176.509766"/>
    </g>
   </g>
   <g id="line2d_24">
    <path d="M 345.8224 156.499219 
L 356.8224 156.499219 
L 367.8224 156.499219 
" style="fill: none; stroke: #edd1cb; stroke-width: 1.5; stroke-linecap: round"/>
   </g>
   <g id="text_18">
    <!-- 0 -->
    <g style="fill: #262626" transform="translate(376.6224 160.349219)scale(0.11 -0.11)">
     <use xlink:href="#DejaVuSans-30"/>
    </g>
   </g>
   <g id="line2d_25">
    <path d="M 345.8224 172.645156 
L 356.8224 172.645156 
L 367.8224 172.645156 
" style="fill: none; stroke: #d499a7; stroke-width: 1.5; stroke-linecap: round"/>
   </g>
   <g id="text_19">
    <!-- 1 -->
    <g style="fill: #262626" transform="translate(376.6224 176.495156)scale(0.11 -0.11)">
     <use xlink:href="#DejaVuSans-31"/>
    </g>
   </g>
   <g id="line2d_26">
    <path d="M 345.8224 188.791094 
L 356.8224 188.791094 
L 367.8224 188.791094 
" style="fill: none; stroke: #a9678f; stroke-width: 1.5; stroke-linecap: round"/>
   </g>
   <g id="text_20">
    <!-- 2 -->
    <g style="fill: #262626" transform="translate(376.6224 192.641094)scale(0.11 -0.11)">
     <use xlink:href="#DejaVuSans-32"/>
    </g>
   </g>
   <g id="line2d_27">
    <path d="M 345.8224 204.937031 
L 356.8224 204.937031 
L 367.8224 204.937031 
" style="fill: none; stroke: #6c3f70; stroke-width: 1.5; stroke-linecap: round"/>
   </g>
   <g id="text_21">
    <!-- 3 -->
    <g style="fill: #262626" transform="translate(376.6224 208.787031)scale(0.11 -0.11)">
     <use xlink:href="#DejaVuSans-33"/>
    </g>
   </g>
   <g id="line2d_28">
    <path d="M 345.8224 221.082969 
L 356.8224 221.082969 
L 367.8224 221.082969 
" style="fill: none; stroke: #2d1e3e; stroke-width: 1.5; stroke-linecap: round"/>
   </g>
   <g id="text_22">
    <!-- 4 -->
    <g style="fill: #262626" transform="translate(376.6224 224.932969)scale(0.11 -0.11)">
     <use xlink:href="#DejaVuSans-34"/>
    </g>
   </g>
  </g>
 </g>
 <defs>
  <clipPath id="pb8f6715985">
   <rect x="53.31" y="22.318125" width="287.82495" height="296.82"/>
  </clipPath>
 </defs>
</svg>
