<?xml version="1.0" encoding="utf-8" standalone="no"?>
<!DOCTYPE svg PUBLIC "-//W3C//DTD SVG 1.1//EN"
  "http://www.w3.org/Graphics/SVG/1.1/DTD/svg11.dtd">
<svg xmlns:xlink="http://www.w3.org/1999/xlink" width="393.622805pt" height="362.097812pt" viewBox="0 0 393.622805 362.097812" xmlns="http://www.w3.org/2000/svg" version="1.1">
 <metadata>
  <rdf:RDF xmlns:dc="http://purl.org/dc/elements/1.1/" xmlns:cc="http://creativecommons.org/ns#" xmlns:rdf="http://www.w3.org/1999/02/22-rdf-syntax-ns#">
   <cc:Work>
    <dc:type rdf:resource="http://purl.org/dc/dcmitype/StillImage"/>
    <dc:date>2022-11-20T08:30:13.696422</dc:date>
    <dc:format>image/svg+xml</dc:format>
    <dc:creator>
     <cc:Agent>
      <dc:title>Matplotlib v3.5.2, https://matplotlib.org/</dc:title>
     </cc:Agent>
    </dc:creator>
   </cc:Work>
  </rdf:RDF>
 </metadata>
 <defs>
  <style type="text/css">*{stroke-linejoin: round; stroke-linecap: butt}</style>
 </defs>
 <g id="figure_1">
  <g id="patch_1">
   <path d="M 0 362.097812 
L 393.622805 362.097812 
L 393.622805 0 
L 0 0 
z
" style="fill: #ffffff"/>
  </g>
  <g id="axes_1">
   <g id="patch_2">
    <path d="M 53.31 319.138125 
L 341.236605 319.138125 
L 341.236605 22.318125 
L 53.31 22.318125 
z
" style="fill: #eaeaf2"/>
   </g>
   <g id="matplotlib.axis_1">
    <g id="xtick_1">
     <g id="line2d_1">
      <path d="M 66.397573 319.138125 
L 66.397573 22.318125 
" clip-path="url(#paacbfb9f09)" style="fill: none; stroke: #ffffff; stroke-linecap: round"/>
     </g>
     <g id="text_1">
      <!-- 0 -->
      <g style="fill: #262626" transform="translate(62.898198 336.996406)scale(0.11 -0.11)">
       <defs>
        <path id="DejaVuSans-30" d="M 2034 4250 
Q 1547 4250 1301 3770 
Q 1056 3291 1056 2328 
Q 1056 1369 1301 889 
Q 1547 409 2034 409 
Q 2525 409 2770 889 
Q 3016 1369 3016 2328 
Q 3016 3291 2770 3770 
Q 2525 4250 2034 4250 
z
M 2034 4750 
Q 2819 4750 3233 4129 
Q 3647 3509 3647 2328 
Q 3647 1150 3233 529 
Q 2819 -91 2034 -91 
Q 1250 -91 836 529 
Q 422 1150 422 2328 
Q 422 3509 836 4129 
Q 1250 4750 2034 4750 
z
" transform="scale(0.015625)"/>
       </defs>
       <use xlink:href="#DejaVuSans-30"/>
      </g>
     </g>
    </g>
    <g id="xtick_2">
     <g id="line2d_2">
      <path d="M 132.164271 319.138125 
L 132.164271 22.318125 
" clip-path="url(#paacbfb9f09)" style="fill: none; stroke: #ffffff; stroke-linecap: round"/>
     </g>
     <g id="text_2">
      <!-- 50 -->
      <g style="fill: #262626" transform="translate(125.165521 336.996406)scale(0.11 -0.11)">
       <defs>
        <path id="DejaVuSans-35" d="M 691 4666 
L 3169 4666 
L 3169 4134 
L 1269 4134 
L 1269 2991 
Q 1406 3038 1543 3061 
Q 1681 3084 1819 3084 
Q 2600 3084 3056 2656 
Q 3513 2228 3513 1497 
Q 3513 744 3044 326 
Q 2575 -91 1722 -91 
Q 1428 -91 1123 -41 
Q 819 9 494 109 
L 494 744 
Q 775 591 1075 516 
Q 1375 441 1709 441 
Q 2250 441 2565 725 
Q 2881 1009 2881 1497 
Q 2881 1984 2565 2268 
Q 2250 2553 1709 2553 
Q 1456 2553 1204 2497 
Q 953 2441 691 2322 
L 691 4666 
z
" transform="scale(0.015625)"/>
       </defs>
       <use xlink:href="#DejaVuSans-35"/>
       <use xlink:href="#DejaVuSans-30" x="63.623047"/>
      </g>
     </g>
    </g>
    <g id="xtick_3">
     <g id="line2d_3">
      <path d="M 197.930969 319.138125 
L 197.930969 22.318125 
" clip-path="url(#paacbfb9f09)" style="fill: none; stroke: #ffffff; stroke-linecap: round"/>
     </g>
     <g id="text_3">
      <!-- 100 -->
      <g style="fill: #262626" transform="translate(187.432844 336.996406)scale(0.11 -0.11)">
       <defs>
        <path id="DejaVuSans-31" d="M 794 531 
L 1825 531 
L 1825 4091 
L 703 3866 
L 703 4441 
L 1819 4666 
L 2450 4666 
L 2450 531 
L 3481 531 
L 3481 0 
L 794 0 
L 794 531 
z
" transform="scale(0.015625)"/>
       </defs>
       <use xlink:href="#DejaVuSans-31"/>
       <use xlink:href="#DejaVuSans-30" x="63.623047"/>
       <use xlink:href="#DejaVuSans-30" x="127.246094"/>
      </g>
     </g>
    </g>
    <g id="xtick_4">
     <g id="line2d_4">
      <path d="M 263.697668 319.138125 
L 263.697668 22.318125 
" clip-path="url(#paacbfb9f09)" style="fill: none; stroke: #ffffff; stroke-linecap: round"/>
     </g>
     <g id="text_4">
      <!-- 150 -->
      <g style="fill: #262626" transform="translate(253.199543 336.996406)scale(0.11 -0.11)">
       <use xlink:href="#DejaVuSans-31"/>
       <use xlink:href="#DejaVuSans-35" x="63.623047"/>
       <use xlink:href="#DejaVuSans-30" x="127.246094"/>
      </g>
     </g>
    </g>
    <g id="xtick_5">
     <g id="line2d_5">
      <path d="M 329.464366 319.138125 
L 329.464366 22.318125 
" clip-path="url(#paacbfb9f09)" style="fill: none; stroke: #ffffff; stroke-linecap: round"/>
     </g>
     <g id="text_5">
      <!-- 200 -->
      <g style="fill: #262626" transform="translate(318.966241 336.996406)scale(0.11 -0.11)">
       <defs>
        <path id="DejaVuSans-32" d="M 1228 531 
L 3431 531 
L 3431 0 
L 469 0 
L 469 531 
Q 828 903 1448 1529 
Q 2069 2156 2228 2338 
Q 2531 2678 2651 2914 
Q 2772 3150 2772 3378 
Q 2772 3750 2511 3984 
Q 2250 4219 1831 4219 
Q 1534 4219 1204 4116 
Q 875 4013 500 3803 
L 500 4441 
Q 881 4594 1212 4672 
Q 1544 4750 1819 4750 
Q 2544 4750 2975 4387 
Q 3406 4025 3406 3419 
Q 3406 3131 3298 2873 
Q 3191 2616 2906 2266 
Q 2828 2175 2409 1742 
Q 1991 1309 1228 531 
z
" transform="scale(0.015625)"/>
       </defs>
       <use xlink:href="#DejaVuSans-32"/>
       <use xlink:href="#DejaVuSans-30" x="63.623047"/>
       <use xlink:href="#DejaVuSans-30" x="127.246094"/>
      </g>
     </g>
    </g>
    <g id="text_6">
     <!-- Generation -->
     <g style="fill: #262626" transform="translate(163.80174 352.402187)scale(0.12 -0.12)">
      <defs>
       <path id="DejaVuSans-47" d="M 3809 666 
L 3809 1919 
L 2778 1919 
L 2778 2438 
L 4434 2438 
L 4434 434 
Q 4069 175 3628 42 
Q 3188 -91 2688 -91 
Q 1594 -91 976 548 
Q 359 1188 359 2328 
Q 359 3472 976 4111 
Q 1594 4750 2688 4750 
Q 3144 4750 3555 4637 
Q 3966 4525 4313 4306 
L 4313 3634 
Q 3963 3931 3569 4081 
Q 3175 4231 2741 4231 
Q 1884 4231 1454 3753 
Q 1025 3275 1025 2328 
Q 1025 1384 1454 906 
Q 1884 428 2741 428 
Q 3075 428 3337 486 
Q 3600 544 3809 666 
z
" transform="scale(0.015625)"/>
       <path id="DejaVuSans-65" d="M 3597 1894 
L 3597 1613 
L 953 1613 
Q 991 1019 1311 708 
Q 1631 397 2203 397 
Q 2534 397 2845 478 
Q 3156 559 3463 722 
L 3463 178 
Q 3153 47 2828 -22 
Q 2503 -91 2169 -91 
Q 1331 -91 842 396 
Q 353 884 353 1716 
Q 353 2575 817 3079 
Q 1281 3584 2069 3584 
Q 2775 3584 3186 3129 
Q 3597 2675 3597 1894 
z
M 3022 2063 
Q 3016 2534 2758 2815 
Q 2500 3097 2075 3097 
Q 1594 3097 1305 2825 
Q 1016 2553 972 2059 
L 3022 2063 
z
" transform="scale(0.015625)"/>
       <path id="DejaVuSans-6e" d="M 3513 2113 
L 3513 0 
L 2938 0 
L 2938 2094 
Q 2938 2591 2744 2837 
Q 2550 3084 2163 3084 
Q 1697 3084 1428 2787 
Q 1159 2491 1159 1978 
L 1159 0 
L 581 0 
L 581 3500 
L 1159 3500 
L 1159 2956 
Q 1366 3272 1645 3428 
Q 1925 3584 2291 3584 
Q 2894 3584 3203 3211 
Q 3513 2838 3513 2113 
z
" transform="scale(0.015625)"/>
       <path id="DejaVuSans-72" d="M 2631 2963 
Q 2534 3019 2420 3045 
Q 2306 3072 2169 3072 
Q 1681 3072 1420 2755 
Q 1159 2438 1159 1844 
L 1159 0 
L 581 0 
L 581 3500 
L 1159 3500 
L 1159 2956 
Q 1341 3275 1631 3429 
Q 1922 3584 2338 3584 
Q 2397 3584 2469 3576 
Q 2541 3569 2628 3553 
L 2631 2963 
z
" transform="scale(0.015625)"/>
       <path id="DejaVuSans-61" d="M 2194 1759 
Q 1497 1759 1228 1600 
Q 959 1441 959 1056 
Q 959 750 1161 570 
Q 1363 391 1709 391 
Q 2188 391 2477 730 
Q 2766 1069 2766 1631 
L 2766 1759 
L 2194 1759 
z
M 3341 1997 
L 3341 0 
L 2766 0 
L 2766 531 
Q 2569 213 2275 61 
Q 1981 -91 1556 -91 
Q 1019 -91 701 211 
Q 384 513 384 1019 
Q 384 1609 779 1909 
Q 1175 2209 1959 2209 
L 2766 2209 
L 2766 2266 
Q 2766 2663 2505 2880 
Q 2244 3097 1772 3097 
Q 1472 3097 1187 3025 
Q 903 2953 641 2809 
L 641 3341 
Q 956 3463 1253 3523 
Q 1550 3584 1831 3584 
Q 2591 3584 2966 3190 
Q 3341 2797 3341 1997 
z
" transform="scale(0.015625)"/>
       <path id="DejaVuSans-74" d="M 1172 4494 
L 1172 3500 
L 2356 3500 
L 2356 3053 
L 1172 3053 
L 1172 1153 
Q 1172 725 1289 603 
Q 1406 481 1766 481 
L 2356 481 
L 2356 0 
L 1766 0 
Q 1100 0 847 248 
Q 594 497 594 1153 
L 594 3053 
L 172 3053 
L 172 3500 
L 594 3500 
L 594 4494 
L 1172 4494 
z
" transform="scale(0.015625)"/>
       <path id="DejaVuSans-69" d="M 603 3500 
L 1178 3500 
L 1178 0 
L 603 0 
L 603 3500 
z
M 603 4863 
L 1178 4863 
L 1178 4134 
L 603 4134 
L 603 4863 
z
" transform="scale(0.015625)"/>
       <path id="DejaVuSans-6f" d="M 1959 3097 
Q 1497 3097 1228 2736 
Q 959 2375 959 1747 
Q 959 1119 1226 758 
Q 1494 397 1959 397 
Q 2419 397 2687 759 
Q 2956 1122 2956 1747 
Q 2956 2369 2687 2733 
Q 2419 3097 1959 3097 
z
M 1959 3584 
Q 2709 3584 3137 3096 
Q 3566 2609 3566 1747 
Q 3566 888 3137 398 
Q 2709 -91 1959 -91 
Q 1206 -91 779 398 
Q 353 888 353 1747 
Q 353 2609 779 3096 
Q 1206 3584 1959 3584 
z
" transform="scale(0.015625)"/>
      </defs>
      <use xlink:href="#DejaVuSans-47"/>
      <use xlink:href="#DejaVuSans-65" x="77.490234"/>
      <use xlink:href="#DejaVuSans-6e" x="139.013672"/>
      <use xlink:href="#DejaVuSans-65" x="202.392578"/>
      <use xlink:href="#DejaVuSans-72" x="263.916016"/>
      <use xlink:href="#DejaVuSans-61" x="305.029297"/>
      <use xlink:href="#DejaVuSans-74" x="366.308594"/>
      <use xlink:href="#DejaVuSans-69" x="405.517578"/>
      <use xlink:href="#DejaVuSans-6f" x="433.300781"/>
      <use xlink:href="#DejaVuSans-6e" x="494.482422"/>
     </g>
    </g>
   </g>
   <g id="matplotlib.axis_2">
    <g id="ytick_1">
     <g id="line2d_6">
      <path d="M 53.31 313.62782 
L 341.236605 313.62782 
" clip-path="url(#paacbfb9f09)" style="fill: none; stroke: #ffffff; stroke-linecap: round"/>
     </g>
     <g id="text_7">
      <!-- 0 -->
      <g style="fill: #262626" transform="translate(36.81125 317.80696)scale(0.11 -0.11)">
       <use xlink:href="#DejaVuSans-30"/>
      </g>
     </g>
    </g>
    <g id="ytick_2">
     <g id="line2d_7">
      <path d="M 53.31 259.498667 
L 341.236605 259.498667 
" clip-path="url(#paacbfb9f09)" style="fill: none; stroke: #ffffff; stroke-linecap: round"/>
     </g>
     <g id="text_8">
      <!-- 50 -->
      <g style="fill: #262626" transform="translate(29.8125 263.677807)scale(0.11 -0.11)">
       <use xlink:href="#DejaVuSans-35"/>
       <use xlink:href="#DejaVuSans-30" x="63.623047"/>
      </g>
     </g>
    </g>
    <g id="ytick_3">
     <g id="line2d_8">
      <path d="M 53.31 205.369514 
L 341.236605 205.369514 
" clip-path="url(#paacbfb9f09)" style="fill: none; stroke: #ffffff; stroke-linecap: round"/>
     </g>
     <g id="text_9">
      <!-- 100 -->
      <g style="fill: #262626" transform="translate(22.81375 209.548655)scale(0.11 -0.11)">
       <use xlink:href="#DejaVuSans-31"/>
       <use xlink:href="#DejaVuSans-30" x="63.623047"/>
       <use xlink:href="#DejaVuSans-30" x="127.246094"/>
      </g>
     </g>
    </g>
    <g id="ytick_4">
     <g id="line2d_9">
      <path d="M 53.31 151.240361 
L 341.236605 151.240361 
" clip-path="url(#paacbfb9f09)" style="fill: none; stroke: #ffffff; stroke-linecap: round"/>
     </g>
     <g id="text_10">
      <!-- 150 -->
      <g style="fill: #262626" transform="translate(22.81375 155.419502)scale(0.11 -0.11)">
       <use xlink:href="#DejaVuSans-31"/>
       <use xlink:href="#DejaVuSans-35" x="63.623047"/>
       <use xlink:href="#DejaVuSans-30" x="127.246094"/>
      </g>
     </g>
    </g>
    <g id="ytick_5">
     <g id="line2d_10">
      <path d="M 53.31 97.111209 
L 341.236605 97.111209 
" clip-path="url(#paacbfb9f09)" style="fill: none; stroke: #ffffff; stroke-linecap: round"/>
     </g>
     <g id="text_11">
      <!-- 200 -->
      <g style="fill: #262626" transform="translate(22.81375 101.290349)scale(0.11 -0.11)">
       <use xlink:href="#DejaVuSans-32"/>
       <use xlink:href="#DejaVuSans-30" x="63.623047"/>
       <use xlink:href="#DejaVuSans-30" x="127.246094"/>
      </g>
     </g>
    </g>
    <g id="ytick_6">
     <g id="line2d_11">
      <path d="M 53.31 42.982056 
L 341.236605 42.982056 
" clip-path="url(#paacbfb9f09)" style="fill: none; stroke: #ffffff; stroke-linecap: round"/>
     </g>
     <g id="text_12">
      <!-- 250 -->
      <g style="fill: #262626" transform="translate(22.81375 47.161197)scale(0.11 -0.11)">
       <use xlink:href="#DejaVuSans-32"/>
       <use xlink:href="#DejaVuSans-35" x="63.623047"/>
       <use xlink:href="#DejaVuSans-30" x="127.246094"/>
      </g>
     </g>
    </g>
    <g id="text_13">
     <!-- Fitness -->
     <g style="fill: #262626" transform="translate(16.318125 191.50875)rotate(-90)scale(0.12 -0.12)">
      <defs>
       <path id="DejaVuSans-46" d="M 628 4666 
L 3309 4666 
L 3309 4134 
L 1259 4134 
L 1259 2759 
L 3109 2759 
L 3109 2228 
L 1259 2228 
L 1259 0 
L 628 0 
L 628 4666 
z
" transform="scale(0.015625)"/>
       <path id="DejaVuSans-73" d="M 2834 3397 
L 2834 2853 
Q 2591 2978 2328 3040 
Q 2066 3103 1784 3103 
Q 1356 3103 1142 2972 
Q 928 2841 928 2578 
Q 928 2378 1081 2264 
Q 1234 2150 1697 2047 
L 1894 2003 
Q 2506 1872 2764 1633 
Q 3022 1394 3022 966 
Q 3022 478 2636 193 
Q 2250 -91 1575 -91 
Q 1294 -91 989 -36 
Q 684 19 347 128 
L 347 722 
Q 666 556 975 473 
Q 1284 391 1588 391 
Q 1994 391 2212 530 
Q 2431 669 2431 922 
Q 2431 1156 2273 1281 
Q 2116 1406 1581 1522 
L 1381 1569 
Q 847 1681 609 1914 
Q 372 2147 372 2553 
Q 372 3047 722 3315 
Q 1072 3584 1716 3584 
Q 2034 3584 2315 3537 
Q 2597 3491 2834 3397 
z
" transform="scale(0.015625)"/>
      </defs>
      <use xlink:href="#DejaVuSans-46"/>
      <use xlink:href="#DejaVuSans-69" x="50.269531"/>
      <use xlink:href="#DejaVuSans-74" x="78.052734"/>
      <use xlink:href="#DejaVuSans-6e" x="117.261719"/>
      <use xlink:href="#DejaVuSans-65" x="180.640625"/>
      <use xlink:href="#DejaVuSans-73" x="242.164062"/>
      <use xlink:href="#DejaVuSans-73" x="294.263672"/>
     </g>
    </g>
   </g>
   <g id="PolyCollection_1">
    <defs>
     <path id="m79ac363394" d="M 66.397573 -96.138324 
L 66.397573 -60.208407 
L 67.712907 -107.098632 
L 69.028241 -129.998646 
L 70.343575 -149.006436 
L 71.658909 -148.233405 
L 72.974243 -180.373435 
L 74.289577 -208.182287 
L 75.604911 -189.814743 
L 76.920245 -231.012103 
L 78.235579 -224.931031 
L 79.550913 -256.325939 
L 80.866247 -226.013614 
L 82.181581 -242.25236 
L 83.496915 -267.15177 
L 84.812248 -264.986604 
L 86.127582 -247.665275 
L 87.442916 -235.756861 
L 88.75825 -250.676209 
L 90.073584 -268.843306 
L 91.388918 -270.696384 
L 92.704252 -273.410453 
L 94.019586 -273.410453 
L 95.33492 -282.916886 
L 96.650254 -263.796608 
L 97.965588 -270.467181 
L 99.280922 -267.522216 
L 100.596256 -264.748097 
L 101.91159 -280.506447 
L 103.226924 -270.70315 
L 104.542258 -294.316993 
L 105.857592 -274.908308 
L 107.172926 -277.015962 
L 108.48826 -296.20813 
L 109.803594 -283.822703 
L 111.118928 -303.079995 
L 112.434262 -280.033663 
L 113.749596 -280.344059 
L 115.06493 -306.495206 
L 116.380264 -290.147356 
L 117.695598 -274.391544 
L 119.010932 -275.068159 
L 120.326266 -280.138538 
L 121.641599 -314.953732 
L 122.956933 -260.883783 
L 124.272267 -288.363632 
L 125.587601 -293.03058 
L 126.902935 -289.006415 
L 128.218269 -267.252416 
L 129.533603 -315.05607 
L 130.848937 -316.136116 
L 132.164271 -317.217853 
L 133.479605 -279.544809 
L 134.794939 -293.235255 
L 136.110273 -311.199368 
L 137.425607 -309.372509 
L 138.740941 -292.727795 
L 140.056275 -291.06586 
L 141.371609 -317.052083 
L 142.686943 -317.728697 
L 144.002277 -293.636995 
L 145.317611 -320.536647 
L 146.632945 -297.802403 
L 147.948279 -297.802403 
L 149.263613 -280.481074 
L 150.578947 -320.536647 
L 151.894281 -320.19834 
L 153.209615 -320.19834 
L 154.524949 -296.381512 
L 155.840283 -320.19834 
L 157.155617 -322.363506 
L 158.470951 -297.437031 
L 159.786284 -297.464095 
L 161.101618 -320.19834 
L 162.416952 -322.363506 
L 163.732286 -322.363506 
L 165.04762 -322.363506 
L 166.362954 -299.629262 
L 167.678288 -297.464095 
L 168.993622 -318.033174 
L 170.308956 -280.142767 
L 171.62429 -320.029186 
L 172.939624 -317.559543 
L 174.254958 -277.96576 
L 175.570292 -295.298929 
L 176.885626 -318.033174 
L 178.20096 -296.24619 
L 179.516294 -319.115757 
L 180.831628 -315.05607 
L 182.146962 -316.273976 
L 183.462296 -317.488499 
L 184.77763 -294.351669 
L 186.092964 -290.968597 
L 187.408298 -272.564685 
L 188.723632 -322.363506 
L 190.038966 -316.273976 
L 191.3543 -313.16155 
L 192.669634 -295.298929 
L 193.984968 -320.19834 
L 195.300302 -296.381512 
L 196.615636 -280.545352 
L 197.930969 -299.629262 
L 199.246303 -299.629262 
L 200.561637 -282.307933 
L 201.876971 -325.611255 
L 203.192305 -325.611255 
L 204.507639 -296.516835 
L 205.822973 -322.363506 
L 207.138307 -317.153575 
L 208.453641 -297.396434 
L 209.768975 -299.629262 
L 211.084309 -280.27809 
L 212.399643 -325.611255 
L 213.714977 -299.629262 
L 215.030311 -319.521725 
L 216.345645 -317.491882 
L 217.660979 -317.356559 
L 218.976313 -322.363506 
L 220.291647 -282.443256 
L 221.606981 -282.307933 
L 222.922315 -325.611255 
L 224.237649 -299.629262 
L 225.552983 -282.307933 
L 226.868317 -325.611255 
L 228.183651 -264.986604 
L 229.498985 -299.629262 
L 230.814319 -325.611255 
L 232.129653 -325.611255 
L 233.444987 -325.611255 
L 234.760321 -299.629262 
L 236.075654 -299.629262 
L 237.390988 -299.629262 
L 238.706322 -325.611255 
L 240.021656 -325.611255 
L 241.33699 -296.381512 
L 242.652324 -319.115757 
L 243.967658 -315.868007 
L 245.282992 -310.725738 
L 246.598326 -307.410327 
L 247.91366 -293.133763 
L 249.228994 -315.052687 
L 250.544328 -297.464095 
L 251.859662 -297.409966 
L 253.174996 -296.327383 
L 254.49033 -325.611255 
L 255.805664 -322.363506 
L 257.120998 -281.22535 
L 258.436332 -322.363506 
L 259.751666 -300.03523 
L 261.067 -325.611255 
L 262.382334 -292.802222 
L 263.697668 -295.095945 
L 265.013002 -318.81128 
L 266.328336 -318.81128 
L 267.64367 -322.363506 
L 268.959004 -297.464095 
L 270.274338 -298.005387 
L 271.589672 -320.19834 
L 272.905006 -318.033174 
L 274.220339 -277.774616 
L 275.535673 -281.195748 
L 276.851007 -320.19834 
L 278.166341 -312.090807 
L 279.481675 -311.030214 
L 280.797009 -290.664121 
L 282.112343 -293.029734 
L 283.427677 -320.19834 
L 284.743011 -277.873571 
L 286.058345 -320.19834 
L 287.373679 -297.464095 
L 288.689013 -322.363506 
L 290.004347 -297.464095 
L 291.319681 -320.19834 
L 292.635015 -281.22535 
L 293.950349 -325.611255 
L 295.265683 -325.611255 
L 296.581017 -325.611255 
L 297.896351 -325.611255 
L 299.211685 -322.363506 
L 300.527019 -281.22535 
L 301.842353 -297.464095 
L 303.157687 -300.515626 
L 304.473021 -295.298929 
L 305.788355 -296.381512 
L 307.103689 -322.363506 
L 308.419023 -322.363506 
L 309.734357 -319.115757 
L 311.04969 -303.452133 
L 312.365024 -297.870064 
L 313.680358 -296.381512 
L 314.995692 -322.363506 
L 316.311026 -325.611255 
L 317.62636 -299.629262 
L 318.941694 -325.611255 
L 320.257028 -299.629262 
L 321.572362 -325.611255 
L 322.887696 -299.629262 
L 324.20303 -325.611255 
L 325.518364 -282.307933 
L 326.833698 -325.205286 
L 328.149032 -325.205286 
L 328.149032 -325.611255 
L 328.149032 -325.611255 
L 326.833698 -325.611255 
L 325.518364 -325.611255 
L 324.20303 -325.611255 
L 322.887696 -325.611255 
L 321.572362 -325.611255 
L 320.257028 -325.611255 
L 318.941694 -325.611255 
L 317.62636 -325.611255 
L 316.311026 -325.611255 
L 314.995692 -325.611255 
L 313.680358 -325.611255 
L 312.365024 -325.611255 
L 311.04969 -325.611255 
L 309.734357 -325.611255 
L 308.419023 -325.611255 
L 307.103689 -325.611255 
L 305.788355 -325.611255 
L 304.473021 -324.528672 
L 303.157687 -325.611255 
L 301.842353 -325.611255 
L 300.527019 -325.611255 
L 299.211685 -325.611255 
L 297.896351 -325.611255 
L 296.581017 -325.611255 
L 295.265683 -325.611255 
L 293.950349 -325.611255 
L 292.635015 -323.446089 
L 291.319681 -325.611255 
L 290.004347 -325.611255 
L 288.689013 -325.611255 
L 287.373679 -325.611255 
L 286.058345 -325.611255 
L 284.743011 -324.528672 
L 283.427677 -325.611255 
L 282.112343 -324.528672 
L 280.797009 -324.528672 
L 279.481675 -324.528672 
L 278.166341 -324.528672 
L 276.851007 -325.611255 
L 275.535673 -324.528672 
L 274.220339 -321.077938 
L 272.905006 -325.611255 
L 271.589672 -325.611255 
L 270.274338 -325.611255 
L 268.959004 -325.611255 
L 267.64367 -325.611255 
L 266.328336 -325.611255 
L 265.013002 -325.611255 
L 263.697668 -325.611255 
L 262.382334 -325.611255 
L 261.067 -325.611255 
L 259.751666 -325.611255 
L 258.436332 -325.611255 
L 257.120998 -324.528672 
L 255.805664 -325.611255 
L 254.49033 -325.611255 
L 253.174996 -325.611255 
L 251.859662 -325.611255 
L 250.544328 -325.881901 
L 249.228994 -324.528672 
L 247.91366 -323.446089 
L 246.598326 -321.280923 
L 245.282992 -322.363506 
L 243.967658 -324.528672 
L 242.652324 -325.611255 
L 241.33699 -325.611255 
L 240.021656 -325.611255 
L 238.706322 -325.611255 
L 237.390988 -325.611255 
L 236.075654 -325.611255 
L 234.760321 -325.611255 
L 233.444987 -325.611255 
L 232.129653 -325.611255 
L 230.814319 -325.611255 
L 229.498985 -325.611255 
L 228.183651 -325.611255 
L 226.868317 -325.611255 
L 225.552983 -325.611255 
L 224.237649 -325.611255 
L 222.922315 -325.611255 
L 221.606981 -325.611255 
L 220.291647 -325.881901 
L 218.976313 -326.017224 
L 217.660979 -325.611255 
L 216.345645 -325.611255 
L 215.030311 -325.611255 
L 213.714977 -325.611255 
L 212.399643 -325.611255 
L 211.084309 -325.611255 
L 209.768975 -326.017224 
L 208.453641 -325.881901 
L 207.138307 -325.611255 
L 205.822973 -326.017224 
L 204.507639 -325.746578 
L 203.192305 -326.287869 
L 201.876971 -326.287869 
L 200.561637 -325.881901 
L 199.246303 -326.017224 
L 197.930969 -326.017224 
L 196.615636 -324.663995 
L 195.300302 -325.611255 
L 193.984968 -325.611255 
L 192.669634 -325.611255 
L 191.3543 -324.528672 
L 190.038966 -325.611255 
L 188.723632 -325.611255 
L 187.408298 -323.446089 
L 186.092964 -325.611255 
L 184.77763 -325.611255 
L 183.462296 -325.611255 
L 182.146962 -325.611255 
L 180.831628 -324.528672 
L 179.516294 -325.611255 
L 178.20096 -325.475932 
L 176.885626 -325.611255 
L 175.570292 -324.528672 
L 174.254958 -324.528672 
L 172.939624 -325.611255 
L 171.62429 -325.611255 
L 170.308956 -323.446089 
L 168.993622 -325.611255 
L 167.678288 -325.611255 
L 166.362954 -325.611255 
L 165.04762 -325.611255 
L 163.732286 -325.611255 
L 162.416952 -325.611255 
L 161.101618 -325.611255 
L 159.786284 -325.611255 
L 158.470951 -325.611255 
L 157.155617 -325.611255 
L 155.840283 -325.611255 
L 154.524949 -325.611255 
L 153.209615 -325.611255 
L 151.894281 -325.611255 
L 150.578947 -325.611255 
L 149.263613 -325.611255 
L 147.948279 -325.611255 
L 146.632945 -325.611255 
L 145.317611 -325.611255 
L 144.002277 -323.989072 
L 142.686943 -324.697825 
L 141.371609 -324.528672 
L 140.056275 -322.870967 
L 138.740941 -322.870967 
L 137.425607 -321.044108 
L 136.110273 -321.957537 
L 134.794939 -322.870967 
L 133.479605 -322.870967 
L 132.164271 -324.528672 
L 130.848937 -324.528672 
L 129.533603 -323.615242 
L 128.218269 -317.458051 
L 126.902935 -320.808138 
L 125.587601 -321.519429 
L 124.272267 -320.570478 
L 122.956933 -318.511878 
L 121.641599 -323.04012 
L 120.326266 -322.262014 
L 119.010932 -318.845111 
L 117.695598 -318.237849 
L 116.380264 -319.386402 
L 115.06493 -318.303819 
L 113.749596 -313.265579 
L 112.434262 -313.535379 
L 111.118928 -314.920747 
L 109.803594 -314.076671 
L 108.48826 -311.503844 
L 107.172926 -311.673844 
L 105.857592 -309.271017 
L 104.542258 -312.588119 
L 103.226924 -309.784398 
L 101.91159 -308.86674 
L 100.596256 -306.703265 
L 99.280922 -301.389305 
L 97.965588 -301.763134 
L 96.650254 -297.502155 
L 95.33492 -299.426277 
L 94.019586 -288.938754 
L 92.704252 -289.784522 
L 91.388918 -285.386528 
L 90.073584 -283.766037 
L 88.75825 -279.669137 
L 87.442916 -276.895017 
L 86.127582 -277.977601 
L 84.812248 -275.812434 
L 83.496915 -277.977601 
L 82.181581 -270.399519 
L 80.866247 -262.821438 
L 79.550913 -263.904021 
L 78.235579 -258.491106 
L 76.920245 -257.408522 
L 75.604911 -242.523005 
L 74.289577 -247.396321 
L 72.974243 -229.471114 
L 71.658909 -205.962146 
L 70.343575 -203.112753 
L 69.028241 -178.996524 
L 67.712907 -154.105572 
L 66.397573 -96.138324 
z
" style="stroke: #edd1cb; stroke-opacity: 0.2"/>
    </defs>
    <g clip-path="url(#paacbfb9f09)">
     <use xlink:href="#m79ac363394" x="0" y="362.097812" style="fill: #edd1cb; fill-opacity: 0.2; stroke: #edd1cb; stroke-opacity: 0.2"/>
    </g>
   </g>
   <g id="PolyCollection_2">
    <defs>
     <path id="m1ec63f5958" d="M 66.397573 -100.569302 
L 66.397573 -68.665242 
L 67.712907 -123.202054 
L 69.028241 -133.349579 
L 70.343575 -123.60464 
L 71.658909 -129.56223 
L 72.974243 -137.61225 
L 74.289577 -148.742557 
L 75.604911 -144.342872 
L 76.920245 -162.104 
L 78.235579 -164.42817 
L 79.550913 -189.667579 
L 80.866247 -206.084782 
L 82.181581 -222.35313 
L 83.496915 -225.167 
L 84.812248 -227.50132 
L 86.127582 -236.363277 
L 87.442916 -240.04998 
L 88.75825 -236.693972 
L 90.073584 -253.715054 
L 91.388918 -254.190375 
L 92.704252 -239.645703 
L 94.019586 -255.172312 
L 95.33492 -271.613196 
L 96.650254 -249.383876 
L 97.965588 -262.821438 
L 99.280922 -261.397164 
L 100.596256 -244.316034 
L 101.91159 -259.267521 
L 103.226924 -222.085867 
L 104.542258 -275.710942 
L 105.857592 -227.163013 
L 107.172926 -237.137155 
L 108.48826 -232.603838 
L 109.803594 -273.521249 
L 111.118928 -266.813463 
L 112.434262 -278.045262 
L 113.749596 -243.706235 
L 115.06493 -245.961898 
L 116.380264 -255.378679 
L 117.695598 -258.485185 
L 119.010932 -253.619482 
L 120.326266 -237.042429 
L 121.641599 -260.893087 
L 122.956933 -262.110993 
L 124.272267 -253.851222 
L 125.587601 -266.244261 
L 126.902935 -241.640024 
L 128.218269 -231.295435 
L 129.533603 -264.43178 
L 130.848937 -245.692098 
L 132.164271 -241.025996 
L 133.479605 -269.925889 
L 134.794939 -258.22046 
L 136.110273 -249.109847 
L 137.425607 -235.57333 
L 138.740941 -239.850379 
L 140.056275 -265.831526 
L 141.371609 -263.464221 
L 142.686943 -255.277187 
L 144.002277 -266.982616 
L 145.317611 -260.779754 
L 146.632945 -256.663401 
L 147.948279 -274.865174 
L 149.263613 -249.044723 
L 150.578947 -270.940811 
L 151.894281 -230.707626 
L 153.209615 -260.276522 
L 154.524949 -284.033299 
L 155.840283 -275.981588 
L 157.155617 -254.246196 
L 158.470951 -247.853035 
L 159.786284 -257.675785 
L 161.101618 -269.889521 
L 162.416952 -249.830441 
L 163.732286 -244.316034 
L 165.04762 -246.736622 
L 166.362954 -235.514126 
L 167.678288 -257.369617 
L 168.993622 -240.962563 
L 170.308956 -235.213878 
L 171.62429 -264.510436 
L 172.939624 -259.705628 
L 174.254958 -265.595557 
L 175.570292 -263.734867 
L 176.885626 -275.000497 
L 178.20096 -292.05118 
L 179.516294 -277.233325 
L 180.831628 -277.740785 
L 182.146962 -232.976822 
L 183.462296 -259.506027 
L 184.77763 -280.379582 
L 186.092964 -261.603532 
L 187.408298 -252.807544 
L 188.723632 -270.534842 
L 190.038966 -240.628485 
L 191.3543 -234.493284 
L 192.669634 -244.753296 
L 193.984968 -248.80537 
L 195.300302 -274.391544 
L 196.615636 -256.089124 
L 197.930969 -268.064354 
L 199.246303 -269.418428 
L 200.561637 -271.143795 
L 201.876971 -292.05118 
L 203.192305 -259.009561 
L 204.507639 -266.737344 
L 205.822973 -245.159264 
L 207.138307 -243.774742 
L 208.453641 -233.893634 
L 209.768975 -240.412814 
L 211.084309 -246.164883 
L 212.399643 -242.08236 
L 213.714977 -285.183544 
L 215.030311 -285.159017 
L 216.345645 -276.08308 
L 217.660979 -274.120898 
L 218.976313 -281.191519 
L 220.291647 -241.670471 
L 221.606981 -271.277426 
L 222.922315 -252.771176 
L 224.237649 -271.312103 
L 225.552983 -283.728823 
L 226.868317 -249.587706 
L 228.183651 -257.303647 
L 229.498985 -256.595739 
L 230.814319 -252.128393 
L 232.129653 -246.412693 
L 233.444987 -241.324552 
L 234.760321 -262.630294 
L 236.075654 -289.107908 
L 237.390988 -252.097099 
L 238.706322 -248.916166 
L 240.021656 -253.451174 
L 241.33699 -245.315731 
L 242.652324 -259.607519 
L 243.967658 -268.978629 
L 245.282992 -220.496669 
L 246.598326 -259.5314 
L 247.91366 -260.992042 
L 249.228994 -281.665149 
L 250.544328 -254.965099 
L 251.859662 -249.791536 
L 253.174996 -245.432447 
L 254.49033 -243.222456 
L 255.805664 -277.816905 
L 257.120998 -255.525843 
L 258.436332 -274.899005 
L 259.751666 -255.716986 
L 261.067 -264.614466 
L 262.382334 -254.661468 
L 263.697668 -262.234475 
L 265.013002 -275.304974 
L 266.328336 -268.166692 
L 267.64367 -231.593145 
L 268.959004 -251.826454 
L 270.274338 -261.50204 
L 271.589672 -270.230366 
L 272.905006 -257.036385 
L 274.220339 -257.102354 
L 275.535673 -250.639841 
L 276.851007 -260.216472 
L 278.166341 -292.05118 
L 279.481675 -281.394503 
L 280.797009 -258.186629 
L 282.112343 -246.443986 
L 283.427677 -267.422416 
L 284.743011 -245.596526 
L 286.058345 -255.609574 
L 287.373679 -262.990591 
L 288.689013 -277.233325 
L 290.004347 -268.877137 
L 291.319681 -255.344849 
L 292.635015 -275.000497 
L 293.950349 -242.653254 
L 295.265683 -260.013488 
L 296.581017 -263.836359 
L 297.896351 -248.917012 
L 299.211685 -267.896046 
L 300.527019 -258.051306 
L 301.842353 -271.322252 
L 303.157687 -257.701158 
L 304.473021 -237.785859 
L 305.788355 -246.614831 
L 307.103689 -245.051852 
L 308.419023 -274.256221 
L 309.734357 -248.17189 
L 311.04969 -258.893691 
L 312.365024 -258.1824 
L 313.680358 -241.777038 
L 314.995692 -252.333914 
L 316.311026 -252.266253 
L 317.62636 -245.796973 
L 318.941694 -252.528441 
L 320.257028 -261.50204 
L 321.572362 -265.209041 
L 322.887696 -282.713901 
L 324.20303 -253.215205 
L 325.518364 -263.430391 
L 326.833698 -273.884083 
L 328.149032 -248.674276 
L 328.149032 -287.754679 
L 328.149032 -287.754679 
L 326.833698 -292.05118 
L 325.518364 -292.05118 
L 324.20303 -292.05118 
L 322.887696 -292.05118 
L 321.572362 -292.05118 
L 320.257028 -292.05118 
L 318.941694 -289.716861 
L 317.62636 -283.122407 
L 316.311026 -286.739757 
L 314.995692 -288.363632 
L 313.680358 -283.931807 
L 312.365024 -287.111895 
L 311.04969 -285.800955 
L 309.734357 -283.839619 
L 308.419023 -290.088998 
L 307.103689 -285.115883 
L 305.788355 -283.153701 
L 304.473021 -282.208132 
L 303.157687 -289.107908 
L 301.842353 -292.05118 
L 300.527019 -292.05118 
L 299.211685 -292.05118 
L 297.896351 -292.05118 
L 296.581017 -292.05118 
L 295.265683 -292.05118 
L 293.950349 -285.48802 
L 292.635015 -292.05118 
L 291.319681 -292.05118 
L 290.004347 -292.05118 
L 288.689013 -292.05118 
L 287.373679 -292.05118 
L 286.058345 -292.05118 
L 284.743011 -285.92782 
L 283.427677 -292.05118 
L 282.112343 -289.480045 
L 280.797009 -292.05118 
L 279.481675 -292.05118 
L 278.166341 -292.05118 
L 276.851007 -292.05118 
L 275.535673 -288.498955 
L 274.220339 -292.05118 
L 272.905006 -292.05118 
L 271.589672 -292.05118 
L 270.274338 -292.05118 
L 268.959004 -288.059155 
L 267.64367 -282.443256 
L 266.328336 -292.05118 
L 265.013002 -292.05118 
L 263.697668 -290.47636 
L 262.382334 -290.461136 
L 261.067 -291.070089 
L 259.751666 -292.05118 
L 258.436332 -292.05118 
L 257.120998 -292.05118 
L 255.805664 -292.05118 
L 254.49033 -284.337776 
L 253.174996 -287.382541 
L 251.859662 -288.363632 
L 250.544328 -290.359644 
L 249.228994 -292.05118 
L 247.91366 -289.716861 
L 246.598326 -287.517864 
L 245.282992 -272.534238 
L 243.967658 -292.05118 
L 242.652324 -292.05118 
L 241.33699 -288.498955 
L 240.021656 -288.498955 
L 238.706322 -285.932049 
L 237.390988 -291.070089 
L 236.075654 -292.05118 
L 234.760321 -292.05118 
L 233.444987 -284.982251 
L 232.129653 -286.22553 
L 230.814319 -287.653187 
L 229.498985 -290.088998 
L 228.183651 -290.088998 
L 226.868317 -288.871092 
L 225.552983 -292.05118 
L 224.237649 -290.088998 
L 222.922315 -283.796484 
L 221.606981 -290.088998 
L 220.291647 -283.392207 
L 218.976313 -291.070089 
L 217.660979 -290.088998 
L 216.345645 -291.070089 
L 215.030311 -291.070089 
L 213.714977 -292.05118 
L 212.399643 -280.651919 
L 211.084309 -282.715593 
L 209.768975 -281.734502 
L 208.453641 -280.048041 
L 207.138307 -280.448089 
L 205.822973 -284.50693 
L 204.507639 -292.05118 
L 203.192305 -292.05118 
L 201.876971 -292.05118 
L 200.561637 -292.05118 
L 199.246303 -292.05118 
L 197.930969 -292.05118 
L 196.615636 -292.05118 
L 195.300302 -292.05118 
L 193.984968 -289.412384 
L 192.669634 -285.589513 
L 191.3543 -280.914953 
L 190.038966 -287.34871 
L 188.723632 -292.05118 
L 187.408298 -292.05118 
L 186.092964 -292.05118 
L 184.77763 -292.05118 
L 183.462296 -292.05118 
L 182.146962 -284.845237 
L 180.831628 -292.05118 
L 179.516294 -292.05118 
L 178.20096 -292.05118 
L 176.885626 -292.05118 
L 175.570292 -292.05118 
L 174.254958 -292.05118 
L 172.939624 -289.074077 
L 171.62429 -287.184631 
L 170.308956 -277.339891 
L 168.993622 -281.973854 
L 167.678288 -288.126817 
L 166.362954 -283.459869 
L 165.04762 -285.555682 
L 163.732286 -284.781804 
L 162.416952 -286.435281 
L 161.101618 -291.070089 
L 159.786284 -288.701939 
L 158.470951 -286.113043 
L 157.155617 -286.739757 
L 155.840283 -292.05118 
L 154.524949 -292.05118 
L 153.209615 -290.377405 
L 151.894281 -282.186142 
L 150.578947 -292.05118 
L 149.263613 -286.232296 
L 147.948279 -292.05118 
L 146.632945 -292.05118 
L 145.317611 -292.05118 
L 144.002277 -292.05118 
L 142.686943 -292.05118 
L 141.371609 -292.05118 
L 140.056275 -290.359644 
L 138.740941 -286.337172 
L 137.425607 -282.158232 
L 136.110273 -287.720848 
L 134.794939 -289.480045 
L 133.479605 -292.05118 
L 132.164271 -285.48802 
L 130.848937 -285.115883 
L 129.533603 -290.359644 
L 128.218269 -280.177443 
L 126.902935 -282.740966 
L 125.587601 -292.05118 
L 124.272267 -288.498955 
L 122.956933 -292.05118 
L 121.641599 -292.05118 
L 120.326266 -283.221362 
L 119.010932 -287.281049 
L 117.695598 -290.088998 
L 116.380264 -292.05118 
L 115.06493 -287.923832 
L 113.749596 -286.942741 
L 112.434262 -292.05118 
L 111.118928 -292.05118 
L 109.803594 -292.05118 
L 108.48826 -280.853212 
L 107.172926 -280.318686 
L 105.857592 -275.880096 
L 104.542258 -292.05118 
L 103.226924 -275.781141 
L 101.91159 -288.498955 
L 100.596256 -286.773588 
L 99.280922 -292.05118 
L 97.965588 -286.773588 
L 96.650254 -285.860158 
L 95.33492 -292.05118 
L 94.019586 -285.869462 
L 92.704252 -279.669982 
L 91.388918 -286.773588 
L 90.073584 -286.773588 
L 88.75825 -280.760177 
L 87.442916 -286.773588 
L 86.127582 -279.13292 
L 84.812248 -274.18856 
L 83.496915 -269.283105 
L 82.181581 -272.165483 
L 80.866247 -254.235201 
L 79.550913 -244.283894 
L 78.235579 -217.657426 
L 76.920245 -214.145797 
L 75.604911 -194.693979 
L 74.289577 -195.803626 
L 72.974243 -172.970427 
L 71.658909 -163.199269 
L 70.343575 -161.33858 
L 69.028241 -165.028666 
L 67.712907 -154.800793 
L 66.397573 -100.569302 
z
" style="stroke: #d499a7; stroke-opacity: 0.2"/>
    </defs>
    <g clip-path="url(#paacbfb9f09)">
     <use xlink:href="#m1ec63f5958" x="0" y="362.097812" style="fill: #d499a7; fill-opacity: 0.2; stroke: #d499a7; stroke-opacity: 0.2"/>
    </g>
   </g>
   <g id="PolyCollection_3">
    <defs>
     <path id="m2733696991" d="M 66.397573 -81.794944 
L 66.397573 -56.451506 
L 67.712907 -110.545136 
L 69.028241 -117.585309 
L 70.343575 -118.937692 
L 71.658909 -112.002394 
L 72.974243 -118.161277 
L 74.289577 -127.122189 
L 75.604911 -116.537403 
L 76.920245 -117.34934 
L 78.235579 -122.119471 
L 79.550913 -128.716462 
L 80.866247 -131.216552 
L 82.181581 -125.023839 
L 83.496915 -131.319736 
L 84.812248 -142.244521 
L 86.127582 -144.038395 
L 87.442916 -157.029392 
L 88.75825 -155.711685 
L 90.073584 -161.289525 
L 91.388918 -163.763397 
L 92.704252 -183.655015 
L 94.019586 -192.248863 
L 95.33492 -202.060618 
L 96.650254 -193.265476 
L 97.965588 -214.408831 
L 99.280922 -205.7414 
L 100.596256 -204.493047 
L 101.91159 -204.868568 
L 103.226924 -222.461388 
L 104.542258 -206.796073 
L 105.857592 -210.612178 
L 107.172926 -198.405209 
L 108.48826 -204.598768 
L 109.803594 -209.99223 
L 111.118928 -210.887053 
L 112.434262 -207.437165 
L 113.749596 -225.742968 
L 115.06493 -208.489301 
L 116.380264 -208.623778 
L 117.695598 -206.831595 
L 119.010932 -222.08925 
L 120.326266 -220.363884 
L 121.641599 -214.274354 
L 122.956933 -231.426529 
L 124.272267 -195.867059 
L 125.587601 -216.43952 
L 126.902935 -231.426529 
L 128.218269 -220.972837 
L 129.533603 -212.718141 
L 130.848937 -214.104355 
L 132.164271 -201.722311 
L 133.479605 -221.277313 
L 134.794939 -199.08436 
L 136.110273 -204.219018 
L 137.425607 -195.904273 
L 138.740941 -219.348962 
L 140.056275 -192.080556 
L 141.371609 -201.485496 
L 142.686943 -203.239619 
L 144.002277 -210.101335 
L 145.317611 -195.324922 
L 146.632945 -212.244511 
L 147.948279 -197.322626 
L 149.263613 -214.815645 
L 150.578947 -219.687269 
L 151.894281 -201.279128 
L 153.209615 -206.899257 
L 154.524949 -209.329994 
L 155.840283 -214.003708 
L 157.155617 -208.353978 
L 158.470951 -207.495523 
L 159.786284 -231.426529 
L 161.101618 -209.639545 
L 162.416952 -231.426529 
L 163.732286 -220.769852 
L 165.04762 -214.07137 
L 166.362954 -193.975922 
L 167.678288 -231.426529 
L 168.993622 -211.940034 
L 170.308956 -193.827912 
L 171.62429 -190.897326 
L 172.939624 -203.138972 
L 174.254958 -213.597739 
L 175.570292 -198.878839 
L 176.885626 -187.779825 
L 178.20096 -197.216905 
L 179.516294 -216.743151 
L 180.831628 -225.84446 
L 182.146962 -210.755959 
L 183.462296 -204.833046 
L 184.77763 -200.564454 
L 186.092964 -200.836792 
L 187.408298 -207.809303 
L 188.723632 -210.471781 
L 190.038966 -210.722128 
L 191.3543 -190.320512 
L 192.669634 -195.695368 
L 193.984968 -202.060618 
L 195.300302 -199.727144 
L 196.615636 -187.036395 
L 197.930969 -192.24548 
L 199.246303 -199.659483 
L 200.561637 -207.575871 
L 201.876971 -206.222642 
L 203.192305 -213.861619 
L 204.507639 -218.063395 
L 205.822973 -213.968186 
L 207.138307 -204.657126 
L 208.453641 -201.926141 
L 209.768975 -197.995011 
L 211.084309 -204.663046 
L 212.399643 -222.495219 
L 213.714977 -222.495219 
L 215.030311 -219.382793 
L 216.345645 -208.996762 
L 217.660979 -223.104172 
L 218.976313 -202.532557 
L 220.291647 -185.517396 
L 221.606981 -202.263602 
L 222.922315 -198.639486 
L 224.237649 -214.849476 
L 225.552983 -213.152866 
L 226.868317 -216.270366 
L 228.183651 -212.27665 
L 229.498985 -195.089798 
L 230.814319 -214.304802 
L 232.129653 -210.678994 
L 233.444987 -209.84253 
L 234.760321 -220.431545 
L 236.075654 -206.59478 
L 237.390988 -212.308789 
L 238.706322 -207.776318 
L 240.021656 -202.497034 
L 241.33699 -209.499993 
L 242.652324 -208.31761 
L 243.967658 -208.25164 
L 245.282992 -214.713307 
L 246.598326 -195.56512 
L 247.91366 -216.662803 
L 249.228994 -205.883489 
L 250.544328 -209.400193 
L 251.859662 -207.599553 
L 253.174996 -220.059407 
L 254.49033 -211.024067 
L 255.805664 -221.074329 
L 257.120998 -211.523916 
L 258.436332 -222.190742 
L 259.751666 -206.107618 
L 261.067 -225.269338 
L 262.382334 -190.995435 
L 263.697668 -213.800724 
L 265.013002 -217.246383 
L 266.328336 -217.078075 
L 267.64367 -213.63157 
L 268.959004 -207.507364 
L 270.274338 -204.866031 
L 271.589672 -211.594961 
L 272.905006 -223.848448 
L 274.220339 -222.224573 
L 275.535673 -217.657426 
L 276.851007 -207.541195 
L 278.166341 -208.520594 
L 279.481675 -212.853464 
L 280.797009 -216.676335 
L 282.112343 -222.190742 
L 283.427677 -220.296222 
L 284.743011 -204.495584 
L 286.058345 -209.977007 
L 287.373679 -206.662442 
L 288.689013 -186.465502 
L 290.004347 -196.919194 
L 291.319681 -219.754931 
L 292.635015 -204.325585 
L 293.950349 -216.033551 
L 295.265683 -220.228561 
L 296.581017 -208.104476 
L 297.896351 -196.070043 
L 299.211685 -205.241552 
L 300.527019 -205.069015 
L 301.842353 -201.543008 
L 303.157687 -220.769852 
L 304.473021 -210.417652 
L 305.788355 -205.748167 
L 307.103689 -210.684069 
L 308.419023 -214.274354 
L 309.734357 -206.895028 
L 311.04969 -217.319119 
L 312.365024 -231.426529 
L 313.680358 -231.426529 
L 314.995692 -225.336999 
L 316.311026 -226.75789 
L 317.62636 -210.925113 
L 318.941694 -219.382793 
L 320.257028 -208.718504 
L 321.572362 -201.079527 
L 322.887696 -205.747321 
L 324.20303 -197.694764 
L 325.518364 -196.369445 
L 326.833698 -205.274536 
L 328.149032 -197.11795 
L 328.149032 -227.612961 
L 328.149032 -227.612961 
L 326.833698 -229.024548 
L 325.518364 -223.883124 
L 324.20303 -224.323769 
L 322.887696 -228.65833 
L 321.572362 -228.347934 
L 320.257028 -230.479269 
L 318.941694 -231.426529 
L 317.62636 -228.946737 
L 316.311026 -231.426529 
L 314.995692 -231.426529 
L 313.680358 -231.426529 
L 312.365024 -231.426529 
L 311.04969 -231.426529 
L 309.734357 -231.426529 
L 308.419023 -231.426529 
L 307.103689 -231.426529 
L 305.788355 -228.889225 
L 304.473021 -231.426529 
L 303.157687 -231.426529 
L 301.842353 -228.956887 
L 300.527019 -231.426529 
L 299.211685 -231.426529 
L 297.896351 -226.487244 
L 296.581017 -231.426529 
L 295.265683 -231.426529 
L 293.950349 -231.426529 
L 292.635015 -231.426529 
L 291.319681 -231.426529 
L 290.004347 -225.336999 
L 288.689013 -221.244328 
L 287.373679 -227.265351 
L 286.058345 -229.870316 
L 284.743011 -229.870316 
L 283.427677 -231.426529 
L 282.112343 -231.426529 
L 280.797009 -231.426529 
L 279.481675 -231.426529 
L 278.166341 -228.111119 
L 276.851007 -227.400673 
L 275.535673 -231.426529 
L 274.220339 -231.426529 
L 272.905006 -231.426529 
L 271.589672 -231.426529 
L 270.274338 -227.603658 
L 268.959004 -228.04684 
L 267.64367 -231.426529 
L 266.328336 -231.426529 
L 265.013002 -231.426529 
L 263.697668 -231.426529 
L 262.382334 -224.327152 
L 261.067 -231.426529 
L 259.751666 -228.347934 
L 258.436332 -231.426529 
L 257.120998 -231.426529 
L 255.805664 -231.426529 
L 254.49033 -231.426529 
L 253.174996 -231.426529 
L 251.859662 -231.426529 
L 250.544328 -231.426529 
L 249.228994 -228.956887 
L 247.91366 -230.479269 
L 246.598326 -226.047445 
L 245.282992 -230.479269 
L 243.967658 -227.502166 
L 242.652324 -229.532009 
L 241.33699 -229.532009 
L 240.021656 -228.116193 
L 238.706322 -230.005639 
L 237.390988 -230.005639 
L 236.075654 -229.227532 
L 234.760321 -231.426529 
L 233.444987 -229.227532 
L 232.129653 -231.426529 
L 230.814319 -230.005639 
L 229.498985 -223.896657 
L 228.183651 -228.923056 
L 226.868317 -230.005639 
L 225.552983 -231.426529 
L 224.237649 -231.426529 
L 222.922315 -226.182767 
L 221.606981 -226.25212 
L 220.291647 -216.678872 
L 218.976313 -225.945952 
L 217.660979 -231.426529 
L 216.345645 -231.426529 
L 215.030311 -231.426529 
L 213.714977 -231.426529 
L 212.399643 -231.426529 
L 211.084309 -228.618579 
L 209.768975 -227.975796 
L 208.453641 -228.618579 
L 207.138307 -227.975796 
L 205.822973 -231.426529 
L 204.507639 -231.426529 
L 203.192305 -231.426529 
L 201.876971 -228.144949 
L 200.561637 -227.772811 
L 199.246303 -225.235507 
L 197.930969 -221.583481 
L 196.615636 -218.138668 
L 195.300302 -224.362675 
L 193.984968 -226.250429 
L 192.669634 -224.051432 
L 191.3543 -223.483076 
L 190.038966 -231.426529 
L 188.723632 -231.426529 
L 187.408298 -229.430517 
L 186.092964 -226.25212 
L 184.77763 -227.975796 
L 183.462296 -228.990717 
L 182.146962 -231.426529 
L 180.831628 -231.426529 
L 179.516294 -231.426529 
L 178.20096 -226.09227 
L 176.885626 -220.637067 
L 175.570292 -227.475101 
L 174.254958 -231.426529 
L 172.939624 -227.882761 
L 171.62429 -223.313077 
L 170.308956 -226.960874 
L 168.993622 -231.426529 
L 167.678288 -231.426529 
L 166.362954 -224.322078 
L 165.04762 -231.426529 
L 163.732286 -231.426529 
L 162.416952 -231.426529 
L 161.101618 -231.426529 
L 159.786284 -231.426529 
L 158.470951 -231.426529 
L 157.155617 -231.426529 
L 155.840283 -231.426529 
L 154.524949 -229.667332 
L 153.209615 -229.464347 
L 151.894281 -231.426529 
L 150.578947 -231.426529 
L 149.263613 -231.426529 
L 147.948279 -225.303169 
L 146.632945 -230.479269 
L 145.317611 -226.724059 
L 144.002277 -231.426529 
L 142.686943 -231.426529 
L 141.371609 -229.396686 
L 140.056275 -223.276709 
L 138.740941 -231.426529 
L 137.425607 -227.637488 
L 136.110273 -231.426529 
L 134.794939 -227.366843 
L 133.479605 -231.426529 
L 132.164271 -227.840473 
L 130.848937 -230.479269 
L 129.533603 -229.870316 
L 128.218269 -231.426529 
L 126.902935 -231.426529 
L 125.587601 -231.426529 
L 124.272267 -227.366843 
L 122.956933 -231.426529 
L 121.641599 -231.426529 
L 120.326266 -231.426529 
L 119.010932 -231.426529 
L 117.695598 -229.227532 
L 116.380264 -229.227532 
L 115.06493 -231.426529 
L 113.749596 -231.426529 
L 112.434262 -228.381764 
L 111.118928 -228.584749 
L 109.803594 -230.005639 
L 108.48826 -228.386839 
L 107.172926 -226.148937 
L 105.857592 -230.005639 
L 104.542258 -231.426529 
L 103.226924 -231.426529 
L 101.91159 -227.840473 
L 100.596256 -226.191225 
L 99.280922 -226.79172 
L 97.965588 -227.738981 
L 96.650254 -220.431545 
L 95.33492 -220.296222 
L 94.019586 -213.293263 
L 92.704252 -207.98184 
L 91.388918 -193.672291 
L 90.073584 -189.241312 
L 88.75825 -181.763877 
L 87.442916 -179.700203 
L 86.127582 -171.957197 
L 84.812248 -172.528936 
L 83.496915 -163.260165 
L 82.181581 -155.814869 
L 80.866247 -151.894734 
L 79.550913 -154.332238 
L 78.235579 -152.366673 
L 76.920245 -148.609771 
L 75.604911 -150.201507 
L 74.289577 -161.742011 
L 72.974243 -149.187431 
L 71.658909 -142.690241 
L 70.343575 -147.56271 
L 69.028241 -146.58162 
L 67.712907 -141.77512 
L 66.397573 -81.794944 
z
" style="stroke: #a9678f; stroke-opacity: 0.2"/>
    </defs>
    <g clip-path="url(#paacbfb9f09)">
     <use xlink:href="#m2733696991" x="0" y="362.097812" style="fill: #a9678f; fill-opacity: 0.2; stroke: #a9678f; stroke-opacity: 0.2"/>
    </g>
   </g>
   <g id="PolyCollection_4">
    <defs>
     <path id="m4db9314712" d="M 66.397573 -98.913289 
L 66.397573 -66.898432 
L 67.712907 -118.45645 
L 69.028241 -125.2615 
L 70.343575 -126.314481 
L 71.658909 -130.372476 
L 72.974243 -146.171422 
L 74.289577 -130.812275 
L 75.604911 -134.195347 
L 76.920245 -132.741472 
L 78.235579 -133.619379 
L 79.550913 -146.678883 
L 80.866247 -133.451071 
L 82.181581 -137.778866 
L 83.496915 -141.604275 
L 84.812248 -149.754941 
L 86.127582 -140.419354 
L 87.442916 -133.686195 
L 88.75825 -137.509912 
L 90.073584 -127.765819 
L 91.388918 -142.281735 
L 92.704252 -142.990489 
L 94.019586 -142.415366 
L 95.33492 -137.067575 
L 96.650254 -131.618292 
L 97.965588 -141.165321 
L 99.280922 -141.232983 
L 100.596256 -139.537218 
L 101.91159 -141.230445 
L 103.226924 -149.859816 
L 104.542258 -145.493962 
L 105.857592 -149.111312 
L 107.172926 -142.550689 
L 108.48826 -139.233587 
L 109.803594 -157.471728 
L 111.118928 -143.527551 
L 112.434262 -160.720323 
L 113.749596 -165.048118 
L 115.06493 -153.670001 
L 116.380264 -151.651153 
L 117.695598 -163.658521 
L 119.010932 -182.033677 
L 120.326266 -172.966198 
L 121.641599 -176.586086 
L 122.956933 -174.893704 
L 124.272267 -192.148217 
L 125.587601 -192.857816 
L 126.902935 -200.468037 
L 128.218269 -191.302449 
L 129.533603 -201.82042 
L 130.848937 -206.255627 
L 132.164271 -198.812869 
L 133.479605 -196.072581 
L 134.794939 -204.192799 
L 136.110273 -194.685521 
L 137.425607 -202.399771 
L 138.740941 -192.687817 
L 140.056275 -203.649816 
L 141.371609 -197.931579 
L 142.686943 -198.232672 
L 144.002277 -203.445986 
L 145.317611 -181.559201 
L 146.632945 -183.890138 
L 147.948279 -180.980696 
L 149.263613 -190.01519 
L 150.578947 -193.502292 
L 151.894281 -207.235027 
L 153.209615 -187.074455 
L 154.524949 -196.266261 
L 155.840283 -198.674163 
L 157.155617 -199.962268 
L 158.470951 -200.297192 
L 159.786284 -203.237081 
L 161.101618 -191.234788 
L 162.416952 -205.984982 
L 163.732286 -215.424598 
L 165.04762 -203.580463 
L 166.362954 -207.406718 
L 167.678288 -213.834555 
L 168.993622 -201.279128 
L 170.308956 -205.003891 
L 171.62429 -219.753239 
L 172.939624 -210.179991 
L 174.254958 -196.035367 
L 175.570292 -206.796919 
L 176.885626 -186.802963 
L 178.20096 -193.69851 
L 179.516294 -199.760129 
L 180.831628 -215.323106 
L 182.146962 -196.129247 
L 183.462296 -217.751306 
L 184.77763 -208.889349 
L 186.092964 -215.729075 
L 187.408298 -200.774205 
L 188.723632 -204.08877 
L 190.038966 -207.629155 
L 191.3543 -219.008117 
L 192.669634 -208.150993 
L 193.984968 -209.943176 
L 195.300302 -194.278707 
L 196.615636 -196.237505 
L 197.930969 -214.409677 
L 199.246303 -193.429555 
L 200.561637 -220.66836 
L 201.876971 -220.66836 
L 203.192305 -223.814617 
L 204.507639 -217.484889 
L 205.822973 -205.472446 
L 207.138307 -197.317551 
L 208.453641 -212.477943 
L 209.768975 -199.250977 
L 211.084309 -204.054093 
L 212.399643 -207.777164 
L 213.714977 -204.361107 
L 215.030311 -208.787857 
L 216.345645 -213.665401 
L 217.660979 -209.199746 
L 218.976313 -207.540349 
L 220.291647 -208.9291 
L 221.606981 -202.624745 
L 222.922315 -208.386117 
L 224.237649 -215.625045 
L 225.552983 -217.183796 
L 226.868317 -208.996762 
L 228.183651 -220.972837 
L 229.498985 -211.463021 
L 230.814319 -197.355611 
L 232.129653 -188.427683 
L 233.444987 -197.726903 
L 234.760321 -194.378507 
L 236.075654 -195.830691 
L 237.390988 -207.810995 
L 238.706322 -201.587834 
L 240.021656 -223.138003 
L 241.33699 -217.488272 
L 242.652324 -223.645463 
L 243.967658 -212.341774 
L 245.282992 -211.838542 
L 246.598326 -218.30021 
L 247.91366 -213.766047 
L 249.228994 -206.154135 
L 250.544328 -201.617436 
L 251.859662 -208.010596 
L 253.174996 -210.519144 
L 254.49033 -211.667697 
L 255.805664 -206.186274 
L 257.120998 -205.781152 
L 258.436332 -197.388596 
L 259.751666 -208.046964 
L 261.067 -191.091007 
L 262.382334 -208.589101 
L 263.697668 -201.41868 
L 265.013002 -222.224573 
L 266.328336 -217.623595 
L 267.64367 -197.763271 
L 268.959004 -212.582818 
L 270.274338 -209.433178 
L 271.589672 -206.078016 
L 272.905006 -215.796736 
L 274.220339 -207.198659 
L 275.535673 -206.357965 
L 276.851007 -212.21068 
L 278.166341 -206.457766 
L 279.481675 -196.78218 
L 280.797009 -199.443812 
L 282.112343 -222.216116 
L 283.427677 -209.233577 
L 284.743011 -209.199746 
L 286.058345 -217.691257 
L 287.373679 -203.344494 
L 288.689013 -205.973987 
L 290.004347 -217.691257 
L 291.319681 -205.376029 
L 292.635015 -208.24572 
L 293.950349 -204.253695 
L 295.265683 -199.828636 
L 296.581017 -201.75445 
L 297.896351 -194.177214 
L 299.211685 -195.63109 
L 300.527019 -212.716449 
L 301.842353 -220.648062 
L 303.157687 -213.766893 
L 304.473021 -206.862889 
L 305.788355 -207.372887 
L 307.103689 -206.456074 
L 308.419023 -209.538053 
L 309.734357 -210.515761 
L 311.04969 -214.896839 
L 312.365024 -206.797765 
L 313.680358 -202.602755 
L 314.995692 -211.192375 
L 316.311026 -216.710166 
L 317.62636 -204.463445 
L 318.941694 -200.60336 
L 320.257028 -204.429614 
L 321.572362 -202.634049 
L 322.887696 -224.322078 
L 324.20303 -208.31761 
L 325.518364 -206.117767 
L 326.833698 -219.281301 
L 328.149032 -231.426529 
L 328.149032 -231.426529 
L 328.149032 -231.426529 
L 326.833698 -231.426529 
L 325.518364 -227.897985 
L 324.20303 -229.058379 
L 322.887696 -231.426529 
L 321.572362 -229.498178 
L 320.257028 -229.498178 
L 318.941694 -225.440183 
L 317.62636 -227.23152 
L 316.311026 -231.426529 
L 314.995692 -229.498178 
L 313.680358 -226.082967 
L 312.365024 -227.637488 
L 311.04969 -230.614592 
L 309.734357 -230.614592 
L 308.419023 -231.426529 
L 307.103689 -229.802655 
L 305.788355 -229.802655 
L 304.473021 -228.990717 
L 303.157687 -230.614592 
L 301.842353 -231.426529 
L 300.527019 -231.426529 
L 299.211685 -225.81063 
L 297.896351 -227.443808 
L 296.581017 -227.806642 
L 295.265683 -224.933568 
L 293.950349 -226.487244 
L 292.635015 -227.23152 
L 291.319681 -227.23152 
L 290.004347 -231.426529 
L 288.689013 -228.956887 
L 287.373679 -226.960874 
L 286.058345 -231.426529 
L 284.743011 -229.024548 
L 283.427677 -231.426529 
L 282.112343 -231.426529 
L 280.797009 -228.381764 
L 279.481675 -224.730584 
L 278.166341 -228.686241 
L 276.851007 -231.426529 
L 275.535673 -231.426529 
L 274.220339 -228.720072 
L 272.905006 -231.426529 
L 271.589672 -230.377777 
L 270.274338 -229.193702 
L 268.959004 -230.377777 
L 267.64367 -227.234057 
L 266.328336 -231.426529 
L 265.013002 -231.426529 
L 263.697668 -228.543306 
L 262.382334 -226.31809 
L 261.067 -220.094084 
L 259.751666 -227.687389 
L 258.436332 -224.055661 
L 257.120998 -227.671319 
L 255.805664 -228.013009 
L 254.49033 -228.009626 
L 253.174996 -229.581063 
L 251.859662 -231.426529 
L 250.544328 -228.517087 
L 249.228994 -229.430517 
L 247.91366 -231.426529 
L 246.598326 -231.426529 
L 245.282992 -229.430517 
L 243.967658 -231.426529 
L 242.652324 -231.426529 
L 241.33699 -231.426529 
L 240.021656 -231.426529 
L 238.706322 -227.637488 
L 237.390988 -227.841319 
L 236.075654 -222.395418 
L 234.760321 -223.543971 
L 233.444987 -225.709983 
L 232.129653 -220.399406 
L 230.814319 -226.353613 
L 229.498985 -228.923056 
L 228.183651 -229.734993 
L 226.868317 -227.671319 
L 225.552983 -230.98673 
L 224.237649 -230.377777 
L 222.922315 -228.077288 
L 221.606981 -226.385752 
L 220.291647 -226.79172 
L 218.976313 -225.858838 
L 217.660979 -228.115347 
L 216.345645 -229.937977 
L 215.030311 -228.686241 
L 213.714977 -226.960874 
L 212.399643 -227.941965 
L 211.084309 -228.618579 
L 209.768975 -226.556597 
L 208.453641 -229.802655 
L 207.138307 -225.645705 
L 205.822973 -230.310115 
L 204.507639 -231.426529 
L 203.192305 -231.426529 
L 201.876971 -231.426529 
L 200.561637 -231.426529 
L 199.246303 -226.927043 
L 197.930969 -231.426529 
L 196.615636 -226.927043 
L 195.300302 -223.411186 
L 193.984968 -229.430517 
L 192.669634 -228.550918 
L 191.3543 -230.98673 
L 190.038966 -229.227532 
L 188.723632 -229.227532 
L 187.408298 -226.28426 
L 186.092964 -230.107131 
L 184.77763 -228.688778 
L 183.462296 -229.667332 
L 182.146962 -222.029201 
L 180.831628 -228.787733 
L 179.516294 -225.573815 
L 178.20096 -218.979361 
L 176.885626 -218.875332 
L 175.570292 -225.912968 
L 174.254958 -222.633079 
L 172.939624 -225.709137 
L 171.62429 -224.829539 
L 170.308956 -221.547959 
L 168.993622 -219.654284 
L 167.678288 -223.274171 
L 166.362954 -221.381342 
L 165.04762 -222.630542 
L 163.732286 -223.070341 
L 162.416952 -220.365575 
L 161.101618 -218.436378 
L 159.786284 -222.190742 
L 158.470951 -221.040498 
L 157.155617 -218.232548 
L 155.840283 -217.86041 
L 154.524949 -216.372704 
L 153.209615 -214.2752 
L 151.894281 -218.740855 
L 150.578947 -215.358628 
L 149.263613 -209.437407 
L 147.948279 -206.596472 
L 146.632945 -208.726962 
L 145.317611 -208.320993 
L 144.002277 -219.315977 
L 142.686943 -217.048473 
L 141.371609 -215.290121 
L 140.056275 -216.374396 
L 138.740941 -212.213217 
L 137.425607 -215.830567 
L 136.110273 -215.157336 
L 134.794939 -217.792749 
L 133.479605 -217.048473 
L 132.164271 -216.812504 
L 130.848937 -218.232548 
L 129.533603 -217.454442 
L 128.218269 -214.038385 
L 126.902935 -214.376692 
L 125.587601 -211.161928 
L 124.272267 -209.33676 
L 122.956933 -204.367027 
L 121.641599 -199.322021 
L 120.326266 -199.185853 
L 119.010932 -201.994648 
L 117.695598 -191.57394 
L 116.380264 -181.528754 
L 115.06493 -179.700203 
L 113.749596 -183.827551 
L 112.434262 -181.021293 
L 111.118928 -170.976952 
L 109.803594 -182.034523 
L 108.48826 -172.527245 
L 107.172926 -176.219868 
L 105.857592 -176.795836 
L 104.542258 -172.088291 
L 103.226924 -174.28898 
L 101.91159 -166.881743 
L 100.596256 -169.789494 
L 99.280922 -172.837642 
L 97.965588 -168.671388 
L 96.650254 -158.017249 
L 95.33492 -159.434756 
L 94.019586 -163.532502 
L 92.704252 -163.465686 
L 91.388918 -161.703952 
L 90.073584 -156.592976 
L 88.75825 -164.7521 
L 87.442916 -161.633753 
L 86.127582 -160.49112 
L 84.812248 -167.218359 
L 83.496915 -162.242706 
L 82.181581 -160.010724 
L 80.866247 -158.117049 
L 79.550913 -168.739896 
L 78.235579 -154.767808 
L 76.920245 -155.951038 
L 75.604911 -152.569657 
L 74.289577 -157.073372 
L 72.974243 -172.360629 
L 71.658909 -160.687338 
L 70.343575 -158.928141 
L 69.028241 -156.736756 
L 67.712907 -149.837826 
L 66.397573 -98.913289 
z
" style="stroke: #6c3f70; stroke-opacity: 0.2"/>
    </defs>
    <g clip-path="url(#paacbfb9f09)">
     <use xlink:href="#m4db9314712" x="0" y="362.097812" style="fill: #6c3f70; fill-opacity: 0.2; stroke: #6c3f70; stroke-opacity: 0.2"/>
    </g>
   </g>
   <g id="PolyCollection_5">
    <defs>
     <path id="m5f777d3a7a" d="M 66.397573 -88.940838 
L 66.397573 -60.242238 
L 67.712907 -113.997561 
L 69.028241 -126.953036 
L 70.343575 -123.471854 
L 71.658909 -115.826957 
L 72.974243 -140.69 
L 74.289577 -131.286751 
L 75.604911 -130.395311 
L 76.920245 -146.771072 
L 78.235579 -156.08044 
L 79.550913 -118.837046 
L 80.866247 -144.344563 
L 82.181581 -149.994294 
L 83.496915 -184.695309 
L 84.812248 -179.864282 
L 86.127582 -206.649755 
L 87.442916 -226.282568 
L 88.75825 -221.307761 
L 90.073584 -243.504096 
L 91.388918 -263.904021 
L 92.704252 -249.999595 
L 94.019586 -238.989387 
L 95.33492 -262.381638 
L 96.650254 -237.414567 
L 97.965588 -227.264505 
L 99.280922 -245.229463 
L 100.596256 -231.661653 
L 101.91159 -233.587466 
L 103.226924 -250.910487 
L 104.542258 -222.054574 
L 105.857592 -234.906865 
L 107.172926 -229.362855 
L 108.48826 -223.87805 
L 109.803594 -242.994098 
L 111.118928 -223.103326 
L 112.434262 -239.579733 
L 113.749596 -235.01174 
L 115.06493 -233.758312 
L 116.380264 -234.600697 
L 117.695598 -228.989872 
L 119.010932 -246.853338 
L 120.326266 -238.936103 
L 121.641599 -261.366717 
L 122.956933 -231.555086 
L 124.272267 -242.184698 
L 125.587601 -248.274228 
L 126.902935 -228.787733 
L 128.218269 -238.091181 
L 129.533603 -231.1525 
L 130.848937 -222.796312 
L 132.164271 -228.885842 
L 133.479605 -237.343522 
L 134.794939 -235.6892 
L 136.110273 -246.142893 
L 137.425607 -245.736924 
L 138.740941 -238.225658 
L 140.056275 -243.910065 
L 141.371609 -251.420485 
L 142.686943 -238.666303 
L 144.002277 -240.357839 
L 145.317611 -240.493162 
L 146.632945 -245.736924 
L 147.948279 -227.286495 
L 149.263613 -263.904021 
L 150.578947 -263.904021 
L 151.894281 -241.880222 
L 153.209615 -248.544874 
L 154.524949 -235.046416 
L 155.840283 -232.238466 
L 157.155617 -224.962324 
L 158.470951 -233.489357 
L 159.786284 -224.895509 
L 161.101618 -234.099156 
L 162.416952 -224.592724 
L 163.732286 -219.178117 
L 165.04762 -228.008781 
L 166.362954 -225.979783 
L 167.678288 -239.133167 
L 168.993622 -224.791479 
L 170.308956 -237.341831 
L 171.62429 -224.456555 
L 172.939624 -225.163617 
L 174.254958 -220.461993 
L 175.570292 -260.723933 
L 176.885626 -246.413538 
L 178.20096 -233.825127 
L 179.516294 -225.434263 
L 180.831628 -248.172736 
L 182.146962 -254.262265 
L 183.462296 -249.661287 
L 184.77763 -227.332166 
L 186.092964 -222.757407 
L 187.408298 -232.948066 
L 188.723632 -232.098915 
L 190.038966 -242.309026 
L 191.3543 -233.693187 
L 192.669634 -238.666303 
L 193.984968 -255.102959 
L 195.300302 -263.904021 
L 196.615636 -263.904021 
L 197.930969 -228.392759 
L 199.246303 -237.685212 
L 200.561637 -251.217501 
L 201.876971 -263.904021 
L 203.192305 -243.301112 
L 204.507639 -231.756379 
L 205.822973 -236.83437 
L 207.138307 -238.327996 
L 208.453641 -233.79468 
L 209.768975 -225.428342 
L 211.084309 -221.983529 
L 212.399643 -221.004976 
L 213.714977 -222.258404 
L 215.030311 -235.959846 
L 216.345645 -252.638391 
L 217.660979 -239.748886 
L 218.976313 -224.212974 
L 220.291647 -235.823677 
L 221.606981 -249.221488 
L 222.922315 -255.581664 
L 224.237649 -241.575745 
L 225.552983 -263.904021 
L 226.868317 -247.157814 
L 228.183651 -220.99821 
L 229.498985 -227.365151 
L 230.814319 -233.422542 
L 232.129653 -232.503192 
L 233.444987 -248.165124 
L 234.760321 -214.944202 
L 236.075654 -213.425203 
L 237.390988 -226.419583 
L 238.706322 -225.776799 
L 240.021656 -246.312046 
L 241.33699 -235.756861 
L 242.652324 -223.535514 
L 243.967658 -232.000806 
L 245.282992 -230.743149 
L 246.598326 -233.456372 
L 247.91366 -243.402604 
L 249.228994 -251.217501 
L 250.544328 -235.249401 
L 251.859662 -237.413721 
L 253.174996 -243.707081 
L 254.49033 -218.740009 
L 255.805664 -227.533459 
L 257.120998 -244.684789 
L 258.436332 -263.904021 
L 259.751666 -230.98673 
L 261.067 -249.559795 
L 262.382334 -238.253569 
L 263.697668 -232.741698 
L 265.013002 -227.298336 
L 266.328336 -219.988363 
L 267.64367 -221.711192 
L 268.959004 -218.702795 
L 270.274338 -223.474618 
L 271.589672 -221.368656 
L 272.905006 -224.284864 
L 274.220339 -221.883729 
L 275.535673 -246.176723 
L 276.851007 -245.835879 
L 278.166341 -250.202579 
L 279.481675 -237.503372 
L 280.797009 -226.244509 
L 282.112343 -240.39167 
L 283.427677 -244.349864 
L 284.743011 -244.415834 
L 286.058345 -247.597614 
L 287.373679 -239.44441 
L 288.689013 -197.922275 
L 290.004347 -236.601784 
L 291.319681 -221.911639 
L 292.635015 -239.748041 
L 293.950349 -232.880404 
L 295.265683 -234.06448 
L 296.581017 -243.90499 
L 297.896351 -222.901188 
L 299.211685 -245.191404 
L 300.527019 -245.932296 
L 301.842353 -233.930002 
L 303.157687 -238.80078 
L 304.473021 -248.91532 
L 305.788355 -257.74683 
L 307.103689 -249.018504 
L 308.419023 -240.951569 
L 309.734357 -241.535148 
L 311.04969 -250.908795 
L 312.365024 -264.952773 
L 313.680358 -255.783802 
L 314.995692 -245.430756 
L 316.311026 -254.59719 
L 317.62636 -271.005935 
L 318.941694 -268.735048 
L 320.257028 -280.041274 
L 321.572362 -270.5932 
L 322.887696 -267.490077 
L 324.20303 -281.834303 
L 325.518364 -280.108936 
L 326.833698 -262.177808 
L 328.149032 -273.072146 
L 328.149032 -305.042177 
L 328.149032 -305.042177 
L 326.833698 -300.711845 
L 325.518364 -305.042177 
L 324.20303 -305.042177 
L 322.887696 -301.489951 
L 321.572362 -305.042177 
L 320.257028 -305.042177 
L 318.941694 -301.625274 
L 317.62636 -303.756609 
L 316.311026 -298.683693 
L 314.995692 -292.39287 
L 313.680358 -293.47207 
L 312.365024 -296.550666 
L 311.04969 -286.773588 
L 309.734357 -277.370339 
L 308.419023 -277.847352 
L 307.103689 -281.901964 
L 305.788355 -280.616397 
L 304.473021 -275.575619 
L 303.157687 -270.873149 
L 301.842353 -267.760723 
L 300.527019 -274.459206 
L 299.211685 -272.395532 
L 297.896351 -269.257732 
L 296.581017 -270.671011 
L 295.265683 -266.514907 
L 293.950349 -268.031369 
L 292.635015 -268.031369 
L 291.319681 -259.10175 
L 290.004347 -264.819142 
L 288.689013 -247.332042 
L 287.373679 -264.682127 
L 286.058345 -263.904021 
L 284.743011 -263.904021 
L 283.427677 -263.904021 
L 282.112343 -263.904021 
L 280.797009 -259.16772 
L 279.481675 -263.39656 
L 278.166341 -263.904021 
L 276.851007 -263.904021 
L 275.535673 -263.904021 
L 274.220339 -255.311018 
L 272.905006 -257.814491 
L 271.589672 -253.385204 
L 270.274338 -259.066228 
L 268.959004 -256.79957 
L 267.64367 -258.355783 
L 266.328336 -256.062906 
L 265.013002 -258.495334 
L 263.697668 -260.656272 
L 262.382334 -263.904021 
L 261.067 -263.904021 
L 259.751666 -263.904021 
L 258.436332 -263.904021 
L 257.120998 -263.904021 
L 255.805664 -259.979657 
L 254.49033 -255.415047 
L 253.174996 -263.904021 
L 251.859662 -263.904021 
L 250.544328 -263.904021 
L 249.228994 -263.904021 
L 247.91366 -263.904021 
L 246.598326 -260.859256 
L 245.282992 -260.317964 
L 243.967658 -260.723933 
L 242.652324 -257.205538 
L 241.33699 -260.723933 
L 240.021656 -263.904021 
L 238.706322 -255.854001 
L 237.390988 -255.886986 
L 236.075654 -250.00044 
L 234.760321 -254.503309 
L 233.444987 -263.904021 
L 232.129653 -261.265225 
L 230.814319 -261.332886 
L 229.498985 -259.404535 
L 228.183651 -259.607519 
L 226.868317 -263.904021 
L 225.552983 -263.904021 
L 224.237649 -263.904021 
L 222.922315 -263.904021 
L 221.606981 -263.904021 
L 220.291647 -263.904021 
L 218.976313 -260.148811 
L 217.660979 -263.904021 
L 216.345645 -263.904021 
L 215.030311 -261.332886 
L 213.714977 -256.440118 
L 212.399643 -255.787185 
L 211.084309 -254.431419 
L 209.768975 -257.63688 
L 208.453641 -261.265225 
L 207.138307 -263.904021 
L 205.822973 -260.926917 
L 204.507639 -257.543845 
L 203.192305 -263.904021 
L 201.876971 -263.904021 
L 200.561637 -263.904021 
L 199.246303 -263.904021 
L 197.930969 -259.675181 
L 196.615636 -263.904021 
L 195.300302 -263.904021 
L 193.984968 -263.904021 
L 192.669634 -263.904021 
L 191.3543 -260.176721 
L 190.038966 -263.904021 
L 188.723632 -261.265225 
L 187.408298 -259.979657 
L 186.092964 -258.660259 
L 184.77763 -260.020254 
L 183.462296 -263.904021 
L 182.146962 -263.904021 
L 180.831628 -263.904021 
L 179.516294 -260.859256 
L 178.20096 -260.148811 
L 176.885626 -263.39656 
L 175.570292 -263.904021 
L 174.254958 -260.216472 
L 172.939624 -257.848322 
L 171.62429 -260.284134 
L 170.308956 -262.280146 
L 168.993622 -257.30703 
L 167.678288 -261.400547 
L 166.362954 -259.404535 
L 165.04762 -257.071061 
L 163.732286 -258.321952 
L 162.416952 -260.284134 
L 161.101618 -261.197563 
L 159.786284 -256.8334 
L 158.470951 -260.148811 
L 157.155617 -258.423444 
L 155.840283 -261.129902 
L 154.524949 -261.129902 
L 153.209615 -263.904021 
L 151.894281 -263.904021 
L 150.578947 -263.904021 
L 149.263613 -263.904021 
L 147.948279 -260.148811 
L 146.632945 -263.904021 
L 145.317611 -263.904021 
L 144.002277 -263.904021 
L 142.686943 -263.904021 
L 141.371609 -263.904021 
L 140.056275 -263.904021 
L 138.740941 -263.904021 
L 137.425607 -263.904021 
L 136.110273 -263.904021 
L 134.794939 -262.889099 
L 133.479605 -263.904021 
L 132.164271 -262.381638 
L 130.848937 -258.695781 
L 129.533603 -259.747917 
L 128.218269 -262.889099 
L 126.902935 -259.945827 
L 125.587601 -263.904021 
L 124.272267 -263.904021 
L 122.956933 -263.39656 
L 121.641599 -263.904021 
L 120.326266 -262.381638 
L 119.010932 -263.39656 
L 117.695598 -258.524936 
L 116.380264 -261.874178 
L 115.06493 -261.886864 
L 113.749596 -262.889099 
L 112.434262 -261.366717 
L 111.118928 -257.071061 
L 109.803594 -262.381638 
L 108.48826 -255.481863 
L 107.172926 -259.64135 
L 105.857592 -259.303043 
L 104.542258 -257.611507 
L 103.226924 -262.889099 
L 101.91159 -262.381638 
L 100.596256 -263.39656 
L 99.280922 -263.39656 
L 97.965588 -260.690102 
L 96.650254 -263.39656 
L 95.33492 -263.904021 
L 94.019586 -263.904021 
L 92.704252 -263.904021 
L 91.388918 -263.904021 
L 90.073584 -263.904021 
L 88.75825 -259.64135 
L 87.442916 -259.64135 
L 86.127582 -251.388346 
L 84.812248 -233.949455 
L 83.496915 -230.689019 
L 82.181581 -206.699656 
L 80.866247 -196.929344 
L 79.550913 -161.535644 
L 78.235579 -199.390528 
L 76.920245 -189.410466 
L 75.604911 -177.805683 
L 74.289577 -171.853168 
L 72.974243 -179.902342 
L 71.658909 -156.288499 
L 70.343575 -161.163506 
L 69.028241 -161.430769 
L 67.712907 -146.783758 
L 66.397573 -88.940838 
z
" style="stroke: #2d1e3e; stroke-opacity: 0.2"/>
    </defs>
    <g clip-path="url(#paacbfb9f09)">
     <use xlink:href="#m5f777d3a7a" x="0" y="362.097812" style="fill: #2d1e3e; fill-opacity: 0.2; stroke: #2d1e3e; stroke-opacity: 0.2"/>
    </g>
   </g>
   <g id="line2d_12">
    <path d="M 66.397573 284.837876 
L 67.712907 231.655984 
L 69.028241 207.365527 
L 70.343575 185.341728 
L 71.658909 182.838254 
L 72.974243 156.145816 
L 74.289577 132.531973 
L 75.604911 145.218493 
L 76.920245 115.176813 
L 78.235579 117.680287 
L 79.550913 102.524124 
L 80.866247 114.432538 
L 82.181581 103.606707 
L 83.496915 89.533127 
L 84.812248 91.698293 
L 86.127582 96.028626 
L 87.442916 102.524124 
L 90.073584 85.91324 
L 91.388918 84.052551 
L 92.704252 80.500325 
L 94.019586 80.73714 
L 95.33492 70.384939 
L 96.650254 78.267497 
L 97.965588 73.159059 
L 99.280922 74.64761 
L 100.596256 73.869504 
L 101.91159 66.020777 
L 103.226924 68.930219 
L 104.542258 57.867573 
L 105.857592 66.731222 
L 107.172926 63.889441 
L 108.48826 57.698419 
L 109.803594 60.709353 
L 111.118928 53.063611 
L 112.434262 61.182984 
L 113.749596 61.724275 
L 115.06493 49.037755 
L 116.380264 53.841717 
L 117.695598 62.806858 
L 119.010932 62.062582 
L 120.326266 56.412852 
L 121.641599 42.643749 
L 122.956933 68.693403 
L 124.272267 53.02978 
L 125.587601 51.575059 
L 126.902935 53.537241 
L 128.218269 68.118281 
L 129.533603 42.474595 
L 130.848937 41.392012 
L 132.164271 40.850721 
L 133.479605 57.461604 
L 134.794939 50.627799 
L 136.110273 45.51936 
L 137.425607 46.432789 
L 138.740941 50.492476 
L 140.056275 50.796952 
L 141.371609 41.222858 
L 142.686943 40.546244 
L 144.002277 49.376062 
L 145.317611 38.48257 
L 146.632945 46.060651 
L 147.948279 46.060651 
L 149.263613 54.721316 
L 150.578947 38.48257 
L 151.894281 38.651724 
L 153.209615 38.651724 
L 154.524949 47.312388 
L 155.840283 38.651724 
L 157.155617 37.569141 
L 158.470951 46.229805 
L 159.786284 46.229805 
L 161.101618 38.651724 
L 162.416952 37.569141 
L 165.04762 37.569141 
L 166.362954 45.147222 
L 167.678288 46.229805 
L 168.993622 39.734307 
L 170.308956 57.055636 
L 171.62429 38.347247 
L 172.939624 39.42983 
L 174.254958 56.751159 
L 176.885626 39.734307 
L 178.20096 47.447711 
L 179.516294 39.734307 
L 180.831628 41.76415 
L 183.462296 39.598984 
L 184.77763 48.259648 
L 186.092964 46.229805 
L 187.408298 63.551134 
L 188.723632 37.569141 
L 190.038966 40.681567 
L 191.3543 42.71141 
L 192.669634 47.312388 
L 193.984968 38.651724 
L 196.615636 55.83773 
L 197.930969 45.011899 
L 199.246303 45.011899 
L 200.561637 53.672564 
L 201.876971 36.215912 
L 203.192305 36.215912 
L 204.507639 47.177065 
L 205.822973 37.433818 
L 207.138307 39.700476 
L 208.453641 46.195974 
L 209.768975 45.011899 
L 211.084309 55.83773 
L 212.399643 36.486558 
L 213.714977 45.147222 
L 215.030311 38.516401 
L 216.345645 39.598984 
L 217.660979 39.598984 
L 218.976313 37.433818 
L 220.291647 53.672564 
L 221.606981 53.807886 
L 222.922315 36.486558 
L 225.552983 53.807886 
L 226.868317 36.486558 
L 228.183651 62.468551 
L 229.498985 45.147222 
L 230.814319 36.486558 
L 233.444987 36.486558 
L 234.760321 45.147222 
L 237.390988 45.147222 
L 238.706322 36.486558 
L 240.021656 36.486558 
L 241.33699 47.312388 
L 242.652324 39.734307 
L 243.967658 41.899473 
L 245.282992 45.011899 
L 247.91366 49.477554 
L 249.228994 41.76415 
L 250.544328 46.094482 
L 251.859662 46.229805 
L 253.174996 46.229805 
L 254.49033 36.486558 
L 255.805664 37.569141 
L 257.120998 55.973053 
L 258.436332 37.569141 
L 259.751666 45.011899 
L 261.067 36.486558 
L 262.382334 48.496463 
L 263.697668 47.41388 
L 265.013002 38.753216 
L 266.328336 38.753216 
L 267.64367 37.569141 
L 268.959004 46.229805 
L 270.274338 45.688514 
L 271.589672 38.651724 
L 272.905006 39.734307 
L 274.220339 60.607861 
L 275.535673 57.157128 
L 276.851007 38.651724 
L 278.166341 43.18504 
L 279.481675 43.18504 
L 280.797009 49.579046 
L 282.112343 49.579046 
L 283.427677 38.651724 
L 284.743011 57.157128 
L 286.058345 38.651724 
L 287.373679 46.229805 
L 288.689013 37.569141 
L 290.004347 46.229805 
L 291.319681 38.651724 
L 292.635015 57.055636 
L 293.950349 36.486558 
L 297.896351 36.486558 
L 299.211685 37.569141 
L 300.527019 54.89047 
L 301.842353 47.312388 
L 303.157687 45.925329 
L 304.473021 48.394971 
L 305.788355 46.229805 
L 307.103689 37.569141 
L 308.419023 37.569141 
L 309.734357 39.734307 
L 311.04969 44.233793 
L 312.365024 46.094482 
L 313.680358 47.312388 
L 314.995692 37.569141 
L 316.311026 36.486558 
L 317.62636 45.147222 
L 318.941694 36.486558 
L 320.257028 45.147222 
L 321.572362 36.486558 
L 322.887696 45.147222 
L 324.20303 36.486558 
L 325.518364 53.807886 
L 326.833698 36.62188 
L 328.149032 36.62188 
L 328.149032 36.62188 
" clip-path="url(#paacbfb9f09)" style="fill: none; stroke: #edd1cb; stroke-width: 1.5; stroke-linecap: round"/>
   </g>
   <g id="line2d_13">
    <path d="M 66.397573 277.530441 
L 67.712907 221.878906 
L 69.028241 213.691871 
L 70.343575 219.307771 
L 71.658909 216.668975 
L 72.974243 207.805326 
L 74.289577 190.247182 
L 75.604911 191.871057 
L 76.920245 173.500975 
L 78.235579 171.200486 
L 79.550913 144.575709 
L 80.866247 130.569791 
L 82.181581 112.808663 
L 83.496915 114.703183 
L 84.812248 109.933052 
L 86.127582 102.118155 
L 87.442916 96.739071 
L 88.75825 100.866419 
L 90.073584 89.127159 
L 91.388918 90.378895 
L 92.704252 100.866419 
L 94.019586 90.683372 
L 95.33492 77.793867 
L 96.650254 92.239585 
L 97.965588 85.980902 
L 99.280922 83.206783 
L 100.596256 94.81072 
L 101.91159 87.33413 
L 103.226924 111.793741 
L 104.542258 76.372977 
L 105.857592 107.666393 
L 107.172926 101.306218 
L 108.48826 105.061428 
L 109.803594 76.542131 
L 111.118928 79.113265 
L 112.434262 75.696363 
L 113.749596 95.453503 
L 115.06493 93.085353 
L 116.380264 86.217717 
L 117.695598 85.947071 
L 119.010932 89.837604 
L 120.326266 100.561942 
L 121.641599 82.022707 
L 122.956933 81.21077 
L 124.272267 89.363974 
L 125.587601 81.819723 
L 126.902935 97.381854 
L 128.218269 103.437553 
L 129.533603 83.54509 
L 130.848937 94.912212 
L 132.164271 97.246532 
L 133.479605 78.977942 
L 134.794939 86.961993 
L 136.110273 91.292325 
L 137.425607 101.949002 
L 138.740941 97.009716 
L 140.056275 82.699322 
L 141.371609 82.090369 
L 142.686943 84.627673 
L 144.002277 79.282419 
L 145.317611 85.135134 
L 146.632945 85.845579 
L 147.948279 76.305316 
L 149.263613 93.220676 
L 150.578947 78.267497 
L 151.894281 103.877353 
L 153.209615 84.627673 
L 154.524949 73.70035 
L 155.840283 75.730193 
L 157.155617 89.397804 
L 158.470951 92.544061 
L 161.101618 79.992864 
L 162.416952 91.630632 
L 163.732286 94.100275 
L 165.04762 94.032613 
L 166.362954 101.982832 
L 167.678288 87.77393 
L 168.993622 99.344036 
L 170.308956 103.606707 
L 171.62429 85.541102 
L 172.939624 85.033641 
L 174.254958 79.857541 
L 175.570292 81.379924 
L 178.20096 70.046632 
L 179.516294 74.985917 
L 180.831628 74.816764 
L 182.146962 100.764926 
L 183.462296 82.563999 
L 184.77763 73.937165 
L 186.092964 83.917228 
L 187.408298 87.638607 
L 188.723632 77.996852 
L 190.038966 96.028626 
L 191.3543 102.185817 
L 192.669634 94.506243 
L 193.984968 91.359986 
L 195.300302 75.933178 
L 196.615636 84.255535 
L 197.930969 79.282419 
L 199.246303 78.977942 
L 200.561637 77.015761 
L 201.876971 70.046632 
L 203.192305 83.07146 
L 204.507639 80.703309 
L 205.822973 95.352011 
L 207.138307 98.802745 
L 208.453641 103.133077 
L 209.768975 99.242544 
L 211.084309 97.381854 
L 212.399643 99.547021 
L 213.714977 72.989905 
L 215.030311 73.970996 
L 216.345645 77.658544 
L 217.660979 78.639635 
L 218.976313 74.985917 
L 220.291647 97.517177 
L 221.606981 79.891372 
L 222.922315 92.713215 
L 224.237649 79.891372 
L 225.552983 73.598858 
L 226.868317 90.852525 
L 228.183651 87.266469 
L 229.498985 87.097315 
L 232.129653 94.607735 
L 233.444987 96.908224 
L 234.760321 82.834645 
L 236.075654 71.027723 
L 237.390988 88.349052 
L 238.706322 93.660475 
L 240.021656 89.634619 
L 241.33699 93.085353 
L 242.652324 84.49235 
L 243.967658 81.244601 
L 245.282992 113.485277 
L 246.598326 87.33413 
L 247.91366 84.458519 
L 249.228994 74.072488 
L 250.544328 87.097315 
L 251.859662 90.683372 
L 253.174996 93.085353 
L 254.49033 95.927133 
L 255.805664 75.933178 
L 257.120998 86.522193 
L 258.436332 75.764024 
L 259.751666 84.560011 
L 261.067 82.59783 
L 262.382334 86.38687 
L 263.697668 83.883397 
L 265.013002 75.628701 
L 266.328336 79.992864 
L 267.64367 104.012676 
L 268.959004 89.093328 
L 270.274338 84.560011 
L 271.589672 78.87645 
L 272.905006 87.3003 
L 274.220339 87.232638 
L 275.535673 90.751033 
L 276.851007 82.191861 
L 278.166341 70.046632 
L 279.481675 73.598858 
L 282.112343 92.171923 
L 283.427677 79.113265 
L 284.743011 94.675397 
L 287.373679 81.278431 
L 288.689013 74.985917 
L 290.004347 78.335159 
L 291.319681 85.947071 
L 292.635015 75.730193 
L 293.950349 96.536086 
L 295.265683 85.135134 
L 296.581017 81.312262 
L 297.896351 88.822682 
L 299.211685 79.959033 
L 300.527019 83.951058 
L 301.842353 76.948099 
L 303.157687 86.589855 
L 304.473021 101.137064 
L 305.788355 94.979873 
L 307.103689 96.163948 
L 308.419023 78.267497 
L 309.734357 93.254507 
L 311.04969 88.349052 
L 312.365024 88.146068 
L 313.680358 97.449516 
L 314.995692 90.311234 
L 316.311026 90.446557 
L 317.62636 95.115196 
L 318.941694 88.856513 
L 320.257028 84.154043 
L 321.572362 81.312262 
L 322.887696 72.380952 
L 324.20303 87.266469 
L 325.518364 82.699322 
L 326.833698 76.98193 
L 328.149032 90.311234 
L 328.149032 90.311234 
" clip-path="url(#paacbfb9f09)" style="fill: none; stroke: #d499a7; stroke-width: 1.5; stroke-linecap: round"/>
   </g>
   <g id="line2d_14">
    <path d="M 66.397573 293.870679 
L 67.712907 234.903733 
L 69.028241 230.235094 
L 70.343575 229.524648 
L 71.658909 235.952485 
L 72.974243 229.321664 
L 74.289577 217.447081 
L 75.604911 229.659971 
L 76.920245 229.186341 
L 79.550913 219.781401 
L 80.866247 220.830153 
L 82.181581 221.60826 
L 83.496915 214.875947 
L 84.812248 204.963545 
L 86.127582 204.016285 
L 87.442916 193.799408 
L 88.75825 193.4611 
L 90.073584 187.100925 
L 91.388918 182.63527 
L 92.704252 166.125878 
L 94.019586 159.596549 
L 95.33492 150.293101 
L 96.650254 154.488111 
L 97.965588 140.3807 
L 99.280922 144.643371 
L 100.596256 145.218493 
L 101.91159 144.305064 
L 103.226924 134.25734 
L 104.542258 141.192637 
L 105.857592 140.651346 
L 107.172926 149.075195 
L 108.48826 142.748851 
L 109.803594 140.583684 
L 111.118928 141.260299 
L 112.434262 142.207559 
L 113.749596 132.565804 
L 115.06493 141.023484 
L 116.380264 141.936913 
L 117.695598 142.512035 
L 119.010932 133.78371 
L 120.326266 134.358832 
L 121.641599 136.388675 
L 122.956933 130.671283 
L 124.272267 148.36475 
L 125.587601 136.321014 
L 126.902935 130.671283 
L 128.218269 134.155848 
L 129.533603 139.162794 
L 130.848937 138.283195 
L 132.164271 145.387647 
L 133.479605 134.73097 
L 134.794939 146.504061 
L 136.110273 143.053327 
L 137.425607 147.654305 
L 138.740941 135.373753 
L 140.056275 152.018468 
L 141.371609 144.812524 
L 142.686943 142.782681 
L 144.002277 140.143885 
L 145.317611 149.345841 
L 146.632945 139.90707 
L 147.948279 149.819471 
L 149.263613 137.877227 
L 150.578947 134.900123 
L 151.894281 143.797603 
L 153.209615 142.376713 
L 154.524949 141.32796 
L 155.840283 137.065289 
L 157.155617 140.177716 
L 158.470951 140.719007 
L 159.786284 130.671283 
L 161.101618 136.118029 
L 162.416952 130.671283 
L 163.732286 134.223509 
L 165.04762 138.655333 
L 166.362954 151.1727 
L 167.678288 130.671283 
L 168.993622 138.655333 
L 170.308956 149.920963 
L 171.62429 153.743835 
L 172.939624 144.947847 
L 174.254958 137.843396 
L 176.885626 156.720938 
L 178.20096 148.229427 
L 179.516294 137.132951 
L 180.831628 132.531973 
L 182.146962 138.722995 
L 183.462296 143.256311 
L 184.77763 147.349829 
L 186.092964 147.383659 
L 187.408298 142.207559 
L 188.723632 140.719007 
L 190.038966 135.847384 
L 191.3543 152.830405 
L 192.669634 151.105038 
L 193.984968 147.349829 
L 195.300302 149.176687 
L 196.615636 158.040336 
L 197.930969 153.710004 
L 199.246303 148.567734 
L 200.561637 144.068249 
L 201.876971 143.865264 
L 203.192305 138.689164 
L 204.507639 136.016537 
L 205.822973 139.162794 
L 207.138307 145.319985 
L 208.453641 145.04934 
L 209.768975 146.47023 
L 211.084309 143.899095 
L 212.399643 133.648387 
L 213.714977 133.648387 
L 215.030311 135.2046 
L 216.345645 139.467271 
L 217.660979 133.445402 
L 218.976313 147.248336 
L 220.291647 159.393565 
L 221.606981 146.571722 
L 222.922315 148.500073 
L 224.237649 137.944888 
L 225.552983 138.181703 
L 226.868317 137.978719 
L 228.183651 140.549854 
L 229.498985 151.341854 
L 230.814319 138.993641 
L 233.444987 141.192637 
L 234.760321 135.069277 
L 236.075654 142.410543 
L 237.390988 139.501101 
L 238.706322 141.598606 
L 240.021656 145.590631 
L 241.33699 142.106067 
L 242.652324 142.207559 
L 243.967658 143.120988 
L 245.282992 138.655333 
L 246.598326 149.31201 
L 247.91366 137.437427 
L 249.228994 143.120988 
L 250.544328 140.313039 
L 251.859662 140.583684 
L 253.174996 135.136938 
L 254.49033 139.704086 
L 255.805664 134.122017 
L 257.120998 140.3807 
L 258.436332 133.749879 
L 259.751666 143.019496 
L 261.067 133.039434 
L 262.382334 152.695082 
L 263.697668 138.080211 
L 265.013002 136.929967 
L 266.328336 137.065289 
L 267.64367 138.452349 
L 268.959004 143.391634 
L 270.274338 144.711032 
L 271.589672 138.790656 
L 272.905006 133.513064 
L 274.220339 134.325001 
L 275.535673 136.591659 
L 276.851007 144.237402 
L 278.166341 143.019496 
L 279.481675 139.264286 
L 282.112343 133.749879 
L 283.427677 134.900123 
L 284.743011 142.647358 
L 286.058345 140.989653 
L 287.373679 143.526957 
L 288.689013 158.107998 
L 290.004347 148.906042 
L 291.319681 135.238431 
L 292.635015 143.18865 
L 293.950349 136.62549 
L 295.265683 135.035446 
L 296.581017 141.091145 
L 297.896351 149.582656 
L 299.211685 142.951835 
L 300.527019 142.647358 
L 301.842353 145.827446 
L 303.157687 134.223509 
L 304.473021 139.568763 
L 305.788355 143.526957 
L 307.103689 140.482192 
L 308.419023 138.858318 
L 309.734357 141.29413 
L 311.04969 136.219521 
L 312.365024 130.671283 
L 313.680358 130.671283 
L 314.995692 132.701127 
L 316.311026 132.227496 
L 317.62636 140.685177 
L 318.941694 135.2046 
L 320.257028 141.192637 
L 321.572362 146.267245 
L 322.887696 143.526957 
L 324.20303 150.563747 
L 325.518364 151.341854 
L 326.833698 143.66228 
L 328.149032 148.635396 
L 328.149032 148.635396 
" clip-path="url(#paacbfb9f09)" style="fill: none; stroke: #a9678f; stroke-width: 1.5; stroke-linecap: round"/>
   </g>
   <g id="line2d_15">
    <path d="M 66.397573 280.203068 
L 67.712907 228.17142 
L 69.028241 220.153539 
L 70.343575 220.085877 
L 71.658909 216.871959 
L 72.974243 203.204348 
L 74.289577 218.292849 
L 75.604911 218.563495 
L 76.920245 217.413251 
L 78.235579 217.142605 
L 79.550913 204.083947 
L 80.866247 216.43216 
L 82.181581 212.440135 
L 83.496915 209.361539 
L 84.812248 203.272009 
L 86.127582 211.222229 
L 87.442916 214.436147 
L 88.75825 211.086906 
L 90.073584 218.867972 
L 91.388918 210.071984 
L 92.704252 208.786417 
L 94.019586 208.95557 
L 95.33492 213.759533 
L 96.650254 217.108774 
L 97.965588 207.094881 
L 99.280922 204.929715 
L 100.596256 206.688912 
L 101.91159 207.365527 
L 103.226924 199.855107 
L 104.542258 202.866041 
L 105.857592 198.468047 
L 107.172926 202.087934 
L 108.48826 204.286931 
L 109.803594 191.972549 
L 111.118928 204.2531 
L 112.434262 191.465088 
L 113.749596 187.540724 
L 115.06493 195.118806 
L 116.380264 194.712837 
L 117.695598 183.717853 
L 119.010932 170.320888 
L 120.326266 175.12485 
L 121.641599 173.771621 
L 122.956933 171.437301 
L 124.272267 160.780625 
L 125.587601 159.393565 
L 126.902935 154.115973 
L 128.218269 158.175659 
L 129.533603 151.680161 
L 130.848937 148.906042 
L 132.164271 153.54085 
L 133.479605 154.251295 
L 134.794939 149.819471 
L 136.110273 155.976662 
L 137.425607 152.424437 
L 138.740941 159.393565 
L 140.056275 151.105038 
L 141.371609 154.92791 
L 142.686943 152.864236 
L 144.002277 149.481164 
L 145.317611 166.768662 
L 146.632945 165.449264 
L 147.948279 167.817414 
L 149.263613 161.321916 
L 150.578947 156.247308 
L 151.894281 148.127935 
L 153.209615 159.562719 
L 154.524949 154.657264 
L 155.840283 152.864236 
L 158.470951 150.597578 
L 159.786284 146.910029 
L 161.101618 155.063233 
L 162.416952 147.924951 
L 163.732286 142.309051 
L 165.04762 147.41749 
L 166.362954 147.146844 
L 167.678288 143.053327 
L 168.993622 150.631408 
L 170.308956 148.263258 
L 171.62429 139.839409 
L 172.939624 142.850343 
L 174.254958 151.003546 
L 175.570292 144.643371 
L 176.885626 157.702029 
L 178.20096 155.300048 
L 180.831628 139.061302 
L 182.146962 151.037377 
L 183.462296 137.708073 
L 184.77763 141.970744 
L 186.092964 137.978719 
L 187.408298 147.113013 
L 188.723632 143.797603 
L 190.038966 142.173728 
L 191.3543 136.321014 
L 192.669634 142.748851 
L 193.984968 141.091145 
L 195.300302 152.59359 
L 196.615636 148.398581 
L 197.930969 137.843396 
L 199.246303 150.056286 
L 200.561637 134.527985 
L 201.876971 134.527985 
L 203.192305 133.479233 
L 204.507639 136.523998 
L 205.822973 141.936913 
L 207.138307 149.920963 
L 208.453641 139.467271 
L 209.768975 147.992612 
L 211.084309 143.797603 
L 212.399643 143.425465 
L 213.714977 145.184662 
L 215.030311 141.835421 
L 216.345645 139.43344 
L 217.660979 142.478205 
L 218.976313 144.508048 
L 220.291647 143.120988 
L 221.606981 146.977691 
L 224.237649 138.01255 
L 225.552983 136.963797 
L 226.868317 142.342882 
L 228.183651 136.118029 
L 229.498985 140.786669 
L 232.129653 156.7886 
L 233.444987 148.703057 
L 234.760321 151.781653 
L 236.075654 152.018468 
L 237.390988 143.18865 
L 238.706322 145.319985 
L 240.021656 133.580725 
L 241.33699 136.62549 
L 242.652324 133.411572 
L 243.967658 139.636424 
L 245.282992 140.313039 
L 246.598326 135.712061 
L 247.91366 138.52001 
L 249.228994 143.087158 
L 250.544328 146.571722 
L 251.859662 140.888161 
L 253.174996 140.820499 
L 254.49033 141.32796 
L 255.805664 144.169741 
L 257.120998 144.440387 
L 258.436332 150.597578 
L 259.751666 143.357804 
L 261.067 155.232386 
L 262.382334 144.068249 
L 263.697668 144.60954 
L 265.013002 134.088186 
L 266.328336 136.321014 
L 267.64367 148.229427 
L 268.959004 139.365778 
L 270.274338 141.598606 
L 271.589672 141.530945 
L 272.905006 136.896136 
L 274.220339 142.782681 
L 275.535673 141.057315 
L 276.851007 137.640412 
L 278.166341 143.18865 
L 279.481675 149.684148 
L 280.797009 146.707045 
L 282.112343 133.716048 
L 283.427677 140.685177 
L 284.743011 141.497114 
L 286.058345 136.050368 
L 287.373679 145.353816 
L 288.689013 143.628449 
L 290.004347 135.982706 
L 291.319681 144.575709 
L 292.635015 143.966756 
L 293.950349 145.52297 
L 295.265683 148.060274 
L 296.581017 146.131923 
L 297.896351 150.123948 
L 299.211685 148.939872 
L 300.527019 139.061302 
L 301.842353 134.527985 
L 304.473021 142.545866 
L 307.103689 142.478205 
L 308.419023 139.501101 
L 309.734357 140.482192 
L 311.04969 138.249365 
L 312.365024 143.594619 
L 313.680358 147.011521 
L 314.995692 140.85433 
L 316.311026 137.505089 
L 317.62636 145.252324 
L 318.941694 146.977691 
L 320.257028 143.357804 
L 321.572362 144.338894 
L 322.887696 133.039434 
L 324.20303 142.444374 
L 325.518364 143.391634 
L 326.833698 135.509076 
L 328.149032 130.671283 
L 328.149032 130.671283 
" clip-path="url(#paacbfb9f09)" style="fill: none; stroke: #6c3f70; stroke-width: 1.5; stroke-linecap: round"/>
   </g>
   <g id="line2d_16">
    <path d="M 66.397573 288.085626 
L 67.712907 232.298768 
L 69.028241 218.631157 
L 70.343575 219.815232 
L 71.658909 226.073915 
L 72.974243 201.445151 
L 74.289577 210.545614 
L 75.604911 208.211295 
L 76.920245 194.306869 
L 78.235579 185.341728 
L 79.550913 222.217213 
L 80.866247 192.48001 
L 82.181581 183.684022 
L 83.496915 153.06722 
L 84.812248 154.657264 
L 86.127582 131.720036 
L 87.442916 118.898193 
L 88.75825 120.555898 
L 90.073584 106.11018 
L 91.388918 98.193792 
L 94.019586 107.463409 
L 95.33492 98.701253 
L 96.650254 111.387773 
L 97.965588 116.563873 
L 99.280922 106.245503 
L 100.596256 112.774832 
L 101.91159 112.335033 
L 103.226924 103.369892 
L 104.542258 120.826544 
L 105.857592 114.0604 
L 107.172926 115.95492 
L 108.48826 120.522067 
L 109.803594 108.140024 
L 111.118928 119.946945 
L 112.434262 109.594744 
L 113.749596 110.30519 
L 115.06493 112.402694 
L 116.380264 112.436525 
L 117.695598 116.665365 
L 119.010932 104.723121 
L 120.326266 109.797729 
L 121.641599 99.208713 
L 122.956933 112.842494 
L 124.272267 105.433566 
L 125.587601 103.74203 
L 126.902935 115.988751 
L 128.218269 109.493252 
L 129.533603 114.737014 
L 130.848937 119.507146 
L 132.164271 114.669353 
L 133.479605 108.613654 
L 134.794939 110.677328 
L 136.110273 105.298243 
L 137.425607 105.501227 
L 138.740941 109.425591 
L 140.056275 106.313165 
L 141.371609 102.35497 
L 142.686943 110.744989 
L 144.002277 108.816638 
L 145.317611 108.782807 
L 146.632945 105.501227 
L 147.948279 116.124074 
L 149.263613 98.193792 
L 150.578947 98.193792 
L 151.894281 106.414657 
L 153.209615 104.486306 
L 154.524949 112.741001 
L 155.840283 113.654431 
L 157.155617 117.477302 
L 158.470951 113.823585 
L 159.786284 119.371823 
L 161.101618 112.639509 
L 162.416952 118.086255 
L 163.732286 121.638481 
L 165.04762 118.187747 
L 166.362954 116.259396 
L 167.678288 110.33902 
L 168.993622 119.642468 
L 170.308956 111.083296 
L 171.62429 117.917102 
L 172.939624 119.507146 
L 174.254958 118.153917 
L 175.570292 99.750005 
L 176.885626 106.144011 
L 178.20096 113.755923 
L 179.516294 117.105164 
L 180.831628 104.452475 
L 182.146962 101.40771 
L 183.462296 103.708199 
L 184.77763 115.379798 
L 186.092964 118.999685 
L 187.408298 114.466368 
L 188.723632 114.500199 
L 190.038966 108.309177 
L 191.3543 112.707171 
L 192.669634 109.121114 
L 193.984968 101.103234 
L 195.300302 98.193792 
L 196.615636 98.193792 
L 197.930969 116.868349 
L 199.246303 108.343008 
L 200.561637 102.422632 
L 201.876971 98.193792 
L 203.192305 106.245503 
L 204.507639 115.48129 
L 205.822973 111.455434 
L 207.138307 109.899221 
L 208.453641 113.113139 
L 209.768975 119.540976 
L 211.084309 122.07828 
L 212.399643 121.672312 
L 213.714977 120.251421 
L 215.030311 111.72608 
L 216.345645 101.949002 
L 217.660979 108.376839 
L 218.976313 117.274318 
L 220.291647 109.594744 
L 221.606981 104.012676 
L 222.922315 100.967911 
L 224.237649 106.54998 
L 225.552983 98.193792 
L 226.868317 103.775861 
L 228.183651 120.18376 
L 229.498985 117.714117 
L 230.814319 112.301202 
L 232.129653 112.774832 
L 233.444987 105.298243 
L 234.760321 127.152888 
L 236.075654 128.742932 
L 237.390988 119.676299 
L 238.706322 119.845453 
L 240.021656 106.177842 
L 241.33699 112.267371 
L 242.652324 120.488236 
L 243.967658 113.925077 
L 245.282992 115.785766 
L 246.598326 113.6206 
L 247.91366 106.211672 
L 249.228994 102.422632 
L 250.544328 109.154945 
L 251.859662 110.136036 
L 253.174996 106.042519 
L 254.49033 123.803647 
L 255.805664 117.409641 
L 257.120998 107.091271 
L 258.436332 98.193792 
L 259.751666 113.113139 
L 261.067 103.74203 
L 262.382334 108.140024 
L 263.697668 113.519108 
L 266.328336 121.469327 
L 267.64367 120.725052 
L 268.959004 122.924048 
L 270.274338 119.337992 
L 271.589672 123.634493 
L 272.905006 119.337992 
L 274.220339 122.55191 
L 275.535673 106.786795 
L 276.851007 105.501227 
L 278.166341 102.930093 
L 280.797009 118.898193 
L 282.112343 107.700224 
L 283.427677 106.279334 
L 284.743011 106.279334 
L 286.058345 104.553967 
L 287.373679 107.869378 
L 288.689013 137.809565 
L 290.004347 109.425591 
L 291.319681 120.149929 
L 292.635015 107.395748 
L 293.950349 110.102205 
L 295.265683 111.049465 
L 296.581017 102.760939 
L 297.896351 114.09423 
L 299.211685 101.238557 
L 300.527019 99.919158 
L 301.842353 109.662406 
L 303.157687 106.11018 
L 304.473021 98.058469 
L 305.788355 91.867447 
L 307.103689 94.167936 
L 308.419023 100.764926 
L 309.734357 102.253478 
L 311.04969 92.104262 
L 312.365024 79.248588 
L 313.680358 86.183886 
L 314.995692 91.630632 
L 316.311026 84.323196 
L 317.62636 72.617767 
L 318.941694 74.816764 
L 320.257028 67.035698 
L 321.572362 71.163046 
L 322.887696 76.03467 
L 324.20303 66.832714 
L 325.518364 66.223761 
L 326.833698 78.267497 
L 328.149032 69.843648 
L 328.149032 69.843648 
" clip-path="url(#paacbfb9f09)" style="fill: none; stroke: #2d1e3e; stroke-width: 1.5; stroke-linecap: round"/>
   </g>
   <g id="line2d_17"/>
   <g id="line2d_18"/>
   <g id="line2d_19"/>
   <g id="line2d_20"/>
   <g id="line2d_21"/>
   <g id="patch_3">
    <path d="M 53.31 319.138125 
L 53.31 22.318125 
" style="fill: none; stroke: #ffffff; stroke-width: 1.25; stroke-linejoin: miter; stroke-linecap: square"/>
   </g>
   <g id="patch_4">
    <path d="M 53.31 319.138125 
L 341.236605 319.138125 
" style="fill: none; stroke: #ffffff; stroke-width: 1.25; stroke-linejoin: miter; stroke-linecap: square"/>
   </g>
   <g id="text_14">
    <!-- Tile For Two Cycle -->
    <g style="fill: #262626" transform="translate(144.027052 16.318125)scale(0.12 -0.12)">
     <defs>
      <path id="DejaVuSans-54" d="M -19 4666 
L 3928 4666 
L 3928 4134 
L 2272 4134 
L 2272 0 
L 1638 0 
L 1638 4134 
L -19 4134 
L -19 4666 
z
" transform="scale(0.015625)"/>
      <path id="DejaVuSans-6c" d="M 603 4863 
L 1178 4863 
L 1178 0 
L 603 0 
L 603 4863 
z
" transform="scale(0.015625)"/>
      <path id="DejaVuSans-20" transform="scale(0.015625)"/>
      <path id="DejaVuSans-77" d="M 269 3500 
L 844 3500 
L 1563 769 
L 2278 3500 
L 2956 3500 
L 3675 769 
L 4391 3500 
L 4966 3500 
L 4050 0 
L 3372 0 
L 2619 2869 
L 1863 0 
L 1184 0 
L 269 3500 
z
" transform="scale(0.015625)"/>
      <path id="DejaVuSans-43" d="M 4122 4306 
L 4122 3641 
Q 3803 3938 3442 4084 
Q 3081 4231 2675 4231 
Q 1875 4231 1450 3742 
Q 1025 3253 1025 2328 
Q 1025 1406 1450 917 
Q 1875 428 2675 428 
Q 3081 428 3442 575 
Q 3803 722 4122 1019 
L 4122 359 
Q 3791 134 3420 21 
Q 3050 -91 2638 -91 
Q 1578 -91 968 557 
Q 359 1206 359 2328 
Q 359 3453 968 4101 
Q 1578 4750 2638 4750 
Q 3056 4750 3426 4639 
Q 3797 4528 4122 4306 
z
" transform="scale(0.015625)"/>
      <path id="DejaVuSans-79" d="M 2059 -325 
Q 1816 -950 1584 -1140 
Q 1353 -1331 966 -1331 
L 506 -1331 
L 506 -850 
L 844 -850 
Q 1081 -850 1212 -737 
Q 1344 -625 1503 -206 
L 1606 56 
L 191 3500 
L 800 3500 
L 1894 763 
L 2988 3500 
L 3597 3500 
L 2059 -325 
z
" transform="scale(0.015625)"/>
      <path id="DejaVuSans-63" d="M 3122 3366 
L 3122 2828 
Q 2878 2963 2633 3030 
Q 2388 3097 2138 3097 
Q 1578 3097 1268 2742 
Q 959 2388 959 1747 
Q 959 1106 1268 751 
Q 1578 397 2138 397 
Q 2388 397 2633 464 
Q 2878 531 3122 666 
L 3122 134 
Q 2881 22 2623 -34 
Q 2366 -91 2075 -91 
Q 1284 -91 818 406 
Q 353 903 353 1747 
Q 353 2603 823 3093 
Q 1294 3584 2113 3584 
Q 2378 3584 2631 3529 
Q 2884 3475 3122 3366 
z
" transform="scale(0.015625)"/>
     </defs>
     <use xlink:href="#DejaVuSans-54"/>
     <use xlink:href="#DejaVuSans-69" x="57.958984"/>
     <use xlink:href="#DejaVuSans-6c" x="85.742188"/>
     <use xlink:href="#DejaVuSans-65" x="113.525391"/>
     <use xlink:href="#DejaVuSans-20" x="175.048828"/>
     <use xlink:href="#DejaVuSans-46" x="206.835938"/>
     <use xlink:href="#DejaVuSans-6f" x="260.730469"/>
     <use xlink:href="#DejaVuSans-72" x="321.912109"/>
     <use xlink:href="#DejaVuSans-20" x="363.025391"/>
     <use xlink:href="#DejaVuSans-54" x="394.8125"/>
     <use xlink:href="#DejaVuSans-77" x="439.396484"/>
     <use xlink:href="#DejaVuSans-6f" x="521.183594"/>
     <use xlink:href="#DejaVuSans-20" x="582.365234"/>
     <use xlink:href="#DejaVuSans-43" x="614.152344"/>
     <use xlink:href="#DejaVuSans-79" x="683.976562"/>
     <use xlink:href="#DejaVuSans-63" x="743.15625"/>
     <use xlink:href="#DejaVuSans-6c" x="798.136719"/>
     <use xlink:href="#DejaVuSans-65" x="825.919922"/>
    </g>
   </g>
  </g>
  <g id="legend_1">
   <g id="text_15">
    <!-- Trial -->
    <g style="fill: #262626" transform="translate(352.566555 143.995312)scale(0.12 -0.12)">
     <use xlink:href="#DejaVuSans-54"/>
     <use xlink:href="#DejaVuSans-72" x="46.333984"/>
     <use xlink:href="#DejaVuSans-69" x="87.447266"/>
     <use xlink:href="#DejaVuSans-61" x="115.230469"/>
     <use xlink:href="#DejaVuSans-6c" x="176.509766"/>
    </g>
   </g>
   <g id="line2d_22">
    <path d="M 345.924055 156.499219 
L 356.924055 156.499219 
L 367.924055 156.499219 
" style="fill: none; stroke: #edd1cb; stroke-width: 1.5; stroke-linecap: round"/>
   </g>
   <g id="text_16">
    <!-- 0 -->
    <g style="fill: #262626" transform="translate(376.724055 160.349219)scale(0.11 -0.11)">
     <use xlink:href="#DejaVuSans-30"/>
    </g>
   </g>
   <g id="line2d_23">
    <path d="M 345.924055 172.645156 
L 356.924055 172.645156 
L 367.924055 172.645156 
" style="fill: none; stroke: #d499a7; stroke-width: 1.5; stroke-linecap: round"/>
   </g>
   <g id="text_17">
    <!-- 1 -->
    <g style="fill: #262626" transform="translate(376.724055 176.495156)scale(0.11 -0.11)">
     <use xlink:href="#DejaVuSans-31"/>
    </g>
   </g>
   <g id="line2d_24">
    <path d="M 345.924055 188.791094 
L 356.924055 188.791094 
L 367.924055 188.791094 
" style="fill: none; stroke: #a9678f; stroke-width: 1.5; stroke-linecap: round"/>
   </g>
   <g id="text_18">
    <!-- 2 -->
    <g style="fill: #262626" transform="translate(376.724055 192.641094)scale(0.11 -0.11)">
     <use xlink:href="#DejaVuSans-32"/>
    </g>
   </g>
   <g id="line2d_25">
    <path d="M 345.924055 204.937031 
L 356.924055 204.937031 
L 367.924055 204.937031 
" style="fill: none; stroke: #6c3f70; stroke-width: 1.5; stroke-linecap: round"/>
   </g>
   <g id="text_19">
    <!-- 3 -->
    <g style="fill: #262626" transform="translate(376.724055 208.787031)scale(0.11 -0.11)">
     <defs>
      <path id="DejaVuSans-33" d="M 2597 2516 
Q 3050 2419 3304 2112 
Q 3559 1806 3559 1356 
Q 3559 666 3084 287 
Q 2609 -91 1734 -91 
Q 1441 -91 1130 -33 
Q 819 25 488 141 
L 488 750 
Q 750 597 1062 519 
Q 1375 441 1716 441 
Q 2309 441 2620 675 
Q 2931 909 2931 1356 
Q 2931 1769 2642 2001 
Q 2353 2234 1838 2234 
L 1294 2234 
L 1294 2753 
L 1863 2753 
Q 2328 2753 2575 2939 
Q 2822 3125 2822 3475 
Q 2822 3834 2567 4026 
Q 2313 4219 1838 4219 
Q 1578 4219 1281 4162 
Q 984 4106 628 3988 
L 628 4550 
Q 988 4650 1302 4700 
Q 1616 4750 1894 4750 
Q 2613 4750 3031 4423 
Q 3450 4097 3450 3541 
Q 3450 3153 3228 2886 
Q 3006 2619 2597 2516 
z
" transform="scale(0.015625)"/>
     </defs>
     <use xlink:href="#DejaVuSans-33"/>
    </g>
   </g>
   <g id="line2d_26">
    <path d="M 345.924055 221.082969 
L 356.924055 221.082969 
L 367.924055 221.082969 
" style="fill: none; stroke: #2d1e3e; stroke-width: 1.5; stroke-linecap: round"/>
   </g>
   <g id="text_20">
    <!-- 4 -->
    <g style="fill: #262626" transform="translate(376.724055 224.932969)scale(0.11 -0.11)">
     <defs>
      <path id="DejaVuSans-34" d="M 2419 4116 
L 825 1625 
L 2419 1625 
L 2419 4116 
z
M 2253 4666 
L 3047 4666 
L 3047 1625 
L 3713 1625 
L 3713 1100 
L 3047 1100 
L 3047 0 
L 2419 0 
L 2419 1100 
L 313 1100 
L 313 1709 
L 2253 4666 
z
" transform="scale(0.015625)"/>
     </defs>
     <use xlink:href="#DejaVuSans-34"/>
    </g>
   </g>
  </g>
 </g>
 <defs>
  <clipPath id="paacbfb9f09">
   <rect x="53.31" y="22.318125" width="287.926605" height="296.82"/>
  </clipPath>
 </defs>
</svg>
