<?xml version="1.0" encoding="utf-8" standalone="no"?>
<!DOCTYPE svg PUBLIC "-//W3C//DTD SVG 1.1//EN"
  "http://www.w3.org/Graphics/SVG/1.1/DTD/svg11.dtd">
<svg xmlns:xlink="http://www.w3.org/1999/xlink" width="864pt" height="360pt" viewBox="0 0 864 360" xmlns="http://www.w3.org/2000/svg" version="1.1">
 <metadata>
  <rdf:RDF xmlns:dc="http://purl.org/dc/elements/1.1/" xmlns:cc="http://creativecommons.org/ns#" xmlns:rdf="http://www.w3.org/1999/02/22-rdf-syntax-ns#">
   <cc:Work>
    <dc:type rdf:resource="http://purl.org/dc/dcmitype/StillImage"/>
    <dc:date>2022-11-20T08:53:30.910160</dc:date>
    <dc:format>image/svg+xml</dc:format>
    <dc:creator>
     <cc:Agent>
      <dc:title>Matplotlib v3.5.2, https://matplotlib.org/</dc:title>
     </cc:Agent>
    </dc:creator>
   </cc:Work>
  </rdf:RDF>
 </metadata>
 <defs>
  <style type="text/css">*{stroke-linejoin: round; stroke-linecap: butt}</style>
 </defs>
 <g id="figure_1">
  <g id="patch_1">
   <path d="M 0 360 
L 864 360 
L 864 0 
L 0 0 
z
" style="fill: #ffffff"/>
  </g>
  <g id="axes_1">
   <g id="patch_2">
    <path d="M 60.21 309.78 
L 337.45 309.78 
L 337.45 55.68 
L 60.21 55.68 
z
" style="fill: #eaeaf2"/>
   </g>
   <g id="matplotlib.axis_1">
    <g id="xtick_1">
     <g id="line2d_1">
      <path d="M 72.811818 309.78 
L 72.811818 55.68 
" clip-path="url(#p773aff4a10)" style="fill: none; stroke: #ffffff; stroke-linecap: round"/>
     </g>
     <g id="text_1">
      <!-- 0 -->
      <g style="fill: #262626" transform="translate(69.312443 327.638281)scale(0.11 -0.11)">
       <defs>
        <path id="DejaVuSans-30" d="M 2034 4250 
Q 1547 4250 1301 3770 
Q 1056 3291 1056 2328 
Q 1056 1369 1301 889 
Q 1547 409 2034 409 
Q 2525 409 2770 889 
Q 3016 1369 3016 2328 
Q 3016 3291 2770 3770 
Q 2525 4250 2034 4250 
z
M 2034 4750 
Q 2819 4750 3233 4129 
Q 3647 3509 3647 2328 
Q 3647 1150 3233 529 
Q 2819 -91 2034 -91 
Q 1250 -91 836 529 
Q 422 1150 422 2328 
Q 422 3509 836 4129 
Q 1250 4750 2034 4750 
z
" transform="scale(0.015625)"/>
       </defs>
       <use xlink:href="#DejaVuSans-30"/>
      </g>
     </g>
    </g>
    <g id="xtick_2">
     <g id="line2d_2">
      <path d="M 136.137538 309.78 
L 136.137538 55.68 
" clip-path="url(#p773aff4a10)" style="fill: none; stroke: #ffffff; stroke-linecap: round"/>
     </g>
     <g id="text_2">
      <!-- 50 -->
      <g style="fill: #262626" transform="translate(129.138788 327.638281)scale(0.11 -0.11)">
       <defs>
        <path id="DejaVuSans-35" d="M 691 4666 
L 3169 4666 
L 3169 4134 
L 1269 4134 
L 1269 2991 
Q 1406 3038 1543 3061 
Q 1681 3084 1819 3084 
Q 2600 3084 3056 2656 
Q 3513 2228 3513 1497 
Q 3513 744 3044 326 
Q 2575 -91 1722 -91 
Q 1428 -91 1123 -41 
Q 819 9 494 109 
L 494 744 
Q 775 591 1075 516 
Q 1375 441 1709 441 
Q 2250 441 2565 725 
Q 2881 1009 2881 1497 
Q 2881 1984 2565 2268 
Q 2250 2553 1709 2553 
Q 1456 2553 1204 2497 
Q 953 2441 691 2322 
L 691 4666 
z
" transform="scale(0.015625)"/>
       </defs>
       <use xlink:href="#DejaVuSans-35"/>
       <use xlink:href="#DejaVuSans-30" x="63.623047"/>
      </g>
     </g>
    </g>
    <g id="xtick_3">
     <g id="line2d_3">
      <path d="M 199.463257 309.78 
L 199.463257 55.68 
" clip-path="url(#p773aff4a10)" style="fill: none; stroke: #ffffff; stroke-linecap: round"/>
     </g>
     <g id="text_3">
      <!-- 100 -->
      <g style="fill: #262626" transform="translate(188.965132 327.638281)scale(0.11 -0.11)">
       <defs>
        <path id="DejaVuSans-31" d="M 794 531 
L 1825 531 
L 1825 4091 
L 703 3866 
L 703 4441 
L 1819 4666 
L 2450 4666 
L 2450 531 
L 3481 531 
L 3481 0 
L 794 0 
L 794 531 
z
" transform="scale(0.015625)"/>
       </defs>
       <use xlink:href="#DejaVuSans-31"/>
       <use xlink:href="#DejaVuSans-30" x="63.623047"/>
       <use xlink:href="#DejaVuSans-30" x="127.246094"/>
      </g>
     </g>
    </g>
    <g id="xtick_4">
     <g id="line2d_4">
      <path d="M 262.788977 309.78 
L 262.788977 55.68 
" clip-path="url(#p773aff4a10)" style="fill: none; stroke: #ffffff; stroke-linecap: round"/>
     </g>
     <g id="text_4">
      <!-- 150 -->
      <g style="fill: #262626" transform="translate(252.290852 327.638281)scale(0.11 -0.11)">
       <use xlink:href="#DejaVuSans-31"/>
       <use xlink:href="#DejaVuSans-35" x="63.623047"/>
       <use xlink:href="#DejaVuSans-30" x="127.246094"/>
      </g>
     </g>
    </g>
    <g id="xtick_5">
     <g id="line2d_5">
      <path d="M 326.114696 309.78 
L 326.114696 55.68 
" clip-path="url(#p773aff4a10)" style="fill: none; stroke: #ffffff; stroke-linecap: round"/>
     </g>
     <g id="text_5">
      <!-- 200 -->
      <g style="fill: #262626" transform="translate(315.616571 327.638281)scale(0.11 -0.11)">
       <defs>
        <path id="DejaVuSans-32" d="M 1228 531 
L 3431 531 
L 3431 0 
L 469 0 
L 469 531 
Q 828 903 1448 1529 
Q 2069 2156 2228 2338 
Q 2531 2678 2651 2914 
Q 2772 3150 2772 3378 
Q 2772 3750 2511 3984 
Q 2250 4219 1831 4219 
Q 1534 4219 1204 4116 
Q 875 4013 500 3803 
L 500 4441 
Q 881 4594 1212 4672 
Q 1544 4750 1819 4750 
Q 2544 4750 2975 4387 
Q 3406 4025 3406 3419 
Q 3406 3131 3298 2873 
Q 3191 2616 2906 2266 
Q 2828 2175 2409 1742 
Q 1991 1309 1228 531 
z
" transform="scale(0.015625)"/>
       </defs>
       <use xlink:href="#DejaVuSans-32"/>
       <use xlink:href="#DejaVuSans-30" x="63.623047"/>
       <use xlink:href="#DejaVuSans-30" x="127.246094"/>
      </g>
     </g>
    </g>
    <g id="text_6">
     <!-- Generation -->
     <g style="fill: #262626" transform="translate(165.358437 343.044062)scale(0.12 -0.12)">
      <defs>
       <path id="DejaVuSans-47" d="M 3809 666 
L 3809 1919 
L 2778 1919 
L 2778 2438 
L 4434 2438 
L 4434 434 
Q 4069 175 3628 42 
Q 3188 -91 2688 -91 
Q 1594 -91 976 548 
Q 359 1188 359 2328 
Q 359 3472 976 4111 
Q 1594 4750 2688 4750 
Q 3144 4750 3555 4637 
Q 3966 4525 4313 4306 
L 4313 3634 
Q 3963 3931 3569 4081 
Q 3175 4231 2741 4231 
Q 1884 4231 1454 3753 
Q 1025 3275 1025 2328 
Q 1025 1384 1454 906 
Q 1884 428 2741 428 
Q 3075 428 3337 486 
Q 3600 544 3809 666 
z
" transform="scale(0.015625)"/>
       <path id="DejaVuSans-65" d="M 3597 1894 
L 3597 1613 
L 953 1613 
Q 991 1019 1311 708 
Q 1631 397 2203 397 
Q 2534 397 2845 478 
Q 3156 559 3463 722 
L 3463 178 
Q 3153 47 2828 -22 
Q 2503 -91 2169 -91 
Q 1331 -91 842 396 
Q 353 884 353 1716 
Q 353 2575 817 3079 
Q 1281 3584 2069 3584 
Q 2775 3584 3186 3129 
Q 3597 2675 3597 1894 
z
M 3022 2063 
Q 3016 2534 2758 2815 
Q 2500 3097 2075 3097 
Q 1594 3097 1305 2825 
Q 1016 2553 972 2059 
L 3022 2063 
z
" transform="scale(0.015625)"/>
       <path id="DejaVuSans-6e" d="M 3513 2113 
L 3513 0 
L 2938 0 
L 2938 2094 
Q 2938 2591 2744 2837 
Q 2550 3084 2163 3084 
Q 1697 3084 1428 2787 
Q 1159 2491 1159 1978 
L 1159 0 
L 581 0 
L 581 3500 
L 1159 3500 
L 1159 2956 
Q 1366 3272 1645 3428 
Q 1925 3584 2291 3584 
Q 2894 3584 3203 3211 
Q 3513 2838 3513 2113 
z
" transform="scale(0.015625)"/>
       <path id="DejaVuSans-72" d="M 2631 2963 
Q 2534 3019 2420 3045 
Q 2306 3072 2169 3072 
Q 1681 3072 1420 2755 
Q 1159 2438 1159 1844 
L 1159 0 
L 581 0 
L 581 3500 
L 1159 3500 
L 1159 2956 
Q 1341 3275 1631 3429 
Q 1922 3584 2338 3584 
Q 2397 3584 2469 3576 
Q 2541 3569 2628 3553 
L 2631 2963 
z
" transform="scale(0.015625)"/>
       <path id="DejaVuSans-61" d="M 2194 1759 
Q 1497 1759 1228 1600 
Q 959 1441 959 1056 
Q 959 750 1161 570 
Q 1363 391 1709 391 
Q 2188 391 2477 730 
Q 2766 1069 2766 1631 
L 2766 1759 
L 2194 1759 
z
M 3341 1997 
L 3341 0 
L 2766 0 
L 2766 531 
Q 2569 213 2275 61 
Q 1981 -91 1556 -91 
Q 1019 -91 701 211 
Q 384 513 384 1019 
Q 384 1609 779 1909 
Q 1175 2209 1959 2209 
L 2766 2209 
L 2766 2266 
Q 2766 2663 2505 2880 
Q 2244 3097 1772 3097 
Q 1472 3097 1187 3025 
Q 903 2953 641 2809 
L 641 3341 
Q 956 3463 1253 3523 
Q 1550 3584 1831 3584 
Q 2591 3584 2966 3190 
Q 3341 2797 3341 1997 
z
" transform="scale(0.015625)"/>
       <path id="DejaVuSans-74" d="M 1172 4494 
L 1172 3500 
L 2356 3500 
L 2356 3053 
L 1172 3053 
L 1172 1153 
Q 1172 725 1289 603 
Q 1406 481 1766 481 
L 2356 481 
L 2356 0 
L 1766 0 
Q 1100 0 847 248 
Q 594 497 594 1153 
L 594 3053 
L 172 3053 
L 172 3500 
L 594 3500 
L 594 4494 
L 1172 4494 
z
" transform="scale(0.015625)"/>
       <path id="DejaVuSans-69" d="M 603 3500 
L 1178 3500 
L 1178 0 
L 603 0 
L 603 3500 
z
M 603 4863 
L 1178 4863 
L 1178 4134 
L 603 4134 
L 603 4863 
z
" transform="scale(0.015625)"/>
       <path id="DejaVuSans-6f" d="M 1959 3097 
Q 1497 3097 1228 2736 
Q 959 2375 959 1747 
Q 959 1119 1226 758 
Q 1494 397 1959 397 
Q 2419 397 2687 759 
Q 2956 1122 2956 1747 
Q 2956 2369 2687 2733 
Q 2419 3097 1959 3097 
z
M 1959 3584 
Q 2709 3584 3137 3096 
Q 3566 2609 3566 1747 
Q 3566 888 3137 398 
Q 2709 -91 1959 -91 
Q 1206 -91 779 398 
Q 353 888 353 1747 
Q 353 2609 779 3096 
Q 1206 3584 1959 3584 
z
" transform="scale(0.015625)"/>
      </defs>
      <use xlink:href="#DejaVuSans-47"/>
      <use xlink:href="#DejaVuSans-65" x="77.490234"/>
      <use xlink:href="#DejaVuSans-6e" x="139.013672"/>
      <use xlink:href="#DejaVuSans-65" x="202.392578"/>
      <use xlink:href="#DejaVuSans-72" x="263.916016"/>
      <use xlink:href="#DejaVuSans-61" x="305.029297"/>
      <use xlink:href="#DejaVuSans-74" x="366.308594"/>
      <use xlink:href="#DejaVuSans-69" x="405.517578"/>
      <use xlink:href="#DejaVuSans-6f" x="433.300781"/>
      <use xlink:href="#DejaVuSans-6e" x="494.482422"/>
     </g>
    </g>
   </g>
   <g id="matplotlib.axis_2">
    <g id="ytick_1">
     <g id="line2d_6">
      <path d="M 60.21 298.23 
L 337.45 298.23 
" clip-path="url(#p773aff4a10)" style="fill: none; stroke: #ffffff; stroke-linecap: round"/>
     </g>
     <g id="text_7">
      <!-- 0 -->
      <g style="fill: #262626" transform="translate(43.71125 302.409141)scale(0.11 -0.11)">
       <use xlink:href="#DejaVuSans-30"/>
      </g>
     </g>
    </g>
    <g id="ytick_2">
     <g id="line2d_7">
      <path d="M 60.21 254.48 
L 337.45 254.48 
" clip-path="url(#p773aff4a10)" style="fill: none; stroke: #ffffff; stroke-linecap: round"/>
     </g>
     <g id="text_8">
      <!-- 50 -->
      <g style="fill: #262626" transform="translate(36.7125 258.659141)scale(0.11 -0.11)">
       <use xlink:href="#DejaVuSans-35"/>
       <use xlink:href="#DejaVuSans-30" x="63.623047"/>
      </g>
     </g>
    </g>
    <g id="ytick_3">
     <g id="line2d_8">
      <path d="M 60.21 210.73 
L 337.45 210.73 
" clip-path="url(#p773aff4a10)" style="fill: none; stroke: #ffffff; stroke-linecap: round"/>
     </g>
     <g id="text_9">
      <!-- 100 -->
      <g style="fill: #262626" transform="translate(29.71375 214.909141)scale(0.11 -0.11)">
       <use xlink:href="#DejaVuSans-31"/>
       <use xlink:href="#DejaVuSans-30" x="63.623047"/>
       <use xlink:href="#DejaVuSans-30" x="127.246094"/>
      </g>
     </g>
    </g>
    <g id="ytick_4">
     <g id="line2d_9">
      <path d="M 60.21 166.98 
L 337.45 166.98 
" clip-path="url(#p773aff4a10)" style="fill: none; stroke: #ffffff; stroke-linecap: round"/>
     </g>
     <g id="text_10">
      <!-- 150 -->
      <g style="fill: #262626" transform="translate(29.71375 171.159141)scale(0.11 -0.11)">
       <use xlink:href="#DejaVuSans-31"/>
       <use xlink:href="#DejaVuSans-35" x="63.623047"/>
       <use xlink:href="#DejaVuSans-30" x="127.246094"/>
      </g>
     </g>
    </g>
    <g id="ytick_5">
     <g id="line2d_10">
      <path d="M 60.21 123.23 
L 337.45 123.23 
" clip-path="url(#p773aff4a10)" style="fill: none; stroke: #ffffff; stroke-linecap: round"/>
     </g>
     <g id="text_11">
      <!-- 200 -->
      <g style="fill: #262626" transform="translate(29.71375 127.409141)scale(0.11 -0.11)">
       <use xlink:href="#DejaVuSans-32"/>
       <use xlink:href="#DejaVuSans-30" x="63.623047"/>
       <use xlink:href="#DejaVuSans-30" x="127.246094"/>
      </g>
     </g>
    </g>
    <g id="ytick_6">
     <g id="line2d_11">
      <path d="M 60.21 79.48 
L 337.45 79.48 
" clip-path="url(#p773aff4a10)" style="fill: none; stroke: #ffffff; stroke-linecap: round"/>
     </g>
     <g id="text_12">
      <!-- 250 -->
      <g style="fill: #262626" transform="translate(29.71375 83.659141)scale(0.11 -0.11)">
       <use xlink:href="#DejaVuSans-32"/>
       <use xlink:href="#DejaVuSans-35" x="63.623047"/>
       <use xlink:href="#DejaVuSans-30" x="127.246094"/>
      </g>
     </g>
    </g>
    <g id="text_13">
     <!-- Fitness -->
     <g style="fill: #262626" transform="translate(23.218125 203.510625)rotate(-90)scale(0.12 -0.12)">
      <defs>
       <path id="DejaVuSans-46" d="M 628 4666 
L 3309 4666 
L 3309 4134 
L 1259 4134 
L 1259 2759 
L 3109 2759 
L 3109 2228 
L 1259 2228 
L 1259 0 
L 628 0 
L 628 4666 
z
" transform="scale(0.015625)"/>
       <path id="DejaVuSans-73" d="M 2834 3397 
L 2834 2853 
Q 2591 2978 2328 3040 
Q 2066 3103 1784 3103 
Q 1356 3103 1142 2972 
Q 928 2841 928 2578 
Q 928 2378 1081 2264 
Q 1234 2150 1697 2047 
L 1894 2003 
Q 2506 1872 2764 1633 
Q 3022 1394 3022 966 
Q 3022 478 2636 193 
Q 2250 -91 1575 -91 
Q 1294 -91 989 -36 
Q 684 19 347 128 
L 347 722 
Q 666 556 975 473 
Q 1284 391 1588 391 
Q 1994 391 2212 530 
Q 2431 669 2431 922 
Q 2431 1156 2273 1281 
Q 2116 1406 1581 1522 
L 1381 1569 
Q 847 1681 609 1914 
Q 372 2147 372 2553 
Q 372 3047 722 3315 
Q 1072 3584 1716 3584 
Q 2034 3584 2315 3537 
Q 2597 3491 2834 3397 
z
" transform="scale(0.015625)"/>
      </defs>
      <use xlink:href="#DejaVuSans-46"/>
      <use xlink:href="#DejaVuSans-69" x="50.269531"/>
      <use xlink:href="#DejaVuSans-74" x="78.052734"/>
      <use xlink:href="#DejaVuSans-6e" x="117.261719"/>
      <use xlink:href="#DejaVuSans-65" x="180.640625"/>
      <use xlink:href="#DejaVuSans-73" x="242.164062"/>
      <use xlink:href="#DejaVuSans-73" x="294.263672"/>
     </g>
    </g>
   </g>
   <g id="PolyCollection_1">
    <defs>
     <path id="m56f8d5d4c3" d="M 72.811818 -138.11375 
L 72.811818 -61.77 
L 74.078333 -117.77 
L 75.344847 -121.92625 
L 76.611361 -123.02 
L 77.877876 -122.145 
L 79.14439 -123.895 
L 80.410905 -123.02 
L 81.677419 -123.02 
L 82.943933 -123.02 
L 84.210448 -125.42625 
L 85.476962 -123.67625 
L 86.743476 -124.55125 
L 88.009991 -126.52 
L 89.276505 -127.395 
L 90.54302 -127.395 
L 91.809534 -124.77 
L 93.076048 -130.67625 
L 94.342563 -125.645 
L 95.609077 -124.77 
L 96.875592 -125.42625 
L 98.142106 -127.395 
L 99.40862 -127.395 
L 100.675135 -128.27 
L 101.941649 -123.02 
L 103.208164 -122.5825 
L 104.474678 -128.92625 
L 105.741192 -126.52 
L 107.007707 -123.67625 
L 108.274221 -125.645 
L 109.540735 -123.02 
L 110.80725 -126.52 
L 112.073764 -130.02 
L 113.340279 -129.145 
L 114.606793 -126.52 
L 115.873307 -126.52 
L 117.139822 -123.02 
L 118.406336 -129.145 
L 119.672851 -130.895 
L 120.939365 -126.52 
L 122.205879 -127.17625 
L 123.472394 -129.145 
L 124.738908 -123.67625 
L 126.005423 -127.395 
L 127.271937 -127.17625 
L 128.538451 -124.77 
L 129.804966 -122.80125 
L 131.07148 -127.395 
L 132.337995 -126.30125 
L 133.604509 -128.05125 
L 134.871023 -128.27 
L 136.137538 -124.77 
L 137.404052 -126.30125 
L 138.670566 -129.145 
L 139.937081 -125.645 
L 141.203595 -129.145 
L 142.47011 -125.645 
L 143.736624 -128.27 
L 145.003138 -126.30125 
L 146.269653 -129.145 
L 147.536167 -126.52 
L 148.802682 -132.645 
L 150.069196 -127.17625 
L 151.33571 -126.52 
L 152.602225 -128.92625 
L 153.868739 -127.395 
L 155.135254 -126.52 
L 156.401768 -126.30125 
L 157.668282 -125.42625 
L 158.934797 -124.77 
L 160.201311 -126.52 
L 161.467825 -127.395 
L 162.73434 -124.77 
L 164.000854 -129.80125 
L 165.267369 -132.42625 
L 166.533883 -129.145 
L 167.800397 -126.30125 
L 169.066912 -128.27 
L 170.333426 -124.77 
L 171.599941 -129.145 
L 172.866455 -127.395 
L 174.132969 -124.77 
L 175.399484 -126.52 
L 176.665998 -129.145 
L 177.932513 -126.52 
L 179.199027 -125.645 
L 180.465541 -128.27 
L 181.732056 -129.80125 
L 182.99857 -127.395 
L 184.265085 -127.8325 
L 185.531599 -127.17625 
L 186.798113 -126.30125 
L 188.064628 -123.02 
L 189.331142 -124.77 
L 190.597656 -126.52 
L 191.864171 -123.67625 
L 193.130685 -121.27 
L 194.3972 -126.52 
L 195.663714 -128.05125 
L 196.930228 -127.17625 
L 198.196743 -127.395 
L 199.463257 -126.52 
L 200.729772 -125.645 
L 201.996286 -126.52 
L 203.2628 -123.895 
L 204.529315 -124.77 
L 205.795829 -125.42625 
L 207.062344 -121.05125 
L 208.328858 -125.645 
L 209.595372 -125.645 
L 210.861887 -126.30125 
L 212.128401 -125.645 
L 213.394915 -122.145 
L 214.66143 -127.395 
L 215.927944 -126.52 
L 217.194459 -127.17625 
L 218.460973 -125.42625 
L 219.727487 -129.145 
L 220.994002 -126.9575 
L 222.260516 -124.77 
L 223.527031 -126.52 
L 224.793545 -129.80125 
L 226.060059 -125.42625 
L 227.326574 -125.645 
L 228.593088 -126.52 
L 229.859603 -128.27 
L 231.126117 -126.30125 
L 232.392631 -126.30125 
L 233.659146 -127.395 
L 234.92566 -128.27 
L 236.192175 -128.27 
L 237.458689 -125.42625 
L 238.725203 -127.17625 
L 239.991718 -128.27 
L 241.258232 -128.92625 
L 242.524746 -127.17625 
L 243.791261 -122.145 
L 245.057775 -127.17625 
L 246.32429 -130.895 
L 247.590804 -126.52 
L 248.857318 -130.895 
L 250.123833 -128.92625 
L 251.390347 -127.395 
L 252.656862 -134.395 
L 253.923376 -132.42625 
L 255.18989 -130.895 
L 256.456405 -122.80125 
L 257.722919 -125.645 
L 258.989434 -128.27 
L 260.255948 -129.145 
L 261.522462 -130.895 
L 262.788977 -128.27 
L 264.055491 -128.05125 
L 265.322005 -130.67625 
L 266.58852 -129.80125 
L 267.855034 -130.02 
L 269.121549 -129.145 
L 270.388063 -127.395 
L 271.654577 -130.895 
L 272.921092 -130.67625 
L 274.187606 -130.895 
L 275.454121 -124.77 
L 276.720635 -127.17625 
L 277.987149 -128.05125 
L 279.253664 -130.02 
L 280.520178 -129.80125 
L 281.786693 -126.52 
L 283.053207 -130.895 
L 284.319721 -128.92625 
L 285.586236 -130.67625 
L 286.85275 -127.395 
L 288.119265 -125.42625 
L 289.385779 -129.145 
L 290.652293 -126.52 
L 291.918808 -130.4575 
L 293.185322 -128.05125 
L 294.451836 -132.645 
L 295.718351 -126.52 
L 296.984865 -130.02 
L 298.25138 -126.30125 
L 299.517894 -130.67625 
L 300.784408 -130.67625 
L 302.050923 -128.05125 
L 303.317437 -128.27 
L 304.583952 -129.80125 
L 305.850466 -122.145 
L 307.11698 -127.395 
L 308.383495 -127.395 
L 309.650009 -127.395 
L 310.916524 -126.30125 
L 312.183038 -125.645 
L 313.449552 -130.02 
L 314.716067 -126.52 
L 315.982581 -126.30125 
L 317.249095 -129.145 
L 318.51561 -129.145 
L 319.782124 -128.27 
L 321.048639 -129.5825 
L 322.315153 -128.27 
L 323.581667 -124.55125 
L 324.848182 -127.395 
L 324.848182 -154.52 
L 324.848182 -154.52 
L 323.581667 -156.27 
L 322.315153 -153.645 
L 321.048639 -158.02 
L 319.782124 -154.52 
L 318.51561 -156.27 
L 317.249095 -153.645 
L 315.982581 -158.02 
L 314.716067 -153.86375 
L 313.449552 -156.27 
L 312.183038 -157.145 
L 310.916524 -154.73875 
L 309.650009 -151.02 
L 308.383495 -149.48875 
L 307.11698 -158.23875 
L 305.850466 -152.77 
L 304.583952 -154.52 
L 303.317437 -151.895 
L 302.050923 -158.895 
L 300.784408 -155.395 
L 299.517894 -153.645 
L 298.25138 -150.36375 
L 296.984865 -155.395 
L 295.718351 -154.73875 
L 294.451836 -158.895 
L 293.185322 -159.77 
L 291.918808 -159.77 
L 290.652293 -156.27 
L 289.385779 -153.645 
L 288.119265 -151.02 
L 286.85275 -154.73875 
L 285.586236 -153.86375 
L 284.319721 -155.395 
L 283.053207 -159.3325 
L 281.786693 -156.27 
L 280.520178 -152.98875 
L 279.253664 -156.27 
L 277.987149 -155.61375 
L 276.720635 -157.5825 
L 275.454121 -152.77 
L 274.187606 -155.61375 
L 272.921092 -154.73875 
L 271.654577 -157.36375 
L 270.388063 -157.5825 
L 269.121549 -154.73875 
L 267.855034 -154.52 
L 266.58852 -154.73875 
L 265.322005 -157.36375 
L 264.055491 -150.36375 
L 262.788977 -154.73875 
L 261.522462 -157.145 
L 260.255948 -155.61375 
L 258.989434 -156.27 
L 257.722919 -154.0825 
L 256.456405 -151.895 
L 255.18989 -156.48875 
L 253.923376 -158.23875 
L 252.656862 -159.98875 
L 251.390347 -153.86375 
L 250.123833 -157.36375 
L 248.857318 -153.645 
L 247.590804 -155.395 
L 246.32429 -157.145 
L 245.057775 -152.98875 
L 243.791261 -154.52 
L 242.524746 -152.98875 
L 241.258232 -156.48875 
L 239.991718 -158.23875 
L 238.725203 -158.02 
L 237.458689 -152.77 
L 236.192175 -154.52 
L 234.92566 -152.98875 
L 233.659146 -151.23875 
L 232.392631 -158.895 
L 231.126117 -151.895 
L 229.859603 -155.395 
L 228.593088 -151.23875 
L 227.326574 -157.36375 
L 226.060059 -154.52 
L 224.793545 -157.5825 
L 223.527031 -153.645 
L 222.260516 -157.145 
L 220.994002 -154.73875 
L 219.727487 -156.27 
L 218.460973 -152.77 
L 217.194459 -153.645 
L 215.927944 -154.73875 
L 214.66143 -156.48875 
L 213.394915 -153.86375 
L 212.128401 -150.36375 
L 210.861887 -146.86375 
L 209.595372 -148.61375 
L 208.328858 -151.895 
L 207.062344 -149.48875 
L 205.795829 -151.23875 
L 204.529315 -152.77 
L 203.2628 -154.52 
L 201.996286 -156.27 
L 200.729772 -155.395 
L 199.463257 -150.36375 
L 198.196743 -152.98875 
L 196.930228 -152.98875 
L 195.663714 -152.11375 
L 194.3972 -149.48875 
L 193.130685 -151.895 
L 191.864171 -152.98875 
L 190.597656 -151.23875 
L 189.331142 -151.895 
L 188.064628 -152.11375 
L 186.798113 -151.23875 
L 185.531599 -153.645 
L 184.265085 -153.645 
L 182.99857 -157.36375 
L 181.732056 -155.61375 
L 180.465541 -154.52 
L 179.199027 -156.27 
L 177.932513 -152.77 
L 176.665998 -151.4575 
L 175.399484 -157.145 
L 174.132969 -151.02 
L 172.866455 -152.77 
L 171.599941 -152.77 
L 170.333426 -157.145 
L 169.066912 -155.61375 
L 167.800397 -152.77 
L 166.533883 -158.895 
L 165.267369 -154.52 
L 164.000854 -155.395 
L 162.73434 -157.145 
L 161.467825 -152.11375 
L 160.201311 -157.145 
L 158.934797 -156.27 
L 157.668282 -156.27 
L 156.401768 -154.52 
L 155.135254 -152.98875 
L 153.868739 -152.77 
L 152.602225 -154.73875 
L 151.33571 -157.145 
L 150.069196 -152.98875 
L 148.802682 -154.73875 
L 147.536167 -154.0825 
L 146.269653 -153.645 
L 145.003138 -152.11375 
L 143.736624 -154.73875 
L 142.47011 -152.77 
L 141.203595 -154.52 
L 139.937081 -155.395 
L 138.670566 -156.27 
L 137.404052 -157.145 
L 136.137538 -151.895 
L 134.871023 -155.395 
L 133.604509 -155.61375 
L 132.337995 -151.02 
L 131.07148 -154.52 
L 129.804966 -155.61375 
L 128.538451 -153.645 
L 127.271937 -156.48875 
L 126.005423 -154.52 
L 124.738908 -151.895 
L 123.472394 -152.98875 
L 122.205879 -152.98875 
L 120.939365 -156.48875 
L 119.672851 -159.77 
L 118.406336 -152.55125 
L 117.139822 -155.61375 
L 115.873307 -151.4575 
L 114.606793 -154.73875 
L 113.340279 -155.395 
L 112.073764 -156.27 
L 110.80725 -157.36375 
L 109.540735 -150.145 
L 108.274221 -154.52 
L 107.007707 -152.77 
L 105.741192 -155.395 
L 104.474678 -155.395 
L 103.208164 -152.98875 
L 101.941649 -151.02 
L 100.675135 -151.895 
L 99.40862 -156.27 
L 98.142106 -153.86375 
L 96.875592 -153.86375 
L 95.609077 -152.98875 
L 94.342563 -156.48875 
L 93.076048 -153.86375 
L 91.809534 -154.73875 
L 90.54302 -153.645 
L 89.276505 -156.48875 
L 88.009991 -152.11375 
L 86.743476 -152.11375 
L 85.476962 -151.895 
L 84.210448 -155.395 
L 82.943933 -151.23875 
L 81.677419 -152.11375 
L 80.410905 -152.77 
L 79.14439 -149.27 
L 77.877876 -152.11375 
L 76.611361 -151.23875 
L 75.344847 -150.145 
L 74.078333 -145.77 
L 72.811818 -138.11375 
z
" style="stroke: #4c72b0; stroke-opacity: 0.2"/>
    </defs>
    <g clip-path="url(#p773aff4a10)">
     <use xlink:href="#m56f8d5d4c3" x="0" y="360" style="fill: #4c72b0; fill-opacity: 0.2; stroke: #4c72b0; stroke-opacity: 0.2"/>
    </g>
   </g>
   <g id="PolyCollection_2">
    <defs>
     <path id="m9e51a2dde7" d="M 72.811818 -116.23875 
L 72.811818 -61.77 
L 74.078333 -107.27 
L 75.344847 -115.80125 
L 76.611361 -122.145 
L 77.877876 -126.52 
L 79.14439 -123.02 
L 80.410905 -123.67625 
L 81.677419 -127.395 
L 82.943933 -123.02 
L 84.210448 -127.395 
L 85.476962 -125.42625 
L 86.743476 -124.77 
L 88.009991 -125.645 
L 89.276505 -121.27 
L 90.54302 -123.02 
L 91.809534 -128.27 
L 93.076048 -128.27 
L 94.342563 -128.05125 
L 95.609077 -123.67625 
L 96.875592 -128.27 
L 98.142106 -128.05125 
L 99.40862 -125.645 
L 100.675135 -128.05125 
L 101.941649 -123.895 
L 103.208164 -127.17625 
L 104.474678 -123.895 
L 105.741192 -122.145 
L 107.007707 -123.895 
L 108.274221 -129.80125 
L 109.540735 -124.55125 
L 110.80725 -128.92625 
L 112.073764 -127.17625 
L 113.340279 -126.30125 
L 114.606793 -121.05125 
L 115.873307 -129.145 
L 117.139822 -121.05125 
L 118.406336 -125.645 
L 119.672851 -122.145 
L 120.939365 -126.52 
L 122.205879 -120.395 
L 123.472394 -126.52 
L 124.738908 -123.895 
L 126.005423 -130.02 
L 127.271937 -127.17625 
L 128.538451 -123.02 
L 129.804966 -130.895 
L 131.07148 -126.52 
L 132.337995 -127.17625 
L 133.604509 -122.80125 
L 134.871023 -125.645 
L 136.137538 -128.27 
L 137.404052 -129.80125 
L 138.670566 -127.17625 
L 139.937081 -127.8325 
L 141.203595 -123.895 
L 142.47011 -124.55125 
L 143.736624 -119.9575 
L 145.003138 -123.895 
L 146.269653 -123.895 
L 147.536167 -127.17625 
L 148.802682 -127.395 
L 150.069196 -125.645 
L 151.33571 -128.05125 
L 152.602225 -123.895 
L 153.868739 -129.80125 
L 155.135254 -126.52 
L 156.401768 -127.395 
L 157.668282 -124.55125 
L 158.934797 -128.92625 
L 160.201311 -127.395 
L 161.467825 -121.92625 
L 162.73434 -126.30125 
L 164.000854 -122.80125 
L 165.267369 -130.02 
L 166.533883 -133.52 
L 167.800397 -121.92625 
L 169.066912 -123.895 
L 170.333426 -127.395 
L 171.599941 -128.27 
L 172.866455 -128.05125 
L 174.132969 -128.27 
L 175.399484 -124.77 
L 176.665998 -127.395 
L 177.932513 -126.52 
L 179.199027 -127.17625 
L 180.465541 -124.55125 
L 181.732056 -123.02 
L 182.99857 -123.67625 
L 184.265085 -128.05125 
L 185.531599 -121.92625 
L 186.798113 -124.77 
L 188.064628 -127.17625 
L 189.331142 -126.52 
L 190.597656 -123.67625 
L 191.864171 -123.67625 
L 193.130685 -123.67625 
L 194.3972 -123.02 
L 195.663714 -123.02 
L 196.930228 -122.145 
L 198.196743 -123.895 
L 199.463257 -130.895 
L 200.729772 -128.92625 
L 201.996286 -130.895 
L 203.2628 -125.645 
L 204.529315 -130.02 
L 205.795829 -128.27 
L 207.062344 -120.395 
L 208.328858 -128.27 
L 209.595372 -125.645 
L 210.861887 -132.645 
L 212.128401 -130.02 
L 213.394915 -129.145 
L 214.66143 -127.395 
L 215.927944 -123.67625 
L 217.194459 -127.17625 
L 218.460973 -128.05125 
L 219.727487 -126.52 
L 220.994002 -127.395 
L 222.260516 -127.395 
L 223.527031 -124.77 
L 224.793545 -131.77 
L 226.060059 -130.67625 
L 227.326574 -127.395 
L 228.593088 -127.395 
L 229.859603 -126.52 
L 231.126117 -128.05125 
L 232.392631 -128.05125 
L 233.659146 -125.645 
L 234.92566 -130.02 
L 236.192175 -127.395 
L 237.458689 -127.17625 
L 238.725203 -128.27 
L 239.991718 -128.27 
L 241.258232 -127.395 
L 242.524746 -126.30125 
L 243.791261 -127.395 
L 245.057775 -126.30125 
L 246.32429 -122.145 
L 247.590804 -127.395 
L 248.857318 -127.395 
L 250.123833 -127.395 
L 251.390347 -128.92625 
L 252.656862 -128.27 
L 253.923376 -126.52 
L 255.18989 -129.80125 
L 256.456405 -130.895 
L 257.722919 -124.77 
L 258.989434 -128.05125 
L 260.255948 -125.42625 
L 261.522462 -124.77 
L 262.788977 -128.05125 
L 264.055491 -123.67625 
L 265.322005 -130.02 
L 266.58852 -129.145 
L 267.855034 -127.17625 
L 269.121549 -126.9575 
L 270.388063 -125.645 
L 271.654577 -128.27 
L 272.921092 -126.30125 
L 274.187606 -129.145 
L 275.454121 -129.145 
L 276.720635 -130.67625 
L 277.987149 -130.02 
L 279.253664 -127.395 
L 280.520178 -130.895 
L 281.786693 -128.27 
L 283.053207 -128.05125 
L 284.319721 -127.8325 
L 285.586236 -126.9575 
L 286.85275 -122.80125 
L 288.119265 -123.895 
L 289.385779 -130.02 
L 290.652293 -125.42625 
L 291.918808 -128.92625 
L 293.185322 -123.02 
L 294.451836 -121.92625 
L 295.718351 -129.145 
L 296.984865 -123.67625 
L 298.25138 -124.77 
L 299.517894 -129.145 
L 300.784408 -123.02 
L 302.050923 -127.17625 
L 303.317437 -127.8325 
L 304.583952 -125.645 
L 305.850466 -126.30125 
L 307.11698 -128.27 
L 308.383495 -128.27 
L 309.650009 -128.05125 
L 310.916524 -129.145 
L 312.183038 -126.52 
L 313.449552 -125.645 
L 314.716067 -127.395 
L 315.982581 -126.30125 
L 317.249095 -127.17625 
L 318.51561 -128.05125 
L 319.782124 -129.5825 
L 321.048639 -128.05125 
L 322.315153 -123.895 
L 323.581667 -132.645 
L 324.848182 -127.17625 
L 324.848182 -158.895 
L 324.848182 -158.895 
L 323.581667 -166.11375 
L 322.315153 -162.8325 
L 321.048639 -159.11375 
L 319.782124 -164.36375 
L 318.51561 -161.52 
L 317.249095 -168.73875 
L 315.982581 -163.27 
L 314.716067 -158.23875 
L 313.449552 -158.895 
L 312.183038 -163.27 
L 310.916524 -158.23875 
L 309.650009 -166.3325 
L 308.383495 -158.895 
L 307.11698 -171.145 
L 305.850466 -162.61375 
L 304.583952 -164.145 
L 303.317437 -162.395 
L 302.050923 -163.48875 
L 300.784408 -159.77 
L 299.517894 -163.27 
L 298.25138 -163.27 
L 296.984865 -160.645 
L 295.718351 -160.645 
L 294.451836 -159.77 
L 293.185322 -163.27 
L 291.918808 -161.52 
L 290.652293 -161.73875 
L 289.385779 -159.98875 
L 288.119265 -164.36375 
L 286.85275 -159.98875 
L 285.586236 -160.645 
L 284.319721 -162.395 
L 283.053207 -165.02 
L 281.786693 -166.3325 
L 280.520178 -166.11375 
L 279.253664 -161.52 
L 277.987149 -160.2075 
L 276.720635 -161.73875 
L 275.454121 -159.98875 
L 274.187606 -165.02 
L 272.921092 -159.98875 
L 271.654577 -165.67625 
L 270.388063 -166.11375 
L 269.121549 -160.645 
L 267.855034 -161.52 
L 266.58852 -158.23875 
L 265.322005 -159.98875 
L 264.055491 -159.98875 
L 262.788977 -159.11375 
L 261.522462 -160.86375 
L 260.255948 -159.98875 
L 258.989434 -157.36375 
L 257.722919 -159.77 
L 256.456405 -166.11375 
L 255.18989 -164.145 
L 253.923376 -165.02 
L 252.656862 -163.7075 
L 251.390347 -162.61375 
L 250.123833 -158.23875 
L 248.857318 -160.86375 
L 247.590804 -158.23875 
L 246.32429 -156.48875 
L 245.057775 -158.02 
L 243.791261 -165.895 
L 242.524746 -163.48875 
L 241.258232 -160.86375 
L 239.991718 -168.0825 
L 238.725203 -156.27 
L 237.458689 -160.86375 
L 236.192175 -155.61375 
L 234.92566 -163.7075 
L 233.659146 -161.73875 
L 232.392631 -165.02 
L 231.126117 -163.48875 
L 229.859603 -162.61375 
L 228.593088 -160.645 
L 227.326574 -158.23875 
L 226.060059 -159.11375 
L 224.793545 -159.11375 
L 223.527031 -162.61375 
L 222.260516 -162.61375 
L 220.994002 -166.77 
L 219.727487 -170.48875 
L 218.460973 -162.395 
L 217.194459 -171.145 
L 215.927944 -159.11375 
L 214.66143 -166.11375 
L 213.394915 -167.645 
L 212.128401 -157.36375 
L 210.861887 -163.92625 
L 209.595372 -158.02 
L 208.328858 -162.395 
L 207.062344 -154.52 
L 205.795829 -167.645 
L 204.529315 -168.30125 
L 203.2628 -164.5825 
L 201.996286 -171.145 
L 200.729772 -168.52 
L 199.463257 -165.23875 
L 198.196743 -158.23875 
L 196.930228 -153.86375 
L 195.663714 -157.145 
L 194.3972 -159.98875 
L 193.130685 -155.395 
L 191.864171 -156.48875 
L 190.597656 -156.27 
L 189.331142 -158.895 
L 188.064628 -159.98875 
L 186.798113 -160.645 
L 185.531599 -152.98875 
L 184.265085 -163.27 
L 182.99857 -161.0825 
L 181.732056 -157.145 
L 180.465541 -162.8325 
L 179.199027 -162.61375 
L 177.932513 -166.98875 
L 176.665998 -163.7075 
L 175.399484 -158.23875 
L 174.132969 -160.645 
L 172.866455 -161.30125 
L 171.599941 -165.23875 
L 170.333426 -163.27 
L 169.066912 -162.395 
L 167.800397 -163.27 
L 166.533883 -162.61375 
L 165.267369 -163.27 
L 164.000854 -156.27 
L 162.73434 -158.02 
L 161.467825 -159.98875 
L 160.201311 -161.52 
L 158.934797 -166.77 
L 157.668282 -160.2075 
L 156.401768 -168.73875 
L 155.135254 -158.23875 
L 153.868739 -170.48875 
L 152.602225 -160.2075 
L 151.33571 -162.395 
L 150.069196 -156.27 
L 148.802682 -160.86375 
L 147.536167 -160.86375 
L 146.269653 -162.61375 
L 145.003138 -162.61375 
L 143.736624 -162.17625 
L 142.47011 -160.86375 
L 141.203595 -157.36375 
L 139.937081 -161.73875 
L 138.670566 -157.145 
L 137.404052 -164.145 
L 136.137538 -158.4575 
L 134.871023 -159.98875 
L 133.604509 -158.895 
L 132.337995 -161.9575 
L 131.07148 -154.73875 
L 129.804966 -161.73875 
L 128.538451 -153.645 
L 127.271937 -153.86375 
L 126.005423 -159.77 
L 124.738908 -160.645 
L 123.472394 -158.895 
L 122.205879 -157.145 
L 120.939365 -154.73875 
L 119.672851 -154.73875 
L 118.406336 -155.395 
L 117.139822 -153.645 
L 115.873307 -156.48875 
L 114.606793 -155.395 
L 113.340279 -160.645 
L 112.073764 -156.27 
L 110.80725 -159.77 
L 109.540735 -150.36375 
L 108.274221 -159.11375 
L 107.007707 -156.48875 
L 105.741192 -156.27 
L 104.474678 -153.645 
L 103.208164 -156.48875 
L 101.941649 -152.77 
L 100.675135 -157.145 
L 99.40862 -154.52 
L 98.142106 -157.145 
L 96.875592 -156.27 
L 95.609077 -151.02 
L 94.342563 -157.145 
L 93.076048 -151.895 
L 91.809534 -153.645 
L 90.54302 -153.645 
L 89.276505 -152.77 
L 88.009991 -154.73875 
L 86.743476 -153.2075 
L 85.476962 -152.11375 
L 84.210448 -155.61375 
L 82.943933 -151.23875 
L 81.677419 -153.86375 
L 80.410905 -149.05125 
L 79.14439 -150.145 
L 77.877876 -154.52 
L 76.611361 -150.145 
L 75.344847 -150.36375 
L 74.078333 -144.23875 
L 72.811818 -116.23875 
z
" style="stroke: #dd8452; stroke-opacity: 0.2"/>
    </defs>
    <g clip-path="url(#p773aff4a10)">
     <use xlink:href="#m9e51a2dde7" x="0" y="360" style="fill: #dd8452; fill-opacity: 0.2; stroke: #dd8452; stroke-opacity: 0.2"/>
    </g>
   </g>
   <g id="line2d_12">
    <path d="M 72.811818 250.105 
L 74.078333 228.23 
L 75.344847 225.605 
L 76.611361 222.105 
L 77.877876 222.98 
L 79.14439 222.5425 
L 80.410905 223.4175 
L 81.677419 222.98 
L 82.943933 223.4175 
L 84.210448 219.9175 
L 85.476962 221.23 
L 86.743476 222.105 
L 88.009991 218.605 
L 89.276505 217.2925 
L 90.54302 218.605 
L 91.809534 220.7925 
L 93.076048 215.98 
L 94.342563 222.105 
L 95.609077 220.355 
L 96.875592 219.9175 
L 98.142106 219.0425 
L 99.40862 219.48 
L 100.675135 220.7925 
L 101.941649 224.73 
L 103.208164 222.105 
L 104.474678 219.0425 
L 105.741192 219.0425 
L 107.007707 220.355 
L 108.274221 222.98 
L 109.540735 222.5425 
L 110.80725 221.23 
L 112.073764 218.605 
L 113.340279 217.2925 
L 114.606793 222.105 
L 115.873307 220.355 
L 117.139822 222.5425 
L 118.406336 218.605 
L 119.672851 214.23 
L 120.939365 220.355 
L 122.205879 222.5425 
L 123.472394 220.355 
L 124.738908 222.98 
L 126.005423 221.23 
L 127.271937 218.1675 
L 128.538451 222.105 
L 129.804966 218.605 
L 131.07148 220.355 
L 132.337995 221.6675 
L 133.604509 216.855 
L 134.871023 220.355 
L 136.137538 220.7925 
L 137.404052 220.355 
L 138.670566 216.855 
L 139.937081 223.855 
L 141.203595 216.4175 
L 142.47011 219.48 
L 143.736624 217.2925 
L 145.003138 221.23 
L 146.269653 220.355 
L 147.536167 219.9175 
L 148.802682 215.98 
L 150.069196 219.48 
L 151.33571 220.355 
L 152.602225 218.605 
L 155.135254 220.355 
L 156.401768 218.605 
L 157.668282 220.7925 
L 158.934797 220.355 
L 160.201311 216.855 
L 161.467825 220.355 
L 162.73434 219.48 
L 164.000854 217.73 
L 165.267369 218.605 
L 166.533883 216.855 
L 167.800397 220.7925 
L 169.066912 217.73 
L 170.333426 221.23 
L 171.599941 221.23 
L 172.866455 216.855 
L 174.132969 222.98 
L 175.399484 218.1675 
L 176.665998 219.0425 
L 177.932513 222.105 
L 179.199027 219.48 
L 180.465541 220.355 
L 181.732056 217.73 
L 182.99857 217.73 
L 184.265085 221.23 
L 185.531599 219.9175 
L 186.798113 221.23 
L 188.064628 225.605 
L 189.331142 222.105 
L 190.597656 220.355 
L 191.864171 220.355 
L 193.130685 222.98 
L 194.3972 222.98 
L 195.663714 221.6675 
L 196.930228 220.7925 
L 198.196743 218.605 
L 199.463257 219.48 
L 200.729772 220.7925 
L 201.996286 220.355 
L 203.2628 220.355 
L 204.529315 221.6675 
L 205.795829 222.5425 
L 207.062344 225.605 
L 208.328858 223.4175 
L 209.595372 225.605 
L 210.861887 222.5425 
L 212.128401 222.98 
L 213.394915 225.1675 
L 214.66143 218.605 
L 215.927944 219.48 
L 217.194459 221.23 
L 218.460973 219.48 
L 219.727487 217.2925 
L 220.994002 219.48 
L 222.260516 218.605 
L 223.527031 218.605 
L 224.793545 219.0425 
L 226.060059 222.5425 
L 227.326574 220.355 
L 228.593088 221.23 
L 229.859603 219.0425 
L 231.126117 219.48 
L 232.392631 218.605 
L 234.92566 218.605 
L 236.192175 221.23 
L 237.458689 222.105 
L 238.725203 216.855 
L 239.991718 216.855 
L 242.524746 220.355 
L 243.791261 218.605 
L 245.057775 220.7925 
L 246.32429 216.855 
L 247.590804 218.1675 
L 248.857318 215.98 
L 250.123833 219.48 
L 251.390347 221.6675 
L 252.656862 211.605 
L 253.923376 216.855 
L 255.18989 215.5425 
L 256.456405 224.73 
L 257.722919 219.0425 
L 258.989434 215.98 
L 260.255948 218.1675 
L 261.522462 216.855 
L 262.788977 219.0425 
L 264.055491 222.105 
L 265.322005 217.73 
L 266.58852 217.73 
L 267.855034 216.855 
L 269.121549 220.355 
L 270.388063 218.605 
L 271.654577 218.605 
L 272.921092 216.855 
L 274.187606 216.855 
L 275.454121 225.1675 
L 276.720635 218.605 
L 277.987149 216.855 
L 279.253664 217.73 
L 280.520178 220.355 
L 281.786693 220.355 
L 283.053207 217.2925 
L 284.319721 216.855 
L 285.586236 217.73 
L 286.85275 217.2925 
L 288.119265 221.6675 
L 289.385779 216.855 
L 290.652293 215.105 
L 291.918808 215.98 
L 293.185322 216.4175 
L 294.451836 214.23 
L 295.718351 218.605 
L 296.984865 216.4175 
L 298.25138 219.48 
L 299.517894 217.73 
L 300.784408 220.355 
L 302.050923 218.1675 
L 303.317437 219.9175 
L 304.583952 218.1675 
L 305.850466 222.105 
L 307.11698 219.0425 
L 308.383495 220.355 
L 309.650009 222.105 
L 310.916524 222.105 
L 312.183038 221.23 
L 313.449552 216.855 
L 314.716067 220.7925 
L 315.982581 219.0425 
L 317.249095 216.855 
L 318.51561 222.5425 
L 319.782124 219.48 
L 321.048639 217.73 
L 322.315153 220.7925 
L 323.581667 219.48 
L 324.848182 221.6675 
L 324.848182 221.6675 
" clip-path="url(#p773aff4a10)" style="fill: none; stroke: #4c72b0; stroke-width: 1.5; stroke-linecap: round"/>
   </g>
   <g id="line2d_13">
    <path d="M 72.811818 291.23 
L 74.078333 232.605 
L 75.344847 229.105 
L 76.611361 222.105 
L 77.877876 221.23 
L 79.14439 222.105 
L 80.410905 223.855 
L 81.677419 219.48 
L 82.943933 222.98 
L 84.210448 222.98 
L 85.476962 222.105 
L 86.743476 222.105 
L 88.009991 220.355 
L 89.276505 219.48 
L 90.54302 219.9175 
L 91.809534 219.48 
L 93.076048 220.7925 
L 94.342563 217.73 
L 95.609077 221.23 
L 96.875592 215.105 
L 98.142106 217.2925 
L 99.40862 221.23 
L 100.675135 221.6675 
L 101.941649 222.98 
L 103.208164 216.855 
L 104.474678 222.5425 
L 105.741192 221.23 
L 107.007707 220.7925 
L 108.274221 215.98 
L 109.540735 220.7925 
L 110.80725 217.2925 
L 114.606793 221.23 
L 115.873307 218.605 
L 117.139822 220.355 
L 118.406336 218.605 
L 119.672851 221.23 
L 120.939365 222.105 
L 122.205879 217.73 
L 123.472394 218.605 
L 126.005423 215.98 
L 127.271937 218.1675 
L 128.538451 221.6675 
L 129.804966 215.105 
L 131.07148 221.6675 
L 132.337995 215.5425 
L 133.604509 216.855 
L 134.871023 216.855 
L 136.137538 216.4175 
L 137.404052 215.105 
L 138.670566 219.48 
L 139.937081 216.855 
L 141.203595 222.105 
L 142.47011 219.9175 
L 143.736624 219.48 
L 145.003138 216.855 
L 146.269653 216.4175 
L 147.536167 219.48 
L 148.802682 217.2925 
L 150.069196 219.9175 
L 151.33571 217.73 
L 152.602225 219.0425 
L 153.868739 218.605 
L 155.135254 216.855 
L 156.401768 216.855 
L 157.668282 221.23 
L 158.934797 212.9175 
L 160.201311 218.605 
L 161.467825 221.23 
L 162.73434 216.4175 
L 164.000854 219.48 
L 165.267369 215.98 
L 166.533883 215.105 
L 167.800397 217.2925 
L 169.066912 218.1675 
L 170.333426 217.2925 
L 171.599941 214.23 
L 172.866455 216.855 
L 174.132969 216.855 
L 177.932513 218.1675 
L 179.199027 217.73 
L 180.465541 219.48 
L 181.732056 220.355 
L 182.99857 217.73 
L 184.265085 215.98 
L 185.531599 219.9175 
L 186.798113 219.9175 
L 188.064628 220.7925 
L 189.331142 222.5425 
L 190.597656 220.355 
L 191.864171 219.9175 
L 193.130685 223.4175 
L 194.3972 222.5425 
L 195.663714 220.355 
L 196.930228 222.98 
L 198.196743 216.855 
L 199.463257 212.9175 
L 200.729772 213.355 
L 201.996286 213.355 
L 203.2628 215.98 
L 204.529315 215.98 
L 205.795829 213.7925 
L 207.062344 222.5425 
L 208.328858 218.1675 
L 209.595372 219.9175 
L 210.861887 214.6675 
L 212.128401 216.4175 
L 213.394915 214.23 
L 214.66143 213.355 
L 215.927944 223.855 
L 217.194459 216.4175 
L 218.460973 220.355 
L 219.727487 213.355 
L 220.994002 213.7925 
L 222.260516 213.355 
L 223.527031 220.355 
L 224.793545 215.5425 
L 226.060059 215.98 
L 227.326574 217.73 
L 228.593088 216.855 
L 229.859603 216.4175 
L 231.126117 214.23 
L 232.392631 215.5425 
L 233.659146 220.355 
L 234.92566 217.2925 
L 236.192175 218.1675 
L 237.458689 215.98 
L 238.725203 215.5425 
L 239.991718 214.23 
L 241.258232 216.855 
L 242.524746 217.73 
L 243.791261 215.98 
L 246.32429 222.98 
L 247.590804 216.4175 
L 248.857318 218.1675 
L 250.123833 217.73 
L 251.390347 217.73 
L 252.656862 219.9175 
L 253.923376 215.98 
L 255.18989 213.355 
L 256.456405 212.48 
L 257.722919 217.73 
L 258.989434 217.2925 
L 260.255948 219.0425 
L 261.522462 218.605 
L 262.788977 217.73 
L 264.055491 219.9175 
L 265.322005 215.98 
L 266.58852 218.605 
L 267.855034 215.5425 
L 269.121549 219.0425 
L 270.388063 217.2925 
L 271.654577 217.73 
L 272.921092 219.48 
L 274.187606 217.73 
L 275.454121 215.105 
L 276.720635 214.23 
L 277.987149 217.73 
L 279.253664 215.98 
L 280.520178 215.98 
L 281.786693 219.48 
L 283.053207 213.355 
L 284.319721 218.605 
L 285.586236 216.855 
L 286.85275 220.355 
L 288.119265 217.73 
L 289.385779 214.6675 
L 290.652293 218.605 
L 291.918808 215.105 
L 293.185322 218.605 
L 295.718351 216.855 
L 296.984865 217.73 
L 299.517894 217.73 
L 300.784408 215.5425 
L 302.050923 218.605 
L 303.317437 215.98 
L 304.583952 216.855 
L 305.850466 220.355 
L 307.11698 212.48 
L 308.383495 216.855 
L 309.650009 218.605 
L 310.916524 217.2925 
L 313.449552 217.2925 
L 314.716067 218.1675 
L 315.982581 216.855 
L 317.249095 214.23 
L 318.51561 215.98 
L 319.782124 215.5425 
L 321.048639 215.5425 
L 322.315153 214.6675 
L 323.581667 209.855 
L 324.848182 217.73 
L 324.848182 217.73 
" clip-path="url(#p773aff4a10)" style="fill: none; stroke: #dd8452; stroke-width: 1.5; stroke-linecap: round"/>
   </g>
   <g id="line2d_14"/>
   <g id="line2d_15"/>
   <g id="patch_3">
    <path d="M 60.21 309.78 
L 60.21 55.68 
" style="fill: none; stroke: #ffffff; stroke-width: 1.25; stroke-linejoin: miter; stroke-linecap: square"/>
   </g>
   <g id="patch_4">
    <path d="M 337.45 309.78 
L 337.45 55.68 
" style="fill: none; stroke: #ffffff; stroke-width: 1.25; stroke-linejoin: miter; stroke-linecap: square"/>
   </g>
   <g id="patch_5">
    <path d="M 60.21 309.78 
L 337.45 309.78 
" style="fill: none; stroke: #ffffff; stroke-width: 1.25; stroke-linejoin: miter; stroke-linecap: square"/>
   </g>
   <g id="patch_6">
    <path d="M 60.21 55.68 
L 337.45 55.68 
" style="fill: none; stroke: #ffffff; stroke-width: 1.25; stroke-linejoin: miter; stroke-linecap: square"/>
   </g>
   <g id="text_14">
    <!-- Median By Generation -->
    <g style="fill: #262626" transform="translate(132.052812 49.68)scale(0.12 -0.12)">
     <defs>
      <path id="DejaVuSans-4d" d="M 628 4666 
L 1569 4666 
L 2759 1491 
L 3956 4666 
L 4897 4666 
L 4897 0 
L 4281 0 
L 4281 4097 
L 3078 897 
L 2444 897 
L 1241 4097 
L 1241 0 
L 628 0 
L 628 4666 
z
" transform="scale(0.015625)"/>
      <path id="DejaVuSans-64" d="M 2906 2969 
L 2906 4863 
L 3481 4863 
L 3481 0 
L 2906 0 
L 2906 525 
Q 2725 213 2448 61 
Q 2172 -91 1784 -91 
Q 1150 -91 751 415 
Q 353 922 353 1747 
Q 353 2572 751 3078 
Q 1150 3584 1784 3584 
Q 2172 3584 2448 3432 
Q 2725 3281 2906 2969 
z
M 947 1747 
Q 947 1113 1208 752 
Q 1469 391 1925 391 
Q 2381 391 2643 752 
Q 2906 1113 2906 1747 
Q 2906 2381 2643 2742 
Q 2381 3103 1925 3103 
Q 1469 3103 1208 2742 
Q 947 2381 947 1747 
z
" transform="scale(0.015625)"/>
      <path id="DejaVuSans-20" transform="scale(0.015625)"/>
      <path id="DejaVuSans-42" d="M 1259 2228 
L 1259 519 
L 2272 519 
Q 2781 519 3026 730 
Q 3272 941 3272 1375 
Q 3272 1813 3026 2020 
Q 2781 2228 2272 2228 
L 1259 2228 
z
M 1259 4147 
L 1259 2741 
L 2194 2741 
Q 2656 2741 2882 2914 
Q 3109 3088 3109 3444 
Q 3109 3797 2882 3972 
Q 2656 4147 2194 4147 
L 1259 4147 
z
M 628 4666 
L 2241 4666 
Q 2963 4666 3353 4366 
Q 3744 4066 3744 3513 
Q 3744 3084 3544 2831 
Q 3344 2578 2956 2516 
Q 3422 2416 3680 2098 
Q 3938 1781 3938 1306 
Q 3938 681 3513 340 
Q 3088 0 2303 0 
L 628 0 
L 628 4666 
z
" transform="scale(0.015625)"/>
      <path id="DejaVuSans-79" d="M 2059 -325 
Q 1816 -950 1584 -1140 
Q 1353 -1331 966 -1331 
L 506 -1331 
L 506 -850 
L 844 -850 
Q 1081 -850 1212 -737 
Q 1344 -625 1503 -206 
L 1606 56 
L 191 3500 
L 800 3500 
L 1894 763 
L 2988 3500 
L 3597 3500 
L 2059 -325 
z
" transform="scale(0.015625)"/>
     </defs>
     <use xlink:href="#DejaVuSans-4d"/>
     <use xlink:href="#DejaVuSans-65" x="86.279297"/>
     <use xlink:href="#DejaVuSans-64" x="147.802734"/>
     <use xlink:href="#DejaVuSans-69" x="211.279297"/>
     <use xlink:href="#DejaVuSans-61" x="239.0625"/>
     <use xlink:href="#DejaVuSans-6e" x="300.341797"/>
     <use xlink:href="#DejaVuSans-20" x="363.720703"/>
     <use xlink:href="#DejaVuSans-42" x="395.507812"/>
     <use xlink:href="#DejaVuSans-79" x="464.111328"/>
     <use xlink:href="#DejaVuSans-20" x="523.291016"/>
     <use xlink:href="#DejaVuSans-47" x="555.078125"/>
     <use xlink:href="#DejaVuSans-65" x="632.568359"/>
     <use xlink:href="#DejaVuSans-6e" x="694.091797"/>
     <use xlink:href="#DejaVuSans-65" x="757.470703"/>
     <use xlink:href="#DejaVuSans-72" x="818.994141"/>
     <use xlink:href="#DejaVuSans-61" x="860.107422"/>
     <use xlink:href="#DejaVuSans-74" x="921.386719"/>
     <use xlink:href="#DejaVuSans-69" x="960.595703"/>
     <use xlink:href="#DejaVuSans-6f" x="988.378906"/>
     <use xlink:href="#DejaVuSans-6e" x="1049.560547"/>
    </g>
   </g>
   <g id="legend_1">
    <g id="text_15">
     <!-- GenomeConfig -->
     <g style="fill: #262626" transform="translate(383.545078 169.895312)scale(0.12 -0.12)">
      <defs>
       <path id="DejaVuSans-6d" d="M 3328 2828 
Q 3544 3216 3844 3400 
Q 4144 3584 4550 3584 
Q 5097 3584 5394 3201 
Q 5691 2819 5691 2113 
L 5691 0 
L 5113 0 
L 5113 2094 
Q 5113 2597 4934 2840 
Q 4756 3084 4391 3084 
Q 3944 3084 3684 2787 
Q 3425 2491 3425 1978 
L 3425 0 
L 2847 0 
L 2847 2094 
Q 2847 2600 2669 2842 
Q 2491 3084 2119 3084 
Q 1678 3084 1418 2786 
Q 1159 2488 1159 1978 
L 1159 0 
L 581 0 
L 581 3500 
L 1159 3500 
L 1159 2956 
Q 1356 3278 1631 3431 
Q 1906 3584 2284 3584 
Q 2666 3584 2933 3390 
Q 3200 3197 3328 2828 
z
" transform="scale(0.015625)"/>
       <path id="DejaVuSans-43" d="M 4122 4306 
L 4122 3641 
Q 3803 3938 3442 4084 
Q 3081 4231 2675 4231 
Q 1875 4231 1450 3742 
Q 1025 3253 1025 2328 
Q 1025 1406 1450 917 
Q 1875 428 2675 428 
Q 3081 428 3442 575 
Q 3803 722 4122 1019 
L 4122 359 
Q 3791 134 3420 21 
Q 3050 -91 2638 -91 
Q 1578 -91 968 557 
Q 359 1206 359 2328 
Q 359 3453 968 4101 
Q 1578 4750 2638 4750 
Q 3056 4750 3426 4639 
Q 3797 4528 4122 4306 
z
" transform="scale(0.015625)"/>
       <path id="DejaVuSans-66" d="M 2375 4863 
L 2375 4384 
L 1825 4384 
Q 1516 4384 1395 4259 
Q 1275 4134 1275 3809 
L 1275 3500 
L 2222 3500 
L 2222 3053 
L 1275 3053 
L 1275 0 
L 697 0 
L 697 3053 
L 147 3053 
L 147 3500 
L 697 3500 
L 697 3744 
Q 697 4328 969 4595 
Q 1241 4863 1831 4863 
L 2375 4863 
z
" transform="scale(0.015625)"/>
       <path id="DejaVuSans-67" d="M 2906 1791 
Q 2906 2416 2648 2759 
Q 2391 3103 1925 3103 
Q 1463 3103 1205 2759 
Q 947 2416 947 1791 
Q 947 1169 1205 825 
Q 1463 481 1925 481 
Q 2391 481 2648 825 
Q 2906 1169 2906 1791 
z
M 3481 434 
Q 3481 -459 3084 -895 
Q 2688 -1331 1869 -1331 
Q 1566 -1331 1297 -1286 
Q 1028 -1241 775 -1147 
L 775 -588 
Q 1028 -725 1275 -790 
Q 1522 -856 1778 -856 
Q 2344 -856 2625 -561 
Q 2906 -266 2906 331 
L 2906 616 
Q 2728 306 2450 153 
Q 2172 0 1784 0 
Q 1141 0 747 490 
Q 353 981 353 1791 
Q 353 2603 747 3093 
Q 1141 3584 1784 3584 
Q 2172 3584 2450 3431 
Q 2728 3278 2906 2969 
L 2906 3500 
L 3481 3500 
L 3481 434 
z
" transform="scale(0.015625)"/>
      </defs>
      <use xlink:href="#DejaVuSans-47"/>
      <use xlink:href="#DejaVuSans-65" x="77.490234"/>
      <use xlink:href="#DejaVuSans-6e" x="139.013672"/>
      <use xlink:href="#DejaVuSans-6f" x="202.392578"/>
      <use xlink:href="#DejaVuSans-6d" x="263.574219"/>
      <use xlink:href="#DejaVuSans-65" x="360.986328"/>
      <use xlink:href="#DejaVuSans-43" x="422.509766"/>
      <use xlink:href="#DejaVuSans-6f" x="492.333984"/>
      <use xlink:href="#DejaVuSans-6e" x="553.515625"/>
      <use xlink:href="#DejaVuSans-66" x="616.894531"/>
      <use xlink:href="#DejaVuSans-69" x="652.099609"/>
      <use xlink:href="#DejaVuSans-67" x="679.882812"/>
     </g>
    </g>
    <g id="line2d_16">
     <path d="M 347.35 182.399219 
L 358.35 182.399219 
L 369.35 182.399219 
" style="fill: none; stroke: #4c72b0; stroke-width: 1.5; stroke-linecap: round"/>
    </g>
    <g id="text_16">
     <!-- Control -->
     <g style="fill: #262626" transform="translate(378.15 186.249219)scale(0.11 -0.11)">
      <defs>
       <path id="DejaVuSans-6c" d="M 603 4863 
L 1178 4863 
L 1178 0 
L 603 0 
L 603 4863 
z
" transform="scale(0.015625)"/>
      </defs>
      <use xlink:href="#DejaVuSans-43"/>
      <use xlink:href="#DejaVuSans-6f" x="69.824219"/>
      <use xlink:href="#DejaVuSans-6e" x="131.005859"/>
      <use xlink:href="#DejaVuSans-74" x="194.384766"/>
      <use xlink:href="#DejaVuSans-72" x="233.59375"/>
      <use xlink:href="#DejaVuSans-6f" x="272.457031"/>
      <use xlink:href="#DejaVuSans-6c" x="333.638672"/>
     </g>
    </g>
    <g id="line2d_17">
     <path d="M 347.35 198.545156 
L 358.35 198.545156 
L 369.35 198.545156 
" style="fill: none; stroke: #dd8452; stroke-width: 1.5; stroke-linecap: round"/>
    </g>
    <g id="text_17">
     <!-- No Vector x Global Only -->
     <g style="fill: #262626" transform="translate(378.15 202.395156)scale(0.11 -0.11)">
      <defs>
       <path id="DejaVuSans-4e" d="M 628 4666 
L 1478 4666 
L 3547 763 
L 3547 4666 
L 4159 4666 
L 4159 0 
L 3309 0 
L 1241 3903 
L 1241 0 
L 628 0 
L 628 4666 
z
" transform="scale(0.015625)"/>
       <path id="DejaVuSans-56" d="M 1831 0 
L 50 4666 
L 709 4666 
L 2188 738 
L 3669 4666 
L 4325 4666 
L 2547 0 
L 1831 0 
z
" transform="scale(0.015625)"/>
       <path id="DejaVuSans-63" d="M 3122 3366 
L 3122 2828 
Q 2878 2963 2633 3030 
Q 2388 3097 2138 3097 
Q 1578 3097 1268 2742 
Q 959 2388 959 1747 
Q 959 1106 1268 751 
Q 1578 397 2138 397 
Q 2388 397 2633 464 
Q 2878 531 3122 666 
L 3122 134 
Q 2881 22 2623 -34 
Q 2366 -91 2075 -91 
Q 1284 -91 818 406 
Q 353 903 353 1747 
Q 353 2603 823 3093 
Q 1294 3584 2113 3584 
Q 2378 3584 2631 3529 
Q 2884 3475 3122 3366 
z
" transform="scale(0.015625)"/>
       <path id="DejaVuSans-78" d="M 3513 3500 
L 2247 1797 
L 3578 0 
L 2900 0 
L 1881 1375 
L 863 0 
L 184 0 
L 1544 1831 
L 300 3500 
L 978 3500 
L 1906 2253 
L 2834 3500 
L 3513 3500 
z
" transform="scale(0.015625)"/>
       <path id="DejaVuSans-62" d="M 3116 1747 
Q 3116 2381 2855 2742 
Q 2594 3103 2138 3103 
Q 1681 3103 1420 2742 
Q 1159 2381 1159 1747 
Q 1159 1113 1420 752 
Q 1681 391 2138 391 
Q 2594 391 2855 752 
Q 3116 1113 3116 1747 
z
M 1159 2969 
Q 1341 3281 1617 3432 
Q 1894 3584 2278 3584 
Q 2916 3584 3314 3078 
Q 3713 2572 3713 1747 
Q 3713 922 3314 415 
Q 2916 -91 2278 -91 
Q 1894 -91 1617 61 
Q 1341 213 1159 525 
L 1159 0 
L 581 0 
L 581 4863 
L 1159 4863 
L 1159 2969 
z
" transform="scale(0.015625)"/>
       <path id="DejaVuSans-4f" d="M 2522 4238 
Q 1834 4238 1429 3725 
Q 1025 3213 1025 2328 
Q 1025 1447 1429 934 
Q 1834 422 2522 422 
Q 3209 422 3611 934 
Q 4013 1447 4013 2328 
Q 4013 3213 3611 3725 
Q 3209 4238 2522 4238 
z
M 2522 4750 
Q 3503 4750 4090 4092 
Q 4678 3434 4678 2328 
Q 4678 1225 4090 567 
Q 3503 -91 2522 -91 
Q 1538 -91 948 565 
Q 359 1222 359 2328 
Q 359 3434 948 4092 
Q 1538 4750 2522 4750 
z
" transform="scale(0.015625)"/>
      </defs>
      <use xlink:href="#DejaVuSans-4e"/>
      <use xlink:href="#DejaVuSans-6f" x="74.804688"/>
      <use xlink:href="#DejaVuSans-20" x="135.986328"/>
      <use xlink:href="#DejaVuSans-56" x="167.773438"/>
      <use xlink:href="#DejaVuSans-65" x="228.431641"/>
      <use xlink:href="#DejaVuSans-63" x="289.955078"/>
      <use xlink:href="#DejaVuSans-74" x="344.935547"/>
      <use xlink:href="#DejaVuSans-6f" x="384.144531"/>
      <use xlink:href="#DejaVuSans-72" x="445.326172"/>
      <use xlink:href="#DejaVuSans-20" x="486.439453"/>
      <use xlink:href="#DejaVuSans-78" x="518.226562"/>
      <use xlink:href="#DejaVuSans-20" x="577.40625"/>
      <use xlink:href="#DejaVuSans-47" x="609.193359"/>
      <use xlink:href="#DejaVuSans-6c" x="686.683594"/>
      <use xlink:href="#DejaVuSans-6f" x="714.466797"/>
      <use xlink:href="#DejaVuSans-62" x="775.648438"/>
      <use xlink:href="#DejaVuSans-61" x="839.125"/>
      <use xlink:href="#DejaVuSans-6c" x="900.404297"/>
      <use xlink:href="#DejaVuSans-20" x="928.1875"/>
      <use xlink:href="#DejaVuSans-4f" x="959.974609"/>
      <use xlink:href="#DejaVuSans-6e" x="1038.685547"/>
      <use xlink:href="#DejaVuSans-6c" x="1102.064453"/>
      <use xlink:href="#DejaVuSans-79" x="1129.847656"/>
     </g>
    </g>
   </g>
  </g>
  <g id="axes_2">
   <g id="patch_7">
    <path d="M 573.8 309.78 
L 851.04 309.78 
L 851.04 55.68 
L 573.8 55.68 
z
" style="fill: #eaeaf2"/>
   </g>
   <g id="matplotlib.axis_3">
    <g id="xtick_6"/>
    <g id="xtick_7"/>
    <g id="text_18">
     <!-- GenomeConfig -->
     <g style="fill: #262626" transform="translate(667.8175 332.398125)scale(0.12 -0.12)">
      <use xlink:href="#DejaVuSans-47"/>
      <use xlink:href="#DejaVuSans-65" x="77.490234"/>
      <use xlink:href="#DejaVuSans-6e" x="139.013672"/>
      <use xlink:href="#DejaVuSans-6f" x="202.392578"/>
      <use xlink:href="#DejaVuSans-6d" x="263.574219"/>
      <use xlink:href="#DejaVuSans-65" x="360.986328"/>
      <use xlink:href="#DejaVuSans-43" x="422.509766"/>
      <use xlink:href="#DejaVuSans-6f" x="492.333984"/>
      <use xlink:href="#DejaVuSans-6e" x="553.515625"/>
      <use xlink:href="#DejaVuSans-66" x="616.894531"/>
      <use xlink:href="#DejaVuSans-69" x="652.099609"/>
      <use xlink:href="#DejaVuSans-67" x="679.882812"/>
     </g>
    </g>
   </g>
   <g id="matplotlib.axis_4">
    <g id="ytick_7">
     <g id="line2d_18">
      <path d="M 573.8 298.23 
L 851.04 298.23 
" clip-path="url(#p69f39657e5)" style="fill: none; stroke: #ffffff; stroke-linecap: round"/>
     </g>
     <g id="text_19">
      <!-- 0 -->
      <g style="fill: #262626" transform="translate(557.30125 302.409141)scale(0.11 -0.11)">
       <use xlink:href="#DejaVuSans-30"/>
      </g>
     </g>
    </g>
    <g id="ytick_8">
     <g id="line2d_19">
      <path d="M 573.8 254.48 
L 851.04 254.48 
" clip-path="url(#p69f39657e5)" style="fill: none; stroke: #ffffff; stroke-linecap: round"/>
     </g>
     <g id="text_20">
      <!-- 50 -->
      <g style="fill: #262626" transform="translate(550.3025 258.659141)scale(0.11 -0.11)">
       <use xlink:href="#DejaVuSans-35"/>
       <use xlink:href="#DejaVuSans-30" x="63.623047"/>
      </g>
     </g>
    </g>
    <g id="ytick_9">
     <g id="line2d_20">
      <path d="M 573.8 210.73 
L 851.04 210.73 
" clip-path="url(#p69f39657e5)" style="fill: none; stroke: #ffffff; stroke-linecap: round"/>
     </g>
     <g id="text_21">
      <!-- 100 -->
      <g style="fill: #262626" transform="translate(543.30375 214.909141)scale(0.11 -0.11)">
       <use xlink:href="#DejaVuSans-31"/>
       <use xlink:href="#DejaVuSans-30" x="63.623047"/>
       <use xlink:href="#DejaVuSans-30" x="127.246094"/>
      </g>
     </g>
    </g>
    <g id="ytick_10">
     <g id="line2d_21">
      <path d="M 573.8 166.98 
L 851.04 166.98 
" clip-path="url(#p69f39657e5)" style="fill: none; stroke: #ffffff; stroke-linecap: round"/>
     </g>
     <g id="text_22">
      <!-- 150 -->
      <g style="fill: #262626" transform="translate(543.30375 171.159141)scale(0.11 -0.11)">
       <use xlink:href="#DejaVuSans-31"/>
       <use xlink:href="#DejaVuSans-35" x="63.623047"/>
       <use xlink:href="#DejaVuSans-30" x="127.246094"/>
      </g>
     </g>
    </g>
    <g id="ytick_11">
     <g id="line2d_22">
      <path d="M 573.8 123.23 
L 851.04 123.23 
" clip-path="url(#p69f39657e5)" style="fill: none; stroke: #ffffff; stroke-linecap: round"/>
     </g>
     <g id="text_23">
      <!-- 200 -->
      <g style="fill: #262626" transform="translate(543.30375 127.409141)scale(0.11 -0.11)">
       <use xlink:href="#DejaVuSans-32"/>
       <use xlink:href="#DejaVuSans-30" x="63.623047"/>
       <use xlink:href="#DejaVuSans-30" x="127.246094"/>
      </g>
     </g>
    </g>
    <g id="ytick_12">
     <g id="line2d_23">
      <path d="M 573.8 79.48 
L 851.04 79.48 
" clip-path="url(#p69f39657e5)" style="fill: none; stroke: #ffffff; stroke-linecap: round"/>
     </g>
     <g id="text_24">
      <!-- 250 -->
      <g style="fill: #262626" transform="translate(543.30375 83.659141)scale(0.11 -0.11)">
       <use xlink:href="#DejaVuSans-32"/>
       <use xlink:href="#DejaVuSans-35" x="63.623047"/>
       <use xlink:href="#DejaVuSans-30" x="127.246094"/>
      </g>
     </g>
    </g>
    <g id="text_25">
     <!-- Fitness -->
     <g style="fill: #262626" transform="translate(536.808125 203.510625)rotate(-90)scale(0.12 -0.12)">
      <use xlink:href="#DejaVuSans-46"/>
      <use xlink:href="#DejaVuSans-69" x="50.269531"/>
      <use xlink:href="#DejaVuSans-74" x="78.052734"/>
      <use xlink:href="#DejaVuSans-6e" x="117.261719"/>
      <use xlink:href="#DejaVuSans-65" x="180.640625"/>
      <use xlink:href="#DejaVuSans-73" x="242.164062"/>
      <use xlink:href="#DejaVuSans-73" x="294.263672"/>
     </g>
    </g>
   </g>
   <g id="patch_8">
    <path d="M 587.662 207.6675 
L 698.558 207.6675 
L 698.558 206.355 
L 587.662 206.355 
L 587.662 207.6675 
z
" clip-path="url(#p69f39657e5)" style="fill: #5875a4; stroke: #4c4c4c; stroke-width: 1.5; stroke-linejoin: miter"/>
   </g>
   <g id="patch_9">
    <path d="M 726.282 209.855 
L 837.178 209.855 
L 837.178 209.4175 
L 726.282 209.4175 
L 726.282 209.855 
z
" clip-path="url(#p69f39657e5)" style="fill: #cc8963; stroke: #4c4c4c; stroke-width: 1.5; stroke-linejoin: miter"/>
   </g>
   <g id="line2d_24">
    <path d="M 643.11 207.6675 
L 643.11 209.4175 
" clip-path="url(#p69f39657e5)" style="fill: none; stroke: #4c4c4c; stroke-width: 1.5; stroke-linecap: round"/>
   </g>
   <g id="line2d_25">
    <path d="M 643.11 206.355 
L 643.11 206.355 
" clip-path="url(#p69f39657e5)" style="fill: none; stroke: #4c4c4c; stroke-width: 1.5; stroke-linecap: round"/>
   </g>
   <g id="line2d_26">
    <path d="M 615.386 209.4175 
L 670.834 209.4175 
" clip-path="url(#p69f39657e5)" style="fill: none; stroke: #4c4c4c; stroke-width: 1.5; stroke-linecap: round"/>
   </g>
   <g id="line2d_27">
    <path d="M 615.386 206.355 
L 670.834 206.355 
" clip-path="url(#p69f39657e5)" style="fill: none; stroke: #4c4c4c; stroke-width: 1.5; stroke-linecap: round"/>
   </g>
   <g id="line2d_28">
    <defs>
     <path id="m64cc7ae8dc" d="M -0 3.535534 
L 2.12132 0 
L -0 -3.535534 
L -2.12132 -0 
z
" style="stroke: #4c4c4c; stroke-linejoin: miter"/>
    </defs>
    <g clip-path="url(#p69f39657e5)">
     <use xlink:href="#m64cc7ae8dc" x="643.11" y="202.855" style="fill: #4c4c4c; stroke: #4c4c4c; stroke-linejoin: miter"/>
    </g>
   </g>
   <g id="line2d_29">
    <path d="M 781.73 209.855 
L 781.73 209.855 
" clip-path="url(#p69f39657e5)" style="fill: none; stroke: #4c4c4c; stroke-width: 1.5; stroke-linecap: round"/>
   </g>
   <g id="line2d_30">
    <path d="M 781.73 209.4175 
L 781.73 209.4175 
" clip-path="url(#p69f39657e5)" style="fill: none; stroke: #4c4c4c; stroke-width: 1.5; stroke-linecap: round"/>
   </g>
   <g id="line2d_31">
    <path d="M 754.006 209.855 
L 809.454 209.855 
" clip-path="url(#p69f39657e5)" style="fill: none; stroke: #4c4c4c; stroke-width: 1.5; stroke-linecap: round"/>
   </g>
   <g id="line2d_32">
    <path d="M 754.006 209.4175 
L 809.454 209.4175 
" clip-path="url(#p69f39657e5)" style="fill: none; stroke: #4c4c4c; stroke-width: 1.5; stroke-linecap: round"/>
   </g>
   <g id="line2d_33">
    <g clip-path="url(#p69f39657e5)">
     <use xlink:href="#m64cc7ae8dc" x="781.73" y="210.73" style="fill: #4c4c4c; stroke: #4c4c4c; stroke-linejoin: miter"/>
     <use xlink:href="#m64cc7ae8dc" x="781.73" y="67.23" style="fill: #4c4c4c; stroke: #4c4c4c; stroke-linejoin: miter"/>
    </g>
   </g>
   <g id="line2d_34">
    <path d="M 587.662 206.7925 
L 698.558 206.7925 
" clip-path="url(#p69f39657e5)" style="fill: none; stroke: #4c4c4c; stroke-width: 1.5; stroke-linecap: round"/>
   </g>
   <g id="line2d_35">
    <path d="M 726.282 209.4175 
L 837.178 209.4175 
" clip-path="url(#p69f39657e5)" style="fill: none; stroke: #4c4c4c; stroke-width: 1.5; stroke-linecap: round"/>
   </g>
   <g id="patch_10">
    <path d="M 573.8 309.78 
L 573.8 55.68 
" style="fill: none; stroke: #ffffff; stroke-width: 1.25; stroke-linejoin: miter; stroke-linecap: square"/>
   </g>
   <g id="patch_11">
    <path d="M 851.04 309.78 
L 851.04 55.68 
" style="fill: none; stroke: #ffffff; stroke-width: 1.25; stroke-linejoin: miter; stroke-linecap: square"/>
   </g>
   <g id="patch_12">
    <path d="M 573.8 309.78 
L 851.04 309.78 
" style="fill: none; stroke: #ffffff; stroke-width: 1.25; stroke-linejoin: miter; stroke-linecap: square"/>
   </g>
   <g id="patch_13">
    <path d="M 573.8 55.68 
L 851.04 55.68 
" style="fill: none; stroke: #ffffff; stroke-width: 1.25; stroke-linejoin: miter; stroke-linecap: square"/>
   </g>
   <g id="text_26">
    <!-- Best Performance Across Trials -->
    <g style="fill: #262626" transform="translate(620.459687 49.68)scale(0.12 -0.12)">
     <defs>
      <path id="DejaVuSans-50" d="M 1259 4147 
L 1259 2394 
L 2053 2394 
Q 2494 2394 2734 2622 
Q 2975 2850 2975 3272 
Q 2975 3691 2734 3919 
Q 2494 4147 2053 4147 
L 1259 4147 
z
M 628 4666 
L 2053 4666 
Q 2838 4666 3239 4311 
Q 3641 3956 3641 3272 
Q 3641 2581 3239 2228 
Q 2838 1875 2053 1875 
L 1259 1875 
L 1259 0 
L 628 0 
L 628 4666 
z
" transform="scale(0.015625)"/>
      <path id="DejaVuSans-41" d="M 2188 4044 
L 1331 1722 
L 3047 1722 
L 2188 4044 
z
M 1831 4666 
L 2547 4666 
L 4325 0 
L 3669 0 
L 3244 1197 
L 1141 1197 
L 716 0 
L 50 0 
L 1831 4666 
z
" transform="scale(0.015625)"/>
      <path id="DejaVuSans-54" d="M -19 4666 
L 3928 4666 
L 3928 4134 
L 2272 4134 
L 2272 0 
L 1638 0 
L 1638 4134 
L -19 4134 
L -19 4666 
z
" transform="scale(0.015625)"/>
     </defs>
     <use xlink:href="#DejaVuSans-42"/>
     <use xlink:href="#DejaVuSans-65" x="68.603516"/>
     <use xlink:href="#DejaVuSans-73" x="130.126953"/>
     <use xlink:href="#DejaVuSans-74" x="182.226562"/>
     <use xlink:href="#DejaVuSans-20" x="221.435547"/>
     <use xlink:href="#DejaVuSans-50" x="253.222656"/>
     <use xlink:href="#DejaVuSans-65" x="309.900391"/>
     <use xlink:href="#DejaVuSans-72" x="371.423828"/>
     <use xlink:href="#DejaVuSans-66" x="412.537109"/>
     <use xlink:href="#DejaVuSans-6f" x="447.742188"/>
     <use xlink:href="#DejaVuSans-72" x="508.923828"/>
     <use xlink:href="#DejaVuSans-6d" x="548.287109"/>
     <use xlink:href="#DejaVuSans-61" x="645.699219"/>
     <use xlink:href="#DejaVuSans-6e" x="706.978516"/>
     <use xlink:href="#DejaVuSans-63" x="770.357422"/>
     <use xlink:href="#DejaVuSans-65" x="825.337891"/>
     <use xlink:href="#DejaVuSans-20" x="886.861328"/>
     <use xlink:href="#DejaVuSans-41" x="918.648438"/>
     <use xlink:href="#DejaVuSans-63" x="985.306641"/>
     <use xlink:href="#DejaVuSans-72" x="1040.287109"/>
     <use xlink:href="#DejaVuSans-6f" x="1079.150391"/>
     <use xlink:href="#DejaVuSans-73" x="1140.332031"/>
     <use xlink:href="#DejaVuSans-73" x="1192.431641"/>
     <use xlink:href="#DejaVuSans-20" x="1244.53125"/>
     <use xlink:href="#DejaVuSans-54" x="1276.318359"/>
     <use xlink:href="#DejaVuSans-72" x="1322.652344"/>
     <use xlink:href="#DejaVuSans-69" x="1363.765625"/>
     <use xlink:href="#DejaVuSans-61" x="1391.548828"/>
     <use xlink:href="#DejaVuSans-6c" x="1452.828125"/>
     <use xlink:href="#DejaVuSans-73" x="1480.611328"/>
    </g>
   </g>
  </g>
  <g id="text_27">
   <!-- Compare Default To Evolved Rates For Two Cycle -->
   <g style="fill: #262626" transform="translate(256.275 18.14175)scale(0.144 -0.144)">
    <defs>
     <path id="DejaVuSans-70" d="M 1159 525 
L 1159 -1331 
L 581 -1331 
L 581 3500 
L 1159 3500 
L 1159 2969 
Q 1341 3281 1617 3432 
Q 1894 3584 2278 3584 
Q 2916 3584 3314 3078 
Q 3713 2572 3713 1747 
Q 3713 922 3314 415 
Q 2916 -91 2278 -91 
Q 1894 -91 1617 61 
Q 1341 213 1159 525 
z
M 3116 1747 
Q 3116 2381 2855 2742 
Q 2594 3103 2138 3103 
Q 1681 3103 1420 2742 
Q 1159 2381 1159 1747 
Q 1159 1113 1420 752 
Q 1681 391 2138 391 
Q 2594 391 2855 752 
Q 3116 1113 3116 1747 
z
" transform="scale(0.015625)"/>
     <path id="DejaVuSans-44" d="M 1259 4147 
L 1259 519 
L 2022 519 
Q 2988 519 3436 956 
Q 3884 1394 3884 2338 
Q 3884 3275 3436 3711 
Q 2988 4147 2022 4147 
L 1259 4147 
z
M 628 4666 
L 1925 4666 
Q 3281 4666 3915 4102 
Q 4550 3538 4550 2338 
Q 4550 1131 3912 565 
Q 3275 0 1925 0 
L 628 0 
L 628 4666 
z
" transform="scale(0.015625)"/>
     <path id="DejaVuSans-75" d="M 544 1381 
L 544 3500 
L 1119 3500 
L 1119 1403 
Q 1119 906 1312 657 
Q 1506 409 1894 409 
Q 2359 409 2629 706 
Q 2900 1003 2900 1516 
L 2900 3500 
L 3475 3500 
L 3475 0 
L 2900 0 
L 2900 538 
Q 2691 219 2414 64 
Q 2138 -91 1772 -91 
Q 1169 -91 856 284 
Q 544 659 544 1381 
z
M 1991 3584 
L 1991 3584 
z
" transform="scale(0.015625)"/>
     <path id="DejaVuSans-45" d="M 628 4666 
L 3578 4666 
L 3578 4134 
L 1259 4134 
L 1259 2753 
L 3481 2753 
L 3481 2222 
L 1259 2222 
L 1259 531 
L 3634 531 
L 3634 0 
L 628 0 
L 628 4666 
z
" transform="scale(0.015625)"/>
     <path id="DejaVuSans-76" d="M 191 3500 
L 800 3500 
L 1894 563 
L 2988 3500 
L 3597 3500 
L 2284 0 
L 1503 0 
L 191 3500 
z
" transform="scale(0.015625)"/>
     <path id="DejaVuSans-52" d="M 2841 2188 
Q 3044 2119 3236 1894 
Q 3428 1669 3622 1275 
L 4263 0 
L 3584 0 
L 2988 1197 
Q 2756 1666 2539 1819 
Q 2322 1972 1947 1972 
L 1259 1972 
L 1259 0 
L 628 0 
L 628 4666 
L 2053 4666 
Q 2853 4666 3247 4331 
Q 3641 3997 3641 3322 
Q 3641 2881 3436 2590 
Q 3231 2300 2841 2188 
z
M 1259 4147 
L 1259 2491 
L 2053 2491 
Q 2509 2491 2742 2702 
Q 2975 2913 2975 3322 
Q 2975 3731 2742 3939 
Q 2509 4147 2053 4147 
L 1259 4147 
z
" transform="scale(0.015625)"/>
     <path id="DejaVuSans-77" d="M 269 3500 
L 844 3500 
L 1563 769 
L 2278 3500 
L 2956 3500 
L 3675 769 
L 4391 3500 
L 4966 3500 
L 4050 0 
L 3372 0 
L 2619 2869 
L 1863 0 
L 1184 0 
L 269 3500 
z
" transform="scale(0.015625)"/>
    </defs>
    <use xlink:href="#DejaVuSans-43"/>
    <use xlink:href="#DejaVuSans-6f" x="69.824219"/>
    <use xlink:href="#DejaVuSans-6d" x="131.005859"/>
    <use xlink:href="#DejaVuSans-70" x="228.417969"/>
    <use xlink:href="#DejaVuSans-61" x="291.894531"/>
    <use xlink:href="#DejaVuSans-72" x="353.173828"/>
    <use xlink:href="#DejaVuSans-65" x="392.037109"/>
    <use xlink:href="#DejaVuSans-20" x="453.560547"/>
    <use xlink:href="#DejaVuSans-44" x="485.347656"/>
    <use xlink:href="#DejaVuSans-65" x="562.349609"/>
    <use xlink:href="#DejaVuSans-66" x="623.873047"/>
    <use xlink:href="#DejaVuSans-61" x="659.078125"/>
    <use xlink:href="#DejaVuSans-75" x="720.357422"/>
    <use xlink:href="#DejaVuSans-6c" x="783.736328"/>
    <use xlink:href="#DejaVuSans-74" x="811.519531"/>
    <use xlink:href="#DejaVuSans-20" x="850.728516"/>
    <use xlink:href="#DejaVuSans-54" x="882.515625"/>
    <use xlink:href="#DejaVuSans-6f" x="926.599609"/>
    <use xlink:href="#DejaVuSans-20" x="987.78125"/>
    <use xlink:href="#DejaVuSans-45" x="1019.568359"/>
    <use xlink:href="#DejaVuSans-76" x="1082.751953"/>
    <use xlink:href="#DejaVuSans-6f" x="1141.931641"/>
    <use xlink:href="#DejaVuSans-6c" x="1203.113281"/>
    <use xlink:href="#DejaVuSans-76" x="1230.896484"/>
    <use xlink:href="#DejaVuSans-65" x="1290.076172"/>
    <use xlink:href="#DejaVuSans-64" x="1351.599609"/>
    <use xlink:href="#DejaVuSans-20" x="1415.076172"/>
    <use xlink:href="#DejaVuSans-52" x="1446.863281"/>
    <use xlink:href="#DejaVuSans-61" x="1514.095703"/>
    <use xlink:href="#DejaVuSans-74" x="1575.375"/>
    <use xlink:href="#DejaVuSans-65" x="1614.583984"/>
    <use xlink:href="#DejaVuSans-73" x="1676.107422"/>
    <use xlink:href="#DejaVuSans-20" x="1728.207031"/>
    <use xlink:href="#DejaVuSans-46" x="1759.994141"/>
    <use xlink:href="#DejaVuSans-6f" x="1813.888672"/>
    <use xlink:href="#DejaVuSans-72" x="1875.070312"/>
    <use xlink:href="#DejaVuSans-20" x="1916.183594"/>
    <use xlink:href="#DejaVuSans-54" x="1947.970703"/>
    <use xlink:href="#DejaVuSans-77" x="1992.554688"/>
    <use xlink:href="#DejaVuSans-6f" x="2074.341797"/>
    <use xlink:href="#DejaVuSans-20" x="2135.523438"/>
    <use xlink:href="#DejaVuSans-43" x="2167.310547"/>
    <use xlink:href="#DejaVuSans-79" x="2237.134766"/>
    <use xlink:href="#DejaVuSans-63" x="2296.314453"/>
    <use xlink:href="#DejaVuSans-6c" x="2351.294922"/>
    <use xlink:href="#DejaVuSans-65" x="2379.078125"/>
   </g>
  </g>
 </g>
 <defs>
  <clipPath id="p773aff4a10">
   <rect x="60.21" y="55.68" width="277.24" height="254.1"/>
  </clipPath>
  <clipPath id="p69f39657e5">
   <rect x="573.8" y="55.68" width="277.24" height="254.1"/>
  </clipPath>
 </defs>
</svg>
