<?xml version="1.0" encoding="utf-8" standalone="no"?>
<!DOCTYPE svg PUBLIC "-//W3C//DTD SVG 1.1//EN"
  "http://www.w3.org/Graphics/SVG/1.1/DTD/svg11.dtd">
<svg xmlns:xlink="http://www.w3.org/1999/xlink" width="347.2975pt" height="362.097812pt" viewBox="0 0 347.2975 362.097812" xmlns="http://www.w3.org/2000/svg" version="1.1">
 <metadata>
  <rdf:RDF xmlns:dc="http://purl.org/dc/elements/1.1/" xmlns:cc="http://creativecommons.org/ns#" xmlns:rdf="http://www.w3.org/1999/02/22-rdf-syntax-ns#">
   <cc:Work>
    <dc:type rdf:resource="http://purl.org/dc/dcmitype/StillImage"/>
    <dc:date>2022-11-20T08:11:08.590732</dc:date>
    <dc:format>image/svg+xml</dc:format>
    <dc:creator>
     <cc:Agent>
      <dc:title>Matplotlib v3.5.2, https://matplotlib.org/</dc:title>
     </cc:Agent>
    </dc:creator>
   </cc:Work>
  </rdf:RDF>
 </metadata>
 <defs>
  <style type="text/css">*{stroke-linejoin: round; stroke-linecap: butt}</style>
 </defs>
 <g id="figure_1">
  <g id="patch_1">
   <path d="M 0 362.097812 
L 347.2975 362.097812 
L 347.2975 0 
L 0 0 
z
" style="fill: #ffffff"/>
  </g>
  <g id="axes_1">
   <g id="patch_2">
    <path d="M 67.3075 319.138125 
L 340.0975 319.138125 
L 340.0975 22.318125 
L 67.3075 22.318125 
z
" style="fill: #eaeaf2"/>
   </g>
   <g id="matplotlib.axis_1">
    <g id="xtick_1">
     <g id="line2d_1">
      <path d="M 79.707045 319.138125 
L 79.707045 22.318125 
" clip-path="url(#pd570f14b30)" style="fill: none; stroke: #ffffff; stroke-linecap: round"/>
     </g>
     <g id="text_1">
      <!-- 0 -->
      <g style="fill: #262626" transform="translate(76.20767 336.996406)scale(0.11 -0.11)">
       <defs>
        <path id="DejaVuSans-30" d="M 2034 4250 
Q 1547 4250 1301 3770 
Q 1056 3291 1056 2328 
Q 1056 1369 1301 889 
Q 1547 409 2034 409 
Q 2525 409 2770 889 
Q 3016 1369 3016 2328 
Q 3016 3291 2770 3770 
Q 2525 4250 2034 4250 
z
M 2034 4750 
Q 2819 4750 3233 4129 
Q 3647 3509 3647 2328 
Q 3647 1150 3233 529 
Q 2819 -91 2034 -91 
Q 1250 -91 836 529 
Q 422 1150 422 2328 
Q 422 3509 836 4129 
Q 1250 4750 2034 4750 
z
" transform="scale(0.015625)"/>
       </defs>
       <use xlink:href="#DejaVuSans-30"/>
      </g>
     </g>
    </g>
    <g id="xtick_2">
     <g id="line2d_2">
      <path d="M 130.317435 319.138125 
L 130.317435 22.318125 
" clip-path="url(#pd570f14b30)" style="fill: none; stroke: #ffffff; stroke-linecap: round"/>
     </g>
     <g id="text_2">
      <!-- 10 -->
      <g style="fill: #262626" transform="translate(123.318685 336.996406)scale(0.11 -0.11)">
       <defs>
        <path id="DejaVuSans-31" d="M 794 531 
L 1825 531 
L 1825 4091 
L 703 3866 
L 703 4441 
L 1819 4666 
L 2450 4666 
L 2450 531 
L 3481 531 
L 3481 0 
L 794 0 
L 794 531 
z
" transform="scale(0.015625)"/>
       </defs>
       <use xlink:href="#DejaVuSans-31"/>
       <use xlink:href="#DejaVuSans-30" x="63.623047"/>
      </g>
     </g>
    </g>
    <g id="xtick_3">
     <g id="line2d_3">
      <path d="M 180.927825 319.138125 
L 180.927825 22.318125 
" clip-path="url(#pd570f14b30)" style="fill: none; stroke: #ffffff; stroke-linecap: round"/>
     </g>
     <g id="text_3">
      <!-- 20 -->
      <g style="fill: #262626" transform="translate(173.929075 336.996406)scale(0.11 -0.11)">
       <defs>
        <path id="DejaVuSans-32" d="M 1228 531 
L 3431 531 
L 3431 0 
L 469 0 
L 469 531 
Q 828 903 1448 1529 
Q 2069 2156 2228 2338 
Q 2531 2678 2651 2914 
Q 2772 3150 2772 3378 
Q 2772 3750 2511 3984 
Q 2250 4219 1831 4219 
Q 1534 4219 1204 4116 
Q 875 4013 500 3803 
L 500 4441 
Q 881 4594 1212 4672 
Q 1544 4750 1819 4750 
Q 2544 4750 2975 4387 
Q 3406 4025 3406 3419 
Q 3406 3131 3298 2873 
Q 3191 2616 2906 2266 
Q 2828 2175 2409 1742 
Q 1991 1309 1228 531 
z
" transform="scale(0.015625)"/>
       </defs>
       <use xlink:href="#DejaVuSans-32"/>
       <use xlink:href="#DejaVuSans-30" x="63.623047"/>
      </g>
     </g>
    </g>
    <g id="xtick_4">
     <g id="line2d_4">
      <path d="M 231.538214 319.138125 
L 231.538214 22.318125 
" clip-path="url(#pd570f14b30)" style="fill: none; stroke: #ffffff; stroke-linecap: round"/>
     </g>
     <g id="text_4">
      <!-- 30 -->
      <g style="fill: #262626" transform="translate(224.539464 336.996406)scale(0.11 -0.11)">
       <defs>
        <path id="DejaVuSans-33" d="M 2597 2516 
Q 3050 2419 3304 2112 
Q 3559 1806 3559 1356 
Q 3559 666 3084 287 
Q 2609 -91 1734 -91 
Q 1441 -91 1130 -33 
Q 819 25 488 141 
L 488 750 
Q 750 597 1062 519 
Q 1375 441 1716 441 
Q 2309 441 2620 675 
Q 2931 909 2931 1356 
Q 2931 1769 2642 2001 
Q 2353 2234 1838 2234 
L 1294 2234 
L 1294 2753 
L 1863 2753 
Q 2328 2753 2575 2939 
Q 2822 3125 2822 3475 
Q 2822 3834 2567 4026 
Q 2313 4219 1838 4219 
Q 1578 4219 1281 4162 
Q 984 4106 628 3988 
L 628 4550 
Q 988 4650 1302 4700 
Q 1616 4750 1894 4750 
Q 2613 4750 3031 4423 
Q 3450 4097 3450 3541 
Q 3450 3153 3228 2886 
Q 3006 2619 2597 2516 
z
" transform="scale(0.015625)"/>
       </defs>
       <use xlink:href="#DejaVuSans-33"/>
       <use xlink:href="#DejaVuSans-30" x="63.623047"/>
      </g>
     </g>
    </g>
    <g id="xtick_5">
     <g id="line2d_5">
      <path d="M 282.148604 319.138125 
L 282.148604 22.318125 
" clip-path="url(#pd570f14b30)" style="fill: none; stroke: #ffffff; stroke-linecap: round"/>
     </g>
     <g id="text_5">
      <!-- 40 -->
      <g style="fill: #262626" transform="translate(275.149854 336.996406)scale(0.11 -0.11)">
       <defs>
        <path id="DejaVuSans-34" d="M 2419 4116 
L 825 1625 
L 2419 1625 
L 2419 4116 
z
M 2253 4666 
L 3047 4666 
L 3047 1625 
L 3713 1625 
L 3713 1100 
L 3047 1100 
L 3047 0 
L 2419 0 
L 2419 1100 
L 313 1100 
L 313 1709 
L 2253 4666 
z
" transform="scale(0.015625)"/>
       </defs>
       <use xlink:href="#DejaVuSans-34"/>
       <use xlink:href="#DejaVuSans-30" x="63.623047"/>
      </g>
     </g>
    </g>
    <g id="xtick_6">
     <g id="line2d_6">
      <path d="M 332.758994 319.138125 
L 332.758994 22.318125 
" clip-path="url(#pd570f14b30)" style="fill: none; stroke: #ffffff; stroke-linecap: round"/>
     </g>
     <g id="text_6">
      <!-- 50 -->
      <g style="fill: #262626" transform="translate(325.760244 336.996406)scale(0.11 -0.11)">
       <defs>
        <path id="DejaVuSans-35" d="M 691 4666 
L 3169 4666 
L 3169 4134 
L 1269 4134 
L 1269 2991 
Q 1406 3038 1543 3061 
Q 1681 3084 1819 3084 
Q 2600 3084 3056 2656 
Q 3513 2228 3513 1497 
Q 3513 744 3044 326 
Q 2575 -91 1722 -91 
Q 1428 -91 1123 -41 
Q 819 9 494 109 
L 494 744 
Q 775 591 1075 516 
Q 1375 441 1709 441 
Q 2250 441 2565 725 
Q 2881 1009 2881 1497 
Q 2881 1984 2565 2268 
Q 2250 2553 1709 2553 
Q 1456 2553 1204 2497 
Q 953 2441 691 2322 
L 691 4666 
z
" transform="scale(0.015625)"/>
       </defs>
       <use xlink:href="#DejaVuSans-35"/>
       <use xlink:href="#DejaVuSans-30" x="63.623047"/>
      </g>
     </g>
    </g>
    <g id="text_7">
     <!-- Generation -->
     <g style="fill: #262626" transform="translate(170.230937 352.402187)scale(0.12 -0.12)">
      <defs>
       <path id="DejaVuSans-47" d="M 3809 666 
L 3809 1919 
L 2778 1919 
L 2778 2438 
L 4434 2438 
L 4434 434 
Q 4069 175 3628 42 
Q 3188 -91 2688 -91 
Q 1594 -91 976 548 
Q 359 1188 359 2328 
Q 359 3472 976 4111 
Q 1594 4750 2688 4750 
Q 3144 4750 3555 4637 
Q 3966 4525 4313 4306 
L 4313 3634 
Q 3963 3931 3569 4081 
Q 3175 4231 2741 4231 
Q 1884 4231 1454 3753 
Q 1025 3275 1025 2328 
Q 1025 1384 1454 906 
Q 1884 428 2741 428 
Q 3075 428 3337 486 
Q 3600 544 3809 666 
z
" transform="scale(0.015625)"/>
       <path id="DejaVuSans-65" d="M 3597 1894 
L 3597 1613 
L 953 1613 
Q 991 1019 1311 708 
Q 1631 397 2203 397 
Q 2534 397 2845 478 
Q 3156 559 3463 722 
L 3463 178 
Q 3153 47 2828 -22 
Q 2503 -91 2169 -91 
Q 1331 -91 842 396 
Q 353 884 353 1716 
Q 353 2575 817 3079 
Q 1281 3584 2069 3584 
Q 2775 3584 3186 3129 
Q 3597 2675 3597 1894 
z
M 3022 2063 
Q 3016 2534 2758 2815 
Q 2500 3097 2075 3097 
Q 1594 3097 1305 2825 
Q 1016 2553 972 2059 
L 3022 2063 
z
" transform="scale(0.015625)"/>
       <path id="DejaVuSans-6e" d="M 3513 2113 
L 3513 0 
L 2938 0 
L 2938 2094 
Q 2938 2591 2744 2837 
Q 2550 3084 2163 3084 
Q 1697 3084 1428 2787 
Q 1159 2491 1159 1978 
L 1159 0 
L 581 0 
L 581 3500 
L 1159 3500 
L 1159 2956 
Q 1366 3272 1645 3428 
Q 1925 3584 2291 3584 
Q 2894 3584 3203 3211 
Q 3513 2838 3513 2113 
z
" transform="scale(0.015625)"/>
       <path id="DejaVuSans-72" d="M 2631 2963 
Q 2534 3019 2420 3045 
Q 2306 3072 2169 3072 
Q 1681 3072 1420 2755 
Q 1159 2438 1159 1844 
L 1159 0 
L 581 0 
L 581 3500 
L 1159 3500 
L 1159 2956 
Q 1341 3275 1631 3429 
Q 1922 3584 2338 3584 
Q 2397 3584 2469 3576 
Q 2541 3569 2628 3553 
L 2631 2963 
z
" transform="scale(0.015625)"/>
       <path id="DejaVuSans-61" d="M 2194 1759 
Q 1497 1759 1228 1600 
Q 959 1441 959 1056 
Q 959 750 1161 570 
Q 1363 391 1709 391 
Q 2188 391 2477 730 
Q 2766 1069 2766 1631 
L 2766 1759 
L 2194 1759 
z
M 3341 1997 
L 3341 0 
L 2766 0 
L 2766 531 
Q 2569 213 2275 61 
Q 1981 -91 1556 -91 
Q 1019 -91 701 211 
Q 384 513 384 1019 
Q 384 1609 779 1909 
Q 1175 2209 1959 2209 
L 2766 2209 
L 2766 2266 
Q 2766 2663 2505 2880 
Q 2244 3097 1772 3097 
Q 1472 3097 1187 3025 
Q 903 2953 641 2809 
L 641 3341 
Q 956 3463 1253 3523 
Q 1550 3584 1831 3584 
Q 2591 3584 2966 3190 
Q 3341 2797 3341 1997 
z
" transform="scale(0.015625)"/>
       <path id="DejaVuSans-74" d="M 1172 4494 
L 1172 3500 
L 2356 3500 
L 2356 3053 
L 1172 3053 
L 1172 1153 
Q 1172 725 1289 603 
Q 1406 481 1766 481 
L 2356 481 
L 2356 0 
L 1766 0 
Q 1100 0 847 248 
Q 594 497 594 1153 
L 594 3053 
L 172 3053 
L 172 3500 
L 594 3500 
L 594 4494 
L 1172 4494 
z
" transform="scale(0.015625)"/>
       <path id="DejaVuSans-69" d="M 603 3500 
L 1178 3500 
L 1178 0 
L 603 0 
L 603 3500 
z
M 603 4863 
L 1178 4863 
L 1178 4134 
L 603 4134 
L 603 4863 
z
" transform="scale(0.015625)"/>
       <path id="DejaVuSans-6f" d="M 1959 3097 
Q 1497 3097 1228 2736 
Q 959 2375 959 1747 
Q 959 1119 1226 758 
Q 1494 397 1959 397 
Q 2419 397 2687 759 
Q 2956 1122 2956 1747 
Q 2956 2369 2687 2733 
Q 2419 3097 1959 3097 
z
M 1959 3584 
Q 2709 3584 3137 3096 
Q 3566 2609 3566 1747 
Q 3566 888 3137 398 
Q 2709 -91 1959 -91 
Q 1206 -91 779 398 
Q 353 888 353 1747 
Q 353 2609 779 3096 
Q 1206 3584 1959 3584 
z
" transform="scale(0.015625)"/>
      </defs>
      <use xlink:href="#DejaVuSans-47"/>
      <use xlink:href="#DejaVuSans-65" x="77.490234"/>
      <use xlink:href="#DejaVuSans-6e" x="139.013672"/>
      <use xlink:href="#DejaVuSans-65" x="202.392578"/>
      <use xlink:href="#DejaVuSans-72" x="263.916016"/>
      <use xlink:href="#DejaVuSans-61" x="305.029297"/>
      <use xlink:href="#DejaVuSans-74" x="366.308594"/>
      <use xlink:href="#DejaVuSans-69" x="405.517578"/>
      <use xlink:href="#DejaVuSans-6f" x="433.300781"/>
      <use xlink:href="#DejaVuSans-6e" x="494.482422"/>
     </g>
    </g>
   </g>
   <g id="matplotlib.axis_2">
    <g id="ytick_1">
     <g id="line2d_7">
      <path d="M 67.3075 295.118819 
L 340.0975 295.118819 
" clip-path="url(#pd570f14b30)" style="fill: none; stroke: #ffffff; stroke-linecap: round"/>
     </g>
     <g id="text_8">
      <!-- 67000 -->
      <g style="fill: #262626" transform="translate(22.81375 299.297959)scale(0.11 -0.11)">
       <defs>
        <path id="DejaVuSans-36" d="M 2113 2584 
Q 1688 2584 1439 2293 
Q 1191 2003 1191 1497 
Q 1191 994 1439 701 
Q 1688 409 2113 409 
Q 2538 409 2786 701 
Q 3034 994 3034 1497 
Q 3034 2003 2786 2293 
Q 2538 2584 2113 2584 
z
M 3366 4563 
L 3366 3988 
Q 3128 4100 2886 4159 
Q 2644 4219 2406 4219 
Q 1781 4219 1451 3797 
Q 1122 3375 1075 2522 
Q 1259 2794 1537 2939 
Q 1816 3084 2150 3084 
Q 2853 3084 3261 2657 
Q 3669 2231 3669 1497 
Q 3669 778 3244 343 
Q 2819 -91 2113 -91 
Q 1303 -91 875 529 
Q 447 1150 447 2328 
Q 447 3434 972 4092 
Q 1497 4750 2381 4750 
Q 2619 4750 2861 4703 
Q 3103 4656 3366 4563 
z
" transform="scale(0.015625)"/>
        <path id="DejaVuSans-37" d="M 525 4666 
L 3525 4666 
L 3525 4397 
L 1831 0 
L 1172 0 
L 2766 4134 
L 525 4134 
L 525 4666 
z
" transform="scale(0.015625)"/>
       </defs>
       <use xlink:href="#DejaVuSans-36"/>
       <use xlink:href="#DejaVuSans-37" x="63.623047"/>
       <use xlink:href="#DejaVuSans-30" x="127.246094"/>
       <use xlink:href="#DejaVuSans-30" x="190.869141"/>
       <use xlink:href="#DejaVuSans-30" x="254.492188"/>
      </g>
     </g>
    </g>
    <g id="ytick_2">
     <g id="line2d_8">
      <path d="M 67.3075 235.460847 
L 340.0975 235.460847 
" clip-path="url(#pd570f14b30)" style="fill: none; stroke: #ffffff; stroke-linecap: round"/>
     </g>
     <g id="text_9">
      <!-- 68000 -->
      <g style="fill: #262626" transform="translate(22.81375 239.639987)scale(0.11 -0.11)">
       <defs>
        <path id="DejaVuSans-38" d="M 2034 2216 
Q 1584 2216 1326 1975 
Q 1069 1734 1069 1313 
Q 1069 891 1326 650 
Q 1584 409 2034 409 
Q 2484 409 2743 651 
Q 3003 894 3003 1313 
Q 3003 1734 2745 1975 
Q 2488 2216 2034 2216 
z
M 1403 2484 
Q 997 2584 770 2862 
Q 544 3141 544 3541 
Q 544 4100 942 4425 
Q 1341 4750 2034 4750 
Q 2731 4750 3128 4425 
Q 3525 4100 3525 3541 
Q 3525 3141 3298 2862 
Q 3072 2584 2669 2484 
Q 3125 2378 3379 2068 
Q 3634 1759 3634 1313 
Q 3634 634 3220 271 
Q 2806 -91 2034 -91 
Q 1263 -91 848 271 
Q 434 634 434 1313 
Q 434 1759 690 2068 
Q 947 2378 1403 2484 
z
M 1172 3481 
Q 1172 3119 1398 2916 
Q 1625 2713 2034 2713 
Q 2441 2713 2670 2916 
Q 2900 3119 2900 3481 
Q 2900 3844 2670 4047 
Q 2441 4250 2034 4250 
Q 1625 4250 1398 4047 
Q 1172 3844 1172 3481 
z
" transform="scale(0.015625)"/>
       </defs>
       <use xlink:href="#DejaVuSans-36"/>
       <use xlink:href="#DejaVuSans-38" x="63.623047"/>
       <use xlink:href="#DejaVuSans-30" x="127.246094"/>
       <use xlink:href="#DejaVuSans-30" x="190.869141"/>
       <use xlink:href="#DejaVuSans-30" x="254.492188"/>
      </g>
     </g>
    </g>
    <g id="ytick_3">
     <g id="line2d_9">
      <path d="M 67.3075 175.802874 
L 340.0975 175.802874 
" clip-path="url(#pd570f14b30)" style="fill: none; stroke: #ffffff; stroke-linecap: round"/>
     </g>
     <g id="text_10">
      <!-- 69000 -->
      <g style="fill: #262626" transform="translate(22.81375 179.982015)scale(0.11 -0.11)">
       <defs>
        <path id="DejaVuSans-39" d="M 703 97 
L 703 672 
Q 941 559 1184 500 
Q 1428 441 1663 441 
Q 2288 441 2617 861 
Q 2947 1281 2994 2138 
Q 2813 1869 2534 1725 
Q 2256 1581 1919 1581 
Q 1219 1581 811 2004 
Q 403 2428 403 3163 
Q 403 3881 828 4315 
Q 1253 4750 1959 4750 
Q 2769 4750 3195 4129 
Q 3622 3509 3622 2328 
Q 3622 1225 3098 567 
Q 2575 -91 1691 -91 
Q 1453 -91 1209 -44 
Q 966 3 703 97 
z
M 1959 2075 
Q 2384 2075 2632 2365 
Q 2881 2656 2881 3163 
Q 2881 3666 2632 3958 
Q 2384 4250 1959 4250 
Q 1534 4250 1286 3958 
Q 1038 3666 1038 3163 
Q 1038 2656 1286 2365 
Q 1534 2075 1959 2075 
z
" transform="scale(0.015625)"/>
       </defs>
       <use xlink:href="#DejaVuSans-36"/>
       <use xlink:href="#DejaVuSans-39" x="63.623047"/>
       <use xlink:href="#DejaVuSans-30" x="127.246094"/>
       <use xlink:href="#DejaVuSans-30" x="190.869141"/>
       <use xlink:href="#DejaVuSans-30" x="254.492188"/>
      </g>
     </g>
    </g>
    <g id="ytick_4">
     <g id="line2d_10">
      <path d="M 67.3075 116.144902 
L 340.0975 116.144902 
" clip-path="url(#pd570f14b30)" style="fill: none; stroke: #ffffff; stroke-linecap: round"/>
     </g>
     <g id="text_11">
      <!-- 70000 -->
      <g style="fill: #262626" transform="translate(22.81375 120.324043)scale(0.11 -0.11)">
       <use xlink:href="#DejaVuSans-37"/>
       <use xlink:href="#DejaVuSans-30" x="63.623047"/>
       <use xlink:href="#DejaVuSans-30" x="127.246094"/>
       <use xlink:href="#DejaVuSans-30" x="190.869141"/>
       <use xlink:href="#DejaVuSans-30" x="254.492188"/>
      </g>
     </g>
    </g>
    <g id="ytick_5">
     <g id="line2d_11">
      <path d="M 67.3075 56.48693 
L 340.0975 56.48693 
" clip-path="url(#pd570f14b30)" style="fill: none; stroke: #ffffff; stroke-linecap: round"/>
     </g>
     <g id="text_12">
      <!-- 71000 -->
      <g style="fill: #262626" transform="translate(22.81375 60.666071)scale(0.11 -0.11)">
       <use xlink:href="#DejaVuSans-37"/>
       <use xlink:href="#DejaVuSans-31" x="63.623047"/>
       <use xlink:href="#DejaVuSans-30" x="127.246094"/>
       <use xlink:href="#DejaVuSans-30" x="190.869141"/>
       <use xlink:href="#DejaVuSans-30" x="254.492188"/>
      </g>
     </g>
    </g>
    <g id="text_13">
     <!-- Fitness -->
     <g style="fill: #262626" transform="translate(16.318125 191.50875)rotate(-90)scale(0.12 -0.12)">
      <defs>
       <path id="DejaVuSans-46" d="M 628 4666 
L 3309 4666 
L 3309 4134 
L 1259 4134 
L 1259 2759 
L 3109 2759 
L 3109 2228 
L 1259 2228 
L 1259 0 
L 628 0 
L 628 4666 
z
" transform="scale(0.015625)"/>
       <path id="DejaVuSans-73" d="M 2834 3397 
L 2834 2853 
Q 2591 2978 2328 3040 
Q 2066 3103 1784 3103 
Q 1356 3103 1142 2972 
Q 928 2841 928 2578 
Q 928 2378 1081 2264 
Q 1234 2150 1697 2047 
L 1894 2003 
Q 2506 1872 2764 1633 
Q 3022 1394 3022 966 
Q 3022 478 2636 193 
Q 2250 -91 1575 -91 
Q 1294 -91 989 -36 
Q 684 19 347 128 
L 347 722 
Q 666 556 975 473 
Q 1284 391 1588 391 
Q 1994 391 2212 530 
Q 2431 669 2431 922 
Q 2431 1156 2273 1281 
Q 2116 1406 1581 1522 
L 1381 1569 
Q 847 1681 609 1914 
Q 372 2147 372 2553 
Q 372 3047 722 3315 
Q 1072 3584 1716 3584 
Q 2034 3584 2315 3537 
Q 2597 3491 2834 3397 
z
" transform="scale(0.015625)"/>
      </defs>
      <use xlink:href="#DejaVuSans-46"/>
      <use xlink:href="#DejaVuSans-69" x="50.269531"/>
      <use xlink:href="#DejaVuSans-74" x="78.052734"/>
      <use xlink:href="#DejaVuSans-6e" x="117.261719"/>
      <use xlink:href="#DejaVuSans-65" x="180.640625"/>
      <use xlink:href="#DejaVuSans-73" x="242.164062"/>
      <use xlink:href="#DejaVuSans-73" x="294.263672"/>
     </g>
    </g>
   </g>
   <g id="PolyCollection_1">
    <defs>
     <path id="m77369c0cf8" d="M 79.707045 -109.962656 
L 79.707045 -63.057927 
L 84.768084 -59.35326 
L 89.829123 -56.451506 
L 94.890162 -57.732614 
L 99.951201 -65.193822 
L 105.01224 -75.675635 
L 110.073279 -65.037873 
L 115.134318 -78.068339 
L 120.195357 -68.420946 
L 125.256396 -90.302697 
L 130.317435 -70.37507 
L 135.378474 -78.100498 
L 140.439513 -93.243649 
L 145.500552 -82.187349 
L 150.561591 -85.291055 
L 155.62263 -109.4846 
L 160.683669 -81.074355 
L 165.744708 -93.158683 
L 170.805747 -90.532381 
L 175.866786 -111.106411 
L 180.927825 -100.703319 
L 185.988864 -109.053571 
L 191.049903 -97.035472 
L 196.110942 -96.830445 
L 201.171981 -105.862196 
L 206.233019 -122.291768 
L 211.294058 -104.962759 
L 216.355097 -106.292758 
L 221.416136 -105.485978 
L 226.477175 -110.795304 
L 231.538214 -84.047419 
L 236.599253 -101.258092 
L 241.660292 -126.894754 
L 246.721331 -113.999683 
L 251.78237 -109.728871 
L 256.843409 -78.834618 
L 261.904448 -105.359671 
L 266.965487 -78.656016 
L 272.026526 -90.286431 
L 277.087565 -102.532022 
L 282.148604 -96.844707 
L 287.209643 -89.4034 
L 292.270682 -90.667124 
L 297.331721 -125.215009 
L 302.39276 -120.541739 
L 307.453799 -93.240713 
L 312.514838 -90.992213 
L 317.575877 -90.601081 
L 322.636916 -92.750772 
L 327.697955 -113.223896 
L 327.697955 -208.469527 
L 327.697955 -208.469527 
L 322.636916 -192.474292 
L 317.575877 -135.64546 
L 312.514838 -144.56661 
L 307.453799 -185.433766 
L 302.39276 -217.322676 
L 297.331721 -232.760528 
L 292.270682 -176.749616 
L 287.209643 -154.803126 
L 282.148604 -187.697553 
L 277.087565 -198.680632 
L 272.026526 -164.387412 
L 266.965487 -118.888933 
L 261.904448 -184.819568 
L 256.843409 -137.588911 
L 251.78237 -182.148895 
L 246.721331 -239.451077 
L 241.660292 -225.010445 
L 236.599253 -190.531819 
L 231.538214 -203.884951 
L 226.477175 -235.47725 
L 221.416136 -181.514843 
L 216.355097 -214.427167 
L 211.294058 -175.803524 
L 206.233019 -326.287869 
L 201.171981 -213.568279 
L 196.110942 -211.301975 
L 191.049903 -194.203208 
L 185.988864 -207.786583 
L 180.927825 -198.090624 
L 175.866786 -202.557515 
L 170.805747 -199.691042 
L 165.744708 -141.5186 
L 160.683669 -125.710916 
L 155.62263 -246.347632 
L 150.561591 -223.940051 
L 145.500552 -179.590361 
L 140.439513 -198.397257 
L 135.378474 -166.732157 
L 130.317435 -114.043448 
L 125.256396 -255.329885 
L 120.195357 -119.203303 
L 115.134318 -164.17022 
L 110.073279 -256.064936 
L 105.01224 -152.248786 
L 99.951201 -159.093233 
L 94.890162 -92.957943 
L 89.829123 -82.042772 
L 84.768084 -125.653681 
L 79.707045 -109.962656 
z
" style="stroke: #4c72b0; stroke-opacity: 0.2"/>
    </defs>
    <g clip-path="url(#pd570f14b30)">
     <use xlink:href="#m77369c0cf8" x="0" y="362.097812" style="fill: #4c72b0; fill-opacity: 0.2; stroke: #4c72b0; stroke-opacity: 0.2"/>
    </g>
   </g>
   <g id="line2d_12">
    <path d="M 79.707045 278.028674 
L 84.768084 275.196785 
L 89.829123 294.020739 
L 94.890162 287.607507 
L 99.951201 257.099912 
L 105.01224 255.677442 
L 110.073279 220.585504 
L 115.134318 245.899127 
L 120.195357 271.520362 
L 125.256396 200.229085 
L 130.317435 270.662779 
L 135.378474 246.223518 
L 140.439513 222.157119 
L 145.500552 239.325565 
L 150.561591 227.216861 
L 155.62263 194.265153 
L 160.683669 260.114504 
L 165.744708 244.976293 
L 170.805747 222.500152 
L 175.866786 209.347434 
L 180.927825 218.124613 
L 185.988864 206.638589 
L 191.049903 222.237284 
L 196.110942 213.618572 
L 201.171981 205.204933 
L 206.233019 150.975837 
L 211.294058 223.503152 
L 216.355097 207.255676 
L 221.416136 221.886794 
L 226.477175 195.262559 
L 231.538214 232.108814 
L 236.599253 220.156712 
L 241.660292 189.652846 
L 246.721331 192.003743 
L 251.78237 218.374431 
L 256.843409 258.419844 
L 261.904448 220.003839 
L 266.965487 265.123909 
L 272.026526 240.861757 
L 277.087565 214.938504 
L 282.148604 225.391699 
L 287.209643 244.664953 
L 292.270682 234.116678 
L 297.331721 186.518938 
L 302.39276 196.569442 
L 307.453799 228.227317 
L 312.514838 246.984157 
L 317.575877 249.844011 
L 322.636916 222.009838 
L 327.697955 203.761956 
" clip-path="url(#pd570f14b30)" style="fill: none; stroke: #4c72b0; stroke-width: 1.5; stroke-linecap: round"/>
   </g>
   <g id="patch_3">
    <path d="M 67.3075 319.138125 
L 67.3075 22.318125 
" style="fill: none; stroke: #ffffff; stroke-width: 1.25; stroke-linejoin: miter; stroke-linecap: square"/>
   </g>
   <g id="patch_4">
    <path d="M 67.3075 319.138125 
L 340.0975 319.138125 
" style="fill: none; stroke: #ffffff; stroke-width: 1.25; stroke-linejoin: miter; stroke-linecap: square"/>
   </g>
   <g id="text_14">
    <!-- Vector x Global Only -->
    <g style="fill: #262626" transform="translate(142.426562 16.318125)scale(0.12 -0.12)">
     <defs>
      <path id="DejaVuSans-56" d="M 1831 0 
L 50 4666 
L 709 4666 
L 2188 738 
L 3669 4666 
L 4325 4666 
L 2547 0 
L 1831 0 
z
" transform="scale(0.015625)"/>
      <path id="DejaVuSans-63" d="M 3122 3366 
L 3122 2828 
Q 2878 2963 2633 3030 
Q 2388 3097 2138 3097 
Q 1578 3097 1268 2742 
Q 959 2388 959 1747 
Q 959 1106 1268 751 
Q 1578 397 2138 397 
Q 2388 397 2633 464 
Q 2878 531 3122 666 
L 3122 134 
Q 2881 22 2623 -34 
Q 2366 -91 2075 -91 
Q 1284 -91 818 406 
Q 353 903 353 1747 
Q 353 2603 823 3093 
Q 1294 3584 2113 3584 
Q 2378 3584 2631 3529 
Q 2884 3475 3122 3366 
z
" transform="scale(0.015625)"/>
      <path id="DejaVuSans-20" transform="scale(0.015625)"/>
      <path id="DejaVuSans-78" d="M 3513 3500 
L 2247 1797 
L 3578 0 
L 2900 0 
L 1881 1375 
L 863 0 
L 184 0 
L 1544 1831 
L 300 3500 
L 978 3500 
L 1906 2253 
L 2834 3500 
L 3513 3500 
z
" transform="scale(0.015625)"/>
      <path id="DejaVuSans-6c" d="M 603 4863 
L 1178 4863 
L 1178 0 
L 603 0 
L 603 4863 
z
" transform="scale(0.015625)"/>
      <path id="DejaVuSans-62" d="M 3116 1747 
Q 3116 2381 2855 2742 
Q 2594 3103 2138 3103 
Q 1681 3103 1420 2742 
Q 1159 2381 1159 1747 
Q 1159 1113 1420 752 
Q 1681 391 2138 391 
Q 2594 391 2855 752 
Q 3116 1113 3116 1747 
z
M 1159 2969 
Q 1341 3281 1617 3432 
Q 1894 3584 2278 3584 
Q 2916 3584 3314 3078 
Q 3713 2572 3713 1747 
Q 3713 922 3314 415 
Q 2916 -91 2278 -91 
Q 1894 -91 1617 61 
Q 1341 213 1159 525 
L 1159 0 
L 581 0 
L 581 4863 
L 1159 4863 
L 1159 2969 
z
" transform="scale(0.015625)"/>
      <path id="DejaVuSans-4f" d="M 2522 4238 
Q 1834 4238 1429 3725 
Q 1025 3213 1025 2328 
Q 1025 1447 1429 934 
Q 1834 422 2522 422 
Q 3209 422 3611 934 
Q 4013 1447 4013 2328 
Q 4013 3213 3611 3725 
Q 3209 4238 2522 4238 
z
M 2522 4750 
Q 3503 4750 4090 4092 
Q 4678 3434 4678 2328 
Q 4678 1225 4090 567 
Q 3503 -91 2522 -91 
Q 1538 -91 948 565 
Q 359 1222 359 2328 
Q 359 3434 948 4092 
Q 1538 4750 2522 4750 
z
" transform="scale(0.015625)"/>
      <path id="DejaVuSans-79" d="M 2059 -325 
Q 1816 -950 1584 -1140 
Q 1353 -1331 966 -1331 
L 506 -1331 
L 506 -850 
L 844 -850 
Q 1081 -850 1212 -737 
Q 1344 -625 1503 -206 
L 1606 56 
L 191 3500 
L 800 3500 
L 1894 763 
L 2988 3500 
L 3597 3500 
L 2059 -325 
z
" transform="scale(0.015625)"/>
     </defs>
     <use xlink:href="#DejaVuSans-56"/>
     <use xlink:href="#DejaVuSans-65" x="60.658203"/>
     <use xlink:href="#DejaVuSans-63" x="122.181641"/>
     <use xlink:href="#DejaVuSans-74" x="177.162109"/>
     <use xlink:href="#DejaVuSans-6f" x="216.371094"/>
     <use xlink:href="#DejaVuSans-72" x="277.552734"/>
     <use xlink:href="#DejaVuSans-20" x="318.666016"/>
     <use xlink:href="#DejaVuSans-78" x="350.453125"/>
     <use xlink:href="#DejaVuSans-20" x="409.632812"/>
     <use xlink:href="#DejaVuSans-47" x="441.419922"/>
     <use xlink:href="#DejaVuSans-6c" x="518.910156"/>
     <use xlink:href="#DejaVuSans-6f" x="546.693359"/>
     <use xlink:href="#DejaVuSans-62" x="607.875"/>
     <use xlink:href="#DejaVuSans-61" x="671.351562"/>
     <use xlink:href="#DejaVuSans-6c" x="732.630859"/>
     <use xlink:href="#DejaVuSans-20" x="760.414062"/>
     <use xlink:href="#DejaVuSans-4f" x="792.201172"/>
     <use xlink:href="#DejaVuSans-6e" x="870.912109"/>
     <use xlink:href="#DejaVuSans-6c" x="934.291016"/>
     <use xlink:href="#DejaVuSans-79" x="962.074219"/>
    </g>
   </g>
  </g>
 </g>
 <defs>
  <clipPath id="pd570f14b30">
   <rect x="67.3075" y="22.318125" width="272.79" height="296.82"/>
  </clipPath>
 </defs>
</svg>
