<?xml version="1.0" encoding="utf-8" standalone="no"?>
<!DOCTYPE svg PUBLIC "-//W3C//DTD SVG 1.1//EN"
  "http://www.w3.org/Graphics/SVG/1.1/DTD/svg11.dtd">
<svg xmlns:xlink="http://www.w3.org/1999/xlink" width="393.52115pt" height="362.097812pt" viewBox="0 0 393.52115 362.097812" xmlns="http://www.w3.org/2000/svg" version="1.1">
 <metadata>
  <rdf:RDF xmlns:dc="http://purl.org/dc/elements/1.1/" xmlns:cc="http://creativecommons.org/ns#" xmlns:rdf="http://www.w3.org/1999/02/22-rdf-syntax-ns#">
   <cc:Work>
    <dc:type rdf:resource="http://purl.org/dc/dcmitype/StillImage"/>
    <dc:date>2022-11-20T08:32:14.898375</dc:date>
    <dc:format>image/svg+xml</dc:format>
    <dc:creator>
     <cc:Agent>
      <dc:title>Matplotlib v3.5.2, https://matplotlib.org/</dc:title>
     </cc:Agent>
    </dc:creator>
   </cc:Work>
  </rdf:RDF>
 </metadata>
 <defs>
  <style type="text/css">*{stroke-linejoin: round; stroke-linecap: butt}</style>
 </defs>
 <g id="figure_1">
  <g id="patch_1">
   <path d="M 0 362.097812 
L 393.52115 362.097812 
L 393.52115 0 
L 0 0 
z
" style="fill: #ffffff"/>
  </g>
  <g id="axes_1">
   <g id="patch_2">
    <path d="M 53.31 319.138125 
L 341.13495 319.138125 
L 341.13495 22.318125 
L 53.31 22.318125 
z
" style="fill: #eaeaf2"/>
   </g>
   <g id="matplotlib.axis_1">
    <g id="xtick_1">
     <g id="line2d_1">
      <path d="M 66.392952 319.138125 
L 66.392952 22.318125 
" clip-path="url(#pb566343667)" style="fill: none; stroke: #ffffff; stroke-linecap: round"/>
     </g>
     <g id="text_1">
      <!-- 0 -->
      <g style="fill: #262626" transform="translate(62.893577 336.996406)scale(0.11 -0.11)">
       <defs>
        <path id="DejaVuSans-30" d="M 2034 4250 
Q 1547 4250 1301 3770 
Q 1056 3291 1056 2328 
Q 1056 1369 1301 889 
Q 1547 409 2034 409 
Q 2525 409 2770 889 
Q 3016 1369 3016 2328 
Q 3016 3291 2770 3770 
Q 2525 4250 2034 4250 
z
M 2034 4750 
Q 2819 4750 3233 4129 
Q 3647 3509 3647 2328 
Q 3647 1150 3233 529 
Q 2819 -91 2034 -91 
Q 1250 -91 836 529 
Q 422 1150 422 2328 
Q 422 3509 836 4129 
Q 1250 4750 2034 4750 
z
" transform="scale(0.015625)"/>
       </defs>
       <use xlink:href="#DejaVuSans-30"/>
      </g>
     </g>
    </g>
    <g id="xtick_2">
     <g id="line2d_2">
      <path d="M 132.136431 319.138125 
L 132.136431 22.318125 
" clip-path="url(#pb566343667)" style="fill: none; stroke: #ffffff; stroke-linecap: round"/>
     </g>
     <g id="text_2">
      <!-- 50 -->
      <g style="fill: #262626" transform="translate(125.137681 336.996406)scale(0.11 -0.11)">
       <defs>
        <path id="DejaVuSans-35" d="M 691 4666 
L 3169 4666 
L 3169 4134 
L 1269 4134 
L 1269 2991 
Q 1406 3038 1543 3061 
Q 1681 3084 1819 3084 
Q 2600 3084 3056 2656 
Q 3513 2228 3513 1497 
Q 3513 744 3044 326 
Q 2575 -91 1722 -91 
Q 1428 -91 1123 -41 
Q 819 9 494 109 
L 494 744 
Q 775 591 1075 516 
Q 1375 441 1709 441 
Q 2250 441 2565 725 
Q 2881 1009 2881 1497 
Q 2881 1984 2565 2268 
Q 2250 2553 1709 2553 
Q 1456 2553 1204 2497 
Q 953 2441 691 2322 
L 691 4666 
z
" transform="scale(0.015625)"/>
       </defs>
       <use xlink:href="#DejaVuSans-35"/>
       <use xlink:href="#DejaVuSans-30" x="63.623047"/>
      </g>
     </g>
    </g>
    <g id="xtick_3">
     <g id="line2d_3">
      <path d="M 197.87991 319.138125 
L 197.87991 22.318125 
" clip-path="url(#pb566343667)" style="fill: none; stroke: #ffffff; stroke-linecap: round"/>
     </g>
     <g id="text_3">
      <!-- 100 -->
      <g style="fill: #262626" transform="translate(187.381785 336.996406)scale(0.11 -0.11)">
       <defs>
        <path id="DejaVuSans-31" d="M 794 531 
L 1825 531 
L 1825 4091 
L 703 3866 
L 703 4441 
L 1819 4666 
L 2450 4666 
L 2450 531 
L 3481 531 
L 3481 0 
L 794 0 
L 794 531 
z
" transform="scale(0.015625)"/>
       </defs>
       <use xlink:href="#DejaVuSans-31"/>
       <use xlink:href="#DejaVuSans-30" x="63.623047"/>
       <use xlink:href="#DejaVuSans-30" x="127.246094"/>
      </g>
     </g>
    </g>
    <g id="xtick_4">
     <g id="line2d_4">
      <path d="M 263.623389 319.138125 
L 263.623389 22.318125 
" clip-path="url(#pb566343667)" style="fill: none; stroke: #ffffff; stroke-linecap: round"/>
     </g>
     <g id="text_4">
      <!-- 150 -->
      <g style="fill: #262626" transform="translate(253.125264 336.996406)scale(0.11 -0.11)">
       <use xlink:href="#DejaVuSans-31"/>
       <use xlink:href="#DejaVuSans-35" x="63.623047"/>
       <use xlink:href="#DejaVuSans-30" x="127.246094"/>
      </g>
     </g>
    </g>
    <g id="xtick_5">
     <g id="line2d_5">
      <path d="M 329.366867 319.138125 
L 329.366867 22.318125 
" clip-path="url(#pb566343667)" style="fill: none; stroke: #ffffff; stroke-linecap: round"/>
     </g>
     <g id="text_5">
      <!-- 200 -->
      <g style="fill: #262626" transform="translate(318.868742 336.996406)scale(0.11 -0.11)">
       <defs>
        <path id="DejaVuSans-32" d="M 1228 531 
L 3431 531 
L 3431 0 
L 469 0 
L 469 531 
Q 828 903 1448 1529 
Q 2069 2156 2228 2338 
Q 2531 2678 2651 2914 
Q 2772 3150 2772 3378 
Q 2772 3750 2511 3984 
Q 2250 4219 1831 4219 
Q 1534 4219 1204 4116 
Q 875 4013 500 3803 
L 500 4441 
Q 881 4594 1212 4672 
Q 1544 4750 1819 4750 
Q 2544 4750 2975 4387 
Q 3406 4025 3406 3419 
Q 3406 3131 3298 2873 
Q 3191 2616 2906 2266 
Q 2828 2175 2409 1742 
Q 1991 1309 1228 531 
z
" transform="scale(0.015625)"/>
       </defs>
       <use xlink:href="#DejaVuSans-32"/>
       <use xlink:href="#DejaVuSans-30" x="63.623047"/>
       <use xlink:href="#DejaVuSans-30" x="127.246094"/>
      </g>
     </g>
    </g>
    <g id="text_6">
     <!-- Generation -->
     <g style="fill: #262626" transform="translate(163.750912 352.402187)scale(0.12 -0.12)">
      <defs>
       <path id="DejaVuSans-47" d="M 3809 666 
L 3809 1919 
L 2778 1919 
L 2778 2438 
L 4434 2438 
L 4434 434 
Q 4069 175 3628 42 
Q 3188 -91 2688 -91 
Q 1594 -91 976 548 
Q 359 1188 359 2328 
Q 359 3472 976 4111 
Q 1594 4750 2688 4750 
Q 3144 4750 3555 4637 
Q 3966 4525 4313 4306 
L 4313 3634 
Q 3963 3931 3569 4081 
Q 3175 4231 2741 4231 
Q 1884 4231 1454 3753 
Q 1025 3275 1025 2328 
Q 1025 1384 1454 906 
Q 1884 428 2741 428 
Q 3075 428 3337 486 
Q 3600 544 3809 666 
z
" transform="scale(0.015625)"/>
       <path id="DejaVuSans-65" d="M 3597 1894 
L 3597 1613 
L 953 1613 
Q 991 1019 1311 708 
Q 1631 397 2203 397 
Q 2534 397 2845 478 
Q 3156 559 3463 722 
L 3463 178 
Q 3153 47 2828 -22 
Q 2503 -91 2169 -91 
Q 1331 -91 842 396 
Q 353 884 353 1716 
Q 353 2575 817 3079 
Q 1281 3584 2069 3584 
Q 2775 3584 3186 3129 
Q 3597 2675 3597 1894 
z
M 3022 2063 
Q 3016 2534 2758 2815 
Q 2500 3097 2075 3097 
Q 1594 3097 1305 2825 
Q 1016 2553 972 2059 
L 3022 2063 
z
" transform="scale(0.015625)"/>
       <path id="DejaVuSans-6e" d="M 3513 2113 
L 3513 0 
L 2938 0 
L 2938 2094 
Q 2938 2591 2744 2837 
Q 2550 3084 2163 3084 
Q 1697 3084 1428 2787 
Q 1159 2491 1159 1978 
L 1159 0 
L 581 0 
L 581 3500 
L 1159 3500 
L 1159 2956 
Q 1366 3272 1645 3428 
Q 1925 3584 2291 3584 
Q 2894 3584 3203 3211 
Q 3513 2838 3513 2113 
z
" transform="scale(0.015625)"/>
       <path id="DejaVuSans-72" d="M 2631 2963 
Q 2534 3019 2420 3045 
Q 2306 3072 2169 3072 
Q 1681 3072 1420 2755 
Q 1159 2438 1159 1844 
L 1159 0 
L 581 0 
L 581 3500 
L 1159 3500 
L 1159 2956 
Q 1341 3275 1631 3429 
Q 1922 3584 2338 3584 
Q 2397 3584 2469 3576 
Q 2541 3569 2628 3553 
L 2631 2963 
z
" transform="scale(0.015625)"/>
       <path id="DejaVuSans-61" d="M 2194 1759 
Q 1497 1759 1228 1600 
Q 959 1441 959 1056 
Q 959 750 1161 570 
Q 1363 391 1709 391 
Q 2188 391 2477 730 
Q 2766 1069 2766 1631 
L 2766 1759 
L 2194 1759 
z
M 3341 1997 
L 3341 0 
L 2766 0 
L 2766 531 
Q 2569 213 2275 61 
Q 1981 -91 1556 -91 
Q 1019 -91 701 211 
Q 384 513 384 1019 
Q 384 1609 779 1909 
Q 1175 2209 1959 2209 
L 2766 2209 
L 2766 2266 
Q 2766 2663 2505 2880 
Q 2244 3097 1772 3097 
Q 1472 3097 1187 3025 
Q 903 2953 641 2809 
L 641 3341 
Q 956 3463 1253 3523 
Q 1550 3584 1831 3584 
Q 2591 3584 2966 3190 
Q 3341 2797 3341 1997 
z
" transform="scale(0.015625)"/>
       <path id="DejaVuSans-74" d="M 1172 4494 
L 1172 3500 
L 2356 3500 
L 2356 3053 
L 1172 3053 
L 1172 1153 
Q 1172 725 1289 603 
Q 1406 481 1766 481 
L 2356 481 
L 2356 0 
L 1766 0 
Q 1100 0 847 248 
Q 594 497 594 1153 
L 594 3053 
L 172 3053 
L 172 3500 
L 594 3500 
L 594 4494 
L 1172 4494 
z
" transform="scale(0.015625)"/>
       <path id="DejaVuSans-69" d="M 603 3500 
L 1178 3500 
L 1178 0 
L 603 0 
L 603 3500 
z
M 603 4863 
L 1178 4863 
L 1178 4134 
L 603 4134 
L 603 4863 
z
" transform="scale(0.015625)"/>
       <path id="DejaVuSans-6f" d="M 1959 3097 
Q 1497 3097 1228 2736 
Q 959 2375 959 1747 
Q 959 1119 1226 758 
Q 1494 397 1959 397 
Q 2419 397 2687 759 
Q 2956 1122 2956 1747 
Q 2956 2369 2687 2733 
Q 2419 3097 1959 3097 
z
M 1959 3584 
Q 2709 3584 3137 3096 
Q 3566 2609 3566 1747 
Q 3566 888 3137 398 
Q 2709 -91 1959 -91 
Q 1206 -91 779 398 
Q 353 888 353 1747 
Q 353 2609 779 3096 
Q 1206 3584 1959 3584 
z
" transform="scale(0.015625)"/>
      </defs>
      <use xlink:href="#DejaVuSans-47"/>
      <use xlink:href="#DejaVuSans-65" x="77.490234"/>
      <use xlink:href="#DejaVuSans-6e" x="139.013672"/>
      <use xlink:href="#DejaVuSans-65" x="202.392578"/>
      <use xlink:href="#DejaVuSans-72" x="263.916016"/>
      <use xlink:href="#DejaVuSans-61" x="305.029297"/>
      <use xlink:href="#DejaVuSans-74" x="366.308594"/>
      <use xlink:href="#DejaVuSans-69" x="405.517578"/>
      <use xlink:href="#DejaVuSans-6f" x="433.300781"/>
      <use xlink:href="#DejaVuSans-6e" x="494.482422"/>
     </g>
    </g>
   </g>
   <g id="matplotlib.axis_2">
    <g id="ytick_1">
     <g id="line2d_6">
      <path d="M 53.31 305.646307 
L 341.13495 305.646307 
" clip-path="url(#pb566343667)" style="fill: none; stroke: #ffffff; stroke-linecap: round"/>
     </g>
     <g id="text_7">
      <!-- 0 -->
      <g style="fill: #262626" transform="translate(36.81125 309.825447)scale(0.11 -0.11)">
       <use xlink:href="#DejaVuSans-30"/>
      </g>
     </g>
    </g>
    <g id="ytick_2">
     <g id="line2d_7">
      <path d="M 53.31 261.568902 
L 341.13495 261.568902 
" clip-path="url(#pb566343667)" style="fill: none; stroke: #ffffff; stroke-linecap: round"/>
     </g>
     <g id="text_8">
      <!-- 50 -->
      <g style="fill: #262626" transform="translate(29.8125 265.748042)scale(0.11 -0.11)">
       <use xlink:href="#DejaVuSans-35"/>
       <use xlink:href="#DejaVuSans-30" x="63.623047"/>
      </g>
     </g>
    </g>
    <g id="ytick_3">
     <g id="line2d_8">
      <path d="M 53.31 217.491497 
L 341.13495 217.491497 
" clip-path="url(#pb566343667)" style="fill: none; stroke: #ffffff; stroke-linecap: round"/>
     </g>
     <g id="text_9">
      <!-- 100 -->
      <g style="fill: #262626" transform="translate(22.81375 221.670637)scale(0.11 -0.11)">
       <use xlink:href="#DejaVuSans-31"/>
       <use xlink:href="#DejaVuSans-30" x="63.623047"/>
       <use xlink:href="#DejaVuSans-30" x="127.246094"/>
      </g>
     </g>
    </g>
    <g id="ytick_4">
     <g id="line2d_9">
      <path d="M 53.31 173.414092 
L 341.13495 173.414092 
" clip-path="url(#pb566343667)" style="fill: none; stroke: #ffffff; stroke-linecap: round"/>
     </g>
     <g id="text_10">
      <!-- 150 -->
      <g style="fill: #262626" transform="translate(22.81375 177.593232)scale(0.11 -0.11)">
       <use xlink:href="#DejaVuSans-31"/>
       <use xlink:href="#DejaVuSans-35" x="63.623047"/>
       <use xlink:href="#DejaVuSans-30" x="127.246094"/>
      </g>
     </g>
    </g>
    <g id="ytick_5">
     <g id="line2d_10">
      <path d="M 53.31 129.336687 
L 341.13495 129.336687 
" clip-path="url(#pb566343667)" style="fill: none; stroke: #ffffff; stroke-linecap: round"/>
     </g>
     <g id="text_11">
      <!-- 200 -->
      <g style="fill: #262626" transform="translate(22.81375 133.515828)scale(0.11 -0.11)">
       <use xlink:href="#DejaVuSans-32"/>
       <use xlink:href="#DejaVuSans-30" x="63.623047"/>
       <use xlink:href="#DejaVuSans-30" x="127.246094"/>
      </g>
     </g>
    </g>
    <g id="ytick_6">
     <g id="line2d_11">
      <path d="M 53.31 85.259282 
L 341.13495 85.259282 
" clip-path="url(#pb566343667)" style="fill: none; stroke: #ffffff; stroke-linecap: round"/>
     </g>
     <g id="text_12">
      <!-- 250 -->
      <g style="fill: #262626" transform="translate(22.81375 89.438423)scale(0.11 -0.11)">
       <use xlink:href="#DejaVuSans-32"/>
       <use xlink:href="#DejaVuSans-35" x="63.623047"/>
       <use xlink:href="#DejaVuSans-30" x="127.246094"/>
      </g>
     </g>
    </g>
    <g id="ytick_7">
     <g id="line2d_12">
      <path d="M 53.31 41.181877 
L 341.13495 41.181877 
" clip-path="url(#pb566343667)" style="fill: none; stroke: #ffffff; stroke-linecap: round"/>
     </g>
     <g id="text_13">
      <!-- 300 -->
      <g style="fill: #262626" transform="translate(22.81375 45.361018)scale(0.11 -0.11)">
       <defs>
        <path id="DejaVuSans-33" d="M 2597 2516 
Q 3050 2419 3304 2112 
Q 3559 1806 3559 1356 
Q 3559 666 3084 287 
Q 2609 -91 1734 -91 
Q 1441 -91 1130 -33 
Q 819 25 488 141 
L 488 750 
Q 750 597 1062 519 
Q 1375 441 1716 441 
Q 2309 441 2620 675 
Q 2931 909 2931 1356 
Q 2931 1769 2642 2001 
Q 2353 2234 1838 2234 
L 1294 2234 
L 1294 2753 
L 1863 2753 
Q 2328 2753 2575 2939 
Q 2822 3125 2822 3475 
Q 2822 3834 2567 4026 
Q 2313 4219 1838 4219 
Q 1578 4219 1281 4162 
Q 984 4106 628 3988 
L 628 4550 
Q 988 4650 1302 4700 
Q 1616 4750 1894 4750 
Q 2613 4750 3031 4423 
Q 3450 4097 3450 3541 
Q 3450 3153 3228 2886 
Q 3006 2619 2597 2516 
z
" transform="scale(0.015625)"/>
       </defs>
       <use xlink:href="#DejaVuSans-33"/>
       <use xlink:href="#DejaVuSans-30" x="63.623047"/>
       <use xlink:href="#DejaVuSans-30" x="127.246094"/>
      </g>
     </g>
    </g>
    <g id="text_14">
     <!-- Fitness -->
     <g style="fill: #262626" transform="translate(16.318125 191.50875)rotate(-90)scale(0.12 -0.12)">
      <defs>
       <path id="DejaVuSans-46" d="M 628 4666 
L 3309 4666 
L 3309 4134 
L 1259 4134 
L 1259 2759 
L 3109 2759 
L 3109 2228 
L 1259 2228 
L 1259 0 
L 628 0 
L 628 4666 
z
" transform="scale(0.015625)"/>
       <path id="DejaVuSans-73" d="M 2834 3397 
L 2834 2853 
Q 2591 2978 2328 3040 
Q 2066 3103 1784 3103 
Q 1356 3103 1142 2972 
Q 928 2841 928 2578 
Q 928 2378 1081 2264 
Q 1234 2150 1697 2047 
L 1894 2003 
Q 2506 1872 2764 1633 
Q 3022 1394 3022 966 
Q 3022 478 2636 193 
Q 2250 -91 1575 -91 
Q 1294 -91 989 -36 
Q 684 19 347 128 
L 347 722 
Q 666 556 975 473 
Q 1284 391 1588 391 
Q 1994 391 2212 530 
Q 2431 669 2431 922 
Q 2431 1156 2273 1281 
Q 2116 1406 1581 1522 
L 1381 1569 
Q 847 1681 609 1914 
Q 372 2147 372 2553 
Q 372 3047 722 3315 
Q 1072 3584 1716 3584 
Q 2034 3584 2315 3537 
Q 2597 3491 2834 3397 
z
" transform="scale(0.015625)"/>
      </defs>
      <use xlink:href="#DejaVuSans-46"/>
      <use xlink:href="#DejaVuSans-69" x="50.269531"/>
      <use xlink:href="#DejaVuSans-74" x="78.052734"/>
      <use xlink:href="#DejaVuSans-6e" x="117.261719"/>
      <use xlink:href="#DejaVuSans-65" x="180.640625"/>
      <use xlink:href="#DejaVuSans-73" x="242.164062"/>
      <use xlink:href="#DejaVuSans-73" x="294.263672"/>
     </g>
    </g>
   </g>
   <g id="PolyCollection_1">
    <defs>
     <path id="m29f2aecedb" d="M 66.392952 -69.977759 
L 66.392952 -57.333054 
L 67.707822 -91.456541 
L 69.022691 -137.909305 
L 70.337561 -149.317088 
L 71.652431 -139.124188 
L 72.9673 -147.306057 
L 74.28217 -155.598119 
L 75.597039 -159.978311 
L 76.911909 -148.35014 
L 78.226778 -154.413538 
L 79.541648 -154.413538 
L 80.856518 -153.228958 
L 82.171387 -140.719928 
L 83.486257 -150.387343 
L 84.801126 -152.232395 
L 86.115996 -161.052697 
L 87.430865 -160.386715 
L 88.745735 -153.213118 
L 90.060605 -157.44386 
L 91.375474 -153.582955 
L 92.690344 -139.810143 
L 94.005213 -164.854374 
L 95.320083 -160.804073 
L 96.634953 -175.322757 
L 97.949822 -181.162325 
L 99.264692 -180.001161 
L 100.579561 -190.993652 
L 101.894431 -190.832494 
L 103.2093 -181.243592 
L 104.52417 -162.235212 
L 105.83904 -186.503955 
L 107.153909 -183.361374 
L 108.468779 -180.198131 
L 109.783648 -194.521222 
L 111.098518 -198.875243 
L 112.413387 -207.166616 
L 113.728257 -225.867144 
L 115.043127 -243.331438 
L 116.357996 -273.064403 
L 117.672866 -266.507889 
L 118.987735 -262.217918 
L 120.302605 -301.521877 
L 121.617474 -279.676014 
L 122.932344 -281.742142 
L 124.247214 -277.444595 
L 125.562083 -275.87296 
L 126.876953 -280.667755 
L 128.191822 -290.199494 
L 129.506692 -301.521877 
L 130.821561 -301.521877 
L 132.136431 -285.543818 
L 133.451301 -279.152594 
L 134.76617 -271.761365 
L 136.08104 -271.981752 
L 137.395909 -258.352191 
L 138.710779 -268.896333 
L 140.025648 -277.022416 
L 141.340518 -301.521877 
L 142.655388 -279.262788 
L 143.970257 -273.642919 
L 145.285127 -274.881907 
L 146.599996 -274.744854 
L 147.914866 -276.039628 
L 149.229736 -277.995562 
L 150.544605 -291.935042 
L 151.859475 -281.907432 
L 153.174344 -291.935042 
L 154.489214 -278.54653 
L 155.804083 -282.238013 
L 157.118953 -273.642919 
L 158.433823 -263.487898 
L 159.748692 -268.243437 
L 161.063562 -262.954148 
L 162.378431 -263.94589 
L 163.693301 -282.238013 
L 165.00817 -288.629236 
L 166.32304 -301.521877 
L 167.63791 -290.199494 
L 168.952779 -290.199494 
L 170.267649 -290.199494 
L 171.582518 -275.626402 
L 172.897388 -280.667755 
L 174.212257 -276.452853 
L 175.527127 -288.216011 
L 176.841997 -288.629236 
L 178.156866 -301.521877 
L 179.471736 -301.521877 
L 180.786605 -289.620978 
L 182.101475 -285.654012 
L 183.416344 -288.298656 
L 184.731214 -276.948724 
L 186.046084 -301.521877 
L 187.360953 -301.521877 
L 188.675823 -301.521877 
L 189.990692 -283.339948 
L 191.305562 -283.918464 
L 192.620431 -273.339887 
L 193.935301 -301.521877 
L 195.250171 -288.298656 
L 196.56504 -277.389498 
L 197.87991 -273.735206 
L 199.194779 -267.891506 
L 200.509649 -265.213115 
L 201.824519 -291.935042 
L 203.139388 -285.654012 
L 204.454258 -267.058856 
L 205.769127 -285.521779 
L 207.083997 -270.943178 
L 208.398866 -285.654012 
L 209.713736 -265.488599 
L 211.028606 -301.521877 
L 212.343475 -279.428078 
L 213.658345 -281.742142 
L 214.973214 -272.828864 
L 216.288084 -263.115306 
L 217.602953 -270.878439 
L 218.917823 -301.521877 
L 220.232693 -281.687045 
L 221.547562 -283.229754 
L 222.862432 -301.521877 
L 224.177301 -267.830211 
L 225.492171 -273.835757 
L 226.80704 -291.935042 
L 228.12191 -266.976211 
L 229.43678 -284.166399 
L 230.751649 -301.521877 
L 232.066519 -270.943178 
L 233.381388 -286.315173 
L 234.696258 -257.499569 
L 236.011127 -301.521877 
L 237.325997 -279.951497 
L 238.640867 -288.216011 
L 239.955736 -283.918464 
L 241.270606 -255.927934 
L 242.585475 -294.497041 
L 243.900345 -285.654012 
L 245.215214 -271.51825 
L 246.530084 -301.521877 
L 247.844954 -290.447429 
L 249.159823 -275.295821 
L 250.474693 -276.700789 
L 251.789562 -288.629236 
L 253.104432 -269.643583 
L 254.419302 -295.295944 
L 255.734171 -276.971452 
L 257.049041 -262.292987 
L 258.36391 -279.069949 
L 259.67878 -270.722791 
L 260.993649 -274.965241 
L 262.308519 -279.262788 
L 263.623389 -279.262788 
L 264.938258 -284.083754 
L 266.253128 -284.083754 
L 267.567997 -301.521877 
L 268.882867 -280.254529 
L 270.197736 -294.497041 
L 271.512606 -263.339825 
L 272.827476 -301.521877 
L 274.142345 -280.116788 
L 275.457215 -301.521877 
L 276.772084 -295.406137 
L 278.086954 -276.039628 
L 279.401823 -281.962529 
L 280.716693 -286.829639 
L 282.031563 -290.530075 
L 283.346432 -303.918586 
L 284.661302 -298.436459 
L 285.976171 -275.170476 
L 287.291041 -286.260076 
L 288.60591 -298.491556 
L 289.92078 -288.969459 
L 291.23565 -296.149944 
L 292.550519 -289.648526 
L 293.865389 -280.775883 
L 295.180258 -275.418412 
L 296.495128 -270.003778 
L 297.809997 -293.780094 
L 299.124867 -259.166246 
L 300.439737 -271.125686 
L 301.754606 -275.486594 
L 303.069476 -277.029992 
L 304.384345 -282.866804 
L 305.699215 -294.53492 
L 307.014085 -283.967362 
L 308.328954 -298.050782 
L 309.643824 -298.840731 
L 310.958693 -297.681633 
L 312.273563 -294.917842 
L 313.588432 -294.937815 
L 314.903302 -303.643103 
L 316.218172 -314.304325 
L 317.533041 -289.45431 
L 318.847911 -305.736779 
L 320.16278 -306.480585 
L 321.47765 -285.571366 
L 322.792519 -304.936499 
L 324.107389 -302.871059 
L 325.422259 -320.695549 
L 326.737128 -292.81659 
L 328.051998 -284.959792 
L 328.051998 -323.233443 
L 328.051998 -323.233443 
L 326.737128 -324.028902 
L 325.422259 -326.287869 
L 324.107389 -323.89116 
L 322.792519 -321.568143 
L 321.47765 -317.573629 
L 320.16278 -319.171435 
L 318.847911 -319.896646 
L 317.533041 -319.896646 
L 316.218172 -323.092257 
L 314.903302 -320.695549 
L 313.588432 -317.499937 
L 312.273563 -316.701034 
L 310.958693 -315.902131 
L 309.643824 -315.902131 
L 308.328954 -315.1232 
L 307.014085 -311.108713 
L 305.699215 -310.30981 
L 304.384345 -309.584599 
L 303.069476 -306.371081 
L 301.754606 -305.571489 
L 300.439737 -302.437172 
L 299.124867 -299.29528 
L 297.809997 -313.505422 
L 296.495128 -304.844901 
L 295.180258 -304.838702 
L 293.865389 -306.425489 
L 292.550519 -311.108713 
L 291.23565 -311.16381 
L 289.92078 -311.108713 
L 288.60591 -311.108713 
L 287.291041 -309.510907 
L 285.976171 -306.342844 
L 284.661302 -310.30981 
L 283.346432 -311.108713 
L 282.031563 -307.25194 
L 280.716693 -307.114198 
L 279.401823 -303.918586 
L 278.086954 -303.119683 
L 276.772084 -303.918586 
L 275.457215 -303.918586 
L 274.142345 -301.521877 
L 272.827476 -301.521877 
L 271.512606 -301.521877 
L 270.197736 -301.935103 
L 268.882867 -302.072845 
L 267.567997 -301.935103 
L 266.253128 -301.521877 
L 264.938258 -301.521877 
L 263.623389 -301.521877 
L 262.308519 -301.521877 
L 260.993649 -301.521877 
L 259.67878 -301.521877 
L 258.36391 -301.521877 
L 257.049041 -299.180265 
L 255.734171 -302.32078 
L 254.419302 -304.772586 
L 253.104432 -302.32078 
L 251.789562 -303.918586 
L 250.474693 -301.521877 
L 249.159823 -301.521877 
L 247.844954 -301.521877 
L 246.530084 -301.935103 
L 245.215214 -301.797361 
L 243.900345 -301.797361 
L 242.585475 -301.935103 
L 241.270606 -296.370331 
L 239.955736 -301.521877 
L 238.640867 -301.521877 
L 237.325997 -301.521877 
L 236.011127 -301.521877 
L 234.696258 -301.521877 
L 233.381388 -301.521877 
L 232.066519 -301.521877 
L 230.751649 -301.521877 
L 229.43678 -301.521877 
L 228.12191 -301.521877 
L 226.80704 -301.521877 
L 225.492171 -301.521877 
L 224.177301 -301.521877 
L 222.862432 -301.521877 
L 221.547562 -301.521877 
L 220.232693 -301.521877 
L 218.917823 -301.521877 
L 217.602953 -298.326266 
L 216.288084 -296.232589 
L 214.973214 -299.180265 
L 213.658345 -301.521877 
L 212.343475 -301.521877 
L 211.028606 -301.521877 
L 209.713736 -301.521877 
L 208.398866 -301.521877 
L 207.083997 -301.521877 
L 205.769127 -301.521877 
L 204.454258 -301.521877 
L 203.139388 -301.521877 
L 201.824519 -301.521877 
L 200.509649 -297.74775 
L 199.194779 -301.521877 
L 197.87991 -301.521877 
L 196.56504 -301.521877 
L 195.250171 -301.521877 
L 193.935301 -301.521877 
L 192.620431 -301.521877 
L 191.305562 -301.521877 
L 189.990692 -301.521877 
L 188.675823 -301.521877 
L 187.360953 -301.521877 
L 186.046084 -301.521877 
L 184.731214 -301.521877 
L 183.416344 -301.521877 
L 182.101475 -301.521877 
L 180.786605 -301.521877 
L 179.471736 -301.521877 
L 178.156866 -301.521877 
L 176.841997 -301.521877 
L 175.527127 -301.521877 
L 174.212257 -301.521877 
L 172.897388 -301.521877 
L 171.582518 -301.521877 
L 170.267649 -301.521877 
L 168.952779 -301.521877 
L 167.63791 -301.521877 
L 166.32304 -301.521877 
L 165.00817 -301.521877 
L 163.693301 -301.521877 
L 162.378431 -297.22433 
L 161.063562 -294.028719 
L 159.748692 -297.22433 
L 158.433823 -297.22433 
L 157.118953 -301.521877 
L 155.804083 -301.521877 
L 154.489214 -301.521877 
L 153.174344 -301.521877 
L 151.859475 -301.521877 
L 150.544605 -301.521877 
L 149.229736 -301.521877 
L 147.914866 -301.521877 
L 146.599996 -301.521877 
L 145.285127 -301.521877 
L 143.970257 -301.521877 
L 142.655388 -301.521877 
L 141.340518 -301.521877 
L 140.025648 -301.521877 
L 138.710779 -297.554911 
L 137.395909 -293.890977 
L 136.08104 -298.326266 
L 134.76617 -298.326266 
L 133.451301 -301.521877 
L 132.136431 -301.521877 
L 130.821561 -301.521877 
L 129.506692 -301.521877 
L 128.191822 -301.521877 
L 126.876953 -301.521877 
L 125.562083 -301.521877 
L 124.247214 -301.521877 
L 122.932344 -301.521877 
L 121.617474 -301.521877 
L 120.302605 -301.521877 
L 118.987735 -301.521877 
L 117.672866 -301.521877 
L 116.357996 -298.326266 
L 115.043127 -281.466658 
L 113.728257 -270.171823 
L 112.413387 -246.978155 
L 111.098518 -239.765301 
L 109.783648 -231.561394 
L 108.468779 -213.407701 
L 107.153909 -207.039205 
L 105.83904 -212.099842 
L 104.52417 -197.501268 
L 103.2093 -206.70036 
L 101.894431 -209.734814 
L 100.579561 -213.553019 
L 99.264692 -205.48892 
L 97.949822 -203.229264 
L 96.634953 -195.057727 
L 95.320083 -176.176757 
L 94.005213 -176.176757 
L 92.690344 -164.415666 
L 91.375474 -170.088565 
L 90.060605 -168.848888 
L 88.745735 -168.853021 
L 87.430865 -171.989403 
L 86.115996 -170.942565 
L 84.801126 -168.848888 
L 83.486257 -166.952871 
L 82.171387 -162.347471 
L 80.856518 -167.80205 
L 79.541648 -165.708373 
L 78.226778 -165.498317 
L 76.911909 -164.498311 
L 75.597039 -164.138116 
L 74.28217 -161.713858 
L 72.9673 -160.639472 
L 71.652431 -158.62844 
L 70.337561 -160.474181 
L 69.022691 -158.049924 
L 67.707822 -124.97052 
L 66.392952 -69.977759 
z
" style="stroke: #edd1cb; stroke-opacity: 0.2"/>
    </defs>
    <g clip-path="url(#pb566343667)">
     <use xlink:href="#m29f2aecedb" x="0" y="362.097812" style="fill: #edd1cb; fill-opacity: 0.2; stroke: #edd1cb; stroke-opacity: 0.2"/>
    </g>
   </g>
   <g id="PolyCollection_2">
    <defs>
     <path id="me8d937d281" d="M 66.392952 -71.024598 
L 66.392952 -56.782086 
L 67.707822 -154.649077 
L 69.022691 -186.47985 
L 70.337561 -189.124495 
L 71.652431 -198.38075 
L 72.9673 -197.389008 
L 74.28217 -197.389008 
L 75.597039 -196.727847 
L 76.911909 -196.727847 
L 78.226778 -195.736105 
L 79.541648 -196.397267 
L 80.856518 -196.727847 
L 82.171387 -196.727847 
L 83.486257 -196.727847 
L 84.801126 -195.459244 
L 86.115996 -193.697525 
L 87.430865 -193.365567 
L 88.745735 -194.799461 
L 90.060605 -195.130041 
L 91.375474 -195.01847 
L 92.690344 -182.590019 
L 94.005213 -196.397267 
L 95.320083 -195.846299 
L 96.634953 -180.886152 
L 97.949822 -187.167871 
L 99.264692 -187.657544 
L 100.579561 -186.726408 
L 101.894431 -185.846238 
L 103.2093 -183.668538 
L 104.52417 -190.138275 
L 105.83904 -183.252558 
L 107.153909 -196.67275 
L 108.468779 -187.139634 
L 109.783648 -186.942663 
L 111.098518 -187.967463 
L 112.413387 -182.483958 
L 113.728257 -177.101005 
L 115.043127 -188.298043 
L 116.357996 -181.601033 
L 117.672866 -188.601075 
L 118.987735 -186.859329 
L 120.302605 -186.806987 
L 121.617474 -196.479223 
L 122.932344 -186.258775 
L 124.247214 -197.800168 
L 125.562083 -188.601075 
L 126.876953 -185.625162 
L 128.191822 -197.939976 
L 129.506692 -186.975721 
L 130.821561 -197.912427 
L 132.136431 -197.939287 
L 133.451301 -198.656234 
L 134.76617 -188.594188 
L 136.08104 -188.215398 
L 137.395909 -190.143785 
L 138.710779 -199.758169 
L 140.025648 -200.033652 
L 141.340518 -188.02256 
L 142.655388 -191.542554 
L 143.970257 -180.942626 
L 145.285127 -190.253978 
L 146.599996 -185.047335 
L 147.914866 -184.605872 
L 149.229736 -198.71133 
L 150.544605 -198.435846 
L 151.859475 -198.793975 
L 153.174344 -188.931656 
L 154.489214 -183.9454 
L 155.804083 -188.873116 
L 157.118953 -187.554237 
L 158.433823 -191.238833 
L 159.748692 -189.365543 
L 161.063562 -192.209913 
L 162.378431 -188.766366 
L 163.693301 -193.256751 
L 165.00817 -190.143785 
L 166.32304 -199.427588 
L 167.63791 -198.708575 
L 168.952779 -197.827027 
L 170.267649 -186.011528 
L 171.582518 -179.950885 
L 172.897388 -201.411071 
L 174.212257 -200.446878 
L 175.527127 -191.466107 
L 176.841997 -191.466107 
L 178.156866 -203.614942 
L 179.471736 -197.328402 
L 180.786605 -186.534947 
L 182.101475 -190.577672 
L 183.416344 -203.339458 
L 184.731214 -204.441393 
L 186.046084 -194.248493 
L 187.360953 -194.709928 
L 188.675823 -179.531461 
L 189.990692 -195.377977 
L 191.305562 -188.098318 
L 192.620431 -204.99236 
L 193.935301 -194.827009 
L 195.250171 -183.254624 
L 196.56504 -187.251205 
L 197.87991 -187.139634 
L 199.194779 -176.22841 
L 200.509649 -189.923398 
L 201.824519 -196.369718 
L 203.139388 -196.364897 
L 204.454258 -196.369718 
L 205.769127 -196.231976 
L 207.083997 -202.072232 
L 208.398866 -187.000515 
L 209.713736 -191.73677 
L 211.028606 -189.669264 
L 212.343475 -190.334557 
L 213.658345 -191.190623 
L 214.973214 -200.915201 
L 216.288084 -203.862877 
L 217.602953 -180.419207 
L 218.917823 -187.524623 
L 220.232693 -196.369718 
L 221.547562 -195.458556 
L 222.862432 -185.539073 
L 224.177301 -188.408237 
L 225.492171 -195.377977 
L 226.80704 -193.063913 
L 228.12191 -207.196231 
L 229.43678 -193.862816 
L 230.751649 -197.196169 
L 232.066519 -197.196169 
L 233.381388 -207.196231 
L 234.696258 -184.579012 
L 236.011127 -187.058366 
L 237.325997 -195.708557 
L 238.640867 -207.196231 
L 239.955736 -184.661657 
L 241.270606 -190.309075 
L 242.585475 -207.196231 
L 243.900345 -207.196231 
L 245.215214 -207.196231 
L 246.530084 -196.700299 
L 247.844954 -195.377977 
L 249.159823 -195.708557 
L 250.474693 -197.444105 
L 251.789562 -184.331077 
L 253.104432 -205.130102 
L 254.419302 -205.130102 
L 255.734171 -193.835267 
L 257.049041 -207.196231 
L 258.36391 -190.529462 
L 259.67878 -193.532235 
L 260.993649 -207.196231 
L 262.308519 -207.196231 
L 263.623389 -205.130102 
L 264.938258 -195.140372 
L 266.253128 -198.279509 
L 267.567997 -203.752683 
L 268.882867 -205.130102 
L 270.197736 -196.50746 
L 271.512606 -181.072792 
L 272.827476 -194.882106 
L 274.142345 -203.752683 
L 275.457215 -203.422103 
L 276.772084 -196.700299 
L 278.086954 -189.233999 
L 279.401823 -203.422103 
L 280.716693 -188.077656 
L 282.031563 -191.824236 
L 283.346432 -183.449529 
L 284.661302 -193.432372 
L 285.976171 -205.130102 
L 287.291041 -207.196231 
L 288.60591 -194.63417 
L 289.92078 -205.130102 
L 291.23565 -198.766427 
L 292.550519 -191.438558 
L 293.865389 -192.485397 
L 295.180258 -193.063913 
L 296.495128 -200.997846 
L 297.809997 -195.956492 
L 299.124867 -197.389008 
L 300.439737 -201.686555 
L 301.754606 -202.375265 
L 303.069476 -194.220945 
L 304.384345 -188.215398 
L 305.699215 -202.375265 
L 307.014085 -205.130102 
L 308.328954 -207.196231 
L 309.643824 -207.196231 
L 310.958693 -196.535008 
L 312.273563 -195.708557 
L 313.588432 -194.964751 
L 314.903302 -191.107978 
L 316.218172 -193.146558 
L 317.533041 -196.948234 
L 318.847911 -200.254039 
L 320.16278 -189.978494 
L 321.47765 -186.176818 
L 322.792519 -190.39172 
L 324.107389 -195.510897 
L 325.422259 -205.130102 
L 326.737128 -200.254039 
L 328.051998 -197.939976 
L 328.051998 -207.196231 
L 328.051998 -207.196231 
L 326.737128 -207.196231 
L 325.422259 -207.196231 
L 324.107389 -207.196231 
L 322.792519 -207.196231 
L 321.47765 -206.507521 
L 320.16278 -207.196231 
L 318.847911 -207.196231 
L 317.533041 -207.196231 
L 316.218172 -207.196231 
L 314.903302 -207.196231 
L 313.588432 -207.196231 
L 312.273563 -207.196231 
L 310.958693 -207.196231 
L 309.643824 -207.196231 
L 308.328954 -207.196231 
L 307.014085 -207.196231 
L 305.699215 -207.196231 
L 304.384345 -206.507521 
L 303.069476 -207.196231 
L 301.754606 -207.196231 
L 300.439737 -206.507521 
L 299.124867 -205.818812 
L 297.809997 -205.818812 
L 296.495128 -206.507521 
L 295.180258 -205.818812 
L 293.865389 -205.818812 
L 292.550519 -206.397328 
L 291.23565 -207.196231 
L 289.92078 -207.196231 
L 288.60591 -207.196231 
L 287.291041 -207.196231 
L 285.976171 -207.196231 
L 284.661302 -207.196231 
L 283.346432 -207.196231 
L 282.031563 -207.196231 
L 280.716693 -207.196231 
L 279.401823 -207.196231 
L 278.086954 -206.507521 
L 276.772084 -207.196231 
L 275.457215 -207.196231 
L 274.142345 -207.196231 
L 272.827476 -207.196231 
L 271.512606 -205.14181 
L 270.197736 -207.196231 
L 268.882867 -207.196231 
L 267.567997 -207.196231 
L 266.253128 -207.196231 
L 264.938258 -207.196231 
L 263.623389 -207.196231 
L 262.308519 -207.196231 
L 260.993649 -207.196231 
L 259.67878 -207.196231 
L 258.36391 -207.196231 
L 257.049041 -207.196231 
L 255.734171 -207.196231 
L 254.419302 -207.196231 
L 253.104432 -207.196231 
L 251.789562 -207.196231 
L 250.474693 -207.196231 
L 249.159823 -207.196231 
L 247.844954 -207.196231 
L 246.530084 -207.196231 
L 245.215214 -207.196231 
L 243.900345 -207.196231 
L 242.585475 -207.196231 
L 241.270606 -207.196231 
L 239.955736 -207.196231 
L 238.640867 -207.196231 
L 237.325997 -207.196231 
L 236.011127 -207.196231 
L 234.696258 -207.196231 
L 233.381388 -207.196231 
L 232.066519 -207.196231 
L 230.751649 -207.196231 
L 229.43678 -207.196231 
L 228.12191 -207.196231 
L 226.80704 -207.196231 
L 225.492171 -207.196231 
L 224.177301 -207.196231 
L 222.862432 -206.124599 
L 221.547562 -207.003392 
L 220.232693 -207.003392 
L 218.917823 -206.507521 
L 217.602953 -204.663846 
L 216.288084 -216.369841 
L 214.973214 -206.121844 
L 213.658345 -206.232037 
L 212.343475 -204.551586 
L 211.028606 -205.240296 
L 209.713736 -206.121844 
L 208.398866 -206.507521 
L 207.083997 -207.196231 
L 205.769127 -207.003392 
L 204.454258 -207.196231 
L 203.139388 -207.196231 
L 201.824519 -207.196231 
L 200.509649 -207.196231 
L 199.194779 -203.201716 
L 197.87991 -206.617715 
L 196.56504 -206.727908 
L 195.250171 -206.53507 
L 193.935301 -207.196231 
L 192.620431 -206.920747 
L 191.305562 -206.369779 
L 189.990692 -206.920747 
L 188.675823 -206.094296 
L 187.360953 -206.369779 
L 186.046084 -206.645263 
L 184.731214 -206.645263 
L 183.416344 -206.094296 
L 182.101475 -205.818812 
L 180.786605 -204.716877 
L 179.471736 -206.094296 
L 178.156866 -206.369779 
L 176.841997 -205.825699 
L 175.527127 -205.543328 
L 174.212257 -205.818812 
L 172.897388 -206.094296 
L 171.582518 -202.347716 
L 170.267649 -202.902816 
L 168.952779 -202.78849 
L 167.63791 -203.063974 
L 166.32304 -203.890425 
L 165.00817 -203.614942 
L 163.693301 -204.165909 
L 162.378431 -203.063974 
L 161.063562 -203.063974 
L 159.748692 -202.78849 
L 158.433823 -203.063974 
L 157.118953 -203.063974 
L 155.804083 -202.791934 
L 154.489214 -201.414515 
L 153.174344 -201.962039 
L 151.859475 -202.513006 
L 150.544605 -202.78849 
L 149.229736 -202.791245 
L 147.914866 -202.513006 
L 146.599996 -203.063974 
L 145.285127 -202.78849 
L 143.970257 -201.990276 
L 142.655388 -203.340147 
L 141.340518 -202.513006 
L 140.025648 -202.78849 
L 138.710779 -202.513006 
L 137.395909 -200.860104 
L 136.08104 -201.411071 
L 134.76617 -200.58462 
L 133.451301 -200.860104 
L 132.136431 -200.034341 
L 130.821561 -200.033652 
L 129.506692 -199.482685 
L 128.191822 -199.620427 
L 126.876953 -200.58462 
L 125.562083 -200.172083 
L 124.247214 -201.135588 
L 122.932344 -199.842191 
L 121.617474 -200.970297 
L 120.302605 -198.904169 
L 118.987735 -199.373869 
L 117.672866 -199.951696 
L 116.357996 -199.372491 
L 115.043127 -200.529523 
L 113.728257 -199.263675 
L 112.413387 -199.482685 
L 111.098518 -199.482685 
L 109.783648 -199.207201 
L 108.468779 -199.868362 
L 107.153909 -199.482685 
L 105.83904 -199.317395 
L 104.52417 -198.601137 
L 103.2093 -199.482685 
L 101.894431 -199.207201 
L 100.579561 -201.357352 
L 99.264692 -200.778147 
L 97.949822 -197.995072 
L 96.634953 -197.610773 
L 95.320083 -199.153482 
L 94.005213 -198.821524 
L 92.690344 -197.99645 
L 91.375474 -199.043288 
L 90.060605 -198.877998 
L 88.745735 -198.71133 
L 87.430865 -198.160363 
L 86.115996 -198.270556 
L 84.801126 -198.656234 
L 83.486257 -198.38075 
L 82.171387 -198.38075 
L 80.856518 -198.38075 
L 79.541648 -198.38075 
L 78.226778 -198.050169 
L 76.911909 -198.38075 
L 75.597039 -198.38075 
L 74.28217 -198.38075 
L 72.9673 -198.38075 
L 71.652431 -198.38075 
L 70.337561 -198.38075 
L 69.022691 -198.38075 
L 67.707822 -189.264991 
L 66.392952 -71.024598 
z
" style="stroke: #d499a7; stroke-opacity: 0.2"/>
    </defs>
    <g clip-path="url(#pb566343667)">
     <use xlink:href="#me8d937d281" x="0" y="362.097812" style="fill: #d499a7; fill-opacity: 0.2; stroke: #d499a7; stroke-opacity: 0.2"/>
    </g>
   </g>
   <g id="PolyCollection_3">
    <defs>
     <path id="mad88e71101" d="M 66.392952 -58.765569 
L 66.392952 -56.451506 
L 67.707822 -69.095523 
L 69.022691 -74.191284 
L 70.337561 -74.22021 
L 71.652431 -73.806984 
L 72.9673 -74.41236 
L 74.28217 -72.6775 
L 75.597039 -75.018424 
L 76.911909 -75.294596 
L 78.226778 -77.856595 
L 79.541648 -78.242273 
L 80.856518 -78.461971 
L 82.171387 -77.167886 
L 83.486257 -75.542532 
L 84.801126 -75.486746 
L 86.115996 -75.514295 
L 87.430865 -74.191972 
L 88.745735 -76.864165 
L 90.060605 -75.625177 
L 91.375474 -75.40479 
L 92.690344 -75.349004 
L 94.005213 -78.186487 
L 95.320083 -79.150681 
L 96.634953 -80.114874 
L 97.949822 -77.994337 
L 99.264692 -77.77395 
L 100.579561 -76.780831 
L 101.894431 -78.489519 
L 103.2093 -76.176144 
L 104.52417 -82.207862 
L 105.83904 -78.847648 
L 107.153909 -79.284979 
L 108.468779 -85.404162 
L 109.783648 -88.242334 
L 111.098518 -88.159689 
L 112.413387 -93.393192 
L 113.728257 -91.408331 
L 115.043127 -91.740978 
L 116.357996 -91.217559 
L 117.672866 -94.852567 
L 118.987735 -95.983428 
L 120.302605 -96.451751 
L 121.617474 -96.808502 
L 122.932344 -95.955191 
L 124.247214 -96.974481 
L 125.562083 -95.707944 
L 126.876953 -99.151492 
L 128.191822 -98.54405 
L 129.506692 -96.754094 
L 130.821561 -92.014396 
L 132.136431 -97.855341 
L 133.451301 -98.18661 
L 134.76617 -101.38291 
L 136.08104 -98.02132 
L 137.395909 -96.451751 
L 138.710779 -94.523364 
L 140.025648 -95.652159 
L 141.340518 -97.14046 
L 142.655388 -94.96345 
L 143.970257 -97.112223 
L 145.285127 -92.23616 
L 146.599996 -95.45932 
L 147.914866 -100.276843 
L 149.229736 -100.308524 
L 150.544605 -100.526845 
L 151.859475 -101.851233 
L 153.174344 -98.572287 
L 154.489214 -101.078501 
L 155.804083 -99.672156 
L 157.118953 -100.583319 
L 158.433823 -107.137078 
L 159.748692 -102.703855 
L 161.063562 -101.410459 
L 162.378431 -107.772068 
L 163.693301 -110.721122 
L 165.00817 -118.600647 
L 166.32304 -114.936712 
L 167.63791 -118.683292 
L 168.952779 -111.052391 
L 170.267649 -109.096456 
L 171.582518 -108.324413 
L 172.897388 -113.969764 
L 174.212257 -112.980778 
L 175.527127 -114.851312 
L 176.841997 -112.619894 
L 178.156866 -112.292068 
L 179.471736 -107.524133 
L 180.786605 -114.137809 
L 182.101475 -111.658455 
L 183.416344 -108.545489 
L 184.731214 -110.579248 
L 186.046084 -103.888435 
L 187.360953 -110.914649 
L 188.675823 -113.338906 
L 189.990692 -111.599915 
L 191.305562 -105.787896 
L 192.620431 -107.388457 
L 193.935301 -112.869895 
L 195.250171 -114.962883 
L 196.56504 -112.674991 
L 197.87991 -105.431145 
L 199.194779 -109.807893 
L 200.509649 -112.867829 
L 201.824519 -114.137121 
L 203.139388 -108.073723 
L 204.454258 -108.847832 
L 205.769127 -115.239745 
L 207.083997 -110.418778 
L 208.398866 -106.14878 
L 209.713736 -115.625422 
L 211.028606 -112.236283 
L 212.343475 -114.578584 
L 213.658345 -110.389853 
L 214.973214 -116.50697 
L 216.288084 -108.378132 
L 217.602953 -114.547592 
L 218.917823 -106.861594 
L 220.232693 -108.296865 
L 221.547562 -109.756929 
L 222.862432 -111.215615 
L 224.177301 -111.927741 
L 225.492171 -109.369874 
L 226.80704 -119.316905 
L 228.12191 -110.417401 
L 229.43678 -113.421552 
L 230.751649 -107.580607 
L 232.066519 -108.568216 
L 233.381388 -107.939424 
L 234.696258 -112.402262 
L 236.011127 -114.163292 
L 237.325997 -107.635015 
L 238.640867 -111.737657 
L 239.955736 -111.382972 
L 241.270606 -117.581357 
L 242.585475 -114.465635 
L 243.900345 -110.635033 
L 245.215214 -112.209423 
L 246.530084 -110.115746 
L 247.844954 -110.197014 
L 249.159823 -107.497962 
L 250.474693 -107.606778 
L 251.789562 -110.446327 
L 253.104432 -120.804517 
L 254.419302 -120.804517 
L 255.734171 -120.804517 
L 257.049041 -113.144002 
L 258.36391 -106.643273 
L 259.67878 -102.980028 
L 260.993649 -108.128819 
L 262.308519 -113.586842 
L 263.623389 -105.623294 
L 264.938258 -107.994521 
L 266.253128 -115.515228 
L 267.567997 -114.165358 
L 268.882867 -113.504197 
L 270.197736 -116.920196 
L 271.512606 -115.680519 
L 272.827476 -116.67226 
L 274.142345 -115.267293 
L 275.457215 -117.333421 
L 276.772084 -117.333421 
L 278.086954 -120.804517 
L 279.401823 -114.85269 
L 280.716693 -112.345787 
L 282.031563 -116.314131 
L 283.346432 -111.382283 
L 284.661302 -117.029012 
L 285.976171 -108.24039 
L 287.291041 -115.982862 
L 288.60591 -120.307957 
L 289.92078 -123.118581 
L 291.23565 -121.051764 
L 292.550519 -114.990432 
L 293.865389 -115.404346 
L 295.180258 -122.319678 
L 296.495128 -122.730837 
L 297.809997 -115.956002 
L 299.124867 -112.78725 
L 300.439737 -114.275551 
L 301.754606 -107.222478 
L 303.069476 -113.612324 
L 304.384345 -113.8334 
L 305.699215 -113.006949 
L 307.014085 -114.54828 
L 308.328954 -120.08757 
L 309.643824 -117.662624 
L 310.958693 -114.770045 
L 312.273563 -117.332733 
L 313.588432 -120.060022 
L 314.903302 -119.119934 
L 316.218172 -119.592388 
L 317.533041 -113.007637 
L 318.847911 -119.729442 
L 320.16278 -113.338218 
L 321.47765 -118.682603 
L 322.792519 -109.591638 
L 324.107389 -110.058583 
L 325.422259 -119.701204 
L 326.737128 -117.745958 
L 328.051998 -115.597873 
L 328.051998 -126.810063 
L 328.051998 -126.810063 
L 326.737128 -127.967095 
L 325.422259 -127.086236 
L 324.107389 -122.543508 
L 322.792519 -122.513894 
L 321.47765 -126.314193 
L 320.16278 -124.46914 
L 318.847911 -125.763914 
L 317.533041 -123.450539 
L 316.218172 -126.536646 
L 314.903302 -126.480172 
L 313.588432 -126.232925 
L 312.273563 -125.212257 
L 310.958693 -124.551785 
L 309.643824 -125.487741 
L 308.328954 -124.743935 
L 307.014085 -124.221205 
L 305.699215 -123.118581 
L 304.384345 -123.228774 
L 303.069476 -122.679184 
L 301.754606 -120.639227 
L 300.439737 -123.42299 
L 299.124867 -123.175055 
L 297.809997 -124.248064 
L 296.495128 -125.377548 
L 295.180258 -125.625483 
L 293.865389 -123.918172 
L 292.550519 -122.732903 
L 291.23565 -125.349999 
L 289.92078 -125.627549 
L 288.60591 -124.606882 
L 287.291041 -123.752193 
L 285.976171 -120.281098 
L 284.661302 -122.017334 
L 283.346432 -119.951895 
L 282.031563 -122.292129 
L 280.716693 -121.107549 
L 279.401823 -121.548323 
L 278.086954 -121.548323 
L 276.772084 -121.548323 
L 275.457215 -120.804517 
L 274.142345 -120.804517 
L 272.827476 -120.804517 
L 271.512606 -120.804517 
L 270.197736 -120.804517 
L 268.882867 -120.804517 
L 267.567997 -120.804517 
L 266.253128 -120.804517 
L 264.938258 -118.655743 
L 263.623389 -117.444992 
L 262.308519 -120.804517 
L 260.993649 -119.179163 
L 259.67878 -116.672949 
L 258.36391 -118.352711 
L 257.049041 -120.804517 
L 255.734171 -120.804517 
L 254.419302 -121.548323 
L 253.104432 -121.548323 
L 251.789562 -120.060711 
L 250.474693 -118.214969 
L 249.159823 -119.013872 
L 247.844954 -119.702582 
L 246.530084 -119.592388 
L 245.215214 -120.060711 
L 243.900345 -119.785227 
L 242.585475 -120.804517 
L 241.270606 -120.804517 
L 239.955736 -120.804517 
L 238.640867 -120.804517 
L 237.325997 -119.208777 
L 236.011127 -120.804517 
L 234.696258 -120.804517 
L 233.381388 -118.738389 
L 232.066519 -119.264563 
L 230.751649 -118.18811 
L 229.43678 -120.115808 
L 228.12191 -119.619937 
L 226.80704 -120.804517 
L 225.492171 -119.785227 
L 224.177301 -120.088259 
L 222.862432 -120.088259 
L 221.547562 -119.702582 
L 220.232693 -118.793485 
L 218.917823 -118.407808 
L 217.602953 -120.804517 
L 216.288084 -119.372001 
L 214.973214 -120.804517 
L 213.658345 -119.867872 
L 212.343475 -121.300388 
L 211.028606 -120.363743 
L 209.713736 -121.300388 
L 208.398866 -118.655743 
L 207.083997 -119.597209 
L 205.769127 -120.694323 
L 204.454258 -120.088259 
L 203.139388 -118.54555 
L 201.824519 -121.080689 
L 200.509649 -121.245291 
L 199.194779 -118.793485 
L 197.87991 -117.030389 
L 196.56504 -120.474625 
L 195.250171 -120.473936 
L 193.935301 -119.785227 
L 192.620431 -119.096518 
L 191.305562 -117.667445 
L 189.990692 -120.611678 
L 188.675823 -119.344453 
L 187.360953 -119.101338 
L 186.046084 -116.838239 
L 184.731214 -118.821722 
L 183.416344 -118.077228 
L 182.101475 -118.933982 
L 180.786605 -119.427098 
L 179.471736 -117.4994 
L 178.156866 -119.592388 
L 176.841997 -119.654372 
L 175.527127 -119.922969 
L 174.212257 -120.363743 
L 172.897388 -120.363743 
L 171.582518 -118.159873 
L 170.267649 -119.482195 
L 168.952779 -120.363743 
L 167.63791 -120.804517 
L 166.32304 -120.804517 
L 165.00817 -120.804517 
L 163.693301 -119.482195 
L 162.378431 -117.36097 
L 161.063562 -114.801725 
L 159.748692 -115.048283 
L 158.433823 -116.700497 
L 157.118953 -112.127467 
L 155.804083 -110.88779 
L 154.489214 -112.210112 
L 153.174344 -110.336822 
L 151.859475 -110.226628 
L 150.544605 -110.19908 
L 149.229736 -107.940802 
L 147.914866 -107.746586 
L 146.599996 -104.24863 
L 145.285127 -100.639104 
L 143.970257 -102.816803 
L 142.655388 -101.90633 
L 141.340518 -103.22934 
L 140.025648 -101.327814 
L 138.710779 -101.05233 
L 137.395909 -102.815426 
L 136.08104 -102.788566 
L 134.76617 -103.559232 
L 133.451301 -103.338845 
L 132.136431 -103.338845 
L 130.821561 -100.749298 
L 129.506692 -102.181813 
L 128.191822 -103.146695 
L 126.876953 -102.73347 
L 125.562083 -101.577126 
L 124.247214 -101.548201 
L 122.932344 -100.309212 
L 121.617474 -100.557148 
L 120.302605 -100.336761 
L 118.987735 -99.730008 
L 117.672866 -99.235514 
L 116.357996 -98.573665 
L 115.043127 -98.519256 
L 113.728257 -98.904245 
L 112.413387 -98.904245 
L 111.098518 -95.764419 
L 109.783648 -95.95588 
L 108.468779 -93.559171 
L 107.153909 -88.684485 
L 105.83904 -87.305689 
L 104.52417 -89.813969 
L 103.2093 -85.295346 
L 101.894431 -86.672076 
L 100.579561 -84.854572 
L 99.264692 -84.633496 
L 97.949822 -86.011604 
L 96.634953 -87.470979 
L 95.320083 -85.185153 
L 94.005213 -83.862142 
L 92.690344 -81.107993 
L 91.375474 -82.127972 
L 90.060605 -81.796014 
L 88.745735 -82.596294 
L 87.430865 -80.337327 
L 86.115996 -80.888294 
L 84.801126 -80.225756 
L 83.486257 -80.887606 
L 82.171387 -81.466122 
L 80.856518 -83.008142 
L 79.541648 -82.897949 
L 78.226778 -81.603864 
L 76.911909 -79.702337 
L 75.597039 -79.537047 
L 74.28217 -77.884144 
L 72.9673 -78.352466 
L 71.652431 -77.444059 
L 70.337561 -77.361413 
L 69.022691 -77.470918 
L 67.707822 -74.964704 
L 66.392952 -58.765569 
z
" style="stroke: #a9678f; stroke-opacity: 0.2"/>
    </defs>
    <g clip-path="url(#pb566343667)">
     <use xlink:href="#mad88e71101" x="0" y="362.097812" style="fill: #a9678f; fill-opacity: 0.2; stroke: #a9678f; stroke-opacity: 0.2"/>
    </g>
   </g>
   <g id="PolyCollection_4">
    <defs>
     <path id="m61b47cfe94" d="M 66.392952 -74.497071 
L 66.392952 -56.974925 
L 67.707822 -141.080123 
L 69.022691 -204.771973 
L 70.337561 -209.124617 
L 71.652431 -194.523977 
L 72.9673 -205.130102 
L 74.28217 -210.860165 
L 75.597039 -207.967585 
L 76.911909 -222.182548 
L 78.226778 -212.678358 
L 79.541648 -212.678358 
L 80.856518 -212.678358 
L 82.171387 -208.380811 
L 83.486257 -202.044684 
L 84.801126 -222.182548 
L 86.115996 -218.298227 
L 87.430865 -194.744364 
L 88.745735 -215.736228 
L 90.060605 -222.182548 
L 91.375474 -204.055716 
L 92.690344 -218.298227 
L 94.005213 -218.298227 
L 95.320083 -222.182548 
L 96.634953 -206.645263 
L 97.949822 -222.182548 
L 99.264692 -208.132876 
L 100.579561 -207.995134 
L 101.894431 -202.871135 
L 103.2093 -202.981329 
L 104.52417 -205.301591 
L 105.83904 -222.182548 
L 107.153909 -213.504809 
L 108.468779 -222.182548 
L 109.783648 -222.182548 
L 111.098518 -222.182548 
L 112.413387 -222.182548 
L 113.728257 -218.298227 
L 115.043127 -212.678358 
L 116.357996 -206.645263 
L 117.672866 -222.182548 
L 118.987735 -222.182548 
L 120.302605 -203.394555 
L 121.617474 -201.851845 
L 122.932344 -213.504809 
L 124.247214 -213.504809 
L 125.562083 -222.182548 
L 126.876953 -210.116359 
L 128.191822 -212.430423 
L 129.506692 -222.182548 
L 130.821561 -222.182548 
L 132.136431 -206.645263 
L 133.451301 -222.182548 
L 134.76617 -222.182548 
L 136.08104 -202.017136 
L 137.395909 -206.645263 
L 138.710779 -222.182548 
L 140.025648 -208.380811 
L 141.340518 -222.182548 
L 142.655388 -221.190807 
L 143.970257 -221.190807 
L 145.285127 -207.71965 
L 146.599996 -221.190807 
L 147.914866 -212.017197 
L 149.229736 -221.190807 
L 150.544605 -221.190807 
L 151.859475 -221.190807 
L 153.174344 -221.190807 
L 154.489214 -221.190807 
L 155.804083 -213.174229 
L 157.118953 -222.182548 
L 158.433823 -222.182548 
L 159.748692 -210.199004 
L 161.063562 -222.182548 
L 162.378431 -222.182548 
L 163.693301 -222.182548 
L 165.00817 -222.182548 
L 166.32304 -222.182548 
L 167.63791 -222.182548 
L 168.952779 -214.992422 
L 170.267649 -212.402874 
L 171.582518 -201.754737 
L 172.897388 -206.727908 
L 174.212257 -210.199004 
L 175.527127 -214.992422 
L 176.841997 -209.124617 
L 178.156866 -213.918035 
L 179.471736 -213.918035 
L 180.786605 -211.163197 
L 182.101475 -222.182548 
L 183.416344 -222.182548 
L 184.731214 -193.945461 
L 186.046084 -210.915262 
L 187.360953 -194.083203 
L 188.675823 -210.116359 
L 189.990692 -207.141134 
L 191.305562 -213.504809 
L 192.620431 -206.562618 
L 193.935301 -222.182548 
L 195.250171 -222.182548 
L 196.56504 -202.595652 
L 197.87991 -189.641027 
L 199.194779 -212.678358 
L 200.509649 -212.678358 
L 201.824519 -205.31812 
L 203.139388 -215.70868 
L 204.454258 -214.381536 
L 205.769127 -213.119132 
L 207.083997 -213.119132 
L 208.398866 -213.119132 
L 209.713736 -215.70868 
L 211.028606 -215.70868 
L 212.343475 -218.298227 
L 213.658345 -222.182548 
L 214.973214 -222.182548 
L 216.288084 -212.678358 
L 217.602953 -222.182548 
L 218.917823 -204.441393 
L 220.232693 -214.055777 
L 221.547562 -184.689206 
L 222.862432 -203.413838 
L 224.177301 -212.205215 
L 225.492171 -203.55709 
L 226.80704 -203.25268 
L 228.12191 -208.380811 
L 229.43678 -205.488231 
L 230.751649 -208.794037 
L 232.066519 -213.918035 
L 233.381388 -222.182548 
L 234.696258 -222.182548 
L 236.011127 -222.182548 
L 237.325997 -200.734759 
L 238.640867 -201.466168 
L 239.955736 -222.017258 
L 241.270606 -222.017258 
L 242.585475 -201.108039 
L 243.900345 -214.055777 
L 245.215214 -214.083325 
L 246.530084 -201.245781 
L 247.844954 -207.278876 
L 249.159823 -203.394555 
L 250.474693 -196.387625 
L 251.789562 -210.08881 
L 253.104432 -201.218233 
L 254.419302 -200.74991 
L 255.734171 -209.915944 
L 257.049041 -209.317456 
L 258.36391 -218.298227 
L 259.67878 -218.298227 
L 260.993649 -197.884879 
L 262.308519 -215.70868 
L 263.623389 -196.557736 
L 264.938258 -199.147283 
L 266.253128 -205.510959 
L 267.567997 -205.543328 
L 268.882867 -210.915262 
L 270.197736 -217.003453 
L 271.512606 -207.829843 
L 272.827476 -222.182548 
L 274.142345 -222.182548 
L 275.457215 -222.182548 
L 276.772084 -222.182548 
L 278.086954 -222.182548 
L 279.401823 -222.182548 
L 280.716693 -222.182548 
L 282.031563 -207.223779 
L 283.346432 -206.810553 
L 284.661302 -222.182548 
L 285.976171 -222.182548 
L 287.291041 -211.190746 
L 288.60591 -222.182548 
L 289.92078 -209.537843 
L 291.23565 -220.11642 
L 292.550519 -208.656295 
L 293.865389 -220.11642 
L 295.180258 -208.380811 
L 296.495128 -180.970175 
L 297.809997 -213.918035 
L 299.124867 -213.918035 
L 300.439737 -213.918035 
L 301.754606 -208.408359 
L 303.069476 -201.135588 
L 304.384345 -206.645263 
L 305.699215 -222.182548 
L 307.014085 -222.182548 
L 308.328954 -222.182548 
L 309.643824 -218.298227 
L 310.958693 -215.70868 
L 312.273563 -218.298227 
L 313.588432 -218.298227 
L 314.903302 -218.298227 
L 316.218172 -222.182548 
L 317.533041 -222.182548 
L 318.847911 -222.182548 
L 320.16278 -213.504809 
L 321.47765 -214.992422 
L 322.792519 -203.587393 
L 324.107389 -212.678358 
L 325.422259 -206.342231 
L 326.737128 -212.678358 
L 328.051998 -212.678358 
L 328.051998 -222.182548 
L 328.051998 -222.182548 
L 326.737128 -222.182548 
L 325.422259 -222.182548 
L 324.107389 -222.182548 
L 322.792519 -222.182548 
L 321.47765 -222.182548 
L 320.16278 -222.182548 
L 318.847911 -222.182548 
L 317.533041 -222.182548 
L 316.218172 -222.182548 
L 314.903302 -222.182548 
L 313.588432 -222.182548 
L 312.273563 -222.182548 
L 310.958693 -222.182548 
L 309.643824 -222.182548 
L 308.328954 -222.182548 
L 307.014085 -222.182548 
L 305.699215 -222.182548 
L 304.384345 -222.182548 
L 303.069476 -222.182548 
L 301.754606 -222.182548 
L 300.439737 -222.182548 
L 299.124867 -222.182548 
L 297.809997 -222.182548 
L 296.495128 -217.05855 
L 295.180258 -222.182548 
L 293.865389 -222.182548 
L 292.550519 -222.182548 
L 291.23565 -222.182548 
L 289.92078 -222.182548 
L 288.60591 -222.182548 
L 287.291041 -222.182548 
L 285.976171 -222.182548 
L 284.661302 -222.182548 
L 283.346432 -222.182548 
L 282.031563 -222.182548 
L 280.716693 -222.182548 
L 279.401823 -222.182548 
L 278.086954 -222.182548 
L 276.772084 -222.182548 
L 275.457215 -222.182548 
L 274.142345 -222.182548 
L 272.827476 -222.182548 
L 271.512606 -222.182548 
L 270.197736 -222.182548 
L 268.882867 -222.182548 
L 267.567997 -222.182548 
L 266.253128 -222.182548 
L 264.938258 -222.182548 
L 263.623389 -220.887775 
L 262.308519 -222.182548 
L 260.993649 -222.182548 
L 259.67878 -222.182548 
L 258.36391 -222.182548 
L 257.049041 -222.182548 
L 255.734171 -222.182548 
L 254.419302 -222.182548 
L 253.104432 -222.182548 
L 251.789562 -222.182548 
L 250.474693 -220.887775 
L 249.159823 -222.182548 
L 247.844954 -222.182548 
L 246.530084 -222.182548 
L 245.215214 -222.182548 
L 243.900345 -222.182548 
L 242.585475 -222.182548 
L 241.270606 -222.182548 
L 239.955736 -222.182548 
L 238.640867 -222.182548 
L 237.325997 -222.182548 
L 236.011127 -222.182548 
L 234.696258 -222.182548 
L 233.381388 -222.182548 
L 232.066519 -222.182548 
L 230.751649 -222.182548 
L 229.43678 -222.182548 
L 228.12191 -222.182548 
L 226.80704 -221.356097 
L 225.492171 -220.061323 
L 224.177301 -222.182548 
L 222.862432 -220.887775 
L 221.547562 -218.163929 
L 220.232693 -222.182548 
L 218.917823 -222.182548 
L 217.602953 -222.182548 
L 216.288084 -222.182548 
L 214.973214 -222.182548 
L 213.658345 -222.182548 
L 212.343475 -222.182548 
L 211.028606 -222.182548 
L 209.713736 -222.182548 
L 208.398866 -222.182548 
L 207.083997 -222.182548 
L 205.769127 -222.182548 
L 204.454258 -222.182548 
L 203.139388 -222.182548 
L 201.824519 -222.182548 
L 200.509649 -222.182548 
L 199.194779 -222.182548 
L 197.87991 -219.289969 
L 196.56504 -222.182548 
L 195.250171 -222.182548 
L 193.935301 -222.182548 
L 192.620431 -222.182548 
L 191.305562 -222.182548 
L 189.990692 -222.182548 
L 188.675823 -222.182548 
L 187.360953 -219.289969 
L 186.046084 -222.182548 
L 184.731214 -222.182548 
L 183.416344 -222.182548 
L 182.101475 -222.182548 
L 180.786605 -222.182548 
L 179.471736 -222.182548 
L 178.156866 -222.182548 
L 176.841997 -222.182548 
L 175.527127 -222.182548 
L 174.212257 -222.182548 
L 172.897388 -222.182548 
L 171.582518 -222.182548 
L 170.267649 -222.182548 
L 168.952779 -222.182548 
L 167.63791 -222.182548 
L 166.32304 -222.182548 
L 165.00817 -222.182548 
L 163.693301 -222.182548 
L 162.378431 -222.182548 
L 161.063562 -222.182548 
L 159.748692 -222.182548 
L 158.433823 -222.182548 
L 157.118953 -222.182548 
L 155.804083 -222.182548 
L 154.489214 -222.182548 
L 153.174344 -222.182548 
L 151.859475 -222.182548 
L 150.544605 -222.182548 
L 149.229736 -222.182548 
L 147.914866 -222.182548 
L 146.599996 -222.182548 
L 145.285127 -222.182548 
L 143.970257 -222.182548 
L 142.655388 -222.182548 
L 141.340518 -222.182548 
L 140.025648 -222.182548 
L 138.710779 -222.182548 
L 137.395909 -222.182548 
L 136.08104 -222.182548 
L 134.76617 -222.182548 
L 133.451301 -222.182548 
L 132.136431 -222.182548 
L 130.821561 -222.182548 
L 129.506692 -222.182548 
L 128.191822 -222.182548 
L 126.876953 -222.182548 
L 125.562083 -222.182548 
L 124.247214 -222.182548 
L 122.932344 -222.182548 
L 121.617474 -222.182548 
L 120.302605 -222.182548 
L 118.987735 -222.182548 
L 117.672866 -222.182548 
L 116.357996 -222.182548 
L 115.043127 -222.182548 
L 113.728257 -222.182548 
L 112.413387 -222.182548 
L 111.098518 -222.182548 
L 109.783648 -222.182548 
L 108.468779 -222.182548 
L 107.153909 -222.182548 
L 105.83904 -222.182548 
L 104.52417 -222.182548 
L 103.2093 -222.182548 
L 101.894431 -222.182548 
L 100.579561 -222.182548 
L 99.264692 -222.182548 
L 97.949822 -222.182548 
L 96.634953 -222.182548 
L 95.320083 -222.182548 
L 94.005213 -222.182548 
L 92.690344 -222.182548 
L 91.375474 -222.182548 
L 90.060605 -222.182548 
L 88.745735 -222.182548 
L 87.430865 -220.887775 
L 86.115996 -222.182548 
L 84.801126 -222.182548 
L 83.486257 -222.182548 
L 82.171387 -222.182548 
L 80.856518 -222.182548 
L 79.541648 -222.182548 
L 78.226778 -222.182548 
L 76.911909 -222.182548 
L 75.597039 -222.182548 
L 74.28217 -222.182548 
L 72.9673 -222.182548 
L 71.652431 -222.182548 
L 70.337561 -222.182548 
L 69.022691 -222.182548 
L 67.707822 -192.513634 
L 66.392952 -74.497071 
z
" style="stroke: #6c3f70; stroke-opacity: 0.2"/>
    </defs>
    <g clip-path="url(#pb566343667)">
     <use xlink:href="#m61b47cfe94" x="0" y="362.097812" style="fill: #6c3f70; fill-opacity: 0.2; stroke: #6c3f70; stroke-opacity: 0.2"/>
    </g>
   </g>
   <g id="PolyCollection_5">
    <defs>
     <path id="m68bbb4759b" d="M 66.392952 -59.593398 
L 66.392952 -57.333054 
L 67.707822 -61.850299 
L 69.022691 -65.762857 
L 70.337561 -67.360663 
L 71.652431 -74.880682 
L 72.9673 -76.974359 
L 74.28217 -82.016401 
L 75.597039 -81.437196 
L 76.911909 -81.52053 
L 78.226778 -82.676184 
L 79.541648 -84.43928 
L 80.856518 -83.393819 
L 82.171387 -83.889002 
L 83.486257 -90.196891 
L 84.801126 -94.3016 
L 86.115996 -100.22519 
L 87.430865 -96.561944 
L 88.745735 -95.900783 
L 90.060605 -92.785062 
L 91.375474 -88.241645 
L 92.690344 -94.358074 
L 94.005213 -94.935901 
L 95.320083 -92.924181 
L 96.634953 -93.475837 
L 97.949822 -91.822934 
L 99.264692 -96.451751 
L 100.579561 -100.718994 
L 101.894431 -100.528222 
L 103.2093 -97.387707 
L 104.52417 -95.98274 
L 105.83904 -93.117708 
L 107.153909 -90.087387 
L 108.468779 -97.608783 
L 109.783648 -97.223105 
L 111.098518 -96.424202 
L 112.413387 -94.357385 
L 113.728257 -93.005449 
L 115.043127 -96.285083 
L 116.357996 -93.475148 
L 117.672866 -95.844998 
L 118.987735 -97.552308 
L 120.302605 -99.370501 
L 121.617474 -98.462782 
L 122.932344 -97.526137 
L 124.247214 -96.202438 
L 125.562083 -99.343642 
L 126.876953 -97.168009 
L 128.191822 -100.637727 
L 129.506692 -99.426287 
L 130.821561 -101.685254 
L 132.136431 -101.024781 
L 133.451301 -97.277513 
L 134.76617 -95.762353 
L 136.08104 -100.088137 
L 137.395909 -100.196953 
L 138.710779 -99.01375 
L 140.025648 -98.076416 
L 141.340518 -100.721061 
L 142.655388 -95.12874 
L 143.970257 -103.366394 
L 145.285127 -99.480695 
L 146.599996 -99.123255 
L 147.914866 -96.451751 
L 149.229736 -99.702459 
L 150.544605 -103.007576 
L 151.859475 -101.410459 
L 153.174344 -105.432522 
L 154.489214 -101.710736 
L 155.804083 -101.380156 
L 157.118953 -99.921469 
L 158.433823 -104.303038 
L 159.748692 -107.029639 
L 161.063562 -102.374652 
L 162.378431 -104.055103 
L 163.693301 -100.885662 
L 165.00817 -105.459382 
L 166.32304 -104.220393 
L 167.63791 -104.495877 
L 168.952779 -96.946933 
L 170.267649 -98.131513 
L 171.582518 -103.199726 
L 172.897388 -109.509682 
L 174.212257 -104.770672 
L 175.527127 -101.823684 
L 176.841997 -104.522737 
L 178.156866 -98.983447 
L 179.471736 -107.112284 
L 180.786605 -103.860887 
L 182.101475 -106.973854 
L 183.416344 -104.468329 
L 184.731214 -103.558544 
L 186.046084 -105.128112 
L 187.360953 -99.287856 
L 188.675823 -104.192845 
L 189.990692 -106.534457 
L 191.305562 -103.28306 
L 192.620431 -106.754155 
L 193.935301 -111.603359 
L 195.250171 -107.636392 
L 196.56504 -105.073704 
L 197.87991 -105.128112 
L 199.194779 -102.732092 
L 200.509649 -105.652909 
L 201.824519 -109.535164 
L 203.139388 -107.662563 
L 204.454258 -102.287875 
L 205.769127 -108.132263 
L 207.083997 -103.971081 
L 208.398866 -105.708006 
L 209.713736 -102.290629 
L 211.028606 -100.308524 
L 212.343475 -104.606071 
L 213.658345 -103.970392 
L 214.973214 -106.121231 
L 216.288084 -103.943532 
L 217.602953 -99.453835 
L 218.917823 -97.715533 
L 220.232693 -108.818218 
L 221.547562 -103.338157 
L 222.862432 -103.310608 
L 224.177301 -104.991748 
L 225.492171 -106.258973 
L 226.80704 -100.694201 
L 228.12191 -100.307835 
L 229.43678 -107.966973 
L 230.751649 -107.553058 
L 232.066519 -102.401512 
L 233.381388 -104.736237 
L 234.696258 -104.164608 
L 236.011127 -110.004175 
L 237.325997 -110.857486 
L 238.640867 -107.856779 
L 239.955736 -109.289295 
L 241.270606 -107.137767 
L 242.585475 -108.51794 
L 243.900345 -104.606071 
L 245.215214 -102.977961 
L 246.530084 -104.826458 
L 247.844954 -100.19833 
L 249.159823 -109.454585 
L 250.474693 -106.891897 
L 251.789562 -107.359531 
L 253.104432 -104.1102 
L 254.419302 -108.626068 
L 255.734171 -110.776907 
L 257.049041 -107.663252 
L 258.36391 -103.200415 
L 259.67878 -100.913899 
L 260.993649 -106.341618 
L 262.308519 -103.612952 
L 263.623389 -109.289295 
L 264.938258 -105.51379 
L 266.253128 -106.424264 
L 267.567997 -104.716264 
L 268.882867 -99.838824 
L 270.197736 -105.349877 
L 271.512606 -102.123962 
L 272.827476 -106.587488 
L 274.142345 -99.808521 
L 275.457215 -105.046845 
L 276.772084 -102.070242 
L 278.086954 -107.801682 
L 279.401823 -110.666714 
L 280.716693 -111.107488 
L 282.031563 -110.033101 
L 283.346432 -103.807168 
L 284.661302 -102.42906 
L 285.976171 -113.752132 
L 287.291041 -107.030328 
L 288.60591 -104.798221 
L 289.92078 -103.971769 
L 291.23565 -99.424221 
L 292.550519 -99.371879 
L 293.865389 -102.592973 
L 295.180258 -103.00551 
L 296.495128 -105.843682 
L 297.809997 -104.495877 
L 299.124867 -103.833339 
L 300.439737 -103.146007 
L 301.754606 -108.5448 
L 303.069476 -108.792735 
L 304.384345 -105.402907 
L 305.699215 -107.250715 
L 307.014085 -103.200415 
L 308.328954 -107.248649 
L 309.643824 -99.840201 
L 310.958693 -102.42906 
L 312.273563 -107.030328 
L 313.588432 -102.152888 
L 314.903302 -110.198391 
L 316.218172 -105.432522 
L 317.533041 -108.380198 
L 318.847911 -107.883639 
L 320.16278 -108.076478 
L 321.47765 -110.335445 
L 322.792519 -102.043383 
L 324.107389 -106.725918 
L 325.422259 -101.079878 
L 326.737128 -108.600585 
L 328.051998 -102.511705 
L 328.051998 -112.623337 
L 328.051998 -112.623337 
L 326.737128 -114.330648 
L 325.422259 -112.541381 
L 324.107389 -113.834777 
L 322.792519 -112.569618 
L 321.47765 -114.082713 
L 320.16278 -114.248003 
L 318.847911 -114.495938 
L 317.533041 -114.082713 
L 316.218172 -113.752132 
L 314.903302 -114.000068 
L 313.588432 -111.963554 
L 312.273563 -113.643316 
L 310.958693 -112.155015 
L 309.643824 -110.39123 
L 308.328954 -112.760391 
L 307.014085 -111.686693 
L 305.699215 -112.677745 
L 304.384345 -113.174994 
L 303.069476 -113.175682 
L 301.754606 -113.256261 
L 300.439737 -111.880909 
L 299.124867 -112.319616 
L 297.809997 -112.925681 
L 296.495128 -113.752132 
L 295.180258 -112.925681 
L 293.865389 -112.292757 
L 292.550519 -110.944952 
L 291.23565 -110.943575 
L 289.92078 -112.650197 
L 288.60591 -112.898132 
L 287.291041 -113.752132 
L 285.976171 -113.752132 
L 284.661302 -112.787939 
L 283.346432 -113.035874 
L 282.031563 -114.000068 
L 280.716693 -114.000068 
L 279.401823 -114.000068 
L 278.086954 -114.000068 
L 276.772084 -112.540004 
L 275.457215 -113.669487 
L 274.142345 -110.860241 
L 272.827476 -112.622649 
L 271.512606 -110.859552 
L 270.197736 -113.228713 
L 268.882867 -111.273467 
L 267.567997 -112.705983 
L 266.253128 -113.531745 
L 264.938258 -113.366455 
L 263.623389 -114.000068 
L 262.308519 -113.258327 
L 260.993649 -114.000068 
L 259.67878 -112.26452 
L 258.36391 -112.154326 
L 257.049041 -113.4491 
L 255.734171 -113.917422 
L 254.419302 -113.754198 
L 253.104432 -112.26452 
L 251.789562 -113.394003 
L 250.474693 -113.752132 
L 249.159823 -113.752132 
L 247.844954 -112.044133 
L 246.530084 -113.752132 
L 245.215214 -112.296889 
L 243.900345 -112.5951 
L 242.585475 -113.752132 
L 241.270606 -113.917422 
L 239.955736 -114.082713 
L 238.640867 -113.506263 
L 237.325997 -113.917422 
L 236.011127 -113.752132 
L 234.696258 -111.990413 
L 233.381388 -113.256261 
L 232.066519 -111.963554 
L 230.751649 -113.504197 
L 229.43678 -113.228713 
L 228.12191 -110.611617 
L 226.80704 -111.382972 
L 225.492171 -113.752132 
L 224.177301 -113.118519 
L 222.862432 -112.404328 
L 221.547562 -111.935317 
L 220.232693 -113.834777 
L 218.917823 -110.115746 
L 217.602953 -111.442889 
L 216.288084 -112.843036 
L 214.973214 -112.706671 
L 213.658345 -112.430499 
L 212.343475 -112.760391 
L 211.028606 -111.300327 
L 209.713736 -111.715618 
L 208.398866 -113.173616 
L 207.083997 -112.815487 
L 205.769127 -113.752132 
L 204.454258 -112.055152 
L 203.139388 -113.752132 
L 201.824519 -113.394003 
L 200.509649 -112.622649 
L 199.194779 -111.356801 
L 197.87991 -112.898132 
L 196.56504 -112.815487 
L 195.250171 -113.201165 
L 193.935301 -113.752132 
L 192.620431 -113.504197 
L 191.305562 -112.327192 
L 189.990692 -113.752132 
L 188.675823 -113.559294 
L 187.360953 -109.564779 
L 186.046084 -111.962176 
L 184.731214 -111.38366 
L 183.416344 -112.568241 
L 182.101475 -112.732842 
L 180.786605 -111.908457 
L 179.471736 -112.787939 
L 178.156866 -110.365748 
L 176.841997 -112.596478 
L 175.527127 -112.044821 
L 174.212257 -112.843036 
L 172.897388 -113.752132 
L 171.582518 -112.209423 
L 170.267649 -110.088887 
L 168.952779 -108.132952 
L 167.63791 -111.658455 
L 166.32304 -111.493854 
L 165.00817 -111.631596 
L 163.693301 -110.281725 
L 162.378431 -111.05308 
L 161.063562 -109.402243 
L 159.748692 -111.57581 
L 158.433823 -110.309274 
L 157.118953 -108.490392 
L 155.804083 -108.491769 
L 154.489214 -109.730069 
L 153.174344 -109.867811 
L 151.859475 -108.188048 
L 150.544605 -107.911876 
L 149.229736 -107.586116 
L 147.914866 -106.507597 
L 146.599996 -107.416005 
L 145.285127 -107.99521 
L 143.970257 -108.02207 
L 142.655388 -104.828524 
L 141.340518 -107.33336 
L 140.025648 -106.011038 
L 138.710779 -106.012415 
L 137.395909 -106.451812 
L 136.08104 -106.755533 
L 134.76617 -104.24863 
L 133.451301 -104.881554 
L 132.136431 -105.542715 
L 130.821561 -105.681146 
L 129.506692 -105.570264 
L 128.191822 -104.799598 
L 126.876953 -103.834716 
L 125.562083 -104.027555 
L 124.247214 -102.430437 
L 122.932344 -102.679062 
L 121.617474 -103.889813 
L 120.302605 -103.724523 
L 118.987735 -103.288569 
L 117.672866 -102.567491 
L 116.357996 -100.915277 
L 115.043127 -102.595039 
L 113.728257 -100.942136 
L 112.413387 -101.796136 
L 111.098518 -102.89876 
L 109.783648 -103.94491 
L 108.468779 -104.469706 
L 107.153909 -99.619814 
L 105.83904 -101.548201 
L 104.52417 -102.678373 
L 103.2093 -103.504136 
L 101.894431 -103.724523 
L 100.579561 -103.889813 
L 99.264692 -102.595039 
L 97.949822 -99.812653 
L 96.634953 -101.053707 
L 95.320083 -101.328502 
L 94.005213 -101.355362 
L 92.690344 -100.970373 
L 91.375474 -97.471041 
L 90.060605 -100.805083 
L 88.745735 -101.933878 
L 87.430865 -103.338845 
L 86.115996 -103.476587 
L 84.801126 -101.796825 
L 83.486257 -98.049557 
L 82.171387 -93.173494 
L 80.856518 -91.85186 
L 79.541648 -92.319494 
L 78.226778 -91.437946 
L 76.911909 -90.529538 
L 75.597039 -90.85943 
L 74.28217 -90.997861 
L 72.9673 -86.809818 
L 71.652431 -84.16724 
L 70.337561 -76.782897 
L 69.022691 -74.551479 
L 67.707822 -67.857912 
L 66.392952 -59.593398 
z
" style="stroke: #2d1e3e; stroke-opacity: 0.2"/>
    </defs>
    <g clip-path="url(#pb566343667)">
     <use xlink:href="#m68bbb4759b" x="0" y="362.097812" style="fill: #2d1e3e; fill-opacity: 0.2; stroke: #2d1e3e; stroke-opacity: 0.2"/>
    </g>
   </g>
   <g id="line2d_13">
    <path d="M 66.392952 300.32947 
L 67.707822 253.745162 
L 69.022691 213.083756 
L 70.337561 206.279307 
L 71.652431 211.761434 
L 72.9673 206.940468 
L 74.28217 202.780663 
L 75.597039 200.439051 
L 76.911909 205.012082 
L 78.226778 201.485889 
L 79.541648 201.899115 
L 80.856518 200.549244 
L 82.171387 209.833048 
L 83.486257 202.587824 
L 84.801126 200.466599 
L 86.115996 196.196601 
L 87.430865 196.003762 
L 88.745735 200.411502 
L 90.060605 198.951438 
L 91.375474 199.309567 
L 92.690344 209.392274 
L 94.005213 192.009247 
L 95.320083 193.304021 
L 96.634953 178.179961 
L 97.949822 170.631706 
L 99.264692 169.832803 
L 100.579561 161.017322 
L 101.894431 163.166095 
L 103.2093 168.372739 
L 104.52417 182.229573 
L 105.83904 163.303837 
L 107.153909 167.766674 
L 108.468779 164.075192 
L 109.783648 149.722487 
L 111.098518 142.146683 
L 112.413387 135.23204 
L 113.728257 113.083144 
L 115.043127 99.033471 
L 116.357996 74.322576 
L 117.672866 76.003027 
L 118.987735 78.454833 
L 120.302605 60.575935 
L 121.617474 68.923094 
L 122.932344 68.234384 
L 124.247214 71.677931 
L 125.562083 72.917609 
L 129.506692 60.575935 
L 130.821561 60.575935 
L 132.136431 66.967159 
L 133.451301 70.162771 
L 134.76617 75.066382 
L 136.08104 75.341866 
L 137.395909 85.066443 
L 140.025648 69.804642 
L 141.340518 60.575935 
L 142.655388 69.060836 
L 143.970257 71.347351 
L 145.285127 72.669673 
L 146.599996 72.697221 
L 147.914866 70.135222 
L 149.229736 70.741287 
L 150.544605 63.771547 
L 151.859475 68.179287 
L 153.174344 63.771547 
L 154.489214 68.234384 
L 155.804083 68.069094 
L 157.118953 72.366641 
L 158.433823 79.556768 
L 159.748692 76.664188 
L 161.063562 83.055412 
L 162.378431 79.8598 
L 163.693301 68.069094 
L 165.00817 64.873482 
L 166.32304 60.575935 
L 167.63791 64.350063 
L 170.267649 64.350063 
L 171.582518 73.193092 
L 172.897388 68.785352 
L 174.212257 72.339093 
L 175.527127 65.011224 
L 176.841997 64.873482 
L 178.156866 60.575935 
L 179.471736 60.575935 
L 180.786605 64.542902 
L 182.101475 65.865224 
L 183.416344 64.983676 
L 184.731214 69.83219 
L 186.046084 60.575935 
L 188.675823 60.575935 
L 189.990692 66.636578 
L 191.305562 66.44374 
L 192.620431 71.733028 
L 193.935301 60.575935 
L 195.250171 64.983676 
L 196.56504 69.99748 
L 197.87991 72.366641 
L 199.194779 75.589801 
L 200.509649 78.372187 
L 201.824519 63.771547 
L 203.139388 65.865224 
L 204.454258 74.019544 
L 205.769127 65.865224 
L 207.083997 72.256447 
L 208.398866 65.865224 
L 209.713736 76.11322 
L 211.028606 60.575935 
L 212.343475 69.005739 
L 213.658345 68.234384 
L 214.973214 74.59806 
L 216.288084 80.410767 
L 217.602953 75.892833 
L 218.917823 60.575935 
L 220.232693 68.509868 
L 221.547562 67.738513 
L 222.862432 60.575935 
L 224.177301 73.826705 
L 225.492171 70.961674 
L 226.80704 63.771547 
L 228.12191 74.019544 
L 229.43678 66.361095 
L 230.751649 60.575935 
L 232.066519 73.000254 
L 233.381388 65.644837 
L 234.696258 80.355671 
L 236.011127 60.575935 
L 237.325997 69.143481 
L 238.640867 65.011224 
L 239.955736 66.44374 
L 241.270606 85.589862 
L 242.585475 62.779805 
L 243.900345 65.727482 
L 245.215214 72.008512 
L 246.530084 60.438193 
L 247.844954 64.267418 
L 249.159823 70.796383 
L 250.474693 70.328061 
L 251.789562 64.074579 
L 253.104432 73.661415 
L 254.419302 61.319741 
L 255.734171 71.099416 
L 257.049041 78.289542 
L 258.36391 69.556706 
L 259.67878 73.633866 
L 260.993649 73.771608 
L 262.308519 69.474061 
L 263.623389 69.474061 
L 264.938258 66.388643 
L 266.253128 66.388643 
L 267.567997 60.438193 
L 268.882867 67.435481 
L 270.197736 62.779805 
L 271.512606 77.242704 
L 272.827476 60.575935 
L 274.142345 67.710965 
L 275.457215 59.777032 
L 276.772084 61.815612 
L 278.086954 68.950642 
L 279.401823 66.305998 
L 280.716693 63.082838 
L 282.031563 61.705419 
L 283.346432 54.983614 
L 284.661302 57.325226 
L 285.976171 68.509868 
L 288.60591 56.526324 
L 289.92078 61.237096 
L 291.23565 58.069033 
L 292.550519 59.474 
L 293.865389 67.380385 
L 296.495128 73.137996 
L 297.809997 57.683355 
L 299.124867 79.997542 
L 300.439737 74.019544 
L 301.754606 70.052577 
L 303.069476 69.253674 
L 305.699215 58.867936 
L 307.014085 62.311483 
L 308.328954 53.743937 
L 310.958693 53.743937 
L 312.273563 55.699872 
L 313.588432 54.102066 
L 314.903302 48.95052 
L 316.218172 43.00007 
L 317.533041 54.708131 
L 318.847911 48.537294 
L 320.16278 48.537294 
L 321.47765 57.049743 
L 322.792519 47.683294 
L 324.107389 47.600649 
L 325.422259 38.206652 
L 326.737128 51.126841 
L 328.051998 55.038711 
L 328.051998 55.038711 
" clip-path="url(#pb566343667)" style="fill: none; stroke: #edd1cb; stroke-width: 1.5; stroke-linecap: round"/>
   </g>
   <g id="line2d_14">
    <path d="M 66.392952 300.357018 
L 67.707822 189.281958 
L 69.022691 167.684029 
L 70.337561 166.802481 
L 71.652431 163.717063 
L 72.9673 164.047643 
L 74.28217 164.047643 
L 75.597039 164.378224 
L 76.911909 164.378224 
L 78.226778 165.039385 
L 80.856518 164.378224 
L 83.486257 164.378224 
L 84.801126 164.818998 
L 86.115996 165.865836 
L 87.430865 166.251514 
L 88.745735 165.204675 
L 90.060605 164.874095 
L 91.375474 164.874095 
L 92.690344 170.438867 
L 94.005213 164.433321 
L 95.320083 164.433321 
L 96.634953 171.265318 
L 97.949822 168.400287 
L 99.264692 166.30661 
L 100.579561 166.526997 
L 101.894431 167.766674 
L 104.52417 166.99532 
L 105.83904 168.703319 
L 107.153909 163.882353 
L 108.468779 166.802481 
L 109.783648 167.16061 
L 111.098518 166.967771 
L 113.728257 172.863124 
L 115.043127 165.97603 
L 116.357996 169.942996 
L 117.672866 166.499449 
L 118.987735 167.463642 
L 120.302605 167.766674 
L 121.617474 163.193644 
L 122.932344 167.298352 
L 124.247214 162.587579 
L 125.562083 166.168868 
L 126.876953 167.573836 
L 128.191822 163.358934 
L 129.506692 167.133062 
L 130.821561 163.138547 
L 132.136431 163.138547 
L 133.451301 162.339644 
L 134.76617 165.783191 
L 136.08104 165.728094 
L 137.395909 165.177127 
L 138.710779 160.962225 
L 140.025648 160.686741 
L 141.340518 164.874095 
L 142.655388 163.469127 
L 143.970257 168.785964 
L 145.285127 163.854805 
L 146.599996 166.389255 
L 147.914866 167.380997 
L 149.229736 161.127515 
L 150.544605 161.402999 
L 151.859475 161.375451 
L 154.489214 168.290094 
L 155.804083 164.543514 
L 157.118953 164.571062 
L 158.433823 163.524224 
L 159.748692 164.240482 
L 161.063562 163.110998 
L 162.378431 164.350675 
L 163.693301 162.119257 
L 165.00817 164.075192 
L 166.32304 160.301064 
L 167.63791 161.127515 
L 168.952779 161.568289 
L 170.267649 165.562804 
L 171.582518 170.301125 
L 172.897388 158.207387 
L 174.212257 158.620613 
L 175.527127 161.706031 
L 176.841997 161.430547 
L 178.156866 157.105452 
L 179.471736 159.364419 
L 180.786605 164.460869 
L 182.101475 161.816225 
L 183.416344 157.380936 
L 184.731214 156.554484 
L 186.046084 159.86029 
L 187.360953 159.887838 
L 188.675823 167.904416 
L 189.990692 159.391967 
L 191.305562 163.221192 
L 192.620431 156.003517 
L 193.935301 159.309322 
L 195.250171 165.507707 
L 196.56504 163.469127 
L 197.87991 163.469127 
L 199.194779 170.190932 
L 200.509649 161.926418 
L 201.824519 158.703258 
L 203.139388 158.510419 
L 205.769127 158.813451 
L 207.083997 156.609581 
L 208.398866 163.964998 
L 209.713736 161.485644 
L 211.028606 163.166095 
L 212.343475 163.166095 
L 213.658345 161.540741 
L 214.973214 158.427774 
L 216.288084 153.248679 
L 217.602953 168.042158 
L 220.232693 159.061387 
L 221.547562 159.364419 
L 222.862432 164.653708 
L 224.177301 161.953967 
L 225.492171 158.841 
L 226.80704 159.612354 
L 228.12191 154.901582 
L 229.43678 158.234936 
L 232.066519 158.234936 
L 233.381388 154.901582 
L 234.696258 163.551773 
L 236.011127 162.890611 
L 238.640867 154.901582 
L 239.955736 165.232224 
L 241.270606 161.237709 
L 242.585475 154.901582 
L 245.215214 154.901582 
L 246.530084 158.400226 
L 247.844954 158.841 
L 249.159823 158.730806 
L 250.474693 158.15229 
L 251.789562 163.634418 
L 253.104432 155.590291 
L 254.419302 155.590291 
L 255.734171 159.584806 
L 257.049041 154.901582 
L 258.36391 161.568289 
L 259.67878 160.741838 
L 260.993649 154.901582 
L 262.308519 154.901582 
L 263.623389 155.590291 
L 264.938258 159.144032 
L 266.253128 157.849258 
L 267.567997 156.279001 
L 268.882867 155.590291 
L 270.197736 158.923645 
L 271.512606 167.959513 
L 272.827476 159.695 
L 274.142345 156.279001 
L 275.457215 156.389194 
L 276.772084 158.400226 
L 278.086954 162.587579 
L 279.401823 156.389194 
L 280.716693 162.670224 
L 282.031563 160.796935 
L 283.346432 164.846546 
L 285.976171 155.590291 
L 287.291041 154.901582 
L 288.60591 159.088935 
L 289.92078 155.590291 
L 291.23565 158.400226 
L 292.550519 162.119257 
L 293.865389 160.989773 
L 295.180258 160.989773 
L 296.495128 158.345129 
L 297.809997 160.466354 
L 299.124867 159.777645 
L 300.439737 157.65642 
L 301.754606 156.96771 
L 303.069476 159.915387 
L 304.384345 163.358934 
L 305.699215 156.96771 
L 307.014085 155.590291 
L 308.328954 154.901582 
L 309.643824 154.901582 
L 310.958693 158.455323 
L 313.588432 158.978742 
L 314.903302 161.237709 
L 316.218172 159.584806 
L 317.533041 158.317581 
L 318.847911 157.215646 
L 320.16278 161.871321 
L 321.47765 164.598611 
L 322.792519 161.73358 
L 324.107389 160.02558 
L 325.422259 155.590291 
L 328.051998 158.730806 
L 328.051998 158.730806 
" clip-path="url(#pb566343667)" style="fill: none; stroke: #d499a7; stroke-width: 1.5; stroke-linecap: round"/>
   </g>
   <g id="line2d_15">
    <path d="M 66.392952 304.764759 
L 67.707822 289.833538 
L 69.022691 286.114507 
L 71.652431 286.307345 
L 72.9673 285.673733 
L 74.28217 286.803216 
L 75.597039 284.819733 
L 76.911909 284.434056 
L 78.226778 282.340379 
L 79.541648 281.348637 
L 80.856518 281.100702 
L 82.171387 282.726056 
L 83.486257 283.85554 
L 84.801126 284.131024 
L 86.115996 283.883088 
L 87.430865 284.737088 
L 88.745735 282.478121 
L 90.060605 283.16683 
L 92.690344 283.85554 
L 94.005213 281.238444 
L 95.320083 280.026315 
L 96.634953 278.373412 
L 97.949822 280.164057 
L 99.264692 280.852767 
L 100.579561 281.321089 
L 101.894431 279.640638 
L 103.2093 281.596573 
L 104.52417 276.086897 
L 105.83904 278.92438 
L 107.153909 277.960187 
L 108.468779 272.588253 
L 109.783648 269.943609 
L 111.098518 269.91606 
L 112.413387 265.646062 
L 113.728257 266.52761 
L 115.043127 266.803094 
L 116.357996 266.830642 
L 117.672866 264.902256 
L 118.987735 264.130901 
L 120.302605 263.524837 
L 121.617474 263.30445 
L 122.932344 263.690127 
L 124.247214 262.725934 
L 125.562083 263.359546 
L 126.876953 260.907741 
L 128.191822 260.962838 
L 129.506692 262.230063 
L 130.821561 265.398126 
L 132.136431 261.100579 
L 133.451301 260.797547 
L 134.76617 259.612967 
L 136.08104 261.458708 
L 137.395909 262.092321 
L 138.710779 264.075804 
L 140.025648 263.194256 
L 141.340518 261.871934 
L 142.655388 263.30445 
L 143.970257 262.037224 
L 145.285127 265.646062 
L 146.599996 262.28516 
L 147.914866 257.987613 
L 149.229736 257.932516 
L 150.544605 256.472452 
L 151.859475 255.976581 
L 153.174344 257.436645 
L 154.489214 255.425614 
L 155.804083 256.362258 
L 157.118953 255.590904 
L 158.433823 249.943486 
L 159.748692 252.973808 
L 161.063562 253.497227 
L 162.378431 249.03439 
L 163.693301 246.224455 
L 165.00817 242.174844 
L 166.32304 243.634908 
L 167.63791 242.092199 
L 168.952779 245.590843 
L 170.267649 247.271294 
L 171.582518 248.207938 
L 172.897388 244.544004 
L 174.212257 244.764391 
L 175.527127 244.488907 
L 176.841997 245.563294 
L 178.156866 245.783681 
L 179.471736 249.006841 
L 180.786605 245.12252 
L 182.101475 246.362197 
L 183.416344 248.263035 
L 184.731214 246.858068 
L 186.046084 250.962776 
L 187.360953 246.334649 
L 188.675823 245.315359 
L 189.990692 245.590843 
L 191.305562 249.860841 
L 192.620431 248.070197 
L 193.935301 245.342907 
L 195.250171 243.93794 
L 196.56504 244.847036 
L 197.87991 250.411809 
L 200.509649 244.488907 
L 201.824519 244.26852 
L 203.139388 248.786454 
L 204.454258 247.436584 
L 205.769127 243.93794 
L 207.083997 246.444842 
L 208.398866 249.309874 
L 209.713736 243.001295 
L 211.028606 245.315359 
L 212.343475 243.552263 
L 213.658345 246.417294 
L 214.973214 242.725811 
L 216.288084 247.932455 
L 217.602953 244.048133 
L 218.917823 248.951745 
L 220.232693 248.290584 
L 221.547562 246.802971 
L 222.862432 245.97652 
L 224.177301 245.618391 
L 225.492171 247.1611 
L 226.80704 241.789166 
L 228.12191 246.692778 
L 229.43678 245.094972 
L 230.751649 248.538519 
L 232.066519 247.491681 
L 233.381388 248.263035 
L 234.696258 244.516456 
L 236.011127 244.213424 
L 237.325997 248.0151 
L 238.640867 245.480649 
L 239.955736 245.342907 
L 241.270606 242.367682 
L 242.585475 244.158327 
L 243.900345 246.252004 
L 245.215214 245.590843 
L 246.530084 246.582584 
L 247.844954 246.444842 
L 249.159823 248.483422 
L 250.474693 249.117035 
L 251.789562 246.169358 
L 253.104432 241.04536 
L 254.419302 241.04536 
L 255.734171 241.293296 
L 257.049041 244.654198 
L 258.36391 249.117035 
L 259.67878 251.761679 
L 260.993649 247.629423 
L 262.308519 244.626649 
L 263.623389 250.21897 
L 264.938258 248.34568 
L 266.253128 243.552263 
L 268.882867 244.10323 
L 270.197736 242.588069 
L 271.512606 243.001295 
L 272.827476 242.670714 
L 274.142345 243.139037 
L 275.457215 242.450327 
L 276.772084 242.202392 
L 278.086954 241.04536 
L 279.401823 243.304327 
L 280.716693 244.902133 
L 282.031563 242.477876 
L 283.346432 246.059165 
L 284.661302 242.340134 
L 285.976171 247.023358 
L 287.291041 241.73407 
L 288.60591 239.420006 
L 289.92078 237.739555 
L 291.23565 238.758845 
L 292.550519 242.91865 
L 293.865389 242.009553 
L 295.180258 238.042587 
L 296.495128 238.097684 
L 297.809997 241.568779 
L 299.124867 243.634908 
L 300.439737 242.91865 
L 301.754606 247.822261 
L 303.069476 243.717553 
L 304.384345 242.973747 
L 305.699215 243.800198 
L 307.014085 242.285037 
L 308.328954 239.530199 
L 309.643824 240.02607 
L 310.958693 241.871811 
L 312.273563 240.19136 
L 313.588432 238.731296 
L 314.903302 238.84149 
L 316.218172 238.731296 
L 317.533041 243.194134 
L 318.847911 239.061877 
L 320.16278 242.780908 
L 321.47765 239.17207 
L 322.792519 245.398004 
L 324.107389 245.783681 
L 325.422259 238.235426 
L 326.737128 238.235426 
L 328.051998 240.246457 
L 328.051998 240.246457 
" clip-path="url(#pb566343667)" style="fill: none; stroke: #a9678f; stroke-width: 1.5; stroke-linecap: round"/>
   </g>
   <g id="line2d_16">
    <path d="M 66.392952 298.814309 
L 67.707822 194.488601 
L 69.022691 144.267908 
L 70.337561 144.267908 
L 71.652431 152.03655 
L 72.9673 146.857455 
L 74.28217 143.689392 
L 75.597039 144.653585 
L 76.911909 139.915264 
L 78.226778 143.083328 
L 80.856518 143.083328 
L 82.171387 144.515843 
L 83.486257 147.683907 
L 84.801126 139.915264 
L 86.115996 141.210038 
L 87.430865 152.55997 
L 88.745735 142.064038 
L 90.060605 139.915264 
L 91.375474 146.389133 
L 92.690344 141.210038 
L 94.005213 141.210038 
L 95.320083 139.915264 
L 96.634953 145.094359 
L 97.949822 139.915264 
L 99.264692 145.562682 
L 100.579561 145.562682 
L 101.894431 147.270681 
L 103.2093 147.215584 
L 104.52417 146.829907 
L 105.83904 139.915264 
L 107.153909 142.807844 
L 108.468779 139.915264 
L 112.413387 139.915264 
L 113.728257 141.210038 
L 116.357996 145.094359 
L 117.672866 139.915264 
L 118.987735 139.915264 
L 120.302605 146.912552 
L 121.617474 147.491068 
L 122.932344 142.807844 
L 124.247214 142.807844 
L 125.562083 139.915264 
L 126.876953 143.937327 
L 128.191822 143.413908 
L 129.506692 139.915264 
L 130.821561 139.915264 
L 132.136431 145.094359 
L 133.451301 139.915264 
L 134.76617 139.915264 
L 136.08104 147.435971 
L 137.395909 145.094359 
L 138.710779 139.915264 
L 140.025648 144.515843 
L 141.340518 139.915264 
L 142.655388 140.245845 
L 143.970257 140.245845 
L 145.285127 144.846424 
L 146.599996 140.245845 
L 147.914866 143.413908 
L 149.229736 140.245845 
L 154.489214 140.245845 
L 155.804083 143.138424 
L 157.118953 139.915264 
L 158.433823 139.915264 
L 159.748692 144.873972 
L 161.063562 139.915264 
L 167.63791 139.915264 
L 168.952779 142.311973 
L 170.267649 143.606747 
L 171.582518 148.923584 
L 172.897388 147.46352 
L 174.212257 144.708682 
L 175.527127 142.311973 
L 176.841997 145.066811 
L 178.156866 142.670102 
L 180.786605 142.670102 
L 182.101475 139.915264 
L 183.416344 139.915264 
L 184.731214 152.587518 
L 186.046084 144.102618 
L 187.360953 154.846485 
L 188.675823 143.937327 
L 189.990692 144.929069 
L 191.305562 142.807844 
L 192.620431 146.278939 
L 193.935301 139.915264 
L 195.250171 139.915264 
L 196.56504 147.408423 
L 197.87991 155.755581 
L 199.194779 143.083328 
L 200.509649 143.083328 
L 201.824519 146.389133 
L 203.139388 142.504812 
L 204.454258 143.799585 
L 208.398866 143.799585 
L 209.713736 142.504812 
L 211.028606 142.504812 
L 213.658345 139.915264 
L 214.973214 139.915264 
L 216.288084 143.083328 
L 217.602953 139.915264 
L 218.917823 146.44423 
L 220.232693 143.055779 
L 221.547562 157.436033 
L 222.862432 148.372616 
L 224.177301 144.350553 
L 225.492171 149.336809 
L 226.80704 148.758293 
L 228.12191 145.369843 
L 229.43678 147.931842 
L 233.381388 139.915264 
L 236.011127 139.915264 
L 237.325997 148.345068 
L 238.640867 145.094359 
L 239.955736 139.970361 
L 241.270606 139.970361 
L 242.585475 147.243133 
L 243.900345 142.642554 
L 245.215214 142.615005 
L 246.530084 147.7941 
L 247.844954 146.664617 
L 249.159823 147.931842 
L 250.474693 152.201841 
L 251.789562 144.378101 
L 253.104432 148.207326 
L 254.419302 148.97868 
L 255.734171 144.102618 
L 257.049041 145.397391 
L 258.36391 141.210038 
L 259.67878 141.210038 
L 260.993649 150.411196 
L 262.308519 142.504812 
L 263.623389 151.70597 
L 264.938258 150.411196 
L 266.253128 145.893262 
L 267.567997 145.893262 
L 268.882867 144.102618 
L 270.197736 141.898747 
L 271.512606 144.929069 
L 272.827476 139.915264 
L 280.716693 139.915264 
L 282.031563 144.901521 
L 283.346432 145.039262 
L 284.661302 139.915264 
L 285.976171 139.915264 
L 287.291041 143.579198 
L 288.60591 139.915264 
L 289.92078 144.130166 
L 291.23565 140.603974 
L 292.550519 144.653585 
L 293.865389 140.603974 
L 295.180258 144.515843 
L 296.495128 160.493903 
L 297.809997 142.670102 
L 300.439737 142.670102 
L 301.754606 145.42494 
L 303.069476 147.849197 
L 304.384345 145.094359 
L 305.699215 139.915264 
L 308.328954 139.915264 
L 310.958693 142.504812 
L 312.273563 141.210038 
L 314.903302 141.210038 
L 316.218172 139.915264 
L 318.847911 139.915264 
L 320.16278 142.807844 
L 321.47765 142.311973 
L 322.792519 146.912552 
L 324.107389 143.083328 
L 325.422259 146.251391 
L 326.737128 143.083328 
L 328.051998 143.083328 
L 328.051998 143.083328 
" clip-path="url(#pb566343667)" style="fill: none; stroke: #6c3f70; stroke-width: 1.5; stroke-linecap: round"/>
   </g>
   <g id="line2d_17">
    <path d="M 66.392952 303.690372 
L 67.707822 297.60218 
L 69.022691 292.312892 
L 70.337561 289.97128 
L 71.652431 282.423024 
L 72.9673 280.081412 
L 74.28217 275.480833 
L 75.597039 276.0318 
L 76.911909 276.197091 
L 78.226778 275.122704 
L 79.541648 273.607543 
L 80.856518 274.433994 
L 82.171387 273.579995 
L 83.486257 267.767287 
L 84.801126 263.63503 
L 86.115996 260.136386 
L 87.430865 261.76174 
L 88.745735 262.891224 
L 90.060605 264.736965 
L 91.375474 269.199803 
L 92.690344 264.32374 
L 94.005213 263.717675 
L 95.320083 264.984901 
L 96.634953 264.709417 
L 97.949822 265.866449 
L 99.264692 262.340256 
L 100.579561 259.475225 
L 101.894431 259.695612 
L 103.2093 261.376063 
L 104.52417 262.395353 
L 105.83904 264.48903 
L 107.153909 267.133674 
L 108.468779 260.797547 
L 109.783648 261.26587 
L 111.098518 262.257611 
L 112.413387 263.827869 
L 113.728257 265.067546 
L 115.043127 262.340256 
L 116.357996 264.406385 
L 117.672866 262.643289 
L 118.987735 261.183225 
L 120.302605 260.163935 
L 121.617474 260.41187 
L 122.932344 261.706644 
L 124.247214 262.643289 
L 125.562083 260.329225 
L 126.876953 261.238321 
L 128.191822 259.254838 
L 129.506692 259.254838 
L 130.821561 258.318193 
L 132.136431 258.676322 
L 133.451301 260.687354 
L 134.76617 261.927031 
L 136.08104 258.455935 
L 137.395909 258.37329 
L 138.710779 259.199741 
L 140.025648 259.695612 
L 141.340518 257.794774 
L 142.655388 262.009676 
L 143.970257 256.224516 
L 145.285127 257.904968 
L 146.599996 258.731419 
L 147.914866 260.301676 
L 149.229736 258.152903 
L 150.544605 256.555097 
L 151.859475 257.078516 
L 153.174344 254.241033 
L 154.489214 255.756194 
L 157.118953 257.629484 
L 158.433823 254.488969 
L 159.748692 252.698324 
L 161.063562 255.921484 
L 162.378431 254.075743 
L 163.693301 256.16942 
L 165.00817 253.414582 
L 166.32304 254.075743 
L 167.63791 253.552324 
L 168.952779 259.337483 
L 170.267649 257.657032 
L 172.897388 249.860841 
L 174.212257 252.808518 
L 175.527127 254.544065 
L 176.841997 252.973808 
L 178.156866 257.050968 
L 179.471736 251.816776 
L 180.786605 253.827808 
L 182.101475 251.926969 
L 183.416344 252.973808 
L 184.731214 254.268582 
L 186.046084 253.194195 
L 187.360953 257.436645 
L 188.675823 252.753421 
L 189.990692 251.40355 
L 191.305562 253.827808 
L 192.620431 251.734131 
L 193.935301 249.144583 
L 195.250171 251.458647 
L 196.56504 252.42284 
L 197.87991 252.780969 
L 199.194779 254.792001 
L 201.824519 250.439357 
L 203.139388 250.962776 
L 204.454258 254.268582 
L 205.769127 250.38426 
L 207.083997 253.27684 
L 208.398866 252.312647 
L 209.713736 254.929743 
L 211.028606 255.535807 
L 212.343475 253.028905 
L 213.658345 253.304388 
L 214.973214 252.312647 
L 216.288084 253.166647 
L 217.602953 256.141871 
L 218.917823 258.015161 
L 220.232693 250.439357 
L 221.547562 253.827808 
L 222.862432 253.800259 
L 225.492171 251.541292 
L 226.80704 255.838839 
L 228.12191 256.307162 
L 229.43678 251.265808 
L 230.751649 251.40355 
L 232.066519 254.351227 
L 233.381388 252.643227 
L 234.696258 253.745162 
L 236.011127 249.943486 
L 237.325997 249.337422 
L 238.640867 251.155615 
L 239.955736 249.971035 
L 241.270606 251.128067 
L 242.585475 250.687292 
L 243.900345 253.056453 
L 245.215214 254.103291 
L 246.530084 252.25755 
L 247.844954 255.425614 
L 249.159823 249.778196 
L 250.474693 251.210712 
L 251.789562 251.210712 
L 253.104432 253.524775 
L 254.419302 250.411809 
L 255.734171 249.612906 
L 257.049041 251.128067 
L 258.36391 254.213485 
L 259.67878 254.792001 
L 260.993649 251.183163 
L 262.308519 253.056453 
L 263.623389 249.943486 
L 264.938258 252.230002 
L 266.253128 251.706582 
L 267.567997 252.836066 
L 268.882867 256.16942 
L 270.197736 252.174905 
L 271.512606 255.701097 
L 272.827476 252.147357 
L 274.142345 256.252065 
L 275.457215 251.926969 
L 276.772084 254.323678 
L 278.086954 250.852583 
L 279.401823 249.447615 
L 280.716693 249.144583 
L 282.031563 249.502712 
L 283.346432 253.249292 
L 284.661302 253.800259 
L 285.976171 248.34568 
L 287.291041 250.935228 
L 288.60591 252.670776 
L 289.92078 253.194195 
L 291.23565 256.665291 
L 292.550519 256.444904 
L 293.865389 254.048195 
L 295.180258 253.497227 
L 296.495128 252.009615 
L 297.809997 252.946259 
L 299.124867 253.634969 
L 300.439737 254.075743 
L 301.754606 250.852583 
L 303.069476 250.742389 
L 304.384345 252.174905 
L 305.699215 251.982066 
L 307.014085 254.351227 
L 308.328954 251.40355 
L 309.643824 256.417355 
L 310.958693 254.241033 
L 312.273563 251.128067 
L 313.588432 254.571614 
L 314.903302 249.668002 
L 316.218172 252.119808 
L 317.533041 250.38426 
L 318.847911 250.108777 
L 320.16278 250.549551 
L 321.47765 249.668002 
L 322.792519 254.351227 
L 324.107389 251.376002 
L 325.422259 254.654259 
L 326.737128 250.108777 
L 328.051998 253.993098 
L 328.051998 253.993098 
" clip-path="url(#pb566343667)" style="fill: none; stroke: #2d1e3e; stroke-width: 1.5; stroke-linecap: round"/>
   </g>
   <g id="line2d_18"/>
   <g id="line2d_19"/>
   <g id="line2d_20"/>
   <g id="line2d_21"/>
   <g id="line2d_22"/>
   <g id="patch_3">
    <path d="M 53.31 319.138125 
L 53.31 22.318125 
" style="fill: none; stroke: #ffffff; stroke-width: 1.25; stroke-linejoin: miter; stroke-linecap: square"/>
   </g>
   <g id="patch_4">
    <path d="M 53.31 319.138125 
L 341.13495 319.138125 
" style="fill: none; stroke: #ffffff; stroke-width: 1.25; stroke-linejoin: miter; stroke-linecap: square"/>
   </g>
   <g id="text_15">
    <!-- Stamp For Symmetry -->
    <g style="fill: #262626" transform="translate(133.434975 16.318125)scale(0.12 -0.12)">
     <defs>
      <path id="DejaVuSans-53" d="M 3425 4513 
L 3425 3897 
Q 3066 4069 2747 4153 
Q 2428 4238 2131 4238 
Q 1616 4238 1336 4038 
Q 1056 3838 1056 3469 
Q 1056 3159 1242 3001 
Q 1428 2844 1947 2747 
L 2328 2669 
Q 3034 2534 3370 2195 
Q 3706 1856 3706 1288 
Q 3706 609 3251 259 
Q 2797 -91 1919 -91 
Q 1588 -91 1214 -16 
Q 841 59 441 206 
L 441 856 
Q 825 641 1194 531 
Q 1563 422 1919 422 
Q 2459 422 2753 634 
Q 3047 847 3047 1241 
Q 3047 1584 2836 1778 
Q 2625 1972 2144 2069 
L 1759 2144 
Q 1053 2284 737 2584 
Q 422 2884 422 3419 
Q 422 4038 858 4394 
Q 1294 4750 2059 4750 
Q 2388 4750 2728 4690 
Q 3069 4631 3425 4513 
z
" transform="scale(0.015625)"/>
      <path id="DejaVuSans-6d" d="M 3328 2828 
Q 3544 3216 3844 3400 
Q 4144 3584 4550 3584 
Q 5097 3584 5394 3201 
Q 5691 2819 5691 2113 
L 5691 0 
L 5113 0 
L 5113 2094 
Q 5113 2597 4934 2840 
Q 4756 3084 4391 3084 
Q 3944 3084 3684 2787 
Q 3425 2491 3425 1978 
L 3425 0 
L 2847 0 
L 2847 2094 
Q 2847 2600 2669 2842 
Q 2491 3084 2119 3084 
Q 1678 3084 1418 2786 
Q 1159 2488 1159 1978 
L 1159 0 
L 581 0 
L 581 3500 
L 1159 3500 
L 1159 2956 
Q 1356 3278 1631 3431 
Q 1906 3584 2284 3584 
Q 2666 3584 2933 3390 
Q 3200 3197 3328 2828 
z
" transform="scale(0.015625)"/>
      <path id="DejaVuSans-70" d="M 1159 525 
L 1159 -1331 
L 581 -1331 
L 581 3500 
L 1159 3500 
L 1159 2969 
Q 1341 3281 1617 3432 
Q 1894 3584 2278 3584 
Q 2916 3584 3314 3078 
Q 3713 2572 3713 1747 
Q 3713 922 3314 415 
Q 2916 -91 2278 -91 
Q 1894 -91 1617 61 
Q 1341 213 1159 525 
z
M 3116 1747 
Q 3116 2381 2855 2742 
Q 2594 3103 2138 3103 
Q 1681 3103 1420 2742 
Q 1159 2381 1159 1747 
Q 1159 1113 1420 752 
Q 1681 391 2138 391 
Q 2594 391 2855 752 
Q 3116 1113 3116 1747 
z
" transform="scale(0.015625)"/>
      <path id="DejaVuSans-20" transform="scale(0.015625)"/>
      <path id="DejaVuSans-79" d="M 2059 -325 
Q 1816 -950 1584 -1140 
Q 1353 -1331 966 -1331 
L 506 -1331 
L 506 -850 
L 844 -850 
Q 1081 -850 1212 -737 
Q 1344 -625 1503 -206 
L 1606 56 
L 191 3500 
L 800 3500 
L 1894 763 
L 2988 3500 
L 3597 3500 
L 2059 -325 
z
" transform="scale(0.015625)"/>
     </defs>
     <use xlink:href="#DejaVuSans-53"/>
     <use xlink:href="#DejaVuSans-74" x="63.476562"/>
     <use xlink:href="#DejaVuSans-61" x="102.685547"/>
     <use xlink:href="#DejaVuSans-6d" x="163.964844"/>
     <use xlink:href="#DejaVuSans-70" x="261.376953"/>
     <use xlink:href="#DejaVuSans-20" x="324.853516"/>
     <use xlink:href="#DejaVuSans-46" x="356.640625"/>
     <use xlink:href="#DejaVuSans-6f" x="410.535156"/>
     <use xlink:href="#DejaVuSans-72" x="471.716797"/>
     <use xlink:href="#DejaVuSans-20" x="512.830078"/>
     <use xlink:href="#DejaVuSans-53" x="544.617188"/>
     <use xlink:href="#DejaVuSans-79" x="608.09375"/>
     <use xlink:href="#DejaVuSans-6d" x="667.273438"/>
     <use xlink:href="#DejaVuSans-6d" x="764.685547"/>
     <use xlink:href="#DejaVuSans-65" x="862.097656"/>
     <use xlink:href="#DejaVuSans-74" x="923.621094"/>
     <use xlink:href="#DejaVuSans-72" x="962.830078"/>
     <use xlink:href="#DejaVuSans-79" x="1003.943359"/>
    </g>
   </g>
  </g>
  <g id="legend_1">
   <g id="text_16">
    <!-- Trial -->
    <g style="fill: #262626" transform="translate(352.4649 143.995312)scale(0.12 -0.12)">
     <defs>
      <path id="DejaVuSans-54" d="M -19 4666 
L 3928 4666 
L 3928 4134 
L 2272 4134 
L 2272 0 
L 1638 0 
L 1638 4134 
L -19 4134 
L -19 4666 
z
" transform="scale(0.015625)"/>
      <path id="DejaVuSans-6c" d="M 603 4863 
L 1178 4863 
L 1178 0 
L 603 0 
L 603 4863 
z
" transform="scale(0.015625)"/>
     </defs>
     <use xlink:href="#DejaVuSans-54"/>
     <use xlink:href="#DejaVuSans-72" x="46.333984"/>
     <use xlink:href="#DejaVuSans-69" x="87.447266"/>
     <use xlink:href="#DejaVuSans-61" x="115.230469"/>
     <use xlink:href="#DejaVuSans-6c" x="176.509766"/>
    </g>
   </g>
   <g id="line2d_23">
    <path d="M 345.8224 156.499219 
L 356.8224 156.499219 
L 367.8224 156.499219 
" style="fill: none; stroke: #edd1cb; stroke-width: 1.5; stroke-linecap: round"/>
   </g>
   <g id="text_17">
    <!-- 0 -->
    <g style="fill: #262626" transform="translate(376.6224 160.349219)scale(0.11 -0.11)">
     <use xlink:href="#DejaVuSans-30"/>
    </g>
   </g>
   <g id="line2d_24">
    <path d="M 345.8224 172.645156 
L 356.8224 172.645156 
L 367.8224 172.645156 
" style="fill: none; stroke: #d499a7; stroke-width: 1.5; stroke-linecap: round"/>
   </g>
   <g id="text_18">
    <!-- 1 -->
    <g style="fill: #262626" transform="translate(376.6224 176.495156)scale(0.11 -0.11)">
     <use xlink:href="#DejaVuSans-31"/>
    </g>
   </g>
   <g id="line2d_25">
    <path d="M 345.8224 188.791094 
L 356.8224 188.791094 
L 367.8224 188.791094 
" style="fill: none; stroke: #a9678f; stroke-width: 1.5; stroke-linecap: round"/>
   </g>
   <g id="text_19">
    <!-- 2 -->
    <g style="fill: #262626" transform="translate(376.6224 192.641094)scale(0.11 -0.11)">
     <use xlink:href="#DejaVuSans-32"/>
    </g>
   </g>
   <g id="line2d_26">
    <path d="M 345.8224 204.937031 
L 356.8224 204.937031 
L 367.8224 204.937031 
" style="fill: none; stroke: #6c3f70; stroke-width: 1.5; stroke-linecap: round"/>
   </g>
   <g id="text_20">
    <!-- 3 -->
    <g style="fill: #262626" transform="translate(376.6224 208.787031)scale(0.11 -0.11)">
     <use xlink:href="#DejaVuSans-33"/>
    </g>
   </g>
   <g id="line2d_27">
    <path d="M 345.8224 221.082969 
L 356.8224 221.082969 
L 367.8224 221.082969 
" style="fill: none; stroke: #2d1e3e; stroke-width: 1.5; stroke-linecap: round"/>
   </g>
   <g id="text_21">
    <!-- 4 -->
    <g style="fill: #262626" transform="translate(376.6224 224.932969)scale(0.11 -0.11)">
     <defs>
      <path id="DejaVuSans-34" d="M 2419 4116 
L 825 1625 
L 2419 1625 
L 2419 4116 
z
M 2253 4666 
L 3047 4666 
L 3047 1625 
L 3713 1625 
L 3713 1100 
L 3047 1100 
L 3047 0 
L 2419 0 
L 2419 1100 
L 313 1100 
L 313 1709 
L 2253 4666 
z
" transform="scale(0.015625)"/>
     </defs>
     <use xlink:href="#DejaVuSans-34"/>
    </g>
   </g>
  </g>
 </g>
 <defs>
  <clipPath id="pb566343667">
   <rect x="53.31" y="22.318125" width="287.82495" height="296.82"/>
  </clipPath>
 </defs>
</svg>
