<?xml version="1.0" encoding="utf-8" standalone="no"?>
<!DOCTYPE svg PUBLIC "-//W3C//DTD SVG 1.1//EN"
  "http://www.w3.org/Graphics/SVG/1.1/DTD/svg11.dtd">
<svg xmlns:xlink="http://www.w3.org/1999/xlink" width="391.86378pt" height="362.097812pt" viewBox="0 0 391.86378 362.097812" xmlns="http://www.w3.org/2000/svg" version="1.1">
 <metadata>
  <rdf:RDF xmlns:dc="http://purl.org/dc/elements/1.1/" xmlns:cc="http://creativecommons.org/ns#" xmlns:rdf="http://www.w3.org/1999/02/22-rdf-syntax-ns#">
   <cc:Work>
    <dc:type rdf:resource="http://purl.org/dc/dcmitype/StillImage"/>
    <dc:date>2022-11-20T08:18:51.784356</dc:date>
    <dc:format>image/svg+xml</dc:format>
    <dc:creator>
     <cc:Agent>
      <dc:title>Matplotlib v3.5.2, https://matplotlib.org/</dc:title>
     </cc:Agent>
    </dc:creator>
   </cc:Work>
  </rdf:RDF>
 </metadata>
 <defs>
  <style type="text/css">*{stroke-linejoin: round; stroke-linecap: butt}</style>
 </defs>
 <g id="figure_1">
  <g id="patch_1">
   <path d="M 0 362.097812 
L 391.86378 362.097812 
L 391.86378 0 
L 0 0 
z
" style="fill: #ffffff"/>
  </g>
  <g id="axes_1">
   <g id="patch_2">
    <path d="M 67.3075 319.138125 
L 339.47758 319.138125 
L 339.47758 22.318125 
L 67.3075 22.318125 
z
" style="fill: #eaeaf2"/>
   </g>
   <g id="matplotlib.axis_1">
    <g id="xtick_1">
     <g id="line2d_1">
      <path d="M 79.678867 319.138125 
L 79.678867 22.318125 
" clip-path="url(#p78d4863256)" style="fill: none; stroke: #ffffff; stroke-linecap: round"/>
     </g>
     <g id="text_1">
      <!-- 0 -->
      <g style="fill: #262626" transform="translate(76.179492 336.996406)scale(0.11 -0.11)">
       <defs>
        <path id="DejaVuSans-30" d="M 2034 4250 
Q 1547 4250 1301 3770 
Q 1056 3291 1056 2328 
Q 1056 1369 1301 889 
Q 1547 409 2034 409 
Q 2525 409 2770 889 
Q 3016 1369 3016 2328 
Q 3016 3291 2770 3770 
Q 2525 4250 2034 4250 
z
M 2034 4750 
Q 2819 4750 3233 4129 
Q 3647 3509 3647 2328 
Q 3647 1150 3233 529 
Q 2819 -91 2034 -91 
Q 1250 -91 836 529 
Q 422 1150 422 2328 
Q 422 3509 836 4129 
Q 1250 4750 2034 4750 
z
" transform="scale(0.015625)"/>
       </defs>
       <use xlink:href="#DejaVuSans-30"/>
      </g>
     </g>
    </g>
    <g id="xtick_2">
     <g id="line2d_2">
      <path d="M 141.846542 319.138125 
L 141.846542 22.318125 
" clip-path="url(#p78d4863256)" style="fill: none; stroke: #ffffff; stroke-linecap: round"/>
     </g>
     <g id="text_2">
      <!-- 50 -->
      <g style="fill: #262626" transform="translate(134.847792 336.996406)scale(0.11 -0.11)">
       <defs>
        <path id="DejaVuSans-35" d="M 691 4666 
L 3169 4666 
L 3169 4134 
L 1269 4134 
L 1269 2991 
Q 1406 3038 1543 3061 
Q 1681 3084 1819 3084 
Q 2600 3084 3056 2656 
Q 3513 2228 3513 1497 
Q 3513 744 3044 326 
Q 2575 -91 1722 -91 
Q 1428 -91 1123 -41 
Q 819 9 494 109 
L 494 744 
Q 775 591 1075 516 
Q 1375 441 1709 441 
Q 2250 441 2565 725 
Q 2881 1009 2881 1497 
Q 2881 1984 2565 2268 
Q 2250 2553 1709 2553 
Q 1456 2553 1204 2497 
Q 953 2441 691 2322 
L 691 4666 
z
" transform="scale(0.015625)"/>
       </defs>
       <use xlink:href="#DejaVuSans-35"/>
       <use xlink:href="#DejaVuSans-30" x="63.623047"/>
      </g>
     </g>
    </g>
    <g id="xtick_3">
     <g id="line2d_3">
      <path d="M 204.014217 319.138125 
L 204.014217 22.318125 
" clip-path="url(#p78d4863256)" style="fill: none; stroke: #ffffff; stroke-linecap: round"/>
     </g>
     <g id="text_3">
      <!-- 100 -->
      <g style="fill: #262626" transform="translate(193.516092 336.996406)scale(0.11 -0.11)">
       <defs>
        <path id="DejaVuSans-31" d="M 794 531 
L 1825 531 
L 1825 4091 
L 703 3866 
L 703 4441 
L 1819 4666 
L 2450 4666 
L 2450 531 
L 3481 531 
L 3481 0 
L 794 0 
L 794 531 
z
" transform="scale(0.015625)"/>
       </defs>
       <use xlink:href="#DejaVuSans-31"/>
       <use xlink:href="#DejaVuSans-30" x="63.623047"/>
       <use xlink:href="#DejaVuSans-30" x="127.246094"/>
      </g>
     </g>
    </g>
    <g id="xtick_4">
     <g id="line2d_4">
      <path d="M 266.181891 319.138125 
L 266.181891 22.318125 
" clip-path="url(#p78d4863256)" style="fill: none; stroke: #ffffff; stroke-linecap: round"/>
     </g>
     <g id="text_4">
      <!-- 150 -->
      <g style="fill: #262626" transform="translate(255.683766 336.996406)scale(0.11 -0.11)">
       <use xlink:href="#DejaVuSans-31"/>
       <use xlink:href="#DejaVuSans-35" x="63.623047"/>
       <use xlink:href="#DejaVuSans-30" x="127.246094"/>
      </g>
     </g>
    </g>
    <g id="xtick_5">
     <g id="line2d_5">
      <path d="M 328.349566 319.138125 
L 328.349566 22.318125 
" clip-path="url(#p78d4863256)" style="fill: none; stroke: #ffffff; stroke-linecap: round"/>
     </g>
     <g id="text_5">
      <!-- 200 -->
      <g style="fill: #262626" transform="translate(317.851441 336.996406)scale(0.11 -0.11)">
       <defs>
        <path id="DejaVuSans-32" d="M 1228 531 
L 3431 531 
L 3431 0 
L 469 0 
L 469 531 
Q 828 903 1448 1529 
Q 2069 2156 2228 2338 
Q 2531 2678 2651 2914 
Q 2772 3150 2772 3378 
Q 2772 3750 2511 3984 
Q 2250 4219 1831 4219 
Q 1534 4219 1204 4116 
Q 875 4013 500 3803 
L 500 4441 
Q 881 4594 1212 4672 
Q 1544 4750 1819 4750 
Q 2544 4750 2975 4387 
Q 3406 4025 3406 3419 
Q 3406 3131 3298 2873 
Q 3191 2616 2906 2266 
Q 2828 2175 2409 1742 
Q 1991 1309 1228 531 
z
" transform="scale(0.015625)"/>
       </defs>
       <use xlink:href="#DejaVuSans-32"/>
       <use xlink:href="#DejaVuSans-30" x="63.623047"/>
       <use xlink:href="#DejaVuSans-30" x="127.246094"/>
      </g>
     </g>
    </g>
    <g id="text_6">
     <!-- Generation -->
     <g style="fill: #262626" transform="translate(169.920978 352.402187)scale(0.12 -0.12)">
      <defs>
       <path id="DejaVuSans-47" d="M 3809 666 
L 3809 1919 
L 2778 1919 
L 2778 2438 
L 4434 2438 
L 4434 434 
Q 4069 175 3628 42 
Q 3188 -91 2688 -91 
Q 1594 -91 976 548 
Q 359 1188 359 2328 
Q 359 3472 976 4111 
Q 1594 4750 2688 4750 
Q 3144 4750 3555 4637 
Q 3966 4525 4313 4306 
L 4313 3634 
Q 3963 3931 3569 4081 
Q 3175 4231 2741 4231 
Q 1884 4231 1454 3753 
Q 1025 3275 1025 2328 
Q 1025 1384 1454 906 
Q 1884 428 2741 428 
Q 3075 428 3337 486 
Q 3600 544 3809 666 
z
" transform="scale(0.015625)"/>
       <path id="DejaVuSans-65" d="M 3597 1894 
L 3597 1613 
L 953 1613 
Q 991 1019 1311 708 
Q 1631 397 2203 397 
Q 2534 397 2845 478 
Q 3156 559 3463 722 
L 3463 178 
Q 3153 47 2828 -22 
Q 2503 -91 2169 -91 
Q 1331 -91 842 396 
Q 353 884 353 1716 
Q 353 2575 817 3079 
Q 1281 3584 2069 3584 
Q 2775 3584 3186 3129 
Q 3597 2675 3597 1894 
z
M 3022 2063 
Q 3016 2534 2758 2815 
Q 2500 3097 2075 3097 
Q 1594 3097 1305 2825 
Q 1016 2553 972 2059 
L 3022 2063 
z
" transform="scale(0.015625)"/>
       <path id="DejaVuSans-6e" d="M 3513 2113 
L 3513 0 
L 2938 0 
L 2938 2094 
Q 2938 2591 2744 2837 
Q 2550 3084 2163 3084 
Q 1697 3084 1428 2787 
Q 1159 2491 1159 1978 
L 1159 0 
L 581 0 
L 581 3500 
L 1159 3500 
L 1159 2956 
Q 1366 3272 1645 3428 
Q 1925 3584 2291 3584 
Q 2894 3584 3203 3211 
Q 3513 2838 3513 2113 
z
" transform="scale(0.015625)"/>
       <path id="DejaVuSans-72" d="M 2631 2963 
Q 2534 3019 2420 3045 
Q 2306 3072 2169 3072 
Q 1681 3072 1420 2755 
Q 1159 2438 1159 1844 
L 1159 0 
L 581 0 
L 581 3500 
L 1159 3500 
L 1159 2956 
Q 1341 3275 1631 3429 
Q 1922 3584 2338 3584 
Q 2397 3584 2469 3576 
Q 2541 3569 2628 3553 
L 2631 2963 
z
" transform="scale(0.015625)"/>
       <path id="DejaVuSans-61" d="M 2194 1759 
Q 1497 1759 1228 1600 
Q 959 1441 959 1056 
Q 959 750 1161 570 
Q 1363 391 1709 391 
Q 2188 391 2477 730 
Q 2766 1069 2766 1631 
L 2766 1759 
L 2194 1759 
z
M 3341 1997 
L 3341 0 
L 2766 0 
L 2766 531 
Q 2569 213 2275 61 
Q 1981 -91 1556 -91 
Q 1019 -91 701 211 
Q 384 513 384 1019 
Q 384 1609 779 1909 
Q 1175 2209 1959 2209 
L 2766 2209 
L 2766 2266 
Q 2766 2663 2505 2880 
Q 2244 3097 1772 3097 
Q 1472 3097 1187 3025 
Q 903 2953 641 2809 
L 641 3341 
Q 956 3463 1253 3523 
Q 1550 3584 1831 3584 
Q 2591 3584 2966 3190 
Q 3341 2797 3341 1997 
z
" transform="scale(0.015625)"/>
       <path id="DejaVuSans-74" d="M 1172 4494 
L 1172 3500 
L 2356 3500 
L 2356 3053 
L 1172 3053 
L 1172 1153 
Q 1172 725 1289 603 
Q 1406 481 1766 481 
L 2356 481 
L 2356 0 
L 1766 0 
Q 1100 0 847 248 
Q 594 497 594 1153 
L 594 3053 
L 172 3053 
L 172 3500 
L 594 3500 
L 594 4494 
L 1172 4494 
z
" transform="scale(0.015625)"/>
       <path id="DejaVuSans-69" d="M 603 3500 
L 1178 3500 
L 1178 0 
L 603 0 
L 603 3500 
z
M 603 4863 
L 1178 4863 
L 1178 4134 
L 603 4134 
L 603 4863 
z
" transform="scale(0.015625)"/>
       <path id="DejaVuSans-6f" d="M 1959 3097 
Q 1497 3097 1228 2736 
Q 959 2375 959 1747 
Q 959 1119 1226 758 
Q 1494 397 1959 397 
Q 2419 397 2687 759 
Q 2956 1122 2956 1747 
Q 2956 2369 2687 2733 
Q 2419 3097 1959 3097 
z
M 1959 3584 
Q 2709 3584 3137 3096 
Q 3566 2609 3566 1747 
Q 3566 888 3137 398 
Q 2709 -91 1959 -91 
Q 1206 -91 779 398 
Q 353 888 353 1747 
Q 353 2609 779 3096 
Q 1206 3584 1959 3584 
z
" transform="scale(0.015625)"/>
      </defs>
      <use xlink:href="#DejaVuSans-47"/>
      <use xlink:href="#DejaVuSans-65" x="77.490234"/>
      <use xlink:href="#DejaVuSans-6e" x="139.013672"/>
      <use xlink:href="#DejaVuSans-65" x="202.392578"/>
      <use xlink:href="#DejaVuSans-72" x="263.916016"/>
      <use xlink:href="#DejaVuSans-61" x="305.029297"/>
      <use xlink:href="#DejaVuSans-74" x="366.308594"/>
      <use xlink:href="#DejaVuSans-69" x="405.517578"/>
      <use xlink:href="#DejaVuSans-6f" x="433.300781"/>
      <use xlink:href="#DejaVuSans-6e" x="494.482422"/>
     </g>
    </g>
   </g>
   <g id="matplotlib.axis_2">
    <g id="ytick_1">
     <g id="line2d_6">
      <path d="M 67.3075 305.646307 
L 339.47758 305.646307 
" clip-path="url(#p78d4863256)" style="fill: none; stroke: #ffffff; stroke-linecap: round"/>
     </g>
     <g id="text_7">
      <!-- 0 -->
      <g style="fill: #262626" transform="translate(50.80875 309.825447)scale(0.11 -0.11)">
       <use xlink:href="#DejaVuSans-30"/>
      </g>
     </g>
    </g>
    <g id="ytick_2">
     <g id="line2d_7">
      <path d="M 67.3075 268.78621 
L 339.47758 268.78621 
" clip-path="url(#p78d4863256)" style="fill: none; stroke: #ffffff; stroke-linecap: round"/>
     </g>
     <g id="text_8">
      <!-- 10000 -->
      <g style="fill: #262626" transform="translate(22.81375 272.965351)scale(0.11 -0.11)">
       <use xlink:href="#DejaVuSans-31"/>
       <use xlink:href="#DejaVuSans-30" x="63.623047"/>
       <use xlink:href="#DejaVuSans-30" x="127.246094"/>
       <use xlink:href="#DejaVuSans-30" x="190.869141"/>
       <use xlink:href="#DejaVuSans-30" x="254.492188"/>
      </g>
     </g>
    </g>
    <g id="ytick_3">
     <g id="line2d_8">
      <path d="M 67.3075 231.926114 
L 339.47758 231.926114 
" clip-path="url(#p78d4863256)" style="fill: none; stroke: #ffffff; stroke-linecap: round"/>
     </g>
     <g id="text_9">
      <!-- 20000 -->
      <g style="fill: #262626" transform="translate(22.81375 236.105254)scale(0.11 -0.11)">
       <use xlink:href="#DejaVuSans-32"/>
       <use xlink:href="#DejaVuSans-30" x="63.623047"/>
       <use xlink:href="#DejaVuSans-30" x="127.246094"/>
       <use xlink:href="#DejaVuSans-30" x="190.869141"/>
       <use xlink:href="#DejaVuSans-30" x="254.492188"/>
      </g>
     </g>
    </g>
    <g id="ytick_4">
     <g id="line2d_9">
      <path d="M 67.3075 195.066017 
L 339.47758 195.066017 
" clip-path="url(#p78d4863256)" style="fill: none; stroke: #ffffff; stroke-linecap: round"/>
     </g>
     <g id="text_10">
      <!-- 30000 -->
      <g style="fill: #262626" transform="translate(22.81375 199.245158)scale(0.11 -0.11)">
       <defs>
        <path id="DejaVuSans-33" d="M 2597 2516 
Q 3050 2419 3304 2112 
Q 3559 1806 3559 1356 
Q 3559 666 3084 287 
Q 2609 -91 1734 -91 
Q 1441 -91 1130 -33 
Q 819 25 488 141 
L 488 750 
Q 750 597 1062 519 
Q 1375 441 1716 441 
Q 2309 441 2620 675 
Q 2931 909 2931 1356 
Q 2931 1769 2642 2001 
Q 2353 2234 1838 2234 
L 1294 2234 
L 1294 2753 
L 1863 2753 
Q 2328 2753 2575 2939 
Q 2822 3125 2822 3475 
Q 2822 3834 2567 4026 
Q 2313 4219 1838 4219 
Q 1578 4219 1281 4162 
Q 984 4106 628 3988 
L 628 4550 
Q 988 4650 1302 4700 
Q 1616 4750 1894 4750 
Q 2613 4750 3031 4423 
Q 3450 4097 3450 3541 
Q 3450 3153 3228 2886 
Q 3006 2619 2597 2516 
z
" transform="scale(0.015625)"/>
       </defs>
       <use xlink:href="#DejaVuSans-33"/>
       <use xlink:href="#DejaVuSans-30" x="63.623047"/>
       <use xlink:href="#DejaVuSans-30" x="127.246094"/>
       <use xlink:href="#DejaVuSans-30" x="190.869141"/>
       <use xlink:href="#DejaVuSans-30" x="254.492188"/>
      </g>
     </g>
    </g>
    <g id="ytick_5">
     <g id="line2d_10">
      <path d="M 67.3075 158.205921 
L 339.47758 158.205921 
" clip-path="url(#p78d4863256)" style="fill: none; stroke: #ffffff; stroke-linecap: round"/>
     </g>
     <g id="text_11">
      <!-- 40000 -->
      <g style="fill: #262626" transform="translate(22.81375 162.385061)scale(0.11 -0.11)">
       <defs>
        <path id="DejaVuSans-34" d="M 2419 4116 
L 825 1625 
L 2419 1625 
L 2419 4116 
z
M 2253 4666 
L 3047 4666 
L 3047 1625 
L 3713 1625 
L 3713 1100 
L 3047 1100 
L 3047 0 
L 2419 0 
L 2419 1100 
L 313 1100 
L 313 1709 
L 2253 4666 
z
" transform="scale(0.015625)"/>
       </defs>
       <use xlink:href="#DejaVuSans-34"/>
       <use xlink:href="#DejaVuSans-30" x="63.623047"/>
       <use xlink:href="#DejaVuSans-30" x="127.246094"/>
       <use xlink:href="#DejaVuSans-30" x="190.869141"/>
       <use xlink:href="#DejaVuSans-30" x="254.492188"/>
      </g>
     </g>
    </g>
    <g id="ytick_6">
     <g id="line2d_11">
      <path d="M 67.3075 121.345824 
L 339.47758 121.345824 
" clip-path="url(#p78d4863256)" style="fill: none; stroke: #ffffff; stroke-linecap: round"/>
     </g>
     <g id="text_12">
      <!-- 50000 -->
      <g style="fill: #262626" transform="translate(22.81375 125.524965)scale(0.11 -0.11)">
       <use xlink:href="#DejaVuSans-35"/>
       <use xlink:href="#DejaVuSans-30" x="63.623047"/>
       <use xlink:href="#DejaVuSans-30" x="127.246094"/>
       <use xlink:href="#DejaVuSans-30" x="190.869141"/>
       <use xlink:href="#DejaVuSans-30" x="254.492188"/>
      </g>
     </g>
    </g>
    <g id="ytick_7">
     <g id="line2d_12">
      <path d="M 67.3075 84.485728 
L 339.47758 84.485728 
" clip-path="url(#p78d4863256)" style="fill: none; stroke: #ffffff; stroke-linecap: round"/>
     </g>
     <g id="text_13">
      <!-- 60000 -->
      <g style="fill: #262626" transform="translate(22.81375 88.664869)scale(0.11 -0.11)">
       <defs>
        <path id="DejaVuSans-36" d="M 2113 2584 
Q 1688 2584 1439 2293 
Q 1191 2003 1191 1497 
Q 1191 994 1439 701 
Q 1688 409 2113 409 
Q 2538 409 2786 701 
Q 3034 994 3034 1497 
Q 3034 2003 2786 2293 
Q 2538 2584 2113 2584 
z
M 3366 4563 
L 3366 3988 
Q 3128 4100 2886 4159 
Q 2644 4219 2406 4219 
Q 1781 4219 1451 3797 
Q 1122 3375 1075 2522 
Q 1259 2794 1537 2939 
Q 1816 3084 2150 3084 
Q 2853 3084 3261 2657 
Q 3669 2231 3669 1497 
Q 3669 778 3244 343 
Q 2819 -91 2113 -91 
Q 1303 -91 875 529 
Q 447 1150 447 2328 
Q 447 3434 972 4092 
Q 1497 4750 2381 4750 
Q 2619 4750 2861 4703 
Q 3103 4656 3366 4563 
z
" transform="scale(0.015625)"/>
       </defs>
       <use xlink:href="#DejaVuSans-36"/>
       <use xlink:href="#DejaVuSans-30" x="63.623047"/>
       <use xlink:href="#DejaVuSans-30" x="127.246094"/>
       <use xlink:href="#DejaVuSans-30" x="190.869141"/>
       <use xlink:href="#DejaVuSans-30" x="254.492188"/>
      </g>
     </g>
    </g>
    <g id="ytick_8">
     <g id="line2d_13">
      <path d="M 67.3075 47.625631 
L 339.47758 47.625631 
" clip-path="url(#p78d4863256)" style="fill: none; stroke: #ffffff; stroke-linecap: round"/>
     </g>
     <g id="text_14">
      <!-- 70000 -->
      <g style="fill: #262626" transform="translate(22.81375 51.804772)scale(0.11 -0.11)">
       <defs>
        <path id="DejaVuSans-37" d="M 525 4666 
L 3525 4666 
L 3525 4397 
L 1831 0 
L 1172 0 
L 2766 4134 
L 525 4134 
L 525 4666 
z
" transform="scale(0.015625)"/>
       </defs>
       <use xlink:href="#DejaVuSans-37"/>
       <use xlink:href="#DejaVuSans-30" x="63.623047"/>
       <use xlink:href="#DejaVuSans-30" x="127.246094"/>
       <use xlink:href="#DejaVuSans-30" x="190.869141"/>
       <use xlink:href="#DejaVuSans-30" x="254.492188"/>
      </g>
     </g>
    </g>
    <g id="text_15">
     <!-- Fitness -->
     <g style="fill: #262626" transform="translate(16.318125 191.50875)rotate(-90)scale(0.12 -0.12)">
      <defs>
       <path id="DejaVuSans-46" d="M 628 4666 
L 3309 4666 
L 3309 4134 
L 1259 4134 
L 1259 2759 
L 3109 2759 
L 3109 2228 
L 1259 2228 
L 1259 0 
L 628 0 
L 628 4666 
z
" transform="scale(0.015625)"/>
       <path id="DejaVuSans-73" d="M 2834 3397 
L 2834 2853 
Q 2591 2978 2328 3040 
Q 2066 3103 1784 3103 
Q 1356 3103 1142 2972 
Q 928 2841 928 2578 
Q 928 2378 1081 2264 
Q 1234 2150 1697 2047 
L 1894 2003 
Q 2506 1872 2764 1633 
Q 3022 1394 3022 966 
Q 3022 478 2636 193 
Q 2250 -91 1575 -91 
Q 1294 -91 989 -36 
Q 684 19 347 128 
L 347 722 
Q 666 556 975 473 
Q 1284 391 1588 391 
Q 1994 391 2212 530 
Q 2431 669 2431 922 
Q 2431 1156 2273 1281 
Q 2116 1406 1581 1522 
L 1381 1569 
Q 847 1681 609 1914 
Q 372 2147 372 2553 
Q 372 3047 722 3315 
Q 1072 3584 1716 3584 
Q 2034 3584 2315 3537 
Q 2597 3491 2834 3397 
z
" transform="scale(0.015625)"/>
      </defs>
      <use xlink:href="#DejaVuSans-46"/>
      <use xlink:href="#DejaVuSans-69" x="50.269531"/>
      <use xlink:href="#DejaVuSans-74" x="78.052734"/>
      <use xlink:href="#DejaVuSans-6e" x="117.261719"/>
      <use xlink:href="#DejaVuSans-65" x="180.640625"/>
      <use xlink:href="#DejaVuSans-73" x="242.164062"/>
      <use xlink:href="#DejaVuSans-73" x="294.263672"/>
     </g>
    </g>
   </g>
   <g id="PolyCollection_1">
    <defs>
     <path id="mf92bc6ee1b" d="M 79.678867 -56.464637 
L 79.678867 -56.453694 
L 80.922221 -56.47903 
L 82.165574 -56.553899 
L 83.408928 -56.613569 
L 84.652281 -56.693846 
L 85.895635 -56.729105 
L 87.138988 -56.748448 
L 88.382342 -56.790964 
L 89.625695 -56.767797 
L 90.869049 -56.810082 
L 92.112402 -56.800032 
L 93.355756 -56.790141 
L 94.599109 -62.636615 
L 95.842463 -70.504452 
L 97.085816 -67.251494 
L 98.32917 -71.352004 
L 99.572523 -72.869839 
L 100.815877 -73.608205 
L 102.05923 -70.206939 
L 103.302584 -70.694293 
L 104.545937 -71.015727 
L 105.789291 -73.670723 
L 107.032644 -71.840731 
L 108.275998 -73.691606 
L 109.519351 -74.098738 
L 110.762705 -73.075703 
L 112.006058 -72.601267 
L 113.249412 -72.664848 
L 114.492765 -72.429747 
L 115.736119 -76.205062 
L 116.979472 -71.170537 
L 118.222826 -71.785686 
L 119.466179 -72.317234 
L 120.709533 -71.094922 
L 121.952886 -69.84078 
L 123.19624 -71.670596 
L 124.439593 -71.118463 
L 125.682947 -72.370621 
L 126.9263 -71.81162 
L 128.169654 -72.037199 
L 129.413007 -68.600858 
L 130.656361 -69.524161 
L 131.899714 -70.48538 
L 133.143068 -71.730307 
L 134.386421 -71.662383 
L 135.629775 -70.975291 
L 136.873128 -68.3821 
L 138.116482 -70.928787 
L 139.359835 -74.528849 
L 140.603189 -73.272573 
L 141.846542 -67.916194 
L 143.089896 -71.748351 
L 144.333249 -73.201197 
L 145.576602 -73.18897 
L 146.819956 -70.89652 
L 148.063309 -70.92022 
L 149.306663 -72.075127 
L 150.550016 -67.918785 
L 151.79337 -72.115051 
L 153.036723 -71.712766 
L 154.280077 -74.59992 
L 155.52343 -70.364899 
L 156.766784 -73.404875 
L 158.010137 -71.025043 
L 159.253491 -71.399306 
L 160.496844 -69.282117 
L 161.740198 -68.857082 
L 162.983551 -70.131123 
L 164.226905 -70.884661 
L 165.470258 -71.153391 
L 166.713612 -71.188256 
L 167.956965 -72.164032 
L 169.200319 -75.4255 
L 170.443672 -71.20759 
L 171.687026 -68.780482 
L 172.930379 -67.728342 
L 174.173733 -72.344784 
L 175.417086 -69.785018 
L 176.66044 -70.254679 
L 177.903793 -72.328883 
L 179.147147 -71.325295 
L 180.3905 -71.530024 
L 181.633854 -67.470135 
L 182.877207 -73.705003 
L 184.120561 -68.58733 
L 185.363914 -70.288357 
L 186.607268 -71.388452 
L 187.850621 -72.439501 
L 189.093975 -70.552019 
L 190.337328 -67.260597 
L 191.580682 -71.386529 
L 192.824035 -70.918978 
L 194.067389 -72.61384 
L 195.310742 -70.92189 
L 196.554096 -70.259548 
L 197.797449 -70.958206 
L 199.040803 -72.557349 
L 200.284156 -70.998697 
L 201.52751 -71.731173 
L 202.770863 -72.205404 
L 204.014217 -71.341001 
L 205.25757 -69.555636 
L 206.500924 -71.645425 
L 207.744277 -67.111322 
L 208.987631 -68.49054 
L 210.230984 -69.822943 
L 211.474338 -72.537698 
L 212.717691 -71.343123 
L 213.961045 -71.564125 
L 215.204398 -72.593132 
L 216.447752 -72.374146 
L 217.691105 -73.526629 
L 218.934459 -70.938082 
L 220.177812 -72.552989 
L 221.421166 -73.667618 
L 222.664519 -70.517172 
L 223.907873 -69.528293 
L 225.151226 -68.101825 
L 226.39458 -68.734465 
L 227.637933 -69.177342 
L 228.881287 -69.660267 
L 230.12464 -69.025625 
L 231.367994 -71.7663 
L 232.611347 -71.093157 
L 233.854701 -73.197407 
L 235.098054 -70.293059 
L 236.341408 -74.101761 
L 237.584761 -68.934117 
L 238.828115 -71.707476 
L 240.071468 -69.343696 
L 241.314822 -70.964443 
L 242.558175 -71.625422 
L 243.801529 -70.447777 
L 245.044882 -68.997603 
L 246.288236 -69.586696 
L 247.531589 -72.840599 
L 248.774943 -71.014558 
L 250.018296 -72.177103 
L 251.26165 -69.254261 
L 252.505003 -70.489751 
L 253.748357 -71.639573 
L 254.99171 -73.189523 
L 256.235064 -73.693924 
L 257.478417 -73.46185 
L 258.721771 -71.857238 
L 259.965124 -70.794365 
L 261.208478 -71.357596 
L 262.451831 -71.262728 
L 263.695184 -70.311527 
L 264.938538 -68.675215 
L 266.181891 -70.898579 
L 267.425245 -70.771308 
L 268.668598 -73.182332 
L 269.911952 -67.586374 
L 271.155305 -70.648566 
L 272.398659 -69.880894 
L 273.642012 -69.93439 
L 274.885366 -69.411484 
L 276.128719 -72.253377 
L 277.372073 -72.350302 
L 278.615426 -72.416595 
L 279.85878 -65.174162 
L 281.102133 -70.362601 
L 282.345487 -70.116292 
L 283.58884 -68.424699 
L 284.832194 -68.076835 
L 286.075547 -72.076469 
L 287.318901 -68.540258 
L 288.562254 -69.827136 
L 289.805608 -70.287407 
L 291.048961 -70.673257 
L 292.292315 -69.636198 
L 293.535668 -72.486883 
L 294.779022 -72.583456 
L 296.022375 -72.102343 
L 297.265729 -72.945362 
L 298.509082 -72.098481 
L 299.752436 -69.955885 
L 300.995789 -70.748546 
L 302.239143 -71.673006 
L 303.482496 -69.348332 
L 304.72585 -70.813774 
L 305.969203 -70.744693 
L 307.212557 -70.873255 
L 308.45591 -69.059896 
L 309.699264 -71.884834 
L 310.942617 -73.286091 
L 312.185971 -69.943902 
L 313.429324 -69.175732 
L 314.672678 -72.285636 
L 315.916031 -70.603551 
L 317.159385 -70.845561 
L 318.402738 -72.060299 
L 319.646092 -72.970678 
L 320.889445 -72.605555 
L 322.132799 -70.904275 
L 323.376152 -70.440578 
L 324.619506 -70.567797 
L 325.862859 -70.008799 
L 327.106213 -69.637762 
L 327.106213 -74.486477 
L 327.106213 -74.486477 
L 325.862859 -75.00799 
L 324.619506 -75.527395 
L 323.376152 -75.188126 
L 322.132799 -75.04671 
L 320.889445 -76.135532 
L 319.646092 -76.110032 
L 318.402738 -75.932801 
L 317.159385 -75.156251 
L 315.916031 -75.369798 
L 314.672678 -76.021496 
L 313.429324 -74.534614 
L 312.185971 -75.10446 
L 310.942617 -76.173385 
L 309.699264 -76.135373 
L 308.45591 -74.465568 
L 307.212557 -75.557885 
L 305.969203 -75.505685 
L 304.72585 -75.448906 
L 303.482496 -74.534044 
L 302.239143 -75.546821 
L 300.995789 -75.144093 
L 299.752436 -74.929386 
L 298.509082 -75.888295 
L 297.265729 -76.230561 
L 296.022375 -76.154538 
L 294.779022 -76.16705 
L 293.535668 -76.116367 
L 292.292315 -74.888033 
L 291.048961 -75.431576 
L 289.805608 -75.287231 
L 288.562254 -74.893896 
L 287.318901 -74.426412 
L 286.075547 -76.154379 
L 284.832194 -73.858041 
L 283.58884 -74.354483 
L 282.345487 -74.9549 
L 281.102133 -74.92606 
L 279.85878 -71.45144 
L 278.615426 -75.88196 
L 277.372073 -76.021337 
L 276.128719 -75.856935 
L 274.885366 -74.79745 
L 273.642012 -74.937014 
L 272.398659 -74.966753 
L 271.155305 -75.592781 
L 269.911952 -73.806786 
L 268.668598 -76.287421 
L 267.425245 -75.245559 
L 266.181891 -75.66767 
L 264.938538 -74.153247 
L 263.695184 -75.708671 
L 262.451831 -75.678688 
L 261.208478 -75.688534 
L 259.965124 -75.656653 
L 258.721771 -75.829406 
L 257.478417 -76.376116 
L 256.235064 -76.35711 
L 254.99171 -76.350933 
L 253.748357 -75.81158 
L 252.505003 -75.236332 
L 251.26165 -74.567929 
L 250.018296 -75.843948 
L 248.774943 -75.726687 
L 247.531589 -76.281244 
L 246.288236 -75.081664 
L 245.044882 -75.03645 
L 243.801529 -75.506808 
L 242.558175 -75.638467 
L 241.314822 -75.297808 
L 240.071468 -74.614606 
L 238.828115 -75.873044 
L 237.584761 -74.452986 
L 236.341408 -76.426798 
L 235.098054 -75.446809 
L 233.854701 -76.439469 
L 232.611347 -75.748918 
L 231.367994 -75.704939 
L 230.12464 -74.551259 
L 228.881287 -74.603856 
L 227.637933 -74.707983 
L 226.39458 -74.258103 
L 225.151226 -73.665905 
L 223.907873 -74.484144 
L 222.664519 -75.186974 
L 221.421166 -76.35711 
L 220.177812 -76.293915 
L 218.934459 -75.636305 
L 217.691105 -76.344439 
L 216.447752 -76.262238 
L 215.204398 -76.281086 
L 213.961045 -75.732798 
L 212.717691 -75.710906 
L 211.474338 -76.306585 
L 210.230984 -75.132491 
L 208.987631 -73.985736 
L 207.744277 -73.228387 
L 206.500924 -75.796375 
L 205.25757 -74.598581 
L 204.014217 -75.72021 
L 202.770863 -76.350774 
L 201.52751 -75.804361 
L 200.284156 -75.711712 
L 199.040803 -76.363603 
L 197.797449 -75.650055 
L 196.554096 -75.175977 
L 195.310742 -75.709446 
L 194.067389 -76.325591 
L 192.824035 -75.709656 
L 191.580682 -75.793657 
L 190.337328 -73.317364 
L 189.093975 -75.229006 
L 187.850621 -76.255744 
L 186.607268 -75.6919 
L 185.363914 -75.239281 
L 184.120561 -74.224802 
L 182.877207 -76.502981 
L 181.633854 -73.423288 
L 180.3905 -75.846831 
L 179.147147 -75.802256 
L 177.903793 -76.382609 
L 176.66044 -75.21999 
L 175.417086 -75.010489 
L 174.173733 -76.116684 
L 172.930379 -73.571728 
L 171.687026 -74.625293 
L 170.443672 -75.476686 
L 169.200319 -76.376274 
L 167.956965 -75.837659 
L 166.713612 -75.566389 
L 165.470258 -75.706572 
L 164.226905 -75.406626 
L 162.983551 -74.996782 
L 161.740198 -74.4215 
L 160.496844 -74.709184 
L 159.253491 -75.731015 
L 158.010137 -75.761606 
L 156.766784 -76.433134 
L 155.52343 -75.268602 
L 154.280077 -76.426798 
L 153.036723 -75.885577 
L 151.79337 -76.36978 
L 150.550016 -73.811785 
L 149.306663 -76.312921 
L 148.063309 -75.705273 
L 146.819956 -75.601895 
L 145.576602 -76.338104 
L 144.333249 -76.36978 
L 143.089896 -75.846021 
L 141.846542 -73.941374 
L 140.603189 -76.439469 
L 139.359835 -76.534499 
L 138.116482 -75.836058 
L 136.873128 -74.181932 
L 135.629775 -75.894763 
L 134.386421 -76.040962 
L 133.143068 -76.003149 
L 131.899714 -75.485023 
L 130.656361 -74.919802 
L 129.413007 -74.44285 
L 128.169654 -76.189857 
L 126.9263 -76.104984 
L 125.682947 -76.642199 
L 124.439593 -76.046477 
L 123.19624 -76.061857 
L 121.952886 -75.430078 
L 120.709533 -76.006783 
L 119.466179 -76.604187 
L 118.222826 -76.13569 
L 116.979472 -76.098723 
L 115.736119 -76.7499 
L 114.492765 -76.388945 
L 113.249412 -76.4599 
L 112.006058 -76.743565 
L 110.762705 -76.762571 
L 109.519351 -76.813253 
L 108.275998 -76.787912 
L 107.032644 -76.182678 
L 105.789291 -76.787912 
L 104.545937 -75.903961 
L 103.302584 -75.693294 
L 102.05923 -75.366377 
L 100.815877 -76.712046 
L 99.572523 -76.718223 
L 98.32917 -76.284887 
L 97.085816 -73.793291 
L 95.842463 -75.630445 
L 94.599109 -69.832763 
L 93.355756 -58.726352 
L 92.112402 -56.880471 
L 90.869049 -56.892001 
L 89.625695 -56.869064 
L 88.382342 -56.872059 
L 87.138988 -56.843265 
L 85.895635 -56.837275 
L 84.652281 -56.803203 
L 83.408928 -56.728553 
L 82.165574 -56.645963 
L 80.922221 -56.53447 
L 79.678867 -56.464637 
z
" style="stroke: #edd1cb; stroke-opacity: 0.2"/>
    </defs>
    <g clip-path="url(#p78d4863256)">
     <use xlink:href="#mf92bc6ee1b" x="0" y="362.097812" style="fill: #edd1cb; fill-opacity: 0.2; stroke: #edd1cb; stroke-opacity: 0.2"/>
    </g>
   </g>
   <g id="PolyCollection_2">
    <defs>
     <path id="m3fb986cef5" d="M 79.678867 -56.497817 
L 79.678867 -56.452888 
L 80.922221 -56.808311 
L 82.165574 -56.997381 
L 83.408928 -57.45903 
L 84.652281 -57.881231 
L 85.895635 -58.131511 
L 87.138988 -58.193574 
L 88.382342 -58.36163 
L 89.625695 -58.337821 
L 90.869049 -58.271053 
L 92.112402 -58.634199 
L 93.355756 -58.492288 
L 94.599109 -58.244856 
L 95.842463 -58.431996 
L 97.085816 -58.260634 
L 98.32917 -58.283444 
L 99.572523 -58.177002 
L 100.815877 -58.439647 
L 102.05923 -58.287121 
L 103.302584 -58.36851 
L 104.545937 -58.406243 
L 105.789291 -58.725774 
L 107.032644 -58.222311 
L 108.275998 -58.143439 
L 109.519351 -58.506226 
L 110.762705 -58.474088 
L 112.006058 -58.471082 
L 113.249412 -58.472928 
L 114.492765 -58.455163 
L 115.736119 -58.220989 
L 116.979472 -58.387677 
L 118.222826 -58.492582 
L 119.466179 -58.430651 
L 120.709533 -58.530208 
L 121.952886 -58.323924 
L 123.19624 -58.497523 
L 124.439593 -58.394021 
L 125.682947 -58.686034 
L 126.9263 -58.691448 
L 128.169654 -58.434873 
L 129.413007 -58.549522 
L 130.656361 -58.494387 
L 131.899714 -58.632477 
L 133.143068 -58.663503 
L 134.386421 -59.033665 
L 135.629775 -59.256219 
L 136.873128 -59.554305 
L 138.116482 -60.378488 
L 139.359835 -60.35924 
L 140.603189 -60.740135 
L 141.846542 -61.287205 
L 143.089896 -60.528117 
L 144.333249 -61.139304 
L 145.576602 -60.89512 
L 146.819956 -60.748595 
L 148.063309 -60.517451 
L 149.306663 -60.531098 
L 150.550016 -60.812631 
L 151.79337 -60.355151 
L 153.036723 -60.371162 
L 154.280077 -60.841031 
L 155.52343 -60.007618 
L 156.766784 -60.574319 
L 158.010137 -60.430542 
L 159.253491 -60.26775 
L 160.496844 -61.105591 
L 161.740198 -60.99908 
L 162.983551 -60.596472 
L 164.226905 -60.87176 
L 165.470258 -61.177316 
L 166.713612 -61.163608 
L 167.956965 -61.596484 
L 169.200319 -60.9856 
L 170.443672 -61.360853 
L 171.687026 -60.873686 
L 172.930379 -60.880333 
L 174.173733 -60.92309 
L 175.417086 -60.706071 
L 176.66044 -60.554109 
L 177.903793 -60.199803 
L 179.147147 -61.153477 
L 180.3905 -59.653142 
L 181.633854 -60.644604 
L 182.877207 -61.703632 
L 184.120561 -61.110789 
L 185.363914 -60.608389 
L 186.607268 -61.1771 
L 187.850621 -60.745128 
L 189.093975 -60.209338 
L 190.337328 -60.909369 
L 191.580682 -60.544304 
L 192.824035 -60.678172 
L 194.067389 -61.387988 
L 195.310742 -60.512653 
L 196.554096 -60.891322 
L 197.797449 -61.021291 
L 199.040803 -60.522974 
L 200.284156 -60.51693 
L 201.52751 -60.052881 
L 202.770863 -61.644287 
L 204.014217 -61.379009 
L 205.25757 -60.918863 
L 206.500924 -60.871918 
L 207.744277 -60.806624 
L 208.987631 -61.275024 
L 210.230984 -71.89946 
L 211.474338 -139.843843 
L 212.717691 -148.437328 
L 213.961045 -153.746123 
L 215.204398 -149.86502 
L 216.447752 -153.546483 
L 217.691105 -150.906424 
L 218.934459 -155.336202 
L 220.177812 -147.601571 
L 221.421166 -147.006718 
L 222.664519 -160.214635 
L 223.907873 -138.855171 
L 225.151226 -159.517173 
L 226.39458 -160.194593 
L 227.637933 -171.455007 
L 228.881287 -133.144344 
L 230.12464 -143.036448 
L 231.367994 -143.800374 
L 232.611347 -147.214195 
L 233.854701 -153.601819 
L 235.098054 -143.748079 
L 236.341408 -143.845873 
L 237.584761 -153.844865 
L 238.828115 -155.316381 
L 240.071468 -138.479256 
L 241.314822 -153.478338 
L 242.558175 -147.101311 
L 243.801529 -154.243562 
L 245.044882 -160.222583 
L 246.288236 -170.736235 
L 247.531589 -160.046231 
L 248.774943 -139.469114 
L 250.018296 -153.671283 
L 251.26165 -146.703003 
L 252.505003 -153.676921 
L 253.748357 -139.403814 
L 254.99171 -153.55367 
L 256.235064 -148.751719 
L 257.478417 -140.563481 
L 258.721771 -147.875488 
L 259.965124 -147.359864 
L 261.208478 -153.679801 
L 262.451831 -160.673428 
L 263.695184 -160.693817 
L 264.938538 -153.58074 
L 266.181891 -160.673428 
L 267.425245 -135.91701 
L 268.668598 -143.253808 
L 269.911952 -171.455007 
L 271.155305 -154.375996 
L 272.398659 -150.006405 
L 273.642012 -150.076842 
L 274.885366 -139.459061 
L 276.128719 -143.425138 
L 277.372073 -144.16469 
L 278.615426 -146.329207 
L 279.85878 -161.602303 
L 281.102133 -150.082947 
L 282.345487 -140.183791 
L 283.58884 -136.297452 
L 284.832194 -146.584428 
L 286.075547 -147.058461 
L 287.318901 -139.25125 
L 288.562254 -160.693817 
L 289.805608 -148.744925 
L 291.048961 -148.271947 
L 292.292315 -160.782281 
L 293.535668 -144.131763 
L 294.779022 -146.544213 
L 296.022375 -149.958198 
L 297.265729 -149.971675 
L 298.509082 -146.472935 
L 299.752436 -160.747034 
L 300.995789 -150.048621 
L 302.239143 -147.046608 
L 303.482496 -149.986535 
L 304.72585 -143.869602 
L 305.969203 -139.858952 
L 307.212557 -160.706603 
L 308.45591 -132.071526 
L 309.699264 -132.252658 
L 310.942617 -160.673428 
L 312.185971 -153.457143 
L 313.429324 -153.44885 
L 314.672678 -143.319062 
L 315.916031 -139.390023 
L 317.159385 -147.999084 
L 318.402738 -135.828189 
L 319.646092 -160.847592 
L 320.889445 -143.452132 
L 322.132799 -139.307684 
L 323.376152 -161.218728 
L 324.619506 -153.611264 
L 325.862859 -146.431597 
L 327.106213 -150.396142 
L 327.106213 -171.455007 
L 327.106213 -171.455007 
L 325.862859 -171.455007 
L 324.619506 -171.455007 
L 323.376152 -171.455007 
L 322.132799 -167.861147 
L 320.889445 -168.040725 
L 319.646092 -171.455007 
L 318.402738 -167.889023 
L 317.159385 -171.455007 
L 315.916031 -167.885682 
L 314.672678 -167.898353 
L 313.429324 -171.455007 
L 312.185971 -171.455007 
L 310.942617 -171.455007 
L 309.699264 -164.305847 
L 308.45591 -164.304612 
L 307.212557 -171.455007 
L 305.969203 -167.861147 
L 304.72585 -168.170772 
L 303.482496 -171.455007 
L 302.239143 -171.455007 
L 300.995789 -171.455007 
L 299.752436 -171.455007 
L 298.509082 -171.455007 
L 297.265729 -171.455007 
L 296.022375 -171.455007 
L 294.779022 -171.455007 
L 293.535668 -168.210742 
L 292.292315 -171.455007 
L 291.048961 -171.455007 
L 289.805608 -171.455007 
L 288.562254 -171.455007 
L 287.318901 -165.18879 
L 286.075547 -171.455007 
L 284.832194 -171.455007 
L 283.58884 -164.47329 
L 282.345487 -167.896164 
L 281.102133 -171.455007 
L 279.85878 -171.455007 
L 278.615426 -171.455007 
L 277.372073 -168.313259 
L 276.128719 -168.040725 
L 274.885366 -164.531529 
L 273.642012 -171.455007 
L 272.398659 -171.455007 
L 271.155305 -171.455007 
L 269.911952 -171.455007 
L 268.668598 -168.038076 
L 267.425245 -164.356904 
L 266.181891 -171.455007 
L 264.938538 -171.455007 
L 263.695184 -171.455007 
L 262.451831 -171.455007 
L 261.208478 -171.455007 
L 259.965124 -171.455007 
L 258.721771 -171.215416 
L 257.478417 -167.864142 
L 256.235064 -171.455007 
L 254.99171 -171.455007 
L 253.748357 -167.885838 
L 252.505003 -171.455007 
L 251.26165 -171.215416 
L 250.018296 -171.215416 
L 248.774943 -167.41364 
L 247.531589 -171.455007 
L 246.288236 -171.455007 
L 245.044882 -171.455007 
L 243.801529 -171.455007 
L 242.558175 -170.975825 
L 241.314822 -171.215416 
L 240.071468 -167.175665 
L 238.828115 -171.455007 
L 237.584761 -171.455007 
L 236.341408 -167.931636 
L 235.098054 -168.321899 
L 233.854701 -171.455007 
L 232.611347 -171.455007 
L 231.367994 -167.940627 
L 230.12464 -168.170772 
L 228.881287 -164.373958 
L 227.637933 -171.455007 
L 226.39458 -171.455007 
L 225.151226 -171.455007 
L 223.907873 -167.632615 
L 222.664519 -171.455007 
L 221.421166 -171.215416 
L 220.177812 -171.455007 
L 218.934459 -171.455007 
L 217.691105 -171.455007 
L 216.447752 -171.455007 
L 215.204398 -171.455007 
L 213.961045 -171.455007 
L 212.717691 -171.455007 
L 211.474338 -167.894437 
L 210.230984 -106.23832 
L 208.987631 -72.12911 
L 207.744277 -62.023284 
L 206.500924 -61.962153 
L 205.25757 -62.083844 
L 204.014217 -62.159292 
L 202.770863 -62.159292 
L 201.52751 -61.539365 
L 200.284156 -61.716858 
L 199.040803 -61.906832 
L 197.797449 -62.067948 
L 196.554096 -61.939243 
L 195.310742 -61.777689 
L 194.067389 -62.019837 
L 192.824035 -61.753986 
L 191.580682 -61.634447 
L 190.337328 -61.785959 
L 189.093975 -61.52048 
L 187.850621 -61.810526 
L 186.607268 -61.912101 
L 185.363914 -61.794621 
L 184.120561 -61.950957 
L 182.877207 -61.918474 
L 181.633854 -61.680021 
L 180.3905 -61.196814 
L 179.147147 -61.820835 
L 177.903793 -61.455416 
L 176.66044 -61.560108 
L 175.417086 -61.697651 
L 174.173733 -61.721541 
L 172.930379 -61.686063 
L 171.687026 -61.673087 
L 170.443672 -61.804974 
L 169.200319 -61.760166 
L 167.956965 -61.781015 
L 166.713612 -61.739317 
L 165.470258 -61.703839 
L 164.226905 -61.655921 
L 162.983551 -61.509471 
L 161.740198 -61.602704 
L 160.496844 -61.68299 
L 159.253491 -61.45918 
L 158.010137 -61.500702 
L 156.766784 -61.477103 
L 155.52343 -61.252219 
L 154.280077 -61.575713 
L 153.036723 -61.426355 
L 151.79337 -61.390491 
L 150.550016 -61.537047 
L 149.306663 -61.426545 
L 148.063309 -61.429577 
L 146.819956 -61.495571 
L 145.576602 -61.530827 
L 144.333249 -61.530827 
L 143.089896 -61.399974 
L 141.846542 -61.530827 
L 140.603189 -61.44962 
L 139.359835 -61.308515 
L 138.116482 -61.287205 
L 136.873128 -60.816248 
L 135.629775 -60.343016 
L 134.386421 -59.97942 
L 133.143068 -59.593149 
L 131.899714 -59.311852 
L 130.656361 -59.043047 
L 129.413007 -58.880586 
L 128.169654 -58.867685 
L 126.9263 -58.893487 
L 125.682947 -58.880747 
L 124.439593 -58.816939 
L 123.19624 -58.835432 
L 121.952886 -58.760808 
L 120.709533 -58.804908 
L 119.466179 -58.80963 
L 118.222826 -58.790279 
L 116.979472 -58.80963 
L 115.736119 -58.693812 
L 114.492765 -58.770927 
L 113.249412 -58.777378 
L 112.006058 -58.770927 
L 110.762705 -58.764477 
L 109.519351 -58.745125 
L 108.275998 -58.639527 
L 107.032644 -58.664839 
L 105.789291 -58.725774 
L 104.545937 -58.725774 
L 103.302584 -58.725774 
L 102.05923 -58.687992 
L 100.815877 -58.725774 
L 99.572523 -58.629131 
L 98.32917 -58.65021 
L 97.085816 -58.665876 
L 95.842463 -58.698705 
L 94.599109 -58.667604 
L 93.355756 -58.725774 
L 92.112402 -58.725774 
L 90.869049 -58.670063 
L 89.625695 -58.695249 
L 88.382342 -58.725774 
L 87.138988 -58.669447 
L 85.895635 -58.619455 
L 84.652281 -58.453202 
L 83.408928 -58.057984 
L 82.165574 -57.437349 
L 80.922221 -57.064483 
L 79.678867 -56.497817 
z
" style="stroke: #d499a7; stroke-opacity: 0.2"/>
    </defs>
    <g clip-path="url(#p78d4863256)">
     <use xlink:href="#m3fb986cef5" x="0" y="362.097812" style="fill: #d499a7; fill-opacity: 0.2; stroke: #d499a7; stroke-opacity: 0.2"/>
    </g>
   </g>
   <g id="PolyCollection_3">
    <defs>
     <path id="m061086eee1" d="M 79.678867 -56.522807 
L 79.678867 -56.451506 
L 80.922221 -56.872025 
L 82.165574 -57.046641 
L 83.408928 -57.062911 
L 84.652281 -57.008773 
L 85.895635 -57.004957 
L 87.138988 -57.000243 
L 88.382342 -57.112672 
L 89.625695 -57.004378 
L 90.869049 -57.035237 
L 92.112402 -56.932527 
L 93.355756 -57.06188 
L 94.599109 -57.166105 
L 95.842463 -57.161143 
L 97.085816 -57.027992 
L 98.32917 -57.115097 
L 99.572523 -57.163985 
L 100.815877 -57.215541 
L 102.05923 -57.273126 
L 103.302584 -57.39659 
L 104.545937 -57.467566 
L 105.789291 -57.330495 
L 107.032644 -57.401782 
L 108.275998 -57.343402 
L 109.519351 -57.676162 
L 110.762705 -59.316359 
L 112.006058 -60.073174 
L 113.249412 -60.372887 
L 114.492765 -60.969612 
L 115.736119 -61.236249 
L 116.979472 -60.748777 
L 118.222826 -60.974695 
L 119.466179 -61.709935 
L 120.709533 -61.716731 
L 121.952886 -63.894774 
L 123.19624 -71.225767 
L 124.439593 -83.965984 
L 125.682947 -86.131031 
L 126.9263 -86.969633 
L 128.169654 -106.698538 
L 129.413007 -105.514419 
L 130.656361 -121.792379 
L 131.899714 -148.799902 
L 133.143068 -144.831002 
L 134.386421 -148.401335 
L 135.629775 -151.701759 
L 136.873128 -144.737415 
L 138.116482 -162.220928 
L 139.359835 -163.716667 
L 140.603189 -152.127323 
L 141.846542 -141.940647 
L 143.089896 -135.127579 
L 144.333249 -143.393444 
L 145.576602 -157.221498 
L 146.819956 -148.513219 
L 148.063309 -148.82913 
L 149.306663 -152.018937 
L 150.550016 -164.042067 
L 151.79337 -136.309158 
L 153.036723 -170.172938 
L 154.280077 -151.901224 
L 155.52343 -152.431632 
L 156.766784 -146.82471 
L 158.010137 -148.674546 
L 159.253491 -142.331035 
L 160.496844 -143.219364 
L 161.740198 -153.173597 
L 162.983551 -149.485946 
L 164.226905 -164.588293 
L 165.470258 -149.368356 
L 166.713612 -156.576262 
L 167.956965 -163.428761 
L 169.200319 -156.780058 
L 170.443672 -147.401795 
L 171.687026 -157.426978 
L 172.930379 -153.75338 
L 174.173733 -142.741426 
L 175.417086 -163.268103 
L 176.66044 -166.564406 
L 177.903793 -160.221069 
L 179.147147 -158.691467 
L 180.3905 -185.933906 
L 181.633854 -156.462453 
L 182.877207 -168.956151 
L 184.120561 -172.386732 
L 185.363914 -181.600175 
L 186.607268 -197.42344 
L 187.850621 -199.278977 
L 189.093975 -185.769815 
L 190.337328 -181.0765 
L 191.580682 -193.647521 
L 192.824035 -187.55935 
L 194.067389 -227.199642 
L 195.310742 -237.993194 
L 196.554096 -216.706019 
L 197.797449 -239.646842 
L 199.040803 -212.535806 
L 200.284156 -241.010913 
L 201.52751 -235.22549 
L 202.770863 -288.945896 
L 204.014217 -270.854932 
L 205.25757 -235.428806 
L 206.500924 -252.418479 
L 207.744277 -235.502488 
L 208.987631 -214.301598 
L 210.230984 -255.082341 
L 211.474338 -247.06172 
L 212.717691 -237.144712 
L 213.961045 -281.04915 
L 215.204398 -222.316494 
L 216.447752 -303.503676 
L 217.691105 -257.502811 
L 218.934459 -261.21989 
L 220.177812 -281.166993 
L 221.421166 -260.76015 
L 222.664519 -291.338001 
L 223.907873 -238.702768 
L 225.151226 -248.580531 
L 226.39458 -261.040039 
L 227.637933 -232.649934 
L 228.881287 -256.761137 
L 230.12464 -249.358872 
L 231.367994 -258.947598 
L 232.611347 -269.276174 
L 233.854701 -264.534854 
L 235.098054 -274.887156 
L 236.341408 -225.968748 
L 237.584761 -243.615905 
L 238.828115 -265.007527 
L 240.071468 -219.562708 
L 241.314822 -248.805602 
L 242.558175 -254.188121 
L 243.801529 -274.512441 
L 245.044882 -196.2625 
L 246.288236 -241.249346 
L 247.531589 -291.109722 
L 248.774943 -228.743789 
L 250.018296 -231.59353 
L 251.26165 -239.181757 
L 252.505003 -273.352368 
L 253.748357 -279.347982 
L 254.99171 -263.212694 
L 256.235064 -209.197819 
L 257.478417 -219.897432 
L 258.721771 -276.174676 
L 259.965124 -271.095657 
L 261.208478 -249.341113 
L 262.451831 -232.976083 
L 263.695184 -261.003058 
L 264.938538 -259.927641 
L 266.181891 -252.292614 
L 267.425245 -219.386128 
L 268.668598 -258.701358 
L 269.911952 -239.833587 
L 271.155305 -222.848345 
L 272.398659 -238.544186 
L 273.642012 -228.262267 
L 274.885366 -275.310736 
L 276.128719 -176.861412 
L 277.372073 -243.30916 
L 278.615426 -225.8053 
L 279.85878 -280.804376 
L 281.102133 -242.130426 
L 282.345487 -252.38576 
L 283.58884 -243.671512 
L 284.832194 -278.876207 
L 286.075547 -237.137778 
L 287.318901 -213.981352 
L 288.562254 -269.842713 
L 289.805608 -257.95596 
L 291.048961 -203.991302 
L 292.292315 -262.109281 
L 293.535668 -200.198452 
L 294.779022 -235.972365 
L 296.022375 -259.174722 
L 297.265729 -277.50557 
L 298.509082 -240.944787 
L 299.752436 -206.589668 
L 300.995789 -225.02722 
L 302.239143 -250.970906 
L 303.482496 -241.192423 
L 304.72585 -275.526365 
L 305.969203 -208.269633 
L 307.212557 -203.812202 
L 308.45591 -240.076089 
L 309.699264 -272.416735 
L 310.942617 -232.298065 
L 312.185971 -243.174192 
L 313.429324 -280.682487 
L 314.672678 -280.036958 
L 315.916031 -219.668497 
L 317.159385 -247.793387 
L 318.402738 -245.523637 
L 319.646092 -254.93165 
L 320.889445 -236.464448 
L 322.132799 -283.699748 
L 323.376152 -278.961115 
L 324.619506 -265.342127 
L 325.862859 -229.817 
L 327.106213 -253.579068 
L 327.106213 -312.353929 
L 327.106213 -312.353929 
L 325.862859 -297.662837 
L 324.619506 -316.496031 
L 323.376152 -321.318944 
L 322.132799 -321.625574 
L 320.889445 -300.696898 
L 319.646092 -309.738677 
L 318.402738 -307.329478 
L 317.159385 -312.741709 
L 315.916031 -292.170916 
L 314.672678 -321.906863 
L 313.429324 -322.332597 
L 312.185971 -306.783338 
L 310.942617 -305.265998 
L 309.699264 -322.190685 
L 308.45591 -307.03244 
L 307.212557 -285.276045 
L 305.969203 -286.119856 
L 304.72585 -320.269767 
L 303.482496 -306.042058 
L 302.239143 -311.389989 
L 300.995789 -298.865098 
L 299.752436 -287.247777 
L 298.509082 -305.005567 
L 297.265729 -325.902174 
L 296.022375 -318.215897 
L 294.779022 -303.173004 
L 293.535668 -279.920877 
L 292.292315 -318.716875 
L 291.048961 -286.515419 
L 289.805608 -313.942409 
L 288.562254 -320.68707 
L 287.318901 -294.633412 
L 286.075547 -302.427643 
L 284.832194 -324.305165 
L 283.58884 -315.231876 
L 282.345487 -314.119511 
L 281.102133 -307.510887 
L 279.85878 -322.798877 
L 278.615426 -299.840301 
L 277.372073 -309.610766 
L 276.128719 -267.740614 
L 274.885366 -325.029926 
L 273.642012 -302.306935 
L 272.398659 -308.592791 
L 271.155305 -295.426705 
L 269.911952 -308.204536 
L 268.668598 -316.169347 
L 267.425245 -293.193095 
L 266.181891 -311.452141 
L 264.938538 -312.2999 
L 263.695184 -313.03424 
L 262.451831 -301.312245 
L 261.208478 -313.763134 
L 259.965124 -321.03913 
L 258.721771 -325.881395 
L 257.478417 -294.344495 
L 256.235064 -291.662304 
L 254.99171 -318.504788 
L 253.748357 -323.814557 
L 252.505003 -320.644013 
L 251.26165 -308.024535 
L 250.018296 -299.30422 
L 248.774943 -300.454419 
L 247.531589 -326.287869 
L 246.288236 -306.132049 
L 245.044882 -278.294765 
L 243.801529 -322.078999 
L 242.558175 -315.905924 
L 241.314822 -308.314022 
L 240.071468 -288.363484 
L 238.828115 -310.834666 
L 237.584761 -306.65359 
L 236.341408 -299.06807 
L 235.098054 -323.227145 
L 233.854701 -316.08513 
L 232.611347 -319.021638 
L 231.367994 -311.861127 
L 230.12464 -306.825416 
L 228.881287 -311.59413 
L 227.637933 -302.938706 
L 226.39458 -314.514587 
L 225.151226 -310.299114 
L 223.907873 -306.433501 
L 222.664519 -324.623452 
L 221.421166 -315.943818 
L 220.177812 -320.334088 
L 218.934459 -316.569636 
L 217.691105 -317.255838 
L 216.447752 -325.639638 
L 215.204398 -300.194829 
L 213.961045 -324.765363 
L 212.717691 -303.077994 
L 211.474338 -308.37906 
L 210.230984 -305.5644 
L 208.987631 -287.060951 
L 207.744277 -299.381646 
L 206.500924 -308.707956 
L 205.25757 -297.569261 
L 204.014217 -311.655805 
L 202.770863 -316.476195 
L 201.52751 -295.825632 
L 200.284156 -295.563217 
L 199.040803 -276.830291 
L 197.797449 -283.883957 
L 196.554096 -272.036491 
L 195.310742 -276.51514 
L 194.067389 -270.4623 
L 192.824035 -243.350279 
L 191.580682 -239.252577 
L 190.337328 -229.485366 
L 189.093975 -228.844579 
L 187.850621 -226.311556 
L 186.607268 -222.206729 
L 185.363914 -213.261311 
L 184.120561 -209.872108 
L 182.877207 -206.276109 
L 181.633854 -197.180561 
L 180.3905 -210.894233 
L 179.147147 -197.819974 
L 177.903793 -195.256121 
L 176.66044 -196.91122 
L 175.417086 -192.207725 
L 174.173733 -177.430046 
L 172.930379 -182.134932 
L 171.687026 -182.989948 
L 170.443672 -178.629228 
L 169.200319 -182.670618 
L 167.956965 -182.727291 
L 166.713612 -181.83045 
L 165.470258 -178.093588 
L 164.226905 -182.38702 
L 162.983551 -177.699205 
L 161.740198 -178.62274 
L 160.496844 -174.503302 
L 159.253491 -173.877447 
L 158.010137 -177.994898 
L 156.766784 -178.059449 
L 155.52343 -178.822473 
L 154.280077 -178.759883 
L 153.036723 -182.481474 
L 151.79337 -171.570468 
L 150.550016 -182.830954 
L 149.306663 -179.25824 
L 148.063309 -177.462007 
L 146.819956 -179.655661 
L 145.576602 -180.354537 
L 144.333249 -175.21558 
L 143.089896 -172.190959 
L 141.846542 -175.470713 
L 140.603189 -179.827444 
L 139.359835 -183.757312 
L 138.116482 -183.417041 
L 136.873128 -175.647008 
L 135.629775 -177.3844 
L 134.386421 -177.54638 
L 133.143068 -174.008775 
L 131.899714 -174.879716 
L 130.656361 -157.58529 
L 129.413007 -142.421155 
L 128.169654 -132.876331 
L 126.9263 -110.955217 
L 125.682947 -110.054146 
L 124.439593 -99.70257 
L 123.19624 -82.97479 
L 121.952886 -71.608772 
L 120.709533 -65.029423 
L 119.466179 -63.010063 
L 118.222826 -62.724319 
L 116.979472 -62.219284 
L 115.736119 -62.224767 
L 114.492765 -62.154439 
L 113.249412 -61.815565 
L 112.006058 -61.607248 
L 110.762705 -60.950632 
L 109.519351 -59.115005 
L 108.275998 -58.16309 
L 107.032644 -58.070272 
L 105.789291 -57.736958 
L 104.545937 -57.775155 
L 103.302584 -57.644405 
L 102.05923 -57.559762 
L 100.815877 -57.491784 
L 99.572523 -57.446391 
L 98.32917 -57.3858 
L 97.085816 -57.291487 
L 95.842463 -57.343756 
L 94.599109 -57.323823 
L 93.355756 -57.242281 
L 92.112402 -57.154981 
L 90.869049 -57.213248 
L 89.625695 -57.165587 
L 88.382342 -57.207714 
L 87.138988 -57.169373 
L 85.895635 -57.173511 
L 84.652281 -57.181232 
L 83.408928 -57.207143 
L 82.165574 -57.180092 
L 80.922221 -57.083556 
L 79.678867 -56.522807 
z
" style="stroke: #a9678f; stroke-opacity: 0.2"/>
    </defs>
    <g clip-path="url(#p78d4863256)">
     <use xlink:href="#m061086eee1" x="0" y="362.097812" style="fill: #a9678f; fill-opacity: 0.2; stroke: #a9678f; stroke-opacity: 0.2"/>
    </g>
   </g>
   <g id="PolyCollection_4">
    <defs>
     <path id="m8053431ff7" d="M 79.678867 -56.460375 
L 79.678867 -56.452658 
L 80.922221 -56.46671 
L 82.165574 -56.487329 
L 83.408928 -56.501264 
L 84.652281 -56.505298 
L 85.895635 -56.504489 
L 87.138988 -56.507602 
L 88.382342 -56.497808 
L 89.625695 -56.502764 
L 90.869049 -56.501267 
L 92.112402 -56.511634 
L 93.355756 -56.498963 
L 94.599109 -56.507487 
L 95.842463 -56.503683 
L 97.085816 -56.495623 
L 98.32917 -56.501952 
L 99.572523 -56.504147 
L 100.815877 -56.494586 
L 102.05923 -56.500576 
L 103.302584 -56.49378 
L 104.545937 -56.504262 
L 105.789291 -56.501491 
L 107.032644 -56.494122 
L 108.275998 -56.494698 
L 109.519351 -56.505871 
L 110.762705 -56.500691 
L 112.006058 -56.494929 
L 113.249412 -56.505638 
L 114.492765 -56.494929 
L 115.736119 -56.49735 
L 116.979472 -56.501036 
L 118.222826 -56.502761 
L 119.466179 -56.505296 
L 120.709533 -56.496305 
L 121.952886 -56.502528 
L 123.19624 -56.511634 
L 124.439593 -56.510827 
L 125.682947 -56.489863 
L 126.9263 -56.504492 
L 128.169654 -56.500115 
L 129.413007 -56.489518 
L 130.656361 -56.512207 
L 131.899714 -56.50311 
L 133.143068 -56.494356 
L 134.386421 -56.510827 
L 135.629775 -56.497693 
L 136.873128 -56.511861 
L 138.116482 -56.50518 
L 139.359835 -56.504259 
L 140.603189 -56.510827 
L 141.846542 -56.508636 
L 143.089896 -56.504147 
L 144.333249 -56.497575 
L 145.576602 -56.508748 
L 146.819956 -56.500345 
L 148.063309 -56.49712 
L 149.306663 -56.523498 
L 150.550016 -56.50518 
L 151.79337 -56.513013 
L 153.036723 -56.505981 
L 154.280077 -56.520613 
L 155.52343 -56.53098 
L 156.766784 -56.536745 
L 158.010137 -56.536958 
L 159.253491 -56.536051 
L 160.496844 -56.52338 
L 161.740198 -56.517163 
L 162.983551 -56.536629 
L 164.226905 -56.520152 
L 165.470258 -56.551489 
L 166.713612 -56.536511 
L 167.956965 -56.545269 
L 169.200319 -56.535475 
L 170.443672 -56.532362 
L 171.687026 -56.534205 
L 172.930379 -56.519582 
L 174.173733 -56.520843 
L 175.417086 -56.519225 
L 176.66044 -56.530294 
L 177.903793 -56.533865 
L 179.147147 -56.558734 
L 180.3905 -56.556209 
L 181.633854 -56.591796 
L 182.877207 -56.681648 
L 184.120561 -56.663411 
L 185.363914 -56.665409 
L 186.607268 -56.692591 
L 187.850621 -56.721483 
L 189.093975 -56.730133 
L 190.337328 -56.725419 
L 191.580682 -56.741183 
L 192.824035 -56.768373 
L 194.067389 -56.765274 
L 195.310742 -56.711931 
L 196.554096 -56.785432 
L 197.797449 -56.709633 
L 199.040803 -56.85593 
L 200.284156 -56.743962 
L 201.52751 -56.787494 
L 202.770863 -56.776681 
L 204.014217 -56.788773 
L 205.25757 -56.792225 
L 206.500924 -56.76596 
L 207.744277 -56.748215 
L 208.987631 -56.783247 
L 210.230984 -56.80682 
L 211.474338 -56.73348 
L 212.717691 -56.784853 
L 213.961045 -56.787045 
L 215.204398 -56.758349 
L 216.447752 -56.737281 
L 217.691105 -56.767892 
L 218.934459 -56.780364 
L 220.177812 -56.705947 
L 221.421166 -56.753733 
L 222.664519 -56.676747 
L 223.907873 -56.736696 
L 225.151226 -56.801201 
L 226.39458 -56.800726 
L 227.637933 -56.839686 
L 228.881287 -56.734744 
L 230.12464 -56.699148 
L 231.367994 -56.700988 
L 232.611347 -56.778397 
L 233.854701 -56.768848 
L 235.098054 -56.753995 
L 236.341408 -56.773876 
L 237.584761 -56.719179 
L 238.828115 -56.730352 
L 240.071468 -56.761695 
L 241.314822 -56.697881 
L 242.558175 -56.716777 
L 243.801529 -56.729909 
L 245.044882 -56.807065 
L 246.288236 -56.727605 
L 247.531589 -56.723458 
L 248.774943 -56.772393 
L 250.018296 -56.725742 
L 251.26165 -56.765012 
L 252.505003 -56.704101 
L 253.748357 -56.735317 
L 254.99171 -56.717002 
L 256.235064 -56.700651 
L 257.478417 -56.716763 
L 258.721771 -56.712749 
L 259.965124 -56.725768 
L 261.208478 -56.748324 
L 262.451831 -56.826318 
L 263.695184 -56.878392 
L 264.938538 -56.752255 
L 266.181891 -56.773686 
L 267.425245 -56.745413 
L 268.668598 -56.714232 
L 269.911952 -56.709247 
L 271.155305 -56.730021 
L 272.398659 -56.720351 
L 273.642012 -56.703416 
L 274.885366 -56.774138 
L 276.128719 -56.721045 
L 277.372073 -56.820446 
L 278.615426 -56.79004 
L 279.85878 -56.770343 
L 281.102133 -56.811234 
L 282.345487 -56.736109 
L 283.58884 -56.786567 
L 284.832194 -56.82091 
L 286.075547 -56.78566 
L 287.318901 -56.770631 
L 288.562254 -56.722531 
L 289.805608 -56.81099 
L 291.048961 -56.789331 
L 292.292315 -56.783339 
L 293.535668 -56.850626 
L 294.779022 -56.956103 
L 296.022375 -56.868454 
L 297.265729 -56.982254 
L 298.509082 -56.918359 
L 299.752436 -56.931928 
L 300.995789 -57.037342 
L 302.239143 -56.940573 
L 303.482496 -57.047257 
L 304.72585 -56.916121 
L 305.969203 -56.850971 
L 307.212557 -56.971564 
L 308.45591 -57.022028 
L 309.699264 -56.949082 
L 310.942617 -56.902797 
L 312.185971 -56.938618 
L 313.429324 -57.010132 
L 314.672678 -56.985971 
L 315.916031 -57.040884 
L 317.159385 -56.991273 
L 318.402738 -56.982847 
L 319.646092 -57.092295 
L 320.889445 -56.998417 
L 322.132799 -56.991155 
L 323.376152 -57.016559 
L 324.619506 -56.96224 
L 325.862859 -56.942402 
L 327.106213 -56.926753 
L 327.106213 -57.10416 
L 327.106213 -57.10416 
L 325.862859 -57.107875 
L 324.619506 -57.112687 
L 323.376152 -57.137682 
L 322.132799 -57.134394 
L 320.889445 -57.142287 
L 319.646092 -57.157261 
L 318.402738 -57.135952 
L 317.159385 -57.138371 
L 315.916031 -57.156685 
L 314.672678 -57.134414 
L 313.429324 -57.143908 
L 312.185971 -57.109355 
L 310.942617 -57.086539 
L 309.699264 -57.131347 
L 308.45591 -57.154615 
L 307.212557 -57.121133 
L 305.969203 -57.065232 
L 304.72585 -57.094484 
L 303.482496 -57.155534 
L 302.239143 -57.113726 
L 300.995789 -57.155879 
L 299.752436 -57.098518 
L 298.509082 -57.092647 
L 297.265729 -57.130656 
L 296.022375 -57.061344 
L 294.779022 -57.105084 
L 293.535668 -57.030676 
L 292.292315 -56.973897 
L 291.048961 -56.951311 
L 289.805608 -56.941875 
L 288.562254 -56.861237 
L 287.318901 -56.909608 
L 286.075547 -56.906163 
L 284.832194 -56.909956 
L 283.58884 -56.888652 
L 282.345487 -56.867112 
L 281.102133 -56.894869 
L 279.85878 -56.868376 
L 278.615426 -56.872405 
L 277.372073 -56.884154 
L 276.128719 -56.842119 
L 274.885366 -56.861692 
L 273.642012 -56.824608 
L 272.398659 -56.835461 
L 271.155305 -56.845105 
L 269.911952 -56.825065 
L 268.668598 -56.825071 
L 267.425245 -56.847423 
L 266.181891 -56.863423 
L 264.938538 -56.857557 
L 263.695184 -56.881156 
L 262.451831 -56.880119 
L 261.208478 -56.853741 
L 259.965124 -56.837281 
L 258.721771 -56.82832 
L 257.478417 -56.829443 
L 256.235064 -56.818039 
L 254.99171 -56.834197 
L 253.748357 -56.843855 
L 252.505003 -56.833699 
L 251.26165 -56.858009 
L 250.018296 -56.844198 
L 248.774943 -56.870239 
L 247.531589 -56.847639 
L 246.288236 -56.844532 
L 245.044882 -56.885306 
L 243.801529 -56.842574 
L 242.558175 -56.840049 
L 241.314822 -56.837281 
L 240.071468 -56.863996 
L 238.828115 -56.855158 
L 237.584761 -56.84114 
L 236.341408 -56.872065 
L 235.098054 -56.866536 
L 233.854701 -56.877591 
L 232.611347 -56.874265 
L 231.367994 -56.830024 
L 230.12464 -56.82855 
L 228.881287 -56.855129 
L 227.637933 -56.892226 
L 226.39458 -56.883693 
L 225.151226 -56.890141 
L 223.907873 -56.85248 
L 222.664519 -56.811142 
L 221.421166 -56.859849 
L 220.177812 -56.828291 
L 218.934459 -56.871489 
L 217.691105 -56.871374 
L 216.447752 -56.856892 
L 215.204398 -56.861923 
L 213.961045 -56.873669 
L 212.717691 -56.873217 
L 211.474338 -56.850637 
L 210.230984 -56.887607 
L 208.987631 -56.874821 
L 207.744277 -56.859881 
L 206.500924 -56.864224 
L 205.25757 -56.879227 
L 204.014217 -56.876664 
L 202.770863 -56.866775 
L 201.52751 -56.874366 
L 200.284156 -56.857776 
L 199.040803 -56.885533 
L 197.797449 -56.828288 
L 196.554096 -56.873672 
L 195.310742 -56.834485 
L 194.067389 -56.868837 
L 192.824035 -56.864005 
L 191.580682 -56.846384 
L 190.337328 -56.837057 
L 189.093975 -56.846381 
L 187.850621 -56.829206 
L 186.607268 -56.797893 
L 185.363914 -56.764595 
L 184.120561 -56.748348 
L 182.877207 -56.751109 
L 181.633854 -56.679598 
L 180.3905 -56.636739 
L 179.147147 -56.618879 
L 177.903793 -56.587214 
L 176.66044 -56.573864 
L 175.417086 -56.563474 
L 174.173733 -56.557136 
L 172.930379 -56.557254 
L 171.687026 -56.557939 
L 170.443672 -56.556563 
L 169.200319 -56.556787 
L 167.956965 -56.562086 
L 166.713612 -56.558861 
L 165.470258 -56.562086 
L 164.226905 -56.551834 
L 162.983551 -56.55679 
L 161.740198 -56.546651 
L 160.496844 -56.552065 
L 159.253491 -56.557366 
L 158.010137 -56.557948 
L 156.766784 -56.557018 
L 155.52343 -56.553911 
L 154.280077 -56.547114 
L 153.036723 -56.535832 
L 151.79337 -56.538478 
L 150.550016 -56.531334 
L 149.306663 -56.540891 
L 148.063309 -56.522579 
L 146.819956 -56.522346 
L 145.576602 -56.525226 
L 144.333249 -56.517623 
L 143.089896 -56.520849 
L 141.846542 -56.522807 
L 140.603189 -56.52154 
L 139.359835 -56.518545 
L 138.116482 -56.519351 
L 136.873128 -56.520273 
L 135.629775 -56.515435 
L 134.386421 -56.52154 
L 133.143068 -56.511979 
L 131.899714 -56.51832 
L 130.656361 -56.521194 
L 129.413007 -56.508411 
L 128.169654 -56.516126 
L 126.9263 -56.518551 
L 125.682947 -56.5106 
L 124.439593 -56.520618 
L 123.19624 -56.52154 
L 121.952886 -56.517739 
L 120.709533 -56.514974 
L 119.466179 -56.519239 
L 118.222826 -56.519351 
L 116.979472 -56.517278 
L 115.736119 -56.51555 
L 114.492765 -56.51371 
L 113.249412 -56.519927 
L 112.006058 -56.512561 
L 110.762705 -56.518315 
L 109.519351 -56.518775 
L 108.275998 -56.513707 
L 107.032644 -56.513937 
L 105.789291 -56.517166 
L 104.545937 -56.518891 
L 103.302584 -56.51221 
L 102.05923 -56.517396 
L 100.815877 -56.513131 
L 99.572523 -56.519812 
L 98.32917 -56.517508 
L 97.085816 -56.513937 
L 95.842463 -56.518084 
L 94.599109 -56.520273 
L 93.355756 -56.51578 
L 92.112402 -56.520849 
L 90.869049 -56.518663 
L 89.625695 -56.518202 
L 88.382342 -56.515665 
L 87.138988 -56.519927 
L 85.895635 -56.518433 
L 84.652281 -56.519585 
L 83.408928 -56.517508 
L 82.165574 -56.509445 
L 80.922221 -56.486065 
L 79.678867 -56.460375 
z
" style="stroke: #6c3f70; stroke-opacity: 0.2"/>
    </defs>
    <g clip-path="url(#p78d4863256)">
     <use xlink:href="#m8053431ff7" x="0" y="362.097812" style="fill: #6c3f70; fill-opacity: 0.2; stroke: #6c3f70; stroke-opacity: 0.2"/>
    </g>
   </g>
   <g id="PolyCollection_5">
    <defs>
     <path id="m47e107f39b" d="M 79.678867 -56.4613 
L 79.678867 -56.453231 
L 80.922221 -56.475577 
L 82.165574 -56.591456 
L 83.408928 -56.69835 
L 84.652281 -56.813656 
L 85.895635 -57.093856 
L 87.138988 -57.957618 
L 88.382342 -58.927444 
L 89.625695 -59.498453 
L 90.869049 -59.417246 
L 92.112402 -59.345651 
L 93.355756 -59.466546 
L 94.599109 -59.757856 
L 95.842463 -59.757856 
L 97.085816 -59.425194 
L 98.32917 -59.447886 
L 99.572523 -59.577818 
L 100.815877 -59.235825 
L 102.05923 -59.184371 
L 103.302584 -59.36449 
L 104.545937 -59.757856 
L 105.789291 -59.351013 
L 107.032644 -59.757856 
L 108.275998 -59.757856 
L 109.519351 -59.359307 
L 110.762705 -59.379464 
L 112.006058 -59.531858 
L 113.249412 -59.318184 
L 114.492765 -59.757856 
L 115.736119 -59.51769 
L 116.979472 -59.757856 
L 118.222826 -59.757856 
L 119.466179 -59.757856 
L 120.709533 -59.757856 
L 121.952886 -59.451342 
L 123.19624 -59.531858 
L 124.439593 -59.536581 
L 125.682947 -59.558812 
L 126.9263 -59.378428 
L 128.169654 -59.030065 
L 129.413007 -59.42266 
L 130.656361 -59.407685 
L 131.899714 -59.757856 
L 133.143068 -59.426115 
L 134.386421 -59.426115 
L 135.629775 -59.31519 
L 136.873128 -59.558812 
L 138.116482 -59.200414 
L 139.359835 -59.757856 
L 140.603189 -59.50836 
L 141.846542 -59.757856 
L 143.089896 -59.757856 
L 144.333249 -59.449959 
L 145.576602 -59.68045 
L 146.819956 -59.51769 
L 148.063309 -59.32452 
L 149.306663 -59.511124 
L 150.550016 -59.517805 
L 151.79337 -59.531858 
L 153.036723 -59.241815 
L 154.280077 -59.378917 
L 155.52343 -59.432266 
L 156.766784 -59.558812 
L 158.010137 -59.517575 
L 159.253491 -59.757856 
L 160.496844 -59.757856 
L 161.740198 -59.757856 
L 162.983551 -59.484516 
L 164.226905 -59.551555 
L 165.470258 -59.172472 
L 166.713612 -59.757856 
L 167.956965 -59.675382 
L 169.200319 -59.634145 
L 170.443672 -59.425885 
L 171.687026 -59.296739 
L 172.930379 -59.654763 
L 174.173733 -59.654763 
L 175.417086 -59.261385 
L 176.66044 -59.696 
L 177.903793 -59.273952 
L 179.147147 -59.301713 
L 180.3905 -59.696 
L 181.633854 -59.490621 
L 182.877207 -59.558812 
L 184.120561 -59.406649 
L 185.363914 -59.696 
L 186.607268 -59.406994 
L 187.850621 -59.696 
L 189.093975 -59.696 
L 190.337328 -59.654763 
L 191.580682 -59.633629 
L 192.824035 -59.246463 
L 194.067389 -59.463897 
L 195.310742 -59.237766 
L 196.554096 -59.196431 
L 197.797449 -59.757856 
L 199.040803 -59.757856 
L 200.284156 -59.757856 
L 201.52751 -59.757856 
L 202.770863 -59.757856 
L 204.014217 -59.465164 
L 205.25757 -59.140335 
L 206.500924 -59.281555 
L 207.744277 -59.447886 
L 208.987631 -59.257155 
L 210.230984 -59.40734 
L 211.474338 -59.458863 
L 212.717691 -59.696 
L 213.961045 -59.308278 
L 215.204398 -59.654763 
L 216.447752 -59.696 
L 217.691105 -59.639213 
L 218.934459 -59.216347 
L 220.177812 -59.374278 
L 221.421166 -59.332353 
L 222.664519 -59.696 
L 223.907873 -59.696 
L 225.151226 -59.757856 
L 226.39458 -59.68045 
L 227.637933 -59.757856 
L 228.881287 -59.757856 
L 230.12464 -59.757856 
L 231.367994 -59.68045 
L 232.611347 -59.68045 
L 233.854701 -59.68045 
L 235.098054 -59.68045 
L 236.341408 -59.68045 
L 237.584761 -59.26635 
L 238.828115 -59.68045 
L 240.071468 -59.265659 
L 241.314822 -59.337766 
L 242.558175 -59.577818 
L 243.801529 -59.577818 
L 245.044882 -59.351474 
L 246.288236 -59.757856 
L 247.531589 -59.68045 
L 248.774943 -59.68045 
L 250.018296 -59.447886 
L 251.26165 -59.447886 
L 252.505003 -59.757856 
L 253.748357 -59.447886 
L 254.99171 -59.53013 
L 256.235064 -59.757856 
L 257.478417 -59.343871 
L 258.721771 -59.096042 
L 259.965124 -59.511124 
L 261.208478 -59.344563 
L 262.451831 -59.757856 
L 263.695184 -59.577818 
L 264.938538 -59.577818 
L 266.181891 -59.757856 
L 267.425245 -59.757856 
L 268.668598 -59.757856 
L 269.911952 -59.482442 
L 271.155305 -59.757856 
L 272.398659 -59.757856 
L 273.642012 -59.757856 
L 274.885366 -59.338573 
L 276.128719 -59.266004 
L 277.372073 -59.757856 
L 278.615426 -59.757856 
L 279.85878 -59.281555 
L 281.102133 -59.174545 
L 282.345487 -59.192705 
L 283.58884 -59.315881 
L 284.832194 -59.21705 
L 286.075547 -59.558812 
L 287.318901 -59.757856 
L 288.562254 -59.757856 
L 289.805608 -59.287314 
L 291.048961 -59.757856 
L 292.292315 -59.447886 
L 293.535668 -59.68045 
L 294.779022 -59.422775 
L 296.022375 -59.757856 
L 297.265729 -59.167404 
L 298.509082 -59.757856 
L 299.752436 -59.757856 
L 300.995789 -59.68045 
L 302.239143 -59.459557 
L 303.482496 -59.349861 
L 304.72585 -59.387165 
L 305.969203 -59.521583 
L 307.212557 -59.396282 
L 308.45591 -59.32786 
L 309.699264 -59.064619 
L 310.942617 -59.275755 
L 312.185971 -59.306712 
L 313.429324 -59.757856 
L 314.672678 -59.757856 
L 315.916031 -59.757856 
L 317.159385 -59.398125 
L 318.402738 -59.323944 
L 319.646092 -59.757856 
L 320.889445 -59.757856 
L 322.132799 -59.558812 
L 323.376152 -59.249844 
L 324.619506 -59.484516 
L 325.862859 -59.757856 
L 327.106213 -59.757856 
L 327.106213 -59.757856 
L 327.106213 -59.757856 
L 325.862859 -59.757856 
L 324.619506 -59.757856 
L 323.376152 -59.757856 
L 322.132799 -59.757856 
L 320.889445 -59.757856 
L 319.646092 -59.757856 
L 318.402738 -59.757856 
L 317.159385 -59.757856 
L 315.916031 -59.757856 
L 314.672678 -59.757856 
L 313.429324 -59.757856 
L 312.185971 -59.757856 
L 310.942617 -59.757856 
L 309.699264 -59.697843 
L 308.45591 -59.757856 
L 307.212557 -59.757856 
L 305.969203 -59.757856 
L 304.72585 -59.737238 
L 303.482496 -59.757856 
L 302.239143 -59.757856 
L 300.995789 -59.757856 
L 299.752436 -59.757856 
L 298.509082 -59.757856 
L 297.265729 -59.757856 
L 296.022375 -59.757856 
L 294.779022 -59.757856 
L 293.535668 -59.757856 
L 292.292315 -59.757856 
L 291.048961 -59.757856 
L 289.805608 -59.757856 
L 288.562254 -59.757856 
L 287.318901 -59.757856 
L 286.075547 -59.757856 
L 284.832194 -59.757856 
L 283.58884 -59.757856 
L 282.345487 -59.757856 
L 281.102133 -59.757856 
L 279.85878 -59.757856 
L 278.615426 -59.757856 
L 277.372073 -59.757856 
L 276.128719 -59.757856 
L 274.885366 -59.757856 
L 273.642012 -59.757856 
L 272.398659 -59.757856 
L 271.155305 -59.757856 
L 269.911952 -59.757856 
L 268.668598 -59.757856 
L 267.425245 -59.757856 
L 266.181891 -59.757856 
L 264.938538 -59.757856 
L 263.695184 -59.757856 
L 262.451831 -59.757856 
L 261.208478 -59.757856 
L 259.965124 -59.757856 
L 258.721771 -59.691508 
L 257.478417 -59.757856 
L 256.235064 -59.757856 
L 254.99171 -59.757856 
L 253.748357 -59.757856 
L 252.505003 -59.757856 
L 251.26165 -59.757856 
L 250.018296 -59.757856 
L 248.774943 -59.757856 
L 247.531589 -59.757856 
L 246.288236 -59.757856 
L 245.044882 -59.757856 
L 243.801529 -59.757856 
L 242.558175 -59.757856 
L 241.314822 -59.757856 
L 240.071468 -59.757856 
L 238.828115 -59.757856 
L 237.584761 -59.757856 
L 236.341408 -59.757856 
L 235.098054 -59.757856 
L 233.854701 -59.757856 
L 232.611347 -59.757856 
L 231.367994 -59.757856 
L 230.12464 -59.757856 
L 228.881287 -59.757856 
L 227.637933 -59.757856 
L 226.39458 -59.757856 
L 225.151226 -59.757856 
L 223.907873 -59.757856 
L 222.664519 -59.757856 
L 221.421166 -59.757856 
L 220.177812 -59.737238 
L 218.934459 -59.732054 
L 217.691105 -59.757856 
L 216.447752 -59.757856 
L 215.204398 -59.757856 
L 213.961045 -59.757856 
L 212.717691 -59.757856 
L 211.474338 -59.757856 
L 210.230984 -59.757856 
L 208.987631 -59.757856 
L 207.744277 -59.757856 
L 206.500924 -59.757856 
L 205.25757 -59.757856 
L 204.014217 -59.757856 
L 202.770863 -59.757856 
L 201.52751 -59.757856 
L 200.284156 -59.757856 
L 199.040803 -59.757856 
L 197.797449 -59.757856 
L 196.554096 -59.757856 
L 195.310742 -59.757856 
L 194.067389 -59.757856 
L 192.824035 -59.737238 
L 191.580682 -59.757856 
L 190.337328 -59.757856 
L 189.093975 -59.757856 
L 187.850621 -59.757856 
L 186.607268 -59.757856 
L 185.363914 -59.757856 
L 184.120561 -59.757856 
L 182.877207 -59.757856 
L 181.633854 -59.757856 
L 180.3905 -59.757856 
L 179.147147 -59.757856 
L 177.903793 -59.757856 
L 176.66044 -59.757856 
L 175.417086 -59.757856 
L 174.173733 -59.757856 
L 172.930379 -59.757856 
L 171.687026 -59.737238 
L 170.443672 -59.737238 
L 169.200319 -59.757856 
L 167.956965 -59.757856 
L 166.713612 -59.757856 
L 165.470258 -59.757856 
L 164.226905 -59.757856 
L 162.983551 -59.757856 
L 161.740198 -59.757856 
L 160.496844 -59.757856 
L 159.253491 -59.757856 
L 158.010137 -59.757856 
L 156.766784 -59.757856 
L 155.52343 -59.757856 
L 154.280077 -59.757856 
L 153.036723 -59.757856 
L 151.79337 -59.757856 
L 150.550016 -59.757856 
L 149.306663 -59.757856 
L 148.063309 -59.757856 
L 146.819956 -59.757856 
L 145.576602 -59.757856 
L 144.333249 -59.757856 
L 143.089896 -59.757856 
L 141.846542 -59.757856 
L 140.603189 -59.757856 
L 139.359835 -59.757856 
L 138.116482 -59.757856 
L 136.873128 -59.757856 
L 135.629775 -59.757856 
L 134.386421 -59.757856 
L 133.143068 -59.757856 
L 131.899714 -59.757856 
L 130.656361 -59.757856 
L 129.413007 -59.757856 
L 128.169654 -59.67601 
L 126.9263 -59.757856 
L 125.682947 -59.757856 
L 124.439593 -59.757856 
L 123.19624 -59.757856 
L 121.952886 -59.757856 
L 120.709533 -59.757856 
L 119.466179 -59.757856 
L 118.222826 -59.757856 
L 116.979472 -59.757856 
L 115.736119 -59.757856 
L 114.492765 -59.757856 
L 113.249412 -59.757856 
L 112.006058 -59.757856 
L 110.762705 -59.757856 
L 109.519351 -59.757856 
L 108.275998 -59.757856 
L 107.032644 -59.757856 
L 105.789291 -59.757856 
L 104.545937 -59.757856 
L 103.302584 -59.757856 
L 102.05923 -59.757856 
L 100.815877 -59.757856 
L 99.572523 -59.757856 
L 98.32917 -59.757856 
L 97.085816 -59.757856 
L 95.842463 -59.757856 
L 94.599109 -59.757856 
L 93.355756 -59.757856 
L 92.112402 -59.757856 
L 90.869049 -59.757856 
L 89.625695 -59.757856 
L 88.382342 -59.639674 
L 87.138988 -58.894803 
L 85.895635 -57.760437 
L 84.652281 -57.194643 
L 83.408928 -56.856422 
L 82.165574 -56.722675 
L 80.922221 -56.531219 
L 79.678867 -56.4613 
z
" style="stroke: #2d1e3e; stroke-opacity: 0.2"/>
    </defs>
    <g clip-path="url(#p78d4863256)">
     <use xlink:href="#m47e107f39b" x="0" y="362.097812" style="fill: #2d1e3e; fill-opacity: 0.2; stroke: #2d1e3e; stroke-opacity: 0.2"/>
    </g>
   </g>
   <g id="line2d_14">
    <path d="M 79.678867 305.639856 
L 83.408928 305.426644 
L 87.138988 305.299361 
L 92.112402 305.254092 
L 93.355756 304.645094 
L 94.599109 295.707788 
L 95.842463 288.739502 
L 97.085816 291.263958 
L 98.32917 288.248341 
L 99.572523 287.22605 
L 100.815877 286.743297 
L 102.05923 289.147152 
L 103.302584 288.562343 
L 104.545937 288.541264 
L 105.789291 286.607952 
L 107.032644 287.786553 
L 108.275998 286.555196 
L 109.519351 286.353617 
L 110.762705 286.985998 
L 114.492765 287.526459 
L 115.736119 285.556978 
L 116.979472 288.412023 
L 118.222826 287.791737 
L 119.466179 287.329603 
L 120.709533 288.464434 
L 121.952886 289.174336 
L 123.19624 287.924318 
L 124.439593 288.279557 
L 125.682947 287.299655 
L 126.9263 287.834241 
L 128.169654 287.693827 
L 129.413007 290.464555 
L 131.899714 289.089788 
L 133.143068 287.919365 
L 134.386421 287.937565 
L 135.629775 288.602198 
L 136.873128 290.515583 
L 138.116482 288.567181 
L 139.359835 286.26354 
L 140.603189 286.941075 
L 141.846542 291.117324 
L 143.089896 288.045265 
L 144.333249 287.02401 
L 145.576602 287.045781 
L 146.819956 288.626964 
L 148.063309 288.738581 
L 149.306663 287.59131 
L 150.550016 291.146927 
L 151.79337 287.579906 
L 153.036723 288.030636 
L 154.280077 286.301091 
L 155.52343 289.26568 
L 156.766784 286.899262 
L 158.010137 288.641592 
L 159.253491 288.261242 
L 160.496844 290.001845 
L 161.740198 290.395903 
L 162.983551 289.392847 
L 164.226905 288.823704 
L 165.470258 288.432296 
L 166.713612 288.513158 
L 167.956965 287.863384 
L 169.200319 286.114487 
L 170.443672 288.552783 
L 171.687026 290.326905 
L 172.930379 291.325814 
L 174.173733 287.667104 
L 175.417086 289.427058 
L 176.66044 289.300467 
L 177.903793 287.492479 
L 179.147147 288.178768 
L 180.3905 288.132232 
L 181.633854 291.650298 
L 182.877207 286.731663 
L 184.120561 290.494043 
L 185.363914 289.128952 
L 187.850621 287.500312 
L 189.093975 289.133099 
L 190.337328 291.717567 
L 191.580682 288.26009 
L 192.824035 288.666819 
L 194.067389 287.451472 
L 195.310742 288.702296 
L 196.554096 289.162932 
L 197.797449 288.693197 
L 199.040803 287.597991 
L 200.284156 288.268614 
L 201.52751 288.118064 
L 202.770863 287.552607 
L 204.014217 288.276217 
L 205.25757 289.943099 
L 206.500924 288.142944 
L 207.744277 291.842892 
L 210.230984 289.350458 
L 211.474338 287.455043 
L 212.717691 288.280248 
L 213.961045 288.177386 
L 215.204398 287.556869 
L 216.447752 287.594651 
L 217.691105 286.885785 
L 218.934459 288.810227 
L 220.177812 287.515171 
L 221.421166 286.863554 
L 222.664519 289.179174 
L 223.907873 290.060821 
L 225.151226 291.121471 
L 226.39458 290.453727 
L 227.637933 290.217016 
L 228.881287 289.839546 
L 230.12464 290.082707 
L 231.367994 288.314459 
L 232.611347 288.441972 
L 233.854701 287.026199 
L 235.098054 288.881874 
L 236.341408 286.481821 
L 237.584761 290.301564 
L 238.828115 288.173124 
L 240.071468 289.91557 
L 241.314822 288.747335 
L 242.558175 288.296951 
L 243.801529 289.018832 
L 245.044882 290.074874 
L 246.288236 289.49237 
L 247.531589 287.440068 
L 248.774943 288.495419 
L 250.018296 287.944476 
L 251.26165 289.956231 
L 252.505003 289.131486 
L 254.99171 287.026544 
L 256.235064 286.817594 
L 257.478417 286.893502 
L 258.721771 288.017044 
L 259.965124 288.832113 
L 261.208478 288.288311 
L 262.451831 288.300521 
L 263.695184 288.777629 
L 264.938538 290.455109 
L 266.181891 288.696883 
L 267.425245 288.821055 
L 268.668598 287.048084 
L 269.911952 291.393083 
L 271.155305 288.825893 
L 272.398659 289.479814 
L 273.642012 289.443415 
L 274.885366 289.726316 
L 276.128719 287.825026 
L 277.372073 287.894139 
L 278.615426 287.843917 
L 279.85878 293.652492 
L 281.102133 289.316939 
L 282.345487 289.449635 
L 283.58884 290.676039 
L 284.832194 291.048211 
L 286.075547 287.688413 
L 287.318901 290.554862 
L 288.562254 289.555838 
L 291.048961 288.983009 
L 292.292315 289.510454 
L 293.535668 287.726771 
L 294.779022 287.629552 
L 296.022375 287.711451 
L 297.265729 287.259915 
L 298.509082 287.814314 
L 299.752436 289.453206 
L 302.239143 288.3671 
L 303.482496 290.096414 
L 304.72585 288.88245 
L 305.969203 288.919771 
L 307.212557 288.839715 
L 308.45591 290.075565 
L 309.699264 287.805329 
L 310.942617 287.108443 
L 312.185971 289.322813 
L 313.429324 290.014401 
L 314.672678 287.846105 
L 315.916031 289.034152 
L 317.159385 288.929562 
L 318.402738 287.873405 
L 319.646092 287.32442 
L 320.889445 287.51448 
L 322.132799 288.983124 
L 323.376152 289.197143 
L 324.619506 289.011921 
L 325.862859 289.470484 
L 327.106213 290.053449 
L 327.106213 290.053449 
" clip-path="url(#p78d4863256)" style="fill: none; stroke: #edd1cb; stroke-width: 1.5; stroke-linecap: round"/>
   </g>
   <g id="line2d_15">
    <path d="M 79.678867 305.629489 
L 80.922221 305.179105 
L 82.165574 304.886298 
L 84.652281 303.921369 
L 85.895635 303.694334 
L 90.869049 303.607598 
L 92.112402 303.402564 
L 99.572523 303.658741 
L 100.815877 303.4802 
L 102.05923 303.590665 
L 105.789291 303.372039 
L 107.032644 303.621075 
L 108.275998 303.683737 
L 109.519351 303.450367 
L 114.492765 303.466954 
L 115.736119 303.595618 
L 118.222826 303.436659 
L 124.439593 303.468221 
L 125.682947 303.288528 
L 126.9263 303.282423 
L 128.169654 303.423067 
L 131.899714 303.134061 
L 133.143068 302.970264 
L 136.873128 301.880357 
L 138.116482 301.224362 
L 139.359835 301.230582 
L 141.846542 300.648193 
L 143.089896 301.081069 
L 144.333249 300.697493 
L 148.063309 301.070471 
L 149.306663 301.062754 
L 150.550016 300.845855 
L 151.79337 301.213419 
L 153.036723 301.168151 
L 154.280077 300.825813 
L 155.52343 301.435386 
L 156.766784 301.011956 
L 159.253491 301.204665 
L 160.496844 300.636098 
L 161.740198 300.742992 
L 162.983551 300.989379 
L 165.470258 300.598317 
L 166.713612 300.588986 
L 167.956965 300.417933 
L 169.200319 300.649345 
L 170.443672 300.473568 
L 171.687026 300.793675 
L 174.173733 300.702792 
L 177.903793 301.228739 
L 179.147147 300.56952 
L 180.3905 301.66772 
L 181.633854 300.877301 
L 182.877207 300.291687 
L 184.120561 300.494878 
L 185.363914 300.834336 
L 186.607268 300.497412 
L 187.850621 300.757276 
L 189.093975 301.177826 
L 190.337328 300.716039 
L 191.580682 300.974635 
L 192.824035 300.775475 
L 194.067389 300.314148 
L 195.310742 300.909784 
L 196.554096 300.61548 
L 197.797449 300.494648 
L 199.040803 300.852997 
L 200.284156 300.938005 
L 201.52751 301.242677 
L 202.770863 300.136989 
L 205.25757 300.508009 
L 206.500924 300.641512 
L 207.744277 300.619511 
L 208.987631 296.995473 
L 210.230984 273.54531 
L 211.474338 208.15331 
L 212.717691 200.716209 
L 213.961045 197.731809 
L 215.204398 201.304243 
L 216.447752 197.806566 
L 217.691105 200.56946 
L 218.934459 197.028817 
L 220.177812 200.947391 
L 221.421166 201.432793 
L 222.664519 194.46946 
L 223.907873 208.700106 
L 225.151226 194.699951 
L 226.39458 194.476141 
L 227.637933 190.642806 
L 228.881287 211.546051 
L 230.12464 204.69733 
L 231.367994 204.491259 
L 233.854701 197.77247 
L 235.098054 204.314216 
L 236.341408 204.447373 
L 237.584761 197.650947 
L 238.828115 197.308378 
L 240.071468 209.032193 
L 241.314822 197.989023 
L 242.558175 201.3972 
L 243.801529 197.586442 
L 245.044882 194.46681 
L 246.288236 190.882396 
L 247.531589 194.445731 
L 248.774943 208.467081 
L 250.018296 198.068157 
L 251.26165 201.503748 
L 252.505003 197.741254 
L 253.748357 208.430221 
L 254.99171 197.796544 
L 256.235064 200.56923 
L 257.478417 207.631394 
L 258.721771 201.101282 
L 259.965124 201.042767 
L 262.451831 194.236665 
L 263.695184 194.229869 
L 264.938538 197.79067 
L 266.181891 194.236665 
L 267.425245 211.920412 
L 268.668598 204.725897 
L 269.911952 190.642806 
L 271.155305 197.417231 
L 272.398659 201.347439 
L 273.642012 201.323019 
L 274.885366 208.42331 
L 276.128719 204.734997 
L 277.372073 204.512684 
L 278.615426 201.413902 
L 279.85878 193.92704 
L 282.345487 208.040311 
L 283.58884 211.436047 
L 284.832194 201.312076 
L 286.075547 201.154845 
L 287.318901 208.088689 
L 288.562254 194.229869 
L 289.805608 200.820454 
L 291.048961 200.889682 
L 292.292315 194.200381 
L 293.535668 204.478704 
L 294.779022 201.331082 
L 298.509082 201.344789 
L 299.752436 194.21213 
L 300.995789 201.335459 
L 302.239143 201.173851 
L 303.482496 201.332119 
L 304.72585 204.337023 
L 305.969203 207.942171 
L 307.212557 194.225607 
L 308.45591 212.137541 
L 309.699264 212.037903 
L 310.942617 194.236665 
L 312.185971 197.978541 
L 313.429324 197.976237 
L 314.672678 204.863777 
L 315.916031 208.44796 
L 317.159385 200.72865 
L 318.402738 208.470652 
L 319.646092 194.178611 
L 320.889445 204.717949 
L 322.132799 208.478485 
L 323.376152 194.054899 
L 325.862859 201.37278 
L 327.106213 201.028944 
L 327.106213 201.028944 
" clip-path="url(#p78d4863256)" style="fill: none; stroke: #d499a7; stroke-width: 1.5; stroke-linecap: round"/>
   </g>
   <g id="line2d_16">
    <path d="M 79.678867 305.622463 
L 80.922221 305.11748 
L 82.165574 304.975338 
L 88.382342 304.926268 
L 89.625695 305.005517 
L 95.842463 304.842642 
L 97.085816 304.938823 
L 100.815877 304.727799 
L 108.275998 304.383388 
L 109.519351 303.74087 
L 110.762705 301.936799 
L 112.006058 301.209964 
L 113.249412 300.93144 
L 114.492765 300.449148 
L 115.736119 300.327049 
L 116.979472 300.565488 
L 118.222826 300.212322 
L 119.466179 299.719318 
L 120.709533 299.027501 
L 121.952886 294.455582 
L 123.19624 285.452273 
L 124.439593 270.79186 
L 125.682947 264.820755 
L 126.9263 264.100371 
L 128.169654 242.249245 
L 129.413007 238.759745 
L 130.656361 222.404575 
L 131.899714 199.945488 
L 133.143068 201.546598 
L 134.386421 198.127364 
L 135.629775 195.332562 
L 136.873128 200.839691 
L 138.116482 189.0569 
L 139.359835 186.585661 
L 141.846542 201.838023 
L 143.089896 208.130272 
L 144.333249 201.059699 
L 145.576602 192.303929 
L 146.819956 197.084108 
L 148.063309 197.290409 
L 149.306663 194.920766 
L 150.550016 186.836195 
L 151.79337 206.441504 
L 153.036723 184.15013 
L 154.280077 195.023398 
L 155.52343 194.969605 
L 156.766784 198.515086 
L 158.010137 197.733076 
L 159.253491 203.00142 
L 160.496844 202.16101 
L 161.740198 194.689238 
L 162.983551 198.211451 
L 164.226905 187.012662 
L 165.470258 197.553498 
L 166.713612 191.253762 
L 167.956965 187.33346 
L 169.200319 190.672179 
L 170.443672 197.601646 
L 171.687026 190.140126 
L 172.930379 192.628413 
L 174.173733 201.085041 
L 175.417086 183.008504 
L 176.66044 180.04645 
L 177.903793 181.90224 
L 179.147147 182.712356 
L 180.3905 163.369329 
L 181.633854 184.835843 
L 182.877207 173.32455 
L 184.120561 169.392154 
L 185.363914 163.494769 
L 186.607268 151.803092 
L 187.850621 147.969642 
L 189.093975 152.701672 
L 190.337328 153.325529 
L 191.580682 143.659199 
L 192.824035 146.441791 
L 194.067389 112.230898 
L 195.310742 103.87172 
L 196.554096 116.280786 
L 197.797449 99.991158 
L 199.040803 117.77984 
L 200.284156 92.229573 
L 201.52751 93.93274 
L 202.770863 58.030546 
L 204.014217 68.067665 
L 205.25757 92.447048 
L 206.500924 78.918701 
L 207.744277 93.35634 
L 208.987631 110.80303 
L 210.230984 79.613629 
L 211.474338 82.49989 
L 212.717691 89.095889 
L 213.961045 56.918292 
L 215.204398 98.409169 
L 216.447752 45.83976 
L 217.691105 70.690376 
L 218.934459 71.17117 
L 220.177812 59.272155 
L 221.421166 71.646089 
L 222.664519 50.664516 
L 223.907873 89.095198 
L 226.39458 73.01141 
L 227.637933 91.992402 
L 228.881287 75.860581 
L 230.12464 80.604705 
L 231.367994 74.842436 
L 232.611347 63.803297 
L 233.854701 67.794555 
L 235.098054 61.065514 
L 236.341408 98.816242 
L 238.828115 72.156717 
L 240.071468 107.345669 
L 241.314822 82.71771 
L 242.558175 74.853724 
L 243.801529 61.701696 
L 245.044882 123.809346 
L 247.531589 49.385125 
L 248.774943 95.756278 
L 250.018296 94.152749 
L 251.26165 85.629773 
L 252.505003 63.224709 
L 253.748357 57.885409 
L 254.99171 66.175129 
L 256.235064 110.013994 
L 257.478417 101.342426 
L 258.721771 59.428925 
L 259.965124 63.51982 
L 262.451831 93.57082 
L 263.695184 71.707484 
L 264.938538 71.887638 
L 266.181891 77.584366 
L 267.425245 102.539112 
L 268.668598 71.043311 
L 269.911952 84.288526 
L 271.155305 101.639956 
L 272.398659 85.388685 
L 273.642012 94.118077 
L 274.885366 60.263115 
L 276.128719 136.265179 
L 277.372073 82.942902 
L 278.615426 97.659872 
L 279.85878 57.925494 
L 281.102133 86.052858 
L 282.345487 75.906656 
L 283.58884 78.485595 
L 284.832194 58.061301 
L 286.075547 89.692447 
L 287.318901 107.904675 
L 288.562254 65.154911 
L 289.805608 73.638953 
L 291.048961 116.477066 
L 292.292315 67.436781 
L 293.535668 122.615194 
L 294.779022 91.655477 
L 296.022375 69.435751 
L 297.265729 57.49976 
L 299.752436 114.617244 
L 300.995789 99.44989 
L 302.239143 77.664191 
L 303.482496 87.807399 
L 304.72585 61.856278 
L 305.969203 113.300763 
L 307.212557 117.399836 
L 308.45591 84.982994 
L 309.699264 64.312888 
L 310.942617 89.036222 
L 312.185971 84.15272 
L 313.429324 56.535523 
L 314.672678 57.144175 
L 315.916031 103.187389 
L 317.159385 81.311498 
L 318.402738 83.894008 
L 319.646092 76.469002 
L 320.889445 92.38093 
L 322.132799 57.372823 
L 323.376152 60.150807 
L 324.619506 68.339393 
L 325.862859 96.447866 
L 327.106213 77.03158 
L 327.106213 77.03158 
" clip-path="url(#p78d4863256)" style="fill: none; stroke: #a9678f; stroke-width: 1.5; stroke-linecap: round"/>
   </g>
   <g id="line2d_17">
    <path d="M 79.678867 305.64216 
L 89.625695 305.586985 
L 179.147147 305.510616 
L 186.607268 305.349813 
L 192.824035 305.277015 
L 218.934459 305.26826 
L 222.664519 305.350389 
L 227.637933 305.228751 
L 230.12464 305.326315 
L 261.208478 305.289225 
L 263.695184 305.218039 
L 266.181891 305.27402 
L 273.642012 305.331614 
L 277.372073 305.240615 
L 283.58884 305.257202 
L 287.318901 305.253977 
L 288.562254 305.307424 
L 291.048961 305.224259 
L 293.535668 305.156643 
L 294.779022 305.064378 
L 296.022375 305.133491 
L 297.265729 305.035466 
L 299.752436 305.077279 
L 300.995789 304.994459 
L 302.239143 305.064148 
L 303.482496 304.985705 
L 305.969203 305.139826 
L 308.45591 305.008973 
L 312.185971 305.071405 
L 315.916031 304.995611 
L 318.402738 305.034199 
L 319.646092 304.962667 
L 322.132799 305.028785 
L 327.106213 305.076473 
L 327.106213 305.076473 
" clip-path="url(#p78d4863256)" style="fill: none; stroke: #6c3f70; stroke-width: 1.5; stroke-linecap: round"/>
   </g>
   <g id="line2d_18">
    <path d="M 79.678867 305.641239 
L 80.922221 305.599771 
L 84.652281 305.133721 
L 85.895635 304.680687 
L 88.382342 302.801629 
L 89.625695 302.431991 
L 93.355756 302.437059 
L 95.842463 302.339956 
L 98.32917 302.44328 
L 99.572523 302.399969 
L 100.815877 302.588647 
L 103.302584 302.491083 
L 104.545937 302.339956 
L 105.789291 302.502256 
L 107.032644 302.339956 
L 108.275998 302.339956 
L 109.519351 302.498109 
L 113.249412 302.514235 
L 114.492765 302.339956 
L 115.736119 302.420012 
L 118.222826 302.339956 
L 125.682947 302.406304 
L 126.9263 302.488548 
L 128.169654 302.703604 
L 129.413007 302.472307 
L 130.656361 302.463553 
L 131.899714 302.339956 
L 133.143068 302.472653 
L 136.873128 302.406304 
L 138.116482 302.59072 
L 139.359835 302.339956 
L 140.603189 302.423122 
L 143.089896 302.339956 
L 144.333249 302.442588 
L 145.576602 302.365758 
L 149.306663 302.4222 
L 151.79337 302.415289 
L 153.036723 302.551211 
L 159.253491 302.339956 
L 164.226905 302.408723 
L 165.470258 302.61537 
L 166.713612 302.339956 
L 170.443672 302.484978 
L 171.687026 302.548216 
L 172.930379 302.381193 
L 174.173733 302.381193 
L 175.417086 302.547064 
L 176.66044 302.360575 
L 177.903793 302.530246 
L 179.147147 302.533472 
L 180.3905 302.360575 
L 182.877207 302.406304 
L 184.120561 302.463898 
L 185.363914 302.360575 
L 186.607268 302.463783 
L 189.093975 302.360575 
L 191.580682 302.401812 
L 192.824035 302.574824 
L 194.067389 302.451688 
L 195.310742 302.58139 
L 196.554096 302.591757 
L 197.797449 302.339956 
L 204.014217 302.43752 
L 205.25757 302.614679 
L 207.744277 302.44328 
L 208.987631 302.555012 
L 212.717691 302.360575 
L 213.961045 302.533932 
L 215.204398 302.381193 
L 217.691105 302.386377 
L 218.934459 302.571944 
L 226.39458 302.365758 
L 231.367994 302.365758 
L 236.341408 302.365758 
L 237.584761 302.537503 
L 238.828115 302.365758 
L 240.071468 302.534393 
L 245.044882 302.502025 
L 246.288236 302.339956 
L 251.26165 302.44328 
L 252.505003 302.339956 
L 253.748357 302.44328 
L 256.235064 302.339956 
L 258.721771 302.664671 
L 259.965124 302.4222 
L 261.208478 302.44328 
L 262.451831 302.339956 
L 264.938538 302.399969 
L 267.425245 302.339956 
L 273.642012 302.339956 
L 274.885366 302.507439 
L 276.128719 302.534278 
L 277.372073 302.339956 
L 278.615426 302.339956 
L 281.102133 302.616637 
L 286.075547 302.406304 
L 288.562254 302.339956 
L 289.805608 302.523566 
L 291.048961 302.339956 
L 292.292315 302.44328 
L 293.535668 302.365758 
L 294.779022 302.468851 
L 296.022375 302.339956 
L 297.265729 302.603967 
L 298.509082 302.339956 
L 300.995789 302.365758 
L 303.482496 302.4897 
L 312.185971 302.55098 
L 313.429324 302.339956 
L 315.916031 302.339956 
L 317.159385 302.481983 
L 318.402738 302.511356 
L 319.646092 302.339956 
L 322.132799 302.406304 
L 323.376152 302.57229 
L 325.862859 302.339956 
L 327.106213 302.339956 
L 327.106213 302.339956 
" clip-path="url(#p78d4863256)" style="fill: none; stroke: #2d1e3e; stroke-width: 1.5; stroke-linecap: round"/>
   </g>
   <g id="line2d_19"/>
   <g id="line2d_20"/>
   <g id="line2d_21"/>
   <g id="line2d_22"/>
   <g id="line2d_23"/>
   <g id="patch_3">
    <path d="M 67.3075 319.138125 
L 67.3075 22.318125 
" style="fill: none; stroke: #ffffff; stroke-width: 1.25; stroke-linejoin: miter; stroke-linecap: square"/>
   </g>
   <g id="patch_4">
    <path d="M 67.3075 319.138125 
L 339.47758 319.138125 
" style="fill: none; stroke: #ffffff; stroke-width: 1.25; stroke-linejoin: miter; stroke-linecap: square"/>
   </g>
   <g id="text_16">
    <!-- Best Trials (Vector x Global Only) -->
    <g style="fill: #262626" transform="translate(104.952228 16.318125)scale(0.12 -0.12)">
     <defs>
      <path id="DejaVuSans-42" d="M 1259 2228 
L 1259 519 
L 2272 519 
Q 2781 519 3026 730 
Q 3272 941 3272 1375 
Q 3272 1813 3026 2020 
Q 2781 2228 2272 2228 
L 1259 2228 
z
M 1259 4147 
L 1259 2741 
L 2194 2741 
Q 2656 2741 2882 2914 
Q 3109 3088 3109 3444 
Q 3109 3797 2882 3972 
Q 2656 4147 2194 4147 
L 1259 4147 
z
M 628 4666 
L 2241 4666 
Q 2963 4666 3353 4366 
Q 3744 4066 3744 3513 
Q 3744 3084 3544 2831 
Q 3344 2578 2956 2516 
Q 3422 2416 3680 2098 
Q 3938 1781 3938 1306 
Q 3938 681 3513 340 
Q 3088 0 2303 0 
L 628 0 
L 628 4666 
z
" transform="scale(0.015625)"/>
      <path id="DejaVuSans-20" transform="scale(0.015625)"/>
      <path id="DejaVuSans-54" d="M -19 4666 
L 3928 4666 
L 3928 4134 
L 2272 4134 
L 2272 0 
L 1638 0 
L 1638 4134 
L -19 4134 
L -19 4666 
z
" transform="scale(0.015625)"/>
      <path id="DejaVuSans-6c" d="M 603 4863 
L 1178 4863 
L 1178 0 
L 603 0 
L 603 4863 
z
" transform="scale(0.015625)"/>
      <path id="DejaVuSans-28" d="M 1984 4856 
Q 1566 4138 1362 3434 
Q 1159 2731 1159 2009 
Q 1159 1288 1364 580 
Q 1569 -128 1984 -844 
L 1484 -844 
Q 1016 -109 783 600 
Q 550 1309 550 2009 
Q 550 2706 781 3412 
Q 1013 4119 1484 4856 
L 1984 4856 
z
" transform="scale(0.015625)"/>
      <path id="DejaVuSans-56" d="M 1831 0 
L 50 4666 
L 709 4666 
L 2188 738 
L 3669 4666 
L 4325 4666 
L 2547 0 
L 1831 0 
z
" transform="scale(0.015625)"/>
      <path id="DejaVuSans-63" d="M 3122 3366 
L 3122 2828 
Q 2878 2963 2633 3030 
Q 2388 3097 2138 3097 
Q 1578 3097 1268 2742 
Q 959 2388 959 1747 
Q 959 1106 1268 751 
Q 1578 397 2138 397 
Q 2388 397 2633 464 
Q 2878 531 3122 666 
L 3122 134 
Q 2881 22 2623 -34 
Q 2366 -91 2075 -91 
Q 1284 -91 818 406 
Q 353 903 353 1747 
Q 353 2603 823 3093 
Q 1294 3584 2113 3584 
Q 2378 3584 2631 3529 
Q 2884 3475 3122 3366 
z
" transform="scale(0.015625)"/>
      <path id="DejaVuSans-78" d="M 3513 3500 
L 2247 1797 
L 3578 0 
L 2900 0 
L 1881 1375 
L 863 0 
L 184 0 
L 1544 1831 
L 300 3500 
L 978 3500 
L 1906 2253 
L 2834 3500 
L 3513 3500 
z
" transform="scale(0.015625)"/>
      <path id="DejaVuSans-62" d="M 3116 1747 
Q 3116 2381 2855 2742 
Q 2594 3103 2138 3103 
Q 1681 3103 1420 2742 
Q 1159 2381 1159 1747 
Q 1159 1113 1420 752 
Q 1681 391 2138 391 
Q 2594 391 2855 752 
Q 3116 1113 3116 1747 
z
M 1159 2969 
Q 1341 3281 1617 3432 
Q 1894 3584 2278 3584 
Q 2916 3584 3314 3078 
Q 3713 2572 3713 1747 
Q 3713 922 3314 415 
Q 2916 -91 2278 -91 
Q 1894 -91 1617 61 
Q 1341 213 1159 525 
L 1159 0 
L 581 0 
L 581 4863 
L 1159 4863 
L 1159 2969 
z
" transform="scale(0.015625)"/>
      <path id="DejaVuSans-4f" d="M 2522 4238 
Q 1834 4238 1429 3725 
Q 1025 3213 1025 2328 
Q 1025 1447 1429 934 
Q 1834 422 2522 422 
Q 3209 422 3611 934 
Q 4013 1447 4013 2328 
Q 4013 3213 3611 3725 
Q 3209 4238 2522 4238 
z
M 2522 4750 
Q 3503 4750 4090 4092 
Q 4678 3434 4678 2328 
Q 4678 1225 4090 567 
Q 3503 -91 2522 -91 
Q 1538 -91 948 565 
Q 359 1222 359 2328 
Q 359 3434 948 4092 
Q 1538 4750 2522 4750 
z
" transform="scale(0.015625)"/>
      <path id="DejaVuSans-79" d="M 2059 -325 
Q 1816 -950 1584 -1140 
Q 1353 -1331 966 -1331 
L 506 -1331 
L 506 -850 
L 844 -850 
Q 1081 -850 1212 -737 
Q 1344 -625 1503 -206 
L 1606 56 
L 191 3500 
L 800 3500 
L 1894 763 
L 2988 3500 
L 3597 3500 
L 2059 -325 
z
" transform="scale(0.015625)"/>
      <path id="DejaVuSans-29" d="M 513 4856 
L 1013 4856 
Q 1481 4119 1714 3412 
Q 1947 2706 1947 2009 
Q 1947 1309 1714 600 
Q 1481 -109 1013 -844 
L 513 -844 
Q 928 -128 1133 580 
Q 1338 1288 1338 2009 
Q 1338 2731 1133 3434 
Q 928 4138 513 4856 
z
" transform="scale(0.015625)"/>
     </defs>
     <use xlink:href="#DejaVuSans-42"/>
     <use xlink:href="#DejaVuSans-65" x="68.603516"/>
     <use xlink:href="#DejaVuSans-73" x="130.126953"/>
     <use xlink:href="#DejaVuSans-74" x="182.226562"/>
     <use xlink:href="#DejaVuSans-20" x="221.435547"/>
     <use xlink:href="#DejaVuSans-54" x="253.222656"/>
     <use xlink:href="#DejaVuSans-72" x="299.556641"/>
     <use xlink:href="#DejaVuSans-69" x="340.669922"/>
     <use xlink:href="#DejaVuSans-61" x="368.453125"/>
     <use xlink:href="#DejaVuSans-6c" x="429.732422"/>
     <use xlink:href="#DejaVuSans-73" x="457.515625"/>
     <use xlink:href="#DejaVuSans-20" x="509.615234"/>
     <use xlink:href="#DejaVuSans-28" x="541.402344"/>
     <use xlink:href="#DejaVuSans-56" x="580.416016"/>
     <use xlink:href="#DejaVuSans-65" x="641.074219"/>
     <use xlink:href="#DejaVuSans-63" x="702.597656"/>
     <use xlink:href="#DejaVuSans-74" x="757.578125"/>
     <use xlink:href="#DejaVuSans-6f" x="796.787109"/>
     <use xlink:href="#DejaVuSans-72" x="857.96875"/>
     <use xlink:href="#DejaVuSans-20" x="899.082031"/>
     <use xlink:href="#DejaVuSans-78" x="930.869141"/>
     <use xlink:href="#DejaVuSans-20" x="990.048828"/>
     <use xlink:href="#DejaVuSans-47" x="1021.835938"/>
     <use xlink:href="#DejaVuSans-6c" x="1099.326172"/>
     <use xlink:href="#DejaVuSans-6f" x="1127.109375"/>
     <use xlink:href="#DejaVuSans-62" x="1188.291016"/>
     <use xlink:href="#DejaVuSans-61" x="1251.767578"/>
     <use xlink:href="#DejaVuSans-6c" x="1313.046875"/>
     <use xlink:href="#DejaVuSans-20" x="1340.830078"/>
     <use xlink:href="#DejaVuSans-4f" x="1372.617188"/>
     <use xlink:href="#DejaVuSans-6e" x="1451.328125"/>
     <use xlink:href="#DejaVuSans-6c" x="1514.707031"/>
     <use xlink:href="#DejaVuSans-79" x="1542.490234"/>
     <use xlink:href="#DejaVuSans-29" x="1601.669922"/>
    </g>
   </g>
  </g>
  <g id="legend_1">
   <g id="text_17">
    <!-- Trial -->
    <g style="fill: #262626" transform="translate(350.80753 143.995312)scale(0.12 -0.12)">
     <use xlink:href="#DejaVuSans-54"/>
     <use xlink:href="#DejaVuSans-72" x="46.333984"/>
     <use xlink:href="#DejaVuSans-69" x="87.447266"/>
     <use xlink:href="#DejaVuSans-61" x="115.230469"/>
     <use xlink:href="#DejaVuSans-6c" x="176.509766"/>
    </g>
   </g>
   <g id="line2d_24">
    <path d="M 344.16503 156.499219 
L 355.16503 156.499219 
L 366.16503 156.499219 
" style="fill: none; stroke: #edd1cb; stroke-width: 1.5; stroke-linecap: round"/>
   </g>
   <g id="text_18">
    <!-- 0 -->
    <g style="fill: #262626" transform="translate(374.96503 160.349219)scale(0.11 -0.11)">
     <use xlink:href="#DejaVuSans-30"/>
    </g>
   </g>
   <g id="line2d_25">
    <path d="M 344.16503 172.645156 
L 355.16503 172.645156 
L 366.16503 172.645156 
" style="fill: none; stroke: #d499a7; stroke-width: 1.5; stroke-linecap: round"/>
   </g>
   <g id="text_19">
    <!-- 1 -->
    <g style="fill: #262626" transform="translate(374.96503 176.495156)scale(0.11 -0.11)">
     <use xlink:href="#DejaVuSans-31"/>
    </g>
   </g>
   <g id="line2d_26">
    <path d="M 344.16503 188.791094 
L 355.16503 188.791094 
L 366.16503 188.791094 
" style="fill: none; stroke: #a9678f; stroke-width: 1.5; stroke-linecap: round"/>
   </g>
   <g id="text_20">
    <!-- 2 -->
    <g style="fill: #262626" transform="translate(374.96503 192.641094)scale(0.11 -0.11)">
     <use xlink:href="#DejaVuSans-32"/>
    </g>
   </g>
   <g id="line2d_27">
    <path d="M 344.16503 204.937031 
L 355.16503 204.937031 
L 366.16503 204.937031 
" style="fill: none; stroke: #6c3f70; stroke-width: 1.5; stroke-linecap: round"/>
   </g>
   <g id="text_21">
    <!-- 3 -->
    <g style="fill: #262626" transform="translate(374.96503 208.787031)scale(0.11 -0.11)">
     <use xlink:href="#DejaVuSans-33"/>
    </g>
   </g>
   <g id="line2d_28">
    <path d="M 344.16503 221.082969 
L 355.16503 221.082969 
L 366.16503 221.082969 
" style="fill: none; stroke: #2d1e3e; stroke-width: 1.5; stroke-linecap: round"/>
   </g>
   <g id="text_22">
    <!-- 4 -->
    <g style="fill: #262626" transform="translate(374.96503 224.932969)scale(0.11 -0.11)">
     <use xlink:href="#DejaVuSans-34"/>
    </g>
   </g>
  </g>
 </g>
 <defs>
  <clipPath id="p78d4863256">
   <rect x="67.3075" y="22.318125" width="272.17008" height="296.82"/>
  </clipPath>
 </defs>
</svg>
