<?xml version="1.0" encoding="utf-8" standalone="no"?>
<!DOCTYPE svg PUBLIC "-//W3C//DTD SVG 1.1//EN"
  "http://www.w3.org/Graphics/SVG/1.1/DTD/svg11.dtd">
<svg xmlns:xlink="http://www.w3.org/1999/xlink" width="393.622805pt" height="362.097812pt" viewBox="0 0 393.622805 362.097812" xmlns="http://www.w3.org/2000/svg" version="1.1">
 <metadata>
  <rdf:RDF xmlns:dc="http://purl.org/dc/elements/1.1/" xmlns:cc="http://creativecommons.org/ns#" xmlns:rdf="http://www.w3.org/1999/02/22-rdf-syntax-ns#">
   <cc:Work>
    <dc:type rdf:resource="http://purl.org/dc/dcmitype/StillImage"/>
    <dc:date>2022-11-20T08:31:26.600059</dc:date>
    <dc:format>image/svg+xml</dc:format>
    <dc:creator>
     <cc:Agent>
      <dc:title>Matplotlib v3.5.2, https://matplotlib.org/</dc:title>
     </cc:Agent>
    </dc:creator>
   </cc:Work>
  </rdf:RDF>
 </metadata>
 <defs>
  <style type="text/css">*{stroke-linejoin: round; stroke-linecap: butt}</style>
 </defs>
 <g id="figure_1">
  <g id="patch_1">
   <path d="M 0 362.097812 
L 393.622805 362.097812 
L 393.622805 0 
L 0 0 
z
" style="fill: #ffffff"/>
  </g>
  <g id="axes_1">
   <g id="patch_2">
    <path d="M 53.31 319.138125 
L 341.236605 319.138125 
L 341.236605 22.318125 
L 53.31 22.318125 
z
" style="fill: #eaeaf2"/>
   </g>
   <g id="matplotlib.axis_1">
    <g id="xtick_1">
     <g id="line2d_1">
      <path d="M 66.397573 319.138125 
L 66.397573 22.318125 
" clip-path="url(#p909e0cca19)" style="fill: none; stroke: #ffffff; stroke-linecap: round"/>
     </g>
     <g id="text_1">
      <!-- 0 -->
      <g style="fill: #262626" transform="translate(62.898198 336.996406)scale(0.11 -0.11)">
       <defs>
        <path id="DejaVuSans-30" d="M 2034 4250 
Q 1547 4250 1301 3770 
Q 1056 3291 1056 2328 
Q 1056 1369 1301 889 
Q 1547 409 2034 409 
Q 2525 409 2770 889 
Q 3016 1369 3016 2328 
Q 3016 3291 2770 3770 
Q 2525 4250 2034 4250 
z
M 2034 4750 
Q 2819 4750 3233 4129 
Q 3647 3509 3647 2328 
Q 3647 1150 3233 529 
Q 2819 -91 2034 -91 
Q 1250 -91 836 529 
Q 422 1150 422 2328 
Q 422 3509 836 4129 
Q 1250 4750 2034 4750 
z
" transform="scale(0.015625)"/>
       </defs>
       <use xlink:href="#DejaVuSans-30"/>
      </g>
     </g>
    </g>
    <g id="xtick_2">
     <g id="line2d_2">
      <path d="M 132.164271 319.138125 
L 132.164271 22.318125 
" clip-path="url(#p909e0cca19)" style="fill: none; stroke: #ffffff; stroke-linecap: round"/>
     </g>
     <g id="text_2">
      <!-- 50 -->
      <g style="fill: #262626" transform="translate(125.165521 336.996406)scale(0.11 -0.11)">
       <defs>
        <path id="DejaVuSans-35" d="M 691 4666 
L 3169 4666 
L 3169 4134 
L 1269 4134 
L 1269 2991 
Q 1406 3038 1543 3061 
Q 1681 3084 1819 3084 
Q 2600 3084 3056 2656 
Q 3513 2228 3513 1497 
Q 3513 744 3044 326 
Q 2575 -91 1722 -91 
Q 1428 -91 1123 -41 
Q 819 9 494 109 
L 494 744 
Q 775 591 1075 516 
Q 1375 441 1709 441 
Q 2250 441 2565 725 
Q 2881 1009 2881 1497 
Q 2881 1984 2565 2268 
Q 2250 2553 1709 2553 
Q 1456 2553 1204 2497 
Q 953 2441 691 2322 
L 691 4666 
z
" transform="scale(0.015625)"/>
       </defs>
       <use xlink:href="#DejaVuSans-35"/>
       <use xlink:href="#DejaVuSans-30" x="63.623047"/>
      </g>
     </g>
    </g>
    <g id="xtick_3">
     <g id="line2d_3">
      <path d="M 197.930969 319.138125 
L 197.930969 22.318125 
" clip-path="url(#p909e0cca19)" style="fill: none; stroke: #ffffff; stroke-linecap: round"/>
     </g>
     <g id="text_3">
      <!-- 100 -->
      <g style="fill: #262626" transform="translate(187.432844 336.996406)scale(0.11 -0.11)">
       <defs>
        <path id="DejaVuSans-31" d="M 794 531 
L 1825 531 
L 1825 4091 
L 703 3866 
L 703 4441 
L 1819 4666 
L 2450 4666 
L 2450 531 
L 3481 531 
L 3481 0 
L 794 0 
L 794 531 
z
" transform="scale(0.015625)"/>
       </defs>
       <use xlink:href="#DejaVuSans-31"/>
       <use xlink:href="#DejaVuSans-30" x="63.623047"/>
       <use xlink:href="#DejaVuSans-30" x="127.246094"/>
      </g>
     </g>
    </g>
    <g id="xtick_4">
     <g id="line2d_4">
      <path d="M 263.697668 319.138125 
L 263.697668 22.318125 
" clip-path="url(#p909e0cca19)" style="fill: none; stroke: #ffffff; stroke-linecap: round"/>
     </g>
     <g id="text_4">
      <!-- 150 -->
      <g style="fill: #262626" transform="translate(253.199543 336.996406)scale(0.11 -0.11)">
       <use xlink:href="#DejaVuSans-31"/>
       <use xlink:href="#DejaVuSans-35" x="63.623047"/>
       <use xlink:href="#DejaVuSans-30" x="127.246094"/>
      </g>
     </g>
    </g>
    <g id="xtick_5">
     <g id="line2d_5">
      <path d="M 329.464366 319.138125 
L 329.464366 22.318125 
" clip-path="url(#p909e0cca19)" style="fill: none; stroke: #ffffff; stroke-linecap: round"/>
     </g>
     <g id="text_5">
      <!-- 200 -->
      <g style="fill: #262626" transform="translate(318.966241 336.996406)scale(0.11 -0.11)">
       <defs>
        <path id="DejaVuSans-32" d="M 1228 531 
L 3431 531 
L 3431 0 
L 469 0 
L 469 531 
Q 828 903 1448 1529 
Q 2069 2156 2228 2338 
Q 2531 2678 2651 2914 
Q 2772 3150 2772 3378 
Q 2772 3750 2511 3984 
Q 2250 4219 1831 4219 
Q 1534 4219 1204 4116 
Q 875 4013 500 3803 
L 500 4441 
Q 881 4594 1212 4672 
Q 1544 4750 1819 4750 
Q 2544 4750 2975 4387 
Q 3406 4025 3406 3419 
Q 3406 3131 3298 2873 
Q 3191 2616 2906 2266 
Q 2828 2175 2409 1742 
Q 1991 1309 1228 531 
z
" transform="scale(0.015625)"/>
       </defs>
       <use xlink:href="#DejaVuSans-32"/>
       <use xlink:href="#DejaVuSans-30" x="63.623047"/>
       <use xlink:href="#DejaVuSans-30" x="127.246094"/>
      </g>
     </g>
    </g>
    <g id="text_6">
     <!-- Generation -->
     <g style="fill: #262626" transform="translate(163.80174 352.402187)scale(0.12 -0.12)">
      <defs>
       <path id="DejaVuSans-47" d="M 3809 666 
L 3809 1919 
L 2778 1919 
L 2778 2438 
L 4434 2438 
L 4434 434 
Q 4069 175 3628 42 
Q 3188 -91 2688 -91 
Q 1594 -91 976 548 
Q 359 1188 359 2328 
Q 359 3472 976 4111 
Q 1594 4750 2688 4750 
Q 3144 4750 3555 4637 
Q 3966 4525 4313 4306 
L 4313 3634 
Q 3963 3931 3569 4081 
Q 3175 4231 2741 4231 
Q 1884 4231 1454 3753 
Q 1025 3275 1025 2328 
Q 1025 1384 1454 906 
Q 1884 428 2741 428 
Q 3075 428 3337 486 
Q 3600 544 3809 666 
z
" transform="scale(0.015625)"/>
       <path id="DejaVuSans-65" d="M 3597 1894 
L 3597 1613 
L 953 1613 
Q 991 1019 1311 708 
Q 1631 397 2203 397 
Q 2534 397 2845 478 
Q 3156 559 3463 722 
L 3463 178 
Q 3153 47 2828 -22 
Q 2503 -91 2169 -91 
Q 1331 -91 842 396 
Q 353 884 353 1716 
Q 353 2575 817 3079 
Q 1281 3584 2069 3584 
Q 2775 3584 3186 3129 
Q 3597 2675 3597 1894 
z
M 3022 2063 
Q 3016 2534 2758 2815 
Q 2500 3097 2075 3097 
Q 1594 3097 1305 2825 
Q 1016 2553 972 2059 
L 3022 2063 
z
" transform="scale(0.015625)"/>
       <path id="DejaVuSans-6e" d="M 3513 2113 
L 3513 0 
L 2938 0 
L 2938 2094 
Q 2938 2591 2744 2837 
Q 2550 3084 2163 3084 
Q 1697 3084 1428 2787 
Q 1159 2491 1159 1978 
L 1159 0 
L 581 0 
L 581 3500 
L 1159 3500 
L 1159 2956 
Q 1366 3272 1645 3428 
Q 1925 3584 2291 3584 
Q 2894 3584 3203 3211 
Q 3513 2838 3513 2113 
z
" transform="scale(0.015625)"/>
       <path id="DejaVuSans-72" d="M 2631 2963 
Q 2534 3019 2420 3045 
Q 2306 3072 2169 3072 
Q 1681 3072 1420 2755 
Q 1159 2438 1159 1844 
L 1159 0 
L 581 0 
L 581 3500 
L 1159 3500 
L 1159 2956 
Q 1341 3275 1631 3429 
Q 1922 3584 2338 3584 
Q 2397 3584 2469 3576 
Q 2541 3569 2628 3553 
L 2631 2963 
z
" transform="scale(0.015625)"/>
       <path id="DejaVuSans-61" d="M 2194 1759 
Q 1497 1759 1228 1600 
Q 959 1441 959 1056 
Q 959 750 1161 570 
Q 1363 391 1709 391 
Q 2188 391 2477 730 
Q 2766 1069 2766 1631 
L 2766 1759 
L 2194 1759 
z
M 3341 1997 
L 3341 0 
L 2766 0 
L 2766 531 
Q 2569 213 2275 61 
Q 1981 -91 1556 -91 
Q 1019 -91 701 211 
Q 384 513 384 1019 
Q 384 1609 779 1909 
Q 1175 2209 1959 2209 
L 2766 2209 
L 2766 2266 
Q 2766 2663 2505 2880 
Q 2244 3097 1772 3097 
Q 1472 3097 1187 3025 
Q 903 2953 641 2809 
L 641 3341 
Q 956 3463 1253 3523 
Q 1550 3584 1831 3584 
Q 2591 3584 2966 3190 
Q 3341 2797 3341 1997 
z
" transform="scale(0.015625)"/>
       <path id="DejaVuSans-74" d="M 1172 4494 
L 1172 3500 
L 2356 3500 
L 2356 3053 
L 1172 3053 
L 1172 1153 
Q 1172 725 1289 603 
Q 1406 481 1766 481 
L 2356 481 
L 2356 0 
L 1766 0 
Q 1100 0 847 248 
Q 594 497 594 1153 
L 594 3053 
L 172 3053 
L 172 3500 
L 594 3500 
L 594 4494 
L 1172 4494 
z
" transform="scale(0.015625)"/>
       <path id="DejaVuSans-69" d="M 603 3500 
L 1178 3500 
L 1178 0 
L 603 0 
L 603 3500 
z
M 603 4863 
L 1178 4863 
L 1178 4134 
L 603 4134 
L 603 4863 
z
" transform="scale(0.015625)"/>
       <path id="DejaVuSans-6f" d="M 1959 3097 
Q 1497 3097 1228 2736 
Q 959 2375 959 1747 
Q 959 1119 1226 758 
Q 1494 397 1959 397 
Q 2419 397 2687 759 
Q 2956 1122 2956 1747 
Q 2956 2369 2687 2733 
Q 2419 3097 1959 3097 
z
M 1959 3584 
Q 2709 3584 3137 3096 
Q 3566 2609 3566 1747 
Q 3566 888 3137 398 
Q 2709 -91 1959 -91 
Q 1206 -91 779 398 
Q 353 888 353 1747 
Q 353 2609 779 3096 
Q 1206 3584 1959 3584 
z
" transform="scale(0.015625)"/>
      </defs>
      <use xlink:href="#DejaVuSans-47"/>
      <use xlink:href="#DejaVuSans-65" x="77.490234"/>
      <use xlink:href="#DejaVuSans-6e" x="139.013672"/>
      <use xlink:href="#DejaVuSans-65" x="202.392578"/>
      <use xlink:href="#DejaVuSans-72" x="263.916016"/>
      <use xlink:href="#DejaVuSans-61" x="305.029297"/>
      <use xlink:href="#DejaVuSans-74" x="366.308594"/>
      <use xlink:href="#DejaVuSans-69" x="405.517578"/>
      <use xlink:href="#DejaVuSans-6f" x="433.300781"/>
      <use xlink:href="#DejaVuSans-6e" x="494.482422"/>
     </g>
    </g>
   </g>
   <g id="matplotlib.axis_2">
    <g id="ytick_1">
     <g id="line2d_6">
      <path d="M 53.31 305.646307 
L 341.236605 305.646307 
" clip-path="url(#p909e0cca19)" style="fill: none; stroke: #ffffff; stroke-linecap: round"/>
     </g>
     <g id="text_7">
      <!-- 0 -->
      <g style="fill: #262626" transform="translate(36.81125 309.825447)scale(0.11 -0.11)">
       <use xlink:href="#DejaVuSans-30"/>
      </g>
     </g>
    </g>
    <g id="ytick_2">
     <g id="line2d_7">
      <path d="M 53.31 268.983757 
L 341.236605 268.983757 
" clip-path="url(#p909e0cca19)" style="fill: none; stroke: #ffffff; stroke-linecap: round"/>
     </g>
     <g id="text_8">
      <!-- 25 -->
      <g style="fill: #262626" transform="translate(29.8125 273.162898)scale(0.11 -0.11)">
       <use xlink:href="#DejaVuSans-32"/>
       <use xlink:href="#DejaVuSans-35" x="63.623047"/>
      </g>
     </g>
    </g>
    <g id="ytick_3">
     <g id="line2d_8">
      <path d="M 53.31 232.321208 
L 341.236605 232.321208 
" clip-path="url(#p909e0cca19)" style="fill: none; stroke: #ffffff; stroke-linecap: round"/>
     </g>
     <g id="text_9">
      <!-- 50 -->
      <g style="fill: #262626" transform="translate(29.8125 236.500349)scale(0.11 -0.11)">
       <use xlink:href="#DejaVuSans-35"/>
       <use xlink:href="#DejaVuSans-30" x="63.623047"/>
      </g>
     </g>
    </g>
    <g id="ytick_4">
     <g id="line2d_9">
      <path d="M 53.31 195.658659 
L 341.236605 195.658659 
" clip-path="url(#p909e0cca19)" style="fill: none; stroke: #ffffff; stroke-linecap: round"/>
     </g>
     <g id="text_10">
      <!-- 75 -->
      <g style="fill: #262626" transform="translate(29.8125 199.837799)scale(0.11 -0.11)">
       <defs>
        <path id="DejaVuSans-37" d="M 525 4666 
L 3525 4666 
L 3525 4397 
L 1831 0 
L 1172 0 
L 2766 4134 
L 525 4134 
L 525 4666 
z
" transform="scale(0.015625)"/>
       </defs>
       <use xlink:href="#DejaVuSans-37"/>
       <use xlink:href="#DejaVuSans-35" x="63.623047"/>
      </g>
     </g>
    </g>
    <g id="ytick_5">
     <g id="line2d_10">
      <path d="M 53.31 158.996109 
L 341.236605 158.996109 
" clip-path="url(#p909e0cca19)" style="fill: none; stroke: #ffffff; stroke-linecap: round"/>
     </g>
     <g id="text_11">
      <!-- 100 -->
      <g style="fill: #262626" transform="translate(22.81375 163.17525)scale(0.11 -0.11)">
       <use xlink:href="#DejaVuSans-31"/>
       <use xlink:href="#DejaVuSans-30" x="63.623047"/>
       <use xlink:href="#DejaVuSans-30" x="127.246094"/>
      </g>
     </g>
    </g>
    <g id="ytick_6">
     <g id="line2d_11">
      <path d="M 53.31 122.33356 
L 341.236605 122.33356 
" clip-path="url(#p909e0cca19)" style="fill: none; stroke: #ffffff; stroke-linecap: round"/>
     </g>
     <g id="text_12">
      <!-- 125 -->
      <g style="fill: #262626" transform="translate(22.81375 126.5127)scale(0.11 -0.11)">
       <use xlink:href="#DejaVuSans-31"/>
       <use xlink:href="#DejaVuSans-32" x="63.623047"/>
       <use xlink:href="#DejaVuSans-35" x="127.246094"/>
      </g>
     </g>
    </g>
    <g id="ytick_7">
     <g id="line2d_12">
      <path d="M 53.31 85.67101 
L 341.236605 85.67101 
" clip-path="url(#p909e0cca19)" style="fill: none; stroke: #ffffff; stroke-linecap: round"/>
     </g>
     <g id="text_13">
      <!-- 150 -->
      <g style="fill: #262626" transform="translate(22.81375 89.850151)scale(0.11 -0.11)">
       <use xlink:href="#DejaVuSans-31"/>
       <use xlink:href="#DejaVuSans-35" x="63.623047"/>
       <use xlink:href="#DejaVuSans-30" x="127.246094"/>
      </g>
     </g>
    </g>
    <g id="ytick_8">
     <g id="line2d_13">
      <path d="M 53.31 49.008461 
L 341.236605 49.008461 
" clip-path="url(#p909e0cca19)" style="fill: none; stroke: #ffffff; stroke-linecap: round"/>
     </g>
     <g id="text_14">
      <!-- 175 -->
      <g style="fill: #262626" transform="translate(22.81375 53.187602)scale(0.11 -0.11)">
       <use xlink:href="#DejaVuSans-31"/>
       <use xlink:href="#DejaVuSans-37" x="63.623047"/>
       <use xlink:href="#DejaVuSans-35" x="127.246094"/>
      </g>
     </g>
    </g>
    <g id="text_15">
     <!-- Fitness -->
     <g style="fill: #262626" transform="translate(16.318125 191.50875)rotate(-90)scale(0.12 -0.12)">
      <defs>
       <path id="DejaVuSans-46" d="M 628 4666 
L 3309 4666 
L 3309 4134 
L 1259 4134 
L 1259 2759 
L 3109 2759 
L 3109 2228 
L 1259 2228 
L 1259 0 
L 628 0 
L 628 4666 
z
" transform="scale(0.015625)"/>
       <path id="DejaVuSans-73" d="M 2834 3397 
L 2834 2853 
Q 2591 2978 2328 3040 
Q 2066 3103 1784 3103 
Q 1356 3103 1142 2972 
Q 928 2841 928 2578 
Q 928 2378 1081 2264 
Q 1234 2150 1697 2047 
L 1894 2003 
Q 2506 1872 2764 1633 
Q 3022 1394 3022 966 
Q 3022 478 2636 193 
Q 2250 -91 1575 -91 
Q 1294 -91 989 -36 
Q 684 19 347 128 
L 347 722 
Q 666 556 975 473 
Q 1284 391 1588 391 
Q 1994 391 2212 530 
Q 2431 669 2431 922 
Q 2431 1156 2273 1281 
Q 2116 1406 1581 1522 
L 1381 1569 
Q 847 1681 609 1914 
Q 372 2147 372 2553 
Q 372 3047 722 3315 
Q 1072 3584 1716 3584 
Q 2034 3584 2315 3537 
Q 2597 3491 2834 3397 
z
" transform="scale(0.015625)"/>
      </defs>
      <use xlink:href="#DejaVuSans-46"/>
      <use xlink:href="#DejaVuSans-69" x="50.269531"/>
      <use xlink:href="#DejaVuSans-74" x="78.052734"/>
      <use xlink:href="#DejaVuSans-6e" x="117.261719"/>
      <use xlink:href="#DejaVuSans-65" x="180.640625"/>
      <use xlink:href="#DejaVuSans-73" x="242.164062"/>
      <use xlink:href="#DejaVuSans-73" x="294.263672"/>
     </g>
    </g>
   </g>
   <g id="PolyCollection_1">
    <defs>
     <path id="m657208304a" d="M 66.397573 -56.772303 
L 66.397573 -56.451506 
L 67.712907 -58.10132 
L 69.028241 -58.742915 
L 70.343575 -72.033089 
L 71.658909 -89.814426 
L 72.974243 -91.280928 
L 74.289577 -100.446565 
L 75.604911 -93.708676 
L 76.920245 -100.446565 
L 78.235579 -100.446565 
L 79.550913 -93.572337 
L 80.866247 -93.709822 
L 82.181581 -89.95191 
L 83.496915 -93.801478 
L 84.812248 -96.322028 
L 86.127582 -93.938962 
L 87.442916 -92.33383 
L 88.75825 -88.256267 
L 90.073584 -100.446565 
L 91.388918 -92.283419 
L 92.704252 -93.572337 
L 94.019586 -93.572337 
L 95.33492 -93.663993 
L 96.650254 -96.459513 
L 97.965588 -96.459513 
L 99.280922 -96.322028 
L 100.596256 -94.075301 
L 101.91159 -96.459513 
L 103.226924 -96.688654 
L 104.542258 -100.446565 
L 105.857592 -94.85438 
L 107.172926 -97.192764 
L 108.48826 -93.572337 
L 109.803594 -93.938962 
L 111.118928 -92.746284 
L 112.434262 -97.696874 
L 113.749596 -92.974279 
L 115.06493 -95.12935 
L 116.380264 -101.913067 
L 117.695598 -102.279692 
L 119.010932 -95.63346 
L 120.326266 -100.352617 
L 121.641599 -96.596997 
L 122.956933 -95.862601 
L 124.272267 -96.411393 
L 125.587601 -104.891899 
L 126.902935 -102.142208 
L 128.218269 -100.766217 
L 129.533603 -100.263252 
L 130.848937 -105.258525 
L 132.164271 -105.991776 
L 133.479605 -103.055335 
L 134.794939 -96.963623 
L 136.110273 -106.954167 
L 137.425607 -103.607564 
L 138.740941 -101.821411 
L 140.056275 -100.263252 
L 141.371609 -106.954167 
L 142.686943 -100.30908 
L 144.002277 -100.58405 
L 145.317611 -112.178581 
L 146.632945 -101.821411 
L 147.948279 -103.562882 
L 149.263613 -101.821411 
L 150.578947 -98.384297 
L 151.894281 -103.60871 
L 153.209615 -98.383151 
L 154.524949 -112.178581 
L 155.840283 -102.09638 
L 157.155617 -107.091652 
L 158.470951 -105.396009 
L 159.786284 -112.178581 
L 161.101618 -98.475953 
L 162.416952 -101.729754 
L 163.732286 -103.562882 
L 165.04762 -112.178581 
L 166.362954 -103.60871 
L 167.678288 -112.178581 
L 168.993622 -107.091652 
L 170.308956 -101.6908 
L 171.62429 -98.705094 
L 172.939624 -112.178581 
L 174.254958 -103.562882 
L 175.570292 -98.384297 
L 176.885626 -101.821411 
L 178.20096 -106.954167 
L 179.516294 -104.021164 
L 180.831628 -101.041186 
L 182.146962 -101.68278 
L 183.462296 -111.903612 
L 184.77763 -98.887261 
L 186.092964 -107.091652 
L 187.408298 -101.821411 
L 188.723632 -112.178581 
L 190.038966 -103.654538 
L 191.3543 -106.954167 
L 192.669634 -101.729754 
L 193.984968 -107.091652 
L 195.300302 -101.219916 
L 196.615636 -105.396009 
L 197.930969 -106.910631 
L 199.246303 -107.091652 
L 200.561637 -106.954167 
L 201.876971 -96.505341 
L 203.192305 -106.954167 
L 204.507639 -100.171596 
L 205.822973 -96.551169 
L 207.138307 -103.700366 
L 208.453641 -98.384297 
L 209.768975 -112.178581 
L 211.084309 -103.700366 
L 212.399643 -112.178581 
L 213.714977 -106.954167 
L 215.030311 -107.091652 
L 216.345645 -112.178581 
L 217.660979 -106.954167 
L 218.976313 -107.091652 
L 220.291647 -100.077648 
L 221.606981 -98.933089 
L 222.922315 -107.091652 
L 224.237649 -107.091652 
L 225.552983 -100.125768 
L 226.868317 -100.125768 
L 228.183651 -107.091652 
L 229.498985 -103.60871 
L 230.814319 -106.220917 
L 232.129653 -111.078704 
L 233.444987 -103.242084 
L 234.760321 -103.285621 
L 236.075654 -112.178581 
L 237.390988 -107.229137 
L 238.706322 -107.091652 
L 240.021656 -102.142208 
L 241.33699 -98.430125 
L 242.652324 -98.428979 
L 243.967658 -99.988283 
L 245.282992 -98.246812 
L 246.598326 -103.60871 
L 247.91366 -106.220917 
L 249.228994 -103.562882 
L 250.544328 -106.954167 
L 251.859662 -107.091652 
L 253.174996 -112.178581 
L 254.49033 -103.792023 
L 255.805664 -111.903612 
L 257.120998 -102.036803 
L 258.436332 -101.729754 
L 259.751666 -100.125768 
L 261.067 -107.091652 
L 262.382334 -98.567609 
L 263.697668 -103.975335 
L 265.013002 -103.60871 
L 266.328336 -103.928361 
L 267.64367 -100.721534 
L 268.959004 -100.445419 
L 270.274338 -103.834414 
L 271.589672 -107.091652 
L 272.905006 -111.078704 
L 274.220339 -100.718097 
L 275.535673 -107.091652 
L 276.851007 -100.58405 
L 278.166341 -106.954167 
L 279.481675 -107.088215 
L 280.797009 -98.79675 
L 282.112343 -100.537076 
L 283.427677 -99.069428 
L 284.743011 -107.363184 
L 286.058345 -106.175088 
L 287.373679 -103.745049 
L 288.689013 -101.132842 
L 290.004347 -107.366621 
L 291.319681 -112.45355 
L 292.635015 -98.842578 
L 293.950349 -112.591034 
L 295.265683 -112.591034 
L 296.581017 -100.766217 
L 297.896351 -100.902555 
L 299.211685 -107.366621 
L 300.527019 -107.779075 
L 301.842353 -107.504106 
L 303.157687 -104.158648 
L 304.473021 -112.178581 
L 305.788355 -102.050552 
L 307.103689 -107.366621 
L 308.419023 -104.204476 
L 309.734357 -104.432472 
L 311.04969 -112.866004 
L 312.365024 -108.603982 
L 313.680358 -108.741467 
L 314.995692 -108.741467 
L 316.311026 -113.828396 
L 317.62636 -105.487666 
L 318.941694 -108.875514 
L 320.257028 -109.291405 
L 321.572362 -105.62515 
L 322.887696 -103.286767 
L 324.20303 -105.165723 
L 325.518364 -112.728519 
L 326.833698 -104.846071 
L 328.149032 -107.961242 
L 328.149032 -114.9741 
L 328.149032 -114.9741 
L 326.833698 -114.286677 
L 325.518364 -114.928272 
L 324.20303 -114.653303 
L 322.887696 -114.378334 
L 321.572362 -115.065757 
L 320.257028 -115.615695 
L 318.941694 -115.065757 
L 317.62636 -114.790787 
L 316.311026 -115.47821 
L 314.995692 -115.203241 
L 313.680358 -114.931709 
L 312.365024 -114.653303 
L 311.04969 -114.240849 
L 309.734357 -113.415942 
L 308.419023 -113.140973 
L 307.103689 -113.281894 
L 305.788355 -112.591034 
L 304.473021 -112.866004 
L 303.157687 -112.591034 
L 301.842353 -113.415942 
L 300.527019 -113.828396 
L 299.211685 -113.415942 
L 297.896351 -112.728519 
L 296.581017 -112.866004 
L 295.265683 -113.96588 
L 293.950349 -113.828396 
L 292.635015 -111.720299 
L 291.319681 -113.553426 
L 290.004347 -113.553426 
L 288.689013 -112.728519 
L 287.373679 -112.866004 
L 286.058345 -113.553426 
L 284.743011 -113.140973 
L 283.427677 -111.263163 
L 282.112343 -112.45355 
L 280.797009 -111.032876 
L 279.481675 -112.728519 
L 278.166341 -112.45355 
L 276.851007 -112.178581 
L 275.535673 -112.728519 
L 274.220339 -112.45355 
L 272.905006 -112.591034 
L 271.589672 -112.728519 
L 270.274338 -112.45355 
L 268.959004 -112.316065 
L 267.64367 -112.45355 
L 266.328336 -112.728519 
L 265.013002 -112.591034 
L 263.697668 -112.728519 
L 262.382334 -110.895392 
L 261.067 -112.45355 
L 259.751666 -112.316065 
L 258.436332 -112.178581 
L 257.120998 -112.178581 
L 255.805664 -112.178581 
L 254.49033 -112.178581 
L 253.174996 -112.178581 
L 251.859662 -112.178581 
L 250.544328 -112.178581 
L 249.228994 -112.178581 
L 247.91366 -112.178581 
L 246.598326 -112.178581 
L 245.282992 -110.43711 
L 243.967658 -110.482938 
L 242.652324 -110.482938 
L 241.33699 -110.757907 
L 240.021656 -112.45355 
L 238.706322 -112.591034 
L 237.390988 -112.728519 
L 236.075654 -112.866004 
L 234.760321 -112.2267 
L 233.444987 -112.316065 
L 232.129653 -112.178581 
L 230.814319 -112.178581 
L 229.498985 -112.178581 
L 228.183651 -112.178581 
L 226.868317 -112.178581 
L 225.552983 -112.178581 
L 224.237649 -112.178581 
L 222.922315 -112.178581 
L 221.606981 -110.712079 
L 220.291647 -111.44533 
L 218.976313 -112.178581 
L 217.660979 -112.178581 
L 216.345645 -112.178581 
L 215.030311 -112.178581 
L 213.714977 -112.178581 
L 212.399643 -112.178581 
L 211.084309 -112.178581 
L 209.768975 -112.178581 
L 208.453641 -110.574594 
L 207.138307 -112.178581 
L 205.822973 -110.43711 
L 204.507639 -112.178581 
L 203.192305 -112.178581 
L 201.876971 -110.43711 
L 200.561637 -112.178581 
L 199.246303 -112.178581 
L 197.930969 -112.178581 
L 196.615636 -112.178581 
L 195.300302 -112.178581 
L 193.984968 -112.178581 
L 192.669634 -112.178581 
L 191.3543 -112.178581 
L 190.038966 -112.178581 
L 188.723632 -112.178581 
L 187.408298 -112.178581 
L 186.092964 -112.178581 
L 184.77763 -110.712079 
L 183.462296 -112.178581 
L 182.146962 -112.086924 
L 180.831628 -110.737284 
L 179.516294 -112.178581 
L 178.20096 -112.178581 
L 176.885626 -112.178581 
L 175.570292 -110.482938 
L 174.254958 -112.178581 
L 172.939624 -112.178581 
L 171.62429 -110.528766 
L 170.308956 -112.178581 
L 168.993622 -112.178581 
L 167.678288 -112.178581 
L 166.362954 -112.178581 
L 165.04762 -112.178581 
L 163.732286 -112.178581 
L 162.416952 -112.178581 
L 161.101618 -110.482938 
L 159.786284 -112.178581 
L 158.470951 -112.178581 
L 157.155617 -112.178581 
L 155.840283 -112.178581 
L 154.524949 -112.178581 
L 153.209615 -110.482938 
L 151.894281 -112.178581 
L 150.578947 -110.482938 
L 149.263613 -112.178581 
L 147.948279 -112.178581 
L 146.632945 -112.178581 
L 145.317611 -112.178581 
L 144.002277 -112.178581 
L 142.686943 -112.178581 
L 141.371609 -112.178581 
L 140.056275 -112.178581 
L 138.740941 -112.178581 
L 137.425607 -112.178581 
L 136.110273 -112.178581 
L 134.794939 -110.43711 
L 133.479605 -111.811955 
L 132.164271 -112.178581 
L 130.848937 -112.178581 
L 129.533603 -111.44533 
L 128.218269 -111.08787 
L 126.902935 -111.44533 
L 125.587601 -111.454495 
L 124.272267 -108.970608 
L 122.956933 -108.011653 
L 121.641599 -107.779075 
L 120.326266 -107.045824 
L 119.010932 -105.945947 
L 117.695598 -105.945947 
L 116.380264 -105.579322 
L 115.06493 -103.379569 
L 113.749596 -102.422906 
L 112.434262 -103.746194 
L 111.118928 -101.683926 
L 109.803594 -101.546441 
L 108.48826 -101.179816 
L 107.172926 -102.646318 
L 105.857592 -102.646318 
L 104.542258 -103.012943 
L 103.226924 -101.913067 
L 101.91159 -101.546441 
L 100.596256 -101.179816 
L 99.280922 -100.446565 
L 97.965588 -100.446565 
L 96.650254 -100.446565 
L 95.33492 -100.446565 
L 94.019586 -100.446565 
L 92.704252 -100.446565 
L 91.388918 -100.446565 
L 90.073584 -100.446565 
L 88.75825 -99.117548 
L 87.442916 -100.446565 
L 86.127582 -100.446565 
L 84.812248 -100.446565 
L 83.496915 -100.446565 
L 82.181581 -99.163376 
L 80.866247 -100.446565 
L 79.550913 -100.446565 
L 78.235579 -100.446565 
L 76.920245 -100.446565 
L 75.604911 -100.446565 
L 74.289577 -100.446565 
L 72.974243 -100.446565 
L 71.658909 -99.163376 
L 70.343575 -86.331483 
L 69.028241 -65.43383 
L 67.712907 -58.834571 
L 66.397573 -56.772303 
z
" style="stroke: #edd1cb; stroke-opacity: 0.2"/>
    </defs>
    <g clip-path="url(#p909e0cca19)">
     <use xlink:href="#m657208304a" x="0" y="362.097812" style="fill: #edd1cb; fill-opacity: 0.2; stroke: #edd1cb; stroke-opacity: 0.2"/>
    </g>
   </g>
   <g id="PolyCollection_2">
    <defs>
     <path id="m6813e76ec5" d="M 66.397573 -57.0931 
L 66.397573 -56.451506 
L 67.712907 -58.742915 
L 69.028241 -59.155369 
L 70.343575 -59.245879 
L 71.658909 -66.80753 
L 72.974243 -83.809787 
L 74.289577 -104.571102 
L 75.604911 -100.260961 
L 76.920245 -100.30908 
L 78.235579 -97.829776 
L 79.550913 -104.571102 
L 80.866247 -104.571102 
L 82.181581 -97.971843 
L 83.496915 -101.133988 
L 84.812248 -97.742702 
L 86.127582 -98.246812 
L 87.442916 -100.354909 
L 88.75825 -104.708586 
L 90.073584 -104.708586 
L 91.388918 -100.217424 
L 92.704252 -95.955403 
L 94.019586 -100.767362 
L 95.33492 -97.651046 
L 96.650254 -104.846071 
L 97.965588 -100.825793 
L 99.280922 -104.846071 
L 100.596256 -96.184544 
L 101.91159 -100.859019 
L 103.226924 -104.61693 
L 104.542258 -104.61693 
L 105.857592 -104.61693 
L 107.172926 -104.61693 
L 108.48826 -104.708586 
L 109.803594 -100.629878 
L 111.118928 -100.629878 
L 112.434262 -104.708586 
L 113.749596 -98.063499 
L 115.06493 -97.834358 
L 116.380264 -100.30908 
L 117.695598 -98.109327 
L 119.010932 -100.30908 
L 120.326266 -96.138715 
L 121.641599 -97.605217 
L 122.956933 -100.721534 
L 124.272267 -100.30908 
L 125.587601 -100.30908 
L 126.902935 -95.77209 
L 128.218269 -93.706384 
L 129.533603 -100.58405 
L 130.848937 -97.28442 
L 132.164271 -100.30908 
L 133.479605 -101.133988 
L 134.794939 -100.30908 
L 136.110273 -92.976571 
L 137.425607 -100.30908 
L 138.740941 -104.846071 
L 140.056275 -100.58405 
L 141.371609 -100.446565 
L 142.686943 -104.846071 
L 144.002277 -95.542949 
L 145.317611 -97.651046 
L 146.632945 -104.937727 
L 147.948279 -100.81319 
L 149.263613 -96.13757 
L 150.578947 -104.937727 
L 151.894281 -101.133988 
L 153.209615 -100.217424 
L 154.524949 -94.667631 
L 155.840283 -99.942455 
L 157.155617 -100.492393 
L 158.470951 -97.926015 
L 159.786284 -97.374931 
L 161.101618 -101.042331 
L 162.416952 -95.542949 
L 163.732286 -98.521781 
L 165.04762 -96.273909 
L 166.362954 -97.28442 
L 167.678288 -97.101107 
L 168.993622 -99.940164 
L 170.308956 -104.296133 
L 171.62429 -104.571102 
L 172.939624 -100.446565 
L 174.254958 -100.30908 
L 175.570292 -95.998939 
L 176.885626 -101.133988 
L 178.20096 -101.683926 
L 179.516294 -101.683926 
L 180.831628 -101.683926 
L 182.146962 -97.055279 
L 183.462296 -97.742702 
L 184.77763 -101.683926 
L 186.092964 -94.258614 
L 187.408298 -100.30908 
L 188.723632 -100.30908 
L 190.038966 -97.696874 
L 191.3543 -101.683926 
L 192.669634 -97.28442 
L 193.984968 -97.834358 
L 195.300302 -97.513561 
L 196.615636 -95.752613 
L 197.930969 -97.834358 
L 199.246303 -95.955403 
L 200.561637 -100.446565 
L 201.876971 -97.605217 
L 203.192305 -100.58405 
L 204.507639 -100.446565 
L 205.822973 -104.846071 
L 207.138307 -100.30908 
L 208.453641 -93.617019 
L 209.768975 -100.859019 
L 211.084309 -104.846071 
L 212.399643 -100.446565 
L 213.714977 -99.346688 
L 215.030311 -104.846071 
L 216.345645 -104.846071 
L 217.660979 -98.109327 
L 218.976313 -101.133988 
L 220.291647 -97.78853 
L 221.606981 -90.592359 
L 222.922315 -96.183398 
L 224.237649 -104.846071 
L 225.552983 -100.58405 
L 226.868317 -104.846071 
L 228.183651 -97.376076 
L 229.498985 -100.30908 
L 230.814319 -100.30908 
L 232.129653 -93.111764 
L 233.444987 -92.976571 
L 234.760321 -96.230372 
L 236.075654 -97.513561 
L 237.390988 -94.672213 
L 238.706322 -100.446565 
L 240.021656 -104.846071 
L 241.33699 -100.30908 
L 242.652324 -97.376076 
L 243.967658 -104.479445 
L 245.282992 -95.451293 
L 246.598326 -94.807407 
L 247.91366 -100.721534 
L 249.228994 -100.721534 
L 250.544328 -97.192764 
L 251.859662 -93.847306 
L 253.174996 -97.559389 
L 254.49033 -104.571102 
L 255.805664 -100.58405 
L 257.120998 -97.937472 
L 258.436332 -100.58405 
L 259.751666 -100.58405 
L 261.067 -111.766127 
L 262.382334 -148.426385 
L 263.697668 -222.375893 
L 265.013002 -284.81336 
L 266.328336 -326.287869 
L 267.64367 -284.355078 
L 268.959004 -326.287869 
L 270.274338 -285.179986 
L 271.589672 -326.287869 
L 272.905006 -300.99071 
L 274.220339 -284.530371 
L 275.535673 -289.258694 
L 276.851007 -326.287869 
L 278.166341 -326.287869 
L 279.481675 -274.731159 
L 280.797009 -292.558324 
L 282.112343 -284.81336 
L 283.427677 -326.287869 
L 284.743011 -305.527701 
L 286.058345 -269.502163 
L 287.373679 -292.375011 
L 288.689013 -301.128195 
L 290.004347 -326.287869 
L 291.319681 -293.6582 
L 292.635015 -266.287316 
L 293.950349 -285.179986 
L 295.265683 -326.287869 
L 296.581017 -326.287869 
L 297.896351 -326.287869 
L 299.211685 -302.090587 
L 300.527019 -286.140086 
L 301.842353 -302.50304 
L 303.157687 -252.455223 
L 304.473021 -326.287869 
L 305.788355 -326.287869 
L 307.103689 -326.287869 
L 308.419023 -267.536134 
L 309.734357 -302.77801 
L 311.04969 -301.128195 
L 312.365024 -326.287869 
L 313.680358 -275.400251 
L 314.995692 -302.090587 
L 316.311026 -302.77801 
L 317.62636 -326.287869 
L 318.941694 -270.010856 
L 320.257028 -284.400907 
L 321.572362 -326.287869 
L 322.887696 -268.177729 
L 324.20303 -296.407892 
L 325.518364 -300.99071 
L 326.833698 -326.287869 
L 328.149032 -285.913237 
L 328.149032 -326.287869 
L 328.149032 -326.287869 
L 326.833698 -326.287869 
L 325.518364 -326.287869 
L 324.20303 -326.287869 
L 322.887696 -326.287869 
L 321.572362 -326.287869 
L 320.257028 -326.287869 
L 318.941694 -326.287869 
L 317.62636 -326.287869 
L 316.311026 -326.287869 
L 314.995692 -326.287869 
L 313.680358 -326.287869 
L 312.365024 -326.287869 
L 311.04969 -326.287869 
L 309.734357 -326.287869 
L 308.419023 -326.287869 
L 307.103689 -326.287869 
L 305.788355 -326.287869 
L 304.473021 -326.287869 
L 303.157687 -317.992968 
L 301.842353 -326.287869 
L 300.527019 -326.287869 
L 299.211685 -326.287869 
L 297.896351 -326.287869 
L 296.581017 -326.287869 
L 295.265683 -326.287869 
L 293.950349 -326.287869 
L 292.635015 -320.880143 
L 291.319681 -326.287869 
L 290.004347 -326.287869 
L 288.689013 -326.287869 
L 287.373679 -326.287869 
L 286.058345 -326.287869 
L 284.743011 -326.287869 
L 283.427677 -326.287869 
L 282.112343 -326.287869 
L 280.797009 -326.287869 
L 279.481675 -326.287869 
L 278.166341 -326.287869 
L 276.851007 -326.287869 
L 275.535673 -326.287869 
L 274.220339 -326.287869 
L 272.905006 -326.287869 
L 271.589672 -326.287869 
L 270.274338 -326.287869 
L 268.959004 -326.287869 
L 267.64367 -326.287869 
L 266.328336 -326.287869 
L 265.013002 -326.287869 
L 263.697668 -297.186971 
L 262.382334 -229.865364 
L 261.067 -167.193028 
L 259.751666 -125.60624 
L 258.436332 -104.846071 
L 257.120998 -104.846071 
L 255.805664 -104.846071 
L 254.49033 -104.846071 
L 253.174996 -104.754415 
L 251.859662 -103.517053 
L 250.544328 -104.846071 
L 249.228994 -104.846071 
L 247.91366 -104.846071 
L 246.598326 -104.846071 
L 245.282992 -104.754415 
L 243.967658 -104.846071 
L 242.652324 -104.846071 
L 241.33699 -104.846071 
L 240.021656 -104.846071 
L 238.706322 -104.846071 
L 237.390988 -104.662758 
L 236.075654 -104.846071 
L 234.760321 -104.846071 
L 233.444987 -103.471225 
L 232.129653 -103.471225 
L 230.814319 -104.846071 
L 229.498985 -104.846071 
L 228.183651 -104.846071 
L 226.868317 -104.846071 
L 225.552983 -104.846071 
L 224.237649 -104.846071 
L 222.922315 -104.846071 
L 221.606981 -102.005869 
L 220.291647 -104.846071 
L 218.976313 -104.846071 
L 217.660979 -104.846071 
L 216.345645 -104.846071 
L 215.030311 -104.846071 
L 213.714977 -104.846071 
L 212.399643 -104.846071 
L 211.084309 -104.846071 
L 209.768975 -104.846071 
L 208.453641 -103.517053 
L 207.138307 -104.846071 
L 205.822973 -104.846071 
L 204.507639 -104.846071 
L 203.192305 -104.846071 
L 201.876971 -104.846071 
L 200.561637 -104.846071 
L 199.246303 -104.846071 
L 197.930969 -104.846071 
L 196.615636 -104.846071 
L 195.300302 -104.846071 
L 193.984968 -104.846071 
L 192.669634 -104.846071 
L 191.3543 -104.846071 
L 190.038966 -104.846071 
L 188.723632 -104.846071 
L 187.408298 -104.846071 
L 186.092964 -103.792023 
L 184.77763 -104.846071 
L 183.462296 -104.846071 
L 182.146962 -104.846071 
L 180.831628 -104.846071 
L 179.516294 -104.846071 
L 178.20096 -104.846071 
L 176.885626 -104.846071 
L 175.570292 -104.846071 
L 174.254958 -104.846071 
L 172.939624 -104.846071 
L 171.62429 -104.846071 
L 170.308956 -104.846071 
L 168.993622 -104.754415 
L 167.678288 -104.846071 
L 166.362954 -104.754415 
L 165.04762 -104.66505 
L 163.732286 -104.846071 
L 162.416952 -104.479445 
L 161.101618 -104.754415 
L 159.786284 -104.846071 
L 158.470951 -104.937727 
L 157.155617 -105.029384 
L 155.840283 -104.937727 
L 154.524949 -104.754415 
L 153.209615 -105.304353 
L 151.894281 -105.304353 
L 150.578947 -105.579322 
L 149.263613 -105.304353 
L 147.948279 -105.396009 
L 146.632945 -105.579322 
L 145.317611 -105.12104 
L 144.002277 -105.029384 
L 142.686943 -105.12104 
L 141.371609 -104.846071 
L 140.056275 -104.846071 
L 138.740941 -104.846071 
L 137.425607 -104.846071 
L 136.110273 -103.425397 
L 134.794939 -104.846071 
L 133.479605 -104.846071 
L 132.164271 -104.846071 
L 130.848937 -104.846071 
L 129.533603 -104.846071 
L 128.218269 -103.471225 
L 126.902935 -104.571102 
L 125.587601 -104.846071 
L 124.272267 -104.846071 
L 122.956933 -104.846071 
L 121.641599 -104.846071 
L 120.326266 -104.846071 
L 119.010932 -104.846071 
L 117.695598 -104.846071 
L 116.380264 -104.846071 
L 115.06493 -104.846071 
L 113.749596 -104.846071 
L 112.434262 -104.846071 
L 111.118928 -104.846071 
L 109.803594 -104.846071 
L 108.48826 -104.846071 
L 107.172926 -104.846071 
L 105.857592 -104.846071 
L 104.542258 -104.846071 
L 103.226924 -104.846071 
L 101.91159 -104.846071 
L 100.596256 -104.846071 
L 99.280922 -104.846071 
L 97.965588 -104.846071 
L 96.650254 -104.846071 
L 95.33492 -104.846071 
L 94.019586 -104.846071 
L 92.704252 -104.800243 
L 91.388918 -104.846071 
L 90.073584 -104.846071 
L 88.75825 -104.846071 
L 87.442916 -104.846071 
L 86.127582 -104.846071 
L 84.812248 -104.846071 
L 83.496915 -104.846071 
L 82.181581 -104.846071 
L 80.866247 -104.846071 
L 79.550913 -104.846071 
L 78.235579 -104.846071 
L 76.920245 -104.846071 
L 75.604911 -104.846071 
L 74.289577 -104.846071 
L 72.974243 -98.200984 
L 71.658909 -80.695762 
L 70.343575 -64.886183 
L 69.028241 -60.621871 
L 67.712907 -60.117761 
L 66.397573 -57.0931 
z
" style="stroke: #d499a7; stroke-opacity: 0.2"/>
    </defs>
    <g clip-path="url(#p909e0cca19)">
     <use xlink:href="#m6813e76ec5" x="0" y="362.097812" style="fill: #d499a7; fill-opacity: 0.2; stroke: #d499a7; stroke-opacity: 0.2"/>
    </g>
   </g>
   <g id="PolyCollection_3">
    <defs>
     <path id="m16afb759d3" d="M 66.397573 -57.001444 
L 66.397573 -56.497334 
L 67.712907 -57.551382 
L 69.028241 -57.826351 
L 70.343575 -58.284633 
L 71.658909 -60.484386 
L 72.974243 -61.949742 
L 74.289577 -64.379782 
L 75.604911 -65.892112 
L 76.920245 -64.653605 
L 78.235579 -65.158861 
L 79.550913 -64.79109 
L 80.866247 -65.203544 
L 82.181581 -65.754628 
L 83.496915 -64.883892 
L 84.812248 -64.333954 
L 86.127582 -65.754628 
L 87.442916 -64.013156 
L 88.75825 -64.42561 
L 90.073584 -65.204689 
L 91.388918 -66.71702 
L 92.704252 -65.204689 
L 94.019586 -64.150641 
L 95.33492 -64.058985 
L 96.650254 -65.892112 
L 97.965588 -65.892112 
L 99.280922 -65.754628 
L 100.596256 -64.379782 
L 101.91159 -65.249372 
L 103.226924 -66.71702 
L 104.542258 -64.788799 
L 105.857592 -65.158861 
L 107.172926 -65.754628 
L 108.48826 -66.71702 
L 109.803594 -64.057839 
L 111.118928 -65.892112 
L 112.434262 -65.892112 
L 113.749596 -64.608923 
L 115.06493 -64.42561 
L 116.380264 -65.158861 
L 117.695598 -65.204689 
L 119.010932 -66.71702 
L 120.326266 -64.836918 
L 121.641599 -65.754628 
L 122.956933 -66.71702 
L 124.272267 -65.249372 
L 125.587601 -65.113033 
L 126.902935 -65.754628 
L 128.218269 -65.754628 
L 129.533603 -64.836918 
L 130.848937 -65.113033 
L 132.164271 -64.746407 
L 133.479605 -64.975548 
L 134.794939 -64.149495 
L 136.110273 -66.167081 
L 137.425607 -66.167081 
L 138.740941 -66.71702 
L 140.056275 -64.883892 
L 141.371609 -65.158861 
L 142.686943 -63.554875 
L 144.002277 -65.067205 
L 145.317611 -64.792236 
L 146.632945 -65.892112 
L 147.948279 -64.333954 
L 149.263613 -65.892112 
L 150.578947 -65.754628 
L 151.894281 -65.754628 
L 153.209615 -63.875672 
L 154.524949 -64.79109 
L 155.840283 -65.754628 
L 157.155617 -65.204689 
L 158.470951 -64.92972 
L 159.786284 -64.79109 
L 161.101618 -65.571315 
L 162.416952 -65.296346 
L 163.732286 -65.892112 
L 165.04762 -64.881601 
L 166.362954 -64.471438 
L 167.678288 -66.029597 
L 168.993622 -64.788799 
L 170.308956 -64.792236 
L 171.62429 -65.754628 
L 172.939624 -65.892112 
L 174.254958 -63.9215 
L 175.570292 -63.829844 
L 176.885626 -65.754628 
L 178.20096 -64.333954 
L 179.516294 -65.019085 
L 180.831628 -65.203544 
L 182.146962 -65.113033 
L 183.462296 -64.242297 
L 184.77763 -65.754628 
L 186.092964 -65.342174 
L 187.408298 -64.746407 
L 188.723632 -64.792236 
L 190.038966 -64.471438 
L 191.3543 -65.754628 
L 192.669634 -65.113033 
L 193.984968 -64.379782 
L 195.300302 -65.204689 
L 196.615636 -63.554875 
L 197.930969 -63.509046 
L 199.246303 -65.250518 
L 200.561637 -65.892112 
L 201.876971 -65.342174 
L 203.192305 -65.204689 
L 204.507639 -65.204689 
L 205.822973 -65.892112 
L 207.138307 -65.204689 
L 208.453641 -64.242297 
L 209.768975 -65.479658 
L 211.084309 -66.71702 
L 212.399643 -65.892112 
L 213.714977 -66.029597 
L 215.030311 -65.113033 
L 216.345645 -64.242297 
L 217.660979 -64.838064 
L 218.976313 -66.71702 
L 220.291647 -65.892112 
L 221.606981 -64.379782 
L 222.922315 -64.700579 
L 224.237649 -65.342174 
L 225.552983 -64.013156 
L 226.868317 -65.892112 
L 228.183651 -64.654751 
L 229.498985 -65.204689 
L 230.814319 -63.966183 
L 232.129653 -65.067205 
L 233.444987 -65.754628 
L 234.760321 -64.882746 
L 236.075654 -65.342174 
L 237.390988 -65.892112 
L 238.706322 -66.71702 
L 240.021656 -65.204689 
L 241.33699 -64.242297 
L 242.652324 -64.699434 
L 243.967658 -64.92972 
L 245.282992 -63.600703 
L 246.598326 -64.792236 
L 247.91366 -65.892112 
L 249.228994 -65.204689 
L 250.544328 -65.204689 
L 251.859662 -65.204689 
L 253.174996 -65.892112 
L 254.49033 -65.342174 
L 255.805664 -65.250518 
L 257.120998 -65.113033 
L 258.436332 -65.113033 
L 259.751666 -64.836918 
L 261.067 -66.71702 
L 262.382334 -65.754628 
L 263.697668 -65.754628 
L 265.013002 -66.71702 
L 266.328336 -64.653605 
L 267.64367 -66.71702 
L 268.959004 -66.71702 
L 270.274338 -65.754628 
L 271.589672 -64.792236 
L 272.905006 -66.71702 
L 274.220339 -64.883892 
L 275.535673 -64.470293 
L 276.851007 -65.892112 
L 278.166341 -65.754628 
L 279.481675 -65.754628 
L 280.797009 -65.204689 
L 282.112343 -65.754628 
L 283.427677 -64.746407 
L 284.743011 -63.692359 
L 286.058345 -64.883892 
L 287.373679 -65.892112 
L 288.689013 -64.288126 
L 290.004347 -65.250518 
L 291.319681 -65.342174 
L 292.635015 -64.196469 
L 293.950349 -66.71702 
L 295.265683 -65.204689 
L 296.581017 -64.792236 
L 297.896351 -63.919209 
L 299.211685 -65.385711 
L 300.527019 -64.333954 
L 301.842353 -65.113033 
L 303.157687 -65.892112 
L 304.473021 -64.745262 
L 305.788355 -65.892112 
L 307.103689 -65.754628 
L 308.419023 -65.342174 
L 309.734357 -65.113033 
L 311.04969 -64.42561 
L 312.365024 -65.113033 
L 313.680358 -65.892112 
L 314.995692 -65.204689 
L 316.311026 -62.543217 
L 317.62636 -64.379782 
L 318.941694 -65.342174 
L 320.257028 -63.691213 
L 321.572362 -63.784016 
L 322.887696 -65.113033 
L 324.20303 -66.71702 
L 325.518364 -65.388002 
L 326.833698 -65.525487 
L 328.149032 -64.379782 
L 328.149032 -66.44205 
L 328.149032 -66.44205 
L 326.833698 -66.71702 
L 325.518364 -66.71702 
L 324.20303 -66.71702 
L 322.887696 -66.71702 
L 321.572362 -66.167081 
L 320.257028 -66.396222 
L 318.941694 -66.71702 
L 317.62636 -66.44205 
L 316.311026 -65.525487 
L 314.995692 -66.71702 
L 313.680358 -66.71702 
L 312.365024 -66.71702 
L 311.04969 -66.44205 
L 309.734357 -66.71702 
L 308.419023 -66.71702 
L 307.103689 -66.71702 
L 305.788355 -66.71702 
L 304.473021 -66.71702 
L 303.157687 -66.71702 
L 301.842353 -66.71702 
L 300.527019 -66.487879 
L 299.211685 -66.71702 
L 297.896351 -66.167081 
L 296.581017 -66.533707 
L 295.265683 -66.71702 
L 293.950349 -66.71702 
L 292.635015 -66.44205 
L 291.319681 -66.71702 
L 290.004347 -66.71702 
L 288.689013 -66.44205 
L 287.373679 -66.71702 
L 286.058345 -66.71702 
L 284.743011 -66.167081 
L 283.427677 -66.71702 
L 282.112343 -66.71702 
L 280.797009 -66.71702 
L 279.481675 -66.71702 
L 278.166341 -66.71702 
L 276.851007 -66.71702 
L 275.535673 -66.44205 
L 274.220339 -66.71702 
L 272.905006 -66.71702 
L 271.589672 -66.71702 
L 270.274338 -66.71702 
L 268.959004 -66.71702 
L 267.64367 -66.71702 
L 266.328336 -66.71702 
L 265.013002 -66.71702 
L 263.697668 -66.71702 
L 262.382334 -66.71702 
L 261.067 -66.71702 
L 259.751666 -66.71702 
L 258.436332 -66.71702 
L 257.120998 -66.71702 
L 255.805664 -66.71702 
L 254.49033 -66.71702 
L 253.174996 -66.71702 
L 251.859662 -66.71702 
L 250.544328 -66.71702 
L 249.228994 -66.71702 
L 247.91366 -66.71702 
L 246.598326 -66.71702 
L 245.282992 -66.167081 
L 243.967658 -66.71702 
L 242.652324 -66.71702 
L 241.33699 -66.397368 
L 240.021656 -66.71702 
L 238.706322 -66.71702 
L 237.390988 -66.71702 
L 236.075654 -66.71702 
L 234.760321 -66.71702 
L 233.444987 -66.71702 
L 232.129653 -66.71702 
L 230.814319 -66.396222 
L 229.498985 -66.71702 
L 228.183651 -66.71702 
L 226.868317 -66.71702 
L 225.552983 -66.258738 
L 224.237649 -66.71702 
L 222.922315 -66.533707 
L 221.606981 -66.487879 
L 220.291647 -66.71702 
L 218.976313 -66.71702 
L 217.660979 -66.71702 
L 216.345645 -66.44205 
L 215.030311 -66.71702 
L 213.714977 -66.71702 
L 212.399643 -66.71702 
L 211.084309 -66.71702 
L 209.768975 -66.71702 
L 208.453641 -66.44205 
L 207.138307 -66.71702 
L 205.822973 -66.71702 
L 204.507639 -66.71702 
L 203.192305 -66.71702 
L 201.876971 -66.71702 
L 200.561637 -66.71702 
L 199.246303 -66.71702 
L 197.930969 -66.076571 
L 196.615636 -66.075425 
L 195.300302 -66.71702 
L 193.984968 -66.487879 
L 192.669634 -66.71702 
L 191.3543 -66.71702 
L 190.038966 -66.71702 
L 188.723632 -66.71702 
L 187.408298 -66.71702 
L 186.092964 -66.71702 
L 184.77763 -66.71702 
L 183.462296 -66.44205 
L 182.146962 -66.71702 
L 180.831628 -66.71702 
L 179.516294 -66.71702 
L 178.20096 -66.44205 
L 176.885626 -66.71702 
L 175.570292 -66.396222 
L 174.254958 -66.167081 
L 172.939624 -66.71702 
L 171.62429 -66.71702 
L 170.308956 -66.71702 
L 168.993622 -66.71702 
L 167.678288 -66.71702 
L 166.362954 -66.71702 
L 165.04762 -66.71702 
L 163.732286 -66.71702 
L 162.416952 -66.71702 
L 161.101618 -66.71702 
L 159.786284 -66.71702 
L 158.470951 -66.71702 
L 157.155617 -66.71702 
L 155.840283 -66.71702 
L 154.524949 -66.71702 
L 153.209615 -66.396222 
L 151.894281 -66.71702 
L 150.578947 -66.71702 
L 149.263613 -66.71702 
L 147.948279 -66.44205 
L 146.632945 -66.71702 
L 145.317611 -66.71702 
L 144.002277 -66.71702 
L 142.686943 -66.121253 
L 141.371609 -66.71702 
L 140.056275 -66.71702 
L 138.740941 -66.71702 
L 137.425607 -66.71702 
L 136.110273 -66.71702 
L 134.794939 -66.396222 
L 133.479605 -66.71702 
L 132.164271 -66.71702 
L 130.848937 -66.71702 
L 129.533603 -66.71702 
L 128.218269 -66.71702 
L 126.902935 -66.71702 
L 125.587601 -66.71702 
L 124.272267 -66.71702 
L 122.956933 -66.71702 
L 121.641599 -66.71702 
L 120.326266 -66.71702 
L 119.010932 -66.71702 
L 117.695598 -66.71702 
L 116.380264 -66.71702 
L 115.06493 -66.44205 
L 113.749596 -66.71702 
L 112.434262 -66.71702 
L 111.118928 -66.71702 
L 109.803594 -66.396222 
L 108.48826 -66.71702 
L 107.172926 -66.71702 
L 105.857592 -66.71702 
L 104.542258 -66.71702 
L 103.226924 -66.71702 
L 101.91159 -66.71702 
L 100.596256 -66.44205 
L 99.280922 -66.71702 
L 97.965588 -66.71702 
L 96.650254 -66.71702 
L 95.33492 -66.396222 
L 94.019586 -66.396222 
L 92.704252 -66.71702 
L 91.388918 -66.71702 
L 90.073584 -66.71702 
L 88.75825 -66.44205 
L 87.442916 -66.396222 
L 86.127582 -66.71702 
L 84.812248 -66.44205 
L 83.496915 -66.71702 
L 82.181581 -66.71702 
L 80.866247 -66.71702 
L 79.550913 -66.71702 
L 78.235579 -66.71702 
L 76.920245 -66.71702 
L 75.604911 -66.71702 
L 74.289577 -66.487879 
L 72.974243 -64.92972 
L 71.658909 -63.371562 
L 70.343575 -60.255245 
L 69.028241 -59.155369 
L 67.712907 -58.834571 
L 66.397573 -57.001444 
z
" style="stroke: #a9678f; stroke-opacity: 0.2"/>
    </defs>
    <g clip-path="url(#p909e0cca19)">
     <use xlink:href="#m16afb759d3" x="0" y="362.097812" style="fill: #a9678f; fill-opacity: 0.2; stroke: #a9678f; stroke-opacity: 0.2"/>
    </g>
   </g>
   <g id="PolyCollection_4">
    <defs>
     <path id="m1460dbe3b1" d="M 66.397573 -61.492606 
L 66.397573 -56.634818 
L 67.712907 -79.684105 
L 69.028241 -96.413685 
L 70.343575 -93.205711 
L 71.658909 -101.913067 
L 72.974243 -101.775582 
L 74.289577 -101.775582 
L 75.604911 -97.513561 
L 76.920245 -101.775582 
L 78.235579 -101.913067 
L 79.550913 -94.809698 
L 80.866247 -101.913067 
L 82.181581 -95.084667 
L 83.496915 -101.363129 
L 84.812248 -101.363129 
L 86.127582 -97.651046 
L 87.442916 -101.913067 
L 88.75825 -101.913067 
L 90.073584 -97.651046 
L 91.388918 -101.913067 
L 92.704252 -101.913067 
L 94.019586 -101.913067 
L 95.33492 -100.81319 
L 96.650254 -100.81319 
L 97.965588 -101.179816 
L 99.280922 -101.363129 
L 100.596256 -97.28442 
L 101.91159 -101.913067 
L 103.226924 -97.651046 
L 104.542258 -97.651046 
L 105.857592 -101.913067 
L 107.172926 -97.651046 
L 108.48826 -97.926015 
L 109.803594 -101.913067 
L 111.118928 -97.651046 
L 112.434262 -101.913067 
L 113.749596 -101.913067 
L 115.06493 -97.651046 
L 116.380264 -101.913067 
L 117.695598 -97.651046 
L 119.010932 -101.913067 
L 120.326266 -94.809698 
L 121.641599 -101.913067 
L 122.956933 -101.913067 
L 124.272267 -97.651046 
L 125.587601 -94.809698 
L 126.902935 -97.651046 
L 128.218269 -97.651046 
L 129.533603 -101.913067 
L 130.848937 -94.809698 
L 132.164271 -97.651046 
L 133.479605 -101.913067 
L 134.794939 -101.913067 
L 136.110273 -98.475953 
L 137.425607 -97.651046 
L 138.740941 -97.651046 
L 140.056275 -97.559389 
L 141.371609 -94.626385 
L 142.686943 -101.363129 
L 144.002277 -101.363129 
L 145.317611 -97.28442 
L 146.632945 -101.271472 
L 147.948279 -100.995358 
L 149.263613 -101.363129 
L 150.578947 -101.363129 
L 151.894281 -101.913067 
L 153.209615 -98.063499 
L 154.524949 -101.913067 
L 155.840283 -98.475953 
L 157.155617 -101.913067 
L 158.470951 -101.913067 
L 159.786284 -97.651046 
L 161.101618 -97.651046 
L 162.416952 -101.913067 
L 163.732286 -98.475953 
L 165.04762 -101.913067 
L 166.362954 -95.26798 
L 167.678288 -94.809698 
L 168.993622 -101.913067 
L 170.308956 -98.063499 
L 171.62429 -97.28442 
L 172.939624 -101.363129 
L 174.254958 -101.775582 
L 175.570292 -98.290349 
L 176.885626 -101.913067 
L 178.20096 -97.651046 
L 179.516294 -101.913067 
L 180.831628 -101.913067 
L 182.146962 -95.084667 
L 183.462296 -101.913067 
L 184.77763 -101.913067 
L 186.092964 -101.913067 
L 187.408298 -101.913067 
L 188.723632 -101.913067 
L 190.038966 -101.913067 
L 191.3543 -93.389024 
L 192.669634 -95.359636 
L 193.984968 -101.913067 
L 195.300302 -101.913067 
L 196.615636 -96.230372 
L 197.930969 -97.651046 
L 199.246303 -101.913067 
L 200.561637 -91.785038 
L 201.876971 -98.475953 
L 203.192305 -101.913067 
L 204.507639 -94.809698 
L 205.822973 -101.913067 
L 207.138307 -101.913067 
L 208.453641 -101.913067 
L 209.768975 -101.913067 
L 211.084309 -101.913067 
L 212.399643 -97.615529 
L 213.714977 -101.363129 
L 215.030311 -97.330248 
L 216.345645 -97.330248 
L 217.660979 -101.913067 
L 218.976313 -101.913067 
L 220.291647 -101.913067 
L 221.606981 -97.096525 
L 222.922315 -97.696874 
L 224.237649 -101.363129 
L 225.552983 -101.363129 
L 226.868317 -95.218715 
L 228.183651 -100.996503 
L 229.498985 -100.446565 
L 230.814319 -100.446565 
L 232.129653 -96.047059 
L 233.444987 -100.446565 
L 234.760321 -100.446565 
L 236.075654 -93.526509 
L 237.390988 -97.372639 
L 238.706322 -100.446565 
L 240.021656 -100.629878 
L 241.33699 -100.996503 
L 242.652324 -101.363129 
L 243.967658 -100.996503 
L 245.282992 -97.28442 
L 246.598326 -98.475953 
L 247.91366 -101.913067 
L 249.228994 -101.913067 
L 250.544328 -97.651046 
L 251.859662 -101.913067 
L 253.174996 -96.917795 
L 254.49033 -96.917795 
L 255.805664 -98.613438 
L 257.120998 -101.913067 
L 258.436332 -101.913067 
L 259.751666 -98.475953 
L 261.067 -101.913067 
L 262.382334 -101.913067 
L 263.697668 -98.063499 
L 265.013002 -101.913067 
L 266.328336 -97.651046 
L 267.64367 -101.913067 
L 268.959004 -101.913067 
L 270.274338 -101.913067 
L 271.589672 -97.78853 
L 272.905006 -97.651046 
L 274.220339 -101.913067 
L 275.535673 -94.993011 
L 276.851007 -101.913067 
L 278.166341 -101.913067 
L 279.481675 -101.913067 
L 280.797009 -101.913067 
L 282.112343 -97.651046 
L 283.427677 -98.475953 
L 284.743011 -101.913067 
L 286.058345 -101.913067 
L 287.373679 -101.913067 
L 288.689013 -101.913067 
L 290.004347 -101.913067 
L 291.319681 -101.913067 
L 292.635015 -101.913067 
L 293.950349 -101.363129 
L 295.265683 -95.038839 
L 296.581017 -98.475953 
L 297.896351 -93.434852 
L 299.211685 -97.651046 
L 300.527019 -101.913067 
L 301.842353 -101.913067 
L 303.157687 -95.863746 
L 304.473021 -97.695728 
L 305.788355 -101.958895 
L 307.103689 -101.958895 
L 308.419023 -101.958895 
L 309.734357 -95.725116 
L 311.04969 -97.696874 
L 312.365024 -101.913067 
L 313.680358 -101.958895 
L 314.995692 -101.913067 
L 316.311026 -101.958895 
L 317.62636 -101.958895 
L 318.941694 -101.913067 
L 320.257028 -98.155156 
L 321.572362 -97.971843 
L 322.887696 -97.696874 
L 324.20303 -101.913067 
L 325.518364 -101.958895 
L 326.833698 -101.913067 
L 328.149032 -97.32452 
L 328.149032 -102.142208 
L 328.149032 -102.142208 
L 326.833698 -102.188036 
L 325.518364 -102.279692 
L 324.20303 -102.233864 
L 322.887696 -102.188036 
L 321.572362 -102.188036 
L 320.257028 -102.233864 
L 318.941694 -102.233864 
L 317.62636 -102.279692 
L 316.311026 -102.279692 
L 314.995692 -102.188036 
L 313.680358 -102.279692 
L 312.365024 -102.233864 
L 311.04969 -102.188036 
L 309.734357 -102.051697 
L 308.419023 -102.279692 
L 307.103689 -102.325521 
L 305.788355 -102.325521 
L 304.473021 -102.233864 
L 303.157687 -102.050552 
L 301.842353 -102.142208 
L 300.527019 -102.050552 
L 299.211685 -102.050552 
L 297.896351 -101.913067 
L 296.581017 -101.913067 
L 295.265683 -101.913067 
L 293.950349 -101.913067 
L 292.635015 -101.913067 
L 291.319681 -101.913067 
L 290.004347 -101.913067 
L 288.689013 -101.913067 
L 287.373679 -101.913067 
L 286.058345 -101.913067 
L 284.743011 -101.913067 
L 283.427677 -101.913067 
L 282.112343 -101.913067 
L 280.797009 -101.913067 
L 279.481675 -101.913067 
L 278.166341 -101.913067 
L 276.851007 -101.913067 
L 275.535673 -101.913067 
L 274.220339 -101.913067 
L 272.905006 -101.913067 
L 271.589672 -101.913067 
L 270.274338 -101.913067 
L 268.959004 -101.913067 
L 267.64367 -101.913067 
L 266.328336 -101.913067 
L 265.013002 -101.913067 
L 263.697668 -101.913067 
L 262.382334 -101.913067 
L 261.067 -101.913067 
L 259.751666 -101.913067 
L 258.436332 -101.913067 
L 257.120998 -101.913067 
L 255.805664 -101.913067 
L 254.49033 -101.913067 
L 253.174996 -101.913067 
L 251.859662 -101.913067 
L 250.544328 -101.913067 
L 249.228994 -101.913067 
L 247.91366 -101.913067 
L 246.598326 -101.913067 
L 245.282992 -101.913067 
L 243.967658 -101.913067 
L 242.652324 -101.913067 
L 241.33699 -101.913067 
L 240.021656 -101.913067 
L 238.706322 -101.729754 
L 237.390988 -101.546441 
L 236.075654 -100.634461 
L 234.760321 -101.729754 
L 233.444987 -101.822556 
L 232.129653 -101.546441 
L 230.814319 -101.729754 
L 229.498985 -101.729754 
L 228.183651 -101.913067 
L 226.868317 -101.913067 
L 225.552983 -101.913067 
L 224.237649 -101.913067 
L 222.922315 -101.913067 
L 221.606981 -101.913067 
L 220.291647 -101.913067 
L 218.976313 -101.913067 
L 217.660979 -101.913067 
L 216.345645 -101.913067 
L 215.030311 -101.913067 
L 213.714977 -101.913067 
L 212.399643 -101.913067 
L 211.084309 -101.913067 
L 209.768975 -101.913067 
L 208.453641 -101.913067 
L 207.138307 -101.913067 
L 205.822973 -101.913067 
L 204.507639 -101.913067 
L 203.192305 -101.913067 
L 201.876971 -101.913067 
L 200.561637 -100.767362 
L 199.246303 -101.913067 
L 197.930969 -101.913067 
L 196.615636 -101.913067 
L 195.300302 -101.913067 
L 193.984968 -101.913067 
L 192.669634 -101.913067 
L 191.3543 -101.913067 
L 190.038966 -101.913067 
L 188.723632 -101.913067 
L 187.408298 -101.913067 
L 186.092964 -101.913067 
L 184.77763 -101.913067 
L 183.462296 -101.913067 
L 182.146962 -101.913067 
L 180.831628 -101.913067 
L 179.516294 -101.913067 
L 178.20096 -101.913067 
L 176.885626 -101.913067 
L 175.570292 -101.913067 
L 174.254958 -101.913067 
L 172.939624 -101.913067 
L 171.62429 -101.913067 
L 170.308956 -101.913067 
L 168.993622 -101.913067 
L 167.678288 -101.913067 
L 166.362954 -101.913067 
L 165.04762 -101.913067 
L 163.732286 -101.913067 
L 162.416952 -101.913067 
L 161.101618 -101.913067 
L 159.786284 -101.913067 
L 158.470951 -101.913067 
L 157.155617 -101.913067 
L 155.840283 -101.913067 
L 154.524949 -101.913067 
L 153.209615 -101.913067 
L 151.894281 -101.913067 
L 150.578947 -101.913067 
L 149.263613 -101.913067 
L 147.948279 -101.913067 
L 146.632945 -101.913067 
L 145.317611 -101.913067 
L 144.002277 -101.913067 
L 142.686943 -101.913067 
L 141.371609 -101.913067 
L 140.056275 -101.913067 
L 138.740941 -101.913067 
L 137.425607 -101.913067 
L 136.110273 -101.913067 
L 134.794939 -101.913067 
L 133.479605 -101.913067 
L 132.164271 -101.913067 
L 130.848937 -101.913067 
L 129.533603 -101.913067 
L 128.218269 -101.913067 
L 126.902935 -101.913067 
L 125.587601 -101.913067 
L 124.272267 -101.913067 
L 122.956933 -101.913067 
L 121.641599 -101.913067 
L 120.326266 -101.913067 
L 119.010932 -101.913067 
L 117.695598 -101.913067 
L 116.380264 -101.913067 
L 115.06493 -101.913067 
L 113.749596 -101.913067 
L 112.434262 -101.913067 
L 111.118928 -101.913067 
L 109.803594 -101.913067 
L 108.48826 -101.913067 
L 107.172926 -101.913067 
L 105.857592 -101.913067 
L 104.542258 -101.913067 
L 103.226924 -101.913067 
L 101.91159 -101.913067 
L 100.596256 -101.913067 
L 99.280922 -101.913067 
L 97.965588 -101.913067 
L 96.650254 -101.913067 
L 95.33492 -101.913067 
L 94.019586 -101.913067 
L 92.704252 -101.913067 
L 91.388918 -101.913067 
L 90.073584 -101.913067 
L 88.75825 -101.913067 
L 87.442916 -101.913067 
L 86.127582 -101.913067 
L 84.812248 -101.913067 
L 83.496915 -101.913067 
L 82.181581 -101.913067 
L 80.866247 -101.913067 
L 79.550913 -101.913067 
L 78.235579 -101.913067 
L 76.920245 -101.913067 
L 75.604911 -101.913067 
L 74.289577 -101.913067 
L 72.974243 -101.913067 
L 71.658909 -101.913067 
L 70.343575 -101.913067 
L 69.028241 -101.913067 
L 67.712907 -93.161029 
L 66.397573 -61.492606 
z
" style="stroke: #6c3f70; stroke-opacity: 0.2"/>
    </defs>
    <g clip-path="url(#p909e0cca19)">
     <use xlink:href="#m1460dbe3b1" x="0" y="362.097812" style="fill: #6c3f70; fill-opacity: 0.2; stroke: #6c3f70; stroke-opacity: 0.2"/>
    </g>
   </g>
   <g id="PolyCollection_5">
    <defs>
     <path id="m0c7a7b617e" d="M 66.397573 -56.955616 
L 66.397573 -56.543162 
L 67.712907 -57.505554 
L 69.028241 -57.184757 
L 70.343575 -57.276413 
L 71.658909 -57.413898 
L 72.974243 -57.505554 
L 74.289577 -58.788743 
L 75.604911 -60.988496 
L 76.920245 -63.416244 
L 78.235579 -63.004936 
L 79.550913 -63.325734 
L 80.866247 -64.42561 
L 82.181581 -63.967328 
L 83.496915 -63.41739 
L 84.812248 -65.250518 
L 86.127582 -63.234077 
L 87.442916 -63.599557 
L 88.75825 -63.600703 
L 90.073584 -63.9215 
L 91.388918 -63.600703 
L 92.704252 -63.967328 
L 94.019586 -64.104813 
L 95.33492 -63.967328 
L 96.650254 -64.563095 
L 97.965588 -65.250518 
L 99.280922 -64.013156 
L 100.596256 -62.546655 
L 101.91159 -62.821624 
L 103.226924 -64.150641 
L 104.542258 -64.563095 
L 105.857592 -64.563095 
L 107.172926 -63.41739 
L 108.48826 -62.867452 
L 109.803594 -63.600703 
L 111.118928 -65.250518 
L 112.434262 -63.599557 
L 113.749596 -63.966183 
L 115.06493 -63.967328 
L 116.380264 -64.058985 
L 117.695598 -64.42561 
L 119.010932 -63.967328 
L 120.326266 -65.250518 
L 121.641599 -63.967328 
L 122.956933 -64.42561 
L 124.272267 -63.600703 
L 125.587601 -64.013156 
L 126.902935 -63.509046 
L 128.218269 -63.004936 
L 129.533603 -63.41739 
L 130.848937 -64.150641 
L 132.164271 -63.325734 
L 133.479605 -63.509046 
L 134.794939 -64.42561 
L 136.110273 -63.967328 
L 137.425607 -65.250518 
L 138.740941 -65.250518 
L 140.056275 -65.250518 
L 141.371609 -64.563095 
L 142.686943 -63.967328 
L 144.002277 -63.967328 
L 145.317611 -63.875672 
L 146.632945 -63.967328 
L 147.948279 -63.875672 
L 149.263613 -64.104813 
L 150.578947 -63.875672 
L 151.894281 -63.967328 
L 153.209615 -64.333954 
L 154.524949 -63.600703 
L 155.840283 -64.42561 
L 157.155617 -62.867452 
L 158.470951 -65.250518 
L 159.786284 -64.563095 
L 161.101618 -64.563095 
L 162.416952 -63.279906 
L 163.732286 -64.563095 
L 165.04762 -64.471438 
L 166.362954 -64.242297 
L 167.678288 -64.104813 
L 168.993622 -64.563095 
L 170.308956 -64.196469 
L 171.62429 -63.738187 
L 172.939624 -63.600703 
L 174.254958 -64.42561 
L 175.570292 -63.646531 
L 176.885626 -63.967328 
L 178.20096 -65.250518 
L 179.516294 -65.250518 
L 180.831628 -63.967328 
L 182.146962 -65.250518 
L 183.462296 -63.737042 
L 184.77763 -64.563095 
L 186.092964 -63.507901 
L 187.408298 -64.42561 
L 188.723632 -63.738187 
L 190.038966 -63.692359 
L 191.3543 -64.196469 
L 192.669634 -64.150641 
L 193.984968 -65.250518 
L 195.300302 -63.142421 
L 196.615636 -62.180029 
L 197.930969 -63.875672 
L 199.246303 -63.967328 
L 200.561637 -64.563095 
L 201.876971 -64.104813 
L 203.192305 -64.104813 
L 204.507639 -63.875672 
L 205.822973 -63.967328 
L 207.138307 -63.646531 
L 208.453641 -63.966183 
L 209.768975 -64.557366 
L 211.084309 -63.875672 
L 212.399643 -64.563095 
L 213.714977 -64.42561 
L 215.030311 -64.700579 
L 216.345645 -62.775795 
L 217.660979 -63.234077 
L 218.976313 -63.738187 
L 220.291647 -63.371562 
L 221.606981 -64.42561 
L 222.922315 -65.250518 
L 224.237649 -65.250518 
L 225.552983 -62.363342 
L 226.868317 -62.959108 
L 228.183651 -63.325734 
L 229.498985 -65.250518 
L 230.814319 -63.966183 
L 232.129653 -63.234077 
L 233.444987 -63.78287 
L 234.760321 -64.42561 
L 236.075654 -63.050765 
L 237.390988 -63.41739 
L 238.706322 -64.379782 
L 240.021656 -63.600703 
L 241.33699 -63.599557 
L 242.652324 -64.42561 
L 243.967658 -64.563095 
L 245.282992 -65.250518 
L 246.598326 -65.250518 
L 247.91366 -63.967328 
L 249.228994 -63.600703 
L 250.544328 -64.563095 
L 251.859662 -63.509046 
L 253.174996 -63.096593 
L 254.49033 -64.104813 
L 255.805664 -63.967328 
L 257.120998 -63.875672 
L 258.436332 -63.875672 
L 259.751666 -64.42561 
L 261.067 -64.058985 
L 262.382334 -63.646531 
L 263.697668 -64.42561 
L 265.013002 -64.42561 
L 266.328336 -65.250518 
L 267.64367 -64.563095 
L 268.959004 -64.563095 
L 270.274338 -63.234077 
L 271.589672 -64.563095 
L 272.905006 -62.91328 
L 274.220339 -63.692359 
L 275.535673 -64.42561 
L 276.851007 -63.967328 
L 278.166341 -63.692359 
L 279.481675 -65.250518 
L 280.797009 -65.250518 
L 282.112343 -63.737042 
L 283.427677 -64.104813 
L 284.743011 -63.645385 
L 286.058345 -63.646531 
L 287.373679 -63.967328 
L 288.689013 -63.325734 
L 290.004347 -64.104813 
L 291.319681 -63.645385 
L 292.635015 -63.324588 
L 293.950349 -62.867452 
L 295.265683 -63.41739 
L 296.581017 -63.784016 
L 297.896351 -63.600703 
L 299.211685 -65.250518 
L 300.527019 -64.42561 
L 301.842353 -63.554875 
L 303.157687 -63.875672 
L 304.473021 -63.096593 
L 305.788355 -64.975548 
L 307.103689 -63.829844 
L 308.419023 -63.691213 
L 309.734357 -64.242297 
L 311.04969 -64.792236 
L 312.365024 -64.379782 
L 313.680358 -63.646531 
L 314.995692 -63.234077 
L 316.311026 -64.331662 
L 317.62636 -64.42561 
L 318.941694 -65.250518 
L 320.257028 -63.096593 
L 321.572362 -63.875672 
L 322.887696 -65.250518 
L 324.20303 -64.058985 
L 325.518364 -63.784016 
L 326.833698 -63.784016 
L 328.149032 -64.975548 
L 328.149032 -65.250518 
L 328.149032 -65.250518 
L 326.833698 -65.250518 
L 325.518364 -65.250518 
L 324.20303 -65.250518 
L 322.887696 -65.250518 
L 321.572362 -65.250518 
L 320.257028 -65.021377 
L 318.941694 -65.250518 
L 317.62636 -65.250518 
L 316.311026 -65.250518 
L 314.995692 -65.021377 
L 313.680358 -65.158861 
L 312.365024 -65.250518 
L 311.04969 -65.250518 
L 309.734357 -65.250518 
L 308.419023 -65.158861 
L 307.103689 -65.250518 
L 305.788355 -65.250518 
L 304.473021 -65.021377 
L 303.157687 -65.250518 
L 301.842353 -65.250518 
L 300.527019 -65.250518 
L 299.211685 -65.250518 
L 297.896351 -65.250518 
L 296.581017 -65.250518 
L 295.265683 -65.021377 
L 293.950349 -64.975548 
L 292.635015 -65.021377 
L 291.319681 -65.250518 
L 290.004347 -65.250518 
L 288.689013 -65.021377 
L 287.373679 -65.250518 
L 286.058345 -65.250518 
L 284.743011 -65.250518 
L 283.427677 -65.250518 
L 282.112343 -65.250518 
L 280.797009 -65.250518 
L 279.481675 -65.250518 
L 278.166341 -65.250518 
L 276.851007 -65.250518 
L 275.535673 -65.250518 
L 274.220339 -65.250518 
L 272.905006 -64.792236 
L 271.589672 -65.250518 
L 270.274338 -65.021377 
L 268.959004 -65.250518 
L 267.64367 -65.250518 
L 266.328336 -65.250518 
L 265.013002 -65.250518 
L 263.697668 -65.250518 
L 262.382334 -65.250518 
L 261.067 -65.250518 
L 259.751666 -65.250518 
L 258.436332 -65.250518 
L 257.120998 -65.250518 
L 255.805664 -65.250518 
L 254.49033 -65.250518 
L 253.174996 -65.021377 
L 251.859662 -65.250518 
L 250.544328 -65.250518 
L 249.228994 -65.250518 
L 247.91366 -65.250518 
L 246.598326 -65.250518 
L 245.282992 -65.250518 
L 243.967658 -65.250518 
L 242.652324 -65.250518 
L 241.33699 -65.250518 
L 240.021656 -65.250518 
L 238.706322 -65.250518 
L 237.390988 -65.021377 
L 236.075654 -64.838064 
L 234.760321 -65.250518 
L 233.444987 -65.250518 
L 232.129653 -65.021377 
L 230.814319 -65.250518 
L 229.498985 -65.250518 
L 228.183651 -65.250518 
L 226.868317 -64.792236 
L 225.552983 -64.746407 
L 224.237649 -65.250518 
L 222.922315 -65.250518 
L 221.606981 -65.250518 
L 220.291647 -65.021377 
L 218.976313 -65.250518 
L 217.660979 -65.021377 
L 216.345645 -64.700579 
L 215.030311 -65.250518 
L 213.714977 -65.250518 
L 212.399643 -65.250518 
L 211.084309 -65.250518 
L 209.768975 -65.250518 
L 208.453641 -65.250518 
L 207.138307 -65.250518 
L 205.822973 -65.250518 
L 204.507639 -65.250518 
L 203.192305 -65.250518 
L 201.876971 -65.250518 
L 200.561637 -65.250518 
L 199.246303 -65.250518 
L 197.930969 -65.250518 
L 196.615636 -64.517267 
L 195.300302 -65.021377 
L 193.984968 -65.250518 
L 192.669634 -65.250518 
L 191.3543 -65.250518 
L 190.038966 -65.250518 
L 188.723632 -65.250518 
L 187.408298 -65.250518 
L 186.092964 -65.250518 
L 184.77763 -65.250518 
L 183.462296 -65.250518 
L 182.146962 -65.250518 
L 180.831628 -65.250518 
L 179.516294 -65.250518 
L 178.20096 -65.250518 
L 176.885626 -65.250518 
L 175.570292 -65.250518 
L 174.254958 -65.250518 
L 172.939624 -65.250518 
L 171.62429 -65.250518 
L 170.308956 -65.250518 
L 168.993622 -65.250518 
L 167.678288 -65.250518 
L 166.362954 -65.250518 
L 165.04762 -65.250518 
L 163.732286 -65.250518 
L 162.416952 -65.021377 
L 161.101618 -65.250518 
L 159.786284 -65.250518 
L 158.470951 -65.250518 
L 157.155617 -64.796818 
L 155.840283 -65.250518 
L 154.524949 -65.250518 
L 153.209615 -65.250518 
L 151.894281 -65.250518 
L 150.578947 -65.250518 
L 149.263613 -65.250518 
L 147.948279 -65.250518 
L 146.632945 -65.250518 
L 145.317611 -65.250518 
L 144.002277 -65.250518 
L 142.686943 -65.250518 
L 141.371609 -65.250518 
L 140.056275 -65.250518 
L 138.740941 -65.250518 
L 137.425607 -65.250518 
L 136.110273 -65.250518 
L 134.794939 -65.250518 
L 133.479605 -65.067205 
L 132.164271 -65.067205 
L 130.848937 -65.250518 
L 129.533603 -65.250518 
L 128.218269 -64.975548 
L 126.902935 -65.250518 
L 125.587601 -65.250518 
L 124.272267 -65.250518 
L 122.956933 -65.250518 
L 121.641599 -65.250518 
L 120.326266 -65.250518 
L 119.010932 -65.250518 
L 117.695598 -65.250518 
L 116.380264 -65.250518 
L 115.06493 -65.250518 
L 113.749596 -65.250518 
L 112.434262 -65.250518 
L 111.118928 -65.250518 
L 109.803594 -65.250518 
L 108.48826 -64.975548 
L 107.172926 -65.250518 
L 105.857592 -65.250518 
L 104.542258 -65.250518 
L 103.226924 -65.250518 
L 101.91159 -64.975548 
L 100.596256 -64.746407 
L 99.280922 -65.250518 
L 97.965588 -65.250518 
L 96.650254 -65.250518 
L 95.33492 -65.250518 
L 94.019586 -65.250518 
L 92.704252 -65.250518 
L 91.388918 -65.250518 
L 90.073584 -65.250518 
L 88.75825 -65.250518 
L 87.442916 -65.250518 
L 86.127582 -65.021377 
L 84.812248 -65.250518 
L 83.496915 -65.067205 
L 82.181581 -65.250518 
L 80.866247 -65.250518 
L 79.550913 -65.067205 
L 78.235579 -64.975548 
L 76.920245 -65.021377 
L 75.604911 -63.692359 
L 74.289577 -61.264611 
L 72.974243 -58.789889 
L 71.658909 -58.422118 
L 70.343575 -57.734695 
L 69.028241 -57.643039 
L 67.712907 -57.872179 
L 66.397573 -56.955616 
z
" style="stroke: #2d1e3e; stroke-opacity: 0.2"/>
    </defs>
    <g clip-path="url(#p909e0cca19)">
     <use xlink:href="#m0c7a7b617e" x="0" y="362.097812" style="fill: #2d1e3e; fill-opacity: 0.2; stroke: #2d1e3e; stroke-opacity: 0.2"/>
    </g>
   </g>
   <g id="line2d_14">
    <path d="M 66.397573 305.508822 
L 67.712907 303.629867 
L 69.028241 300.651034 
L 70.343575 282.365588 
L 71.658909 266.967317 
L 72.974243 265.592472 
L 74.289577 261.651248 
L 75.604911 264.355111 
L 76.920245 261.651248 
L 78.235579 261.651248 
L 79.550913 264.400939 
L 80.866247 264.355111 
L 82.181581 266.967317 
L 83.496915 264.309282 
L 84.812248 263.026093 
L 86.127582 264.263454 
L 87.442916 265.684128 
L 88.75825 268.387991 
L 90.073584 261.651248 
L 91.388918 265.409159 
L 92.704252 264.400939 
L 95.33492 264.355111 
L 96.650254 262.980265 
L 99.280922 263.026093 
L 100.596256 263.988485 
L 101.91159 262.613639 
L 103.226924 262.292842 
L 104.542258 260.551371 
L 105.857592 262.888609 
L 107.172926 261.880388 
L 108.48826 264.034313 
L 109.803594 263.667688 
L 111.118928 264.584251 
L 112.434262 260.780512 
L 113.749596 263.896829 
L 115.06493 262.155358 
L 116.380264 258.351618 
L 117.695598 257.984993 
L 119.010932 260.917997 
L 120.326266 257.847508 
L 121.641599 259.176525 
L 122.956933 259.588979 
L 124.272267 259.084869 
L 125.587601 253.081377 
L 128.218269 255.831068 
L 129.533603 255.739411 
L 130.848937 252.348126 
L 132.164271 252.348126 
L 133.479605 254.089597 
L 134.794939 258.214134 
L 136.110273 251.660703 
L 138.740941 255.051989 
L 140.056275 255.051989 
L 141.371609 251.660703 
L 142.686943 255.00616 
L 144.002277 254.914504 
L 145.317611 249.919232 
L 146.632945 255.051989 
L 147.948279 253.356346 
L 150.578947 256.79346 
L 151.894281 253.356346 
L 153.209615 256.839288 
L 154.524949 249.919232 
L 155.840283 254.914504 
L 157.155617 251.614875 
L 158.470951 251.614875 
L 159.786284 249.919232 
L 161.101618 256.747632 
L 163.732286 253.356346 
L 165.04762 249.919232 
L 166.362954 253.356346 
L 167.678288 249.919232 
L 168.993622 251.614875 
L 170.308956 255.097817 
L 171.62429 256.655975 
L 172.939624 249.919232 
L 175.570292 256.79346 
L 176.885626 255.051989 
L 178.20096 251.660703 
L 179.516294 253.127205 
L 180.831628 254.822848 
L 182.146962 255.143645 
L 183.462296 250.010888 
L 184.77763 256.564319 
L 186.092964 251.614875 
L 187.408298 255.051989 
L 188.723632 249.919232 
L 190.038966 253.310518 
L 191.3543 251.660703 
L 192.669634 255.097817 
L 193.984968 251.614875 
L 195.300302 254.77702 
L 196.615636 251.614875 
L 200.561637 251.660703 
L 201.876971 258.580759 
L 203.192305 251.660703 
L 205.822973 258.580759 
L 207.138307 253.310518 
L 208.453641 256.747632 
L 209.768975 249.919232 
L 211.084309 253.310518 
L 212.399643 249.919232 
L 213.714977 251.660703 
L 215.030311 251.614875 
L 216.345645 249.919232 
L 217.660979 251.660703 
L 218.976313 251.614875 
L 220.291647 255.418614 
L 221.606981 256.564319 
L 222.922315 251.614875 
L 224.237649 251.614875 
L 225.552983 255.097817 
L 226.868317 255.097817 
L 228.183651 251.614875 
L 229.498985 253.356346 
L 230.814319 252.027328 
L 232.129653 250.285857 
L 233.444987 253.585487 
L 234.760321 253.539658 
L 236.075654 249.644263 
L 237.390988 251.339906 
L 238.706322 251.47739 
L 240.021656 254.731191 
L 241.33699 256.655975 
L 243.967658 256.839288 
L 245.282992 256.885116 
L 246.598326 253.356346 
L 247.91366 252.027328 
L 249.228994 253.356346 
L 250.544328 251.660703 
L 251.859662 251.614875 
L 253.174996 249.919232 
L 254.49033 253.356346 
L 255.805664 250.010888 
L 257.120998 254.731191 
L 258.436332 255.097817 
L 259.751666 255.00616 
L 261.067 251.47739 
L 262.382334 256.518491 
L 263.697668 252.898064 
L 265.013002 253.127205 
L 266.328336 252.943892 
L 267.64367 254.685363 
L 268.959004 254.914504 
L 271.589672 251.385734 
L 272.905006 250.148373 
L 274.220339 254.822848 
L 275.535673 251.385734 
L 276.851007 254.914504 
L 278.166341 251.523218 
L 279.481675 251.385734 
L 280.797009 256.472662 
L 282.112343 254.77702 
L 283.427677 256.28935 
L 284.743011 251.110765 
L 286.058345 250.835795 
L 287.373679 252.806407 
L 288.689013 254.364566 
L 290.004347 250.789967 
L 291.319681 249.094324 
L 292.635015 255.968552 
L 293.950349 248.95684 
L 295.265683 248.819355 
L 296.581017 254.364566 
L 297.896351 254.50205 
L 299.211685 250.927452 
L 300.527019 250.514998 
L 301.842353 250.835795 
L 303.157687 252.852236 
L 304.473021 249.644263 
L 305.788355 254.593707 
L 307.103689 250.927452 
L 308.419023 252.623095 
L 309.734357 252.48561 
L 311.04969 248.544386 
L 312.365024 249.827575 
L 313.680358 249.415122 
L 314.995692 249.323465 
L 316.311026 247.44451 
L 317.62636 251.156593 
L 318.941694 249.415122 
L 320.257028 248.911012 
L 322.887696 252.98972 
L 324.20303 251.431562 
L 325.518364 248.086104 
L 326.833698 251.798187 
L 328.149032 249.873404 
L 328.149032 249.873404 
" clip-path="url(#p909e0cca19)" style="fill: none; stroke: #edd1cb; stroke-width: 1.5; stroke-linecap: round"/>
   </g>
   <g id="line2d_15">
    <path d="M 66.397573 305.371338 
L 67.712907 302.667475 
L 69.028241 302.163365 
L 70.343575 300.696863 
L 71.658909 288.689878 
L 72.974243 270.771057 
L 74.289577 257.343398 
L 75.604911 258.8099 
L 76.920245 258.764072 
L 78.235579 260.093089 
L 79.550913 257.343398 
L 80.866247 257.343398 
L 82.181581 260.047261 
L 83.496915 258.489103 
L 84.812248 260.047261 
L 86.127582 259.909776 
L 87.442916 258.764072 
L 88.75825 257.29757 
L 90.073584 257.29757 
L 91.388918 258.8099 
L 92.704252 261.605419 
L 94.019586 258.626587 
L 95.33492 260.093089 
L 96.650254 257.251742 
L 97.965588 258.580759 
L 99.280922 257.251742 
L 100.596256 261.467935 
L 101.91159 258.580759 
L 103.226924 257.343398 
L 108.48826 257.29757 
L 109.803594 258.672415 
L 111.118928 258.672415 
L 112.434262 257.29757 
L 113.749596 260.047261 
L 115.06493 260.001433 
L 116.380264 258.764072 
L 117.695598 259.863948 
L 119.010932 258.764072 
L 120.326266 261.559591 
L 122.956933 258.626587 
L 124.272267 258.764072 
L 125.587601 258.764072 
L 126.902935 261.788732 
L 128.218269 262.888609 
L 129.533603 258.672415 
L 130.848937 260.276402 
L 132.164271 258.764072 
L 133.479605 258.489103 
L 134.794939 258.764072 
L 136.110273 263.163578 
L 137.425607 258.764072 
L 138.740941 257.251742 
L 140.056275 258.672415 
L 141.371609 258.718244 
L 142.686943 257.160085 
L 144.002277 261.147137 
L 145.317611 259.909776 
L 146.632945 256.885116 
L 147.948279 258.259962 
L 149.263613 261.238794 
L 150.578947 256.885116 
L 151.894281 258.30579 
L 153.209615 258.580759 
L 154.524949 261.83456 
L 155.840283 258.855728 
L 157.155617 258.672415 
L 158.470951 260.001433 
L 159.786284 260.32223 
L 161.101618 258.672415 
L 162.416952 261.559591 
L 163.732286 259.772292 
L 165.04762 261.238794 
L 166.362954 260.459715 
L 167.678288 260.368058 
L 168.993622 259.039041 
L 170.308956 257.526711 
L 171.62429 257.343398 
L 172.939624 258.718244 
L 174.254958 258.764072 
L 175.570292 261.605419 
L 176.885626 258.489103 
L 178.20096 258.30579 
L 180.831628 258.30579 
L 182.146962 260.82634 
L 183.462296 259.81812 
L 184.77763 258.30579 
L 186.092964 262.751124 
L 187.408298 258.764072 
L 188.723632 258.764072 
L 190.038966 260.093089 
L 191.3543 258.30579 
L 192.669634 260.276402 
L 193.984968 260.001433 
L 195.300302 260.184746 
L 196.615636 261.605419 
L 197.930969 260.093089 
L 199.246303 261.605419 
L 200.561637 258.718244 
L 201.876971 260.138917 
L 203.192305 258.672415 
L 204.507639 258.718244 
L 205.822973 257.251742 
L 207.138307 258.764072 
L 208.453641 262.888609 
L 209.768975 258.580759 
L 211.084309 257.251742 
L 212.399643 258.718244 
L 213.714977 258.626587 
L 215.030311 257.251742 
L 216.345645 257.251742 
L 217.660979 260.001433 
L 218.976313 258.580759 
L 220.291647 260.276402 
L 221.606981 265.409159 
L 224.237649 257.251742 
L 225.552983 258.672415 
L 226.868317 257.251742 
L 228.183651 260.230574 
L 229.498985 258.764072 
L 230.814319 258.764072 
L 232.129653 263.071921 
L 233.444987 263.11775 
L 234.760321 261.467935 
L 236.075654 260.184746 
L 237.390988 261.83456 
L 238.706322 258.718244 
L 240.021656 257.251742 
L 242.652324 260.230574 
L 243.967658 257.343398 
L 245.282992 261.422107 
L 246.598326 261.697076 
L 247.91366 258.626587 
L 249.228994 258.626587 
L 250.544328 260.368058 
L 251.859662 262.567811 
L 253.174996 260.276402 
L 254.49033 257.343398 
L 257.120998 260.001433 
L 258.436332 258.672415 
L 259.751666 251.752359 
L 261.067 224.072134 
L 262.382334 173.844442 
L 263.697668 102.169158 
L 265.013002 52.353919 
L 266.328336 35.809943 
L 267.64367 52.445575 
L 268.959004 35.809943 
L 270.274338 52.170606 
L 271.589672 35.809943 
L 274.220339 53.08717 
L 275.535673 50.108337 
L 276.851007 35.809943 
L 278.166341 35.809943 
L 279.481675 58.999006 
L 280.797009 44.24233 
L 282.112343 52.353919 
L 283.427677 35.809943 
L 284.743011 42.729999 
L 286.058345 60.328023 
L 287.373679 48.77932 
L 288.689013 44.196501 
L 290.004347 35.809943 
L 291.319681 49.375086 
L 292.635015 66.010718 
L 293.950349 52.170606 
L 295.265683 35.809943 
L 297.896351 35.809943 
L 299.211685 43.875704 
L 300.527019 54.278702 
L 301.842353 43.738219 
L 303.157687 76.780342 
L 304.473021 35.809943 
L 307.103689 35.809943 
L 308.419023 61.015446 
L 309.734357 43.646563 
L 311.04969 44.196501 
L 312.365024 35.809943 
L 313.680358 57.990786 
L 314.995692 43.875704 
L 316.311026 43.646563 
L 317.62636 35.809943 
L 318.941694 60.190539 
L 320.257028 52.537231 
L 321.572362 35.809943 
L 322.887696 60.740477 
L 324.20303 46.579567 
L 325.518364 44.24233 
L 326.833698 35.809943 
L 328.149032 54.553672 
L 328.149032 54.553672 
" clip-path="url(#p909e0cca19)" style="fill: none; stroke: #d499a7; stroke-width: 1.5; stroke-linecap: round"/>
   </g>
   <g id="line2d_16">
    <path d="M 66.397573 305.371338 
L 67.712907 303.996492 
L 69.028241 303.675695 
L 70.343575 302.850787 
L 71.658909 300.284409 
L 72.974243 298.588766 
L 74.289577 296.526498 
L 75.604911 295.655762 
L 76.920245 296.297357 
L 78.235579 295.976559 
L 79.550913 296.251529 
L 82.181581 295.70159 
L 83.496915 296.251529 
L 84.812248 296.572326 
L 86.127582 295.70159 
L 87.442916 296.847295 
L 88.75825 296.526498 
L 91.388918 295.380793 
L 94.019586 296.663982 
L 95.33492 296.847295 
L 96.650254 295.655762 
L 99.280922 295.70159 
L 100.596256 296.572326 
L 103.226924 295.380793 
L 104.542258 296.297357 
L 108.48826 295.380793 
L 109.803594 296.801467 
L 111.118928 295.655762 
L 112.434262 295.655762 
L 113.749596 296.297357 
L 115.06493 296.526498 
L 116.380264 295.976559 
L 117.695598 295.976559 
L 119.010932 295.380793 
L 120.326266 296.297357 
L 121.641599 295.70159 
L 122.956933 295.380793 
L 124.272267 295.976559 
L 125.587601 296.022388 
L 126.902935 295.70159 
L 128.218269 295.70159 
L 129.533603 296.2057 
L 130.848937 296.022388 
L 132.164271 296.2057 
L 133.479605 296.159872 
L 134.794939 296.755639 
L 136.110273 295.564106 
L 137.425607 295.564106 
L 138.740941 295.380793 
L 140.056275 296.251529 
L 141.371609 295.976559 
L 142.686943 297.168092 
L 144.002277 296.2057 
L 145.317611 296.2057 
L 146.632945 295.655762 
L 147.948279 296.572326 
L 149.263613 295.655762 
L 151.894281 295.70159 
L 153.209615 296.938951 
L 154.524949 296.251529 
L 155.840283 295.70159 
L 158.470951 296.2057 
L 159.786284 296.251529 
L 161.101618 295.839075 
L 162.416952 295.930731 
L 163.732286 295.655762 
L 165.04762 296.251529 
L 166.362954 296.343185 
L 167.678288 295.609934 
L 168.993622 296.297357 
L 170.308956 296.343185 
L 171.62429 295.70159 
L 172.939624 295.655762 
L 174.254958 296.893123 
L 175.570292 296.938951 
L 176.885626 295.70159 
L 178.20096 296.572326 
L 179.516294 296.159872 
L 180.831628 295.976559 
L 182.146962 296.022388 
L 183.462296 296.618154 
L 184.77763 295.70159 
L 188.723632 296.343185 
L 190.038966 296.343185 
L 191.3543 295.70159 
L 192.669634 296.022388 
L 193.984968 296.526498 
L 195.300302 295.976559 
L 196.615636 297.21392 
L 197.930969 297.259749 
L 199.246303 295.976559 
L 200.561637 295.655762 
L 201.876971 295.930731 
L 204.507639 295.976559 
L 205.822973 295.655762 
L 207.138307 295.976559 
L 208.453641 296.618154 
L 209.768975 295.884903 
L 211.084309 295.380793 
L 212.399643 295.655762 
L 213.714977 295.609934 
L 215.030311 296.022388 
L 216.345645 296.618154 
L 217.660979 296.297357 
L 218.976313 295.380793 
L 220.291647 295.655762 
L 221.606981 296.526498 
L 222.922315 296.389013 
L 224.237649 295.976559 
L 225.552983 296.801467 
L 226.868317 295.655762 
L 228.183651 296.297357 
L 229.498985 295.976559 
L 230.814319 296.847295 
L 232.129653 296.2057 
L 233.444987 295.70159 
L 234.760321 296.251529 
L 238.706322 295.380793 
L 240.021656 295.976559 
L 241.33699 296.70981 
L 242.652324 296.251529 
L 243.967658 296.251529 
L 245.282992 297.122264 
L 247.91366 295.655762 
L 249.228994 295.976559 
L 251.859662 295.976559 
L 253.174996 295.655762 
L 254.49033 295.930731 
L 258.436332 296.022388 
L 259.751666 296.297357 
L 261.067 295.380793 
L 262.382334 295.70159 
L 263.697668 295.70159 
L 265.013002 295.380793 
L 266.328336 296.297357 
L 267.64367 295.380793 
L 268.959004 295.380793 
L 270.274338 295.70159 
L 271.589672 296.343185 
L 272.905006 295.380793 
L 274.220339 296.251529 
L 275.535673 296.526498 
L 276.851007 295.655762 
L 279.481675 295.70159 
L 280.797009 295.976559 
L 282.112343 295.70159 
L 283.427677 296.251529 
L 284.743011 297.030608 
L 286.058345 296.2057 
L 287.373679 295.655762 
L 288.689013 296.572326 
L 290.004347 295.976559 
L 291.319681 295.930731 
L 292.635015 296.618154 
L 293.950349 295.380793 
L 295.265683 295.976559 
L 296.581017 296.389013 
L 297.896351 296.98478 
L 299.211685 295.930731 
L 300.527019 296.572326 
L 301.842353 296.022388 
L 303.157687 295.655762 
L 304.473021 296.251529 
L 305.788355 295.655762 
L 307.103689 295.70159 
L 308.419023 295.930731 
L 309.734357 296.022388 
L 311.04969 296.526498 
L 312.365024 296.022388 
L 313.680358 295.655762 
L 314.995692 295.976559 
L 316.311026 297.855515 
L 317.62636 296.526498 
L 318.941694 295.930731 
L 320.257028 296.938951 
L 321.572362 296.893123 
L 322.887696 296.022388 
L 324.20303 295.380793 
L 325.518364 295.884903 
L 326.833698 295.839075 
L 328.149032 296.526498 
L 328.149032 296.526498 
" clip-path="url(#p909e0cca19)" style="fill: none; stroke: #a9678f; stroke-width: 1.5; stroke-linecap: round"/>
   </g>
   <g id="line2d_17">
    <path d="M 66.397573 303.675695 
L 67.712907 275.353875 
L 69.028241 262.384499 
L 70.343575 263.988485 
L 71.658909 260.184746 
L 74.289577 260.230574 
L 75.604911 261.651248 
L 76.920245 260.230574 
L 78.235579 260.184746 
L 79.550913 263.026093 
L 80.866247 260.184746 
L 82.181581 262.888609 
L 83.496915 260.368058 
L 84.812248 260.368058 
L 86.127582 261.605419 
L 87.442916 260.184746 
L 88.75825 260.184746 
L 90.073584 261.605419 
L 91.388918 260.184746 
L 94.019586 260.184746 
L 95.33492 260.551371 
L 96.650254 260.551371 
L 97.965588 260.368058 
L 99.280922 260.368058 
L 100.596256 261.788732 
L 101.91159 260.184746 
L 103.226924 261.605419 
L 104.542258 261.605419 
L 105.857592 260.184746 
L 107.172926 261.605419 
L 108.48826 261.513763 
L 109.803594 260.184746 
L 111.118928 261.605419 
L 112.434262 260.184746 
L 113.749596 260.184746 
L 115.06493 261.605419 
L 116.380264 260.184746 
L 117.695598 261.605419 
L 119.010932 260.184746 
L 120.326266 263.026093 
L 121.641599 260.184746 
L 122.956933 260.184746 
L 125.587601 263.026093 
L 126.902935 261.605419 
L 128.218269 261.605419 
L 129.533603 260.184746 
L 130.848937 263.026093 
L 133.479605 260.184746 
L 134.794939 260.184746 
L 136.110273 261.33045 
L 137.425607 261.605419 
L 140.056275 261.697076 
L 141.371609 263.209406 
L 142.686943 260.368058 
L 144.002277 260.368058 
L 145.317611 261.788732 
L 146.632945 260.413886 
L 147.948279 260.597199 
L 149.263613 260.368058 
L 150.578947 260.368058 
L 151.894281 260.184746 
L 153.209615 261.467935 
L 154.524949 260.184746 
L 155.840283 261.33045 
L 157.155617 260.184746 
L 158.470951 260.184746 
L 159.786284 261.605419 
L 161.101618 261.605419 
L 162.416952 260.184746 
L 163.732286 261.33045 
L 165.04762 260.184746 
L 166.362954 262.84278 
L 167.678288 263.026093 
L 168.993622 260.184746 
L 170.308956 261.467935 
L 171.62429 261.788732 
L 172.939624 260.368058 
L 174.254958 260.230574 
L 175.570292 261.422107 
L 176.885626 260.184746 
L 178.20096 261.605419 
L 179.516294 260.184746 
L 180.831628 260.184746 
L 182.146962 262.888609 
L 183.462296 260.184746 
L 190.038966 260.184746 
L 191.3543 264.171798 
L 192.669634 262.751124 
L 193.984968 260.184746 
L 195.300302 260.184746 
L 196.615636 261.605419 
L 197.930969 261.605419 
L 199.246303 260.184746 
L 200.561637 265.180018 
L 201.876971 261.33045 
L 203.192305 260.184746 
L 204.507639 263.026093 
L 205.822973 260.184746 
L 211.084309 260.184746 
L 212.399643 261.605419 
L 213.714977 260.368058 
L 215.030311 261.513763 
L 216.345645 261.33045 
L 217.660979 260.184746 
L 220.291647 260.184746 
L 221.606981 261.788732 
L 222.922315 261.651248 
L 224.237649 260.368058 
L 225.552983 260.368058 
L 226.868317 262.888609 
L 228.183651 260.551371 
L 229.498985 260.917997 
L 230.814319 260.917997 
L 232.129653 262.521983 
L 233.444987 260.872168 
L 234.760321 260.917997 
L 236.075654 264.675908 
L 237.390988 262.247014 
L 238.706322 260.917997 
L 242.652324 260.368058 
L 243.967658 260.551371 
L 245.282992 261.788732 
L 246.598326 261.33045 
L 247.91366 260.184746 
L 249.228994 260.184746 
L 250.544328 261.605419 
L 251.859662 260.184746 
L 253.174996 261.972045 
L 254.49033 261.972045 
L 255.805664 261.284622 
L 257.120998 260.184746 
L 258.436332 260.184746 
L 259.751666 261.33045 
L 261.067 260.184746 
L 262.382334 260.184746 
L 263.697668 261.467935 
L 265.013002 260.184746 
L 266.328336 261.605419 
L 267.64367 260.184746 
L 270.274338 260.184746 
L 271.589672 261.559591 
L 272.905006 261.605419 
L 274.220339 260.184746 
L 275.535673 262.934437 
L 276.851007 260.184746 
L 280.797009 260.184746 
L 282.112343 261.605419 
L 283.427677 261.33045 
L 284.743011 260.184746 
L 292.635015 260.184746 
L 293.950349 260.368058 
L 295.265683 263.11775 
L 296.581017 261.33045 
L 297.896351 263.851 
L 299.211685 261.559591 
L 300.527019 260.138917 
L 301.842353 260.093089 
L 303.157687 262.521983 
L 304.473021 261.422107 
L 305.788355 259.955605 
L 308.419023 260.001433 
L 309.734357 262.567811 
L 311.04969 261.467935 
L 312.365024 260.047261 
L 316.311026 260.001433 
L 318.941694 260.047261 
L 320.257028 261.284622 
L 322.887696 261.467935 
L 324.20303 260.047261 
L 326.833698 260.047261 
L 328.149032 261.651248 
L 328.149032 261.651248 
" clip-path="url(#p909e0cca19)" style="fill: none; stroke: #6c3f70; stroke-width: 1.5; stroke-linecap: round"/>
   </g>
   <g id="line2d_18">
    <path d="M 66.397573 305.371338 
L 67.712907 304.408946 
L 69.028241 304.683915 
L 70.343575 304.592259 
L 72.974243 303.996492 
L 74.289577 302.071708 
L 75.604911 299.734471 
L 76.920245 297.809687 
L 78.235579 297.993 
L 79.550913 297.763859 
L 80.866247 297.122264 
L 82.181581 297.351405 
L 83.496915 297.763859 
L 84.812248 296.847295 
L 86.127582 297.855515 
L 87.442916 297.580546 
L 88.75825 297.626374 
L 90.073584 297.48889 
L 91.388918 297.626374 
L 92.704252 297.351405 
L 95.33492 297.351405 
L 97.965588 296.847295 
L 99.280922 297.351405 
L 100.596256 298.405453 
L 101.91159 298.130484 
L 103.226924 297.122264 
L 105.857592 297.076436 
L 108.48826 298.130484 
L 109.803594 297.626374 
L 111.118928 296.847295 
L 112.434262 297.626374 
L 113.749596 297.351405 
L 116.380264 297.305577 
L 117.695598 297.122264 
L 119.010932 297.351405 
L 120.326266 296.847295 
L 121.641599 297.351405 
L 122.956933 297.122264 
L 124.272267 297.672202 
L 125.587601 297.351405 
L 126.902935 297.626374 
L 128.218269 298.084656 
L 130.848937 297.259749 
L 132.164271 297.763859 
L 133.479605 297.718031 
L 134.794939 297.122264 
L 136.110273 297.351405 
L 137.425607 296.847295 
L 140.056275 296.847295 
L 142.686943 297.351405 
L 146.632945 297.351405 
L 147.948279 297.534718 
L 149.263613 297.305577 
L 150.578947 297.397233 
L 151.894281 297.351405 
L 153.209615 297.168092 
L 154.524949 297.580546 
L 155.840283 297.122264 
L 157.155617 298.130484 
L 158.470951 296.847295 
L 159.786284 297.076436 
L 161.101618 297.076436 
L 162.416952 297.809687 
L 163.732286 297.076436 
L 167.678288 297.305577 
L 168.993622 297.076436 
L 172.939624 297.580546 
L 174.254958 297.122264 
L 175.570292 297.626374 
L 176.885626 297.351405 
L 178.20096 296.847295 
L 179.516294 296.847295 
L 180.831628 297.351405 
L 182.146962 296.847295 
L 183.462296 297.580546 
L 184.77763 297.076436 
L 186.092964 297.626374 
L 187.408298 297.122264 
L 188.723632 297.580546 
L 190.038966 297.534718 
L 191.3543 297.259749 
L 192.669634 297.305577 
L 193.984968 296.847295 
L 195.300302 297.901343 
L 196.615636 298.634594 
L 197.930969 297.534718 
L 200.561637 297.076436 
L 201.876971 297.305577 
L 205.822973 297.351405 
L 207.138307 297.534718 
L 209.768975 297.076436 
L 211.084309 297.534718 
L 212.399643 297.076436 
L 213.714977 297.122264 
L 215.030311 297.030608 
L 216.345645 298.222141 
L 218.976313 297.534718 
L 220.291647 297.763859 
L 221.606981 297.122264 
L 222.922315 296.847295 
L 224.237649 296.847295 
L 225.552983 298.405453 
L 228.183651 297.672202 
L 229.498985 296.847295 
L 232.129653 297.855515 
L 234.760321 297.122264 
L 236.075654 298.038828 
L 237.390988 297.809687 
L 238.706322 297.168092 
L 240.021656 297.580546 
L 241.33699 297.580546 
L 242.652324 297.122264 
L 243.967658 297.076436 
L 245.282992 296.847295 
L 246.598326 296.847295 
L 247.91366 297.351405 
L 249.228994 297.626374 
L 250.544328 297.076436 
L 251.859662 297.626374 
L 253.174996 297.901343 
L 254.49033 297.305577 
L 258.436332 297.397233 
L 259.751666 297.122264 
L 262.382334 297.534718 
L 263.697668 297.122264 
L 265.013002 297.122264 
L 266.328336 296.847295 
L 267.64367 297.076436 
L 268.959004 297.076436 
L 270.274338 297.855515 
L 271.589672 297.076436 
L 272.905006 298.130484 
L 275.535673 297.122264 
L 278.166341 297.580546 
L 279.481675 296.847295 
L 280.797009 296.847295 
L 282.112343 297.580546 
L 283.427677 297.305577 
L 284.743011 297.580546 
L 286.058345 297.534718 
L 287.373679 297.351405 
L 288.689013 297.809687 
L 290.004347 297.305577 
L 291.319681 297.626374 
L 293.950349 298.084656 
L 296.581017 297.48889 
L 297.896351 297.580546 
L 299.211685 296.847295 
L 300.527019 297.122264 
L 301.842353 297.580546 
L 303.157687 297.534718 
L 304.473021 297.901343 
L 305.788355 296.938951 
L 307.103689 297.443061 
L 308.419023 297.626374 
L 309.734357 297.21392 
L 311.04969 297.030608 
L 312.365024 297.168092 
L 313.680358 297.626374 
L 314.995692 297.947171 
L 316.311026 297.21392 
L 317.62636 297.122264 
L 318.941694 296.847295 
L 320.257028 297.901343 
L 322.887696 296.847295 
L 324.20303 297.305577 
L 325.518364 297.534718 
L 326.833698 297.48889 
L 328.149032 296.938951 
L 328.149032 296.938951 
" clip-path="url(#p909e0cca19)" style="fill: none; stroke: #2d1e3e; stroke-width: 1.5; stroke-linecap: round"/>
   </g>
   <g id="line2d_19"/>
   <g id="line2d_20"/>
   <g id="line2d_21"/>
   <g id="line2d_22"/>
   <g id="line2d_23"/>
   <g id="patch_3">
    <path d="M 53.31 319.138125 
L 53.31 22.318125 
" style="fill: none; stroke: #ffffff; stroke-width: 1.25; stroke-linejoin: miter; stroke-linecap: square"/>
   </g>
   <g id="patch_4">
    <path d="M 53.31 319.138125 
L 341.236605 319.138125 
" style="fill: none; stroke: #ffffff; stroke-width: 1.25; stroke-linejoin: miter; stroke-linecap: square"/>
   </g>
   <g id="text_16">
    <!-- Tile For Left To Right -->
    <g style="fill: #262626" transform="translate(136.36674 16.318125)scale(0.12 -0.12)">
     <defs>
      <path id="DejaVuSans-54" d="M -19 4666 
L 3928 4666 
L 3928 4134 
L 2272 4134 
L 2272 0 
L 1638 0 
L 1638 4134 
L -19 4134 
L -19 4666 
z
" transform="scale(0.015625)"/>
      <path id="DejaVuSans-6c" d="M 603 4863 
L 1178 4863 
L 1178 0 
L 603 0 
L 603 4863 
z
" transform="scale(0.015625)"/>
      <path id="DejaVuSans-20" transform="scale(0.015625)"/>
      <path id="DejaVuSans-4c" d="M 628 4666 
L 1259 4666 
L 1259 531 
L 3531 531 
L 3531 0 
L 628 0 
L 628 4666 
z
" transform="scale(0.015625)"/>
      <path id="DejaVuSans-66" d="M 2375 4863 
L 2375 4384 
L 1825 4384 
Q 1516 4384 1395 4259 
Q 1275 4134 1275 3809 
L 1275 3500 
L 2222 3500 
L 2222 3053 
L 1275 3053 
L 1275 0 
L 697 0 
L 697 3053 
L 147 3053 
L 147 3500 
L 697 3500 
L 697 3744 
Q 697 4328 969 4595 
Q 1241 4863 1831 4863 
L 2375 4863 
z
" transform="scale(0.015625)"/>
      <path id="DejaVuSans-52" d="M 2841 2188 
Q 3044 2119 3236 1894 
Q 3428 1669 3622 1275 
L 4263 0 
L 3584 0 
L 2988 1197 
Q 2756 1666 2539 1819 
Q 2322 1972 1947 1972 
L 1259 1972 
L 1259 0 
L 628 0 
L 628 4666 
L 2053 4666 
Q 2853 4666 3247 4331 
Q 3641 3997 3641 3322 
Q 3641 2881 3436 2590 
Q 3231 2300 2841 2188 
z
M 1259 4147 
L 1259 2491 
L 2053 2491 
Q 2509 2491 2742 2702 
Q 2975 2913 2975 3322 
Q 2975 3731 2742 3939 
Q 2509 4147 2053 4147 
L 1259 4147 
z
" transform="scale(0.015625)"/>
      <path id="DejaVuSans-67" d="M 2906 1791 
Q 2906 2416 2648 2759 
Q 2391 3103 1925 3103 
Q 1463 3103 1205 2759 
Q 947 2416 947 1791 
Q 947 1169 1205 825 
Q 1463 481 1925 481 
Q 2391 481 2648 825 
Q 2906 1169 2906 1791 
z
M 3481 434 
Q 3481 -459 3084 -895 
Q 2688 -1331 1869 -1331 
Q 1566 -1331 1297 -1286 
Q 1028 -1241 775 -1147 
L 775 -588 
Q 1028 -725 1275 -790 
Q 1522 -856 1778 -856 
Q 2344 -856 2625 -561 
Q 2906 -266 2906 331 
L 2906 616 
Q 2728 306 2450 153 
Q 2172 0 1784 0 
Q 1141 0 747 490 
Q 353 981 353 1791 
Q 353 2603 747 3093 
Q 1141 3584 1784 3584 
Q 2172 3584 2450 3431 
Q 2728 3278 2906 2969 
L 2906 3500 
L 3481 3500 
L 3481 434 
z
" transform="scale(0.015625)"/>
      <path id="DejaVuSans-68" d="M 3513 2113 
L 3513 0 
L 2938 0 
L 2938 2094 
Q 2938 2591 2744 2837 
Q 2550 3084 2163 3084 
Q 1697 3084 1428 2787 
Q 1159 2491 1159 1978 
L 1159 0 
L 581 0 
L 581 4863 
L 1159 4863 
L 1159 2956 
Q 1366 3272 1645 3428 
Q 1925 3584 2291 3584 
Q 2894 3584 3203 3211 
Q 3513 2838 3513 2113 
z
" transform="scale(0.015625)"/>
     </defs>
     <use xlink:href="#DejaVuSans-54"/>
     <use xlink:href="#DejaVuSans-69" x="57.958984"/>
     <use xlink:href="#DejaVuSans-6c" x="85.742188"/>
     <use xlink:href="#DejaVuSans-65" x="113.525391"/>
     <use xlink:href="#DejaVuSans-20" x="175.048828"/>
     <use xlink:href="#DejaVuSans-46" x="206.835938"/>
     <use xlink:href="#DejaVuSans-6f" x="260.730469"/>
     <use xlink:href="#DejaVuSans-72" x="321.912109"/>
     <use xlink:href="#DejaVuSans-20" x="363.025391"/>
     <use xlink:href="#DejaVuSans-4c" x="394.8125"/>
     <use xlink:href="#DejaVuSans-65" x="448.775391"/>
     <use xlink:href="#DejaVuSans-66" x="510.298828"/>
     <use xlink:href="#DejaVuSans-74" x="543.753906"/>
     <use xlink:href="#DejaVuSans-20" x="582.962891"/>
     <use xlink:href="#DejaVuSans-54" x="614.75"/>
     <use xlink:href="#DejaVuSans-6f" x="658.833984"/>
     <use xlink:href="#DejaVuSans-20" x="720.015625"/>
     <use xlink:href="#DejaVuSans-52" x="751.802734"/>
     <use xlink:href="#DejaVuSans-69" x="821.285156"/>
     <use xlink:href="#DejaVuSans-67" x="849.068359"/>
     <use xlink:href="#DejaVuSans-68" x="912.544922"/>
     <use xlink:href="#DejaVuSans-74" x="975.923828"/>
    </g>
   </g>
  </g>
  <g id="legend_1">
   <g id="text_17">
    <!-- Trial -->
    <g style="fill: #262626" transform="translate(352.566555 143.995312)scale(0.12 -0.12)">
     <use xlink:href="#DejaVuSans-54"/>
     <use xlink:href="#DejaVuSans-72" x="46.333984"/>
     <use xlink:href="#DejaVuSans-69" x="87.447266"/>
     <use xlink:href="#DejaVuSans-61" x="115.230469"/>
     <use xlink:href="#DejaVuSans-6c" x="176.509766"/>
    </g>
   </g>
   <g id="line2d_24">
    <path d="M 345.924055 156.499219 
L 356.924055 156.499219 
L 367.924055 156.499219 
" style="fill: none; stroke: #edd1cb; stroke-width: 1.5; stroke-linecap: round"/>
   </g>
   <g id="text_18">
    <!-- 0 -->
    <g style="fill: #262626" transform="translate(376.724055 160.349219)scale(0.11 -0.11)">
     <use xlink:href="#DejaVuSans-30"/>
    </g>
   </g>
   <g id="line2d_25">
    <path d="M 345.924055 172.645156 
L 356.924055 172.645156 
L 367.924055 172.645156 
" style="fill: none; stroke: #d499a7; stroke-width: 1.5; stroke-linecap: round"/>
   </g>
   <g id="text_19">
    <!-- 1 -->
    <g style="fill: #262626" transform="translate(376.724055 176.495156)scale(0.11 -0.11)">
     <use xlink:href="#DejaVuSans-31"/>
    </g>
   </g>
   <g id="line2d_26">
    <path d="M 345.924055 188.791094 
L 356.924055 188.791094 
L 367.924055 188.791094 
" style="fill: none; stroke: #a9678f; stroke-width: 1.5; stroke-linecap: round"/>
   </g>
   <g id="text_20">
    <!-- 2 -->
    <g style="fill: #262626" transform="translate(376.724055 192.641094)scale(0.11 -0.11)">
     <use xlink:href="#DejaVuSans-32"/>
    </g>
   </g>
   <g id="line2d_27">
    <path d="M 345.924055 204.937031 
L 356.924055 204.937031 
L 367.924055 204.937031 
" style="fill: none; stroke: #6c3f70; stroke-width: 1.5; stroke-linecap: round"/>
   </g>
   <g id="text_21">
    <!-- 3 -->
    <g style="fill: #262626" transform="translate(376.724055 208.787031)scale(0.11 -0.11)">
     <defs>
      <path id="DejaVuSans-33" d="M 2597 2516 
Q 3050 2419 3304 2112 
Q 3559 1806 3559 1356 
Q 3559 666 3084 287 
Q 2609 -91 1734 -91 
Q 1441 -91 1130 -33 
Q 819 25 488 141 
L 488 750 
Q 750 597 1062 519 
Q 1375 441 1716 441 
Q 2309 441 2620 675 
Q 2931 909 2931 1356 
Q 2931 1769 2642 2001 
Q 2353 2234 1838 2234 
L 1294 2234 
L 1294 2753 
L 1863 2753 
Q 2328 2753 2575 2939 
Q 2822 3125 2822 3475 
Q 2822 3834 2567 4026 
Q 2313 4219 1838 4219 
Q 1578 4219 1281 4162 
Q 984 4106 628 3988 
L 628 4550 
Q 988 4650 1302 4700 
Q 1616 4750 1894 4750 
Q 2613 4750 3031 4423 
Q 3450 4097 3450 3541 
Q 3450 3153 3228 2886 
Q 3006 2619 2597 2516 
z
" transform="scale(0.015625)"/>
     </defs>
     <use xlink:href="#DejaVuSans-33"/>
    </g>
   </g>
   <g id="line2d_28">
    <path d="M 345.924055 221.082969 
L 356.924055 221.082969 
L 367.924055 221.082969 
" style="fill: none; stroke: #2d1e3e; stroke-width: 1.5; stroke-linecap: round"/>
   </g>
   <g id="text_22">
    <!-- 4 -->
    <g style="fill: #262626" transform="translate(376.724055 224.932969)scale(0.11 -0.11)">
     <defs>
      <path id="DejaVuSans-34" d="M 2419 4116 
L 825 1625 
L 2419 1625 
L 2419 4116 
z
M 2253 4666 
L 3047 4666 
L 3047 1625 
L 3713 1625 
L 3713 1100 
L 3047 1100 
L 3047 0 
L 2419 0 
L 2419 1100 
L 313 1100 
L 313 1709 
L 2253 4666 
z
" transform="scale(0.015625)"/>
     </defs>
     <use xlink:href="#DejaVuSans-34"/>
    </g>
   </g>
  </g>
 </g>
 <defs>
  <clipPath id="p909e0cca19">
   <rect x="53.31" y="22.318125" width="287.926605" height="296.82"/>
  </clipPath>
 </defs>
</svg>
