<?xml version="1.0" encoding="utf-8" standalone="no"?>
<!DOCTYPE svg PUBLIC "-//W3C//DTD SVG 1.1//EN"
  "http://www.w3.org/Graphics/SVG/1.1/DTD/svg11.dtd">
<svg xmlns:xlink="http://www.w3.org/1999/xlink" width="392.79412pt" height="362.097812pt" viewBox="0 0 392.79412 362.097812" xmlns="http://www.w3.org/2000/svg" version="1.1">
 <metadata>
  <rdf:RDF xmlns:dc="http://purl.org/dc/elements/1.1/" xmlns:cc="http://creativecommons.org/ns#" xmlns:rdf="http://www.w3.org/1999/02/22-rdf-syntax-ns#">
   <cc:Work>
    <dc:type rdf:resource="http://purl.org/dc/dcmitype/StillImage"/>
    <dc:date>2022-11-20T08:26:39.668111</dc:date>
    <dc:format>image/svg+xml</dc:format>
    <dc:creator>
     <cc:Agent>
      <dc:title>Matplotlib v3.5.2, https://matplotlib.org/</dc:title>
     </cc:Agent>
    </dc:creator>
   </cc:Work>
  </rdf:RDF>
 </metadata>
 <defs>
  <style type="text/css">*{stroke-linejoin: round; stroke-linecap: butt}</style>
 </defs>
 <g id="figure_1">
  <g id="patch_1">
   <path d="M 0 362.097812 
L 392.79412 362.097812 
L 392.79412 0 
L 0 0 
z
" style="fill: #ffffff"/>
  </g>
  <g id="axes_1">
   <g id="patch_2">
    <path d="M 60.30875 319.138125 
L 340.40792 319.138125 
L 340.40792 22.318125 
L 60.30875 22.318125 
z
" style="fill: #eaeaf2"/>
   </g>
   <g id="matplotlib.axis_1">
    <g id="xtick_1">
     <g id="line2d_1">
      <path d="M 73.04053 319.138125 
L 73.04053 22.318125 
" clip-path="url(#p775223565a)" style="fill: none; stroke: #ffffff; stroke-linecap: round"/>
     </g>
     <g id="text_1">
      <!-- 0 -->
      <g style="fill: #262626" transform="translate(69.541155 336.996406)scale(0.11 -0.11)">
       <defs>
        <path id="DejaVuSans-30" d="M 2034 4250 
Q 1547 4250 1301 3770 
Q 1056 3291 1056 2328 
Q 1056 1369 1301 889 
Q 1547 409 2034 409 
Q 2525 409 2770 889 
Q 3016 1369 3016 2328 
Q 3016 3291 2770 3770 
Q 2525 4250 2034 4250 
z
M 2034 4750 
Q 2819 4750 3233 4129 
Q 3647 3509 3647 2328 
Q 3647 1150 3233 529 
Q 2819 -91 2034 -91 
Q 1250 -91 836 529 
Q 422 1150 422 2328 
Q 422 3509 836 4129 
Q 1250 4750 2034 4750 
z
" transform="scale(0.015625)"/>
       </defs>
       <use xlink:href="#DejaVuSans-30"/>
      </g>
     </g>
    </g>
    <g id="xtick_2">
     <g id="line2d_2">
      <path d="M 137.019327 319.138125 
L 137.019327 22.318125 
" clip-path="url(#p775223565a)" style="fill: none; stroke: #ffffff; stroke-linecap: round"/>
     </g>
     <g id="text_2">
      <!-- 50 -->
      <g style="fill: #262626" transform="translate(130.020577 336.996406)scale(0.11 -0.11)">
       <defs>
        <path id="DejaVuSans-35" d="M 691 4666 
L 3169 4666 
L 3169 4134 
L 1269 4134 
L 1269 2991 
Q 1406 3038 1543 3061 
Q 1681 3084 1819 3084 
Q 2600 3084 3056 2656 
Q 3513 2228 3513 1497 
Q 3513 744 3044 326 
Q 2575 -91 1722 -91 
Q 1428 -91 1123 -41 
Q 819 9 494 109 
L 494 744 
Q 775 591 1075 516 
Q 1375 441 1709 441 
Q 2250 441 2565 725 
Q 2881 1009 2881 1497 
Q 2881 1984 2565 2268 
Q 2250 2553 1709 2553 
Q 1456 2553 1204 2497 
Q 953 2441 691 2322 
L 691 4666 
z
" transform="scale(0.015625)"/>
       </defs>
       <use xlink:href="#DejaVuSans-35"/>
       <use xlink:href="#DejaVuSans-30" x="63.623047"/>
      </g>
     </g>
    </g>
    <g id="xtick_3">
     <g id="line2d_3">
      <path d="M 200.998123 319.138125 
L 200.998123 22.318125 
" clip-path="url(#p775223565a)" style="fill: none; stroke: #ffffff; stroke-linecap: round"/>
     </g>
     <g id="text_3">
      <!-- 100 -->
      <g style="fill: #262626" transform="translate(190.499998 336.996406)scale(0.11 -0.11)">
       <defs>
        <path id="DejaVuSans-31" d="M 794 531 
L 1825 531 
L 1825 4091 
L 703 3866 
L 703 4441 
L 1819 4666 
L 2450 4666 
L 2450 531 
L 3481 531 
L 3481 0 
L 794 0 
L 794 531 
z
" transform="scale(0.015625)"/>
       </defs>
       <use xlink:href="#DejaVuSans-31"/>
       <use xlink:href="#DejaVuSans-30" x="63.623047"/>
       <use xlink:href="#DejaVuSans-30" x="127.246094"/>
      </g>
     </g>
    </g>
    <g id="xtick_4">
     <g id="line2d_4">
      <path d="M 264.976919 319.138125 
L 264.976919 22.318125 
" clip-path="url(#p775223565a)" style="fill: none; stroke: #ffffff; stroke-linecap: round"/>
     </g>
     <g id="text_4">
      <!-- 150 -->
      <g style="fill: #262626" transform="translate(254.478794 336.996406)scale(0.11 -0.11)">
       <use xlink:href="#DejaVuSans-31"/>
       <use xlink:href="#DejaVuSans-35" x="63.623047"/>
       <use xlink:href="#DejaVuSans-30" x="127.246094"/>
      </g>
     </g>
    </g>
    <g id="xtick_5">
     <g id="line2d_5">
      <path d="M 328.955715 319.138125 
L 328.955715 22.318125 
" clip-path="url(#p775223565a)" style="fill: none; stroke: #ffffff; stroke-linecap: round"/>
     </g>
     <g id="text_5">
      <!-- 200 -->
      <g style="fill: #262626" transform="translate(318.45759 336.996406)scale(0.11 -0.11)">
       <defs>
        <path id="DejaVuSans-32" d="M 1228 531 
L 3431 531 
L 3431 0 
L 469 0 
L 469 531 
Q 828 903 1448 1529 
Q 2069 2156 2228 2338 
Q 2531 2678 2651 2914 
Q 2772 3150 2772 3378 
Q 2772 3750 2511 3984 
Q 2250 4219 1831 4219 
Q 1534 4219 1204 4116 
Q 875 4013 500 3803 
L 500 4441 
Q 881 4594 1212 4672 
Q 1544 4750 1819 4750 
Q 2544 4750 2975 4387 
Q 3406 4025 3406 3419 
Q 3406 3131 3298 2873 
Q 3191 2616 2906 2266 
Q 2828 2175 2409 1742 
Q 1991 1309 1228 531 
z
" transform="scale(0.015625)"/>
       </defs>
       <use xlink:href="#DejaVuSans-32"/>
       <use xlink:href="#DejaVuSans-30" x="63.623047"/>
       <use xlink:href="#DejaVuSans-30" x="127.246094"/>
      </g>
     </g>
    </g>
    <g id="text_6">
     <!-- Generation -->
     <g style="fill: #262626" transform="translate(166.886773 352.402187)scale(0.12 -0.12)">
      <defs>
       <path id="DejaVuSans-47" d="M 3809 666 
L 3809 1919 
L 2778 1919 
L 2778 2438 
L 4434 2438 
L 4434 434 
Q 4069 175 3628 42 
Q 3188 -91 2688 -91 
Q 1594 -91 976 548 
Q 359 1188 359 2328 
Q 359 3472 976 4111 
Q 1594 4750 2688 4750 
Q 3144 4750 3555 4637 
Q 3966 4525 4313 4306 
L 4313 3634 
Q 3963 3931 3569 4081 
Q 3175 4231 2741 4231 
Q 1884 4231 1454 3753 
Q 1025 3275 1025 2328 
Q 1025 1384 1454 906 
Q 1884 428 2741 428 
Q 3075 428 3337 486 
Q 3600 544 3809 666 
z
" transform="scale(0.015625)"/>
       <path id="DejaVuSans-65" d="M 3597 1894 
L 3597 1613 
L 953 1613 
Q 991 1019 1311 708 
Q 1631 397 2203 397 
Q 2534 397 2845 478 
Q 3156 559 3463 722 
L 3463 178 
Q 3153 47 2828 -22 
Q 2503 -91 2169 -91 
Q 1331 -91 842 396 
Q 353 884 353 1716 
Q 353 2575 817 3079 
Q 1281 3584 2069 3584 
Q 2775 3584 3186 3129 
Q 3597 2675 3597 1894 
z
M 3022 2063 
Q 3016 2534 2758 2815 
Q 2500 3097 2075 3097 
Q 1594 3097 1305 2825 
Q 1016 2553 972 2059 
L 3022 2063 
z
" transform="scale(0.015625)"/>
       <path id="DejaVuSans-6e" d="M 3513 2113 
L 3513 0 
L 2938 0 
L 2938 2094 
Q 2938 2591 2744 2837 
Q 2550 3084 2163 3084 
Q 1697 3084 1428 2787 
Q 1159 2491 1159 1978 
L 1159 0 
L 581 0 
L 581 3500 
L 1159 3500 
L 1159 2956 
Q 1366 3272 1645 3428 
Q 1925 3584 2291 3584 
Q 2894 3584 3203 3211 
Q 3513 2838 3513 2113 
z
" transform="scale(0.015625)"/>
       <path id="DejaVuSans-72" d="M 2631 2963 
Q 2534 3019 2420 3045 
Q 2306 3072 2169 3072 
Q 1681 3072 1420 2755 
Q 1159 2438 1159 1844 
L 1159 0 
L 581 0 
L 581 3500 
L 1159 3500 
L 1159 2956 
Q 1341 3275 1631 3429 
Q 1922 3584 2338 3584 
Q 2397 3584 2469 3576 
Q 2541 3569 2628 3553 
L 2631 2963 
z
" transform="scale(0.015625)"/>
       <path id="DejaVuSans-61" d="M 2194 1759 
Q 1497 1759 1228 1600 
Q 959 1441 959 1056 
Q 959 750 1161 570 
Q 1363 391 1709 391 
Q 2188 391 2477 730 
Q 2766 1069 2766 1631 
L 2766 1759 
L 2194 1759 
z
M 3341 1997 
L 3341 0 
L 2766 0 
L 2766 531 
Q 2569 213 2275 61 
Q 1981 -91 1556 -91 
Q 1019 -91 701 211 
Q 384 513 384 1019 
Q 384 1609 779 1909 
Q 1175 2209 1959 2209 
L 2766 2209 
L 2766 2266 
Q 2766 2663 2505 2880 
Q 2244 3097 1772 3097 
Q 1472 3097 1187 3025 
Q 903 2953 641 2809 
L 641 3341 
Q 956 3463 1253 3523 
Q 1550 3584 1831 3584 
Q 2591 3584 2966 3190 
Q 3341 2797 3341 1997 
z
" transform="scale(0.015625)"/>
       <path id="DejaVuSans-74" d="M 1172 4494 
L 1172 3500 
L 2356 3500 
L 2356 3053 
L 1172 3053 
L 1172 1153 
Q 1172 725 1289 603 
Q 1406 481 1766 481 
L 2356 481 
L 2356 0 
L 1766 0 
Q 1100 0 847 248 
Q 594 497 594 1153 
L 594 3053 
L 172 3053 
L 172 3500 
L 594 3500 
L 594 4494 
L 1172 4494 
z
" transform="scale(0.015625)"/>
       <path id="DejaVuSans-69" d="M 603 3500 
L 1178 3500 
L 1178 0 
L 603 0 
L 603 3500 
z
M 603 4863 
L 1178 4863 
L 1178 4134 
L 603 4134 
L 603 4863 
z
" transform="scale(0.015625)"/>
       <path id="DejaVuSans-6f" d="M 1959 3097 
Q 1497 3097 1228 2736 
Q 959 2375 959 1747 
Q 959 1119 1226 758 
Q 1494 397 1959 397 
Q 2419 397 2687 759 
Q 2956 1122 2956 1747 
Q 2956 2369 2687 2733 
Q 2419 3097 1959 3097 
z
M 1959 3584 
Q 2709 3584 3137 3096 
Q 3566 2609 3566 1747 
Q 3566 888 3137 398 
Q 2709 -91 1959 -91 
Q 1206 -91 779 398 
Q 353 888 353 1747 
Q 353 2609 779 3096 
Q 1206 3584 1959 3584 
z
" transform="scale(0.015625)"/>
      </defs>
      <use xlink:href="#DejaVuSans-47"/>
      <use xlink:href="#DejaVuSans-65" x="77.490234"/>
      <use xlink:href="#DejaVuSans-6e" x="139.013672"/>
      <use xlink:href="#DejaVuSans-65" x="202.392578"/>
      <use xlink:href="#DejaVuSans-72" x="263.916016"/>
      <use xlink:href="#DejaVuSans-61" x="305.029297"/>
      <use xlink:href="#DejaVuSans-74" x="366.308594"/>
      <use xlink:href="#DejaVuSans-69" x="405.517578"/>
      <use xlink:href="#DejaVuSans-6f" x="433.300781"/>
      <use xlink:href="#DejaVuSans-6e" x="494.482422"/>
     </g>
    </g>
   </g>
   <g id="matplotlib.axis_2">
    <g id="ytick_1">
     <g id="line2d_6">
      <path d="M 60.30875 305.651077 
L 340.40792 305.651077 
" clip-path="url(#p775223565a)" style="fill: none; stroke: #ffffff; stroke-linecap: round"/>
     </g>
     <g id="text_7">
      <!-- 0 -->
      <g style="fill: #262626" transform="translate(43.81 309.830218)scale(0.11 -0.11)">
       <use xlink:href="#DejaVuSans-30"/>
      </g>
     </g>
    </g>
    <g id="ytick_2">
     <g id="line2d_7">
      <path d="M 60.30875 267.488147 
L 340.40792 267.488147 
" clip-path="url(#p775223565a)" style="fill: none; stroke: #ffffff; stroke-linecap: round"/>
     </g>
     <g id="text_8">
      <!-- 250 -->
      <g style="fill: #262626" transform="translate(29.8125 271.667288)scale(0.11 -0.11)">
       <use xlink:href="#DejaVuSans-32"/>
       <use xlink:href="#DejaVuSans-35" x="63.623047"/>
       <use xlink:href="#DejaVuSans-30" x="127.246094"/>
      </g>
     </g>
    </g>
    <g id="ytick_3">
     <g id="line2d_8">
      <path d="M 60.30875 229.325217 
L 340.40792 229.325217 
" clip-path="url(#p775223565a)" style="fill: none; stroke: #ffffff; stroke-linecap: round"/>
     </g>
     <g id="text_9">
      <!-- 500 -->
      <g style="fill: #262626" transform="translate(29.8125 233.504358)scale(0.11 -0.11)">
       <use xlink:href="#DejaVuSans-35"/>
       <use xlink:href="#DejaVuSans-30" x="63.623047"/>
       <use xlink:href="#DejaVuSans-30" x="127.246094"/>
      </g>
     </g>
    </g>
    <g id="ytick_4">
     <g id="line2d_9">
      <path d="M 60.30875 191.162287 
L 340.40792 191.162287 
" clip-path="url(#p775223565a)" style="fill: none; stroke: #ffffff; stroke-linecap: round"/>
     </g>
     <g id="text_10">
      <!-- 750 -->
      <g style="fill: #262626" transform="translate(29.8125 195.341428)scale(0.11 -0.11)">
       <defs>
        <path id="DejaVuSans-37" d="M 525 4666 
L 3525 4666 
L 3525 4397 
L 1831 0 
L 1172 0 
L 2766 4134 
L 525 4134 
L 525 4666 
z
" transform="scale(0.015625)"/>
       </defs>
       <use xlink:href="#DejaVuSans-37"/>
       <use xlink:href="#DejaVuSans-35" x="63.623047"/>
       <use xlink:href="#DejaVuSans-30" x="127.246094"/>
      </g>
     </g>
    </g>
    <g id="ytick_5">
     <g id="line2d_10">
      <path d="M 60.30875 152.999357 
L 340.40792 152.999357 
" clip-path="url(#p775223565a)" style="fill: none; stroke: #ffffff; stroke-linecap: round"/>
     </g>
     <g id="text_11">
      <!-- 1000 -->
      <g style="fill: #262626" transform="translate(22.81375 157.178498)scale(0.11 -0.11)">
       <use xlink:href="#DejaVuSans-31"/>
       <use xlink:href="#DejaVuSans-30" x="63.623047"/>
       <use xlink:href="#DejaVuSans-30" x="127.246094"/>
       <use xlink:href="#DejaVuSans-30" x="190.869141"/>
      </g>
     </g>
    </g>
    <g id="ytick_6">
     <g id="line2d_11">
      <path d="M 60.30875 114.836427 
L 340.40792 114.836427 
" clip-path="url(#p775223565a)" style="fill: none; stroke: #ffffff; stroke-linecap: round"/>
     </g>
     <g id="text_12">
      <!-- 1250 -->
      <g style="fill: #262626" transform="translate(22.81375 119.015568)scale(0.11 -0.11)">
       <use xlink:href="#DejaVuSans-31"/>
       <use xlink:href="#DejaVuSans-32" x="63.623047"/>
       <use xlink:href="#DejaVuSans-35" x="127.246094"/>
       <use xlink:href="#DejaVuSans-30" x="190.869141"/>
      </g>
     </g>
    </g>
    <g id="ytick_7">
     <g id="line2d_12">
      <path d="M 60.30875 76.673497 
L 340.40792 76.673497 
" clip-path="url(#p775223565a)" style="fill: none; stroke: #ffffff; stroke-linecap: round"/>
     </g>
     <g id="text_13">
      <!-- 1500 -->
      <g style="fill: #262626" transform="translate(22.81375 80.852637)scale(0.11 -0.11)">
       <use xlink:href="#DejaVuSans-31"/>
       <use xlink:href="#DejaVuSans-35" x="63.623047"/>
       <use xlink:href="#DejaVuSans-30" x="127.246094"/>
       <use xlink:href="#DejaVuSans-30" x="190.869141"/>
      </g>
     </g>
    </g>
    <g id="ytick_8">
     <g id="line2d_13">
      <path d="M 60.30875 38.510567 
L 340.40792 38.510567 
" clip-path="url(#p775223565a)" style="fill: none; stroke: #ffffff; stroke-linecap: round"/>
     </g>
     <g id="text_14">
      <!-- 1750 -->
      <g style="fill: #262626" transform="translate(22.81375 42.689707)scale(0.11 -0.11)">
       <use xlink:href="#DejaVuSans-31"/>
       <use xlink:href="#DejaVuSans-37" x="63.623047"/>
       <use xlink:href="#DejaVuSans-35" x="127.246094"/>
       <use xlink:href="#DejaVuSans-30" x="190.869141"/>
      </g>
     </g>
    </g>
    <g id="text_15">
     <!-- Fitness -->
     <g style="fill: #262626" transform="translate(16.318125 191.50875)rotate(-90)scale(0.12 -0.12)">
      <defs>
       <path id="DejaVuSans-46" d="M 628 4666 
L 3309 4666 
L 3309 4134 
L 1259 4134 
L 1259 2759 
L 3109 2759 
L 3109 2228 
L 1259 2228 
L 1259 0 
L 628 0 
L 628 4666 
z
" transform="scale(0.015625)"/>
       <path id="DejaVuSans-73" d="M 2834 3397 
L 2834 2853 
Q 2591 2978 2328 3040 
Q 2066 3103 1784 3103 
Q 1356 3103 1142 2972 
Q 928 2841 928 2578 
Q 928 2378 1081 2264 
Q 1234 2150 1697 2047 
L 1894 2003 
Q 2506 1872 2764 1633 
Q 3022 1394 3022 966 
Q 3022 478 2636 193 
Q 2250 -91 1575 -91 
Q 1294 -91 989 -36 
Q 684 19 347 128 
L 347 722 
Q 666 556 975 473 
Q 1284 391 1588 391 
Q 1994 391 2212 530 
Q 2431 669 2431 922 
Q 2431 1156 2273 1281 
Q 2116 1406 1581 1522 
L 1381 1569 
Q 847 1681 609 1914 
Q 372 2147 372 2553 
Q 372 3047 722 3315 
Q 1072 3584 1716 3584 
Q 2034 3584 2315 3537 
Q 2597 3491 2834 3397 
z
" transform="scale(0.015625)"/>
      </defs>
      <use xlink:href="#DejaVuSans-46"/>
      <use xlink:href="#DejaVuSans-69" x="50.269531"/>
      <use xlink:href="#DejaVuSans-74" x="78.052734"/>
      <use xlink:href="#DejaVuSans-6e" x="117.261719"/>
      <use xlink:href="#DejaVuSans-65" x="180.640625"/>
      <use xlink:href="#DejaVuSans-73" x="242.164062"/>
      <use xlink:href="#DejaVuSans-73" x="294.263672"/>
     </g>
    </g>
   </g>
   <g id="PolyCollection_1">
    <defs>
     <path id="m3dc4f7aa01" d="M 73.04053 -56.90481 
L 73.04053 -56.456276 
L 74.320106 -57.386497 
L 75.599682 -58.340451 
L 76.879258 -58.664836 
L 78.158834 -59.127204 
L 79.43841 -59.799826 
L 80.717986 -61.717036 
L 81.997562 -64.393927 
L 83.277138 -69.144615 
L 84.556714 -75.828256 
L 85.83629 -80.085689 
L 87.115866 -99.656117 
L 88.395442 -114.242823 
L 89.675017 -149.402092 
L 90.954593 -167.376832 
L 92.234169 -178.568112 
L 93.513745 -163.302939 
L 94.793321 -178.568112 
L 96.072897 -178.568112 
L 97.352473 -178.568112 
L 98.632049 -178.568112 
L 99.911625 -159.813059 
L 101.191201 -167.376832 
L 102.470777 -178.568112 
L 103.750353 -167.119232 
L 105.029929 -178.568112 
L 106.309505 -159.915979 
L 107.58908 -156.397715 
L 108.868656 -171.584295 
L 110.148232 -178.568112 
L 111.427808 -178.568112 
L 112.707384 -167.119232 
L 113.98696 -178.568112 
L 115.266536 -167.405454 
L 116.546112 -178.568112 
L 117.825688 -178.568112 
L 119.105264 -167.119232 
L 120.38484 -167.677365 
L 121.664416 -178.568112 
L 122.943992 -178.568112 
L 124.223567 -172.986783 
L 125.503143 -178.568112 
L 126.782719 -178.568112 
L 128.062295 -167.119232 
L 129.341871 -167.262343 
L 130.621447 -170.21043 
L 131.901023 -178.568112 
L 133.180599 -178.568112 
L 134.460175 -178.568112 
L 135.739751 -161.785963 
L 137.019327 -170.053008 
L 138.298903 -178.568112 
L 139.578479 -178.568112 
L 140.858054 -167.119232 
L 142.13763 -167.505632 
L 143.417206 -167.376832 
L 144.696782 -178.568112 
L 145.976358 -178.568112 
L 147.255934 -167.505632 
L 148.53551 -159.763208 
L 149.815086 -178.568112 
L 151.094662 -167.505632 
L 152.374238 -158.438478 
L 153.653814 -167.677365 
L 154.93339 -167.248032 
L 156.212966 -155.795933 
L 157.492542 -178.568112 
L 158.772117 -178.568112 
L 160.051693 -178.28189 
L 161.331269 -178.28189 
L 162.610845 -166.928418 
L 163.890421 -166.651737 
L 165.169997 -168.385765 
L 166.449573 -167.405454 
L 167.729149 -178.568112 
L 169.008725 -178.568112 
L 170.288301 -178.568112 
L 171.567877 -178.568112 
L 172.847453 -178.568112 
L 174.127029 -171.026162 
L 175.406604 -178.28189 
L 176.68618 -163.608243 
L 177.965756 -166.985662 
L 179.245332 -178.568112 
L 180.524908 -167.119232 
L 181.804484 -178.568112 
L 183.08406 -167.491321 
L 184.363636 -178.568112 
L 185.643212 -178.568112 
L 186.922788 -167.119232 
L 188.202364 -159.858735 
L 189.48194 -178.568112 
L 190.761516 -178.568112 
L 192.041091 -178.568112 
L 193.320667 -167.119232 
L 194.600243 -167.300506 
L 195.879819 -167.314817 
L 197.159395 -178.091075 
L 198.438971 -178.28189 
L 199.718547 -178.28189 
L 200.998123 -178.28189 
L 202.277699 -178.091075 
L 203.557275 -166.833011 
L 204.836851 -178.091075 
L 206.116427 -166.737603 
L 207.396003 -166.642196 
L 208.675579 -166.451381 
L 209.955154 -166.830625 
L 211.23473 -177.90026 
L 212.514306 -162.496748 
L 213.793882 -162.670866 
L 215.073458 -159.865891 
L 216.353034 -151.672429 
L 217.63261 -171.584295 
L 218.912186 -178.568112 
L 220.191762 -178.568112 
L 221.471338 -178.568112 
L 222.750914 -178.568112 
L 224.03049 -167.119232 
L 225.310066 -178.568112 
L 226.589641 -169.351764 
L 227.869217 -167.405454 
L 229.148793 -168.879498 
L 230.428369 -178.568112 
L 231.707945 -172.786428 
L 232.987521 -178.568112 
L 234.267097 -159.486646 
L 235.546673 -178.568112 
L 236.826249 -178.568112 
L 238.105825 -178.568112 
L 239.385401 -178.568112 
L 240.664977 -178.663519 
L 241.944553 -155.400828 
L 243.224128 -160.292481 
L 244.503704 -159.675076 
L 245.78328 -166.807847 
L 247.062856 -156.012866 
L 248.342432 -178.568112 
L 249.622008 -178.568112 
L 250.901584 -167.119232 
L 252.18116 -178.568112 
L 253.460736 -178.568112 
L 254.740312 -178.568112 
L 256.019888 -178.568112 
L 257.299464 -178.568112 
L 258.57904 -178.568112 
L 259.858616 -167.505632 
L 261.138191 -178.568112 
L 262.417767 -178.568112 
L 263.697343 -178.568112 
L 264.976919 -178.568112 
L 266.256495 -159.486646 
L 267.536071 -178.568112 
L 268.815647 -178.568112 
L 270.095223 -178.568112 
L 271.374799 -167.262343 
L 272.654375 -162.552084 
L 273.933951 -160.431179 
L 275.213527 -160.803268 
L 276.493103 -167.119232 
L 277.772678 -167.119232 
L 279.052254 -178.568112 
L 280.33183 -167.505632 
L 281.611406 -159.772868 
L 282.890982 -167.276655 
L 284.170558 -178.568112 
L 285.450134 -178.568112 
L 286.72971 -167.119232 
L 288.009286 -167.119232 
L 289.288862 -171.193125 
L 290.568438 -183.123811 
L 291.848014 -205.90231 
L 293.12759 -222.787856 
L 294.407165 -225.733915 
L 295.686741 -270.586807 
L 296.966317 -259.724325 
L 298.245893 -301.572005 
L 299.525469 -278.328277 
L 300.805045 -310.683405 
L 302.084621 -299.54937 
L 303.364197 -299.692481 
L 304.643773 -324.350504 
L 305.923349 -324.350504 
L 307.202925 -299.234526 
L 308.482501 -324.350504 
L 309.762077 -284.081696 
L 311.041653 -299.663859 
L 312.321228 -299.687114 
L 313.600804 -299.220215 
L 314.88038 -298.848126 
L 316.159956 -298.289993 
L 317.439532 -282.147074 
L 318.719108 -290.862533 
L 319.998684 -291.282325 
L 321.27826 -283.726065 
L 322.557836 -322.847839 
L 323.837412 -250.390388 
L 325.116988 -324.350504 
L 326.396564 -324.350504 
L 327.67614 -324.350504 
L 327.67614 -324.350504 
L 327.67614 -324.350504 
L 326.396564 -324.350504 
L 325.116988 -324.350504 
L 323.837412 -315.554545 
L 322.557836 -324.350504 
L 321.27826 -324.135838 
L 319.998684 -324.350504 
L 318.719108 -324.350504 
L 317.439532 -324.350504 
L 316.159956 -324.350504 
L 314.88038 -324.565171 
L 313.600804 -324.779837 
L 312.321228 -325.423837 
L 311.041653 -326.287869 
L 309.762077 -325.638503 
L 308.482501 -325.638503 
L 307.202925 -325.20917 
L 305.923349 -325.423837 
L 304.643773 -324.994504 
L 303.364197 -324.779837 
L 302.084621 -324.994504 
L 300.805045 -324.785204 
L 299.525469 -324.350504 
L 298.245893 -324.350504 
L 296.966317 -315.978512 
L 295.686741 -319.794805 
L 294.407165 -298.368227 
L 293.12759 -284.188791 
L 291.848014 -256.015008 
L 290.568438 -219.569409 
L 289.288862 -201.34661 
L 288.009286 -192.235211 
L 286.72971 -192.235211 
L 285.450134 -178.568112 
L 284.170558 -178.568112 
L 282.890982 -178.568112 
L 281.611406 -178.568112 
L 280.33183 -178.568112 
L 279.052254 -178.568112 
L 277.772678 -178.568112 
L 276.493103 -178.568112 
L 275.213527 -178.568112 
L 273.933951 -178.568112 
L 272.654375 -178.568112 
L 271.374799 -178.568112 
L 270.095223 -178.568112 
L 268.815647 -178.568112 
L 267.536071 -178.568112 
L 266.256495 -178.568112 
L 264.976919 -178.568112 
L 263.697343 -178.568112 
L 262.417767 -178.568112 
L 261.138191 -178.568112 
L 259.858616 -178.568112 
L 258.57904 -178.568112 
L 257.299464 -178.568112 
L 256.019888 -178.568112 
L 254.740312 -178.568112 
L 253.460736 -178.568112 
L 252.18116 -178.568112 
L 250.901584 -178.568112 
L 249.622008 -178.568112 
L 248.342432 -178.568112 
L 247.062856 -176.640884 
L 245.78328 -178.568112 
L 244.503704 -178.854333 
L 243.224128 -178.854333 
L 241.944553 -178.758926 
L 240.664977 -179.33137 
L 239.385401 -179.045148 
L 238.105825 -178.854333 
L 236.826249 -178.568112 
L 235.546673 -178.568112 
L 234.267097 -178.568112 
L 232.987521 -178.568112 
L 231.707945 -178.568112 
L 230.428369 -178.568112 
L 229.148793 -178.568112 
L 227.869217 -178.568112 
L 226.589641 -178.568112 
L 225.310066 -178.568112 
L 224.03049 -178.568112 
L 222.750914 -178.568112 
L 221.471338 -178.568112 
L 220.191762 -178.568112 
L 218.912186 -178.568112 
L 217.63261 -178.568112 
L 216.353034 -176.144765 
L 215.073458 -178.472704 
L 213.793882 -178.377297 
L 212.514306 -178.472704 
L 211.23473 -178.568112 
L 209.955154 -178.568112 
L 208.675579 -178.472704 
L 207.396003 -178.377297 
L 206.116427 -178.472704 
L 204.836851 -178.568112 
L 203.557275 -178.568112 
L 202.277699 -178.568112 
L 200.998123 -178.568112 
L 199.718547 -178.568112 
L 198.438971 -178.568112 
L 197.159395 -178.568112 
L 195.879819 -178.568112 
L 194.600243 -178.568112 
L 193.320667 -178.568112 
L 192.041091 -178.568112 
L 190.761516 -178.568112 
L 189.48194 -178.568112 
L 188.202364 -178.568112 
L 186.922788 -178.568112 
L 185.643212 -178.568112 
L 184.363636 -178.568112 
L 183.08406 -178.568112 
L 181.804484 -178.568112 
L 180.524908 -178.568112 
L 179.245332 -178.568112 
L 177.965756 -178.568112 
L 176.68618 -178.568112 
L 175.406604 -178.568112 
L 174.127029 -178.568112 
L 172.847453 -178.568112 
L 171.567877 -178.568112 
L 170.288301 -178.568112 
L 169.008725 -178.568112 
L 167.729149 -178.568112 
L 166.449573 -178.568112 
L 165.169997 -178.568112 
L 163.890421 -178.568112 
L 162.610845 -178.568112 
L 161.331269 -178.568112 
L 160.051693 -178.568112 
L 158.772117 -178.568112 
L 157.492542 -178.568112 
L 156.212966 -178.568112 
L 154.93339 -178.568112 
L 153.653814 -178.568112 
L 152.374238 -178.568112 
L 151.094662 -178.854333 
L 149.815086 -178.854333 
L 148.53551 -178.758926 
L 147.255934 -178.854333 
L 145.976358 -178.854333 
L 144.696782 -178.568112 
L 143.417206 -178.568112 
L 142.13763 -178.568112 
L 140.858054 -178.568112 
L 139.578479 -178.568112 
L 138.298903 -178.568112 
L 137.019327 -178.568112 
L 135.739751 -178.568112 
L 134.460175 -178.568112 
L 133.180599 -178.568112 
L 131.901023 -178.568112 
L 130.621447 -178.568112 
L 129.341871 -178.568112 
L 128.062295 -178.568112 
L 126.782719 -178.568112 
L 125.503143 -178.568112 
L 124.223567 -178.568112 
L 122.943992 -178.568112 
L 121.664416 -178.568112 
L 120.38484 -178.568112 
L 119.105264 -178.568112 
L 117.825688 -178.568112 
L 116.546112 -178.568112 
L 115.266536 -178.568112 
L 113.98696 -178.568112 
L 112.707384 -178.568112 
L 111.427808 -178.568112 
L 110.148232 -178.568112 
L 108.868656 -178.568112 
L 107.58908 -178.568112 
L 106.309505 -178.568112 
L 105.029929 -178.568112 
L 103.750353 -178.568112 
L 102.470777 -178.568112 
L 101.191201 -178.568112 
L 99.911625 -178.568112 
L 98.632049 -178.568112 
L 97.352473 -178.568112 
L 96.072897 -178.568112 
L 94.793321 -178.568112 
L 93.513745 -178.568112 
L 92.234169 -178.568112 
L 90.954593 -178.568112 
L 89.675017 -174.75325 
L 88.395442 -151.441782 
L 87.115866 -130.139353 
L 85.83629 -100.992773 
L 84.556714 -85.269885 
L 83.277138 -78.644442 
L 81.997562 -71.469573 
L 80.717986 -67.305043 
L 79.43841 -62.864071 
L 78.158834 -61.366653 
L 76.879258 -59.967385 
L 75.599682 -59.347237 
L 74.320106 -58.378972 
L 73.04053 -56.90481 
z
" style="stroke: #edd1cb; stroke-opacity: 0.2"/>
    </defs>
    <g clip-path="url(#p775223565a)">
     <use xlink:href="#m3dc4f7aa01" x="0" y="362.097812" style="fill: #edd1cb; fill-opacity: 0.2; stroke: #edd1cb; stroke-opacity: 0.2"/>
    </g>
   </g>
   <g id="PolyCollection_2">
    <defs>
     <path id="m3ff7a739dd" d="M 73.04053 -56.680483 
L 73.04053 -56.456276 
L 74.320106 -57.28143 
L 75.599682 -58.507534 
L 76.879258 -59.824155 
L 78.158834 -71.286748 
L 79.43841 -80.107752 
L 80.717986 -80.107752 
L 81.997562 -80.107752 
L 83.277138 -80.107752 
L 84.556714 -80.131604 
L 85.83629 -77.231221 
L 87.115866 -78.347487 
L 88.395442 -80.107752 
L 89.675017 -80.107752 
L 90.954593 -80.107752 
L 92.234169 -80.107752 
L 93.513745 -80.107752 
L 94.793321 -80.107752 
L 96.072897 -80.107752 
L 97.352473 -80.107752 
L 98.632049 -78.061265 
L 99.911625 -80.107752 
L 101.191201 -77.889532 
L 102.470777 -80.107752 
L 103.750353 -80.107752 
L 105.029929 -80.107752 
L 106.309505 -80.107752 
L 107.58908 -80.107752 
L 108.868656 -80.107752 
L 110.148232 -80.107752 
L 111.427808 -80.107752 
L 112.707384 -80.107752 
L 113.98696 -80.107752 
L 115.266536 -78.218687 
L 116.546112 -80.107752 
L 117.825688 -80.107752 
L 119.105264 -80.107752 
L 120.38484 -80.107752 
L 121.664416 -80.107752 
L 122.943992 -80.107752 
L 124.223567 -78.104198 
L 125.503143 -78.104198 
L 126.782719 -76.792109 
L 128.062295 -80.117293 
L 129.341871 -76.4298 
L 130.621447 -77.899072 
L 131.901023 -80.126833 
L 133.180599 -80.136374 
L 134.460175 -80.155456 
L 135.739751 -78.170983 
L 137.019327 -78.013561 
L 138.298903 -80.164996 
L 139.578479 -80.193619 
L 140.858054 -78.876997 
L 142.13763 -79.267929 
L 143.417206 -84.305436 
L 144.696782 -91.140297 
L 145.976358 -95.410491 
L 147.255934 -110.013178 
L 148.53551 -105.781863 
L 149.815086 -107.736282 
L 151.094662 -112.946953 
L 152.374238 -107.737713 
L 153.653814 -108.08118 
L 154.93339 -113.233175 
L 156.212966 -113.233175 
L 157.492542 -108.152735 
L 158.772117 -105.533804 
L 160.051693 -113.233175 
L 161.331269 -108.152735 
L 162.610845 -113.233175 
L 163.890421 -108.124113 
L 165.169997 -113.233175 
L 166.449573 -113.233175 
L 167.729149 -113.233175 
L 169.008725 -113.233175 
L 170.288301 -109.726956 
L 171.567877 -113.233175 
L 172.847453 -113.233175 
L 174.127029 -107.909446 
L 175.406604 -108.238602 
L 176.68618 -113.233175 
L 177.965756 -107.909446 
L 179.245332 -113.233175 
L 180.524908 -113.233175 
L 181.804484 -113.233175 
L 183.08406 -113.233175 
L 184.363636 -113.233175 
L 185.643212 -113.233175 
L 186.922788 -113.233175 
L 188.202364 -113.233175 
L 189.48194 -113.233175 
L 190.761516 -113.233175 
L 192.041091 -113.233175 
L 193.320667 -113.233175 
L 194.600243 -113.233175 
L 195.879819 -113.233175 
L 197.159395 -113.233175 
L 198.438971 -113.233175 
L 199.718547 -113.233175 
L 200.998123 -113.233175 
L 202.277699 -113.233175 
L 203.557275 -113.233175 
L 204.836851 -108.238602 
L 206.116427 -109.626778 
L 207.396003 -113.233175 
L 208.675579 -113.233175 
L 209.955154 -113.233175 
L 211.23473 -113.233175 
L 212.514306 -113.233175 
L 213.793882 -113.233175 
L 215.073458 -113.233175 
L 216.353034 -113.233175 
L 217.63261 -113.233175 
L 218.912186 -113.233175 
L 220.191762 -113.233175 
L 221.471338 -113.233175 
L 222.750914 -113.233175 
L 224.03049 -113.233175 
L 225.310066 -113.233175 
L 226.589641 -113.233175 
L 227.869217 -113.233175 
L 229.148793 -113.233175 
L 230.428369 -113.233175 
L 231.707945 -107.909446 
L 232.987521 -113.233175 
L 234.267097 -113.233175 
L 235.546673 -107.909446 
L 236.826249 -113.233175 
L 238.105825 -113.233175 
L 239.385401 -113.233175 
L 240.664977 -113.233175 
L 241.944553 -113.233175 
L 243.224128 -113.233175 
L 244.503704 -113.233175 
L 245.78328 -108.238602 
L 247.062856 -113.233175 
L 248.342432 -113.233175 
L 249.622008 -113.233175 
L 250.901584 -113.233175 
L 252.18116 -108.08118 
L 253.460736 -113.233175 
L 254.740312 -113.233175 
L 256.019888 -113.233175 
L 257.299464 -113.233175 
L 258.57904 -113.233175 
L 259.858616 -113.233175 
L 261.138191 -108.310157 
L 262.417767 -113.233175 
L 263.697343 -113.233175 
L 264.976919 -109.626778 
L 266.256495 -107.909446 
L 267.536071 -107.909446 
L 268.815647 -113.233175 
L 270.095223 -113.233175 
L 271.374799 -113.233175 
L 272.654375 -107.909446 
L 273.933951 -113.233175 
L 275.213527 -113.233175 
L 276.493103 -113.233175 
L 277.772678 -108.152735 
L 279.052254 -108.152735 
L 280.33183 -113.233175 
L 281.611406 -113.233175 
L 282.890982 -108.20998 
L 284.170558 -113.233175 
L 285.450134 -113.233175 
L 286.72971 -113.233175 
L 288.009286 -108.08118 
L 289.288862 -113.233175 
L 290.568438 -113.233175 
L 291.848014 -113.233175 
L 293.12759 -113.233175 
L 294.407165 -113.233175 
L 295.686741 -113.233175 
L 296.966317 -113.233175 
L 298.245893 -108.238602 
L 299.525469 -113.233175 
L 300.805045 -113.233175 
L 302.084621 -113.233175 
L 303.364197 -113.233175 
L 304.643773 -113.233175 
L 305.923349 -113.233175 
L 307.202925 -113.233175 
L 308.482501 -113.061442 
L 309.762077 -113.061442 
L 311.041653 -113.061442 
L 312.321228 -113.061442 
L 313.600804 -107.909446 
L 314.88038 -113.233175 
L 316.159956 -113.233175 
L 317.439532 -108.338779 
L 318.719108 -113.233175 
L 319.998684 -113.233175 
L 321.27826 -113.233175 
L 322.557836 -113.233175 
L 323.837412 -113.233175 
L 325.116988 -113.233175 
L 326.396564 -113.233175 
L 327.67614 -113.233175 
L 327.67614 -113.233175 
L 327.67614 -113.233175 
L 326.396564 -113.233175 
L 325.116988 -113.233175 
L 323.837412 -113.233175 
L 322.557836 -113.233175 
L 321.27826 -113.233175 
L 319.998684 -113.233175 
L 318.719108 -113.233175 
L 317.439532 -113.233175 
L 316.159956 -113.233175 
L 314.88038 -113.404908 
L 313.600804 -113.233175 
L 312.321228 -113.233175 
L 311.041653 -113.233175 
L 309.762077 -113.233175 
L 308.482501 -113.233175 
L 307.202925 -113.233175 
L 305.923349 -113.233175 
L 304.643773 -113.233175 
L 303.364197 -113.233175 
L 302.084621 -113.233175 
L 300.805045 -113.233175 
L 299.525469 -113.233175 
L 298.245893 -113.233175 
L 296.966317 -113.233175 
L 295.686741 -113.233175 
L 294.407165 -113.233175 
L 293.12759 -113.233175 
L 291.848014 -113.233175 
L 290.568438 -113.233175 
L 289.288862 -113.233175 
L 288.009286 -113.233175 
L 286.72971 -113.233175 
L 285.450134 -113.233175 
L 284.170558 -113.233175 
L 282.890982 -113.233175 
L 281.611406 -113.233175 
L 280.33183 -113.233175 
L 279.052254 -113.233175 
L 277.772678 -113.233175 
L 276.493103 -113.233175 
L 275.213527 -113.233175 
L 273.933951 -113.233175 
L 272.654375 -113.233175 
L 271.374799 -113.233175 
L 270.095223 -113.233175 
L 268.815647 -113.233175 
L 267.536071 -113.233175 
L 266.256495 -113.233175 
L 264.976919 -113.233175 
L 263.697343 -113.233175 
L 262.417767 -113.233175 
L 261.138191 -113.233175 
L 259.858616 -113.233175 
L 258.57904 -113.233175 
L 257.299464 -113.233175 
L 256.019888 -113.233175 
L 254.740312 -113.233175 
L 253.460736 -113.233175 
L 252.18116 -113.233175 
L 250.901584 -113.233175 
L 249.622008 -113.233175 
L 248.342432 -113.233175 
L 247.062856 -113.233175 
L 245.78328 -113.233175 
L 244.503704 -113.233175 
L 243.224128 -113.233175 
L 241.944553 -113.233175 
L 240.664977 -113.233175 
L 239.385401 -113.233175 
L 238.105825 -113.233175 
L 236.826249 -113.233175 
L 235.546673 -113.233175 
L 234.267097 -113.233175 
L 232.987521 -113.233175 
L 231.707945 -113.233175 
L 230.428369 -113.233175 
L 229.148793 -113.233175 
L 227.869217 -113.233175 
L 226.589641 -113.233175 
L 225.310066 -113.233175 
L 224.03049 -113.233175 
L 222.750914 -113.233175 
L 221.471338 -113.233175 
L 220.191762 -113.233175 
L 218.912186 -113.233175 
L 217.63261 -113.233175 
L 216.353034 -113.233175 
L 215.073458 -113.233175 
L 213.793882 -113.233175 
L 212.514306 -113.233175 
L 211.23473 -113.233175 
L 209.955154 -113.233175 
L 208.675579 -113.233175 
L 207.396003 -113.233175 
L 206.116427 -113.233175 
L 204.836851 -113.233175 
L 203.557275 -113.233175 
L 202.277699 -113.233175 
L 200.998123 -113.233175 
L 199.718547 -113.233175 
L 198.438971 -113.233175 
L 197.159395 -113.233175 
L 195.879819 -113.233175 
L 194.600243 -113.233175 
L 193.320667 -113.233175 
L 192.041091 -113.233175 
L 190.761516 -113.233175 
L 189.48194 -113.233175 
L 188.202364 -113.233175 
L 186.922788 -113.233175 
L 185.643212 -113.233175 
L 184.363636 -113.233175 
L 183.08406 -113.233175 
L 181.804484 -113.233175 
L 180.524908 -113.233175 
L 179.245332 -113.233175 
L 177.965756 -113.233175 
L 176.68618 -113.233175 
L 175.406604 -113.233175 
L 174.127029 -113.233175 
L 172.847453 -113.233175 
L 171.567877 -113.233175 
L 170.288301 -113.233175 
L 169.008725 -115.63744 
L 167.729149 -113.233175 
L 166.449573 -113.233175 
L 165.169997 -113.233175 
L 163.890421 -113.233175 
L 162.610845 -113.233175 
L 161.331269 -113.233175 
L 160.051693 -113.233175 
L 158.772117 -113.233175 
L 157.492542 -113.233175 
L 156.212966 -113.233175 
L 154.93339 -113.519397 
L 153.653814 -113.404908 
L 152.374238 -113.233175 
L 151.094662 -113.233175 
L 149.815086 -113.233175 
L 148.53551 -113.233175 
L 147.255934 -113.347664 
L 145.976358 -108.321248 
L 144.696782 -103.63651 
L 143.417206 -94.619206 
L 142.13763 -86.357051 
L 140.858054 -85.322001 
L 139.578479 -83.346831 
L 138.298903 -80.269944 
L 137.019327 -80.250863 
L 135.739751 -80.241322 
L 134.460175 -80.250863 
L 133.180599 -80.231781 
L 131.901023 -80.203159 
L 130.621447 -80.174537 
L 129.341871 -80.155456 
L 128.062295 -80.184078 
L 126.782719 -80.136374 
L 125.503143 -80.136374 
L 124.223567 -80.136374 
L 122.943992 -80.155456 
L 121.664416 -80.136374 
L 120.38484 -80.107752 
L 119.105264 -80.107752 
L 117.825688 -80.107752 
L 116.546112 -80.107752 
L 115.266536 -80.107752 
L 113.98696 -80.107752 
L 112.707384 -80.107752 
L 111.427808 -80.107752 
L 110.148232 -80.107752 
L 108.868656 -80.107752 
L 107.58908 -80.107752 
L 106.309505 -80.107752 
L 105.029929 -80.107752 
L 103.750353 -80.107752 
L 102.470777 -80.107752 
L 101.191201 -80.107752 
L 99.911625 -80.107752 
L 98.632049 -80.107752 
L 97.352473 -80.107752 
L 96.072897 -80.107752 
L 94.793321 -80.107752 
L 93.513745 -80.107752 
L 92.234169 -80.107752 
L 90.954593 -80.107752 
L 89.675017 -80.107752 
L 88.395442 -80.107752 
L 87.115866 -80.107752 
L 85.83629 -80.107752 
L 84.556714 -80.298567 
L 83.277138 -80.274715 
L 81.997562 -80.227011 
L 80.717986 -80.250863 
L 79.43841 -80.227011 
L 78.158834 -78.023102 
L 76.879258 -65.925572 
L 75.599682 -60.716332 
L 74.320106 -58.063889 
L 73.04053 -56.680483 
z
" style="stroke: #d499a7; stroke-opacity: 0.2"/>
    </defs>
    <g clip-path="url(#p775223565a)">
     <use xlink:href="#m3ff7a739dd" x="0" y="362.097812" style="fill: #d499a7; fill-opacity: 0.2; stroke: #d499a7; stroke-opacity: 0.2"/>
    </g>
   </g>
   <g id="PolyCollection_3">
    <defs>
     <path id="m85328537cb" d="M 73.04053 -58.765253 
L 73.04053 -56.484898 
L 74.320106 -71.903318 
L 75.599682 -81.686743 
L 76.879258 -88.856604 
L 78.158834 -96.722699 
L 79.43841 -113.814802 
L 80.717986 -123.745035 
L 81.997562 -127.453279 
L 83.277138 -127.619646 
L 84.556714 -121.499862 
L 85.83629 -122.40492 
L 87.115866 -125.143349 
L 88.395442 -124.787122 
L 89.675017 -123.836745 
L 90.954593 -124.839238 
L 92.234169 -121.385612 
L 93.513745 -123.498884 
L 94.793321 -123.403238 
L 96.072897 -126.713992 
L 97.352473 -120.001132 
L 98.632049 -122.563654 
L 99.911625 -125.416691 
L 101.191201 -119.229526 
L 102.470777 -122.639264 
L 103.750353 -116.074525 
L 105.029929 -129.30919 
L 106.309505 -132.213986 
L 107.58908 -112.326329 
L 108.868656 -126.53725 
L 110.148232 -124.371742 
L 111.427808 -133.802756 
L 112.707384 -126.880239 
L 113.98696 -135.332135 
L 115.266536 -139.627254 
L 116.546112 -142.231516 
L 117.825688 -137.508496 
L 119.105264 -135.961466 
L 120.38484 -142.422212 
L 121.664416 -135.95443 
L 122.943992 -147.416427 
L 124.223567 -158.675565 
L 125.503143 -169.409008 
L 126.782719 -165.537737 
L 128.062295 -175.438751 
L 129.341871 -183.567455 
L 130.621447 -179.317059 
L 131.901023 -187.574563 
L 133.180599 -178.02906 
L 134.460175 -187.574563 
L 135.739751 -187.574563 
L 137.019327 -174.489448 
L 138.298903 -180.662302 
L 139.578479 -175.770053 
L 140.858054 -171.183585 
L 142.13763 -179.207341 
L 143.417206 -182.751723 
L 144.696782 -175.29564 
L 145.976358 -176.483461 
L 147.255934 -187.574563 
L 148.53551 -177.800083 
L 149.815086 -161.165219 
L 151.094662 -169.599823 
L 152.374238 -187.574563 
L 153.653814 -187.574563 
L 154.93339 -176.254484 
L 156.212966 -179.732081 
L 157.492542 -187.574563 
L 158.772117 -187.574563 
L 160.051693 -187.574563 
L 161.331269 -187.574563 
L 162.610845 -187.574563 
L 163.890421 -187.574563 
L 165.169997 -187.574563 
L 166.449573 -178.086305 
L 167.729149 -178.086305 
L 169.008725 -187.574563 
L 170.288301 -187.574563 
L 171.567877 -187.574563 
L 172.847453 -187.574563 
L 174.127029 -187.574563 
L 175.406604 -187.574563 
L 176.68618 -187.574563 
L 177.965756 -175.29564 
L 179.245332 -187.574563 
L 180.524908 -175.281329 
L 181.804484 -187.574563 
L 183.08406 -178.129238 
L 184.363636 -187.574563 
L 185.643212 -187.574563 
L 186.922788 -165.858186 
L 188.202364 -187.574563 
L 189.48194 -187.574563 
L 190.761516 -187.574563 
L 192.041091 -187.574563 
L 193.320667 -187.574563 
L 194.600243 -187.574563 
L 195.879819 -177.528172 
L 197.159395 -187.574563 
L 198.438971 -187.574563 
L 199.718547 -187.574563 
L 200.998123 -187.574563 
L 202.277699 -187.574563 
L 203.557275 -187.574563 
L 204.836851 -176.34035 
L 206.116427 -187.574563 
L 207.396003 -178.086305 
L 208.675579 -187.574563 
L 209.955154 -187.574563 
L 211.23473 -187.574563 
L 212.514306 -176.254484 
L 213.793882 -187.574563 
L 215.073458 -187.574563 
L 216.353034 -187.574563 
L 217.63261 -175.281329 
L 218.912186 -187.574563 
L 220.191762 -187.574563 
L 221.471338 -187.574563 
L 222.750914 -187.574563 
L 224.03049 -182.751723 
L 225.310066 -187.574563 
L 226.589641 -187.574563 
L 227.869217 -171.312384 
L 229.148793 -178.086305 
L 230.428369 -187.574563 
L 231.707945 -187.574563 
L 232.987521 -187.574563 
L 234.267097 -176.583639 
L 235.546673 -187.574563 
L 236.826249 -177.800083 
L 238.105825 -171.283762 
L 239.385401 -187.574563 
L 240.664977 -187.574563 
L 241.944553 -172.462043 
L 243.224128 -187.574563 
L 244.503704 -179.732081 
L 245.78328 -178.129238 
L 247.062856 -177.528172 
L 248.342432 -187.574563 
L 249.622008 -178.701682 
L 250.901584 -176.741061 
L 252.18116 -187.574563 
L 253.460736 -187.574563 
L 254.740312 -177.728527 
L 256.019888 -179.445859 
L 257.299464 -179.445859 
L 258.57904 -187.574563 
L 259.858616 -187.574563 
L 261.138191 -187.574563 
L 262.417767 -187.574563 
L 263.697343 -187.574563 
L 264.976919 -187.574563 
L 266.256495 -187.574563 
L 267.536071 -177.528172 
L 268.815647 -177.528172 
L 270.095223 -187.574563 
L 271.374799 -187.574563 
L 272.654375 -178.701682 
L 273.933951 -187.574563 
L 275.213527 -187.574563 
L 276.493103 -187.574563 
L 277.772678 -187.574563 
L 279.052254 -187.574563 
L 280.33183 -187.574563 
L 281.611406 -178.701682 
L 282.890982 -178.744615 
L 284.170558 -187.574563 
L 285.450134 -178.086305 
L 286.72971 -187.574563 
L 288.009286 -187.574563 
L 289.288862 -187.574563 
L 290.568438 -187.574563 
L 291.848014 -187.574563 
L 293.12759 -187.574563 
L 294.407165 -187.574563 
L 295.686741 -177.986127 
L 296.966317 -187.574563 
L 298.245893 -176.254484 
L 299.525469 -187.574563 
L 300.805045 -187.574563 
L 302.084621 -187.574563 
L 303.364197 -187.574563 
L 304.643773 -166.040653 
L 305.923349 -175.281329 
L 307.202925 -187.574563 
L 308.482501 -187.574563 
L 309.762077 -187.574563 
L 311.041653 -187.574563 
L 312.321228 -187.574563 
L 313.600804 -187.574563 
L 314.88038 -187.574563 
L 316.159956 -187.574563 
L 317.439532 -187.574563 
L 318.719108 -187.574563 
L 319.998684 -187.574563 
L 321.27826 -187.574563 
L 322.557836 -187.574563 
L 323.837412 -187.574563 
L 325.116988 -187.574563 
L 326.396564 -187.574563 
L 327.67614 -187.574563 
L 327.67614 -187.574563 
L 327.67614 -187.574563 
L 326.396564 -187.574563 
L 325.116988 -187.574563 
L 323.837412 -187.574563 
L 322.557836 -187.574563 
L 321.27826 -187.574563 
L 319.998684 -187.574563 
L 318.719108 -187.574563 
L 317.439532 -187.574563 
L 316.159956 -187.574563 
L 314.88038 -187.574563 
L 313.600804 -187.574563 
L 312.321228 -187.574563 
L 311.041653 -187.574563 
L 309.762077 -187.574563 
L 308.482501 -187.574563 
L 307.202925 -187.574563 
L 305.923349 -187.574563 
L 304.643773 -187.574563 
L 303.364197 -187.574563 
L 302.084621 -187.574563 
L 300.805045 -187.574563 
L 299.525469 -187.574563 
L 298.245893 -187.574563 
L 296.966317 -187.574563 
L 295.686741 -187.574563 
L 294.407165 -187.574563 
L 293.12759 -187.574563 
L 291.848014 -187.574563 
L 290.568438 -187.574563 
L 289.288862 -187.574563 
L 288.009286 -187.574563 
L 286.72971 -187.574563 
L 285.450134 -187.574563 
L 284.170558 -187.574563 
L 282.890982 -187.574563 
L 281.611406 -187.574563 
L 280.33183 -187.574563 
L 279.052254 -187.574563 
L 277.772678 -187.574563 
L 276.493103 -187.574563 
L 275.213527 -187.574563 
L 273.933951 -187.574563 
L 272.654375 -187.574563 
L 271.374799 -187.574563 
L 270.095223 -187.574563 
L 268.815647 -187.574563 
L 267.536071 -187.574563 
L 266.256495 -187.574563 
L 264.976919 -187.574563 
L 263.697343 -187.574563 
L 262.417767 -187.574563 
L 261.138191 -187.574563 
L 259.858616 -187.574563 
L 258.57904 -187.574563 
L 257.299464 -187.574563 
L 256.019888 -187.574563 
L 254.740312 -187.574563 
L 253.460736 -187.574563 
L 252.18116 -187.574563 
L 250.901584 -187.574563 
L 249.622008 -187.574563 
L 248.342432 -187.574563 
L 247.062856 -187.574563 
L 245.78328 -187.574563 
L 244.503704 -187.574563 
L 243.224128 -187.574563 
L 241.944553 -187.574563 
L 240.664977 -187.574563 
L 239.385401 -187.574563 
L 238.105825 -187.574563 
L 236.826249 -187.574563 
L 235.546673 -187.574563 
L 234.267097 -187.574563 
L 232.987521 -187.574563 
L 231.707945 -187.574563 
L 230.428369 -187.574563 
L 229.148793 -187.574563 
L 227.869217 -187.574563 
L 226.589641 -187.574563 
L 225.310066 -187.574563 
L 224.03049 -187.574563 
L 222.750914 -187.574563 
L 221.471338 -187.574563 
L 220.191762 -187.574563 
L 218.912186 -187.574563 
L 217.63261 -187.574563 
L 216.353034 -187.574563 
L 215.073458 -187.574563 
L 213.793882 -187.574563 
L 212.514306 -187.574563 
L 211.23473 -187.574563 
L 209.955154 -187.574563 
L 208.675579 -187.574563 
L 207.396003 -187.574563 
L 206.116427 -187.574563 
L 204.836851 -187.574563 
L 203.557275 -187.574563 
L 202.277699 -187.574563 
L 200.998123 -187.574563 
L 199.718547 -187.574563 
L 198.438971 -187.574563 
L 197.159395 -187.574563 
L 195.879819 -187.574563 
L 194.600243 -187.574563 
L 193.320667 -187.574563 
L 192.041091 -187.574563 
L 190.761516 -187.574563 
L 189.48194 -187.574563 
L 188.202364 -187.574563 
L 186.922788 -187.574563 
L 185.643212 -187.574563 
L 184.363636 -187.574563 
L 183.08406 -187.574563 
L 181.804484 -187.574563 
L 180.524908 -187.574563 
L 179.245332 -187.574563 
L 177.965756 -187.574563 
L 176.68618 -187.574563 
L 175.406604 -187.574563 
L 174.127029 -187.574563 
L 172.847453 -187.574563 
L 171.567877 -187.574563 
L 170.288301 -187.574563 
L 169.008725 -187.574563 
L 167.729149 -187.574563 
L 166.449573 -187.574563 
L 165.169997 -187.574563 
L 163.890421 -187.574563 
L 162.610845 -187.574563 
L 161.331269 -187.574563 
L 160.051693 -187.574563 
L 158.772117 -187.574563 
L 157.492542 -187.574563 
L 156.212966 -187.574563 
L 154.93339 -187.574563 
L 153.653814 -187.574563 
L 152.374238 -187.574563 
L 151.094662 -187.574563 
L 149.815086 -184.822062 
L 148.53551 -187.574563 
L 147.255934 -187.574563 
L 145.976358 -187.574563 
L 144.696782 -187.574563 
L 143.417206 -187.574563 
L 142.13763 -187.574563 
L 140.858054 -187.574563 
L 139.578479 -187.574563 
L 138.298903 -187.574563 
L 137.019327 -187.574563 
L 135.739751 -187.574563 
L 134.460175 -187.574563 
L 133.180599 -187.574563 
L 131.901023 -187.574563 
L 130.621447 -187.574563 
L 129.341871 -187.574563 
L 128.062295 -187.574563 
L 126.782719 -184.521529 
L 125.503143 -186.23886 
L 124.223567 -177.523521 
L 122.943992 -171.307733 
L 121.664416 -161.568554 
L 120.38484 -163.386182 
L 119.105264 -158.678666 
L 117.825688 -159.162858 
L 116.546112 -155.700049 
L 115.266536 -153.237586 
L 113.98696 -148.734479 
L 112.707384 -140.619848 
L 111.427808 -142.854526 
L 110.148232 -140.072806 
L 108.868656 -136.22646 
L 107.58908 -130.421282 
L 106.309505 -136.999855 
L 105.029929 -137.242429 
L 103.750353 -132.852976 
L 102.470777 -134.539658 
L 101.191201 -133.137528 
L 99.911625 -135.339052 
L 98.632049 -134.060594 
L 97.352473 -133.230551 
L 96.072897 -134.175799 
L 94.793321 -133.599061 
L 93.513745 -134.179853 
L 92.234169 -133.316417 
L 90.954593 -133.493517 
L 89.675017 -135.104112 
L 88.395442 -133.647123 
L 87.115866 -133.993809 
L 85.83629 -132.810758 
L 84.556714 -132.376655 
L 83.277138 -134.27216 
L 81.997562 -133.721898 
L 80.717986 -133.163765 
L 79.43841 -127.868659 
L 78.158834 -114.184028 
L 76.879258 -105.457478 
L 75.599682 -93.836866 
L 74.320106 -81.779646 
L 73.04053 -58.765253 
z
" style="stroke: #a9678f; stroke-opacity: 0.2"/>
    </defs>
    <g clip-path="url(#p775223565a)">
     <use xlink:href="#m85328537cb" x="0" y="362.097812" style="fill: #a9678f; fill-opacity: 0.2; stroke: #a9678f; stroke-opacity: 0.2"/>
    </g>
   </g>
   <g id="PolyCollection_4">
    <defs>
     <path id="ma12a1ac110" d="M 73.04053 -56.551683 
L 73.04053 -56.451506 
L 74.320106 -56.589727 
L 75.599682 -56.985787 
L 76.879258 -57.653042 
L 78.158834 -61.44596 
L 79.43841 -62.982018 
L 80.717986 -62.876712 
L 81.997562 -65.86797 
L 83.277138 -63.735616 
L 84.556714 -64.321775 
L 85.83629 -67.914696 
L 87.115866 -90.746146 
L 88.395442 -118.156193 
L 89.675017 -135.109002 
L 90.954593 -147.479635 
L 92.234169 -140.314544 
L 93.513745 -140.281152 
L 94.793321 -134.701255 
L 96.072897 -147.298361 
L 97.352473 -138.935074 
L 98.632049 -138.725893 
L 99.911625 -130.602079 
L 101.191201 -139.026546 
L 102.470777 -139.494041 
L 103.750353 -139.541745 
L 105.029929 -133.206699 
L 106.309505 -135.452706 
L 107.58908 -139.594219 
L 108.868656 -130.49236 
L 110.148232 -147.579812 
L 111.427808 -139.036086 
L 112.707384 -147.579812 
L 113.98696 -135.028979 
L 115.266536 -133.865009 
L 116.546112 -131.031292 
L 117.825688 -133.760061 
L 119.105264 -139.036086 
L 120.38484 -139.036086 
L 121.664416 -147.579812 
L 122.943992 -147.479635 
L 124.223567 -140.166663 
L 125.503143 -147.222035 
L 126.782719 -147.222035 
L 128.062295 -147.222035 
L 129.341871 -138.878664 
L 130.621447 -133.163765 
L 131.901023 -138.902516 
L 133.180599 -147.479635 
L 134.460175 -145.504703 
L 135.739751 -131.646789 
L 137.019327 -123.518085 
L 138.298903 -125.334521 
L 139.578479 -132.994298 
L 140.858054 -133.714624 
L 142.13763 -143.347782 
L 143.417206 -136.851259 
L 144.696782 -135.531537 
L 145.976358 -122.537655 
L 147.255934 -130.564751 
L 148.53551 -131.416023 
L 149.815086 -124.508174 
L 151.094662 -124.414317 
L 152.374238 -139.579908 
L 153.653814 -122.452862 
L 154.93339 -137.97146 
L 156.212966 -132.495914 
L 157.492542 -125.302679 
L 158.772117 -123.578311 
L 160.051693 -131.796698 
L 161.331269 -118.790413 
L 162.610845 -112.122872 
L 163.890421 -124.057733 
L 165.169997 -123.727742 
L 166.449573 -119.303586 
L 167.729149 -132.299733 
L 169.008725 -128.906214 
L 170.288301 -119.319566 
L 171.567877 -118.497155 
L 172.847453 -125.69206 
L 174.127029 -134.05976 
L 175.406604 -121.360448 
L 176.68618 -126.282274 
L 177.965756 -112.579874 
L 179.245332 -103.432696 
L 180.524908 -108.528879 
L 181.804484 -124.750748 
L 183.08406 -114.086713 
L 184.363636 -123.779859 
L 185.643212 -119.187189 
L 186.922788 -111.174285 
L 188.202364 -121.517036 
L 189.48194 -110.579063 
L 190.761516 -124.837091 
L 192.041091 -126.651738 
L 193.320667 -124.257372 
L 194.600243 -128.73937 
L 195.879819 -115.07239 
L 197.159395 -121.105114 
L 198.438971 -123.291373 
L 199.718547 -106.449357 
L 200.998123 -121.723712 
L 202.277699 -118.798762 
L 203.557275 -124.323203 
L 204.836851 -111.64524 
L 206.116427 -129.86947 
L 207.396003 -121.807551 
L 208.675579 -127.247319 
L 209.955154 -115.274653 
L 211.23473 -118.570857 
L 212.514306 -124.33179 
L 213.793882 -141.941239 
L 215.073458 -121.036183 
L 216.353034 -133.439254 
L 217.63261 -135.152054 
L 218.912186 -128.530547 
L 220.191762 -131.055144 
L 221.471338 -128.937937 
L 222.750914 -115.250802 
L 224.03049 -116.885368 
L 225.310066 -128.877591 
L 226.589641 -124.433399 
L 227.869217 -117.687982 
L 229.148793 -114.484562 
L 230.428369 -120.903328 
L 231.707945 -114.472278 
L 232.987521 -127.127463 
L 234.267097 -129.926833 
L 235.546673 -136.998305 
L 236.826249 -136.92186 
L 238.105825 -121.404455 
L 239.385401 -113.760062 
L 240.664977 -120.421998 
L 241.944553 -118.804963 
L 243.224128 -123.571871 
L 244.503704 -115.541913 
L 245.78328 -136.858772 
L 247.062856 -131.617213 
L 248.342432 -137.389356 
L 249.622008 -138.256608 
L 250.901584 -121.848337 
L 252.18116 -124.433876 
L 253.460736 -126.513517 
L 254.740312 -118.37885 
L 256.019888 -114.25141 
L 257.299464 -125.968264 
L 258.57904 -122.303311 
L 259.858616 -109.214022 
L 261.138191 -96.989124 
L 262.417767 -95.532373 
L 263.697343 -106.064865 
L 264.976919 -110.288309 
L 266.256495 -121.490441 
L 267.536071 -119.934109 
L 268.815647 -137.799369 
L 270.095223 -174.789266 
L 271.374799 -182.079101 
L 272.654375 -217.141293 
L 273.933951 -193.077896 
L 275.213527 -216.740582 
L 276.493103 -177.551666 
L 277.772678 -201.790254 
L 279.052254 -195.240542 
L 280.33183 -186.696816 
L 281.611406 -194.17508 
L 282.890982 -192.859175 
L 284.170558 -217.007723 
L 285.450134 -216.673797 
L 286.72971 -202.8872 
L 288.009286 -176.84434 
L 289.288862 -192.639976 
L 290.568438 -215.986864 
L 291.848014 -198.182188 
L 293.12759 -196.536412 
L 294.407165 -201.521444 
L 295.686741 -191.863122 
L 296.966317 -179.882347 
L 298.245893 -216.607012 
L 299.525469 -216.607012 
L 300.805045 -201.656684 
L 302.084621 -191.929907 
L 303.364197 -201.255973 
L 304.643773 -186.476186 
L 305.923349 -186.172075 
L 307.202925 -181.54482 
L 308.482501 -176.543687 
L 309.762077 -170.510247 
L 311.041653 -205.997002 
L 312.321228 -174.088738 
L 313.600804 -191.189785 
L 314.88038 -206.544878 
L 316.159956 -222.331213 
L 317.439532 -207.693225 
L 318.719108 -222.465022 
L 319.998684 -237.250772 
L 321.27826 -238.094411 
L 322.557836 -226.73128 
L 323.837412 -248.768941 
L 325.116988 -241.378808 
L 326.396564 -256.273919 
L 327.67614 -297.722201 
L 327.67614 -299.535536 
L 327.67614 -299.535536 
L 326.396564 -298.297388 
L 325.116988 -291.827578 
L 323.837412 -294.748593 
L 322.557836 -284.250567 
L 321.27826 -291.422097 
L 319.998684 -286.234085 
L 318.719108 -279.475669 
L 317.439532 -267.750943 
L 316.159956 -268.789094 
L 314.88038 -252.442361 
L 313.600804 -239.757242 
L 312.321228 -219.534109 
L 311.041653 -231.768667 
L 309.762077 -214.180804 
L 308.482501 -214.151347 
L 307.202925 -216.268316 
L 305.923349 -216.274756 
L 304.643773 -216.541897 
L 303.364197 -216.874153 
L 302.084621 -216.940938 
L 300.805045 -217.074508 
L 299.525469 -217.208078 
L 298.245893 -217.274863 
L 296.966317 -213.484092 
L 295.686741 -216.940938 
L 294.407165 -217.007723 
L 293.12759 -217.007723 
L 291.848014 -217.141293 
L 290.568438 -217.007723 
L 289.288862 -216.336532 
L 288.009286 -212.180112 
L 286.72971 -217.141293 
L 285.450134 -217.274863 
L 284.170558 -217.341648 
L 282.890982 -217.274863 
L 281.611406 -217.208078 
L 280.33183 -216.871052 
L 279.052254 -217.208078 
L 277.772678 -217.274863 
L 276.493103 -212.448326 
L 275.213527 -217.475219 
L 273.933951 -217.408434 
L 272.654375 -217.341648 
L 271.374799 -217.141293 
L 270.095223 -212.180112 
L 268.815647 -182.988214 
L 267.536071 -164.663567 
L 266.256495 -161.465394 
L 264.976919 -147.155369 
L 263.697343 -141.674337 
L 262.417767 -129.295953 
L 261.138191 -135.778284 
L 259.858616 -145.544416 
L 258.57904 -155.038161 
L 257.299464 -151.597534 
L 256.019888 -142.028537 
L 254.740312 -143.776757 
L 253.460736 -145.266781 
L 252.18116 -143.529771 
L 250.901584 -143.048084 
L 249.622008 -146.053295 
L 248.342432 -145.86248 
L 247.062856 -145.52927 
L 245.78328 -145.561947 
L 244.503704 -139.952951 
L 243.224128 -142.690783 
L 241.944553 -139.890817 
L 240.664977 -142.288522 
L 239.385401 -137.772774 
L 238.105825 -142.232589 
L 236.826249 -145.747992 
L 235.546673 -145.824318 
L 234.267097 -145.824318 
L 232.987521 -145.453064 
L 231.707945 -138.29668 
L 230.428369 -140.386935 
L 229.148793 -136.817985 
L 227.869217 -139.317657 
L 226.589641 -142.871699 
L 225.310066 -144.832081 
L 224.03049 -139.494399 
L 222.750914 -139.565716 
L 221.471338 -144.471322 
L 220.191762 -145.142155 
L 218.912186 -145.176502 
L 217.63261 -145.824318 
L 216.353034 -146.015132 
L 215.073458 -142.895313 
L 213.793882 -145.824318 
L 212.514306 -142.940273 
L 211.23473 -139.996719 
L 209.955154 -138.015347 
L 208.675579 -143.529891 
L 207.396003 -142.780943 
L 206.116427 -145.709829 
L 204.836851 -137.520541 
L 203.557275 -143.110814 
L 202.277699 -140.110969 
L 200.998123 -142.49496 
L 199.718547 -133.946225 
L 198.438971 -142.238791 
L 197.159395 -141.051089 
L 195.879819 -138.292983 
L 194.600243 -145.023492 
L 193.320667 -143.109979 
L 192.041091 -142.988096 
L 190.761516 -143.430786 
L 189.48194 -136.211195 
L 188.202364 -142.464191 
L 186.922788 -135.893846 
L 185.643212 -140.467673 
L 184.363636 -143.049157 
L 183.08406 -137.944865 
L 181.804484 -143.706275 
L 180.524908 -135.301367 
L 179.245332 -130.412218 
L 177.965756 -136.18305 
L 176.68618 -144.227795 
L 175.406604 -143.878366 
L 174.127029 -146.721743 
L 172.847453 -144.298874 
L 171.567877 -141.054309 
L 170.288301 -141.078757 
L 169.008725 -146.569091 
L 167.729149 -146.707312 
L 166.449573 -141.325981 
L 165.169997 -143.711045 
L 163.890421 -143.020058 
L 162.610845 -135.969576 
L 161.331269 -140.025699 
L 160.051693 -146.25854 
L 158.772117 -143.887787 
L 157.492542 -144.150277 
L 156.212966 -146.811903 
L 154.93339 -147.016909 
L 153.653814 -144.083492 
L 152.374238 -147.098482 
L 151.094662 -144.331551 
L 149.815086 -143.993809 
L 148.53551 -146.750007 
L 147.255934 -145.48097 
L 145.976358 -143.429713 
L 144.696782 -146.678213 
L 143.417206 -147.245887 
L 142.13763 -147.412849 
L 140.858054 -147.479635 
L 139.578479 -146.783161 
L 138.298903 -143.972104 
L 137.019327 -143.349332 
L 135.739751 -146.235404 
L 134.460175 -147.54642 
L 133.180599 -147.579812 
L 131.901023 -147.579812 
L 130.621447 -147.54642 
L 129.341871 -147.579812 
L 128.062295 -147.579812 
L 126.782719 -147.579812 
L 125.503143 -147.579812 
L 124.223567 -147.579812 
L 122.943992 -147.579812 
L 121.664416 -147.579812 
L 120.38484 -147.579812 
L 119.105264 -147.579812 
L 117.825688 -147.579812 
L 116.546112 -147.617975 
L 115.266536 -147.694301 
L 113.98696 -147.656138 
L 112.707384 -147.80879 
L 111.427808 -147.732464 
L 110.148232 -147.694301 
L 108.868656 -147.579812 
L 107.58908 -147.579812 
L 106.309505 -147.579812 
L 105.029929 -147.513027 
L 103.750353 -147.579812 
L 102.470777 -147.513027 
L 101.191201 -147.54642 
L 99.911625 -147.412849 
L 98.632049 -147.54642 
L 97.352473 -147.579812 
L 96.072897 -147.579812 
L 94.793321 -147.54642 
L 93.513745 -147.579812 
L 92.234169 -147.579812 
L 90.954593 -147.579812 
L 89.675017 -147.579812 
L 88.395442 -141.898306 
L 87.115866 -120.270658 
L 85.83629 -88.788507 
L 84.556714 -74.905906 
L 83.277138 -68.444445 
L 81.997562 -69.632385 
L 80.717986 -67.223589 
L 79.43841 -66.708986 
L 78.158834 -63.688271 
L 76.879258 -59.399592 
L 75.599682 -57.668068 
L 74.320106 -56.823594 
L 73.04053 -56.551683 
z
" style="stroke: #6c3f70; stroke-opacity: 0.2"/>
    </defs>
    <g clip-path="url(#p775223565a)">
     <use xlink:href="#ma12a1ac110" x="0" y="362.097812" style="fill: #6c3f70; fill-opacity: 0.2; stroke: #6c3f70; stroke-opacity: 0.2"/>
    </g>
   </g>
   <g id="PolyCollection_5">
    <defs>
     <path id="mc049c99bab" d="M 73.04053 -56.828484 
L 73.04053 -56.470587 
L 74.320106 -57.429192 
L 75.599682 -61.288538 
L 76.879258 -72.679934 
L 78.158834 -80.630703 
L 79.43841 -79.953073 
L 80.717986 -81.600161 
L 81.997562 -80.946859 
L 83.277138 -84.534652 
L 84.556714 -83.790475 
L 85.83629 -84.501259 
L 87.115866 -81.122886 
L 88.395442 -80.718001 
L 89.675017 -78.294894 
L 90.954593 -82.745764 
L 92.234169 -80.145915 
L 93.513745 -83.895423 
L 94.793321 -78.490479 
L 96.072897 -81.285913 
L 97.352473 -83.136935 
L 98.632049 -85.774947 
L 99.911625 -83.060609 
L 101.191201 -81.485911 
L 102.470777 -80.761292 
L 103.750353 -80.880432 
L 105.029929 -85.81311 
L 106.309505 -78.905143 
L 107.58908 -79.478064 
L 108.868656 -80.70369 
L 110.148232 -84.967682 
L 111.427808 -88.015588 
L 112.707384 -92.356144 
L 113.98696 -99.580148 
L 115.266536 -107.089301 
L 116.546112 -103.406698 
L 117.825688 -102.398242 
L 119.105264 -103.003483 
L 120.38484 -104.993918 
L 121.664416 -99.739837 
L 122.943992 -112.637595 
L 124.223567 -93.09257 
L 125.503143 -106.876304 
L 126.782719 -114.134774 
L 128.062295 -102.108323 
L 129.341871 -106.015373 
L 130.621447 -104.717237 
L 131.901023 -102.251196 
L 133.180599 -115.908277 
L 134.460175 -98.19221 
L 135.739751 -106.186987 
L 137.019327 -96.788292 
L 138.298903 -106.583046 
L 139.578479 -100.152473 
L 140.858054 -102.114644 
L 142.13763 -100.3124 
L 143.417206 -100.242991 
L 144.696782 -95.950019 
L 145.976358 -108.620112 
L 147.255934 -105.24794 
L 148.53551 -95.618956 
L 149.815086 -99.178364 
L 151.094662 -106.096707 
L 152.374238 -106.663546 
L 153.653814 -98.256968 
L 154.93339 -100.634042 
L 156.212966 -96.99461 
L 157.492542 -105.874647 
L 158.772117 -107.09753 
L 160.051693 -101.548998 
L 161.331269 -94.178782 
L 162.610845 -101.378219 
L 163.890421 -98.659349 
L 165.169997 -94.165306 
L 166.449573 -98.864236 
L 167.729149 -96.936889 
L 169.008725 -110.956995 
L 170.288301 -102.407187 
L 171.567877 -106.438146 
L 172.847453 -112.078747 
L 174.127029 -96.45043 
L 175.406604 -91.606601 
L 176.68618 -92.500329 
L 177.965756 -101.319782 
L 179.245332 -100.440723 
L 180.524908 -103.091138 
L 181.804484 -106.247928 
L 183.08406 -103.467997 
L 184.363636 -94.058211 
L 185.643212 -107.909089 
L 186.922788 -103.242836 
L 188.202364 -106.806657 
L 189.48194 -102.742782 
L 190.761516 -106.783282 
L 192.041091 -104.108657 
L 193.320667 -95.915792 
L 194.600243 -100.793849 
L 195.879819 -109.043601 
L 197.159395 -100.267081 
L 198.438971 -109.186831 
L 199.718547 -105.609057 
L 200.998123 -102.187154 
L 202.277699 -104.128216 
L 203.557275 -110.050029 
L 204.836851 -109.149742 
L 206.116427 -99.827969 
L 207.396003 -108.628698 
L 208.675579 -112.29234 
L 209.955154 -105.724022 
L 211.23473 -101.996339 
L 212.514306 -98.692503 
L 213.793882 -109.173951 
L 215.073458 -105.244601 
L 216.353034 -115.172806 
L 217.63261 -112.679336 
L 218.912186 -99.999464 
L 220.191762 -107.456858 
L 221.471338 -111.314892 
L 222.750914 -105.971127 
L 224.03049 -101.062659 
L 225.310066 -114.682413 
L 226.589641 -122.834849 
L 227.869217 -118.337348 
L 229.148793 -114.521174 
L 230.428369 -112.331099 
L 231.707945 -120.884843 
L 232.987521 -130.034405 
L 234.267097 -130.206138 
L 235.546673 -123.422678 
L 236.826249 -119.076397 
L 238.105825 -130.635471 
L 239.385401 -124.309966 
L 240.664977 -130.635471 
L 241.944553 -130.635471 
L 243.224128 -130.635471 
L 244.503704 -130.635471 
L 245.78328 -119.258148 
L 247.062856 -130.635471 
L 248.342432 -130.635471 
L 249.622008 -130.635471 
L 250.901584 -123.909255 
L 252.18116 -124.62481 
L 253.460736 -130.635471 
L 254.740312 -130.635471 
L 256.019888 -130.635471 
L 257.299464 -130.635471 
L 258.57904 -123.680277 
L 259.858616 -130.635471 
L 261.138191 -130.635471 
L 262.417767 -130.635471 
L 263.697343 -130.635471 
L 264.976919 -130.635471 
L 266.256495 -130.635471 
L 267.536071 -130.635471 
L 268.815647 -126.828719 
L 270.095223 -120.398265 
L 271.374799 -123.680277 
L 272.654375 -121.667183 
L 273.933951 -130.377872 
L 275.213527 -126.513875 
L 276.493103 -123.766144 
L 277.772678 -115.864509 
L 279.052254 -118.562748 
L 280.33183 -125.025521 
L 281.611406 -125.698142 
L 282.890982 -130.377872 
L 284.170558 -130.377872 
L 285.450134 -130.377872 
L 286.72971 -130.377872 
L 288.009286 -130.635471 
L 289.288862 -123.508544 
L 290.568438 -123.823388 
L 291.848014 -124.62481 
L 293.12759 -124.023744 
L 294.407165 -121.819835 
L 295.686741 -130.292005 
L 296.966317 -119.329703 
L 298.245893 -119.15797 
L 299.525469 -130.635471 
L 300.805045 -119.043481 
L 302.084621 -130.635471 
L 303.364197 -127.572896 
L 304.643773 -121.265995 
L 305.923349 -115.017292 
L 307.202925 -118.659705 
L 308.482501 -130.635471 
L 309.762077 -121.361879 
L 311.041653 -123.508544 
L 312.321228 -123.465611 
L 313.600804 -116.768732 
L 314.88038 -114.706145 
L 316.159956 -130.420805 
L 317.439532 -130.420805 
L 318.719108 -119.156897 
L 319.998684 -114.949792 
L 321.27826 -126.828719 
L 322.557836 -126.828719 
L 323.837412 -123.680277 
L 325.116988 -130.635471 
L 326.396564 -130.635471 
L 327.67614 -130.635471 
L 327.67614 -130.635471 
L 327.67614 -130.635471 
L 326.396564 -130.635471 
L 325.116988 -130.635471 
L 323.837412 -130.635471 
L 322.557836 -130.635471 
L 321.27826 -130.635471 
L 319.998684 -130.635471 
L 318.719108 -130.635471 
L 317.439532 -130.635471 
L 316.159956 -130.635471 
L 314.88038 -130.506671 
L 313.600804 -130.507745 
L 312.321228 -130.592538 
L 311.041653 -130.635471 
L 309.762077 -130.635471 
L 308.482501 -130.635471 
L 307.202925 -130.635471 
L 305.923349 -128.593755 
L 304.643773 -130.635471 
L 303.364197 -130.635471 
L 302.084621 -130.635471 
L 300.805045 -130.635471 
L 299.525469 -130.635471 
L 298.245893 -130.635471 
L 296.966317 -130.635471 
L 295.686741 -130.635471 
L 294.407165 -130.635471 
L 293.12759 -130.635471 
L 291.848014 -130.635471 
L 290.568438 -130.635471 
L 289.288862 -130.635471 
L 288.009286 -130.635471 
L 286.72971 -130.635471 
L 285.450134 -130.635471 
L 284.170558 -130.635471 
L 282.890982 -130.635471 
L 281.611406 -130.635471 
L 280.33183 -130.635471 
L 279.052254 -130.377872 
L 277.772678 -129.132806 
L 276.493103 -130.635471 
L 275.213527 -130.635471 
L 273.933951 -130.635471 
L 272.654375 -130.635471 
L 271.374799 -130.635471 
L 270.095223 -130.635471 
L 268.815647 -130.635471 
L 267.536071 -130.635471 
L 266.256495 -130.635471 
L 264.976919 -130.635471 
L 263.697343 -130.635471 
L 262.417767 -130.635471 
L 261.138191 -130.635471 
L 259.858616 -130.635471 
L 258.57904 -130.635471 
L 257.299464 -130.635471 
L 256.019888 -130.635471 
L 254.740312 -130.635471 
L 253.460736 -130.635471 
L 252.18116 -130.635471 
L 250.901584 -130.635471 
L 249.622008 -130.635471 
L 248.342432 -130.635471 
L 247.062856 -130.635471 
L 245.78328 -130.635471 
L 244.503704 -130.635471 
L 243.224128 -130.635471 
L 241.944553 -130.635471 
L 240.664977 -130.635471 
L 239.385401 -130.635471 
L 238.105825 -130.635471 
L 236.826249 -130.635471 
L 235.546673 -130.635471 
L 234.267097 -130.635471 
L 232.987521 -130.635471 
L 231.707945 -130.463738 
L 230.428369 -128.14534 
L 229.148793 -129.608292 
L 227.869217 -130.035479 
L 226.589641 -130.249072 
L 225.310066 -129.949612 
L 224.03049 -122.350776 
L 222.750914 -124.211219 
L 221.471338 -126.395689 
L 220.191762 -125.160164 
L 218.912186 -120.863615 
L 217.63261 -127.029074 
L 216.353034 -127.244814 
L 215.073458 -123.367341 
L 213.793882 -124.968276 
L 212.514306 -118.622139 
L 211.23473 -120.484728 
L 209.955154 -123.032819 
L 208.675579 -125.570416 
L 207.396003 -124.739656 
L 206.116427 -120.031782 
L 204.836851 -124.529641 
L 203.557275 -124.334175 
L 202.277699 -121.360329 
L 200.998123 -120.116933 
L 199.718547 -122.29711 
L 198.438971 -124.214916 
L 197.159395 -119.482594 
L 195.879819 -124.281463 
L 194.600243 -119.802447 
L 193.320667 -117.197469 
L 192.041091 -120.508819 
L 190.761516 -122.464311 
L 189.48194 -121.133617 
L 188.202364 -122.202418 
L 186.922788 -120.560935 
L 185.643212 -123.037351 
L 184.363636 -114.707338 
L 183.08406 -120.690689 
L 181.804484 -122.378921 
L 180.524908 -120.574888 
L 179.245332 -118.185889 
L 177.965756 -117.574566 
L 176.68618 -113.178912 
L 175.406604 -111.796222 
L 174.127029 -115.570655 
L 172.847453 -124.239484 
L 171.567877 -122.007191 
L 170.288301 -120.179902 
L 169.008725 -123.508544 
L 167.729149 -115.681446 
L 166.449573 -117.198065 
L 165.169997 -113.295786 
L 163.890421 -117.664845 
L 162.610845 -119.372637 
L 161.331269 -114.998211 
L 160.051693 -119.496666 
L 158.772117 -120.976314 
L 157.492542 -119.868874 
L 156.212966 -114.08874 
L 154.93339 -117.161214 
L 153.653814 -116.782447 
L 152.374238 -120.940298 
L 151.094662 -120.19791 
L 149.815086 -116.573982 
L 148.53551 -114.068824 
L 147.255934 -120.674947 
L 145.976358 -121.857997 
L 144.696782 -114.235191 
L 143.417206 -117.922922 
L 142.13763 -117.24553 
L 140.858054 -117.531275 
L 139.578479 -118.029182 
L 138.298903 -121.137911 
L 137.019327 -116.515426 
L 135.739751 -120.595997 
L 134.460175 -116.383644 
L 133.180599 -122.735745 
L 131.901023 -118.661852 
L 130.621447 -119.312649 
L 129.341871 -120.655865 
L 128.062295 -117.974442 
L 126.782719 -122.521078 
L 125.503143 -120.318123 
L 124.223567 -112.260021 
L 122.943992 -122.264552 
L 121.664416 -117.399852 
L 120.38484 -119.930769 
L 119.105264 -118.695245 
L 117.825688 -118.070804 
L 116.546112 -117.665084 
L 115.266536 -119.702865 
L 113.98696 -115.443405 
L 112.707384 -109.26113 
L 111.427808 -101.670762 
L 110.148232 -96.031712 
L 108.868656 -90.775126 
L 107.58908 -87.401642 
L 106.309505 -85.092785 
L 105.029929 -85.984843 
L 103.750353 -85.984843 
L 102.470777 -85.94668 
L 101.191201 -85.965762 
L 99.911625 -85.889436 
L 98.632049 -85.908517 
L 97.352473 -85.870354 
L 96.072897 -85.794506 
L 94.793321 -84.892429 
L 93.513745 -85.755866 
L 92.234169 -85.67954 
L 90.954593 -85.717703 
L 89.675017 -84.787839 
L 88.395442 -85.512577 
L 87.115866 -85.67954 
L 85.83629 -85.755866 
L 84.556714 -85.488725 
L 83.277138 -85.755866 
L 81.997562 -85.717703 
L 80.717986 -85.269288 
L 79.43841 -84.65248 
L 78.158834 -85.026 
L 76.879258 -80.666362 
L 75.599682 -68.745574 
L 74.320106 -60.926706 
L 73.04053 -56.828484 
z
" style="stroke: #2d1e3e; stroke-opacity: 0.2"/>
    </defs>
    <g clip-path="url(#p775223565a)">
     <use xlink:href="#mc049c99bab" x="0" y="362.097812" style="fill: #2d1e3e; fill-opacity: 0.2; stroke: #2d1e3e; stroke-opacity: 0.2"/>
    </g>
   </g>
   <g id="line2d_14">
    <path d="M 73.04053 305.455492 
L 74.320106 304.224738 
L 75.599682 303.246813 
L 76.879258 302.798398 
L 78.158834 301.930192 
L 79.43841 300.909333 
L 80.717986 297.832447 
L 81.997562 294.364391 
L 83.277138 288.258322 
L 84.556714 281.513024 
L 85.83629 272.621061 
L 87.115866 247.352431 
L 88.395442 228.428388 
L 89.675017 198.680384 
L 90.954593 187.260127 
L 92.234169 183.529701 
L 93.513745 187.345994 
L 94.793321 183.529701 
L 98.632049 183.529701 
L 99.911625 191.052569 
L 102.470777 183.529701 
L 103.750353 187.345994 
L 105.029929 183.529701 
L 106.309505 190.990554 
L 107.58908 193.246937 
L 108.868656 185.85764 
L 110.148232 183.529701 
L 111.427808 183.529701 
L 112.707384 187.345994 
L 113.98696 183.529701 
L 115.266536 187.250587 
L 116.546112 183.529701 
L 117.825688 183.529701 
L 119.105264 187.345994 
L 120.38484 187.15995 
L 121.664416 183.529701 
L 122.943992 183.529701 
L 124.223567 185.390144 
L 125.503143 183.529701 
L 126.782719 183.529701 
L 128.062295 187.345994 
L 129.341871 187.29829 
L 130.621447 186.315595 
L 131.901023 183.529701 
L 134.460175 183.529701 
L 135.739751 190.069873 
L 137.019327 186.368069 
L 138.298903 183.529701 
L 139.578479 183.529701 
L 140.858054 187.345994 
L 142.13763 187.217194 
L 143.417206 187.260127 
L 144.696782 183.529701 
L 145.976358 183.434294 
L 148.53551 190.976243 
L 149.815086 183.434294 
L 151.094662 187.121787 
L 152.374238 192.998878 
L 153.653814 187.15995 
L 154.93339 187.303061 
L 156.212966 194.84978 
L 157.492542 183.529701 
L 161.331269 183.625108 
L 162.610845 187.441401 
L 163.890421 187.441401 
L 165.169997 186.954824 
L 166.449573 187.250587 
L 167.729149 183.529701 
L 172.847453 183.529701 
L 174.127029 186.043684 
L 175.406604 183.625108 
L 176.68618 189.254141 
L 177.965756 187.42232 
L 179.245332 183.529701 
L 180.524908 187.345994 
L 181.804484 183.529701 
L 183.08406 187.221964 
L 184.363636 183.529701 
L 185.643212 183.529701 
L 188.202364 190.976243 
L 189.48194 183.529701 
L 192.041091 183.529701 
L 193.320667 187.345994 
L 195.879819 187.312601 
L 197.159395 183.720516 
L 199.718547 183.625108 
L 202.277699 183.720516 
L 203.557275 187.536809 
L 204.836851 183.720516 
L 206.116427 187.632216 
L 208.675579 187.727623 
L 209.955154 187.536809 
L 211.23473 183.815923 
L 212.514306 190.317932 
L 213.793882 190.179592 
L 215.073458 191.114583 
L 216.353034 196.80563 
L 217.63261 185.85764 
L 218.912186 183.529701 
L 222.750914 183.529701 
L 224.03049 187.345994 
L 225.310066 183.529701 
L 226.589641 186.601817 
L 227.869217 187.250587 
L 229.148793 186.759239 
L 230.428369 183.529701 
L 231.707945 185.456929 
L 232.987521 183.529701 
L 234.267097 191.162287 
L 235.546673 183.529701 
L 238.105825 183.434294 
L 240.664977 183.148072 
L 241.944553 193.852774 
L 243.224128 190.709102 
L 244.503704 190.971472 
L 245.78328 188.390704 
L 247.062856 193.93387 
L 248.342432 183.529701 
L 249.622008 183.529701 
L 250.901584 187.345994 
L 252.18116 183.529701 
L 258.57904 183.529701 
L 259.858616 187.217194 
L 261.138191 183.529701 
L 264.976919 183.529701 
L 266.256495 191.162287 
L 267.536071 183.529701 
L 270.095223 183.529701 
L 271.374799 187.29829 
L 272.654375 190.131888 
L 273.933951 190.80928 
L 275.213527 190.561221 
L 276.493103 187.345994 
L 277.772678 187.345994 
L 279.052254 183.529701 
L 281.611406 191.06688 
L 284.170558 183.529701 
L 285.450134 183.529701 
L 286.72971 182.790294 
L 288.009286 182.790294 
L 289.288862 178.105795 
L 290.568438 160.751202 
L 293.12759 108.23901 
L 294.407165 97.796679 
L 295.686741 63.345094 
L 296.966317 71.89359 
L 298.245893 46.858708 
L 299.525469 58.851409 
L 300.805045 42.088341 
L 302.084621 45.799686 
L 303.364197 45.751983 
L 304.643773 37.532642 
L 305.923349 37.317975 
L 307.202925 45.689968 
L 308.482501 37.103309 
L 309.762077 53.27008 
L 311.041653 44.831302 
L 312.321228 45.537316 
L 314.88038 46.319656 
L 316.159956 46.505701 
L 317.439532 54.663027 
L 318.719108 46.333967 
L 319.998684 46.229019 
L 321.27826 54.195531 
L 322.557836 38.391308 
L 323.837412 78.567332 
L 325.116988 37.747308 
L 327.67614 37.747308 
L 327.67614 37.747308 
" clip-path="url(#p775223565a)" style="fill: none; stroke: #edd1cb; stroke-width: 1.5; stroke-linecap: round"/>
   </g>
   <g id="line2d_15">
    <path d="M 73.04053 305.550899 
L 74.320106 304.420323 
L 75.599682 302.798398 
L 76.879258 299.554549 
L 78.158834 287.409197 
L 79.43841 281.942357 
L 84.556714 281.894653 
L 85.83629 283.134948 
L 88.395442 281.990061 
L 97.352473 281.990061 
L 98.632049 282.672223 
L 99.911625 281.990061 
L 101.191201 282.729467 
L 102.470777 281.990061 
L 113.98696 281.990061 
L 115.266536 282.619749 
L 116.546112 281.990061 
L 122.943992 281.970979 
L 124.223567 282.648371 
L 125.503143 282.648371 
L 126.782719 283.292371 
L 128.062295 281.951898 
L 129.341871 283.440252 
L 131.901023 281.932816 
L 134.460175 281.894653 
L 135.739751 282.562504 
L 137.019327 282.614979 
L 138.298903 281.885112 
L 139.578479 280.840402 
L 140.858054 280.501706 
L 142.13763 279.485618 
L 143.417206 272.644913 
L 144.696782 264.621157 
L 145.976358 260.218109 
L 147.255934 249.899807 
L 148.53551 251.731627 
L 149.815086 250.753702 
L 151.094662 248.979126 
L 152.374238 250.753702 
L 153.653814 250.524725 
L 154.93339 248.750148 
L 156.212966 248.864637 
L 157.492542 250.558117 
L 158.772117 251.831805 
L 160.051693 248.864637 
L 161.331269 250.558117 
L 162.610845 248.864637 
L 163.890421 250.567658 
L 165.169997 248.864637 
L 167.729149 248.864637 
L 169.008725 248.063216 
L 170.288301 250.033377 
L 171.567877 248.864637 
L 172.847453 248.864637 
L 174.127029 250.639214 
L 175.406604 250.529495 
L 176.68618 248.864637 
L 177.965756 250.639214 
L 179.245332 248.864637 
L 203.557275 248.864637 
L 204.836851 250.529495 
L 206.116427 250.06677 
L 207.396003 248.864637 
L 230.428369 248.864637 
L 231.707945 250.639214 
L 232.987521 248.864637 
L 234.267097 248.864637 
L 235.546673 250.639214 
L 236.826249 248.864637 
L 244.503704 248.864637 
L 245.78328 250.529495 
L 247.062856 248.864637 
L 250.901584 248.864637 
L 252.18116 250.581969 
L 253.460736 248.864637 
L 259.858616 248.864637 
L 261.138191 250.505643 
L 262.417767 248.864637 
L 263.697343 248.864637 
L 264.976919 250.06677 
L 266.256495 250.639214 
L 267.536071 250.639214 
L 268.815647 248.864637 
L 271.374799 248.864637 
L 272.654375 250.639214 
L 273.933951 248.864637 
L 276.493103 248.864637 
L 277.772678 250.558117 
L 279.052254 250.558117 
L 280.33183 248.864637 
L 281.611406 248.864637 
L 282.890982 250.539036 
L 284.170558 248.864637 
L 286.72971 248.864637 
L 288.009286 250.581969 
L 289.288862 248.864637 
L 296.966317 248.864637 
L 298.245893 250.529495 
L 299.525469 248.864637 
L 312.321228 248.921882 
L 313.600804 250.639214 
L 314.88038 248.807393 
L 316.159956 248.864637 
L 317.439532 250.496103 
L 318.719108 248.864637 
L 327.67614 248.864637 
L 327.67614 248.864637 
" clip-path="url(#p775223565a)" style="fill: none; stroke: #d499a7; stroke-width: 1.5; stroke-linecap: round"/>
   </g>
   <g id="line2d_16">
    <path d="M 73.04053 304.811493 
L 74.320106 285.391332 
L 76.879258 265.212682 
L 78.158834 256.745282 
L 79.43841 240.840881 
L 80.717986 233.179673 
L 81.997562 230.851734 
L 83.277138 230.579823 
L 84.556714 234.462902 
L 85.83629 233.876146 
L 87.115866 231.8392 
L 88.395442 232.239911 
L 89.675017 231.5816 
L 90.954593 232.3544 
L 92.234169 233.962013 
L 93.513745 232.678785 
L 94.793321 233.470665 
L 96.072897 231.214282 
L 97.352473 234.534457 
L 98.632049 233.193984 
L 99.911625 231.075941 
L 101.191201 234.920857 
L 102.470777 232.378251 
L 103.750353 236.800381 
L 105.029929 228.380685 
L 106.309505 227.1547 
L 107.58908 239.934512 
L 108.868656 230.212505 
L 110.148232 229.458787 
L 111.427808 223.796363 
L 112.707384 227.765307 
L 113.98696 219.960988 
L 115.266536 216.249643 
L 116.546112 213.201379 
L 117.825688 213.134594 
L 119.105264 214.436904 
L 120.38484 208.683842 
L 121.664416 213.46852 
L 122.943992 202.353566 
L 124.223567 193.485455 
L 125.503143 183.415212 
L 126.782719 185.681136 
L 128.062295 178.892905 
L 129.341871 175.858952 
L 130.621447 177.275751 
L 131.901023 174.52325 
L 133.180599 177.705084 
L 134.460175 174.52325 
L 135.739751 174.52325 
L 137.019327 179.913763 
L 138.298903 176.827336 
L 139.578479 179.188668 
L 140.858054 180.338326 
L 142.13763 177.848195 
L 143.417206 176.130863 
L 144.696782 178.616224 
L 145.976358 178.220283 
L 147.255934 174.52325 
L 148.53551 177.78141 
L 149.815086 187.341224 
L 151.094662 181.631095 
L 152.374238 174.52325 
L 153.653814 174.52325 
L 154.93339 178.296609 
L 156.212966 177.13741 
L 157.492542 174.52325 
L 165.169997 174.52325 
L 166.449573 177.686002 
L 167.729149 177.686002 
L 169.008725 174.52325 
L 176.68618 174.52325 
L 177.965756 178.616224 
L 179.245332 174.52325 
L 180.524908 178.620994 
L 181.804484 174.52325 
L 183.08406 177.671691 
L 184.363636 174.52325 
L 185.643212 174.52325 
L 186.922788 184.493315 
L 188.202364 174.52325 
L 194.600243 174.52325 
L 195.879819 177.872047 
L 197.159395 174.52325 
L 203.557275 174.52325 
L 204.836851 178.267987 
L 206.116427 174.52325 
L 207.396003 177.686002 
L 208.675579 174.52325 
L 211.23473 174.52325 
L 212.514306 178.296609 
L 213.793882 174.52325 
L 216.353034 174.52325 
L 217.63261 178.620994 
L 218.912186 174.52325 
L 222.750914 174.52325 
L 224.03049 176.130863 
L 225.310066 174.52325 
L 226.589641 174.52325 
L 227.869217 180.968014 
L 230.428369 174.52325 
L 232.987521 174.52325 
L 234.267097 178.186891 
L 235.546673 174.52325 
L 238.105825 181.03957 
L 239.385401 174.52325 
L 240.664977 174.52325 
L 241.944553 180.247689 
L 243.224128 174.52325 
L 244.503704 177.13741 
L 245.78328 177.671691 
L 247.062856 177.872047 
L 248.342432 174.52325 
L 249.622008 177.480877 
L 250.901584 178.134417 
L 252.18116 174.52325 
L 253.460736 174.52325 
L 254.740312 177.805261 
L 256.019888 177.232818 
L 257.299464 177.232818 
L 258.57904 174.52325 
L 266.256495 174.52325 
L 267.536071 177.872047 
L 268.815647 177.872047 
L 270.095223 174.52325 
L 271.374799 174.52325 
L 272.654375 177.480877 
L 273.933951 174.52325 
L 280.33183 174.52325 
L 281.611406 177.480877 
L 282.890982 177.466565 
L 284.170558 174.52325 
L 285.450134 177.686002 
L 286.72971 174.52325 
L 294.407165 174.52325 
L 295.686741 177.719395 
L 296.966317 174.52325 
L 298.245893 178.296609 
L 299.525469 174.52325 
L 303.364197 174.52325 
L 304.643773 184.130767 
L 305.923349 178.620994 
L 307.202925 174.52325 
L 327.67614 174.52325 
L 327.67614 174.52325 
" clip-path="url(#p775223565a)" style="fill: none; stroke: #a9678f; stroke-width: 1.5; stroke-linecap: round"/>
   </g>
   <g id="line2d_17">
    <path d="M 73.04053 305.608144 
L 74.320106 305.388707 
L 75.599682 304.840115 
L 76.879258 303.657064 
L 78.158834 299.602253 
L 79.43841 297.35541 
L 80.717986 297.135973 
L 81.997562 294.531353 
L 83.277138 296.167589 
L 84.556714 293.391236 
L 85.83629 284.160577 
L 88.395442 230.508268 
L 89.675017 219.550737 
L 90.954593 214.551393 
L 92.234169 216.950887 
L 93.513745 216.98428 
L 94.793321 219.789255 
L 96.072897 214.622948 
L 97.352473 217.432694 
L 98.632049 217.537642 
L 99.911625 223.052185 
L 101.191201 217.413613 
L 103.750353 217.208487 
L 105.029929 220.313995 
L 106.309505 219.216811 
L 107.58908 217.213257 
L 108.868656 222.303238 
L 110.148232 214.479837 
L 111.427808 217.289583 
L 112.707384 214.403511 
L 113.98696 219.4601 
L 115.266536 219.894203 
L 116.546112 222.637164 
L 119.105264 217.365909 
L 120.38484 217.365909 
L 121.664416 214.518 
L 122.943992 214.551393 
L 124.223567 216.98905 
L 125.503143 214.661111 
L 128.062295 214.661111 
L 130.621447 220.356929 
L 133.180599 214.551393 
L 134.460175 215.381436 
L 137.019327 228.0563 
L 138.298903 226.300805 
L 139.578479 220.814884 
L 140.858054 220.232899 
L 142.13763 216.201939 
L 143.417206 218.906737 
L 144.696782 220.175655 
L 145.976358 228.595351 
L 147.255934 222.794586 
L 148.53551 221.454113 
L 149.815086 227.111767 
L 151.094662 226.343738 
L 152.374238 217.585346 
L 153.653814 228.437929 
L 154.93339 218.215034 
L 156.212966 221.053402 
L 157.492542 226.172005 
L 158.772117 228.256655 
L 160.051693 221.802349 
L 161.331269 231.085482 
L 162.610845 236.843314 
L 163.890421 227.393219 
L 165.169997 227.121308 
L 166.449573 231.591141 
L 167.729149 221.201283 
L 169.008725 223.328867 
L 170.288301 231.739022 
L 171.567877 232.010933 
L 174.127029 220.614528 
L 175.406604 228.394996 
L 176.68618 225.947798 
L 177.965756 236.833774 
L 179.245332 244.647633 
L 180.524908 238.980438 
L 181.804484 226.720597 
L 183.08406 235.149834 
L 184.363636 228.1851 
L 185.643212 231.863052 
L 186.922788 237.334662 
L 188.202364 229.329987 
L 189.48194 237.606573 
L 190.761516 227.350285 
L 192.041091 226.553634 
L 193.320667 227.474315 
L 194.600243 224.526229 
L 195.879819 234.801598 
L 197.159395 229.88812 
L 198.438971 228.380685 
L 199.718547 241.752021 
L 200.998123 229.74978 
L 202.277699 232.325777 
L 203.557275 227.02113 
L 204.836851 237.387136 
L 206.116427 223.782051 
L 207.396003 229.439706 
L 208.675579 225.556628 
L 209.955154 235.259553 
L 211.23473 232.340089 
L 212.514306 227.226256 
L 213.793882 217.695064 
L 215.073458 229.702076 
L 216.353034 221.244217 
L 217.63261 220.542973 
L 218.912186 224.640717 
L 220.191762 222.632393 
L 221.471338 224.793369 
L 222.750914 233.351406 
L 224.03049 232.626311 
L 225.310066 224.984184 
L 226.589641 227.383678 
L 227.869217 233.456354 
L 229.148793 236.208856 
L 230.428369 230.417631 
L 231.707945 234.687109 
L 232.987521 224.530999 
L 234.267097 223.63894 
L 235.546673 219.350381 
L 236.826249 219.393315 
L 238.105825 229.635291 
L 239.385401 235.302486 
L 240.664977 230.417631 
L 241.944553 232.335318 
L 243.224128 227.846404 
L 244.503704 233.089036 
L 245.78328 219.703388 
L 247.062856 222.341401 
L 248.342432 219.173878 
L 249.622008 218.706382 
L 250.901584 229.420624 
L 252.18116 226.868478 
L 253.460736 224.850614 
L 254.740312 230.517809 
L 256.019888 233.523139 
L 257.299464 223.128511 
L 258.57904 223.653252 
L 261.138191 244.523604 
L 262.417767 249.284429 
L 263.697343 239.409771 
L 264.976919 232.740799 
L 266.256495 221.702172 
L 267.536071 219.918055 
L 268.815647 201.213449 
L 270.095223 167.329537 
L 271.374799 159.973632 
L 272.654375 144.822949 
L 273.933951 154.564037 
L 275.213527 144.956519 
L 276.493103 164.610428 
L 277.772678 150.051271 
L 279.052254 153.624275 
L 280.33183 160.178758 
L 281.611406 153.924808 
L 282.890982 154.649904 
L 284.170558 144.889734 
L 285.450134 145.09009 
L 286.72971 149.798441 
L 288.009286 165.206724 
L 289.288862 156.023769 
L 290.568438 145.562356 
L 291.848014 152.341046 
L 293.12759 152.870557 
L 294.407165 150.385196 
L 295.686741 155.284362 
L 296.966317 163.518015 
L 298.245893 145.09009 
L 299.525469 145.156875 
L 302.084621 155.236659 
L 303.364197 150.518766 
L 304.643773 160.383884 
L 305.923349 160.708269 
L 307.202925 160.846609 
L 308.482501 167.563285 
L 309.762077 167.429715 
L 311.041653 143.124699 
L 312.321228 163.317659 
L 313.600804 145.996459 
L 314.88038 132.076531 
L 316.159956 113.853731 
L 317.439532 123.671145 
L 318.719108 108.291484 
L 319.998684 99.556944 
L 321.27826 93.455645 
L 322.557836 104.98085 
L 323.837412 87.020421 
L 325.116988 92.773483 
L 326.396564 80.919123 
L 327.67614 63.421419 
L 327.67614 63.421419 
" clip-path="url(#p775223565a)" style="fill: none; stroke: #6c3f70; stroke-width: 1.5; stroke-linecap: round"/>
   </g>
   <g id="line2d_18">
    <path d="M 73.04053 305.493655 
L 74.320106 303.304057 
L 75.599682 297.131203 
L 76.879258 285.23868 
L 78.158834 279.070596 
L 79.43841 279.581026 
L 80.717986 278.426597 
L 81.997562 278.421827 
L 83.277138 276.838065 
L 84.556714 277.362805 
L 85.83629 276.866687 
L 87.115866 278.378893 
L 88.395442 278.684197 
L 89.675017 280.182092 
L 90.954593 277.477294 
L 92.234169 279.166004 
L 93.513745 277.000257 
L 94.793321 279.981736 
L 96.072897 278.102212 
L 98.632049 276.265621 
L 99.911625 277.176761 
L 101.191201 277.94956 
L 102.470777 278.531545 
L 103.750353 278.264405 
L 105.029929 276.208377 
L 106.309505 279.671663 
L 107.58908 278.7319 
L 108.868656 276.542302 
L 110.148232 271.686069 
L 111.427808 267.387969 
L 112.707384 261.176953 
L 113.98696 253.9737 
L 115.266536 248.292193 
L 116.546112 251.12102 
L 117.825688 250.892043 
L 119.105264 250.806176 
L 120.38484 248.64043 
L 121.664416 252.948071 
L 122.943992 243.989323 
L 124.223567 259.173399 
L 125.503143 247.581409 
L 126.782719 243.140198 
L 128.062295 251.598057 
L 129.341871 248.130001 
L 130.621447 249.255807 
L 131.901023 251.211657 
L 133.180599 241.852199 
L 134.460175 255.047032 
L 135.739751 247.815157 
L 137.019327 254.965936 
L 138.298903 247.443068 
L 139.578479 252.471034 
L 140.858054 252.15142 
L 142.13763 253.286767 
L 143.417206 252.471034 
L 144.696782 255.891387 
L 145.976358 246.302951 
L 147.255934 248.234949 
L 148.53551 256.917016 
L 149.815086 253.873522 
L 151.094662 248.12046 
L 152.374238 247.73406 
L 153.653814 253.630233 
L 154.93339 252.480575 
L 156.212966 256.606942 
L 157.492542 248.673823 
L 158.772117 247.285646 
L 160.051693 250.682147 
L 161.331269 257.346348 
L 162.610845 250.872961 
L 163.890421 253.048248 
L 165.169997 257.933104 
L 166.449573 253.124574 
L 167.729149 255.013639 
L 169.008725 244.556997 
L 170.288301 249.794859 
L 171.567877 247.519394 
L 172.847453 243.278538 
L 174.127029 255.371417 
L 175.406604 260.175176 
L 176.68618 258.958732 
L 177.965756 251.836575 
L 179.245332 252.68093 
L 180.524908 250.133555 
L 181.804484 247.223631 
L 183.08406 249.699451 
L 184.363636 257.594408 
L 185.643212 245.616018 
L 186.922788 249.780548 
L 188.202364 246.436521 
L 189.48194 249.375066 
L 190.761516 246.312491 
L 192.041091 249.728074 
L 193.320667 255.27601 
L 194.600243 251.712546 
L 195.879819 244.981559 
L 197.159395 251.593287 
L 198.438971 244.375723 
L 199.718547 247.481231 
L 200.998123 250.181258 
L 202.277699 248.807393 
L 203.557275 244.122893 
L 204.836851 244.480671 
L 206.116427 252.203894 
L 207.396003 245.062655 
L 208.675579 242.310154 
L 209.955154 247.013735 
L 212.514306 253.239063 
L 213.793882 244.652404 
L 215.073458 246.851543 
L 216.353034 240.254126 
L 217.63261 241.069859 
L 218.912186 251.359539 
L 220.191762 245.396581 
L 221.471338 242.458035 
L 222.750914 246.68458 
L 224.03049 249.961821 
L 225.310066 238.808705 
L 226.589641 234.491524 
L 227.869217 236.805151 
L 230.428369 240.817029 
L 231.707945 235.35019 
L 232.987521 231.719941 
L 234.267097 231.634074 
L 236.826249 236.151611 
L 238.105825 231.462341 
L 239.385401 233.570843 
L 240.664977 231.462341 
L 244.503704 231.462341 
L 245.78328 236.00373 
L 247.062856 231.462341 
L 249.622008 231.462341 
L 250.901584 233.704413 
L 252.18116 233.465895 
L 253.460736 231.462341 
L 257.299464 231.462341 
L 258.57904 233.780739 
L 259.858616 231.462341 
L 267.536071 231.462341 
L 268.815647 232.731259 
L 270.095223 235.793834 
L 271.374799 233.780739 
L 272.654375 233.79028 
L 273.933951 231.548208 
L 275.213527 232.836207 
L 276.493103 234.338872 
L 277.772678 239.171253 
L 279.052254 236.852855 
L 280.33183 233.360947 
L 281.611406 233.13674 
L 282.890982 231.548208 
L 288.009286 231.462341 
L 289.288862 233.866606 
L 290.568438 233.733035 
L 291.848014 233.465895 
L 293.12759 233.66625 
L 294.407165 233.66625 
L 295.686741 231.591141 
L 296.966317 235.994189 
L 298.245893 236.051433 
L 299.525469 231.462341 
L 300.805045 236.099137 
L 302.084621 231.462341 
L 303.364197 232.4832 
L 304.643773 234.863612 
L 305.923349 239.171253 
L 307.202925 236.566633 
L 308.482501 231.462341 
L 309.762077 233.823672 
L 312.321228 233.909539 
L 313.600804 237.749684 
L 314.88038 238.403224 
L 316.159956 231.548208 
L 317.439532 231.548208 
L 318.719108 236.027582 
L 319.998684 238.21718 
L 321.27826 232.731259 
L 322.557836 232.731259 
L 323.837412 233.780739 
L 325.116988 231.462341 
L 327.67614 231.462341 
L 327.67614 231.462341 
" clip-path="url(#p775223565a)" style="fill: none; stroke: #2d1e3e; stroke-width: 1.5; stroke-linecap: round"/>
   </g>
   <g id="line2d_19"/>
   <g id="line2d_20"/>
   <g id="line2d_21"/>
   <g id="line2d_22"/>
   <g id="line2d_23"/>
   <g id="patch_3">
    <path d="M 60.30875 319.138125 
L 60.30875 22.318125 
" style="fill: none; stroke: #ffffff; stroke-width: 1.25; stroke-linejoin: miter; stroke-linecap: square"/>
   </g>
   <g id="patch_4">
    <path d="M 60.30875 319.138125 
L 340.40792 319.138125 
" style="fill: none; stroke: #ffffff; stroke-width: 1.25; stroke-linejoin: miter; stroke-linecap: square"/>
   </g>
   <g id="text_16">
    <!-- Evolved For Still Life For Left To Right -->
    <g style="fill: #262626" transform="translate(89.15396 16.318125)scale(0.12 -0.12)">
     <defs>
      <path id="DejaVuSans-45" d="M 628 4666 
L 3578 4666 
L 3578 4134 
L 1259 4134 
L 1259 2753 
L 3481 2753 
L 3481 2222 
L 1259 2222 
L 1259 531 
L 3634 531 
L 3634 0 
L 628 0 
L 628 4666 
z
" transform="scale(0.015625)"/>
      <path id="DejaVuSans-76" d="M 191 3500 
L 800 3500 
L 1894 563 
L 2988 3500 
L 3597 3500 
L 2284 0 
L 1503 0 
L 191 3500 
z
" transform="scale(0.015625)"/>
      <path id="DejaVuSans-6c" d="M 603 4863 
L 1178 4863 
L 1178 0 
L 603 0 
L 603 4863 
z
" transform="scale(0.015625)"/>
      <path id="DejaVuSans-64" d="M 2906 2969 
L 2906 4863 
L 3481 4863 
L 3481 0 
L 2906 0 
L 2906 525 
Q 2725 213 2448 61 
Q 2172 -91 1784 -91 
Q 1150 -91 751 415 
Q 353 922 353 1747 
Q 353 2572 751 3078 
Q 1150 3584 1784 3584 
Q 2172 3584 2448 3432 
Q 2725 3281 2906 2969 
z
M 947 1747 
Q 947 1113 1208 752 
Q 1469 391 1925 391 
Q 2381 391 2643 752 
Q 2906 1113 2906 1747 
Q 2906 2381 2643 2742 
Q 2381 3103 1925 3103 
Q 1469 3103 1208 2742 
Q 947 2381 947 1747 
z
" transform="scale(0.015625)"/>
      <path id="DejaVuSans-20" transform="scale(0.015625)"/>
      <path id="DejaVuSans-53" d="M 3425 4513 
L 3425 3897 
Q 3066 4069 2747 4153 
Q 2428 4238 2131 4238 
Q 1616 4238 1336 4038 
Q 1056 3838 1056 3469 
Q 1056 3159 1242 3001 
Q 1428 2844 1947 2747 
L 2328 2669 
Q 3034 2534 3370 2195 
Q 3706 1856 3706 1288 
Q 3706 609 3251 259 
Q 2797 -91 1919 -91 
Q 1588 -91 1214 -16 
Q 841 59 441 206 
L 441 856 
Q 825 641 1194 531 
Q 1563 422 1919 422 
Q 2459 422 2753 634 
Q 3047 847 3047 1241 
Q 3047 1584 2836 1778 
Q 2625 1972 2144 2069 
L 1759 2144 
Q 1053 2284 737 2584 
Q 422 2884 422 3419 
Q 422 4038 858 4394 
Q 1294 4750 2059 4750 
Q 2388 4750 2728 4690 
Q 3069 4631 3425 4513 
z
" transform="scale(0.015625)"/>
      <path id="DejaVuSans-4c" d="M 628 4666 
L 1259 4666 
L 1259 531 
L 3531 531 
L 3531 0 
L 628 0 
L 628 4666 
z
" transform="scale(0.015625)"/>
      <path id="DejaVuSans-66" d="M 2375 4863 
L 2375 4384 
L 1825 4384 
Q 1516 4384 1395 4259 
Q 1275 4134 1275 3809 
L 1275 3500 
L 2222 3500 
L 2222 3053 
L 1275 3053 
L 1275 0 
L 697 0 
L 697 3053 
L 147 3053 
L 147 3500 
L 697 3500 
L 697 3744 
Q 697 4328 969 4595 
Q 1241 4863 1831 4863 
L 2375 4863 
z
" transform="scale(0.015625)"/>
      <path id="DejaVuSans-54" d="M -19 4666 
L 3928 4666 
L 3928 4134 
L 2272 4134 
L 2272 0 
L 1638 0 
L 1638 4134 
L -19 4134 
L -19 4666 
z
" transform="scale(0.015625)"/>
      <path id="DejaVuSans-52" d="M 2841 2188 
Q 3044 2119 3236 1894 
Q 3428 1669 3622 1275 
L 4263 0 
L 3584 0 
L 2988 1197 
Q 2756 1666 2539 1819 
Q 2322 1972 1947 1972 
L 1259 1972 
L 1259 0 
L 628 0 
L 628 4666 
L 2053 4666 
Q 2853 4666 3247 4331 
Q 3641 3997 3641 3322 
Q 3641 2881 3436 2590 
Q 3231 2300 2841 2188 
z
M 1259 4147 
L 1259 2491 
L 2053 2491 
Q 2509 2491 2742 2702 
Q 2975 2913 2975 3322 
Q 2975 3731 2742 3939 
Q 2509 4147 2053 4147 
L 1259 4147 
z
" transform="scale(0.015625)"/>
      <path id="DejaVuSans-67" d="M 2906 1791 
Q 2906 2416 2648 2759 
Q 2391 3103 1925 3103 
Q 1463 3103 1205 2759 
Q 947 2416 947 1791 
Q 947 1169 1205 825 
Q 1463 481 1925 481 
Q 2391 481 2648 825 
Q 2906 1169 2906 1791 
z
M 3481 434 
Q 3481 -459 3084 -895 
Q 2688 -1331 1869 -1331 
Q 1566 -1331 1297 -1286 
Q 1028 -1241 775 -1147 
L 775 -588 
Q 1028 -725 1275 -790 
Q 1522 -856 1778 -856 
Q 2344 -856 2625 -561 
Q 2906 -266 2906 331 
L 2906 616 
Q 2728 306 2450 153 
Q 2172 0 1784 0 
Q 1141 0 747 490 
Q 353 981 353 1791 
Q 353 2603 747 3093 
Q 1141 3584 1784 3584 
Q 2172 3584 2450 3431 
Q 2728 3278 2906 2969 
L 2906 3500 
L 3481 3500 
L 3481 434 
z
" transform="scale(0.015625)"/>
      <path id="DejaVuSans-68" d="M 3513 2113 
L 3513 0 
L 2938 0 
L 2938 2094 
Q 2938 2591 2744 2837 
Q 2550 3084 2163 3084 
Q 1697 3084 1428 2787 
Q 1159 2491 1159 1978 
L 1159 0 
L 581 0 
L 581 4863 
L 1159 4863 
L 1159 2956 
Q 1366 3272 1645 3428 
Q 1925 3584 2291 3584 
Q 2894 3584 3203 3211 
Q 3513 2838 3513 2113 
z
" transform="scale(0.015625)"/>
     </defs>
     <use xlink:href="#DejaVuSans-45"/>
     <use xlink:href="#DejaVuSans-76" x="63.183594"/>
     <use xlink:href="#DejaVuSans-6f" x="122.363281"/>
     <use xlink:href="#DejaVuSans-6c" x="183.544922"/>
     <use xlink:href="#DejaVuSans-76" x="211.328125"/>
     <use xlink:href="#DejaVuSans-65" x="270.507812"/>
     <use xlink:href="#DejaVuSans-64" x="332.03125"/>
     <use xlink:href="#DejaVuSans-20" x="395.507812"/>
     <use xlink:href="#DejaVuSans-46" x="427.294922"/>
     <use xlink:href="#DejaVuSans-6f" x="481.189453"/>
     <use xlink:href="#DejaVuSans-72" x="542.371094"/>
     <use xlink:href="#DejaVuSans-20" x="583.484375"/>
     <use xlink:href="#DejaVuSans-53" x="615.271484"/>
     <use xlink:href="#DejaVuSans-74" x="678.748047"/>
     <use xlink:href="#DejaVuSans-69" x="717.957031"/>
     <use xlink:href="#DejaVuSans-6c" x="745.740234"/>
     <use xlink:href="#DejaVuSans-6c" x="773.523438"/>
     <use xlink:href="#DejaVuSans-20" x="801.306641"/>
     <use xlink:href="#DejaVuSans-4c" x="833.09375"/>
     <use xlink:href="#DejaVuSans-69" x="888.806641"/>
     <use xlink:href="#DejaVuSans-66" x="916.589844"/>
     <use xlink:href="#DejaVuSans-65" x="951.794922"/>
     <use xlink:href="#DejaVuSans-20" x="1013.318359"/>
     <use xlink:href="#DejaVuSans-46" x="1045.105469"/>
     <use xlink:href="#DejaVuSans-6f" x="1099"/>
     <use xlink:href="#DejaVuSans-72" x="1160.181641"/>
     <use xlink:href="#DejaVuSans-20" x="1201.294922"/>
     <use xlink:href="#DejaVuSans-4c" x="1233.082031"/>
     <use xlink:href="#DejaVuSans-65" x="1287.044922"/>
     <use xlink:href="#DejaVuSans-66" x="1348.568359"/>
     <use xlink:href="#DejaVuSans-74" x="1382.023438"/>
     <use xlink:href="#DejaVuSans-20" x="1421.232422"/>
     <use xlink:href="#DejaVuSans-54" x="1453.019531"/>
     <use xlink:href="#DejaVuSans-6f" x="1497.103516"/>
     <use xlink:href="#DejaVuSans-20" x="1558.285156"/>
     <use xlink:href="#DejaVuSans-52" x="1590.072266"/>
     <use xlink:href="#DejaVuSans-69" x="1659.554688"/>
     <use xlink:href="#DejaVuSans-67" x="1687.337891"/>
     <use xlink:href="#DejaVuSans-68" x="1750.814453"/>
     <use xlink:href="#DejaVuSans-74" x="1814.193359"/>
    </g>
   </g>
  </g>
  <g id="legend_1">
   <g id="text_17">
    <!-- Trial -->
    <g style="fill: #262626" transform="translate(351.73787 143.995312)scale(0.12 -0.12)">
     <use xlink:href="#DejaVuSans-54"/>
     <use xlink:href="#DejaVuSans-72" x="46.333984"/>
     <use xlink:href="#DejaVuSans-69" x="87.447266"/>
     <use xlink:href="#DejaVuSans-61" x="115.230469"/>
     <use xlink:href="#DejaVuSans-6c" x="176.509766"/>
    </g>
   </g>
   <g id="line2d_24">
    <path d="M 345.09537 156.499219 
L 356.09537 156.499219 
L 367.09537 156.499219 
" style="fill: none; stroke: #edd1cb; stroke-width: 1.5; stroke-linecap: round"/>
   </g>
   <g id="text_18">
    <!-- 0 -->
    <g style="fill: #262626" transform="translate(375.89537 160.349219)scale(0.11 -0.11)">
     <use xlink:href="#DejaVuSans-30"/>
    </g>
   </g>
   <g id="line2d_25">
    <path d="M 345.09537 172.645156 
L 356.09537 172.645156 
L 367.09537 172.645156 
" style="fill: none; stroke: #d499a7; stroke-width: 1.5; stroke-linecap: round"/>
   </g>
   <g id="text_19">
    <!-- 1 -->
    <g style="fill: #262626" transform="translate(375.89537 176.495156)scale(0.11 -0.11)">
     <use xlink:href="#DejaVuSans-31"/>
    </g>
   </g>
   <g id="line2d_26">
    <path d="M 345.09537 188.791094 
L 356.09537 188.791094 
L 367.09537 188.791094 
" style="fill: none; stroke: #a9678f; stroke-width: 1.5; stroke-linecap: round"/>
   </g>
   <g id="text_20">
    <!-- 2 -->
    <g style="fill: #262626" transform="translate(375.89537 192.641094)scale(0.11 -0.11)">
     <use xlink:href="#DejaVuSans-32"/>
    </g>
   </g>
   <g id="line2d_27">
    <path d="M 345.09537 204.937031 
L 356.09537 204.937031 
L 367.09537 204.937031 
" style="fill: none; stroke: #6c3f70; stroke-width: 1.5; stroke-linecap: round"/>
   </g>
   <g id="text_21">
    <!-- 3 -->
    <g style="fill: #262626" transform="translate(375.89537 208.787031)scale(0.11 -0.11)">
     <defs>
      <path id="DejaVuSans-33" d="M 2597 2516 
Q 3050 2419 3304 2112 
Q 3559 1806 3559 1356 
Q 3559 666 3084 287 
Q 2609 -91 1734 -91 
Q 1441 -91 1130 -33 
Q 819 25 488 141 
L 488 750 
Q 750 597 1062 519 
Q 1375 441 1716 441 
Q 2309 441 2620 675 
Q 2931 909 2931 1356 
Q 2931 1769 2642 2001 
Q 2353 2234 1838 2234 
L 1294 2234 
L 1294 2753 
L 1863 2753 
Q 2328 2753 2575 2939 
Q 2822 3125 2822 3475 
Q 2822 3834 2567 4026 
Q 2313 4219 1838 4219 
Q 1578 4219 1281 4162 
Q 984 4106 628 3988 
L 628 4550 
Q 988 4650 1302 4700 
Q 1616 4750 1894 4750 
Q 2613 4750 3031 4423 
Q 3450 4097 3450 3541 
Q 3450 3153 3228 2886 
Q 3006 2619 2597 2516 
z
" transform="scale(0.015625)"/>
     </defs>
     <use xlink:href="#DejaVuSans-33"/>
    </g>
   </g>
   <g id="line2d_28">
    <path d="M 345.09537 221.082969 
L 356.09537 221.082969 
L 367.09537 221.082969 
" style="fill: none; stroke: #2d1e3e; stroke-width: 1.5; stroke-linecap: round"/>
   </g>
   <g id="text_22">
    <!-- 4 -->
    <g style="fill: #262626" transform="translate(375.89537 224.932969)scale(0.11 -0.11)">
     <defs>
      <path id="DejaVuSans-34" d="M 2419 4116 
L 825 1625 
L 2419 1625 
L 2419 4116 
z
M 2253 4666 
L 3047 4666 
L 3047 1625 
L 3713 1625 
L 3713 1100 
L 3047 1100 
L 3047 0 
L 2419 0 
L 2419 1100 
L 313 1100 
L 313 1709 
L 2253 4666 
z
" transform="scale(0.015625)"/>
     </defs>
     <use xlink:href="#DejaVuSans-34"/>
    </g>
   </g>
  </g>
 </g>
 <defs>
  <clipPath id="p775223565a">
   <rect x="60.30875" y="22.318125" width="280.09917" height="296.82"/>
  </clipPath>
 </defs>
</svg>
