<?xml version="1.0" encoding="utf-8" standalone="no"?>
<!DOCTYPE svg PUBLIC "-//W3C//DTD SVG 1.1//EN"
  "http://www.w3.org/Graphics/SVG/1.1/DTD/svg11.dtd">
<svg xmlns:xlink="http://www.w3.org/1999/xlink" width="393.52115pt" height="362.097812pt" viewBox="0 0 393.52115 362.097812" xmlns="http://www.w3.org/2000/svg" version="1.1">
 <metadata>
  <rdf:RDF xmlns:dc="http://purl.org/dc/elements/1.1/" xmlns:cc="http://creativecommons.org/ns#" xmlns:rdf="http://www.w3.org/1999/02/22-rdf-syntax-ns#">
   <cc:Work>
    <dc:type rdf:resource="http://purl.org/dc/dcmitype/StillImage"/>
    <dc:date>2022-11-20T08:24:21.785566</dc:date>
    <dc:format>image/svg+xml</dc:format>
    <dc:creator>
     <cc:Agent>
      <dc:title>Matplotlib v3.5.2, https://matplotlib.org/</dc:title>
     </cc:Agent>
    </dc:creator>
   </cc:Work>
  </rdf:RDF>
 </metadata>
 <defs>
  <style type="text/css">*{stroke-linejoin: round; stroke-linecap: butt}</style>
 </defs>
 <g id="figure_1">
  <g id="patch_1">
   <path d="M 0 362.097812 
L 393.52115 362.097812 
L 393.52115 0 
L 0 0 
z
" style="fill: #ffffff"/>
  </g>
  <g id="axes_1">
   <g id="patch_2">
    <path d="M 53.31 319.138125 
L 341.13495 319.138125 
L 341.13495 22.318125 
L 53.31 22.318125 
z
" style="fill: #eaeaf2"/>
   </g>
   <g id="matplotlib.axis_1">
    <g id="xtick_1">
     <g id="line2d_1">
      <path d="M 66.392952 319.138125 
L 66.392952 22.318125 
" clip-path="url(#pb743977081)" style="fill: none; stroke: #ffffff; stroke-linecap: round"/>
     </g>
     <g id="text_1">
      <!-- 0 -->
      <g style="fill: #262626" transform="translate(62.893577 336.996406)scale(0.11 -0.11)">
       <defs>
        <path id="DejaVuSans-30" d="M 2034 4250 
Q 1547 4250 1301 3770 
Q 1056 3291 1056 2328 
Q 1056 1369 1301 889 
Q 1547 409 2034 409 
Q 2525 409 2770 889 
Q 3016 1369 3016 2328 
Q 3016 3291 2770 3770 
Q 2525 4250 2034 4250 
z
M 2034 4750 
Q 2819 4750 3233 4129 
Q 3647 3509 3647 2328 
Q 3647 1150 3233 529 
Q 2819 -91 2034 -91 
Q 1250 -91 836 529 
Q 422 1150 422 2328 
Q 422 3509 836 4129 
Q 1250 4750 2034 4750 
z
" transform="scale(0.015625)"/>
       </defs>
       <use xlink:href="#DejaVuSans-30"/>
      </g>
     </g>
    </g>
    <g id="xtick_2">
     <g id="line2d_2">
      <path d="M 132.136431 319.138125 
L 132.136431 22.318125 
" clip-path="url(#pb743977081)" style="fill: none; stroke: #ffffff; stroke-linecap: round"/>
     </g>
     <g id="text_2">
      <!-- 50 -->
      <g style="fill: #262626" transform="translate(125.137681 336.996406)scale(0.11 -0.11)">
       <defs>
        <path id="DejaVuSans-35" d="M 691 4666 
L 3169 4666 
L 3169 4134 
L 1269 4134 
L 1269 2991 
Q 1406 3038 1543 3061 
Q 1681 3084 1819 3084 
Q 2600 3084 3056 2656 
Q 3513 2228 3513 1497 
Q 3513 744 3044 326 
Q 2575 -91 1722 -91 
Q 1428 -91 1123 -41 
Q 819 9 494 109 
L 494 744 
Q 775 591 1075 516 
Q 1375 441 1709 441 
Q 2250 441 2565 725 
Q 2881 1009 2881 1497 
Q 2881 1984 2565 2268 
Q 2250 2553 1709 2553 
Q 1456 2553 1204 2497 
Q 953 2441 691 2322 
L 691 4666 
z
" transform="scale(0.015625)"/>
       </defs>
       <use xlink:href="#DejaVuSans-35"/>
       <use xlink:href="#DejaVuSans-30" x="63.623047"/>
      </g>
     </g>
    </g>
    <g id="xtick_3">
     <g id="line2d_3">
      <path d="M 197.87991 319.138125 
L 197.87991 22.318125 
" clip-path="url(#pb743977081)" style="fill: none; stroke: #ffffff; stroke-linecap: round"/>
     </g>
     <g id="text_3">
      <!-- 100 -->
      <g style="fill: #262626" transform="translate(187.381785 336.996406)scale(0.11 -0.11)">
       <defs>
        <path id="DejaVuSans-31" d="M 794 531 
L 1825 531 
L 1825 4091 
L 703 3866 
L 703 4441 
L 1819 4666 
L 2450 4666 
L 2450 531 
L 3481 531 
L 3481 0 
L 794 0 
L 794 531 
z
" transform="scale(0.015625)"/>
       </defs>
       <use xlink:href="#DejaVuSans-31"/>
       <use xlink:href="#DejaVuSans-30" x="63.623047"/>
       <use xlink:href="#DejaVuSans-30" x="127.246094"/>
      </g>
     </g>
    </g>
    <g id="xtick_4">
     <g id="line2d_4">
      <path d="M 263.623389 319.138125 
L 263.623389 22.318125 
" clip-path="url(#pb743977081)" style="fill: none; stroke: #ffffff; stroke-linecap: round"/>
     </g>
     <g id="text_4">
      <!-- 150 -->
      <g style="fill: #262626" transform="translate(253.125264 336.996406)scale(0.11 -0.11)">
       <use xlink:href="#DejaVuSans-31"/>
       <use xlink:href="#DejaVuSans-35" x="63.623047"/>
       <use xlink:href="#DejaVuSans-30" x="127.246094"/>
      </g>
     </g>
    </g>
    <g id="xtick_5">
     <g id="line2d_5">
      <path d="M 329.366867 319.138125 
L 329.366867 22.318125 
" clip-path="url(#pb743977081)" style="fill: none; stroke: #ffffff; stroke-linecap: round"/>
     </g>
     <g id="text_5">
      <!-- 200 -->
      <g style="fill: #262626" transform="translate(318.868742 336.996406)scale(0.11 -0.11)">
       <defs>
        <path id="DejaVuSans-32" d="M 1228 531 
L 3431 531 
L 3431 0 
L 469 0 
L 469 531 
Q 828 903 1448 1529 
Q 2069 2156 2228 2338 
Q 2531 2678 2651 2914 
Q 2772 3150 2772 3378 
Q 2772 3750 2511 3984 
Q 2250 4219 1831 4219 
Q 1534 4219 1204 4116 
Q 875 4013 500 3803 
L 500 4441 
Q 881 4594 1212 4672 
Q 1544 4750 1819 4750 
Q 2544 4750 2975 4387 
Q 3406 4025 3406 3419 
Q 3406 3131 3298 2873 
Q 3191 2616 2906 2266 
Q 2828 2175 2409 1742 
Q 1991 1309 1228 531 
z
" transform="scale(0.015625)"/>
       </defs>
       <use xlink:href="#DejaVuSans-32"/>
       <use xlink:href="#DejaVuSans-30" x="63.623047"/>
       <use xlink:href="#DejaVuSans-30" x="127.246094"/>
      </g>
     </g>
    </g>
    <g id="text_6">
     <!-- Generation -->
     <g style="fill: #262626" transform="translate(163.750912 352.402187)scale(0.12 -0.12)">
      <defs>
       <path id="DejaVuSans-47" d="M 3809 666 
L 3809 1919 
L 2778 1919 
L 2778 2438 
L 4434 2438 
L 4434 434 
Q 4069 175 3628 42 
Q 3188 -91 2688 -91 
Q 1594 -91 976 548 
Q 359 1188 359 2328 
Q 359 3472 976 4111 
Q 1594 4750 2688 4750 
Q 3144 4750 3555 4637 
Q 3966 4525 4313 4306 
L 4313 3634 
Q 3963 3931 3569 4081 
Q 3175 4231 2741 4231 
Q 1884 4231 1454 3753 
Q 1025 3275 1025 2328 
Q 1025 1384 1454 906 
Q 1884 428 2741 428 
Q 3075 428 3337 486 
Q 3600 544 3809 666 
z
" transform="scale(0.015625)"/>
       <path id="DejaVuSans-65" d="M 3597 1894 
L 3597 1613 
L 953 1613 
Q 991 1019 1311 708 
Q 1631 397 2203 397 
Q 2534 397 2845 478 
Q 3156 559 3463 722 
L 3463 178 
Q 3153 47 2828 -22 
Q 2503 -91 2169 -91 
Q 1331 -91 842 396 
Q 353 884 353 1716 
Q 353 2575 817 3079 
Q 1281 3584 2069 3584 
Q 2775 3584 3186 3129 
Q 3597 2675 3597 1894 
z
M 3022 2063 
Q 3016 2534 2758 2815 
Q 2500 3097 2075 3097 
Q 1594 3097 1305 2825 
Q 1016 2553 972 2059 
L 3022 2063 
z
" transform="scale(0.015625)"/>
       <path id="DejaVuSans-6e" d="M 3513 2113 
L 3513 0 
L 2938 0 
L 2938 2094 
Q 2938 2591 2744 2837 
Q 2550 3084 2163 3084 
Q 1697 3084 1428 2787 
Q 1159 2491 1159 1978 
L 1159 0 
L 581 0 
L 581 3500 
L 1159 3500 
L 1159 2956 
Q 1366 3272 1645 3428 
Q 1925 3584 2291 3584 
Q 2894 3584 3203 3211 
Q 3513 2838 3513 2113 
z
" transform="scale(0.015625)"/>
       <path id="DejaVuSans-72" d="M 2631 2963 
Q 2534 3019 2420 3045 
Q 2306 3072 2169 3072 
Q 1681 3072 1420 2755 
Q 1159 2438 1159 1844 
L 1159 0 
L 581 0 
L 581 3500 
L 1159 3500 
L 1159 2956 
Q 1341 3275 1631 3429 
Q 1922 3584 2338 3584 
Q 2397 3584 2469 3576 
Q 2541 3569 2628 3553 
L 2631 2963 
z
" transform="scale(0.015625)"/>
       <path id="DejaVuSans-61" d="M 2194 1759 
Q 1497 1759 1228 1600 
Q 959 1441 959 1056 
Q 959 750 1161 570 
Q 1363 391 1709 391 
Q 2188 391 2477 730 
Q 2766 1069 2766 1631 
L 2766 1759 
L 2194 1759 
z
M 3341 1997 
L 3341 0 
L 2766 0 
L 2766 531 
Q 2569 213 2275 61 
Q 1981 -91 1556 -91 
Q 1019 -91 701 211 
Q 384 513 384 1019 
Q 384 1609 779 1909 
Q 1175 2209 1959 2209 
L 2766 2209 
L 2766 2266 
Q 2766 2663 2505 2880 
Q 2244 3097 1772 3097 
Q 1472 3097 1187 3025 
Q 903 2953 641 2809 
L 641 3341 
Q 956 3463 1253 3523 
Q 1550 3584 1831 3584 
Q 2591 3584 2966 3190 
Q 3341 2797 3341 1997 
z
" transform="scale(0.015625)"/>
       <path id="DejaVuSans-74" d="M 1172 4494 
L 1172 3500 
L 2356 3500 
L 2356 3053 
L 1172 3053 
L 1172 1153 
Q 1172 725 1289 603 
Q 1406 481 1766 481 
L 2356 481 
L 2356 0 
L 1766 0 
Q 1100 0 847 248 
Q 594 497 594 1153 
L 594 3053 
L 172 3053 
L 172 3500 
L 594 3500 
L 594 4494 
L 1172 4494 
z
" transform="scale(0.015625)"/>
       <path id="DejaVuSans-69" d="M 603 3500 
L 1178 3500 
L 1178 0 
L 603 0 
L 603 3500 
z
M 603 4863 
L 1178 4863 
L 1178 4134 
L 603 4134 
L 603 4863 
z
" transform="scale(0.015625)"/>
       <path id="DejaVuSans-6f" d="M 1959 3097 
Q 1497 3097 1228 2736 
Q 959 2375 959 1747 
Q 959 1119 1226 758 
Q 1494 397 1959 397 
Q 2419 397 2687 759 
Q 2956 1122 2956 1747 
Q 2956 2369 2687 2733 
Q 2419 3097 1959 3097 
z
M 1959 3584 
Q 2709 3584 3137 3096 
Q 3566 2609 3566 1747 
Q 3566 888 3137 398 
Q 2709 -91 1959 -91 
Q 1206 -91 779 398 
Q 353 888 353 1747 
Q 353 2609 779 3096 
Q 1206 3584 1959 3584 
z
" transform="scale(0.015625)"/>
      </defs>
      <use xlink:href="#DejaVuSans-47"/>
      <use xlink:href="#DejaVuSans-65" x="77.490234"/>
      <use xlink:href="#DejaVuSans-6e" x="139.013672"/>
      <use xlink:href="#DejaVuSans-65" x="202.392578"/>
      <use xlink:href="#DejaVuSans-72" x="263.916016"/>
      <use xlink:href="#DejaVuSans-61" x="305.029297"/>
      <use xlink:href="#DejaVuSans-74" x="366.308594"/>
      <use xlink:href="#DejaVuSans-69" x="405.517578"/>
      <use xlink:href="#DejaVuSans-6f" x="433.300781"/>
      <use xlink:href="#DejaVuSans-6e" x="494.482422"/>
     </g>
    </g>
   </g>
   <g id="matplotlib.axis_2">
    <g id="ytick_1">
     <g id="line2d_6">
      <path d="M 53.31 309.015513 
L 341.13495 309.015513 
" clip-path="url(#pb743977081)" style="fill: none; stroke: #ffffff; stroke-linecap: round"/>
     </g>
     <g id="text_7">
      <!-- 0 -->
      <g style="fill: #262626" transform="translate(36.81125 313.194654)scale(0.11 -0.11)">
       <use xlink:href="#DejaVuSans-30"/>
      </g>
     </g>
    </g>
    <g id="ytick_2">
     <g id="line2d_7">
      <path d="M 53.31 252.568081 
L 341.13495 252.568081 
" clip-path="url(#pb743977081)" style="fill: none; stroke: #ffffff; stroke-linecap: round"/>
     </g>
     <g id="text_8">
      <!-- 100 -->
      <g style="fill: #262626" transform="translate(22.81375 256.747222)scale(0.11 -0.11)">
       <use xlink:href="#DejaVuSans-31"/>
       <use xlink:href="#DejaVuSans-30" x="63.623047"/>
       <use xlink:href="#DejaVuSans-30" x="127.246094"/>
      </g>
     </g>
    </g>
    <g id="ytick_3">
     <g id="line2d_8">
      <path d="M 53.31 196.120649 
L 341.13495 196.120649 
" clip-path="url(#pb743977081)" style="fill: none; stroke: #ffffff; stroke-linecap: round"/>
     </g>
     <g id="text_9">
      <!-- 200 -->
      <g style="fill: #262626" transform="translate(22.81375 200.29979)scale(0.11 -0.11)">
       <use xlink:href="#DejaVuSans-32"/>
       <use xlink:href="#DejaVuSans-30" x="63.623047"/>
       <use xlink:href="#DejaVuSans-30" x="127.246094"/>
      </g>
     </g>
    </g>
    <g id="ytick_4">
     <g id="line2d_9">
      <path d="M 53.31 139.673218 
L 341.13495 139.673218 
" clip-path="url(#pb743977081)" style="fill: none; stroke: #ffffff; stroke-linecap: round"/>
     </g>
     <g id="text_10">
      <!-- 300 -->
      <g style="fill: #262626" transform="translate(22.81375 143.852358)scale(0.11 -0.11)">
       <defs>
        <path id="DejaVuSans-33" d="M 2597 2516 
Q 3050 2419 3304 2112 
Q 3559 1806 3559 1356 
Q 3559 666 3084 287 
Q 2609 -91 1734 -91 
Q 1441 -91 1130 -33 
Q 819 25 488 141 
L 488 750 
Q 750 597 1062 519 
Q 1375 441 1716 441 
Q 2309 441 2620 675 
Q 2931 909 2931 1356 
Q 2931 1769 2642 2001 
Q 2353 2234 1838 2234 
L 1294 2234 
L 1294 2753 
L 1863 2753 
Q 2328 2753 2575 2939 
Q 2822 3125 2822 3475 
Q 2822 3834 2567 4026 
Q 2313 4219 1838 4219 
Q 1578 4219 1281 4162 
Q 984 4106 628 3988 
L 628 4550 
Q 988 4650 1302 4700 
Q 1616 4750 1894 4750 
Q 2613 4750 3031 4423 
Q 3450 4097 3450 3541 
Q 3450 3153 3228 2886 
Q 3006 2619 2597 2516 
z
" transform="scale(0.015625)"/>
       </defs>
       <use xlink:href="#DejaVuSans-33"/>
       <use xlink:href="#DejaVuSans-30" x="63.623047"/>
       <use xlink:href="#DejaVuSans-30" x="127.246094"/>
      </g>
     </g>
    </g>
    <g id="ytick_5">
     <g id="line2d_10">
      <path d="M 53.31 83.225786 
L 341.13495 83.225786 
" clip-path="url(#pb743977081)" style="fill: none; stroke: #ffffff; stroke-linecap: round"/>
     </g>
     <g id="text_11">
      <!-- 400 -->
      <g style="fill: #262626" transform="translate(22.81375 87.404926)scale(0.11 -0.11)">
       <defs>
        <path id="DejaVuSans-34" d="M 2419 4116 
L 825 1625 
L 2419 1625 
L 2419 4116 
z
M 2253 4666 
L 3047 4666 
L 3047 1625 
L 3713 1625 
L 3713 1100 
L 3047 1100 
L 3047 0 
L 2419 0 
L 2419 1100 
L 313 1100 
L 313 1709 
L 2253 4666 
z
" transform="scale(0.015625)"/>
       </defs>
       <use xlink:href="#DejaVuSans-34"/>
       <use xlink:href="#DejaVuSans-30" x="63.623047"/>
       <use xlink:href="#DejaVuSans-30" x="127.246094"/>
      </g>
     </g>
    </g>
    <g id="ytick_6">
     <g id="line2d_11">
      <path d="M 53.31 26.778354 
L 341.13495 26.778354 
" clip-path="url(#pb743977081)" style="fill: none; stroke: #ffffff; stroke-linecap: round"/>
     </g>
     <g id="text_12">
      <!-- 500 -->
      <g style="fill: #262626" transform="translate(22.81375 30.957495)scale(0.11 -0.11)">
       <use xlink:href="#DejaVuSans-35"/>
       <use xlink:href="#DejaVuSans-30" x="63.623047"/>
       <use xlink:href="#DejaVuSans-30" x="127.246094"/>
      </g>
     </g>
    </g>
    <g id="text_13">
     <!-- Fitness -->
     <g style="fill: #262626" transform="translate(16.318125 191.50875)rotate(-90)scale(0.12 -0.12)">
      <defs>
       <path id="DejaVuSans-46" d="M 628 4666 
L 3309 4666 
L 3309 4134 
L 1259 4134 
L 1259 2759 
L 3109 2759 
L 3109 2228 
L 1259 2228 
L 1259 0 
L 628 0 
L 628 4666 
z
" transform="scale(0.015625)"/>
       <path id="DejaVuSans-73" d="M 2834 3397 
L 2834 2853 
Q 2591 2978 2328 3040 
Q 2066 3103 1784 3103 
Q 1356 3103 1142 2972 
Q 928 2841 928 2578 
Q 928 2378 1081 2264 
Q 1234 2150 1697 2047 
L 1894 2003 
Q 2506 1872 2764 1633 
Q 3022 1394 3022 966 
Q 3022 478 2636 193 
Q 2250 -91 1575 -91 
Q 1294 -91 989 -36 
Q 684 19 347 128 
L 347 722 
Q 666 556 975 473 
Q 1284 391 1588 391 
Q 1994 391 2212 530 
Q 2431 669 2431 922 
Q 2431 1156 2273 1281 
Q 2116 1406 1581 1522 
L 1381 1569 
Q 847 1681 609 1914 
Q 372 2147 372 2553 
Q 372 3047 722 3315 
Q 1072 3584 1716 3584 
Q 2034 3584 2315 3537 
Q 2597 3491 2834 3397 
z
" transform="scale(0.015625)"/>
      </defs>
      <use xlink:href="#DejaVuSans-46"/>
      <use xlink:href="#DejaVuSans-69" x="50.269531"/>
      <use xlink:href="#DejaVuSans-74" x="78.052734"/>
      <use xlink:href="#DejaVuSans-6e" x="117.261719"/>
      <use xlink:href="#DejaVuSans-65" x="180.640625"/>
      <use xlink:href="#DejaVuSans-73" x="242.164062"/>
      <use xlink:href="#DejaVuSans-73" x="294.263672"/>
     </g>
    </g>
   </g>
   <g id="PolyCollection_1">
    <defs>
     <path id="me96a6c8817" d="M 66.392952 -72.697782 
L 66.392952 -60.57746 
L 67.707822 -73.190374 
L 69.022691 -84.303021 
L 70.337561 -89.654502 
L 71.652431 -92.876416 
L 72.9673 -89.348893 
L 74.28217 -88.802499 
L 75.597039 -91.904021 
L 76.911909 -98.008722 
L 78.226778 -99.667307 
L 79.541648 -101.660607 
L 80.856518 -106.668552 
L 82.171387 -109.617048 
L 83.486257 -127.888377 
L 84.801126 -126.158351 
L 86.115996 -128.154738 
L 87.430865 -134.006308 
L 88.745735 -158.565351 
L 90.060605 -173.384566 
L 91.375474 -158.902712 
L 92.690344 -177.898596 
L 94.005213 -186.743203 
L 95.320083 -193.066638 
L 96.634953 -211.482613 
L 97.949822 -228.967646 
L 99.264692 -243.590618 
L 100.579561 -236.606571 
L 101.894431 -213.807542 
L 103.2093 -243.344542 
L 104.52417 -245.195842 
L 105.83904 -229.285604 
L 107.153909 -206.879501 
L 108.468779 -219.848299 
L 109.783648 -233.220166 
L 111.098518 -218.888251 
L 112.413387 -222.022848 
L 113.728257 -233.423465 
L 115.043127 -249.53612 
L 116.357996 -235.670779 
L 117.672866 -219.715118 
L 118.987735 -210.088626 
L 120.302605 -204.550163 
L 121.617474 -220.949024 
L 122.932344 -221.461902 
L 124.247214 -231.522774 
L 125.562083 -235.576405 
L 126.876953 -246.214541 
L 128.191822 -227.362863 
L 129.506692 -248.068928 
L 130.821561 -242.143711 
L 132.136431 -248.280606 
L 133.451301 -273.469831 
L 134.76617 -261.724796 
L 136.08104 -245.684465 
L 137.395909 -243.430095 
L 138.710779 -225.222712 
L 140.025648 -216.564205 
L 141.340518 -210.476261 
L 142.655388 -252.673803 
L 143.970257 -229.511394 
L 145.285127 -247.416254 
L 146.599996 -266.661742 
L 147.914866 -259.530843 
L 149.229736 -256.214557 
L 150.544605 -256.564707 
L 151.859475 -238.122273 
L 153.174344 -239.865528 
L 154.489214 -243.784656 
L 155.804083 -219.812137 
L 157.118953 -234.153313 
L 158.433823 -233.902827 
L 159.748692 -246.654655 
L 161.063562 -252.130056 
L 162.378431 -253.874193 
L 163.693301 -231.024008 
L 165.00817 -250.070166 
L 166.32304 -246.130752 
L 167.63791 -270.404912 
L 168.952779 -259.554657 
L 170.267649 -269.062521 
L 171.582518 -276.610601 
L 172.897388 -271.409059 
L 174.212257 -237.139735 
L 175.527127 -223.480338 
L 176.841997 -240.407512 
L 178.156866 -248.104648 
L 179.471736 -288.326971 
L 180.786605 -272.045415 
L 182.101475 -278.325192 
L 183.416344 -266.449182 
L 184.731214 -272.080254 
L 186.046084 -256.133855 
L 187.360953 -277.952992 
L 188.675823 -280.279684 
L 189.990692 -251.775495 
L 191.305562 -251.562054 
L 192.620431 -261.865474 
L 193.935301 -279.857211 
L 195.250171 -277.954756 
L 196.56504 -277.884197 
L 197.87991 -301.450999 
L 199.194779 -297.640798 
L 200.509649 -278.166434 
L 201.824519 -301.450999 
L 203.139388 -301.450999 
L 204.454258 -280.918246 
L 205.769127 -301.450999 
L 207.083997 -295.312341 
L 208.398866 -288.326971 
L 209.713736 -294.730227 
L 211.028606 -290.302632 
L 212.343475 -285.275282 
L 213.658345 -269.520716 
L 214.973214 -265.759465 
L 216.288084 -288.309332 
L 217.602953 -284.848839 
L 218.917823 -274.370785 
L 220.232693 -298.981424 
L 221.547562 -291.854936 
L 222.862432 -294.253952 
L 224.177301 -271.710259 
L 225.492171 -286.368951 
L 226.80704 -295.735697 
L 228.12191 -295.735697 
L 229.43678 -295.735697 
L 230.751649 -285.998515 
L 232.066519 -297.42912 
L 233.381388 -297.42912 
L 234.696258 -301.450999 
L 236.011127 -301.450999 
L 237.325997 -301.450999 
L 238.640867 -301.450999 
L 239.955736 -282.823347 
L 241.270606 -272.451131 
L 242.585475 -285.151803 
L 243.900345 -301.450999 
L 245.215214 -283.246703 
L 246.530084 -297.640798 
L 247.844954 -301.450999 
L 249.159823 -301.450999 
L 250.474693 -301.450999 
L 251.789562 -301.450999 
L 253.104432 -301.450999 
L 254.419302 -301.450999 
L 255.734171 -301.450999 
L 257.049041 -301.450999 
L 258.36391 -301.450999 
L 259.67878 -301.450999 
L 260.993649 -301.450999 
L 262.308519 -283.670058 
L 263.623389 -301.450999 
L 264.938258 -301.450999 
L 266.253128 -301.450999 
L 267.567997 -301.450999 
L 268.882867 -291.854936 
L 270.197736 -277.460841 
L 271.512606 -274.77606 
L 272.827476 -266.301889 
L 274.142345 -261.796679 
L 275.457215 -275.55574 
L 276.772084 -301.450999 
L 278.086954 -296.935205 
L 279.401823 -298.064153 
L 280.716693 -301.450999 
L 282.031563 -301.450999 
L 283.346432 -301.450999 
L 284.661302 -301.450999 
L 285.976171 -265.271283 
L 287.291041 -271.957216 
L 288.60591 -276.610601 
L 289.92078 -277.390282 
L 291.23565 -294.253952 
L 292.550519 -283.6264 
L 293.865389 -301.450999 
L 295.180258 -301.450999 
L 296.495128 -299.969254 
L 297.809997 -299.969254 
L 299.124867 -291.660898 
L 300.439737 -275.785058 
L 301.754606 -292.066614 
L 303.069476 -293.054444 
L 304.384345 -281.271042 
L 305.699215 -255.957456 
L 307.014085 -269.889829 
L 308.328954 -243.201219 
L 309.643824 -254.09866 
L 310.958693 -258.278416 
L 312.273563 -253.515223 
L 313.588432 -255.162341 
L 314.903302 -242.566626 
L 316.218172 -271.741128 
L 317.533041 -258.325602 
L 318.847911 -286.210193 
L 320.16278 -301.450999 
L 321.47765 -288.538649 
L 322.792519 -287.903616 
L 324.107389 -301.450999 
L 325.422259 -276.684689 
L 326.737128 -269.905705 
L 328.051998 -269.310361 
L 328.051998 -301.450999 
L 328.051998 -301.450999 
L 326.737128 -301.450999 
L 325.422259 -301.450999 
L 324.107389 -301.450999 
L 322.792519 -301.450999 
L 321.47765 -301.450999 
L 320.16278 -301.450999 
L 318.847911 -301.450999 
L 317.533041 -297.076323 
L 316.218172 -300.957084 
L 314.903302 -287.766466 
L 313.588432 -293.551887 
L 312.273563 -293.220699 
L 310.958693 -292.631088 
L 309.643824 -293.19909 
L 308.328954 -289.633641 
L 307.014085 -297.693717 
L 305.699215 -293.831919 
L 304.384345 -299.969254 
L 303.069476 -300.463169 
L 301.754606 -300.463169 
L 300.439737 -300.463169 
L 299.124867 -301.450999 
L 297.809997 -301.450999 
L 296.495128 -301.450999 
L 295.180258 -301.450999 
L 293.865389 -301.450999 
L 292.550519 -301.450999 
L 291.23565 -301.450999 
L 289.92078 -301.450999 
L 288.60591 -300.886525 
L 287.291041 -301.450999 
L 285.976171 -300.886525 
L 284.661302 -301.450999 
L 283.346432 -303.214982 
L 282.031563 -303.214982 
L 280.716693 -302.509389 
L 279.401823 -302.509389 
L 278.086954 -301.450999 
L 276.772084 -301.450999 
L 275.457215 -301.450999 
L 274.142345 -297.076323 
L 272.827476 -298.074737 
L 271.512606 -299.051983 
L 270.197736 -298.346391 
L 268.882867 -301.450999 
L 267.567997 -301.450999 
L 266.253128 -301.450999 
L 264.938258 -301.450999 
L 263.623389 -301.450999 
L 262.308519 -301.450999 
L 260.993649 -301.450999 
L 259.67878 -301.450999 
L 258.36391 -301.450999 
L 257.049041 -301.450999 
L 255.734171 -301.450999 
L 254.419302 -301.450999 
L 253.104432 -301.450999 
L 251.789562 -301.450999 
L 250.474693 -301.450999 
L 249.159823 -301.450999 
L 247.844954 -301.450999 
L 246.530084 -301.450999 
L 245.215214 -301.450999 
L 243.900345 -301.450999 
L 242.585475 -301.450999 
L 241.270606 -301.450999 
L 239.955736 -301.450999 
L 238.640867 -301.450999 
L 237.325997 -301.450999 
L 236.011127 -301.450999 
L 234.696258 -301.450999 
L 233.381388 -301.450999 
L 232.066519 -301.450999 
L 230.751649 -301.450999 
L 229.43678 -301.450999 
L 228.12191 -301.450999 
L 226.80704 -301.450999 
L 225.492171 -301.450999 
L 224.177301 -301.450999 
L 222.862432 -301.450999 
L 221.547562 -301.450999 
L 220.232693 -301.450999 
L 218.917823 -301.450999 
L 217.602953 -300.463169 
L 216.288084 -301.450999 
L 214.973214 -298.487509 
L 213.658345 -300.957084 
L 212.343475 -301.450999 
L 211.028606 -301.450999 
L 209.713736 -301.450999 
L 208.398866 -301.450999 
L 207.083997 -301.450999 
L 205.769127 -301.450999 
L 204.454258 -301.450999 
L 203.139388 -301.450999 
L 201.824519 -301.450999 
L 200.509649 -302.086033 
L 199.194779 -302.086033 
L 197.87991 -302.086033 
L 196.56504 -301.450999 
L 195.250171 -301.450999 
L 193.935301 -301.450999 
L 192.620431 -298.205272 
L 191.305562 -292.207732 
L 189.990692 -290.165041 
L 188.675823 -297.781916 
L 187.360953 -297.640798 
L 186.046084 -293.197326 
L 184.731214 -300.180932 
L 183.416344 -297.676077 
L 182.101475 -300.180932 
L 180.786605 -301.450999 
L 179.471736 -301.450999 
L 178.156866 -297.076323 
L 176.841997 -288.379891 
L 175.527127 -275.026545 
L 174.212257 -284.588211 
L 172.897388 -298.981424 
L 171.582518 -298.487509 
L 170.267649 -297.993594 
L 168.952779 -297.293293 
L 167.63791 -297.005764 
L 166.32304 -290.381129 
L 165.00817 -291.473475 
L 163.693301 -279.729322 
L 162.378431 -287.235066 
L 161.063562 -287.586099 
L 159.748692 -286.354839 
L 158.433823 -282.595793 
L 157.118953 -280.073299 
L 155.804083 -270.690677 
L 154.489214 -285.416401 
L 153.174344 -284.644218 
L 151.859475 -286.072602 
L 150.544605 -289.390653 
L 149.229736 -287.409701 
L 147.914866 -288.196437 
L 146.599996 -291.078784 
L 145.285127 -289.528243 
L 143.970257 -279.331985 
L 142.655388 -286.562989 
L 141.340518 -268.584482 
L 140.025648 -266.852252 
L 138.710779 -274.571879 
L 137.395909 -282.406606 
L 136.08104 -286.423635 
L 134.76617 -293.618918 
L 133.451301 -294.39507 
L 132.136431 -289.304659 
L 130.821561 -280.847687 
L 129.506692 -284.887206 
L 128.191822 -269.8594 
L 126.876953 -280.566773 
L 125.562083 -278.577001 
L 124.247214 -273.053531 
L 122.932344 -267.583422 
L 121.617474 -266.299684 
L 120.302605 -257.442729 
L 118.987735 -257.77524 
L 117.672866 -267.484639 
L 116.357996 -276.121537 
L 115.043127 -282.682228 
L 113.728257 -273.038537 
L 112.413387 -266.190317 
L 111.098518 -260.856476 
L 109.783648 -267.159185 
L 108.468779 -256.471216 
L 107.153909 -252.64558 
L 105.83904 -267.6531 
L 104.52417 -273.368402 
L 103.2093 -273.791758 
L 101.894431 -261.09285 
L 100.579561 -265.889117 
L 99.264692 -265.889117 
L 97.949822 -260.103256 
L 96.634953 -249.029857 
L 95.320083 -233.991026 
L 94.005213 -231.668303 
L 92.690344 -222.563508 
L 91.375474 -209.072131 
L 90.060605 -219.603105 
L 88.745735 -201.782916 
L 87.430865 -179.157197 
L 86.115996 -171.539881 
L 84.801126 -161.321132 
L 83.486257 -167.811705 
L 82.171387 -142.99512 
L 80.856518 -140.86423 
L 79.541648 -131.777516 
L 78.226778 -124.494034 
L 76.911909 -121.613451 
L 75.597039 -119.162397 
L 74.28217 -112.938186 
L 72.9673 -110.802445 
L 71.652431 -112.193345 
L 70.337561 -110.323523 
L 69.022691 -100.781702 
L 67.707822 -89.049898 
L 66.392952 -72.697782 
z
" style="stroke: #edd1cb; stroke-opacity: 0.2"/>
    </defs>
    <g clip-path="url(#pb743977081)">
     <use xlink:href="#me96a6c8817" x="0" y="362.097812" style="fill: #edd1cb; fill-opacity: 0.2; stroke: #edd1cb; stroke-opacity: 0.2"/>
    </g>
   </g>
   <g id="PolyCollection_2">
    <defs>
     <path id="m867755aae3" d="M 66.392952 -64.00135 
L 66.392952 -56.645103 
L 67.707822 -63.330154 
L 69.022691 -74.514243 
L 70.337561 -85.305404 
L 71.652431 -87.178753 
L 72.9673 -89.665527 
L 74.28217 -88.288739 
L 75.597039 -91.905344 
L 76.911909 -97.338409 
L 78.226778 -96.968855 
L 79.541648 -120.759242 
L 80.856518 -141.894837 
L 82.171387 -169.320791 
L 83.486257 -194.230426 
L 84.801126 -207.433392 
L 86.115996 -223.33481 
L 87.430865 -210.56887 
L 88.745735 -222.634509 
L 90.060605 -219.384371 
L 91.375474 -208.381091 
L 92.690344 -233.923995 
L 94.005213 -239.252103 
L 95.320083 -226.103821 
L 96.634953 -228.103736 
L 97.949822 -243.37894 
L 99.264692 -228.765229 
L 100.579561 -260.807084 
L 101.894431 -238.783766 
L 103.2093 -224.355273 
L 104.52417 -254.403388 
L 105.83904 -264.265372 
L 107.153909 -253.774087 
L 108.468779 -250.334322 
L 109.783648 -235.753686 
L 111.098518 -239.335893 
L 112.413387 -274.527338 
L 113.728257 -284.303328 
L 115.043127 -274.356232 
L 116.357996 -261.094173 
L 117.672866 -265.534998 
L 118.987735 -274.555562 
L 120.302605 -291.925495 
L 121.617474 -294.367288 
L 122.932344 -293.436346 
L 124.247214 -291.041299 
L 125.562083 -295.938555 
L 126.876953 -271.05538 
L 128.191822 -289.549411 
L 129.506692 -295.587522 
L 130.821561 -298.395341 
L 132.136431 -290.036711 
L 133.451301 -299.817552 
L 134.76617 -304.624403 
L 136.08104 -306.808213 
L 137.395909 -289.947189 
L 138.710779 -287.215222 
L 140.025648 -288.678004 
L 141.340518 -284.851485 
L 142.655388 -282.823347 
L 143.970257 -296.38837 
L 145.285127 -305.772756 
L 146.599996 -287.47585 
L 147.914866 -294.313486 
L 149.229736 -307.730776 
L 150.544605 -299.471811 
L 151.859475 -307.517334 
L 153.174344 -283.485281 
L 154.489214 -298.409012 
L 155.804083 -303.426659 
L 157.118953 -292.278292 
L 158.433823 -298.134713 
L 159.748692 -320.149211 
L 161.063562 -303.426659 
L 162.378431 -312.528808 
L 163.693301 -314.433909 
L 165.00817 -306.39015 
L 166.32304 -326.287869 
L 167.63791 -314.433909 
L 168.952779 -326.287869 
L 170.267649 -326.287869 
L 171.582518 -326.287869 
L 172.897388 -326.287869 
L 174.212257 -326.287869 
L 175.527127 -305.755116 
L 176.841997 -302.950384 
L 178.156866 -326.287869 
L 179.471736 -298.628628 
L 180.786605 -314.645587 
L 182.101475 -326.287869 
L 183.416344 -326.287869 
L 184.731214 -326.287869 
L 186.046084 -326.287869 
L 187.360953 -320.149211 
L 188.675823 -316.056772 
L 189.990692 -310.041593 
L 191.305562 -326.287869 
L 192.620431 -326.287869 
L 193.935301 -304.37921 
L 195.250171 -326.287869 
L 196.56504 -309.494758 
L 197.87991 -302.086033 
L 199.194779 -308.171772 
L 200.509649 -326.287869 
L 201.824519 -326.287869 
L 203.139388 -326.287869 
L 204.454258 -326.287869 
L 205.769127 -326.287869 
L 207.083997 -314.433909 
L 208.398866 -326.287869 
L 209.713736 -314.433909 
L 211.028606 -311.047063 
L 212.343475 -326.287869 
L 213.658345 -318.879144 
L 214.973214 -318.879144 
L 216.288084 -318.879144 
L 217.602953 -314.733786 
L 218.917823 -296.37073 
L 220.232693 -311.470418 
L 221.547562 -301.627398 
L 222.862432 -310.676626 
L 224.177301 -318.879144 
L 225.492171 -318.879144 
L 226.80704 -318.879144 
L 228.12191 -314.636767 
L 229.43678 -314.636767 
L 230.751649 -314.645587 
L 232.066519 -283.87027 
L 233.381388 -311.443959 
L 234.696258 -318.879144 
L 236.011127 -326.287869 
L 237.325997 -326.287869 
L 238.640867 -326.287869 
L 239.955736 -326.287869 
L 241.270606 -326.287869 
L 242.585475 -326.287869 
L 243.900345 -300.475076 
L 245.215214 -310.482588 
L 246.530084 -312.528808 
L 247.844954 -320.149211 
L 249.159823 -308.154132 
L 250.474693 -310.482588 
L 251.789562 -316.056772 
L 253.104432 -303.902935 
L 254.419302 -315.845094 
L 255.734171 -305.543438 
L 257.049041 -305.543438 
L 258.36391 -305.543438 
L 259.67878 -326.287869 
L 260.993649 -326.287869 
L 262.308519 -326.287869 
L 263.623389 -326.287869 
L 264.938258 -326.287869 
L 266.253128 -326.287869 
L 267.567997 -326.287869 
L 268.882867 -312.687566 
L 270.197736 -326.287869 
L 271.512606 -326.287869 
L 272.827476 -326.287869 
L 274.142345 -326.287869 
L 275.457215 -311.752656 
L 276.772084 -310.006313 
L 278.086954 -295.876815 
L 279.401823 -292.814542 
L 280.716693 -319.937533 
L 282.031563 -326.287869 
L 283.346432 -326.287869 
L 284.661302 -296.582408 
L 285.976171 -326.287869 
L 287.291041 -326.287869 
L 288.60591 -320.149211 
L 289.92078 -308.930284 
L 291.23565 -310.443781 
L 292.550519 -318.879144 
L 293.865389 -290.584869 
L 295.180258 -286.316032 
L 296.495128 -326.287869 
L 297.809997 -314.433909 
L 299.124867 -326.287869 
L 300.439737 -326.287869 
L 301.754606 -326.287869 
L 303.069476 -319.937533 
L 304.384345 -308.083573 
L 305.699215 -326.287869 
L 307.014085 -326.287869 
L 308.328954 -326.287869 
L 309.643824 -326.287869 
L 310.958693 -326.287869 
L 312.273563 -319.937533 
L 313.588432 -312.528808 
L 314.903302 -312.528808 
L 316.218172 -288.679768 
L 317.533041 -312.528808 
L 318.847911 -300.674847 
L 320.16278 -326.287869 
L 321.47765 -326.287869 
L 322.792519 -326.287869 
L 324.107389 -326.287869 
L 325.422259 -326.287869 
L 326.737128 -326.287869 
L 328.051998 -326.287869 
L 328.051998 -326.287869 
L 328.051998 -326.287869 
L 326.737128 -326.287869 
L 325.422259 -326.287869 
L 324.107389 -326.287869 
L 322.792519 -326.287869 
L 321.47765 -326.287869 
L 320.16278 -326.287869 
L 318.847911 -326.287869 
L 317.533041 -326.287869 
L 316.218172 -326.287869 
L 314.903302 -326.287869 
L 313.588432 -326.287869 
L 312.273563 -326.287869 
L 310.958693 -326.287869 
L 309.643824 -326.287869 
L 308.328954 -326.287869 
L 307.014085 -326.287869 
L 305.699215 -326.287869 
L 304.384345 -326.287869 
L 303.069476 -326.287869 
L 301.754606 -326.287869 
L 300.439737 -326.287869 
L 299.124867 -326.287869 
L 297.809997 -326.287869 
L 296.495128 -326.287869 
L 295.180258 -326.287869 
L 293.865389 -326.287869 
L 292.550519 -326.287869 
L 291.23565 -326.287869 
L 289.92078 -326.287869 
L 288.60591 -326.287869 
L 287.291041 -326.287869 
L 285.976171 -326.287869 
L 284.661302 -326.287869 
L 283.346432 -326.287869 
L 282.031563 -326.287869 
L 280.716693 -326.287869 
L 279.401823 -326.287869 
L 278.086954 -326.287869 
L 276.772084 -326.287869 
L 275.457215 -326.287869 
L 274.142345 -326.287869 
L 272.827476 -326.287869 
L 271.512606 -326.287869 
L 270.197736 -326.287869 
L 268.882867 -326.287869 
L 267.567997 -326.287869 
L 266.253128 -326.287869 
L 264.938258 -326.287869 
L 263.623389 -326.287869 
L 262.308519 -326.287869 
L 260.993649 -326.287869 
L 259.67878 -326.287869 
L 258.36391 -326.287869 
L 257.049041 -326.287869 
L 255.734171 -326.287869 
L 254.419302 -326.287869 
L 253.104432 -326.287869 
L 251.789562 -326.287869 
L 250.474693 -326.287869 
L 249.159823 -326.287869 
L 247.844954 -326.287869 
L 246.530084 -326.287869 
L 245.215214 -326.287869 
L 243.900345 -326.287869 
L 242.585475 -326.287869 
L 241.270606 -326.287869 
L 239.955736 -326.287869 
L 238.640867 -326.287869 
L 237.325997 -326.287869 
L 236.011127 -326.287869 
L 234.696258 -326.287869 
L 233.381388 -326.287869 
L 232.066519 -322.336549 
L 230.751649 -326.287869 
L 229.43678 -326.287869 
L 228.12191 -326.287869 
L 226.80704 -326.287869 
L 225.492171 -326.287869 
L 224.177301 -326.287869 
L 222.862432 -326.287869 
L 221.547562 -326.287869 
L 220.232693 -326.287869 
L 218.917823 -326.287869 
L 217.602953 -326.287869 
L 216.288084 -326.287869 
L 214.973214 -326.287869 
L 213.658345 -326.287869 
L 212.343475 -326.287869 
L 211.028606 -326.287869 
L 209.713736 -326.287869 
L 208.398866 -326.287869 
L 207.083997 -326.287869 
L 205.769127 -326.287869 
L 204.454258 -326.287869 
L 203.139388 -326.287869 
L 201.824519 -326.287869 
L 200.509649 -326.287869 
L 199.194779 -326.287869 
L 197.87991 -326.287869 
L 196.56504 -326.287869 
L 195.250171 -326.287869 
L 193.935301 -326.287869 
L 192.620431 -326.287869 
L 191.305562 -326.287869 
L 189.990692 -326.287869 
L 188.675823 -326.287869 
L 187.360953 -326.287869 
L 186.046084 -326.287869 
L 184.731214 -326.287869 
L 183.416344 -326.287869 
L 182.101475 -326.287869 
L 180.786605 -326.287869 
L 179.471736 -326.287869 
L 178.156866 -326.287869 
L 176.841997 -326.287869 
L 175.527127 -326.287869 
L 174.212257 -326.287869 
L 172.897388 -326.287869 
L 171.582518 -326.287869 
L 170.267649 -326.287869 
L 168.952779 -326.287869 
L 167.63791 -326.287869 
L 166.32304 -326.287869 
L 165.00817 -326.287869 
L 163.693301 -326.287869 
L 162.378431 -326.287869 
L 161.063562 -326.287869 
L 159.748692 -326.287869 
L 158.433823 -326.287869 
L 157.118953 -326.287869 
L 155.804083 -326.287869 
L 154.489214 -326.287869 
L 153.174344 -321.560397 
L 151.859475 -323.677176 
L 150.544605 -323.677176 
L 149.229736 -325.793954 
L 147.914866 -323.818294 
L 146.599996 -322.336549 
L 145.285127 -322.830464 
L 143.970257 -322.336549 
L 142.655388 -318.412571 
L 141.340518 -317.822519 
L 140.025648 -320.360889 
L 138.710779 -320.149211 
L 137.395909 -320.854804 
L 136.08104 -322.336549 
L 134.76617 -323.747735 
L 133.451301 -323.333199 
L 132.136431 -321.211128 
L 130.821561 -324.818472 
L 129.506692 -323.818294 
L 128.191822 -321.713863 
L 126.876953 -312.787231 
L 125.562083 -318.889728 
L 124.247214 -320.016912 
L 122.932344 -320.373237 
L 121.617474 -321.854982 
L 120.302605 -318.879144 
L 118.987735 -312.179539 
L 117.672866 -308.81342 
L 116.357996 -304.790218 
L 115.043127 -307.813683 
L 113.728257 -312.675218 
L 112.413387 -308.653339 
L 111.098518 -291.929023 
L 109.783648 -286.282516 
L 108.468779 -292.685772 
L 107.153909 -295.672194 
L 105.83904 -296.850975 
L 104.52417 -291.066877 
L 103.2093 -274.996558 
L 101.894431 -272.666337 
L 100.579561 -282.260637 
L 99.264692 -265.404022 
L 97.949822 -266.173118 
L 96.634953 -259.11719 
L 95.320083 -256.575291 
L 94.005213 -264.020178 
L 92.690344 -255.799139 
L 91.375474 -243.102877 
L 90.060605 -245.920838 
L 88.745735 -244.864213 
L 87.430865 -239.641062 
L 86.115996 -243.7335 
L 84.801126 -240.036635 
L 83.486257 -232.42902 
L 82.171387 -212.600096 
L 80.856518 -187.555076 
L 79.541648 -165.575857 
L 78.226778 -131.456913 
L 76.911909 -121.719731 
L 75.597039 -112.98846 
L 74.28217 -106.621366 
L 72.9673 -100.288228 
L 71.652431 -100.763181 
L 70.337561 -97.729572 
L 69.022691 -88.432504 
L 67.707822 -74.800008 
L 66.392952 -64.00135 
z
" style="stroke: #d499a7; stroke-opacity: 0.2"/>
    </defs>
    <g clip-path="url(#pb743977081)">
     <use xlink:href="#m867755aae3" x="0" y="362.097812" style="fill: #d499a7; fill-opacity: 0.2; stroke: #d499a7; stroke-opacity: 0.2"/>
    </g>
   </g>
   <g id="PolyCollection_3">
    <defs>
     <path id="mdbcdc56d46" d="M 66.392952 -65.044304 
L 66.392952 -57.174738 
L 67.707822 -66.696715 
L 69.022691 -86.332924 
L 70.337561 -85.504293 
L 71.652431 -91.213863 
L 72.9673 -91.566659 
L 74.28217 -117.148812 
L 75.597039 -126.690633 
L 76.911909 -135.07043 
L 78.226778 -143.995298 
L 79.541648 -147.860624 
L 80.856518 -172.573134 
L 82.171387 -189.657302 
L 83.486257 -198.924823 
L 84.801126 -213.551323 
L 86.115996 -209.581922 
L 87.430865 -191.74718 
L 88.745735 -204.959848 
L 90.060605 -216.53113 
L 91.375474 -221.010322 
L 92.690344 -202.43162 
L 94.005213 -211.516129 
L 95.320083 -200.268537 
L 96.634953 -179.41518 
L 97.949822 -195.433021 
L 99.264692 -226.780749 
L 100.579561 -226.318145 
L 101.894431 -216.741926 
L 103.2093 -228.981317 
L 104.52417 -214.83903 
L 105.83904 -216.719876 
L 107.153909 -219.634416 
L 108.468779 -248.249295 
L 109.783648 -245.425159 
L 111.098518 -235.502759 
L 112.413387 -244.685169 
L 113.728257 -248.460973 
L 115.043127 -253.75292 
L 116.357996 -244.862449 
L 117.672866 -239.147147 
L 118.987735 -256.293054 
L 120.302605 -256.293054 
L 121.617474 -256.293054 
L 122.932344 -256.293054 
L 124.247214 -256.293054 
L 125.562083 -256.293054 
L 126.876953 -256.293054 
L 128.191822 -244.862449 
L 129.506692 -256.293054 
L 130.821561 -240.628892 
L 132.136431 -256.293054 
L 133.451301 -233.378925 
L 134.76617 -225.343985 
L 136.08104 -242.322315 
L 137.395909 -256.293054 
L 138.710779 -243.645301 
L 140.025648 -247.190906 
L 141.340518 -256.293054 
L 142.655388 -256.293054 
L 143.970257 -256.293054 
L 145.285127 -256.293054 
L 146.599996 -251.106946 
L 147.914866 -235.919059 
L 149.229736 -242.586912 
L 150.544605 -244.862449 
L 151.859475 -244.862449 
L 153.174344 -244.862449 
L 154.489214 -240.346654 
L 155.804083 -237.912359 
L 157.118953 -256.293054 
L 158.433823 -256.293054 
L 159.748692 -239.729261 
L 161.063562 -239.729261 
L 162.378431 -239.78218 
L 163.693301 -256.293054 
L 165.00817 -256.293054 
L 166.32304 -246.291275 
L 167.63791 -247.190906 
L 168.952779 -256.293054 
L 170.267649 -256.293054 
L 171.582518 -256.293054 
L 172.897388 -256.293054 
L 174.212257 -239.78218 
L 175.527127 -256.293054 
L 176.841997 -256.293054 
L 178.156866 -256.293054 
L 179.471736 -235.686213 
L 180.786605 -248.672651 
L 182.101475 -256.293054 
L 183.416344 -241.7402 
L 184.731214 -250.577751 
L 186.046084 -248.77849 
L 187.360953 -256.293054 
L 188.675823 -251.953658 
L 189.990692 -228.225891 
L 191.305562 -243.874619 
L 192.620431 -244.509653 
L 193.935301 -247.402583 
L 195.250171 -248.846403 
L 196.56504 -221.754282 
L 197.87991 -243.856979 
L 199.194779 -248.672651 
L 200.509649 -241.052247 
L 201.824519 -243.592382 
L 203.139388 -256.293054 
L 204.454258 -242.957348 
L 205.769127 -256.293054 
L 207.083997 -256.293054 
L 208.398866 -256.293054 
L 209.713736 -243.063187 
L 211.028606 -256.293054 
L 212.343475 -256.293054 
L 213.658345 -256.293054 
L 214.973214 -256.293054 
L 216.288084 -256.293054 
L 217.602953 -244.862449 
L 218.917823 -241.052247 
L 220.232693 -256.293054 
L 221.547562 -256.293054 
L 222.862432 -256.293054 
L 224.177301 -241.211006 
L 225.492171 -256.293054 
L 226.80704 -256.293054 
L 228.12191 -256.293054 
L 229.43678 -256.293054 
L 230.751649 -256.293054 
L 232.066519 -256.293054 
L 233.381388 -248.672651 
L 234.696258 -248.672651 
L 236.011127 -256.293054 
L 237.325997 -256.293054 
L 238.640867 -256.293054 
L 239.955736 -256.293054 
L 241.270606 -256.293054 
L 242.585475 -245.867919 
L 243.900345 -245.867919 
L 245.215214 -241.7402 
L 246.530084 -256.293054 
L 247.844954 -256.293054 
L 249.159823 -242.957348 
L 250.474693 -246.291275 
L 251.789562 -256.293054 
L 253.104432 -256.293054 
L 254.419302 -256.293054 
L 255.734171 -239.78218 
L 257.049041 -246.71463 
L 258.36391 -241.634362 
L 259.67878 -256.293054 
L 260.993649 -256.293054 
L 262.308519 -256.293054 
L 263.623389 -256.293054 
L 264.938258 -256.293054 
L 266.253128 -241.7402 
L 267.567997 -256.293054 
L 268.882867 -256.293054 
L 270.197736 -256.293054 
L 271.512606 -248.672651 
L 272.827476 -256.293054 
L 274.142345 -256.293054 
L 275.457215 -248.672651 
L 276.772084 -256.293054 
L 278.086954 -256.293054 
L 279.401823 -256.293054 
L 280.716693 -256.293054 
L 282.031563 -254.864228 
L 283.346432 -248.672651 
L 284.661302 -256.293054 
L 285.976171 -242.216476 
L 287.291041 -233.714081 
L 288.60591 -243.486543 
L 289.92078 -256.081376 
L 291.23565 -254.952427 
L 292.550519 -254.952427 
L 293.865389 -242.410514 
L 295.180258 -248.813769 
L 296.495128 -256.293054 
L 297.809997 -253.75292 
L 299.124867 -235.971979 
L 300.439737 -251.212785 
L 301.754606 -258.833188 
L 303.069476 -239.111867 
L 304.384345 -247.541938 
L 305.699215 -233.357757 
L 307.014085 -228.032294 
L 308.328954 -239.24593 
L 309.643824 -246.074746 
L 310.958693 -231.718576 
L 312.273563 -243.655885 
L 313.588432 -222.739907 
L 314.903302 -229.832438 
L 316.218172 -244.714274 
L 317.533041 -242.123426 
L 318.847911 -248.019977 
L 320.16278 -269.134845 
L 321.47765 -253.329564 
L 322.792519 -240.945526 
L 324.107389 -240.484245 
L 325.422259 -236.336241 
L 326.737128 -233.800957 
L 328.051998 -256.855764 
L 328.051998 -286.356603 
L 328.051998 -286.356603 
L 326.737128 -277.744401 
L 325.422259 -271.749066 
L 324.107389 -276.755248 
L 322.792519 -275.383752 
L 321.47765 -278.452199 
L 320.16278 -284.940126 
L 318.847911 -279.93218 
L 317.533041 -273.034568 
L 316.218172 -269.699319 
L 314.903302 -263.15715 
L 313.588432 -259.432942 
L 312.273563 -264.42854 
L 310.958693 -260.050336 
L 309.643824 -263.103348 
L 308.328954 -261.796679 
L 307.014085 -263.032348 
L 305.699215 -267.159185 
L 304.384345 -269.699319 
L 303.069476 -268.993726 
L 301.754606 -270.263793 
L 300.439737 -265.183524 
L 299.124867 -262.64339 
L 297.809997 -261.373323 
L 296.495128 -262.64339 
L 295.180258 -261.408602 
L 293.865389 -260.032696 
L 292.550519 -256.293054 
L 291.23565 -256.293054 
L 289.92078 -256.293054 
L 288.60591 -256.293054 
L 287.291041 -256.293054 
L 285.976171 -256.293054 
L 284.661302 -256.293054 
L 283.346432 -256.293054 
L 282.031563 -256.293054 
L 280.716693 -256.293054 
L 279.401823 -256.293054 
L 278.086954 -256.293054 
L 276.772084 -256.293054 
L 275.457215 -256.293054 
L 274.142345 -256.293054 
L 272.827476 -256.293054 
L 271.512606 -256.293054 
L 270.197736 -256.293054 
L 268.882867 -256.293054 
L 267.567997 -256.293054 
L 266.253128 -256.293054 
L 264.938258 -256.293054 
L 263.623389 -256.293054 
L 262.308519 -256.293054 
L 260.993649 -256.293054 
L 259.67878 -256.293054 
L 258.36391 -256.293054 
L 257.049041 -256.293054 
L 255.734171 -256.293054 
L 254.419302 -256.293054 
L 253.104432 -256.293054 
L 251.789562 -256.293054 
L 250.474693 -256.293054 
L 249.159823 -256.293054 
L 247.844954 -256.293054 
L 246.530084 -256.293054 
L 245.215214 -256.293054 
L 243.900345 -256.293054 
L 242.585475 -256.293054 
L 241.270606 -256.293054 
L 239.955736 -256.293054 
L 238.640867 -256.293054 
L 237.325997 -256.293054 
L 236.011127 -256.293054 
L 234.696258 -256.293054 
L 233.381388 -256.293054 
L 232.066519 -256.293054 
L 230.751649 -256.293054 
L 229.43678 -256.293054 
L 228.12191 -256.293054 
L 226.80704 -256.293054 
L 225.492171 -256.293054 
L 224.177301 -256.293054 
L 222.862432 -256.293054 
L 221.547562 -256.293054 
L 220.232693 -256.293054 
L 218.917823 -256.293054 
L 217.602953 -256.293054 
L 216.288084 -256.293054 
L 214.973214 -256.293054 
L 213.658345 -256.293054 
L 212.343475 -256.293054 
L 211.028606 -256.293054 
L 209.713736 -256.293054 
L 208.398866 -256.293054 
L 207.083997 -256.293054 
L 205.769127 -256.293054 
L 204.454258 -256.293054 
L 203.139388 -256.293054 
L 201.824519 -256.293054 
L 200.509649 -256.293054 
L 199.194779 -256.293054 
L 197.87991 -256.293054 
L 196.56504 -253.400123 
L 195.250171 -256.293054 
L 193.935301 -256.575291 
L 192.620431 -254.846588 
L 191.305562 -256.293054 
L 189.990692 -255.781499 
L 188.675823 -256.293054 
L 187.360953 -256.293054 
L 186.046084 -256.293054 
L 184.731214 -256.293054 
L 183.416344 -256.293054 
L 182.101475 -256.293054 
L 180.786605 -256.293054 
L 179.471736 -256.293054 
L 178.156866 -256.293054 
L 176.841997 -256.293054 
L 175.527127 -256.293054 
L 174.212257 -256.293054 
L 172.897388 -256.293054 
L 171.582518 -256.293054 
L 170.267649 -256.293054 
L 168.952779 -256.293054 
L 167.63791 -256.293054 
L 166.32304 -256.293054 
L 165.00817 -258.409833 
L 163.693301 -258.409833 
L 162.378431 -256.293054 
L 161.063562 -256.293054 
L 159.748692 -256.293054 
L 158.433823 -256.293054 
L 157.118953 -256.293054 
L 155.804083 -256.293054 
L 154.489214 -256.293054 
L 153.174344 -256.293054 
L 151.859475 -256.293054 
L 150.544605 -256.293054 
L 149.229736 -256.293054 
L 147.914866 -256.293054 
L 146.599996 -256.928088 
L 145.285127 -256.928088 
L 143.970257 -257.563121 
L 142.655388 -257.563121 
L 141.340518 -256.928088 
L 140.025648 -257.139765 
L 138.710779 -257.139765 
L 137.395909 -257.351443 
L 136.08104 -256.928088 
L 134.76617 -255.940257 
L 133.451301 -256.71641 
L 132.136431 -257.351443 
L 130.821561 -257.139765 
L 129.506692 -257.351443 
L 128.191822 -256.293054 
L 126.876953 -256.293054 
L 125.562083 -256.293054 
L 124.247214 -256.928088 
L 122.932344 -256.928088 
L 121.617474 -256.928088 
L 120.302605 -256.293054 
L 118.987735 -256.293054 
L 117.672866 -256.293054 
L 116.357996 -256.293054 
L 115.043127 -256.293054 
L 113.728257 -256.293054 
L 112.413387 -255.446342 
L 111.098518 -254.599631 
L 109.783648 -255.446342 
L 108.468779 -256.017873 
L 107.153909 -251.124586 
L 105.83904 -247.227949 
L 104.52417 -245.674322 
L 103.2093 -250.648311 
L 101.894431 -245.70916 
L 100.579561 -247.47623 
L 99.264692 -246.629518 
L 97.949822 -234.791433 
L 96.634953 -222.888522 
L 95.320083 -233.786405 
L 94.005213 -238.817282 
L 92.690344 -238.074645 
L 91.375474 -245.304768 
L 90.060605 -244.1939 
L 88.745735 -234.687358 
L 87.430865 -229.361896 
L 86.115996 -234.261357 
L 84.801126 -239.02455 
L 83.486257 -224.12331 
L 82.171387 -221.119689 
L 80.856518 -206.485251 
L 79.541648 -185.382291 
L 78.226778 -180.978068 
L 76.911909 -172.891974 
L 75.597039 -165.579385 
L 74.28217 -154.620204 
L 72.9673 -121.651376 
L 71.652431 -116.692381 
L 70.337561 -102.544803 
L 69.022691 -108.952909 
L 67.707822 -83.1066 
L 66.392952 -65.044304 
z
" style="stroke: #a9678f; stroke-opacity: 0.2"/>
    </defs>
    <g clip-path="url(#pb743977081)">
     <use xlink:href="#mdbcdc56d46" x="0" y="362.097812" style="fill: #a9678f; fill-opacity: 0.2; stroke: #a9678f; stroke-opacity: 0.2"/>
    </g>
   </g>
   <g id="PolyCollection_4">
    <defs>
     <path id="m4a7c8804fe" d="M 66.392952 -62.838444 
L 66.392952 -56.451506 
L 67.707822 -60.367105 
L 69.022691 -66.786678 
L 70.337561 -79.030037 
L 71.652431 -79.011957 
L 72.9673 -82.046447 
L 74.28217 -83.652112 
L 75.597039 -83.259185 
L 76.911909 -87.74411 
L 78.226778 -96.138901 
L 79.541648 -92.382942 
L 80.856518 -90.49504 
L 82.171387 -95.59339 
L 83.486257 -97.903324 
L 84.801126 -97.886126 
L 86.115996 -99.139435 
L 87.430865 -106.760279 
L 88.745735 -97.51613 
L 90.060605 -98.115884 
L 91.375474 -101.873607 
L 92.690344 -108.681697 
L 94.005213 -108.929536 
L 95.320083 -105.43597 
L 96.634953 -109.968522 
L 97.949822 -108.611579 
L 99.264692 -109.737881 
L 100.579561 -115.613265 
L 101.894431 -120.906535 
L 103.2093 -113.478406 
L 104.52417 -116.829531 
L 105.83904 -127.51353 
L 107.153909 -126.672111 
L 108.468779 -120.462893 
L 109.783648 -118.5966 
L 111.098518 -128.632777 
L 112.413387 -130.448356 
L 113.728257 -123.973218 
L 115.043127 -129.90108 
L 116.357996 -132.337581 
L 117.672866 -131.806622 
L 118.987735 -127.909985 
L 120.302605 -139.692064 
L 121.617474 -144.348095 
L 122.932344 -140.938317 
L 124.247214 -159.059266 
L 125.562083 -153.450684 
L 126.876953 -147.119752 
L 128.191822 -143.656173 
L 129.506692 -153.927841 
L 130.821561 -162.096402 
L 132.136431 -163.257543 
L 133.451301 -144.26166 
L 134.76617 -148.84625 
L 136.08104 -146.568508 
L 137.395909 -159.772356 
L 138.710779 -157.821832 
L 140.025648 -145.814846 
L 141.340518 -146.218357 
L 142.655388 -138.785818 
L 143.970257 -139.057912 
L 145.285127 -144.116572 
L 146.599996 -142.227788 
L 147.914866 -151.84546 
L 149.229736 -140.592577 
L 150.544605 -145.391049 
L 151.859475 -152.181499 
L 153.174344 -148.845368 
L 154.489214 -158.172424 
L 155.804083 -153.575486 
L 157.118953 -156.662014 
L 158.433823 -155.547618 
L 159.748692 -155.974502 
L 161.063562 -158.797314 
L 162.378431 -142.77771 
L 163.693301 -145.372528 
L 165.00817 -146.482513 
L 166.32304 -142.15767 
L 167.63791 -146.130599 
L 168.952779 -151.635105 
L 170.267649 -141.631562 
L 171.582518 -140.785292 
L 172.897388 -161.195007 
L 174.212257 -157.420526 
L 175.527127 -166.378469 
L 176.841997 -179.435466 
L 178.156866 -175.008311 
L 179.471736 -181.005851 
L 180.786605 -172.202256 
L 182.101475 -176.102421 
L 183.416344 -191.02086 
L 184.731214 -198.221436 
L 186.046084 -208.912491 
L 187.360953 -177.724844 
L 188.675823 -183.607725 
L 189.990692 -178.229343 
L 191.305562 -177.228283 
L 192.620431 -182.740727 
L 193.935301 -182.858473 
L 195.250171 -192.958595 
L 196.56504 -204.975724 
L 197.87991 -202.803379 
L 199.194779 -203.315816 
L 200.509649 -195.379219 
L 201.824519 -184.001975 
L 203.139388 -192.895532 
L 204.454258 -195.204144 
L 205.769127 -200.389811 
L 207.083997 -194.164717 
L 208.398866 -177.576228 
L 209.713736 -187.902139 
L 211.028606 -191.517421 
L 212.343475 -212.967886 
L 213.658345 -215.243423 
L 214.973214 -190.196639 
L 216.288084 -194.461948 
L 217.602953 -176.576491 
L 218.917823 -183.686663 
L 220.232693 -175.429462 
L 221.547562 -200.210766 
L 222.862432 -189.752998 
L 224.177301 -192.101299 
L 225.492171 -184.463256 
L 226.80704 -197.779558 
L 228.12191 -212.263175 
L 229.43678 -187.812176 
L 230.751649 -205.190047 
L 232.066519 -198.445902 
L 233.381388 -198.430467 
L 234.696258 -194.500756 
L 236.011127 -200.350121 
L 237.325997 -215.82686 
L 238.640867 -206.837607 
L 239.955736 -201.623275 
L 241.270606 -186.402314 
L 242.585475 -191.39306 
L 243.900345 -197.633147 
L 245.215214 -211.961975 
L 246.530084 -191.95974 
L 247.844954 -180.611601 
L 249.159823 -190.807418 
L 250.474693 -192.222132 
L 251.789562 -201.783798 
L 253.104432 -200.972366 
L 254.419302 -195.1671 
L 255.734171 -190.90135 
L 257.049041 -185.044488 
L 258.36391 -196.719405 
L 259.67878 -199.372434 
L 260.993649 -206.52891 
L 262.308519 -195.505785 
L 263.623389 -183.628892 
L 264.938258 -181.693804 
L 266.253128 -187.228298 
L 267.567997 -207.499541 
L 268.882867 -200.283531 
L 270.197736 -192.520245 
L 271.512606 -181.191951 
L 272.827476 -190.441833 
L 274.142345 -201.073795 
L 275.457215 -208.222774 
L 276.772084 -201.149646 
L 278.086954 -199.435937 
L 279.401823 -199.226464 
L 280.716693 -212.490729 
L 282.031563 -204.480045 
L 283.346432 -214.591191 
L 284.661302 -223.905458 
L 285.976171 -204.076093 
L 287.291041 -213.461801 
L 288.60591 -222.93615 
L 289.92078 -218.07682 
L 291.23565 -212.827208 
L 292.550519 -209.615879 
L 293.865389 -215.944606 
L 295.180258 -226.689904 
L 296.495128 -222.24511 
L 297.809997 -235.459983 
L 299.124867 -226.901582 
L 300.439737 -221.821313 
L 301.754606 -225.668999 
L 303.069476 -208.87677 
L 304.384345 -198.486915 
L 305.699215 -204.568685 
L 307.014085 -209.104324 
L 308.328954 -195.398623 
L 309.643824 -207.668442 
L 310.958693 -199.621596 
L 312.273563 -197.093369 
L 313.588432 -202.948026 
L 314.903302 -197.525545 
L 316.218172 -194.482675 
L 317.533041 -206.389996 
L 318.847911 -204.290857 
L 320.16278 -202.473515 
L 321.47765 -207.828524 
L 322.792519 -194.831062 
L 324.107389 -217.801197 
L 325.422259 -205.71836 
L 326.737128 -199.479155 
L 328.051998 -199.596019 
L 328.051998 -230.998431 
L 328.051998 -230.998431 
L 326.737128 -227.646864 
L 325.422259 -232.708611 
L 324.107389 -240.15438 
L 322.792519 -228.44683 
L 321.47765 -235.583902 
L 320.16278 -233.678802 
L 318.847911 -235.431759 
L 317.533041 -233.311011 
L 316.218172 -225.777043 
L 314.903302 -227.699343 
L 313.588432 -231.704464 
L 312.273563 -228.07022 
L 310.958693 -229.641046 
L 309.643824 -233.029215 
L 308.328954 -227.630106 
L 307.014085 -230.627112 
L 305.699215 -233.150048 
L 304.384345 -229.854929 
L 303.069476 -237.13753 
L 301.754606 -241.387845 
L 300.439737 -244.036905 
L 299.124867 -244.79189 
L 297.809997 -247.473143 
L 296.495128 -245.622725 
L 295.180258 -246.488841 
L 293.865389 -243.681463 
L 292.550519 -235.425144 
L 291.23565 -238.972512 
L 289.92078 -241.211447 
L 288.60591 -244.75661 
L 287.291041 -240.91598 
L 285.976171 -235.026043 
L 284.661302 -241.706244 
L 283.346432 -237.843123 
L 282.031563 -232.182063 
L 280.716693 -237.543687 
L 279.401823 -230.309596 
L 278.086954 -228.704813 
L 276.772084 -233.411117 
L 275.457215 -233.590602 
L 274.142345 -232.376542 
L 272.827476 -223.819464 
L 271.512606 -213.613504 
L 270.197736 -223.254108 
L 268.882867 -224.948853 
L 267.567997 -228.426985 
L 266.253128 -221.349007 
L 264.938258 -216.294757 
L 263.623389 -221.685486 
L 262.308519 -229.307654 
L 260.993649 -235.971979 
L 259.67878 -233.049942 
L 258.36391 -225.728975 
L 257.049041 -221.528051 
L 255.734171 -222.461639 
L 254.419302 -227.134427 
L 253.104432 -226.099411 
L 251.789562 -226.73224 
L 250.474693 -223.14871 
L 249.159823 -222.707714 
L 247.844954 -213.252769 
L 246.530084 -222.481483 
L 245.215214 -233.522689 
L 243.900345 -226.254641 
L 242.585475 -225.546843 
L 241.270606 -219.023196 
L 239.955736 -230.910672 
L 238.640867 -232.867811 
L 237.325997 -238.5862 
L 236.011127 -232.321417 
L 234.696258 -226.7146 
L 233.381388 -227.546317 
L 232.066519 -229.733655 
L 230.751649 -231.568638 
L 229.43678 -220.205064 
L 228.12191 -234.668837 
L 226.80704 -225.744409 
L 225.492171 -217.002113 
L 224.177301 -226.147038 
L 222.862432 -220.878023 
L 221.547562 -225.249171 
L 220.232693 -209.037734 
L 218.917823 -212.410027 
L 217.602953 -210.928282 
L 216.288084 -225.954323 
L 214.973214 -224.458025 
L 213.658345 -236.326539 
L 212.343475 -234.28032 
L 211.028606 -225.007506 
L 209.713736 -219.253837 
L 208.398866 -214.863285 
L 207.083997 -227.281279 
L 205.769127 -230.293279 
L 204.454258 -227.823704 
L 203.139388 -226.926719 
L 201.824519 -219.465074 
L 200.509649 -224.596057 
L 199.194779 -228.6638 
L 197.87991 -227.788424 
L 196.56504 -230.56405 
L 195.250171 -225.795124 
L 193.935301 -215.247392 
L 192.620431 -214.596042 
L 191.305562 -210.130962 
L 189.990692 -208.228507 
L 188.675823 -210.923872 
L 187.360953 -211.04735 
L 186.046084 -225.002655 
L 184.731214 -221.614486 
L 183.416344 -220.626215 
L 182.101475 -208.369625 
L 180.786605 -203.820315 
L 179.471736 -209.090653 
L 178.156866 -205.486396 
L 176.841997 -207.39723 
L 175.527127 -199.146203 
L 174.212257 -190.975437 
L 172.897388 -190.100502 
L 171.582518 -173.072341 
L 170.267649 -172.805538 
L 168.952779 -178.044566 
L 167.63791 -172.717339 
L 166.32304 -169.981844 
L 165.00817 -175.574109 
L 163.693301 -174.215401 
L 162.378431 -170.881034 
L 161.063562 -181.236492 
L 159.748692 -182.193452 
L 158.433823 -182.460254 
L 157.118953 -185.440061 
L 155.804083 -184.131186 
L 154.489214 -186.677054 
L 153.174344 -179.127651 
L 151.859475 -181.301318 
L 150.544605 -173.529653 
L 149.229736 -164.816463 
L 147.914866 -172.557258 
L 146.599996 -168.111582 
L 145.285127 -168.204191 
L 143.970257 -162.926797 
L 142.655388 -163.279593 
L 141.340518 -168.397347 
L 140.025648 -171.802273 
L 138.710779 -178.009727 
L 137.395909 -183.740905 
L 136.08104 -180.498265 
L 134.76617 -180.3545 
L 133.451301 -174.944367 
L 132.136431 -186.849483 
L 130.821561 -187.081006 
L 129.506692 -178.39648 
L 128.191822 -173.374423 
L 126.876953 -173.882891 
L 125.562083 -177.956808 
L 124.247214 -176.740101 
L 122.932344 -167.777307 
L 121.617474 -167.10964 
L 120.302605 -160.261861 
L 118.987735 -153.929605 
L 117.672866 -155.040914 
L 116.357996 -154.652838 
L 115.043127 -153.137577 
L 113.728257 -149.118344 
L 112.413387 -150.543641 
L 111.098518 -149.379854 
L 109.783648 -140.08455 
L 108.468779 -141.98921 
L 107.153909 -145.040899 
L 105.83904 -146.450321 
L 104.52417 -139.614449 
L 103.2093 -134.898442 
L 101.894431 -142.588082 
L 100.579561 -133.840053 
L 99.264692 -125.196099 
L 97.949822 -124.948259 
L 96.634953 -124.542102 
L 95.320083 -120.414825 
L 94.005213 -122.760921 
L 92.690344 -120.977976 
L 91.375474 -115.741595 
L 90.060605 -110.218125 
L 88.745735 -113.199696 
L 87.430865 -117.73269 
L 86.115996 -116.973736 
L 84.801126 -113.022857 
L 83.486257 -114.964561 
L 82.171387 -111.100117 
L 80.856518 -104.679221 
L 79.541648 -108.244229 
L 78.226778 -113.711251 
L 76.911909 -101.380574 
L 75.597039 -97.288136 
L 74.28217 -96.759823 
L 72.9673 -95.771552 
L 71.652431 -95.122406 
L 70.337561 -92.297389 
L 69.022691 -80.830622 
L 67.707822 -68.517144 
L 66.392952 -62.838444 
z
" style="stroke: #6c3f70; stroke-opacity: 0.2"/>
    </defs>
    <g clip-path="url(#pb743977081)">
     <use xlink:href="#m4a7c8804fe" x="0" y="362.097812" style="fill: #6c3f70; fill-opacity: 0.2; stroke: #6c3f70; stroke-opacity: 0.2"/>
    </g>
   </g>
   <g id="PolyCollection_5">
    <defs>
     <path id="m7e00817a1a" d="M 66.392952 -62.044211 
L 66.392952 -56.786662 
L 67.707822 -63.489354 
L 69.022691 -73.014858 
L 70.337561 -79.100156 
L 71.652431 -92.186258 
L 72.9673 -96.509337 
L 74.28217 -122.670517 
L 75.597039 -151.09224 
L 76.911909 -174.000195 
L 78.226778 -185.601025 
L 79.541648 -169.865862 
L 80.856518 -209.702314 
L 82.171387 -228.896646 
L 83.486257 -205.31088 
L 84.801126 -204.58897 
L 86.115996 -224.832872 
L 87.430865 -233.942958 
L 88.745735 -220.413655 
L 90.060605 -227.567926 
L 91.375474 -227.063427 
L 92.690344 -221.304025 
L 94.005213 -235.424703 
L 95.320083 -215.141553 
L 96.634953 -214.430668 
L 97.949822 -240.846743 
L 99.264692 -239.251662 
L 100.579561 -231.403264 
L 101.894431 -250.613031 
L 103.2093 -216.548329 
L 104.52417 -245.971994 
L 105.83904 -247.806535 
L 107.153909 -232.302454 
L 108.468779 -231.398855 
L 109.783648 -215.127 
L 111.098518 -232.847966 
L 112.413387 -225.968435 
L 113.728257 -243.696457 
L 115.043127 -239.21065 
L 116.357996 -242.057276 
L 117.672866 -230.885536 
L 118.987735 -240.108076 
L 120.302605 -213.056967 
L 121.617474 -240.717091 
L 122.932344 -236.03019 
L 124.247214 -232.314802 
L 125.562083 -257.3854 
L 126.876953 -232.696263 
L 128.191822 -255.798257 
L 129.506692 -234.172276 
L 130.821561 -233.555323 
L 132.136431 -256.750366 
L 133.451301 -241.225559 
L 134.76617 -230.939778 
L 136.08104 -216.478211 
L 137.395909 -262.008356 
L 138.710779 -249.112323 
L 140.025648 -233.534596 
L 141.340518 -238.898425 
L 142.655388 -243.257225 
L 143.970257 -253.424378 
L 145.285127 -252.931786 
L 146.599996 -225.405284 
L 147.914866 -246.485313 
L 149.229736 -255.940257 
L 150.544605 -265.906757 
L 151.859475 -256.151935 
L 153.174344 -274.356232 
L 154.489214 -274.356232 
L 155.804083 -274.356232 
L 157.118953 -274.356232 
L 158.433823 -274.356232 
L 159.748692 -274.356232 
L 161.063562 -274.356232 
L 162.378431 -274.356232 
L 163.693301 -260.385493 
L 165.00817 -274.356232 
L 166.32304 -274.356232 
L 167.63791 -274.356232 
L 168.952779 -274.356232 
L 170.267649 -274.356232 
L 171.582518 -274.356232 
L 172.897388 -274.356232 
L 174.212257 -274.356232 
L 175.527127 -274.356232 
L 176.841997 -274.356232 
L 178.156866 -274.356232 
L 179.471736 -274.356232 
L 180.786605 -274.356232 
L 182.101475 -274.356232 
L 183.416344 -274.356232 
L 184.731214 -256.786969 
L 186.046084 -274.356232 
L 187.360953 -274.356232 
L 188.675823 -274.356232 
L 189.990692 -274.356232 
L 191.305562 -274.356232 
L 192.620431 -254.776029 
L 193.935301 -274.356232 
L 195.250171 -274.356232 
L 196.56504 -254.776029 
L 197.87991 -274.356232 
L 199.194779 -274.356232 
L 200.509649 -274.356232 
L 201.824519 -274.356232 
L 203.139388 -274.356232 
L 204.454258 -274.356232 
L 205.769127 -274.356232 
L 207.083997 -274.356232 
L 208.398866 -252.623971 
L 209.713736 -270.069755 
L 211.028606 -274.356232 
L 212.343475 -274.356232 
L 213.658345 -255.516902 
L 214.973214 -253.823479 
L 216.288084 -274.356232 
L 217.602953 -274.356232 
L 218.917823 -274.356232 
L 220.232693 -260.967607 
L 221.547562 -244.650771 
L 222.862432 -253.611801 
L 224.177301 -266.894587 
L 225.492171 -274.356232 
L 226.80704 -258.321634 
L 228.12191 -274.356232 
L 229.43678 -274.356232 
L 230.751649 -274.144554 
L 232.066519 -274.356232 
L 233.381388 -274.356232 
L 234.696258 -274.356232 
L 236.011127 -274.356232 
L 237.325997 -256.398893 
L 238.640867 -255.587461 
L 239.955736 -253.188445 
L 241.270606 -273.791758 
L 242.585475 -274.003436 
L 243.900345 -273.862317 
L 245.215214 -274.144554 
L 246.530084 -273.862317 
L 247.844954 -258.886108 
L 249.159823 -256.25601 
L 250.474693 -252.059497 
L 251.789562 -255.305224 
L 253.104432 -274.003436 
L 254.419302 -271.60442 
L 255.734171 -241.616722 
L 257.049041 -253.68236 
L 258.36391 -254.776029 
L 259.67878 -274.356232 
L 260.993649 -274.356232 
L 262.308519 -274.356232 
L 263.623389 -253.611801 
L 264.938258 -274.356232 
L 266.253128 -274.356232 
L 267.567997 -274.356232 
L 268.882867 -241.898959 
L 270.197736 -274.356232 
L 271.512606 -274.356232 
L 272.827476 -274.356232 
L 274.142345 -274.356232 
L 275.457215 -274.356232 
L 276.772084 -274.356232 
L 278.086954 -274.356232 
L 279.401823 -274.356232 
L 280.716693 -274.356232 
L 282.031563 -274.356232 
L 283.346432 -253.823479 
L 284.661302 -274.356232 
L 285.976171 -264.936567 
L 287.291041 -256.416533 
L 288.60591 -256.416533 
L 289.92078 -274.356232 
L 291.23565 -274.356232 
L 292.550519 -274.356232 
L 293.865389 -274.356232 
L 295.180258 -274.356232 
L 296.495128 -274.356232 
L 297.809997 -274.356232 
L 299.124867 -274.356232 
L 300.439737 -274.356232 
L 301.754606 -274.356232 
L 303.069476 -256.68113 
L 304.384345 -274.356232 
L 305.699215 -274.356232 
L 307.014085 -274.356232 
L 308.328954 -274.356232 
L 309.643824 -274.356232 
L 310.958693 -254.776029 
L 312.273563 -274.356232 
L 313.588432 -274.356232 
L 314.903302 -274.356232 
L 316.218172 -274.356232 
L 317.533041 -274.356232 
L 318.847911 -274.356232 
L 320.16278 -274.356232 
L 321.47765 -274.356232 
L 322.792519 -274.356232 
L 324.107389 -274.356232 
L 325.422259 -274.356232 
L 326.737128 -274.356232 
L 328.051998 -274.356232 
L 328.051998 -274.356232 
L 328.051998 -274.356232 
L 326.737128 -274.356232 
L 325.422259 -274.356232 
L 324.107389 -274.356232 
L 322.792519 -274.356232 
L 321.47765 -274.356232 
L 320.16278 -274.356232 
L 318.847911 -274.356232 
L 317.533041 -274.356232 
L 316.218172 -274.356232 
L 314.903302 -274.356232 
L 313.588432 -274.356232 
L 312.273563 -274.356232 
L 310.958693 -274.356232 
L 309.643824 -274.356232 
L 308.328954 -274.356232 
L 307.014085 -274.356232 
L 305.699215 -274.356232 
L 304.384345 -274.356232 
L 303.069476 -274.356232 
L 301.754606 -274.356232 
L 300.439737 -274.356232 
L 299.124867 -274.356232 
L 297.809997 -274.356232 
L 296.495128 -274.356232 
L 295.180258 -274.356232 
L 293.865389 -274.356232 
L 292.550519 -274.356232 
L 291.23565 -274.356232 
L 289.92078 -274.356232 
L 288.60591 -274.356232 
L 287.291041 -274.356232 
L 285.976171 -274.356232 
L 284.661302 -274.356232 
L 283.346432 -274.356232 
L 282.031563 -274.356232 
L 280.716693 -274.356232 
L 279.401823 -274.356232 
L 278.086954 -274.356232 
L 276.772084 -274.356232 
L 275.457215 -274.356232 
L 274.142345 -274.356232 
L 272.827476 -274.356232 
L 271.512606 -274.356232 
L 270.197736 -274.356232 
L 268.882867 -274.356232 
L 267.567997 -274.356232 
L 266.253128 -274.356232 
L 264.938258 -274.356232 
L 263.623389 -274.356232 
L 262.308519 -274.356232 
L 260.993649 -274.356232 
L 259.67878 -274.356232 
L 258.36391 -274.356232 
L 257.049041 -274.356232 
L 255.734171 -274.356232 
L 254.419302 -274.356232 
L 253.104432 -274.356232 
L 251.789562 -274.356232 
L 250.474693 -274.356232 
L 249.159823 -274.285673 
L 247.844954 -274.285673 
L 246.530084 -274.356232 
L 245.215214 -274.356232 
L 243.900345 -274.356232 
L 242.585475 -274.356232 
L 241.270606 -274.285673 
L 239.955736 -274.215114 
L 238.640867 -274.144554 
L 237.325997 -274.285673 
L 236.011127 -274.356232 
L 234.696258 -274.356232 
L 233.381388 -274.356232 
L 232.066519 -274.356232 
L 230.751649 -274.356232 
L 229.43678 -274.356232 
L 228.12191 -274.356232 
L 226.80704 -274.356232 
L 225.492171 -274.356232 
L 224.177301 -274.356232 
L 222.862432 -274.356232 
L 221.547562 -274.356232 
L 220.232693 -274.356232 
L 218.917823 -274.356232 
L 217.602953 -274.356232 
L 216.288084 -274.356232 
L 214.973214 -274.356232 
L 213.658345 -274.356232 
L 212.343475 -274.356232 
L 211.028606 -274.356232 
L 209.713736 -274.356232 
L 208.398866 -274.356232 
L 207.083997 -274.356232 
L 205.769127 -274.356232 
L 204.454258 -274.356232 
L 203.139388 -274.356232 
L 201.824519 -274.356232 
L 200.509649 -274.356232 
L 199.194779 -274.356232 
L 197.87991 -274.356232 
L 196.56504 -274.356232 
L 195.250171 -274.356232 
L 193.935301 -274.356232 
L 192.620431 -274.356232 
L 191.305562 -274.356232 
L 189.990692 -274.356232 
L 188.675823 -274.356232 
L 187.360953 -274.356232 
L 186.046084 -274.356232 
L 184.731214 -274.356232 
L 183.416344 -274.356232 
L 182.101475 -274.356232 
L 180.786605 -274.356232 
L 179.471736 -274.356232 
L 178.156866 -274.356232 
L 176.841997 -274.356232 
L 175.527127 -274.356232 
L 174.212257 -274.356232 
L 172.897388 -274.356232 
L 171.582518 -274.356232 
L 170.267649 -274.356232 
L 168.952779 -274.356232 
L 167.63791 -274.356232 
L 166.32304 -274.356232 
L 165.00817 -274.356232 
L 163.693301 -274.356232 
L 162.378431 -274.356232 
L 161.063562 -274.356232 
L 159.748692 -274.356232 
L 158.433823 -274.356232 
L 157.118953 -274.356232 
L 155.804083 -274.356232 
L 154.489214 -274.356232 
L 153.174344 -274.356232 
L 151.859475 -274.356232 
L 150.544605 -274.356232 
L 149.229736 -274.356232 
L 147.914866 -274.356232 
L 146.599996 -267.300303 
L 145.285127 -271.939576 
L 143.970257 -272.874487 
L 142.655388 -270.457831 
L 141.340518 -269.965239 
L 140.025648 -265.079008 
L 138.710779 -266.312473 
L 137.395909 -266.947507 
L 136.08104 -258.976071 
L 134.76617 -262.713949 
L 133.451301 -261.63792 
L 132.136431 -262.220034 
L 130.821561 -261.340248 
L 129.506692 -262.220034 
L 128.191822 -262.662353 
L 126.876953 -261.554131 
L 125.562083 -263.490101 
L 124.247214 -262.114195 
L 122.932344 -261.179285 
L 121.617474 -261.179285 
L 120.302605 -254.65255 
L 118.987735 -261.514441 
L 117.672866 -262.114195 
L 116.357996 -261.567361 
L 115.043127 -261.726119 
L 113.728257 -261.357006 
L 112.413387 -257.586053 
L 111.098518 -260.121336 
L 109.783648 -254.285642 
L 108.468779 -257.422003 
L 107.153909 -257.862998 
L 105.83904 -256.786969 
L 104.52417 -254.600954 
L 103.2093 -250.669479 
L 101.894431 -255.022987 
L 100.579561 -255.076347 
L 99.264692 -257.510643 
L 97.949822 -257.159169 
L 96.634953 -252.466535 
L 95.320083 -251.036828 
L 94.005213 -254.93567 
L 92.690344 -255.217907 
L 91.375474 -252.098304 
L 90.060605 -255.518225 
L 88.745735 -250.82515 
L 87.430865 -253.558881 
L 86.115996 -250.669038 
L 84.801126 -241.196012 
L 83.486257 -238.759952 
L 82.171387 -247.068309 
L 80.856518 -247.072278 
L 79.541648 -225.12437 
L 78.226778 -229.258703 
L 76.911909 -221.857475 
L 75.597039 -200.027753 
L 74.28217 -179.961573 
L 72.9673 -135.056759 
L 71.652431 -121.280058 
L 70.337561 -104.434028 
L 69.022691 -86.229731 
L 67.707822 -73.209778 
L 66.392952 -62.044211 
z
" style="stroke: #2d1e3e; stroke-opacity: 0.2"/>
    </defs>
    <g clip-path="url(#pb743977081)">
     <use xlink:href="#m7e00817a1a" x="0" y="362.097812" style="fill: #2d1e3e; fill-opacity: 0.2; stroke: #2d1e3e; stroke-opacity: 0.2"/>
    </g>
   </g>
   <g id="line2d_12">
    <path d="M 66.392952 296.261921 
L 67.707822 281.44447 
L 69.022691 269.678709 
L 70.337561 263.116695 
L 71.652431 259.835688 
L 72.9673 262.040666 
L 74.28217 261.65259 
L 75.597039 256.6958 
L 76.911909 253.291314 
L 78.226778 250.539502 
L 79.541648 246.976257 
L 80.856518 238.368024 
L 82.171387 235.580932 
L 83.486257 213.813391 
L 84.801126 218.717262 
L 87.430865 206.845661 
L 88.745735 181.426677 
L 90.060605 164.139651 
L 91.375474 178.392628 
L 92.690344 160.25889 
L 94.005213 153.414639 
L 95.320083 149.251641 
L 96.634953 130.44759 
L 97.949822 116.071135 
L 99.264692 106.228114 
L 100.579561 109.173965 
L 101.894431 123.232903 
L 103.2093 100.900888 
L 104.52417 100.495172 
L 105.83904 112.948887 
L 107.153909 130.51815 
L 108.468779 124.061975 
L 109.783648 110.814468 
L 111.098518 121.451281 
L 112.413387 116.653249 
L 113.728257 107.057186 
L 115.043127 93.439243 
L 116.357996 104.393573 
L 117.672866 117.447041 
L 118.987735 126.302232 
L 120.302605 129.336282 
L 121.617474 116.56505 
L 122.932344 115.877097 
L 124.247214 108.909367 
L 125.562083 103.052946 
L 126.876953 97.849199 
L 128.191822 112.419692 
L 129.506692 95.009187 
L 130.821561 98.960507 
L 132.136431 91.075507 
L 133.451301 76.487374 
L 134.76617 83.349265 
L 136.08104 95.185585 
L 137.395909 97.284724 
L 138.710779 111.079065 
L 140.025648 118.117355 
L 141.340518 120.922086 
L 142.655388 91.569422 
L 143.970257 107.021906 
L 145.285127 90.899109 
L 146.599996 81.602922 
L 147.914866 86.930149 
L 149.229736 88.852889 
L 150.544605 87.494623 
L 151.859475 97.302364 
L 153.174344 97.849199 
L 154.489214 95.608941 
L 155.804083 115.683059 
L 157.118953 102.823629 
L 158.433823 101.765239 
L 159.748692 93.598001 
L 161.063562 91.234265 
L 162.378431 89.487923 
L 163.693301 105.928237 
L 165.00817 89.558482 
L 166.32304 92.010417 
L 167.63791 76.946009 
L 168.952779 80.738571 
L 170.267649 76.028738 
L 171.582518 72.712452 
L 172.897388 75.199667 
L 174.212257 99.807219 
L 175.527127 111.237824 
L 176.841997 96.120496 
L 178.156866 87.035988 
L 179.471736 65.021489 
L 180.786605 72.430215 
L 182.101475 70.966109 
L 183.416344 77.86328 
L 184.731214 74.176557 
L 186.046084 86.118717 
L 187.360953 73.276926 
L 188.675823 71.9363 
L 189.990692 90.493393 
L 191.305562 88.676491 
L 192.620431 79.768381 
L 193.935301 70.066478 
L 195.250171 71.054308 
L 196.56504 67.808581 
L 197.87991 60.435135 
L 199.194779 61.705203 
L 200.509649 68.196657 
L 201.824519 60.646813 
L 203.139388 60.646813 
L 204.454258 67.491064 
L 205.769127 60.646813 
L 207.083997 62.693033 
L 208.398866 65.021489 
L 209.713736 62.887071 
L 212.343475 66.203357 
L 213.658345 76.346255 
L 214.973214 78.057318 
L 216.288084 65.568324 
L 218.917823 70.754431 
L 220.232693 61.634643 
L 221.547562 63.539744 
L 222.862432 63.045829 
L 224.177301 70.560393 
L 225.492171 65.674163 
L 226.80704 62.551914 
L 229.43678 62.551914 
L 230.751649 65.93876 
L 232.066519 61.98744 
L 233.381388 61.98744 
L 234.696258 60.646813 
L 238.640867 60.646813 
L 239.955736 66.856031 
L 241.270606 72.042138 
L 242.585475 66.079878 
L 243.900345 60.646813 
L 245.215214 67.138268 
L 246.530084 61.91688 
L 247.844954 60.646813 
L 260.993649 60.646813 
L 262.308519 66.573793 
L 263.623389 60.646813 
L 267.567997 60.646813 
L 268.882867 63.045829 
L 270.197736 72.85357 
L 271.512606 73.91196 
L 272.827476 78.216076 
L 274.142345 81.232486 
L 276.772084 60.646813 
L 278.086954 62.340236 
L 279.401823 61.422965 
L 280.716693 60.294017 
L 282.031563 59.94122 
L 283.346432 59.94122 
L 284.661302 60.646813 
L 285.976171 77.210606 
L 287.291041 72.500774 
L 288.60591 72.359655 
L 289.92078 69.466724 
L 291.23565 63.045829 
L 292.550519 67.155908 
L 293.865389 60.646813 
L 295.180258 60.646813 
L 296.495128 61.140728 
L 297.809997 61.140728 
L 299.124867 63.91018 
L 300.439737 70.189957 
L 301.754606 65.585963 
L 303.069476 65.092048 
L 304.384345 69.678402 
L 305.699215 86.312755 
L 307.014085 76.381535 
L 308.328954 93.580362 
L 309.643824 86.048157 
L 310.958693 84.019578 
L 312.273563 86.700831 
L 313.588432 85.272005 
L 314.903302 94.638751 
L 316.218172 73.188727 
L 317.533041 81.585282 
L 318.847911 65.727082 
L 320.16278 60.646813 
L 321.47765 64.95093 
L 322.792519 66.220997 
L 324.107389 60.646813 
L 325.422259 70.031199 
L 326.737128 74.405875 
L 328.051998 75.023268 
L 328.051998 75.023268 
" clip-path="url(#pb743977081)" style="fill: none; stroke: #edd1cb; stroke-width: 1.5; stroke-linecap: round"/>
   </g>
   <g id="line2d_13">
    <path d="M 66.392952 301.941944 
L 67.707822 293.192592 
L 69.022691 280.879996 
L 70.337561 270.437221 
L 71.652431 268.091125 
L 72.9673 267.244413 
L 74.28217 265.021796 
L 75.597039 260.858798 
L 76.911909 254.014547 
L 78.226778 248.652041 
L 79.541648 219.93441 
L 80.856518 197.955191 
L 82.171387 171.160301 
L 83.486257 147.170142 
L 84.801126 136.392211 
L 86.115996 127.395901 
L 87.430865 135.369101 
L 88.745735 127.889816 
L 90.060605 128.736528 
L 91.375474 136.021774 
L 92.690344 116.106415 
L 94.005213 110.426392 
L 95.320083 120.004816 
L 96.634953 117.164804 
L 97.949822 107.498182 
L 99.264692 113.883797 
L 100.579561 90.846189 
L 101.894431 105.416682 
L 103.2093 111.061426 
L 104.52417 88.958728 
L 105.83904 80.914969 
L 107.153909 85.854119 
L 108.468779 89.117487 
L 109.783648 100.565731 
L 111.098518 95.432543 
L 112.413387 69.149208 
L 113.728257 62.97527 
L 115.043127 69.325606 
L 116.357996 76.87545 
L 117.672866 73.329845 
L 118.987735 68.055539 
L 120.302605 54.719833 
L 121.617474 52.091499 
L 122.932344 52.655974 
L 124.247214 53.432126 
L 125.562083 53.449766 
L 126.876953 68.249577 
L 128.191822 54.208278 
L 129.506692 50.04528 
L 130.821561 47.646264 
L 132.136431 54.913871 
L 133.451301 48.722293 
L 134.76617 46.111599 
L 136.08104 46.958311 
L 137.395909 53.626164 
L 138.710779 55.090269 
L 140.025648 54.155359 
L 141.340518 57.912641 
L 142.655388 59.447305 
L 143.970257 51.615224 
L 145.285127 46.270358 
L 146.599996 54.384676 
L 147.914866 50.733233 
L 149.229736 43.500906 
L 150.544605 49.569005 
L 151.859475 45.688244 
L 153.174344 58.424196 
L 154.489214 47.857942 
L 155.804083 43.571465 
L 157.118953 50.415716 
L 158.433823 45.194329 
L 159.748692 37.856163 
L 161.063562 43.994821 
L 162.378431 40.396297 
L 163.693301 39.761263 
L 165.00817 42.442516 
L 166.32304 35.809943 
L 167.63791 39.761263 
L 168.952779 35.809943 
L 174.212257 35.809943 
L 175.527127 42.654194 
L 176.841997 43.589105 
L 178.156866 35.809943 
L 179.471736 42.724754 
L 180.786605 39.690704 
L 182.101475 35.809943 
L 186.046084 35.809943 
L 188.675823 39.902382 
L 189.990692 41.225369 
L 191.305562 35.809943 
L 192.620431 35.809943 
L 193.935301 43.11283 
L 195.250171 35.809943 
L 196.56504 42.230839 
L 197.87991 44.700414 
L 199.194779 42.671834 
L 200.509649 35.809943 
L 205.769127 35.809943 
L 207.083997 39.761263 
L 208.398866 35.809943 
L 209.713736 39.761263 
L 211.028606 40.890212 
L 212.343475 35.809943 
L 213.658345 38.279518 
L 216.288084 38.279518 
L 217.602953 40.484496 
L 218.917823 46.605515 
L 220.232693 40.749093 
L 221.547562 44.0301 
L 222.862432 41.013691 
L 224.177301 38.279518 
L 226.80704 38.279518 
L 228.12191 40.396297 
L 230.751649 40.396297 
L 232.066519 56.94245 
L 233.381388 42.865872 
L 234.696258 38.279518 
L 236.011127 35.809943 
L 242.585475 35.809943 
L 243.900345 46.728993 
L 245.215214 41.878042 
L 246.530084 40.396297 
L 247.844954 37.856163 
L 249.159823 43.853702 
L 251.789562 39.902382 
L 253.104432 45.317807 
L 254.419302 39.972941 
L 255.734171 42.724754 
L 258.36391 42.724754 
L 259.67878 35.809943 
L 267.567997 35.809943 
L 268.882867 40.343378 
L 270.197736 35.809943 
L 274.142345 35.809943 
L 275.457215 41.10189 
L 276.772084 41.684004 
L 278.086954 47.06415 
L 279.401823 50.204038 
L 280.716693 37.926722 
L 282.031563 35.809943 
L 283.346432 35.809943 
L 284.661302 47.240548 
L 285.976171 35.809943 
L 287.291041 35.809943 
L 288.60591 37.856163 
L 289.92078 42.442516 
L 291.23565 42.442516 
L 292.550519 38.279518 
L 293.865389 49.868882 
L 295.180258 53.820202 
L 296.495128 35.809943 
L 297.809997 39.761263 
L 299.124867 35.809943 
L 301.754606 35.809943 
L 303.069476 37.926722 
L 304.384345 41.878042 
L 305.699215 35.809943 
L 310.958693 35.809943 
L 312.273563 37.926722 
L 313.588432 40.396297 
L 314.903302 40.396297 
L 316.218172 51.191868 
L 317.533041 40.396297 
L 318.847911 44.347617 
L 320.16278 35.809943 
L 328.051998 35.809943 
L 328.051998 35.809943 
" clip-path="url(#pb743977081)" style="fill: none; stroke: #d499a7; stroke-width: 1.5; stroke-linecap: round"/>
   </g>
   <g id="line2d_14">
    <path d="M 66.392952 301.130512 
L 67.707822 288.006484 
L 69.022691 264.739559 
L 70.337561 268.038205 
L 71.652431 258.495061 
L 72.9673 256.783999 
L 74.28217 226.461144 
L 75.597039 216.477004 
L 76.911909 207.886411 
L 78.226778 200.407126 
L 79.541648 194.550705 
L 80.856518 172.059932 
L 82.171387 156.078252 
L 83.486257 150.221831 
L 84.801126 134.998665 
L 86.115996 139.602658 
L 87.430865 149.833755 
L 88.745735 140.802166 
L 90.060605 130.429951 
L 91.375474 128.736528 
L 92.690344 140.043654 
L 94.005213 136.092334 
L 95.320083 144.171372 
L 96.634953 159.941374 
L 97.949822 145.4238 
L 99.264692 124.802847 
L 100.579561 124.661729 
L 101.894431 130.200633 
L 103.2093 121.468921 
L 104.52417 130.306472 
L 105.83904 128.860006 
L 107.153909 124.802847 
L 108.468779 109.685519 
L 109.783648 110.814468 
L 111.098518 115.57722 
L 112.413387 111.343663 
L 113.728257 108.697689 
L 115.043127 106.65147 
L 116.357996 109.61496 
L 117.672866 111.520061 
L 118.987735 105.804759 
L 120.302605 105.804759 
L 121.617474 105.593081 
L 124.247214 105.593081 
L 125.562083 105.804759 
L 126.876953 105.804759 
L 128.191822 109.61496 
L 129.506692 105.381403 
L 130.821561 110.67335 
L 132.136431 105.381403 
L 133.451301 114.57175 
L 134.76617 120.53401 
L 136.08104 110.249994 
L 137.395909 105.381403 
L 138.710779 109.59732 
L 140.025648 108.415452 
L 141.340518 105.593081 
L 142.655388 105.169725 
L 143.970257 105.169725 
L 145.285127 105.593081 
L 146.599996 107.321783 
L 147.914866 113.707399 
L 149.229736 110.373473 
L 150.544605 109.61496 
L 153.174344 109.61496 
L 154.489214 111.872857 
L 155.804083 113.090005 
L 157.118953 105.804759 
L 158.433823 105.804759 
L 159.748692 111.326023 
L 162.378431 111.308383 
L 163.693301 105.099166 
L 165.00817 105.099166 
L 166.32304 109.138685 
L 167.63791 108.838808 
L 168.952779 105.804759 
L 172.897388 105.804759 
L 174.212257 111.308383 
L 175.527127 105.804759 
L 178.156866 105.804759 
L 179.471736 113.56628 
L 180.786605 108.344893 
L 182.101475 105.804759 
L 183.416344 110.65571 
L 184.731214 107.709859 
L 186.046084 108.309613 
L 187.360953 105.804759 
L 188.675823 107.251224 
L 189.990692 118.276113 
L 191.305562 110.426392 
L 192.620431 111.696459 
L 193.935301 109.967757 
L 195.250171 108.803528 
L 196.56504 121.839357 
L 197.87991 109.950117 
L 199.194779 108.344893 
L 200.509649 113.425162 
L 201.824519 110.885027 
L 203.139388 105.804759 
L 204.454258 110.249994 
L 205.769127 105.804759 
L 208.398866 105.804759 
L 209.713736 110.214714 
L 211.028606 105.804759 
L 216.288084 105.804759 
L 217.602953 109.61496 
L 218.917823 109.61496 
L 220.232693 105.804759 
L 222.862432 105.804759 
L 224.177301 110.832108 
L 225.492171 105.804759 
L 232.066519 105.804759 
L 233.381388 108.344893 
L 234.696258 108.344893 
L 236.011127 105.804759 
L 241.270606 105.804759 
L 242.585475 109.279804 
L 243.900345 109.279804 
L 245.215214 110.65571 
L 246.530084 105.804759 
L 247.844954 105.804759 
L 249.159823 109.138685 
L 250.474693 109.138685 
L 251.789562 105.804759 
L 254.419302 105.804759 
L 255.734171 111.308383 
L 257.049041 108.997566 
L 258.36391 110.690989 
L 259.67878 105.804759 
L 264.938258 105.804759 
L 266.253128 110.65571 
L 267.567997 105.804759 
L 270.197736 105.804759 
L 271.512606 108.344893 
L 272.827476 105.804759 
L 274.142345 105.804759 
L 275.457215 108.344893 
L 276.772084 105.804759 
L 280.716693 105.804759 
L 282.031563 106.281034 
L 283.346432 108.344893 
L 284.661302 105.804759 
L 287.291041 114.959826 
L 288.60591 110.073596 
L 289.92078 105.875318 
L 291.23565 106.298674 
L 292.550519 106.298674 
L 293.865389 109.209244 
L 295.180258 105.769479 
L 296.495128 103.264624 
L 297.809997 104.534691 
L 299.124867 109.61496 
L 300.439737 103.264624 
L 301.754606 98.184355 
L 303.069476 105.751839 
L 304.384345 101.923998 
L 305.699215 109.509121 
L 307.014085 114.360072 
L 308.328954 109.932477 
L 309.643824 106.845508 
L 310.958693 113.954357 
L 312.273563 107.60402 
L 313.588432 119.951896 
L 314.903302 114.236594 
L 316.218172 104.111336 
L 317.533041 103.176425 
L 318.847911 96.402733 
L 320.16278 85.342565 
L 321.47765 95.150306 
L 322.792519 102.629591 
L 324.107389 101.853438 
L 325.422259 106.66911 
L 326.737128 104.62289 
L 328.051998 88.870529 
L 328.051998 88.870529 
" clip-path="url(#pb743977081)" style="fill: none; stroke: #a9678f; stroke-width: 1.5; stroke-linecap: round"/>
   </g>
   <g id="line2d_15">
    <path d="M 66.392952 302.647537 
L 67.707822 298.149382 
L 69.022691 288.800276 
L 70.337561 276.240723 
L 72.9673 273.259593 
L 74.28217 271.971886 
L 75.597039 272.254123 
L 76.911909 267.897087 
L 78.226778 256.942757 
L 79.541648 262.340543 
L 80.856518 264.492601 
L 82.171387 258.794938 
L 83.486257 255.566851 
L 84.801126 256.925117 
L 86.115996 254.7025 
L 87.430865 250.027947 
L 88.745735 256.62524 
L 90.060605 258.124625 
L 91.375474 253.291314 
L 92.690344 247.187935 
L 94.005213 245.75911 
L 95.320083 249.057756 
L 96.634953 244.71836 
L 97.949822 245.441593 
L 99.264692 245.194635 
L 100.579561 237.450753 
L 101.894431 230.412464 
L 103.2093 238.368024 
L 104.52417 233.993348 
L 105.83904 224.997039 
L 107.153909 226.637542 
L 108.468779 231.188616 
L 109.783648 232.493963 
L 111.098518 222.986099 
L 112.413387 221.504354 
L 113.728257 224.750081 
L 115.043127 220.9046 
L 116.357996 218.399745 
L 117.672866 218.823101 
L 118.987735 220.834041 
L 120.302605 211.92593 
L 121.617474 206.722183 
L 122.932344 207.251377 
L 124.247214 194.127349 
L 125.562083 196.949721 
L 126.876953 201.730113 
L 128.191822 203.582294 
L 130.821561 187.15962 
L 132.136431 187.353658 
L 133.451301 201.888871 
L 134.76617 197.03792 
L 136.08104 197.196679 
L 137.395909 190.317148 
L 138.710779 193.686354 
L 140.025648 203.123659 
L 141.340518 204.481925 
L 142.655388 211.379096 
L 143.970257 210.497105 
L 145.285127 205.452115 
L 146.599996 206.404666 
L 147.914866 200.03669 
L 149.229736 209.544554 
L 150.544605 202.947261 
L 151.859475 195.644374 
L 153.174344 197.425996 
L 154.489214 189.294038 
L 155.804083 193.562875 
L 157.118953 190.334788 
L 158.433823 192.927842 
L 159.748692 192.910202 
L 161.063562 191.657774 
L 162.378431 205.293357 
L 163.693301 202.559185 
L 165.00817 200.724643 
L 166.32304 206.140069 
L 167.63791 202.135829 
L 168.952779 196.896802 
L 170.267649 203.917451 
L 171.582518 205.381556 
L 172.897388 186.365828 
L 174.212257 187.353658 
L 175.527127 178.551386 
L 176.841997 168.21445 
L 178.156866 172.130491 
L 179.471736 166.25643 
L 180.786605 172.677325 
L 182.101475 168.796564 
L 183.416344 155.919494 
L 184.731214 152.109292 
L 186.046084 144.982804 
L 187.360953 166.397549 
L 188.675823 164.104372 
L 189.990692 168.020412 
L 191.305562 167.967493 
L 192.620431 162.234551 
L 193.935301 163.381139 
L 195.250171 152.162212 
L 196.56504 144.330131 
L 197.87991 146.588028 
L 199.194779 145.847155 
L 200.509649 151.4037 
L 201.824519 159.006463 
L 203.139388 151.068543 
L 204.454258 149.957234 
L 205.769127 145.529639 
L 207.083997 150.592268 
L 208.398866 164.457168 
L 209.713736 158.512548 
L 211.028606 153.591038 
L 212.343475 137.626998 
L 213.658345 135.598419 
L 214.973214 153.732156 
L 216.288084 150.468789 
L 217.602953 167.544137 
L 218.917823 162.746105 
L 220.232693 169.396318 
L 221.547562 148.316731 
L 222.862432 157.27776 
L 224.177301 151.192022 
L 225.492171 161.017403 
L 226.80704 150.310031 
L 228.12191 137.591719 
L 229.43678 157.454159 
L 230.751649 143.007144 
L 232.066519 147.575858 
L 233.381388 149.110523 
L 234.696258 150.892145 
L 236.011127 144.241932 
L 237.325997 134.381271 
L 238.640867 141.296081 
L 239.955736 144.753486 
L 241.270606 158.900624 
L 242.585475 152.603207 
L 243.900345 149.198722 
L 245.215214 138.826506 
L 246.530084 154.34955 
L 247.844954 164.986363 
L 249.159823 154.755266 
L 250.474693 153.979114 
L 251.789562 146.570388 
L 253.104432 147.734616 
L 254.419302 150.521708 
L 255.734171 154.614147 
L 257.049041 158.053913 
L 258.36391 149.35748 
L 259.67878 145.335601 
L 260.993649 138.49135 
L 262.308519 149.022324 
L 263.623389 158.247951 
L 264.938258 161.564237 
L 266.253128 157.083722 
L 267.567997 144.559448 
L 270.197736 153.044203 
L 271.512606 164.016173 
L 272.827476 154.137872 
L 274.142345 145.247402 
L 275.457215 140.484649 
L 276.772084 143.606898 
L 278.086954 147.893375 
L 279.401823 146.323431 
L 280.716693 135.898296 
L 282.031563 143.095343 
L 283.346432 135.47494 
L 284.661302 128.648329 
L 285.976171 141.895835 
L 287.291041 133.587479 
L 288.60591 127.342982 
L 289.92078 131.682378 
L 291.23565 134.822266 
L 292.550519 139.126383 
L 295.180258 123.762098 
L 296.495128 125.914156 
L 297.809997 119.793138 
L 299.124867 124.326572 
L 300.439737 127.960376 
L 301.754606 127.942736 
L 304.384345 147.258341 
L 305.699215 142.248632 
L 307.014085 141.931115 
L 308.328954 150.574628 
L 309.643824 140.537569 
L 310.958693 146.834986 
L 312.273563 148.440209 
L 313.588432 143.4305 
L 314.903302 147.840455 
L 316.218172 151.068543 
L 317.533041 141.666518 
L 318.847911 141.41956 
L 320.16278 142.918945 
L 321.47765 139.355701 
L 322.792519 149.763196 
L 324.107389 132.705488 
L 325.422259 142.848386 
L 326.737128 147.311261 
L 328.051998 146.482189 
L 328.051998 146.482189 
" clip-path="url(#pb743977081)" style="fill: none; stroke: #6c3f70; stroke-width: 1.5; stroke-linecap: round"/>
   </g>
   <g id="line2d_16">
    <path d="M 66.392952 302.823935 
L 67.707822 293.915825 
L 70.337561 271.460331 
L 71.652431 256.748719 
L 72.9673 247.787689 
L 74.28217 211.361456 
L 76.911909 162.640266 
L 78.226778 153.079483 
L 79.541648 164.29841 
L 80.856518 131.347221 
L 82.171387 122.985946 
L 83.486257 138.967625 
L 84.801126 137.097804 
L 86.115996 121.486561 
L 87.430865 116.61797 
L 88.745735 124.238373 
L 90.060605 118.452511 
L 91.375474 120.816247 
L 92.690344 122.297993 
L 94.005213 114.730509 
L 95.320083 126.937266 
L 96.634953 126.090554 
L 97.949822 111.079065 
L 99.264692 111.255464 
L 100.579561 117.288283 
L 101.894431 109.209244 
L 103.2093 126.743228 
L 104.52417 111.237824 
L 105.83904 108.997566 
L 107.153909 113.742679 
L 108.468779 116.60033 
L 109.783648 124.626449 
L 111.098518 113.231124 
L 112.413387 118.487791 
L 113.728257 107.921537 
L 115.043127 109.138685 
L 116.357996 107.780419 
L 117.672866 113.072365 
L 118.987735 108.856448 
L 120.302605 125.878876 
L 121.617474 108.838808 
L 124.247214 112.64901 
L 125.562083 101.853438 
L 126.876953 113.336963 
L 128.191822 102.506112 
L 129.506692 111.978696 
L 130.821561 112.472611 
L 132.136431 102.68251 
L 133.451301 108.362533 
L 134.76617 112.719569 
L 136.08104 122.245073 
L 137.395909 97.619881 
L 138.710779 102.541391 
L 140.025648 111.555341 
L 141.340518 105.451962 
L 142.655388 103.105866 
L 143.970257 96.508572 
L 145.285127 97.443483 
L 146.599996 114.889267 
L 147.914866 99.313304 
L 149.229736 94.356514 
L 150.544605 90.72271 
L 151.859475 93.809679 
L 153.174344 87.74158 
L 162.378431 87.74158 
L 163.693301 92.398494 
L 165.00817 87.74158 
L 183.416344 87.74158 
L 184.731214 93.598001 
L 186.046084 87.74158 
L 191.305562 87.74158 
L 192.620431 94.268315 
L 193.935301 87.74158 
L 195.250171 87.74158 
L 196.56504 94.268315 
L 197.87991 87.74158 
L 207.083997 87.74158 
L 208.398866 95.150306 
L 209.713736 89.170406 
L 211.028606 87.74158 
L 212.343475 87.74158 
L 213.658345 94.021357 
L 214.973214 94.585832 
L 216.288084 87.74158 
L 218.917823 87.74158 
L 220.232693 92.204455 
L 221.547562 99.330944 
L 224.177301 90.228795 
L 225.492171 87.74158 
L 226.80704 93.086447 
L 228.12191 87.74158 
L 236.011127 87.74158 
L 237.325997 93.844959 
L 238.640867 94.233035 
L 239.955736 94.938628 
L 241.270606 88.023818 
L 242.585475 87.882699 
L 243.900345 87.953258 
L 245.215214 87.81214 
L 246.530084 87.953258 
L 247.844954 93.015887 
L 249.159823 93.915518 
L 250.474693 93.456883 
L 251.789562 94.162476 
L 253.104432 87.882699 
L 254.419302 88.658851 
L 255.734171 101.430083 
L 257.049041 94.938628 
L 258.36391 94.268315 
L 259.67878 87.74158 
L 262.308519 87.74158 
L 263.623389 94.656391 
L 264.938258 87.74158 
L 267.567997 87.74158 
L 268.882867 100.512812 
L 270.197736 87.74158 
L 282.031563 87.74158 
L 283.346432 94.585832 
L 284.661302 87.74158 
L 285.976171 90.881469 
L 287.291041 93.72148 
L 288.60591 93.72148 
L 289.92078 87.74158 
L 301.754606 87.74158 
L 303.069476 93.633281 
L 304.384345 87.74158 
L 309.643824 87.74158 
L 310.958693 94.268315 
L 312.273563 87.74158 
L 328.051998 87.74158 
L 328.051998 87.74158 
" clip-path="url(#pb743977081)" style="fill: none; stroke: #2d1e3e; stroke-width: 1.5; stroke-linecap: round"/>
   </g>
   <g id="line2d_17"/>
   <g id="line2d_18"/>
   <g id="line2d_19"/>
   <g id="line2d_20"/>
   <g id="line2d_21"/>
   <g id="patch_3">
    <path d="M 53.31 319.138125 
L 53.31 22.318125 
" style="fill: none; stroke: #ffffff; stroke-width: 1.25; stroke-linejoin: miter; stroke-linecap: square"/>
   </g>
   <g id="patch_4">
    <path d="M 53.31 319.138125 
L 341.13495 319.138125 
" style="fill: none; stroke: #ffffff; stroke-width: 1.25; stroke-linejoin: miter; stroke-linecap: square"/>
   </g>
   <g id="text_14">
    <!-- Evolved For Still Life For Two Cycle -->
    <g style="fill: #262626" transform="translate(93.678413 16.318125)scale(0.12 -0.12)">
     <defs>
      <path id="DejaVuSans-45" d="M 628 4666 
L 3578 4666 
L 3578 4134 
L 1259 4134 
L 1259 2753 
L 3481 2753 
L 3481 2222 
L 1259 2222 
L 1259 531 
L 3634 531 
L 3634 0 
L 628 0 
L 628 4666 
z
" transform="scale(0.015625)"/>
      <path id="DejaVuSans-76" d="M 191 3500 
L 800 3500 
L 1894 563 
L 2988 3500 
L 3597 3500 
L 2284 0 
L 1503 0 
L 191 3500 
z
" transform="scale(0.015625)"/>
      <path id="DejaVuSans-6c" d="M 603 4863 
L 1178 4863 
L 1178 0 
L 603 0 
L 603 4863 
z
" transform="scale(0.015625)"/>
      <path id="DejaVuSans-64" d="M 2906 2969 
L 2906 4863 
L 3481 4863 
L 3481 0 
L 2906 0 
L 2906 525 
Q 2725 213 2448 61 
Q 2172 -91 1784 -91 
Q 1150 -91 751 415 
Q 353 922 353 1747 
Q 353 2572 751 3078 
Q 1150 3584 1784 3584 
Q 2172 3584 2448 3432 
Q 2725 3281 2906 2969 
z
M 947 1747 
Q 947 1113 1208 752 
Q 1469 391 1925 391 
Q 2381 391 2643 752 
Q 2906 1113 2906 1747 
Q 2906 2381 2643 2742 
Q 2381 3103 1925 3103 
Q 1469 3103 1208 2742 
Q 947 2381 947 1747 
z
" transform="scale(0.015625)"/>
      <path id="DejaVuSans-20" transform="scale(0.015625)"/>
      <path id="DejaVuSans-53" d="M 3425 4513 
L 3425 3897 
Q 3066 4069 2747 4153 
Q 2428 4238 2131 4238 
Q 1616 4238 1336 4038 
Q 1056 3838 1056 3469 
Q 1056 3159 1242 3001 
Q 1428 2844 1947 2747 
L 2328 2669 
Q 3034 2534 3370 2195 
Q 3706 1856 3706 1288 
Q 3706 609 3251 259 
Q 2797 -91 1919 -91 
Q 1588 -91 1214 -16 
Q 841 59 441 206 
L 441 856 
Q 825 641 1194 531 
Q 1563 422 1919 422 
Q 2459 422 2753 634 
Q 3047 847 3047 1241 
Q 3047 1584 2836 1778 
Q 2625 1972 2144 2069 
L 1759 2144 
Q 1053 2284 737 2584 
Q 422 2884 422 3419 
Q 422 4038 858 4394 
Q 1294 4750 2059 4750 
Q 2388 4750 2728 4690 
Q 3069 4631 3425 4513 
z
" transform="scale(0.015625)"/>
      <path id="DejaVuSans-4c" d="M 628 4666 
L 1259 4666 
L 1259 531 
L 3531 531 
L 3531 0 
L 628 0 
L 628 4666 
z
" transform="scale(0.015625)"/>
      <path id="DejaVuSans-66" d="M 2375 4863 
L 2375 4384 
L 1825 4384 
Q 1516 4384 1395 4259 
Q 1275 4134 1275 3809 
L 1275 3500 
L 2222 3500 
L 2222 3053 
L 1275 3053 
L 1275 0 
L 697 0 
L 697 3053 
L 147 3053 
L 147 3500 
L 697 3500 
L 697 3744 
Q 697 4328 969 4595 
Q 1241 4863 1831 4863 
L 2375 4863 
z
" transform="scale(0.015625)"/>
      <path id="DejaVuSans-54" d="M -19 4666 
L 3928 4666 
L 3928 4134 
L 2272 4134 
L 2272 0 
L 1638 0 
L 1638 4134 
L -19 4134 
L -19 4666 
z
" transform="scale(0.015625)"/>
      <path id="DejaVuSans-77" d="M 269 3500 
L 844 3500 
L 1563 769 
L 2278 3500 
L 2956 3500 
L 3675 769 
L 4391 3500 
L 4966 3500 
L 4050 0 
L 3372 0 
L 2619 2869 
L 1863 0 
L 1184 0 
L 269 3500 
z
" transform="scale(0.015625)"/>
      <path id="DejaVuSans-43" d="M 4122 4306 
L 4122 3641 
Q 3803 3938 3442 4084 
Q 3081 4231 2675 4231 
Q 1875 4231 1450 3742 
Q 1025 3253 1025 2328 
Q 1025 1406 1450 917 
Q 1875 428 2675 428 
Q 3081 428 3442 575 
Q 3803 722 4122 1019 
L 4122 359 
Q 3791 134 3420 21 
Q 3050 -91 2638 -91 
Q 1578 -91 968 557 
Q 359 1206 359 2328 
Q 359 3453 968 4101 
Q 1578 4750 2638 4750 
Q 3056 4750 3426 4639 
Q 3797 4528 4122 4306 
z
" transform="scale(0.015625)"/>
      <path id="DejaVuSans-79" d="M 2059 -325 
Q 1816 -950 1584 -1140 
Q 1353 -1331 966 -1331 
L 506 -1331 
L 506 -850 
L 844 -850 
Q 1081 -850 1212 -737 
Q 1344 -625 1503 -206 
L 1606 56 
L 191 3500 
L 800 3500 
L 1894 763 
L 2988 3500 
L 3597 3500 
L 2059 -325 
z
" transform="scale(0.015625)"/>
      <path id="DejaVuSans-63" d="M 3122 3366 
L 3122 2828 
Q 2878 2963 2633 3030 
Q 2388 3097 2138 3097 
Q 1578 3097 1268 2742 
Q 959 2388 959 1747 
Q 959 1106 1268 751 
Q 1578 397 2138 397 
Q 2388 397 2633 464 
Q 2878 531 3122 666 
L 3122 134 
Q 2881 22 2623 -34 
Q 2366 -91 2075 -91 
Q 1284 -91 818 406 
Q 353 903 353 1747 
Q 353 2603 823 3093 
Q 1294 3584 2113 3584 
Q 2378 3584 2631 3529 
Q 2884 3475 3122 3366 
z
" transform="scale(0.015625)"/>
     </defs>
     <use xlink:href="#DejaVuSans-45"/>
     <use xlink:href="#DejaVuSans-76" x="63.183594"/>
     <use xlink:href="#DejaVuSans-6f" x="122.363281"/>
     <use xlink:href="#DejaVuSans-6c" x="183.544922"/>
     <use xlink:href="#DejaVuSans-76" x="211.328125"/>
     <use xlink:href="#DejaVuSans-65" x="270.507812"/>
     <use xlink:href="#DejaVuSans-64" x="332.03125"/>
     <use xlink:href="#DejaVuSans-20" x="395.507812"/>
     <use xlink:href="#DejaVuSans-46" x="427.294922"/>
     <use xlink:href="#DejaVuSans-6f" x="481.189453"/>
     <use xlink:href="#DejaVuSans-72" x="542.371094"/>
     <use xlink:href="#DejaVuSans-20" x="583.484375"/>
     <use xlink:href="#DejaVuSans-53" x="615.271484"/>
     <use xlink:href="#DejaVuSans-74" x="678.748047"/>
     <use xlink:href="#DejaVuSans-69" x="717.957031"/>
     <use xlink:href="#DejaVuSans-6c" x="745.740234"/>
     <use xlink:href="#DejaVuSans-6c" x="773.523438"/>
     <use xlink:href="#DejaVuSans-20" x="801.306641"/>
     <use xlink:href="#DejaVuSans-4c" x="833.09375"/>
     <use xlink:href="#DejaVuSans-69" x="888.806641"/>
     <use xlink:href="#DejaVuSans-66" x="916.589844"/>
     <use xlink:href="#DejaVuSans-65" x="951.794922"/>
     <use xlink:href="#DejaVuSans-20" x="1013.318359"/>
     <use xlink:href="#DejaVuSans-46" x="1045.105469"/>
     <use xlink:href="#DejaVuSans-6f" x="1099"/>
     <use xlink:href="#DejaVuSans-72" x="1160.181641"/>
     <use xlink:href="#DejaVuSans-20" x="1201.294922"/>
     <use xlink:href="#DejaVuSans-54" x="1233.082031"/>
     <use xlink:href="#DejaVuSans-77" x="1277.666016"/>
     <use xlink:href="#DejaVuSans-6f" x="1359.453125"/>
     <use xlink:href="#DejaVuSans-20" x="1420.634766"/>
     <use xlink:href="#DejaVuSans-43" x="1452.421875"/>
     <use xlink:href="#DejaVuSans-79" x="1522.246094"/>
     <use xlink:href="#DejaVuSans-63" x="1581.425781"/>
     <use xlink:href="#DejaVuSans-6c" x="1636.40625"/>
     <use xlink:href="#DejaVuSans-65" x="1664.189453"/>
    </g>
   </g>
  </g>
  <g id="legend_1">
   <g id="text_15">
    <!-- Trial -->
    <g style="fill: #262626" transform="translate(352.4649 143.995312)scale(0.12 -0.12)">
     <use xlink:href="#DejaVuSans-54"/>
     <use xlink:href="#DejaVuSans-72" x="46.333984"/>
     <use xlink:href="#DejaVuSans-69" x="87.447266"/>
     <use xlink:href="#DejaVuSans-61" x="115.230469"/>
     <use xlink:href="#DejaVuSans-6c" x="176.509766"/>
    </g>
   </g>
   <g id="line2d_22">
    <path d="M 345.8224 156.499219 
L 356.8224 156.499219 
L 367.8224 156.499219 
" style="fill: none; stroke: #edd1cb; stroke-width: 1.5; stroke-linecap: round"/>
   </g>
   <g id="text_16">
    <!-- 0 -->
    <g style="fill: #262626" transform="translate(376.6224 160.349219)scale(0.11 -0.11)">
     <use xlink:href="#DejaVuSans-30"/>
    </g>
   </g>
   <g id="line2d_23">
    <path d="M 345.8224 172.645156 
L 356.8224 172.645156 
L 367.8224 172.645156 
" style="fill: none; stroke: #d499a7; stroke-width: 1.5; stroke-linecap: round"/>
   </g>
   <g id="text_17">
    <!-- 1 -->
    <g style="fill: #262626" transform="translate(376.6224 176.495156)scale(0.11 -0.11)">
     <use xlink:href="#DejaVuSans-31"/>
    </g>
   </g>
   <g id="line2d_24">
    <path d="M 345.8224 188.791094 
L 356.8224 188.791094 
L 367.8224 188.791094 
" style="fill: none; stroke: #a9678f; stroke-width: 1.5; stroke-linecap: round"/>
   </g>
   <g id="text_18">
    <!-- 2 -->
    <g style="fill: #262626" transform="translate(376.6224 192.641094)scale(0.11 -0.11)">
     <use xlink:href="#DejaVuSans-32"/>
    </g>
   </g>
   <g id="line2d_25">
    <path d="M 345.8224 204.937031 
L 356.8224 204.937031 
L 367.8224 204.937031 
" style="fill: none; stroke: #6c3f70; stroke-width: 1.5; stroke-linecap: round"/>
   </g>
   <g id="text_19">
    <!-- 3 -->
    <g style="fill: #262626" transform="translate(376.6224 208.787031)scale(0.11 -0.11)">
     <use xlink:href="#DejaVuSans-33"/>
    </g>
   </g>
   <g id="line2d_26">
    <path d="M 345.8224 221.082969 
L 356.8224 221.082969 
L 367.8224 221.082969 
" style="fill: none; stroke: #2d1e3e; stroke-width: 1.5; stroke-linecap: round"/>
   </g>
   <g id="text_20">
    <!-- 4 -->
    <g style="fill: #262626" transform="translate(376.6224 224.932969)scale(0.11 -0.11)">
     <use xlink:href="#DejaVuSans-34"/>
    </g>
   </g>
  </g>
 </g>
 <defs>
  <clipPath id="pb743977081">
   <rect x="53.31" y="22.318125" width="287.82495" height="296.82"/>
  </clipPath>
 </defs>
</svg>
