<?xml version="1.0" encoding="utf-8" standalone="no"?>
<!DOCTYPE svg PUBLIC "-//W3C//DTD SVG 1.1//EN"
  "http://www.w3.org/Graphics/SVG/1.1/DTD/svg11.dtd">
<svg xmlns:xlink="http://www.w3.org/1999/xlink" width="864pt" height="360pt" viewBox="0 0 864 360" xmlns="http://www.w3.org/2000/svg" version="1.1">
 <metadata>
  <rdf:RDF xmlns:dc="http://purl.org/dc/elements/1.1/" xmlns:cc="http://creativecommons.org/ns#" xmlns:rdf="http://www.w3.org/1999/02/22-rdf-syntax-ns#">
   <cc:Work>
    <dc:type rdf:resource="http://purl.org/dc/dcmitype/StillImage"/>
    <dc:date>2022-11-20T08:53:27.428791</dc:date>
    <dc:format>image/svg+xml</dc:format>
    <dc:creator>
     <cc:Agent>
      <dc:title>Matplotlib v3.5.2, https://matplotlib.org/</dc:title>
     </cc:Agent>
    </dc:creator>
   </cc:Work>
  </rdf:RDF>
 </metadata>
 <defs>
  <style type="text/css">*{stroke-linejoin: round; stroke-linecap: butt}</style>
 </defs>
 <g id="figure_1">
  <g id="patch_1">
   <path d="M 0 360 
L 864 360 
L 864 0 
L 0 0 
z
" style="fill: #ffffff"/>
  </g>
  <g id="axes_1">
   <g id="patch_2">
    <path d="M 60.21 309.78 
L 337.45 309.78 
L 337.45 55.68 
L 60.21 55.68 
z
" style="fill: #eaeaf2"/>
   </g>
   <g id="matplotlib.axis_1">
    <g id="xtick_1">
     <g id="line2d_1">
      <path d="M 72.811818 309.78 
L 72.811818 55.68 
" clip-path="url(#p00eea4afc9)" style="fill: none; stroke: #ffffff; stroke-linecap: round"/>
     </g>
     <g id="text_1">
      <!-- 0 -->
      <g style="fill: #262626" transform="translate(69.312443 327.638281)scale(0.11 -0.11)">
       <defs>
        <path id="DejaVuSans-30" d="M 2034 4250 
Q 1547 4250 1301 3770 
Q 1056 3291 1056 2328 
Q 1056 1369 1301 889 
Q 1547 409 2034 409 
Q 2525 409 2770 889 
Q 3016 1369 3016 2328 
Q 3016 3291 2770 3770 
Q 2525 4250 2034 4250 
z
M 2034 4750 
Q 2819 4750 3233 4129 
Q 3647 3509 3647 2328 
Q 3647 1150 3233 529 
Q 2819 -91 2034 -91 
Q 1250 -91 836 529 
Q 422 1150 422 2328 
Q 422 3509 836 4129 
Q 1250 4750 2034 4750 
z
" transform="scale(0.015625)"/>
       </defs>
       <use xlink:href="#DejaVuSans-30"/>
      </g>
     </g>
    </g>
    <g id="xtick_2">
     <g id="line2d_2">
      <path d="M 136.137538 309.78 
L 136.137538 55.68 
" clip-path="url(#p00eea4afc9)" style="fill: none; stroke: #ffffff; stroke-linecap: round"/>
     </g>
     <g id="text_2">
      <!-- 50 -->
      <g style="fill: #262626" transform="translate(129.138788 327.638281)scale(0.11 -0.11)">
       <defs>
        <path id="DejaVuSans-35" d="M 691 4666 
L 3169 4666 
L 3169 4134 
L 1269 4134 
L 1269 2991 
Q 1406 3038 1543 3061 
Q 1681 3084 1819 3084 
Q 2600 3084 3056 2656 
Q 3513 2228 3513 1497 
Q 3513 744 3044 326 
Q 2575 -91 1722 -91 
Q 1428 -91 1123 -41 
Q 819 9 494 109 
L 494 744 
Q 775 591 1075 516 
Q 1375 441 1709 441 
Q 2250 441 2565 725 
Q 2881 1009 2881 1497 
Q 2881 1984 2565 2268 
Q 2250 2553 1709 2553 
Q 1456 2553 1204 2497 
Q 953 2441 691 2322 
L 691 4666 
z
" transform="scale(0.015625)"/>
       </defs>
       <use xlink:href="#DejaVuSans-35"/>
       <use xlink:href="#DejaVuSans-30" x="63.623047"/>
      </g>
     </g>
    </g>
    <g id="xtick_3">
     <g id="line2d_3">
      <path d="M 199.463257 309.78 
L 199.463257 55.68 
" clip-path="url(#p00eea4afc9)" style="fill: none; stroke: #ffffff; stroke-linecap: round"/>
     </g>
     <g id="text_3">
      <!-- 100 -->
      <g style="fill: #262626" transform="translate(188.965132 327.638281)scale(0.11 -0.11)">
       <defs>
        <path id="DejaVuSans-31" d="M 794 531 
L 1825 531 
L 1825 4091 
L 703 3866 
L 703 4441 
L 1819 4666 
L 2450 4666 
L 2450 531 
L 3481 531 
L 3481 0 
L 794 0 
L 794 531 
z
" transform="scale(0.015625)"/>
       </defs>
       <use xlink:href="#DejaVuSans-31"/>
       <use xlink:href="#DejaVuSans-30" x="63.623047"/>
       <use xlink:href="#DejaVuSans-30" x="127.246094"/>
      </g>
     </g>
    </g>
    <g id="xtick_4">
     <g id="line2d_4">
      <path d="M 262.788977 309.78 
L 262.788977 55.68 
" clip-path="url(#p00eea4afc9)" style="fill: none; stroke: #ffffff; stroke-linecap: round"/>
     </g>
     <g id="text_4">
      <!-- 150 -->
      <g style="fill: #262626" transform="translate(252.290852 327.638281)scale(0.11 -0.11)">
       <use xlink:href="#DejaVuSans-31"/>
       <use xlink:href="#DejaVuSans-35" x="63.623047"/>
       <use xlink:href="#DejaVuSans-30" x="127.246094"/>
      </g>
     </g>
    </g>
    <g id="xtick_5">
     <g id="line2d_5">
      <path d="M 326.114696 309.78 
L 326.114696 55.68 
" clip-path="url(#p00eea4afc9)" style="fill: none; stroke: #ffffff; stroke-linecap: round"/>
     </g>
     <g id="text_5">
      <!-- 200 -->
      <g style="fill: #262626" transform="translate(315.616571 327.638281)scale(0.11 -0.11)">
       <defs>
        <path id="DejaVuSans-32" d="M 1228 531 
L 3431 531 
L 3431 0 
L 469 0 
L 469 531 
Q 828 903 1448 1529 
Q 2069 2156 2228 2338 
Q 2531 2678 2651 2914 
Q 2772 3150 2772 3378 
Q 2772 3750 2511 3984 
Q 2250 4219 1831 4219 
Q 1534 4219 1204 4116 
Q 875 4013 500 3803 
L 500 4441 
Q 881 4594 1212 4672 
Q 1544 4750 1819 4750 
Q 2544 4750 2975 4387 
Q 3406 4025 3406 3419 
Q 3406 3131 3298 2873 
Q 3191 2616 2906 2266 
Q 2828 2175 2409 1742 
Q 1991 1309 1228 531 
z
" transform="scale(0.015625)"/>
       </defs>
       <use xlink:href="#DejaVuSans-32"/>
       <use xlink:href="#DejaVuSans-30" x="63.623047"/>
       <use xlink:href="#DejaVuSans-30" x="127.246094"/>
      </g>
     </g>
    </g>
    <g id="text_6">
     <!-- Generation -->
     <g style="fill: #262626" transform="translate(165.358437 343.044062)scale(0.12 -0.12)">
      <defs>
       <path id="DejaVuSans-47" d="M 3809 666 
L 3809 1919 
L 2778 1919 
L 2778 2438 
L 4434 2438 
L 4434 434 
Q 4069 175 3628 42 
Q 3188 -91 2688 -91 
Q 1594 -91 976 548 
Q 359 1188 359 2328 
Q 359 3472 976 4111 
Q 1594 4750 2688 4750 
Q 3144 4750 3555 4637 
Q 3966 4525 4313 4306 
L 4313 3634 
Q 3963 3931 3569 4081 
Q 3175 4231 2741 4231 
Q 1884 4231 1454 3753 
Q 1025 3275 1025 2328 
Q 1025 1384 1454 906 
Q 1884 428 2741 428 
Q 3075 428 3337 486 
Q 3600 544 3809 666 
z
" transform="scale(0.015625)"/>
       <path id="DejaVuSans-65" d="M 3597 1894 
L 3597 1613 
L 953 1613 
Q 991 1019 1311 708 
Q 1631 397 2203 397 
Q 2534 397 2845 478 
Q 3156 559 3463 722 
L 3463 178 
Q 3153 47 2828 -22 
Q 2503 -91 2169 -91 
Q 1331 -91 842 396 
Q 353 884 353 1716 
Q 353 2575 817 3079 
Q 1281 3584 2069 3584 
Q 2775 3584 3186 3129 
Q 3597 2675 3597 1894 
z
M 3022 2063 
Q 3016 2534 2758 2815 
Q 2500 3097 2075 3097 
Q 1594 3097 1305 2825 
Q 1016 2553 972 2059 
L 3022 2063 
z
" transform="scale(0.015625)"/>
       <path id="DejaVuSans-6e" d="M 3513 2113 
L 3513 0 
L 2938 0 
L 2938 2094 
Q 2938 2591 2744 2837 
Q 2550 3084 2163 3084 
Q 1697 3084 1428 2787 
Q 1159 2491 1159 1978 
L 1159 0 
L 581 0 
L 581 3500 
L 1159 3500 
L 1159 2956 
Q 1366 3272 1645 3428 
Q 1925 3584 2291 3584 
Q 2894 3584 3203 3211 
Q 3513 2838 3513 2113 
z
" transform="scale(0.015625)"/>
       <path id="DejaVuSans-72" d="M 2631 2963 
Q 2534 3019 2420 3045 
Q 2306 3072 2169 3072 
Q 1681 3072 1420 2755 
Q 1159 2438 1159 1844 
L 1159 0 
L 581 0 
L 581 3500 
L 1159 3500 
L 1159 2956 
Q 1341 3275 1631 3429 
Q 1922 3584 2338 3584 
Q 2397 3584 2469 3576 
Q 2541 3569 2628 3553 
L 2631 2963 
z
" transform="scale(0.015625)"/>
       <path id="DejaVuSans-61" d="M 2194 1759 
Q 1497 1759 1228 1600 
Q 959 1441 959 1056 
Q 959 750 1161 570 
Q 1363 391 1709 391 
Q 2188 391 2477 730 
Q 2766 1069 2766 1631 
L 2766 1759 
L 2194 1759 
z
M 3341 1997 
L 3341 0 
L 2766 0 
L 2766 531 
Q 2569 213 2275 61 
Q 1981 -91 1556 -91 
Q 1019 -91 701 211 
Q 384 513 384 1019 
Q 384 1609 779 1909 
Q 1175 2209 1959 2209 
L 2766 2209 
L 2766 2266 
Q 2766 2663 2505 2880 
Q 2244 3097 1772 3097 
Q 1472 3097 1187 3025 
Q 903 2953 641 2809 
L 641 3341 
Q 956 3463 1253 3523 
Q 1550 3584 1831 3584 
Q 2591 3584 2966 3190 
Q 3341 2797 3341 1997 
z
" transform="scale(0.015625)"/>
       <path id="DejaVuSans-74" d="M 1172 4494 
L 1172 3500 
L 2356 3500 
L 2356 3053 
L 1172 3053 
L 1172 1153 
Q 1172 725 1289 603 
Q 1406 481 1766 481 
L 2356 481 
L 2356 0 
L 1766 0 
Q 1100 0 847 248 
Q 594 497 594 1153 
L 594 3053 
L 172 3053 
L 172 3500 
L 594 3500 
L 594 4494 
L 1172 4494 
z
" transform="scale(0.015625)"/>
       <path id="DejaVuSans-69" d="M 603 3500 
L 1178 3500 
L 1178 0 
L 603 0 
L 603 3500 
z
M 603 4863 
L 1178 4863 
L 1178 4134 
L 603 4134 
L 603 4863 
z
" transform="scale(0.015625)"/>
       <path id="DejaVuSans-6f" d="M 1959 3097 
Q 1497 3097 1228 2736 
Q 959 2375 959 1747 
Q 959 1119 1226 758 
Q 1494 397 1959 397 
Q 2419 397 2687 759 
Q 2956 1122 2956 1747 
Q 2956 2369 2687 2733 
Q 2419 3097 1959 3097 
z
M 1959 3584 
Q 2709 3584 3137 3096 
Q 3566 2609 3566 1747 
Q 3566 888 3137 398 
Q 2709 -91 1959 -91 
Q 1206 -91 779 398 
Q 353 888 353 1747 
Q 353 2609 779 3096 
Q 1206 3584 1959 3584 
z
" transform="scale(0.015625)"/>
      </defs>
      <use xlink:href="#DejaVuSans-47"/>
      <use xlink:href="#DejaVuSans-65" x="77.490234"/>
      <use xlink:href="#DejaVuSans-6e" x="139.013672"/>
      <use xlink:href="#DejaVuSans-65" x="202.392578"/>
      <use xlink:href="#DejaVuSans-72" x="263.916016"/>
      <use xlink:href="#DejaVuSans-61" x="305.029297"/>
      <use xlink:href="#DejaVuSans-74" x="366.308594"/>
      <use xlink:href="#DejaVuSans-69" x="405.517578"/>
      <use xlink:href="#DejaVuSans-6f" x="433.300781"/>
      <use xlink:href="#DejaVuSans-6e" x="494.482422"/>
     </g>
    </g>
   </g>
   <g id="matplotlib.axis_2">
    <g id="ytick_1">
     <g id="line2d_6">
      <path d="M 60.21 301.677761 
L 337.45 301.677761 
" clip-path="url(#p00eea4afc9)" style="fill: none; stroke: #ffffff; stroke-linecap: round"/>
     </g>
     <g id="text_7">
      <!-- 0 -->
      <g style="fill: #262626" transform="translate(43.71125 305.856902)scale(0.11 -0.11)">
       <use xlink:href="#DejaVuSans-30"/>
      </g>
     </g>
    </g>
    <g id="ytick_2">
     <g id="line2d_7">
      <path d="M 60.21 258.580746 
L 337.45 258.580746 
" clip-path="url(#p00eea4afc9)" style="fill: none; stroke: #ffffff; stroke-linecap: round"/>
     </g>
     <g id="text_8">
      <!-- 50 -->
      <g style="fill: #262626" transform="translate(36.7125 262.759887)scale(0.11 -0.11)">
       <use xlink:href="#DejaVuSans-35"/>
       <use xlink:href="#DejaVuSans-30" x="63.623047"/>
      </g>
     </g>
    </g>
    <g id="ytick_3">
     <g id="line2d_8">
      <path d="M 60.21 215.483731 
L 337.45 215.483731 
" clip-path="url(#p00eea4afc9)" style="fill: none; stroke: #ffffff; stroke-linecap: round"/>
     </g>
     <g id="text_9">
      <!-- 100 -->
      <g style="fill: #262626" transform="translate(29.71375 219.662872)scale(0.11 -0.11)">
       <use xlink:href="#DejaVuSans-31"/>
       <use xlink:href="#DejaVuSans-30" x="63.623047"/>
       <use xlink:href="#DejaVuSans-30" x="127.246094"/>
      </g>
     </g>
    </g>
    <g id="ytick_4">
     <g id="line2d_9">
      <path d="M 60.21 172.386716 
L 337.45 172.386716 
" clip-path="url(#p00eea4afc9)" style="fill: none; stroke: #ffffff; stroke-linecap: round"/>
     </g>
     <g id="text_10">
      <!-- 150 -->
      <g style="fill: #262626" transform="translate(29.71375 176.565857)scale(0.11 -0.11)">
       <use xlink:href="#DejaVuSans-31"/>
       <use xlink:href="#DejaVuSans-35" x="63.623047"/>
       <use xlink:href="#DejaVuSans-30" x="127.246094"/>
      </g>
     </g>
    </g>
    <g id="ytick_5">
     <g id="line2d_10">
      <path d="M 60.21 129.289701 
L 337.45 129.289701 
" clip-path="url(#p00eea4afc9)" style="fill: none; stroke: #ffffff; stroke-linecap: round"/>
     </g>
     <g id="text_11">
      <!-- 200 -->
      <g style="fill: #262626" transform="translate(29.71375 133.468842)scale(0.11 -0.11)">
       <use xlink:href="#DejaVuSans-32"/>
       <use xlink:href="#DejaVuSans-30" x="63.623047"/>
       <use xlink:href="#DejaVuSans-30" x="127.246094"/>
      </g>
     </g>
    </g>
    <g id="ytick_6">
     <g id="line2d_11">
      <path d="M 60.21 86.192687 
L 337.45 86.192687 
" clip-path="url(#p00eea4afc9)" style="fill: none; stroke: #ffffff; stroke-linecap: round"/>
     </g>
     <g id="text_12">
      <!-- 250 -->
      <g style="fill: #262626" transform="translate(29.71375 90.371827)scale(0.11 -0.11)">
       <use xlink:href="#DejaVuSans-32"/>
       <use xlink:href="#DejaVuSans-35" x="63.623047"/>
       <use xlink:href="#DejaVuSans-30" x="127.246094"/>
      </g>
     </g>
    </g>
    <g id="text_13">
     <!-- Fitness -->
     <g style="fill: #262626" transform="translate(23.218125 203.510625)rotate(-90)scale(0.12 -0.12)">
      <defs>
       <path id="DejaVuSans-46" d="M 628 4666 
L 3309 4666 
L 3309 4134 
L 1259 4134 
L 1259 2759 
L 3109 2759 
L 3109 2228 
L 1259 2228 
L 1259 0 
L 628 0 
L 628 4666 
z
" transform="scale(0.015625)"/>
       <path id="DejaVuSans-73" d="M 2834 3397 
L 2834 2853 
Q 2591 2978 2328 3040 
Q 2066 3103 1784 3103 
Q 1356 3103 1142 2972 
Q 928 2841 928 2578 
Q 928 2378 1081 2264 
Q 1234 2150 1697 2047 
L 1894 2003 
Q 2506 1872 2764 1633 
Q 3022 1394 3022 966 
Q 3022 478 2636 193 
Q 2250 -91 1575 -91 
Q 1294 -91 989 -36 
Q 684 19 347 128 
L 347 722 
Q 666 556 975 473 
Q 1284 391 1588 391 
Q 1994 391 2212 530 
Q 2431 669 2431 922 
Q 2431 1156 2273 1281 
Q 2116 1406 1581 1522 
L 1381 1569 
Q 847 1681 609 1914 
Q 372 2147 372 2553 
Q 372 3047 722 3315 
Q 1072 3584 1716 3584 
Q 2034 3584 2315 3537 
Q 2597 3491 2834 3397 
z
" transform="scale(0.015625)"/>
      </defs>
      <use xlink:href="#DejaVuSans-46"/>
      <use xlink:href="#DejaVuSans-69" x="50.269531"/>
      <use xlink:href="#DejaVuSans-74" x="78.052734"/>
      <use xlink:href="#DejaVuSans-6e" x="117.261719"/>
      <use xlink:href="#DejaVuSans-65" x="180.640625"/>
      <use xlink:href="#DejaVuSans-73" x="242.164062"/>
      <use xlink:href="#DejaVuSans-73" x="294.263672"/>
     </g>
    </g>
   </g>
   <g id="PolyCollection_1">
    <defs>
     <path id="m800a8828e1" d="M 72.811818 -235.235485 
L 72.811818 -69.958433 
L 74.078333 -201.188843 
L 75.344847 -203.128209 
L 76.611361 -214.333433 
L 77.877876 -216.703769 
L 79.14439 -223.599291 
L 80.410905 -222.952836 
L 81.677419 -221.659925 
L 82.943933 -227.908993 
L 84.210448 -221.87541 
L 85.476962 -227.693507 
L 86.743476 -227.693507 
L 88.009991 -222.737351 
L 89.276505 -229.632873 
L 90.54302 -222.952836 
L 91.809534 -229.632873 
L 93.076048 -223.383806 
L 94.342563 -230.494813 
L 95.609077 -227.262537 
L 96.875592 -223.814776 
L 98.142106 -223.814776 
L 99.40862 -228.770933 
L 100.675135 -226.185112 
L 101.941649 -228.986418 
L 103.208164 -225.538657 
L 104.474678 -230.710299 
L 105.741192 -229.848358 
L 107.007707 -231.572239 
L 108.274221 -230.710299 
L 109.540735 -233.296119 
L 110.80725 -229.848358 
L 112.073764 -227.047052 
L 113.340279 -223.599291 
L 114.606793 -227.262537 
L 115.873307 -227.262537 
L 117.139822 -229.632873 
L 118.406336 -227.262537 
L 119.672851 -228.986418 
L 120.939365 -227.908993 
L 122.205879 -223.814776 
L 123.472394 -229.632873 
L 124.738908 -229.417388 
L 126.005423 -224.461231 
L 127.271937 -225.538657 
L 128.538451 -225.538657 
L 129.804966 -227.262537 
L 131.07148 -226.831567 
L 132.337995 -231.572239 
L 133.604509 -228.770933 
L 134.871023 -223.814776 
L 136.137538 -230.710299 
L 137.404052 -232.434179 
L 138.670566 -228.124478 
L 139.937081 -226.831567 
L 141.203595 -229.848358 
L 142.47011 -220.15153 
L 143.736624 -218.643134 
L 145.003138 -222.952836 
L 146.269653 -222.737351 
L 147.536167 -229.848358 
L 148.802682 -219.28959 
L 150.069196 -222.737351 
L 151.33571 -225.538657 
L 152.602225 -234.804515 
L 153.868739 -219.505075 
L 155.135254 -228.770933 
L 156.401768 -225.323172 
L 157.668282 -224.676716 
L 158.934797 -230.710299 
L 160.201311 -231.141269 
L 161.467825 -233.942575 
L 162.73434 -232.218694 
L 164.000854 -227.047052 
L 165.267369 -229.848358 
L 166.533883 -230.710299 
L 167.800397 -227.908993 
L 169.066912 -234.804515 
L 170.333426 -232.218694 
L 171.599941 -229.848358 
L 172.866455 -230.710299 
L 174.132969 -228.770933 
L 175.399484 -226.831567 
L 176.665998 -232.865149 
L 177.932513 -226.400597 
L 179.199027 -229.632873 
L 180.465541 -231.356754 
L 181.732056 -228.124478 
L 182.99857 -227.693507 
L 184.265085 -225.538657 
L 185.531599 -226.400597 
L 186.798113 -226.185112 
L 188.064628 -230.710299 
L 189.331142 -232.218694 
L 190.597656 -234.804515 
L 191.864171 -230.925784 
L 193.130685 -225.538657 
L 194.3972 -234.15806 
L 195.663714 -229.632873 
L 196.930228 -228.124478 
L 198.196743 -235.88194 
L 199.463257 -227.047052 
L 200.729772 -226.185112 
L 201.996286 -226.400597 
L 203.2628 -228.986418 
L 204.529315 -226.185112 
L 205.795829 -225.538657 
L 207.062344 -224.676716 
L 208.328858 -220.367015 
L 209.595372 -228.770933 
L 210.861887 -227.908993 
L 212.128401 -231.356754 
L 213.394915 -226.400597 
L 214.66143 -226.185112 
L 215.927944 -234.804515 
L 217.194459 -226.185112 
L 218.460973 -226.185112 
L 219.727487 -229.632873 
L 220.994002 -230.710299 
L 222.260516 -227.908993 
L 223.527031 -229.848358 
L 224.793545 -231.356754 
L 226.060059 -227.262537 
L 227.326574 -228.124478 
L 228.593088 -226.185112 
L 229.859603 -232.218694 
L 231.126117 -228.986418 
L 232.392631 -228.770933 
L 233.659146 -227.908993 
L 234.92566 -226.185112 
L 236.192175 -230.494813 
L 237.458689 -225.538657 
L 238.725203 -226.400597 
L 239.991718 -231.141269 
L 241.258232 -226.400597 
L 242.524746 -233.296119 
L 243.791261 -231.356754 
L 245.057775 -224.676716 
L 246.32429 -233.942575 
L 247.590804 -231.572239 
L 248.857318 -229.632873 
L 250.123833 -229.848358 
L 251.390347 -229.632873 
L 252.656862 -229.848358 
L 253.923376 -232.434179 
L 255.18989 -228.124478 
L 256.456405 -226.185112 
L 257.722919 -222.306381 
L 258.989434 -227.262537 
L 260.255948 -227.047052 
L 261.522462 -227.047052 
L 262.788977 -231.356754 
L 264.055491 -219.505075 
L 265.322005 -229.848358 
L 266.58852 -228.986418 
L 267.855034 -228.986418 
L 269.121549 -229.632873 
L 270.388063 -228.124478 
L 271.654577 -228.770933 
L 272.921092 -228.124478 
L 274.187606 -227.262537 
L 275.454121 -227.047052 
L 276.720635 -230.494813 
L 277.987149 -227.908993 
L 279.253664 -224.676716 
L 280.520178 -230.494813 
L 281.786693 -225.538657 
L 283.053207 -233.72709 
L 284.319721 -229.848358 
L 285.586236 -227.693507 
L 286.85275 -222.952836 
L 288.119265 -232.003209 
L 289.385779 -230.710299 
L 290.652293 -226.185112 
L 291.918808 -225.323172 
L 293.185322 -226.831567 
L 294.451836 -228.770933 
L 295.718351 -227.047052 
L 296.984865 -230.494813 
L 298.25138 -224.676716 
L 299.517894 -231.572239 
L 300.784408 -230.279328 
L 302.050923 -227.262537 
L 303.317437 -228.770933 
L 304.583952 -228.339963 
L 305.850466 -227.262537 
L 307.11698 -226.831567 
L 308.383495 -230.494813 
L 309.650009 -226.185112 
L 310.916524 -228.986418 
L 312.183038 -237.821306 
L 313.449552 -228.770933 
L 314.716067 -227.908993 
L 315.982581 -224.245746 
L 317.249095 -231.572239 
L 318.51561 -228.770933 
L 319.782124 -227.262537 
L 321.048639 -227.693507 
L 322.315153 -231.572239 
L 323.581667 -225.323172 
L 324.848182 -226.400597 
L 324.848182 -266.049851 
L 324.848182 -266.049851 
L 323.581667 -266.049851 
L 322.315153 -266.265336 
L 321.048639 -275.746679 
L 319.782124 -269.497612 
L 318.51561 -274.022799 
L 317.249095 -273.160858 
L 315.982581 -271.436978 
L 314.716067 -272.298918 
L 313.449552 -268.635672 
L 312.183038 -274.884739 
L 310.916524 -272.298918 
L 309.650009 -269.497612 
L 308.383495 -279.840896 
L 307.11698 -270.144067 
L 305.850466 -274.022799 
L 304.583952 -268.635672 
L 303.317437 -277.255075 
L 302.050923 -269.497612 
L 300.784408 -269.497612 
L 299.517894 -263.679515 
L 298.25138 -261.955634 
L 296.984865 -270.575037 
L 295.718351 -271.436978 
L 294.451836 -268.204701 
L 293.185322 -273.160858 
L 291.918808 -271.652463 
L 290.652293 -267.989216 
L 289.385779 -271.221493 
L 288.119265 -266.911791 
L 286.85275 -266.911791 
L 285.586236 -269.497612 
L 284.319721 -266.049851 
L 283.053207 -273.160858 
L 281.786693 -268.635672 
L 280.520178 -270.359552 
L 279.253664 -269.713097 
L 277.987149 -269.713097 
L 276.720635 -266.911791 
L 275.454121 -275.531194 
L 274.187606 -267.773731 
L 272.921092 -274.884739 
L 271.654577 -265.403396 
L 270.388063 -268.851157 
L 269.121549 -272.083433 
L 267.855034 -274.884739 
L 266.58852 -276.393134 
L 265.322005 -272.298918 
L 264.055491 -267.989216 
L 262.788977 -273.160858 
L 261.522462 -269.497612 
L 260.255948 -267.989216 
L 258.989434 -272.298918 
L 257.722919 -266.911791 
L 256.456405 -272.083433 
L 255.18989 -276.393134 
L 253.923376 -273.807313 
L 252.656862 -271.867948 
L 251.390347 -270.359552 
L 250.123833 -270.359552 
L 248.857318 -276.608619 
L 247.590804 -271.436978 
L 246.32429 -275.746679 
L 245.057775 -271.221493 
L 243.791261 -272.729888 
L 242.524746 -267.989216 
L 241.258232 -266.911791 
L 239.991718 -269.497612 
L 238.725203 -269.066642 
L 237.458689 -274.238284 
L 236.192175 -265.18791 
L 234.92566 -267.773731 
L 233.659146 -267.773731 
L 232.392631 -274.884739 
L 231.126117 -264.541455 
L 229.859603 -267.989216 
L 228.593088 -278.117015 
L 227.326574 -266.911791 
L 226.060059 -274.669254 
L 224.793545 -273.807313 
L 223.527031 -271.006007 
L 222.260516 -262.60209 
L 220.994002 -271.221493 
L 219.727487 -272.729888 
L 218.460973 -271.221493 
L 217.194459 -270.790522 
L 215.927944 -266.480821 
L 214.66143 -266.911791 
L 213.394915 -274.022799 
L 212.128401 -274.884739 
L 210.861887 -268.635672 
L 209.595372 -276.393134 
L 208.328858 -269.713097 
L 207.062344 -271.221493 
L 205.795829 -265.403396 
L 204.529315 -268.635672 
L 203.2628 -270.790522 
L 201.996286 -270.575037 
L 200.729772 -267.773731 
L 199.463257 -263.46403 
L 198.196743 -271.221493 
L 196.930228 -266.049851 
L 195.663714 -269.713097 
L 194.3972 -273.160858 
L 193.130685 -267.127276 
L 191.864171 -271.221493 
L 190.597656 -272.083433 
L 189.331142 -275.531194 
L 188.064628 -272.945373 
L 186.798113 -272.945373 
L 185.531599 -272.298918 
L 184.265085 -262.60209 
L 182.99857 -265.18791 
L 181.732056 -270.575037 
L 180.465541 -273.807313 
L 179.199027 -266.911791 
L 177.932513 -264.541455 
L 176.665998 -274.022799 
L 175.399484 -271.221493 
L 174.132969 -270.359552 
L 172.866455 -277.255075 
L 171.599941 -270.790522 
L 170.333426 -272.945373 
L 169.066912 -275.531194 
L 167.800397 -268.635672 
L 166.533883 -270.575037 
L 165.267369 -274.022799 
L 164.000854 -280.271866 
L 162.73434 -271.221493 
L 161.467825 -272.083433 
L 160.201311 -272.729888 
L 158.934797 -268.851157 
L 157.668282 -269.282127 
L 156.401768 -270.359552 
L 155.135254 -272.083433 
L 153.868739 -268.420187 
L 152.602225 -273.160858 
L 151.33571 -267.127276 
L 150.069196 -263.46403 
L 148.802682 -268.635672 
L 147.536167 -274.884739 
L 146.269653 -269.497612 
L 145.003138 -268.635672 
L 143.736624 -264.541455 
L 142.47011 -267.342761 
L 141.203595 -272.298918 
L 139.937081 -274.669254 
L 138.670566 -269.497612 
L 137.404052 -276.608619 
L 136.137538 -266.049851 
L 134.871023 -271.436978 
L 133.604509 -268.635672 
L 132.337995 -270.575037 
L 131.07148 -270.575037 
L 129.804966 -268.635672 
L 128.538451 -268.851157 
L 127.271937 -265.18791 
L 126.005423 -267.342761 
L 124.738908 -267.773731 
L 123.472394 -274.669254 
L 122.205879 -267.989216 
L 120.939365 -273.807313 
L 119.672851 -271.221493 
L 118.406336 -274.884739 
L 117.139822 -266.911791 
L 115.873307 -274.669254 
L 114.606793 -273.376343 
L 113.340279 -268.851157 
L 112.073764 -278.117015 
L 110.80725 -274.884739 
L 109.540735 -268.635672 
L 108.274221 -268.635672 
L 107.007707 -274.022799 
L 105.741192 -267.127276 
L 104.474678 -267.127276 
L 103.208164 -267.773731 
L 101.941649 -262.817575 
L 100.675135 -267.127276 
L 99.40862 -269.713097 
L 98.142106 -264.541455 
L 96.875592 -273.160858 
L 95.609077 -267.989216 
L 94.342563 -275.531194 
L 93.076048 -269.497612 
L 91.809534 -268.635672 
L 90.54302 -267.989216 
L 89.276505 -271.221493 
L 88.009991 -272.083433 
L 86.743476 -275.531194 
L 85.476962 -268.851157 
L 84.210448 -266.265336 
L 82.943933 -272.083433 
L 81.677419 -260.447239 
L 80.410905 -267.773731 
L 79.14439 -264.32597 
L 77.877876 -267.127276 
L 76.611361 -262.817575 
L 75.344847 -252.474291 
L 74.078333 -256.568507 
L 72.811818 -235.235485 
z
" style="stroke: #4c72b0; stroke-opacity: 0.2"/>
    </defs>
    <g clip-path="url(#p00eea4afc9)">
     <use xlink:href="#m800a8828e1" x="0" y="360" style="fill: #4c72b0; fill-opacity: 0.2; stroke: #4c72b0; stroke-opacity: 0.2"/>
    </g>
   </g>
   <g id="PolyCollection_2">
    <defs>
     <path id="m91fcd2e53d" d="M 72.811818 -207.222425 
L 72.811818 -61.77 
L 74.078333 -180.502276 
L 75.344847 -203.990149 
L 76.611361 -209.808246 
L 77.877876 -209.808246 
L 79.14439 -217.565709 
L 80.410905 -221.01347 
L 81.677419 -221.228955 
L 82.943933 -225.323172 
L 84.210448 -216.703769 
L 85.476962 -227.693507 
L 86.743476 -222.952836 
L 88.009991 -220.15153 
L 89.276505 -227.047052 
L 90.54302 -228.986418 
L 91.809534 -218.643134 
L 93.076048 -223.814776 
L 94.342563 -226.831567 
L 95.609077 -218.643134 
L 96.875592 -222.090896 
L 98.142106 -231.572239 
L 99.40862 -228.555448 
L 100.675135 -228.124478 
L 101.941649 -230.710299 
L 103.208164 -224.676716 
L 104.474678 -225.969627 
L 105.741192 -227.262537 
L 107.007707 -229.632873 
L 108.274221 -229.632873 
L 109.540735 -233.080634 
L 110.80725 -223.814776 
L 112.073764 -226.400597 
L 113.340279 -223.383806 
L 114.606793 -225.323172 
L 115.873307 -227.262537 
L 117.139822 -227.047052 
L 118.406336 -225.323172 
L 119.672851 -223.599291 
L 120.939365 -223.599291 
L 122.205879 -228.124478 
L 123.472394 -225.538657 
L 124.738908 -232.218694 
L 126.005423 -228.770933 
L 127.271937 -231.356754 
L 128.538451 -238.467761 
L 129.804966 -233.080634 
L 131.07148 -233.942575 
L 132.337995 -226.185112 
L 133.604509 -226.400597 
L 134.871023 -225.323172 
L 136.137538 -235.666455 
L 137.404052 -221.228955 
L 138.670566 -223.599291 
L 139.937081 -221.87541 
L 141.203595 -226.400597 
L 142.47011 -227.908993 
L 143.736624 -233.296119 
L 145.003138 -225.538657 
L 146.269653 -223.814776 
L 147.536167 -234.15806 
L 148.802682 -228.124478 
L 150.069196 -228.124478 
L 151.33571 -232.003209 
L 152.602225 -227.693507 
L 153.868739 -227.262537 
L 155.135254 -236.528396 
L 156.401768 -236.528396 
L 157.668282 -227.262537 
L 158.934797 -237.605821 
L 160.201311 -231.572239 
L 161.467825 -234.804515 
L 162.73434 -237.390336 
L 164.000854 -230.710299 
L 165.267369 -228.770933 
L 166.533883 -233.942575 
L 167.800397 -232.434179 
L 169.066912 -227.047052 
L 170.333426 -233.080634 
L 171.599941 -233.511604 
L 172.866455 -230.494813 
L 174.132969 -230.710299 
L 175.399484 -238.898731 
L 176.665998 -241.700037 
L 177.932513 -237.821306 
L 179.199027 -240.191642 
L 180.465541 -235.45097 
L 181.732056 -235.88194 
L 182.99857 -234.15806 
L 184.265085 -238.252276 
L 185.531599 -228.124478 
L 186.798113 -231.141269 
L 188.064628 -231.572239 
L 189.331142 -230.710299 
L 190.597656 -235.02 
L 191.864171 -233.942575 
L 193.130685 -237.605821 
L 194.3972 -235.88194 
L 195.663714 -234.58903 
L 196.930228 -233.080634 
L 198.196743 -228.770933 
L 199.463257 -230.710299 
L 200.729772 -228.986418 
L 201.996286 -227.908993 
L 203.2628 -229.632873 
L 204.529315 -230.494813 
L 205.795829 -232.003209 
L 207.062344 -235.02 
L 208.328858 -235.235485 
L 209.595372 -227.262537 
L 210.861887 -231.572239 
L 212.128401 -231.356754 
L 213.394915 -231.356754 
L 214.66143 -233.942575 
L 215.927944 -232.218694 
L 217.194459 -233.296119 
L 218.460973 -239.329701 
L 219.727487 -239.114216 
L 220.994002 -235.88194 
L 222.260516 -236.743881 
L 223.527031 -236.528396 
L 224.793545 -235.88194 
L 226.060059 -239.760672 
L 227.326574 -241.915522 
L 228.593088 -237.390336 
L 229.859603 -230.710299 
L 231.126117 -230.494813 
L 232.392631 -234.804515 
L 233.659146 -231.356754 
L 234.92566 -240.191642 
L 236.192175 -231.141269 
L 237.458689 -233.296119 
L 238.725203 -233.296119 
L 239.991718 -232.434179 
L 241.258232 -231.141269 
L 242.524746 -234.804515 
L 243.791261 -232.218694 
L 245.057775 -234.804515 
L 246.32429 -237.605821 
L 247.590804 -234.15806 
L 248.857318 -234.804515 
L 250.123833 -235.666455 
L 251.390347 -233.942575 
L 252.656862 -237.605821 
L 253.923376 -242.561978 
L 255.18989 -232.434179 
L 256.456405 -237.605821 
L 257.722919 -236.528396 
L 258.989434 -236.743881 
L 260.255948 -241.915522 
L 261.522462 -239.760672 
L 262.788977 -236.31291 
L 264.055491 -233.080634 
L 265.322005 -233.296119 
L 266.58852 -233.942575 
L 267.855034 -236.528396 
L 269.121549 -239.329701 
L 270.388063 -234.804515 
L 271.654577 -230.710299 
L 272.921092 -237.174851 
L 274.187606 -227.908993 
L 275.454121 -232.434179 
L 276.720635 -235.02 
L 277.987149 -236.743881 
L 279.253664 -232.218694 
L 280.520178 -239.760672 
L 281.786693 -228.770933 
L 283.053207 -236.31291 
L 284.319721 -236.31291 
L 285.586236 -227.693507 
L 286.85275 -234.804515 
L 288.119265 -231.572239 
L 289.385779 -231.572239 
L 290.652293 -236.743881 
L 291.918808 -235.02 
L 293.185322 -235.666455 
L 294.451836 -237.174851 
L 295.718351 -234.15806 
L 296.984865 -233.942575 
L 298.25138 -235.02 
L 299.517894 -230.710299 
L 300.784408 -235.666455 
L 302.050923 -233.080634 
L 303.317437 -234.804515 
L 304.583952 -227.262537 
L 305.850466 -233.080634 
L 307.11698 -230.494813 
L 308.383495 -233.942575 
L 309.650009 -238.467761 
L 310.916524 -228.124478 
L 312.183038 -232.865149 
L 313.449552 -236.528396 
L 314.716067 -231.356754 
L 315.982581 -233.080634 
L 317.249095 -233.080634 
L 318.51561 -232.218694 
L 319.782124 -232.434179 
L 321.048639 -234.15806 
L 322.315153 -236.743881 
L 323.581667 -235.666455 
L 324.848182 -230.710299 
L 324.848182 -282.642201 
L 324.848182 -282.642201 
L 323.581667 -284.797052 
L 322.315153 -286.951903 
L 321.048639 -289.322239 
L 319.782124 -285.228022 
L 318.51561 -283.288657 
L 317.249095 -286.736418 
L 315.982581 -284.366082 
L 314.716067 -281.349291 
L 313.449552 -289.322239 
L 312.183038 -288.029328 
L 310.916524 -292.123545 
L 309.650009 -285.228022 
L 308.383495 -287.813843 
L 307.11698 -288.675784 
L 305.850466 -277.255075 
L 304.583952 -280.056381 
L 303.317437 -280.487351 
L 302.050923 -282.426716 
L 300.784408 -279.840896 
L 299.517894 -283.073172 
L 298.25138 -284.581567 
L 296.984865 -286.736418 
L 295.718351 -285.228022 
L 294.451836 -284.150597 
L 293.185322 -291.47709 
L 291.918808 -283.504142 
L 290.652293 -280.271866 
L 289.385779 -283.504142 
L 288.119265 -280.918321 
L 286.85275 -280.702836 
L 285.586236 -282.426716 
L 284.319721 -282.642201 
L 283.053207 -286.305448 
L 281.786693 -279.840896 
L 280.520178 -283.504142 
L 279.253664 -286.951903 
L 277.987149 -285.012537 
L 276.720635 -283.288657 
L 275.454121 -283.288657 
L 274.187606 -281.780261 
L 272.921092 -283.288657 
L 271.654577 -283.288657 
L 270.388063 -283.288657 
L 269.121549 -283.288657 
L 267.855034 -279.840896 
L 266.58852 -283.288657 
L 265.322005 -283.288657 
L 264.055491 -280.918321 
L 262.788977 -280.487351 
L 261.522462 -282.642201 
L 260.255948 -283.288657 
L 258.989434 -283.288657 
L 257.722919 -281.564776 
L 256.456405 -279.840896 
L 255.18989 -279.840896 
L 253.923376 -279.840896 
L 252.656862 -282.426716 
L 251.390347 -278.117015 
L 250.123833 -281.780261 
L 248.857318 -283.288657 
L 247.590804 -279.840896 
L 246.32429 -282.642201 
L 245.057775 -283.288657 
L 243.791261 -283.288657 
L 242.524746 -283.288657 
L 241.258232 -283.288657 
L 239.991718 -283.288657 
L 238.725203 -283.288657 
L 237.458689 -283.288657 
L 236.192175 -283.288657 
L 234.92566 -283.504142 
L 233.659146 -283.288657 
L 232.392631 -283.288657 
L 231.126117 -283.288657 
L 229.859603 -281.780261 
L 228.593088 -283.288657 
L 227.326574 -283.288657 
L 226.060059 -283.288657 
L 224.793545 -281.995746 
L 223.527031 -283.288657 
L 222.260516 -283.288657 
L 220.994002 -283.288657 
L 219.727487 -283.288657 
L 218.460973 -283.288657 
L 217.194459 -283.288657 
L 215.927944 -283.288657 
L 214.66143 -283.288657 
L 213.394915 -279.840896 
L 212.128401 -283.288657 
L 210.861887 -283.288657 
L 209.595372 -283.288657 
L 208.328858 -283.288657 
L 207.062344 -282.642201 
L 205.795829 -283.288657 
L 204.529315 -283.288657 
L 203.2628 -283.288657 
L 201.996286 -283.288657 
L 200.729772 -283.288657 
L 199.463257 -283.288657 
L 198.196743 -279.840896 
L 196.930228 -283.288657 
L 195.663714 -283.288657 
L 194.3972 -283.288657 
L 193.130685 -283.288657 
L 191.864171 -283.288657 
L 190.597656 -283.288657 
L 189.331142 -283.288657 
L 188.064628 -283.288657 
L 186.798113 -283.288657 
L 185.531599 -283.288657 
L 184.265085 -283.288657 
L 182.99857 -283.288657 
L 181.732056 -283.288657 
L 180.465541 -283.288657 
L 179.199027 -283.288657 
L 177.932513 -283.288657 
L 176.665998 -283.288657 
L 175.399484 -283.288657 
L 174.132969 -283.288657 
L 172.866455 -283.288657 
L 171.599941 -280.918321 
L 170.333426 -283.288657 
L 169.066912 -283.288657 
L 167.800397 -283.288657 
L 166.533883 -283.288657 
L 165.267369 -283.288657 
L 164.000854 -282.642201 
L 162.73434 -283.288657 
L 161.467825 -283.288657 
L 160.201311 -283.288657 
L 158.934797 -283.288657 
L 157.668282 -283.288657 
L 156.401768 -283.288657 
L 155.135254 -283.288657 
L 153.868739 -279.840896 
L 152.602225 -283.288657 
L 151.33571 -283.288657 
L 150.069196 -280.918321 
L 148.802682 -280.056381 
L 147.536167 -280.271866 
L 146.269653 -278.978955 
L 145.003138 -280.271866 
L 143.736624 -278.117015 
L 142.47011 -278.3325 
L 141.203595 -272.298918 
L 139.937081 -269.713097 
L 138.670566 -274.884739 
L 137.404052 -274.669254 
L 136.137538 -274.238284 
L 134.871023 -273.807313 
L 133.604509 -278.978955 
L 132.337995 -279.840896 
L 131.07148 -274.022799 
L 129.804966 -274.884739 
L 128.538451 -281.780261 
L 127.271937 -277.47056 
L 126.005423 -275.746679 
L 124.738908 -280.918321 
L 123.472394 -268.635672 
L 122.205879 -278.3325 
L 120.939365 -275.746679 
L 119.672851 -271.436978 
L 118.406336 -270.359552 
L 117.139822 -274.884739 
L 115.873307 -273.376343 
L 114.606793 -267.127276 
L 113.340279 -272.298918 
L 112.073764 -272.729888 
L 110.80725 -268.635672 
L 109.540735 -271.436978 
L 108.274221 -279.409925 
L 107.007707 -277.255075 
L 105.741192 -272.945373 
L 104.474678 -275.100224 
L 103.208164 -273.160858 
L 101.941649 -274.022799 
L 100.675135 -269.066642 
L 99.40862 -272.298918 
L 98.142106 -271.221493 
L 96.875592 -267.989216 
L 95.609077 -274.238284 
L 94.342563 -266.049851 
L 93.076048 -268.851157 
L 91.809534 -273.807313 
L 90.54302 -267.989216 
L 89.276505 -272.298918 
L 88.009991 -266.049851 
L 86.743476 -277.47056 
L 85.476962 -264.32597 
L 84.210448 -274.884739 
L 82.943933 -274.884739 
L 81.677419 -272.298918 
L 80.410905 -263.46403 
L 79.14439 -265.834366 
L 77.877876 -266.911791 
L 76.611361 -260.231754 
L 75.344847 -265.18791 
L 74.078333 -252.474291 
L 72.811818 -207.222425 
z
" style="stroke: #dd8452; stroke-opacity: 0.2"/>
    </defs>
    <g clip-path="url(#p00eea4afc9)">
     <use xlink:href="#m91fcd2e53d" x="0" y="360" style="fill: #dd8452; fill-opacity: 0.2; stroke: #dd8452; stroke-opacity: 0.2"/>
    </g>
   </g>
   <g id="line2d_12">
    <path d="M 72.811818 165.060224 
L 74.078333 128.858731 
L 75.344847 125.84194 
L 76.611361 121.532239 
L 77.877876 115.498657 
L 79.14439 115.498657 
L 80.410905 112.912836 
L 81.677419 116.360597 
L 82.943933 107.741194 
L 84.210448 116.360597 
L 85.476962 113.343806 
L 86.743476 110.757985 
L 88.009991 108.603134 
L 89.276505 112.912836 
L 90.54302 115.067687 
L 91.809534 109.465075 
L 93.076048 115.929627 
L 94.342563 106.448284 
L 95.609077 113.774776 
L 96.875592 109.465075 
L 98.142106 116.360597 
L 99.40862 113.774776 
L 100.675135 114.636716 
L 103.208164 114.636716 
L 104.474678 109.465075 
L 105.741192 112.912836 
L 107.007707 106.879254 
L 108.274221 108.603134 
L 109.540735 109.896045 
L 110.80725 110.757985 
L 112.073764 103.000522 
L 113.340279 112.050896 
L 114.606793 113.343806 
L 115.873307 110.327015 
L 117.139822 114.636716 
L 118.406336 110.327015 
L 119.672851 107.741194 
L 120.939365 109.465075 
L 122.205879 114.636716 
L 123.472394 108.603134 
L 124.738908 112.481866 
L 127.271937 114.205746 
L 128.538451 114.636716 
L 129.804966 111.188955 
L 131.07148 110.757985 
L 136.137538 112.481866 
L 137.404052 105.155373 
L 138.670566 109.465075 
L 139.937081 112.912836 
L 141.203595 110.757985 
L 142.47011 112.912836 
L 143.736624 120.670299 
L 145.003138 115.498657 
L 146.269653 116.360597 
L 147.536167 107.741194 
L 148.802682 113.343806 
L 151.33571 119.377388 
L 152.602225 111.619925 
L 153.868739 113.343806 
L 155.135254 112.050896 
L 156.401768 109.896045 
L 157.668282 111.619925 
L 158.934797 109.896045 
L 161.467825 107.310224 
L 162.73434 106.879254 
L 164.000854 107.741194 
L 165.267369 106.879254 
L 166.533883 107.310224 
L 167.800397 111.188955 
L 169.066912 102.138582 
L 170.333426 109.465075 
L 171.599941 112.050896 
L 172.866455 107.741194 
L 174.132969 107.741194 
L 175.399484 110.327015 
L 176.665998 105.155373 
L 177.932513 116.360597 
L 179.199027 112.050896 
L 180.465541 104.293433 
L 181.732056 114.205746 
L 182.99857 111.188955 
L 184.265085 114.205746 
L 185.531599 108.172164 
L 186.798113 109.034104 
L 188.064628 109.465075 
L 189.331142 109.465075 
L 190.597656 107.310224 
L 191.864171 107.310224 
L 193.130685 113.343806 
L 194.3972 106.017313 
L 195.663714 109.034104 
L 196.930228 114.205746 
L 198.196743 106.879254 
L 199.463257 110.327015 
L 200.729772 112.481866 
L 201.996286 109.465075 
L 203.2628 109.465075 
L 205.795829 116.360597 
L 207.062344 110.757985 
L 208.328858 117.222537 
L 209.595372 107.741194 
L 210.861887 111.188955 
L 212.128401 108.172164 
L 213.394915 109.896045 
L 214.66143 112.050896 
L 215.927944 111.188955 
L 217.194459 109.896045 
L 218.460973 112.481866 
L 220.994002 109.034104 
L 222.260516 117.222537 
L 223.527031 111.188955 
L 224.793545 109.896045 
L 226.060059 107.741194 
L 227.326574 112.481866 
L 228.593088 106.879254 
L 229.859603 111.188955 
L 231.126117 115.067687 
L 232.392631 110.327015 
L 233.659146 112.050896 
L 234.92566 115.067687 
L 236.192175 112.050896 
L 237.458689 108.172164 
L 238.725203 110.757985 
L 239.991718 107.741194 
L 241.258232 111.619925 
L 242.524746 112.050896 
L 243.791261 111.188955 
L 245.057775 112.050896 
L 246.32429 108.172164 
L 247.590804 107.310224 
L 248.857318 107.741194 
L 250.123833 112.481866 
L 251.390347 109.465075 
L 252.656862 104.293433 
L 253.923376 108.603134 
L 255.18989 110.757985 
L 256.456405 113.774776 
L 257.722919 111.188955 
L 258.989434 110.327015 
L 260.255948 108.603134 
L 261.522462 111.188955 
L 262.788977 110.327015 
L 264.055491 117.222537 
L 265.322005 109.034104 
L 266.58852 106.879254 
L 267.855034 109.034104 
L 269.121549 109.034104 
L 270.388063 112.481866 
L 271.654577 112.912836 
L 272.921092 104.724403 
L 274.187606 109.896045 
L 275.454121 110.757985 
L 276.720635 116.360597 
L 277.987149 107.741194 
L 279.253664 111.188955 
L 280.520178 106.879254 
L 281.786693 114.636716 
L 283.053207 108.172164 
L 284.319721 113.343806 
L 285.586236 108.172164 
L 286.85275 109.896045 
L 288.119265 107.741194 
L 289.385779 107.310224 
L 290.652293 111.188955 
L 291.918808 112.912836 
L 293.185322 111.188955 
L 294.451836 108.603134 
L 295.718351 113.774776 
L 296.984865 109.465075 
L 298.25138 118.084478 
L 299.517894 111.188955 
L 300.784408 109.465075 
L 302.050923 112.050896 
L 303.317437 110.327015 
L 304.583952 115.929627 
L 305.850466 109.465075 
L 307.11698 115.929627 
L 308.383495 106.017313 
L 309.650009 116.360597 
L 310.916524 109.896045 
L 312.183038 106.448284 
L 313.449552 111.619925 
L 314.716067 109.465075 
L 315.982581 113.343806 
L 317.249095 109.034104 
L 318.51561 112.050896 
L 319.782124 114.205746 
L 321.048639 110.757985 
L 322.315153 111.188955 
L 323.581667 113.343806 
L 324.848182 111.188955 
L 324.848182 111.188955 
" clip-path="url(#p00eea4afc9)" style="fill: none; stroke: #4c72b0; stroke-width: 1.5; stroke-linecap: round"/>
   </g>
   <g id="line2d_13">
    <path d="M 72.811818 264.183358 
L 74.078333 138.771045 
L 75.344847 112.481866 
L 76.611361 125.41097 
L 77.877876 116.791567 
L 79.14439 115.067687 
L 80.410905 115.067687 
L 81.677419 115.498657 
L 82.943933 110.327015 
L 84.210448 118.946418 
L 85.476962 112.050896 
L 86.743476 109.896045 
L 88.009991 115.929627 
L 89.276505 109.896045 
L 90.54302 113.343806 
L 91.809534 116.360597 
L 93.076048 115.498657 
L 94.342563 112.050896 
L 95.609077 118.084478 
L 96.875592 117.653507 
L 98.142106 113.774776 
L 99.40862 112.050896 
L 100.675135 106.879254 
L 101.941649 111.188955 
L 103.208164 118.084478 
L 104.474678 111.188955 
L 105.741192 109.034104 
L 107.007707 104.293433 
L 108.274221 105.586343 
L 109.540735 107.741194 
L 110.80725 113.343806 
L 112.073764 113.774776 
L 113.340279 108.172164 
L 114.606793 109.465075 
L 115.873307 109.034104 
L 117.139822 107.741194 
L 118.406336 110.327015 
L 119.672851 110.757985 
L 120.939365 109.034104 
L 122.205879 109.896045 
L 123.472394 112.912836 
L 124.738908 106.017313 
L 126.005423 106.017313 
L 127.271937 104.724403 
L 128.538451 101.707612 
L 129.804966 107.741194 
L 131.07148 106.017313 
L 132.337995 109.465075 
L 133.604509 109.465075 
L 134.871023 111.188955 
L 136.137538 106.017313 
L 137.404052 110.327015 
L 138.670566 110.757985 
L 139.937081 112.481866 
L 141.203595 109.465075 
L 142.47011 107.310224 
L 143.736624 109.034104 
L 145.003138 110.327015 
L 146.269653 109.896045 
L 147.536167 107.741194 
L 148.802682 111.619925 
L 150.069196 106.879254 
L 151.33571 103.862463 
L 152.602225 103.862463 
L 153.868739 107.741194 
L 155.135254 100.845672 
L 156.401768 102.569552 
L 157.668282 103.862463 
L 158.934797 104.293433 
L 160.201311 107.741194 
L 161.467825 100.845672 
L 162.73434 98.690821 
L 164.000854 101.707612 
L 165.267369 106.017313 
L 166.533883 103.862463 
L 167.800397 103.431493 
L 169.066912 106.448284 
L 170.333426 102.138582 
L 171.599941 99.983731 
L 172.866455 96.53597 
L 174.132969 109.034104 
L 175.399484 94.81209 
L 176.665998 92.657239 
L 177.932513 95.67403 
L 179.199027 103.000522 
L 180.465541 102.569552 
L 181.732056 100.845672 
L 182.99857 102.569552 
L 184.265085 99.983731 
L 185.531599 108.172164 
L 186.798113 103.862463 
L 188.064628 104.724403 
L 190.597656 103.862463 
L 191.864171 97.828881 
L 193.130685 96.96694 
L 194.3972 102.569552 
L 195.663714 105.155373 
L 196.930228 96.53597 
L 198.196743 104.293433 
L 199.463257 103.000522 
L 200.729772 104.724403 
L 201.996286 98.259851 
L 203.2628 101.276642 
L 204.529315 109.034104 
L 205.795829 99.552761 
L 207.062344 104.293433 
L 208.328858 98.259851 
L 209.595372 102.138582 
L 210.861887 103.862463 
L 212.128401 98.259851 
L 213.394915 106.879254 
L 214.66143 101.707612 
L 215.927944 101.707612 
L 218.460973 96.53597 
L 219.727487 99.121791 
L 220.994002 99.983731 
L 222.260516 100.414701 
L 223.527031 104.724403 
L 224.793545 105.155373 
L 226.060059 96.105 
L 227.326574 96.105 
L 228.593088 93.950149 
L 229.859603 99.983731 
L 231.126117 98.259851 
L 232.392631 100.414701 
L 233.659146 105.155373 
L 234.92566 91.795299 
L 236.192175 100.845672 
L 237.458689 103.000522 
L 238.725203 101.707612 
L 239.991718 105.155373 
L 241.258232 100.845672 
L 242.524746 99.552761 
L 243.791261 100.845672 
L 245.057775 96.53597 
L 246.32429 97.39791 
L 247.590804 99.121791 
L 248.857318 104.724403 
L 250.123833 102.138582 
L 251.390347 105.586343 
L 252.656862 97.828881 
L 253.923376 97.828881 
L 255.18989 103.431493 
L 256.456405 101.707612 
L 257.722919 98.690821 
L 258.989434 100.414701 
L 260.255948 95.67403 
L 261.522462 98.259851 
L 262.788977 101.707612 
L 264.055491 102.138582 
L 265.322005 99.121791 
L 266.58852 96.96694 
L 267.855034 104.724403 
L 269.121549 96.53597 
L 270.388063 101.276642 
L 271.654577 97.39791 
L 272.921092 96.53597 
L 274.187606 101.276642 
L 275.454121 96.105 
L 276.720635 99.552761 
L 277.987149 98.690821 
L 279.253664 105.155373 
L 280.520178 99.983731 
L 281.786693 106.017313 
L 283.053207 99.983731 
L 284.319721 103.431493 
L 286.85275 99.983731 
L 288.119265 100.845672 
L 289.385779 104.724403 
L 290.652293 102.569552 
L 291.918808 98.259851 
L 293.185322 94.381119 
L 294.451836 94.81209 
L 295.718351 105.155373 
L 296.984865 100.845672 
L 298.25138 102.138582 
L 299.517894 98.690821 
L 300.784408 107.741194 
L 302.050923 99.552761 
L 303.317437 101.707612 
L 304.583952 108.603134 
L 305.850466 105.586343 
L 307.11698 96.96694 
L 308.383495 99.552761 
L 309.650009 98.690821 
L 310.916524 99.983731 
L 312.183038 101.707612 
L 313.449552 95.67403 
L 314.716067 107.741194 
L 315.982581 103.000522 
L 317.249095 109.034104 
L 318.51561 101.276642 
L 319.782124 103.000522 
L 321.048639 103.431493 
L 322.315153 100.414701 
L 323.581667 104.293433 
L 324.848182 104.724403 
L 324.848182 104.724403 
" clip-path="url(#p00eea4afc9)" style="fill: none; stroke: #dd8452; stroke-width: 1.5; stroke-linecap: round"/>
   </g>
   <g id="line2d_14"/>
   <g id="line2d_15"/>
   <g id="patch_3">
    <path d="M 60.21 309.78 
L 60.21 55.68 
" style="fill: none; stroke: #ffffff; stroke-width: 1.25; stroke-linejoin: miter; stroke-linecap: square"/>
   </g>
   <g id="patch_4">
    <path d="M 337.45 309.78 
L 337.45 55.68 
" style="fill: none; stroke: #ffffff; stroke-width: 1.25; stroke-linejoin: miter; stroke-linecap: square"/>
   </g>
   <g id="patch_5">
    <path d="M 60.21 309.78 
L 337.45 309.78 
" style="fill: none; stroke: #ffffff; stroke-width: 1.25; stroke-linejoin: miter; stroke-linecap: square"/>
   </g>
   <g id="patch_6">
    <path d="M 60.21 55.68 
L 337.45 55.68 
" style="fill: none; stroke: #ffffff; stroke-width: 1.25; stroke-linejoin: miter; stroke-linecap: square"/>
   </g>
   <g id="text_14">
    <!-- Median By Generation -->
    <g style="fill: #262626" transform="translate(132.052812 49.68)scale(0.12 -0.12)">
     <defs>
      <path id="DejaVuSans-4d" d="M 628 4666 
L 1569 4666 
L 2759 1491 
L 3956 4666 
L 4897 4666 
L 4897 0 
L 4281 0 
L 4281 4097 
L 3078 897 
L 2444 897 
L 1241 4097 
L 1241 0 
L 628 0 
L 628 4666 
z
" transform="scale(0.015625)"/>
      <path id="DejaVuSans-64" d="M 2906 2969 
L 2906 4863 
L 3481 4863 
L 3481 0 
L 2906 0 
L 2906 525 
Q 2725 213 2448 61 
Q 2172 -91 1784 -91 
Q 1150 -91 751 415 
Q 353 922 353 1747 
Q 353 2572 751 3078 
Q 1150 3584 1784 3584 
Q 2172 3584 2448 3432 
Q 2725 3281 2906 2969 
z
M 947 1747 
Q 947 1113 1208 752 
Q 1469 391 1925 391 
Q 2381 391 2643 752 
Q 2906 1113 2906 1747 
Q 2906 2381 2643 2742 
Q 2381 3103 1925 3103 
Q 1469 3103 1208 2742 
Q 947 2381 947 1747 
z
" transform="scale(0.015625)"/>
      <path id="DejaVuSans-20" transform="scale(0.015625)"/>
      <path id="DejaVuSans-42" d="M 1259 2228 
L 1259 519 
L 2272 519 
Q 2781 519 3026 730 
Q 3272 941 3272 1375 
Q 3272 1813 3026 2020 
Q 2781 2228 2272 2228 
L 1259 2228 
z
M 1259 4147 
L 1259 2741 
L 2194 2741 
Q 2656 2741 2882 2914 
Q 3109 3088 3109 3444 
Q 3109 3797 2882 3972 
Q 2656 4147 2194 4147 
L 1259 4147 
z
M 628 4666 
L 2241 4666 
Q 2963 4666 3353 4366 
Q 3744 4066 3744 3513 
Q 3744 3084 3544 2831 
Q 3344 2578 2956 2516 
Q 3422 2416 3680 2098 
Q 3938 1781 3938 1306 
Q 3938 681 3513 340 
Q 3088 0 2303 0 
L 628 0 
L 628 4666 
z
" transform="scale(0.015625)"/>
      <path id="DejaVuSans-79" d="M 2059 -325 
Q 1816 -950 1584 -1140 
Q 1353 -1331 966 -1331 
L 506 -1331 
L 506 -850 
L 844 -850 
Q 1081 -850 1212 -737 
Q 1344 -625 1503 -206 
L 1606 56 
L 191 3500 
L 800 3500 
L 1894 763 
L 2988 3500 
L 3597 3500 
L 2059 -325 
z
" transform="scale(0.015625)"/>
     </defs>
     <use xlink:href="#DejaVuSans-4d"/>
     <use xlink:href="#DejaVuSans-65" x="86.279297"/>
     <use xlink:href="#DejaVuSans-64" x="147.802734"/>
     <use xlink:href="#DejaVuSans-69" x="211.279297"/>
     <use xlink:href="#DejaVuSans-61" x="239.0625"/>
     <use xlink:href="#DejaVuSans-6e" x="300.341797"/>
     <use xlink:href="#DejaVuSans-20" x="363.720703"/>
     <use xlink:href="#DejaVuSans-42" x="395.507812"/>
     <use xlink:href="#DejaVuSans-79" x="464.111328"/>
     <use xlink:href="#DejaVuSans-20" x="523.291016"/>
     <use xlink:href="#DejaVuSans-47" x="555.078125"/>
     <use xlink:href="#DejaVuSans-65" x="632.568359"/>
     <use xlink:href="#DejaVuSans-6e" x="694.091797"/>
     <use xlink:href="#DejaVuSans-65" x="757.470703"/>
     <use xlink:href="#DejaVuSans-72" x="818.994141"/>
     <use xlink:href="#DejaVuSans-61" x="860.107422"/>
     <use xlink:href="#DejaVuSans-74" x="921.386719"/>
     <use xlink:href="#DejaVuSans-69" x="960.595703"/>
     <use xlink:href="#DejaVuSans-6f" x="988.378906"/>
     <use xlink:href="#DejaVuSans-6e" x="1049.560547"/>
    </g>
   </g>
   <g id="legend_1">
    <g id="text_15">
     <!-- GenomeConfig -->
     <g style="fill: #262626" transform="translate(383.545078 169.895312)scale(0.12 -0.12)">
      <defs>
       <path id="DejaVuSans-6d" d="M 3328 2828 
Q 3544 3216 3844 3400 
Q 4144 3584 4550 3584 
Q 5097 3584 5394 3201 
Q 5691 2819 5691 2113 
L 5691 0 
L 5113 0 
L 5113 2094 
Q 5113 2597 4934 2840 
Q 4756 3084 4391 3084 
Q 3944 3084 3684 2787 
Q 3425 2491 3425 1978 
L 3425 0 
L 2847 0 
L 2847 2094 
Q 2847 2600 2669 2842 
Q 2491 3084 2119 3084 
Q 1678 3084 1418 2786 
Q 1159 2488 1159 1978 
L 1159 0 
L 581 0 
L 581 3500 
L 1159 3500 
L 1159 2956 
Q 1356 3278 1631 3431 
Q 1906 3584 2284 3584 
Q 2666 3584 2933 3390 
Q 3200 3197 3328 2828 
z
" transform="scale(0.015625)"/>
       <path id="DejaVuSans-43" d="M 4122 4306 
L 4122 3641 
Q 3803 3938 3442 4084 
Q 3081 4231 2675 4231 
Q 1875 4231 1450 3742 
Q 1025 3253 1025 2328 
Q 1025 1406 1450 917 
Q 1875 428 2675 428 
Q 3081 428 3442 575 
Q 3803 722 4122 1019 
L 4122 359 
Q 3791 134 3420 21 
Q 3050 -91 2638 -91 
Q 1578 -91 968 557 
Q 359 1206 359 2328 
Q 359 3453 968 4101 
Q 1578 4750 2638 4750 
Q 3056 4750 3426 4639 
Q 3797 4528 4122 4306 
z
" transform="scale(0.015625)"/>
       <path id="DejaVuSans-66" d="M 2375 4863 
L 2375 4384 
L 1825 4384 
Q 1516 4384 1395 4259 
Q 1275 4134 1275 3809 
L 1275 3500 
L 2222 3500 
L 2222 3053 
L 1275 3053 
L 1275 0 
L 697 0 
L 697 3053 
L 147 3053 
L 147 3500 
L 697 3500 
L 697 3744 
Q 697 4328 969 4595 
Q 1241 4863 1831 4863 
L 2375 4863 
z
" transform="scale(0.015625)"/>
       <path id="DejaVuSans-67" d="M 2906 1791 
Q 2906 2416 2648 2759 
Q 2391 3103 1925 3103 
Q 1463 3103 1205 2759 
Q 947 2416 947 1791 
Q 947 1169 1205 825 
Q 1463 481 1925 481 
Q 2391 481 2648 825 
Q 2906 1169 2906 1791 
z
M 3481 434 
Q 3481 -459 3084 -895 
Q 2688 -1331 1869 -1331 
Q 1566 -1331 1297 -1286 
Q 1028 -1241 775 -1147 
L 775 -588 
Q 1028 -725 1275 -790 
Q 1522 -856 1778 -856 
Q 2344 -856 2625 -561 
Q 2906 -266 2906 331 
L 2906 616 
Q 2728 306 2450 153 
Q 2172 0 1784 0 
Q 1141 0 747 490 
Q 353 981 353 1791 
Q 353 2603 747 3093 
Q 1141 3584 1784 3584 
Q 2172 3584 2450 3431 
Q 2728 3278 2906 2969 
L 2906 3500 
L 3481 3500 
L 3481 434 
z
" transform="scale(0.015625)"/>
      </defs>
      <use xlink:href="#DejaVuSans-47"/>
      <use xlink:href="#DejaVuSans-65" x="77.490234"/>
      <use xlink:href="#DejaVuSans-6e" x="139.013672"/>
      <use xlink:href="#DejaVuSans-6f" x="202.392578"/>
      <use xlink:href="#DejaVuSans-6d" x="263.574219"/>
      <use xlink:href="#DejaVuSans-65" x="360.986328"/>
      <use xlink:href="#DejaVuSans-43" x="422.509766"/>
      <use xlink:href="#DejaVuSans-6f" x="492.333984"/>
      <use xlink:href="#DejaVuSans-6e" x="553.515625"/>
      <use xlink:href="#DejaVuSans-66" x="616.894531"/>
      <use xlink:href="#DejaVuSans-69" x="652.099609"/>
      <use xlink:href="#DejaVuSans-67" x="679.882812"/>
     </g>
    </g>
    <g id="line2d_16">
     <path d="M 347.35 182.399219 
L 358.35 182.399219 
L 369.35 182.399219 
" style="fill: none; stroke: #4c72b0; stroke-width: 1.5; stroke-linecap: round"/>
    </g>
    <g id="text_16">
     <!-- Control -->
     <g style="fill: #262626" transform="translate(378.15 186.249219)scale(0.11 -0.11)">
      <defs>
       <path id="DejaVuSans-6c" d="M 603 4863 
L 1178 4863 
L 1178 0 
L 603 0 
L 603 4863 
z
" transform="scale(0.015625)"/>
      </defs>
      <use xlink:href="#DejaVuSans-43"/>
      <use xlink:href="#DejaVuSans-6f" x="69.824219"/>
      <use xlink:href="#DejaVuSans-6e" x="131.005859"/>
      <use xlink:href="#DejaVuSans-74" x="194.384766"/>
      <use xlink:href="#DejaVuSans-72" x="233.59375"/>
      <use xlink:href="#DejaVuSans-6f" x="272.457031"/>
      <use xlink:href="#DejaVuSans-6c" x="333.638672"/>
     </g>
    </g>
    <g id="line2d_17">
     <path d="M 347.35 198.545156 
L 358.35 198.545156 
L 369.35 198.545156 
" style="fill: none; stroke: #dd8452; stroke-width: 1.5; stroke-linecap: round"/>
    </g>
    <g id="text_17">
     <!-- No Vector x Global Only -->
     <g style="fill: #262626" transform="translate(378.15 202.395156)scale(0.11 -0.11)">
      <defs>
       <path id="DejaVuSans-4e" d="M 628 4666 
L 1478 4666 
L 3547 763 
L 3547 4666 
L 4159 4666 
L 4159 0 
L 3309 0 
L 1241 3903 
L 1241 0 
L 628 0 
L 628 4666 
z
" transform="scale(0.015625)"/>
       <path id="DejaVuSans-56" d="M 1831 0 
L 50 4666 
L 709 4666 
L 2188 738 
L 3669 4666 
L 4325 4666 
L 2547 0 
L 1831 0 
z
" transform="scale(0.015625)"/>
       <path id="DejaVuSans-63" d="M 3122 3366 
L 3122 2828 
Q 2878 2963 2633 3030 
Q 2388 3097 2138 3097 
Q 1578 3097 1268 2742 
Q 959 2388 959 1747 
Q 959 1106 1268 751 
Q 1578 397 2138 397 
Q 2388 397 2633 464 
Q 2878 531 3122 666 
L 3122 134 
Q 2881 22 2623 -34 
Q 2366 -91 2075 -91 
Q 1284 -91 818 406 
Q 353 903 353 1747 
Q 353 2603 823 3093 
Q 1294 3584 2113 3584 
Q 2378 3584 2631 3529 
Q 2884 3475 3122 3366 
z
" transform="scale(0.015625)"/>
       <path id="DejaVuSans-78" d="M 3513 3500 
L 2247 1797 
L 3578 0 
L 2900 0 
L 1881 1375 
L 863 0 
L 184 0 
L 1544 1831 
L 300 3500 
L 978 3500 
L 1906 2253 
L 2834 3500 
L 3513 3500 
z
" transform="scale(0.015625)"/>
       <path id="DejaVuSans-62" d="M 3116 1747 
Q 3116 2381 2855 2742 
Q 2594 3103 2138 3103 
Q 1681 3103 1420 2742 
Q 1159 2381 1159 1747 
Q 1159 1113 1420 752 
Q 1681 391 2138 391 
Q 2594 391 2855 752 
Q 3116 1113 3116 1747 
z
M 1159 2969 
Q 1341 3281 1617 3432 
Q 1894 3584 2278 3584 
Q 2916 3584 3314 3078 
Q 3713 2572 3713 1747 
Q 3713 922 3314 415 
Q 2916 -91 2278 -91 
Q 1894 -91 1617 61 
Q 1341 213 1159 525 
L 1159 0 
L 581 0 
L 581 4863 
L 1159 4863 
L 1159 2969 
z
" transform="scale(0.015625)"/>
       <path id="DejaVuSans-4f" d="M 2522 4238 
Q 1834 4238 1429 3725 
Q 1025 3213 1025 2328 
Q 1025 1447 1429 934 
Q 1834 422 2522 422 
Q 3209 422 3611 934 
Q 4013 1447 4013 2328 
Q 4013 3213 3611 3725 
Q 3209 4238 2522 4238 
z
M 2522 4750 
Q 3503 4750 4090 4092 
Q 4678 3434 4678 2328 
Q 4678 1225 4090 567 
Q 3503 -91 2522 -91 
Q 1538 -91 948 565 
Q 359 1222 359 2328 
Q 359 3434 948 4092 
Q 1538 4750 2522 4750 
z
" transform="scale(0.015625)"/>
      </defs>
      <use xlink:href="#DejaVuSans-4e"/>
      <use xlink:href="#DejaVuSans-6f" x="74.804688"/>
      <use xlink:href="#DejaVuSans-20" x="135.986328"/>
      <use xlink:href="#DejaVuSans-56" x="167.773438"/>
      <use xlink:href="#DejaVuSans-65" x="228.431641"/>
      <use xlink:href="#DejaVuSans-63" x="289.955078"/>
      <use xlink:href="#DejaVuSans-74" x="344.935547"/>
      <use xlink:href="#DejaVuSans-6f" x="384.144531"/>
      <use xlink:href="#DejaVuSans-72" x="445.326172"/>
      <use xlink:href="#DejaVuSans-20" x="486.439453"/>
      <use xlink:href="#DejaVuSans-78" x="518.226562"/>
      <use xlink:href="#DejaVuSans-20" x="577.40625"/>
      <use xlink:href="#DejaVuSans-47" x="609.193359"/>
      <use xlink:href="#DejaVuSans-6c" x="686.683594"/>
      <use xlink:href="#DejaVuSans-6f" x="714.466797"/>
      <use xlink:href="#DejaVuSans-62" x="775.648438"/>
      <use xlink:href="#DejaVuSans-61" x="839.125"/>
      <use xlink:href="#DejaVuSans-6c" x="900.404297"/>
      <use xlink:href="#DejaVuSans-20" x="928.1875"/>
      <use xlink:href="#DejaVuSans-4f" x="959.974609"/>
      <use xlink:href="#DejaVuSans-6e" x="1038.685547"/>
      <use xlink:href="#DejaVuSans-6c" x="1102.064453"/>
      <use xlink:href="#DejaVuSans-79" x="1129.847656"/>
     </g>
    </g>
   </g>
  </g>
  <g id="axes_2">
   <g id="patch_7">
    <path d="M 573.8 309.78 
L 851.04 309.78 
L 851.04 55.68 
L 573.8 55.68 
z
" style="fill: #eaeaf2"/>
   </g>
   <g id="matplotlib.axis_3">
    <g id="xtick_6"/>
    <g id="xtick_7"/>
    <g id="text_18">
     <!-- GenomeConfig -->
     <g style="fill: #262626" transform="translate(667.8175 332.398125)scale(0.12 -0.12)">
      <use xlink:href="#DejaVuSans-47"/>
      <use xlink:href="#DejaVuSans-65" x="77.490234"/>
      <use xlink:href="#DejaVuSans-6e" x="139.013672"/>
      <use xlink:href="#DejaVuSans-6f" x="202.392578"/>
      <use xlink:href="#DejaVuSans-6d" x="263.574219"/>
      <use xlink:href="#DejaVuSans-65" x="360.986328"/>
      <use xlink:href="#DejaVuSans-43" x="422.509766"/>
      <use xlink:href="#DejaVuSans-6f" x="492.333984"/>
      <use xlink:href="#DejaVuSans-6e" x="553.515625"/>
      <use xlink:href="#DejaVuSans-66" x="616.894531"/>
      <use xlink:href="#DejaVuSans-69" x="652.099609"/>
      <use xlink:href="#DejaVuSans-67" x="679.882812"/>
     </g>
    </g>
   </g>
   <g id="matplotlib.axis_4">
    <g id="ytick_7">
     <g id="line2d_18">
      <path d="M 573.8 301.677761 
L 851.04 301.677761 
" clip-path="url(#p81619c1245)" style="fill: none; stroke: #ffffff; stroke-linecap: round"/>
     </g>
     <g id="text_19">
      <!-- 0 -->
      <g style="fill: #262626" transform="translate(557.30125 305.856902)scale(0.11 -0.11)">
       <use xlink:href="#DejaVuSans-30"/>
      </g>
     </g>
    </g>
    <g id="ytick_8">
     <g id="line2d_19">
      <path d="M 573.8 258.580746 
L 851.04 258.580746 
" clip-path="url(#p81619c1245)" style="fill: none; stroke: #ffffff; stroke-linecap: round"/>
     </g>
     <g id="text_20">
      <!-- 50 -->
      <g style="fill: #262626" transform="translate(550.3025 262.759887)scale(0.11 -0.11)">
       <use xlink:href="#DejaVuSans-35"/>
       <use xlink:href="#DejaVuSans-30" x="63.623047"/>
      </g>
     </g>
    </g>
    <g id="ytick_9">
     <g id="line2d_20">
      <path d="M 573.8 215.483731 
L 851.04 215.483731 
" clip-path="url(#p81619c1245)" style="fill: none; stroke: #ffffff; stroke-linecap: round"/>
     </g>
     <g id="text_21">
      <!-- 100 -->
      <g style="fill: #262626" transform="translate(543.30375 219.662872)scale(0.11 -0.11)">
       <use xlink:href="#DejaVuSans-31"/>
       <use xlink:href="#DejaVuSans-30" x="63.623047"/>
       <use xlink:href="#DejaVuSans-30" x="127.246094"/>
      </g>
     </g>
    </g>
    <g id="ytick_10">
     <g id="line2d_21">
      <path d="M 573.8 172.386716 
L 851.04 172.386716 
" clip-path="url(#p81619c1245)" style="fill: none; stroke: #ffffff; stroke-linecap: round"/>
     </g>
     <g id="text_22">
      <!-- 150 -->
      <g style="fill: #262626" transform="translate(543.30375 176.565857)scale(0.11 -0.11)">
       <use xlink:href="#DejaVuSans-31"/>
       <use xlink:href="#DejaVuSans-35" x="63.623047"/>
       <use xlink:href="#DejaVuSans-30" x="127.246094"/>
      </g>
     </g>
    </g>
    <g id="ytick_11">
     <g id="line2d_22">
      <path d="M 573.8 129.289701 
L 851.04 129.289701 
" clip-path="url(#p81619c1245)" style="fill: none; stroke: #ffffff; stroke-linecap: round"/>
     </g>
     <g id="text_23">
      <!-- 200 -->
      <g style="fill: #262626" transform="translate(543.30375 133.468842)scale(0.11 -0.11)">
       <use xlink:href="#DejaVuSans-32"/>
       <use xlink:href="#DejaVuSans-30" x="63.623047"/>
       <use xlink:href="#DejaVuSans-30" x="127.246094"/>
      </g>
     </g>
    </g>
    <g id="ytick_12">
     <g id="line2d_23">
      <path d="M 573.8 86.192687 
L 851.04 86.192687 
" clip-path="url(#p81619c1245)" style="fill: none; stroke: #ffffff; stroke-linecap: round"/>
     </g>
     <g id="text_24">
      <!-- 250 -->
      <g style="fill: #262626" transform="translate(543.30375 90.371827)scale(0.11 -0.11)">
       <use xlink:href="#DejaVuSans-32"/>
       <use xlink:href="#DejaVuSans-35" x="63.623047"/>
       <use xlink:href="#DejaVuSans-30" x="127.246094"/>
      </g>
     </g>
    </g>
    <g id="text_25">
     <!-- Fitness -->
     <g style="fill: #262626" transform="translate(536.808125 203.510625)rotate(-90)scale(0.12 -0.12)">
      <use xlink:href="#DejaVuSans-46"/>
      <use xlink:href="#DejaVuSans-69" x="50.269531"/>
      <use xlink:href="#DejaVuSans-74" x="78.052734"/>
      <use xlink:href="#DejaVuSans-6e" x="117.261719"/>
      <use xlink:href="#DejaVuSans-65" x="180.640625"/>
      <use xlink:href="#DejaVuSans-73" x="242.164062"/>
      <use xlink:href="#DejaVuSans-73" x="294.263672"/>
     </g>
    </g>
   </g>
   <g id="patch_8">
    <path d="M 587.662 96.105 
L 698.558 96.105 
L 698.558 88.778507 
L 587.662 88.778507 
L 587.662 96.105 
z
" clip-path="url(#p81619c1245)" style="fill: #5875a4; stroke: #4c4c4c; stroke-width: 1.5; stroke-linejoin: miter"/>
   </g>
   <g id="patch_9">
    <path d="M 726.282 91.364328 
L 837.178 91.364328 
L 837.178 84.899776 
L 726.282 84.899776 
L 726.282 91.364328 
z
" clip-path="url(#p81619c1245)" style="fill: #cc8963; stroke: #4c4c4c; stroke-width: 1.5; stroke-linejoin: miter"/>
   </g>
   <g id="line2d_24">
    <path d="M 643.11 96.105 
L 643.11 98.690821 
" clip-path="url(#p81619c1245)" style="fill: none; stroke: #4c4c4c; stroke-width: 1.5; stroke-linecap: round"/>
   </g>
   <g id="line2d_25">
    <path d="M 643.11 88.778507 
L 643.11 82.744925 
" clip-path="url(#p81619c1245)" style="fill: none; stroke: #4c4c4c; stroke-width: 1.5; stroke-linecap: round"/>
   </g>
   <g id="line2d_26">
    <path d="M 615.386 98.690821 
L 670.834 98.690821 
" clip-path="url(#p81619c1245)" style="fill: none; stroke: #4c4c4c; stroke-width: 1.5; stroke-linecap: round"/>
   </g>
   <g id="line2d_27">
    <path d="M 615.386 82.744925 
L 670.834 82.744925 
" clip-path="url(#p81619c1245)" style="fill: none; stroke: #4c4c4c; stroke-width: 1.5; stroke-linecap: round"/>
   </g>
   <g id="line2d_28"/>
   <g id="line2d_29">
    <path d="M 781.73 91.364328 
L 781.73 92.657239 
" clip-path="url(#p81619c1245)" style="fill: none; stroke: #4c4c4c; stroke-width: 1.5; stroke-linecap: round"/>
   </g>
   <g id="line2d_30">
    <path d="M 781.73 84.899776 
L 781.73 84.899776 
" clip-path="url(#p81619c1245)" style="fill: none; stroke: #4c4c4c; stroke-width: 1.5; stroke-linecap: round"/>
   </g>
   <g id="line2d_31">
    <path d="M 754.006 92.657239 
L 809.454 92.657239 
" clip-path="url(#p81619c1245)" style="fill: none; stroke: #4c4c4c; stroke-width: 1.5; stroke-linecap: round"/>
   </g>
   <g id="line2d_32">
    <path d="M 754.006 84.899776 
L 809.454 84.899776 
" clip-path="url(#p81619c1245)" style="fill: none; stroke: #4c4c4c; stroke-width: 1.5; stroke-linecap: round"/>
   </g>
   <g id="line2d_33">
    <defs>
     <path id="m1197bd1f28" d="M -0 3.535534 
L 2.12132 0 
L -0 -3.535534 
L -2.12132 -0 
z
" style="stroke: #4c4c4c; stroke-linejoin: miter"/>
    </defs>
    <g clip-path="url(#p81619c1245)">
     <use xlink:href="#m1197bd1f28" x="781.73" y="67.23" style="fill: #4c4c4c; stroke: #4c4c4c; stroke-linejoin: miter"/>
    </g>
   </g>
   <g id="line2d_34">
    <path d="M 587.662 95.67403 
L 698.558 95.67403 
" clip-path="url(#p81619c1245)" style="fill: none; stroke: #4c4c4c; stroke-width: 1.5; stroke-linecap: round"/>
   </g>
   <g id="line2d_35">
    <path d="M 726.282 87.485597 
L 837.178 87.485597 
" clip-path="url(#p81619c1245)" style="fill: none; stroke: #4c4c4c; stroke-width: 1.5; stroke-linecap: round"/>
   </g>
   <g id="patch_10">
    <path d="M 573.8 309.78 
L 573.8 55.68 
" style="fill: none; stroke: #ffffff; stroke-width: 1.25; stroke-linejoin: miter; stroke-linecap: square"/>
   </g>
   <g id="patch_11">
    <path d="M 851.04 309.78 
L 851.04 55.68 
" style="fill: none; stroke: #ffffff; stroke-width: 1.25; stroke-linejoin: miter; stroke-linecap: square"/>
   </g>
   <g id="patch_12">
    <path d="M 573.8 309.78 
L 851.04 309.78 
" style="fill: none; stroke: #ffffff; stroke-width: 1.25; stroke-linejoin: miter; stroke-linecap: square"/>
   </g>
   <g id="patch_13">
    <path d="M 573.8 55.68 
L 851.04 55.68 
" style="fill: none; stroke: #ffffff; stroke-width: 1.25; stroke-linejoin: miter; stroke-linecap: square"/>
   </g>
   <g id="text_26">
    <!-- Best Performance Across Trials -->
    <g style="fill: #262626" transform="translate(620.459687 49.68)scale(0.12 -0.12)">
     <defs>
      <path id="DejaVuSans-50" d="M 1259 4147 
L 1259 2394 
L 2053 2394 
Q 2494 2394 2734 2622 
Q 2975 2850 2975 3272 
Q 2975 3691 2734 3919 
Q 2494 4147 2053 4147 
L 1259 4147 
z
M 628 4666 
L 2053 4666 
Q 2838 4666 3239 4311 
Q 3641 3956 3641 3272 
Q 3641 2581 3239 2228 
Q 2838 1875 2053 1875 
L 1259 1875 
L 1259 0 
L 628 0 
L 628 4666 
z
" transform="scale(0.015625)"/>
      <path id="DejaVuSans-41" d="M 2188 4044 
L 1331 1722 
L 3047 1722 
L 2188 4044 
z
M 1831 4666 
L 2547 4666 
L 4325 0 
L 3669 0 
L 3244 1197 
L 1141 1197 
L 716 0 
L 50 0 
L 1831 4666 
z
" transform="scale(0.015625)"/>
      <path id="DejaVuSans-54" d="M -19 4666 
L 3928 4666 
L 3928 4134 
L 2272 4134 
L 2272 0 
L 1638 0 
L 1638 4134 
L -19 4134 
L -19 4666 
z
" transform="scale(0.015625)"/>
     </defs>
     <use xlink:href="#DejaVuSans-42"/>
     <use xlink:href="#DejaVuSans-65" x="68.603516"/>
     <use xlink:href="#DejaVuSans-73" x="130.126953"/>
     <use xlink:href="#DejaVuSans-74" x="182.226562"/>
     <use xlink:href="#DejaVuSans-20" x="221.435547"/>
     <use xlink:href="#DejaVuSans-50" x="253.222656"/>
     <use xlink:href="#DejaVuSans-65" x="309.900391"/>
     <use xlink:href="#DejaVuSans-72" x="371.423828"/>
     <use xlink:href="#DejaVuSans-66" x="412.537109"/>
     <use xlink:href="#DejaVuSans-6f" x="447.742188"/>
     <use xlink:href="#DejaVuSans-72" x="508.923828"/>
     <use xlink:href="#DejaVuSans-6d" x="548.287109"/>
     <use xlink:href="#DejaVuSans-61" x="645.699219"/>
     <use xlink:href="#DejaVuSans-6e" x="706.978516"/>
     <use xlink:href="#DejaVuSans-63" x="770.357422"/>
     <use xlink:href="#DejaVuSans-65" x="825.337891"/>
     <use xlink:href="#DejaVuSans-20" x="886.861328"/>
     <use xlink:href="#DejaVuSans-41" x="918.648438"/>
     <use xlink:href="#DejaVuSans-63" x="985.306641"/>
     <use xlink:href="#DejaVuSans-72" x="1040.287109"/>
     <use xlink:href="#DejaVuSans-6f" x="1079.150391"/>
     <use xlink:href="#DejaVuSans-73" x="1140.332031"/>
     <use xlink:href="#DejaVuSans-73" x="1192.431641"/>
     <use xlink:href="#DejaVuSans-20" x="1244.53125"/>
     <use xlink:href="#DejaVuSans-54" x="1276.318359"/>
     <use xlink:href="#DejaVuSans-72" x="1322.652344"/>
     <use xlink:href="#DejaVuSans-69" x="1363.765625"/>
     <use xlink:href="#DejaVuSans-61" x="1391.548828"/>
     <use xlink:href="#DejaVuSans-6c" x="1452.828125"/>
     <use xlink:href="#DejaVuSans-73" x="1480.611328"/>
    </g>
   </g>
  </g>
  <g id="text_27">
   <!-- Compare Default To Evolved Rates For Still Life -->
   <g style="fill: #262626" transform="translate(263.08575 18.14175)scale(0.144 -0.144)">
    <defs>
     <path id="DejaVuSans-70" d="M 1159 525 
L 1159 -1331 
L 581 -1331 
L 581 3500 
L 1159 3500 
L 1159 2969 
Q 1341 3281 1617 3432 
Q 1894 3584 2278 3584 
Q 2916 3584 3314 3078 
Q 3713 2572 3713 1747 
Q 3713 922 3314 415 
Q 2916 -91 2278 -91 
Q 1894 -91 1617 61 
Q 1341 213 1159 525 
z
M 3116 1747 
Q 3116 2381 2855 2742 
Q 2594 3103 2138 3103 
Q 1681 3103 1420 2742 
Q 1159 2381 1159 1747 
Q 1159 1113 1420 752 
Q 1681 391 2138 391 
Q 2594 391 2855 752 
Q 3116 1113 3116 1747 
z
" transform="scale(0.015625)"/>
     <path id="DejaVuSans-44" d="M 1259 4147 
L 1259 519 
L 2022 519 
Q 2988 519 3436 956 
Q 3884 1394 3884 2338 
Q 3884 3275 3436 3711 
Q 2988 4147 2022 4147 
L 1259 4147 
z
M 628 4666 
L 1925 4666 
Q 3281 4666 3915 4102 
Q 4550 3538 4550 2338 
Q 4550 1131 3912 565 
Q 3275 0 1925 0 
L 628 0 
L 628 4666 
z
" transform="scale(0.015625)"/>
     <path id="DejaVuSans-75" d="M 544 1381 
L 544 3500 
L 1119 3500 
L 1119 1403 
Q 1119 906 1312 657 
Q 1506 409 1894 409 
Q 2359 409 2629 706 
Q 2900 1003 2900 1516 
L 2900 3500 
L 3475 3500 
L 3475 0 
L 2900 0 
L 2900 538 
Q 2691 219 2414 64 
Q 2138 -91 1772 -91 
Q 1169 -91 856 284 
Q 544 659 544 1381 
z
M 1991 3584 
L 1991 3584 
z
" transform="scale(0.015625)"/>
     <path id="DejaVuSans-45" d="M 628 4666 
L 3578 4666 
L 3578 4134 
L 1259 4134 
L 1259 2753 
L 3481 2753 
L 3481 2222 
L 1259 2222 
L 1259 531 
L 3634 531 
L 3634 0 
L 628 0 
L 628 4666 
z
" transform="scale(0.015625)"/>
     <path id="DejaVuSans-76" d="M 191 3500 
L 800 3500 
L 1894 563 
L 2988 3500 
L 3597 3500 
L 2284 0 
L 1503 0 
L 191 3500 
z
" transform="scale(0.015625)"/>
     <path id="DejaVuSans-52" d="M 2841 2188 
Q 3044 2119 3236 1894 
Q 3428 1669 3622 1275 
L 4263 0 
L 3584 0 
L 2988 1197 
Q 2756 1666 2539 1819 
Q 2322 1972 1947 1972 
L 1259 1972 
L 1259 0 
L 628 0 
L 628 4666 
L 2053 4666 
Q 2853 4666 3247 4331 
Q 3641 3997 3641 3322 
Q 3641 2881 3436 2590 
Q 3231 2300 2841 2188 
z
M 1259 4147 
L 1259 2491 
L 2053 2491 
Q 2509 2491 2742 2702 
Q 2975 2913 2975 3322 
Q 2975 3731 2742 3939 
Q 2509 4147 2053 4147 
L 1259 4147 
z
" transform="scale(0.015625)"/>
     <path id="DejaVuSans-53" d="M 3425 4513 
L 3425 3897 
Q 3066 4069 2747 4153 
Q 2428 4238 2131 4238 
Q 1616 4238 1336 4038 
Q 1056 3838 1056 3469 
Q 1056 3159 1242 3001 
Q 1428 2844 1947 2747 
L 2328 2669 
Q 3034 2534 3370 2195 
Q 3706 1856 3706 1288 
Q 3706 609 3251 259 
Q 2797 -91 1919 -91 
Q 1588 -91 1214 -16 
Q 841 59 441 206 
L 441 856 
Q 825 641 1194 531 
Q 1563 422 1919 422 
Q 2459 422 2753 634 
Q 3047 847 3047 1241 
Q 3047 1584 2836 1778 
Q 2625 1972 2144 2069 
L 1759 2144 
Q 1053 2284 737 2584 
Q 422 2884 422 3419 
Q 422 4038 858 4394 
Q 1294 4750 2059 4750 
Q 2388 4750 2728 4690 
Q 3069 4631 3425 4513 
z
" transform="scale(0.015625)"/>
     <path id="DejaVuSans-4c" d="M 628 4666 
L 1259 4666 
L 1259 531 
L 3531 531 
L 3531 0 
L 628 0 
L 628 4666 
z
" transform="scale(0.015625)"/>
    </defs>
    <use xlink:href="#DejaVuSans-43"/>
    <use xlink:href="#DejaVuSans-6f" x="69.824219"/>
    <use xlink:href="#DejaVuSans-6d" x="131.005859"/>
    <use xlink:href="#DejaVuSans-70" x="228.417969"/>
    <use xlink:href="#DejaVuSans-61" x="291.894531"/>
    <use xlink:href="#DejaVuSans-72" x="353.173828"/>
    <use xlink:href="#DejaVuSans-65" x="392.037109"/>
    <use xlink:href="#DejaVuSans-20" x="453.560547"/>
    <use xlink:href="#DejaVuSans-44" x="485.347656"/>
    <use xlink:href="#DejaVuSans-65" x="562.349609"/>
    <use xlink:href="#DejaVuSans-66" x="623.873047"/>
    <use xlink:href="#DejaVuSans-61" x="659.078125"/>
    <use xlink:href="#DejaVuSans-75" x="720.357422"/>
    <use xlink:href="#DejaVuSans-6c" x="783.736328"/>
    <use xlink:href="#DejaVuSans-74" x="811.519531"/>
    <use xlink:href="#DejaVuSans-20" x="850.728516"/>
    <use xlink:href="#DejaVuSans-54" x="882.515625"/>
    <use xlink:href="#DejaVuSans-6f" x="926.599609"/>
    <use xlink:href="#DejaVuSans-20" x="987.78125"/>
    <use xlink:href="#DejaVuSans-45" x="1019.568359"/>
    <use xlink:href="#DejaVuSans-76" x="1082.751953"/>
    <use xlink:href="#DejaVuSans-6f" x="1141.931641"/>
    <use xlink:href="#DejaVuSans-6c" x="1203.113281"/>
    <use xlink:href="#DejaVuSans-76" x="1230.896484"/>
    <use xlink:href="#DejaVuSans-65" x="1290.076172"/>
    <use xlink:href="#DejaVuSans-64" x="1351.599609"/>
    <use xlink:href="#DejaVuSans-20" x="1415.076172"/>
    <use xlink:href="#DejaVuSans-52" x="1446.863281"/>
    <use xlink:href="#DejaVuSans-61" x="1514.095703"/>
    <use xlink:href="#DejaVuSans-74" x="1575.375"/>
    <use xlink:href="#DejaVuSans-65" x="1614.583984"/>
    <use xlink:href="#DejaVuSans-73" x="1676.107422"/>
    <use xlink:href="#DejaVuSans-20" x="1728.207031"/>
    <use xlink:href="#DejaVuSans-46" x="1759.994141"/>
    <use xlink:href="#DejaVuSans-6f" x="1813.888672"/>
    <use xlink:href="#DejaVuSans-72" x="1875.070312"/>
    <use xlink:href="#DejaVuSans-20" x="1916.183594"/>
    <use xlink:href="#DejaVuSans-53" x="1947.970703"/>
    <use xlink:href="#DejaVuSans-74" x="2011.447266"/>
    <use xlink:href="#DejaVuSans-69" x="2050.65625"/>
    <use xlink:href="#DejaVuSans-6c" x="2078.439453"/>
    <use xlink:href="#DejaVuSans-6c" x="2106.222656"/>
    <use xlink:href="#DejaVuSans-20" x="2134.005859"/>
    <use xlink:href="#DejaVuSans-4c" x="2165.792969"/>
    <use xlink:href="#DejaVuSans-69" x="2221.505859"/>
    <use xlink:href="#DejaVuSans-66" x="2249.289062"/>
    <use xlink:href="#DejaVuSans-65" x="2284.494141"/>
   </g>
  </g>
 </g>
 <defs>
  <clipPath id="p00eea4afc9">
   <rect x="60.21" y="55.68" width="277.24" height="254.1"/>
  </clipPath>
  <clipPath id="p81619c1245">
   <rect x="573.8" y="55.68" width="277.24" height="254.1"/>
  </clipPath>
 </defs>
</svg>
