<?xml version="1.0" encoding="utf-8" standalone="no"?>
<!DOCTYPE svg PUBLIC "-//W3C//DTD SVG 1.1//EN"
  "http://www.w3.org/Graphics/SVG/1.1/DTD/svg11.dtd">
<svg xmlns:xlink="http://www.w3.org/1999/xlink" width="392.79412pt" height="362.097812pt" viewBox="0 0 392.79412 362.097812" xmlns="http://www.w3.org/2000/svg" version="1.1">
 <metadata>
  <rdf:RDF xmlns:dc="http://purl.org/dc/elements/1.1/" xmlns:cc="http://creativecommons.org/ns#" xmlns:rdf="http://www.w3.org/1999/02/22-rdf-syntax-ns#">
   <cc:Work>
    <dc:type rdf:resource="http://purl.org/dc/dcmitype/StillImage"/>
    <dc:date>2022-11-20T08:13:27.538676</dc:date>
    <dc:format>image/svg+xml</dc:format>
    <dc:creator>
     <cc:Agent>
      <dc:title>Matplotlib v3.5.2, https://matplotlib.org/</dc:title>
     </cc:Agent>
    </dc:creator>
   </cc:Work>
  </rdf:RDF>
 </metadata>
 <defs>
  <style type="text/css">*{stroke-linejoin: round; stroke-linecap: butt}</style>
 </defs>
 <g id="figure_1">
  <g id="patch_1">
   <path d="M 0 362.097812 
L 392.79412 362.097812 
L 392.79412 0 
L 0 0 
z
" style="fill: #ffffff"/>
  </g>
  <g id="axes_1">
   <g id="patch_2">
    <path d="M 60.30875 319.138125 
L 340.40792 319.138125 
L 340.40792 22.318125 
L 60.30875 22.318125 
z
" style="fill: #eaeaf2"/>
   </g>
   <g id="matplotlib.axis_1">
    <g id="xtick_1">
     <g id="line2d_1">
      <path d="M 73.04053 319.138125 
L 73.04053 22.318125 
" clip-path="url(#pd1011bba25)" style="fill: none; stroke: #ffffff; stroke-linecap: round"/>
     </g>
     <g id="text_1">
      <!-- 0 -->
      <g style="fill: #262626" transform="translate(69.541155 336.996406)scale(0.11 -0.11)">
       <defs>
        <path id="DejaVuSans-30" d="M 2034 4250 
Q 1547 4250 1301 3770 
Q 1056 3291 1056 2328 
Q 1056 1369 1301 889 
Q 1547 409 2034 409 
Q 2525 409 2770 889 
Q 3016 1369 3016 2328 
Q 3016 3291 2770 3770 
Q 2525 4250 2034 4250 
z
M 2034 4750 
Q 2819 4750 3233 4129 
Q 3647 3509 3647 2328 
Q 3647 1150 3233 529 
Q 2819 -91 2034 -91 
Q 1250 -91 836 529 
Q 422 1150 422 2328 
Q 422 3509 836 4129 
Q 1250 4750 2034 4750 
z
" transform="scale(0.015625)"/>
       </defs>
       <use xlink:href="#DejaVuSans-30"/>
      </g>
     </g>
    </g>
    <g id="xtick_2">
     <g id="line2d_2">
      <path d="M 137.019327 319.138125 
L 137.019327 22.318125 
" clip-path="url(#pd1011bba25)" style="fill: none; stroke: #ffffff; stroke-linecap: round"/>
     </g>
     <g id="text_2">
      <!-- 50 -->
      <g style="fill: #262626" transform="translate(130.020577 336.996406)scale(0.11 -0.11)">
       <defs>
        <path id="DejaVuSans-35" d="M 691 4666 
L 3169 4666 
L 3169 4134 
L 1269 4134 
L 1269 2991 
Q 1406 3038 1543 3061 
Q 1681 3084 1819 3084 
Q 2600 3084 3056 2656 
Q 3513 2228 3513 1497 
Q 3513 744 3044 326 
Q 2575 -91 1722 -91 
Q 1428 -91 1123 -41 
Q 819 9 494 109 
L 494 744 
Q 775 591 1075 516 
Q 1375 441 1709 441 
Q 2250 441 2565 725 
Q 2881 1009 2881 1497 
Q 2881 1984 2565 2268 
Q 2250 2553 1709 2553 
Q 1456 2553 1204 2497 
Q 953 2441 691 2322 
L 691 4666 
z
" transform="scale(0.015625)"/>
       </defs>
       <use xlink:href="#DejaVuSans-35"/>
       <use xlink:href="#DejaVuSans-30" x="63.623047"/>
      </g>
     </g>
    </g>
    <g id="xtick_3">
     <g id="line2d_3">
      <path d="M 200.998123 319.138125 
L 200.998123 22.318125 
" clip-path="url(#pd1011bba25)" style="fill: none; stroke: #ffffff; stroke-linecap: round"/>
     </g>
     <g id="text_3">
      <!-- 100 -->
      <g style="fill: #262626" transform="translate(190.499998 336.996406)scale(0.11 -0.11)">
       <defs>
        <path id="DejaVuSans-31" d="M 794 531 
L 1825 531 
L 1825 4091 
L 703 3866 
L 703 4441 
L 1819 4666 
L 2450 4666 
L 2450 531 
L 3481 531 
L 3481 0 
L 794 0 
L 794 531 
z
" transform="scale(0.015625)"/>
       </defs>
       <use xlink:href="#DejaVuSans-31"/>
       <use xlink:href="#DejaVuSans-30" x="63.623047"/>
       <use xlink:href="#DejaVuSans-30" x="127.246094"/>
      </g>
     </g>
    </g>
    <g id="xtick_4">
     <g id="line2d_4">
      <path d="M 264.976919 319.138125 
L 264.976919 22.318125 
" clip-path="url(#pd1011bba25)" style="fill: none; stroke: #ffffff; stroke-linecap: round"/>
     </g>
     <g id="text_4">
      <!-- 150 -->
      <g style="fill: #262626" transform="translate(254.478794 336.996406)scale(0.11 -0.11)">
       <use xlink:href="#DejaVuSans-31"/>
       <use xlink:href="#DejaVuSans-35" x="63.623047"/>
       <use xlink:href="#DejaVuSans-30" x="127.246094"/>
      </g>
     </g>
    </g>
    <g id="xtick_5">
     <g id="line2d_5">
      <path d="M 328.955715 319.138125 
L 328.955715 22.318125 
" clip-path="url(#pd1011bba25)" style="fill: none; stroke: #ffffff; stroke-linecap: round"/>
     </g>
     <g id="text_5">
      <!-- 200 -->
      <g style="fill: #262626" transform="translate(318.45759 336.996406)scale(0.11 -0.11)">
       <defs>
        <path id="DejaVuSans-32" d="M 1228 531 
L 3431 531 
L 3431 0 
L 469 0 
L 469 531 
Q 828 903 1448 1529 
Q 2069 2156 2228 2338 
Q 2531 2678 2651 2914 
Q 2772 3150 2772 3378 
Q 2772 3750 2511 3984 
Q 2250 4219 1831 4219 
Q 1534 4219 1204 4116 
Q 875 4013 500 3803 
L 500 4441 
Q 881 4594 1212 4672 
Q 1544 4750 1819 4750 
Q 2544 4750 2975 4387 
Q 3406 4025 3406 3419 
Q 3406 3131 3298 2873 
Q 3191 2616 2906 2266 
Q 2828 2175 2409 1742 
Q 1991 1309 1228 531 
z
" transform="scale(0.015625)"/>
       </defs>
       <use xlink:href="#DejaVuSans-32"/>
       <use xlink:href="#DejaVuSans-30" x="63.623047"/>
       <use xlink:href="#DejaVuSans-30" x="127.246094"/>
      </g>
     </g>
    </g>
    <g id="text_6">
     <!-- Generation -->
     <g style="fill: #262626" transform="translate(166.886773 352.402187)scale(0.12 -0.12)">
      <defs>
       <path id="DejaVuSans-47" d="M 3809 666 
L 3809 1919 
L 2778 1919 
L 2778 2438 
L 4434 2438 
L 4434 434 
Q 4069 175 3628 42 
Q 3188 -91 2688 -91 
Q 1594 -91 976 548 
Q 359 1188 359 2328 
Q 359 3472 976 4111 
Q 1594 4750 2688 4750 
Q 3144 4750 3555 4637 
Q 3966 4525 4313 4306 
L 4313 3634 
Q 3963 3931 3569 4081 
Q 3175 4231 2741 4231 
Q 1884 4231 1454 3753 
Q 1025 3275 1025 2328 
Q 1025 1384 1454 906 
Q 1884 428 2741 428 
Q 3075 428 3337 486 
Q 3600 544 3809 666 
z
" transform="scale(0.015625)"/>
       <path id="DejaVuSans-65" d="M 3597 1894 
L 3597 1613 
L 953 1613 
Q 991 1019 1311 708 
Q 1631 397 2203 397 
Q 2534 397 2845 478 
Q 3156 559 3463 722 
L 3463 178 
Q 3153 47 2828 -22 
Q 2503 -91 2169 -91 
Q 1331 -91 842 396 
Q 353 884 353 1716 
Q 353 2575 817 3079 
Q 1281 3584 2069 3584 
Q 2775 3584 3186 3129 
Q 3597 2675 3597 1894 
z
M 3022 2063 
Q 3016 2534 2758 2815 
Q 2500 3097 2075 3097 
Q 1594 3097 1305 2825 
Q 1016 2553 972 2059 
L 3022 2063 
z
" transform="scale(0.015625)"/>
       <path id="DejaVuSans-6e" d="M 3513 2113 
L 3513 0 
L 2938 0 
L 2938 2094 
Q 2938 2591 2744 2837 
Q 2550 3084 2163 3084 
Q 1697 3084 1428 2787 
Q 1159 2491 1159 1978 
L 1159 0 
L 581 0 
L 581 3500 
L 1159 3500 
L 1159 2956 
Q 1366 3272 1645 3428 
Q 1925 3584 2291 3584 
Q 2894 3584 3203 3211 
Q 3513 2838 3513 2113 
z
" transform="scale(0.015625)"/>
       <path id="DejaVuSans-72" d="M 2631 2963 
Q 2534 3019 2420 3045 
Q 2306 3072 2169 3072 
Q 1681 3072 1420 2755 
Q 1159 2438 1159 1844 
L 1159 0 
L 581 0 
L 581 3500 
L 1159 3500 
L 1159 2956 
Q 1341 3275 1631 3429 
Q 1922 3584 2338 3584 
Q 2397 3584 2469 3576 
Q 2541 3569 2628 3553 
L 2631 2963 
z
" transform="scale(0.015625)"/>
       <path id="DejaVuSans-61" d="M 2194 1759 
Q 1497 1759 1228 1600 
Q 959 1441 959 1056 
Q 959 750 1161 570 
Q 1363 391 1709 391 
Q 2188 391 2477 730 
Q 2766 1069 2766 1631 
L 2766 1759 
L 2194 1759 
z
M 3341 1997 
L 3341 0 
L 2766 0 
L 2766 531 
Q 2569 213 2275 61 
Q 1981 -91 1556 -91 
Q 1019 -91 701 211 
Q 384 513 384 1019 
Q 384 1609 779 1909 
Q 1175 2209 1959 2209 
L 2766 2209 
L 2766 2266 
Q 2766 2663 2505 2880 
Q 2244 3097 1772 3097 
Q 1472 3097 1187 3025 
Q 903 2953 641 2809 
L 641 3341 
Q 956 3463 1253 3523 
Q 1550 3584 1831 3584 
Q 2591 3584 2966 3190 
Q 3341 2797 3341 1997 
z
" transform="scale(0.015625)"/>
       <path id="DejaVuSans-74" d="M 1172 4494 
L 1172 3500 
L 2356 3500 
L 2356 3053 
L 1172 3053 
L 1172 1153 
Q 1172 725 1289 603 
Q 1406 481 1766 481 
L 2356 481 
L 2356 0 
L 1766 0 
Q 1100 0 847 248 
Q 594 497 594 1153 
L 594 3053 
L 172 3053 
L 172 3500 
L 594 3500 
L 594 4494 
L 1172 4494 
z
" transform="scale(0.015625)"/>
       <path id="DejaVuSans-69" d="M 603 3500 
L 1178 3500 
L 1178 0 
L 603 0 
L 603 3500 
z
M 603 4863 
L 1178 4863 
L 1178 4134 
L 603 4134 
L 603 4863 
z
" transform="scale(0.015625)"/>
       <path id="DejaVuSans-6f" d="M 1959 3097 
Q 1497 3097 1228 2736 
Q 959 2375 959 1747 
Q 959 1119 1226 758 
Q 1494 397 1959 397 
Q 2419 397 2687 759 
Q 2956 1122 2956 1747 
Q 2956 2369 2687 2733 
Q 2419 3097 1959 3097 
z
M 1959 3584 
Q 2709 3584 3137 3096 
Q 3566 2609 3566 1747 
Q 3566 888 3137 398 
Q 2709 -91 1959 -91 
Q 1206 -91 779 398 
Q 353 888 353 1747 
Q 353 2609 779 3096 
Q 1206 3584 1959 3584 
z
" transform="scale(0.015625)"/>
      </defs>
      <use xlink:href="#DejaVuSans-47"/>
      <use xlink:href="#DejaVuSans-65" x="77.490234"/>
      <use xlink:href="#DejaVuSans-6e" x="139.013672"/>
      <use xlink:href="#DejaVuSans-65" x="202.392578"/>
      <use xlink:href="#DejaVuSans-72" x="263.916016"/>
      <use xlink:href="#DejaVuSans-61" x="305.029297"/>
      <use xlink:href="#DejaVuSans-74" x="366.308594"/>
      <use xlink:href="#DejaVuSans-69" x="405.517578"/>
      <use xlink:href="#DejaVuSans-6f" x="433.300781"/>
      <use xlink:href="#DejaVuSans-6e" x="494.482422"/>
     </g>
    </g>
   </g>
   <g id="matplotlib.axis_2">
    <g id="ytick_1">
     <g id="line2d_6">
      <path d="M 60.30875 307.117788 
L 340.40792 307.117788 
" clip-path="url(#pd1011bba25)" style="fill: none; stroke: #ffffff; stroke-linecap: round"/>
     </g>
     <g id="text_7">
      <!-- 0 -->
      <g style="fill: #262626" transform="translate(43.81 311.296928)scale(0.11 -0.11)">
       <use xlink:href="#DejaVuSans-30"/>
      </g>
     </g>
    </g>
    <g id="ytick_2">
     <g id="line2d_7">
      <path d="M 60.30875 244.976733 
L 340.40792 244.976733 
" clip-path="url(#pd1011bba25)" style="fill: none; stroke: #ffffff; stroke-linecap: round"/>
     </g>
     <g id="text_8">
      <!-- 500 -->
      <g style="fill: #262626" transform="translate(29.8125 249.155874)scale(0.11 -0.11)">
       <use xlink:href="#DejaVuSans-35"/>
       <use xlink:href="#DejaVuSans-30" x="63.623047"/>
       <use xlink:href="#DejaVuSans-30" x="127.246094"/>
      </g>
     </g>
    </g>
    <g id="ytick_3">
     <g id="line2d_8">
      <path d="M 60.30875 182.835678 
L 340.40792 182.835678 
" clip-path="url(#pd1011bba25)" style="fill: none; stroke: #ffffff; stroke-linecap: round"/>
     </g>
     <g id="text_9">
      <!-- 1000 -->
      <g style="fill: #262626" transform="translate(22.81375 187.014819)scale(0.11 -0.11)">
       <use xlink:href="#DejaVuSans-31"/>
       <use xlink:href="#DejaVuSans-30" x="63.623047"/>
       <use xlink:href="#DejaVuSans-30" x="127.246094"/>
       <use xlink:href="#DejaVuSans-30" x="190.869141"/>
      </g>
     </g>
    </g>
    <g id="ytick_4">
     <g id="line2d_9">
      <path d="M 60.30875 120.694624 
L 340.40792 120.694624 
" clip-path="url(#pd1011bba25)" style="fill: none; stroke: #ffffff; stroke-linecap: round"/>
     </g>
     <g id="text_10">
      <!-- 1500 -->
      <g style="fill: #262626" transform="translate(22.81375 124.873764)scale(0.11 -0.11)">
       <use xlink:href="#DejaVuSans-31"/>
       <use xlink:href="#DejaVuSans-35" x="63.623047"/>
       <use xlink:href="#DejaVuSans-30" x="127.246094"/>
       <use xlink:href="#DejaVuSans-30" x="190.869141"/>
      </g>
     </g>
    </g>
    <g id="ytick_5">
     <g id="line2d_10">
      <path d="M 60.30875 58.553569 
L 340.40792 58.553569 
" clip-path="url(#pd1011bba25)" style="fill: none; stroke: #ffffff; stroke-linecap: round"/>
     </g>
     <g id="text_11">
      <!-- 2000 -->
      <g style="fill: #262626" transform="translate(22.81375 62.73271)scale(0.11 -0.11)">
       <use xlink:href="#DejaVuSans-32"/>
       <use xlink:href="#DejaVuSans-30" x="63.623047"/>
       <use xlink:href="#DejaVuSans-30" x="127.246094"/>
       <use xlink:href="#DejaVuSans-30" x="190.869141"/>
      </g>
     </g>
    </g>
    <g id="text_12">
     <!-- Fitness -->
     <g style="fill: #262626" transform="translate(16.318125 191.50875)rotate(-90)scale(0.12 -0.12)">
      <defs>
       <path id="DejaVuSans-46" d="M 628 4666 
L 3309 4666 
L 3309 4134 
L 1259 4134 
L 1259 2759 
L 3109 2759 
L 3109 2228 
L 1259 2228 
L 1259 0 
L 628 0 
L 628 4666 
z
" transform="scale(0.015625)"/>
       <path id="DejaVuSans-73" d="M 2834 3397 
L 2834 2853 
Q 2591 2978 2328 3040 
Q 2066 3103 1784 3103 
Q 1356 3103 1142 2972 
Q 928 2841 928 2578 
Q 928 2378 1081 2264 
Q 1234 2150 1697 2047 
L 1894 2003 
Q 2506 1872 2764 1633 
Q 3022 1394 3022 966 
Q 3022 478 2636 193 
Q 2250 -91 1575 -91 
Q 1294 -91 989 -36 
Q 684 19 347 128 
L 347 722 
Q 666 556 975 473 
Q 1284 391 1588 391 
Q 1994 391 2212 530 
Q 2431 669 2431 922 
Q 2431 1156 2273 1281 
Q 2116 1406 1581 1522 
L 1381 1569 
Q 847 1681 609 1914 
Q 372 2147 372 2553 
Q 372 3047 722 3315 
Q 1072 3584 1716 3584 
Q 2034 3584 2315 3537 
Q 2597 3491 2834 3397 
z
" transform="scale(0.015625)"/>
      </defs>
      <use xlink:href="#DejaVuSans-46"/>
      <use xlink:href="#DejaVuSans-69" x="50.269531"/>
      <use xlink:href="#DejaVuSans-74" x="78.052734"/>
      <use xlink:href="#DejaVuSans-6e" x="117.261719"/>
      <use xlink:href="#DejaVuSans-65" x="180.640625"/>
      <use xlink:href="#DejaVuSans-73" x="242.164062"/>
      <use xlink:href="#DejaVuSans-73" x="294.263672"/>
     </g>
    </g>
   </g>
   <g id="PolyCollection_1">
    <defs>
     <path id="m437c994f99" d="M 73.04053 -75.631051 
L 73.04053 -59.014047 
L 74.320106 -71.144078 
L 75.599682 -91.731507 
L 76.879258 -89.747557 
L 78.158834 -96.329071 
L 79.43841 -109.227418 
L 80.717986 -148.395701 
L 81.997562 -196.840188 
L 83.277138 -184.304492 
L 84.556714 -203.70357 
L 85.83629 -217.551996 
L 87.115866 -209.749604 
L 88.395442 -203.30645 
L 89.675017 -193.145222 
L 90.954593 -195.706987 
L 92.234169 -207.416304 
L 93.513745 -219.588183 
L 94.793321 -217.764343 
L 96.072897 -229.501235 
L 97.352473 -224.531892 
L 98.632049 -230.171193 
L 99.911625 -222.853696 
L 101.191201 -219.000562 
L 102.470777 -211.532761 
L 103.750353 -200.671378 
L 105.029929 -207.929162 
L 106.309505 -216.927381 
L 107.58908 -217.601417 
L 108.868656 -221.42484 
L 110.148232 -221.102483 
L 111.427808 -242.894574 
L 112.707384 -242.894574 
L 113.98696 -214.115498 
L 115.266536 -242.894574 
L 116.546112 -226.081535 
L 117.825688 -225.277585 
L 119.105264 -214.465042 
L 120.38484 -226.326215 
L 121.664416 -226.326215 
L 122.943992 -242.894574 
L 124.223567 -242.894574 
L 125.503143 -231.103309 
L 126.782719 -242.894574 
L 128.062295 -242.894574 
L 129.341871 -242.894574 
L 130.621447 -225.277585 
L 131.901023 -242.894574 
L 133.180599 -242.894574 
L 134.460175 -242.894574 
L 135.739751 -228.353567 
L 137.019327 -226.326215 
L 138.298903 -242.894574 
L 139.578479 -242.894574 
L 140.858054 -227.4867 
L 142.13763 -240.937131 
L 143.417206 -226.396124 
L 144.696782 -223.320142 
L 145.976358 -213.412916 
L 147.255934 -230.753766 
L 148.53551 -219.49769 
L 149.815086 -237.674725 
L 151.094662 -238.327207 
L 152.374238 -223.972623 
L 153.653814 -239.632169 
L 154.93339 -238.979688 
L 156.212966 -224.75327 
L 157.492542 -225.091162 
L 158.772117 -211.086122 
L 160.051693 -216.813779 
L 161.331269 -204.327894 
L 162.610845 -215.560278 
L 163.890421 -239.632169 
L 165.169997 -214.228129 
L 166.449573 -242.894574 
L 167.729149 -224.854249 
L 169.008725 -231.487807 
L 170.288301 -225.277585 
L 171.567877 -207.567385 
L 172.847453 -225.277585 
L 174.127029 -214.465042 
L 175.406604 -242.894574 
L 176.68618 -215.016543 
L 177.965756 -242.894574 
L 179.245332 -225.510614 
L 180.524908 -242.894574 
L 181.804484 -242.894574 
L 183.08406 -225.277585 
L 184.363636 -242.894574 
L 185.643212 -240.937131 
L 186.922788 -233.421947 
L 188.202364 -238.762194 
L 189.48194 -223.501904 
L 190.761516 -226.416805 
L 192.041091 -237.674725 
L 193.320667 -237.022244 
L 194.600243 -238.327207 
L 195.879819 -238.979688 
L 197.159395 -225.269817 
L 198.438971 -235.589699 
L 199.718547 -236.633863 
L 200.998123 -237.674725 
L 202.277699 -213.555937 
L 203.557275 -212.697905 
L 204.836851 -218.958617 
L 206.116427 -228.881766 
L 207.396003 -239.632169 
L 208.675579 -240.937131 
L 209.955154 -240.937131 
L 211.23473 -229.693484 
L 212.514306 -213.778383 
L 213.793882 -224.119431 
L 215.073458 -232.769466 
L 216.353034 -214.892261 
L 217.63261 -216.38753 
L 218.912186 -231.487807 
L 220.191762 -233.421947 
L 221.471338 -213.816444 
L 222.750914 -224.450332 
L 224.03049 -222.442399 
L 225.310066 -240.937131 
L 226.589641 -240.937131 
L 227.869217 -225.277585 
L 229.148793 -231.55723 
L 230.428369 -231.650927 
L 231.707945 -219.405255 
L 232.987521 -231.833466 
L 234.267097 -242.894574 
L 235.546673 -242.894574 
L 236.826249 -242.894574 
L 238.105825 -225.755294 
L 239.385401 -242.894574 
L 240.664977 -242.894574 
L 241.944553 -229.297335 
L 243.224128 -242.894574 
L 244.503704 -242.894574 
L 245.78328 -225.627128 
L 247.062856 -239.632169 
L 248.342432 -221.998868 
L 249.622008 -223.797851 
L 250.901584 -206.996464 
L 252.18116 -223.972623 
L 253.460736 -223.774548 
L 254.740312 -224.67171 
L 256.019888 -217.098269 
L 257.299464 -228.291426 
L 258.57904 -234.132685 
L 259.858616 -219.914035 
L 261.138191 -220.042201 
L 262.417767 -242.894574 
L 263.697343 -242.894574 
L 264.976919 -242.894574 
L 266.256495 -242.894574 
L 267.536071 -242.894574 
L 268.815647 -218.853754 
L 270.095223 -209.274127 
L 271.374799 -233.433598 
L 272.654375 -233.433598 
L 273.933951 -222.419097 
L 275.213527 -242.894574 
L 276.493103 -224.217303 
L 277.772678 -223.564822 
L 279.052254 -204.353915 
L 280.33183 -233.433598 
L 281.611406 -221.032574 
L 282.890982 -242.894574 
L 284.170558 -227.934115 
L 285.450134 -226.612841 
L 286.72971 -240.937131 
L 288.009286 -233.20057 
L 289.288862 -230.835326 
L 290.568438 -210.142354 
L 291.848014 -216.329273 
L 293.12759 -206.672553 
L 294.407165 -229.378895 
L 295.686741 -226.151055 
L 296.966317 -218.173989 
L 298.245893 -205.025039 
L 299.525469 -242.894574 
L 300.805045 -233.165615 
L 302.084621 -216.537543 
L 303.364197 -212.018238 
L 304.643773 -218.569264 
L 305.923349 -241.4964 
L 307.202925 -246.80946 
L 308.482501 -216.977482 
L 309.762077 -237.523257 
L 311.041653 -229.662122 
L 312.321228 -224.867454 
L 313.600804 -219.705863 
L 314.88038 -246.459917 
L 316.159956 -238.746659 
L 317.439532 -235.588048 
L 318.719108 -218.638105 
L 319.998684 -230.695314 
L 321.27826 -236.516572 
L 322.557836 -253.052306 
L 323.837412 -228.734181 
L 325.116988 -247.80197 
L 326.396564 -246.77839 
L 327.67614 -217.733855 
L 327.67614 -264.148757 
L 327.67614 -264.148757 
L 326.396564 -266.709356 
L 325.116988 -265.917835 
L 323.837412 -263.219359 
L 322.557836 -265.078931 
L 321.27826 -260.884409 
L 319.998684 -260.455248 
L 318.719108 -255.870403 
L 317.439532 -261.075493 
L 316.159956 -262.189371 
L 314.88038 -262.189371 
L 313.600804 -257.533453 
L 312.321228 -256.503465 
L 311.041653 -258.367697 
L 309.762077 -261.350467 
L 308.482501 -253.926165 
L 307.202925 -256.689888 
L 305.923349 -250.817559 
L 304.643773 -248.766904 
L 303.364197 -246.433604 
L 302.084621 -246.250191 
L 300.805045 -247.089095 
L 299.525469 -245.411287 
L 298.245893 -242.894574 
L 296.966317 -243.754451 
L 295.686741 -242.894574 
L 294.407165 -242.894574 
L 293.12759 -239.935106 
L 291.848014 -242.894574 
L 290.568438 -242.894574 
L 289.288862 -242.894574 
L 288.009286 -242.894574 
L 286.72971 -242.894574 
L 285.450134 -242.894574 
L 284.170558 -242.894574 
L 282.890982 -242.894574 
L 281.611406 -242.894574 
L 280.33183 -242.894574 
L 279.052254 -239.740916 
L 277.772678 -242.894574 
L 276.493103 -242.894574 
L 275.213527 -242.894574 
L 273.933951 -242.894574 
L 272.654375 -242.894574 
L 271.374799 -242.894574 
L 270.095223 -242.894574 
L 268.815647 -242.894574 
L 267.536071 -242.894574 
L 266.256495 -245.411287 
L 264.976919 -247.089095 
L 263.697343 -245.411287 
L 262.417767 -245.411287 
L 261.138191 -242.894574 
L 259.858616 -242.894574 
L 258.57904 -242.894574 
L 257.299464 -242.894574 
L 256.019888 -242.894574 
L 254.740312 -242.894574 
L 253.460736 -244.106325 
L 252.18116 -242.894574 
L 250.901584 -240.937131 
L 249.622008 -242.242093 
L 248.342432 -242.242093 
L 247.062856 -242.894574 
L 245.78328 -242.894574 
L 244.503704 -242.894574 
L 243.224128 -242.894574 
L 241.944553 -242.894574 
L 240.664977 -242.894574 
L 239.385401 -242.894574 
L 238.105825 -242.894574 
L 236.826249 -242.894574 
L 235.546673 -242.894574 
L 234.267097 -242.894574 
L 232.987521 -242.894574 
L 231.707945 -242.894574 
L 230.428369 -242.894574 
L 229.148793 -242.894574 
L 227.869217 -242.894574 
L 226.589641 -242.894574 
L 225.310066 -242.894574 
L 224.03049 -242.894574 
L 222.750914 -242.894574 
L 221.471338 -242.894574 
L 220.191762 -242.894574 
L 218.912186 -242.894574 
L 217.63261 -242.894574 
L 216.353034 -242.894574 
L 215.073458 -242.894574 
L 213.793882 -242.894574 
L 212.514306 -242.242093 
L 211.23473 -242.894574 
L 209.955154 -242.894574 
L 208.675579 -242.894574 
L 207.396003 -242.894574 
L 206.116427 -242.894574 
L 204.836851 -241.589612 
L 203.557275 -239.632169 
L 202.277699 -241.589612 
L 200.998123 -242.242093 
L 199.718547 -242.242093 
L 198.438971 -242.242093 
L 197.159395 -241.721662 
L 195.879819 -242.894574 
L 194.600243 -242.894574 
L 193.320667 -242.242093 
L 192.041091 -242.242093 
L 190.761516 -241.589612 
L 189.48194 -242.894574 
L 188.202364 -242.894574 
L 186.922788 -242.894574 
L 185.643212 -242.894574 
L 184.363636 -242.894574 
L 183.08406 -242.894574 
L 181.804484 -242.894574 
L 180.524908 -242.894574 
L 179.245332 -242.894574 
L 177.965756 -242.894574 
L 176.68618 -242.894574 
L 175.406604 -242.894574 
L 174.127029 -242.894574 
L 172.847453 -242.894574 
L 171.567877 -242.894574 
L 170.288301 -242.894574 
L 169.008725 -242.894574 
L 167.729149 -244.572383 
L 166.449573 -245.411287 
L 165.169997 -242.894574 
L 163.890421 -242.894574 
L 162.610845 -242.242093 
L 161.331269 -238.055339 
L 160.051693 -239.072899 
L 158.772117 -240.937131 
L 157.492542 -241.589612 
L 156.212966 -242.242093 
L 154.93339 -242.894574 
L 153.653814 -242.894574 
L 152.374238 -242.894574 
L 151.094662 -242.894574 
L 149.815086 -242.242093 
L 148.53551 -241.589612 
L 147.255934 -242.242093 
L 145.976358 -241.589612 
L 144.696782 -242.894574 
L 143.417206 -242.894574 
L 142.13763 -242.894574 
L 140.858054 -242.894574 
L 139.578479 -242.894574 
L 138.298903 -242.894574 
L 137.019327 -242.894574 
L 135.739751 -242.894574 
L 134.460175 -242.894574 
L 133.180599 -242.894574 
L 131.901023 -242.894574 
L 130.621447 -242.894574 
L 129.341871 -242.894574 
L 128.062295 -242.894574 
L 126.782719 -242.894574 
L 125.503143 -242.894574 
L 124.223567 -242.894574 
L 122.943992 -242.894574 
L 121.664416 -242.894574 
L 120.38484 -242.894574 
L 119.105264 -242.894574 
L 117.825688 -242.894574 
L 116.546112 -242.894574 
L 115.266536 -242.894574 
L 113.98696 -242.894574 
L 112.707384 -242.894574 
L 111.427808 -242.894574 
L 110.148232 -242.894574 
L 108.868656 -242.894574 
L 107.58908 -240.937131 
L 106.309505 -242.242093 
L 105.029929 -241.589612 
L 103.750353 -235.899822 
L 102.470777 -240.174835 
L 101.191201 -239.634111 
L 99.911625 -240.937131 
L 98.632049 -242.242093 
L 97.352473 -240.953443 
L 96.072897 -240.420001 
L 94.793321 -240.269114 
L 93.513745 -239.764218 
L 92.234169 -238.447411 
L 90.954593 -229.039255 
L 89.675017 -232.05931 
L 88.395442 -235.750198 
L 87.115866 -239.119602 
L 85.83629 -238.397115 
L 84.556714 -234.256967 
L 83.277138 -223.159449 
L 81.997562 -226.672458 
L 80.717986 -198.824235 
L 79.43841 -159.628085 
L 78.158834 -139.952965 
L 76.879258 -124.051166 
L 75.599682 -123.986792 
L 74.320106 -91.981722 
L 73.04053 -75.631051 
z
" style="stroke: #edd1cb; stroke-opacity: 0.2"/>
    </defs>
    <g clip-path="url(#pd1011bba25)">
     <use xlink:href="#m437c994f99" x="0" y="362.097812" style="fill: #edd1cb; fill-opacity: 0.2; stroke: #edd1cb; stroke-opacity: 0.2"/>
    </g>
   </g>
   <g id="PolyCollection_2">
    <defs>
     <path id="mea2494d6aa" d="M 73.04053 -62.213147 
L 73.04053 -57.203898 
L 74.320106 -61.881566 
L 75.599682 -65.555073 
L 76.879258 -80.699334 
L 78.158834 -105.06086 
L 79.43841 -107.50378 
L 80.717986 -139.184261 
L 81.997562 -149.908156 
L 83.277138 -211.463046 
L 84.556714 -224.583936 
L 85.83629 -234.113266 
L 87.115866 -266.609154 
L 88.395442 -236.637747 
L 89.675017 -252.139027 
L 90.954593 -256.702802 
L 92.234169 -273.879657 
L 93.513745 -276.606096 
L 94.793321 -259.327582 
L 96.072897 -279.332535 
L 97.352473 -279.309815 
L 98.632049 -261.610683 
L 99.911625 -258.301672 
L 101.191201 -260.923248 
L 102.470777 -281.150161 
L 103.750353 -280.241348 
L 105.029929 -284.785412 
L 106.309505 -284.785412 
L 107.58908 -284.785412 
L 108.868656 -284.785412 
L 110.148232 -262.985554 
L 111.427808 -273.01745 
L 112.707384 -282.058974 
L 113.98696 -281.150161 
L 115.266536 -263.382286 
L 116.546112 -266.772274 
L 117.825688 -243.368302 
L 119.105264 -258.565771 
L 120.38484 -250.386455 
L 121.664416 -282.967787 
L 122.943992 -282.967787 
L 124.223567 -273.926263 
L 125.503143 -273.01745 
L 126.782719 -241.632334 
L 128.062295 -263.206931 
L 129.341871 -287.511851 
L 130.621447 -287.511851 
L 131.901023 -269.918165 
L 133.180599 -287.511851 
L 134.460175 -287.511851 
L 135.739751 -248.285311 
L 137.019327 -269.813302 
L 138.298903 -269.813302 
L 139.578479 -287.511851 
L 140.858054 -287.511851 
L 142.13763 -258.417992 
L 143.417206 -287.511851 
L 144.696782 -283.8766 
L 145.976358 -249.361128 
L 147.255934 -258.756078 
L 148.53551 -267.191726 
L 149.815086 -284.785412 
L 151.094662 -282.967787 
L 152.374238 -250.433935 
L 153.653814 -273.774794 
L 154.93339 -273.774794 
L 156.212966 -266.515942 
L 157.492542 -287.511851 
L 158.772117 -279.332535 
L 160.051693 -260.464957 
L 161.331269 -279.332535 
L 162.610845 -274.683607 
L 163.890421 -279.332535 
L 165.169997 -287.511851 
L 166.449573 -279.332535 
L 167.729149 -287.511851 
L 169.008725 -240.861105 
L 170.288301 -249.31724 
L 171.567877 -240.211537 
L 172.847453 -265.711993 
L 174.127029 -287.511851 
L 175.406604 -265.711993 
L 176.68618 -251.815699 
L 177.965756 -287.511851 
L 179.245332 -287.511851 
L 180.524908 -266.376125 
L 181.804484 -277.631424 
L 183.08406 -287.511851 
L 184.363636 -287.511851 
L 185.643212 -287.511851 
L 186.922788 -287.511851 
L 188.202364 -265.863461 
L 189.48194 -287.511851 
L 190.761516 -265.711993 
L 192.041091 -287.511851 
L 193.320667 -287.511851 
L 194.600243 -287.511851 
L 195.879819 -287.511851 
L 197.159395 -265.711993 
L 198.438971 -251.881724 
L 199.718547 -287.511851 
L 200.998123 -266.026582 
L 202.277699 -269.661833 
L 203.557275 -269.918165 
L 204.836851 -265.910067 
L 206.116427 -265.711993 
L 207.396003 -287.511851 
L 208.675579 -287.511851 
L 209.955154 -287.511851 
L 211.23473 -265.979976 
L 212.514306 -267.99956 
L 213.793882 -287.511851 
L 215.073458 -270.267709 
L 216.353034 -263.230234 
L 217.63261 -279.332535 
L 218.912186 -264.729387 
L 220.191762 -245.201561 
L 221.471338 -255.563582 
L 222.750914 -251.839002 
L 224.03049 -265.711993 
L 225.310066 -287.511851 
L 226.589641 -287.511851 
L 227.869217 -287.511851 
L 229.148793 -276.641051 
L 230.428369 -253.967333 
L 231.707945 -254.389601 
L 232.987521 -271.304687 
L 234.267097 -287.511851 
L 235.546673 -279.017946 
L 236.826249 -279.017946 
L 238.105825 -279.017946 
L 239.385401 -279.017946 
L 240.664977 -287.511851 
L 241.944553 -265.711993 
L 243.224128 -265.956673 
L 244.503704 -254.907217 
L 245.78328 -266.084839 
L 247.062856 -265.863461 
L 248.342432 -252.798305 
L 249.622008 -267.168423 
L 250.901584 -287.511851 
L 252.18116 -265.910067 
L 253.460736 -287.511851 
L 254.740312 -287.511851 
L 256.019888 -260.542634 
L 257.299464 -255.485905 
L 258.57904 -277.631424 
L 259.858616 -269.929817 
L 261.138191 -266.947046 
L 262.417767 -284.785412 
L 263.697343 -287.511851 
L 264.976919 -287.511851 
L 266.256495 -287.511851 
L 267.536071 -287.511851 
L 268.815647 -287.511851 
L 270.095223 -287.511851 
L 271.374799 -240.121529 
L 272.654375 -251.586554 
L 273.933951 -274.159292 
L 275.213527 -284.785412 
L 276.493103 -287.511851 
L 277.772678 -284.785412 
L 279.052254 -284.785412 
L 280.33183 -252.141163 
L 281.611406 -287.511851 
L 282.890982 -287.511851 
L 284.170558 -269.708439 
L 285.450134 -268.578249 
L 286.72971 -291.147103 
L 288.009286 -269.317048 
L 289.288862 -289.935352 
L 290.568438 -270.27936 
L 291.848014 -278.33051 
L 293.12759 -279.542261 
L 294.407165 -264.529371 
L 295.686741 -287.360382 
L 296.966317 -272.98638 
L 298.245893 -288.117727 
L 299.525469 -284.777839 
L 300.805045 -273.266014 
L 302.084621 -286.261457 
L 303.364197 -256.672799 
L 304.643773 -258.921529 
L 305.923349 -302.052858 
L 307.202925 -269.234128 
L 308.482501 -298.417606 
L 309.762077 -257.221874 
L 311.041653 -306.89986 
L 312.321228 -273.84548 
L 313.600804 -289.224614 
L 314.88038 -284.540441 
L 316.159956 -308.111611 
L 317.439532 -299.780826 
L 318.719108 -300.973643 
L 319.998684 -314.170364 
L 321.27826 -312.958613 
L 322.557836 -310.535112 
L 323.837412 -310.523461 
L 325.116988 -265.279141 
L 326.396564 -295.003732 
L 327.67614 -283.802807 
L 327.67614 -326.287869 
L 327.67614 -326.287869 
L 326.396564 -325.076119 
L 325.116988 -318.207396 
L 323.837412 -323.864368 
L 322.557836 -321.440867 
L 321.27826 -323.864368 
L 319.998684 -325.076119 
L 318.719108 -322.652618 
L 317.439532 -322.652618 
L 316.159956 -320.229116 
L 314.88038 -315.382114 
L 313.600804 -320.229116 
L 312.321228 -315.382114 
L 311.041653 -319.017366 
L 309.762077 -309.323361 
L 308.482501 -311.746863 
L 307.202925 -306.89986 
L 305.923349 -314.170364 
L 304.643773 -303.40831 
L 303.364197 -303.268201 
L 302.084621 -306.89986 
L 300.805045 -304.476359 
L 299.525469 -302.355796 
L 298.245893 -305.68811 
L 296.966317 -305.68811 
L 295.686741 -304.476359 
L 294.407165 -298.417606 
L 293.12759 -297.205856 
L 291.848014 -295.994105 
L 290.568438 -298.417606 
L 289.288862 -299.629357 
L 288.009286 -298.417606 
L 286.72971 -302.052858 
L 285.450134 -295.994105 
L 284.170558 -294.782355 
L 282.890982 -291.147103 
L 281.611406 -287.511851 
L 280.33183 -287.511851 
L 279.052254 -287.511851 
L 277.772678 -287.511851 
L 276.493103 -291.147103 
L 275.213527 -287.511851 
L 273.933951 -287.511851 
L 272.654375 -287.511851 
L 271.374799 -287.511851 
L 270.095223 -287.511851 
L 268.815647 -287.511851 
L 267.536071 -287.511851 
L 266.256495 -287.511851 
L 264.976919 -287.511851 
L 263.697343 -287.511851 
L 262.417767 -287.511851 
L 261.138191 -287.511851 
L 259.858616 -287.511851 
L 258.57904 -287.511851 
L 257.299464 -287.511851 
L 256.019888 -287.511851 
L 254.740312 -287.511851 
L 253.460736 -287.511851 
L 252.18116 -287.511851 
L 250.901584 -287.511851 
L 249.622008 -287.511851 
L 248.342432 -287.511851 
L 247.062856 -287.511851 
L 245.78328 -287.511851 
L 244.503704 -287.511851 
L 243.224128 -287.511851 
L 241.944553 -287.511851 
L 240.664977 -287.511851 
L 239.385401 -287.511851 
L 238.105825 -287.511851 
L 236.826249 -287.511851 
L 235.546673 -287.511851 
L 234.267097 -287.511851 
L 232.987521 -287.511851 
L 231.707945 -287.511851 
L 230.428369 -287.511851 
L 229.148793 -287.511851 
L 227.869217 -287.511851 
L 226.589641 -287.511851 
L 225.310066 -287.511851 
L 224.03049 -287.511851 
L 222.750914 -287.511851 
L 221.471338 -287.511851 
L 220.191762 -287.511851 
L 218.912186 -287.511851 
L 217.63261 -287.511851 
L 216.353034 -287.511851 
L 215.073458 -287.511851 
L 213.793882 -287.511851 
L 212.514306 -287.511851 
L 211.23473 -287.511851 
L 209.955154 -287.511851 
L 208.675579 -287.511851 
L 207.396003 -287.511851 
L 206.116427 -287.511851 
L 204.836851 -287.511851 
L 203.557275 -287.511851 
L 202.277699 -287.511851 
L 200.998123 -287.511851 
L 199.718547 -287.511851 
L 198.438971 -287.511851 
L 197.159395 -287.511851 
L 195.879819 -287.511851 
L 194.600243 -287.511851 
L 193.320667 -287.511851 
L 192.041091 -287.511851 
L 190.761516 -287.511851 
L 189.48194 -287.511851 
L 188.202364 -287.511851 
L 186.922788 -287.511851 
L 185.643212 -287.511851 
L 184.363636 -287.511851 
L 183.08406 -287.511851 
L 181.804484 -287.511851 
L 180.524908 -287.511851 
L 179.245332 -287.511851 
L 177.965756 -287.511851 
L 176.68618 -287.511851 
L 175.406604 -287.511851 
L 174.127029 -287.511851 
L 172.847453 -291.147103 
L 171.567877 -288.723602 
L 170.288301 -288.723602 
L 169.008725 -287.511851 
L 167.729149 -287.511851 
L 166.449573 -287.511851 
L 165.169997 -287.511851 
L 163.890421 -287.511851 
L 162.610845 -287.511851 
L 161.331269 -287.511851 
L 160.051693 -287.511851 
L 158.772117 -287.511851 
L 157.492542 -287.511851 
L 156.212966 -287.511851 
L 154.93339 -287.511851 
L 153.653814 -287.511851 
L 152.374238 -287.511851 
L 151.094662 -287.511851 
L 149.815086 -287.511851 
L 148.53551 -287.511851 
L 147.255934 -287.511851 
L 145.976358 -287.511851 
L 144.696782 -287.511851 
L 143.417206 -287.511851 
L 142.13763 -287.511851 
L 140.858054 -287.511851 
L 139.578479 -287.511851 
L 138.298903 -287.511851 
L 137.019327 -287.511851 
L 135.739751 -287.511851 
L 134.460175 -287.511851 
L 133.180599 -287.511851 
L 131.901023 -287.511851 
L 130.621447 -287.511851 
L 129.341871 -287.511851 
L 128.062295 -287.511851 
L 126.782719 -286.603038 
L 125.503143 -287.511851 
L 124.223567 -287.511851 
L 122.943992 -287.511851 
L 121.664416 -287.511851 
L 120.38484 -286.603038 
L 119.105264 -287.511851 
L 117.825688 -284.785412 
L 116.546112 -286.603038 
L 115.266536 -287.511851 
L 113.98696 -287.511851 
L 112.707384 -287.511851 
L 111.427808 -287.511851 
L 110.148232 -287.511851 
L 108.868656 -287.511851 
L 107.58908 -287.511851 
L 106.309505 -287.511851 
L 105.029929 -287.511851 
L 103.750353 -286.603038 
L 102.470777 -287.511851 
L 101.191201 -285.694225 
L 99.911625 -283.8766 
L 98.632049 -283.8766 
L 97.352473 -286.603038 
L 96.072897 -286.603038 
L 94.793321 -285.694225 
L 93.513745 -284.785412 
L 92.234169 -282.967787 
L 90.954593 -279.332535 
L 89.675017 -275.697283 
L 88.395442 -272.062032 
L 87.115866 -275.697283 
L 85.83629 -269.537551 
L 84.556714 -266.972679 
L 83.277138 -256.194799 
L 81.997562 -212.562554 
L 80.717986 -195.711745 
L 79.43841 -151.751998 
L 78.158834 -141.668447 
L 76.879258 -105.326707 
L 75.599682 -81.295014 
L 74.320106 -68.318894 
L 73.04053 -62.213147 
z
" style="stroke: #d499a7; stroke-opacity: 0.2"/>
    </defs>
    <g clip-path="url(#pd1011bba25)">
     <use xlink:href="#mea2494d6aa" x="0" y="362.097812" style="fill: #d499a7; fill-opacity: 0.2; stroke: #d499a7; stroke-opacity: 0.2"/>
    </g>
   </g>
   <g id="PolyCollection_3">
    <defs>
     <path id="m0e30b5630f" d="M 73.04053 -60.172881 
L 73.04053 -56.451506 
L 74.320106 -60.626414 
L 75.599682 -63.198082 
L 76.879258 -63.476358 
L 78.158834 -64.071164 
L 79.43841 -65.305441 
L 80.717986 -64.953082 
L 81.997562 -65.814318 
L 83.277138 -72.266307 
L 84.556714 -67.583008 
L 85.83629 -67.425616 
L 87.115866 -67.384545 
L 88.395442 -67.567181 
L 89.675017 -68.53027 
L 90.954593 -68.471722 
L 92.234169 -71.882003 
L 93.513745 -73.606515 
L 94.793321 -75.815921 
L 96.072897 -74.76797 
L 97.352473 -75.785141 
L 98.632049 -76.402668 
L 99.911625 -79.634003 
L 101.191201 -76.614724 
L 102.470777 -80.989066 
L 103.750353 -73.113367 
L 105.029929 -75.738536 
L 106.309505 -79.859361 
L 107.58908 -82.569974 
L 108.868656 -91.964633 
L 110.148232 -135.569982 
L 111.427808 -163.065845 
L 112.707384 -181.817685 
L 113.98696 -174.267547 
L 115.266536 -184.955808 
L 116.546112 -184.843178 
L 117.825688 -194.688651 
L 119.105264 -193.360386 
L 120.38484 -188.847392 
L 121.664416 -179.931704 
L 122.943992 -183.173137 
L 124.223567 -171.764233 
L 125.503143 -185.188837 
L 126.782719 -179.184458 
L 128.062295 -179.281553 
L 129.341871 -198.277297 
L 130.621447 -167.987999 
L 131.901023 -198.277297 
L 133.180599 -187.185119 
L 134.460175 -193.515739 
L 135.739751 -186.332038 
L 137.019327 -203.299071 
L 138.298903 -206.759551 
L 139.578479 -209.952047 
L 140.858054 -200.703128 
L 142.13763 -210.577924 
L 143.417206 -215.194325 
L 144.696782 -241.457562 
L 145.976358 -243.112068 
L 147.255934 -233.938495 
L 148.53551 -251.842886 
L 149.815086 -251.842886 
L 151.094662 -251.842886 
L 152.374238 -251.842886 
L 153.653814 -233.946262 
L 154.93339 -233.480204 
L 156.212966 -251.842886 
L 157.492542 -235.927008 
L 158.772117 -251.842886 
L 160.051693 -251.842886 
L 161.331269 -251.842886 
L 162.610845 -251.842886 
L 163.890421 -251.842886 
L 165.169997 -251.842886 
L 166.449573 -251.842886 
L 167.729149 -233.946262 
L 169.008725 -251.842886 
L 170.288301 -233.68993 
L 171.567877 -251.842886 
L 172.847453 -205.000182 
L 174.127029 -233.386993 
L 175.406604 -251.842886 
L 176.68618 -251.842886 
L 177.965756 -251.842886 
L 179.245332 -233.643325 
L 180.524908 -251.842886 
L 181.804484 -251.842886 
L 183.08406 -251.842886 
L 184.363636 -234.552137 
L 185.643212 -232.963657 
L 186.922788 -251.842886 
L 188.202364 -245.900648 
L 189.48194 -235.425996 
L 190.761516 -244.747154 
L 192.041091 -251.668114 
L 193.320667 -251.668114 
L 194.600243 -234.016171 
L 195.879819 -251.668114 
L 197.159395 -234.004519 
L 198.438971 -237.348485 
L 199.718547 -244.747154 
L 200.998123 -251.668114 
L 202.277699 -233.876353 
L 203.557275 -234.004519 
L 204.836851 -235.860595 
L 206.116427 -245.772482 
L 207.396003 -235.389585 
L 208.675579 -251.842886 
L 209.955154 -235.425996 
L 211.23473 -235.425996 
L 212.514306 -235.425996 
L 213.793882 -209.955931 
L 215.073458 -219.447977 
L 216.353034 -243.768433 
L 217.63261 -251.842886 
L 218.912186 -243.244117 
L 220.191762 -222.667564 
L 221.471338 -235.321133 
L 222.750914 -251.842886 
L 224.03049 -225.949291 
L 225.310066 -229.169169 
L 226.589641 -239.841895 
L 227.869217 -237.639771 
L 229.148793 -251.842886 
L 230.428369 -227.537966 
L 231.707945 -227.464173 
L 232.987521 -238.828219 
L 234.267097 -231.483923 
L 235.546673 -235.00266 
L 236.826249 -228.466198 
L 238.105825 -231.441201 
L 239.385401 -224.407028 
L 240.664977 -211.373718 
L 241.944553 -224.087001 
L 243.224128 -240.793235 
L 244.503704 -255.287831 
L 245.78328 -254.709142 
L 247.062856 -241.702243 
L 248.342432 -243.034391 
L 249.622008 -212.023189 
L 250.901584 -238.303904 
L 252.18116 -240.098227 
L 253.460736 -230.51996 
L 254.740312 -252.277873 
L 256.019888 -226.196108 
L 257.299464 -248.316284 
L 258.57904 -261.373188 
L 259.858616 -246.471568 
L 261.138191 -235.809232 
L 262.417767 -232.397979 
L 263.697343 -241.760306 
L 264.976919 -257.979315 
L 266.256495 -231.620245 
L 267.536071 -232.672371 
L 268.815647 -246.873641 
L 270.095223 -220.610889 
L 271.374799 -221.204239 
L 272.654375 -268.737874 
L 273.933951 -239.256409 
L 275.213527 -251.900561 
L 276.493103 -253.450786 
L 277.772678 -273.817516 
L 279.052254 -243.42957 
L 280.33183 -252.927636 
L 281.611406 -257.502188 
L 282.890982 -256.317042 
L 284.170558 -250.304895 
L 285.450134 -247.084629 
L 286.72971 -279.550029 
L 288.009286 -282.416285 
L 289.288862 -282.416285 
L 290.568438 -247.766627 
L 291.848014 -260.744592 
L 293.12759 -245.566639 
L 294.407165 -235.883218 
L 295.686741 -253.512927 
L 296.966317 -282.416285 
L 298.245893 -262.084508 
L 299.525469 -247.948001 
L 300.805045 -262.643778 
L 302.084621 -262.25928 
L 303.364197 -282.416285 
L 304.643773 -261.956343 
L 305.923349 -252.809956 
L 307.202925 -269.867676 
L 308.482501 -243.982625 
L 309.762077 -253.58235 
L 311.041653 -259.614402 
L 312.321228 -273.746054 
L 313.600804 -276.753681 
L 314.88038 -237.006321 
L 316.159956 -261.338816 
L 317.439532 -282.416285 
L 318.719108 -282.416285 
L 319.998684 -275.29725 
L 321.27826 -254.312993 
L 322.557836 -235.678444 
L 323.837412 -282.416285 
L 325.116988 -261.094135 
L 326.396564 -243.671337 
L 327.67614 -249.667949 
L 327.67614 -282.416285 
L 327.67614 -282.416285 
L 326.396564 -282.416285 
L 325.116988 -282.416285 
L 323.837412 -282.416285 
L 322.557836 -280.835572 
L 321.27826 -282.416285 
L 319.998684 -282.416285 
L 318.719108 -282.416285 
L 317.439532 -282.416285 
L 316.159956 -282.416285 
L 314.88038 -282.416285 
L 313.600804 -282.416285 
L 312.321228 -282.416285 
L 311.041653 -282.416285 
L 309.762077 -282.416285 
L 308.482501 -282.416285 
L 307.202925 -282.416285 
L 305.923349 -282.416285 
L 304.643773 -282.416285 
L 303.364197 -282.416285 
L 302.084621 -282.416285 
L 300.805045 -282.416285 
L 299.525469 -282.416285 
L 298.245893 -282.416285 
L 296.966317 -282.416285 
L 295.686741 -282.416285 
L 294.407165 -277.476071 
L 293.12759 -282.416285 
L 291.848014 -282.416285 
L 290.568438 -282.416285 
L 289.288862 -282.416285 
L 288.009286 -282.416285 
L 286.72971 -282.416285 
L 285.450134 -282.416285 
L 284.170558 -281.460866 
L 282.890982 -281.460866 
L 281.611406 -279.550029 
L 280.33183 -279.550029 
L 279.052254 -278.59461 
L 277.772678 -280.529333 
L 276.493103 -278.59461 
L 275.213527 -278.59461 
L 273.933951 -275.728354 
L 272.654375 -278.59461 
L 271.374799 -270.934366 
L 270.095223 -268.951095 
L 268.815647 -272.862098 
L 267.536071 -267.129585 
L 266.256495 -266.174167 
L 264.976919 -269.040423 
L 263.697343 -268.473386 
L 262.417767 -268.488921 
L 261.138191 -268.085004 
L 259.858616 -268.085004 
L 258.57904 -271.906679 
L 257.299464 -269.040423 
L 256.019888 -265.218748 
L 254.740312 -267.129585 
L 253.460736 -264.263329 
L 252.18116 -264.263329 
L 250.901584 -266.174167 
L 249.622008 -256.535701 
L 248.342432 -261.60845 
L 247.062856 -261.397073 
L 245.78328 -264.263329 
L 244.503704 -265.218748 
L 243.224128 -261.80099 
L 241.944553 -257.581806 
L 240.664977 -252.4742 
L 239.385401 -256.619979 
L 238.105825 -256.619979 
L 236.826249 -256.619979 
L 235.546673 -259.486236 
L 234.267097 -256.619979 
L 232.987521 -256.619979 
L 231.707945 -255.664561 
L 230.428369 -254.709142 
L 229.148793 -257.575398 
L 227.869217 -255.664561 
L 226.589641 -258.530817 
L 225.310066 -254.709142 
L 224.03049 -254.709142 
L 222.750914 -257.575398 
L 221.471338 -255.664561 
L 220.191762 -253.376993 
L 218.912186 -254.709142 
L 217.63261 -256.619979 
L 216.353034 -254.709142 
L 215.073458 -251.842886 
L 213.793882 -246.459917 
L 212.514306 -251.842886 
L 211.23473 -251.842886 
L 209.955154 -251.842886 
L 208.675579 -251.842886 
L 207.396003 -251.842886 
L 206.116427 -251.842886 
L 204.836851 -251.842886 
L 203.557275 -251.842886 
L 202.277699 -251.842886 
L 200.998123 -251.842886 
L 199.718547 -251.842886 
L 198.438971 -251.842886 
L 197.159395 -251.842886 
L 195.879819 -251.842886 
L 194.600243 -251.842886 
L 193.320667 -251.842886 
L 192.041091 -251.842886 
L 190.761516 -251.842886 
L 189.48194 -251.842886 
L 188.202364 -251.842886 
L 186.922788 -251.842886 
L 185.643212 -251.842886 
L 184.363636 -251.842886 
L 183.08406 -251.842886 
L 181.804484 -251.842886 
L 180.524908 -251.842886 
L 179.245332 -251.842886 
L 177.965756 -251.842886 
L 176.68618 -251.842886 
L 175.406604 -251.842886 
L 174.127029 -251.842886 
L 172.847453 -246.689062 
L 171.567877 -251.842886 
L 170.288301 -251.842886 
L 169.008725 -251.842886 
L 167.729149 -251.842886 
L 166.449573 -251.842886 
L 165.169997 -251.842886 
L 163.890421 -251.842886 
L 162.610845 -251.842886 
L 161.331269 -251.842886 
L 160.051693 -251.842886 
L 158.772117 -251.842886 
L 157.492542 -251.842886 
L 156.212966 -251.842886 
L 154.93339 -251.842886 
L 153.653814 -251.842886 
L 152.374238 -251.842886 
L 151.094662 -251.842886 
L 149.815086 -251.842886 
L 148.53551 -251.842886 
L 147.255934 -251.842886 
L 145.976358 -251.842886 
L 144.696782 -251.842886 
L 143.417206 -246.821112 
L 142.13763 -244.960764 
L 140.858054 -232.900448 
L 139.578479 -237.349553 
L 138.298903 -225.060091 
L 137.019327 -220.038317 
L 135.739751 -211.668694 
L 134.460175 -209.994769 
L 133.180599 -204.972995 
L 131.901023 -206.64692 
L 130.621447 -198.277297 
L 129.341871 -198.277297 
L 128.062295 -198.277297 
L 126.782719 -198.277297 
L 125.503143 -198.277297 
L 124.223567 -195.007124 
L 122.943992 -198.277297 
L 121.664416 -196.638327 
L 120.38484 -198.277297 
L 119.105264 -198.277297 
L 117.825688 -198.277297 
L 116.546112 -198.277297 
L 115.266536 -198.277297 
L 113.98696 -196.545115 
L 112.707384 -198.277297 
L 111.427808 -191.528778 
L 110.148232 -175.145969 
L 108.868656 -129.489091 
L 107.58908 -106.198818 
L 106.309505 -95.828933 
L 105.029929 -82.757562 
L 103.750353 -81.437064 
L 102.470777 -87.367554 
L 101.191201 -84.17564 
L 99.911625 -86.793332 
L 98.632049 -83.522868 
L 97.352473 -84.57713 
L 96.072897 -83.029623 
L 94.793321 -83.71667 
L 93.513745 -82.2415 
L 92.234169 -80.027433 
L 90.954593 -76.391599 
L 89.675017 -76.473159 
L 88.395442 -75.311995 
L 87.115866 -74.898563 
L 85.83629 -75.37569 
L 84.556714 -74.842636 
L 83.277138 -80.209779 
L 81.997562 -73.647198 
L 80.717986 -71.118251 
L 79.43841 -72.309806 
L 78.158834 -70.037968 
L 76.879258 -69.449084 
L 75.599682 -68.193641 
L 74.320106 -66.927905 
L 73.04053 -60.172881 
z
" style="stroke: #a9678f; stroke-opacity: 0.2"/>
    </defs>
    <g clip-path="url(#pd1011bba25)">
     <use xlink:href="#m0e30b5630f" x="0" y="362.097812" style="fill: #a9678f; fill-opacity: 0.2; stroke: #a9678f; stroke-opacity: 0.2"/>
    </g>
   </g>
   <g id="PolyCollection_4">
    <defs>
     <path id="m42485bb28b" d="M 73.04053 -65.145233 
L 73.04053 -57.807346 
L 74.320106 -63.027 
L 75.599682 -68.576682 
L 76.879258 -71.497603 
L 78.158834 -71.60266 
L 79.43841 -72.429621 
L 80.717986 -69.310335 
L 81.997562 -72.523319 
L 83.277138 -68.359674 
L 84.556714 -69.064586 
L 85.83629 -69.691823 
L 87.115866 -71.003776 
L 88.395442 -70.423533 
L 89.675017 -78.375355 
L 90.954593 -82.930974 
L 92.234169 -88.581635 
L 93.513745 -89.852711 
L 94.793321 -93.487186 
L 96.072897 -101.094999 
L 97.352473 -102.187807 
L 98.632049 -106.199789 
L 99.911625 -105.022993 
L 101.191201 -110.161281 
L 102.470777 -110.161281 
L 103.750353 -109.275771 
L 105.029929 -110.161281 
L 106.309505 -104.397699 
L 107.58908 -106.176486 
L 108.868656 -104.323906 
L 110.148232 -105.057947 
L 111.427808 -105.8852 
L 112.707384 -101.320066 
L 113.98696 -104.709278 
L 115.266536 -102.436372 
L 116.546112 -106.370192 
L 117.825688 -104.941433 
L 119.105264 -109.217514 
L 120.38484 -101.122088 
L 121.664416 -108.394145 
L 122.943992 -105.912387 
L 124.223567 -102.110131 
L 125.503143 -102.137997 
L 126.782719 -103.636471 
L 128.062295 -102.479094 
L 129.341871 -103.927757 
L 130.621447 -104.219043 
L 131.901023 -108.483473 
L 133.180599 -108.483473 
L 134.460175 -107.924203 
L 135.739751 -108.483473 
L 137.019327 -110.161281 
L 138.298903 -105.745383 
L 139.578479 -103.464321 
L 140.858054 -108.906809 
L 142.13763 -110.262261 
L 143.417206 -104.959881 
L 144.696782 -105.889084 
L 145.976358 -109.159257 
L 147.255934 -102.075759 
L 148.53551 -105.617217 
L 149.815086 -103.115748 
L 151.094662 -100.159873 
L 152.374238 -104.843464 
L 153.653814 -104.524602 
L 154.93339 -110.262261 
L 156.212966 -101.201318 
L 157.492542 -101.395218 
L 158.772117 -103.839012 
L 160.051693 -106.937714 
L 161.331269 -110.262261 
L 162.610845 -103.356739 
L 163.890421 -107.057336 
L 165.169997 -101.39716 
L 166.449573 -102.302671 
L 167.729149 -107.601847 
L 169.008725 -101.656404 
L 170.288301 -112.78043 
L 171.567877 -116.447723 
L 172.847453 -139.836742 
L 174.127029 -156.61036 
L 175.406604 -166.784793 
L 176.68618 -174.061996 
L 177.965756 -183.743766 
L 179.245332 -173.331547 
L 180.524908 -182.224321 
L 181.804484 -217.393439 
L 183.08406 -205.369145 
L 184.363636 -194.855849 
L 185.643212 -208.903417 
L 186.922788 -208.685923 
L 188.202364 -213.64944 
L 189.48194 -210.355964 
L 190.761516 -210.355964 
L 192.041091 -212.73286 
L 193.320667 -212.73286 
L 194.600243 -223.009437 
L 195.879819 -210.833674 
L 197.159395 -204.697245 
L 198.438971 -213.000843 
L 199.718547 -207.314936 
L 200.998123 -201.625146 
L 202.277699 -200.665844 
L 203.557275 -212.581391 
L 204.836851 -213.000843 
L 206.116427 -207.396497 
L 207.396003 -223.009437 
L 208.675579 -212.73286 
L 209.955154 -200.948488 
L 211.23473 -189.149553 
L 212.514306 -195.927588 
L 213.793882 -202.778639 
L 215.073458 -197.457812 
L 216.353034 -205.376912 
L 217.63261 -205.477892 
L 218.912186 -193.671091 
L 220.191762 -201.922549 
L 221.471338 -192.992977 
L 222.750914 -200.405628 
L 224.03049 -203.737942 
L 225.310066 -223.009437 
L 226.589641 -223.009437 
L 227.869217 -223.009437 
L 229.148793 -223.009437 
L 230.428369 -197.582094 
L 231.707945 -207.279982 
L 232.987521 -205.376912 
L 234.267097 -195.377737 
L 235.546673 -193.814792 
L 236.826249 -207.314936 
L 238.105825 -208.573293 
L 239.385401 -207.606223 
L 240.664977 -223.009437 
L 241.944553 -201.865943 
L 243.224128 -195.597464 
L 244.503704 -197.865612 
L 245.78328 -201.232881 
L 247.062856 -208.899533 
L 248.342432 -209.586969 
L 249.622008 -223.009437 
L 250.901584 -223.009437 
L 252.18116 -190.474711 
L 253.460736 -198.859869 
L 254.740312 -223.009437 
L 256.019888 -208.083932 
L 257.299464 -208.806322 
L 258.57904 -196.866404 
L 259.858616 -190.56734 
L 261.138191 -194.516889 
L 262.417767 -186.101534 
L 263.697343 -201.982457 
L 264.976919 -205.562462 
L 266.256495 -192.797233 
L 267.536071 -191.814627 
L 268.815647 -203.535984 
L 270.095223 -223.009437 
L 271.374799 -208.899533 
L 272.654375 -198.417114 
L 273.933951 -208.619899 
L 275.213527 -208.351915 
L 276.493103 -223.009437 
L 277.772678 -223.009437 
L 279.052254 -193.053176 
L 280.33183 -223.009437 
L 281.611406 -223.009437 
L 282.890982 -189.913596 
L 284.170558 -201.306673 
L 285.450134 -194.481546 
L 286.72971 -213.000843 
L 288.009286 -191.055244 
L 289.288862 -205.757526 
L 290.568438 -196.883007 
L 291.848014 -206.328447 
L 293.12759 -196.704157 
L 294.407165 -205.578871 
L 295.686741 -212.429922 
L 296.966317 -213.000843 
L 298.245893 -213.000843 
L 299.525469 -195.826609 
L 300.805045 -213.000843 
L 302.084621 -223.009437 
L 303.364197 -193.372037 
L 304.643773 -194.002381 
L 305.923349 -213.000843 
L 307.202925 -194.257839 
L 308.482501 -200.20367 
L 309.762077 -213.000843 
L 311.041653 -198.7084 
L 312.321228 -205.757526 
L 313.600804 -201.982457 
L 314.88038 -205.947833 
L 316.159956 -197.248086 
L 317.439532 -202.052075 
L 318.719108 -194.443971 
L 319.998684 -191.208752 
L 321.27826 -193.908004 
L 322.557836 -191.496154 
L 323.837412 -191.922403 
L 325.116988 -223.009437 
L 326.396564 -210.588993 
L 327.67614 -212.429922 
L 327.67614 -223.009437 
L 327.67614 -223.009437 
L 326.396564 -223.009437 
L 325.116988 -223.009437 
L 323.837412 -223.009437 
L 322.557836 -219.673239 
L 321.27826 -219.673239 
L 319.998684 -219.673239 
L 318.719108 -219.673239 
L 317.439532 -223.009437 
L 316.159956 -223.009437 
L 314.88038 -223.009437 
L 313.600804 -223.009437 
L 312.321228 -223.009437 
L 311.041653 -223.009437 
L 309.762077 -223.009437 
L 308.482501 -223.009437 
L 307.202925 -223.009437 
L 305.923349 -223.009437 
L 304.643773 -223.009437 
L 303.364197 -223.009437 
L 302.084621 -223.009437 
L 300.805045 -223.009437 
L 299.525469 -223.009437 
L 298.245893 -223.009437 
L 296.966317 -223.009437 
L 295.686741 -223.009437 
L 294.407165 -223.009437 
L 293.12759 -223.009437 
L 291.848014 -223.009437 
L 290.568438 -223.009437 
L 289.288862 -223.009437 
L 288.009286 -223.009437 
L 286.72971 -223.009437 
L 285.450134 -223.009437 
L 284.170558 -223.009437 
L 282.890982 -219.673239 
L 281.611406 -223.009437 
L 280.33183 -223.009437 
L 279.052254 -223.009437 
L 277.772678 -223.009437 
L 276.493103 -223.009437 
L 275.213527 -223.009437 
L 273.933951 -223.009437 
L 272.654375 -223.009437 
L 271.374799 -223.009437 
L 270.095223 -223.009437 
L 268.815647 -223.009437 
L 267.536071 -219.482932 
L 266.256495 -219.673239 
L 264.976919 -223.009437 
L 263.697343 -223.009437 
L 262.417767 -218.224575 
L 261.138191 -219.673239 
L 259.858616 -219.583911 
L 258.57904 -223.009437 
L 257.299464 -223.009437 
L 256.019888 -223.009437 
L 254.740312 -223.009437 
L 253.460736 -223.009437 
L 252.18116 -223.009437 
L 250.901584 -223.009437 
L 249.622008 -223.009437 
L 248.342432 -223.009437 
L 247.062856 -223.428889 
L 245.78328 -223.009437 
L 244.503704 -223.009437 
L 243.224128 -223.009437 
L 241.944553 -223.009437 
L 240.664977 -223.009437 
L 239.385401 -223.009437 
L 238.105825 -223.009437 
L 236.826249 -223.009437 
L 235.546673 -223.009437 
L 234.267097 -219.673239 
L 232.987521 -223.009437 
L 231.707945 -223.009437 
L 230.428369 -223.009437 
L 229.148793 -223.009437 
L 227.869217 -223.009437 
L 226.589641 -223.009437 
L 225.310066 -223.009437 
L 224.03049 -223.009437 
L 222.750914 -223.009437 
L 221.471338 -223.009437 
L 220.191762 -223.009437 
L 218.912186 -219.583911 
L 217.63261 -223.009437 
L 216.353034 -223.009437 
L 215.073458 -223.009437 
L 213.793882 -223.009437 
L 212.514306 -223.009437 
L 211.23473 -218.026501 
L 209.955154 -223.009437 
L 208.675579 -223.009437 
L 207.396003 -223.009437 
L 206.116427 -223.009437 
L 204.836851 -223.009437 
L 203.557275 -223.009437 
L 202.277699 -223.009437 
L 200.998123 -223.289071 
L 199.718547 -223.009437 
L 198.438971 -223.009437 
L 197.159395 -223.009437 
L 195.879819 -223.009437 
L 194.600243 -223.009437 
L 193.320667 -223.009437 
L 192.041091 -223.009437 
L 190.761516 -223.009437 
L 189.48194 -223.009437 
L 188.202364 -223.009437 
L 186.922788 -223.009437 
L 185.643212 -223.009437 
L 184.363636 -221.137437 
L 183.08406 -223.009437 
L 181.804484 -223.009437 
L 180.524908 -216.341216 
L 179.245332 -211.586357 
L 177.965756 -214.057241 
L 176.68618 -206.965393 
L 175.406604 -201.617379 
L 174.127029 -192.266024 
L 172.847453 -171.690732 
L 171.567877 -145.484199 
L 170.288301 -136.264699 
L 169.008725 -117.698215 
L 167.729149 -117.799873 
L 166.449573 -116.027106 
L 165.169997 -113.57234 
L 163.890421 -110.868136 
L 162.610845 -110.137979 
L 161.331269 -110.716667 
L 160.051693 -110.666177 
L 158.772117 -110.464219 
L 157.492542 -109.869995 
L 156.212966 -109.920485 
L 154.93339 -110.66744 
L 153.653814 -110.565198 
L 152.374238 -110.464219 
L 151.094662 -110.075837 
L 149.815086 -110.31275 
L 148.53551 -110.565198 
L 147.255934 -110.139241 
L 145.976358 -110.868136 
L 144.696782 -110.565198 
L 143.417206 -110.61695 
L 142.13763 -110.767157 
L 140.858054 -110.464219 
L 139.578479 -110.364502 
L 138.298903 -110.36324 
L 137.019327 -110.31275 
L 135.739751 -110.161281 
L 134.460175 -110.161281 
L 133.180599 -110.161281 
L 131.901023 -110.161281 
L 130.621447 -110.161281 
L 129.341871 -110.161281 
L 128.062295 -110.161281 
L 126.782719 -110.161281 
L 125.503143 -110.161281 
L 124.223567 -110.161281 
L 122.943992 -110.161281 
L 121.664416 -110.161281 
L 120.38484 -109.807854 
L 119.105264 -110.161281 
L 117.825688 -110.161281 
L 116.546112 -110.161281 
L 115.266536 -110.161281 
L 113.98696 -110.161281 
L 112.707384 -109.990394 
L 111.427808 -110.161281 
L 110.148232 -110.161281 
L 108.868656 -110.161281 
L 107.58908 -110.161281 
L 106.309505 -110.161281 
L 105.029929 -110.161281 
L 103.750353 -110.161281 
L 102.470777 -110.161281 
L 101.191201 -110.161281 
L 99.911625 -110.161281 
L 98.632049 -110.161281 
L 97.352473 -109.217514 
L 96.072897 -108.576685 
L 94.793321 -104.74899 
L 93.513745 -101.663686 
L 92.234169 -98.559352 
L 90.954593 -91.851031 
L 89.675017 -87.088793 
L 88.395442 -78.978803 
L 87.115866 -77.988042 
L 85.83629 -77.903666 
L 84.556714 -79.064927 
L 83.277138 -77.542762 
L 81.997562 -83.096522 
L 80.717986 -81.73204 
L 79.43841 -85.212522 
L 78.158834 -83.006806 
L 76.879258 -83.619866 
L 75.599682 -79.771102 
L 74.320106 -72.120858 
L 73.04053 -65.145233 
z
" style="stroke: #6c3f70; stroke-opacity: 0.2"/>
    </defs>
    <g clip-path="url(#pd1011bba25)">
     <use xlink:href="#m42485bb28b" x="0" y="362.097812" style="fill: #6c3f70; fill-opacity: 0.2; stroke: #6c3f70; stroke-opacity: 0.2"/>
    </g>
   </g>
   <g id="PolyCollection_5">
    <defs>
     <path id="mde3a9b6b17" d="M 73.04053 -59.085413 
L 73.04053 -56.727742 
L 74.320106 -58.102516 
L 75.599682 -61.360066 
L 76.879258 -64.168939 
L 78.158834 -69.520546 
L 79.43841 -70.00612 
L 80.717986 -70.195165 
L 81.997562 -82.491423 
L 83.277138 -95.868839 
L 84.556714 -104.829967 
L 85.83629 -120.511165 
L 87.115866 -112.581773 
L 88.395442 -118.249911 
L 89.675017 -151.754814 
L 90.954593 -168.008195 
L 92.234169 -182.642705 
L 93.513745 -171.069419 
L 94.793321 -179.774604 
L 96.072897 -198.835207 
L 97.352473 -198.316038 
L 98.632049 -192.539347 
L 99.911625 -197.907655 
L 101.191201 -187.898284 
L 102.470777 -198.813943 
L 103.750353 -207.373873 
L 105.029929 -218.085438 
L 106.309505 -208.908757 
L 107.58908 -229.876023 
L 108.868656 -211.065926 
L 110.148232 -217.168177 
L 111.427808 -222.333653 
L 112.707384 -223.27975 
L 113.98696 -223.050605 
L 115.266536 -209.967291 
L 116.546112 -210.126819 
L 117.825688 -217.420625 
L 119.105264 -220.550981 
L 120.38484 -212.561972 
L 121.664416 -225.988323 
L 122.943992 -223.335677 
L 124.223567 -207.551849 
L 125.503143 -233.946262 
L 126.782719 -232.419923 
L 128.062295 -206.94209 
L 129.341871 -211.575483 
L 130.621447 -213.129009 
L 131.901023 -226.489336 
L 133.180599 -209.478222 
L 134.460175 -225.988323 
L 135.739751 -232.419923 
L 137.019327 -226.489336 
L 138.298903 -212.196893 
L 139.578479 -226.489336 
L 140.858054 -216.569099 
L 142.13763 -203.745321 
L 143.417206 -205.08951 
L 144.696782 -197.195945 
L 145.976358 -233.946262 
L 147.255934 -218.368277 
L 148.53551 -199.035126 
L 149.815086 -214.177639 
L 151.094662 -227.965186 
L 152.374238 -224.155162 
L 153.653814 -221.642333 
L 154.93339 -220.652737 
L 156.212966 -210.020888 
L 157.492542 -206.486907 
L 158.772117 -212.01047 
L 160.051693 -223.498797 
L 161.331269 -222.993901 
L 162.610845 -202.357245 
L 163.890421 -208.964684 
L 165.169997 -202.980598 
L 166.449573 -210.950188 
L 167.729149 -214.030054 
L 169.008725 -233.946262 
L 170.288301 -207.45087 
L 171.567877 -222.683196 
L 172.847453 -195.614358 
L 174.127029 -226.217469 
L 175.406604 -215.641838 
L 176.68618 -200.610305 
L 177.965756 -204.545484 
L 179.245332 -215.354435 
L 180.524908 -208.914583 
L 181.804484 -220.182019 
L 183.08406 -217.129339 
L 184.363636 -202.035763 
L 185.643212 -211.544412 
L 186.922788 -223.048275 
L 188.202364 -226.019394 
L 189.48194 -222.332779 
L 190.761516 -223.459959 
L 192.041091 -223.413353 
L 193.320667 -218.63626 
L 194.600243 -224.788224 
L 195.879819 -211.062819 
L 197.159395 -216.383647 
L 198.438971 -217.412858 
L 199.718547 -233.946262 
L 200.998123 -225.988323 
L 202.277699 -208.33638 
L 203.557275 -233.946262 
L 204.836851 -216.150618 
L 206.116427 -221.828757 
L 207.396003 -233.946262 
L 208.675579 -233.946262 
L 209.955154 -217.401206 
L 211.23473 -233.946262 
L 212.514306 -232.419923 
L 213.793882 -232.419923 
L 215.073458 -218.333322 
L 216.353034 -206.359421 
L 217.63261 -233.946262 
L 218.912186 -232.419923 
L 220.191762 -232.419923 
L 221.471338 -221.036458 
L 222.750914 -217.859497 
L 224.03049 -201.576307 
L 225.310066 -199.212811 
L 226.589641 -221.265603 
L 227.869217 -201.003541 
L 229.148793 -230.893583 
L 230.428369 -215.366087 
L 231.707945 -232.419923 
L 232.987521 -201.034806 
L 234.267097 -217.75075 
L 235.546673 -219.937338 
L 236.826249 -233.946262 
L 238.105825 -208.28589 
L 239.385401 -206.091534 
L 240.664977 -217.005057 
L 241.944553 -224.994067 
L 243.224128 -181.257542 
L 244.503704 -212.002896 
L 245.78328 -212.941518 
L 247.062856 -207.660596 
L 248.342432 -188.556979 
L 249.622008 -216.659398 
L 250.901584 -231.149915 
L 252.18116 -230.132355 
L 253.460736 -232.419923 
L 254.740312 -205.500029 
L 256.019888 -204.529172 
L 257.299464 -205.859379 
L 258.57904 -214.476693 
L 259.858616 -229.538131 
L 261.138191 -189.677169 
L 262.417767 -219.840437 
L 263.697343 -229.876023 
L 264.976919 -220.213089 
L 266.256495 -203.355677 
L 267.536071 -232.419923 
L 268.815647 -197.328286 
L 270.095223 -217.168177 
L 271.374799 -230.217799 
L 272.654375 -214.37183 
L 273.933951 -229.285683 
L 275.213527 -229.285683 
L 276.493103 -225.55722 
L 277.772678 -225.55722 
L 279.052254 -217.58763 
L 280.33183 -228.691459 
L 281.611406 -214.154336 
L 282.890982 -225.199909 
L 284.170558 -211.695201 
L 285.450134 -227.162983 
L 286.72971 -205.959485 
L 288.009286 -209.082073 
L 289.288862 -229.367243 
L 290.568438 -212.872289 
L 291.848014 -206.931215 
L 293.12759 -218.14117 
L 294.407165 -222.706499 
L 295.686741 -232.419923 
L 296.966317 -224.788224 
L 298.245893 -216.457439 
L 299.525469 -207.245028 
L 300.805045 -233.946262 
L 302.084621 -219.560608 
L 303.364197 -219.692658 
L 304.643773 -219.692658 
L 305.923349 -217.168177 
L 307.202925 -191.777148 
L 308.482501 -233.946262 
L 309.762077 -233.946262 
L 311.041653 -218.065339 
L 312.321228 -233.946262 
L 313.600804 -214.822353 
L 314.88038 -228.901185 
L 316.159956 -195.325791 
L 317.439532 -229.409965 
L 318.719108 -215.201899 
L 319.998684 -222.489005 
L 321.27826 -211.575483 
L 322.557836 -209.521332 
L 323.837412 -205.955601 
L 325.116988 -233.946262 
L 326.396564 -233.946262 
L 327.67614 -232.419923 
L 327.67614 -233.946262 
L 327.67614 -233.946262 
L 326.396564 -233.946262 
L 325.116988 -233.946262 
L 323.837412 -233.946262 
L 322.557836 -232.428758 
L 321.27826 -233.946262 
L 319.998684 -233.946262 
L 318.719108 -233.437482 
L 317.439532 -233.946262 
L 316.159956 -231.091657 
L 314.88038 -233.946262 
L 313.600804 -233.946262 
L 312.321228 -233.946262 
L 311.041653 -233.946262 
L 309.762077 -233.946262 
L 308.482501 -233.946262 
L 307.202925 -229.009932 
L 305.923349 -233.946262 
L 304.643773 -233.946262 
L 303.364197 -233.946262 
L 302.084621 -233.946262 
L 300.805045 -233.946262 
L 299.525469 -233.946262 
L 298.245893 -233.946262 
L 296.966317 -233.946262 
L 295.686741 -233.946262 
L 294.407165 -233.437482 
L 293.12759 -233.437482 
L 291.848014 -233.437482 
L 290.568438 -233.437482 
L 289.288862 -233.437482 
L 288.009286 -232.928702 
L 286.72971 -230.981163 
L 285.450134 -232.928702 
L 284.170558 -231.996587 
L 282.890982 -233.014146 
L 281.611406 -233.946262 
L 280.33183 -233.946262 
L 279.052254 -232.082031 
L 277.772678 -232.105333 
L 276.493103 -232.928702 
L 275.213527 -233.946262 
L 273.933951 -233.946262 
L 272.654375 -233.946262 
L 271.374799 -233.946262 
L 270.095223 -233.946262 
L 268.815647 -233.437482 
L 267.536071 -233.946262 
L 266.256495 -233.437482 
L 264.976919 -233.946262 
L 263.697343 -233.437482 
L 262.417767 -232.928702 
L 261.138191 -227.802065 
L 259.858616 -233.946262 
L 258.57904 -232.928702 
L 257.299464 -233.946262 
L 256.019888 -233.437482 
L 254.740312 -232.928702 
L 253.460736 -233.946262 
L 252.18116 -233.946262 
L 250.901584 -233.946262 
L 249.622008 -233.946262 
L 248.342432 -227.421451 
L 247.062856 -230.866396 
L 245.78328 -230.866396 
L 244.503704 -230.648902 
L 243.224128 -222.897291 
L 241.944553 -233.437482 
L 240.664977 -233.946262 
L 239.385401 -233.946262 
L 238.105825 -233.946262 
L 236.826249 -233.946262 
L 235.546673 -233.946262 
L 234.267097 -233.946262 
L 232.987521 -233.946262 
L 231.707945 -233.946262 
L 230.428369 -233.437482 
L 229.148793 -233.946262 
L 227.869217 -231.157682 
L 226.589641 -233.946262 
L 225.310066 -229.756596 
L 224.03049 -231.849002 
L 222.750914 -233.946262 
L 221.471338 -233.946262 
L 220.191762 -233.946262 
L 218.912186 -233.946262 
L 217.63261 -233.946262 
L 216.353034 -233.946262 
L 215.073458 -233.946262 
L 213.793882 -235.810494 
L 212.514306 -233.946262 
L 211.23473 -233.946262 
L 209.955154 -233.946262 
L 208.675579 -233.946262 
L 207.396003 -233.946262 
L 206.116427 -233.946262 
L 204.836851 -233.946262 
L 203.557275 -233.946262 
L 202.277699 -233.946262 
L 200.998123 -233.946262 
L 199.718547 -233.946262 
L 198.438971 -233.946262 
L 197.159395 -233.946262 
L 195.879819 -233.946262 
L 194.600243 -233.946262 
L 193.320667 -233.946262 
L 192.041091 -233.946262 
L 190.761516 -233.946262 
L 189.48194 -233.437482 
L 188.202364 -233.946262 
L 186.922788 -233.946262 
L 185.643212 -233.946262 
L 184.363636 -228.338032 
L 183.08406 -233.946262 
L 181.804484 -233.946262 
L 180.524908 -231.849002 
L 179.245332 -233.946262 
L 177.965756 -227.448638 
L 176.68618 -227.522528 
L 175.406604 -231.849002 
L 174.127029 -233.946262 
L 172.847453 -228.778554 
L 171.567877 -233.946262 
L 170.288301 -233.946262 
L 169.008725 -233.946262 
L 167.729149 -233.946262 
L 166.449573 -233.437482 
L 165.169997 -231.643159 
L 163.890421 -233.437482 
L 162.610845 -231.849002 
L 161.331269 -233.946262 
L 160.051693 -233.946262 
L 158.772117 -233.946262 
L 157.492542 -232.450993 
L 156.212966 -231.010097 
L 154.93339 -232.419923 
L 153.653814 -232.450993 
L 152.374238 -233.946262 
L 151.094662 -233.946262 
L 149.815086 -233.946262 
L 148.53551 -230.466363 
L 147.255934 -233.946262 
L 145.976358 -233.946262 
L 144.696782 -231.293616 
L 143.417206 -229.21024 
L 142.13763 -231.064471 
L 140.858054 -233.437482 
L 139.578479 -233.946262 
L 138.298903 -233.946262 
L 137.019327 -233.946262 
L 135.739751 -233.946262 
L 134.460175 -233.946262 
L 133.180599 -233.946262 
L 131.901023 -233.946262 
L 130.621447 -233.946262 
L 129.341871 -233.946262 
L 128.062295 -233.946262 
L 126.782719 -233.946262 
L 125.503143 -233.946262 
L 124.223567 -233.946262 
L 122.943992 -233.946262 
L 121.664416 -233.946262 
L 120.38484 -233.946262 
L 119.105264 -233.946262 
L 117.825688 -233.946262 
L 116.546112 -233.437482 
L 115.266536 -231.935222 
L 113.98696 -233.437482 
L 112.707384 -233.946262 
L 111.427808 -233.946262 
L 110.148232 -232.652951 
L 108.868656 -233.437482 
L 107.58908 -233.437482 
L 106.309505 -232.928702 
L 105.029929 -232.419923 
L 103.750353 -231.408188 
L 102.470777 -227.0421 
L 101.191201 -224.146715 
L 99.911625 -227.417568 
L 98.632049 -223.064975 
L 97.352473 -225.543529 
L 96.072897 -224.128073 
L 94.793321 -214.984696 
L 93.513745 -211.407507 
L 92.234169 -208.917884 
L 90.954593 -197.756477 
L 89.675017 -184.283617 
L 88.395442 -159.061825 
L 87.115866 -148.35531 
L 85.83629 -145.446137 
L 84.556714 -131.812681 
L 83.277138 -120.644186 
L 81.997562 -103.334019 
L 80.717986 -88.521727 
L 79.43841 -83.64482 
L 78.158834 -81.848652 
L 76.879258 -75.344911 
L 75.599682 -68.108585 
L 74.320106 -61.96332 
L 73.04053 -59.085413 
z
" style="stroke: #2d1e3e; stroke-opacity: 0.2"/>
    </defs>
    <g clip-path="url(#pd1011bba25)">
     <use xlink:href="#mde3a9b6b17" x="0" y="362.097812" style="fill: #2d1e3e; fill-opacity: 0.2; stroke: #2d1e3e; stroke-opacity: 0.2"/>
    </g>
   </g>
   <g id="line2d_11">
    <path d="M 73.04053 295.944049 
L 74.320106 280.684536 
L 75.599682 255.043584 
L 76.879258 255.664994 
L 78.158834 243.998011 
L 79.43841 228.206416 
L 81.997562 149.205716 
L 83.277138 157.540385 
L 84.556714 142.012889 
L 85.83629 133.507332 
L 87.115866 135.239514 
L 88.395442 141.574018 
L 89.675017 147.023012 
L 90.954593 148.685285 
L 92.234169 137.418335 
L 93.513745 131.07218 
L 94.793321 131.180927 
L 96.072897 126.170804 
L 97.352473 127.770936 
L 98.632049 124.966821 
L 99.911625 128.897243 
L 101.191201 131.429491 
L 102.470777 134.792876 
L 103.750353 142.983843 
L 105.029929 135.612361 
L 106.309505 129.903151 
L 107.58908 131.006155 
L 108.868656 127.328181 
L 110.148232 127.506837 
L 111.427808 119.203238 
L 112.707384 119.203238 
L 113.98696 130.683798 
L 115.266536 119.203238 
L 116.546112 124.807585 
L 117.825688 125.075568 
L 119.105264 130.520678 
L 120.38484 124.726025 
L 121.664416 124.726025 
L 122.943992 119.203238 
L 124.223567 119.203238 
L 125.503143 123.13366 
L 126.782719 119.203238 
L 129.341871 119.203238 
L 130.621447 125.075568 
L 131.901023 119.203238 
L 134.460175 119.203238 
L 135.739751 124.050241 
L 137.019327 124.726025 
L 138.298903 119.203238 
L 139.578479 119.203238 
L 140.858054 124.551253 
L 142.13763 119.85572 
L 143.417206 125.355203 
L 144.696782 126.38053 
L 145.976358 132.532495 
L 147.255934 124.555137 
L 148.53551 129.615749 
L 149.815086 121.813163 
L 151.094662 121.160682 
L 152.374238 125.728049 
L 153.653814 120.508201 
L 154.93339 121.160682 
L 156.212966 126.337808 
L 157.492542 126.660165 
L 158.772117 133.938436 
L 160.051693 132.369374 
L 161.331269 138.742716 
L 162.610845 131.048877 
L 163.890421 120.508201 
L 165.169997 130.905176 
L 166.449573 118.364334 
L 167.729149 125.902821 
L 169.008725 123.005494 
L 170.288301 125.075568 
L 171.567877 134.66471 
L 172.847453 125.075568 
L 174.127029 130.015782 
L 175.406604 119.203238 
L 176.68618 130.427466 
L 177.965756 119.203238 
L 179.245332 124.997892 
L 180.524908 119.203238 
L 181.804484 119.203238 
L 183.08406 125.075568 
L 184.363636 119.203238 
L 185.643212 119.85572 
L 186.922788 122.578274 
L 188.202364 121.215055 
L 189.48194 126.314505 
L 190.761516 126.85824 
L 192.041091 121.813163 
L 193.320667 122.465644 
L 194.600243 121.160682 
L 195.879819 121.160682 
L 197.159395 126.730074 
L 198.438971 122.986075 
L 199.718547 122.333594 
L 200.998123 121.813163 
L 202.277699 132.241208 
L 203.557275 134.253025 
L 204.836851 129.774985 
L 206.116427 124.011403 
L 207.396003 120.508201 
L 208.675579 119.85572 
L 209.955154 119.85572 
L 211.23473 124.256083 
L 212.514306 131.709126 
L 213.793882 126.108663 
L 215.073458 122.578274 
L 216.353034 130.404164 
L 217.63261 129.685658 
L 218.912186 123.005494 
L 220.191762 122.578274 
L 221.471338 130.850802 
L 222.750914 125.568813 
L 224.03049 127.568978 
L 225.310066 119.85572 
L 226.589641 119.85572 
L 227.869217 125.075568 
L 229.148793 122.951121 
L 230.428369 122.951121 
L 231.707945 127.840845 
L 232.987521 121.968515 
L 234.267097 119.203238 
L 236.826249 119.203238 
L 238.105825 124.916332 
L 239.385401 119.203238 
L 240.664977 119.203238 
L 241.944553 123.735652 
L 243.224128 119.203238 
L 244.503704 119.203238 
L 245.78328 125.176547 
L 247.062856 120.508201 
L 248.342432 127.033011 
L 249.622008 126.873775 
L 250.901584 137.383381 
L 252.18116 125.728049 
L 253.460736 125.452298 
L 256.019888 130.722636 
L 257.299464 125.044498 
L 258.57904 122.123868 
L 259.858616 128.489442 
L 261.138191 127.836961 
L 262.417767 118.364334 
L 263.697343 118.364334 
L 264.976919 117.52543 
L 267.536071 119.203238 
L 268.815647 128.06999 
L 270.095223 133.557822 
L 271.374799 122.356897 
L 272.654375 122.356897 
L 273.933951 127.079617 
L 275.213527 119.203238 
L 276.493103 125.646489 
L 277.772678 126.29897 
L 279.052254 138.579596 
L 280.33183 122.356897 
L 281.611406 127.541791 
L 282.890982 119.203238 
L 284.170558 124.190058 
L 285.450134 124.842539 
L 286.72971 119.85572 
L 288.009286 122.434573 
L 289.288862 123.222988 
L 290.568438 132.971366 
L 291.848014 129.720612 
L 293.12759 137.503779 
L 294.407165 123.708465 
L 296.966317 128.450604 
L 298.245893 135.239514 
L 299.525469 118.364334 
L 300.805045 120.209147 
L 302.084621 129.2196 
L 303.364197 130.784778 
L 304.643773 126.555302 
L 305.923349 115.940833 
L 307.202925 110.44135 
L 308.482501 124.784282 
L 309.762077 109.96364 
L 311.041653 116.317563 
L 312.321228 119.941163 
L 313.600804 120.360616 
L 314.88038 107.140106 
L 316.159956 109.866545 
L 317.439532 111.416188 
L 318.719108 122.667602 
L 319.998684 115.564103 
L 321.27826 111.777382 
L 322.557836 102.518365 
L 323.837412 114.212535 
L 325.116988 103.396108 
L 326.396564 103.823327 
L 327.67614 117.583687 
L 327.67614 117.583687 
" clip-path="url(#pd1011bba25)" style="fill: none; stroke: #edd1cb; stroke-width: 1.5; stroke-linecap: round"/>
   </g>
   <g id="line2d_12">
    <path d="M 73.04053 302.655283 
L 74.320106 297.245128 
L 75.599682 289.698873 
L 76.879258 269.464192 
L 78.158834 238.735441 
L 79.43841 232.47473 
L 80.717986 194.191956 
L 81.997562 180.78114 
L 83.277138 126.803866 
L 84.556714 114.791224 
L 85.83629 108.002313 
L 87.115866 90.944594 
L 88.395442 105.477833 
L 89.675017 95.721687 
L 90.954593 92.424328 
L 92.234169 83.67409 
L 93.513745 80.947652 
L 94.793321 86.396645 
L 96.072897 79.130026 
L 97.352473 79.130026 
L 98.632049 86.854936 
L 99.911625 87.957939 
L 101.191201 85.266455 
L 102.470777 77.3124 
L 103.750353 78.221213 
L 105.029929 75.494774 
L 108.868656 75.494774 
L 110.148232 83.670207 
L 111.427808 80.326241 
L 112.707384 77.3124 
L 113.98696 77.3124 
L 115.266536 83.530389 
L 116.546112 82.710904 
L 117.825688 94.731314 
L 119.105264 86.008264 
L 120.38484 90.59505 
L 121.664416 76.403587 
L 122.943992 76.403587 
L 124.223567 79.417428 
L 125.503143 80.326241 
L 126.782719 95.63236 
L 128.062295 82.687601 
L 129.341871 74.585961 
L 130.621447 74.585961 
L 131.901023 80.450523 
L 133.180599 74.585961 
L 134.460175 74.585961 
L 135.739751 92.237905 
L 137.019327 80.485478 
L 138.298903 80.485478 
L 139.578479 74.585961 
L 140.858054 74.585961 
L 142.13763 86.4316 
L 143.417206 74.585961 
L 144.696782 75.494774 
L 145.976358 90.028013 
L 147.255934 82.683717 
L 148.53551 81.662274 
L 149.815086 75.494774 
L 151.094662 76.403587 
L 152.374238 88.928893 
L 153.653814 79.16498 
L 154.93339 79.16498 
L 156.212966 81.584598 
L 157.492542 74.585961 
L 158.772117 77.3124 
L 160.051693 84.074124 
L 161.331269 77.3124 
L 162.610845 78.862043 
L 163.890421 77.3124 
L 165.169997 74.585961 
L 166.449573 77.3124 
L 167.729149 74.585961 
L 169.008725 94.979879 
L 170.288301 91.806801 
L 171.567877 94.805107 
L 172.847453 80.64083 
L 174.127029 74.585961 
L 176.68618 88.680329 
L 177.965756 74.585961 
L 179.245332 74.585961 
L 180.524908 81.631203 
L 181.804484 77.879437 
L 183.08406 74.585961 
L 186.922788 74.585961 
L 188.202364 81.802091 
L 189.48194 74.585961 
L 190.761516 81.852581 
L 192.041091 74.585961 
L 195.879819 74.585961 
L 197.159395 81.852581 
L 198.438971 91.461141 
L 199.718547 74.585961 
L 200.998123 81.747718 
L 202.277699 80.535967 
L 203.557275 80.450523 
L 204.836851 81.786556 
L 206.116427 81.852581 
L 207.396003 74.585961 
L 209.955154 74.585961 
L 211.23473 81.763253 
L 212.514306 79.464034 
L 213.793882 74.585961 
L 215.073458 81.623436 
L 216.353034 85.934471 
L 217.63261 77.3124 
L 218.912186 83.80614 
L 220.191762 93.30207 
L 221.471338 87.627815 
L 222.750914 88.789076 
L 225.310066 74.585961 
L 227.869217 74.585961 
L 229.148793 78.209561 
L 230.428369 87.977359 
L 231.707945 87.872495 
L 232.987521 79.988349 
L 234.267097 74.585961 
L 235.546673 77.417263 
L 239.385401 77.417263 
L 240.664977 74.585961 
L 241.944553 81.852581 
L 243.224128 81.771021 
L 244.503704 87.254969 
L 245.78328 81.728299 
L 247.062856 81.802091 
L 248.342432 88.552163 
L 250.901584 74.585961 
L 252.18116 81.786556 
L 253.460736 74.585961 
L 254.740312 74.585961 
L 256.019888 84.621742 
L 257.299464 88.952196 
L 258.57904 77.879437 
L 259.858616 80.446639 
L 261.138191 81.440896 
L 262.417767 75.494774 
L 263.697343 74.585961 
L 270.095223 74.585961 
L 271.374799 94.90997 
L 272.654375 88.95608 
L 273.933951 79.036814 
L 275.213527 75.494774 
L 276.493103 73.374211 
L 277.772678 75.494774 
L 279.052254 75.494774 
L 280.33183 88.769657 
L 281.611406 74.585961 
L 282.890982 73.374211 
L 284.170558 77.693014 
L 285.450134 76.857994 
L 286.72971 66.103707 
L 288.009286 75.793828 
L 289.288862 67.315458 
L 290.568438 75.483123 
L 291.848014 73.60724 
L 293.12759 72.395489 
L 294.407165 78.139653 
L 295.686741 65.346363 
L 296.966317 68.523325 
L 298.245893 63.983144 
L 299.525469 68.527208 
L 300.805045 69.665166 
L 302.084621 64.445318 
L 303.364197 79.060117 
L 304.643773 78.007603 
L 305.923349 53.986202 
L 307.202925 72.236253 
L 308.482501 56.409703 
L 309.762077 76.912367 
L 311.041653 49.139199 
L 312.321228 64.169567 
L 313.600804 55.030948 
L 314.88038 58.6662 
L 316.159956 47.927449 
L 317.439532 48.684793 
L 318.719108 48.684793 
L 319.998684 41.868696 
L 321.27826 43.080447 
L 322.557836 45.503948 
L 323.837412 43.892164 
L 325.116988 67.319342 
L 326.396564 47.853656 
L 327.67614 53.500725 
L 327.67614 53.500725 
" clip-path="url(#pd1011bba25)" style="fill: none; stroke: #d499a7; stroke-width: 1.5; stroke-linecap: round"/>
   </g>
   <g id="line2d_13">
    <path d="M 73.04053 303.929175 
L 74.320106 298.402505 
L 75.599682 296.546041 
L 78.158834 295.081842 
L 79.43841 293.256449 
L 80.717986 294.254589 
L 81.997562 292.619503 
L 83.277138 285.974294 
L 84.556714 290.945578 
L 85.83629 290.658176 
L 87.115866 290.879553 
L 88.395442 290.553313 
L 89.675017 289.504682 
L 90.954593 289.578475 
L 92.234169 286.121879 
L 93.513745 284.090643 
L 94.793321 282.327391 
L 96.072897 283.352718 
L 97.352473 281.702096 
L 98.632049 281.923474 
L 99.911625 278.78535 
L 101.191201 281.694329 
L 102.470777 277.725069 
L 103.750353 284.976153 
L 105.029929 282.929382 
L 107.58908 268.248558 
L 108.868656 252.266655 
L 110.148232 206.080317 
L 111.427808 183.911495 
L 112.707384 170.966737 
L 113.98696 175.048627 
L 115.266536 168.838406 
L 116.546112 168.298555 
L 117.825688 165.016731 
L 119.105264 165.459486 
L 120.38484 167.510141 
L 121.664416 172.663964 
L 122.943992 169.401559 
L 124.223567 177.075979 
L 125.503143 168.729659 
L 126.782719 172.33384 
L 128.062295 171.242488 
L 129.341871 163.820516 
L 130.621447 178.109074 
L 131.901023 160.472666 
L 133.180599 166.018755 
L 134.460175 159.827953 
L 135.739751 162.632068 
L 137.019327 150.429118 
L 138.298903 146.187991 
L 139.578479 136.493987 
L 140.858054 144.032474 
L 142.13763 132.668428 
L 143.417206 128.671982 
L 144.696782 114.274676 
L 145.976358 112.437631 
L 147.255934 116.282609 
L 148.53551 110.254927 
L 152.374238 110.254927 
L 153.653814 116.220468 
L 154.93339 116.37582 
L 156.212966 110.254927 
L 157.492542 115.560219 
L 158.772117 110.254927 
L 166.449573 110.254927 
L 167.729149 116.220468 
L 169.008725 110.254927 
L 170.288301 116.305912 
L 171.567877 110.254927 
L 172.847453 133.651034 
L 174.127029 116.406891 
L 175.406604 110.254927 
L 177.965756 110.254927 
L 179.245332 116.321447 
L 180.524908 110.254927 
L 183.08406 110.254927 
L 184.363636 116.018509 
L 185.643212 117.451637 
L 186.922788 110.254927 
L 188.202364 112.255092 
L 189.48194 115.746642 
L 190.761516 112.659009 
L 192.041091 110.313184 
L 193.320667 110.313184 
L 194.600243 116.216584 
L 195.879819 110.313184 
L 197.159395 116.220468 
L 198.438971 115.105813 
L 200.998123 110.313184 
L 202.277699 116.26319 
L 204.836851 116.282609 
L 206.116427 112.297814 
L 207.396003 115.758294 
L 208.675579 110.254927 
L 209.955154 115.727223 
L 212.514306 115.727223 
L 213.793882 130.586703 
L 215.073458 124.706606 
L 216.353034 111.990992 
L 217.63261 108.344089 
L 218.912186 112.165764 
L 220.191762 121.098541 
L 221.471338 113.85134 
L 222.750914 107.38867 
L 224.03049 119.125562 
L 225.310066 117.082675 
L 226.589641 111.070528 
L 227.869217 114.476634 
L 229.148793 107.38867 
L 230.428369 118.092467 
L 231.707945 118.022558 
L 232.987521 112.045366 
L 234.267097 115.00095 
L 235.546673 112.732801 
L 236.826249 117.323472 
L 238.105825 116.313679 
L 239.385401 120.279055 
L 240.664977 128.640911 
L 243.224128 109.171342 
L 244.503704 102.032888 
L 245.78328 102.611577 
L 247.062856 109.109201 
L 248.342432 108.153782 
L 249.622008 125.906705 
L 250.901584 106.712886 
L 252.18116 107.163409 
L 253.460736 112.503656 
L 254.740312 101.997934 
L 256.019888 114.029996 
L 257.299464 101.341569 
L 258.57904 95.923646 
L 259.858616 102.491179 
L 261.138191 107.89745 
L 262.417767 108.678097 
L 263.697343 104.860306 
L 264.976919 98.385985 
L 266.256495 110.763706 
L 267.536071 110.697682 
L 268.815647 99.485105 
L 270.095223 114.220303 
L 271.374799 113.237697 
L 272.654375 87.950172 
L 273.933951 101.803743 
L 275.213527 93.030203 
L 276.493103 93.476842 
L 277.772678 84.458621 
L 279.052254 99.504524 
L 280.33183 93.154485 
L 281.611406 91.997108 
L 282.890982 90.610586 
L 284.170558 94.296327 
L 285.450134 94.463331 
L 286.72971 80.636946 
L 288.009286 79.681528 
L 289.288862 79.681528 
L 290.568438 93.826385 
L 291.848014 85.099451 
L 293.12759 95.814899 
L 294.407165 102.374664 
L 295.686741 91.6631 
L 296.966317 79.681528 
L 299.525469 93.523448 
L 300.805045 86.272363 
L 302.084621 86.400529 
L 303.364197 79.681528 
L 304.643773 86.501508 
L 305.923349 90.944594 
L 307.202925 83.864397 
L 308.482501 97.294633 
L 309.762077 91.802917 
L 311.041653 89.934802 
L 312.321228 83.736232 
L 313.600804 81.569062 
L 314.88038 99.147213 
L 316.159956 86.707351 
L 317.439532 79.681528 
L 318.719108 79.681528 
L 319.998684 82.054539 
L 321.27826 89.080362 
L 322.557836 101.376523 
L 323.837412 79.681528 
L 325.116988 86.788911 
L 326.396564 96.669339 
L 327.67614 92.502004 
L 327.67614 92.502004 
" clip-path="url(#pd1011bba25)" style="fill: none; stroke: #a9678f; stroke-width: 1.5; stroke-linecap: round"/>
   </g>
   <g id="line2d_14">
    <path d="M 73.04053 301.093989 
L 75.599682 288.090973 
L 76.879258 284.778078 
L 78.158834 284.735356 
L 79.43841 283.915871 
L 80.717986 286.661729 
L 81.997562 284.513979 
L 83.277138 289.260002 
L 84.556714 288.448284 
L 85.83629 288.362841 
L 87.115866 287.597729 
L 88.395442 287.488982 
L 89.675017 279.329085 
L 90.954593 274.812207 
L 92.234169 268.264093 
L 93.513745 265.727961 
L 94.793321 262.484975 
L 96.072897 256.989376 
L 97.352473 256.197077 
L 98.632049 253.521128 
L 99.911625 253.649294 
L 101.191201 251.936531 
L 102.470777 251.936531 
L 103.750353 252.231701 
L 105.029929 251.936531 
L 106.309505 253.956115 
L 107.58908 253.579385 
L 108.868656 253.882323 
L 111.427808 253.361892 
L 112.707384 255.750438 
L 113.98696 253.893974 
L 115.266536 255.451384 
L 116.546112 253.672597 
L 117.825688 253.886207 
L 119.105264 252.25112 
L 120.38484 256.150471 
L 121.664416 252.643386 
L 122.943992 253.4318 
L 124.223567 255.276613 
L 125.503143 255.086306 
L 126.782719 253.567734 
L 128.062295 255.020281 
L 129.341871 254.200796 
L 130.621447 254.1037 
L 131.901023 252.495801 
L 135.739751 252.495801 
L 137.019327 251.886041 
L 138.298903 253.307518 
L 139.578479 253.944464 
L 140.858054 252.22005 
L 142.13763 251.633593 
L 143.417206 253.447335 
L 144.696782 253.233726 
L 145.976358 251.917112 
L 147.255934 255.400895 
L 148.53551 253.4318 
L 151.094662 256.333011 
L 152.374238 253.602688 
L 153.653814 253.77746 
L 154.93339 251.633593 
L 156.212966 255.87472 
L 157.492542 255.657227 
L 158.772117 254.61248 
L 160.051693 252.775435 
L 161.331269 251.633593 
L 162.610845 254.849393 
L 163.890421 252.911369 
L 165.169997 254.872696 
L 166.449573 253.10556 
L 167.729149 249.427586 
L 169.008725 252.410357 
L 170.288301 238.16452 
L 171.567877 231.527078 
L 172.847453 206.006524 
L 174.127029 187.247693 
L 175.406604 176.862369 
L 176.68618 170.329791 
L 177.965756 162.534973 
L 179.245332 168.057759 
L 180.524908 161.129031 
L 181.804484 140.960375 
L 184.363636 152.336072 
L 185.643212 144.48688 
L 186.922788 144.48688 
L 188.202364 142.832374 
L 189.48194 143.3062 
L 190.761516 143.3062 
L 192.041091 142.513902 
L 193.320667 142.513902 
L 194.600243 139.088376 
L 195.879819 143.146964 
L 197.159395 146.304506 
L 198.438971 142.424574 
L 199.718547 144.319876 
L 200.998123 147.252157 
L 202.277699 147.648306 
L 203.557275 142.564391 
L 204.836851 142.424574 
L 206.116427 144.292689 
L 207.396003 139.088376 
L 208.675579 142.513902 
L 209.955154 148.817335 
L 211.23473 157.237448 
L 212.514306 150.961201 
L 213.793882 147.007477 
L 215.073458 150.533981 
L 216.353034 146.141386 
L 217.63261 146.040406 
L 218.912186 154.281864 
L 220.191762 147.248273 
L 221.471338 153.877947 
L 222.750914 147.764821 
L 224.03049 146.654049 
L 225.310066 139.088376 
L 229.148793 139.088376 
L 230.428369 149.314463 
L 231.707945 144.331527 
L 232.987521 146.141386 
L 234.267097 152.903109 
L 235.546673 152.844852 
L 236.826249 144.319876 
L 238.105825 143.900424 
L 239.385401 144.222781 
L 240.664977 139.088376 
L 241.944553 147.248273 
L 243.224128 150.724288 
L 244.503704 150.809732 
L 245.78328 147.48907 
L 247.062856 143.65186 
L 248.342432 143.562532 
L 249.622008 139.088376 
L 250.901584 139.088376 
L 252.18116 153.275955 
L 253.460736 148.230879 
L 254.740312 139.088376 
L 256.019888 144.063544 
L 257.299464 143.822748 
L 258.57904 151.466097 
L 259.858616 156.662643 
L 261.138191 153.427424 
L 262.417767 158.946327 
L 263.697343 147.209435 
L 264.976919 145.951079 
L 266.256495 154.289631 
L 267.536071 154.188652 
L 270.095223 139.088376 
L 271.374799 143.791677 
L 272.654375 149.811592 
L 273.933951 143.884889 
L 275.213527 143.974216 
L 276.493103 139.088376 
L 277.772678 139.088376 
L 279.052254 151.990412 
L 280.33183 139.088376 
L 281.611406 139.088376 
L 282.890982 155.229515 
L 284.170558 147.434696 
L 285.450134 152.083624 
L 286.72971 142.424574 
L 288.009286 153.516752 
L 289.288862 145.951079 
L 290.568438 150.483492 
L 291.848014 145.760772 
L 293.12759 151.182579 
L 294.407165 146.040406 
L 295.686741 142.614881 
L 296.966317 142.424574 
L 298.245893 142.424574 
L 299.525469 151.011691 
L 300.805045 142.424574 
L 302.084621 139.088376 
L 303.364197 152.157416 
L 304.643773 151.726313 
L 305.923349 142.424574 
L 307.202925 152.301118 
L 308.482501 147.8658 
L 309.762077 142.424574 
L 311.041653 150.836919 
L 312.321228 145.951079 
L 313.600804 147.838613 
L 314.88038 145.951079 
L 316.159956 151.011691 
L 317.439532 149.376604 
L 318.719108 153.326445 
L 319.998684 154.988718 
L 321.27826 153.237117 
L 322.557836 154.041067 
L 323.837412 153.60608 
L 325.116988 139.088376 
L 326.396564 143.228524 
L 327.67614 142.614881 
L 327.67614 142.614881 
" clip-path="url(#pd1011bba25)" style="fill: none; stroke: #6c3f70; stroke-width: 1.5; stroke-linecap: round"/>
   </g>
   <g id="line2d_15">
    <path d="M 73.04053 304.251531 
L 74.320106 302.235831 
L 75.599682 297.594671 
L 76.879258 292.38259 
L 78.158834 286.300534 
L 79.43841 285.547074 
L 80.717986 283.605166 
L 83.277138 254.402754 
L 84.556714 242.949381 
L 85.83629 230.171627 
L 87.115866 231.196954 
L 88.395442 224.318716 
L 89.675017 194.087093 
L 90.954593 177.918767 
L 92.234169 165.257528 
L 93.513745 170.368629 
L 94.793321 163.72342 
L 96.072897 148.980455 
L 97.352473 148.696936 
L 98.632049 152.541914 
L 99.911625 147.527908 
L 101.191201 154.476055 
L 103.750353 141.010865 
L 105.029929 135.907531 
L 106.309505 139.340824 
L 107.58908 130.18667 
L 108.868656 137.064908 
L 110.148232 136.330867 
L 111.427808 133.060694 
L 112.707384 132.478121 
L 113.98696 132.986901 
L 115.266536 139.158285 
L 116.546112 138.109654 
L 117.825688 133.829689 
L 119.105264 133.577241 
L 120.38484 136.047348 
L 121.664416 130.804197 
L 122.943992 131.312976 
L 124.223567 138.692227 
L 125.503143 128.15155 
L 126.782719 128.66033 
L 128.062295 138.917488 
L 129.341871 136.396892 
L 130.621447 137.317356 
L 131.901023 130.637193 
L 133.180599 138.618434 
L 134.460175 130.804197 
L 135.739751 128.66033 
L 137.019327 130.637193 
L 138.298903 136.229887 
L 139.578479 130.637193 
L 142.13763 143.112009 
L 143.417206 143.589719 
L 144.696782 146.436556 
L 145.976358 128.15155 
L 147.255934 134.043299 
L 148.53551 145.91224 
L 149.815086 135.748294 
L 151.094662 130.155599 
L 153.653814 134.256909 
L 154.93339 134.765689 
L 156.212966 139.849604 
L 157.492542 140.839977 
L 158.772117 137.61641 
L 160.051693 132.132462 
L 161.331269 132.132462 
L 162.610845 143.263478 
L 163.890421 138.447546 
L 165.169997 143.038217 
L 166.449573 138.253356 
L 167.729149 135.557987 
L 169.008725 128.15155 
L 170.288301 138.847579 
L 171.567877 132.734453 
L 172.847453 148.440605 
L 174.127029 130.897408 
L 175.406604 137.558152 
L 176.68618 146.393834 
L 177.965756 144.778166 
L 179.245332 135.278353 
L 180.524908 139.958351 
L 181.804484 134.016112 
L 183.08406 135.604593 
L 184.363636 145.702514 
L 185.643212 137.422219 
L 186.922788 132.551914 
L 188.202364 130.963433 
L 189.48194 133.569474 
L 190.761516 132.346072 
L 192.041091 131.66252 
L 193.320667 133.254884 
L 194.600243 131.20423 
L 195.879819 136.796925 
L 197.159395 134.175349 
L 198.438971 133.662685 
L 199.718547 128.15155 
L 200.998123 130.804197 
L 202.277699 138.381521 
L 203.557275 128.15155 
L 204.836851 134.253025 
L 206.116427 132.190719 
L 207.396003 128.15155 
L 208.675579 128.15155 
L 209.955154 133.666569 
L 211.23473 128.15155 
L 212.514306 128.66033 
L 213.793882 128.03892 
L 215.073458 133.355864 
L 216.353034 139.185471 
L 217.63261 128.15155 
L 218.912186 128.66033 
L 220.191762 128.66033 
L 221.471338 132.963598 
L 222.750914 134.552079 
L 224.03049 143.232408 
L 225.310066 145.624838 
L 226.589641 133.35198 
L 227.869217 144.036357 
L 229.148793 129.67789 
L 230.428369 135.305539 
L 231.707945 128.66033 
L 232.987521 144.517951 
L 234.267097 133.550054 
L 235.546673 134.089905 
L 236.826249 128.15155 
L 238.105825 138.397057 
L 239.385401 140.498201 
L 240.664977 135.934717 
L 241.944553 131.813989 
L 243.224128 158.600667 
L 244.503704 139.449571 
L 245.78328 139.379662 
L 247.062856 141.48469 
L 248.342432 151.668056 
L 249.622008 134.253025 
L 250.901584 129.083666 
L 252.18116 129.592446 
L 253.460736 128.66033 
L 254.740312 140.727346 
L 256.019888 140.3545 
L 257.299464 139.651529 
L 258.57904 135.969672 
L 259.858616 130.101226 
L 261.138191 151.151508 
L 262.417767 133.697639 
L 263.697343 130.18667 
L 264.976919 133.068461 
L 266.256495 142.506134 
L 267.536071 128.66033 
L 268.815647 144.428623 
L 270.095223 133.744245 
L 271.374799 129.592446 
L 272.654375 135.608477 
L 273.933951 130.015782 
L 275.213527 130.015782 
L 276.493103 132.388793 
L 277.772678 132.812129 
L 279.052254 135.779365 
L 280.33183 130.524562 
L 281.611406 135.740527 
L 282.890982 132.435399 
L 284.170558 137.954302 
L 285.450134 132.050901 
L 286.72971 141.438085 
L 288.009286 138.762135 
L 289.288862 130.69545 
L 290.568438 136.742551 
L 291.848014 140.10982 
L 293.12759 135.534684 
L 294.407165 132.746105 
L 295.686741 128.66033 
L 296.966317 131.20423 
L 299.525469 138.832044 
L 300.805045 128.15155 
L 302.084621 133.285955 
L 303.364197 133.072345 
L 304.643773 133.072345 
L 305.923349 133.744245 
L 307.202925 148.957152 
L 308.482501 128.15155 
L 309.762077 128.15155 
L 311.041653 133.445191 
L 312.321228 128.15155 
L 313.600804 135.425938 
L 314.88038 130.342022 
L 316.159956 146.09478 
L 317.439532 129.833243 
L 318.719108 135.635664 
L 319.998684 132.140229 
L 321.27826 134.917158 
L 322.557836 138.661156 
L 323.837412 140.249637 
L 325.116988 128.15155 
L 326.396564 128.15155 
L 327.67614 128.66033 
L 327.67614 128.66033 
" clip-path="url(#pd1011bba25)" style="fill: none; stroke: #2d1e3e; stroke-width: 1.5; stroke-linecap: round"/>
   </g>
   <g id="line2d_16"/>
   <g id="line2d_17"/>
   <g id="line2d_18"/>
   <g id="line2d_19"/>
   <g id="line2d_20"/>
   <g id="patch_3">
    <path d="M 60.30875 319.138125 
L 60.30875 22.318125 
" style="fill: none; stroke: #ffffff; stroke-width: 1.25; stroke-linejoin: miter; stroke-linecap: square"/>
   </g>
   <g id="patch_4">
    <path d="M 60.30875 319.138125 
L 340.40792 319.138125 
" style="fill: none; stroke: #ffffff; stroke-width: 1.25; stroke-linejoin: miter; stroke-linecap: square"/>
   </g>
   <g id="text_13">
    <!-- Best Trials (Vector x Fine-Grain) -->
    <g style="fill: #262626" transform="translate(105.887398 16.318125)scale(0.12 -0.12)">
     <defs>
      <path id="DejaVuSans-42" d="M 1259 2228 
L 1259 519 
L 2272 519 
Q 2781 519 3026 730 
Q 3272 941 3272 1375 
Q 3272 1813 3026 2020 
Q 2781 2228 2272 2228 
L 1259 2228 
z
M 1259 4147 
L 1259 2741 
L 2194 2741 
Q 2656 2741 2882 2914 
Q 3109 3088 3109 3444 
Q 3109 3797 2882 3972 
Q 2656 4147 2194 4147 
L 1259 4147 
z
M 628 4666 
L 2241 4666 
Q 2963 4666 3353 4366 
Q 3744 4066 3744 3513 
Q 3744 3084 3544 2831 
Q 3344 2578 2956 2516 
Q 3422 2416 3680 2098 
Q 3938 1781 3938 1306 
Q 3938 681 3513 340 
Q 3088 0 2303 0 
L 628 0 
L 628 4666 
z
" transform="scale(0.015625)"/>
      <path id="DejaVuSans-20" transform="scale(0.015625)"/>
      <path id="DejaVuSans-54" d="M -19 4666 
L 3928 4666 
L 3928 4134 
L 2272 4134 
L 2272 0 
L 1638 0 
L 1638 4134 
L -19 4134 
L -19 4666 
z
" transform="scale(0.015625)"/>
      <path id="DejaVuSans-6c" d="M 603 4863 
L 1178 4863 
L 1178 0 
L 603 0 
L 603 4863 
z
" transform="scale(0.015625)"/>
      <path id="DejaVuSans-28" d="M 1984 4856 
Q 1566 4138 1362 3434 
Q 1159 2731 1159 2009 
Q 1159 1288 1364 580 
Q 1569 -128 1984 -844 
L 1484 -844 
Q 1016 -109 783 600 
Q 550 1309 550 2009 
Q 550 2706 781 3412 
Q 1013 4119 1484 4856 
L 1984 4856 
z
" transform="scale(0.015625)"/>
      <path id="DejaVuSans-56" d="M 1831 0 
L 50 4666 
L 709 4666 
L 2188 738 
L 3669 4666 
L 4325 4666 
L 2547 0 
L 1831 0 
z
" transform="scale(0.015625)"/>
      <path id="DejaVuSans-63" d="M 3122 3366 
L 3122 2828 
Q 2878 2963 2633 3030 
Q 2388 3097 2138 3097 
Q 1578 3097 1268 2742 
Q 959 2388 959 1747 
Q 959 1106 1268 751 
Q 1578 397 2138 397 
Q 2388 397 2633 464 
Q 2878 531 3122 666 
L 3122 134 
Q 2881 22 2623 -34 
Q 2366 -91 2075 -91 
Q 1284 -91 818 406 
Q 353 903 353 1747 
Q 353 2603 823 3093 
Q 1294 3584 2113 3584 
Q 2378 3584 2631 3529 
Q 2884 3475 3122 3366 
z
" transform="scale(0.015625)"/>
      <path id="DejaVuSans-78" d="M 3513 3500 
L 2247 1797 
L 3578 0 
L 2900 0 
L 1881 1375 
L 863 0 
L 184 0 
L 1544 1831 
L 300 3500 
L 978 3500 
L 1906 2253 
L 2834 3500 
L 3513 3500 
z
" transform="scale(0.015625)"/>
      <path id="DejaVuSans-2d" d="M 313 2009 
L 1997 2009 
L 1997 1497 
L 313 1497 
L 313 2009 
z
" transform="scale(0.015625)"/>
      <path id="DejaVuSans-29" d="M 513 4856 
L 1013 4856 
Q 1481 4119 1714 3412 
Q 1947 2706 1947 2009 
Q 1947 1309 1714 600 
Q 1481 -109 1013 -844 
L 513 -844 
Q 928 -128 1133 580 
Q 1338 1288 1338 2009 
Q 1338 2731 1133 3434 
Q 928 4138 513 4856 
z
" transform="scale(0.015625)"/>
     </defs>
     <use xlink:href="#DejaVuSans-42"/>
     <use xlink:href="#DejaVuSans-65" x="68.603516"/>
     <use xlink:href="#DejaVuSans-73" x="130.126953"/>
     <use xlink:href="#DejaVuSans-74" x="182.226562"/>
     <use xlink:href="#DejaVuSans-20" x="221.435547"/>
     <use xlink:href="#DejaVuSans-54" x="253.222656"/>
     <use xlink:href="#DejaVuSans-72" x="299.556641"/>
     <use xlink:href="#DejaVuSans-69" x="340.669922"/>
     <use xlink:href="#DejaVuSans-61" x="368.453125"/>
     <use xlink:href="#DejaVuSans-6c" x="429.732422"/>
     <use xlink:href="#DejaVuSans-73" x="457.515625"/>
     <use xlink:href="#DejaVuSans-20" x="509.615234"/>
     <use xlink:href="#DejaVuSans-28" x="541.402344"/>
     <use xlink:href="#DejaVuSans-56" x="580.416016"/>
     <use xlink:href="#DejaVuSans-65" x="641.074219"/>
     <use xlink:href="#DejaVuSans-63" x="702.597656"/>
     <use xlink:href="#DejaVuSans-74" x="757.578125"/>
     <use xlink:href="#DejaVuSans-6f" x="796.787109"/>
     <use xlink:href="#DejaVuSans-72" x="857.96875"/>
     <use xlink:href="#DejaVuSans-20" x="899.082031"/>
     <use xlink:href="#DejaVuSans-78" x="930.869141"/>
     <use xlink:href="#DejaVuSans-20" x="990.048828"/>
     <use xlink:href="#DejaVuSans-46" x="1021.835938"/>
     <use xlink:href="#DejaVuSans-69" x="1072.105469"/>
     <use xlink:href="#DejaVuSans-6e" x="1099.888672"/>
     <use xlink:href="#DejaVuSans-65" x="1163.267578"/>
     <use xlink:href="#DejaVuSans-2d" x="1224.791016"/>
     <use xlink:href="#DejaVuSans-47" x="1264.5"/>
     <use xlink:href="#DejaVuSans-72" x="1341.990234"/>
     <use xlink:href="#DejaVuSans-61" x="1383.103516"/>
     <use xlink:href="#DejaVuSans-69" x="1444.382812"/>
     <use xlink:href="#DejaVuSans-6e" x="1472.166016"/>
     <use xlink:href="#DejaVuSans-29" x="1535.544922"/>
    </g>
   </g>
  </g>
  <g id="legend_1">
   <g id="text_14">
    <!-- Trial -->
    <g style="fill: #262626" transform="translate(351.73787 143.995312)scale(0.12 -0.12)">
     <use xlink:href="#DejaVuSans-54"/>
     <use xlink:href="#DejaVuSans-72" x="46.333984"/>
     <use xlink:href="#DejaVuSans-69" x="87.447266"/>
     <use xlink:href="#DejaVuSans-61" x="115.230469"/>
     <use xlink:href="#DejaVuSans-6c" x="176.509766"/>
    </g>
   </g>
   <g id="line2d_21">
    <path d="M 345.09537 156.499219 
L 356.09537 156.499219 
L 367.09537 156.499219 
" style="fill: none; stroke: #edd1cb; stroke-width: 1.5; stroke-linecap: round"/>
   </g>
   <g id="text_15">
    <!-- 0 -->
    <g style="fill: #262626" transform="translate(375.89537 160.349219)scale(0.11 -0.11)">
     <use xlink:href="#DejaVuSans-30"/>
    </g>
   </g>
   <g id="line2d_22">
    <path d="M 345.09537 172.645156 
L 356.09537 172.645156 
L 367.09537 172.645156 
" style="fill: none; stroke: #d499a7; stroke-width: 1.5; stroke-linecap: round"/>
   </g>
   <g id="text_16">
    <!-- 1 -->
    <g style="fill: #262626" transform="translate(375.89537 176.495156)scale(0.11 -0.11)">
     <use xlink:href="#DejaVuSans-31"/>
    </g>
   </g>
   <g id="line2d_23">
    <path d="M 345.09537 188.791094 
L 356.09537 188.791094 
L 367.09537 188.791094 
" style="fill: none; stroke: #a9678f; stroke-width: 1.5; stroke-linecap: round"/>
   </g>
   <g id="text_17">
    <!-- 2 -->
    <g style="fill: #262626" transform="translate(375.89537 192.641094)scale(0.11 -0.11)">
     <use xlink:href="#DejaVuSans-32"/>
    </g>
   </g>
   <g id="line2d_24">
    <path d="M 345.09537 204.937031 
L 356.09537 204.937031 
L 367.09537 204.937031 
" style="fill: none; stroke: #6c3f70; stroke-width: 1.5; stroke-linecap: round"/>
   </g>
   <g id="text_18">
    <!-- 3 -->
    <g style="fill: #262626" transform="translate(375.89537 208.787031)scale(0.11 -0.11)">
     <defs>
      <path id="DejaVuSans-33" d="M 2597 2516 
Q 3050 2419 3304 2112 
Q 3559 1806 3559 1356 
Q 3559 666 3084 287 
Q 2609 -91 1734 -91 
Q 1441 -91 1130 -33 
Q 819 25 488 141 
L 488 750 
Q 750 597 1062 519 
Q 1375 441 1716 441 
Q 2309 441 2620 675 
Q 2931 909 2931 1356 
Q 2931 1769 2642 2001 
Q 2353 2234 1838 2234 
L 1294 2234 
L 1294 2753 
L 1863 2753 
Q 2328 2753 2575 2939 
Q 2822 3125 2822 3475 
Q 2822 3834 2567 4026 
Q 2313 4219 1838 4219 
Q 1578 4219 1281 4162 
Q 984 4106 628 3988 
L 628 4550 
Q 988 4650 1302 4700 
Q 1616 4750 1894 4750 
Q 2613 4750 3031 4423 
Q 3450 4097 3450 3541 
Q 3450 3153 3228 2886 
Q 3006 2619 2597 2516 
z
" transform="scale(0.015625)"/>
     </defs>
     <use xlink:href="#DejaVuSans-33"/>
    </g>
   </g>
   <g id="line2d_25">
    <path d="M 345.09537 221.082969 
L 356.09537 221.082969 
L 367.09537 221.082969 
" style="fill: none; stroke: #2d1e3e; stroke-width: 1.5; stroke-linecap: round"/>
   </g>
   <g id="text_19">
    <!-- 4 -->
    <g style="fill: #262626" transform="translate(375.89537 224.932969)scale(0.11 -0.11)">
     <defs>
      <path id="DejaVuSans-34" d="M 2419 4116 
L 825 1625 
L 2419 1625 
L 2419 4116 
z
M 2253 4666 
L 3047 4666 
L 3047 1625 
L 3713 1625 
L 3713 1100 
L 3047 1100 
L 3047 0 
L 2419 0 
L 2419 1100 
L 313 1100 
L 313 1709 
L 2253 4666 
z
" transform="scale(0.015625)"/>
     </defs>
     <use xlink:href="#DejaVuSans-34"/>
    </g>
   </g>
  </g>
 </g>
 <defs>
  <clipPath id="pd1011bba25">
   <rect x="60.30875" y="22.318125" width="280.09917" height="296.82"/>
  </clipPath>
 </defs>
</svg>
