<?xml version="1.0" encoding="utf-8" standalone="no"?>
<!DOCTYPE svg PUBLIC "-//W3C//DTD SVG 1.1//EN"
  "http://www.w3.org/Graphics/SVG/1.1/DTD/svg11.dtd">
<svg xmlns:xlink="http://www.w3.org/1999/xlink" width="391.965435pt" height="362.097812pt" viewBox="0 0 391.965435 362.097812" xmlns="http://www.w3.org/2000/svg" version="1.1">
 <metadata>
  <rdf:RDF xmlns:dc="http://purl.org/dc/elements/1.1/" xmlns:cc="http://creativecommons.org/ns#" xmlns:rdf="http://www.w3.org/1999/02/22-rdf-syntax-ns#">
   <cc:Work>
    <dc:type rdf:resource="http://purl.org/dc/dcmitype/StillImage"/>
    <dc:date>2022-11-20T08:27:26.329920</dc:date>
    <dc:format>image/svg+xml</dc:format>
    <dc:creator>
     <cc:Agent>
      <dc:title>Matplotlib v3.5.2, https://matplotlib.org/</dc:title>
     </cc:Agent>
    </dc:creator>
   </cc:Work>
  </rdf:RDF>
 </metadata>
 <defs>
  <style type="text/css">*{stroke-linejoin: round; stroke-linecap: butt}</style>
 </defs>
 <g id="figure_1">
  <g id="patch_1">
   <path d="M 0 362.097812 
L 391.965435 362.097812 
L 391.965435 0 
L 0 0 
z
" style="fill: #ffffff"/>
  </g>
  <g id="axes_1">
   <g id="patch_2">
    <path d="M 67.3075 319.138125 
L 339.579235 319.138125 
L 339.579235 22.318125 
L 67.3075 22.318125 
z
" style="fill: #eaeaf2"/>
   </g>
   <g id="matplotlib.axis_1">
    <g id="xtick_1">
     <g id="line2d_1">
      <path d="M 79.683488 319.138125 
L 79.683488 22.318125 
" clip-path="url(#p6f018e86fd)" style="fill: none; stroke: #ffffff; stroke-linecap: round"/>
     </g>
     <g id="text_1">
      <!-- 0 -->
      <g style="fill: #262626" transform="translate(76.184113 336.996406)scale(0.11 -0.11)">
       <defs>
        <path id="DejaVuSans-30" d="M 2034 4250 
Q 1547 4250 1301 3770 
Q 1056 3291 1056 2328 
Q 1056 1369 1301 889 
Q 1547 409 2034 409 
Q 2525 409 2770 889 
Q 3016 1369 3016 2328 
Q 3016 3291 2770 3770 
Q 2525 4250 2034 4250 
z
M 2034 4750 
Q 2819 4750 3233 4129 
Q 3647 3509 3647 2328 
Q 3647 1150 3233 529 
Q 2819 -91 2034 -91 
Q 1250 -91 836 529 
Q 422 1150 422 2328 
Q 422 3509 836 4129 
Q 1250 4750 2034 4750 
z
" transform="scale(0.015625)"/>
       </defs>
       <use xlink:href="#DejaVuSans-30"/>
      </g>
     </g>
    </g>
    <g id="xtick_2">
     <g id="line2d_2">
      <path d="M 141.874382 319.138125 
L 141.874382 22.318125 
" clip-path="url(#p6f018e86fd)" style="fill: none; stroke: #ffffff; stroke-linecap: round"/>
     </g>
     <g id="text_2">
      <!-- 50 -->
      <g style="fill: #262626" transform="translate(134.875632 336.996406)scale(0.11 -0.11)">
       <defs>
        <path id="DejaVuSans-35" d="M 691 4666 
L 3169 4666 
L 3169 4134 
L 1269 4134 
L 1269 2991 
Q 1406 3038 1543 3061 
Q 1681 3084 1819 3084 
Q 2600 3084 3056 2656 
Q 3513 2228 3513 1497 
Q 3513 744 3044 326 
Q 2575 -91 1722 -91 
Q 1428 -91 1123 -41 
Q 819 9 494 109 
L 494 744 
Q 775 591 1075 516 
Q 1375 441 1709 441 
Q 2250 441 2565 725 
Q 2881 1009 2881 1497 
Q 2881 1984 2565 2268 
Q 2250 2553 1709 2553 
Q 1456 2553 1204 2497 
Q 953 2441 691 2322 
L 691 4666 
z
" transform="scale(0.015625)"/>
       </defs>
       <use xlink:href="#DejaVuSans-35"/>
       <use xlink:href="#DejaVuSans-30" x="63.623047"/>
      </g>
     </g>
    </g>
    <g id="xtick_3">
     <g id="line2d_3">
      <path d="M 204.065276 319.138125 
L 204.065276 22.318125 
" clip-path="url(#p6f018e86fd)" style="fill: none; stroke: #ffffff; stroke-linecap: round"/>
     </g>
     <g id="text_3">
      <!-- 100 -->
      <g style="fill: #262626" transform="translate(193.567151 336.996406)scale(0.11 -0.11)">
       <defs>
        <path id="DejaVuSans-31" d="M 794 531 
L 1825 531 
L 1825 4091 
L 703 3866 
L 703 4441 
L 1819 4666 
L 2450 4666 
L 2450 531 
L 3481 531 
L 3481 0 
L 794 0 
L 794 531 
z
" transform="scale(0.015625)"/>
       </defs>
       <use xlink:href="#DejaVuSans-31"/>
       <use xlink:href="#DejaVuSans-30" x="63.623047"/>
       <use xlink:href="#DejaVuSans-30" x="127.246094"/>
      </g>
     </g>
    </g>
    <g id="xtick_4">
     <g id="line2d_4">
      <path d="M 266.256171 319.138125 
L 266.256171 22.318125 
" clip-path="url(#p6f018e86fd)" style="fill: none; stroke: #ffffff; stroke-linecap: round"/>
     </g>
     <g id="text_4">
      <!-- 150 -->
      <g style="fill: #262626" transform="translate(255.758046 336.996406)scale(0.11 -0.11)">
       <use xlink:href="#DejaVuSans-31"/>
       <use xlink:href="#DejaVuSans-35" x="63.623047"/>
       <use xlink:href="#DejaVuSans-30" x="127.246094"/>
      </g>
     </g>
    </g>
    <g id="xtick_5">
     <g id="line2d_5">
      <path d="M 328.447065 319.138125 
L 328.447065 22.318125 
" clip-path="url(#p6f018e86fd)" style="fill: none; stroke: #ffffff; stroke-linecap: round"/>
     </g>
     <g id="text_5">
      <!-- 200 -->
      <g style="fill: #262626" transform="translate(317.94894 336.996406)scale(0.11 -0.11)">
       <defs>
        <path id="DejaVuSans-32" d="M 1228 531 
L 3431 531 
L 3431 0 
L 469 0 
L 469 531 
Q 828 903 1448 1529 
Q 2069 2156 2228 2338 
Q 2531 2678 2651 2914 
Q 2772 3150 2772 3378 
Q 2772 3750 2511 3984 
Q 2250 4219 1831 4219 
Q 1534 4219 1204 4116 
Q 875 4013 500 3803 
L 500 4441 
Q 881 4594 1212 4672 
Q 1544 4750 1819 4750 
Q 2544 4750 2975 4387 
Q 3406 4025 3406 3419 
Q 3406 3131 3298 2873 
Q 3191 2616 2906 2266 
Q 2828 2175 2409 1742 
Q 1991 1309 1228 531 
z
" transform="scale(0.015625)"/>
       </defs>
       <use xlink:href="#DejaVuSans-32"/>
       <use xlink:href="#DejaVuSans-30" x="63.623047"/>
       <use xlink:href="#DejaVuSans-30" x="127.246094"/>
      </g>
     </g>
    </g>
    <g id="text_6">
     <!-- Generation -->
     <g style="fill: #262626" transform="translate(169.971805 352.402187)scale(0.12 -0.12)">
      <defs>
       <path id="DejaVuSans-47" d="M 3809 666 
L 3809 1919 
L 2778 1919 
L 2778 2438 
L 4434 2438 
L 4434 434 
Q 4069 175 3628 42 
Q 3188 -91 2688 -91 
Q 1594 -91 976 548 
Q 359 1188 359 2328 
Q 359 3472 976 4111 
Q 1594 4750 2688 4750 
Q 3144 4750 3555 4637 
Q 3966 4525 4313 4306 
L 4313 3634 
Q 3963 3931 3569 4081 
Q 3175 4231 2741 4231 
Q 1884 4231 1454 3753 
Q 1025 3275 1025 2328 
Q 1025 1384 1454 906 
Q 1884 428 2741 428 
Q 3075 428 3337 486 
Q 3600 544 3809 666 
z
" transform="scale(0.015625)"/>
       <path id="DejaVuSans-65" d="M 3597 1894 
L 3597 1613 
L 953 1613 
Q 991 1019 1311 708 
Q 1631 397 2203 397 
Q 2534 397 2845 478 
Q 3156 559 3463 722 
L 3463 178 
Q 3153 47 2828 -22 
Q 2503 -91 2169 -91 
Q 1331 -91 842 396 
Q 353 884 353 1716 
Q 353 2575 817 3079 
Q 1281 3584 2069 3584 
Q 2775 3584 3186 3129 
Q 3597 2675 3597 1894 
z
M 3022 2063 
Q 3016 2534 2758 2815 
Q 2500 3097 2075 3097 
Q 1594 3097 1305 2825 
Q 1016 2553 972 2059 
L 3022 2063 
z
" transform="scale(0.015625)"/>
       <path id="DejaVuSans-6e" d="M 3513 2113 
L 3513 0 
L 2938 0 
L 2938 2094 
Q 2938 2591 2744 2837 
Q 2550 3084 2163 3084 
Q 1697 3084 1428 2787 
Q 1159 2491 1159 1978 
L 1159 0 
L 581 0 
L 581 3500 
L 1159 3500 
L 1159 2956 
Q 1366 3272 1645 3428 
Q 1925 3584 2291 3584 
Q 2894 3584 3203 3211 
Q 3513 2838 3513 2113 
z
" transform="scale(0.015625)"/>
       <path id="DejaVuSans-72" d="M 2631 2963 
Q 2534 3019 2420 3045 
Q 2306 3072 2169 3072 
Q 1681 3072 1420 2755 
Q 1159 2438 1159 1844 
L 1159 0 
L 581 0 
L 581 3500 
L 1159 3500 
L 1159 2956 
Q 1341 3275 1631 3429 
Q 1922 3584 2338 3584 
Q 2397 3584 2469 3576 
Q 2541 3569 2628 3553 
L 2631 2963 
z
" transform="scale(0.015625)"/>
       <path id="DejaVuSans-61" d="M 2194 1759 
Q 1497 1759 1228 1600 
Q 959 1441 959 1056 
Q 959 750 1161 570 
Q 1363 391 1709 391 
Q 2188 391 2477 730 
Q 2766 1069 2766 1631 
L 2766 1759 
L 2194 1759 
z
M 3341 1997 
L 3341 0 
L 2766 0 
L 2766 531 
Q 2569 213 2275 61 
Q 1981 -91 1556 -91 
Q 1019 -91 701 211 
Q 384 513 384 1019 
Q 384 1609 779 1909 
Q 1175 2209 1959 2209 
L 2766 2209 
L 2766 2266 
Q 2766 2663 2505 2880 
Q 2244 3097 1772 3097 
Q 1472 3097 1187 3025 
Q 903 2953 641 2809 
L 641 3341 
Q 956 3463 1253 3523 
Q 1550 3584 1831 3584 
Q 2591 3584 2966 3190 
Q 3341 2797 3341 1997 
z
" transform="scale(0.015625)"/>
       <path id="DejaVuSans-74" d="M 1172 4494 
L 1172 3500 
L 2356 3500 
L 2356 3053 
L 1172 3053 
L 1172 1153 
Q 1172 725 1289 603 
Q 1406 481 1766 481 
L 2356 481 
L 2356 0 
L 1766 0 
Q 1100 0 847 248 
Q 594 497 594 1153 
L 594 3053 
L 172 3053 
L 172 3500 
L 594 3500 
L 594 4494 
L 1172 4494 
z
" transform="scale(0.015625)"/>
       <path id="DejaVuSans-69" d="M 603 3500 
L 1178 3500 
L 1178 0 
L 603 0 
L 603 3500 
z
M 603 4863 
L 1178 4863 
L 1178 4134 
L 603 4134 
L 603 4863 
z
" transform="scale(0.015625)"/>
       <path id="DejaVuSans-6f" d="M 1959 3097 
Q 1497 3097 1228 2736 
Q 959 2375 959 1747 
Q 959 1119 1226 758 
Q 1494 397 1959 397 
Q 2419 397 2687 759 
Q 2956 1122 2956 1747 
Q 2956 2369 2687 2733 
Q 2419 3097 1959 3097 
z
M 1959 3584 
Q 2709 3584 3137 3096 
Q 3566 2609 3566 1747 
Q 3566 888 3137 398 
Q 2709 -91 1959 -91 
Q 1206 -91 779 398 
Q 353 888 353 1747 
Q 353 2609 779 3096 
Q 1206 3584 1959 3584 
z
" transform="scale(0.015625)"/>
      </defs>
      <use xlink:href="#DejaVuSans-47"/>
      <use xlink:href="#DejaVuSans-65" x="77.490234"/>
      <use xlink:href="#DejaVuSans-6e" x="139.013672"/>
      <use xlink:href="#DejaVuSans-65" x="202.392578"/>
      <use xlink:href="#DejaVuSans-72" x="263.916016"/>
      <use xlink:href="#DejaVuSans-61" x="305.029297"/>
      <use xlink:href="#DejaVuSans-74" x="366.308594"/>
      <use xlink:href="#DejaVuSans-69" x="405.517578"/>
      <use xlink:href="#DejaVuSans-6f" x="433.300781"/>
      <use xlink:href="#DejaVuSans-6e" x="494.482422"/>
     </g>
    </g>
   </g>
   <g id="matplotlib.axis_2">
    <g id="ytick_1">
     <g id="line2d_6">
      <path d="M 67.3075 305.647161 
L 339.579235 305.647161 
" clip-path="url(#p6f018e86fd)" style="fill: none; stroke: #ffffff; stroke-linecap: round"/>
     </g>
     <g id="text_7">
      <!-- 0 -->
      <g style="fill: #262626" transform="translate(50.80875 309.826302)scale(0.11 -0.11)">
       <use xlink:href="#DejaVuSans-30"/>
      </g>
     </g>
    </g>
    <g id="ytick_2">
     <g id="line2d_7">
      <path d="M 67.3075 271.466992 
L 339.579235 271.466992 
" clip-path="url(#p6f018e86fd)" style="fill: none; stroke: #ffffff; stroke-linecap: round"/>
     </g>
     <g id="text_8">
      <!-- 2500 -->
      <g style="fill: #262626" transform="translate(29.8125 275.646132)scale(0.11 -0.11)">
       <use xlink:href="#DejaVuSans-32"/>
       <use xlink:href="#DejaVuSans-35" x="63.623047"/>
       <use xlink:href="#DejaVuSans-30" x="127.246094"/>
       <use xlink:href="#DejaVuSans-30" x="190.869141"/>
      </g>
     </g>
    </g>
    <g id="ytick_3">
     <g id="line2d_8">
      <path d="M 67.3075 237.286822 
L 339.579235 237.286822 
" clip-path="url(#p6f018e86fd)" style="fill: none; stroke: #ffffff; stroke-linecap: round"/>
     </g>
     <g id="text_9">
      <!-- 5000 -->
      <g style="fill: #262626" transform="translate(29.8125 241.465963)scale(0.11 -0.11)">
       <use xlink:href="#DejaVuSans-35"/>
       <use xlink:href="#DejaVuSans-30" x="63.623047"/>
       <use xlink:href="#DejaVuSans-30" x="127.246094"/>
       <use xlink:href="#DejaVuSans-30" x="190.869141"/>
      </g>
     </g>
    </g>
    <g id="ytick_4">
     <g id="line2d_9">
      <path d="M 67.3075 203.106653 
L 339.579235 203.106653 
" clip-path="url(#p6f018e86fd)" style="fill: none; stroke: #ffffff; stroke-linecap: round"/>
     </g>
     <g id="text_10">
      <!-- 7500 -->
      <g style="fill: #262626" transform="translate(29.8125 207.285793)scale(0.11 -0.11)">
       <defs>
        <path id="DejaVuSans-37" d="M 525 4666 
L 3525 4666 
L 3525 4397 
L 1831 0 
L 1172 0 
L 2766 4134 
L 525 4134 
L 525 4666 
z
" transform="scale(0.015625)"/>
       </defs>
       <use xlink:href="#DejaVuSans-37"/>
       <use xlink:href="#DejaVuSans-35" x="63.623047"/>
       <use xlink:href="#DejaVuSans-30" x="127.246094"/>
       <use xlink:href="#DejaVuSans-30" x="190.869141"/>
      </g>
     </g>
    </g>
    <g id="ytick_5">
     <g id="line2d_10">
      <path d="M 67.3075 168.926483 
L 339.579235 168.926483 
" clip-path="url(#p6f018e86fd)" style="fill: none; stroke: #ffffff; stroke-linecap: round"/>
     </g>
     <g id="text_11">
      <!-- 10000 -->
      <g style="fill: #262626" transform="translate(22.81375 173.105624)scale(0.11 -0.11)">
       <use xlink:href="#DejaVuSans-31"/>
       <use xlink:href="#DejaVuSans-30" x="63.623047"/>
       <use xlink:href="#DejaVuSans-30" x="127.246094"/>
       <use xlink:href="#DejaVuSans-30" x="190.869141"/>
       <use xlink:href="#DejaVuSans-30" x="254.492188"/>
      </g>
     </g>
    </g>
    <g id="ytick_6">
     <g id="line2d_11">
      <path d="M 67.3075 134.746313 
L 339.579235 134.746313 
" clip-path="url(#p6f018e86fd)" style="fill: none; stroke: #ffffff; stroke-linecap: round"/>
     </g>
     <g id="text_12">
      <!-- 12500 -->
      <g style="fill: #262626" transform="translate(22.81375 138.925454)scale(0.11 -0.11)">
       <use xlink:href="#DejaVuSans-31"/>
       <use xlink:href="#DejaVuSans-32" x="63.623047"/>
       <use xlink:href="#DejaVuSans-35" x="127.246094"/>
       <use xlink:href="#DejaVuSans-30" x="190.869141"/>
       <use xlink:href="#DejaVuSans-30" x="254.492188"/>
      </g>
     </g>
    </g>
    <g id="ytick_7">
     <g id="line2d_12">
      <path d="M 67.3075 100.566144 
L 339.579235 100.566144 
" clip-path="url(#p6f018e86fd)" style="fill: none; stroke: #ffffff; stroke-linecap: round"/>
     </g>
     <g id="text_13">
      <!-- 15000 -->
      <g style="fill: #262626" transform="translate(22.81375 104.745284)scale(0.11 -0.11)">
       <use xlink:href="#DejaVuSans-31"/>
       <use xlink:href="#DejaVuSans-35" x="63.623047"/>
       <use xlink:href="#DejaVuSans-30" x="127.246094"/>
       <use xlink:href="#DejaVuSans-30" x="190.869141"/>
       <use xlink:href="#DejaVuSans-30" x="254.492188"/>
      </g>
     </g>
    </g>
    <g id="ytick_8">
     <g id="line2d_13">
      <path d="M 67.3075 66.385974 
L 339.579235 66.385974 
" clip-path="url(#p6f018e86fd)" style="fill: none; stroke: #ffffff; stroke-linecap: round"/>
     </g>
     <g id="text_14">
      <!-- 17500 -->
      <g style="fill: #262626" transform="translate(22.81375 70.565115)scale(0.11 -0.11)">
       <use xlink:href="#DejaVuSans-31"/>
       <use xlink:href="#DejaVuSans-37" x="63.623047"/>
       <use xlink:href="#DejaVuSans-35" x="127.246094"/>
       <use xlink:href="#DejaVuSans-30" x="190.869141"/>
       <use xlink:href="#DejaVuSans-30" x="254.492188"/>
      </g>
     </g>
    </g>
    <g id="ytick_9">
     <g id="line2d_14">
      <path d="M 67.3075 32.205805 
L 339.579235 32.205805 
" clip-path="url(#p6f018e86fd)" style="fill: none; stroke: #ffffff; stroke-linecap: round"/>
     </g>
     <g id="text_15">
      <!-- 20000 -->
      <g style="fill: #262626" transform="translate(22.81375 36.384945)scale(0.11 -0.11)">
       <use xlink:href="#DejaVuSans-32"/>
       <use xlink:href="#DejaVuSans-30" x="63.623047"/>
       <use xlink:href="#DejaVuSans-30" x="127.246094"/>
       <use xlink:href="#DejaVuSans-30" x="190.869141"/>
       <use xlink:href="#DejaVuSans-30" x="254.492188"/>
      </g>
     </g>
    </g>
    <g id="text_16">
     <!-- Fitness -->
     <g style="fill: #262626" transform="translate(16.318125 191.50875)rotate(-90)scale(0.12 -0.12)">
      <defs>
       <path id="DejaVuSans-46" d="M 628 4666 
L 3309 4666 
L 3309 4134 
L 1259 4134 
L 1259 2759 
L 3109 2759 
L 3109 2228 
L 1259 2228 
L 1259 0 
L 628 0 
L 628 4666 
z
" transform="scale(0.015625)"/>
       <path id="DejaVuSans-73" d="M 2834 3397 
L 2834 2853 
Q 2591 2978 2328 3040 
Q 2066 3103 1784 3103 
Q 1356 3103 1142 2972 
Q 928 2841 928 2578 
Q 928 2378 1081 2264 
Q 1234 2150 1697 2047 
L 1894 2003 
Q 2506 1872 2764 1633 
Q 3022 1394 3022 966 
Q 3022 478 2636 193 
Q 2250 -91 1575 -91 
Q 1294 -91 989 -36 
Q 684 19 347 128 
L 347 722 
Q 666 556 975 473 
Q 1284 391 1588 391 
Q 1994 391 2212 530 
Q 2431 669 2431 922 
Q 2431 1156 2273 1281 
Q 2116 1406 1581 1522 
L 1381 1569 
Q 847 1681 609 1914 
Q 372 2147 372 2553 
Q 372 3047 722 3315 
Q 1072 3584 1716 3584 
Q 2034 3584 2315 3537 
Q 2597 3491 2834 3397 
z
" transform="scale(0.015625)"/>
      </defs>
      <use xlink:href="#DejaVuSans-46"/>
      <use xlink:href="#DejaVuSans-69" x="50.269531"/>
      <use xlink:href="#DejaVuSans-74" x="78.052734"/>
      <use xlink:href="#DejaVuSans-6e" x="117.261719"/>
      <use xlink:href="#DejaVuSans-65" x="180.640625"/>
      <use xlink:href="#DejaVuSans-73" x="242.164062"/>
      <use xlink:href="#DejaVuSans-73" x="294.263672"/>
     </g>
    </g>
   </g>
   <g id="PolyCollection_1">
    <defs>
     <path id="m0d387240c7" d="M 79.683488 -56.467314 
L 79.683488 -56.454496 
L 80.927306 -56.479266 
L 82.171124 -56.554452 
L 83.414942 -56.574127 
L 84.658759 -56.657868 
L 85.902577 -56.656159 
L 87.146395 -56.626252 
L 88.390213 -56.632201 
L 89.634031 -56.877027 
L 90.877849 -56.608222 
L 92.121667 -56.674521 
L 93.365485 -56.795828 
L 94.609303 -56.806979 
L 95.85312 -56.660806 
L 97.096938 -56.688631 
L 98.340756 -56.715921 
L 99.584574 -56.940667 
L 100.828392 -56.862875 
L 102.07221 -56.916324 
L 103.316028 -56.894545 
L 104.559846 -56.759939 
L 105.803664 -56.624543 
L 107.047481 -56.588205 
L 108.291299 -56.731997 
L 109.535117 -56.755688 
L 110.778935 -56.64034 
L 112.022753 -56.631785 
L 113.266571 -56.592915 
L 114.510389 -56.628794 
L 115.754207 -56.712535 
L 116.998025 -56.677052 
L 118.241842 -56.687765 
L 119.48566 -56.718955 
L 120.729478 -56.754374 
L 121.973296 -56.593353 
L 123.217114 -56.83975 
L 124.460932 -56.640319 
L 125.70475 -56.688182 
L 126.948568 -56.671968 
L 128.192385 -56.636057 
L 129.436203 -56.705155 
L 130.680021 -56.597177 
L 131.923839 -56.635128 
L 133.167657 -56.641206 
L 134.411475 -56.623667 
L 135.655293 -56.610721 
L 136.899111 -56.735618 
L 138.142929 -56.640778 
L 139.386746 -56.641206 
L 140.630564 -56.616404 
L 141.874382 -56.634786 
L 143.1182 -56.690329 
L 144.362018 -56.579671 
L 145.605836 -56.602689 
L 146.849654 -56.598908 
L 148.093472 -56.586496 
L 149.33729 -56.596739 
L 150.581107 -56.609568 
L 151.824925 -56.592478 
L 153.068743 -56.698799 
L 154.312561 -56.663797 
L 155.556379 -56.626241 
L 156.800197 -56.601428 
L 158.044015 -56.589081 
L 159.287833 -56.588654 
L 160.53165 -56.613359 
L 161.775468 -56.677501 
L 163.019286 -56.627523 
L 164.263104 -56.60569 
L 165.506922 -56.570698 
L 166.75074 -56.602742 
L 167.994558 -56.583078 
L 169.238376 -56.579243 
L 170.482194 -56.59377 
L 171.726011 -56.562143 
L 172.969829 -56.547627 
L 174.213647 -56.522002 
L 175.457465 -56.526275 
L 176.701283 -56.549325 
L 177.945101 -56.57026 
L 179.188919 -56.524139 
L 180.432737 -56.514739 
L 181.676555 -56.50362 
L 182.920372 -56.500212 
L 184.16419 -56.520293 
L 185.408008 -56.516448 
L 186.651826 -56.515166 
L 187.895644 -56.523273 
L 189.139462 -56.510029 
L 190.38328 -56.50363 
L 191.627098 -56.50833 
L 192.870915 -56.495513 
L 194.114733 -56.495085 
L 195.358551 -56.491667 
L 196.602369 -56.50362 
L 197.846187 -56.49124 
L 199.090005 -56.486102 
L 200.333823 -56.492084 
L 201.577641 -56.481413 
L 202.821459 -56.487822 
L 204.065276 -56.494231 
L 205.309094 -56.494658 
L 206.552912 -56.494231 
L 207.79673 -56.486113 
L 209.040548 -56.477568 
L 210.284366 -56.480559 
L 211.528184 -56.477141 
L 212.772002 -56.479704 
L 214.01582 -56.482695 
L 215.259637 -56.475005 
L 216.503455 -56.482695 
L 217.747273 -56.477995 
L 218.991091 -56.480559 
L 220.234909 -56.474994 
L 221.478727 -56.472441 
L 222.722545 -56.492938 
L 223.966363 -56.519001 
L 225.21018 -56.568092 
L 226.453998 -56.5643 
L 227.697816 -57.590944 
L 228.941634 -59.167953 
L 230.185452 -60.288967 
L 231.42927 -60.522492 
L 232.673088 -60.50866 
L 233.916906 -58.933071 
L 235.160724 -59.683518 
L 236.404541 -62.309762 
L 237.648359 -60.084762 
L 238.892177 -61.154975 
L 240.135995 -60.77142 
L 241.379813 -61.937839 
L 242.623631 -60.725138 
L 243.867449 -61.477304 
L 245.111267 -61.88971 
L 246.355085 -61.138291 
L 247.598902 -60.23054 
L 248.84272 -62.143476 
L 250.086538 -61.596294 
L 251.330356 -61.321229 
L 252.574174 -62.317058 
L 253.817992 -62.853644 
L 255.06181 -61.86008 
L 256.305628 -61.176433 
L 257.549445 -61.92029 
L 258.793263 -61.584139 
L 260.037081 -61.846365 
L 261.280899 -63.739102 
L 262.524717 -65.8275 
L 263.768535 -60.644003 
L 265.012353 -62.821354 
L 266.256171 -62.028652 
L 267.499989 -63.541626 
L 268.743806 -60.979492 
L 269.987624 -61.532217 
L 271.231442 -62.259785 
L 272.47526 -62.23479 
L 273.719078 -63.894131 
L 274.962896 -63.472454 
L 276.206714 -62.919141 
L 277.450532 -65.003726 
L 278.69435 -62.790709 
L 279.938167 -63.786121 
L 281.181985 -64.736298 
L 282.425803 -63.761213 
L 283.669621 -64.411117 
L 284.913439 -64.837536 
L 286.157257 -64.886563 
L 287.401075 -62.286253 
L 288.644893 -60.397083 
L 289.88871 -65.630131 
L 291.132528 -62.981467 
L 292.376346 -64.09699 
L 293.620164 -63.865484 
L 294.863982 -62.337245 
L 296.1078 -63.429943 
L 297.351618 -63.61051 
L 298.595436 -64.19497 
L 299.839254 -64.762531 
L 301.083071 -61.540912 
L 302.326889 -63.070453 
L 303.570707 -60.817862 
L 304.814525 -62.616925 
L 306.058343 -62.394198 
L 307.302161 -63.78327 
L 308.545979 -60.294799 
L 309.789797 -62.74478 
L 311.033615 -62.736352 
L 312.277432 -63.125312 
L 313.52125 -63.84521 
L 314.765068 -62.716346 
L 316.008886 -63.548131 
L 317.252704 -64.495253 
L 318.496522 -63.957855 
L 319.74034 -62.209113 
L 320.984158 -64.391709 
L 322.227976 -64.527767 
L 323.471793 -63.856404 
L 324.715611 -64.438931 
L 325.959429 -62.864731 
L 327.203247 -62.521295 
L 327.203247 -67.442193 
L 327.203247 -67.442193 
L 325.959429 -67.542586 
L 324.715611 -68.757702 
L 323.471793 -68.207006 
L 322.227976 -68.705534 
L 320.984158 -68.845342 
L 319.74034 -66.906397 
L 318.496522 -68.245288 
L 317.252704 -69.066808 
L 316.008886 -67.890797 
L 314.765068 -67.347834 
L 313.52125 -68.163779 
L 312.277432 -67.587565 
L 311.033615 -67.344363 
L 309.789797 -67.322957 
L 308.545979 -64.883775 
L 307.302161 -67.966164 
L 306.058343 -66.965636 
L 304.814525 -66.899144 
L 303.570707 -65.076092 
L 302.326889 -67.2918 
L 301.083071 -66.094906 
L 299.839254 -68.699211 
L 298.595436 -68.307367 
L 297.351618 -67.562336 
L 296.1078 -67.589253 
L 294.863982 -66.614787 
L 293.620164 -68.14467 
L 292.376346 -68.32199 
L 291.132528 -67.188992 
L 289.88871 -69.174892 
L 288.644893 -65.108937 
L 287.401075 -66.621067 
L 286.157257 -68.780293 
L 284.913439 -68.596927 
L 283.669621 -68.392081 
L 282.425803 -67.750327 
L 281.181985 -68.479326 
L 279.938167 -67.652497 
L 278.69435 -67.265481 
L 277.450532 -68.912965 
L 276.206714 -67.067097 
L 274.962896 -67.690907 
L 273.719078 -67.826773 
L 272.47526 -66.207487 
L 271.231442 -66.001712 
L 269.987624 -65.555308 
L 268.743806 -65.115303 
L 267.499989 -67.476223 
L 266.256171 -66.378986 
L 265.012353 -66.704542 
L 263.768535 -64.257519 
L 262.524717 -68.427618 
L 261.280899 -67.015133 
L 260.037081 -65.672055 
L 258.793263 -65.084989 
L 257.549445 -65.096536 
L 256.305628 -64.414812 
L 255.06181 -65.055285 
L 253.817992 -65.627129 
L 252.574174 -65.159299 
L 251.330356 -64.586642 
L 250.086538 -64.555143 
L 248.84272 -65.056406 
L 247.598902 -63.412959 
L 246.355085 -64.241412 
L 245.111267 -64.923221 
L 243.867449 -64.53362 
L 242.623631 -63.848158 
L 241.379813 -64.667361 
L 240.135995 -63.811041 
L 238.892177 -63.940584 
L 237.648359 -62.846434 
L 236.404541 -64.317228 
L 235.160724 -62.211537 
L 233.916906 -61.284122 
L 232.673088 -62.702236 
L 231.42927 -62.698989 
L 230.185452 -62.357924 
L 228.941634 -61.223741 
L 227.697816 -59.486149 
L 226.453998 -57.258168 
L 225.21018 -56.807001 
L 223.966363 -56.657933 
L 222.722545 -56.530975 
L 221.478727 -56.49594 
L 220.234909 -56.491667 
L 218.991091 -56.497222 
L 217.747273 -56.495513 
L 216.503455 -56.498931 
L 215.259637 -56.500212 
L 214.01582 -56.50535 
L 212.772002 -56.50064 
L 211.528184 -56.49124 
L 210.284366 -56.498931 
L 209.040548 -56.495513 
L 207.79673 -56.507486 
L 206.552912 -56.525858 
L 205.309094 -56.536529 
L 204.065276 -56.537811 
L 202.821459 -56.524139 
L 201.577641 -56.521575 
L 200.333823 -56.516021 
L 199.090005 -56.507903 
L 197.846187 -56.515166 
L 196.602369 -56.536529 
L 195.358551 -56.525858 
L 194.114733 -56.525848 
L 192.870915 -56.522013 
L 191.627098 -56.540812 
L 190.38328 -56.542948 
L 189.139462 -56.538676 
L 187.895644 -56.568146 
L 186.651826 -56.623763 
L 185.408008 -56.574127 
L 184.16419 -56.62073 
L 182.920372 -56.531402 
L 181.676555 -56.539092 
L 180.432737 -56.564727 
L 179.188919 -56.577118 
L 177.945101 -56.724979 
L 176.701283 -56.785243 
L 175.457465 -56.576701 
L 174.213647 -56.60193 
L 172.969829 -56.658734 
L 171.726011 -56.860856 
L 170.482194 -56.974932 
L 169.238376 -56.829634 
L 167.994558 -56.810857 
L 166.75074 -56.935636 
L 165.506922 -57.078765 
L 164.263104 -56.980091 
L 163.019286 -56.881802 
L 161.775468 -57.292338 
L 160.53165 -57.269042 
L 159.287833 -56.812128 
L 158.044015 -56.932175 
L 156.800197 -57.069045 
L 155.556379 -56.845005 
L 154.312561 -57.311158 
L 153.068743 -57.229254 
L 151.824925 -56.971108 
L 150.581107 -57.005321 
L 149.33729 -56.703189 
L 148.093472 -56.978372 
L 146.849654 -57.077868 
L 145.605836 -57.207753 
L 144.362018 -56.932164 
L 143.1182 -57.362418 
L 141.874382 -57.092662 
L 140.630564 -56.750604 
L 139.386746 -56.865161 
L 138.142929 -56.918108 
L 136.899111 -57.13308 
L 135.655293 -57.081297 
L 134.411475 -57.017818 
L 133.167657 -56.969389 
L 131.923839 -57.137299 
L 130.680021 -56.979173 
L 129.436203 -57.244582 
L 128.192385 -57.012488 
L 126.948568 -56.935187 
L 125.70475 -57.110393 
L 124.460932 -57.033861 
L 123.217114 -57.517959 
L 121.973296 -57.036072 
L 120.729478 -57.42359 
L 119.48566 -57.291953 
L 118.241842 -57.262484 
L 116.998025 -57.221873 
L 115.754207 -57.267707 
L 114.510389 -57.140813 
L 113.266571 -56.844214 
L 112.022753 -56.908697 
L 110.778935 -57.053931 
L 109.535117 -57.35006 
L 108.291299 -57.491491 
L 107.047481 -57.23389 
L 105.803664 -57.169727 
L 104.559846 -57.307441 
L 103.316028 -57.635517 
L 102.07221 -57.662125 
L 100.828392 -57.466753 
L 99.584574 -57.648335 
L 98.340756 -57.269726 
L 97.096938 -56.952363 
L 95.85312 -57.000963 
L 94.609303 -57.363379 
L 93.365485 -57.398061 
L 92.121667 -57.107412 
L 90.877849 -57.008311 
L 89.634031 -57.626097 
L 88.390213 -56.939855 
L 87.146395 -56.878331 
L 85.902577 -57.01848 
L 84.658759 -57.164312 
L 83.414942 -56.678814 
L 82.171124 -57.047992 
L 80.927306 -56.587383 
L 79.683488 -56.467314 
z
" style="stroke: #edd1cb; stroke-opacity: 0.2"/>
    </defs>
    <g clip-path="url(#p6f018e86fd)">
     <use xlink:href="#m0d387240c7" x="0" y="362.097812" style="fill: #edd1cb; fill-opacity: 0.2; stroke: #edd1cb; stroke-opacity: 0.2"/>
    </g>
   </g>
   <g id="PolyCollection_2">
    <defs>
     <path id="mf7f49b7c4b" d="M 79.683488 -56.469023 
L 79.683488 -56.453215 
L 80.927306 -56.517281 
L 82.171124 -57.027847 
L 83.414942 -57.375203 
L 84.658759 -57.381623 
L 85.902577 -57.619549 
L 87.146395 -58.753252 
L 88.390213 -59.978045 
L 89.634031 -61.059505 
L 90.877849 -59.816394 
L 92.121667 -62.157212 
L 93.365485 -61.814257 
L 94.609303 -62.651991 
L 95.85312 -61.805594 
L 97.096938 -61.517648 
L 98.340756 -61.733196 
L 99.584574 -61.295893 
L 100.828392 -61.4349 
L 102.07221 -61.548453 
L 103.316028 -63.35449 
L 104.559846 -62.813343 
L 105.803664 -61.989195 
L 107.047481 -61.038965 
L 108.291299 -62.240259 
L 109.535117 -62.970113 
L 110.778935 -60.216975 
L 112.022753 -61.151087 
L 113.266571 -62.261205 
L 114.510389 -61.453282 
L 115.754207 -61.919436 
L 116.998025 -61.204055 
L 118.241842 -62.291316 
L 119.48566 -61.593325 
L 120.729478 -61.795938 
L 121.973296 -60.615708 
L 123.217114 -62.369781 
L 124.460932 -60.943549 
L 125.70475 -61.428534 
L 126.948568 -62.435289 
L 128.192385 -64.137141 
L 129.436203 -61.339195 
L 130.680021 -60.928755 
L 131.923839 -62.603926 
L 133.167657 -61.184007 
L 134.411475 -61.903446 
L 135.655293 -61.768883 
L 136.899111 -60.250279 
L 138.142929 -60.476445 
L 139.386746 -62.13053 
L 140.630564 -62.068194 
L 141.874382 -62.704949 
L 143.1182 -62.822145 
L 144.362018 -63.981312 
L 145.605836 -64.205875 
L 146.849654 -63.713713 
L 148.093472 -65.539778 
L 149.33729 -66.863565 
L 150.581107 -66.794842 
L 151.824925 -62.683341 
L 153.068743 -62.212915 
L 154.312561 -64.503627 
L 155.556379 -62.307701 
L 156.800197 -65.831783 
L 158.044015 -65.936834 
L 159.287833 -63.986236 
L 160.53165 -64.050623 
L 161.775468 -67.817694 
L 163.019286 -64.372931 
L 164.263104 -66.241166 
L 165.506922 -70.067518 
L 166.75074 -68.759165 
L 167.994558 -64.904443 
L 169.238376 -66.980397 
L 170.482194 -68.123158 
L 171.726011 -65.888309 
L 172.969829 -68.800374 
L 174.213647 -68.442689 
L 175.457465 -70.052746 
L 176.701283 -72.739232 
L 177.945101 -69.095637 
L 179.188919 -71.033546 
L 180.432737 -69.814542 
L 181.676555 -70.855884 
L 182.920372 -69.049099 
L 184.16419 -68.594342 
L 185.408008 -66.855223 
L 186.651826 -68.982757 
L 187.895644 -68.782066 
L 189.139462 -69.040949 
L 190.38328 -70.464756 
L 191.627098 -74.167397 
L 192.870915 -70.010234 
L 194.114733 -70.884061 
L 195.358551 -70.464446 
L 196.602369 -67.591421 
L 197.846187 -70.254697 
L 199.090005 -68.614765 
L 200.333823 -71.214743 
L 201.577641 -70.910113 
L 202.821459 -72.827001 
L 204.065276 -72.166982 
L 205.309094 -74.749838 
L 206.552912 -66.429498 
L 207.79673 -66.548061 
L 209.040548 -70.289711 
L 210.284366 -65.723656 
L 211.528184 -65.91247 
L 212.772002 -73.332568 
L 214.01582 -68.63977 
L 215.259637 -75.263278 
L 216.503455 -76.126808 
L 217.747273 -69.253613 
L 218.991091 -74.891077 
L 220.234909 -75.895493 
L 221.478727 -74.928568 
L 222.722545 -77.456106 
L 223.966363 -77.796787 
L 225.21018 -75.129975 
L 226.453998 -75.510272 
L 227.697816 -75.972591 
L 228.941634 -76.023947 
L 230.185452 -78.868378 
L 231.42927 -74.469101 
L 232.673088 -77.602686 
L 233.916906 -78.943884 
L 235.160724 -72.282222 
L 236.404541 -78.908635 
L 237.648359 -81.200683 
L 238.892177 -81.667007 
L 240.135995 -73.684207 
L 241.379813 -78.750168 
L 242.623631 -87.266114 
L 243.867449 -82.320756 
L 245.111267 -79.659253 
L 246.355085 -78.716297 
L 247.598902 -77.014766 
L 248.84272 -77.085722 
L 250.086538 -79.711731 
L 251.330356 -83.646936 
L 252.574174 -84.186556 
L 253.817992 -78.355376 
L 255.06181 -80.232829 
L 256.305628 -96.587281 
L 257.549445 -86.45645 
L 258.793263 -92.949198 
L 260.037081 -90.106401 
L 261.280899 -88.62939 
L 262.524717 -86.455606 
L 263.768535 -90.231297 
L 265.012353 -95.973651 
L 266.256171 -91.018467 
L 267.499989 -103.154702 
L 268.743806 -143.026607 
L 269.987624 -191.339016 
L 271.231442 -176.166183 
L 272.47526 -217.976915 
L 273.719078 -202.542069 
L 274.962896 -166.204329 
L 276.206714 -190.206862 
L 277.450532 -213.201785 
L 278.69435 -209.872583 
L 279.938167 -198.109648 
L 281.181985 -192.960566 
L 282.425803 -195.846932 
L 283.669621 -202.073021 
L 284.913439 -239.827763 
L 286.157257 -193.239017 
L 287.401075 -222.979653 
L 288.644893 -206.883506 
L 289.88871 -187.262625 
L 291.132528 -240.627825 
L 292.376346 -180.133058 
L 293.620164 -203.070345 
L 294.863982 -224.009095 
L 296.1078 -215.644407 
L 297.351618 -222.379983 
L 298.595436 -248.175992 
L 299.839254 -207.21516 
L 301.083071 -172.995448 
L 302.326889 -214.661684 
L 303.570707 -231.808754 
L 304.814525 -216.244856 
L 306.058343 -223.29097 
L 307.302161 -249.563023 
L 308.545979 -221.291985 
L 309.789797 -241.87163 
L 311.033615 -184.73074 
L 312.277432 -169.022025 
L 313.52125 -224.640371 
L 314.765068 -221.875772 
L 316.008886 -176.120669 
L 317.252704 -204.087237 
L 318.496522 -215.996163 
L 319.74034 -213.975036 
L 320.984158 -233.632031 
L 322.227976 -184.444897 
L 323.471793 -199.743909 
L 324.715611 -231.967403 
L 325.959429 -197.140908 
L 327.203247 -230.763139 
L 327.203247 -317.970403 
L 327.203247 -317.970403 
L 325.959429 -290.686232 
L 324.715611 -316.069782 
L 323.471793 -290.860561 
L 322.227976 -282.663922 
L 320.984158 -320.111406 
L 319.74034 -306.32414 
L 318.496522 -306.355917 
L 317.252704 -295.8249 
L 316.008886 -272.235274 
L 314.765068 -313.248017 
L 313.52125 -313.088225 
L 312.277432 -275.405421 
L 311.033615 -275.794167 
L 309.789797 -322.279486 
L 308.545979 -313.475326 
L 307.302161 -326.287869 
L 306.058343 -309.845285 
L 304.814525 -300.97442 
L 303.570707 -318.977212 
L 302.326889 -303.096667 
L 301.083071 -269.903813 
L 299.839254 -294.62774 
L 298.595436 -325.939499 
L 297.351618 -313.561823 
L 296.1078 -306.696768 
L 294.863982 -308.61779 
L 293.620164 -296.643932 
L 292.376346 -277.477882 
L 291.132528 -321.64397 
L 289.88871 -280.349134 
L 288.644893 -298.063028 
L 287.401075 -311.025078 
L 286.157257 -287.522793 
L 284.913439 -322.656312 
L 283.669621 -295.451332 
L 282.425803 -294.001954 
L 281.181985 -284.270625 
L 279.938167 -295.592122 
L 278.69435 -297.079707 
L 277.450532 -302.705347 
L 276.206714 -287.101117 
L 274.962896 -266.986503 
L 273.719078 -294.104409 
L 272.47526 -304.355555 
L 271.231442 -271.004671 
L 269.987624 -279.095074 
L 268.743806 -236.843567 
L 267.499989 -169.004518 
L 266.256171 -136.665474 
L 265.012353 -129.793049 
L 263.768535 -108.685192 
L 262.524717 -105.07457 
L 261.280899 -107.761719 
L 260.037081 -106.948626 
L 258.793263 -109.696936 
L 257.549445 -105.929843 
L 256.305628 -110.226002 
L 255.06181 -97.719735 
L 253.817992 -95.710816 
L 252.574174 -99.319356 
L 251.330356 -97.382622 
L 250.086538 -94.455101 
L 248.84272 -89.929283 
L 247.598902 -91.174008 
L 246.355085 -92.44849 
L 245.111267 -92.5123 
L 243.867449 -93.549369 
L 242.623631 -95.585365 
L 241.379813 -90.658646 
L 240.135995 -86.342587 
L 238.892177 -92.547196 
L 237.648359 -91.569974 
L 236.404541 -90.03066 
L 235.160724 -84.02106 
L 233.916906 -89.670636 
L 232.673088 -88.554739 
L 231.42927 -86.419963 
L 230.185452 -89.37094 
L 228.941634 -87.557479 
L 227.697816 -88.022158 
L 226.453998 -86.743905 
L 225.21018 -85.720124 
L 223.966363 -87.255882 
L 222.722545 -85.805553 
L 221.478727 -83.554714 
L 220.234909 -84.27959 
L 218.991091 -82.658446 
L 217.747273 -78.557424 
L 216.503455 -83.398478 
L 215.259637 -82.371161 
L 214.01582 -77.179514 
L 212.772002 -80.5809 
L 211.528184 -74.273089 
L 210.284366 -74.500771 
L 209.040548 -78.405162 
L 207.79673 -75.081332 
L 206.552912 -74.5263 
L 205.309094 -81.831991 
L 204.065276 -79.918243 
L 202.821459 -80.281194 
L 201.577641 -78.470755 
L 200.333823 -79.095014 
L 199.090005 -76.621149 
L 197.846187 -78.392622 
L 196.602369 -75.691299 
L 195.358551 -77.986999 
L 194.114733 -78.040961 
L 192.870915 -77.04635 
L 191.627098 -80.054654 
L 190.38328 -77.827378 
L 189.139462 -76.450302 
L 187.895644 -76.218624 
L 186.651826 -76.099175 
L 185.408008 -73.994296 
L 184.16419 -75.431028 
L 182.920372 -76.85806 
L 181.676555 -78.009505 
L 180.432737 -76.938811 
L 179.188919 -77.959409 
L 177.945101 -76.622986 
L 176.701283 -78.986107 
L 175.457465 -77.404804 
L 174.213647 -75.898794 
L 172.969829 -76.002178 
L 171.726011 -72.655972 
L 170.482194 -74.593977 
L 169.238376 -73.886575 
L 167.994558 -71.847482 
L 166.75074 -75.086214 
L 165.506922 -75.382257 
L 164.263104 -72.195308 
L 163.019286 -70.606689 
L 161.775468 -73.093916 
L 160.53165 -69.577321 
L 159.287833 -69.49343 
L 158.044015 -70.412054 
L 156.800197 -70.178593 
L 155.556379 -66.98374 
L 154.312561 -69.403205 
L 153.068743 -67.291939 
L 151.824925 -67.888618 
L 150.581107 -71.28462 
L 149.33729 -70.888002 
L 148.093472 -70.126821 
L 146.849654 -68.509447 
L 145.605836 -68.530094 
L 144.362018 -67.977582 
L 143.1182 -66.651744 
L 141.874382 -66.412227 
L 140.630564 -65.730225 
L 139.386746 -65.860463 
L 138.142929 -63.846044 
L 136.899111 -63.802816 
L 135.655293 -65.008842 
L 134.411475 -65.394907 
L 133.167657 -64.882824 
L 131.923839 -66.110736 
L 130.680021 -64.477437 
L 129.436203 -64.637817 
L 128.192385 -66.59634 
L 126.948568 -65.540355 
L 125.70475 -64.835517 
L 124.460932 -64.087964 
L 123.217114 -65.246683 
L 121.973296 -63.835352 
L 120.729478 -64.799606 
L 119.48566 -64.567064 
L 118.241842 -65.130823 
L 116.998025 -64.572586 
L 115.754207 -64.951879 
L 114.510389 -64.578567 
L 113.266571 -65.327295 
L 112.022753 -64.444186 
L 110.778935 -63.743065 
L 109.535117 -66.105663 
L 108.291299 -65.218089 
L 107.047481 -64.349015 
L 105.803664 -65.284356 
L 104.559846 -65.85008 
L 103.316028 -66.298962 
L 102.07221 -64.880848 
L 100.828392 -64.72911 
L 99.584574 -64.653219 
L 98.340756 -64.826139 
L 97.096938 -64.726995 
L 95.85312 -64.874557 
L 94.609303 -65.654548 
L 93.365485 -65.194804 
L 92.121667 -65.331556 
L 90.877849 -62.975443 
L 89.634031 -64.273915 
L 88.390213 -63.059707 
L 87.146395 -61.337646 
L 85.902577 -59.616611 
L 84.658759 -58.747644 
L 83.414942 -58.123204 
L 82.171124 -57.599607 
L 80.927306 -56.837763 
L 79.683488 -56.469023 
z
" style="stroke: #d499a7; stroke-opacity: 0.2"/>
    </defs>
    <g clip-path="url(#p6f018e86fd)">
     <use xlink:href="#mf7f49b7c4b" x="0" y="362.097812" style="fill: #d499a7; fill-opacity: 0.2; stroke: #d499a7; stroke-opacity: 0.2"/>
    </g>
   </g>
   <g id="PolyCollection_3">
    <defs>
     <path id="m282a5a4e56" d="M 79.683488 -56.456205 
L 79.683488 -56.451933 
L 80.927306 -56.45706 
L 82.171124 -56.462604 
L 83.414942 -56.476714 
L 84.658759 -56.521148 
L 85.902577 -56.543365 
L 87.146395 -56.601044 
L 88.390213 -56.627096 
L 89.634031 -56.692049 
L 90.877849 -56.66385 
L 92.121667 -56.75525 
L 93.365485 -56.787315 
L 94.609303 -56.893284 
L 95.85312 -56.800101 
L 97.096938 -56.798862 
L 98.340756 -56.993229 
L 99.584574 -56.823215 
L 100.828392 -56.835146 
L 102.07221 -56.946627 
L 103.316028 -57.097404 
L 104.559846 -57.462715 
L 105.803664 -57.629301 
L 107.047481 -57.378109 
L 108.291299 -57.303414 
L 109.535117 -57.519145 
L 110.778935 -57.42688 
L 112.022753 -58.06779 
L 113.266571 -57.608622 
L 114.510389 -57.311084 
L 115.754207 -57.765712 
L 116.998025 -57.379668 
L 118.241842 -57.81256 
L 119.48566 -57.957067 
L 120.729478 -57.88139 
L 121.973296 -58.255674 
L 123.217114 -58.228105 
L 124.460932 -58.648393 
L 125.70475 -58.665441 
L 126.948568 -58.398056 
L 128.192385 -58.000615 
L 129.436203 -57.986986 
L 130.680021 -57.91604 
L 131.923839 -57.408946 
L 133.167657 -58.655475 
L 134.411475 -58.399284 
L 135.655293 -58.58767 
L 136.899111 -58.456429 
L 138.142929 -58.428316 
L 139.386746 -57.817185 
L 140.630564 -58.53326 
L 141.874382 -57.744595 
L 143.1182 -57.611912 
L 144.362018 -58.008605 
L 145.605836 -58.277741 
L 146.849654 -58.336019 
L 148.093472 -58.48968 
L 149.33729 -58.054513 
L 150.581107 -57.625872 
L 151.824925 -58.179698 
L 153.068743 -58.531305 
L 154.312561 -59.398531 
L 155.556379 -58.876546 
L 156.800197 -58.042475 
L 158.044015 -58.454004 
L 159.287833 -58.641418 
L 160.53165 -58.316483 
L 161.775468 -58.344201 
L 163.019286 -58.776078 
L 164.263104 -59.258894 
L 165.506922 -58.628291 
L 166.75074 -58.747462 
L 167.994558 -58.934449 
L 169.238376 -58.943518 
L 170.482194 -58.934599 
L 171.726011 -59.086252 
L 172.969829 -58.005635 
L 174.213647 -58.960202 
L 175.457465 -58.530493 
L 176.701283 -59.026533 
L 177.945101 -58.500895 
L 179.188919 -58.404721 
L 180.432737 -59.454137 
L 181.676555 -58.663774 
L 182.920372 -58.633012 
L 184.16419 -58.49689 
L 185.408008 -58.540277 
L 186.651826 -58.092293 
L 187.895644 -58.957307 
L 189.139462 -58.253239 
L 190.38328 -58.413116 
L 191.627098 -58.652591 
L 192.870915 -59.139723 
L 194.114733 -57.816405 
L 195.358551 -58.997918 
L 196.602369 -58.845357 
L 197.846187 -58.720599 
L 199.090005 -58.518754 
L 200.333823 -59.138857 
L 201.577641 -58.974846 
L 202.821459 -58.654311 
L 204.065276 -58.57434 
L 205.309094 -59.290105 
L 206.552912 -59.039767 
L 207.79673 -59.476835 
L 209.040548 -58.080575 
L 210.284366 -59.154527 
L 211.528184 -58.690072 
L 212.772002 -58.838061 
L 214.01582 -58.774764 
L 215.259637 -58.419664 
L 216.503455 -58.547103 
L 217.747273 -58.754298 
L 218.991091 -59.018073 
L 220.234909 -57.702329 
L 221.478727 -58.791234 
L 222.722545 -58.76624 
L 223.966363 -59.404224 
L 225.21018 -58.938081 
L 226.453998 -58.734367 
L 227.697816 -58.807897 
L 228.941634 -59.384591 
L 230.185452 -59.901524 
L 231.42927 -58.98682 
L 232.673088 -58.890923 
L 233.916906 -60.080062 
L 235.160724 -58.701479 
L 236.404541 -58.756317 
L 237.648359 -59.185481 
L 238.892177 -59.442975 
L 240.135995 -59.239251 
L 241.379813 -58.66073 
L 242.623631 -59.240458 
L 243.867449 -58.635896 
L 245.111267 -59.108576 
L 246.355085 -59.629695 
L 247.598902 -58.588599 
L 248.84272 -58.122019 
L 250.086538 -59.62412 
L 251.330356 -59.589235 
L 252.574174 -59.432016 
L 253.817992 -57.85458 
L 255.06181 -58.811625 
L 256.305628 -58.010987 
L 257.549445 -58.547017 
L 258.793263 -59.618704 
L 260.037081 -58.844876 
L 261.280899 -58.456728 
L 262.524717 -58.446111 
L 263.768535 -58.201477 
L 265.012353 -58.986766 
L 266.256171 -59.772056 
L 267.499989 -59.1273 
L 268.743806 -58.167671 
L 269.987624 -58.659449 
L 271.231442 -59.343543 
L 272.47526 -58.481434 
L 273.719078 -57.852658 
L 274.962896 -58.187292 
L 276.206714 -59.437987 
L 277.450532 -58.985955 
L 278.69435 -59.113682 
L 279.938167 -59.572988 
L 281.181985 -58.662781 
L 282.425803 -59.156417 
L 283.669621 -59.02398 
L 284.913439 -58.795721 
L 286.157257 -58.107877 
L 287.401075 -58.994831 
L 288.644893 -58.991423 
L 289.88871 -58.937237 
L 291.132528 -58.145112 
L 292.376346 -58.78019 
L 293.620164 -58.677746 
L 294.863982 -59.082033 
L 296.1078 -58.63941 
L 297.351618 -59.136924 
L 298.595436 -58.15622 
L 299.839254 -58.451783 
L 301.083071 -59.927576 
L 302.326889 -59.929989 
L 303.570707 -60.993217 
L 304.814525 -65.419367 
L 306.058343 -65.355974 
L 307.302161 -72.461518 
L 308.545979 -71.316248 
L 309.789797 -75.967838 
L 311.033615 -72.504009 
L 312.277432 -70.611047 
L 313.52125 -75.651297 
L 314.765068 -75.200643 
L 316.008886 -77.988986 
L 317.252704 -83.266458 
L 318.496522 -79.581728 
L 319.74034 -81.455475 
L 320.984158 -76.284432 
L 322.227976 -83.270965 
L 323.471793 -73.519245 
L 324.715611 -78.168539 
L 325.959429 -79.745302 
L 327.203247 -72.711856 
L 327.203247 -88.262124 
L 327.203247 -88.262124 
L 325.959429 -94.338248 
L 324.715611 -93.398389 
L 323.471793 -89.976335 
L 322.227976 -97.170331 
L 320.984158 -91.602146 
L 319.74034 -95.966676 
L 318.496522 -94.321873 
L 317.252704 -96.632335 
L 316.008886 -92.190141 
L 314.765068 -87.860721 
L 313.52125 -89.172855 
L 312.277432 -82.626124 
L 311.033615 -83.466358 
L 309.789797 -83.312964 
L 308.545979 -79.195322 
L 307.302161 -79.568452 
L 306.058343 -72.728316 
L 304.814525 -71.967316 
L 303.570707 -66.518548 
L 302.326889 -64.117776 
L 301.083071 -62.649449 
L 299.839254 -60.134504 
L 298.595436 -59.77557 
L 297.351618 -60.850643 
L 296.1078 -60.371715 
L 294.863982 -60.665643 
L 293.620164 -60.39641 
L 292.376346 -60.403289 
L 291.132528 -59.967438 
L 289.88871 -60.54159 
L 288.644893 -60.720182 
L 287.401075 -60.599312 
L 286.157257 -59.765754 
L 284.913439 -60.412635 
L 283.669621 -60.748092 
L 282.425803 -60.764285 
L 281.181985 -60.269975 
L 279.938167 -61.080355 
L 278.69435 -60.77064 
L 277.450532 -60.621518 
L 276.206714 -60.950129 
L 274.962896 -59.976774 
L 273.719078 -59.542386 
L 272.47526 -60.265788 
L 271.231442 -60.95391 
L 269.987624 -60.475751 
L 268.743806 -59.836218 
L 267.499989 -60.85059 
L 266.256171 -61.272352 
L 265.012353 -60.627126 
L 263.768535 -59.840512 
L 262.524717 -60.160941 
L 261.280899 -60.179291 
L 260.037081 -60.613871 
L 258.793263 -61.132694 
L 257.549445 -60.286232 
L 256.305628 -59.734671 
L 255.06181 -60.590489 
L 253.817992 -59.514647 
L 252.574174 -60.892845 
L 251.330356 -61.164663 
L 250.086538 -61.050586 
L 248.84272 -59.937958 
L 247.598902 -60.355095 
L 246.355085 -61.18343 
L 245.111267 -60.717714 
L 243.867449 -60.315958 
L 242.623631 -60.86486 
L 241.379813 -60.395491 
L 240.135995 -60.853484 
L 238.892177 -61.000053 
L 237.648359 -60.804938 
L 236.404541 -60.46445 
L 235.160724 -60.461833 
L 233.916906 -61.403806 
L 232.673088 -60.620664 
L 231.42927 -60.732219 
L 230.185452 -61.197892 
L 228.941634 -60.879237 
L 227.697816 -60.517312 
L 226.453998 -60.335238 
L 225.21018 -60.642496 
L 223.966363 -60.981703 
L 222.722545 -60.504921 
L 221.478727 -60.484787 
L 220.234909 -59.402109 
L 218.991091 -60.594591 
L 217.747273 -60.384981 
L 216.503455 -60.265361 
L 215.259637 -60.104607 
L 214.01582 -60.319024 
L 212.772002 -60.379779 
L 211.528184 -60.31708 
L 210.284366 -60.654406 
L 209.040548 -59.803736 
L 207.79673 -60.890687 
L 206.552912 -60.621935 
L 205.309094 -60.844672 
L 204.065276 -60.133596 
L 202.821459 -60.225456 
L 201.577641 -60.514278 
L 200.333823 -60.650123 
L 199.090005 -60.189118 
L 197.846187 -60.286542 
L 196.602369 -60.370732 
L 195.358551 -60.505754 
L 194.114733 -59.468536 
L 192.870915 -60.687294 
L 191.627098 -60.237878 
L 190.38328 -60.122819 
L 189.139462 -59.958477 
L 187.895644 -60.507026 
L 186.651826 -59.719226 
L 185.408008 -60.191276 
L 184.16419 -60.058379 
L 182.920372 -60.175051 
L 181.676555 -60.225039 
L 180.432737 -60.838926 
L 179.188919 -60.06483 
L 177.945101 -60.182293 
L 176.701283 -60.52026 
L 175.457465 -60.086663 
L 174.213647 -60.501493 
L 172.969829 -59.681318 
L 171.726011 -60.597998 
L 170.482194 -60.468103 
L 169.238376 -60.58016 
L 167.994558 -60.418755 
L 166.75074 -60.305202 
L 165.506922 -60.207618 
L 164.263104 -60.784761 
L 163.019286 -60.352424 
L 161.775468 -59.931485 
L 160.53165 -59.920697 
L 159.287833 -60.123802 
L 158.044015 -60.045572 
L 156.800197 -59.584022 
L 155.556379 -60.428486 
L 154.312561 -60.661648 
L 153.068743 -60.193081 
L 151.824925 -59.701271 
L 150.581107 -59.23343 
L 149.33729 -59.69138 
L 148.093472 -59.915858 
L 146.849654 -59.805029 
L 145.605836 -59.823636 
L 144.362018 -59.410344 
L 143.1182 -58.968469 
L 141.874382 -59.007809 
L 140.630564 -59.893876 
L 139.386746 -59.180012 
L 138.142929 -59.804292 
L 136.899111 -59.853415 
L 135.655293 -59.956351 
L 134.411475 -59.809868 
L 133.167657 -60.092644 
L 131.923839 -58.789045 
L 130.680021 -59.25899 
L 129.436203 -59.31904 
L 128.192385 -59.38379 
L 126.948568 -59.722142 
L 125.70475 -59.931485 
L 124.460932 -59.879563 
L 123.217114 -59.566206 
L 121.973296 -59.45167 
L 120.729478 -59.181796 
L 119.48566 -59.088143 
L 118.241842 -58.901188 
L 116.998025 -58.416962 
L 115.754207 -58.75527 
L 114.510389 -58.308365 
L 113.266571 -58.601022 
L 112.022753 -58.943678 
L 110.778935 -58.291937 
L 109.535117 -58.283168 
L 108.291299 -58.142687 
L 107.047481 -58.208025 
L 105.803664 -58.423424 
L 104.559846 -58.178662 
L 103.316028 -57.792682 
L 102.07221 -57.498743 
L 100.828392 -57.228293 
L 99.584574 -57.244122 
L 98.340756 -57.331698 
L 97.096938 -57.086883 
L 95.85312 -57.083444 
L 94.609303 -57.147499 
L 93.365485 -57.049274 
L 92.121667 -57.027463 
L 90.877849 -56.870213 
L 89.634031 -56.906551 
L 88.390213 -56.811733 
L 87.146395 -56.754427 
L 85.902577 -56.657452 
L 84.658759 -56.618561 
L 83.414942 -56.52886 
L 82.171124 -56.484831 
L 80.927306 -56.464323 
L 79.683488 -56.456205 
z
" style="stroke: #a9678f; stroke-opacity: 0.2"/>
    </defs>
    <g clip-path="url(#p6f018e86fd)">
     <use xlink:href="#m282a5a4e56" x="0" y="362.097812" style="fill: #a9678f; fill-opacity: 0.2; stroke: #a9678f; stroke-opacity: 0.2"/>
    </g>
   </g>
   <g id="PolyCollection_4">
    <defs>
     <path id="mc20db63332" d="M 79.683488 -56.456205 
L 79.683488 -56.451506 
L 80.927306 -56.469023 
L 82.171124 -56.504047 
L 83.414942 -56.562581 
L 84.658759 -56.568135 
L 85.902577 -56.61258 
L 87.146395 -56.583099 
L 88.390213 -56.58907 
L 89.634031 -56.553181 
L 90.877849 -56.585236 
L 92.121667 -56.58906 
L 93.365485 -56.585663 
L 94.609303 -56.586079 
L 95.85312 -56.54721 
L 97.096938 -56.586934 
L 98.340756 -56.564727 
L 99.584574 -56.568957 
L 100.828392 -56.555745 
L 102.07221 -56.555745 
L 103.316028 -56.560882 
L 104.559846 -56.541229 
L 105.803664 -56.574982 
L 107.047481 -56.560017 
L 108.291299 -56.568146 
L 109.535117 -56.543354 
L 110.778935 -56.524566 
L 112.022753 -56.527546 
L 113.266571 -56.531818 
L 114.510389 -56.534809 
L 115.754207 -56.538665 
L 116.998025 -56.54251 
L 118.241842 -56.518146 
L 119.48566 -56.526702 
L 120.729478 -56.515593 
L 121.973296 -56.510039 
L 123.217114 -56.511748 
L 124.460932 -56.507465 
L 125.70475 -56.50362 
L 126.948568 -56.501067 
L 128.192385 -56.501921 
L 129.436203 -56.507476 
L 130.680021 -56.492522 
L 131.923839 -56.495513 
L 133.167657 -56.493366 
L 134.411475 -56.496794 
L 135.655293 -56.490375 
L 136.899111 -56.50064 
L 138.142929 -56.491667 
L 139.386746 -56.491667 
L 140.630564 -56.486113 
L 141.874382 -56.486968 
L 143.1182 -56.485686 
L 144.362018 -56.486968 
L 145.605836 -56.477141 
L 146.849654 -56.481413 
L 148.093472 -56.49124 
L 149.33729 -56.477568 
L 150.581107 -56.478423 
L 151.824925 -56.476703 
L 153.068743 -56.477141 
L 154.312561 -56.478423 
L 155.556379 -56.481841 
L 156.800197 -56.47415 
L 158.044015 -56.476286 
L 159.287833 -56.47885 
L 160.53165 -56.474577 
L 161.775468 -56.475005 
L 163.019286 -56.477568 
L 164.263104 -56.477141 
L 165.506922 -56.471587 
L 166.75074 -56.470305 
L 167.994558 -56.470305 
L 169.238376 -56.472441 
L 170.482194 -56.474577 
L 171.726011 -56.47415 
L 172.969829 -56.475005 
L 174.213647 -56.470305 
L 175.457465 -56.472868 
L 176.701283 -56.472868 
L 177.945101 -56.469867 
L 179.188919 -56.469878 
L 180.432737 -56.466887 
L 181.676555 -56.475005 
L 182.920372 -56.471159 
L 184.16419 -56.470305 
L 185.408008 -56.467314 
L 186.651826 -56.468596 
L 187.895644 -56.467314 
L 189.139462 -56.46945 
L 190.38328 -56.46945 
L 191.627098 -56.470305 
L 192.870915 -56.466887 
L 194.114733 -56.469023 
L 195.358551 -56.467731 
L 196.602369 -56.467741 
L 197.846187 -56.463041 
L 199.090005 -56.46475 
L 200.333823 -56.463041 
L 201.577641 -56.468169 
L 202.821459 -56.466887 
L 204.065276 -56.460051 
L 205.309094 -56.467314 
L 206.552912 -56.465178 
L 207.79673 -56.463896 
L 209.040548 -56.467314 
L 210.284366 -56.462187 
L 211.528184 -56.467314 
L 212.772002 -56.465605 
L 214.01582 -56.465605 
L 215.259637 -56.463469 
L 216.503455 -56.462187 
L 217.747273 -56.463041 
L 218.991091 -56.463896 
L 220.234909 -56.464323 
L 221.478727 -56.460905 
L 222.722545 -56.467314 
L 223.966363 -56.463469 
L 225.21018 -56.461332 
L 226.453998 -56.46475 
L 227.697816 -56.460051 
L 228.941634 -56.461332 
L 230.185452 -56.465178 
L 231.42927 -56.464323 
L 232.673088 -56.482695 
L 233.916906 -56.486113 
L 235.160724 -56.50363 
L 236.404541 -56.500629 
L 237.648359 -56.512592 
L 238.892177 -56.504474 
L 240.135995 -56.492084 
L 241.379813 -56.502765 
L 242.623631 -56.507048 
L 243.867449 -56.523711 
L 245.111267 -56.498909 
L 246.355085 -56.516875 
L 247.598902 -56.502338 
L 248.84272 -56.529255 
L 250.086538 -56.523284 
L 251.330356 -56.521575 
L 252.574174 -56.506194 
L 253.817992 -56.506621 
L 255.06181 -56.513884 
L 256.305628 -56.513874 
L 257.549445 -56.570271 
L 258.793263 -56.571126 
L 260.037081 -56.588654 
L 261.280899 -56.599762 
L 262.524717 -56.616414 
L 263.768535 -56.684305 
L 265.012353 -56.645051 
L 266.256171 -56.752665 
L 267.499989 -56.909328 
L 268.743806 -57.005972 
L 269.987624 -57.226477 
L 271.231442 -57.74859 
L 272.47526 -57.946792 
L 273.719078 -57.955326 
L 274.962896 -57.300018 
L 276.206714 -57.531492 
L 277.450532 -57.367876 
L 278.69435 -58.020632 
L 279.938167 -57.409394 
L 281.181985 -57.542953 
L 282.425803 -57.846687 
L 283.669621 -58.525804 
L 284.913439 -58.250226 
L 286.157257 -58.319858 
L 287.401075 -57.857913 
L 288.644893 -57.986932 
L 289.88871 -58.668859 
L 291.132528 -58.039527 
L 292.376346 -58.180958 
L 293.620164 -58.210428 
L 294.863982 -58.480099 
L 296.1078 -58.205183 
L 297.351618 -58.580888 
L 298.595436 -58.195891 
L 299.839254 -58.771837 
L 301.083071 -58.423167 
L 302.326889 -58.432674 
L 303.570707 -57.992551 
L 304.814525 -58.468745 
L 306.058343 -57.897316 
L 307.302161 -58.32836 
L 308.545979 -58.292503 
L 309.789797 -58.205728 
L 311.033615 -58.639346 
L 312.277432 -58.688587 
L 313.52125 -58.027297 
L 314.765068 -58.558275 
L 316.008886 -58.737967 
L 317.252704 -58.780446 
L 318.496522 -58.246638 
L 319.74034 -58.220639 
L 320.984158 -58.542082 
L 322.227976 -58.494444 
L 323.471793 -58.307275 
L 324.715611 -58.497755 
L 325.959429 -58.604418 
L 327.203247 -58.841447 
L 327.203247 -59.967844 
L 327.203247 -59.967844 
L 325.959429 -59.724812 
L 324.715611 -59.652564 
L 323.471793 -59.421901 
L 322.227976 -59.58712 
L 320.984158 -59.573875 
L 319.74034 -59.402205 
L 318.496522 -59.357685 
L 317.252704 -59.746036 
L 316.008886 -59.781936 
L 314.765068 -59.652596 
L 313.52125 -59.212964 
L 312.277432 -59.738965 
L 311.033615 -59.716673 
L 309.789797 -59.350465 
L 308.545979 -59.380864 
L 307.302161 -59.470971 
L 306.058343 -59.135514 
L 304.814525 -59.623425 
L 303.570707 -59.240362 
L 302.326889 -59.572209 
L 301.083071 -59.573864 
L 299.839254 -59.811459 
L 298.595436 -59.36921 
L 297.351618 -59.698205 
L 296.1078 -59.375213 
L 294.863982 -59.596103 
L 293.620164 -59.482304 
L 292.376346 -59.355047 
L 291.132528 -59.292455 
L 289.88871 -59.663064 
L 288.644893 -59.138793 
L 287.401075 -58.956079 
L 286.157257 -59.341503 
L 284.913439 -59.318816 
L 283.669621 -59.383427 
L 282.425803 -58.837751 
L 281.181985 -58.52213 
L 279.938167 -58.337514 
L 278.69435 -58.822253 
L 277.450532 -58.250258 
L 276.206714 -58.31786 
L 274.962896 -58.195581 
L 273.719078 -58.711039 
L 272.47526 -58.686034 
L 271.231442 -58.52543 
L 269.987624 -57.992786 
L 268.743806 -57.711964 
L 267.499989 -57.415429 
L 266.256171 -57.068084 
L 265.012353 -56.855697 
L 263.768535 -56.893722 
L 262.524717 -56.78818 
L 261.280899 -56.7344 
L 260.037081 -56.713005 
L 258.793263 -56.668988 
L 257.549445 -56.64676 
L 256.305628 -56.579692 
L 255.06181 -56.571991 
L 253.817992 -56.557464 
L 252.574174 -56.555339 
L 251.330356 -56.589081 
L 250.086538 -56.595511 
L 248.84272 -56.59549 
L 247.598902 -56.553202 
L 246.355085 -56.573273 
L 245.111267 -56.55364 
L 243.867449 -56.563873 
L 242.623631 -56.54721 
L 241.379813 -56.541229 
L 240.135995 -56.537383 
L 238.892177 -56.549346 
L 237.648359 -56.556182 
L 236.404541 -56.54251 
L 235.160724 -56.543792 
L 233.916906 -56.52714 
L 232.673088 -56.519866 
L 231.42927 -56.486124 
L 230.185452 -56.479277 
L 228.941634 -56.467741 
L 227.697816 -56.466887 
L 226.453998 -56.470732 
L 225.21018 -56.466887 
L 223.966363 -56.46945 
L 222.722545 -56.474577 
L 221.478727 -56.467314 
L 220.234909 -56.472014 
L 218.991091 -56.471159 
L 217.747273 -56.471587 
L 216.503455 -56.46945 
L 215.259637 -56.471587 
L 214.01582 -56.472441 
L 212.772002 -56.472024 
L 211.528184 -56.475005 
L 210.284366 -56.469023 
L 209.040548 -56.472868 
L 207.79673 -56.470732 
L 206.552912 -56.473296 
L 205.309094 -56.475005 
L 204.065276 -56.46646 
L 202.821459 -56.47415 
L 201.577641 -56.475005 
L 200.333823 -56.471159 
L 199.090005 -56.471587 
L 197.846187 -56.468169 
L 196.602369 -56.479277 
L 195.358551 -56.478423 
L 194.114733 -56.477995 
L 192.870915 -56.475859 
L 191.627098 -56.48355 
L 190.38328 -56.477995 
L 189.139462 -56.474588 
L 187.895644 -56.475859 
L 186.651826 -56.478423 
L 185.408008 -56.475859 
L 184.16419 -56.479277 
L 182.920372 -56.479715 
L 181.676555 -56.484831 
L 180.432737 -56.475442 
L 179.188919 -56.478423 
L 177.945101 -56.47885 
L 176.701283 -56.486113 
L 175.457465 -56.483977 
L 174.213647 -56.480559 
L 172.969829 -56.482268 
L 171.726011 -56.486968 
L 170.482194 -56.488677 
L 169.238376 -56.481841 
L 167.994558 -56.486113 
L 166.75074 -56.479277 
L 165.506922 -56.485259 
L 164.263104 -56.494231 
L 163.019286 -56.495951 
L 161.775468 -56.490386 
L 160.53165 -56.490386 
L 159.287833 -56.488677 
L 158.044015 -56.49594 
L 156.800197 -56.485686 
L 155.556379 -56.498931 
L 154.312561 -56.49124 
L 153.068743 -56.493814 
L 151.824925 -56.492095 
L 150.581107 -56.492522 
L 149.33729 -56.491667 
L 148.093472 -56.507914 
L 146.849654 -56.499358 
L 145.605836 -56.49124 
L 144.362018 -56.506205 
L 143.1182 -56.507486 
L 141.874382 -56.50363 
L 140.630564 -56.506194 
L 139.386746 -56.510039 
L 138.142929 -56.511332 
L 136.899111 -56.525014 
L 135.655293 -56.510904 
L 134.411475 -56.515593 
L 133.167657 -56.514312 
L 131.923839 -56.515604 
L 130.680021 -56.516875 
L 129.436203 -56.538238 
L 128.192385 -56.533122 
L 126.948568 -56.554484 
L 125.70475 -56.53952 
L 124.460932 -56.534393 
L 123.217114 -56.53482 
L 121.973296 -56.545074 
L 120.729478 -56.549346 
L 119.48566 -56.561737 
L 118.241842 -56.563873 
L 116.998025 -56.643801 
L 115.754207 -56.585236 
L 114.510389 -56.604473 
L 113.266571 -56.621563 
L 112.022753 -56.642498 
L 110.778935 -56.555755 
L 109.535117 -56.611298 
L 108.291299 -56.652314 
L 107.047481 -56.670269 
L 105.803664 -56.674115 
L 104.559846 -56.755763 
L 103.316028 -56.631806 
L 102.07221 -56.632233 
L 100.828392 -56.636517 
L 99.584574 -56.754855 
L 98.340756 -56.680523 
L 97.096938 -56.75102 
L 95.85312 -56.61729 
L 94.609303 -56.817266 
L 93.365485 -56.686505 
L 92.121667 -57.090258 
L 90.877849 -56.98634 
L 89.634031 -56.685704 
L 88.390213 -56.683504 
L 87.146395 -56.685651 
L 85.902577 -57.136402 
L 84.658759 -56.718976 
L 83.414942 -56.688663 
L 82.171124 -56.558329 
L 80.927306 -56.530547 
L 79.683488 -56.456205 
z
" style="stroke: #6c3f70; stroke-opacity: 0.2"/>
    </defs>
    <g clip-path="url(#p6f018e86fd)">
     <use xlink:href="#mc20db63332" x="0" y="362.097812" style="fill: #6c3f70; fill-opacity: 0.2; stroke: #6c3f70; stroke-opacity: 0.2"/>
    </g>
   </g>
   <g id="PolyCollection_5">
    <defs>
     <path id="mab4ca9fd6a" d="M 79.683488 -56.457071 
L 79.683488 -56.451933 
L 80.927306 -56.460467 
L 82.171124 -56.46176 
L 83.414942 -56.485686 
L 84.658759 -56.496367 
L 85.902577 -56.539936 
L 87.146395 -56.526702 
L 88.390213 -56.548054 
L 89.634031 -56.554879 
L 90.877849 -56.569406 
L 92.121667 -56.535664 
L 93.365485 -56.567291 
L 94.609303 -56.562591 
L 95.85312 -56.585236 
L 97.096938 -56.582245 
L 98.340756 -56.557881 
L 99.584574 -56.589925 
L 100.828392 -56.617269 
L 102.07221 -56.611287 
L 103.316028 -56.608297 
L 104.559846 -56.651022 
L 105.803664 -56.629648 
L 107.047481 -56.74114 
L 108.291299 -56.974003 
L 109.535117 -56.736899 
L 110.778935 -56.874015 
L 112.022753 -56.975669 
L 113.266571 -56.978297 
L 114.510389 -57.006891 
L 115.754207 -56.961613 
L 116.998025 -56.9633 
L 118.241842 -56.894139 
L 119.48566 -56.81968 
L 120.729478 -56.806969 
L 121.973296 -56.80996 
L 123.217114 -56.919293 
L 124.460932 -56.897044 
L 125.70475 -56.872755 
L 126.948568 -56.865054 
L 128.192385 -56.757824 
L 129.436203 -56.827893 
L 130.680021 -56.891575 
L 131.923839 -56.965426 
L 133.167657 -56.799289 
L 134.411475 -56.855686 
L 135.655293 -56.932592 
L 136.899111 -56.839429 
L 138.142929 -56.813805 
L 139.386746 -56.766337 
L 140.630564 -56.823632 
L 141.874382 -56.821912 
L 143.1182 -56.895848 
L 144.362018 -56.948261 
L 145.605836 -56.977421 
L 146.849654 -56.921451 
L 148.093472 -56.922765 
L 149.33729 -56.975723 
L 150.581107 -56.935999 
L 151.824925 -56.975723 
L 153.068743 -57.106804 
L 154.312561 -56.922722 
L 155.556379 -56.927005 
L 156.800197 -56.87315 
L 158.044015 -57.02271 
L 159.287833 -57.044521 
L 160.53165 -56.94151 
L 161.775468 -56.930744 
L 163.019286 -56.833875 
L 164.263104 -56.973608 
L 165.506922 -56.967626 
L 166.75074 -57.007777 
L 167.994558 -56.981266 
L 169.238376 -57.009444 
L 170.482194 -57.093185 
L 171.726011 -56.953911 
L 172.969829 -56.998794 
L 174.213647 -56.894128 
L 175.457465 -57.081681 
L 176.701283 -57.065873 
L 177.945101 -56.927027 
L 179.188919 -56.967616 
L 180.432737 -56.831739 
L 181.676555 -56.994949 
L 182.920372 -56.99152 
L 184.16419 -56.783053 
L 185.408008 -57.011601 
L 186.651826 -56.969752 
L 187.895644 -56.973586 
L 189.139462 -57.093228 
L 190.38328 -57.123029 
L 191.627098 -57.173957 
L 192.870915 -56.928287 
L 194.114733 -57.146634 
L 195.358551 -57.078263 
L 196.602369 -57.261554 
L 197.846187 -57.020969 
L 199.090005 -57.335886 
L 200.333823 -57.151761 
L 201.577641 -57.174363 
L 202.821459 -57.124738 
L 204.065276 -57.260711 
L 205.309094 -57.175217 
L 206.552912 -57.023073 
L 207.79673 -57.125667 
L 209.040548 -57.091935 
L 210.284366 -57.165444 
L 211.528184 -57.224394 
L 212.772002 -57.304717 
L 214.01582 -57.306426 
L 215.259637 -57.333739 
L 216.503455 -57.320099 
L 217.747273 -57.018886 
L 218.991091 -57.085046 
L 220.234909 -57.249591 
L 221.478727 -57.111162 
L 222.722545 -57.25772 
L 223.966363 -57.063715 
L 225.21018 -57.10299 
L 226.453998 -56.878736 
L 227.697816 -57.364084 
L 228.941634 -57.442282 
L 230.185452 -57.187661 
L 231.42927 -57.1867 
L 232.673088 -57.218808 
L 233.916906 -57.216255 
L 235.160724 -56.997011 
L 236.404541 -57.100438 
L 237.648359 -57.20175 
L 238.892177 -57.375577 
L 240.135995 -57.179073 
L 241.379813 -57.212848 
L 242.623631 -57.266243 
L 243.867449 -57.210637 
L 245.111267 -57.369243 
L 246.355085 -57.370482 
L 247.598902 -57.033402 
L 248.84272 -57.297411 
L 250.086538 -57.139766 
L 251.330356 -57.25428 
L 252.574174 -57.131093 
L 253.817992 -57.239337 
L 255.06181 -57.198738 
L 256.305628 -56.967851 
L 257.549445 -57.333781 
L 258.793263 -57.031682 
L 260.037081 -57.301727 
L 261.280899 -57.496511 
L 262.524717 -57.317012 
L 263.768535 -57.25161 
L 265.012353 -57.138506 
L 266.256171 -57.172227 
L 267.499989 -57.155137 
L 268.743806 -57.311991 
L 269.987624 -57.01236 
L 271.231442 -57.174384 
L 272.47526 -57.444002 
L 273.719078 -57.221382 
L 274.962896 -57.344014 
L 276.206714 -57.140236 
L 277.450532 -57.355112 
L 278.69435 -56.903047 
L 279.938167 -57.185503 
L 281.181985 -57.191891 
L 282.425803 -57.314117 
L 283.669621 -57.205606 
L 284.913439 -57.04153 
L 286.157257 -57.429486 
L 287.401075 -57.095738 
L 288.644893 -57.021449 
L 289.88871 -57.234178 
L 291.132528 -57.199592 
L 292.376346 -57.224715 
L 293.620164 -57.084661 
L 294.863982 -57.10392 
L 296.1078 -57.064762 
L 297.351618 -57.147873 
L 298.595436 -57.288055 
L 299.839254 -57.012477 
L 301.083071 -57.223091 
L 302.326889 -57.158181 
L 303.570707 -57.285886 
L 304.814525 -57.023158 
L 306.058343 -57.139371 
L 307.302161 -57.328473 
L 308.545979 -57.312408 
L 309.789797 -57.240138 
L 311.033615 -57.20897 
L 312.277432 -57.376464 
L 313.52125 -57.17902 
L 314.765068 -57.030336 
L 316.008886 -57.207592 
L 317.252704 -57.387156 
L 318.496522 -57.126457 
L 319.74034 -57.356767 
L 320.984158 -57.226466 
L 322.227976 -57.444856 
L 323.471793 -57.112454 
L 324.715611 -57.238387 
L 325.959429 -57.186208 
L 327.203247 -57.142372 
L 327.203247 -57.600397 
L 327.203247 -57.600397 
L 325.959429 -57.624793 
L 324.715611 -57.65766 
L 323.471793 -57.580765 
L 322.227976 -57.793943 
L 320.984158 -57.65766 
L 319.74034 -57.755575 
L 318.496522 -57.588862 
L 317.252704 -57.765776 
L 316.008886 -57.66237 
L 314.765068 -57.487624 
L 313.52125 -57.635902 
L 312.277432 -57.745225 
L 311.033615 -57.635859 
L 309.789797 -57.656901 
L 308.545979 -57.69529 
L 307.302161 -57.709485 
L 306.058343 -57.583756 
L 304.814525 -57.47957 
L 303.570707 -57.682857 
L 302.326889 -57.554713 
L 301.083071 -57.611111 
L 299.839254 -57.459842 
L 298.595436 -57.658098 
L 297.351618 -57.58116 
L 296.1078 -57.517948 
L 294.863982 -57.518408 
L 293.620164 -57.488874 
L 292.376346 -57.604285 
L 291.132528 -57.602961 
L 289.88871 -57.63461 
L 288.644893 -57.481215 
L 287.401075 -57.533308 
L 286.157257 -57.751666 
L 284.913439 -57.478331 
L 283.669621 -57.613696 
L 282.425803 -57.684139 
L 281.181985 -57.607223 
L 279.938167 -57.589716 
L 278.69435 -57.371828 
L 277.450532 -57.69482 
L 276.206714 -57.553421 
L 274.962896 -57.687984 
L 273.719078 -57.610747 
L 272.47526 -57.713181 
L 271.231442 -57.553432 
L 269.987624 -57.428279 
L 268.743806 -57.650429 
L 267.499989 -57.550847 
L 266.256171 -57.581171 
L 265.012353 -57.53804 
L 263.768535 -57.628596 
L 262.524717 -57.685431 
L 261.280899 -57.745663 
L 260.037081 -57.65296 
L 258.793263 -57.463281 
L 257.549445 -57.661056 
L 256.305628 -57.38173 
L 255.06181 -57.566239 
L 253.817992 -57.612029 
L 252.574174 -57.548283 
L 251.330356 -57.613674 
L 250.086538 -57.538019 
L 248.84272 -57.647854 
L 247.598902 -57.45385 
L 246.355085 -57.665788 
L 245.111267 -57.661932 
L 243.867449 -57.569229 
L 242.623631 -57.618342 
L 241.379813 -57.607223 
L 240.135995 -57.555952 
L 238.892177 -57.655961 
L 237.648359 -57.557683 
L 236.404541 -57.492783 
L 235.160724 -57.39318 
L 233.916906 -57.568781 
L 232.673088 -57.570629 
L 231.42927 -57.537153 
L 230.185452 -57.542302 
L 228.941634 -57.656805 
L 227.697816 -57.642279 
L 226.453998 -57.284273 
L 225.21018 -57.564967 
L 223.966363 -57.502984 
L 222.722545 -57.687995 
L 221.478727 -57.493606 
L 220.234909 -57.574762 
L 218.991091 -57.464125 
L 217.747273 -57.394932 
L 216.503455 -57.620948 
L 215.259637 -57.614913 
L 214.01582 -57.600846 
L 212.772002 -57.58257 
L 211.528184 -57.536726 
L 210.284366 -57.505622 
L 209.040548 -57.482914 
L 207.79673 -57.498327 
L 206.552912 -57.443596 
L 205.309094 -57.544011 
L 204.065276 -57.571793 
L 202.821459 -57.480425 
L 201.577641 -57.500025 
L 200.333823 -57.491074 
L 199.090005 -57.600835 
L 197.846187 -57.396224 
L 196.602369 -57.533746 
L 195.358551 -57.430778 
L 194.114733 -57.470085 
L 192.870915 -57.273165 
L 191.627098 -57.479496 
L 190.38328 -57.425694 
L 189.139462 -57.366701 
L 187.895644 -57.245767 
L 186.651826 -57.236368 
L 185.408008 -57.267995 
L 184.16419 -57.069323 
L 182.920372 -57.224864 
L 181.676555 -57.220132 
L 180.432737 -57.109495 
L 179.188919 -57.227406 
L 177.945101 -57.191944 
L 176.701283 -57.424391 
L 175.457465 -57.268444 
L 174.213647 -57.158202 
L 172.969829 -57.233377 
L 171.726011 -57.212089 
L 170.482194 -57.28124 
L 169.238376 -57.228699 
L 167.994558 -57.207785 
L 166.75074 -57.23766 
L 165.506922 -57.191944 
L 164.263104 -57.202636 
L 163.019286 -57.115488 
L 161.775468 -57.17745 
L 160.53165 -57.179992 
L 159.287833 -57.243631 
L 158.044015 -57.256021 
L 156.800197 -57.149668 
L 155.556379 -57.200927 
L 154.312561 -57.186828 
L 153.068743 -57.291494 
L 151.824925 -57.223561 
L 150.581107 -57.173989 
L 149.33729 -57.209045 
L 148.093472 -57.173583 
L 146.849654 -57.166747 
L 145.605836 -57.190225 
L 144.362018 -57.159046 
L 143.1182 -57.139424 
L 141.874382 -57.04843 
L 140.630564 -57.064217 
L 139.386746 -57.015927 
L 138.142929 -57.05564 
L 136.899111 -57.09154 
L 135.655293 -57.172707 
L 134.411475 -57.130014 
L 133.167657 -57.079577 
L 131.923839 -57.2052 
L 130.680021 -57.161609 
L 129.436203 -57.080912 
L 128.192385 -57.009924 
L 126.948568 -57.147499 
L 125.70475 -57.193749 
L 124.460932 -57.230514 
L 123.217114 -57.240224 
L 121.973296 -57.1044 
L 120.729478 -57.142842 
L 119.48566 -57.149208 
L 118.241842 -57.177407 
L 116.998025 -57.256481 
L 115.754207 -57.240651 
L 114.510389 -57.304333 
L 113.266571 -57.256021 
L 112.022753 -57.252625 
L 110.778935 -57.155628 
L 109.535117 -57.044542 
L 108.291299 -57.225291 
L 107.047481 -57.022827 
L 105.803664 -56.874528 
L 104.559846 -56.853123 
L 103.316028 -56.763848 
L 102.07221 -56.754032 
L 100.828392 -56.758273 
L 99.584574 -56.681805 
L 98.340756 -56.654034 
L 97.096938 -56.671551 
L 95.85312 -56.660432 
L 94.609303 -56.64206 
L 93.365485 -56.641227 
L 92.121667 -56.607025 
L 90.877849 -56.640362 
L 89.634031 -56.620708 
L 88.390213 -56.616008 
L 87.146395 -56.594646 
L 85.902577 -56.601493 
L 84.658759 -56.55065 
L 83.414942 -56.534403 
L 82.171124 -56.489958 
L 80.927306 -56.473296 
L 79.683488 -56.457071 
z
" style="stroke: #2d1e3e; stroke-opacity: 0.2"/>
    </defs>
    <g clip-path="url(#p6f018e86fd)">
     <use xlink:href="#mab4ca9fd6a" x="0" y="362.097812" style="fill: #2d1e3e; fill-opacity: 0.2; stroke: #2d1e3e; stroke-opacity: 0.2"/>
    </g>
   </g>
   <g id="line2d_15">
    <path d="M 79.683488 305.637335 
L 80.927306 305.575383 
L 82.171124 305.352357 
L 83.414942 305.474979 
L 84.658759 305.223754 
L 88.390213 305.338685 
L 89.634031 304.869135 
L 90.877849 305.324159 
L 94.609303 305.032346 
L 95.85312 305.279297 
L 97.096938 305.286133 
L 98.340756 305.12805 
L 99.584574 304.827692 
L 100.828392 304.958858 
L 102.07221 304.831964 
L 103.316028 304.859736 
L 105.803664 305.275879 
L 107.047481 305.245117 
L 108.291299 305.013546 
L 109.535117 305.069089 
L 110.778935 305.270325 
L 113.266571 305.394228 
L 115.754207 305.141295 
L 118.241842 305.172484 
L 120.729478 305.035764 
L 121.973296 305.33954 
L 123.217114 304.943904 
L 124.460932 305.276734 
L 126.948568 305.304078 
L 128.192385 305.290833 
L 129.436203 305.164366 
L 130.680021 305.321168 
L 131.923839 305.2323 
L 134.411475 305.306641 
L 136.899111 305.173766 
L 138.142929 305.33954 
L 140.630564 305.420718 
L 143.1182 305.11096 
L 144.362018 305.390383 
L 145.605836 305.238281 
L 149.33729 305.451053 
L 150.581107 305.329286 
L 151.824925 305.346803 
L 153.068743 305.17462 
L 154.312561 305.154967 
L 155.556379 305.371584 
L 156.800197 305.304078 
L 159.287833 305.422427 
L 160.53165 305.207946 
L 161.775468 305.148985 
L 163.019286 305.353212 
L 166.75074 305.359621 
L 169.238376 305.407473 
L 170.482194 305.349794 
L 175.457465 305.548466 
L 177.945101 305.45917 
L 180.432737 305.559575 
L 189.139462 305.574101 
L 223.966363 305.516849 
L 226.453998 305.254089 
L 228.941634 301.891615 
L 230.185452 300.792295 
L 231.42927 300.466302 
L 232.673088 300.459466 
L 233.916906 302.018936 
L 235.160724 301.134952 
L 236.404541 298.725677 
L 237.648359 300.614131 
L 238.892177 299.40928 
L 240.135995 299.785689 
L 241.379813 298.719268 
L 242.623631 299.795089 
L 243.867449 298.99271 
L 245.111267 298.707732 
L 247.598902 300.258658 
L 248.84272 298.517178 
L 250.086538 299.043125 
L 251.330356 299.101659 
L 252.574174 298.365076 
L 253.817992 297.769487 
L 256.305628 299.218726 
L 257.549445 298.51376 
L 258.793263 298.75003 
L 260.037081 298.21981 
L 262.524717 294.886817 
L 263.768535 299.741255 
L 265.012353 297.300791 
L 266.256171 297.761369 
L 267.499989 296.623169 
L 268.743806 299.048252 
L 271.231442 297.990376 
L 272.47526 297.795122 
L 273.719078 296.104912 
L 274.962896 296.424924 
L 276.206714 297.021796 
L 277.450532 295.09147 
L 278.69435 296.938481 
L 279.938167 296.313412 
L 281.181985 295.4196 
L 282.425803 296.292476 
L 283.669621 295.612718 
L 284.913439 295.227337 
L 286.157257 295.078653 
L 287.401075 297.697281 
L 288.644893 299.428507 
L 289.88871 294.54117 
L 291.132528 296.961126 
L 292.376346 295.80669 
L 293.620164 296.137384 
L 294.863982 297.497754 
L 296.1078 296.601807 
L 297.351618 296.3728 
L 299.839254 295.315351 
L 301.083071 298.225365 
L 302.326889 296.930791 
L 303.570707 299.205481 
L 304.814525 297.351207 
L 306.058343 297.425976 
L 307.302161 296.183954 
L 308.545979 299.536174 
L 309.789797 296.943608 
L 311.033615 297.086738 
L 312.277432 296.747927 
L 313.52125 295.935721 
L 314.765068 296.944036 
L 316.008886 296.300167 
L 317.252704 295.327314 
L 318.496522 295.934866 
L 319.74034 297.480664 
L 320.984158 295.501205 
L 322.227976 295.568284 
L 323.471793 295.99639 
L 324.715611 295.373457 
L 325.959429 296.860294 
L 327.203247 296.967107 
L 327.203247 296.967107 
" clip-path="url(#p6f018e86fd)" style="fill: none; stroke: #edd1cb; stroke-width: 1.5; stroke-linecap: round"/>
   </g>
   <g id="line2d_16">
    <path d="M 79.683488 305.638616 
L 80.927306 305.435672 
L 82.171124 304.784112 
L 83.414942 304.392749 
L 84.658759 304.133407 
L 85.902577 303.644631 
L 88.390213 300.617977 
L 89.634031 299.349465 
L 90.877849 300.757688 
L 92.121667 298.32406 
L 93.365485 298.386439 
L 94.609303 297.913898 
L 95.85312 298.724395 
L 97.096938 298.869661 
L 98.340756 298.789765 
L 99.584574 299.12473 
L 102.07221 298.972201 
L 103.316028 297.13459 
L 104.559846 297.700272 
L 107.047481 299.406717 
L 108.291299 298.295434 
L 109.535117 297.519117 
L 110.778935 300.149281 
L 113.266571 298.242455 
L 114.510389 299.018772 
L 115.754207 298.685943 
L 116.998025 299.190955 
L 118.241842 298.380457 
L 119.48566 298.988864 
L 120.729478 298.812409 
L 121.973296 299.886094 
L 123.217114 298.227074 
L 124.460932 299.555401 
L 125.70475 298.91025 
L 126.948568 297.993367 
L 128.192385 296.612915 
L 129.436203 299.126867 
L 130.680021 299.391763 
L 131.923839 297.667801 
L 133.167657 299.039707 
L 134.411475 298.400111 
L 135.655293 298.70346 
L 136.899111 299.98308 
L 138.142929 299.9395 
L 139.386746 298.111716 
L 140.630564 298.256981 
L 141.874382 297.466138 
L 143.1182 297.387951 
L 144.362018 296.079705 
L 145.605836 295.674242 
L 146.849654 296.045952 
L 148.093472 294.132289 
L 149.33729 293.190199 
L 150.581107 292.985972 
L 151.824925 296.826114 
L 153.068743 297.499036 
L 154.312561 295.215374 
L 155.556379 297.388378 
L 156.800197 293.938744 
L 158.044015 293.873802 
L 159.287833 295.349958 
L 160.53165 295.293561 
L 161.775468 291.564931 
L 163.019286 294.642428 
L 164.263104 292.861642 
L 165.506922 289.343648 
L 166.75074 290.014434 
L 167.994558 293.853294 
L 169.238376 291.526052 
L 170.482194 290.519018 
L 171.726011 292.586064 
L 172.969829 289.827724 
L 174.213647 289.977263 
L 175.457465 288.367804 
L 176.701283 286.1807 
L 177.945101 289.050553 
L 179.188919 287.512445 
L 180.432737 288.657481 
L 181.676555 287.57696 
L 182.920372 289.11635 
L 184.16419 290.154145 
L 185.408008 291.59783 
L 186.651826 289.535057 
L 187.895644 289.516685 
L 189.139462 289.219745 
L 190.38328 287.74487 
L 191.627098 284.821184 
L 192.870915 288.266545 
L 194.114733 287.471002 
L 195.358551 287.901672 
L 196.602369 290.384007 
L 197.846187 287.621394 
L 199.090005 289.230853 
L 200.333823 287.014269 
L 201.577641 287.362052 
L 202.821459 285.354395 
L 204.065276 285.77652 
L 205.309094 283.507811 
L 206.552912 291.799493 
L 207.79673 291.35686 
L 209.040548 287.601741 
L 210.284366 291.8482 
L 211.528184 291.931087 
L 212.772002 284.981404 
L 214.01582 289.028763 
L 215.259637 283.040397 
L 216.503455 282.076089 
L 217.747273 288.166141 
L 218.991091 283.120293 
L 220.234909 281.785558 
L 221.478727 282.744311 
L 222.722545 280.142346 
L 223.966363 279.564701 
L 225.21018 281.72617 
L 226.453998 280.696492 
L 227.697816 279.95051 
L 228.941634 280.229505 
L 230.185452 277.747171 
L 231.42927 281.288236 
L 232.673088 278.775994 
L 233.916906 277.611732 
L 235.160724 283.980352 
L 236.404541 277.304965 
L 237.648359 275.437018 
L 238.892177 274.691463 
L 240.135995 282.00602 
L 241.379813 277.300265 
L 242.623631 270.286067 
L 243.867449 273.837386 
L 246.355085 276.849087 
L 247.598902 277.852275 
L 248.84272 278.29619 
L 251.330356 271.507581 
L 252.574174 270.400143 
L 253.817992 274.483819 
L 255.06181 273.739118 
L 256.305628 258.287973 
L 257.549445 265.742668 
L 258.793263 260.347755 
L 260.037081 263.492331 
L 261.280899 263.864895 
L 262.524717 265.808892 
L 263.768535 262.013184 
L 265.012353 251.08023 
L 266.256171 250.336384 
L 267.499989 227.065242 
L 268.743806 171.468206 
L 269.987624 125.29336 
L 271.231442 136.414733 
L 272.47526 101.042957 
L 273.719078 112.842806 
L 274.962896 146.953761 
L 276.206714 119.527166 
L 277.450532 103.455223 
L 278.69435 109.33763 
L 279.938167 111.593521 
L 281.181985 122.35472 
L 282.425803 113.194862 
L 283.669621 112.798799 
L 284.913439 75.963258 
L 286.157257 120.404741 
L 287.401075 94.3069 
L 288.644893 109.560655 
L 289.88871 126.408915 
L 291.132528 76.7729 
L 292.376346 130.076448 
L 294.863982 91.845501 
L 296.1078 101.219412 
L 297.351618 94.394914 
L 298.595436 75.596248 
L 299.839254 110.615114 
L 301.083071 138.04 
L 302.326889 101.611202 
L 303.570707 85.630691 
L 304.814525 100.432414 
L 306.058343 92.930294 
L 307.302161 72.564467 
L 308.545979 93.060178 
L 309.789797 76.148258 
L 311.033615 130.768596 
L 312.277432 138.826571 
L 313.52125 91.911298 
L 314.765068 91.840374 
L 316.008886 135.900749 
L 317.252704 111.685807 
L 318.496522 100.777634 
L 319.74034 101.550533 
L 320.984158 80.97877 
L 322.227976 125.272852 
L 323.471793 116.391989 
L 324.715611 84.08532 
L 325.959429 118.145432 
L 327.203247 89.95961 
L 327.203247 89.95961 
" clip-path="url(#p6f018e86fd)" style="fill: none; stroke: #d499a7; stroke-width: 1.5; stroke-linecap: round"/>
   </g>
   <g id="line2d_17">
    <path d="M 79.683488 305.643743 
L 84.658759 305.530949 
L 93.365485 305.177611 
L 94.609303 305.08148 
L 97.096938 305.160948 
L 98.340756 304.936641 
L 99.584574 305.071653 
L 100.828392 305.077634 
L 103.316028 304.664054 
L 104.559846 304.279527 
L 105.803664 304.078719 
L 107.047481 304.330798 
L 108.291299 304.376941 
L 109.535117 304.197495 
L 110.778935 304.221848 
L 112.022753 303.596778 
L 114.510389 304.304308 
L 115.754207 303.83134 
L 116.998025 304.24492 
L 118.241842 303.75358 
L 119.48566 303.584815 
L 120.729478 303.574989 
L 121.973296 303.23276 
L 123.217114 303.190034 
L 124.460932 302.800808 
L 125.70475 302.812344 
L 126.948568 303.014861 
L 128.192385 303.373326 
L 130.680021 303.552771 
L 131.923839 303.980451 
L 133.167657 302.698267 
L 134.411475 302.981535 
L 135.655293 302.828152 
L 138.142929 302.947355 
L 139.386746 303.601905 
L 140.630564 302.87045 
L 141.874382 303.729227 
L 143.1182 303.829631 
L 144.362018 303.36179 
L 145.605836 303.019988 
L 146.849654 303.059295 
L 148.093472 302.885831 
L 150.581107 303.686501 
L 154.312561 302.041581 
L 155.556379 302.425253 
L 156.800197 303.250277 
L 158.044015 302.82217 
L 159.287833 302.659814 
L 160.53165 302.987517 
L 161.775468 302.959318 
L 164.263104 302.077043 
L 165.506922 302.685022 
L 169.238376 302.266315 
L 170.482194 302.393209 
L 171.726011 302.249225 
L 172.969829 303.295993 
L 174.213647 302.370565 
L 175.457465 302.794399 
L 176.701283 302.31075 
L 177.945101 302.817898 
L 179.188919 302.812771 
L 180.432737 301.890761 
L 181.676555 302.648279 
L 185.408008 302.738856 
L 186.651826 303.207979 
L 187.895644 302.357747 
L 189.139462 302.954618 
L 191.627098 302.605553 
L 192.870915 302.174029 
L 194.114733 303.497229 
L 195.358551 302.332539 
L 199.090005 302.762355 
L 200.333823 302.199237 
L 201.577641 302.347066 
L 202.821459 302.656396 
L 204.065276 302.740992 
L 205.309094 302.035172 
L 206.552912 302.264179 
L 207.79673 301.844617 
L 209.040548 303.149445 
L 210.284366 302.164202 
L 211.528184 302.54232 
L 212.772002 302.46456 
L 214.01582 302.561119 
L 215.259637 302.779445 
L 218.991091 302.274433 
L 220.234909 303.557471 
L 221.478727 302.435507 
L 222.722545 302.394064 
L 223.966363 301.897597 
L 226.453998 302.528648 
L 227.697816 302.3868 
L 228.941634 301.898451 
L 230.185452 301.545541 
L 231.42927 302.160357 
L 232.673088 302.27956 
L 233.916906 301.355841 
L 235.160724 302.470115 
L 236.404541 302.455588 
L 238.892177 301.86598 
L 240.135995 302.040726 
L 241.379813 302.494468 
L 242.623631 302.031327 
L 243.867449 302.591027 
L 246.355085 301.682689 
L 247.598902 302.604272 
L 248.84272 303.067413 
L 250.086538 301.694225 
L 251.330356 301.684398 
L 252.574174 301.883925 
L 253.817992 303.41776 
L 255.06181 302.330403 
L 256.305628 303.234896 
L 257.549445 302.62948 
L 258.793263 301.692088 
L 260.037081 302.379537 
L 261.280899 302.776882 
L 262.524717 302.839688 
L 263.768535 303.079376 
L 266.256171 301.535287 
L 267.499989 302.075761 
L 268.743806 303.101166 
L 269.987624 302.458579 
L 271.231442 301.952285 
L 272.47526 302.783718 
L 273.719078 303.390416 
L 274.962896 303.05545 
L 276.206714 301.837781 
L 277.450532 302.294514 
L 278.69435 302.136858 
L 279.938167 301.767285 
L 281.181985 302.634179 
L 282.425803 302.109941 
L 283.669621 302.202655 
L 284.913439 302.494041 
L 286.157257 303.143891 
L 287.401075 302.30605 
L 288.644893 302.174456 
L 289.88871 302.350484 
L 291.132528 303.027679 
L 292.376346 302.510276 
L 293.620164 302.52053 
L 294.863982 302.208209 
L 296.1078 302.52993 
L 297.351618 302.042862 
L 298.595436 303.122956 
L 299.839254 302.767909 
L 301.083071 300.983704 
L 302.326889 300.26293 
L 303.570707 298.546231 
L 304.814525 293.485002 
L 306.058343 293.125683 
L 307.302161 286.003818 
L 308.545979 286.596417 
L 309.789797 282.440962 
L 312.277432 285.64749 
L 313.52125 279.413027 
L 314.765068 280.569171 
L 316.008886 276.59829 
L 317.252704 272.142905 
L 318.496522 275.039247 
L 319.74034 273.217444 
L 320.984158 278.456836 
L 322.227976 271.795549 
L 323.471793 280.388443 
L 324.715611 275.888197 
L 325.959429 274.819639 
L 327.203247 281.551851 
L 327.203247 281.551851 
" clip-path="url(#p6f018e86fd)" style="fill: none; stroke: #a9678f; stroke-width: 1.5; stroke-linecap: round"/>
   </g>
   <g id="line2d_18">
    <path d="M 79.683488 305.644171 
L 84.658759 305.458316 
L 85.902577 305.285279 
L 87.146395 305.467715 
L 90.877849 305.363466 
L 92.121667 305.325868 
L 93.365485 305.467715 
L 94.609303 305.413454 
L 95.85312 305.519413 
L 97.096938 305.438235 
L 102.07221 305.506595 
L 129.436203 305.575383 
L 138.142929 305.598027 
L 261.280899 305.432681 
L 266.256171 305.202819 
L 269.987624 304.491017 
L 271.231442 303.93089 
L 273.719078 303.739481 
L 274.962896 304.354724 
L 276.206714 304.189377 
L 277.450532 304.308153 
L 278.69435 303.647194 
L 279.938167 304.199204 
L 281.181985 304.043257 
L 282.425803 303.711282 
L 283.669621 303.117829 
L 284.913439 303.300693 
L 286.157257 303.255404 
L 287.401075 303.67582 
L 288.644893 303.499792 
L 289.88871 302.923856 
L 291.132528 303.424169 
L 294.863982 303.06015 
L 296.1078 303.283603 
L 297.351618 302.946073 
L 298.595436 303.320346 
L 299.839254 302.750819 
L 301.083071 303.076385 
L 302.326889 303.083221 
L 303.570707 303.457921 
L 304.814525 303.014007 
L 306.058343 303.540381 
L 307.302161 303.186189 
L 309.789797 303.314792 
L 311.033615 302.883695 
L 312.277432 302.876859 
L 313.52125 303.45664 
L 314.765068 302.983672 
L 316.008886 302.796962 
L 317.252704 302.826443 
L 318.496522 303.290439 
L 319.74034 303.282321 
L 320.984158 303.005034 
L 322.227976 303.02896 
L 323.471793 303.220797 
L 324.715611 302.999907 
L 325.959429 302.906766 
L 327.203247 302.682459 
L 327.203247 302.682459 
" clip-path="url(#p6f018e86fd)" style="fill: none; stroke: #6c3f70; stroke-width: 1.5; stroke-linecap: round"/>
   </g>
   <g id="line2d_19">
    <path d="M 79.683488 305.643743 
L 105.803664 305.349367 
L 108.291299 305.006283 
L 109.535117 305.210082 
L 112.022753 304.98193 
L 118.241842 305.05969 
L 121.973296 305.140013 
L 123.217114 305.013119 
L 126.948568 305.097715 
L 128.192385 305.223754 
L 131.923839 305.01141 
L 133.167657 305.152831 
L 136.899111 305.126341 
L 140.630564 305.155821 
L 143.1182 305.074216 
L 149.33729 304.991757 
L 151.824925 304.999874 
L 153.068743 304.893061 
L 154.312561 305.033627 
L 161.775468 305.036618 
L 163.019286 305.120359 
L 164.263104 305.010128 
L 169.238376 304.977657 
L 170.482194 304.901179 
L 171.726011 305.009701 
L 172.969829 304.969539 
L 174.213647 305.071653 
L 175.457465 304.914424 
L 176.701283 304.870844 
L 177.945101 305.034909 
L 179.188919 304.994747 
L 180.432737 305.11865 
L 181.676555 304.984921 
L 182.920372 304.979794 
L 184.16419 305.164794 
L 185.408008 304.949886 
L 187.895644 304.992184 
L 190.38328 304.818719 
L 191.627098 304.762749 
L 192.870915 304.99902 
L 194.114733 304.778131 
L 195.358551 304.840082 
L 196.602369 304.688408 
L 197.846187 304.876398 
L 199.090005 304.618338 
L 200.333823 304.764031 
L 205.309094 304.730706 
L 206.552912 304.849909 
L 210.284366 304.756341 
L 216.503455 304.618338 
L 217.747273 304.884944 
L 220.234909 304.668327 
L 221.478727 304.790948 
L 222.722545 304.624747 
L 223.966363 304.820001 
L 225.21018 304.780694 
L 226.453998 305.006283 
L 227.697816 304.575613 
L 228.941634 304.539297 
L 230.185452 304.717461 
L 236.404541 304.795221 
L 238.892177 304.571768 
L 240.135995 304.72686 
L 242.623631 304.642692 
L 243.867449 304.70208 
L 245.111267 304.567922 
L 246.355085 304.569631 
L 247.598902 304.840937 
L 248.84272 304.608084 
L 250.086538 304.74865 
L 251.330356 304.646964 
L 252.574174 304.752068 
L 253.817992 304.6632 
L 255.06181 304.704643 
L 256.305628 304.922969 
L 257.549445 304.588003 
L 258.793263 304.832819 
L 261.280899 304.462818 
L 265.012353 304.758477 
L 268.743806 304.604666 
L 269.987624 304.881953 
L 272.47526 304.503835 
L 273.719078 304.667045 
L 274.962896 304.578177 
L 276.206714 304.746514 
L 277.450532 304.543142 
L 278.69435 304.962703 
L 279.938167 304.705498 
L 283.669621 304.683281 
L 284.913439 304.834101 
L 286.157257 304.500417 
L 287.401075 304.781549 
L 288.644893 304.863581 
L 289.88871 304.657645 
L 296.1078 304.802057 
L 298.595436 304.617484 
L 299.839254 304.854181 
L 301.083071 304.668327 
L 302.326889 304.725578 
L 303.570707 304.598257 
L 304.814525 304.834528 
L 308.545979 304.575186 
L 311.033615 304.668754 
L 312.277432 304.531179 
L 314.765068 304.837519 
L 317.252704 304.510671 
L 318.496522 304.726433 
L 319.74034 304.532461 
L 320.984158 304.652946 
L 322.227976 304.462391 
L 323.471793 304.740105 
L 324.715611 304.642692 
L 327.203247 304.71917 
L 327.203247 304.71917 
" clip-path="url(#p6f018e86fd)" style="fill: none; stroke: #2d1e3e; stroke-width: 1.5; stroke-linecap: round"/>
   </g>
   <g id="line2d_20"/>
   <g id="line2d_21"/>
   <g id="line2d_22"/>
   <g id="line2d_23"/>
   <g id="line2d_24"/>
   <g id="patch_3">
    <path d="M 67.3075 319.138125 
L 67.3075 22.318125 
" style="fill: none; stroke: #ffffff; stroke-width: 1.25; stroke-linejoin: miter; stroke-linecap: square"/>
   </g>
   <g id="patch_4">
    <path d="M 67.3075 319.138125 
L 339.579235 319.138125 
" style="fill: none; stroke: #ffffff; stroke-width: 1.25; stroke-linejoin: miter; stroke-linecap: square"/>
   </g>
   <g id="text_17">
    <!-- Evolved For Left To Right For Left To Right -->
    <g style="fill: #262626" transform="translate(78.903055 16.318125)scale(0.12 -0.12)">
     <defs>
      <path id="DejaVuSans-45" d="M 628 4666 
L 3578 4666 
L 3578 4134 
L 1259 4134 
L 1259 2753 
L 3481 2753 
L 3481 2222 
L 1259 2222 
L 1259 531 
L 3634 531 
L 3634 0 
L 628 0 
L 628 4666 
z
" transform="scale(0.015625)"/>
      <path id="DejaVuSans-76" d="M 191 3500 
L 800 3500 
L 1894 563 
L 2988 3500 
L 3597 3500 
L 2284 0 
L 1503 0 
L 191 3500 
z
" transform="scale(0.015625)"/>
      <path id="DejaVuSans-6c" d="M 603 4863 
L 1178 4863 
L 1178 0 
L 603 0 
L 603 4863 
z
" transform="scale(0.015625)"/>
      <path id="DejaVuSans-64" d="M 2906 2969 
L 2906 4863 
L 3481 4863 
L 3481 0 
L 2906 0 
L 2906 525 
Q 2725 213 2448 61 
Q 2172 -91 1784 -91 
Q 1150 -91 751 415 
Q 353 922 353 1747 
Q 353 2572 751 3078 
Q 1150 3584 1784 3584 
Q 2172 3584 2448 3432 
Q 2725 3281 2906 2969 
z
M 947 1747 
Q 947 1113 1208 752 
Q 1469 391 1925 391 
Q 2381 391 2643 752 
Q 2906 1113 2906 1747 
Q 2906 2381 2643 2742 
Q 2381 3103 1925 3103 
Q 1469 3103 1208 2742 
Q 947 2381 947 1747 
z
" transform="scale(0.015625)"/>
      <path id="DejaVuSans-20" transform="scale(0.015625)"/>
      <path id="DejaVuSans-4c" d="M 628 4666 
L 1259 4666 
L 1259 531 
L 3531 531 
L 3531 0 
L 628 0 
L 628 4666 
z
" transform="scale(0.015625)"/>
      <path id="DejaVuSans-66" d="M 2375 4863 
L 2375 4384 
L 1825 4384 
Q 1516 4384 1395 4259 
Q 1275 4134 1275 3809 
L 1275 3500 
L 2222 3500 
L 2222 3053 
L 1275 3053 
L 1275 0 
L 697 0 
L 697 3053 
L 147 3053 
L 147 3500 
L 697 3500 
L 697 3744 
Q 697 4328 969 4595 
Q 1241 4863 1831 4863 
L 2375 4863 
z
" transform="scale(0.015625)"/>
      <path id="DejaVuSans-54" d="M -19 4666 
L 3928 4666 
L 3928 4134 
L 2272 4134 
L 2272 0 
L 1638 0 
L 1638 4134 
L -19 4134 
L -19 4666 
z
" transform="scale(0.015625)"/>
      <path id="DejaVuSans-52" d="M 2841 2188 
Q 3044 2119 3236 1894 
Q 3428 1669 3622 1275 
L 4263 0 
L 3584 0 
L 2988 1197 
Q 2756 1666 2539 1819 
Q 2322 1972 1947 1972 
L 1259 1972 
L 1259 0 
L 628 0 
L 628 4666 
L 2053 4666 
Q 2853 4666 3247 4331 
Q 3641 3997 3641 3322 
Q 3641 2881 3436 2590 
Q 3231 2300 2841 2188 
z
M 1259 4147 
L 1259 2491 
L 2053 2491 
Q 2509 2491 2742 2702 
Q 2975 2913 2975 3322 
Q 2975 3731 2742 3939 
Q 2509 4147 2053 4147 
L 1259 4147 
z
" transform="scale(0.015625)"/>
      <path id="DejaVuSans-67" d="M 2906 1791 
Q 2906 2416 2648 2759 
Q 2391 3103 1925 3103 
Q 1463 3103 1205 2759 
Q 947 2416 947 1791 
Q 947 1169 1205 825 
Q 1463 481 1925 481 
Q 2391 481 2648 825 
Q 2906 1169 2906 1791 
z
M 3481 434 
Q 3481 -459 3084 -895 
Q 2688 -1331 1869 -1331 
Q 1566 -1331 1297 -1286 
Q 1028 -1241 775 -1147 
L 775 -588 
Q 1028 -725 1275 -790 
Q 1522 -856 1778 -856 
Q 2344 -856 2625 -561 
Q 2906 -266 2906 331 
L 2906 616 
Q 2728 306 2450 153 
Q 2172 0 1784 0 
Q 1141 0 747 490 
Q 353 981 353 1791 
Q 353 2603 747 3093 
Q 1141 3584 1784 3584 
Q 2172 3584 2450 3431 
Q 2728 3278 2906 2969 
L 2906 3500 
L 3481 3500 
L 3481 434 
z
" transform="scale(0.015625)"/>
      <path id="DejaVuSans-68" d="M 3513 2113 
L 3513 0 
L 2938 0 
L 2938 2094 
Q 2938 2591 2744 2837 
Q 2550 3084 2163 3084 
Q 1697 3084 1428 2787 
Q 1159 2491 1159 1978 
L 1159 0 
L 581 0 
L 581 4863 
L 1159 4863 
L 1159 2956 
Q 1366 3272 1645 3428 
Q 1925 3584 2291 3584 
Q 2894 3584 3203 3211 
Q 3513 2838 3513 2113 
z
" transform="scale(0.015625)"/>
     </defs>
     <use xlink:href="#DejaVuSans-45"/>
     <use xlink:href="#DejaVuSans-76" x="63.183594"/>
     <use xlink:href="#DejaVuSans-6f" x="122.363281"/>
     <use xlink:href="#DejaVuSans-6c" x="183.544922"/>
     <use xlink:href="#DejaVuSans-76" x="211.328125"/>
     <use xlink:href="#DejaVuSans-65" x="270.507812"/>
     <use xlink:href="#DejaVuSans-64" x="332.03125"/>
     <use xlink:href="#DejaVuSans-20" x="395.507812"/>
     <use xlink:href="#DejaVuSans-46" x="427.294922"/>
     <use xlink:href="#DejaVuSans-6f" x="481.189453"/>
     <use xlink:href="#DejaVuSans-72" x="542.371094"/>
     <use xlink:href="#DejaVuSans-20" x="583.484375"/>
     <use xlink:href="#DejaVuSans-4c" x="615.271484"/>
     <use xlink:href="#DejaVuSans-65" x="669.234375"/>
     <use xlink:href="#DejaVuSans-66" x="730.757812"/>
     <use xlink:href="#DejaVuSans-74" x="764.212891"/>
     <use xlink:href="#DejaVuSans-20" x="803.421875"/>
     <use xlink:href="#DejaVuSans-54" x="835.208984"/>
     <use xlink:href="#DejaVuSans-6f" x="879.292969"/>
     <use xlink:href="#DejaVuSans-20" x="940.474609"/>
     <use xlink:href="#DejaVuSans-52" x="972.261719"/>
     <use xlink:href="#DejaVuSans-69" x="1041.744141"/>
     <use xlink:href="#DejaVuSans-67" x="1069.527344"/>
     <use xlink:href="#DejaVuSans-68" x="1133.003906"/>
     <use xlink:href="#DejaVuSans-74" x="1196.382812"/>
     <use xlink:href="#DejaVuSans-20" x="1235.591797"/>
     <use xlink:href="#DejaVuSans-46" x="1267.378906"/>
     <use xlink:href="#DejaVuSans-6f" x="1321.273438"/>
     <use xlink:href="#DejaVuSans-72" x="1382.455078"/>
     <use xlink:href="#DejaVuSans-20" x="1423.568359"/>
     <use xlink:href="#DejaVuSans-4c" x="1455.355469"/>
     <use xlink:href="#DejaVuSans-65" x="1509.318359"/>
     <use xlink:href="#DejaVuSans-66" x="1570.841797"/>
     <use xlink:href="#DejaVuSans-74" x="1604.296875"/>
     <use xlink:href="#DejaVuSans-20" x="1643.505859"/>
     <use xlink:href="#DejaVuSans-54" x="1675.292969"/>
     <use xlink:href="#DejaVuSans-6f" x="1719.376953"/>
     <use xlink:href="#DejaVuSans-20" x="1780.558594"/>
     <use xlink:href="#DejaVuSans-52" x="1812.345703"/>
     <use xlink:href="#DejaVuSans-69" x="1881.828125"/>
     <use xlink:href="#DejaVuSans-67" x="1909.611328"/>
     <use xlink:href="#DejaVuSans-68" x="1973.087891"/>
     <use xlink:href="#DejaVuSans-74" x="2036.466797"/>
    </g>
   </g>
  </g>
  <g id="legend_1">
   <g id="text_18">
    <!-- Trial -->
    <g style="fill: #262626" transform="translate(350.909185 143.995312)scale(0.12 -0.12)">
     <use xlink:href="#DejaVuSans-54"/>
     <use xlink:href="#DejaVuSans-72" x="46.333984"/>
     <use xlink:href="#DejaVuSans-69" x="87.447266"/>
     <use xlink:href="#DejaVuSans-61" x="115.230469"/>
     <use xlink:href="#DejaVuSans-6c" x="176.509766"/>
    </g>
   </g>
   <g id="line2d_25">
    <path d="M 344.266685 156.499219 
L 355.266685 156.499219 
L 366.266685 156.499219 
" style="fill: none; stroke: #edd1cb; stroke-width: 1.5; stroke-linecap: round"/>
   </g>
   <g id="text_19">
    <!-- 0 -->
    <g style="fill: #262626" transform="translate(375.066685 160.349219)scale(0.11 -0.11)">
     <use xlink:href="#DejaVuSans-30"/>
    </g>
   </g>
   <g id="line2d_26">
    <path d="M 344.266685 172.645156 
L 355.266685 172.645156 
L 366.266685 172.645156 
" style="fill: none; stroke: #d499a7; stroke-width: 1.5; stroke-linecap: round"/>
   </g>
   <g id="text_20">
    <!-- 1 -->
    <g style="fill: #262626" transform="translate(375.066685 176.495156)scale(0.11 -0.11)">
     <use xlink:href="#DejaVuSans-31"/>
    </g>
   </g>
   <g id="line2d_27">
    <path d="M 344.266685 188.791094 
L 355.266685 188.791094 
L 366.266685 188.791094 
" style="fill: none; stroke: #a9678f; stroke-width: 1.5; stroke-linecap: round"/>
   </g>
   <g id="text_21">
    <!-- 2 -->
    <g style="fill: #262626" transform="translate(375.066685 192.641094)scale(0.11 -0.11)">
     <use xlink:href="#DejaVuSans-32"/>
    </g>
   </g>
   <g id="line2d_28">
    <path d="M 344.266685 204.937031 
L 355.266685 204.937031 
L 366.266685 204.937031 
" style="fill: none; stroke: #6c3f70; stroke-width: 1.5; stroke-linecap: round"/>
   </g>
   <g id="text_22">
    <!-- 3 -->
    <g style="fill: #262626" transform="translate(375.066685 208.787031)scale(0.11 -0.11)">
     <defs>
      <path id="DejaVuSans-33" d="M 2597 2516 
Q 3050 2419 3304 2112 
Q 3559 1806 3559 1356 
Q 3559 666 3084 287 
Q 2609 -91 1734 -91 
Q 1441 -91 1130 -33 
Q 819 25 488 141 
L 488 750 
Q 750 597 1062 519 
Q 1375 441 1716 441 
Q 2309 441 2620 675 
Q 2931 909 2931 1356 
Q 2931 1769 2642 2001 
Q 2353 2234 1838 2234 
L 1294 2234 
L 1294 2753 
L 1863 2753 
Q 2328 2753 2575 2939 
Q 2822 3125 2822 3475 
Q 2822 3834 2567 4026 
Q 2313 4219 1838 4219 
Q 1578 4219 1281 4162 
Q 984 4106 628 3988 
L 628 4550 
Q 988 4650 1302 4700 
Q 1616 4750 1894 4750 
Q 2613 4750 3031 4423 
Q 3450 4097 3450 3541 
Q 3450 3153 3228 2886 
Q 3006 2619 2597 2516 
z
" transform="scale(0.015625)"/>
     </defs>
     <use xlink:href="#DejaVuSans-33"/>
    </g>
   </g>
   <g id="line2d_29">
    <path d="M 344.266685 221.082969 
L 355.266685 221.082969 
L 366.266685 221.082969 
" style="fill: none; stroke: #2d1e3e; stroke-width: 1.5; stroke-linecap: round"/>
   </g>
   <g id="text_23">
    <!-- 4 -->
    <g style="fill: #262626" transform="translate(375.066685 224.932969)scale(0.11 -0.11)">
     <defs>
      <path id="DejaVuSans-34" d="M 2419 4116 
L 825 1625 
L 2419 1625 
L 2419 4116 
z
M 2253 4666 
L 3047 4666 
L 3047 1625 
L 3713 1625 
L 3713 1100 
L 3047 1100 
L 3047 0 
L 2419 0 
L 2419 1100 
L 313 1100 
L 313 1709 
L 2253 4666 
z
" transform="scale(0.015625)"/>
     </defs>
     <use xlink:href="#DejaVuSans-34"/>
    </g>
   </g>
  </g>
 </g>
 <defs>
  <clipPath id="p6f018e86fd">
   <rect x="67.3075" y="22.318125" width="272.271735" height="296.82"/>
  </clipPath>
 </defs>
</svg>
