<?xml version="1.0" encoding="utf-8" standalone="no"?>
<!DOCTYPE svg PUBLIC "-//W3C//DTD SVG 1.1//EN"
  "http://www.w3.org/Graphics/SVG/1.1/DTD/svg11.dtd">
<svg xmlns:xlink="http://www.w3.org/1999/xlink" width="391.965435pt" height="362.097812pt" viewBox="0 0 391.965435 362.097812" xmlns="http://www.w3.org/2000/svg" version="1.1">
 <metadata>
  <rdf:RDF xmlns:dc="http://purl.org/dc/elements/1.1/" xmlns:cc="http://creativecommons.org/ns#" xmlns:rdf="http://www.w3.org/1999/02/22-rdf-syntax-ns#">
   <cc:Work>
    <dc:type rdf:resource="http://purl.org/dc/dcmitype/StillImage"/>
    <dc:date>2022-11-20T08:19:16.524829</dc:date>
    <dc:format>image/svg+xml</dc:format>
    <dc:creator>
     <cc:Agent>
      <dc:title>Matplotlib v3.5.2, https://matplotlib.org/</dc:title>
     </cc:Agent>
    </dc:creator>
   </cc:Work>
  </rdf:RDF>
 </metadata>
 <defs>
  <style type="text/css">*{stroke-linejoin: round; stroke-linecap: butt}</style>
 </defs>
 <g id="figure_1">
  <g id="patch_1">
   <path d="M 0 362.097812 
L 391.965435 362.097812 
L 391.965435 0 
L 0 0 
z
" style="fill: #ffffff"/>
  </g>
  <g id="axes_1">
   <g id="patch_2">
    <path d="M 67.3075 319.138125 
L 339.579235 319.138125 
L 339.579235 22.318125 
L 67.3075 22.318125 
z
" style="fill: #eaeaf2"/>
   </g>
   <g id="matplotlib.axis_1">
    <g id="xtick_1">
     <g id="line2d_1">
      <path d="M 79.683488 319.138125 
L 79.683488 22.318125 
" clip-path="url(#p15c7e418b5)" style="fill: none; stroke: #ffffff; stroke-linecap: round"/>
     </g>
     <g id="text_1">
      <!-- 0 -->
      <g style="fill: #262626" transform="translate(76.184113 336.996406)scale(0.11 -0.11)">
       <defs>
        <path id="DejaVuSans-30" d="M 2034 4250 
Q 1547 4250 1301 3770 
Q 1056 3291 1056 2328 
Q 1056 1369 1301 889 
Q 1547 409 2034 409 
Q 2525 409 2770 889 
Q 3016 1369 3016 2328 
Q 3016 3291 2770 3770 
Q 2525 4250 2034 4250 
z
M 2034 4750 
Q 2819 4750 3233 4129 
Q 3647 3509 3647 2328 
Q 3647 1150 3233 529 
Q 2819 -91 2034 -91 
Q 1250 -91 836 529 
Q 422 1150 422 2328 
Q 422 3509 836 4129 
Q 1250 4750 2034 4750 
z
" transform="scale(0.015625)"/>
       </defs>
       <use xlink:href="#DejaVuSans-30"/>
      </g>
     </g>
    </g>
    <g id="xtick_2">
     <g id="line2d_2">
      <path d="M 141.874382 319.138125 
L 141.874382 22.318125 
" clip-path="url(#p15c7e418b5)" style="fill: none; stroke: #ffffff; stroke-linecap: round"/>
     </g>
     <g id="text_2">
      <!-- 50 -->
      <g style="fill: #262626" transform="translate(134.875632 336.996406)scale(0.11 -0.11)">
       <defs>
        <path id="DejaVuSans-35" d="M 691 4666 
L 3169 4666 
L 3169 4134 
L 1269 4134 
L 1269 2991 
Q 1406 3038 1543 3061 
Q 1681 3084 1819 3084 
Q 2600 3084 3056 2656 
Q 3513 2228 3513 1497 
Q 3513 744 3044 326 
Q 2575 -91 1722 -91 
Q 1428 -91 1123 -41 
Q 819 9 494 109 
L 494 744 
Q 775 591 1075 516 
Q 1375 441 1709 441 
Q 2250 441 2565 725 
Q 2881 1009 2881 1497 
Q 2881 1984 2565 2268 
Q 2250 2553 1709 2553 
Q 1456 2553 1204 2497 
Q 953 2441 691 2322 
L 691 4666 
z
" transform="scale(0.015625)"/>
       </defs>
       <use xlink:href="#DejaVuSans-35"/>
       <use xlink:href="#DejaVuSans-30" x="63.623047"/>
      </g>
     </g>
    </g>
    <g id="xtick_3">
     <g id="line2d_3">
      <path d="M 204.065276 319.138125 
L 204.065276 22.318125 
" clip-path="url(#p15c7e418b5)" style="fill: none; stroke: #ffffff; stroke-linecap: round"/>
     </g>
     <g id="text_3">
      <!-- 100 -->
      <g style="fill: #262626" transform="translate(193.567151 336.996406)scale(0.11 -0.11)">
       <defs>
        <path id="DejaVuSans-31" d="M 794 531 
L 1825 531 
L 1825 4091 
L 703 3866 
L 703 4441 
L 1819 4666 
L 2450 4666 
L 2450 531 
L 3481 531 
L 3481 0 
L 794 0 
L 794 531 
z
" transform="scale(0.015625)"/>
       </defs>
       <use xlink:href="#DejaVuSans-31"/>
       <use xlink:href="#DejaVuSans-30" x="63.623047"/>
       <use xlink:href="#DejaVuSans-30" x="127.246094"/>
      </g>
     </g>
    </g>
    <g id="xtick_4">
     <g id="line2d_4">
      <path d="M 266.256171 319.138125 
L 266.256171 22.318125 
" clip-path="url(#p15c7e418b5)" style="fill: none; stroke: #ffffff; stroke-linecap: round"/>
     </g>
     <g id="text_4">
      <!-- 150 -->
      <g style="fill: #262626" transform="translate(255.758046 336.996406)scale(0.11 -0.11)">
       <use xlink:href="#DejaVuSans-31"/>
       <use xlink:href="#DejaVuSans-35" x="63.623047"/>
       <use xlink:href="#DejaVuSans-30" x="127.246094"/>
      </g>
     </g>
    </g>
    <g id="xtick_5">
     <g id="line2d_5">
      <path d="M 328.447065 319.138125 
L 328.447065 22.318125 
" clip-path="url(#p15c7e418b5)" style="fill: none; stroke: #ffffff; stroke-linecap: round"/>
     </g>
     <g id="text_5">
      <!-- 200 -->
      <g style="fill: #262626" transform="translate(317.94894 336.996406)scale(0.11 -0.11)">
       <defs>
        <path id="DejaVuSans-32" d="M 1228 531 
L 3431 531 
L 3431 0 
L 469 0 
L 469 531 
Q 828 903 1448 1529 
Q 2069 2156 2228 2338 
Q 2531 2678 2651 2914 
Q 2772 3150 2772 3378 
Q 2772 3750 2511 3984 
Q 2250 4219 1831 4219 
Q 1534 4219 1204 4116 
Q 875 4013 500 3803 
L 500 4441 
Q 881 4594 1212 4672 
Q 1544 4750 1819 4750 
Q 2544 4750 2975 4387 
Q 3406 4025 3406 3419 
Q 3406 3131 3298 2873 
Q 3191 2616 2906 2266 
Q 2828 2175 2409 1742 
Q 1991 1309 1228 531 
z
" transform="scale(0.015625)"/>
       </defs>
       <use xlink:href="#DejaVuSans-32"/>
       <use xlink:href="#DejaVuSans-30" x="63.623047"/>
       <use xlink:href="#DejaVuSans-30" x="127.246094"/>
      </g>
     </g>
    </g>
    <g id="text_6">
     <!-- Generation -->
     <g style="fill: #262626" transform="translate(169.971805 352.402187)scale(0.12 -0.12)">
      <defs>
       <path id="DejaVuSans-47" d="M 3809 666 
L 3809 1919 
L 2778 1919 
L 2778 2438 
L 4434 2438 
L 4434 434 
Q 4069 175 3628 42 
Q 3188 -91 2688 -91 
Q 1594 -91 976 548 
Q 359 1188 359 2328 
Q 359 3472 976 4111 
Q 1594 4750 2688 4750 
Q 3144 4750 3555 4637 
Q 3966 4525 4313 4306 
L 4313 3634 
Q 3963 3931 3569 4081 
Q 3175 4231 2741 4231 
Q 1884 4231 1454 3753 
Q 1025 3275 1025 2328 
Q 1025 1384 1454 906 
Q 1884 428 2741 428 
Q 3075 428 3337 486 
Q 3600 544 3809 666 
z
" transform="scale(0.015625)"/>
       <path id="DejaVuSans-65" d="M 3597 1894 
L 3597 1613 
L 953 1613 
Q 991 1019 1311 708 
Q 1631 397 2203 397 
Q 2534 397 2845 478 
Q 3156 559 3463 722 
L 3463 178 
Q 3153 47 2828 -22 
Q 2503 -91 2169 -91 
Q 1331 -91 842 396 
Q 353 884 353 1716 
Q 353 2575 817 3079 
Q 1281 3584 2069 3584 
Q 2775 3584 3186 3129 
Q 3597 2675 3597 1894 
z
M 3022 2063 
Q 3016 2534 2758 2815 
Q 2500 3097 2075 3097 
Q 1594 3097 1305 2825 
Q 1016 2553 972 2059 
L 3022 2063 
z
" transform="scale(0.015625)"/>
       <path id="DejaVuSans-6e" d="M 3513 2113 
L 3513 0 
L 2938 0 
L 2938 2094 
Q 2938 2591 2744 2837 
Q 2550 3084 2163 3084 
Q 1697 3084 1428 2787 
Q 1159 2491 1159 1978 
L 1159 0 
L 581 0 
L 581 3500 
L 1159 3500 
L 1159 2956 
Q 1366 3272 1645 3428 
Q 1925 3584 2291 3584 
Q 2894 3584 3203 3211 
Q 3513 2838 3513 2113 
z
" transform="scale(0.015625)"/>
       <path id="DejaVuSans-72" d="M 2631 2963 
Q 2534 3019 2420 3045 
Q 2306 3072 2169 3072 
Q 1681 3072 1420 2755 
Q 1159 2438 1159 1844 
L 1159 0 
L 581 0 
L 581 3500 
L 1159 3500 
L 1159 2956 
Q 1341 3275 1631 3429 
Q 1922 3584 2338 3584 
Q 2397 3584 2469 3576 
Q 2541 3569 2628 3553 
L 2631 2963 
z
" transform="scale(0.015625)"/>
       <path id="DejaVuSans-61" d="M 2194 1759 
Q 1497 1759 1228 1600 
Q 959 1441 959 1056 
Q 959 750 1161 570 
Q 1363 391 1709 391 
Q 2188 391 2477 730 
Q 2766 1069 2766 1631 
L 2766 1759 
L 2194 1759 
z
M 3341 1997 
L 3341 0 
L 2766 0 
L 2766 531 
Q 2569 213 2275 61 
Q 1981 -91 1556 -91 
Q 1019 -91 701 211 
Q 384 513 384 1019 
Q 384 1609 779 1909 
Q 1175 2209 1959 2209 
L 2766 2209 
L 2766 2266 
Q 2766 2663 2505 2880 
Q 2244 3097 1772 3097 
Q 1472 3097 1187 3025 
Q 903 2953 641 2809 
L 641 3341 
Q 956 3463 1253 3523 
Q 1550 3584 1831 3584 
Q 2591 3584 2966 3190 
Q 3341 2797 3341 1997 
z
" transform="scale(0.015625)"/>
       <path id="DejaVuSans-74" d="M 1172 4494 
L 1172 3500 
L 2356 3500 
L 2356 3053 
L 1172 3053 
L 1172 1153 
Q 1172 725 1289 603 
Q 1406 481 1766 481 
L 2356 481 
L 2356 0 
L 1766 0 
Q 1100 0 847 248 
Q 594 497 594 1153 
L 594 3053 
L 172 3053 
L 172 3500 
L 594 3500 
L 594 4494 
L 1172 4494 
z
" transform="scale(0.015625)"/>
       <path id="DejaVuSans-69" d="M 603 3500 
L 1178 3500 
L 1178 0 
L 603 0 
L 603 3500 
z
M 603 4863 
L 1178 4863 
L 1178 4134 
L 603 4134 
L 603 4863 
z
" transform="scale(0.015625)"/>
       <path id="DejaVuSans-6f" d="M 1959 3097 
Q 1497 3097 1228 2736 
Q 959 2375 959 1747 
Q 959 1119 1226 758 
Q 1494 397 1959 397 
Q 2419 397 2687 759 
Q 2956 1122 2956 1747 
Q 2956 2369 2687 2733 
Q 2419 3097 1959 3097 
z
M 1959 3584 
Q 2709 3584 3137 3096 
Q 3566 2609 3566 1747 
Q 3566 888 3137 398 
Q 2709 -91 1959 -91 
Q 1206 -91 779 398 
Q 353 888 353 1747 
Q 353 2609 779 3096 
Q 1206 3584 1959 3584 
z
" transform="scale(0.015625)"/>
      </defs>
      <use xlink:href="#DejaVuSans-47"/>
      <use xlink:href="#DejaVuSans-65" x="77.490234"/>
      <use xlink:href="#DejaVuSans-6e" x="139.013672"/>
      <use xlink:href="#DejaVuSans-65" x="202.392578"/>
      <use xlink:href="#DejaVuSans-72" x="263.916016"/>
      <use xlink:href="#DejaVuSans-61" x="305.029297"/>
      <use xlink:href="#DejaVuSans-74" x="366.308594"/>
      <use xlink:href="#DejaVuSans-69" x="405.517578"/>
      <use xlink:href="#DejaVuSans-6f" x="433.300781"/>
      <use xlink:href="#DejaVuSans-6e" x="494.482422"/>
     </g>
    </g>
   </g>
   <g id="matplotlib.axis_2">
    <g id="ytick_1">
     <g id="line2d_6">
      <path d="M 67.3075 305.647144 
L 339.579235 305.647144 
" clip-path="url(#p15c7e418b5)" style="fill: none; stroke: #ffffff; stroke-linecap: round"/>
     </g>
     <g id="text_7">
      <!-- 0 -->
      <g style="fill: #262626" transform="translate(50.80875 309.826285)scale(0.11 -0.11)">
       <use xlink:href="#DejaVuSans-30"/>
      </g>
     </g>
    </g>
    <g id="ytick_2">
     <g id="line2d_7">
      <path d="M 67.3075 272.153712 
L 339.579235 272.153712 
" clip-path="url(#p15c7e418b5)" style="fill: none; stroke: #ffffff; stroke-linecap: round"/>
     </g>
     <g id="text_8">
      <!-- 2500 -->
      <g style="fill: #262626" transform="translate(29.8125 276.332852)scale(0.11 -0.11)">
       <use xlink:href="#DejaVuSans-32"/>
       <use xlink:href="#DejaVuSans-35" x="63.623047"/>
       <use xlink:href="#DejaVuSans-30" x="127.246094"/>
       <use xlink:href="#DejaVuSans-30" x="190.869141"/>
      </g>
     </g>
    </g>
    <g id="ytick_3">
     <g id="line2d_8">
      <path d="M 67.3075 238.660279 
L 339.579235 238.660279 
" clip-path="url(#p15c7e418b5)" style="fill: none; stroke: #ffffff; stroke-linecap: round"/>
     </g>
     <g id="text_9">
      <!-- 5000 -->
      <g style="fill: #262626" transform="translate(29.8125 242.83942)scale(0.11 -0.11)">
       <use xlink:href="#DejaVuSans-35"/>
       <use xlink:href="#DejaVuSans-30" x="63.623047"/>
       <use xlink:href="#DejaVuSans-30" x="127.246094"/>
       <use xlink:href="#DejaVuSans-30" x="190.869141"/>
      </g>
     </g>
    </g>
    <g id="ytick_4">
     <g id="line2d_9">
      <path d="M 67.3075 205.166847 
L 339.579235 205.166847 
" clip-path="url(#p15c7e418b5)" style="fill: none; stroke: #ffffff; stroke-linecap: round"/>
     </g>
     <g id="text_10">
      <!-- 7500 -->
      <g style="fill: #262626" transform="translate(29.8125 209.345987)scale(0.11 -0.11)">
       <defs>
        <path id="DejaVuSans-37" d="M 525 4666 
L 3525 4666 
L 3525 4397 
L 1831 0 
L 1172 0 
L 2766 4134 
L 525 4134 
L 525 4666 
z
" transform="scale(0.015625)"/>
       </defs>
       <use xlink:href="#DejaVuSans-37"/>
       <use xlink:href="#DejaVuSans-35" x="63.623047"/>
       <use xlink:href="#DejaVuSans-30" x="127.246094"/>
       <use xlink:href="#DejaVuSans-30" x="190.869141"/>
      </g>
     </g>
    </g>
    <g id="ytick_5">
     <g id="line2d_10">
      <path d="M 67.3075 171.673414 
L 339.579235 171.673414 
" clip-path="url(#p15c7e418b5)" style="fill: none; stroke: #ffffff; stroke-linecap: round"/>
     </g>
     <g id="text_11">
      <!-- 10000 -->
      <g style="fill: #262626" transform="translate(22.81375 175.852555)scale(0.11 -0.11)">
       <use xlink:href="#DejaVuSans-31"/>
       <use xlink:href="#DejaVuSans-30" x="63.623047"/>
       <use xlink:href="#DejaVuSans-30" x="127.246094"/>
       <use xlink:href="#DejaVuSans-30" x="190.869141"/>
       <use xlink:href="#DejaVuSans-30" x="254.492188"/>
      </g>
     </g>
    </g>
    <g id="ytick_6">
     <g id="line2d_11">
      <path d="M 67.3075 138.179982 
L 339.579235 138.179982 
" clip-path="url(#p15c7e418b5)" style="fill: none; stroke: #ffffff; stroke-linecap: round"/>
     </g>
     <g id="text_12">
      <!-- 12500 -->
      <g style="fill: #262626" transform="translate(22.81375 142.359123)scale(0.11 -0.11)">
       <use xlink:href="#DejaVuSans-31"/>
       <use xlink:href="#DejaVuSans-32" x="63.623047"/>
       <use xlink:href="#DejaVuSans-35" x="127.246094"/>
       <use xlink:href="#DejaVuSans-30" x="190.869141"/>
       <use xlink:href="#DejaVuSans-30" x="254.492188"/>
      </g>
     </g>
    </g>
    <g id="ytick_7">
     <g id="line2d_12">
      <path d="M 67.3075 104.686549 
L 339.579235 104.686549 
" clip-path="url(#p15c7e418b5)" style="fill: none; stroke: #ffffff; stroke-linecap: round"/>
     </g>
     <g id="text_13">
      <!-- 15000 -->
      <g style="fill: #262626" transform="translate(22.81375 108.86569)scale(0.11 -0.11)">
       <use xlink:href="#DejaVuSans-31"/>
       <use xlink:href="#DejaVuSans-35" x="63.623047"/>
       <use xlink:href="#DejaVuSans-30" x="127.246094"/>
       <use xlink:href="#DejaVuSans-30" x="190.869141"/>
       <use xlink:href="#DejaVuSans-30" x="254.492188"/>
      </g>
     </g>
    </g>
    <g id="ytick_8">
     <g id="line2d_13">
      <path d="M 67.3075 71.193117 
L 339.579235 71.193117 
" clip-path="url(#p15c7e418b5)" style="fill: none; stroke: #ffffff; stroke-linecap: round"/>
     </g>
     <g id="text_14">
      <!-- 17500 -->
      <g style="fill: #262626" transform="translate(22.81375 75.372258)scale(0.11 -0.11)">
       <use xlink:href="#DejaVuSans-31"/>
       <use xlink:href="#DejaVuSans-37" x="63.623047"/>
       <use xlink:href="#DejaVuSans-35" x="127.246094"/>
       <use xlink:href="#DejaVuSans-30" x="190.869141"/>
       <use xlink:href="#DejaVuSans-30" x="254.492188"/>
      </g>
     </g>
    </g>
    <g id="ytick_9">
     <g id="line2d_14">
      <path d="M 67.3075 37.699685 
L 339.579235 37.699685 
" clip-path="url(#p15c7e418b5)" style="fill: none; stroke: #ffffff; stroke-linecap: round"/>
     </g>
     <g id="text_15">
      <!-- 20000 -->
      <g style="fill: #262626" transform="translate(22.81375 41.878825)scale(0.11 -0.11)">
       <use xlink:href="#DejaVuSans-32"/>
       <use xlink:href="#DejaVuSans-30" x="63.623047"/>
       <use xlink:href="#DejaVuSans-30" x="127.246094"/>
       <use xlink:href="#DejaVuSans-30" x="190.869141"/>
       <use xlink:href="#DejaVuSans-30" x="254.492188"/>
      </g>
     </g>
    </g>
    <g id="text_16">
     <!-- Fitness -->
     <g style="fill: #262626" transform="translate(16.318125 191.50875)rotate(-90)scale(0.12 -0.12)">
      <defs>
       <path id="DejaVuSans-46" d="M 628 4666 
L 3309 4666 
L 3309 4134 
L 1259 4134 
L 1259 2759 
L 3109 2759 
L 3109 2228 
L 1259 2228 
L 1259 0 
L 628 0 
L 628 4666 
z
" transform="scale(0.015625)"/>
       <path id="DejaVuSans-73" d="M 2834 3397 
L 2834 2853 
Q 2591 2978 2328 3040 
Q 2066 3103 1784 3103 
Q 1356 3103 1142 2972 
Q 928 2841 928 2578 
Q 928 2378 1081 2264 
Q 1234 2150 1697 2047 
L 1894 2003 
Q 2506 1872 2764 1633 
Q 3022 1394 3022 966 
Q 3022 478 2636 193 
Q 2250 -91 1575 -91 
Q 1294 -91 989 -36 
Q 684 19 347 128 
L 347 722 
Q 666 556 975 473 
Q 1284 391 1588 391 
Q 1994 391 2212 530 
Q 2431 669 2431 922 
Q 2431 1156 2273 1281 
Q 2116 1406 1581 1522 
L 1381 1569 
Q 847 1681 609 1914 
Q 372 2147 372 2553 
Q 372 3047 722 3315 
Q 1072 3584 1716 3584 
Q 2034 3584 2315 3537 
Q 2597 3491 2834 3397 
z
" transform="scale(0.015625)"/>
      </defs>
      <use xlink:href="#DejaVuSans-46"/>
      <use xlink:href="#DejaVuSans-69" x="50.269531"/>
      <use xlink:href="#DejaVuSans-74" x="78.052734"/>
      <use xlink:href="#DejaVuSans-6e" x="117.261719"/>
      <use xlink:href="#DejaVuSans-65" x="180.640625"/>
      <use xlink:href="#DejaVuSans-73" x="242.164062"/>
      <use xlink:href="#DejaVuSans-73" x="294.263672"/>
     </g>
    </g>
   </g>
   <g id="PolyCollection_1">
    <defs>
     <path id="mc417729d55" d="M 79.683488 -56.466996 
L 79.683488 -56.454436 
L 80.927306 -56.477463 
L 82.171124 -56.557429 
L 83.414942 -56.568722 
L 84.658759 -56.66376 
L 85.902577 -56.652048 
L 87.146395 -56.618962 
L 88.390213 -56.624395 
L 89.634031 -56.878526 
L 90.877849 -56.60679 
L 92.121667 -56.667507 
L 93.365485 -56.804809 
L 94.609303 -56.795211 
L 95.85312 -56.669203 
L 97.096938 -56.677576 
L 98.340756 -56.716522 
L 99.584574 -56.944602 
L 100.828392 -56.858859 
L 102.07221 -56.888459 
L 103.316028 -56.895639 
L 104.559846 -56.736943 
L 105.803664 -56.626069 
L 107.047481 -56.593015 
L 108.291299 -56.726947 
L 109.535117 -56.754119 
L 110.778935 -56.628969 
L 112.022753 -56.633605 
L 113.266571 -56.586735 
L 114.510389 -56.618921 
L 115.754207 -56.697253 
L 116.998025 -56.689267 
L 118.241842 -56.677419 
L 119.48566 -56.72567 
L 120.729478 -56.739957 
L 121.973296 -56.584642 
L 123.217114 -56.833278 
L 124.460932 -56.642826 
L 125.70475 -56.676676 
L 126.948568 -56.670427 
L 128.192385 -56.641581 
L 129.436203 -56.684693 
L 130.680021 -56.600928 
L 131.923839 -56.63529 
L 133.167657 -56.636138 
L 134.411475 -56.621453 
L 135.655293 -56.602969 
L 136.899111 -56.729899 
L 138.142929 -56.631512 
L 139.386746 -56.639414 
L 140.630564 -56.611824 
L 141.874382 -56.63236 
L 143.1182 -56.688472 
L 144.362018 -56.573338 
L 145.605836 -56.595444 
L 146.849654 -56.596354 
L 148.093472 -56.592586 
L 149.33729 -56.597621 
L 150.581107 -56.600122 
L 151.824925 -56.592597 
L 153.068743 -56.672981 
L 154.312561 -56.651618 
L 155.556379 -56.622312 
L 156.800197 -56.587991 
L 158.044015 -56.591728 
L 159.287833 -56.584223 
L 160.53165 -56.599662 
L 161.775468 -56.664995 
L 163.019286 -56.620585 
L 164.263104 -56.608475 
L 165.506922 -56.571234 
L 166.75074 -56.592178 
L 167.994558 -56.57877 
L 169.238376 -56.574594 
L 170.482194 -56.586275 
L 171.726011 -56.548176 
L 172.969829 -56.545695 
L 174.213647 -56.518063 
L 175.457465 -56.526437 
L 176.701283 -56.543613 
L 177.945101 -56.564127 
L 179.188919 -56.522261 
L 180.432737 -56.513469 
L 181.676555 -56.503421 
L 182.920372 -56.500898 
L 184.16419 -56.521423 
L 185.408008 -56.51597 
L 186.651826 -56.512631 
L 187.895644 -56.521423 
L 189.139462 -56.509701 
L 190.38328 -56.503818 
L 191.627098 -56.508434 
L 192.870915 -56.493781 
L 194.114733 -56.493781 
L 195.358551 -56.490431 
L 196.602369 -56.502164 
L 197.846187 -56.49086 
L 199.090005 -56.486255 
L 200.333823 -56.490442 
L 201.577641 -56.481231 
L 202.821459 -56.488338 
L 204.065276 -56.492954 
L 205.309094 -56.49421 
L 206.552912 -56.493791 
L 207.79673 -56.485418 
L 209.040548 -56.477463 
L 210.284366 -56.479556 
L 211.528184 -56.477044 
L 212.772002 -56.479546 
L 214.01582 -56.482068 
L 215.259637 -56.474114 
L 216.503455 -56.482906 
L 217.747273 -56.477871 
L 218.991091 -56.480394 
L 220.234909 -56.474951 
L 221.478727 -56.472439 
L 222.722545 -56.492116 
L 223.966363 -56.514714 
L 225.21018 -56.572836 
L 226.453998 -56.559512 
L 227.697816 -57.535343 
L 228.941634 -59.134214 
L 230.185452 -60.186107 
L 231.42927 -60.311844 
L 232.673088 -60.446854 
L 233.916906 -58.845972 
L 235.160724 -59.588804 
L 236.404541 -62.229918 
L 237.648359 -59.966945 
L 238.892177 -61.182202 
L 240.135995 -60.869855 
L 241.379813 -61.948395 
L 242.623631 -60.611338 
L 243.867449 -61.498788 
L 245.111267 -61.744243 
L 246.355085 -61.124541 
L 247.598902 -60.178016 
L 248.84272 -61.963897 
L 250.086538 -61.256494 
L 251.330356 -61.265224 
L 252.574174 -61.99155 
L 253.817992 -62.742085 
L 255.06181 -61.802898 
L 256.305628 -61.118753 
L 257.549445 -61.864924 
L 258.793263 -61.498914 
L 260.037081 -61.942189 
L 261.280899 -63.668964 
L 262.524717 -65.679512 
L 263.768535 -60.578315 
L 265.012353 -62.786338 
L 266.256171 -62.024781 
L 267.499989 -63.266069 
L 268.743806 -61.091456 
L 269.987624 -61.623666 
L 271.231442 -62.004821 
L 272.47526 -62.053376 
L 273.719078 -63.88105 
L 274.962896 -63.510006 
L 276.206714 -62.895328 
L 277.450532 -64.867945 
L 278.69435 -62.975231 
L 279.938167 -63.611093 
L 281.181985 -64.450208 
L 282.425803 -63.497938 
L 283.669621 -64.335964 
L 284.913439 -64.673589 
L 286.157257 -64.741497 
L 287.401075 -61.956936 
L 288.644893 -60.248708 
L 289.88871 -65.378154 
L 291.132528 -62.833208 
L 292.376346 -64.071481 
L 293.620164 -63.569425 
L 294.863982 -62.256232 
L 296.1078 -63.211527 
L 297.351618 -63.431495 
L 298.595436 -63.937319 
L 299.839254 -64.561993 
L 301.083071 -61.652837 
L 302.326889 -62.773297 
L 303.570707 -60.633778 
L 304.814525 -62.530438 
L 306.058343 -62.468946 
L 307.302161 -63.724322 
L 308.545979 -60.36603 
L 309.789797 -62.519888 
L 311.033615 -62.474797 
L 312.277432 -62.97746 
L 313.52125 -63.922017 
L 314.765068 -62.780749 
L 316.008886 -63.249155 
L 317.252704 -64.036188 
L 318.496522 -63.841392 
L 319.74034 -62.216343 
L 320.984158 -64.239545 
L 322.227976 -64.368516 
L 323.471793 -63.707293 
L 324.715611 -64.275634 
L 325.959429 -62.363473 
L 327.203247 -62.589544 
L 327.203247 -67.104521 
L 327.203247 -67.104521 
L 325.959429 -67.362672 
L 324.715611 -68.526642 
L 323.471793 -68.145392 
L 322.227976 -68.290189 
L 320.984158 -68.563317 
L 319.74034 -66.650884 
L 318.496522 -67.999246 
L 317.252704 -68.454118 
L 316.008886 -67.789472 
L 314.765068 -67.138946 
L 313.52125 -68.211563 
L 312.277432 -67.300123 
L 311.033615 -67.236694 
L 309.789797 -67.013042 
L 308.545979 -64.825691 
L 307.302161 -67.802754 
L 306.058343 -66.632829 
L 304.814525 -66.58576 
L 303.570707 -64.888459 
L 302.326889 -67.178918 
L 301.083071 -65.959464 
L 299.839254 -68.454892 
L 298.595436 -68.117708 
L 297.351618 -67.637245 
L 296.1078 -67.412441 
L 294.863982 -66.639716 
L 293.620164 -67.806836 
L 292.376346 -67.984655 
L 291.132528 -66.919857 
L 289.88871 -68.90562 
L 288.644893 -64.841014 
L 287.401075 -66.412097 
L 286.157257 -68.537349 
L 284.913439 -68.526893 
L 283.669621 -67.990558 
L 282.425803 -67.550277 
L 281.181985 -68.337226 
L 279.938167 -67.534985 
L 278.69435 -67.077046 
L 277.450532 -68.642477 
L 276.206714 -66.888855 
L 274.962896 -67.302185 
L 273.719078 -67.593253 
L 272.47526 -66.090633 
L 271.231442 -65.89993 
L 269.987624 -65.458392 
L 268.743806 -64.750163 
L 267.499989 -67.20116 
L 266.256171 -66.166872 
L 265.012353 -66.397558 
L 263.768535 -63.987591 
L 262.524717 -68.260222 
L 261.280899 -66.805801 
L 260.037081 -65.390945 
L 258.793263 -64.88107 
L 257.549445 -65.024568 
L 256.305628 -64.250744 
L 255.06181 -64.823639 
L 253.817992 -65.433921 
L 252.574174 -65.010344 
L 251.330356 -64.291387 
L 250.086538 -64.314382 
L 248.84272 -64.844227 
L 247.598902 -63.35558 
L 246.355085 -63.951774 
L 245.111267 -64.559931 
L 243.867449 -64.331725 
L 242.623631 -63.625181 
L 241.379813 -64.51685 
L 240.135995 -63.61954 
L 238.892177 -63.767225 
L 237.648359 -62.80253 
L 236.404541 -64.243753 
L 235.160724 -62.141286 
L 233.916906 -61.136693 
L 232.673088 -62.596357 
L 231.42927 -62.647424 
L 230.185452 -62.128768 
L 228.941634 -61.243652 
L 227.697816 -59.432421 
L 226.453998 -57.275025 
L 225.21018 -56.795672 
L 223.966363 -56.667978 
L 222.722545 -56.530215 
L 221.478727 -56.495047 
L 220.234909 -56.490442 
L 218.991091 -56.496303 
L 217.747273 -56.494639 
L 216.503455 -56.497978 
L 215.259637 -56.498826 
L 214.01582 -56.504677 
L 212.772002 -56.500071 
L 211.528184 -56.489615 
L 210.284366 -56.497978 
L 209.040548 -56.49421 
L 207.79673 -56.50677 
L 206.552912 -56.523527 
L 205.309094 -56.533983 
L 204.065276 -56.533146 
L 202.821459 -56.523517 
L 201.577641 -56.51934 
L 200.333823 -56.514306 
L 199.090005 -56.508036 
L 197.846187 -56.512223 
L 196.602369 -56.535239 
L 195.358551 -56.524354 
L 194.114733 -56.523098 
L 192.870915 -56.520596 
L 191.627098 -56.538589 
L 190.38328 -56.540263 
L 189.139462 -56.536506 
L 187.895644 -56.565802 
L 186.651826 -56.626111 
L 185.408008 -56.572511 
L 184.16419 -56.611437 
L 182.920372 -56.530215 
L 181.676555 -56.536914 
L 180.432737 -56.562034 
L 179.188919 -56.56957 
L 177.945101 -56.719464 
L 176.701283 -56.792741 
L 175.457465 -56.573349 
L 174.213647 -56.597642 
L 172.969829 -56.658778 
L 171.726011 -56.880693 
L 170.482194 -56.950589 
L 169.238376 -56.820792 
L 167.994558 -56.808253 
L 166.75074 -56.918394 
L 165.506922 -57.058187 
L 164.263104 -56.968634 
L 163.019286 -56.891536 
L 161.775468 -57.277464 
L 160.53165 -57.25875 
L 159.287833 -56.797388 
L 158.044015 -56.911695 
L 156.800197 -57.056994 
L 155.556379 -56.845085 
L 154.312561 -57.299047 
L 153.068743 -57.189628 
L 151.824925 -56.950997 
L 150.581107 -56.956618 
L 149.33729 -56.703575 
L 148.093472 -56.963547 
L 146.849654 -57.049458 
L 145.605836 -57.182594 
L 144.362018 -56.92931 
L 143.1182 -57.343069 
L 141.874382 -57.117711 
L 140.630564 -56.738314 
L 139.386746 -56.868091 
L 138.142929 -56.896979 
L 136.899111 -57.126053 
L 135.655293 -57.10086 
L 134.411475 -56.979038 
L 133.167657 -56.952243 
L 131.923839 -57.146965 
L 130.680021 -56.977824 
L 129.436203 -57.202659 
L 128.192385 -57.02215 
L 126.948568 -56.921272 
L 125.70475 -57.088739 
L 124.460932 -57.023019 
L 123.217114 -57.493591 
L 121.973296 -57.009213 
L 120.729478 -57.41283 
L 119.48566 -57.25203 
L 118.241842 -57.212257 
L 116.998025 -57.155391 
L 115.754207 -57.254186 
L 114.510389 -57.148609 
L 113.266571 -56.814501 
L 112.022753 -56.910366 
L 110.778935 -57.062928 
L 109.535117 -57.331964 
L 108.291299 -57.469308 
L 107.047481 -57.206793 
L 105.803664 -57.152115 
L 104.559846 -57.272126 
L 103.316028 -57.625524 
L 102.07221 -57.667118 
L 100.828392 -57.45388 
L 99.584574 -57.620133 
L 98.340756 -57.262193 
L 97.096938 -56.942635 
L 95.85312 -57.013044 
L 94.609303 -57.337407 
L 93.365485 -57.350417 
L 92.121667 -57.09796 
L 90.877849 -56.988259 
L 89.634031 -57.585436 
L 88.390213 -56.922507 
L 87.146395 -56.858074 
L 85.902577 -56.974024 
L 84.658759 -57.181275 
L 83.414942 -56.670888 
L 82.171124 -57.027656 
L 80.927306 -56.584223 
L 79.683488 -56.466996 
z
" style="stroke: #edd1cb; stroke-opacity: 0.2"/>
    </defs>
    <g clip-path="url(#p15c7e418b5)">
     <use xlink:href="#mc417729d55" x="0" y="362.097812" style="fill: #edd1cb; fill-opacity: 0.2; stroke: #edd1cb; stroke-opacity: 0.2"/>
    </g>
   </g>
   <g id="PolyCollection_2">
    <defs>
     <path id="ma319bcee39" d="M 79.683488 -56.467426 
L 79.683488 -56.45318 
L 80.927306 -56.507586 
L 82.171124 -57.018382 
L 83.414942 -57.337731 
L 84.658759 -57.34196 
L 85.902577 -57.606924 
L 87.146395 -58.688009 
L 88.390213 -59.891805 
L 89.634031 -61.021862 
L 90.877849 -59.563747 
L 92.121667 -61.945999 
L 93.365485 -61.763554 
L 94.609303 -62.596452 
L 95.85312 -61.735691 
L 97.096938 -61.488133 
L 98.340756 -61.578701 
L 99.584574 -61.125661 
L 100.828392 -61.215549 
L 102.07221 -61.381027 
L 103.316028 -63.263233 
L 104.559846 -62.604176 
L 105.803664 -61.770891 
L 107.047481 -60.926197 
L 108.291299 -62.095547 
L 109.535117 -63.01693 
L 110.778935 -60.084182 
L 112.022753 -60.944524 
L 113.266571 -62.187235 
L 114.510389 -61.399093 
L 115.754207 -61.825946 
L 116.998025 -61.203659 
L 118.241842 -61.969088 
L 119.48566 -61.384628 
L 120.729478 -61.626074 
L 121.973296 -60.515515 
L 123.217114 -62.159174 
L 124.460932 -60.950501 
L 125.70475 -61.407026 
L 126.948568 -62.373322 
L 128.192385 -64.002453 
L 129.436203 -61.263612 
L 130.680021 -60.861952 
L 131.923839 -62.445731 
L 133.167657 -61.146123 
L 134.411475 -61.723675 
L 135.655293 -61.64012 
L 136.899111 -60.212745 
L 138.142929 -60.483131 
L 139.386746 -62.12454 
L 140.630564 -61.863594 
L 141.874382 -62.528837 
L 143.1182 -62.59843 
L 144.362018 -63.812043 
L 145.605836 -64.111841 
L 146.849654 -63.586214 
L 148.093472 -65.456435 
L 149.33729 -66.637225 
L 150.581107 -66.514409 
L 151.824925 -62.655588 
L 153.068743 -61.934642 
L 154.312561 -64.131518 
L 155.556379 -62.02453 
L 156.800197 -65.736859 
L 158.044015 -65.847073 
L 159.287833 -64.038553 
L 160.53165 -63.831961 
L 161.775468 -67.594896 
L 163.019286 -64.14883 
L 164.263104 -66.011526 
L 165.506922 -69.682647 
L 166.75074 -68.571314 
L 167.994558 -64.539081 
L 169.238376 -66.711036 
L 170.482194 -67.580023 
L 171.726011 -66.117135 
L 172.969829 -68.164232 
L 174.213647 -68.057629 
L 175.457465 -69.742213 
L 176.701283 -72.329046 
L 177.945101 -68.764832 
L 179.188919 -70.59505 
L 180.432737 -69.507549 
L 181.676555 -70.577151 
L 182.920372 -68.910696 
L 184.16419 -67.912791 
L 185.408008 -66.659268 
L 186.651826 -68.885545 
L 187.895644 -68.439444 
L 189.139462 -68.782102 
L 190.38328 -70.425405 
L 191.627098 -73.719788 
L 192.870915 -69.618255 
L 194.114733 -70.50222 
L 195.358551 -69.792243 
L 196.602369 -67.275369 
L 197.846187 -70.389368 
L 199.090005 -68.439067 
L 200.333823 -70.446757 
L 201.577641 -70.59191 
L 202.821459 -72.599579 
L 204.065276 -72.098591 
L 205.309094 -74.38905 
L 206.552912 -65.643161 
L 207.79673 -66.352248 
L 209.040548 -69.941771 
L 210.284366 -65.808765 
L 211.528184 -65.632338 
L 212.772002 -72.69156 
L 214.01582 -68.202645 
L 215.259637 -75.181818 
L 216.503455 -76.032174 
L 217.747273 -68.830814 
L 218.991091 -74.644887 
L 220.234909 -75.487781 
L 221.478727 -74.317541 
L 222.722545 -77.432378 
L 223.966363 -77.387811 
L 225.21018 -74.834774 
L 226.453998 -75.322501 
L 227.697816 -75.313175 
L 228.941634 -75.288578 
L 230.185452 -78.165089 
L 231.42927 -74.872443 
L 232.673088 -77.369222 
L 233.916906 -78.695949 
L 235.160724 -72.362257 
L 236.404541 -78.565147 
L 237.648359 -80.709511 
L 238.892177 -81.353569 
L 240.135995 -73.451987 
L 241.379813 -78.412888 
L 242.623631 -86.511788 
L 243.867449 -81.500438 
L 245.111267 -79.617845 
L 246.355085 -77.545921 
L 247.598902 -76.354737 
L 248.84272 -76.586344 
L 250.086538 -79.71843 
L 251.330356 -83.285575 
L 252.574174 -82.855812 
L 253.817992 -78.207426 
L 255.06181 -79.20147 
L 256.305628 -96.035949 
L 257.549445 -86.326465 
L 258.793263 -92.88451 
L 260.037081 -89.454374 
L 261.280899 -88.047975 
L 262.524717 -86.177712 
L 263.768535 -90.193407 
L 265.012353 -96.054015 
L 266.256171 -90.970559 
L 267.499989 -103.941373 
L 268.743806 -144.799236 
L 269.987624 -187.604555 
L 271.231442 -177.463821 
L 272.47526 -211.276289 
L 273.719078 -194.568886 
L 274.962896 -162.036746 
L 276.206714 -195.30099 
L 277.450532 -208.847806 
L 278.69435 -204.380787 
L 279.938167 -203.736876 
L 281.181985 -190.102767 
L 282.425803 -199.18292 
L 283.669621 -192.520836 
L 284.913439 -237.744788 
L 286.157257 -193.578705 
L 287.401075 -219.227515 
L 288.644893 -202.89439 
L 289.88871 -182.063862 
L 291.132528 -236.275201 
L 292.376346 -179.74776 
L 293.620164 -203.237614 
L 294.863982 -221.362816 
L 296.1078 -212.197913 
L 297.351618 -218.051937 
L 298.595436 -234.650163 
L 299.839254 -203.488606 
L 301.083071 -173.30872 
L 302.326889 -207.289995 
L 303.570707 -228.224018 
L 304.814525 -210.978124 
L 306.058343 -218.106532 
L 307.302161 -241.661929 
L 308.545979 -219.935315 
L 309.789797 -237.216524 
L 311.033615 -183.476709 
L 312.277432 -173.084042 
L 313.52125 -221.470968 
L 314.765068 -221.47304 
L 316.008886 -169.810855 
L 317.252704 -193.501513 
L 318.496522 -212.013448 
L 319.74034 -204.421157 
L 320.984158 -232.4749 
L 322.227976 -185.302917 
L 323.471793 -196.139602 
L 324.715611 -227.939732 
L 325.959429 -194.46739 
L 327.203247 -220.875423 
L 327.203247 -311.650988 
L 327.203247 -311.650988 
L 325.959429 -285.046359 
L 324.715611 -310.749146 
L 323.471793 -291.605127 
L 322.227976 -282.823955 
L 320.984158 -313.176363 
L 319.74034 -301.452929 
L 318.496522 -299.859489 
L 317.252704 -291.077961 
L 316.008886 -269.05223 
L 314.765068 -304.552945 
L 313.52125 -308.699149 
L 312.277432 -266.724646 
L 311.033615 -280.966598 
L 309.789797 -318.027729 
L 308.545979 -307.359935 
L 307.302161 -326.287869 
L 306.058343 -307.413451 
L 304.814525 -301.44466 
L 303.570707 -309.595925 
L 302.326889 -297.477028 
L 301.083071 -266.010011 
L 299.839254 -290.284062 
L 298.595436 -319.405126 
L 297.351618 -307.435358 
L 296.1078 -301.489321 
L 294.863982 -309.949396 
L 293.620164 -291.354805 
L 292.376346 -275.041076 
L 291.132528 -317.26835 
L 289.88871 -281.800982 
L 288.644893 -292.443331 
L 287.401075 -306.62825 
L 286.157257 -285.851887 
L 284.913439 -318.716323 
L 283.669621 -290.230755 
L 282.425803 -289.880519 
L 281.181985 -280.370414 
L 279.938167 -290.238867 
L 278.69435 -291.933111 
L 277.450532 -297.820367 
L 276.206714 -283.070655 
L 274.962896 -260.657007 
L 273.719078 -288.806845 
L 272.47526 -298.934683 
L 271.231442 -272.848103 
L 269.987624 -276.157202 
L 268.743806 -233.220495 
L 267.499989 -170.243705 
L 266.256171 -135.816622 
L 265.012353 -128.023224 
L 263.768535 -107.865264 
L 262.524717 -104.668599 
L 261.280899 -105.683209 
L 260.037081 -105.895892 
L 258.793263 -108.433742 
L 257.549445 -104.60112 
L 256.305628 -109.167991 
L 255.06181 -96.148278 
L 253.817992 -95.043256 
L 252.574174 -98.450281 
L 251.330356 -96.191976 
L 250.086538 -93.796013 
L 248.84272 -89.333976 
L 247.598902 -90.663393 
L 246.355085 -91.04863 
L 245.111267 -91.734241 
L 243.867449 -93.028092 
L 242.623631 -94.619376 
L 241.379813 -89.915171 
L 240.135995 -85.77084 
L 238.892177 -91.984301 
L 237.648359 -90.976138 
L 236.404541 -89.275237 
L 235.160724 -82.991576 
L 233.916906 -88.898624 
L 232.673088 -87.796816 
L 231.42927 -85.853464 
L 230.185452 -89.204608 
L 228.941634 -86.933449 
L 227.697816 -87.266144 
L 226.453998 -86.012527 
L 225.21018 -84.930218 
L 223.966363 -86.38399 
L 222.722545 -85.272269 
L 221.478727 -83.059986 
L 220.234909 -83.760501 
L 218.991091 -82.052588 
L 217.747273 -78.491315 
L 216.503455 -82.909433 
L 215.259637 -81.751754 
L 214.01582 -77.064086 
L 212.772002 -80.458258 
L 211.528184 -73.692773 
L 210.284366 -74.58082 
L 209.040548 -78.141088 
L 207.79673 -74.810711 
L 206.552912 -74.097542 
L 205.309094 -81.411785 
L 204.065276 -79.400169 
L 202.821459 -79.89045 
L 201.577641 -78.092062 
L 200.333823 -78.471711 
L 199.090005 -76.57189 
L 197.846187 -78.313569 
L 196.602369 -75.367068 
L 195.358551 -77.246761 
L 194.114733 -77.703183 
L 192.870915 -76.891061 
L 191.627098 -79.533107 
L 190.38328 -77.290366 
L 189.139462 -75.881465 
L 187.895644 -75.546279 
L 186.651826 -75.604411 
L 185.408008 -73.818164 
L 184.16419 -75.105935 
L 182.920372 -76.508169 
L 181.676555 -77.41694 
L 180.432737 -76.818851 
L 179.188919 -77.455112 
L 177.945101 -76.391224 
L 176.701283 -78.370456 
L 175.457465 -76.726451 
L 174.213647 -75.28502 
L 172.969829 -75.706922 
L 171.726011 -72.73977 
L 170.482194 -74.434004 
L 169.238376 -73.593162 
L 167.994558 -71.658623 
L 166.75074 -75.015816 
L 165.506922 -75.111367 
L 164.263104 -71.733837 
L 163.019286 -70.382324 
L 161.775468 -72.758233 
L 160.53165 -69.350088 
L 159.287833 -69.173034 
L 158.044015 -70.186011 
L 156.800197 -69.917927 
L 155.556379 -66.861955 
L 154.312561 -68.974805 
L 153.068743 -66.856795 
L 151.824925 -67.556379 
L 150.581107 -70.822648 
L 149.33729 -70.484919 
L 148.093472 -69.854866 
L 146.849654 -68.120963 
L 145.605836 -68.274593 
L 144.362018 -67.643336 
L 143.1182 -66.338537 
L 141.874382 -66.395988 
L 140.630564 -65.427756 
L 139.386746 -65.62475 
L 138.142929 -63.995012 
L 136.899111 -63.896217 
L 135.655293 -64.835854 
L 134.411475 -65.196233 
L 133.167657 -64.66621 
L 131.923839 -66.026587 
L 130.680021 -64.344212 
L 129.436203 -64.545215 
L 128.192385 -66.374061 
L 126.948568 -65.364537 
L 125.70475 -64.585825 
L 124.460932 -63.980065 
L 123.217114 -65.183348 
L 121.973296 -63.660967 
L 120.729478 -64.484926 
L 119.48566 -64.257485 
L 118.241842 -65.023386 
L 116.998025 -64.206638 
L 115.754207 -64.722719 
L 114.510389 -64.505431 
L 113.266571 -65.183181 
L 112.022753 -64.215608 
L 110.778935 -63.439732 
L 109.535117 -65.78959 
L 108.291299 -65.134751 
L 107.047481 -64.376062 
L 105.803664 -65.189335 
L 104.559846 -65.603775 
L 103.316028 -66.204814 
L 102.07221 -64.706642 
L 100.828392 -64.613416 
L 99.584574 -64.611354 
L 98.340756 -64.588861 
L 97.096938 -64.719925 
L 95.85312 -64.686442 
L 94.609303 -65.369415 
L 93.365485 -65.152503 
L 92.121667 -65.167209 
L 90.877849 -62.870239 
L 89.634031 -64.160877 
L 88.390213 -62.970552 
L 87.146395 -61.271252 
L 85.902577 -59.505521 
L 84.658759 -58.751039 
L 83.414942 -58.073907 
L 82.171124 -57.562232 
L 80.927306 -56.839203 
L 79.683488 -56.467426 
z
" style="stroke: #d499a7; stroke-opacity: 0.2"/>
    </defs>
    <g clip-path="url(#p15c7e418b5)">
     <use xlink:href="#ma319bcee39" x="0" y="362.097812" style="fill: #d499a7; fill-opacity: 0.2; stroke: #d499a7; stroke-opacity: 0.2"/>
    </g>
   </g>
   <g id="PolyCollection_3">
    <defs>
     <path id="m05c9be3b70" d="M 79.683488 -56.45653 
L 79.683488 -56.451924 
L 80.927306 -56.456948 
L 82.171124 -56.461554 
L 83.414942 -56.477463 
L 84.658759 -56.519738 
L 85.902577 -56.541938 
L 87.146395 -56.593005 
L 88.390213 -56.620627 
L 89.634031 -56.680915 
L 90.877849 -56.651598 
L 92.121667 -56.741172 
L 93.365485 -56.785979 
L 94.609303 -56.871419 
L 95.85312 -56.809446 
L 97.096938 -56.788115 
L 98.340756 -56.990687 
L 99.584574 -56.813999 
L 100.828392 -56.818238 
L 102.07221 -56.910345 
L 103.316028 -57.073186 
L 104.559846 -57.410601 
L 105.803664 -57.606474 
L 107.047481 -57.357922 
L 108.291299 -57.295823 
L 109.535117 -57.464588 
L 110.778935 -57.39467 
L 112.022753 -58.025645 
L 113.266571 -57.586022 
L 114.510389 -57.295477 
L 115.754207 -57.716825 
L 116.998025 -57.353076 
L 118.241842 -57.822203 
L 119.48566 -57.879917 
L 120.729478 -57.902556 
L 121.973296 -58.181829 
L 123.217114 -58.206122 
L 124.460932 -58.597105 
L 125.70475 -58.597105 
L 126.948568 -58.363907 
L 128.192385 -57.955759 
L 129.436203 -58.001174 
L 130.680021 -57.86406 
L 131.923839 -57.421371 
L 133.167657 -58.655342 
L 134.411475 -58.355251 
L 135.655293 -58.49876 
L 136.899111 -58.389132 
L 138.142929 -58.402875 
L 139.386746 -57.712387 
L 140.630564 -58.447526 
L 141.874382 -57.734168 
L 143.1182 -57.594375 
L 144.362018 -58.012645 
L 145.605836 -58.267111 
L 146.849654 -58.230227 
L 148.093472 -58.41824 
L 149.33729 -58.042758 
L 150.581107 -57.624174 
L 151.824925 -58.112518 
L 153.068743 -58.55684 
L 154.312561 -59.290493 
L 155.556379 -58.896474 
L 156.800197 -58.095489 
L 158.044015 -58.449713 
L 159.287833 -58.601658 
L 160.53165 -58.223183 
L 161.775468 -58.297873 
L 163.019286 -58.636523 
L 164.263104 -59.210443 
L 165.506922 -58.601303 
L 166.75074 -58.705833 
L 167.994558 -58.922055 
L 169.238376 -59.016234 
L 170.482194 -58.758303 
L 171.726011 -58.908636 
L 172.969829 -58.001749 
L 174.213647 -58.893596 
L 175.457465 -58.487896 
L 176.701283 -58.918915 
L 177.945101 -58.462336 
L 179.188919 -58.350144 
L 180.432737 -59.390774 
L 181.676555 -58.52947 
L 182.920372 -58.457312 
L 184.16419 -58.46937 
L 185.408008 -58.489487 
L 186.651826 -58.070233 
L 187.895644 -58.91568 
L 189.139462 -58.311511 
L 190.38328 -58.50346 
L 191.627098 -58.671974 
L 192.870915 -59.09868 
L 194.114733 -57.766112 
L 195.358551 -58.904313 
L 196.602369 -58.800086 
L 197.846187 -58.696811 
L 199.090005 -58.391414 
L 200.333823 -59.071048 
L 201.577641 -58.922902 
L 202.821459 -58.607959 
L 204.065276 -58.45008 
L 205.309094 -59.153955 
L 206.552912 -58.900179 
L 207.79673 -59.408976 
L 209.040548 -58.118244 
L 210.284366 -59.101904 
L 211.528184 -58.665798 
L 212.772002 -58.755686 
L 214.01582 -58.70554 
L 215.259637 -58.472709 
L 216.503455 -58.51377 
L 217.747273 -58.646927 
L 218.991091 -58.871333 
L 220.234909 -57.652517 
L 221.478727 -58.774129 
L 222.722545 -58.83874 
L 223.966363 -59.331878 
L 225.21018 -58.868831 
L 226.453998 -58.701406 
L 227.697816 -58.863001 
L 228.941634 -59.199464 
L 230.185452 -59.700358 
L 231.42927 -58.937953 
L 232.673088 -58.945908 
L 233.916906 -59.866015 
L 235.160724 -58.666604 
L 236.404541 -58.649334 
L 237.648359 -59.11819 
L 238.892177 -59.357019 
L 240.135995 -59.053077 
L 241.379813 -58.755854 
L 242.623631 -59.197862 
L 243.867449 -58.581573 
L 245.111267 -58.976063 
L 246.355085 -59.588134 
L 247.598902 -58.60035 
L 248.84272 -58.095112 
L 250.086538 -59.596937 
L 251.330356 -59.557174 
L 252.574174 -59.344815 
L 253.817992 -57.810031 
L 255.06181 -58.785004 
L 256.305628 -57.99907 
L 257.549445 -58.576235 
L 258.793263 -59.561203 
L 260.037081 -58.819533 
L 261.280899 -58.417486 
L 262.524717 -58.253369 
L 263.768535 -58.136989 
L 265.012353 -58.805675 
L 266.256171 -59.703613 
L 267.499989 -59.1072 
L 268.743806 -58.134865 
L 269.987624 -58.75667 
L 271.231442 -59.269538 
L 272.47526 -58.431334 
L 273.719078 -57.85105 
L 274.962896 -58.073216 
L 276.206714 -59.367465 
L 277.450532 -58.924012 
L 278.69435 -59.093457 
L 279.938167 -59.505657 
L 281.181985 -58.571399 
L 282.425803 -59.134235 
L 283.669621 -59.056039 
L 284.913439 -58.740227 
L 286.157257 -57.982365 
L 287.401075 -58.922724 
L 288.644893 -59.053883 
L 289.88871 -58.885871 
L 291.132528 -58.164925 
L 292.376346 -58.628506 
L 293.620164 -58.671848 
L 294.863982 -59.042631 
L 296.1078 -58.705174 
L 297.351618 -59.174093 
L 298.595436 -58.005444 
L 299.839254 -58.33256 
L 301.083071 -59.896096 
L 302.326889 -59.989386 
L 303.570707 -60.720537 
L 304.814525 -64.960303 
L 306.058343 -65.140341 
L 307.302161 -72.073303 
L 308.545979 -71.026958 
L 309.789797 -75.02958 
L 311.033615 -72.537093 
L 312.277432 -70.185875 
L 313.52125 -75.206101 
L 314.765068 -74.890509 
L 316.008886 -78.081857 
L 317.252704 -82.246221 
L 318.496522 -78.243568 
L 319.74034 -80.927177 
L 320.984158 -75.22043 
L 322.227976 -82.436454 
L 323.471793 -73.247436 
L 324.715611 -77.570099 
L 325.959429 -79.478157 
L 327.203247 -72.259987 
L 327.203247 -87.039791 
L 327.203247 -87.039791 
L 325.959429 -93.801864 
L 324.715611 -92.491653 
L 323.471793 -88.540841 
L 322.227976 -96.290855 
L 320.984158 -90.593329 
L 319.74034 -95.014745 
L 318.496522 -93.62707 
L 317.252704 -95.271074 
L 316.008886 -91.294315 
L 314.765068 -87.292918 
L 313.52125 -87.90993 
L 312.277432 -82.21255 
L 311.033615 -82.460684 
L 309.789797 -82.79633 
L 308.545979 -79.32437 
L 307.302161 -79.093935 
L 306.058343 -72.266246 
L 304.814525 -71.683157 
L 303.570707 -66.221341 
L 302.326889 -63.824143 
L 301.083071 -62.563356 
L 299.839254 -60.080969 
L 298.595436 -59.729089 
L 297.351618 -60.770923 
L 296.1078 -60.43892 
L 294.863982 -60.600086 
L 293.620164 -60.294908 
L 292.376346 -60.433079 
L 291.132528 -59.849833 
L 289.88871 -60.469116 
L 288.644893 -60.625635 
L 287.401075 -60.521795 
L 286.157257 -59.818967 
L 284.913439 -60.332599 
L 283.669621 -60.618162 
L 282.425803 -60.685557 
L 281.181985 -60.31961 
L 279.938167 -60.915919 
L 278.69435 -60.669627 
L 277.450532 -60.654534 
L 276.206714 -60.977766 
L 274.962896 -59.801718 
L 273.719078 -59.509226 
L 272.47526 -60.08188 
L 271.231442 -60.8489 
L 269.987624 -60.374047 
L 268.743806 -59.769491 
L 267.499989 -60.781055 
L 266.256171 -61.156537 
L 265.012353 -60.681517 
L 263.768535 -59.794705 
L 262.524717 -60.079776 
L 261.280899 -60.02783 
L 260.037081 -60.473669 
L 258.793263 -61.08258 
L 257.549445 -60.345138 
L 256.305628 -59.587035 
L 255.06181 -60.476778 
L 253.817992 -59.446635 
L 252.574174 -60.804501 
L 251.330356 -60.974396 
L 250.086538 -61.0245 
L 248.84272 -59.876691 
L 247.598902 -60.250038 
L 246.355085 -61.074667 
L 245.111267 -60.626096 
L 243.867449 -60.327313 
L 242.623631 -60.743124 
L 241.379813 -60.334766 
L 240.135995 -60.771499 
L 238.892177 -60.919959 
L 237.648359 -60.637766 
L 236.404541 -60.389538 
L 235.160724 -60.366061 
L 233.916906 -61.306797 
L 232.673088 -60.531477 
L 231.42927 -60.655884 
L 230.185452 -61.106255 
L 228.941634 -60.900271 
L 227.697816 -60.433456 
L 226.453998 -60.27991 
L 225.21018 -60.536605 
L 223.966363 -60.891542 
L 222.722545 -60.405405 
L 221.478727 -60.387204 
L 220.234909 -59.314482 
L 218.991091 -60.506754 
L 217.747273 -60.309541 
L 216.503455 -60.187457 
L 215.259637 -60.150897 
L 214.01582 -60.247201 
L 212.772002 -60.33486 
L 211.528184 -60.239665 
L 210.284366 -60.526913 
L 209.040548 -59.702284 
L 207.79673 -60.930938 
L 206.552912 -60.528933 
L 205.309094 -60.696097 
L 204.065276 -60.164347 
L 202.821459 -60.157868 
L 201.577641 -60.444362 
L 200.333823 -60.573364 
L 199.090005 -60.109072 
L 197.846187 -60.219245 
L 196.602369 -60.355532 
L 195.358551 -60.438951 
L 194.114733 -59.418249 
L 192.870915 -60.589211 
L 191.627098 -60.259897 
L 190.38328 -60.033775 
L 189.139462 -59.859651 
L 187.895644 -60.407279 
L 186.651826 -59.667032 
L 185.408008 -60.02672 
L 184.16419 -60.07785 
L 182.920372 -60.103985 
L 181.676555 -60.134109 
L 180.432737 -60.745123 
L 179.188919 -59.996838 
L 177.945101 -59.994137 
L 176.701283 -60.466824 
L 175.457465 -60.00811 
L 174.213647 -60.414752 
L 172.969829 -59.627144 
L 171.726011 -60.500966 
L 170.482194 -60.360315 
L 169.238376 -60.50935 
L 167.994558 -60.359404 
L 166.75074 -60.271536 
L 165.506922 -60.101651 
L 164.263104 -60.688017 
L 163.019286 -60.240042 
L 161.775468 -59.846662 
L 160.53165 -59.826555 
L 159.287833 -60.114327 
L 158.044015 -59.994273 
L 156.800197 -59.499125 
L 155.556379 -60.276121 
L 154.312561 -60.650441 
L 153.068743 -60.028196 
L 151.824925 -59.718172 
L 150.581107 -59.164066 
L 149.33729 -59.663149 
L 148.093472 -59.886697 
L 146.849654 -59.713075 
L 145.605836 -59.751101 
L 144.362018 -59.378863 
L 143.1182 -58.906721 
L 141.874382 -58.986163 
L 140.630564 -59.856647 
L 139.386746 -59.106059 
L 138.142929 -59.777006 
L 136.899111 -59.826859 
L 135.655293 -59.892883 
L 134.411475 -59.740644 
L 133.167657 -59.971247 
L 131.923839 -58.772705 
L 130.680021 -59.14668 
L 129.436203 -59.287259 
L 128.192385 -59.329502 
L 126.948568 -59.652337 
L 125.70475 -59.833306 
L 124.460932 -59.872179 
L 123.217114 -59.474728 
L 121.973296 -59.454192 
L 120.729478 -59.06705 
L 119.48566 -59.094305 
L 118.241842 -58.857779 
L 116.998025 -58.369465 
L 115.754207 -58.8078 
L 114.510389 -58.258068 
L 113.266571 -58.541088 
L 112.022753 -58.885254 
L 110.778935 -58.287459 
L 109.535117 -58.238024 
L 108.291299 -58.074304 
L 107.047481 -58.163156 
L 105.803664 -58.355775 
L 104.559846 -58.140443 
L 103.316028 -57.793933 
L 102.07221 -57.464703 
L 100.828392 -57.204333 
L 99.584574 -57.219364 
L 98.340756 -57.31438 
L 97.096938 -57.084176 
L 95.85312 -57.064038 
L 94.609303 -57.131035 
L 93.365485 -57.033088 
L 92.121667 -57.023867 
L 90.877849 -56.867745 
L 89.634031 -56.898235 
L 88.390213 -56.80236 
L 87.146395 -56.732851 
L 85.902577 -56.657082 
L 84.658759 -56.615205 
L 83.414942 -56.524783 
L 82.171124 -56.484162 
L 80.927306 -56.463647 
L 79.683488 -56.45653 
z
" style="stroke: #a9678f; stroke-opacity: 0.2"/>
    </defs>
    <g clip-path="url(#p15c7e418b5)">
     <use xlink:href="#m05c9be3b70" x="0" y="362.097812" style="fill: #a9678f; fill-opacity: 0.2; stroke: #a9678f; stroke-opacity: 0.2"/>
    </g>
   </g>
   <g id="PolyCollection_4">
    <defs>
     <path id="mc11705023e" d="M 79.683488 -56.455692 
L 79.683488 -56.451506 
L 80.927306 -56.468671 
L 82.171124 -56.503002 
L 83.414942 -56.562034 
L 84.658759 -56.568722 
L 85.902577 -56.605157 
L 87.146395 -56.577525 
L 88.390213 -56.588808 
L 89.634031 -56.552823 
L 90.877849 -56.573338 
L 92.121667 -56.585029 
L 93.365485 -56.582549 
L 94.609303 -56.584202 
L 95.85312 -56.542765 
L 97.096938 -56.585898 
L 98.340756 -56.563709 
L 99.584574 -56.564965 
L 100.828392 -56.556581 
L 102.07221 -56.55072 
L 103.316028 -56.555744 
L 104.559846 -56.538997 
L 105.803664 -56.572909 
L 107.047481 -56.559103 
L 108.291299 -56.567466 
L 109.535117 -56.539834 
L 110.778935 -56.524343 
L 112.022753 -56.527693 
L 113.266571 -56.530194 
L 114.510389 -56.533983 
L 115.754207 -56.537333 
L 116.998025 -56.540263 
L 118.241842 -56.518074 
L 119.48566 -56.524762 
L 120.729478 -56.514306 
L 121.973296 -56.507607 
L 123.217114 -56.509701 
L 124.460932 -56.50677 
L 125.70475 -56.502583 
L 126.948568 -56.498815 
L 128.192385 -56.50049 
L 129.436203 -56.507178 
L 130.680021 -56.492106 
L 131.923839 -56.494628 
L 133.167657 -56.492106 
L 134.411475 -56.496303 
L 135.655293 -56.489186 
L 136.899111 -56.498805 
L 138.142929 -56.490442 
L 139.386746 -56.491687 
L 140.630564 -56.485418 
L 141.874382 -56.484999 
L 143.1182 -56.484162 
L 144.362018 -56.487092 
L 145.605836 -56.476207 
L 146.849654 -56.481231 
L 148.093472 -56.490442 
L 149.33729 -56.477463 
L 150.581107 -56.477463 
L 151.824925 -56.47537 
L 153.068743 -56.477044 
L 154.312561 -56.477882 
L 155.556379 -56.481231 
L 156.800197 -56.473695 
L 158.044015 -56.476207 
L 159.287833 -56.477463 
L 160.53165 -56.474103 
L 161.775468 -56.474532 
L 163.019286 -56.477034 
L 164.263104 -56.477044 
L 165.506922 -56.47202 
L 166.75074 -56.469927 
L 167.994558 -56.470346 
L 169.238376 -56.471602 
L 170.482194 -56.474114 
L 171.726011 -56.473695 
L 172.969829 -56.474114 
L 174.213647 -56.469508 
L 175.457465 -56.472429 
L 176.701283 -56.472439 
L 177.945101 -56.469508 
L 179.188919 -56.469927 
L 180.432737 -56.466578 
L 181.676555 -56.474532 
L 182.920372 -56.470764 
L 184.16419 -56.470346 
L 185.408008 -56.467415 
L 186.651826 -56.468671 
L 187.895644 -56.466996 
L 189.139462 -56.46909 
L 190.38328 -56.46909 
L 191.627098 -56.469508 
L 192.870915 -56.466578 
L 194.114733 -56.468252 
L 195.358551 -56.467415 
L 196.602369 -56.466996 
L 197.846187 -56.46281 
L 199.090005 -56.464066 
L 200.333823 -56.46281 
L 201.577641 -56.467834 
L 202.821459 -56.466159 
L 204.065276 -56.460298 
L 205.309094 -56.467415 
L 206.552912 -56.464903 
L 207.79673 -56.463647 
L 209.040548 -56.466578 
L 210.284366 -56.461554 
L 211.528184 -56.466996 
L 212.772002 -56.465322 
L 214.01582 -56.464903 
L 215.259637 -56.463228 
L 216.503455 -56.461972 
L 217.747273 -56.46281 
L 218.991091 -56.463647 
L 220.234909 -56.464055 
L 221.478727 -56.460716 
L 222.722545 -56.466996 
L 223.966363 -56.463647 
L 225.21018 -56.461135 
L 226.453998 -56.464903 
L 227.697816 -56.459879 
L 228.941634 -56.461135 
L 230.185452 -56.464484 
L 231.42927 -56.463647 
L 232.673088 -56.48165 
L 233.916906 -56.484999 
L 235.160724 -56.502991 
L 236.404541 -56.499652 
L 237.648359 -56.514714 
L 238.892177 -56.503421 
L 240.135995 -56.49086 
L 241.379813 -56.50004 
L 242.623631 -56.505933 
L 243.867449 -56.521842 
L 245.111267 -56.499642 
L 246.355085 -56.515143 
L 247.598902 -56.504258 
L 248.84272 -56.528949 
L 250.086538 -56.525181 
L 251.330356 -56.521423 
L 252.574174 -56.505922 
L 253.817992 -56.507189 
L 255.06181 -56.511794 
L 256.305628 -56.51597 
L 257.549445 -56.565792 
L 258.793263 -56.567477 
L 260.037081 -56.584223 
L 261.280899 -56.594261 
L 262.524717 -56.617277 
L 263.768535 -56.683856 
L 265.012353 -56.649525 
L 266.256171 -56.749587 
L 267.499989 -56.904452 
L 268.743806 -56.999961 
L 269.987624 -57.197551 
L 271.231442 -57.7443 
L 272.47526 -57.877897 
L 273.719078 -57.910291 
L 274.962896 -57.307252 
L 276.206714 -57.454184 
L 277.450532 -57.328584 
L 278.69435 -57.98292 
L 279.938167 -57.435783 
L 281.181985 -57.514493 
L 282.425803 -57.875625 
L 283.669621 -58.487362 
L 284.913439 -58.231232 
L 286.157257 -58.275631 
L 287.401075 -57.849752 
L 288.644893 -57.966026 
L 289.88871 -58.585393 
L 291.132528 -58.021542 
L 292.376346 -58.190223 
L 293.620164 -58.239364 
L 294.863982 -58.422176 
L 296.1078 -58.16415 
L 297.351618 -58.550675 
L 298.595436 -58.159964 
L 299.839254 -58.730305 
L 301.083071 -58.412536 
L 302.326889 -58.419622 
L 303.570707 -57.97844 
L 304.814525 -58.439623 
L 306.058343 -57.917262 
L 307.302161 -58.26349 
L 308.545979 -58.134802 
L 309.789797 -58.170943 
L 311.033615 -58.62053 
L 312.277432 -58.613737 
L 313.52125 -58.012603 
L 314.765068 -58.496259 
L 316.008886 -58.692583 
L 317.252704 -58.722067 
L 318.496522 -58.179317 
L 319.74034 -58.167563 
L 320.984158 -58.469883 
L 322.227976 -58.459845 
L 323.471793 -58.259094 
L 324.715611 -58.481197 
L 325.959429 -58.543076 
L 327.203247 -58.787243 
L 327.203247 -59.817753 
L 327.203247 -59.817753 
L 325.959429 -59.668969 
L 324.715611 -59.548193 
L 323.471793 -59.371097 
L 322.227976 -59.54767 
L 320.984158 -59.528746 
L 319.74034 -59.341654 
L 318.496522 -59.302006 
L 317.252704 -59.655644 
L 316.008886 -59.768339 
L 314.765068 -59.62167 
L 313.52125 -59.192702 
L 312.277432 -59.66025 
L 311.033615 -59.694539 
L 309.789797 -59.298468 
L 308.545979 -59.316502 
L 307.302161 -59.395181 
L 306.058343 -59.069949 
L 304.814525 -59.522058 
L 303.570707 -59.187616 
L 302.326889 -59.509037 
L 301.083071 -59.511183 
L 299.839254 -59.747291 
L 298.595436 -59.325117 
L 297.351618 -59.58489 
L 296.1078 -59.336567 
L 294.863982 -59.521734 
L 293.620164 -59.404904 
L 292.376346 -59.306925 
L 291.132528 -59.181241 
L 289.88871 -59.606713 
L 288.644893 -59.063617 
L 287.401075 -58.955694 
L 286.157257 -59.271695 
L 284.913439 -59.249578 
L 283.669621 -59.357563 
L 282.425803 -58.793597 
L 281.181985 -58.509918 
L 279.938167 -58.383375 
L 278.69435 -58.803289 
L 277.450532 -58.185105 
L 276.206714 -58.278729 
L 274.962896 -58.142212 
L 273.719078 -58.660544 
L 272.47526 -58.621085 
L 271.231442 -58.540774 
L 269.987624 -57.961683 
L 268.743806 -57.68533 
L 267.499989 -57.412799 
L 266.256171 -57.065377 
L 265.012353 -56.853877 
L 263.768535 -56.888176 
L 262.524717 -56.778485 
L 261.280899 -56.72364 
L 260.037081 -56.700205 
L 258.793263 -56.66084 
L 257.549445 -56.643695 
L 256.305628 -56.577535 
L 255.06181 -56.569999 
L 253.817992 -56.55701 
L 252.574174 -56.556194 
L 251.330356 -56.590503 
L 250.086538 -56.593026 
L 248.84272 -56.592199 
L 247.598902 -56.551986 
L 246.355085 -56.570418 
L 245.111267 -56.551986 
L 243.867449 -56.56329 
L 242.623631 -56.545716 
L 241.379813 -56.539426 
L 240.135995 -56.533565 
L 238.892177 -56.545298 
L 237.648359 -56.553661 
L 236.404541 -56.541101 
L 235.160724 -56.540274 
L 233.916906 -56.523517 
L 232.673088 -56.517666 
L 231.42927 -56.485418 
L 230.185452 -56.478719 
L 228.941634 -56.467415 
L 227.697816 -56.466578 
L 226.453998 -56.470346 
L 225.21018 -56.466996 
L 223.966363 -56.46909 
L 222.722545 -56.473695 
L 221.478727 -56.466996 
L 220.234909 -56.471602 
L 218.991091 -56.470764 
L 217.747273 -56.471602 
L 216.503455 -56.46909 
L 215.259637 -56.471183 
L 214.01582 -56.471602 
L 212.772002 -56.471194 
L 211.528184 -56.474114 
L 210.284366 -56.468252 
L 209.040548 -56.472439 
L 207.79673 -56.470346 
L 206.552912 -56.473276 
L 205.309094 -56.474532 
L 204.065276 -56.466159 
L 202.821459 -56.473695 
L 201.577641 -56.474532 
L 200.333823 -56.470346 
L 199.090005 -56.471602 
L 197.846187 -56.467834 
L 196.602369 -56.479138 
L 195.358551 -56.477463 
L 194.114733 -56.477044 
L 192.870915 -56.476207 
L 191.627098 -56.482079 
L 190.38328 -56.477882 
L 189.139462 -56.474532 
L 187.895644 -56.474951 
L 186.651826 -56.477882 
L 185.408008 -56.474951 
L 184.16419 -56.478719 
L 182.920372 -56.479556 
L 181.676555 -56.484162 
L 180.432737 -56.47537 
L 179.188919 -56.477882 
L 177.945101 -56.478719 
L 176.701283 -56.485428 
L 175.457465 -56.484162 
L 174.213647 -56.479975 
L 172.969829 -56.48165 
L 171.726011 -56.486255 
L 170.482194 -56.488348 
L 169.238376 -56.481231 
L 167.994558 -56.48458 
L 166.75074 -56.47873 
L 165.506922 -56.485418 
L 164.263104 -56.493372 
L 163.019286 -56.494628 
L 161.775468 -56.49086 
L 160.53165 -56.489604 
L 159.287833 -56.488348 
L 158.044015 -56.493372 
L 156.800197 -56.484999 
L 155.556379 -56.497978 
L 154.312561 -56.490442 
L 153.068743 -56.492127 
L 151.824925 -56.491698 
L 150.581107 -56.492116 
L 149.33729 -56.49086 
L 148.093472 -56.506362 
L 146.849654 -56.498815 
L 145.605836 -56.490023 
L 144.362018 -56.505095 
L 143.1182 -56.505933 
L 141.874382 -56.502583 
L 140.630564 -56.505514 
L 139.386746 -56.509701 
L 138.142929 -56.508863 
L 136.899111 -56.524773 
L 135.655293 -56.51013 
L 134.411475 -56.513469 
L 133.167657 -56.51305 
L 131.923839 -56.514725 
L 130.680021 -56.515562 
L 129.436203 -56.536077 
L 128.192385 -56.5319 
L 126.948568 -56.556173 
L 125.70475 -56.537333 
L 124.460932 -56.532309 
L 123.217114 -56.532727 
L 121.973296 -56.541959 
L 120.729478 -56.546135 
L 119.48566 -56.559103 
L 118.241842 -56.565383 
L 116.998025 -56.644962 
L 115.754207 -56.582141 
L 114.510389 -56.602655 
L 113.266571 -56.621066 
L 112.022753 -56.642 
L 110.778935 -56.554498 
L 109.535117 -56.610191 
L 108.291299 -56.649117 
L 107.047481 -56.666314 
L 105.803664 -56.668386 
L 104.559846 -56.732045 
L 103.316028 -56.626519 
L 102.07221 -56.6299 
L 100.828392 -56.631972 
L 99.584574 -56.725733 
L 98.340756 -56.67341 
L 97.096938 -56.740387 
L 95.85312 -56.615634 
L 94.609303 -56.821189 
L 93.365485 -56.678853 
L 92.121667 -57.060783 
L 90.877849 -56.947638 
L 89.634031 -56.678853 
L 88.390213 -56.677189 
L 87.146395 -56.681354 
L 85.902577 -57.096348 
L 84.658759 -56.724058 
L 83.414942 -56.688472 
L 82.171124 -56.558706 
L 80.927306 -56.526887 
L 79.683488 -56.455692 
z
" style="stroke: #6c3f70; stroke-opacity: 0.2"/>
    </defs>
    <g clip-path="url(#p15c7e418b5)">
     <use xlink:href="#mc11705023e" x="0" y="362.097812" style="fill: #6c3f70; fill-opacity: 0.2; stroke: #6c3f70; stroke-opacity: 0.2"/>
    </g>
   </g>
   <g id="PolyCollection_5">
    <defs>
     <path id="m42bba8ead4" d="M 79.683488 -56.457367 
L 79.683488 -56.451924 
L 80.927306 -56.45946 
L 82.171124 -56.461135 
L 83.414942 -56.484989 
L 84.658759 -56.49713 
L 85.902577 -56.538997 
L 87.146395 -56.526437 
L 88.390213 -56.545706 
L 89.634031 -56.550301 
L 90.877849 -56.567027 
L 92.121667 -56.531461 
L 93.365485 -56.562861 
L 94.609303 -56.561186 
L 95.85312 -56.579178 
L 97.096938 -56.574165 
L 98.340756 -56.557 
L 99.584574 -56.587133 
L 100.828392 -56.614723 
L 102.07221 -56.608506 
L 103.316028 -56.604319 
L 104.559846 -56.645757 
L 105.803664 -56.629387 
L 107.047481 -56.738283 
L 108.291299 -56.961851 
L 109.535117 -56.729072 
L 110.778935 -56.865118 
L 112.022753 -56.968969 
L 113.266571 -56.972726 
L 114.510389 -56.988186 
L 115.754207 -56.960595 
L 116.998025 -56.975615 
L 118.241842 -56.887758 
L 119.48566 -56.803187 
L 120.729478 -56.793128 
L 121.973296 -56.799408 
L 123.217114 -56.922852 
L 124.460932 -56.881017 
L 125.70475 -56.863799 
L 126.948568 -56.846697 
L 128.192385 -56.749116 
L 129.436203 -56.814062 
L 130.680021 -56.89274 
L 131.923839 -56.950558 
L 133.167657 -56.794782 
L 134.411475 -56.838763 
L 135.655293 -56.921617 
L 136.899111 -56.834566 
L 138.142929 -56.80527 
L 139.386746 -56.751691 
L 140.630564 -56.807363 
L 141.874382 -56.82278 
L 143.1182 -56.88064 
L 144.362018 -56.927008 
L 145.605836 -56.962689 
L 146.849654 -56.917891 
L 148.093472 -56.919043 
L 149.33729 -56.962657 
L 150.581107 -56.912438 
L 151.824925 -56.955571 
L 153.068743 -57.088708 
L 154.312561 -56.924182 
L 155.556379 -56.915379 
L 156.800197 -56.857603 
L 158.044015 -57.021721 
L 159.287833 -57.034668 
L 160.53165 -56.926275 
L 161.775468 -56.934094 
L 163.019286 -56.842112 
L 164.263104 -56.959266 
L 165.506922 -56.952222 
L 166.75074 -57.007758 
L 167.994558 -56.97146 
L 169.238376 -56.985297 
L 170.482194 -57.076985 
L 171.726011 -56.942593 
L 172.969829 -57.000704 
L 174.213647 -56.865945 
L 175.457465 -57.065273 
L 176.701283 -57.064749 
L 177.945101 -56.929551 
L 179.188919 -56.955582 
L 180.432737 -56.828715 
L 181.676555 -56.980241 
L 182.920372 -56.967702 
L 184.16419 -56.791035 
L 185.408008 -57.008732 
L 186.651826 -56.954713 
L 187.895644 -56.96226 
L 189.139462 -57.067345 
L 190.38328 -57.102953 
L 191.627098 -57.147625 
L 192.870915 -56.917054 
L 194.114733 -57.130585 
L 195.358551 -57.076985 
L 196.602369 -57.251936 
L 197.846187 -57.02799 
L 199.090005 -57.313522 
L 200.333823 -57.155255 
L 201.577641 -57.153612 
L 202.821459 -57.124713 
L 204.065276 -57.225476 
L 205.309094 -57.173247 
L 206.552912 -57.036762 
L 207.79673 -57.093313 
L 209.040548 -57.079424 
L 210.284366 -57.146903 
L 211.528184 -57.188707 
L 212.772002 -57.293866 
L 214.01582 -57.28544 
L 215.259637 -57.309754 
L 216.503455 -57.311439 
L 217.747273 -56.999825 
L 218.991091 -57.069365 
L 220.234909 -57.252407 
L 221.478727 -57.097866 
L 222.722545 -57.254469 
L 223.966363 -57.042623 
L 225.21018 -57.097018 
L 226.453998 -56.893179 
L 227.697816 -57.350804 
L 228.941634 -57.416075 
L 230.185452 -57.179862 
L 231.42927 -57.166894 
L 232.673088 -57.211325 
L 233.916906 -57.190727 
L 235.160724 -56.961014 
L 236.404541 -57.079916 
L 237.648359 -57.175738 
L 238.892177 -57.353683 
L 240.135995 -57.156909 
L 241.379813 -57.20335 
L 242.623631 -57.253579 
L 243.867449 -57.189167 
L 245.111267 -57.336371 
L 246.355085 -57.348261 
L 247.598902 -57.041827 
L 248.84272 -57.30809 
L 250.086538 -57.14258 
L 251.330356 -57.241092 
L 252.574174 -57.138864 
L 253.817992 -57.249895 
L 255.06181 -57.189575 
L 256.305628 -56.932963 
L 257.549445 -57.306405 
L 258.793263 -57.048526 
L 260.037081 -57.267364 
L 261.280899 -57.48728 
L 262.524717 -57.321403 
L 263.768535 -57.233064 
L 265.012353 -57.125551 
L 266.256171 -57.16321 
L 267.499989 -57.138519 
L 268.743806 -57.295948 
L 269.987624 -57.004472 
L 271.231442 -57.15515 
L 272.47526 -57.423569 
L 273.719078 -57.213031 
L 274.962896 -57.317374 
L 276.206714 -57.094998 
L 277.450532 -57.369226 
L 278.69435 -56.903248 
L 279.938167 -57.180396 
L 281.181985 -57.191187 
L 282.425803 -57.311648 
L 283.669621 -57.185818 
L 284.913439 -57.030513 
L 286.157257 -57.406027 
L 287.401075 -57.079434 
L 288.644893 -56.994507 
L 289.88871 -57.195845 
L 291.132528 -57.169511 
L 292.376346 -57.172023 
L 293.620164 -57.079696 
L 294.863982 -57.100441 
L 296.1078 -57.063127 
L 297.351618 -57.15357 
L 298.595436 -57.272074 
L 299.839254 -57.00958 
L 301.083071 -57.211367 
L 302.326889 -57.152345 
L 303.570707 -57.2767 
L 304.814525 -57.033779 
L 306.058343 -57.132249 
L 307.302161 -57.303443 
L 308.545979 -57.306405 
L 309.789797 -57.223393 
L 311.033615 -57.187932 
L 312.277432 -57.358728 
L 313.52125 -57.177455 
L 314.765068 -57.020433 
L 316.008886 -57.214685 
L 317.252704 -57.35991 
L 318.496522 -57.121793 
L 319.74034 -57.32896 
L 320.984158 -57.210121 
L 322.227976 -57.421957 
L 323.471793 -57.11635 
L 324.715611 -57.219761 
L 325.959429 -57.186927 
L 327.203247 -57.133809 
L 327.203247 -57.563561 
L 327.203247 -57.563561 
L 325.959429 -57.596782 
L 324.715611 -57.65145 
L 323.471793 -57.562713 
L 322.227976 -57.77705 
L 320.984158 -57.63216 
L 319.74034 -57.746037 
L 318.496522 -57.563132 
L 317.252704 -57.756127 
L 316.008886 -57.638492 
L 314.765068 -57.467225 
L 313.52125 -57.615413 
L 312.277432 -57.717233 
L 311.033615 -57.59494 
L 309.789797 -57.636336 
L 308.545979 -57.665643 
L 307.302161 -57.683227 
L 306.058343 -57.55972 
L 304.814525 -57.473495 
L 303.570707 -57.662764 
L 302.326889 -57.540063 
L 301.083071 -57.58194 
L 299.839254 -57.430069 
L 298.595436 -57.63554 
L 297.351618 -57.556213 
L 296.1078 -57.481031 
L 294.863982 -57.521234 
L 293.620164 -57.489394 
L 292.376346 -57.584013 
L 291.132528 -57.576466 
L 289.88871 -57.619589 
L 288.644893 -57.424521 
L 287.401075 -57.513687 
L 286.157257 -57.737245 
L 284.913439 -57.460223 
L 283.669621 -57.585803 
L 282.425803 -57.652256 
L 281.181985 -57.56937 
L 279.938167 -57.571892 
L 278.69435 -57.32738 
L 277.450532 -57.682818 
L 276.206714 -57.5317 
L 274.962896 -57.661875 
L 273.719078 -57.584934 
L 272.47526 -57.687424 
L 271.231442 -57.535447 
L 269.987624 -57.420785 
L 268.743806 -57.630485 
L 267.499989 -57.532538 
L 266.256171 -57.55345 
L 265.012353 -57.516607 
L 263.768535 -57.611216 
L 262.524717 -57.652245 
L 261.280899 -57.718405 
L 260.037081 -57.617935 
L 258.793263 -57.451295 
L 257.549445 -57.641779 
L 256.305628 -57.357095 
L 255.06181 -57.545213 
L 253.817992 -57.573965 
L 252.574174 -57.518303 
L 251.330356 -57.59448 
L 250.086538 -57.502362 
L 248.84272 -57.6288 
L 247.598902 -57.435794 
L 246.355085 -57.648059 
L 245.111267 -57.66021 
L 243.867449 -57.558526 
L 242.623631 -57.594888 
L 241.379813 -57.56265 
L 240.135995 -57.538807 
L 238.892177 -57.638021 
L 237.648359 -57.541319 
L 236.404541 -57.473976 
L 235.160724 -57.37718 
L 233.916906 -57.548018 
L 232.673088 -57.554277 
L 231.42927 -57.511175 
L 230.185452 -57.519957 
L 228.941634 -57.635101 
L 227.697816 -57.624645 
L 226.453998 -57.271352 
L 225.21018 -57.530842 
L 223.966363 -57.499034 
L 222.722545 -57.660681 
L 221.478727 -57.466451 
L 220.234909 -57.554287 
L 218.991091 -57.448354 
L 217.747273 -57.384319 
L 216.503455 -57.583646 
L 215.259637 -57.586546 
L 214.01582 -57.582328 
L 212.772002 -57.568941 
L 211.528184 -57.515477 
L 210.284366 -57.490378 
L 209.040548 -57.455157 
L 207.79673 -57.465122 
L 206.552912 -57.423286 
L 205.309094 -57.504916 
L 204.065276 -57.560557 
L 202.821459 -57.443759 
L 201.577641 -57.483156 
L 200.333823 -57.470187 
L 199.090005 -57.572698 
L 197.846187 -57.392252 
L 196.602369 -57.52204 
L 195.358551 -57.407785 
L 194.114733 -57.458433 
L 192.870915 -57.267919 
L 191.627098 -57.462191 
L 190.38328 -57.410287 
L 189.139462 -57.34913 
L 187.895644 -57.227726 
L 186.651826 -57.236969 
L 185.408008 -57.252009 
L 184.16419 -57.062353 
L 182.920372 -57.216841 
L 181.676555 -57.212644 
L 180.432737 -57.103811 
L 179.188919 -57.211859 
L 177.945101 -57.176659 
L 176.701283 -57.380122 
L 175.457465 -57.247812 
L 174.213647 -57.143156 
L 172.969829 -57.217668 
L 171.726011 -57.192244 
L 170.482194 -57.26414 
L 169.238376 -57.207233 
L 167.994558 -57.193814 
L 166.75074 -57.223111 
L 165.506922 -57.175382 
L 164.263104 -57.183777 
L 163.019286 -57.101341 
L 161.775468 -57.158249 
L 160.53165 -57.160321 
L 159.287833 -57.235702 
L 158.044015 -57.233609 
L 156.800197 -57.13854 
L 155.556379 -57.185891 
L 154.312561 -57.181683 
L 153.068743 -57.273372 
L 151.824925 -57.203015 
L 150.581107 -57.164989 
L 149.33729 -57.191313 
L 148.093472 -57.158646 
L 146.849654 -57.153204 
L 145.605836 -57.188424 
L 144.362018 -57.149027 
L 143.1182 -57.127686 
L 141.874382 -57.03515 
L 140.630564 -57.058993 
L 139.386746 -57.010019 
L 138.142929 -57.035558 
L 136.899111 -57.081182 
L 135.655293 -57.151948 
L 134.411475 -57.115942 
L 133.167657 -57.084542 
L 131.923839 -57.190099 
L 130.680021 -57.142308 
L 129.436203 -57.048966 
L 128.192385 -56.986155 
L 126.948568 -57.146505 
L 125.70475 -57.179151 
L 124.460932 -57.207651 
L 123.217114 -57.222713 
L 121.973296 -57.106313 
L 120.729478 -57.121803 
L 119.48566 -57.146505 
L 118.241842 -57.159892 
L 116.998025 -57.228982 
L 115.754207 -57.223582 
L 114.510389 -57.276281 
L 113.266571 -57.238298 
L 112.022753 -57.234865 
L 110.778935 -57.147363 
L 109.535117 -57.024264 
L 108.291299 -57.201769 
L 107.047481 -56.997888 
L 105.803664 -56.880651 
L 104.559846 -56.857624 
L 103.316028 -56.756746 
L 102.07221 -56.75504 
L 100.828392 -56.751701 
L 99.584574 -56.678842 
L 98.340756 -56.650394 
L 97.096938 -56.667538 
L 95.85312 -56.656653 
L 94.609303 -56.639069 
L 93.365485 -56.634882 
L 92.121667 -56.60097 
L 90.877849 -56.633637 
L 89.634031 -56.614797 
L 88.390213 -56.616471 
L 87.146395 -56.592597 
L 85.902577 -56.600143 
L 84.658759 -56.548637 
L 83.414942 -56.530226 
L 82.171124 -56.487511 
L 80.927306 -56.473276 
L 79.683488 -56.457367 
z
" style="stroke: #2d1e3e; stroke-opacity: 0.2"/>
    </defs>
    <g clip-path="url(#p15c7e418b5)">
     <use xlink:href="#m42bba8ead4" x="0" y="362.097812" style="fill: #2d1e3e; fill-opacity: 0.2; stroke: #2d1e3e; stroke-opacity: 0.2"/>
    </g>
   </g>
   <g id="line2d_15">
    <path d="M 79.683488 305.637515 
L 80.927306 305.576808 
L 82.171124 305.358263 
L 83.414942 305.478421 
L 84.658759 305.232244 
L 88.390213 305.344866 
L 89.634031 304.88475 
L 90.877849 305.330631 
L 94.609303 305.044681 
L 95.85312 305.286671 
L 97.096938 305.29337 
L 98.340756 305.138463 
L 99.584574 304.844139 
L 100.828392 304.97267 
L 102.07221 304.848326 
L 103.316028 304.875539 
L 105.803664 305.283322 
L 107.047481 305.253178 
L 108.291299 305.02626 
L 109.535117 305.080686 
L 110.778935 305.277879 
L 113.266571 305.399293 
L 115.754207 305.151441 
L 118.241842 305.182004 
L 120.729478 305.04803 
L 121.973296 305.345703 
L 123.217114 304.958017 
L 124.460932 305.284159 
L 126.948568 305.310954 
L 136.899111 305.18326 
L 138.142929 305.345703 
L 140.630564 305.42525 
L 143.1182 305.121716 
L 144.362018 305.395525 
L 145.605836 305.246479 
L 149.33729 305.454976 
L 150.581107 305.335655 
L 151.824925 305.352821 
L 153.068743 305.184097 
L 154.312561 305.164839 
L 155.556379 305.377103 
L 156.800197 305.310954 
L 159.287833 305.426925 
L 160.53165 305.216754 
L 161.775468 305.158977 
L 163.019286 305.359101 
L 166.75074 305.365381 
L 169.238376 305.412271 
L 170.482194 305.355751 
L 175.457465 305.550432 
L 177.945101 305.46293 
L 180.432737 305.561317 
L 189.139462 305.575552 
L 223.966363 305.51945 
L 226.453998 305.26197 
L 228.941634 301.967053 
L 230.185452 300.889821 
L 231.42927 300.570377 
L 232.673088 300.563678 
L 233.916906 302.091816 
L 235.160724 301.225592 
L 236.404541 298.864724 
L 237.648359 300.715236 
L 238.892177 299.534593 
L 240.135995 299.903439 
L 241.379813 298.858444 
L 242.623631 299.91265 
L 243.867449 299.126392 
L 245.111267 298.84714 
L 247.598902 300.366905 
L 248.84272 298.660414 
L 250.086538 299.175794 
L 251.330356 299.233152 
L 252.574174 298.511368 
L 253.817992 297.927745 
L 256.305628 299.347867 
L 257.549445 298.657065 
L 258.793263 298.888588 
L 260.037081 298.369021 
L 262.524717 295.102993 
L 263.768535 299.859898 
L 265.012353 297.468467 
L 266.256171 297.919791 
L 267.499989 296.804459 
L 268.743806 299.180818 
L 271.231442 298.144197 
L 272.47526 297.952865 
L 273.719078 296.296615 
L 274.962896 296.610197 
L 276.206714 297.195076 
L 277.450532 295.303535 
L 278.69435 297.113436 
L 279.938167 296.500925 
L 281.181985 295.625072 
L 282.425803 296.48041 
L 283.669621 295.81431 
L 284.913439 295.436671 
L 286.157257 295.290975 
L 287.401075 297.85699 
L 288.644893 299.553433 
L 289.88871 294.764291 
L 291.132528 297.135626 
L 292.376346 296.004385 
L 293.620164 296.328434 
L 294.863982 297.661473 
L 296.1078 296.783526 
L 297.351618 296.55912 
L 299.839254 295.522917 
L 301.083071 298.374464 
L 302.326889 297.1059 
L 303.570707 299.334888 
L 304.814525 297.517869 
L 306.058343 297.591136 
L 307.302161 296.374069 
L 308.545979 299.658937 
L 309.789797 297.11846 
L 311.033615 297.258714 
L 312.277432 296.92671 
L 313.52125 296.130823 
L 314.765068 297.118879 
L 316.008886 296.487946 
L 317.252704 295.53464 
L 318.496522 296.129985 
L 319.74034 297.644726 
L 320.984158 295.705037 
L 322.227976 295.770768 
L 323.471793 296.190274 
L 324.715611 295.579856 
L 325.959429 297.03682 
L 327.203247 297.141487 
L 327.203247 297.141487 
" clip-path="url(#p15c7e418b5)" style="fill: none; stroke: #edd1cb; stroke-width: 1.5; stroke-linecap: round"/>
   </g>
   <g id="line2d_16">
    <path d="M 79.683488 305.638771 
L 80.927306 305.439904 
L 82.171124 304.801435 
L 83.414942 304.417935 
L 84.658759 304.163804 
L 85.902577 303.684848 
L 88.390213 300.719004 
L 89.634031 299.475979 
L 90.877849 300.855909 
L 92.121667 298.471176 
L 93.365485 298.532302 
L 94.609303 298.069255 
L 95.85312 298.863468 
L 97.096938 299.005815 
L 98.340756 298.927524 
L 99.584574 299.25576 
L 102.07221 299.106295 
L 103.316028 297.305605 
L 104.559846 297.859921 
L 107.047481 299.532081 
L 108.291299 298.443126 
L 109.535117 297.682406 
L 110.778935 300.259726 
L 113.266571 298.391211 
L 114.510389 299.15193 
L 115.754207 298.825788 
L 116.998025 299.320653 
L 118.241842 298.52644 
L 119.48566 299.122624 
L 120.729478 298.949714 
L 121.973296 300.001826 
L 123.217114 298.376139 
L 124.460932 299.677777 
L 125.70475 299.045589 
L 126.948568 298.147127 
L 128.192385 296.794411 
L 129.436203 299.257853 
L 130.680021 299.517427 
L 131.923839 297.828102 
L 133.167657 299.172445 
L 134.411475 298.545699 
L 135.655293 298.842953 
L 136.899111 300.096864 
L 138.142929 300.05416 
L 139.386746 298.263098 
L 140.630564 298.405445 
L 141.874382 297.630491 
L 143.1182 297.553875 
L 144.362018 296.271914 
L 145.605836 295.874598 
L 146.849654 296.238839 
L 148.093472 294.363625 
L 149.33729 293.440463 
L 150.581107 293.240339 
L 151.824925 297.003327 
L 153.068743 297.662729 
L 154.312561 295.424949 
L 155.556379 297.554294 
L 156.800197 294.173969 
L 158.044015 294.110331 
L 159.287833 295.556829 
L 160.53165 295.501565 
L 161.775468 291.84785 
L 163.019286 294.863515 
L 164.263104 293.118507 
L 165.506922 289.671196 
L 166.75074 290.328504 
L 167.994558 294.090235 
L 169.238376 291.809751 
L 170.482194 290.822951 
L 171.726011 292.848466 
L 172.969829 290.145546 
L 174.213647 290.29208 
L 175.457465 288.714958 
L 176.701283 286.571797 
L 177.945101 289.383989 
L 179.188919 287.876785 
L 180.432737 288.998815 
L 181.676555 287.940004 
L 182.920372 289.448464 
L 184.16419 290.465409 
L 185.408008 291.880087 
L 186.651826 289.858759 
L 187.895644 289.840756 
L 189.139462 289.549782 
L 190.38328 288.10454 
L 191.627098 285.239596 
L 192.870915 288.615734 
L 194.114733 287.836174 
L 195.358551 288.258191 
L 196.602369 290.690652 
L 197.846187 287.983545 
L 199.090005 289.560667 
L 200.333823 287.388618 
L 201.577641 287.729414 
L 202.821459 285.762093 
L 204.065276 286.175737 
L 205.309094 283.952611 
L 206.552912 292.077699 
L 207.79673 291.643959 
L 209.040548 287.964286 
L 210.284366 292.125427 
L 211.528184 292.206648 
L 212.772002 285.396596 
L 214.01582 289.362637 
L 215.259637 283.494588 
L 216.503455 282.549654 
L 217.747273 288.517347 
L 218.991091 283.572879 
L 220.234909 282.26496 
L 221.478727 283.204451 
L 222.722545 280.654764 
L 223.966363 280.088725 
L 225.21018 282.206765 
L 226.453998 281.197776 
L 227.697816 280.466782 
L 228.941634 280.740172 
L 230.185452 278.307711 
L 231.42927 281.777631 
L 232.673088 279.315864 
L 233.916906 278.174994 
L 235.160724 284.415657 
L 236.404541 277.87439 
L 237.648359 276.043974 
L 238.892177 275.313398 
L 240.135995 282.480993 
L 241.379813 277.869785 
L 242.623631 270.996514 
L 243.867449 274.476481 
L 246.355085 277.427671 
L 247.598902 278.410704 
L 248.84272 278.8457 
L 251.330356 272.193485 
L 252.574174 271.108298 
L 253.817992 275.109926 
L 255.06181 274.380188 
L 256.305628 259.239481 
L 257.549445 266.544399 
L 258.793263 261.257879 
L 260.037081 264.339275 
L 261.280899 264.704354 
L 262.524717 266.609293 
L 263.768535 262.889847 
L 265.012353 252.176554 
L 266.256171 251.447653 
L 267.499989 228.644068 
L 268.743806 174.16407 
L 269.987624 128.916954 
L 271.231442 139.81488 
L 272.47526 105.153783 
L 273.719078 116.716553 
L 274.962896 150.142161 
L 276.206714 123.266612 
L 277.450532 107.517582 
L 278.69435 113.281802 
L 279.938167 115.492368 
L 281.181985 126.037357 
L 282.425803 117.061535 
L 283.669621 116.67343 
L 284.913439 80.577977 
L 286.157257 124.126556 
L 287.401075 98.553065 
L 288.644893 113.500346 
L 289.88871 130.010096 
L 291.132528 81.371352 
L 292.376346 133.603942 
L 294.863982 96.141119 
L 296.1078 105.326693 
L 297.351618 98.63931 
L 298.595436 80.218341 
L 299.839254 114.533619 
L 301.083071 141.407493 
L 302.326889 105.710611 
L 303.570707 90.051175 
L 304.814525 104.555506 
L 306.058343 97.204117 
L 307.302161 77.247474 
L 308.545979 97.331392 
L 309.789797 80.75926 
L 311.033615 134.282184 
L 312.277432 142.17826 
L 313.52125 96.205594 
L 314.765068 96.136095 
L 316.008886 139.311223 
L 317.252704 115.5828 
L 318.496522 104.89379 
L 319.74034 105.65116 
L 320.984158 85.492719 
L 322.227976 128.896858 
L 323.471793 120.194427 
L 324.715611 88.536854 
L 325.959429 121.91264 
L 327.203247 94.293119 
L 327.203247 94.293119 
" clip-path="url(#p15c7e418b5)" style="fill: none; stroke: #d499a7; stroke-width: 1.5; stroke-linecap: round"/>
   </g>
   <g id="line2d_17">
    <path d="M 79.683488 305.643795 
L 84.658759 305.533266 
L 93.365485 305.187028 
L 94.609303 305.092828 
L 97.096938 305.1707 
L 98.340756 304.950899 
L 99.584574 305.083198 
L 100.828392 305.08906 
L 103.316028 304.683789 
L 104.559846 304.306988 
L 105.803664 304.110214 
L 107.047481 304.357228 
L 108.291299 304.402444 
L 109.535117 304.226604 
L 110.778935 304.250468 
L 112.022753 303.637957 
L 114.510389 304.331271 
L 115.754207 303.867806 
L 116.998025 304.273076 
L 118.241842 303.791608 
L 119.48566 303.626234 
L 120.729478 303.616605 
L 121.973296 303.281252 
L 123.217114 303.239385 
L 124.460932 302.857979 
L 125.70475 302.869283 
L 126.948568 303.067731 
L 128.192385 303.418994 
L 130.680021 303.594834 
L 131.923839 304.013921 
L 133.167657 302.757498 
L 134.411475 303.035075 
L 135.655293 302.884773 
L 138.142929 303.001582 
L 139.386746 303.642981 
L 140.630564 302.926221 
L 141.874382 303.767744 
L 143.1182 303.866131 
L 144.362018 303.40769 
L 145.605836 303.072755 
L 146.849654 303.111273 
L 148.093472 302.941293 
L 150.581107 303.725877 
L 154.312561 302.114006 
L 155.556379 302.489969 
L 156.800197 303.298417 
L 158.044015 302.878912 
L 159.287833 302.719818 
L 160.53165 303.040936 
L 161.775468 303.013304 
L 164.263104 302.148755 
L 165.506922 302.74452 
L 169.238376 302.334225 
L 170.482194 302.458569 
L 171.726011 302.317478 
L 172.969829 303.343215 
L 174.213647 302.43638 
L 175.457465 302.851699 
L 176.701283 302.377766 
L 177.945101 302.874725 
L 179.188919 302.869701 
L 180.432737 301.966216 
L 181.676555 302.708514 
L 185.408008 302.797272 
L 186.651826 303.256969 
L 187.895644 302.42382 
L 189.139462 303.008699 
L 191.627098 302.666647 
L 192.870915 302.243793 
L 194.114733 303.540407 
L 195.358551 302.399119 
L 199.090005 302.820298 
L 200.333823 302.268494 
L 201.577641 302.413353 
L 202.821459 302.716469 
L 204.065276 302.799365 
L 205.309094 302.107726 
L 206.552912 302.332132 
L 207.79673 301.921 
L 209.040548 303.199612 
L 210.284366 302.234163 
L 211.528184 302.604684 
L 212.772002 302.528487 
L 214.01582 302.623106 
L 215.259637 302.837045 
L 218.991091 302.34218 
L 220.234909 303.599439 
L 221.478727 302.500018 
L 222.722545 302.459407 
L 223.966363 301.972915 
L 226.453998 302.591287 
L 227.697816 302.452289 
L 228.941634 301.973752 
L 230.185452 301.627932 
L 231.42927 302.230395 
L 232.673088 302.347204 
L 233.916906 301.442044 
L 235.160724 302.53393 
L 236.404541 302.519695 
L 238.892177 301.941933 
L 240.135995 302.113168 
L 241.379813 302.557794 
L 242.623631 302.103958 
L 243.867449 302.652413 
L 246.355085 301.762325 
L 247.598902 302.665391 
L 248.84272 303.119227 
L 250.086538 301.773629 
L 251.330356 301.763999 
L 252.574174 301.959517 
L 253.817992 303.462535 
L 255.06181 302.397025 
L 256.305628 303.283345 
L 257.549445 302.690093 
L 258.793263 301.771535 
L 260.037081 302.445172 
L 261.280899 302.834533 
L 262.524717 302.896077 
L 263.768535 303.13095 
L 266.256171 301.617884 
L 267.499989 302.147499 
L 268.743806 303.152302 
L 269.987624 302.522626 
L 271.231442 302.026504 
L 272.47526 302.841232 
L 273.719078 303.43574 
L 274.962896 303.107505 
L 276.206714 301.914301 
L 277.450532 302.361857 
L 278.69435 302.207369 
L 279.938167 301.845221 
L 281.181985 302.694698 
L 282.425803 302.180993 
L 283.669621 302.271843 
L 284.913439 302.557375 
L 286.157257 303.194169 
L 287.401075 302.373161 
L 288.644893 302.244211 
L 289.88871 302.416703 
L 291.132528 303.080291 
L 292.376346 302.573284 
L 293.620164 302.583332 
L 294.863982 302.277286 
L 296.1078 302.592543 
L 297.351618 302.115262 
L 298.595436 303.173654 
L 299.839254 302.825741 
L 301.083071 301.077384 
L 302.326889 300.371091 
L 303.570707 298.688884 
L 304.814525 293.729344 
L 306.058343 293.377244 
L 307.302161 286.398469 
L 308.545979 286.979161 
L 309.789797 282.907197 
L 312.277432 286.049299 
L 313.52125 279.940097 
L 314.765068 281.073013 
L 316.008886 277.181913 
L 317.252704 272.816044 
L 318.496522 275.654194 
L 319.74034 273.868994 
L 320.984158 279.003119 
L 322.227976 272.475667 
L 323.471793 280.895916 
L 324.715611 276.486087 
L 325.959429 275.438999 
L 327.203247 282.035949 
L 327.203247 282.035949 
" clip-path="url(#p15c7e418b5)" style="fill: none; stroke: #a9678f; stroke-width: 1.5; stroke-linecap: round"/>
   </g>
   <g id="line2d_18">
    <path d="M 79.683488 305.644213 
L 84.658759 305.462093 
L 85.902577 305.292532 
L 87.146395 305.471304 
L 90.877849 305.369149 
L 92.121667 305.332306 
L 93.365485 305.471304 
L 94.609303 305.418133 
L 95.85312 305.521962 
L 97.096938 305.442416 
L 102.07221 305.509402 
L 129.436203 305.576808 
L 138.142929 305.598997 
L 262.524717 305.404735 
L 263.768535 305.316815 
L 265.012353 305.352821 
L 266.256171 305.21173 
L 269.987624 304.514229 
L 271.231442 303.965355 
L 273.719078 303.777792 
L 274.962896 304.380674 
L 276.206714 304.218649 
L 277.450532 304.335039 
L 278.69435 303.68736 
L 279.938167 304.228279 
L 281.181985 304.075465 
L 282.425803 303.75016 
L 283.669621 303.16863 
L 284.913439 303.34782 
L 286.157257 303.303441 
L 287.401075 303.71541 
L 288.644893 303.542919 
L 289.88871 302.978555 
L 291.132528 303.468815 
L 294.863982 303.11211 
L 296.1078 303.331073 
L 297.351618 303.000326 
L 298.595436 303.367079 
L 299.839254 302.808994 
L 301.083071 303.128019 
L 302.326889 303.134718 
L 303.570707 303.50189 
L 304.814525 303.066894 
L 306.058343 303.582693 
L 307.302161 303.235617 
L 309.789797 303.361636 
L 311.033615 302.9392 
L 312.277432 302.932501 
L 313.52125 303.500634 
L 314.765068 303.037168 
L 316.008886 302.854211 
L 317.252704 302.883099 
L 318.496522 303.337772 
L 319.74034 303.329817 
L 320.984158 303.058102 
L 322.227976 303.081547 
L 323.471793 303.269529 
L 324.715611 303.053078 
L 325.959429 302.961808 
L 327.203247 302.742008 
L 327.203247 302.742008 
" clip-path="url(#p15c7e418b5)" style="fill: none; stroke: #6c3f70; stroke-width: 1.5; stroke-linecap: round"/>
   </g>
   <g id="line2d_19">
    <path d="M 79.683488 305.643795 
L 105.803664 305.355333 
L 108.291299 305.019142 
L 109.535117 305.218847 
L 112.022753 304.995278 
L 118.241842 305.071476 
L 121.973296 305.150185 
L 123.217114 305.025841 
L 126.948568 305.108737 
L 128.192385 305.232244 
L 131.923839 305.024166 
L 133.167657 305.162745 
L 136.899111 305.136788 
L 140.630564 305.165676 
L 143.1182 305.08571 
L 149.33729 305.004908 
L 151.824925 305.012862 
L 153.068743 304.908195 
L 154.312561 305.045937 
L 161.775468 305.048868 
L 163.019286 305.130927 
L 165.506922 305.025004 
L 170.482194 304.91615 
L 171.726011 305.022492 
L 172.969829 304.983137 
L 174.213647 305.083198 
L 176.701283 304.886425 
L 177.945101 305.047193 
L 179.188919 305.007838 
L 180.432737 305.129252 
L 181.676555 304.998209 
L 182.920372 304.993185 
L 184.16419 305.174468 
L 185.408008 304.963878 
L 187.895644 305.005326 
L 190.38328 304.835347 
L 191.627098 304.780502 
L 192.870915 305.012025 
L 194.114733 304.795574 
L 195.358551 304.85628 
L 196.602369 304.707653 
L 197.846187 304.891867 
L 199.090005 304.638992 
L 200.333823 304.781758 
L 205.309094 304.749101 
L 206.552912 304.86591 
L 210.284366 304.774222 
L 216.503455 304.638992 
L 217.747273 304.900241 
L 222.722545 304.645272 
L 223.966363 304.836603 
L 225.21018 304.798086 
L 226.453998 305.019142 
L 227.697816 304.597125 
L 228.941634 304.561538 
L 230.185452 304.736123 
L 236.404541 304.81232 
L 238.892177 304.593357 
L 240.135995 304.745333 
L 242.623631 304.662856 
L 243.867449 304.721051 
L 245.111267 304.589589 
L 246.355085 304.591264 
L 247.598902 304.857118 
L 248.84272 304.628944 
L 250.086538 304.766686 
L 251.330356 304.667043 
L 252.574174 304.770035 
L 253.817992 304.682952 
L 255.06181 304.723563 
L 256.305628 304.937502 
L 257.549445 304.609266 
L 258.793263 304.849163 
L 261.280899 304.486597 
L 265.012353 304.776315 
L 268.743806 304.625594 
L 269.987624 304.89731 
L 272.47526 304.526789 
L 273.719078 304.68672 
L 274.962896 304.599637 
L 276.206714 304.764592 
L 277.450532 304.565306 
L 278.69435 304.976438 
L 279.938167 304.7244 
L 283.669621 304.702629 
L 284.913439 304.850419 
L 286.157257 304.523439 
L 287.401075 304.798923 
L 288.644893 304.879307 
L 289.88871 304.677509 
L 296.1078 304.819019 
L 298.595436 304.638155 
L 299.839254 304.870097 
L 301.083071 304.687976 
L 302.326889 304.744077 
L 303.570707 304.619314 
L 304.814525 304.850838 
L 308.545979 304.596706 
L 311.033615 304.688395 
L 312.277432 304.553584 
L 314.765068 304.853768 
L 317.252704 304.533488 
L 318.496522 304.744915 
L 319.74034 304.55484 
L 320.984158 304.672904 
L 322.227976 304.486178 
L 323.471793 304.758312 
L 324.715611 304.662856 
L 327.203247 304.737797 
L 327.203247 304.737797 
" clip-path="url(#p15c7e418b5)" style="fill: none; stroke: #2d1e3e; stroke-width: 1.5; stroke-linecap: round"/>
   </g>
   <g id="line2d_20"/>
   <g id="line2d_21"/>
   <g id="line2d_22"/>
   <g id="line2d_23"/>
   <g id="line2d_24"/>
   <g id="patch_3">
    <path d="M 67.3075 319.138125 
L 67.3075 22.318125 
" style="fill: none; stroke: #ffffff; stroke-width: 1.25; stroke-linejoin: miter; stroke-linecap: square"/>
   </g>
   <g id="patch_4">
    <path d="M 67.3075 319.138125 
L 339.579235 319.138125 
" style="fill: none; stroke: #ffffff; stroke-width: 1.25; stroke-linejoin: miter; stroke-linecap: square"/>
   </g>
   <g id="text_17">
    <!-- No Vector x Global Only For Left To Right -->
    <g style="fill: #262626" transform="translate(81.696805 16.318125)scale(0.12 -0.12)">
     <defs>
      <path id="DejaVuSans-4e" d="M 628 4666 
L 1478 4666 
L 3547 763 
L 3547 4666 
L 4159 4666 
L 4159 0 
L 3309 0 
L 1241 3903 
L 1241 0 
L 628 0 
L 628 4666 
z
" transform="scale(0.015625)"/>
      <path id="DejaVuSans-20" transform="scale(0.015625)"/>
      <path id="DejaVuSans-56" d="M 1831 0 
L 50 4666 
L 709 4666 
L 2188 738 
L 3669 4666 
L 4325 4666 
L 2547 0 
L 1831 0 
z
" transform="scale(0.015625)"/>
      <path id="DejaVuSans-63" d="M 3122 3366 
L 3122 2828 
Q 2878 2963 2633 3030 
Q 2388 3097 2138 3097 
Q 1578 3097 1268 2742 
Q 959 2388 959 1747 
Q 959 1106 1268 751 
Q 1578 397 2138 397 
Q 2388 397 2633 464 
Q 2878 531 3122 666 
L 3122 134 
Q 2881 22 2623 -34 
Q 2366 -91 2075 -91 
Q 1284 -91 818 406 
Q 353 903 353 1747 
Q 353 2603 823 3093 
Q 1294 3584 2113 3584 
Q 2378 3584 2631 3529 
Q 2884 3475 3122 3366 
z
" transform="scale(0.015625)"/>
      <path id="DejaVuSans-78" d="M 3513 3500 
L 2247 1797 
L 3578 0 
L 2900 0 
L 1881 1375 
L 863 0 
L 184 0 
L 1544 1831 
L 300 3500 
L 978 3500 
L 1906 2253 
L 2834 3500 
L 3513 3500 
z
" transform="scale(0.015625)"/>
      <path id="DejaVuSans-6c" d="M 603 4863 
L 1178 4863 
L 1178 0 
L 603 0 
L 603 4863 
z
" transform="scale(0.015625)"/>
      <path id="DejaVuSans-62" d="M 3116 1747 
Q 3116 2381 2855 2742 
Q 2594 3103 2138 3103 
Q 1681 3103 1420 2742 
Q 1159 2381 1159 1747 
Q 1159 1113 1420 752 
Q 1681 391 2138 391 
Q 2594 391 2855 752 
Q 3116 1113 3116 1747 
z
M 1159 2969 
Q 1341 3281 1617 3432 
Q 1894 3584 2278 3584 
Q 2916 3584 3314 3078 
Q 3713 2572 3713 1747 
Q 3713 922 3314 415 
Q 2916 -91 2278 -91 
Q 1894 -91 1617 61 
Q 1341 213 1159 525 
L 1159 0 
L 581 0 
L 581 4863 
L 1159 4863 
L 1159 2969 
z
" transform="scale(0.015625)"/>
      <path id="DejaVuSans-4f" d="M 2522 4238 
Q 1834 4238 1429 3725 
Q 1025 3213 1025 2328 
Q 1025 1447 1429 934 
Q 1834 422 2522 422 
Q 3209 422 3611 934 
Q 4013 1447 4013 2328 
Q 4013 3213 3611 3725 
Q 3209 4238 2522 4238 
z
M 2522 4750 
Q 3503 4750 4090 4092 
Q 4678 3434 4678 2328 
Q 4678 1225 4090 567 
Q 3503 -91 2522 -91 
Q 1538 -91 948 565 
Q 359 1222 359 2328 
Q 359 3434 948 4092 
Q 1538 4750 2522 4750 
z
" transform="scale(0.015625)"/>
      <path id="DejaVuSans-79" d="M 2059 -325 
Q 1816 -950 1584 -1140 
Q 1353 -1331 966 -1331 
L 506 -1331 
L 506 -850 
L 844 -850 
Q 1081 -850 1212 -737 
Q 1344 -625 1503 -206 
L 1606 56 
L 191 3500 
L 800 3500 
L 1894 763 
L 2988 3500 
L 3597 3500 
L 2059 -325 
z
" transform="scale(0.015625)"/>
      <path id="DejaVuSans-4c" d="M 628 4666 
L 1259 4666 
L 1259 531 
L 3531 531 
L 3531 0 
L 628 0 
L 628 4666 
z
" transform="scale(0.015625)"/>
      <path id="DejaVuSans-66" d="M 2375 4863 
L 2375 4384 
L 1825 4384 
Q 1516 4384 1395 4259 
Q 1275 4134 1275 3809 
L 1275 3500 
L 2222 3500 
L 2222 3053 
L 1275 3053 
L 1275 0 
L 697 0 
L 697 3053 
L 147 3053 
L 147 3500 
L 697 3500 
L 697 3744 
Q 697 4328 969 4595 
Q 1241 4863 1831 4863 
L 2375 4863 
z
" transform="scale(0.015625)"/>
      <path id="DejaVuSans-54" d="M -19 4666 
L 3928 4666 
L 3928 4134 
L 2272 4134 
L 2272 0 
L 1638 0 
L 1638 4134 
L -19 4134 
L -19 4666 
z
" transform="scale(0.015625)"/>
      <path id="DejaVuSans-52" d="M 2841 2188 
Q 3044 2119 3236 1894 
Q 3428 1669 3622 1275 
L 4263 0 
L 3584 0 
L 2988 1197 
Q 2756 1666 2539 1819 
Q 2322 1972 1947 1972 
L 1259 1972 
L 1259 0 
L 628 0 
L 628 4666 
L 2053 4666 
Q 2853 4666 3247 4331 
Q 3641 3997 3641 3322 
Q 3641 2881 3436 2590 
Q 3231 2300 2841 2188 
z
M 1259 4147 
L 1259 2491 
L 2053 2491 
Q 2509 2491 2742 2702 
Q 2975 2913 2975 3322 
Q 2975 3731 2742 3939 
Q 2509 4147 2053 4147 
L 1259 4147 
z
" transform="scale(0.015625)"/>
      <path id="DejaVuSans-67" d="M 2906 1791 
Q 2906 2416 2648 2759 
Q 2391 3103 1925 3103 
Q 1463 3103 1205 2759 
Q 947 2416 947 1791 
Q 947 1169 1205 825 
Q 1463 481 1925 481 
Q 2391 481 2648 825 
Q 2906 1169 2906 1791 
z
M 3481 434 
Q 3481 -459 3084 -895 
Q 2688 -1331 1869 -1331 
Q 1566 -1331 1297 -1286 
Q 1028 -1241 775 -1147 
L 775 -588 
Q 1028 -725 1275 -790 
Q 1522 -856 1778 -856 
Q 2344 -856 2625 -561 
Q 2906 -266 2906 331 
L 2906 616 
Q 2728 306 2450 153 
Q 2172 0 1784 0 
Q 1141 0 747 490 
Q 353 981 353 1791 
Q 353 2603 747 3093 
Q 1141 3584 1784 3584 
Q 2172 3584 2450 3431 
Q 2728 3278 2906 2969 
L 2906 3500 
L 3481 3500 
L 3481 434 
z
" transform="scale(0.015625)"/>
      <path id="DejaVuSans-68" d="M 3513 2113 
L 3513 0 
L 2938 0 
L 2938 2094 
Q 2938 2591 2744 2837 
Q 2550 3084 2163 3084 
Q 1697 3084 1428 2787 
Q 1159 2491 1159 1978 
L 1159 0 
L 581 0 
L 581 4863 
L 1159 4863 
L 1159 2956 
Q 1366 3272 1645 3428 
Q 1925 3584 2291 3584 
Q 2894 3584 3203 3211 
Q 3513 2838 3513 2113 
z
" transform="scale(0.015625)"/>
     </defs>
     <use xlink:href="#DejaVuSans-4e"/>
     <use xlink:href="#DejaVuSans-6f" x="74.804688"/>
     <use xlink:href="#DejaVuSans-20" x="135.986328"/>
     <use xlink:href="#DejaVuSans-56" x="167.773438"/>
     <use xlink:href="#DejaVuSans-65" x="228.431641"/>
     <use xlink:href="#DejaVuSans-63" x="289.955078"/>
     <use xlink:href="#DejaVuSans-74" x="344.935547"/>
     <use xlink:href="#DejaVuSans-6f" x="384.144531"/>
     <use xlink:href="#DejaVuSans-72" x="445.326172"/>
     <use xlink:href="#DejaVuSans-20" x="486.439453"/>
     <use xlink:href="#DejaVuSans-78" x="518.226562"/>
     <use xlink:href="#DejaVuSans-20" x="577.40625"/>
     <use xlink:href="#DejaVuSans-47" x="609.193359"/>
     <use xlink:href="#DejaVuSans-6c" x="686.683594"/>
     <use xlink:href="#DejaVuSans-6f" x="714.466797"/>
     <use xlink:href="#DejaVuSans-62" x="775.648438"/>
     <use xlink:href="#DejaVuSans-61" x="839.125"/>
     <use xlink:href="#DejaVuSans-6c" x="900.404297"/>
     <use xlink:href="#DejaVuSans-20" x="928.1875"/>
     <use xlink:href="#DejaVuSans-4f" x="959.974609"/>
     <use xlink:href="#DejaVuSans-6e" x="1038.685547"/>
     <use xlink:href="#DejaVuSans-6c" x="1102.064453"/>
     <use xlink:href="#DejaVuSans-79" x="1129.847656"/>
     <use xlink:href="#DejaVuSans-20" x="1189.027344"/>
     <use xlink:href="#DejaVuSans-46" x="1220.814453"/>
     <use xlink:href="#DejaVuSans-6f" x="1274.708984"/>
     <use xlink:href="#DejaVuSans-72" x="1335.890625"/>
     <use xlink:href="#DejaVuSans-20" x="1377.003906"/>
     <use xlink:href="#DejaVuSans-4c" x="1408.791016"/>
     <use xlink:href="#DejaVuSans-65" x="1462.753906"/>
     <use xlink:href="#DejaVuSans-66" x="1524.277344"/>
     <use xlink:href="#DejaVuSans-74" x="1557.732422"/>
     <use xlink:href="#DejaVuSans-20" x="1596.941406"/>
     <use xlink:href="#DejaVuSans-54" x="1628.728516"/>
     <use xlink:href="#DejaVuSans-6f" x="1672.8125"/>
     <use xlink:href="#DejaVuSans-20" x="1733.994141"/>
     <use xlink:href="#DejaVuSans-52" x="1765.78125"/>
     <use xlink:href="#DejaVuSans-69" x="1835.263672"/>
     <use xlink:href="#DejaVuSans-67" x="1863.046875"/>
     <use xlink:href="#DejaVuSans-68" x="1926.523438"/>
     <use xlink:href="#DejaVuSans-74" x="1989.902344"/>
    </g>
   </g>
  </g>
  <g id="legend_1">
   <g id="text_18">
    <!-- Trial -->
    <g style="fill: #262626" transform="translate(350.909185 143.995312)scale(0.12 -0.12)">
     <use xlink:href="#DejaVuSans-54"/>
     <use xlink:href="#DejaVuSans-72" x="46.333984"/>
     <use xlink:href="#DejaVuSans-69" x="87.447266"/>
     <use xlink:href="#DejaVuSans-61" x="115.230469"/>
     <use xlink:href="#DejaVuSans-6c" x="176.509766"/>
    </g>
   </g>
   <g id="line2d_25">
    <path d="M 344.266685 156.499219 
L 355.266685 156.499219 
L 366.266685 156.499219 
" style="fill: none; stroke: #edd1cb; stroke-width: 1.5; stroke-linecap: round"/>
   </g>
   <g id="text_19">
    <!-- 0 -->
    <g style="fill: #262626" transform="translate(375.066685 160.349219)scale(0.11 -0.11)">
     <use xlink:href="#DejaVuSans-30"/>
    </g>
   </g>
   <g id="line2d_26">
    <path d="M 344.266685 172.645156 
L 355.266685 172.645156 
L 366.266685 172.645156 
" style="fill: none; stroke: #d499a7; stroke-width: 1.5; stroke-linecap: round"/>
   </g>
   <g id="text_20">
    <!-- 1 -->
    <g style="fill: #262626" transform="translate(375.066685 176.495156)scale(0.11 -0.11)">
     <use xlink:href="#DejaVuSans-31"/>
    </g>
   </g>
   <g id="line2d_27">
    <path d="M 344.266685 188.791094 
L 355.266685 188.791094 
L 366.266685 188.791094 
" style="fill: none; stroke: #a9678f; stroke-width: 1.5; stroke-linecap: round"/>
   </g>
   <g id="text_21">
    <!-- 2 -->
    <g style="fill: #262626" transform="translate(375.066685 192.641094)scale(0.11 -0.11)">
     <use xlink:href="#DejaVuSans-32"/>
    </g>
   </g>
   <g id="line2d_28">
    <path d="M 344.266685 204.937031 
L 355.266685 204.937031 
L 366.266685 204.937031 
" style="fill: none; stroke: #6c3f70; stroke-width: 1.5; stroke-linecap: round"/>
   </g>
   <g id="text_22">
    <!-- 3 -->
    <g style="fill: #262626" transform="translate(375.066685 208.787031)scale(0.11 -0.11)">
     <defs>
      <path id="DejaVuSans-33" d="M 2597 2516 
Q 3050 2419 3304 2112 
Q 3559 1806 3559 1356 
Q 3559 666 3084 287 
Q 2609 -91 1734 -91 
Q 1441 -91 1130 -33 
Q 819 25 488 141 
L 488 750 
Q 750 597 1062 519 
Q 1375 441 1716 441 
Q 2309 441 2620 675 
Q 2931 909 2931 1356 
Q 2931 1769 2642 2001 
Q 2353 2234 1838 2234 
L 1294 2234 
L 1294 2753 
L 1863 2753 
Q 2328 2753 2575 2939 
Q 2822 3125 2822 3475 
Q 2822 3834 2567 4026 
Q 2313 4219 1838 4219 
Q 1578 4219 1281 4162 
Q 984 4106 628 3988 
L 628 4550 
Q 988 4650 1302 4700 
Q 1616 4750 1894 4750 
Q 2613 4750 3031 4423 
Q 3450 4097 3450 3541 
Q 3450 3153 3228 2886 
Q 3006 2619 2597 2516 
z
" transform="scale(0.015625)"/>
     </defs>
     <use xlink:href="#DejaVuSans-33"/>
    </g>
   </g>
   <g id="line2d_29">
    <path d="M 344.266685 221.082969 
L 355.266685 221.082969 
L 366.266685 221.082969 
" style="fill: none; stroke: #2d1e3e; stroke-width: 1.5; stroke-linecap: round"/>
   </g>
   <g id="text_23">
    <!-- 4 -->
    <g style="fill: #262626" transform="translate(375.066685 224.932969)scale(0.11 -0.11)">
     <defs>
      <path id="DejaVuSans-34" d="M 2419 4116 
L 825 1625 
L 2419 1625 
L 2419 4116 
z
M 2253 4666 
L 3047 4666 
L 3047 1625 
L 3713 1625 
L 3713 1100 
L 3047 1100 
L 3047 0 
L 2419 0 
L 2419 1100 
L 313 1100 
L 313 1709 
L 2253 4666 
z
" transform="scale(0.015625)"/>
     </defs>
     <use xlink:href="#DejaVuSans-34"/>
    </g>
   </g>
  </g>
 </g>
 <defs>
  <clipPath id="p15c7e418b5">
   <rect x="67.3075" y="22.318125" width="272.271735" height="296.82"/>
  </clipPath>
 </defs>
</svg>
