<?xml version="1.0" encoding="utf-8" standalone="no"?>
<!DOCTYPE svg PUBLIC "-//W3C//DTD SVG 1.1//EN"
  "http://www.w3.org/Graphics/SVG/1.1/DTD/svg11.dtd">
<svg xmlns:xlink="http://www.w3.org/1999/xlink" width="393.52115pt" height="362.097812pt" viewBox="0 0 393.52115 362.097812" xmlns="http://www.w3.org/2000/svg" version="1.1">
 <metadata>
  <rdf:RDF xmlns:dc="http://purl.org/dc/elements/1.1/" xmlns:cc="http://creativecommons.org/ns#" xmlns:rdf="http://www.w3.org/1999/02/22-rdf-syntax-ns#">
   <cc:Work>
    <dc:type rdf:resource="http://purl.org/dc/dcmitype/StillImage"/>
    <dc:date>2022-11-20T08:17:23.884745</dc:date>
    <dc:format>image/svg+xml</dc:format>
    <dc:creator>
     <cc:Agent>
      <dc:title>Matplotlib v3.5.2, https://matplotlib.org/</dc:title>
     </cc:Agent>
    </dc:creator>
   </cc:Work>
  </rdf:RDF>
 </metadata>
 <defs>
  <style type="text/css">*{stroke-linejoin: round; stroke-linecap: butt}</style>
 </defs>
 <g id="figure_1">
  <g id="patch_1">
   <path d="M 0 362.097812 
L 393.52115 362.097812 
L 393.52115 0 
L 0 0 
z
" style="fill: #ffffff"/>
  </g>
  <g id="axes_1">
   <g id="patch_2">
    <path d="M 53.31 319.138125 
L 341.13495 319.138125 
L 341.13495 22.318125 
L 53.31 22.318125 
z
" style="fill: #eaeaf2"/>
   </g>
   <g id="matplotlib.axis_1">
    <g id="xtick_1">
     <g id="line2d_1">
      <path d="M 66.392952 319.138125 
L 66.392952 22.318125 
" clip-path="url(#p54a191ee5d)" style="fill: none; stroke: #ffffff; stroke-linecap: round"/>
     </g>
     <g id="text_1">
      <!-- 0 -->
      <g style="fill: #262626" transform="translate(62.893577 336.996406)scale(0.11 -0.11)">
       <defs>
        <path id="DejaVuSans-30" d="M 2034 4250 
Q 1547 4250 1301 3770 
Q 1056 3291 1056 2328 
Q 1056 1369 1301 889 
Q 1547 409 2034 409 
Q 2525 409 2770 889 
Q 3016 1369 3016 2328 
Q 3016 3291 2770 3770 
Q 2525 4250 2034 4250 
z
M 2034 4750 
Q 2819 4750 3233 4129 
Q 3647 3509 3647 2328 
Q 3647 1150 3233 529 
Q 2819 -91 2034 -91 
Q 1250 -91 836 529 
Q 422 1150 422 2328 
Q 422 3509 836 4129 
Q 1250 4750 2034 4750 
z
" transform="scale(0.015625)"/>
       </defs>
       <use xlink:href="#DejaVuSans-30"/>
      </g>
     </g>
    </g>
    <g id="xtick_2">
     <g id="line2d_2">
      <path d="M 132.136431 319.138125 
L 132.136431 22.318125 
" clip-path="url(#p54a191ee5d)" style="fill: none; stroke: #ffffff; stroke-linecap: round"/>
     </g>
     <g id="text_2">
      <!-- 50 -->
      <g style="fill: #262626" transform="translate(125.137681 336.996406)scale(0.11 -0.11)">
       <defs>
        <path id="DejaVuSans-35" d="M 691 4666 
L 3169 4666 
L 3169 4134 
L 1269 4134 
L 1269 2991 
Q 1406 3038 1543 3061 
Q 1681 3084 1819 3084 
Q 2600 3084 3056 2656 
Q 3513 2228 3513 1497 
Q 3513 744 3044 326 
Q 2575 -91 1722 -91 
Q 1428 -91 1123 -41 
Q 819 9 494 109 
L 494 744 
Q 775 591 1075 516 
Q 1375 441 1709 441 
Q 2250 441 2565 725 
Q 2881 1009 2881 1497 
Q 2881 1984 2565 2268 
Q 2250 2553 1709 2553 
Q 1456 2553 1204 2497 
Q 953 2441 691 2322 
L 691 4666 
z
" transform="scale(0.015625)"/>
       </defs>
       <use xlink:href="#DejaVuSans-35"/>
       <use xlink:href="#DejaVuSans-30" x="63.623047"/>
      </g>
     </g>
    </g>
    <g id="xtick_3">
     <g id="line2d_3">
      <path d="M 197.87991 319.138125 
L 197.87991 22.318125 
" clip-path="url(#p54a191ee5d)" style="fill: none; stroke: #ffffff; stroke-linecap: round"/>
     </g>
     <g id="text_3">
      <!-- 100 -->
      <g style="fill: #262626" transform="translate(187.381785 336.996406)scale(0.11 -0.11)">
       <defs>
        <path id="DejaVuSans-31" d="M 794 531 
L 1825 531 
L 1825 4091 
L 703 3866 
L 703 4441 
L 1819 4666 
L 2450 4666 
L 2450 531 
L 3481 531 
L 3481 0 
L 794 0 
L 794 531 
z
" transform="scale(0.015625)"/>
       </defs>
       <use xlink:href="#DejaVuSans-31"/>
       <use xlink:href="#DejaVuSans-30" x="63.623047"/>
       <use xlink:href="#DejaVuSans-30" x="127.246094"/>
      </g>
     </g>
    </g>
    <g id="xtick_4">
     <g id="line2d_4">
      <path d="M 263.623389 319.138125 
L 263.623389 22.318125 
" clip-path="url(#p54a191ee5d)" style="fill: none; stroke: #ffffff; stroke-linecap: round"/>
     </g>
     <g id="text_4">
      <!-- 150 -->
      <g style="fill: #262626" transform="translate(253.125264 336.996406)scale(0.11 -0.11)">
       <use xlink:href="#DejaVuSans-31"/>
       <use xlink:href="#DejaVuSans-35" x="63.623047"/>
       <use xlink:href="#DejaVuSans-30" x="127.246094"/>
      </g>
     </g>
    </g>
    <g id="xtick_5">
     <g id="line2d_5">
      <path d="M 329.366867 319.138125 
L 329.366867 22.318125 
" clip-path="url(#p54a191ee5d)" style="fill: none; stroke: #ffffff; stroke-linecap: round"/>
     </g>
     <g id="text_5">
      <!-- 200 -->
      <g style="fill: #262626" transform="translate(318.868742 336.996406)scale(0.11 -0.11)">
       <defs>
        <path id="DejaVuSans-32" d="M 1228 531 
L 3431 531 
L 3431 0 
L 469 0 
L 469 531 
Q 828 903 1448 1529 
Q 2069 2156 2228 2338 
Q 2531 2678 2651 2914 
Q 2772 3150 2772 3378 
Q 2772 3750 2511 3984 
Q 2250 4219 1831 4219 
Q 1534 4219 1204 4116 
Q 875 4013 500 3803 
L 500 4441 
Q 881 4594 1212 4672 
Q 1544 4750 1819 4750 
Q 2544 4750 2975 4387 
Q 3406 4025 3406 3419 
Q 3406 3131 3298 2873 
Q 3191 2616 2906 2266 
Q 2828 2175 2409 1742 
Q 1991 1309 1228 531 
z
" transform="scale(0.015625)"/>
       </defs>
       <use xlink:href="#DejaVuSans-32"/>
       <use xlink:href="#DejaVuSans-30" x="63.623047"/>
       <use xlink:href="#DejaVuSans-30" x="127.246094"/>
      </g>
     </g>
    </g>
    <g id="text_6">
     <!-- Generation -->
     <g style="fill: #262626" transform="translate(163.750912 352.402187)scale(0.12 -0.12)">
      <defs>
       <path id="DejaVuSans-47" d="M 3809 666 
L 3809 1919 
L 2778 1919 
L 2778 2438 
L 4434 2438 
L 4434 434 
Q 4069 175 3628 42 
Q 3188 -91 2688 -91 
Q 1594 -91 976 548 
Q 359 1188 359 2328 
Q 359 3472 976 4111 
Q 1594 4750 2688 4750 
Q 3144 4750 3555 4637 
Q 3966 4525 4313 4306 
L 4313 3634 
Q 3963 3931 3569 4081 
Q 3175 4231 2741 4231 
Q 1884 4231 1454 3753 
Q 1025 3275 1025 2328 
Q 1025 1384 1454 906 
Q 1884 428 2741 428 
Q 3075 428 3337 486 
Q 3600 544 3809 666 
z
" transform="scale(0.015625)"/>
       <path id="DejaVuSans-65" d="M 3597 1894 
L 3597 1613 
L 953 1613 
Q 991 1019 1311 708 
Q 1631 397 2203 397 
Q 2534 397 2845 478 
Q 3156 559 3463 722 
L 3463 178 
Q 3153 47 2828 -22 
Q 2503 -91 2169 -91 
Q 1331 -91 842 396 
Q 353 884 353 1716 
Q 353 2575 817 3079 
Q 1281 3584 2069 3584 
Q 2775 3584 3186 3129 
Q 3597 2675 3597 1894 
z
M 3022 2063 
Q 3016 2534 2758 2815 
Q 2500 3097 2075 3097 
Q 1594 3097 1305 2825 
Q 1016 2553 972 2059 
L 3022 2063 
z
" transform="scale(0.015625)"/>
       <path id="DejaVuSans-6e" d="M 3513 2113 
L 3513 0 
L 2938 0 
L 2938 2094 
Q 2938 2591 2744 2837 
Q 2550 3084 2163 3084 
Q 1697 3084 1428 2787 
Q 1159 2491 1159 1978 
L 1159 0 
L 581 0 
L 581 3500 
L 1159 3500 
L 1159 2956 
Q 1366 3272 1645 3428 
Q 1925 3584 2291 3584 
Q 2894 3584 3203 3211 
Q 3513 2838 3513 2113 
z
" transform="scale(0.015625)"/>
       <path id="DejaVuSans-72" d="M 2631 2963 
Q 2534 3019 2420 3045 
Q 2306 3072 2169 3072 
Q 1681 3072 1420 2755 
Q 1159 2438 1159 1844 
L 1159 0 
L 581 0 
L 581 3500 
L 1159 3500 
L 1159 2956 
Q 1341 3275 1631 3429 
Q 1922 3584 2338 3584 
Q 2397 3584 2469 3576 
Q 2541 3569 2628 3553 
L 2631 2963 
z
" transform="scale(0.015625)"/>
       <path id="DejaVuSans-61" d="M 2194 1759 
Q 1497 1759 1228 1600 
Q 959 1441 959 1056 
Q 959 750 1161 570 
Q 1363 391 1709 391 
Q 2188 391 2477 730 
Q 2766 1069 2766 1631 
L 2766 1759 
L 2194 1759 
z
M 3341 1997 
L 3341 0 
L 2766 0 
L 2766 531 
Q 2569 213 2275 61 
Q 1981 -91 1556 -91 
Q 1019 -91 701 211 
Q 384 513 384 1019 
Q 384 1609 779 1909 
Q 1175 2209 1959 2209 
L 2766 2209 
L 2766 2266 
Q 2766 2663 2505 2880 
Q 2244 3097 1772 3097 
Q 1472 3097 1187 3025 
Q 903 2953 641 2809 
L 641 3341 
Q 956 3463 1253 3523 
Q 1550 3584 1831 3584 
Q 2591 3584 2966 3190 
Q 3341 2797 3341 1997 
z
" transform="scale(0.015625)"/>
       <path id="DejaVuSans-74" d="M 1172 4494 
L 1172 3500 
L 2356 3500 
L 2356 3053 
L 1172 3053 
L 1172 1153 
Q 1172 725 1289 603 
Q 1406 481 1766 481 
L 2356 481 
L 2356 0 
L 1766 0 
Q 1100 0 847 248 
Q 594 497 594 1153 
L 594 3053 
L 172 3053 
L 172 3500 
L 594 3500 
L 594 4494 
L 1172 4494 
z
" transform="scale(0.015625)"/>
       <path id="DejaVuSans-69" d="M 603 3500 
L 1178 3500 
L 1178 0 
L 603 0 
L 603 3500 
z
M 603 4863 
L 1178 4863 
L 1178 4134 
L 603 4134 
L 603 4863 
z
" transform="scale(0.015625)"/>
       <path id="DejaVuSans-6f" d="M 1959 3097 
Q 1497 3097 1228 2736 
Q 959 2375 959 1747 
Q 959 1119 1226 758 
Q 1494 397 1959 397 
Q 2419 397 2687 759 
Q 2956 1122 2956 1747 
Q 2956 2369 2687 2733 
Q 2419 3097 1959 3097 
z
M 1959 3584 
Q 2709 3584 3137 3096 
Q 3566 2609 3566 1747 
Q 3566 888 3137 398 
Q 2709 -91 1959 -91 
Q 1206 -91 779 398 
Q 353 888 353 1747 
Q 353 2609 779 3096 
Q 1206 3584 1959 3584 
z
" transform="scale(0.015625)"/>
      </defs>
      <use xlink:href="#DejaVuSans-47"/>
      <use xlink:href="#DejaVuSans-65" x="77.490234"/>
      <use xlink:href="#DejaVuSans-6e" x="139.013672"/>
      <use xlink:href="#DejaVuSans-65" x="202.392578"/>
      <use xlink:href="#DejaVuSans-72" x="263.916016"/>
      <use xlink:href="#DejaVuSans-61" x="305.029297"/>
      <use xlink:href="#DejaVuSans-74" x="366.308594"/>
      <use xlink:href="#DejaVuSans-69" x="405.517578"/>
      <use xlink:href="#DejaVuSans-6f" x="433.300781"/>
      <use xlink:href="#DejaVuSans-6e" x="494.482422"/>
     </g>
    </g>
   </g>
   <g id="matplotlib.axis_2">
    <g id="ytick_1">
     <g id="line2d_6">
      <path d="M 53.31 307.342724 
L 341.13495 307.342724 
" clip-path="url(#p54a191ee5d)" style="fill: none; stroke: #ffffff; stroke-linecap: round"/>
     </g>
     <g id="text_7">
      <!-- 0 -->
      <g style="fill: #262626" transform="translate(36.81125 311.521864)scale(0.11 -0.11)">
       <use xlink:href="#DejaVuSans-30"/>
      </g>
     </g>
    </g>
    <g id="ytick_2">
     <g id="line2d_7">
      <path d="M 53.31 264.915727 
L 341.13495 264.915727 
" clip-path="url(#p54a191ee5d)" style="fill: none; stroke: #ffffff; stroke-linecap: round"/>
     </g>
     <g id="text_8">
      <!-- 50 -->
      <g style="fill: #262626" transform="translate(29.8125 269.094867)scale(0.11 -0.11)">
       <use xlink:href="#DejaVuSans-35"/>
       <use xlink:href="#DejaVuSans-30" x="63.623047"/>
      </g>
     </g>
    </g>
    <g id="ytick_3">
     <g id="line2d_8">
      <path d="M 53.31 222.48873 
L 341.13495 222.48873 
" clip-path="url(#p54a191ee5d)" style="fill: none; stroke: #ffffff; stroke-linecap: round"/>
     </g>
     <g id="text_9">
      <!-- 100 -->
      <g style="fill: #262626" transform="translate(22.81375 226.66787)scale(0.11 -0.11)">
       <use xlink:href="#DejaVuSans-31"/>
       <use xlink:href="#DejaVuSans-30" x="63.623047"/>
       <use xlink:href="#DejaVuSans-30" x="127.246094"/>
      </g>
     </g>
    </g>
    <g id="ytick_4">
     <g id="line2d_9">
      <path d="M 53.31 180.061733 
L 341.13495 180.061733 
" clip-path="url(#p54a191ee5d)" style="fill: none; stroke: #ffffff; stroke-linecap: round"/>
     </g>
     <g id="text_10">
      <!-- 150 -->
      <g style="fill: #262626" transform="translate(22.81375 184.240873)scale(0.11 -0.11)">
       <use xlink:href="#DejaVuSans-31"/>
       <use xlink:href="#DejaVuSans-35" x="63.623047"/>
       <use xlink:href="#DejaVuSans-30" x="127.246094"/>
      </g>
     </g>
    </g>
    <g id="ytick_5">
     <g id="line2d_10">
      <path d="M 53.31 137.634736 
L 341.13495 137.634736 
" clip-path="url(#p54a191ee5d)" style="fill: none; stroke: #ffffff; stroke-linecap: round"/>
     </g>
     <g id="text_11">
      <!-- 200 -->
      <g style="fill: #262626" transform="translate(22.81375 141.813877)scale(0.11 -0.11)">
       <use xlink:href="#DejaVuSans-32"/>
       <use xlink:href="#DejaVuSans-30" x="63.623047"/>
       <use xlink:href="#DejaVuSans-30" x="127.246094"/>
      </g>
     </g>
    </g>
    <g id="ytick_6">
     <g id="line2d_11">
      <path d="M 53.31 95.207739 
L 341.13495 95.207739 
" clip-path="url(#p54a191ee5d)" style="fill: none; stroke: #ffffff; stroke-linecap: round"/>
     </g>
     <g id="text_12">
      <!-- 250 -->
      <g style="fill: #262626" transform="translate(22.81375 99.38688)scale(0.11 -0.11)">
       <use xlink:href="#DejaVuSans-32"/>
       <use xlink:href="#DejaVuSans-35" x="63.623047"/>
       <use xlink:href="#DejaVuSans-30" x="127.246094"/>
      </g>
     </g>
    </g>
    <g id="ytick_7">
     <g id="line2d_12">
      <path d="M 53.31 52.780742 
L 341.13495 52.780742 
" clip-path="url(#p54a191ee5d)" style="fill: none; stroke: #ffffff; stroke-linecap: round"/>
     </g>
     <g id="text_13">
      <!-- 300 -->
      <g style="fill: #262626" transform="translate(22.81375 56.959883)scale(0.11 -0.11)">
       <defs>
        <path id="DejaVuSans-33" d="M 2597 2516 
Q 3050 2419 3304 2112 
Q 3559 1806 3559 1356 
Q 3559 666 3084 287 
Q 2609 -91 1734 -91 
Q 1441 -91 1130 -33 
Q 819 25 488 141 
L 488 750 
Q 750 597 1062 519 
Q 1375 441 1716 441 
Q 2309 441 2620 675 
Q 2931 909 2931 1356 
Q 2931 1769 2642 2001 
Q 2353 2234 1838 2234 
L 1294 2234 
L 1294 2753 
L 1863 2753 
Q 2328 2753 2575 2939 
Q 2822 3125 2822 3475 
Q 2822 3834 2567 4026 
Q 2313 4219 1838 4219 
Q 1578 4219 1281 4162 
Q 984 4106 628 3988 
L 628 4550 
Q 988 4650 1302 4700 
Q 1616 4750 1894 4750 
Q 2613 4750 3031 4423 
Q 3450 4097 3450 3541 
Q 3450 3153 3228 2886 
Q 3006 2619 2597 2516 
z
" transform="scale(0.015625)"/>
       </defs>
       <use xlink:href="#DejaVuSans-33"/>
       <use xlink:href="#DejaVuSans-30" x="63.623047"/>
       <use xlink:href="#DejaVuSans-30" x="127.246094"/>
      </g>
     </g>
    </g>
    <g id="text_14">
     <!-- Fitness -->
     <g style="fill: #262626" transform="translate(16.318125 191.50875)rotate(-90)scale(0.12 -0.12)">
      <defs>
       <path id="DejaVuSans-46" d="M 628 4666 
L 3309 4666 
L 3309 4134 
L 1259 4134 
L 1259 2759 
L 3109 2759 
L 3109 2228 
L 1259 2228 
L 1259 0 
L 628 0 
L 628 4666 
z
" transform="scale(0.015625)"/>
       <path id="DejaVuSans-73" d="M 2834 3397 
L 2834 2853 
Q 2591 2978 2328 3040 
Q 2066 3103 1784 3103 
Q 1356 3103 1142 2972 
Q 928 2841 928 2578 
Q 928 2378 1081 2264 
Q 1234 2150 1697 2047 
L 1894 2003 
Q 2506 1872 2764 1633 
Q 3022 1394 3022 966 
Q 3022 478 2636 193 
Q 2250 -91 1575 -91 
Q 1294 -91 989 -36 
Q 684 19 347 128 
L 347 722 
Q 666 556 975 473 
Q 1284 391 1588 391 
Q 1994 391 2212 530 
Q 2431 669 2431 922 
Q 2431 1156 2273 1281 
Q 2116 1406 1581 1522 
L 1381 1569 
Q 847 1681 609 1914 
Q 372 2147 372 2553 
Q 372 3047 722 3315 
Q 1072 3584 1716 3584 
Q 2034 3584 2315 3537 
Q 2597 3491 2834 3397 
z
" transform="scale(0.015625)"/>
      </defs>
      <use xlink:href="#DejaVuSans-46"/>
      <use xlink:href="#DejaVuSans-69" x="50.269531"/>
      <use xlink:href="#DejaVuSans-74" x="78.052734"/>
      <use xlink:href="#DejaVuSans-6e" x="117.261719"/>
      <use xlink:href="#DejaVuSans-65" x="180.640625"/>
      <use xlink:href="#DejaVuSans-73" x="242.164062"/>
      <use xlink:href="#DejaVuSans-73" x="294.263672"/>
     </g>
    </g>
   </g>
   <g id="PolyCollection_1">
    <defs>
     <path id="md76612aac1" d="M 66.392952 -66.157344 
L 66.392952 -58.042518 
L 67.707822 -72.307933 
L 69.022691 -81.854007 
L 70.337561 -94.212196 
L 71.652431 -98.215581 
L 72.9673 -105.162339 
L 74.28217 -106.622093 
L 75.597039 -106.192519 
L 76.911909 -105.534901 
L 78.226778 -101.450639 
L 79.541648 -114.152884 
L 80.856518 -103.572652 
L 82.171387 -108.84951 
L 83.486257 -108.84951 
L 84.801126 -110.142207 
L 86.115996 -110.175354 
L 87.430865 -110.095803 
L 88.745735 -106.542542 
L 90.060605 -114.152884 
L 91.375474 -114.152884 
L 92.690344 -114.152884 
L 94.005213 -114.152884 
L 95.320083 -114.152884 
L 96.634953 -114.152884 
L 97.949822 -114.152884 
L 99.264692 -114.152884 
L 100.579561 -114.152884 
L 101.894431 -108.584341 
L 103.2093 -108.902544 
L 104.52417 -114.152884 
L 105.83904 -114.152884 
L 107.153909 -114.152884 
L 108.468779 -109.857151 
L 109.783648 -108.584341 
L 111.098518 -112.561872 
L 112.413387 -114.152884 
L 113.728257 -110.811758 
L 115.043127 -114.152884 
L 116.357996 -114.152884 
L 117.672866 -114.152884 
L 118.987735 -108.584341 
L 120.302605 -108.584341 
L 121.617474 -108.584341 
L 122.932344 -114.152884 
L 124.247214 -106.940295 
L 125.562083 -106.934329 
L 126.876953 -114.152884 
L 128.191822 -106.754677 
L 129.506692 -109.538949 
L 130.821561 -114.152884 
L 132.136431 -110.175354 
L 133.451301 -110.493556 
L 134.76617 -110.493556 
L 136.08104 -108.902544 
L 137.395909 -114.152884 
L 138.710779 -114.152884 
L 140.025648 -109.618499 
L 141.340518 -105.561418 
L 142.655388 -108.584341 
L 143.970257 -104.871979 
L 145.285127 -108.584341 
L 146.599996 -105.296249 
L 147.914866 -109.857151 
L 149.229736 -114.152884 
L 150.544605 -114.152884 
L 151.859475 -114.152884 
L 153.174344 -114.152884 
L 154.489214 -109.379847 
L 155.804083 -109.538949 
L 157.118953 -114.152884 
L 158.433823 -108.584341 
L 159.748692 -114.152884 
L 161.063562 -107.5767 
L 162.378431 -105.190181 
L 163.693301 -106.72816 
L 165.00817 -114.152884 
L 166.32304 -114.152884 
L 167.63791 -114.152884 
L 168.952779 -108.584341 
L 170.267649 -114.152884 
L 171.582518 -108.584341 
L 172.897388 -114.152884 
L 174.212257 -114.152884 
L 175.527127 -114.152884 
L 176.841997 -114.152884 
L 178.156866 -114.152884 
L 179.471736 -109.061645 
L 180.786605 -105.137148 
L 182.101475 -108.054004 
L 183.416344 -114.152884 
L 184.731214 -114.152884 
L 186.046084 -114.152884 
L 187.360953 -108.584341 
L 188.675823 -107.603217 
L 189.990692 -106.038721 
L 191.305562 -109.061645 
L 192.620431 -109.69805 
L 193.935301 -109.69805 
L 195.250171 -114.152884 
L 196.56504 -109.538949 
L 197.87991 -114.152884 
L 199.194779 -114.152884 
L 200.509649 -114.152884 
L 201.824519 -114.152884 
L 203.139388 -111.05041 
L 204.454258 -111.05041 
L 205.769127 -106.012204 
L 207.083997 -107.046362 
L 208.398866 -108.902544 
L 209.713736 -108.584341 
L 211.028606 -110.493556 
L 212.343475 -103.409573 
L 213.658345 -105.906137 
L 214.973214 -108.982094 
L 216.288084 -114.152884 
L 217.602953 -114.152884 
L 218.917823 -114.152884 
L 220.232693 -114.152884 
L 221.547562 -107.417599 
L 222.862432 -114.152884 
L 224.177301 -114.152884 
L 225.492171 -114.152884 
L 226.80704 -114.152884 
L 228.12191 -106.224339 
L 229.43678 -103.731753 
L 230.751649 -114.152884 
L 232.066519 -114.152884 
L 233.381388 -114.152884 
L 234.696258 -114.152884 
L 236.011127 -114.152884 
L 237.325997 -114.152884 
L 238.640867 -114.152884 
L 239.955736 -114.152884 
L 241.270606 -114.152884 
L 242.585475 -110.302635 
L 243.900345 -114.152884 
L 245.215214 -114.152884 
L 246.530084 -110.573107 
L 247.844954 -110.493556 
L 249.159823 -106.940295 
L 250.474693 -109.061645 
L 251.789562 -106.72816 
L 253.104432 -114.152884 
L 254.419302 -111.368613 
L 255.734171 -103.544809 
L 257.049041 -106.832902 
L 258.36391 -108.584341 
L 259.67878 -114.152884 
L 260.993649 -114.152884 
L 262.308519 -110.811758 
L 263.623389 -108.345689 
L 264.938258 -110.573107 
L 266.253128 -103.466585 
L 267.567997 -114.152884 
L 268.882867 -105.190181 
L 270.197736 -106.144789 
L 271.512606 -111.368613 
L 272.827476 -111.368613 
L 274.142345 -111.368613 
L 275.457215 -106.72816 
L 276.772084 -108.584341 
L 278.086954 -114.152884 
L 279.401823 -114.152884 
L 280.716693 -107.311531 
L 282.031563 -109.69805 
L 283.346432 -114.152884 
L 284.661302 -111.209512 
L 285.976171 -107.5767 
L 287.291041 -114.152884 
L 288.60591 -110.254904 
L 289.92078 -110.254904 
L 291.23565 -106.383441 
L 292.550519 -114.152884 
L 293.865389 -114.152884 
L 295.180258 -114.152884 
L 296.495128 -110.175354 
L 297.809997 -110.334455 
L 299.124867 -114.152884 
L 300.439737 -110.493556 
L 301.754606 -110.493556 
L 303.069476 -114.152884 
L 304.384345 -105.720519 
L 305.699215 -107.229992 
L 307.014085 -114.152884 
L 308.328954 -101.843752 
L 309.643824 -104.925013 
L 310.958693 -105.720519 
L 312.273563 -114.152884 
L 313.588432 -114.152884 
L 314.903302 -103.493101 
L 316.218172 -104.28463 
L 317.533041 -109.538949 
L 318.847911 -109.747106 
L 320.16278 -110.493556 
L 321.47765 -114.152884 
L 322.792519 -114.152884 
L 324.107389 -114.152884 
L 325.422259 -102.430438 
L 326.737128 -110.807781 
L 328.051998 -109.061645 
L 328.051998 -115.107492 
L 328.051998 -115.107492 
L 326.737128 -115.266593 
L 325.422259 -114.471087 
L 324.107389 -115.266593 
L 322.792519 -115.107492 
L 321.47765 -115.266593 
L 320.16278 -114.789289 
L 318.847911 -114.630188 
L 317.533041 -114.152884 
L 316.218172 -114.152884 
L 314.903302 -114.152884 
L 313.588432 -114.152884 
L 312.273563 -114.152884 
L 310.958693 -114.152884 
L 309.643824 -114.152884 
L 308.328954 -112.880075 
L 307.014085 -114.152884 
L 305.699215 -114.152884 
L 304.384345 -114.152884 
L 303.069476 -114.152884 
L 301.754606 -114.152884 
L 300.439737 -114.152884 
L 299.124867 -114.152884 
L 297.809997 -114.152884 
L 296.495128 -114.152884 
L 295.180258 -114.152884 
L 293.865389 -114.152884 
L 292.550519 -114.152884 
L 291.23565 -114.152884 
L 289.92078 -114.152884 
L 288.60591 -114.152884 
L 287.291041 -114.152884 
L 285.976171 -114.152884 
L 284.661302 -114.152884 
L 283.346432 -114.152884 
L 282.031563 -114.152884 
L 280.716693 -114.152884 
L 279.401823 -114.152884 
L 278.086954 -114.152884 
L 276.772084 -114.152884 
L 275.457215 -114.152884 
L 274.142345 -114.152884 
L 272.827476 -114.152884 
L 271.512606 -114.152884 
L 270.197736 -114.152884 
L 268.882867 -114.152884 
L 267.567997 -114.152884 
L 266.253128 -114.152884 
L 264.938258 -114.152884 
L 263.623389 -114.152884 
L 262.308519 -114.152884 
L 260.993649 -114.152884 
L 259.67878 -114.152884 
L 258.36391 -114.152884 
L 257.049041 -114.152884 
L 255.734171 -113.224794 
L 254.419302 -114.152884 
L 253.104432 -114.152884 
L 251.789562 -114.152884 
L 250.474693 -114.152884 
L 249.159823 -114.152884 
L 247.844954 -114.152884 
L 246.530084 -114.152884 
L 245.215214 -114.152884 
L 243.900345 -114.152884 
L 242.585475 -114.152884 
L 241.270606 -114.152884 
L 239.955736 -114.152884 
L 238.640867 -114.152884 
L 237.325997 -114.152884 
L 236.011127 -114.152884 
L 234.696258 -114.152884 
L 233.381388 -114.152884 
L 232.066519 -114.152884 
L 230.751649 -114.152884 
L 229.43678 -114.152884 
L 228.12191 -114.152884 
L 226.80704 -114.152884 
L 225.492171 -114.152884 
L 224.177301 -114.152884 
L 222.862432 -114.152884 
L 221.547562 -114.152884 
L 220.232693 -114.152884 
L 218.917823 -114.152884 
L 217.602953 -114.152884 
L 216.288084 -114.152884 
L 214.973214 -114.152884 
L 213.658345 -114.152884 
L 212.343475 -114.152884 
L 211.028606 -114.152884 
L 209.713736 -114.152884 
L 208.398866 -114.152884 
L 207.083997 -114.152884 
L 205.769127 -114.152884 
L 204.454258 -114.152884 
L 203.139388 -114.152884 
L 201.824519 -114.152884 
L 200.509649 -114.152884 
L 199.194779 -114.152884 
L 197.87991 -114.152884 
L 196.56504 -114.152884 
L 195.250171 -114.152884 
L 193.935301 -114.152884 
L 192.620431 -114.152884 
L 191.305562 -114.152884 
L 189.990692 -114.152884 
L 188.675823 -114.152884 
L 187.360953 -114.152884 
L 186.046084 -114.152884 
L 184.731214 -114.152884 
L 183.416344 -114.152884 
L 182.101475 -114.152884 
L 180.786605 -114.152884 
L 179.471736 -114.152884 
L 178.156866 -114.152884 
L 176.841997 -114.152884 
L 175.527127 -114.152884 
L 174.212257 -114.152884 
L 172.897388 -114.152884 
L 171.582518 -114.152884 
L 170.267649 -114.152884 
L 168.952779 -114.152884 
L 167.63791 -114.152884 
L 166.32304 -114.152884 
L 165.00817 -114.152884 
L 163.693301 -114.152884 
L 162.378431 -114.152884 
L 161.063562 -114.152884 
L 159.748692 -114.152884 
L 158.433823 -114.152884 
L 157.118953 -114.152884 
L 155.804083 -114.152884 
L 154.489214 -114.152884 
L 153.174344 -114.152884 
L 151.859475 -114.152884 
L 150.544605 -114.152884 
L 149.229736 -114.152884 
L 147.914866 -114.152884 
L 146.599996 -114.152884 
L 145.285127 -114.152884 
L 143.970257 -114.152884 
L 142.655388 -114.152884 
L 141.340518 -114.152884 
L 140.025648 -114.152884 
L 138.710779 -114.152884 
L 137.395909 -114.152884 
L 136.08104 -114.152884 
L 134.76617 -114.152884 
L 133.451301 -114.152884 
L 132.136431 -114.152884 
L 130.821561 -114.152884 
L 129.506692 -114.152884 
L 128.191822 -114.152884 
L 126.876953 -114.152884 
L 125.562083 -114.152884 
L 124.247214 -114.152884 
L 122.932344 -114.152884 
L 121.617474 -114.152884 
L 120.302605 -114.152884 
L 118.987735 -114.152884 
L 117.672866 -114.152884 
L 116.357996 -114.152884 
L 115.043127 -114.152884 
L 113.728257 -114.152884 
L 112.413387 -114.152884 
L 111.098518 -114.152884 
L 109.783648 -114.152884 
L 108.468779 -114.152884 
L 107.153909 -114.152884 
L 105.83904 -114.152884 
L 104.52417 -114.152884 
L 103.2093 -114.152884 
L 101.894431 -114.152884 
L 100.579561 -114.152884 
L 99.264692 -114.152884 
L 97.949822 -114.152884 
L 96.634953 -114.152884 
L 95.320083 -114.152884 
L 94.005213 -114.152884 
L 92.690344 -114.152884 
L 91.375474 -114.152884 
L 90.060605 -114.152884 
L 88.745735 -114.152884 
L 87.430865 -114.152884 
L 86.115996 -114.152884 
L 84.801126 -114.152884 
L 83.486257 -114.152884 
L 82.171387 -114.152884 
L 80.856518 -114.152884 
L 79.541648 -114.152884 
L 78.226778 -112.720973 
L 76.911909 -114.152884 
L 75.597039 -113.410412 
L 74.28217 -113.489963 
L 72.9673 -113.330861 
L 71.652431 -109.459398 
L 70.337561 -108.054004 
L 69.022691 -96.599377 
L 67.707822 -87.455697 
L 66.392952 -66.157344 
z
" style="stroke: #edd1cb; stroke-opacity: 0.2"/>
    </defs>
    <g clip-path="url(#p54a191ee5d)">
     <use xlink:href="#md76612aac1" x="0" y="362.097812" style="fill: #edd1cb; fill-opacity: 0.2; stroke: #edd1cb; stroke-opacity: 0.2"/>
    </g>
   </g>
   <g id="PolyCollection_2">
    <defs>
     <path id="m7aad24d512" d="M 66.392952 -64.620028 
L 66.392952 -57.962967 
L 67.707822 -68.702964 
L 69.022691 -70.107695 
L 70.337561 -72.998697 
L 71.652431 -71.060977 
L 72.9673 -74.058709 
L 74.28217 -74.13826 
L 75.597039 -75.702756 
L 76.911909 -72.122978 
L 78.226778 -71.671528 
L 79.541648 -73.845912 
L 80.856518 -77.638487 
L 82.171387 -78.46051 
L 83.486257 -81.245445 
L 84.801126 -81.403883 
L 86.115996 -83.15466 
L 87.430865 -82.729727 
L 88.745735 -83.710851 
L 90.060605 -79.415118 
L 91.375474 -79.574882 
L 92.690344 -85.327055 
L 94.005213 -86.071516 
L 95.320083 -87.873337 
L 96.634953 -85.880594 
L 97.949822 -82.542783 
L 99.264692 -84.213346 
L 100.579561 -82.066805 
L 101.894431 -84.135784 
L 103.2093 -84.957144 
L 104.52417 -85.222976 
L 105.83904 -82.331974 
L 107.153909 -87.741416 
L 108.468779 -87.927697 
L 109.783648 -82.438041 
L 111.098518 -81.743962 
L 112.413387 -83.418503 
L 113.728257 -83.366132 
L 115.043127 -87.581652 
L 116.357996 -84.772189 
L 117.672866 -88.669507 
L 118.987735 -86.597213 
L 120.302605 -87.237595 
L 121.617474 -81.348861 
L 122.932344 -88.696023 
L 124.247214 -88.510405 
L 125.562083 -91.398756 
L 126.876953 -88.72254 
L 128.191822 -86.917404 
L 129.506692 -89.439159 
L 130.821561 -86.07019 
L 132.136431 -88.428866 
L 133.451301 -86.017819 
L 134.76617 -84.450009 
L 136.08104 -86.866359 
L 137.395909 -85.063875 
L 138.710779 -90.976474 
L 140.025648 -83.550424 
L 141.340518 -87.049988 
L 142.655388 -85.327718 
L 143.970257 -81.961401 
L 145.285127 -86.203437 
L 146.599996 -89.333091 
L 147.914866 -91.55852 
L 149.229736 -91.294014 
L 150.544605 -88.111989 
L 151.859475 -87.423213 
L 153.174344 -86.945247 
L 154.489214 -79.653107 
L 155.804083 -81.057175 
L 157.118953 -86.283651 
L 158.433823 -87.423876 
L 159.748692 -83.498716 
L 161.063562 -89.492192 
L 162.378431 -89.041406 
L 163.693301 -85.832201 
L 165.00817 -86.52164 
L 166.32304 -86.705269 
L 167.63791 -91.931082 
L 168.952779 -88.401686 
L 170.267649 -85.593549 
L 171.582518 -83.100963 
L 172.897388 -82.172873 
L 174.212257 -88.536922 
L 175.527127 -87.712247 
L 176.841997 -87.238258 
L 178.156866 -89.677811 
L 179.471736 -88.852473 
L 180.786605 -90.923441 
L 182.101475 -92.354689 
L 183.416344 -91.319205 
L 184.731214 -88.669507 
L 186.046084 -86.546168 
L 187.360953 -91.984779 
L 188.675823 -92.646375 
L 189.990692 -89.782552 
L 191.305562 -93.756769 
L 192.620431 -96.304377 
L 193.935301 -96.173782 
L 195.250171 -104.340316 
L 196.56504 -100.735347 
L 197.87991 -98.374682 
L 199.194779 -98.267952 
L 200.509649 -94.715354 
L 201.824519 -96.385254 
L 203.139388 -94.714691 
L 204.454258 -95.88077 
L 205.769127 -96.677602 
L 207.083997 -95.005713 
L 208.398866 -104.580293 
L 209.713736 -100.309088 
L 211.028606 -104.633327 
L 212.343475 -111.87177 
L 213.658345 -105.243215 
L 214.973214 -104.894518 
L 216.288084 -95.218511 
L 217.602953 -93.733566 
L 218.917823 -96.677602 
L 220.232693 -96.994479 
L 221.547562 -96.916254 
L 222.862432 -99.90802 
L 224.177301 -97.022322 
L 225.492171 -101.104594 
L 226.80704 -101.663437 
L 228.12191 -95.056758 
L 229.43678 -92.141228 
L 230.751649 -90.897587 
L 232.066519 -94.264567 
L 233.381388 -95.140286 
L 234.696258 -94.74187 
L 236.011127 -98.002783 
L 237.325997 -94.529073 
L 238.640867 -91.66525 
L 239.955736 -94.712039 
L 241.270606 -96.836703 
L 242.585475 -96.33222 
L 243.900345 -92.485285 
L 245.215214 -94.95268 
L 246.530084 -96.676276 
L 247.844954 -96.200961 
L 249.159823 -95.562568 
L 250.474693 -96.862557 
L 251.789562 -101.819887 
L 253.104432 -100.045908 
L 254.419302 -93.176049 
L 255.734171 -98.559637 
L 257.049041 -100.20302 
L 258.36391 -98.374682 
L 259.67878 -95.59041 
L 260.993649 -97.920581 
L 262.308519 -101.264358 
L 263.623389 -98.295131 
L 264.938258 -99.273604 
L 266.253128 -100.045245 
L 267.567997 -94.768387 
L 268.882867 -93.414701 
L 270.197736 -98.055154 
L 271.512606 -94.495264 
L 272.827476 -95.08659 
L 274.142345 -95.616927 
L 275.457215 -95.907287 
L 276.772084 -99.036941 
L 278.086954 -92.380543 
L 279.401823 -98.082996 
L 280.716693 -99.219244 
L 282.031563 -93.229083 
L 283.346432 -92.779622 
L 284.661302 -96.757153 
L 285.976171 -92.461419 
L 287.291041 -90.366586 
L 288.60591 -88.056304 
L 289.92078 -88.031113 
L 291.23565 -90.815384 
L 292.550519 -93.042802 
L 293.865389 -90.499171 
L 295.180258 -90.657609 
L 296.495128 -89.942316 
L 297.809997 -92.276464 
L 299.124867 -84.744346 
L 300.439737 -89.145484 
L 301.754606 -90.896261 
L 303.069476 -89.279395 
L 304.384345 -94.264567 
L 305.699215 -93.814443 
L 307.014085 -95.246354 
L 308.328954 -91.030171 
L 309.643824 -84.612425 
L 310.958693 -86.574674 
L 312.273563 -89.227024 
L 313.588432 -87.821629 
L 314.903302 -89.623451 
L 316.218172 -98.216244 
L 317.533041 -99.062132 
L 318.847911 -95.218511 
L 320.16278 -91.984779 
L 321.47765 -94.900972 
L 322.792519 -88.590619 
L 324.107389 -91.266171 
L 325.422259 -91.560509 
L 326.737128 -88.510405 
L 328.051998 -90.314216 
L 328.051998 -101.637583 
L 328.051998 -101.637583 
L 326.737128 -100.94947 
L 325.422259 -102.487449 
L 324.107389 -102.911056 
L 322.792519 -102.644562 
L 321.47765 -106.701643 
L 320.16278 -104.05327 
L 318.847911 -104.635316 
L 317.533041 -111.157141 
L 316.218172 -108.293981 
L 314.903302 -100.948145 
L 313.588432 -100.205672 
L 312.273563 -99.489717 
L 310.958693 -98.482075 
L 309.643824 -95.459815 
L 308.328954 -101.507651 
L 307.014085 -105.16499 
L 305.699215 -103.281629 
L 304.384345 -104.156023 
L 303.069476 -100.763189 
L 301.754606 -100.046571 
L 300.439737 -99.093289 
L 299.124867 -96.202287 
L 297.809997 -102.99127 
L 296.495128 -99.489054 
L 295.180258 -101.107909 
L 293.865389 -100.869257 
L 292.550519 -102.009482 
L 291.23565 -100.417144 
L 289.92078 -99.015065 
L 288.60591 -99.595784 
L 287.291041 -103.317427 
L 285.976171 -105.322766 
L 284.661302 -108.481588 
L 283.346432 -104.395338 
L 282.031563 -103.122528 
L 280.716693 -108.771948 
L 279.401823 -108.162723 
L 278.086954 -102.883213 
L 276.772084 -109.566791 
L 275.457215 -107.764307 
L 274.142345 -108.45242 
L 272.827476 -108.081846 
L 271.512606 -107.340037 
L 270.197736 -110.839601 
L 268.882867 -105.402979 
L 267.567997 -106.544531 
L 266.253128 -113.702761 
L 264.938258 -115.638492 
L 263.623389 -113.412401 
L 262.308519 -117.576213 
L 260.993649 -114.445233 
L 259.67878 -111.448826 
L 258.36391 -109.221409 
L 257.049041 -111.186309 
L 255.734171 -110.441848 
L 254.419302 -106.624081 
L 253.104432 -110.600286 
L 251.789562 -113.7843 
L 250.474693 -110.124971 
L 249.159823 -108.187251 
L 247.844954 -109.039768 
L 246.530084 -110.255567 
L 245.215214 -108.903207 
L 243.900345 -105.032406 
L 242.585475 -108.215094 
L 241.270606 -109.064297 
L 239.955736 -107.31352 
L 238.640867 -104.050619 
L 237.325997 -106.860744 
L 236.011127 -109.327476 
L 234.696258 -106.941621 
L 233.381388 -105.509047 
L 232.066519 -104.714203 
L 230.751649 -102.751955 
L 229.43678 -104.95153 
L 228.12191 -106.490834 
L 226.80704 -110.442511 
L 225.492171 -111.424961 
L 224.177301 -108.425903 
L 222.862432 -113.438255 
L 221.547562 -110.414668 
L 220.232693 -110.230376 
L 218.917823 -109.328802 
L 217.602953 -106.4378 
L 216.288084 -108.53197 
L 214.973214 -117.495336 
L 213.658345 -118.820517 
L 212.343475 -122.931295 
L 211.028606 -118.051528 
L 209.713736 -115.668324 
L 208.398866 -119.244124 
L 207.083997 -110.042769 
L 205.769127 -110.069949 
L 204.454258 -106.914441 
L 203.139388 -109.064297 
L 201.824519 -109.274443 
L 200.509649 -107.019846 
L 199.194779 -108.213105 
L 197.87991 -107.126576 
L 196.56504 -112.722299 
L 195.250171 -115.401166 
L 193.935301 -110.865455 
L 192.620431 -113.761098 
L 191.305562 -107.523666 
L 189.990692 -106.384104 
L 188.675823 -104.557091 
L 187.360953 -105.007878 
L 186.046084 -100.576245 
L 184.731214 -99.303436 
L 183.416344 -102.699584 
L 182.101475 -103.918034 
L 180.786605 -102.489438 
L 179.471736 -100.232852 
L 178.156866 -98.563615 
L 176.841997 -97.979581 
L 175.527127 -99.333267 
L 174.212257 -99.092626 
L 172.897388 -93.789252 
L 171.582518 -93.312611 
L 170.267649 -96.281838 
L 168.952779 -98.26994 
L 167.63791 -101.001841 
L 166.32304 -96.070366 
L 165.00817 -94.584095 
L 163.693301 -95.378938 
L 162.378431 -97.368367 
L 161.063562 -97.660715 
L 159.748692 -93.895982 
L 158.433823 -94.981185 
L 157.118953 -94.928151 
L 155.804083 -93.05142 
L 154.489214 -92.249947 
L 153.174344 -96.60004 
L 151.859475 -96.970614 
L 150.544605 -98.269277 
L 149.229736 -100.444324 
L 147.914866 -100.367425 
L 146.599996 -99.197368 
L 145.285127 -97.660052 
L 143.970257 -92.59533 
L 142.655388 -95.697141 
L 141.340518 -97.4214 
L 140.025648 -94.6895 
L 138.710779 -98.640514 
L 137.395909 -95.538702 
L 136.08104 -96.440276 
L 134.76617 -94.320252 
L 133.451301 -95.593062 
L 132.136431 -97.580502 
L 130.821561 -96.280512 
L 129.506692 -99.489054 
L 128.191822 -96.308355 
L 126.876953 -98.376008 
L 125.562083 -100.151975 
L 124.247214 -97.632873 
L 122.932344 -98.031289 
L 121.617474 -91.985441 
L 120.302605 -95.935793 
L 118.987735 -95.832377 
L 117.672866 -97.978918 
L 116.357996 -94.902298 
L 115.043127 -95.830388 
L 113.728257 -93.366971 
L 112.413387 -92.489925 
L 111.098518 -91.164081 
L 109.783648 -92.145206 
L 108.468779 -95.645433 
L 107.153909 -95.909939 
L 105.83904 -92.516442 
L 104.52417 -94.291747 
L 103.2093 -94.106128 
L 101.894431 -93.709038 
L 100.579561 -90.897587 
L 99.264692 -94.000724 
L 97.949822 -94.000061 
L 96.634953 -95.193983 
L 95.320083 -97.000445 
L 94.005213 -95.061399 
L 92.690344 -95.194646 
L 91.375474 -90.07689 
L 90.060605 -88.066911 
L 88.745735 -90.950621 
L 87.430865 -91.614205 
L 86.115996 -91.42925 
L 84.801126 -91.083868 
L 83.486257 -91.083868 
L 82.171387 -87.927697 
L 80.856518 -85.991965 
L 79.541648 -81.669715 
L 78.226778 -78.992174 
L 76.911909 -79.628579 
L 75.597039 -83.075109 
L 74.28217 -81.089658 
L 72.9673 -80.610366 
L 71.652431 -77.879128 
L 70.337561 -79.097578 
L 69.022691 -76.128351 
L 67.707822 -74.697103 
L 66.392952 -64.620028 
z
" style="stroke: #d499a7; stroke-opacity: 0.2"/>
    </defs>
    <g clip-path="url(#p54a191ee5d)">
     <use xlink:href="#m7aad24d512" x="0" y="362.097812" style="fill: #d499a7; fill-opacity: 0.2; stroke: #d499a7; stroke-opacity: 0.2"/>
    </g>
   </g>
   <g id="PolyCollection_3">
    <defs>
     <path id="m6d6f88b083" d="M 66.392952 -63.108567 
L 66.392952 -56.451506 
L 67.707822 -71.566123 
L 69.022691 -78.726342 
L 70.337561 -80.343871 
L 71.652431 -81.377366 
L 72.9673 -86.201449 
L 74.28217 -85.593549 
L 75.597039 -87.421888 
L 76.911909 -84.346593 
L 78.226778 -81.669052 
L 79.541648 -82.887502 
L 80.856518 -81.537131 
L 82.171387 -81.934221 
L 83.486257 -86.469269 
L 84.801126 -87.502101 
L 86.115996 -86.149741 
L 87.430865 -84.982998 
L 88.745735 -89.915137 
L 90.060605 -85.697628 
L 91.375474 -87.765281 
L 92.690344 -89.14681 
L 94.005213 -84.372447 
L 95.320083 -85.987988 
L 96.634953 -90.605238 
L 97.949822 -90.125946 
L 99.264692 -87.131528 
L 100.579561 -90.525688 
L 101.894431 -88.245237 
L 103.2093 -92.117363 
L 104.52417 -83.895806 
L 105.83904 -84.823234 
L 107.153909 -83.551087 
L 108.468779 -82.090007 
L 109.783648 -79.467489 
L 111.098518 -83.260727 
L 112.413387 -78.221859 
L 113.728257 -82.438041 
L 115.043127 -80.370388 
L 116.357996 -79.678298 
L 117.672866 -83.576941 
L 118.987735 -85.777841 
L 120.302605 -82.06349 
L 121.617474 -83.366132 
L 122.932344 -83.047929 
L 124.247214 -84.029054 
L 125.562083 -85.514662 
L 126.876953 -84.689987 
L 128.191822 -83.834155 
L 129.506692 -89.067923 
L 130.821561 -86.46728 
L 132.136431 -84.638279 
L 133.451301 -82.491738 
L 134.76617 -81.801636 
L 136.08104 -85.249493 
L 137.395909 -81.191085 
L 138.710779 -83.976683 
L 140.025648 -84.347256 
L 141.340518 -84.239863 
L 142.655388 -84.241189 
L 143.970257 -86.228628 
L 145.285127 -79.441635 
L 146.599996 -82.99357 
L 147.914866 -82.090007 
L 149.229736 -82.279603 
L 150.544605 -82.675367 
L 151.859475 -82.172873 
L 153.174344 -78.512218 
L 154.489214 -77.055116 
L 155.804083 -75.649722 
L 157.118953 -78.593758 
L 158.433823 -75.066351 
L 159.748692 -76.949049 
L 161.063562 -82.940536 
L 162.378431 -83.603458 
L 163.693301 -85.592223 
L 165.00817 -80.740961 
L 166.32304 -84.878257 
L 167.63791 -86.89155 
L 168.952779 -83.948177 
L 170.267649 -85.010178 
L 171.582518 -87.821629 
L 172.897388 -92.011295 
L 174.212257 -93.947027 
L 175.527127 -89.385462 
L 176.841997 -88.590619 
L 178.156866 -83.710851 
L 179.471736 -83.126154 
L 180.786605 -90.284384 
L 182.101475 -94.181702 
L 183.416344 -90.737823 
L 184.731214 -89.836912 
L 186.046084 -85.804358 
L 187.360953 -92.249947 
L 188.675823 -89.094439 
L 189.990692 -87.264775 
L 191.305562 -87.343663 
L 192.620431 -87.927034 
L 193.935301 -86.202774 
L 195.250171 -86.705932 
L 196.56504 -84.267043 
L 197.87991 -84.134458 
L 199.194779 -85.6141 
L 200.509649 -84.479178 
L 201.824519 -84.823897 
L 203.139388 -85.726797 
L 204.454258 -85.616751 
L 205.769127 -90.234665 
L 207.083997 -89.832271 
L 208.398866 -90.287036 
L 209.713736 -94.502556 
L 211.028606 -92.487936 
L 212.343475 -96.01468 
L 213.658345 -94.234735 
L 214.973214 -94.74187 
L 216.288084 -92.991094 
L 217.602953 -100.466863 
L 218.917823 -95.747523 
L 220.232693 -96.621917 
L 221.547562 -98.824806 
L 222.862432 -87.632697 
L 224.177301 -89.996013 
L 225.492171 -91.636082 
L 226.80704 -91.135576 
L 228.12191 -90.260519 
L 229.43678 -93.623521 
L 230.751649 -95.404792 
L 232.066519 -93.390173 
L 233.381388 -96.86322 
L 234.696258 -95.985512 
L 236.011127 -92.246633 
L 237.325997 -98.0293 
L 238.640867 -99.115166 
L 239.955736 -96.066388 
L 241.270606 -89.093776 
L 242.585475 -92.514453 
L 243.900345 -89.358945 
L 245.215214 -91.453778 
L 246.530084 -90.472654 
L 247.844954 -87.741416 
L 249.159823 -84.480503 
L 250.474693 -87.529944 
L 251.789562 -85.143425 
L 253.104432 -92.246633 
L 254.419302 -91.71961 
L 255.734171 -97.338535 
L 257.049041 -99.169525 
L 258.36391 -94.95268 
L 259.67878 -88.158394 
L 260.993649 -88.800765 
L 262.308519 -91.900587 
L 263.623389 -87.847483 
L 264.938258 -88.908158 
L 266.253128 -92.776307 
L 267.567997 -91.771981 
L 268.882867 -89.197855 
L 270.197736 -87.291292 
L 271.512606 -85.805021 
L 272.827476 -81.721423 
L 274.142345 -83.075109 
L 275.457215 -86.574674 
L 276.772084 -91.321857 
L 278.086954 -90.863115 
L 279.401823 -87.766607 
L 280.716693 -84.161638 
L 282.031563 -90.312227 
L 283.346432 -92.14388 
L 284.661302 -89.040743 
L 285.976171 -86.388392 
L 287.291041 -93.28278 
L 288.60591 -90.815384 
L 289.92078 -93.599656 
L 291.23565 -90.737823 
L 292.550519 -91.533992 
L 293.865389 -94.341466 
L 295.180258 -92.618532 
L 296.495128 -104.950867 
L 297.809997 -102.272662 
L 299.124867 -95.45186 
L 300.439737 -94.316938 
L 301.754606 -98.187075 
L 303.069476 -98.030626 
L 304.384345 -91.691767 
L 305.699215 -93.124341 
L 307.014085 -90.737823 
L 308.328954 -98.905682 
L 309.643824 -92.6477 
L 310.958693 -95.799894 
L 312.273563 -94.475376 
L 313.588432 -99.542087 
L 314.903302 -104.444394 
L 316.218172 -95.268893 
L 317.533041 -93.707049 
L 318.847911 -104.023439 
L 320.16278 -97.392232 
L 321.47765 -103.253787 
L 322.792519 -102.086381 
L 324.107389 -103.253787 
L 325.422259 -97.099883 
L 326.737128 -99.72638 
L 328.051998 -99.593132 
L 328.051998 -113.172423 
L 328.051998 -113.172423 
L 326.737128 -114.126368 
L 325.422259 -111.742501 
L 324.107389 -115.85129 
L 322.792519 -115.877807 
L 321.47765 -118.184775 
L 320.16278 -113.464109 
L 318.847911 -118.53082 
L 317.533041 -109.913499 
L 316.218172 -113.305007 
L 314.903302 -120.336619 
L 313.588432 -115.611975 
L 312.273563 -111.263208 
L 310.958693 -111.608591 
L 309.643824 -108.112341 
L 308.328954 -112.006344 
L 307.014085 -106.280688 
L 305.699215 -108.296633 
L 304.384345 -104.659844 
L 303.069476 -111.821388 
L 301.754606 -112.431939 
L 300.439737 -108.903207 
L 299.124867 -109.090813 
L 297.809997 -117.019358 
L 296.495128 -120.835137 
L 295.180258 -107.975779 
L 293.865389 -109.097443 
L 292.550519 -106.462991 
L 291.23565 -105.350608 
L 289.92078 -106.622093 
L 288.60591 -106.46498 
L 287.291041 -107.523666 
L 285.976171 -100.550391 
L 284.661302 -103.864338 
L 283.346432 -105.349946 
L 282.031563 -103.546135 
L 280.716693 -97.555974 
L 279.401823 -101.027695 
L 278.086954 -104.103652 
L 276.772084 -102.856697 
L 275.457215 -98.006098 
L 274.142345 -94.082263 
L 272.827476 -91.218441 
L 271.512606 -97.210591 
L 270.197736 -98.826795 
L 268.882867 -101.532179 
L 267.567997 -103.998911 
L 266.253128 -104.262091 
L 264.938258 -101.292864 
L 263.623389 -101.21265 
L 262.308519 -103.626349 
L 260.993649 -102.353539 
L 259.67878 -102.645224 
L 258.36391 -108.187251 
L 257.049041 -108.85415 
L 255.734171 -108.612184 
L 254.419302 -105.006552 
L 253.104432 -102.964753 
L 251.789562 -96.94476 
L 250.474693 -100.791032 
L 249.159823 -97.184074 
L 247.844954 -98.588143 
L 246.530084 -100.921628 
L 245.215214 -105.111957 
L 243.900345 -102.645224 
L 242.585475 -104.608136 
L 241.270606 -100.84274 
L 239.955736 -112.35504 
L 238.640867 -118.131078 
L 237.325997 -116.732976 
L 236.011127 -109.939353 
L 234.696258 -113.625862 
L 233.381388 -112.324546 
L 232.066519 -107.021171 
L 230.751649 -112.695119 
L 229.43678 -109.645679 
L 228.12191 -108.055992 
L 226.80704 -108.162723 
L 225.492171 -106.968138 
L 224.177301 -105.086103 
L 222.862432 -103.654854 
L 221.547562 -112.3504 
L 220.232693 -112.031535 
L 218.917823 -110.918489 
L 217.602953 -117.893089 
L 216.288084 -112.986805 
L 214.973214 -113.145906 
L 213.658345 -109.937365 
L 212.343475 -110.945669 
L 211.028606 -107.338711 
L 209.713736 -108.7746 
L 208.398866 -103.865001 
L 207.083997 -104.235574 
L 205.769127 -104.846125 
L 204.454258 -98.509255 
L 203.139388 -98.749233 
L 201.824519 -94.981848 
L 200.509649 -93.843611 
L 199.194779 -96.757816 
L 197.87991 -97.211917 
L 196.56504 -97.929862 
L 195.250171 -97.660052 
L 193.935301 -98.615986 
L 192.620431 -99.331278 
L 191.305562 -98.561626 
L 189.990692 -98.72139 
L 188.675823 -102.353539 
L 187.360953 -105.084777 
L 186.046084 -98.192379 
L 184.731214 -100.922954 
L 183.416344 -101.933246 
L 182.101475 -106.439126 
L 180.786605 -103.814619 
L 179.471736 -97.44858 
L 178.156866 -96.016669 
L 176.841997 -98.908334 
L 175.527127 -100.602762 
L 174.212257 -107.022497 
L 172.897388 -104.474889 
L 171.582518 -101.717797 
L 170.267649 -96.652411 
L 168.952779 -95.406118 
L 167.63791 -95.963635 
L 166.32304 -94.82341 
L 165.00817 -91.693093 
L 163.693301 -95.750837 
L 162.378431 -93.09915 
L 161.063562 -93.205218 
L 159.748692 -87.821629 
L 158.433823 -84.640268 
L 157.118953 -86.072179 
L 155.804083 -84.0032 
L 154.489214 -85.169942 
L 153.174344 -87.902506 
L 151.859475 -91.058014 
L 150.544605 -91.083205 
L 149.229736 -91.984779 
L 147.914866 -92.833981 
L 146.599996 -92.17106 
L 145.285127 -89.892597 
L 143.970257 -95.591736 
L 142.655388 -93.656004 
L 141.340518 -93.681858 
L 140.025648 -93.868802 
L 138.710779 -94.133971 
L 137.395909 -91.189272 
L 136.08104 -93.576454 
L 134.76617 -91.348374 
L 133.451301 -93.0196 
L 132.136431 -94.663646 
L 130.821561 -95.670624 
L 129.506692 -97.794625 
L 128.191822 -94.107454 
L 126.876953 -93.310622 
L 125.562083 -95.141612 
L 124.247214 -93.734892 
L 122.932344 -93.524083 
L 121.617474 -94.266555 
L 120.302605 -92.170397 
L 118.987735 -95.378938 
L 117.672866 -93.205218 
L 116.357996 -90.632418 
L 115.043127 -90.766991 
L 113.728257 -91.056688 
L 112.413387 -87.637337 
L 111.098518 -91.536643 
L 109.783648 -87.609495 
L 108.468779 -92.436228 
L 107.153909 -93.893993 
L 105.83904 -95.592399 
L 104.52417 -95.69913 
L 103.2093 -103.811967 
L 101.894431 -100.338257 
L 100.579561 -103.841135 
L 99.264692 -102.593517 
L 97.949822 -104.422518 
L 96.634953 -107.101385 
L 95.320083 -99.96702 
L 94.005213 -97.449243 
L 92.690344 -100.100268 
L 91.375474 -97.261636 
L 90.060605 -97.553322 
L 88.745735 -99.675998 
L 87.430865 -94.928151 
L 86.115996 -96.628546 
L 84.801126 -95.857568 
L 83.486257 -95.671287 
L 82.171387 -92.038475 
L 80.856518 -91.109722 
L 79.541648 -90.977137 
L 78.226778 -91.32252 
L 76.911909 -94.159825 
L 75.597039 -96.704782 
L 74.28217 -96.413096 
L 72.9673 -96.439613 
L 71.652431 -93.205881 
L 70.337561 -92.542296 
L 69.022691 -91.693756 
L 67.707822 -86.045662 
L 66.392952 -63.108567 
z
" style="stroke: #a9678f; stroke-opacity: 0.2"/>
    </defs>
    <g clip-path="url(#p54a191ee5d)">
     <use xlink:href="#m6d6f88b083" x="0" y="362.097812" style="fill: #a9678f; fill-opacity: 0.2; stroke: #a9678f; stroke-opacity: 0.2"/>
    </g>
   </g>
   <g id="PolyCollection_4">
    <defs>
     <path id="m5e97488866" d="M 66.392952 -66.422513 
L 66.392952 -58.810844 
L 67.707822 -72.441843 
L 69.022691 -71.831955 
L 70.337561 -74.349732 
L 71.652431 -75.86252 
L 72.9673 -78.035577 
L 74.28217 -77.107487 
L 75.597039 -76.418711 
L 76.911909 -80.07804 
L 78.226778 -80.873546 
L 79.541648 -84.823897 
L 80.856518 -89.012237 
L 82.171387 -88.616473 
L 83.486257 -88.244574 
L 84.801126 -91.825677 
L 86.115996 -92.302318 
L 87.430865 -91.16143 
L 88.745735 -93.044128 
L 90.060605 -93.654679 
L 91.375474 -94.263904 
L 92.690344 -91.082542 
L 94.005213 -93.600982 
L 95.320083 -87.952225 
L 96.634953 -90.631092 
L 97.949822 -89.967507 
L 99.264692 -94.105465 
L 100.579561 -92.672228 
L 101.894431 -93.203892 
L 103.2093 -94.078949 
L 104.52417 -92.142554 
L 105.83904 -90.552204 
L 107.153909 -92.222105 
L 108.468779 -95.244365 
L 109.783648 -91.003654 
L 111.098518 -91.612216 
L 112.413387 -91.452452 
L 113.728257 -94.63514 
L 115.043127 -95.16614 
L 116.357996 -95.268893 
L 117.672866 -94.211533 
L 118.987735 -92.381206 
L 120.302605 -93.416027 
L 121.617474 -91.79916 
L 122.932344 -94.103477 
L 124.247214 -98.507266 
L 125.562083 -101.500358 
L 126.876953 -96.995805 
L 128.191822 -96.78367 
L 129.506692 -97.551333 
L 130.821561 -96.307029 
L 132.136431 -92.753105 
L 133.451301 -92.859835 
L 134.76617 -93.494914 
L 136.08104 -98.401199 
L 137.395909 -98.851986 
L 138.710779 -98.772435 
L 140.025648 -97.632873 
L 141.340518 -94.448859 
L 142.655388 -90.789531 
L 143.970257 -92.620521 
L 145.285127 -92.594004 
L 146.599996 -96.253332 
L 147.914866 -93.310622 
L 149.229736 -93.653353 
L 150.544605 -94.212196 
L 151.859475 -93.600319 
L 153.174344 -90.896261 
L 154.489214 -92.43424 
L 155.804083 -92.090183 
L 157.118953 -94.131319 
L 158.433823 -92.831993 
L 159.748692 -91.029508 
L 161.063562 -89.358945 
L 162.378431 -91.825014 
L 163.693301 -89.940328 
L 165.00817 -92.487273 
L 166.32304 -92.752442 
L 167.63791 -93.227757 
L 168.952779 -97.950412 
L 170.267649 -98.030626 
L 171.582518 -103.572652 
L 172.897388 -101.371752 
L 174.212257 -105.03108 
L 175.527127 -100.813571 
L 176.841997 -98.160558 
L 178.156866 -99.77875 
L 179.471736 -94.502556 
L 180.786605 -100.20302 
L 182.101475 -106.30389 
L 183.416344 -112.534029 
L 184.731214 -112.056726 
L 186.046084 -113.01067 
L 187.360953 -109.432218 
L 188.675823 -100.840088 
L 189.990692 -103.359854 
L 191.305562 -100.920302 
L 192.620431 -102.829517 
L 193.935301 -100.574257 
L 195.250171 -96.834715 
L 196.56504 -104.022776 
L 197.87991 -98.162547 
L 199.194779 -101.265021 
L 200.509649 -104.419866 
L 201.824519 -107.629071 
L 203.139388 -105.400991 
L 204.454258 -103.147719 
L 205.769127 -107.231981 
L 207.083997 -104.630012 
L 208.398866 -105.0039 
L 209.713736 -111.579422 
L 211.028606 -114.01566 
L 212.343475 -109.989735 
L 213.658345 -102.511977 
L 214.973214 -104.580293 
L 216.288084 -98.452244 
L 217.602953 -104.394012 
L 218.917823 -108.450431 
L 220.232693 -103.705236 
L 221.547562 -106.753351 
L 222.862432 -103.095348 
L 224.177301 -105.77289 
L 225.492171 -106.327755 
L 226.80704 -105.056934 
L 228.12191 -97.420738 
L 229.43678 -105.003237 
L 230.751649 -104.049293 
L 232.066519 -95.245691 
L 233.381388 -100.919639 
L 234.696258 -100.122144 
L 236.011127 -101.55737 
L 237.325997 -105.34862 
L 238.640867 -106.302564 
L 239.955736 -109.883005 
L 241.270606 -109.857151 
L 242.585475 -112.429288 
L 243.900345 -103.941237 
L 245.215214 -113.011333 
L 246.530084 -113.801536 
L 247.844954 -108.7156 
L 249.159823 -114.179401 
L 250.474693 -108.499487 
L 251.789562 -109.2466 
L 253.104432 -109.936702 
L 254.419302 -109.670207 
L 255.734171 -105.694002 
L 257.049041 -101.000515 
L 258.36391 -100.336931 
L 259.67878 -107.787509 
L 260.993649 -104.076473 
L 262.308519 -103.383056 
L 263.623389 -109.352668 
L 264.938258 -105.74571 
L 266.253128 -103.385708 
L 267.567997 -111.466725 
L 268.882867 -111.392478 
L 270.197736 -109.696724 
L 271.512606 -104.260765 
L 272.827476 -100.840088 
L 274.142345 -97.384277 
L 275.457215 -106.224339 
L 276.772084 -107.335396 
L 278.086954 -113.700772 
L 279.401823 -107.681442 
L 280.716693 -110.304623 
L 282.031563 -111.633119 
L 283.346432 -109.032476 
L 284.661302 -116.353785 
L 285.976171 -108.231004 
L 287.291041 -113.938761 
L 288.60591 -107.017194 
L 289.92078 -117.599415 
L 291.23565 -118.288854 
L 292.550519 -118.076056 
L 293.865389 -109.243948 
L 295.180258 -110.730882 
L 296.495128 -113.090221 
L 297.809997 -120.514282 
L 299.124867 -126.403017 
L 300.439737 -124.200791 
L 301.754606 -130.989773 
L 303.069476 -130.407065 
L 304.384345 -128.841906 
L 305.699215 -129.665255 
L 307.014085 -123.137464 
L 308.328954 -126.983736 
L 309.643824 -122.237879 
L 310.958693 -118.791349 
L 312.273563 -119.586855 
L 313.588432 -117.328943 
L 314.903302 -116.115133 
L 316.218172 -122.425486 
L 317.533041 -120.621013 
L 318.847911 -119.906383 
L 320.16278 -111.259894 
L 321.47765 -120.807294 
L 322.792519 -120.250439 
L 324.107389 -120.984294 
L 325.422259 -131.81047 
L 326.737128 -132.048459 
L 328.051998 -136.57953 
L 328.051998 -149.288404 
L 328.051998 -149.288404 
L 326.737128 -146.085166 
L 325.422259 -146.636054 
L 324.107389 -138.767835 
L 322.792519 -140.379398 
L 321.47765 -137.25107 
L 320.16278 -131.709043 
L 318.847911 -136.108855 
L 317.533041 -135.208608 
L 316.218172 -136.746586 
L 314.903302 -131.522762 
L 313.588432 -132.742538 
L 312.273563 -135.021664 
L 310.958693 -134.570877 
L 309.643824 -141.783466 
L 308.328954 -148.492898 
L 307.014085 -146.697043 
L 305.699215 -146.690414 
L 304.384345 -143.880951 
L 303.069476 -147.405706 
L 301.754606 -146.771953 
L 300.439737 -142.686366 
L 299.124867 -139.61306 
L 297.809997 -134.57154 
L 296.495128 -131.839639 
L 295.180258 -128.501165 
L 293.865389 -125.6095 
L 292.550519 -130.78029 
L 291.23565 -130.169739 
L 289.92078 -128.869749 
L 288.60591 -123.222318 
L 287.291041 -124.866364 
L 285.976171 -120.862316 
L 284.661302 -125.211083 
L 283.346432 -122.903453 
L 282.031563 -123.302532 
L 280.716693 -122.428138 
L 279.401823 -121.048597 
L 278.086954 -122.559396 
L 276.772084 -119.326326 
L 275.457215 -118.741629 
L 274.142345 -112.801187 
L 272.827476 -116.119774 
L 271.512606 -117.573561 
L 270.197736 -120.066147 
L 268.882867 -120.995564 
L 267.567997 -121.207036 
L 266.253128 -117.09692 
L 264.938258 -119.352843 
L 263.623389 -121.975362 
L 262.308519 -117.257347 
L 260.993649 -117.495336 
L 259.67878 -119.563652 
L 258.36391 -115.29311 
L 257.049041 -114.497604 
L 255.734171 -116.779381 
L 254.419302 -120.49108 
L 253.104432 -121.975362 
L 251.789562 -119.774462 
L 250.474693 -119.856001 
L 249.159823 -123.301869 
L 247.844954 -120.88817 
L 246.530084 -122.241194 
L 245.215214 -121.393317 
L 243.900345 -116.513549 
L 242.585475 -120.703878 
L 241.270606 -119.509956 
L 239.955736 -119.827495 
L 238.640867 -117.469482 
L 237.325997 -116.99019 
L 236.011127 -113.755794 
L 234.696258 -113.676244 
L 233.381388 -113.277828 
L 232.066519 -110.388814 
L 230.751649 -115.456852 
L 229.43678 -114.895357 
L 228.12191 -110.520073 
L 226.80704 -116.645471 
L 225.492171 -117.096257 
L 224.177301 -116.382954 
L 222.862432 -114.844312 
L 221.547562 -118.793337 
L 220.232693 -115.454863 
L 218.917823 -116.435324 
L 217.602953 -116.063425 
L 216.288084 -112.854884 
L 214.973214 -116.646133 
L 213.658345 -116.964999 
L 212.343475 -120.782766 
L 211.028606 -123.14343 
L 209.713736 -122.878262 
L 208.398866 -118.820517 
L 207.083997 -117.468157 
L 205.769127 -117.733325 
L 204.454258 -117.096257 
L 203.139388 -116.194684 
L 201.824519 -116.62028 
L 200.509649 -113.755794 
L 199.194779 -112.084568 
L 197.87991 -111.822051 
L 196.56504 -114.842986 
L 195.250171 -109.755724 
L 193.935301 -112.190636 
L 192.620431 -113.51648 
L 191.305562 -111.925467 
L 189.990692 -113.413727 
L 188.675823 -112.8814 
L 187.360953 -117.628584 
L 186.046084 -121.471541 
L 184.731214 -121.551092 
L 183.416344 -121.126822 
L 182.101475 -118.926585 
L 180.786605 -114.577817 
L 179.471736 -109.648331 
L 178.156866 -113.174412 
L 176.841997 -111.2115 
L 175.527127 -114.391536 
L 174.212257 -115.134672 
L 172.897388 -113.145906 
L 171.582518 -114.233761 
L 170.267649 -110.547253 
L 168.952779 -107.020509 
L 167.63791 -102.197089 
L 166.32304 -103.788102 
L 165.00817 -102.010145 
L 163.693301 -98.295794 
L 162.378431 -100.392616 
L 161.063562 -98.004772 
L 159.748692 -98.774424 
L 158.433823 -100.895111 
L 157.118953 -103.015798 
L 155.804083 -101.664763 
L 154.489214 -101.692606 
L 153.174344 -100.70883 
L 151.859475 -102.620696 
L 150.544605 -104.368821 
L 149.229736 -104.291922 
L 147.914866 -103.148382 
L 146.599996 -105.61644 
L 145.285127 -103.069494 
L 143.970257 -104.871979 
L 142.655388 -103.443382 
L 141.340518 -105.906137 
L 140.025648 -108.984746 
L 138.710779 -109.857814 
L 137.395909 -110.786567 
L 136.08104 -109.72523 
L 134.76617 -104.820934 
L 133.451301 -103.466585 
L 132.136431 -103.918034 
L 130.821561 -107.338711 
L 129.506692 -110.044095 
L 128.191822 -110.122983 
L 126.876953 -109.565465 
L 125.562083 -114.286132 
L 124.247214 -112.164119 
L 122.932344 -107.205464 
L 121.617474 -103.813293 
L 120.302605 -103.734405 
L 118.987735 -102.751292 
L 117.672866 -104.635316 
L 116.357996 -105.774216 
L 115.043127 -106.278036 
L 113.728257 -105.909452 
L 112.413387 -102.883876 
L 111.098518 -100.948145 
L 109.783648 -100.073751 
L 108.468779 -104.898496 
L 107.153909 -100.948808 
L 105.83904 -101.319381 
L 104.52417 -102.353539 
L 103.2093 -103.732416 
L 101.894431 -104.291259 
L 100.579561 -102.116876 
L 99.264692 -100.895111 
L 97.949822 -99.807919 
L 96.634953 -100.046571 
L 95.320083 -97.44858 
L 94.005213 -101.23983 
L 92.690344 -98.295794 
L 91.375474 -100.046571 
L 90.060605 -101.717134 
L 88.745735 -99.754222 
L 87.430865 -98.667031 
L 86.115996 -100.205672 
L 84.801126 -101.71846 
L 83.486257 -98.216244 
L 82.171387 -98.164536 
L 80.856518 -98.64184 
L 79.541648 -96.413759 
L 78.226778 -91.136239 
L 76.911909 -89.492855 
L 75.597039 -85.860707 
L 74.28217 -86.018482 
L 72.9673 -87.026786 
L 71.652431 -85.145414 
L 70.337561 -82.704536 
L 69.022691 -78.302072 
L 67.707822 -78.143634 
L 66.392952 -66.422513 
z
" style="stroke: #6c3f70; stroke-opacity: 0.2"/>
    </defs>
    <g clip-path="url(#p54a191ee5d)">
     <use xlink:href="#m5e97488866" x="0" y="362.097812" style="fill: #6c3f70; fill-opacity: 0.2; stroke: #6c3f70; stroke-opacity: 0.2"/>
    </g>
   </g>
   <g id="PolyCollection_5">
    <defs>
     <path id="m12e9f6a971" d="M 66.392952 -81.248097 
L 66.392952 -57.990147 
L 67.707822 -123.874633 
L 69.022691 -227.32491 
L 70.337561 -255.355234 
L 71.652431 -252.33231 
L 72.9673 -271.981313 
L 74.28217 -271.981313 
L 75.597039 -252.093658 
L 76.911909 -271.981313 
L 78.226778 -271.981313 
L 79.541648 -271.981313 
L 80.856518 -271.981313 
L 82.171387 -271.981313 
L 83.486257 -271.981313 
L 84.801126 -271.981313 
L 86.115996 -271.981313 
L 87.430865 -271.981313 
L 88.745735 -271.981313 
L 90.060605 -271.981313 
L 91.375474 -271.981313 
L 92.690344 -271.981313 
L 94.005213 -271.981313 
L 95.320083 -271.981313 
L 96.634953 -271.981313 
L 97.949822 -271.981313 
L 99.264692 -271.981313 
L 100.579561 -271.981313 
L 101.894431 -271.981313 
L 103.2093 -271.981313 
L 104.52417 -271.981313 
L 105.83904 -271.981313 
L 107.153909 -271.981313 
L 108.468779 -271.981313 
L 109.783648 -271.981313 
L 111.098518 -253.52557 
L 112.413387 -271.981313 
L 113.728257 -271.981313 
L 115.043127 -271.981313 
L 116.357996 -271.981313 
L 117.672866 -271.981313 
L 118.987735 -271.981313 
L 120.302605 -271.981313 
L 121.617474 -271.981313 
L 122.932344 -271.981313 
L 124.247214 -271.981313 
L 125.562083 -271.981313 
L 126.876953 -271.981313 
L 128.191822 -271.981313 
L 129.506692 -271.981313 
L 130.821561 -271.981313 
L 132.136431 -271.981313 
L 133.451301 -271.981313 
L 134.76617 -271.981313 
L 136.08104 -271.981313 
L 137.395909 -271.981313 
L 138.710779 -271.981313 
L 140.025648 -271.981313 
L 141.340518 -271.981313 
L 142.655388 -253.207367 
L 143.970257 -253.207367 
L 145.285127 -271.981313 
L 146.599996 -271.981313 
L 147.914866 -271.981313 
L 149.229736 -252.809614 
L 150.544605 -271.981313 
L 151.859475 -256.707594 
L 153.174344 -236.342636 
L 154.489214 -236.337332 
L 155.804083 -271.981313 
L 157.118953 -252.411861 
L 158.433823 -252.570962 
L 159.748692 -271.981313 
L 161.063562 -252.33231 
L 162.378431 -271.981313 
L 163.693301 -271.981313 
L 165.00817 -271.981313 
L 166.32304 -271.981313 
L 167.63791 -252.093658 
L 168.952779 -252.650513 
L 170.267649 -271.981313 
L 171.582518 -271.981313 
L 172.897388 -271.981313 
L 174.212257 -271.981313 
L 175.527127 -271.981313 
L 176.841997 -271.981313 
L 178.156866 -275.375473 
L 179.471736 -256.283324 
L 180.786605 -243.979495 
L 182.101475 -273.678393 
L 183.416344 -273.678393 
L 184.731214 -259.491866 
L 186.046084 -278.769633 
L 187.360953 -283.860872 
L 188.675823 -288.909685 
L 189.990692 -295.740432 
L 191.305562 -299.134591 
L 192.620431 -300.831671 
L 193.935301 -299.134591 
L 195.250171 -295.740432 
L 196.56504 -280.466713 
L 197.87991 -270.611717 
L 199.194779 -311.01415 
L 200.509649 -314.40831 
L 201.824519 -317.80247 
L 203.139388 -321.19663 
L 204.454258 -298.789872 
L 205.769127 -297.437511 
L 207.083997 -321.19663 
L 208.398866 -298.869423 
L 209.713736 -298.789872 
L 211.028606 -321.19663 
L 212.343475 -326.287869 
L 213.658345 -326.287869 
L 214.973214 -301.308975 
L 216.288084 -326.287869 
L 217.602953 -326.287869 
L 218.917823 -326.287869 
L 220.232693 -285.23975 
L 221.547562 -326.287869 
L 222.862432 -301.786279 
L 224.177301 -326.287869 
L 225.492171 -326.287869 
L 226.80704 -326.287869 
L 228.12191 -326.287869 
L 229.43678 -300.990772 
L 230.751649 -326.287869 
L 232.066519 -326.287869 
L 233.381388 -326.287869 
L 234.696258 -326.287869 
L 236.011127 -284.073007 
L 237.325997 -326.287869 
L 238.640867 -326.287869 
L 239.955736 -326.287869 
L 241.270606 -326.287869 
L 242.585475 -301.94538 
L 243.900345 -321.19663 
L 245.215214 -298.789872 
L 246.530084 -297.914815 
L 247.844954 -321.19663 
L 249.159823 -299.108074 
L 250.474693 -317.80247 
L 251.789562 -326.287869 
L 253.104432 -302.263582 
L 254.419302 -326.287869 
L 255.734171 -302.02493 
L 257.049041 -326.287869 
L 258.36391 -302.263582 
L 259.67878 -302.184032 
L 260.993649 -326.287869 
L 262.308519 -326.287869 
L 263.623389 -326.287869 
L 264.938258 -326.287869 
L 266.253128 -326.287869 
L 267.567997 -326.287869 
L 268.882867 -302.899987 
L 270.197736 -302.899987 
L 271.512606 -321.19663 
L 272.827476 -326.287869 
L 274.142345 -306.241113 
L 275.457215 -306.241113 
L 276.772084 -326.287869 
L 278.086954 -302.740886 
L 279.401823 -286.910313 
L 280.716693 -301.229424 
L 282.031563 -326.287869 
L 283.346432 -326.287869 
L 284.661302 -326.287869 
L 285.976171 -326.287869 
L 287.291041 -326.287869 
L 288.60591 -278.981768 
L 289.92078 -326.287869 
L 291.23565 -302.104481 
L 292.550519 -326.287869 
L 293.865389 -326.287869 
L 295.180258 -326.287869 
L 296.495128 -326.287869 
L 297.809997 -306.320664 
L 299.124867 -326.287869 
L 300.439737 -301.308975 
L 301.754606 -326.287869 
L 303.069476 -326.287869 
L 304.384345 -326.287869 
L 305.699215 -326.287869 
L 307.014085 -326.287869 
L 308.328954 -326.287869 
L 309.643824 -326.287869 
L 310.958693 -326.287869 
L 312.273563 -326.287869 
L 313.588432 -285.584469 
L 314.903302 -286.59211 
L 316.218172 -326.287869 
L 317.533041 -300.831671 
L 318.847911 -326.287869 
L 320.16278 -292.346272 
L 321.47765 -326.287869 
L 322.792519 -326.287869 
L 324.107389 -326.287869 
L 325.422259 -326.287869 
L 326.737128 -300.990772 
L 328.051998 -301.229424 
L 328.051998 -326.287869 
L 328.051998 -326.287869 
L 326.737128 -326.287869 
L 325.422259 -326.287869 
L 324.107389 -326.287869 
L 322.792519 -326.287869 
L 321.47765 -326.287869 
L 320.16278 -326.287869 
L 318.847911 -326.287869 
L 317.533041 -326.287869 
L 316.218172 -326.287869 
L 314.903302 -326.287869 
L 313.588432 -326.287869 
L 312.273563 -326.287869 
L 310.958693 -326.287869 
L 309.643824 -326.287869 
L 308.328954 -326.287869 
L 307.014085 -326.287869 
L 305.699215 -326.287869 
L 304.384345 -326.287869 
L 303.069476 -326.287869 
L 301.754606 -326.287869 
L 300.439737 -326.287869 
L 299.124867 -326.287869 
L 297.809997 -326.287869 
L 296.495128 -326.287869 
L 295.180258 -326.287869 
L 293.865389 -326.287869 
L 292.550519 -326.287869 
L 291.23565 -326.287869 
L 289.92078 -326.287869 
L 288.60591 -326.287869 
L 287.291041 -326.287869 
L 285.976171 -326.287869 
L 284.661302 -326.287869 
L 283.346432 -326.287869 
L 282.031563 -326.287869 
L 280.716693 -326.287869 
L 279.401823 -326.287869 
L 278.086954 -326.287869 
L 276.772084 -326.287869 
L 275.457215 -326.287869 
L 274.142345 -326.287869 
L 272.827476 -326.287869 
L 271.512606 -326.287869 
L 270.197736 -326.287869 
L 268.882867 -326.287869 
L 267.567997 -326.287869 
L 266.253128 -326.287869 
L 264.938258 -326.287869 
L 263.623389 -326.287869 
L 262.308519 -326.287869 
L 260.993649 -326.287869 
L 259.67878 -326.287869 
L 258.36391 -326.287869 
L 257.049041 -326.287869 
L 255.734171 -326.287869 
L 254.419302 -326.287869 
L 253.104432 -326.287869 
L 251.789562 -326.287869 
L 250.474693 -326.287869 
L 249.159823 -326.287869 
L 247.844954 -326.287869 
L 246.530084 -326.287869 
L 245.215214 -326.287869 
L 243.900345 -326.287869 
L 242.585475 -326.287869 
L 241.270606 -326.287869 
L 239.955736 -326.287869 
L 238.640867 -326.287869 
L 237.325997 -326.287869 
L 236.011127 -326.287869 
L 234.696258 -326.287869 
L 233.381388 -326.287869 
L 232.066519 -326.287869 
L 230.751649 -326.287869 
L 229.43678 -326.287869 
L 228.12191 -326.287869 
L 226.80704 -326.287869 
L 225.492171 -326.287869 
L 224.177301 -326.287869 
L 222.862432 -326.287869 
L 221.547562 -326.287869 
L 220.232693 -326.287869 
L 218.917823 -326.287869 
L 217.602953 -326.287869 
L 216.288084 -326.287869 
L 214.973214 -326.287869 
L 213.658345 -326.287869 
L 212.343475 -326.287869 
L 211.028606 -326.287869 
L 209.713736 -326.287869 
L 208.398866 -326.287869 
L 207.083997 -326.287869 
L 205.769127 -326.287869 
L 204.454258 -326.287869 
L 203.139388 -326.287869 
L 201.824519 -326.287869 
L 200.509649 -326.287869 
L 199.194779 -324.590789 
L 197.87991 -314.99367 
L 196.56504 -314.40831 
L 195.250171 -314.40831 
L 193.935301 -317.80247 
L 192.620431 -317.80247 
L 191.305562 -316.10539 
L 189.990692 -312.71123 
L 188.675823 -305.922911 
L 187.360953 -302.528751 
L 186.046084 -295.740432 
L 184.731214 -288.202347 
L 183.416344 -287.255032 
L 182.101475 -285.557952 
L 180.786605 -282.163792 
L 179.471736 -287.255032 
L 178.156866 -290.649192 
L 176.841997 -282.163792 
L 175.527127 -280.466713 
L 174.212257 -280.466713 
L 172.897388 -280.466713 
L 171.582518 -280.466713 
L 170.267649 -277.072553 
L 168.952779 -277.072553 
L 167.63791 -277.072553 
L 166.32304 -271.981313 
L 165.00817 -271.981313 
L 163.693301 -271.981313 
L 162.378431 -271.981313 
L 161.063562 -271.981313 
L 159.748692 -271.981313 
L 158.433823 -271.981313 
L 157.118953 -271.981313 
L 155.804083 -271.981313 
L 154.489214 -271.981313 
L 153.174344 -271.981313 
L 151.859475 -271.981313 
L 150.544605 -271.981313 
L 149.229736 -271.981313 
L 147.914866 -271.981313 
L 146.599996 -271.981313 
L 145.285127 -271.981313 
L 143.970257 -271.981313 
L 142.655388 -271.981313 
L 141.340518 -271.981313 
L 140.025648 -271.981313 
L 138.710779 -271.981313 
L 137.395909 -271.981313 
L 136.08104 -271.981313 
L 134.76617 -271.981313 
L 133.451301 -271.981313 
L 132.136431 -271.981313 
L 130.821561 -271.981313 
L 129.506692 -271.981313 
L 128.191822 -271.981313 
L 126.876953 -271.981313 
L 125.562083 -271.981313 
L 124.247214 -271.981313 
L 122.932344 -271.981313 
L 121.617474 -271.981313 
L 120.302605 -271.981313 
L 118.987735 -271.981313 
L 117.672866 -271.981313 
L 116.357996 -271.981313 
L 115.043127 -271.981313 
L 113.728257 -271.981313 
L 112.413387 -271.981313 
L 111.098518 -271.981313 
L 109.783648 -271.981313 
L 108.468779 -271.981313 
L 107.153909 -271.981313 
L 105.83904 -271.981313 
L 104.52417 -271.981313 
L 103.2093 -271.981313 
L 101.894431 -271.981313 
L 100.579561 -271.981313 
L 99.264692 -271.981313 
L 97.949822 -271.981313 
L 96.634953 -271.981313 
L 95.320083 -271.981313 
L 94.005213 -271.981313 
L 92.690344 -271.981313 
L 91.375474 -271.981313 
L 90.060605 -271.981313 
L 88.745735 -271.981313 
L 87.430865 -271.981313 
L 86.115996 -271.981313 
L 84.801126 -271.981313 
L 83.486257 -271.981313 
L 82.171387 -271.981313 
L 80.856518 -271.981313 
L 79.541648 -271.981313 
L 78.226778 -271.981313 
L 76.911909 -271.981313 
L 75.597039 -271.981313 
L 74.28217 -271.981313 
L 72.9673 -271.981313 
L 71.652431 -271.981313 
L 70.337561 -271.981313 
L 69.022691 -271.981313 
L 67.707822 -194.764179 
L 66.392952 -81.248097 
z
" style="stroke: #2d1e3e; stroke-opacity: 0.2"/>
    </defs>
    <g clip-path="url(#p54a191ee5d)">
     <use xlink:href="#m12e9f6a971" x="0" y="362.097812" style="fill: #2d1e3e; fill-opacity: 0.2; stroke: #2d1e3e; stroke-opacity: 0.2"/>
    </g>
   </g>
   <g id="line2d_13">
    <path d="M 66.392952 300.315752 
L 67.707822 282.151694 
L 69.022691 272.976856 
L 70.337561 260.911679 
L 71.652431 257.994823 
L 72.9673 252.134594 
L 74.28217 251.392122 
L 75.597039 252.028526 
L 76.911909 252.028526 
L 78.226778 254.335494 
L 79.541648 247.944928 
L 80.856518 252.983134 
L 82.171387 249.270772 
L 87.430865 249.297289 
L 88.745735 251.100436 
L 90.060605 247.944928 
L 100.579561 247.944928 
L 101.894431 249.801109 
L 103.2093 249.695042 
L 104.52417 247.944928 
L 107.153909 247.944928 
L 108.468779 249.376839 
L 109.783648 249.801109 
L 111.098518 248.475265 
L 112.413387 247.944928 
L 113.728257 249.058637 
L 115.043127 247.944928 
L 117.672866 247.944928 
L 118.987735 249.801109 
L 121.617474 249.801109 
L 122.932344 247.944928 
L 124.247214 250.782233 
L 125.562083 250.782233 
L 126.876953 247.944928 
L 128.191822 250.835267 
L 129.506692 249.482907 
L 130.821561 247.944928 
L 132.136431 249.270772 
L 134.76617 249.164704 
L 136.08104 249.695042 
L 137.395909 247.944928 
L 138.710779 247.944928 
L 140.025648 249.45639 
L 141.340518 251.312571 
L 142.655388 249.801109 
L 143.970257 251.65729 
L 145.285127 249.801109 
L 146.599996 251.23302 
L 147.914866 249.376839 
L 149.229736 247.944928 
L 153.174344 247.944928 
L 154.489214 249.138187 
L 155.804083 249.482907 
L 157.118953 247.944928 
L 158.433823 249.801109 
L 159.748692 247.944928 
L 161.063562 250.464031 
L 162.378431 251.498189 
L 163.693301 251.020885 
L 165.00817 247.944928 
L 167.63791 247.944928 
L 168.952779 249.801109 
L 170.267649 247.944928 
L 171.582518 249.801109 
L 172.897388 247.944928 
L 178.156866 247.944928 
L 179.471736 249.642008 
L 180.786605 252.028526 
L 182.101475 250.38448 
L 183.416344 247.944928 
L 186.046084 247.944928 
L 187.360953 249.801109 
L 189.990692 251.073919 
L 191.305562 249.642008 
L 192.620431 249.429873 
L 193.935301 249.429873 
L 195.250171 247.944928 
L 196.56504 249.482907 
L 197.87991 247.944928 
L 201.824519 247.944928 
L 203.139388 248.979086 
L 204.454258 248.979086 
L 205.769127 251.789875 
L 208.398866 249.695042 
L 209.713736 249.801109 
L 211.028606 249.164704 
L 212.343475 252.956617 
L 213.658345 251.206503 
L 214.973214 249.668525 
L 216.288084 247.944928 
L 220.232693 247.944928 
L 221.547562 250.464031 
L 222.862432 247.944928 
L 226.80704 247.944928 
L 228.12191 251.100436 
L 229.43678 253.036168 
L 230.751649 247.944928 
L 241.270606 247.944928 
L 242.585475 249.217738 
L 243.900345 247.944928 
L 245.215214 247.944928 
L 246.530084 249.138187 
L 247.844954 249.164704 
L 249.159823 250.755717 
L 250.474693 249.642008 
L 251.789562 250.7292 
L 253.104432 247.944928 
L 254.419302 248.873019 
L 255.734171 253.35437 
L 257.049041 250.861784 
L 258.36391 249.801109 
L 259.67878 247.944928 
L 260.993649 247.944928 
L 263.623389 250.251896 
L 264.938258 249.138187 
L 266.253128 252.744482 
L 267.567997 247.944928 
L 268.882867 251.922459 
L 270.197736 251.020885 
L 271.512606 248.873019 
L 274.142345 248.873019 
L 275.457215 250.7292 
L 276.772084 249.801109 
L 278.086954 247.944928 
L 279.401823 247.944928 
L 280.716693 250.649649 
L 282.031563 249.429873 
L 283.346432 247.944928 
L 284.661302 248.926052 
L 285.976171 250.464031 
L 287.291041 247.944928 
L 288.60591 249.244255 
L 289.92078 249.244255 
L 291.23565 250.967852 
L 292.550519 247.944928 
L 295.180258 247.944928 
L 296.495128 249.270772 
L 297.809997 249.217738 
L 299.124867 247.944928 
L 300.439737 249.164704 
L 301.754606 249.164704 
L 303.069476 247.944928 
L 304.384345 251.23302 
L 305.699215 250.7292 
L 307.014085 247.944928 
L 308.328954 254.096843 
L 309.643824 252.08156 
L 310.958693 251.23302 
L 312.273563 247.944928 
L 313.588432 247.944928 
L 314.903302 252.346729 
L 316.218172 252.346729 
L 317.533041 249.482907 
L 318.847911 249.005603 
L 320.16278 248.846502 
L 321.47765 247.467624 
L 324.107389 247.467624 
L 325.422259 252.956617 
L 326.737128 248.528299 
L 328.051998 249.217738 
L 328.051998 249.217738 
" clip-path="url(#p54a191ee5d)" style="fill: none; stroke: #edd1cb; stroke-width: 1.5; stroke-linecap: round"/>
   </g>
   <g id="line2d_14">
    <path d="M 66.392952 301.084742 
L 67.707822 290.557543 
L 69.022691 288.966531 
L 70.337561 286.155742 
L 71.652431 287.826305 
L 72.9673 284.935966 
L 74.28217 284.485179 
L 75.597039 282.708549 
L 76.911909 286.129225 
L 78.226778 287.030799 
L 79.541648 284.405629 
L 80.856518 280.587199 
L 82.171387 279.022703 
L 83.486257 276.07933 
L 84.801126 275.893712 
L 86.115996 274.833037 
L 87.430865 275.045172 
L 88.745735 274.594385 
L 90.060605 278.571916 
L 91.375474 277.35214 
L 92.690344 271.465394 
L 94.005213 271.438878 
L 95.320083 269.237977 
L 96.634953 271.597979 
L 97.949822 273.719329 
L 99.264692 273.02989 
L 100.579561 275.416409 
L 101.894431 273.295059 
L 104.52417 272.101799 
L 105.83904 274.673936 
L 107.153909 270.033483 
L 108.468779 270.086517 
L 109.783648 274.329217 
L 111.098518 275.363375 
L 112.413387 273.87843 
L 113.728257 273.401126 
L 115.043127 270.378203 
L 116.357996 272.420002 
L 117.672866 268.575055 
L 118.987735 270.988091 
L 120.302605 270.457753 
L 121.617474 275.416409 
L 122.932344 268.336403 
L 124.247214 268.946292 
L 125.562083 266.215054 
L 126.876953 268.468988 
L 128.191822 270.272135 
L 129.506692 267.779549 
L 130.821561 271.094158 
L 132.136431 268.893258 
L 133.451301 271.544945 
L 134.76617 272.685171 
L 136.08104 270.48427 
L 137.395909 271.677529 
L 138.710779 267.328762 
L 140.025648 272.950339 
L 141.340518 269.582696 
L 142.655388 271.730563 
L 143.970257 274.541352 
L 145.285127 269.900899 
L 146.599996 267.620448 
L 147.914866 266.029435 
L 149.229736 266.002919 
L 150.544605 268.734157 
L 151.859475 270.033483 
L 153.174344 270.245618 
L 154.489214 276.185398 
L 155.804083 275.018655 
L 157.118953 271.385844 
L 158.433823 270.643371 
L 159.748692 273.507194 
L 161.063562 268.468988 
L 162.378431 268.866741 
L 163.693301 271.226743 
L 165.00817 271.544945 
L 166.32304 270.537304 
L 167.63791 265.658199 
L 170.267649 271.518428 
L 171.582518 273.931464 
L 172.897388 274.276183 
L 174.212257 268.230336 
L 175.527127 268.256853 
L 176.841997 269.184943 
L 178.156866 267.885617 
L 179.471736 267.43483 
L 180.786605 265.207412 
L 182.101475 264.146737 
L 183.416344 264.915727 
L 184.731214 268.150785 
L 186.046084 268.495505 
L 187.360953 263.6164 
L 188.675823 263.828535 
L 189.990692 264.226288 
L 191.305562 261.468533 
L 192.620431 257.013699 
L 193.935301 258.339542 
L 195.250171 252.08156 
L 196.56504 254.706731 
L 197.87991 259.426734 
L 199.194779 258.94943 
L 200.509649 261.203365 
L 201.824519 259.214599 
L 203.139388 260.275274 
L 204.454258 260.673027 
L 205.769127 259.532802 
L 207.083997 259.71842 
L 208.398866 250.410997 
L 209.713736 254.20291 
L 211.028606 250.596615 
L 212.343475 244.842454 
L 213.658345 249.721559 
L 214.973214 250.835267 
L 216.288084 260.56696 
L 217.602953 261.892803 
L 218.917823 259.347183 
L 220.232693 258.604711 
L 221.547562 258.44561 
L 222.862432 255.47572 
L 224.177301 259.453251 
L 225.492171 255.979541 
L 226.80704 256.112125 
L 228.12191 261.627635 
L 230.751649 265.764267 
L 232.066519 262.555725 
L 233.381388 261.574601 
L 234.696258 261.07078 
L 236.011127 258.44561 
L 238.640867 264.305839 
L 239.955736 261.07078 
L 241.270606 258.922913 
L 242.585475 259.930555 
L 243.900345 263.563366 
L 245.215214 260.301791 
L 246.530084 258.419093 
L 247.844954 259.3737 
L 249.159823 259.904038 
L 250.474693 258.366059 
L 251.789562 254.600663 
L 253.104432 256.74853 
L 254.419302 262.104938 
L 255.734171 257.199317 
L 257.049041 256.562912 
L 258.36391 258.339542 
L 259.67878 258.922913 
L 260.993649 256.165159 
L 262.308519 253.089201 
L 263.623389 256.297743 
L 264.938258 254.388528 
L 266.253128 254.865832 
L 267.567997 261.335949 
L 268.882867 262.449658 
L 270.197736 257.464485 
L 271.512606 261.123814 
L 272.827476 260.752578 
L 274.142345 259.532802 
L 275.457215 260.407858 
L 276.772084 257.729654 
L 278.086954 264.332356 
L 279.401823 258.631228 
L 280.716693 258.392576 
L 282.031563 264.120221 
L 283.346432 263.536849 
L 284.661302 259.744937 
L 285.976171 262.953478 
L 287.291041 265.127862 
L 288.60591 268.495505 
L 289.92078 269.025842 
L 291.23565 266.453705 
L 292.550519 264.332356 
L 293.865389 266.480222 
L 295.180258 266.055952 
L 296.495128 267.275729 
L 297.809997 264.279322 
L 299.124867 271.597979 
L 300.439737 267.965167 
L 301.754606 266.506739 
L 303.069476 267.01056 
L 304.384345 262.820894 
L 305.699215 263.722468 
L 307.014085 261.892803 
L 308.328954 265.684716 
L 309.643824 272.366968 
L 310.958693 269.370561 
L 312.273563 268.044718 
L 313.588432 268.044718 
L 314.903302 266.877975 
L 316.218172 258.975947 
L 317.533041 257.305384 
L 318.847911 261.892803 
L 320.16278 264.120221 
L 321.47765 261.256398 
L 322.792519 266.24157 
L 324.107389 265.127862 
L 325.422259 264.995277 
L 326.737128 267.275729 
L 328.051998 266.400672 
L 328.051998 266.400672 
" clip-path="url(#p54a191ee5d)" style="fill: none; stroke: #d499a7; stroke-width: 1.5; stroke-linecap: round"/>
   </g>
   <g id="line2d_15">
    <path d="M 66.392952 302.781822 
L 67.707822 283.397987 
L 69.022691 276.980904 
L 70.337561 275.840679 
L 71.652431 274.992139 
L 72.9673 270.90854 
L 74.28217 271.041124 
L 75.597039 269.927416 
L 76.911909 273.02989 
L 78.226778 275.442925 
L 79.541648 275.045172 
L 80.856518 275.946746 
L 82.171387 274.833037 
L 83.486257 270.961574 
L 84.801126 270.166068 
L 86.115996 270.749439 
L 87.430865 272.128316 
L 88.745735 267.09011 
L 90.060605 270.749439 
L 91.375474 269.529663 
L 92.690344 267.328762 
L 94.005213 271.33281 
L 95.320083 268.999325 
L 96.634953 263.589883 
L 97.949822 265.366514 
L 99.264692 267.408313 
L 100.579561 265.127862 
L 101.894431 267.8591 
L 103.2093 264.014153 
L 104.52417 272.685171 
L 105.83904 272.313934 
L 107.153909 273.745846 
L 108.468779 274.647419 
L 109.783648 278.677984 
L 111.098518 274.859554 
L 112.413387 279.102254 
L 113.728257 275.071689 
L 115.043127 276.450567 
L 116.357996 276.954387 
L 117.672866 273.719329 
L 118.987735 271.412361 
L 120.302605 274.992139 
L 121.617474 273.082924 
L 122.932344 273.984497 
L 124.247214 273.45416 
L 125.562083 271.704046 
L 126.876953 272.764721 
L 128.191822 273.109441 
L 129.506692 268.495505 
L 130.821561 270.935057 
L 132.136431 272.552586 
L 133.451301 274.355734 
L 134.76617 275.548993 
L 136.08104 272.499553 
L 137.395909 275.920229 
L 138.710779 273.082924 
L 142.655388 272.976856 
L 143.970257 271.094158 
L 145.285127 277.69686 
L 146.599996 274.461801 
L 147.914866 274.249666 
L 149.229736 274.833037 
L 150.544605 275.071689 
L 151.859475 275.495959 
L 153.174344 278.890119 
L 154.489214 281.091019 
L 155.804083 282.44338 
L 157.118953 279.685625 
L 158.433823 282.257762 
L 159.748692 279.844726 
L 161.063562 274.143599 
L 162.378431 273.957981 
L 163.693301 271.306293 
L 165.00817 275.787645 
L 166.32304 272.366968 
L 167.63791 270.590338 
L 168.952779 272.260901 
L 170.267649 271.279776 
L 171.582518 267.355279 
L 172.897388 263.881569 
L 174.212257 261.521567 
L 175.527127 267.09011 
L 176.841997 268.522022 
L 178.156866 272.420002 
L 179.471736 271.651013 
L 180.786605 265.260446 
L 182.101475 261.707185 
L 183.416344 265.923368 
L 184.731214 266.798425 
L 186.046084 270.245618 
L 187.360953 263.086063 
L 188.675823 266.58629 
L 189.990692 269.423595 
L 191.305562 269.397078 
L 192.620431 268.230336 
L 193.935301 269.55618 
L 195.250171 269.821348 
L 196.56504 270.935057 
L 197.87991 271.491911 
L 199.194779 270.882023 
L 200.509649 272.685171 
L 201.824519 272.552586 
L 203.139388 270.06 
L 204.454258 270.40472 
L 205.769127 264.677075 
L 207.083997 265.048311 
L 208.398866 264.915727 
L 209.713736 260.460892 
L 211.028606 262.184489 
L 212.343475 258.551677 
L 213.658345 260.063139 
L 214.973214 258.498644 
L 216.288084 258.896397 
L 217.602953 252.585381 
L 218.917823 258.710779 
L 220.232693 257.862239 
L 221.547562 256.271226 
L 222.862432 266.851459 
L 225.492171 263.006512 
L 226.80704 262.688309 
L 228.12191 263.351231 
L 229.43678 260.593476 
L 230.751649 258.498644 
L 232.066519 262.157972 
L 233.381388 257.782688 
L 234.696258 257.331901 
L 236.011127 261.362466 
L 237.325997 254.362011 
L 238.640867 253.221786 
L 239.955736 257.941789 
L 241.270606 267.381796 
L 242.585475 263.271681 
L 243.900345 266.16202 
L 245.215214 263.695951 
L 249.159823 271.279776 
L 250.474693 268.044718 
L 251.789562 271.120675 
L 253.104432 264.544491 
L 254.419302 263.775501 
L 255.734171 259.161565 
L 257.049041 258.127407 
L 258.36391 260.195723 
L 259.67878 266.851459 
L 260.993649 266.559773 
L 262.308519 264.226288 
L 263.623389 267.169661 
L 264.938258 266.984043 
L 266.253128 263.961119 
L 267.567997 264.093704 
L 268.882867 267.037077 
L 270.197736 269.105393 
L 271.512606 270.40472 
L 272.827476 275.814162 
L 274.142345 273.533711 
L 275.457215 269.847865 
L 276.772084 264.756626 
L 278.086954 264.650558 
L 279.401823 267.699998 
L 280.716693 271.359327 
L 282.031563 265.658199 
L 283.346432 263.404265 
L 284.661302 265.843817 
L 285.976171 268.548538 
L 287.291041 261.945837 
L 288.60591 263.351231 
L 289.92078 262.237523 
L 291.23565 264.226288 
L 292.550519 263.006512 
L 293.865389 260.56696 
L 295.180258 261.256398 
L 296.495128 249.482907 
L 297.809997 252.240661 
L 299.124867 260.036622 
L 300.439737 260.301791 
L 301.754606 256.536395 
L 303.069476 257.1728 
L 304.384345 264.146737 
L 305.699215 261.229881 
L 307.014085 263.139096 
L 308.328954 256.615946 
L 309.643824 261.866286 
L 310.958693 258.419093 
L 312.273563 259.082015 
L 313.588432 254.62718 
L 314.903302 249.45639 
L 316.218172 257.756171 
L 317.533041 259.851004 
L 318.847911 250.755717 
L 320.16278 256.377294 
L 321.47765 251.286054 
L 322.792519 252.85055 
L 324.107389 252.664931 
L 325.422259 257.809205 
L 326.737128 255.263585 
L 328.051998 255.581787 
L 328.051998 255.581787 
" clip-path="url(#p54a191ee5d)" style="fill: none; stroke: #a9678f; stroke-width: 1.5; stroke-linecap: round"/>
   </g>
   <g id="line2d_16">
    <path d="M 66.392952 299.705864 
L 67.707822 286.845181 
L 69.022691 287.004282 
L 70.337561 283.530572 
L 72.9673 279.632591 
L 74.28217 280.666749 
L 75.597039 281.276638 
L 76.911909 277.378657 
L 78.226778 275.814162 
L 79.541648 271.75708 
L 80.856518 268.28337 
L 82.171387 268.866741 
L 83.486257 268.70764 
L 84.801126 265.233929 
L 86.115996 265.764267 
L 87.430865 267.063594 
L 90.060605 264.438423 
L 91.375474 264.88921 
L 92.690344 267.487863 
L 94.005213 264.597524 
L 95.320083 269.291011 
L 96.634953 266.798425 
L 97.949822 267.01056 
L 99.264692 264.809659 
L 100.579561 264.862693 
L 101.894431 263.271681 
L 103.2093 263.271681 
L 104.52417 264.544491 
L 105.83904 266.268087 
L 107.153909 265.684716 
L 108.468779 262.104938 
L 109.783648 266.453705 
L 111.098518 266.082469 
L 112.413387 265.393031 
L 113.728257 261.91932 
L 115.043127 261.680668 
L 116.357996 261.707185 
L 117.672866 262.873928 
L 118.987735 264.624041 
L 120.302605 263.536849 
L 121.617474 264.332356 
L 122.932344 261.229881 
L 124.247214 256.907631 
L 125.562083 253.964258 
L 126.876953 258.52516 
L 128.191822 258.816846 
L 129.506692 258.286509 
L 130.821561 260.513926 
L 132.136431 263.775501 
L 133.451301 263.961119 
L 134.76617 263.086063 
L 136.08104 258.10089 
L 137.395909 257.093249 
L 138.710779 257.464485 
L 140.025648 258.763812 
L 141.340518 262.290556 
L 142.655388 265.101345 
L 143.970257 263.536849 
L 145.285127 264.358872 
L 146.599996 261.442016 
L 147.914866 263.908086 
L 149.229736 263.033029 
L 150.544605 263.059546 
L 151.859475 264.120221 
L 153.174344 266.215054 
L 154.489214 265.393031 
L 155.804083 265.127862 
L 157.118953 263.669434 
L 158.433823 265.286963 
L 159.748692 267.408313 
L 161.063562 268.36292 
L 162.378431 265.843817 
L 163.693301 267.912133 
L 165.00817 265.021794 
L 166.32304 263.881569 
L 167.63791 264.358872 
L 168.952779 259.479768 
L 170.267649 257.59707 
L 171.582518 252.903583 
L 172.897388 254.441562 
L 174.212257 251.57774 
L 175.527127 254.865832 
L 176.841997 256.74853 
L 178.156866 255.502237 
L 179.471736 260.063139 
L 182.101475 249.270772 
L 183.416344 244.975038 
L 184.731214 245.160656 
L 186.046084 245.054589 
L 187.360953 248.369198 
L 188.675823 255.422686 
L 189.990692 253.327853 
L 191.305562 255.422686 
L 192.620431 253.831674 
L 193.935301 255.449203 
L 195.250171 258.710779 
L 196.56504 252.611898 
L 197.87991 256.642462 
L 199.194779 255.263585 
L 200.509649 252.9301 
L 201.824519 249.854143 
L 203.139388 251.15347 
L 204.454258 251.842908 
L 205.769127 249.615491 
L 207.083997 250.7292 
L 208.398866 249.748075 
L 209.713736 244.391667 
L 211.028606 243.43706 
L 212.343475 246.539534 
L 213.658345 251.816391 
L 214.973214 250.80875 
L 216.288084 255.953024 
L 217.602953 251.65729 
L 218.917823 249.907177 
L 220.232693 252.611898 
L 221.547562 248.873019 
L 222.862432 253.115718 
L 224.177301 250.649649 
L 225.492171 250.119312 
L 226.80704 250.835267 
L 228.12191 257.67662 
L 229.43678 251.763358 
L 230.751649 251.948976 
L 232.066519 259.320667 
L 233.381388 254.574146 
L 234.696258 254.759764 
L 236.011127 254.415045 
L 237.325997 250.7292 
L 238.640867 249.854143 
L 239.955736 246.963804 
L 241.270606 246.831219 
L 242.585475 245.531893 
L 243.900345 251.498189 
L 245.215214 244.312116 
L 246.530084 243.43706 
L 247.844954 246.592567 
L 249.159823 242.986273 
L 250.474693 247.202456 
L 251.789562 247.202456 
L 253.104432 245.850095 
L 254.419302 246.592567 
L 257.049041 254.308978 
L 258.36391 254.362011 
L 259.67878 248.210097 
L 260.993649 250.7292 
L 262.308519 251.498189 
L 263.623389 245.982679 
L 264.938258 248.952569 
L 266.253128 251.524706 
L 267.567997 245.611443 
L 268.882867 245.770544 
L 270.197736 247.016837 
L 271.512606 250.623132 
L 274.142345 256.403811 
L 275.457215 249.403356 
L 276.772084 248.713917 
L 278.086954 243.702228 
L 279.401823 247.838861 
L 280.716693 245.611443 
L 282.031563 244.550768 
L 283.346432 245.611443 
L 284.661302 240.944474 
L 285.976171 246.831219 
L 287.291041 242.296834 
L 288.60591 246.963804 
L 289.92078 239.141326 
L 291.23565 238.133685 
L 292.550519 238.054134 
L 293.865389 244.736386 
L 295.180258 242.508969 
L 296.495128 239.777731 
L 299.124867 228.799746 
L 300.439737 228.08379 
L 301.754606 222.806932 
L 303.069476 222.700865 
L 304.384345 226.227609 
L 305.699215 223.257719 
L 307.014085 226.572328 
L 308.328954 224.344911 
L 310.958693 235.481998 
L 312.273563 234.766042 
L 313.588432 237.126044 
L 314.903302 237.656381 
L 316.218172 232.087838 
L 317.533041 233.917502 
L 318.847911 234.10312 
L 320.16278 240.228518 
L 321.47765 233.201547 
L 322.792519 231.504467 
L 324.107389 231.98177 
L 325.422259 222.541764 
L 326.737128 222.833449 
L 328.051998 219.068053 
L 328.051998 219.068053 
" clip-path="url(#p54a191ee5d)" style="fill: none; stroke: #6c3f70; stroke-width: 1.5; stroke-linecap: round"/>
   </g>
   <g id="line2d_17">
    <path d="M 66.392952 295.277547 
L 69.022691 109.4473 
L 70.337561 95.658526 
L 71.652431 96.666167 
L 72.9673 90.116499 
L 74.28217 90.116499 
L 75.597039 96.745718 
L 76.911909 90.116499 
L 109.783648 90.116499 
L 111.098518 96.268414 
L 112.413387 90.116499 
L 141.340518 90.116499 
L 142.655388 96.374481 
L 143.970257 96.374481 
L 145.285127 90.116499 
L 147.914866 90.116499 
L 149.229736 96.507066 
L 150.544605 90.116499 
L 151.859475 95.207739 
L 153.174344 107.087298 
L 154.489214 106.716062 
L 155.804083 90.116499 
L 157.118953 96.63965 
L 158.433823 96.586616 
L 159.748692 90.116499 
L 161.063562 96.666167 
L 162.378431 90.116499 
L 166.32304 90.116499 
L 167.63791 95.048638 
L 168.952779 94.86302 
L 170.267649 88.419419 
L 171.582518 86.72234 
L 175.527127 86.72234 
L 176.841997 85.02526 
L 178.156866 79.93402 
L 180.786605 96.480549 
L 182.101475 83.32818 
L 183.416344 81.6311 
L 184.731214 85.794249 
L 186.046084 74.84278 
L 188.675823 64.660301 
L 189.990692 57.871982 
L 191.305562 54.477822 
L 192.620431 52.780742 
L 193.935301 52.780742 
L 195.250171 56.174902 
L 196.56504 61.266141 
L 197.87991 65.111088 
L 199.194779 44.295343 
L 200.509649 40.901183 
L 203.139388 37.507023 
L 204.454258 45.541636 
L 205.769127 45.992422 
L 207.083997 37.507023 
L 208.398866 45.515119 
L 209.713736 45.541636 
L 211.028606 37.507023 
L 212.343475 35.809943 
L 213.658345 35.809943 
L 214.973214 44.136241 
L 216.288084 35.809943 
L 218.917823 35.809943 
L 220.232693 52.223888 
L 221.547562 35.809943 
L 222.862432 43.97714 
L 224.177301 35.809943 
L 228.12191 35.809943 
L 229.43678 44.242309 
L 230.751649 35.809943 
L 234.696258 35.809943 
L 236.011127 52.674674 
L 237.325997 35.809943 
L 241.270606 35.809943 
L 242.585475 43.924106 
L 243.900345 37.507023 
L 245.215214 45.541636 
L 246.530084 45.833321 
L 247.844954 37.507023 
L 249.159823 45.435568 
L 250.474693 39.204103 
L 251.789562 35.809943 
L 253.104432 43.818039 
L 254.419302 35.809943 
L 255.734171 43.897589 
L 257.049041 35.809943 
L 258.36391 43.818039 
L 259.67878 43.844556 
L 260.993649 35.809943 
L 267.567997 35.809943 
L 268.882867 43.605904 
L 270.197736 43.605904 
L 271.512606 37.507023 
L 272.827476 35.809943 
L 274.142345 42.492195 
L 275.457215 42.492195 
L 276.772084 35.809943 
L 279.401823 51.534449 
L 280.716693 44.162758 
L 282.031563 35.809943 
L 287.291041 35.809943 
L 288.60591 59.40996 
L 289.92078 35.809943 
L 291.23565 43.871073 
L 292.550519 35.809943 
L 296.495128 35.809943 
L 297.809997 42.465678 
L 299.124867 35.809943 
L 300.439737 44.136241 
L 301.754606 35.809943 
L 312.273563 35.809943 
L 313.588432 51.985236 
L 314.903302 51.746584 
L 316.218172 35.809943 
L 317.533041 44.295343 
L 318.847911 35.809943 
L 320.16278 44.295343 
L 321.47765 35.809943 
L 325.422259 35.809943 
L 326.737128 44.242309 
L 328.051998 44.162758 
L 328.051998 44.162758 
" clip-path="url(#p54a191ee5d)" style="fill: none; stroke: #2d1e3e; stroke-width: 1.5; stroke-linecap: round"/>
   </g>
   <g id="line2d_18"/>
   <g id="line2d_19"/>
   <g id="line2d_20"/>
   <g id="line2d_21"/>
   <g id="line2d_22"/>
   <g id="patch_3">
    <path d="M 53.31 319.138125 
L 53.31 22.318125 
" style="fill: none; stroke: #ffffff; stroke-width: 1.25; stroke-linejoin: miter; stroke-linecap: square"/>
   </g>
   <g id="patch_4">
    <path d="M 53.31 319.138125 
L 341.13495 319.138125 
" style="fill: none; stroke: #ffffff; stroke-width: 1.25; stroke-linejoin: miter; stroke-linecap: square"/>
   </g>
   <g id="text_15">
    <!-- No Vector x Global Only For Three Cycle -->
    <g style="fill: #262626" transform="translate(77.206538 16.318125)scale(0.12 -0.12)">
     <defs>
      <path id="DejaVuSans-4e" d="M 628 4666 
L 1478 4666 
L 3547 763 
L 3547 4666 
L 4159 4666 
L 4159 0 
L 3309 0 
L 1241 3903 
L 1241 0 
L 628 0 
L 628 4666 
z
" transform="scale(0.015625)"/>
      <path id="DejaVuSans-20" transform="scale(0.015625)"/>
      <path id="DejaVuSans-56" d="M 1831 0 
L 50 4666 
L 709 4666 
L 2188 738 
L 3669 4666 
L 4325 4666 
L 2547 0 
L 1831 0 
z
" transform="scale(0.015625)"/>
      <path id="DejaVuSans-63" d="M 3122 3366 
L 3122 2828 
Q 2878 2963 2633 3030 
Q 2388 3097 2138 3097 
Q 1578 3097 1268 2742 
Q 959 2388 959 1747 
Q 959 1106 1268 751 
Q 1578 397 2138 397 
Q 2388 397 2633 464 
Q 2878 531 3122 666 
L 3122 134 
Q 2881 22 2623 -34 
Q 2366 -91 2075 -91 
Q 1284 -91 818 406 
Q 353 903 353 1747 
Q 353 2603 823 3093 
Q 1294 3584 2113 3584 
Q 2378 3584 2631 3529 
Q 2884 3475 3122 3366 
z
" transform="scale(0.015625)"/>
      <path id="DejaVuSans-78" d="M 3513 3500 
L 2247 1797 
L 3578 0 
L 2900 0 
L 1881 1375 
L 863 0 
L 184 0 
L 1544 1831 
L 300 3500 
L 978 3500 
L 1906 2253 
L 2834 3500 
L 3513 3500 
z
" transform="scale(0.015625)"/>
      <path id="DejaVuSans-6c" d="M 603 4863 
L 1178 4863 
L 1178 0 
L 603 0 
L 603 4863 
z
" transform="scale(0.015625)"/>
      <path id="DejaVuSans-62" d="M 3116 1747 
Q 3116 2381 2855 2742 
Q 2594 3103 2138 3103 
Q 1681 3103 1420 2742 
Q 1159 2381 1159 1747 
Q 1159 1113 1420 752 
Q 1681 391 2138 391 
Q 2594 391 2855 752 
Q 3116 1113 3116 1747 
z
M 1159 2969 
Q 1341 3281 1617 3432 
Q 1894 3584 2278 3584 
Q 2916 3584 3314 3078 
Q 3713 2572 3713 1747 
Q 3713 922 3314 415 
Q 2916 -91 2278 -91 
Q 1894 -91 1617 61 
Q 1341 213 1159 525 
L 1159 0 
L 581 0 
L 581 4863 
L 1159 4863 
L 1159 2969 
z
" transform="scale(0.015625)"/>
      <path id="DejaVuSans-4f" d="M 2522 4238 
Q 1834 4238 1429 3725 
Q 1025 3213 1025 2328 
Q 1025 1447 1429 934 
Q 1834 422 2522 422 
Q 3209 422 3611 934 
Q 4013 1447 4013 2328 
Q 4013 3213 3611 3725 
Q 3209 4238 2522 4238 
z
M 2522 4750 
Q 3503 4750 4090 4092 
Q 4678 3434 4678 2328 
Q 4678 1225 4090 567 
Q 3503 -91 2522 -91 
Q 1538 -91 948 565 
Q 359 1222 359 2328 
Q 359 3434 948 4092 
Q 1538 4750 2522 4750 
z
" transform="scale(0.015625)"/>
      <path id="DejaVuSans-79" d="M 2059 -325 
Q 1816 -950 1584 -1140 
Q 1353 -1331 966 -1331 
L 506 -1331 
L 506 -850 
L 844 -850 
Q 1081 -850 1212 -737 
Q 1344 -625 1503 -206 
L 1606 56 
L 191 3500 
L 800 3500 
L 1894 763 
L 2988 3500 
L 3597 3500 
L 2059 -325 
z
" transform="scale(0.015625)"/>
      <path id="DejaVuSans-54" d="M -19 4666 
L 3928 4666 
L 3928 4134 
L 2272 4134 
L 2272 0 
L 1638 0 
L 1638 4134 
L -19 4134 
L -19 4666 
z
" transform="scale(0.015625)"/>
      <path id="DejaVuSans-68" d="M 3513 2113 
L 3513 0 
L 2938 0 
L 2938 2094 
Q 2938 2591 2744 2837 
Q 2550 3084 2163 3084 
Q 1697 3084 1428 2787 
Q 1159 2491 1159 1978 
L 1159 0 
L 581 0 
L 581 4863 
L 1159 4863 
L 1159 2956 
Q 1366 3272 1645 3428 
Q 1925 3584 2291 3584 
Q 2894 3584 3203 3211 
Q 3513 2838 3513 2113 
z
" transform="scale(0.015625)"/>
      <path id="DejaVuSans-43" d="M 4122 4306 
L 4122 3641 
Q 3803 3938 3442 4084 
Q 3081 4231 2675 4231 
Q 1875 4231 1450 3742 
Q 1025 3253 1025 2328 
Q 1025 1406 1450 917 
Q 1875 428 2675 428 
Q 3081 428 3442 575 
Q 3803 722 4122 1019 
L 4122 359 
Q 3791 134 3420 21 
Q 3050 -91 2638 -91 
Q 1578 -91 968 557 
Q 359 1206 359 2328 
Q 359 3453 968 4101 
Q 1578 4750 2638 4750 
Q 3056 4750 3426 4639 
Q 3797 4528 4122 4306 
z
" transform="scale(0.015625)"/>
     </defs>
     <use xlink:href="#DejaVuSans-4e"/>
     <use xlink:href="#DejaVuSans-6f" x="74.804688"/>
     <use xlink:href="#DejaVuSans-20" x="135.986328"/>
     <use xlink:href="#DejaVuSans-56" x="167.773438"/>
     <use xlink:href="#DejaVuSans-65" x="228.431641"/>
     <use xlink:href="#DejaVuSans-63" x="289.955078"/>
     <use xlink:href="#DejaVuSans-74" x="344.935547"/>
     <use xlink:href="#DejaVuSans-6f" x="384.144531"/>
     <use xlink:href="#DejaVuSans-72" x="445.326172"/>
     <use xlink:href="#DejaVuSans-20" x="486.439453"/>
     <use xlink:href="#DejaVuSans-78" x="518.226562"/>
     <use xlink:href="#DejaVuSans-20" x="577.40625"/>
     <use xlink:href="#DejaVuSans-47" x="609.193359"/>
     <use xlink:href="#DejaVuSans-6c" x="686.683594"/>
     <use xlink:href="#DejaVuSans-6f" x="714.466797"/>
     <use xlink:href="#DejaVuSans-62" x="775.648438"/>
     <use xlink:href="#DejaVuSans-61" x="839.125"/>
     <use xlink:href="#DejaVuSans-6c" x="900.404297"/>
     <use xlink:href="#DejaVuSans-20" x="928.1875"/>
     <use xlink:href="#DejaVuSans-4f" x="959.974609"/>
     <use xlink:href="#DejaVuSans-6e" x="1038.685547"/>
     <use xlink:href="#DejaVuSans-6c" x="1102.064453"/>
     <use xlink:href="#DejaVuSans-79" x="1129.847656"/>
     <use xlink:href="#DejaVuSans-20" x="1189.027344"/>
     <use xlink:href="#DejaVuSans-46" x="1220.814453"/>
     <use xlink:href="#DejaVuSans-6f" x="1274.708984"/>
     <use xlink:href="#DejaVuSans-72" x="1335.890625"/>
     <use xlink:href="#DejaVuSans-20" x="1377.003906"/>
     <use xlink:href="#DejaVuSans-54" x="1408.791016"/>
     <use xlink:href="#DejaVuSans-68" x="1469.875"/>
     <use xlink:href="#DejaVuSans-72" x="1533.253906"/>
     <use xlink:href="#DejaVuSans-65" x="1572.117188"/>
     <use xlink:href="#DejaVuSans-65" x="1633.640625"/>
     <use xlink:href="#DejaVuSans-20" x="1695.164062"/>
     <use xlink:href="#DejaVuSans-43" x="1726.951172"/>
     <use xlink:href="#DejaVuSans-79" x="1796.775391"/>
     <use xlink:href="#DejaVuSans-63" x="1855.955078"/>
     <use xlink:href="#DejaVuSans-6c" x="1910.935547"/>
     <use xlink:href="#DejaVuSans-65" x="1938.71875"/>
    </g>
   </g>
  </g>
  <g id="legend_1">
   <g id="text_16">
    <!-- Trial -->
    <g style="fill: #262626" transform="translate(352.4649 143.995312)scale(0.12 -0.12)">
     <use xlink:href="#DejaVuSans-54"/>
     <use xlink:href="#DejaVuSans-72" x="46.333984"/>
     <use xlink:href="#DejaVuSans-69" x="87.447266"/>
     <use xlink:href="#DejaVuSans-61" x="115.230469"/>
     <use xlink:href="#DejaVuSans-6c" x="176.509766"/>
    </g>
   </g>
   <g id="line2d_23">
    <path d="M 345.8224 156.499219 
L 356.8224 156.499219 
L 367.8224 156.499219 
" style="fill: none; stroke: #edd1cb; stroke-width: 1.5; stroke-linecap: round"/>
   </g>
   <g id="text_17">
    <!-- 0 -->
    <g style="fill: #262626" transform="translate(376.6224 160.349219)scale(0.11 -0.11)">
     <use xlink:href="#DejaVuSans-30"/>
    </g>
   </g>
   <g id="line2d_24">
    <path d="M 345.8224 172.645156 
L 356.8224 172.645156 
L 367.8224 172.645156 
" style="fill: none; stroke: #d499a7; stroke-width: 1.5; stroke-linecap: round"/>
   </g>
   <g id="text_18">
    <!-- 1 -->
    <g style="fill: #262626" transform="translate(376.6224 176.495156)scale(0.11 -0.11)">
     <use xlink:href="#DejaVuSans-31"/>
    </g>
   </g>
   <g id="line2d_25">
    <path d="M 345.8224 188.791094 
L 356.8224 188.791094 
L 367.8224 188.791094 
" style="fill: none; stroke: #a9678f; stroke-width: 1.5; stroke-linecap: round"/>
   </g>
   <g id="text_19">
    <!-- 2 -->
    <g style="fill: #262626" transform="translate(376.6224 192.641094)scale(0.11 -0.11)">
     <use xlink:href="#DejaVuSans-32"/>
    </g>
   </g>
   <g id="line2d_26">
    <path d="M 345.8224 204.937031 
L 356.8224 204.937031 
L 367.8224 204.937031 
" style="fill: none; stroke: #6c3f70; stroke-width: 1.5; stroke-linecap: round"/>
   </g>
   <g id="text_20">
    <!-- 3 -->
    <g style="fill: #262626" transform="translate(376.6224 208.787031)scale(0.11 -0.11)">
     <use xlink:href="#DejaVuSans-33"/>
    </g>
   </g>
   <g id="line2d_27">
    <path d="M 345.8224 221.082969 
L 356.8224 221.082969 
L 367.8224 221.082969 
" style="fill: none; stroke: #2d1e3e; stroke-width: 1.5; stroke-linecap: round"/>
   </g>
   <g id="text_21">
    <!-- 4 -->
    <g style="fill: #262626" transform="translate(376.6224 224.932969)scale(0.11 -0.11)">
     <defs>
      <path id="DejaVuSans-34" d="M 2419 4116 
L 825 1625 
L 2419 1625 
L 2419 4116 
z
M 2253 4666 
L 3047 4666 
L 3047 1625 
L 3713 1625 
L 3713 1100 
L 3047 1100 
L 3047 0 
L 2419 0 
L 2419 1100 
L 313 1100 
L 313 1709 
L 2253 4666 
z
" transform="scale(0.015625)"/>
     </defs>
     <use xlink:href="#DejaVuSans-34"/>
    </g>
   </g>
  </g>
 </g>
 <defs>
  <clipPath id="p54a191ee5d">
   <rect x="53.31" y="22.318125" width="287.82495" height="296.82"/>
  </clipPath>
 </defs>
</svg>
