<?xml version="1.0" encoding="utf-8" standalone="no"?>
<!DOCTYPE svg PUBLIC "-//W3C//DTD SVG 1.1//EN"
  "http://www.w3.org/Graphics/SVG/1.1/DTD/svg11.dtd">
<svg xmlns:xlink="http://www.w3.org/1999/xlink" width="391.86378pt" height="362.097812pt" viewBox="0 0 391.86378 362.097812" xmlns="http://www.w3.org/2000/svg" version="1.1">
 <metadata>
  <rdf:RDF xmlns:dc="http://purl.org/dc/elements/1.1/" xmlns:cc="http://creativecommons.org/ns#" xmlns:rdf="http://www.w3.org/1999/02/22-rdf-syntax-ns#">
   <cc:Work>
    <dc:type rdf:resource="http://purl.org/dc/dcmitype/StillImage"/>
    <dc:date>2022-11-20T08:27:14.555632</dc:date>
    <dc:format>image/svg+xml</dc:format>
    <dc:creator>
     <cc:Agent>
      <dc:title>Matplotlib v3.5.2, https://matplotlib.org/</dc:title>
     </cc:Agent>
    </dc:creator>
   </cc:Work>
  </rdf:RDF>
 </metadata>
 <defs>
  <style type="text/css">*{stroke-linejoin: round; stroke-linecap: butt}</style>
 </defs>
 <g id="figure_1">
  <g id="patch_1">
   <path d="M 0 362.097812 
L 391.86378 362.097812 
L 391.86378 0 
L 0 0 
z
" style="fill: #ffffff"/>
  </g>
  <g id="axes_1">
   <g id="patch_2">
    <path d="M 67.3075 319.138125 
L 339.47758 319.138125 
L 339.47758 22.318125 
L 67.3075 22.318125 
z
" style="fill: #eaeaf2"/>
   </g>
   <g id="matplotlib.axis_1">
    <g id="xtick_1">
     <g id="line2d_1">
      <path d="M 79.678867 319.138125 
L 79.678867 22.318125 
" clip-path="url(#p7487904832)" style="fill: none; stroke: #ffffff; stroke-linecap: round"/>
     </g>
     <g id="text_1">
      <!-- 0 -->
      <g style="fill: #262626" transform="translate(76.179492 336.996406)scale(0.11 -0.11)">
       <defs>
        <path id="DejaVuSans-30" d="M 2034 4250 
Q 1547 4250 1301 3770 
Q 1056 3291 1056 2328 
Q 1056 1369 1301 889 
Q 1547 409 2034 409 
Q 2525 409 2770 889 
Q 3016 1369 3016 2328 
Q 3016 3291 2770 3770 
Q 2525 4250 2034 4250 
z
M 2034 4750 
Q 2819 4750 3233 4129 
Q 3647 3509 3647 2328 
Q 3647 1150 3233 529 
Q 2819 -91 2034 -91 
Q 1250 -91 836 529 
Q 422 1150 422 2328 
Q 422 3509 836 4129 
Q 1250 4750 2034 4750 
z
" transform="scale(0.015625)"/>
       </defs>
       <use xlink:href="#DejaVuSans-30"/>
      </g>
     </g>
    </g>
    <g id="xtick_2">
     <g id="line2d_2">
      <path d="M 141.846542 319.138125 
L 141.846542 22.318125 
" clip-path="url(#p7487904832)" style="fill: none; stroke: #ffffff; stroke-linecap: round"/>
     </g>
     <g id="text_2">
      <!-- 50 -->
      <g style="fill: #262626" transform="translate(134.847792 336.996406)scale(0.11 -0.11)">
       <defs>
        <path id="DejaVuSans-35" d="M 691 4666 
L 3169 4666 
L 3169 4134 
L 1269 4134 
L 1269 2991 
Q 1406 3038 1543 3061 
Q 1681 3084 1819 3084 
Q 2600 3084 3056 2656 
Q 3513 2228 3513 1497 
Q 3513 744 3044 326 
Q 2575 -91 1722 -91 
Q 1428 -91 1123 -41 
Q 819 9 494 109 
L 494 744 
Q 775 591 1075 516 
Q 1375 441 1709 441 
Q 2250 441 2565 725 
Q 2881 1009 2881 1497 
Q 2881 1984 2565 2268 
Q 2250 2553 1709 2553 
Q 1456 2553 1204 2497 
Q 953 2441 691 2322 
L 691 4666 
z
" transform="scale(0.015625)"/>
       </defs>
       <use xlink:href="#DejaVuSans-35"/>
       <use xlink:href="#DejaVuSans-30" x="63.623047"/>
      </g>
     </g>
    </g>
    <g id="xtick_3">
     <g id="line2d_3">
      <path d="M 204.014217 319.138125 
L 204.014217 22.318125 
" clip-path="url(#p7487904832)" style="fill: none; stroke: #ffffff; stroke-linecap: round"/>
     </g>
     <g id="text_3">
      <!-- 100 -->
      <g style="fill: #262626" transform="translate(193.516092 336.996406)scale(0.11 -0.11)">
       <defs>
        <path id="DejaVuSans-31" d="M 794 531 
L 1825 531 
L 1825 4091 
L 703 3866 
L 703 4441 
L 1819 4666 
L 2450 4666 
L 2450 531 
L 3481 531 
L 3481 0 
L 794 0 
L 794 531 
z
" transform="scale(0.015625)"/>
       </defs>
       <use xlink:href="#DejaVuSans-31"/>
       <use xlink:href="#DejaVuSans-30" x="63.623047"/>
       <use xlink:href="#DejaVuSans-30" x="127.246094"/>
      </g>
     </g>
    </g>
    <g id="xtick_4">
     <g id="line2d_4">
      <path d="M 266.181891 319.138125 
L 266.181891 22.318125 
" clip-path="url(#p7487904832)" style="fill: none; stroke: #ffffff; stroke-linecap: round"/>
     </g>
     <g id="text_4">
      <!-- 150 -->
      <g style="fill: #262626" transform="translate(255.683766 336.996406)scale(0.11 -0.11)">
       <use xlink:href="#DejaVuSans-31"/>
       <use xlink:href="#DejaVuSans-35" x="63.623047"/>
       <use xlink:href="#DejaVuSans-30" x="127.246094"/>
      </g>
     </g>
    </g>
    <g id="xtick_5">
     <g id="line2d_5">
      <path d="M 328.349566 319.138125 
L 328.349566 22.318125 
" clip-path="url(#p7487904832)" style="fill: none; stroke: #ffffff; stroke-linecap: round"/>
     </g>
     <g id="text_5">
      <!-- 200 -->
      <g style="fill: #262626" transform="translate(317.851441 336.996406)scale(0.11 -0.11)">
       <defs>
        <path id="DejaVuSans-32" d="M 1228 531 
L 3431 531 
L 3431 0 
L 469 0 
L 469 531 
Q 828 903 1448 1529 
Q 2069 2156 2228 2338 
Q 2531 2678 2651 2914 
Q 2772 3150 2772 3378 
Q 2772 3750 2511 3984 
Q 2250 4219 1831 4219 
Q 1534 4219 1204 4116 
Q 875 4013 500 3803 
L 500 4441 
Q 881 4594 1212 4672 
Q 1544 4750 1819 4750 
Q 2544 4750 2975 4387 
Q 3406 4025 3406 3419 
Q 3406 3131 3298 2873 
Q 3191 2616 2906 2266 
Q 2828 2175 2409 1742 
Q 1991 1309 1228 531 
z
" transform="scale(0.015625)"/>
       </defs>
       <use xlink:href="#DejaVuSans-32"/>
       <use xlink:href="#DejaVuSans-30" x="63.623047"/>
       <use xlink:href="#DejaVuSans-30" x="127.246094"/>
      </g>
     </g>
    </g>
    <g id="text_6">
     <!-- Generation -->
     <g style="fill: #262626" transform="translate(169.920978 352.402187)scale(0.12 -0.12)">
      <defs>
       <path id="DejaVuSans-47" d="M 3809 666 
L 3809 1919 
L 2778 1919 
L 2778 2438 
L 4434 2438 
L 4434 434 
Q 4069 175 3628 42 
Q 3188 -91 2688 -91 
Q 1594 -91 976 548 
Q 359 1188 359 2328 
Q 359 3472 976 4111 
Q 1594 4750 2688 4750 
Q 3144 4750 3555 4637 
Q 3966 4525 4313 4306 
L 4313 3634 
Q 3963 3931 3569 4081 
Q 3175 4231 2741 4231 
Q 1884 4231 1454 3753 
Q 1025 3275 1025 2328 
Q 1025 1384 1454 906 
Q 1884 428 2741 428 
Q 3075 428 3337 486 
Q 3600 544 3809 666 
z
" transform="scale(0.015625)"/>
       <path id="DejaVuSans-65" d="M 3597 1894 
L 3597 1613 
L 953 1613 
Q 991 1019 1311 708 
Q 1631 397 2203 397 
Q 2534 397 2845 478 
Q 3156 559 3463 722 
L 3463 178 
Q 3153 47 2828 -22 
Q 2503 -91 2169 -91 
Q 1331 -91 842 396 
Q 353 884 353 1716 
Q 353 2575 817 3079 
Q 1281 3584 2069 3584 
Q 2775 3584 3186 3129 
Q 3597 2675 3597 1894 
z
M 3022 2063 
Q 3016 2534 2758 2815 
Q 2500 3097 2075 3097 
Q 1594 3097 1305 2825 
Q 1016 2553 972 2059 
L 3022 2063 
z
" transform="scale(0.015625)"/>
       <path id="DejaVuSans-6e" d="M 3513 2113 
L 3513 0 
L 2938 0 
L 2938 2094 
Q 2938 2591 2744 2837 
Q 2550 3084 2163 3084 
Q 1697 3084 1428 2787 
Q 1159 2491 1159 1978 
L 1159 0 
L 581 0 
L 581 3500 
L 1159 3500 
L 1159 2956 
Q 1366 3272 1645 3428 
Q 1925 3584 2291 3584 
Q 2894 3584 3203 3211 
Q 3513 2838 3513 2113 
z
" transform="scale(0.015625)"/>
       <path id="DejaVuSans-72" d="M 2631 2963 
Q 2534 3019 2420 3045 
Q 2306 3072 2169 3072 
Q 1681 3072 1420 2755 
Q 1159 2438 1159 1844 
L 1159 0 
L 581 0 
L 581 3500 
L 1159 3500 
L 1159 2956 
Q 1341 3275 1631 3429 
Q 1922 3584 2338 3584 
Q 2397 3584 2469 3576 
Q 2541 3569 2628 3553 
L 2631 2963 
z
" transform="scale(0.015625)"/>
       <path id="DejaVuSans-61" d="M 2194 1759 
Q 1497 1759 1228 1600 
Q 959 1441 959 1056 
Q 959 750 1161 570 
Q 1363 391 1709 391 
Q 2188 391 2477 730 
Q 2766 1069 2766 1631 
L 2766 1759 
L 2194 1759 
z
M 3341 1997 
L 3341 0 
L 2766 0 
L 2766 531 
Q 2569 213 2275 61 
Q 1981 -91 1556 -91 
Q 1019 -91 701 211 
Q 384 513 384 1019 
Q 384 1609 779 1909 
Q 1175 2209 1959 2209 
L 2766 2209 
L 2766 2266 
Q 2766 2663 2505 2880 
Q 2244 3097 1772 3097 
Q 1472 3097 1187 3025 
Q 903 2953 641 2809 
L 641 3341 
Q 956 3463 1253 3523 
Q 1550 3584 1831 3584 
Q 2591 3584 2966 3190 
Q 3341 2797 3341 1997 
z
" transform="scale(0.015625)"/>
       <path id="DejaVuSans-74" d="M 1172 4494 
L 1172 3500 
L 2356 3500 
L 2356 3053 
L 1172 3053 
L 1172 1153 
Q 1172 725 1289 603 
Q 1406 481 1766 481 
L 2356 481 
L 2356 0 
L 1766 0 
Q 1100 0 847 248 
Q 594 497 594 1153 
L 594 3053 
L 172 3053 
L 172 3500 
L 594 3500 
L 594 4494 
L 1172 4494 
z
" transform="scale(0.015625)"/>
       <path id="DejaVuSans-69" d="M 603 3500 
L 1178 3500 
L 1178 0 
L 603 0 
L 603 3500 
z
M 603 4863 
L 1178 4863 
L 1178 4134 
L 603 4134 
L 603 4863 
z
" transform="scale(0.015625)"/>
       <path id="DejaVuSans-6f" d="M 1959 3097 
Q 1497 3097 1228 2736 
Q 959 2375 959 1747 
Q 959 1119 1226 758 
Q 1494 397 1959 397 
Q 2419 397 2687 759 
Q 2956 1122 2956 1747 
Q 2956 2369 2687 2733 
Q 2419 3097 1959 3097 
z
M 1959 3584 
Q 2709 3584 3137 3096 
Q 3566 2609 3566 1747 
Q 3566 888 3137 398 
Q 2709 -91 1959 -91 
Q 1206 -91 779 398 
Q 353 888 353 1747 
Q 353 2609 779 3096 
Q 1206 3584 1959 3584 
z
" transform="scale(0.015625)"/>
      </defs>
      <use xlink:href="#DejaVuSans-47"/>
      <use xlink:href="#DejaVuSans-65" x="77.490234"/>
      <use xlink:href="#DejaVuSans-6e" x="139.013672"/>
      <use xlink:href="#DejaVuSans-65" x="202.392578"/>
      <use xlink:href="#DejaVuSans-72" x="263.916016"/>
      <use xlink:href="#DejaVuSans-61" x="305.029297"/>
      <use xlink:href="#DejaVuSans-74" x="366.308594"/>
      <use xlink:href="#DejaVuSans-69" x="405.517578"/>
      <use xlink:href="#DejaVuSans-6f" x="433.300781"/>
      <use xlink:href="#DejaVuSans-6e" x="494.482422"/>
     </g>
    </g>
   </g>
   <g id="matplotlib.axis_2">
    <g id="ytick_1">
     <g id="line2d_6">
      <path d="M 67.3075 305.647384 
L 339.47758 305.647384 
" clip-path="url(#p7487904832)" style="fill: none; stroke: #ffffff; stroke-linecap: round"/>
     </g>
     <g id="text_7">
      <!-- 0 -->
      <g style="fill: #262626" transform="translate(50.80875 309.826525)scale(0.11 -0.11)">
       <use xlink:href="#DejaVuSans-30"/>
      </g>
     </g>
    </g>
    <g id="ytick_2">
     <g id="line2d_7">
      <path d="M 67.3075 271.173279 
L 339.47758 271.173279 
" clip-path="url(#p7487904832)" style="fill: none; stroke: #ffffff; stroke-linecap: round"/>
     </g>
     <g id="text_8">
      <!-- 5000 -->
      <g style="fill: #262626" transform="translate(29.8125 275.352419)scale(0.11 -0.11)">
       <use xlink:href="#DejaVuSans-35"/>
       <use xlink:href="#DejaVuSans-30" x="63.623047"/>
       <use xlink:href="#DejaVuSans-30" x="127.246094"/>
       <use xlink:href="#DejaVuSans-30" x="190.869141"/>
      </g>
     </g>
    </g>
    <g id="ytick_3">
     <g id="line2d_8">
      <path d="M 67.3075 236.699173 
L 339.47758 236.699173 
" clip-path="url(#p7487904832)" style="fill: none; stroke: #ffffff; stroke-linecap: round"/>
     </g>
     <g id="text_9">
      <!-- 10000 -->
      <g style="fill: #262626" transform="translate(22.81375 240.878314)scale(0.11 -0.11)">
       <use xlink:href="#DejaVuSans-31"/>
       <use xlink:href="#DejaVuSans-30" x="63.623047"/>
       <use xlink:href="#DejaVuSans-30" x="127.246094"/>
       <use xlink:href="#DejaVuSans-30" x="190.869141"/>
       <use xlink:href="#DejaVuSans-30" x="254.492188"/>
      </g>
     </g>
    </g>
    <g id="ytick_4">
     <g id="line2d_9">
      <path d="M 67.3075 202.225068 
L 339.47758 202.225068 
" clip-path="url(#p7487904832)" style="fill: none; stroke: #ffffff; stroke-linecap: round"/>
     </g>
     <g id="text_10">
      <!-- 15000 -->
      <g style="fill: #262626" transform="translate(22.81375 206.404209)scale(0.11 -0.11)">
       <use xlink:href="#DejaVuSans-31"/>
       <use xlink:href="#DejaVuSans-35" x="63.623047"/>
       <use xlink:href="#DejaVuSans-30" x="127.246094"/>
       <use xlink:href="#DejaVuSans-30" x="190.869141"/>
       <use xlink:href="#DejaVuSans-30" x="254.492188"/>
      </g>
     </g>
    </g>
    <g id="ytick_5">
     <g id="line2d_10">
      <path d="M 67.3075 167.750963 
L 339.47758 167.750963 
" clip-path="url(#p7487904832)" style="fill: none; stroke: #ffffff; stroke-linecap: round"/>
     </g>
     <g id="text_11">
      <!-- 20000 -->
      <g style="fill: #262626" transform="translate(22.81375 171.930103)scale(0.11 -0.11)">
       <use xlink:href="#DejaVuSans-32"/>
       <use xlink:href="#DejaVuSans-30" x="63.623047"/>
       <use xlink:href="#DejaVuSans-30" x="127.246094"/>
       <use xlink:href="#DejaVuSans-30" x="190.869141"/>
       <use xlink:href="#DejaVuSans-30" x="254.492188"/>
      </g>
     </g>
    </g>
    <g id="ytick_6">
     <g id="line2d_11">
      <path d="M 67.3075 133.276857 
L 339.47758 133.276857 
" clip-path="url(#p7487904832)" style="fill: none; stroke: #ffffff; stroke-linecap: round"/>
     </g>
     <g id="text_12">
      <!-- 25000 -->
      <g style="fill: #262626" transform="translate(22.81375 137.455998)scale(0.11 -0.11)">
       <use xlink:href="#DejaVuSans-32"/>
       <use xlink:href="#DejaVuSans-35" x="63.623047"/>
       <use xlink:href="#DejaVuSans-30" x="127.246094"/>
       <use xlink:href="#DejaVuSans-30" x="190.869141"/>
       <use xlink:href="#DejaVuSans-30" x="254.492188"/>
      </g>
     </g>
    </g>
    <g id="ytick_7">
     <g id="line2d_12">
      <path d="M 67.3075 98.802752 
L 339.47758 98.802752 
" clip-path="url(#p7487904832)" style="fill: none; stroke: #ffffff; stroke-linecap: round"/>
     </g>
     <g id="text_13">
      <!-- 30000 -->
      <g style="fill: #262626" transform="translate(22.81375 102.981893)scale(0.11 -0.11)">
       <defs>
        <path id="DejaVuSans-33" d="M 2597 2516 
Q 3050 2419 3304 2112 
Q 3559 1806 3559 1356 
Q 3559 666 3084 287 
Q 2609 -91 1734 -91 
Q 1441 -91 1130 -33 
Q 819 25 488 141 
L 488 750 
Q 750 597 1062 519 
Q 1375 441 1716 441 
Q 2309 441 2620 675 
Q 2931 909 2931 1356 
Q 2931 1769 2642 2001 
Q 2353 2234 1838 2234 
L 1294 2234 
L 1294 2753 
L 1863 2753 
Q 2328 2753 2575 2939 
Q 2822 3125 2822 3475 
Q 2822 3834 2567 4026 
Q 2313 4219 1838 4219 
Q 1578 4219 1281 4162 
Q 984 4106 628 3988 
L 628 4550 
Q 988 4650 1302 4700 
Q 1616 4750 1894 4750 
Q 2613 4750 3031 4423 
Q 3450 4097 3450 3541 
Q 3450 3153 3228 2886 
Q 3006 2619 2597 2516 
z
" transform="scale(0.015625)"/>
       </defs>
       <use xlink:href="#DejaVuSans-33"/>
       <use xlink:href="#DejaVuSans-30" x="63.623047"/>
       <use xlink:href="#DejaVuSans-30" x="127.246094"/>
       <use xlink:href="#DejaVuSans-30" x="190.869141"/>
       <use xlink:href="#DejaVuSans-30" x="254.492188"/>
      </g>
     </g>
    </g>
    <g id="ytick_8">
     <g id="line2d_13">
      <path d="M 67.3075 64.328647 
L 339.47758 64.328647 
" clip-path="url(#p7487904832)" style="fill: none; stroke: #ffffff; stroke-linecap: round"/>
     </g>
     <g id="text_14">
      <!-- 35000 -->
      <g style="fill: #262626" transform="translate(22.81375 68.507787)scale(0.11 -0.11)">
       <use xlink:href="#DejaVuSans-33"/>
       <use xlink:href="#DejaVuSans-35" x="63.623047"/>
       <use xlink:href="#DejaVuSans-30" x="127.246094"/>
       <use xlink:href="#DejaVuSans-30" x="190.869141"/>
       <use xlink:href="#DejaVuSans-30" x="254.492188"/>
      </g>
     </g>
    </g>
    <g id="ytick_9">
     <g id="line2d_14">
      <path d="M 67.3075 29.854541 
L 339.47758 29.854541 
" clip-path="url(#p7487904832)" style="fill: none; stroke: #ffffff; stroke-linecap: round"/>
     </g>
     <g id="text_15">
      <!-- 40000 -->
      <g style="fill: #262626" transform="translate(22.81375 34.033682)scale(0.11 -0.11)">
       <defs>
        <path id="DejaVuSans-34" d="M 2419 4116 
L 825 1625 
L 2419 1625 
L 2419 4116 
z
M 2253 4666 
L 3047 4666 
L 3047 1625 
L 3713 1625 
L 3713 1100 
L 3047 1100 
L 3047 0 
L 2419 0 
L 2419 1100 
L 313 1100 
L 313 1709 
L 2253 4666 
z
" transform="scale(0.015625)"/>
       </defs>
       <use xlink:href="#DejaVuSans-34"/>
       <use xlink:href="#DejaVuSans-30" x="63.623047"/>
       <use xlink:href="#DejaVuSans-30" x="127.246094"/>
       <use xlink:href="#DejaVuSans-30" x="190.869141"/>
       <use xlink:href="#DejaVuSans-30" x="254.492188"/>
      </g>
     </g>
    </g>
    <g id="text_16">
     <!-- Fitness -->
     <g style="fill: #262626" transform="translate(16.318125 191.50875)rotate(-90)scale(0.12 -0.12)">
      <defs>
       <path id="DejaVuSans-46" d="M 628 4666 
L 3309 4666 
L 3309 4134 
L 1259 4134 
L 1259 2759 
L 3109 2759 
L 3109 2228 
L 1259 2228 
L 1259 0 
L 628 0 
L 628 4666 
z
" transform="scale(0.015625)"/>
       <path id="DejaVuSans-73" d="M 2834 3397 
L 2834 2853 
Q 2591 2978 2328 3040 
Q 2066 3103 1784 3103 
Q 1356 3103 1142 2972 
Q 928 2841 928 2578 
Q 928 2378 1081 2264 
Q 1234 2150 1697 2047 
L 1894 2003 
Q 2506 1872 2764 1633 
Q 3022 1394 3022 966 
Q 3022 478 2636 193 
Q 2250 -91 1575 -91 
Q 1294 -91 989 -36 
Q 684 19 347 128 
L 347 722 
Q 666 556 975 473 
Q 1284 391 1588 391 
Q 1994 391 2212 530 
Q 2431 669 2431 922 
Q 2431 1156 2273 1281 
Q 2116 1406 1581 1522 
L 1381 1569 
Q 847 1681 609 1914 
Q 372 2147 372 2553 
Q 372 3047 722 3315 
Q 1072 3584 1716 3584 
Q 2034 3584 2315 3537 
Q 2597 3491 2834 3397 
z
" transform="scale(0.015625)"/>
      </defs>
      <use xlink:href="#DejaVuSans-46"/>
      <use xlink:href="#DejaVuSans-69" x="50.269531"/>
      <use xlink:href="#DejaVuSans-74" x="78.052734"/>
      <use xlink:href="#DejaVuSans-6e" x="117.261719"/>
      <use xlink:href="#DejaVuSans-65" x="180.640625"/>
      <use xlink:href="#DejaVuSans-73" x="242.164062"/>
      <use xlink:href="#DejaVuSans-73" x="294.263672"/>
     </g>
    </g>
   </g>
   <g id="PolyCollection_1">
    <defs>
     <path id="m578da6899a" d="M 79.678867 -56.455169 
L 79.678867 -56.451506 
L 80.922221 -56.455599 
L 82.165574 -56.482516 
L 83.408928 -56.590695 
L 84.652281 -56.687616 
L 85.895635 -56.72105 
L 87.138988 -56.716714 
L 88.382342 -56.741083 
L 89.625695 -56.767353 
L 90.869049 -56.853775 
L 92.112402 -56.805081 
L 93.355756 -56.847947 
L 94.599109 -56.834384 
L 95.842463 -56.856781 
L 97.085816 -56.931762 
L 98.32917 -56.911514 
L 99.572523 -56.897493 
L 100.815877 -56.880924 
L 102.05923 -56.889968 
L 103.302584 -57.009544 
L 104.545937 -56.961916 
L 105.789291 -56.923785 
L 107.032644 -56.922718 
L 108.275998 -57.017958 
L 109.519351 -57.027428 
L 110.762705 -56.968617 
L 112.006058 -56.984777 
L 113.249412 -56.935 
L 114.492765 -56.909139 
L 115.736119 -56.953508 
L 116.979472 -56.947071 
L 118.222826 -56.98154 
L 119.466179 -57.03735 
L 120.709533 -57.037765 
L 121.952886 -56.997268 
L 123.19624 -56.948364 
L 124.439593 -56.962358 
L 125.682947 -56.9518 
L 126.9263 -57.058675 
L 128.169654 -57.056526 
L 129.413007 -57.05609 
L 130.656361 -56.959131 
L 131.899714 -56.993821 
L 133.143068 -57.037129 
L 134.386421 -57.086691 
L 135.629775 -56.959983 
L 136.873128 -57.087984 
L 138.116482 -57.086476 
L 139.359835 -57.031533 
L 140.603189 -57.031317 
L 141.846542 -56.934569 
L 143.089896 -56.99576 
L 144.333249 -56.97096 
L 145.576602 -57.001136 
L 146.819956 -56.95806 
L 148.063309 -56.974209 
L 149.306663 -57.031533 
L 150.550016 -56.97701 
L 151.79337 -56.972275 
L 153.036723 -56.996622 
L 154.280077 -56.992534 
L 155.52343 -56.989727 
L 156.766784 -57.084106 
L 158.010137 -57.00286 
L 159.253491 -56.984308 
L 160.496844 -57.069449 
L 161.740198 -57.385269 
L 162.983551 -58.343924 
L 164.226905 -58.826098 
L 165.470258 -59.003882 
L 166.713612 -59.003451 
L 167.956965 -59.006021 
L 169.200319 -59.01437 
L 170.443672 -58.774301 
L 171.687026 -59.02022 
L 172.930379 -59.011138 
L 174.173733 -58.842161 
L 175.417086 -58.849557 
L 176.66044 -59.001658 
L 177.903793 -59.01681 
L 179.147147 -59.007082 
L 180.3905 -58.750616 
L 181.633854 -59.199954 
L 182.877207 -59.185173 
L 184.120561 -58.987453 
L 185.363914 -59.13309 
L 186.607268 -58.960143 
L 187.850621 -59.016304 
L 189.093975 -59.204048 
L 190.337328 -58.837744 
L 191.580682 -59.202755 
L 192.824035 -59.233135 
L 194.067389 -59.466482 
L 195.310742 -59.469283 
L 196.554096 -59.024998 
L 197.797449 -59.209003 
L 199.040803 -59.016379 
L 200.284156 -59.210511 
L 201.52751 -59.132347 
L 202.770863 -58.956109 
L 204.014217 -58.964964 
L 205.25757 -59.030594 
L 206.500924 -58.75631 
L 207.744277 -58.920266 
L 208.987631 -58.867489 
L 210.230984 -59.216873 
L 211.474338 -59.22861 
L 212.717691 -59.519701 
L 213.961045 -59.241323 
L 215.204398 -59.226386 
L 216.447752 -59.059192 
L 217.691105 -58.851695 
L 218.934459 -58.648621 
L 220.177812 -59.042014 
L 221.421166 -59.513668 
L 222.664519 -59.496862 
L 223.907873 -59.238091 
L 225.151226 -58.903649 
L 226.39458 -59.484581 
L 227.637933 -58.870721 
L 228.881287 -58.967857 
L 230.12464 -59.087676 
L 231.367994 -60.474585 
L 232.611347 -62.044014 
L 233.854701 -63.615241 
L 235.098054 -66.378734 
L 236.341408 -65.070458 
L 237.584761 -65.723903 
L 238.828115 -65.775027 
L 240.071468 -65.046008 
L 241.314822 -65.045184 
L 242.558175 -65.738399 
L 243.801529 -65.541719 
L 245.044882 -65.801707 
L 246.288236 -65.674837 
L 247.531589 -66.283289 
L 248.774943 -65.770293 
L 250.018296 -66.606656 
L 251.26165 -65.817285 
L 252.505003 -63.813968 
L 253.748357 -65.851301 
L 254.99171 -65.323826 
L 256.235064 -66.493274 
L 257.478417 -66.279949 
L 258.721771 -67.380821 
L 259.965124 -65.452754 
L 261.208478 -68.221558 
L 262.451831 -68.029796 
L 263.695184 -66.310755 
L 264.938538 -69.831288 
L 266.181891 -67.666697 
L 267.425245 -66.933998 
L 268.668598 -70.114353 
L 269.911952 -70.49185 
L 271.155305 -70.804972 
L 272.398659 -75.592525 
L 273.642012 -77.610236 
L 274.885366 -88.113504 
L 276.128719 -90.815218 
L 277.372073 -90.268508 
L 278.615426 -86.685813 
L 279.85878 -92.138383 
L 281.102133 -86.323706 
L 282.345487 -95.648779 
L 283.58884 -99.536812 
L 284.832194 -83.516889 
L 286.075547 -85.076406 
L 287.318901 -91.764194 
L 288.562254 -85.610889 
L 289.805608 -84.996862 
L 291.048961 -88.881334 
L 292.292315 -91.215614 
L 293.535668 -88.603085 
L 294.779022 -91.232786 
L 296.022375 -92.670313 
L 297.265729 -95.238968 
L 298.509082 -87.426608 
L 299.752436 -92.636938 
L 300.995789 -90.042735 
L 302.239143 -95.290679 
L 303.482496 -92.740323 
L 304.72585 -92.850343 
L 305.969203 -88.833582 
L 307.212557 -90.097931 
L 308.45591 -83.66676 
L 309.699264 -95.285508 
L 310.942617 -87.339442 
L 312.185971 -90.125381 
L 313.429324 -91.619025 
L 314.672678 -90.241704 
L 315.916031 -90.216678 
L 317.159385 -88.846499 
L 318.402738 -87.580449 
L 319.646092 -95.317827 
L 320.889445 -88.657942 
L 322.132799 -92.679912 
L 323.376152 -91.391496 
L 324.619506 -95.144595 
L 325.862859 -92.557098 
L 327.106213 -93.369254 
L 327.106213 -99.306051 
L 327.106213 -99.306051 
L 325.862859 -99.273085 
L 324.619506 -99.371982 
L 323.376152 -99.240119 
L 322.132799 -99.536812 
L 320.889445 -98.152245 
L 319.646092 -99.503846 
L 318.402738 -98.049071 
L 317.159385 -98.190447 
L 315.916031 -99.47088 
L 314.672678 -99.503846 
L 313.429324 -99.536812 
L 312.185971 -99.47088 
L 310.942617 -97.987416 
L 309.699264 -99.569777 
L 308.45591 -95.89006 
L 307.212557 -99.437914 
L 305.969203 -98.213437 
L 304.72585 -99.569777 
L 303.482496 -99.536812 
L 302.239143 -99.503846 
L 300.995789 -99.273085 
L 299.752436 -99.371982 
L 298.509082 -97.856361 
L 297.265729 -99.437914 
L 296.022375 -99.47088 
L 294.779022 -99.339016 
L 293.535668 -98.031586 
L 292.292315 -99.207153 
L 291.048961 -98.218608 
L 289.805608 -96.728928 
L 288.562254 -96.939231 
L 287.318901 -99.536812 
L 286.075547 -96.187243 
L 284.832194 -95.680075 
L 283.58884 -99.701641 
L 282.345487 -99.701641 
L 281.102133 -97.015246 
L 279.85878 -99.701641 
L 278.615426 -97.076869 
L 277.372073 -98.834833 
L 276.128719 -98.834833 
L 274.885366 -97.614665 
L 273.642012 -89.683875 
L 272.398659 -87.74412 
L 271.155305 -80.330614 
L 269.911952 -76.720637 
L 268.668598 -73.646996 
L 267.425245 -70.284547 
L 266.181891 -70.532255 
L 264.938538 -71.037931 
L 263.695184 -69.587944 
L 262.451831 -69.980437 
L 261.208478 -69.581211 
L 259.965124 -68.795616 
L 258.721771 -69.362327 
L 257.478417 -68.88972 
L 256.235064 -68.805856 
L 254.99171 -68.518256 
L 253.748357 -68.838267 
L 252.505003 -67.35705 
L 251.26165 -68.688089 
L 250.018296 -68.685617 
L 248.774943 -68.42447 
L 247.531589 -68.401739 
L 246.288236 -67.800015 
L 245.044882 -67.807061 
L 243.801529 -67.677567 
L 242.558175 -67.667871 
L 241.314822 -67.41858 
L 240.071468 -67.437972 
L 238.828115 -67.437972 
L 237.584761 -67.447022 
L 236.341408 -67.428276 
L 235.098054 -67.447453 
L 233.854701 -66.276933 
L 232.611347 -65.221454 
L 231.367994 -63.019965 
L 230.12464 -60.858756 
L 228.881287 -60.1068 
L 227.637933 -59.536082 
L 226.39458 -59.547113 
L 225.151226 -59.53355 
L 223.907873 -59.54944 
L 222.664519 -59.540822 
L 221.421166 -59.54922 
L 220.177812 -59.527889 
L 218.934459 -59.347137 
L 217.691105 -59.505761 
L 216.447752 -59.522502 
L 215.204398 -59.528104 
L 213.961045 -59.533706 
L 212.717691 -59.539308 
L 211.474338 -59.528966 
L 210.230984 -59.530259 
L 208.987631 -59.519486 
L 207.744277 -59.524441 
L 206.500924 -59.422748 
L 205.25757 -59.514099 
L 204.014217 -59.474265 
L 202.770863 -59.479851 
L 201.52751 -59.508071 
L 200.284156 -59.5169 
L 199.040803 -59.508497 
L 197.797449 -59.511298 
L 196.554096 -59.497293 
L 195.310742 -59.502895 
L 194.067389 -59.505696 
L 192.824035 -59.497293 
L 191.580682 -59.505696 
L 190.337328 -59.491761 
L 189.093975 -59.497293 
L 187.850621 -59.48889 
L 186.607268 -59.486089 
L 185.363914 -59.48889 
L 184.120561 -59.48889 
L 182.877207 -59.502895 
L 181.633854 -59.500094 
L 180.3905 -59.407687 
L 179.147147 -59.48889 
L 177.903793 -59.491691 
L 176.66044 -59.477713 
L 175.417086 -59.4542 
L 174.173733 -59.449309 
L 172.930379 -59.483288 
L 171.687026 -59.497293 
L 170.443672 -59.409001 
L 169.200319 -59.483288 
L 167.956965 -59.480487 
L 166.713612 -59.486089 
L 165.470258 -59.483288 
L 164.226905 -59.466482 
L 162.983551 -59.149977 
L 161.740198 -58.196267 
L 160.496844 -57.550858 
L 159.253491 -57.290309 
L 158.010137 -57.091216 
L 156.766784 -57.091862 
L 155.52343 -57.090785 
L 154.280077 -57.09079 
L 153.036723 -57.095746 
L 151.79337 -57.086696 
L 150.550016 -57.089928 
L 149.306663 -57.093801 
L 148.063309 -57.09294 
L 146.819956 -57.09337 
L 145.576602 -57.096613 
L 144.333249 -57.093155 
L 143.089896 -57.093801 
L 141.846542 -57.072471 
L 140.603189 -57.094663 
L 139.359835 -57.095741 
L 138.116482 -57.094879 
L 136.873128 -57.096608 
L 135.629775 -57.090138 
L 134.386421 -57.093155 
L 133.143068 -57.095956 
L 131.899714 -57.096387 
L 130.656361 -57.095525 
L 129.413007 -57.099834 
L 128.169654 -57.100265 
L 126.9263 -57.100481 
L 125.682947 -57.085204 
L 124.439593 -57.082624 
L 123.19624 -57.083244 
L 121.952886 -57.100696 
L 120.709533 -57.104364 
L 119.466179 -57.101989 
L 118.222826 -57.09274 
L 116.979472 -57.075719 
L 115.736119 -57.0602 
L 114.492765 -57.047725 
L 113.249412 -57.059327 
L 112.006058 -57.068167 
L 110.762705 -57.068167 
L 109.519351 -57.067089 
L 108.275998 -57.067515 
L 107.032644 -57.046195 
L 105.789291 -57.047708 
L 104.545937 -57.062796 
L 103.302584 -57.071399 
L 102.05923 -57.010423 
L 100.815877 -57.000096 
L 99.572523 -56.992965 
L 98.32917 -56.997705 
L 97.085816 -56.990169 
L 95.842463 -56.958297 
L 94.599109 -56.928767 
L 93.355756 -56.939982 
L 92.112402 -56.91605 
L 90.869049 -56.924016 
L 89.625695 -56.878554 
L 88.382342 -56.854018 
L 87.138988 -56.833743 
L 85.895635 -56.834206 
L 84.652281 -56.803357 
L 83.408928 -56.696062 
L 82.165574 -56.542873 
L 80.922221 -56.473483 
L 79.678867 -56.455169 
z
" style="stroke: #edd1cb; stroke-opacity: 0.2"/>
    </defs>
    <g clip-path="url(#p7487904832)">
     <use xlink:href="#m578da6899a" x="0" y="362.097812" style="fill: #edd1cb; fill-opacity: 0.2; stroke: #edd1cb; stroke-opacity: 0.2"/>
    </g>
   </g>
   <g id="PolyCollection_2">
    <defs>
     <path id="me1320fb2b9" d="M 79.678867 -56.501709 
L 79.678867 -56.451937 
L 80.922221 -56.79323 
L 82.165574 -56.843207 
L 83.408928 -56.872736 
L 84.652281 -56.848373 
L 85.895635 -56.894282 
L 87.138988 -56.86088 
L 88.382342 -56.832208 
L 89.625695 -56.967324 
L 90.869049 -56.895785 
L 92.112402 -56.871012 
L 93.355756 -56.902459 
L 94.599109 -56.97012 
L 95.842463 -56.866703 
L 97.085816 -56.894056 
L 98.32917 -56.900962 
L 99.572523 -56.900736 
L 100.815877 -56.966247 
L 102.05923 -56.866245 
L 103.302584 -56.920133 
L 104.545937 -56.967755 
L 105.789291 -56.867543 
L 107.032644 -56.868416 
L 108.275998 -56.970987 
L 109.519351 -56.897294 
L 110.762705 -56.876394 
L 112.006058 -56.968186 
L 113.249412 -56.969695 
L 114.492765 -56.871007 
L 115.736119 -56.844063 
L 116.979472 -56.909365 
L 118.222826 -56.874885 
L 119.466179 -56.913443 
L 120.709533 -56.90783 
L 121.952886 -56.881786 
L 123.19624 -56.892553 
L 124.439593 -56.867333 
L 125.682947 -56.897083 
L 126.9263 -56.838903 
L 128.169654 -56.914945 
L 129.413007 -56.828518 
L 130.656361 -56.889101 
L 131.899714 -56.885012 
L 133.143068 -56.980899 
L 134.386421 -56.890361 
L 135.629775 -56.930674 
L 136.873128 -56.937154 
L 138.116482 -56.918845 
L 139.359835 -56.94427 
L 140.603189 -56.868858 
L 141.846542 -56.990595 
L 143.089896 -56.882427 
L 144.333249 -56.957839 
L 145.576602 -56.912591 
L 146.819956 -56.910873 
L 148.063309 -56.858726 
L 149.306663 -56.906758 
L 150.550016 -56.983048 
L 151.79337 -56.903968 
L 153.036723 -56.842345 
L 154.280077 -56.900719 
L 155.52343 -56.953734 
L 156.766784 -56.985208 
L 158.010137 -56.89362 
L 159.253491 -56.918193 
L 160.496844 -56.910862 
L 161.740198 -56.893841 
L 162.983551 -56.892984 
L 164.226905 -56.882852 
L 165.470258 -56.88415 
L 166.713612 -56.902244 
L 167.956965 -56.945557 
L 169.200319 -56.900746 
L 170.443672 -56.928757 
L 171.687026 -56.950513 
L 172.930379 -56.946188 
L 174.173733 -56.917768 
L 175.417086 -56.8654 
L 176.66044 -56.994904 
L 177.903793 -56.873162 
L 179.147147 -56.951165 
L 180.3905 -56.952021 
L 181.633854 -56.866913 
L 182.877207 -56.947717 
L 184.120561 -56.886957 
L 185.363914 -56.866057 
L 186.607268 -56.898872 
L 187.850621 -56.949867 
L 189.093975 -56.822307 
L 190.337328 -56.959352 
L 191.580682 -56.884797 
L 192.824035 -57.0005 
L 194.067389 -57.001147 
L 195.310742 -56.954607 
L 196.554096 -56.881349 
L 197.797449 -56.949436 
L 199.040803 -56.965601 
L 200.284156 -56.900714 
L 201.52751 -56.963225 
L 202.770863 -57.001152 
L 204.014217 -56.929608 
L 205.25757 -56.871659 
L 206.500924 -56.925956 
L 207.744277 -56.963926 
L 208.987631 -56.967109 
L 210.230984 -56.897924 
L 211.474338 -57.0046 
L 212.717691 -56.921425 
L 213.961045 -57.003307 
L 215.204398 -56.920779 
L 216.447752 -56.89209 
L 217.691105 -56.899879 
L 218.934459 -56.954828 
L 220.177812 -56.83566 
L 221.421166 -56.999639 
L 222.664519 -56.998567 
L 223.907873 -56.951973 
L 225.151226 -56.944916 
L 226.39458 -56.930227 
L 227.637933 -56.92658 
L 228.881287 -56.811755 
L 230.12464 -56.870996 
L 231.367994 -56.908929 
L 232.611347 -56.928541 
L 233.854701 -56.975297 
L 235.098054 -56.954133 
L 236.341408 -56.9031 
L 237.584761 -57.005461 
L 238.828115 -56.962579 
L 240.071468 -56.956966 
L 241.314822 -56.926381 
L 242.558175 -56.869714 
L 243.801529 -56.930265 
L 245.044882 -57.006108 
L 246.288236 -56.98628 
L 247.531589 -56.921851 
L 248.774943 -56.964308 
L 250.018296 -56.98628 
L 251.26165 -57.010202 
L 252.505003 -56.92616 
L 253.748357 -56.897493 
L 254.99171 -56.969264 
L 256.235064 -56.971413 
L 257.478417 -56.946855 
L 258.721771 -56.961502 
L 259.965124 -56.895995 
L 261.208478 -56.954612 
L 262.451831 -56.972706 
L 263.695184 -56.960214 
L 264.938538 -56.892101 
L 266.181891 -56.96043 
L 267.425245 -56.886951 
L 268.668598 -56.880272 
L 269.911952 -56.879841 
L 271.155305 -56.914741 
L 272.398659 -56.962363 
L 273.642012 -56.965601 
L 274.885366 -56.910862 
L 276.128719 -56.910868 
L 277.372073 -56.887156 
L 278.615426 -56.929618 
L 279.85878 -56.930259 
L 281.102133 -57.002644 
L 282.345487 -56.96043 
L 283.58884 -56.900315 
L 284.832194 -56.926386 
L 286.075547 -56.883698 
L 287.318901 -56.953099 
L 288.562254 -56.994209 
L 289.805608 -56.933276 
L 291.048961 -56.969479 
L 292.292315 -56.97012 
L 293.535668 -56.931552 
L 294.779022 -57.013649 
L 296.022375 -56.965595 
L 297.265729 -56.927464 
L 298.509082 -56.897514 
L 299.752436 -56.896001 
L 300.995789 -56.938021 
L 302.239143 -56.919707 
L 303.482496 -56.911078 
L 304.72585 -56.966021 
L 305.969203 -56.966673 
L 307.212557 -56.91731 
L 308.45591 -56.946629 
L 309.699264 -56.936077 
L 310.942617 -56.937558 
L 312.185971 -56.887598 
L 313.429324 -56.846633 
L 314.672678 -57.017743 
L 315.916031 -56.949646 
L 317.159385 -56.936077 
L 318.402738 -56.949856 
L 319.646092 -56.97486 
L 320.889445 -56.8932 
L 322.132799 -56.932613 
L 323.376152 -56.939524 
L 324.619506 -57.036914 
L 325.862859 -57.013865 
L 327.106213 -56.955016 
L 327.106213 -57.085915 
L 327.106213 -57.085915 
L 325.862859 -57.091 
L 324.619506 -57.090569 
L 323.376152 -57.051371 
L 322.132799 -57.058686 
L 320.889445 -57.030466 
L 319.646092 -57.069675 
L 318.402738 -57.063642 
L 317.159385 -57.049233 
L 315.916031 -57.037781 
L 314.672678 -57.0492 
L 313.429324 -56.989523 
L 312.185971 -57.011516 
L 310.942617 -57.035847 
L 309.699264 -57.017969 
L 308.45591 -57.034339 
L 307.212557 -57.022914 
L 305.969203 -57.017743 
L 304.72585 -57.017743 
L 303.482496 -57.014295 
L 302.239143 -57.015588 
L 300.995789 -57.017096 
L 299.752436 -57.014726 
L 298.509082 -57.015163 
L 297.265729 -57.018174 
L 296.022375 -57.018389 
L 294.779022 -57.018605 
L 293.535668 -57.018605 
L 292.292315 -57.018605 
L 291.048961 -57.018174 
L 289.805608 -57.016235 
L 288.562254 -57.017527 
L 287.318901 -57.01645 
L 286.075547 -56.999003 
L 284.832194 -57.016019 
L 283.58884 -57.017527 
L 282.345487 -57.016666 
L 281.102133 -57.016666 
L 279.85878 -57.014516 
L 278.615426 -57.013649 
L 277.372073 -57.000727 
L 276.128719 -57.008909 
L 274.885366 -57.012362 
L 273.642012 -57.017317 
L 272.398659 -57.017748 
L 271.155305 -57.016881 
L 269.911952 -56.999859 
L 268.668598 -56.997926 
L 267.425245 -56.999213 
L 266.181891 -57.016671 
L 264.938538 -57.002235 
L 263.695184 -57.016666 
L 262.451831 -57.016666 
L 261.208478 -57.014732 
L 259.965124 -57.005262 
L 258.721771 -57.015373 
L 257.478417 -57.015588 
L 256.235064 -57.016019 
L 254.99171 -57.017096 
L 253.748357 -57.014947 
L 252.505003 -57.014085 
L 251.26165 -57.016881 
L 250.018296 -57.013649 
L 248.774943 -57.013003 
L 247.531589 -57.011494 
L 246.288236 -57.012356 
L 245.044882 -57.013003 
L 243.801529 -57.011715 
L 242.558175 -56.993185 
L 241.314822 -57.010638 
L 240.071468 -57.014085 
L 238.828115 -57.014295 
L 237.584761 -57.01408 
L 236.341408 -57.009555 
L 235.098054 -57.012356 
L 233.854701 -57.014511 
L 232.611347 -57.013218 
L 231.367994 -57.011074 
L 230.12464 -56.993837 
L 228.881287 -56.962374 
L 227.637933 -57.00934 
L 226.39458 -57.022273 
L 225.151226 -57.008268 
L 223.907873 -57.008262 
L 222.664519 -57.005682 
L 221.421166 -57.006323 
L 220.177812 -56.971849 
L 218.934459 -57.024891 
L 217.691105 -56.995981 
L 216.447752 -56.999224 
L 215.204398 -57.006323 
L 213.961045 -57.011279 
L 212.717691 -57.009776 
L 211.474338 -57.012572 
L 210.230984 -57.007411 
L 208.987631 -57.010848 
L 207.744277 -57.009555 
L 206.500924 -57.008909 
L 205.25757 -56.989523 
L 204.014217 -57.005677 
L 202.770863 -57.005461 
L 201.52751 -57.005461 
L 200.284156 -57.004384 
L 199.040803 -57.0046 
L 197.797449 -57.003307 
L 196.554096 -56.988876 
L 195.310742 -57.005892 
L 194.067389 -57.007832 
L 192.824035 -57.008483 
L 191.580682 -56.991456 
L 190.337328 -57.002666 
L 189.093975 -56.964335 
L 187.850621 -57.003091 
L 186.607268 -56.998141 
L 185.363914 -56.983274 
L 184.120561 -56.997279 
L 182.877207 -56.999644 
L 181.633854 -56.982197 
L 180.3905 -57.000075 
L 179.147147 -57.000075 
L 177.903793 -56.983926 
L 176.66044 -57.003522 
L 175.417086 -56.985423 
L 174.173733 -57.000721 
L 172.930379 -57.001373 
L 171.687026 -57.00029 
L 170.443672 -56.999859 
L 169.200319 -56.999644 
L 167.956965 -57.001589 
L 166.713612 -56.997058 
L 165.470258 -56.997489 
L 164.226905 -56.997505 
L 162.983551 -56.997489 
L 161.740198 -56.993832 
L 160.496844 -56.995771 
L 159.253491 -56.996627 
L 158.010137 -56.991693 
L 156.766784 -57.000937 
L 155.52343 -56.998782 
L 154.280077 -56.99318 
L 153.036723 -56.970341 
L 151.79337 -56.98844 
L 150.550016 -56.999213 
L 149.306663 -56.994473 
L 148.063309 -56.978545 
L 146.819956 -56.997058 
L 145.576602 -56.997926 
L 144.333249 -57.003953 
L 143.089896 -56.999434 
L 141.846542 -57.00266 
L 140.603189 -56.980042 
L 139.359835 -57.00029 
L 138.116482 -56.998141 
L 136.873128 -56.996412 
L 135.629775 -56.993826 
L 134.386421 -56.989517 
L 133.143068 -56.996197 
L 131.899714 -56.989523 
L 130.656361 -56.988655 
L 129.413007 -56.964965 
L 128.169654 -56.989948 
L 126.9263 -56.962401 
L 125.682947 -56.984788 
L 124.439593 -56.978098 
L 123.19624 -56.985434 
L 121.952886 -56.982412 
L 120.709533 -56.989302 
L 119.466179 -56.992539 
L 118.222826 -56.984782 
L 116.979472 -56.98349 
L 115.736119 -56.965601 
L 114.492765 -56.97918 
L 113.249412 -56.98133 
L 112.006058 -56.980037 
L 110.762705 -56.972286 
L 109.519351 -56.979396 
L 108.275998 -56.986291 
L 107.032644 -56.971849 
L 105.789291 -56.972937 
L 104.545937 -56.979611 
L 103.302584 -56.975948 
L 102.05923 -56.96991 
L 100.815877 -56.976595 
L 99.572523 -56.974004 
L 98.32917 -56.972711 
L 97.085816 -56.980258 
L 95.842463 -56.975302 
L 94.599109 -56.981976 
L 93.355756 -56.977882 
L 92.112402 -56.972932 
L 90.869049 -56.975512 
L 89.625695 -56.976589 
L 88.382342 -56.952689 
L 87.138988 -56.968623 
L 85.895635 -56.970341 
L 84.652281 -56.952888 
L 83.408928 -56.96754 
L 82.165574 -56.953109 
L 80.922221 -56.935651 
L 79.678867 -56.501709 
z
" style="stroke: #d499a7; stroke-opacity: 0.2"/>
    </defs>
    <g clip-path="url(#p7487904832)">
     <use xlink:href="#me1320fb2b9" x="0" y="362.097812" style="fill: #d499a7; fill-opacity: 0.2; stroke: #d499a7; stroke-opacity: 0.2"/>
    </g>
   </g>
   <g id="PolyCollection_3">
    <defs>
     <path id="m3a886f559c" d="M 79.678867 -56.458616 
L 79.678867 -56.453445 
L 80.922221 -56.457754 
L 82.165574 -56.462279 
L 83.408928 -56.469599 
L 84.652281 -56.485764 
L 85.895635 -56.511825 
L 87.138988 -57.634598 
L 88.382342 -59.508874 
L 89.625695 -59.365349 
L 90.869049 -59.482534 
L 92.112402 -59.029732 
L 93.355756 -59.233776 
L 94.599109 -59.461978 
L 95.842463 -59.950396 
L 97.085816 -60.240091 
L 98.32917 -60.992984 
L 99.572523 -62.737487 
L 100.815877 -62.192856 
L 102.05923 -62.810642 
L 103.302584 -63.407195 
L 104.545937 -61.303456 
L 105.789291 -62.559509 
L 107.032644 -61.956288 
L 108.275998 -62.125717 
L 109.519351 -62.239379 
L 110.762705 -62.858949 
L 112.006058 -63.313684 
L 113.249412 -62.16268 
L 114.492765 -62.364876 
L 115.736119 -62.949858 
L 116.979472 -62.185163 
L 118.222826 -62.125992 
L 119.466179 -62.583323 
L 120.709533 -63.36567 
L 121.952886 -63.483695 
L 123.19624 -62.868613 
L 124.439593 -64.508664 
L 125.682947 -63.813828 
L 126.9263 -65.678586 
L 128.169654 -64.092147 
L 129.413007 -65.907834 
L 130.656361 -66.490575 
L 131.899714 -66.571735 
L 133.143068 -65.851248 
L 134.386421 -66.485178 
L 135.629775 -67.504981 
L 136.873128 -68.193601 
L 138.116482 -66.197281 
L 139.359835 -67.082156 
L 140.603189 -66.17957 
L 141.846542 -66.688936 
L 143.089896 -67.349244 
L 144.333249 -65.386327 
L 145.576602 -66.749966 
L 146.819956 -66.853421 
L 148.063309 -65.493406 
L 149.306663 -65.794764 
L 150.550016 -65.261272 
L 151.79337 -67.257414 
L 153.036723 -67.482788 
L 154.280077 -65.694487 
L 155.52343 -65.87566 
L 156.766784 -64.202852 
L 158.010137 -66.350476 
L 159.253491 -67.439804 
L 160.496844 -66.018862 
L 161.740198 -66.454814 
L 162.983551 -67.200532 
L 164.226905 -66.486578 
L 165.470258 -65.610538 
L 166.713612 -68.309521 
L 167.956965 -66.002837 
L 169.200319 -65.643326 
L 170.443672 -65.578956 
L 171.687026 -65.386763 
L 172.930379 -65.532254 
L 174.173733 -66.43881 
L 175.417086 -67.13042 
L 176.66044 -65.194958 
L 177.903793 -67.519331 
L 179.147147 -66.299664 
L 180.3905 -66.578026 
L 181.633854 -67.332955 
L 182.877207 -66.062606 
L 184.120561 -66.031154 
L 185.363914 -66.21587 
L 186.607268 -65.388632 
L 187.850621 -64.218775 
L 189.093975 -66.076504 
L 190.337328 -66.036099 
L 191.580682 -68.619788 
L 192.824035 -67.478695 
L 194.067389 -67.506705 
L 195.310742 -66.738277 
L 196.554096 -66.951887 
L 197.797449 -65.37766 
L 199.040803 -68.599103 
L 200.284156 -66.812197 
L 201.52751 -67.545833 
L 202.770863 -66.748749 
L 204.014217 -66.21768 
L 205.25757 -66.473505 
L 206.500924 -66.310583 
L 207.744277 -65.609977 
L 208.987631 -67.375272 
L 210.230984 -65.348707 
L 211.474338 -64.963626 
L 212.717691 -67.299041 
L 213.961045 -67.404058 
L 215.204398 -67.484512 
L 216.447752 -66.312242 
L 217.691105 -67.657529 
L 218.934459 -66.931607 
L 220.177812 -67.666708 
L 221.421166 -67.499853 
L 222.664519 -66.909818 
L 223.907873 -66.334585 
L 225.151226 -66.573459 
L 226.39458 -66.550264 
L 227.637933 -68.402342 
L 228.881287 -66.282416 
L 230.12464 -65.297152 
L 231.367994 -65.954029 
L 232.611347 -66.75016 
L 233.854701 -66.874708 
L 235.098054 -65.839381 
L 236.341408 -66.903758 
L 237.584761 -66.617041 
L 238.828115 -66.327362 
L 240.071468 -66.628833 
L 241.314822 -67.299041 
L 242.558175 -68.066392 
L 243.801529 -65.819978 
L 245.044882 -68.223249 
L 246.288236 -66.929447 
L 247.531589 -67.352767 
L 248.774943 -68.469739 
L 250.018296 -66.783934 
L 251.26165 -67.097303 
L 252.505003 -66.475067 
L 253.748357 -65.426554 
L 254.99171 -66.556372 
L 256.235064 -67.093834 
L 257.478417 -66.652059 
L 258.721771 -66.078874 
L 259.965124 -67.223759 
L 261.208478 -66.30636 
L 262.451831 -65.186285 
L 263.695184 -68.149431 
L 264.938538 -66.524042 
L 266.181891 -66.961281 
L 267.425245 -66.911887 
L 268.668598 -65.365696 
L 269.911952 -65.207869 
L 271.155305 -68.698992 
L 272.398659 -67.657227 
L 273.642012 -65.422961 
L 274.885366 -65.807713 
L 276.128719 -68.562905 
L 277.372073 -65.840194 
L 278.615426 -66.496764 
L 279.85878 -67.063045 
L 281.102133 -66.825615 
L 282.345487 -67.743844 
L 283.58884 -66.394296 
L 284.832194 -65.854 
L 286.075547 -65.968481 
L 287.318901 -68.373125 
L 288.562254 -67.726332 
L 289.805608 -68.11298 
L 291.048961 -70.688083 
L 292.292315 -74.070887 
L 293.535668 -74.822078 
L 294.779022 -75.961975 
L 296.022375 -79.958569 
L 297.265729 -74.906302 
L 298.509082 -79.287724 
L 299.752436 -76.956601 
L 300.995789 -80.547709 
L 302.239143 -80.769895 
L 303.482496 -78.967341 
L 304.72585 -83.212515 
L 305.969203 -84.490664 
L 307.212557 -79.503009 
L 308.45591 -78.982348 
L 309.699264 -80.79602 
L 310.942617 -80.456283 
L 312.185971 -80.083543 
L 313.429324 -80.75784 
L 314.672678 -76.929237 
L 315.916031 -79.846598 
L 317.159385 -76.081266 
L 318.402738 -76.852888 
L 319.646092 -79.275793 
L 320.889445 -78.478886 
L 322.132799 -78.972308 
L 323.376152 -83.240417 
L 324.619506 -77.581116 
L 325.862859 -81.908779 
L 327.106213 -81.517283 
L 327.106213 -86.121601 
L 327.106213 -86.121601 
L 325.862859 -86.032357 
L 324.619506 -84.3528 
L 323.376152 -85.664712 
L 322.132799 -84.730625 
L 320.889445 -84.781377 
L 319.646092 -85.240637 
L 318.402738 -83.743055 
L 317.159385 -83.013939 
L 315.916031 -85.238138 
L 314.672678 -84.3721 
L 313.429324 -85.751834 
L 312.185971 -84.874037 
L 310.942617 -85.484186 
L 309.699264 -85.636895 
L 308.45591 -85.054509 
L 307.212557 -85.243578 
L 305.969203 -86.085802 
L 304.72585 -86.08104 
L 303.482496 -84.471035 
L 302.239143 -84.216314 
L 300.995789 -83.871789 
L 299.752436 -82.52111 
L 298.509082 -82.732624 
L 297.265729 -81.025472 
L 296.022375 -82.408417 
L 294.779022 -81.184134 
L 293.535668 -80.153972 
L 292.292315 -78.885325 
L 291.048961 -75.612429 
L 289.805608 -73.658959 
L 288.562254 -72.916144 
L 287.318901 -71.819092 
L 286.075547 -69.929674 
L 284.832194 -69.844696 
L 283.58884 -69.889733 
L 282.345487 -70.113378 
L 281.102133 -68.861106 
L 279.85878 -68.902475 
L 278.615426 -68.881791 
L 277.372073 -68.513214 
L 276.128719 -68.89558 
L 274.885366 -68.511625 
L 273.642012 -68.434495 
L 272.398659 -68.823185 
L 271.155305 -68.805948 
L 269.911952 -68.370583 
L 268.668598 -68.34748 
L 267.425245 -68.826632 
L 266.181891 -68.83008 
L 264.938538 -68.599275 
L 263.695184 -68.792158 
L 262.451831 -68.037197 
L 261.208478 -68.359637 
L 259.965124 -68.662966 
L 258.721771 -68.543988 
L 257.478417 -68.632026 
L 256.235064 -68.635516 
L 254.99171 -68.535455 
L 253.748357 -68.20208 
L 252.505003 -68.54653 
L 251.26165 -68.690632 
L 250.018296 -68.712954 
L 248.774943 -68.8025 
L 247.531589 -68.72321 
L 246.288236 -68.733552 
L 245.044882 -68.743894 
L 243.801529 -68.348627 
L 242.558175 -68.675032 
L 241.314822 -68.719762 
L 240.071468 -68.6509 
L 238.828115 -68.565232 
L 237.584761 -68.63375 
L 236.341408 -68.747428 
L 235.098054 -68.378517 
L 233.854701 -68.706059 
L 232.611347 -68.668137 
L 231.367994 -68.34156 
L 230.12464 -68.046946 
L 228.881287 -68.358054 
L 227.637933 -68.764579 
L 226.39458 -68.72321 
L 225.151226 -68.757684 
L 223.907873 -68.623881 
L 222.664519 -68.66288 
L 221.421166 -68.812843 
L 220.177812 -68.809395 
L 218.934459 -68.771474 
L 217.691105 -68.812843 
L 216.447752 -68.605998 
L 215.204398 -68.768026 
L 213.961045 -68.774921 
L 212.717691 -68.740533 
L 211.474338 -67.904892 
L 210.230984 -68.140727 
L 208.987631 -68.72321 
L 207.744277 -68.354827 
L 206.500924 -68.611255 
L 205.25757 -68.566439 
L 204.014217 -68.566611 
L 202.770863 -68.661156 
L 201.52751 -68.685288 
L 200.284156 -68.647367 
L 199.040803 -68.695631 
L 197.797449 -67.997584 
L 196.554096 -68.619788 
L 195.310742 -68.637025 
L 194.067389 -68.650814 
L 192.824035 -68.664604 
L 191.580682 -68.678394 
L 190.337328 -68.314702 
L 189.093975 -68.5854 
L 187.850621 -67.337259 
L 186.607268 -68.097198 
L 185.363914 -68.399412 
L 184.120561 -68.464654 
L 182.877207 -68.550926 
L 181.633854 -68.681841 
L 180.3905 -68.588761 
L 179.147147 -68.485425 
L 177.903793 -68.681841 
L 176.66044 -68.068374 
L 175.417086 -68.657795 
L 174.173733 -68.485339 
L 172.930379 -68.117414 
L 171.687026 -67.966934 
L 170.443672 -68.278747 
L 169.200319 -68.227903 
L 167.956965 -68.526794 
L 166.713612 -68.626682 
L 165.470258 -68.238272 
L 164.226905 -68.512918 
L 162.983551 -68.595656 
L 161.740198 -68.516538 
L 160.496844 -68.353561 
L 159.253491 -68.637025 
L 158.010137 -68.43673 
L 156.766784 -67.554058 
L 155.52343 -68.32331 
L 154.280077 -68.27858 
L 153.036723 -68.664604 
L 151.79337 -68.650814 
L 150.550016 -68.251001 
L 149.306663 -68.329591 
L 148.063309 -68.270748 
L 146.819956 -68.650814 
L 145.576602 -68.637111 
L 144.333249 -68.261262 
L 143.089896 -68.664604 
L 141.846542 -68.626769 
L 140.603189 -68.561182 
L 139.359835 -68.561182 
L 138.116482 -68.554287 
L 136.873128 -68.671499 
L 135.629775 -68.674946 
L 134.386421 -68.661156 
L 133.143068 -68.368773 
L 131.899714 -68.67848 
L 130.656361 -68.688736 
L 129.413007 -68.110373 
L 128.169654 -67.263652 
L 126.9263 -67.79758 
L 125.682947 -66.758649 
L 124.439593 -66.758789 
L 123.19624 -65.20503 
L 121.952886 -65.308011 
L 120.709533 -65.41375 
L 119.466179 -64.548396 
L 118.222826 -64.081379 
L 116.979472 -64.009522 
L 115.736119 -64.25709 
L 114.492765 -63.957165 
L 113.249412 -63.721987 
L 112.006058 -63.98302 
L 110.762705 -63.974402 
L 109.519351 -63.756138 
L 108.275998 -63.741055 
L 107.032644 -63.565991 
L 105.789291 -63.935726 
L 104.545937 -63.263492 
L 103.302584 -63.944237 
L 102.05923 -63.909763 
L 100.815877 -63.591955 
L 99.572523 -63.798374 
L 98.32917 -62.666654 
L 97.085816 -61.850538 
L 95.842463 -61.401756 
L 94.599109 -60.740531 
L 93.355756 -60.283857 
L 92.112402 -60.022818 
L 90.869049 -59.985317 
L 89.625695 -59.978853 
L 88.382342 -59.983162 
L 87.138988 -58.807606 
L 85.895635 -56.873183 
L 84.652281 -56.523686 
L 83.408928 -56.485333 
L 82.165574 -56.474991 
L 80.922221 -56.465511 
L 79.678867 -56.458616 
z
" style="stroke: #a9678f; stroke-opacity: 0.2"/>
    </defs>
    <g clip-path="url(#p7487904832)">
     <use xlink:href="#m3a886f559c" x="0" y="362.097812" style="fill: #a9678f; fill-opacity: 0.2; stroke: #a9678f; stroke-opacity: 0.2"/>
    </g>
   </g>
   <g id="PolyCollection_4">
    <defs>
     <path id="m8829660798" d="M 79.678867 -56.845588 
L 79.678867 -56.452368 
L 80.922221 -59.446864 
L 82.165574 -59.738181 
L 83.408928 -59.890939 
L 84.652281 -59.965257 
L 85.895635 -59.829305 
L 87.138988 -60.55219 
L 88.382342 -59.741677 
L 89.625695 -60.599171 
L 90.869049 -59.976682 
L 92.112402 -59.946313 
L 93.355756 -59.940926 
L 94.599109 -60.129166 
L 95.842463 -59.919358 
L 97.085816 -60.135231 
L 98.32917 -60.542936 
L 99.572523 -60.109828 
L 100.815877 -60.144108 
L 102.05923 -59.919735 
L 103.302584 -60.169705 
L 104.545937 -60.422896 
L 105.789291 -60.382577 
L 107.032644 -59.949949 
L 108.275998 -60.082453 
L 109.519351 -60.182169 
L 110.762705 -60.173179 
L 112.006058 -60.179665 
L 113.249412 -60.072111 
L 114.492765 -60.305851 
L 115.736119 -60.32235 
L 116.979472 -60.694142 
L 118.222826 -60.549599 
L 119.466179 -60.316371 
L 120.709533 -60.259553 
L 121.952886 -60.567191 
L 123.19624 -60.079183 
L 124.439593 -59.62377 
L 125.682947 -60.552491 
L 126.9263 -60.788472 
L 128.169654 -60.744561 
L 129.413007 -60.558271 
L 130.656361 -60.728196 
L 131.899714 -60.455425 
L 133.143068 -60.178469 
L 134.386421 -60.66589 
L 135.629775 -61.057198 
L 136.873128 -61.055404 
L 138.116482 -60.242262 
L 139.359835 -60.895099 
L 140.603189 -60.894119 
L 141.846542 -60.936301 
L 143.089896 -60.729274 
L 144.333249 -61.058717 
L 145.576602 -61.500001 
L 146.819956 -60.688578 
L 148.063309 -61.434086 
L 149.306663 -60.839838 
L 150.550016 -60.762148 
L 151.79337 -60.659006 
L 153.036723 -60.825187 
L 154.280077 -60.501971 
L 155.52343 -61.57111 
L 156.766784 -61.569402 
L 158.010137 -60.795335 
L 159.253491 -60.475523 
L 160.496844 -60.732592 
L 161.740198 -60.727776 
L 162.983551 -60.941467 
L 164.226905 -61.514879 
L 165.470258 -60.981171 
L 166.713612 -60.778835 
L 167.956965 -60.582295 
L 169.200319 -61.067588 
L 170.443672 -60.677713 
L 171.687026 -60.548053 
L 172.930379 -60.818933 
L 174.173733 -60.850391 
L 175.417086 -61.61981 
L 176.66044 -61.075943 
L 177.903793 -61.172465 
L 179.147147 -61.535095 
L 180.3905 -60.550164 
L 181.633854 -61.259545 
L 182.877207 -61.517244 
L 184.120561 -60.897539 
L 185.363914 -61.08461 
L 186.607268 -61.088418 
L 187.850621 -60.594189 
L 189.093975 -61.120124 
L 190.337328 -61.040796 
L 191.580682 -61.316443 
L 192.824035 -61.211604 
L 194.067389 -61.239921 
L 195.310742 -60.963934 
L 196.554096 -61.03891 
L 197.797449 -61.376961 
L 199.040803 -61.409566 
L 200.284156 -61.498084 
L 201.52751 -61.509304 
L 202.770863 -60.952574 
L 204.014217 -61.213123 
L 205.25757 -61.629042 
L 206.500924 -61.064303 
L 207.744277 -61.538957 
L 208.987631 -62.189931 
L 210.230984 -61.38468 
L 211.474338 -61.388532 
L 212.717691 -61.215498 
L 213.961045 -61.620596 
L 215.204398 -62.154578 
L 216.447752 -61.752233 
L 217.691105 -61.559001 
L 218.934459 -61.147051 
L 220.177812 -61.106043 
L 221.421166 -61.548707 
L 222.664519 -61.500427 
L 223.907873 -61.378933 
L 225.151226 -62.250686 
L 226.39458 -61.823638 
L 227.637933 -61.03243 
L 228.881287 -61.697156 
L 230.12464 -61.475665 
L 231.367994 -61.584194 
L 232.611347 -61.820794 
L 233.854701 -61.336853 
L 235.098054 -61.40439 
L 236.341408 -61.077176 
L 237.584761 -61.699073 
L 238.828115 -61.672167 
L 240.071468 -61.604086 
L 241.314822 -61.253334 
L 242.558175 -61.282152 
L 243.801529 -61.410719 
L 245.044882 -61.794243 
L 246.288236 -61.44501 
L 247.531589 -61.12704 
L 248.774943 -61.104395 
L 250.018296 -61.523891 
L 251.26165 -60.982233 
L 252.505003 -61.063015 
L 253.748357 -62.158667 
L 254.99171 -61.931337 
L 256.235064 -61.68433 
L 257.478417 -62.242471 
L 258.721771 -62.051894 
L 259.965124 -60.959792 
L 261.208478 -61.466168 
L 262.451831 -61.419914 
L 263.695184 -61.417037 
L 264.938538 -61.657085 
L 266.181891 -62.256929 
L 267.425245 -61.824252 
L 268.668598 -61.47866 
L 269.911952 -61.823843 
L 271.155305 -62.206721 
L 272.398659 -62.309297 
L 273.642012 -61.673681 
L 274.885366 -61.857035 
L 276.128719 -61.348326 
L 277.372073 -61.875134 
L 278.615426 -62.322645 
L 279.85878 -62.439442 
L 281.102133 -62.454083 
L 282.345487 -61.892123 
L 283.58884 -61.515913 
L 284.832194 -61.158374 
L 286.075547 -61.769977 
L 287.318901 -61.646069 
L 288.562254 -62.344148 
L 289.805608 -62.349142 
L 291.048961 -61.509256 
L 292.292315 -61.174916 
L 293.535668 -62.215312 
L 294.779022 -61.679854 
L 296.022375 -61.658264 
L 297.265729 -61.808308 
L 298.509082 -61.448263 
L 299.752436 -60.712193 
L 300.995789 -62.056974 
L 302.239143 -61.226299 
L 303.482496 -61.202635 
L 304.72585 -61.306268 
L 305.969203 -61.462441 
L 307.212557 -60.732301 
L 308.45591 -61.627362 
L 309.699264 -61.984319 
L 310.942617 -61.576011 
L 312.185971 -61.941286 
L 313.429324 -61.274218 
L 314.672678 -61.45073 
L 315.916031 -62.010606 
L 317.159385 -61.956525 
L 318.402738 -61.926796 
L 319.646092 -61.770214 
L 320.889445 -61.820627 
L 322.132799 -61.817152 
L 323.376152 -62.320076 
L 324.619506 -61.878112 
L 325.862859 -61.045832 
L 327.106213 -61.84053 
L 327.106213 -62.479745 
L 327.106213 -62.479745 
L 325.862859 -62.310445 
L 324.619506 -62.49375 
L 323.376152 -62.499589 
L 322.132799 -62.488789 
L 320.889445 -62.476944 
L 319.646092 -62.456475 
L 318.402738 -62.406493 
L 317.159385 -62.405835 
L 315.916031 -62.395062 
L 314.672678 -62.352853 
L 313.429324 -62.337652 
L 312.185971 -62.376155 
L 310.942617 -62.323836 
L 309.699264 -62.373322 
L 308.45591 -62.366621 
L 307.212557 -62.070402 
L 305.969203 -62.359096 
L 304.72585 -62.322904 
L 303.482496 -62.304428 
L 302.239143 -62.282806 
L 300.995789 -62.409924 
L 299.752436 -62.078342 
L 298.509082 -62.409929 
L 297.265729 -62.430194 
L 296.022375 -62.386912 
L 294.779022 -62.348646 
L 293.535668 -62.413598 
L 292.292315 -62.369077 
L 291.048961 -62.449591 
L 289.805608 -62.505175 
L 288.562254 -62.513998 
L 287.318901 -62.43411 
L 286.075547 -62.465314 
L 284.832194 -62.44902 
L 283.58884 -62.467032 
L 282.345487 -62.495463 
L 281.102133 -62.515285 
L 279.85878 -62.504954 
L 278.615426 -62.480811 
L 277.372073 -62.474358 
L 276.128719 -62.449364 
L 274.885366 -62.460127 
L 273.642012 -62.438171 
L 272.398659 -62.457541 
L 271.155305 -62.451088 
L 269.911952 -62.404968 
L 268.668598 -62.4291 
L 267.425245 -62.438182 
L 266.181891 -62.418343 
L 264.938538 -62.37308 
L 263.695184 -62.352212 
L 262.451831 -62.375665 
L 261.208478 -62.409504 
L 259.965124 -62.254182 
L 258.721771 -62.377179 
L 257.478417 -62.445292 
L 256.235064 -62.384968 
L 254.99171 -62.37301 
L 253.748357 -62.391615 
L 252.505003 -62.300522 
L 251.26165 -62.217952 
L 250.018296 -62.352228 
L 248.774943 -62.333962 
L 247.531589 -62.276768 
L 246.288236 -62.424575 
L 245.044882 -62.454972 
L 243.801529 -62.412736 
L 242.558175 -62.255938 
L 241.314822 -62.286086 
L 240.071468 -62.338875 
L 238.828115 -62.336672 
L 237.584761 -62.392514 
L 236.341408 -62.299445 
L 235.098054 -62.383896 
L 233.854701 -62.320119 
L 232.611347 -62.284314 
L 231.367994 -62.274408 
L 230.12464 -62.305887 
L 228.881287 -62.364515 
L 227.637933 -62.249953 
L 226.39458 -62.476545 
L 225.151226 -62.479982 
L 223.907873 -62.360163 
L 222.664519 -62.33497 
L 221.421166 -62.338654 
L 220.177812 -62.214073 
L 218.934459 -62.232167 
L 217.691105 -62.323566 
L 216.447752 -62.33435 
L 215.204398 -62.386503 
L 213.961045 -62.328274 
L 212.717691 -62.23347 
L 211.474338 -62.352923 
L 210.230984 -62.387952 
L 208.987631 -62.418796 
L 207.744277 -62.283883 
L 206.500924 -62.199061 
L 205.25757 -62.316661 
L 204.014217 -62.179594 
L 202.770863 -62.12402 
L 201.52751 -62.256336 
L 200.284156 -62.262983 
L 199.040803 -62.167323 
L 197.797449 -62.082027 
L 196.554096 -62.014641 
L 195.310742 -61.9575 
L 194.067389 -62.152268 
L 192.824035 -62.084612 
L 191.580682 -62.150802 
L 190.337328 -62.042807 
L 189.093975 -61.988521 
L 187.850621 -61.73874 
L 186.607268 -61.805824 
L 185.363914 -61.833614 
L 184.120561 -61.779285 
L 182.877207 -61.848222 
L 181.633854 -61.799107 
L 180.3905 -61.664459 
L 179.147147 -61.770876 
L 177.903793 -61.75859 
L 176.66044 -61.749976 
L 175.417086 -61.717641 
L 174.173733 -61.711398 
L 172.930379 -61.654171 
L 171.687026 -61.61877 
L 170.443672 -61.584323 
L 169.200319 -61.633395 
L 167.956965 -61.583041 
L 166.713612 -61.607755 
L 165.470258 -61.612091 
L 164.226905 -61.626085 
L 162.983551 -61.621162 
L 161.740198 -61.623333 
L 160.496844 -61.6389 
L 159.253491 -61.546154 
L 158.010137 -61.63556 
L 156.766784 -61.679078 
L 155.52343 -61.657747 
L 154.280077 -61.553032 
L 153.036723 -61.658173 
L 151.79337 -61.605196 
L 150.550016 -61.632549 
L 149.306663 -61.593588 
L 148.063309 -61.629096 
L 146.819956 -61.548098 
L 145.576602 -61.658184 
L 144.333249 -61.629737 
L 143.089896 -61.58623 
L 141.846542 -61.574417 
L 140.603189 -61.574805 
L 139.359835 -61.502862 
L 138.116482 -61.245394 
L 136.873128 -61.455244 
L 135.629775 -61.455056 
L 134.386421 -61.385849 
L 133.143068 -61.274244 
L 131.899714 -61.378512 
L 130.656361 -61.461676 
L 129.413007 -61.449621 
L 128.169654 -61.445952 
L 126.9263 -61.489525 
L 125.682947 -61.420598 
L 124.439593 -60.882198 
L 123.19624 -61.101712 
L 121.952886 -61.244494 
L 120.709533 -61.13784 
L 119.466179 -60.995263 
L 118.222826 -60.930802 
L 116.979472 -61.057521 
L 115.736119 -60.903535 
L 114.492765 -60.884719 
L 113.249412 -60.572476 
L 112.006058 -60.779568 
L 110.762705 -60.722422 
L 109.519351 -60.715209 
L 108.275998 -60.590774 
L 107.032644 -60.672892 
L 105.789291 -60.587574 
L 104.545937 -60.601547 
L 103.302584 -60.612105 
L 102.05923 -60.610623 
L 100.815877 -60.597663 
L 99.572523 -60.588183 
L 98.32917 -60.610591 
L 97.085816 -60.603077 
L 95.842463 -60.580017 
L 94.599109 -60.599818 
L 93.355756 -60.594453 
L 92.112402 -60.606077 
L 90.869049 -60.613392 
L 89.625695 -60.621795 
L 88.382342 -60.498653 
L 87.138988 -60.616193 
L 85.895635 -60.609966 
L 84.652281 -60.618132 
L 83.408928 -60.620071 
L 82.165574 -60.621364 
L 80.922221 -60.491655 
L 79.678867 -56.845588 
z
" style="stroke: #6c3f70; stroke-opacity: 0.2"/>
    </defs>
    <g clip-path="url(#p7487904832)">
     <use xlink:href="#m8829660798" x="0" y="362.097812" style="fill: #6c3f70; fill-opacity: 0.2; stroke: #6c3f70; stroke-opacity: 0.2"/>
    </g>
   </g>
   <g id="PolyCollection_5">
    <defs>
     <path id="mf2345a7d4e" d="M 79.678867 -56.465511 
L 79.678867 -56.452583 
L 80.922221 -56.484472 
L 82.165574 -56.531227 
L 83.408928 -56.565049 
L 84.652281 -56.621926 
L 85.895635 -56.950034 
L 87.138988 -57.813793 
L 88.382342 -60.096334 
L 89.625695 -61.552758 
L 90.869049 -71.441805 
L 92.112402 -88.769412 
L 93.355756 -105.114695 
L 94.599109 -110.428043 
L 95.842463 -103.531407 
L 97.085816 -103.284782 
L 98.32917 -106.722282 
L 99.572523 -99.268872 
L 100.815877 -106.823124 
L 102.05923 -106.736702 
L 103.302584 -115.818285 
L 104.545937 -112.132885 
L 105.789291 -110.258689 
L 107.032644 -106.670964 
L 108.275998 -104.762348 
L 109.519351 -104.691735 
L 110.762705 -101.015379 
L 112.006058 -110.148157 
L 113.249412 -104.591518 
L 114.492765 -99.24655 
L 115.736119 -102.822749 
L 116.979472 -106.582279 
L 118.222826 -98.916935 
L 119.466179 -106.471294 
L 120.709533 -92.089839 
L 121.952886 -101.06423 
L 123.19624 -99.530073 
L 124.439593 -106.92437 
L 125.682947 -99.287526 
L 126.9263 -96.343039 
L 128.169654 -107.183599 
L 129.413007 -110.681617 
L 130.656361 -108.19508 
L 131.899714 -103.429369 
L 133.143068 -99.588442 
L 134.386421 -101.430086 
L 135.629775 -107.194001 
L 136.873128 -104.579571 
L 138.116482 -110.184785 
L 139.359835 -115.532581 
L 140.603189 -109.970184 
L 141.846542 -107.73421 
L 143.089896 -103.017166 
L 144.333249 -101.531715 
L 145.576602 -103.033466 
L 146.819956 -105.613756 
L 148.063309 -98.233981 
L 149.306663 -107.43609 
L 150.550016 -101.356877 
L 151.79337 -100.844064 
L 153.036723 -104.403052 
L 154.280077 -107.185915 
L 155.52343 -108.938234 
L 156.766784 -112.72208 
L 158.010137 -132.830173 
L 159.253491 -146.231028 
L 160.496844 -181.111066 
L 161.740198 -145.369725 
L 162.983551 -189.746808 
L 164.226905 -195.496249 
L 165.470258 -205.419501 
L 166.713612 -209.282109 
L 167.956965 -196.226453 
L 169.200319 -189.419638 
L 170.443672 -205.79807 
L 171.687026 -173.225632 
L 172.930379 -209.375836 
L 174.173733 -211.326095 
L 175.417086 -220.319856 
L 176.66044 -189.457904 
L 177.903793 -204.789681 
L 179.147147 -190.070256 
L 180.3905 -199.940968 
L 181.633854 -233.059546 
L 182.877207 -196.0663 
L 184.120561 -216.972851 
L 185.363914 -206.733611 
L 186.607268 -205.814187 
L 187.850621 -200.457358 
L 189.093975 -206.611013 
L 190.337328 -206.31906 
L 191.580682 -211.602718 
L 192.824035 -184.686327 
L 194.067389 -233.801601 
L 195.310742 -209.271406 
L 196.554096 -211.748382 
L 197.797449 -216.638442 
L 199.040803 -206.713632 
L 200.284156 -205.520241 
L 201.52751 -216.58198 
L 202.770863 -213.253532 
L 204.014217 -182.019152 
L 205.25757 -197.299104 
L 206.500924 -228.731398 
L 207.744277 -227.172312 
L 208.987631 -226.679736 
L 210.230984 -222.364887 
L 211.474338 -219.610034 
L 212.717691 -252.704518 
L 213.961045 -243.342396 
L 215.204398 -254.160085 
L 216.447752 -257.166534 
L 217.691105 -231.335496 
L 218.934459 -277.704331 
L 220.177812 -257.286816 
L 221.421166 -265.014591 
L 222.664519 -230.691676 
L 223.907873 -257.330771 
L 225.151226 -265.070477 
L 226.39458 -280.513966 
L 227.637933 -270.875464 
L 228.881287 -281.325125 
L 230.12464 -237.065744 
L 231.367994 -296.858834 
L 232.611347 -255.653439 
L 233.854701 -280.044735 
L 235.098054 -270.205179 
L 236.341408 -268.282203 
L 237.584761 -280.123245 
L 238.828115 -247.547106 
L 240.071468 -257.107777 
L 241.314822 -295.859623 
L 242.558175 -273.573908 
L 243.801529 -321.564917 
L 245.044882 -298.176499 
L 246.288236 -298.395517 
L 247.531589 -280.184463 
L 248.774943 -279.227171 
L 250.018296 -276.893113 
L 251.26165 -298.823211 
L 252.505003 -322.823222 
L 253.748357 -299.025208 
L 254.99171 -284.054273 
L 256.235064 -275.061089 
L 257.478417 -258.006625 
L 258.721771 -266.369569 
L 259.965124 -282.957873 
L 261.208478 -280.041072 
L 262.451831 -254.06561 
L 263.695184 -256.612734 
L 264.938538 -320.547069 
L 266.181891 -248.725759 
L 267.425245 -256.44874 
L 268.668598 -279.35771 
L 269.911952 -222.532641 
L 271.155305 -244.392811 
L 272.398659 -248.850997 
L 273.642012 -220.881175 
L 274.885366 -294.13107 
L 276.128719 -313.894428 
L 277.372073 -241.90892 
L 278.615426 -231.667099 
L 279.85878 -255.08948 
L 281.102133 -268.683083 
L 282.345487 -251.568693 
L 283.58884 -260.553572 
L 284.832194 -273.395111 
L 286.075547 -291.868492 
L 287.318901 -252.253333 
L 288.562254 -290.814338 
L 289.805608 -250.614709 
L 291.048961 -271.398215 
L 292.292315 -253.931753 
L 293.535668 -317.996416 
L 294.779022 -222.502541 
L 296.022375 -254.736271 
L 297.265729 -278.577 
L 298.509082 -317.091902 
L 299.752436 -254.921914 
L 300.995789 -264.239435 
L 302.239143 -318.832844 
L 303.482496 -264.307112 
L 304.72585 -254.407539 
L 305.969203 -256.906114 
L 307.212557 -295.554204 
L 308.45591 -279.521316 
L 309.699264 -255.407934 
L 310.942617 -270.51661 
L 312.185971 -255.560579 
L 313.429324 -263.242703 
L 314.672678 -255.207263 
L 315.916031 -266.701317 
L 317.159385 -269.438594 
L 318.402738 -279.942175 
L 319.646092 -268.078375 
L 320.889445 -211.607549 
L 322.132799 -256.233271 
L 323.376152 -267.998443 
L 324.619506 -222.925694 
L 325.862859 -270.978019 
L 327.106213 -297.171579 
L 327.106213 -319.929444 
L 327.106213 -319.929444 
L 325.862859 -317.147707 
L 324.619506 -295.984296 
L 323.376152 -318.701304 
L 322.132799 -311.755633 
L 320.889445 -287.676699 
L 319.646092 -319.818911 
L 318.402738 -321.646793 
L 317.159385 -319.876332 
L 315.916031 -319.194607 
L 314.672678 -311.235829 
L 313.429324 -320.66859 
L 312.185971 -313.872667 
L 310.942617 -320.091149 
L 309.699264 -313.868573 
L 308.45591 -321.289124 
L 307.212557 -322.249228 
L 305.969203 -313.653142 
L 304.72585 -312.91329 
L 303.482496 -319.354049 
L 302.239143 -322.904236 
L 300.995789 -320.583051 
L 299.752436 -314.032325 
L 298.509082 -321.401165 
L 297.265729 -320.145661 
L 296.022375 -311.39721 
L 294.779022 -296.648757 
L 293.535668 -322.444007 
L 292.292315 -312.486334 
L 291.048961 -319.695989 
L 289.805608 -305.89392 
L 288.562254 -319.445621 
L 287.318901 -311.120227 
L 286.075547 -319.526959 
L 284.832194 -316.713225 
L 283.58884 -315.670814 
L 282.345487 -310.961867 
L 281.102133 -319.843582 
L 279.85878 -312.958553 
L 278.615426 -304.565547 
L 277.372073 -309.624067 
L 276.128719 -320.583051 
L 274.885366 -321.51396 
L 273.642012 -296.194491 
L 272.398659 -308.815703 
L 271.155305 -309.645985 
L 269.911952 -296.819506 
L 268.668598 -322.25009 
L 267.425245 -314.81806 
L 266.181891 -313.498623 
L 264.938538 -325.611854 
L 263.695184 -316.249333 
L 262.451831 -315.072473 
L 261.208478 -323.207285 
L 259.965124 -325.715384 
L 258.721771 -323.780632 
L 257.478417 -317.149333 
L 256.235064 -324.955445 
L 254.99171 -325.280148 
L 253.748357 -325.935156 
L 252.505003 -326.287869 
L 251.26165 -326.149973 
L 250.018296 -324.430577 
L 248.774943 -324.569874 
L 247.531589 -324.758081 
L 246.288236 -325.986975 
L 245.044882 -325.469109 
L 243.801529 -325.822469 
L 242.558175 -324.025291 
L 241.314822 -324.676205 
L 240.071468 -314.728702 
L 238.828115 -313.470968 
L 237.584761 -323.444402 
L 236.341408 -321.834892 
L 235.098054 -322.303848 
L 233.854701 -323.121207 
L 232.611347 -314.369525 
L 231.367994 -323.366189 
L 230.12464 -304.046055 
L 228.881287 -323.561399 
L 227.637933 -322.014804 
L 226.39458 -321.565563 
L 225.151226 -320.53134 
L 223.907873 -314.282612 
L 222.664519 -303.813974 
L 221.421166 -320.402062 
L 220.177812 -313.824618 
L 218.934459 -319.000329 
L 217.691105 -301.735024 
L 216.447752 -310.68811 
L 215.204398 -307.729473 
L 213.961045 -301.661044 
L 212.717691 -292.995714 
L 211.474338 -276.374698 
L 210.230984 -272.948763 
L 208.987631 -268.839628 
L 207.744277 -271.413389 
L 206.500924 -274.287253 
L 205.25757 -252.994925 
L 204.014217 -239.15048 
L 202.770863 -262.813726 
L 201.52751 -256.765945 
L 200.284156 -246.924875 
L 199.040803 -243.490834 
L 197.797449 -246.536508 
L 196.554096 -246.180461 
L 195.310742 -238.549978 
L 194.067389 -241.857817 
L 192.824035 -228.737819 
L 191.580682 -243.637925 
L 190.337328 -238.825771 
L 189.093975 -234.225633 
L 187.850621 -234.225633 
L 186.607268 -234.225633 
L 185.363914 -234.225633 
L 184.120561 -234.013617 
L 182.877207 -233.536582 
L 181.633854 -233.64259 
L 180.3905 -233.325891 
L 179.147147 -228.159699 
L 177.903793 -233.324566 
L 176.66044 -228.171361 
L 175.417086 -233.589586 
L 174.173733 -233.483578 
L 172.930379 -233.37757 
L 171.687026 -222.194105 
L 170.443672 -233.486228 
L 169.200319 -228.050674 
L 167.956965 -233.37757 
L 166.713612 -233.483578 
L 165.470258 -233.165554 
L 164.226905 -232.744173 
L 162.983551 -227.820991 
L 161.740198 -200.221776 
L 160.496844 -223.531765 
L 159.253491 -196.404464 
L 158.010137 -177.338296 
L 156.766784 -146.341771 
L 155.52343 -130.585107 
L 154.280077 -125.010261 
L 153.036723 -115.49641 
L 151.79337 -113.921218 
L 150.550016 -114.206621 
L 149.306663 -116.024774 
L 148.063309 -113.149235 
L 146.819956 -115.744478 
L 145.576602 -115.825869 
L 144.333249 -114.296286 
L 143.089896 -115.54009 
L 141.846542 -115.686422 
L 140.603189 -115.825611 
L 139.359835 -115.972126 
L 138.116482 -115.972126 
L 136.873128 -115.788982 
L 135.629775 -116.045383 
L 134.386421 -114.397241 
L 133.143068 -114.415776 
L 131.899714 -116.246841 
L 130.656361 -116.485386 
L 129.413007 -116.649757 
L 128.169654 -116.686386 
L 126.9263 -112.965149 
L 125.682947 -114.177781 
L 124.439593 -116.521557 
L 123.19624 -114.178707 
L 121.952886 -114.195632 
L 120.709533 -110.081487 
L 119.466179 -115.770668 
L 118.222826 -112.230662 
L 116.979472 -115.99044 
L 115.736119 -114.189184 
L 114.492765 -113.963045 
L 113.249412 -115.825611 
L 112.006058 -115.99044 
L 110.762705 -114.068293 
L 109.519351 -115.953811 
L 108.275998 -115.898868 
L 107.032644 -116.008755 
L 105.789291 -116.173584 
L 104.545937 -116.228527 
L 103.302584 -116.301784 
L 102.05923 -116.199957 
L 100.815877 -116.199224 
L 99.572523 -114.192519 
L 98.32917 -116.125967 
L 97.085816 -116.082012 
L 95.842463 -116.063698 
L 94.599109 -116.15527 
L 93.355756 -116.119099 
L 92.112402 -106.195523 
L 90.869049 -88.280391 
L 89.625695 -67.753469 
L 88.382342 -62.141241 
L 87.138988 -59.434873 
L 85.895635 -57.857839 
L 84.652281 -56.885018 
L 83.408928 -56.710923 
L 82.165574 -56.599141 
L 80.922221 -56.530591 
L 79.678867 -56.465511 
z
" style="stroke: #2d1e3e; stroke-opacity: 0.2"/>
    </defs>
    <g clip-path="url(#p7487904832)">
     <use xlink:href="#mf2345a7d4e" x="0" y="362.097812" style="fill: #2d1e3e; fill-opacity: 0.2; stroke: #2d1e3e; stroke-opacity: 0.2"/>
    </g>
   </g>
   <g id="line2d_15">
    <path d="M 79.678867 305.644583 
L 82.165574 305.587485 
L 84.652281 305.353061 
L 93.355756 305.20116 
L 99.572523 305.150742 
L 118.222826 305.049689 
L 121.952886 305.039993 
L 125.682947 305.071451 
L 128.169654 305.012845 
L 159.253491 304.991299 
L 160.496844 304.81742 
L 161.740198 304.323363 
L 162.983551 303.33568 
L 164.226905 302.907555 
L 166.713612 302.80758 
L 169.200319 302.800685 
L 170.443672 302.962282 
L 171.687026 302.794436 
L 177.903793 302.798961 
L 179.147147 302.803701 
L 180.3905 302.968962 
L 181.633854 302.702434 
L 182.877207 302.702218 
L 184.120561 302.824817 
L 185.363914 302.761255 
L 187.850621 302.800469 
L 189.093975 302.704804 
L 190.337328 302.892041 
L 191.580682 302.699633 
L 197.797449 302.693815 
L 199.040803 302.785818 
L 200.284156 302.688644 
L 205.25757 302.779139 
L 206.500924 302.965083 
L 207.744277 302.83796 
L 208.987631 302.857567 
L 210.230984 302.676794 
L 216.447752 302.765133 
L 218.934459 303.044158 
L 221.421166 302.564968 
L 223.907873 302.658479 
L 225.151226 302.83559 
L 226.39458 302.57531 
L 227.637933 302.848087 
L 228.881287 302.598365 
L 230.12464 302.183598 
L 232.611347 298.479787 
L 233.854701 297.056006 
L 235.098054 295.012984 
L 236.341408 295.691047 
L 237.584761 295.349969 
L 238.828115 295.335102 
L 240.071468 295.688461 
L 241.314822 295.702467 
L 242.558175 295.229956 
L 243.801529 295.393277 
L 245.044882 295.126534 
L 246.288236 295.250209 
L 247.531589 294.760893 
L 248.774943 294.955456 
L 250.018296 294.383401 
L 251.26165 294.829194 
L 252.505003 296.374281 
L 253.748357 294.664796 
L 254.99171 295.093352 
L 256.235064 294.403439 
L 257.478417 294.496088 
L 258.721771 293.685947 
L 259.965124 294.886723 
L 261.208478 293.213652 
L 262.451831 293.017149 
L 263.695184 294.10136 
L 264.938538 291.601772 
L 266.181891 292.869772 
L 267.425245 293.346161 
L 268.668598 290.586725 
L 269.911952 288.862158 
L 271.155305 286.657539 
L 272.398659 280.626509 
L 273.642012 278.301877 
L 274.885366 268.879458 
L 276.128719 266.839237 
L 277.372073 267.29408 
L 278.615426 269.942553 
L 279.85878 265.929336 
L 281.102133 269.998574 
L 282.345487 263.747126 
L 283.58884 262.462103 
L 284.832194 271.892926 
L 286.075547 271.275839 
L 287.318901 266.281403 
L 288.562254 270.324785 
L 289.805608 270.615014 
L 291.048961 267.647224 
L 292.292315 266.797007 
L 293.535668 268.153994 
L 296.022375 265.367839 
L 297.265729 264.103502 
L 298.509082 269.376747 
L 299.752436 265.469969 
L 300.995789 266.800885 
L 302.239143 264.04231 
L 303.482496 265.316344 
L 304.72585 265.2586 
L 305.969203 267.951458 
L 307.212557 266.67053 
L 308.45591 271.577057 
L 309.699264 264.011068 
L 310.942617 269.347444 
L 312.185971 266.640365 
L 313.429324 266.356169 
L 314.672678 266.582836 
L 315.916031 266.583483 
L 317.159385 267.995197 
L 318.402738 269.162361 
L 319.646092 264.066227 
L 320.889445 268.030318 
L 322.132799 265.363099 
L 323.376152 266.637348 
L 324.619506 264.233857 
L 325.862859 265.579855 
L 327.106213 265.255152 
L 327.106213 265.255152 
" clip-path="url(#p7487904832)" style="fill: none; stroke: #edd1cb; stroke-width: 1.5; stroke-linecap: round"/>
   </g>
   <g id="line2d_16">
    <path d="M 79.678867 305.628854 
L 80.922221 305.225723 
L 85.895635 305.158283 
L 92.112402 305.16884 
L 100.815877 305.126825 
L 103.302584 305.142123 
L 109.519351 305.15225 
L 115.736119 305.190387 
L 119.466179 305.139107 
L 149.306663 305.139107 
L 151.79337 305.144493 
L 154.280077 305.144924 
L 159.253491 305.134366 
L 189.093975 305.194696 
L 190.337328 305.112174 
L 192.824035 305.093428 
L 327.106213 305.072744 
L 327.106213 305.072744 
" clip-path="url(#p7487904832)" style="fill: none; stroke: #d499a7; stroke-width: 1.5; stroke-linecap: round"/>
   </g>
   <g id="line2d_17">
    <path d="M 79.678867 305.641998 
L 84.652281 305.595027 
L 85.895635 305.456053 
L 88.382342 302.299733 
L 89.625695 302.389366 
L 90.869049 302.311799 
L 92.112402 302.573156 
L 94.599109 302.042685 
L 95.842463 301.438958 
L 97.085816 301.020313 
L 98.32917 300.27481 
L 99.572523 298.807291 
L 100.815877 299.173363 
L 102.05923 298.696327 
L 103.302584 298.339736 
L 104.545937 299.787864 
L 105.789291 298.809014 
L 107.032644 299.24425 
L 108.275998 299.063476 
L 109.519351 298.999915 
L 110.762705 298.568773 
L 112.006058 298.347923 
L 113.249412 299.028356 
L 114.492765 298.827329 
L 115.736119 298.457594 
L 116.979472 298.898216 
L 118.222826 298.919332 
L 119.466179 298.5371 
L 120.709533 297.714246 
L 121.952886 297.6509 
L 123.19624 298.037225 
L 124.439593 296.384192 
L 125.682947 296.781937 
L 126.9263 295.28533 
L 128.169654 296.377944 
L 129.413007 294.98756 
L 130.656361 294.30131 
L 131.899714 294.452349 
L 133.143068 294.795151 
L 134.386421 294.498458 
L 135.629775 293.81975 
L 136.873128 293.594806 
L 138.116482 294.602096 
L 139.359835 294.147254 
L 140.603189 294.669321 
L 143.089896 293.914122 
L 144.333249 295.274341 
L 145.576602 294.210169 
L 146.819956 294.171816 
L 148.063309 295.183631 
L 149.306663 294.87832 
L 150.550016 295.308169 
L 151.79337 293.969927 
L 153.036723 293.839788 
L 154.280077 294.931108 
L 155.52343 294.862376 
L 156.766784 296.013811 
L 158.010137 294.591108 
L 159.253491 293.934807 
L 160.496844 294.732021 
L 161.740198 294.486177 
L 162.983551 294.078521 
L 164.226905 294.457736 
L 165.470258 295.073961 
L 166.713612 293.588342 
L 167.956965 294.691944 
L 169.200319 295.022034 
L 170.443672 295.026774 
L 171.687026 295.263784 
L 172.930379 295.141616 
L 174.173733 294.454719 
L 175.417086 294.002031 
L 176.66044 295.230387 
L 177.903793 293.809192 
L 179.147147 294.609637 
L 180.3905 294.36444 
L 181.633854 293.958077 
L 182.877207 294.651222 
L 185.363914 294.684403 
L 186.607268 295.310755 
L 187.850621 296.150199 
L 189.093975 294.620195 
L 190.337328 294.851603 
L 191.580682 293.446998 
L 192.824035 293.836556 
L 194.067389 293.842158 
L 195.310742 294.23387 
L 196.554096 294.134541 
L 197.797449 295.244823 
L 199.040803 293.446998 
L 200.284156 294.194009 
L 201.52751 293.807253 
L 204.014217 294.580334 
L 205.25757 294.482083 
L 206.500924 294.521728 
L 207.744277 294.964505 
L 208.987631 293.864135 
L 210.230984 295.179538 
L 211.474338 295.483341 
L 212.717691 293.911321 
L 215.204398 293.801866 
L 216.447752 294.538319 
L 217.691105 293.679268 
L 218.934459 294.074212 
L 220.177812 293.687671 
L 221.421166 293.769116 
L 223.907873 294.506 
L 226.39458 294.413566 
L 227.637933 293.467683 
L 228.881287 294.654454 
L 230.12464 295.252149 
L 232.611347 294.286658 
L 233.854701 294.116442 
L 235.098054 294.813897 
L 236.341408 294.210815 
L 238.828115 294.561805 
L 240.071468 294.31079 
L 242.558175 293.679698 
L 243.801529 294.937788 
L 245.044882 293.56421 
L 246.288236 294.170524 
L 247.531589 293.949889 
L 248.774943 293.428037 
L 250.018296 294.190777 
L 251.26165 294.052881 
L 252.505003 294.407533 
L 253.748357 295.186648 
L 254.99171 294.399776 
L 256.235064 294.04814 
L 258.721771 294.674707 
L 259.965124 293.999446 
L 262.451831 295.313987 
L 263.695184 293.569812 
L 264.938538 294.434035 
L 266.181891 294.020992 
L 267.425245 294.049864 
L 268.668598 295.219614 
L 269.911952 295.139892 
L 271.155305 293.347023 
L 272.398659 293.681638 
L 273.642012 295.101324 
L 274.885366 294.807864 
L 276.128719 293.33151 
L 277.372073 294.749042 
L 278.615426 294.25714 
L 279.85878 293.944718 
L 281.102133 294.128077 
L 282.345487 293.202017 
L 283.58884 293.827506 
L 284.832194 294.264035 
L 286.075547 294.208445 
L 287.318901 292.014599 
L 288.562254 291.774142 
L 289.805608 291.229882 
L 291.048961 288.976138 
L 292.292315 285.61599 
L 294.779022 283.197416 
L 296.022375 280.751478 
L 297.265729 283.831524 
L 298.509082 280.829476 
L 299.752436 282.039301 
L 300.995789 279.659511 
L 302.239143 279.370359 
L 303.482496 280.154645 
L 304.72585 277.267008 
L 305.969203 276.767133 
L 307.212557 279.380486 
L 308.45591 279.791374 
L 309.699264 278.583488 
L 310.942617 278.86122 
L 312.185971 279.322526 
L 313.429324 278.502258 
L 314.672678 281.10376 
L 315.916031 279.261981 
L 317.159385 282.404942 
L 318.402738 281.675384 
L 319.646092 279.516659 
L 320.889445 280.147966 
L 322.132799 279.808827 
L 323.376152 277.563054 
L 324.619506 280.759881 
L 325.862859 277.827212 
L 327.106213 277.959722 
L 327.106213 277.959722 
" clip-path="url(#p7487904832)" style="fill: none; stroke: #a9678f; stroke-width: 1.5; stroke-linecap: round"/>
   </g>
   <g id="line2d_18">
    <path d="M 79.678867 305.513797 
L 80.922221 302.126716 
L 82.165574 301.860404 
L 85.895635 301.875917 
L 87.138988 301.506398 
L 88.382342 301.905866 
L 89.625695 301.487221 
L 90.869049 301.739313 
L 93.355756 301.770556 
L 94.599109 301.663686 
L 95.842463 301.817742 
L 98.32917 301.517602 
L 99.572523 301.669288 
L 100.815877 301.652266 
L 102.05923 301.768616 
L 104.545937 301.573407 
L 109.519351 301.622748 
L 112.006058 301.568667 
L 113.249412 301.744054 
L 114.492765 301.46115 
L 115.736119 301.4493 
L 116.979472 301.228881 
L 118.222826 301.364623 
L 120.709533 301.333812 
L 121.952886 301.151745 
L 124.439593 301.816234 
L 125.682947 301.05134 
L 126.9263 300.913228 
L 129.413007 301.016004 
L 130.656361 300.947055 
L 133.143068 301.336613 
L 135.629775 300.82812 
L 136.873128 300.828335 
L 138.116482 301.331226 
L 139.359835 300.840617 
L 141.846542 300.788044 
L 143.089896 300.866688 
L 145.576602 300.516344 
L 146.819956 300.924863 
L 148.063309 300.554912 
L 149.306663 300.839324 
L 153.036723 300.782872 
L 154.280077 301.027854 
L 155.52343 300.483163 
L 156.766784 300.474114 
L 159.253491 301.023114 
L 160.496844 300.843418 
L 161.740198 300.865179 
L 164.226905 300.527549 
L 165.470258 300.739349 
L 167.956965 300.984546 
L 169.200319 300.670832 
L 170.443672 300.898792 
L 171.687026 300.943392 
L 175.417086 300.428436 
L 176.66044 300.549526 
L 179.147147 300.430159 
L 180.3905 300.90267 
L 181.633854 300.504925 
L 182.877207 300.394608 
L 184.120561 300.710692 
L 185.363914 300.577321 
L 186.607268 300.59585 
L 187.850621 300.892112 
L 189.093975 300.490704 
L 190.337328 300.513113 
L 191.580682 300.303467 
L 192.824035 300.385343 
L 194.067389 300.315102 
L 195.310742 300.595635 
L 196.554096 300.518284 
L 197.797449 300.291616 
L 201.52751 300.168156 
L 202.770863 300.506649 
L 204.014217 300.352377 
L 205.25757 300.067535 
L 206.500924 300.430375 
L 208.987631 299.790665 
L 210.230984 300.133466 
L 211.474338 300.16083 
L 212.717691 300.306052 
L 215.204398 299.826431 
L 216.447752 300.017978 
L 217.691105 300.079601 
L 218.934459 300.36315 
L 220.177812 300.390729 
L 221.421166 300.103733 
L 223.907873 300.155659 
L 225.151226 299.727749 
L 226.39458 299.880728 
L 227.637933 300.393961 
L 228.881287 300.038232 
L 230.12464 300.127003 
L 232.611347 300.012807 
L 233.854701 300.184962 
L 235.098054 300.133682 
L 236.341408 300.320704 
L 237.584761 299.962173 
L 240.071468 300.037585 
L 241.314822 300.281705 
L 242.558175 300.269855 
L 245.044882 299.884607 
L 247.531589 300.310362 
L 248.774943 300.290539 
L 250.018296 300.088866 
L 251.26165 300.448905 
L 252.505003 300.34462 
L 253.748357 299.813504 
L 256.235064 299.969284 
L 257.478417 299.745417 
L 258.721771 299.852502 
L 259.965124 300.376509 
L 261.208478 300.098561 
L 263.695184 300.170095 
L 266.181891 299.747572 
L 268.668598 300.069043 
L 272.398659 299.70254 
L 273.642012 299.962604 
L 274.885366 299.8469 
L 276.128719 300.187979 
L 277.372073 299.831387 
L 279.85878 299.626482 
L 281.102133 299.612261 
L 284.832194 300.204138 
L 286.075547 299.903567 
L 287.318901 299.985443 
L 288.562254 299.661818 
L 289.805608 299.66074 
L 291.048961 300.043618 
L 292.292315 300.287523 
L 293.535668 299.778383 
L 294.779022 300.009791 
L 297.265729 299.894949 
L 298.509082 300.088219 
L 299.752436 300.626231 
L 300.995789 299.832464 
L 302.239143 300.284506 
L 305.969203 300.112351 
L 307.212557 300.659197 
L 308.45591 300.013023 
L 309.699264 299.897965 
L 310.942617 300.088866 
L 312.185971 299.914125 
L 313.429324 300.199829 
L 314.672678 300.134328 
L 315.916031 299.872971 
L 322.132799 299.856381 
L 323.376152 299.674099 
L 324.619506 299.826647 
L 325.862859 300.368106 
L 327.106213 299.842807 
L 327.106213 299.842807 
" clip-path="url(#p7487904832)" style="fill: none; stroke: #6c3f70; stroke-width: 1.5; stroke-linecap: round"/>
   </g>
   <g id="line2d_19">
    <path d="M 79.678867 305.639843 
L 84.652281 305.350691 
L 85.895635 304.765924 
L 87.138988 303.537138 
L 88.382342 300.966878 
L 89.625695 298.124488 
L 90.869049 282.420671 
L 92.112402 264.459878 
L 93.355756 251.317271 
L 94.599109 247.882142 
L 95.842463 251.429097 
L 97.085816 251.55622 
L 98.32917 249.763567 
L 99.572523 255.348803 
L 100.815877 249.707762 
L 102.05923 249.695696 
L 103.302584 246.037778 
L 104.545937 247.272166 
L 105.789291 247.938594 
L 108.275998 251.653825 
L 109.519351 251.710276 
L 110.762705 253.639964 
L 112.006058 248.140267 
L 114.492765 255.379614 
L 115.736119 253.488278 
L 116.979472 249.911159 
L 118.222826 255.543797 
L 119.466179 250.121666 
L 120.709533 260.867245 
L 121.952886 253.579635 
L 123.19624 255.110716 
L 124.439593 249.432831 
L 125.682947 255.117395 
L 126.9263 256.68295 
L 128.169654 249.250549 
L 129.413007 247.541064 
L 130.656361 249.010307 
L 131.899714 251.343127 
L 133.143068 254.95903 
L 134.386421 253.304704 
L 135.629775 249.747407 
L 136.873128 251.7747 
L 138.116482 248.140267 
L 139.359835 246.345459 
L 140.603189 248.285058 
L 141.846542 249.669625 
L 143.089896 251.936297 
L 144.333249 253.289837 
L 145.576602 251.780733 
L 146.819956 250.786586 
L 148.063309 254.923909 
L 149.306663 249.557153 
L 150.550016 253.473842 
L 151.79337 253.878482 
L 153.036723 252.024637 
L 154.280077 247.260531 
L 155.52343 243.560382 
L 156.766784 234.122665 
L 158.010137 205.753924 
L 159.253491 189.170586 
L 160.496844 158.712068 
L 161.740198 187.450759 
L 162.983551 150.829995 
L 165.470258 140.089372 
L 166.713612 138.633703 
L 169.200319 150.734544 
L 170.443672 139.793541 
L 171.687026 164.035516 
L 172.930379 139.314997 
L 174.173733 136.959338 
L 175.417086 133.055146 
L 176.66044 150.580488 
L 177.903793 141.065851 
L 179.147147 150.460691 
L 180.3905 144.981894 
L 181.633854 128.720243 
L 182.877207 144.90562 
L 184.120561 133.94113 
L 185.363914 138.919407 
L 186.607268 140.286951 
L 187.850621 144.516278 
L 189.093975 139.019382 
L 190.337328 136.808945 
L 191.580682 133.640344 
L 192.824035 152.948213 
L 194.067389 125.625114 
L 195.310742 136.591112 
L 196.554096 131.127182 
L 197.797449 129.627773 
L 199.040803 135.077268 
L 200.284156 134.518572 
L 201.52751 124.040383 
L 202.770863 123.924464 
L 204.014217 149.445644 
L 205.25757 134.916748 
L 206.500924 108.784083 
L 208.987631 113.956276 
L 210.230984 111.966258 
L 211.474338 112.286006 
L 212.717691 86.609046 
L 213.961045 87.854638 
L 215.204398 79.342335 
L 216.447752 75.878118 
L 217.691105 93.834603 
L 218.934459 61.299235 
L 220.177812 72.45958 
L 221.421166 66.03296 
L 222.664519 91.39125 
L 223.907873 73.691598 
L 226.39458 57.278477 
L 227.637933 64.681145 
L 228.881287 56.025774 
L 230.12464 90.127559 
L 231.367994 48.384804 
L 232.611347 73.247529 
L 233.854701 56.090628 
L 235.098054 65.012311 
L 236.341408 63.997264 
L 237.584761 56.469628 
L 238.828115 80.696952 
L 240.071468 72.589504 
L 241.314822 47.99223 
L 242.558175 62.170783 
L 243.801529 38.40412 
L 245.044882 46.371947 
L 246.288236 45.716939 
L 247.531589 57.042114 
L 248.774943 57.057412 
L 250.018296 59.183387 
L 251.26165 45.51979 
L 252.505003 37.473319 
L 257.478417 71.037739 
L 258.721771 63.241635 
L 259.965124 53.763842 
L 261.208478 58.141407 
L 262.451831 74.298558 
L 263.695184 72.116563 
L 264.938538 38.69715 
L 266.181891 80.114986 
L 267.425245 73.260672 
L 268.668598 57.772534 
L 269.911952 99.797115 
L 271.155305 84.166124 
L 272.398659 82.395233 
L 273.642012 100.415494 
L 274.885366 50.680133 
L 276.128719 44.471562 
L 277.372073 84.471867 
L 278.615426 90.741844 
L 279.85878 74.355225 
L 281.102133 66.658665 
L 282.345487 77.096994 
L 283.58884 69.736126 
L 284.832194 65.637155 
L 286.075547 52.465245 
L 287.318901 76.929794 
L 288.562254 52.753966 
L 289.805608 80.342731 
L 291.048961 64.019026 
L 292.292315 75.238408 
L 293.535668 41.799819 
L 294.779022 99.148355 
L 296.022375 77.339174 
L 297.265729 58.98473 
L 298.509082 42.851279 
L 299.752436 74.180915 
L 300.995789 66.379856 
L 302.239143 40.998296 
L 303.482496 66.473798 
L 304.72585 74.999029 
L 305.969203 73.125577 
L 307.212557 49.349648 
L 308.45591 58.022256 
L 309.699264 73.330267 
L 310.942617 65.453795 
L 312.185971 74.102056 
L 313.429324 66.267815 
L 314.672678 75.74604 
L 315.916031 66.344089 
L 317.159385 66.810567 
L 318.402738 57.70811 
L 319.646092 66.576574 
L 320.889445 108.527466 
L 322.132799 74.869535 
L 323.376152 68.050342 
L 324.619506 99.696709 
L 325.862859 66.471428 
L 327.106213 50.437306 
L 327.106213 50.437306 
" clip-path="url(#p7487904832)" style="fill: none; stroke: #2d1e3e; stroke-width: 1.5; stroke-linecap: round"/>
   </g>
   <g id="line2d_20"/>
   <g id="line2d_21"/>
   <g id="line2d_22"/>
   <g id="line2d_23"/>
   <g id="line2d_24"/>
   <g id="patch_3">
    <path d="M 67.3075 319.138125 
L 67.3075 22.318125 
" style="fill: none; stroke: #ffffff; stroke-width: 1.25; stroke-linejoin: miter; stroke-linecap: square"/>
   </g>
   <g id="patch_4">
    <path d="M 67.3075 319.138125 
L 339.47758 319.138125 
" style="fill: none; stroke: #ffffff; stroke-width: 1.25; stroke-linejoin: miter; stroke-linecap: square"/>
   </g>
   <g id="text_17">
    <!-- Evolved For Three Cycle For Left To Right -->
    <g style="fill: #262626" transform="translate(80.582853 16.318125)scale(0.12 -0.12)">
     <defs>
      <path id="DejaVuSans-45" d="M 628 4666 
L 3578 4666 
L 3578 4134 
L 1259 4134 
L 1259 2753 
L 3481 2753 
L 3481 2222 
L 1259 2222 
L 1259 531 
L 3634 531 
L 3634 0 
L 628 0 
L 628 4666 
z
" transform="scale(0.015625)"/>
      <path id="DejaVuSans-76" d="M 191 3500 
L 800 3500 
L 1894 563 
L 2988 3500 
L 3597 3500 
L 2284 0 
L 1503 0 
L 191 3500 
z
" transform="scale(0.015625)"/>
      <path id="DejaVuSans-6c" d="M 603 4863 
L 1178 4863 
L 1178 0 
L 603 0 
L 603 4863 
z
" transform="scale(0.015625)"/>
      <path id="DejaVuSans-64" d="M 2906 2969 
L 2906 4863 
L 3481 4863 
L 3481 0 
L 2906 0 
L 2906 525 
Q 2725 213 2448 61 
Q 2172 -91 1784 -91 
Q 1150 -91 751 415 
Q 353 922 353 1747 
Q 353 2572 751 3078 
Q 1150 3584 1784 3584 
Q 2172 3584 2448 3432 
Q 2725 3281 2906 2969 
z
M 947 1747 
Q 947 1113 1208 752 
Q 1469 391 1925 391 
Q 2381 391 2643 752 
Q 2906 1113 2906 1747 
Q 2906 2381 2643 2742 
Q 2381 3103 1925 3103 
Q 1469 3103 1208 2742 
Q 947 2381 947 1747 
z
" transform="scale(0.015625)"/>
      <path id="DejaVuSans-20" transform="scale(0.015625)"/>
      <path id="DejaVuSans-54" d="M -19 4666 
L 3928 4666 
L 3928 4134 
L 2272 4134 
L 2272 0 
L 1638 0 
L 1638 4134 
L -19 4134 
L -19 4666 
z
" transform="scale(0.015625)"/>
      <path id="DejaVuSans-68" d="M 3513 2113 
L 3513 0 
L 2938 0 
L 2938 2094 
Q 2938 2591 2744 2837 
Q 2550 3084 2163 3084 
Q 1697 3084 1428 2787 
Q 1159 2491 1159 1978 
L 1159 0 
L 581 0 
L 581 4863 
L 1159 4863 
L 1159 2956 
Q 1366 3272 1645 3428 
Q 1925 3584 2291 3584 
Q 2894 3584 3203 3211 
Q 3513 2838 3513 2113 
z
" transform="scale(0.015625)"/>
      <path id="DejaVuSans-43" d="M 4122 4306 
L 4122 3641 
Q 3803 3938 3442 4084 
Q 3081 4231 2675 4231 
Q 1875 4231 1450 3742 
Q 1025 3253 1025 2328 
Q 1025 1406 1450 917 
Q 1875 428 2675 428 
Q 3081 428 3442 575 
Q 3803 722 4122 1019 
L 4122 359 
Q 3791 134 3420 21 
Q 3050 -91 2638 -91 
Q 1578 -91 968 557 
Q 359 1206 359 2328 
Q 359 3453 968 4101 
Q 1578 4750 2638 4750 
Q 3056 4750 3426 4639 
Q 3797 4528 4122 4306 
z
" transform="scale(0.015625)"/>
      <path id="DejaVuSans-79" d="M 2059 -325 
Q 1816 -950 1584 -1140 
Q 1353 -1331 966 -1331 
L 506 -1331 
L 506 -850 
L 844 -850 
Q 1081 -850 1212 -737 
Q 1344 -625 1503 -206 
L 1606 56 
L 191 3500 
L 800 3500 
L 1894 763 
L 2988 3500 
L 3597 3500 
L 2059 -325 
z
" transform="scale(0.015625)"/>
      <path id="DejaVuSans-63" d="M 3122 3366 
L 3122 2828 
Q 2878 2963 2633 3030 
Q 2388 3097 2138 3097 
Q 1578 3097 1268 2742 
Q 959 2388 959 1747 
Q 959 1106 1268 751 
Q 1578 397 2138 397 
Q 2388 397 2633 464 
Q 2878 531 3122 666 
L 3122 134 
Q 2881 22 2623 -34 
Q 2366 -91 2075 -91 
Q 1284 -91 818 406 
Q 353 903 353 1747 
Q 353 2603 823 3093 
Q 1294 3584 2113 3584 
Q 2378 3584 2631 3529 
Q 2884 3475 3122 3366 
z
" transform="scale(0.015625)"/>
      <path id="DejaVuSans-4c" d="M 628 4666 
L 1259 4666 
L 1259 531 
L 3531 531 
L 3531 0 
L 628 0 
L 628 4666 
z
" transform="scale(0.015625)"/>
      <path id="DejaVuSans-66" d="M 2375 4863 
L 2375 4384 
L 1825 4384 
Q 1516 4384 1395 4259 
Q 1275 4134 1275 3809 
L 1275 3500 
L 2222 3500 
L 2222 3053 
L 1275 3053 
L 1275 0 
L 697 0 
L 697 3053 
L 147 3053 
L 147 3500 
L 697 3500 
L 697 3744 
Q 697 4328 969 4595 
Q 1241 4863 1831 4863 
L 2375 4863 
z
" transform="scale(0.015625)"/>
      <path id="DejaVuSans-52" d="M 2841 2188 
Q 3044 2119 3236 1894 
Q 3428 1669 3622 1275 
L 4263 0 
L 3584 0 
L 2988 1197 
Q 2756 1666 2539 1819 
Q 2322 1972 1947 1972 
L 1259 1972 
L 1259 0 
L 628 0 
L 628 4666 
L 2053 4666 
Q 2853 4666 3247 4331 
Q 3641 3997 3641 3322 
Q 3641 2881 3436 2590 
Q 3231 2300 2841 2188 
z
M 1259 4147 
L 1259 2491 
L 2053 2491 
Q 2509 2491 2742 2702 
Q 2975 2913 2975 3322 
Q 2975 3731 2742 3939 
Q 2509 4147 2053 4147 
L 1259 4147 
z
" transform="scale(0.015625)"/>
      <path id="DejaVuSans-67" d="M 2906 1791 
Q 2906 2416 2648 2759 
Q 2391 3103 1925 3103 
Q 1463 3103 1205 2759 
Q 947 2416 947 1791 
Q 947 1169 1205 825 
Q 1463 481 1925 481 
Q 2391 481 2648 825 
Q 2906 1169 2906 1791 
z
M 3481 434 
Q 3481 -459 3084 -895 
Q 2688 -1331 1869 -1331 
Q 1566 -1331 1297 -1286 
Q 1028 -1241 775 -1147 
L 775 -588 
Q 1028 -725 1275 -790 
Q 1522 -856 1778 -856 
Q 2344 -856 2625 -561 
Q 2906 -266 2906 331 
L 2906 616 
Q 2728 306 2450 153 
Q 2172 0 1784 0 
Q 1141 0 747 490 
Q 353 981 353 1791 
Q 353 2603 747 3093 
Q 1141 3584 1784 3584 
Q 2172 3584 2450 3431 
Q 2728 3278 2906 2969 
L 2906 3500 
L 3481 3500 
L 3481 434 
z
" transform="scale(0.015625)"/>
     </defs>
     <use xlink:href="#DejaVuSans-45"/>
     <use xlink:href="#DejaVuSans-76" x="63.183594"/>
     <use xlink:href="#DejaVuSans-6f" x="122.363281"/>
     <use xlink:href="#DejaVuSans-6c" x="183.544922"/>
     <use xlink:href="#DejaVuSans-76" x="211.328125"/>
     <use xlink:href="#DejaVuSans-65" x="270.507812"/>
     <use xlink:href="#DejaVuSans-64" x="332.03125"/>
     <use xlink:href="#DejaVuSans-20" x="395.507812"/>
     <use xlink:href="#DejaVuSans-46" x="427.294922"/>
     <use xlink:href="#DejaVuSans-6f" x="481.189453"/>
     <use xlink:href="#DejaVuSans-72" x="542.371094"/>
     <use xlink:href="#DejaVuSans-20" x="583.484375"/>
     <use xlink:href="#DejaVuSans-54" x="615.271484"/>
     <use xlink:href="#DejaVuSans-68" x="676.355469"/>
     <use xlink:href="#DejaVuSans-72" x="739.734375"/>
     <use xlink:href="#DejaVuSans-65" x="778.597656"/>
     <use xlink:href="#DejaVuSans-65" x="840.121094"/>
     <use xlink:href="#DejaVuSans-20" x="901.644531"/>
     <use xlink:href="#DejaVuSans-43" x="933.431641"/>
     <use xlink:href="#DejaVuSans-79" x="1003.255859"/>
     <use xlink:href="#DejaVuSans-63" x="1062.435547"/>
     <use xlink:href="#DejaVuSans-6c" x="1117.416016"/>
     <use xlink:href="#DejaVuSans-65" x="1145.199219"/>
     <use xlink:href="#DejaVuSans-20" x="1206.722656"/>
     <use xlink:href="#DejaVuSans-46" x="1238.509766"/>
     <use xlink:href="#DejaVuSans-6f" x="1292.404297"/>
     <use xlink:href="#DejaVuSans-72" x="1353.585938"/>
     <use xlink:href="#DejaVuSans-20" x="1394.699219"/>
     <use xlink:href="#DejaVuSans-4c" x="1426.486328"/>
     <use xlink:href="#DejaVuSans-65" x="1480.449219"/>
     <use xlink:href="#DejaVuSans-66" x="1541.972656"/>
     <use xlink:href="#DejaVuSans-74" x="1575.427734"/>
     <use xlink:href="#DejaVuSans-20" x="1614.636719"/>
     <use xlink:href="#DejaVuSans-54" x="1646.423828"/>
     <use xlink:href="#DejaVuSans-6f" x="1690.507812"/>
     <use xlink:href="#DejaVuSans-20" x="1751.689453"/>
     <use xlink:href="#DejaVuSans-52" x="1783.476562"/>
     <use xlink:href="#DejaVuSans-69" x="1852.958984"/>
     <use xlink:href="#DejaVuSans-67" x="1880.742188"/>
     <use xlink:href="#DejaVuSans-68" x="1944.21875"/>
     <use xlink:href="#DejaVuSans-74" x="2007.597656"/>
    </g>
   </g>
  </g>
  <g id="legend_1">
   <g id="text_18">
    <!-- Trial -->
    <g style="fill: #262626" transform="translate(350.80753 143.995312)scale(0.12 -0.12)">
     <use xlink:href="#DejaVuSans-54"/>
     <use xlink:href="#DejaVuSans-72" x="46.333984"/>
     <use xlink:href="#DejaVuSans-69" x="87.447266"/>
     <use xlink:href="#DejaVuSans-61" x="115.230469"/>
     <use xlink:href="#DejaVuSans-6c" x="176.509766"/>
    </g>
   </g>
   <g id="line2d_25">
    <path d="M 344.16503 156.499219 
L 355.16503 156.499219 
L 366.16503 156.499219 
" style="fill: none; stroke: #edd1cb; stroke-width: 1.5; stroke-linecap: round"/>
   </g>
   <g id="text_19">
    <!-- 0 -->
    <g style="fill: #262626" transform="translate(374.96503 160.349219)scale(0.11 -0.11)">
     <use xlink:href="#DejaVuSans-30"/>
    </g>
   </g>
   <g id="line2d_26">
    <path d="M 344.16503 172.645156 
L 355.16503 172.645156 
L 366.16503 172.645156 
" style="fill: none; stroke: #d499a7; stroke-width: 1.5; stroke-linecap: round"/>
   </g>
   <g id="text_20">
    <!-- 1 -->
    <g style="fill: #262626" transform="translate(374.96503 176.495156)scale(0.11 -0.11)">
     <use xlink:href="#DejaVuSans-31"/>
    </g>
   </g>
   <g id="line2d_27">
    <path d="M 344.16503 188.791094 
L 355.16503 188.791094 
L 366.16503 188.791094 
" style="fill: none; stroke: #a9678f; stroke-width: 1.5; stroke-linecap: round"/>
   </g>
   <g id="text_21">
    <!-- 2 -->
    <g style="fill: #262626" transform="translate(374.96503 192.641094)scale(0.11 -0.11)">
     <use xlink:href="#DejaVuSans-32"/>
    </g>
   </g>
   <g id="line2d_28">
    <path d="M 344.16503 204.937031 
L 355.16503 204.937031 
L 366.16503 204.937031 
" style="fill: none; stroke: #6c3f70; stroke-width: 1.5; stroke-linecap: round"/>
   </g>
   <g id="text_22">
    <!-- 3 -->
    <g style="fill: #262626" transform="translate(374.96503 208.787031)scale(0.11 -0.11)">
     <use xlink:href="#DejaVuSans-33"/>
    </g>
   </g>
   <g id="line2d_29">
    <path d="M 344.16503 221.082969 
L 355.16503 221.082969 
L 366.16503 221.082969 
" style="fill: none; stroke: #2d1e3e; stroke-width: 1.5; stroke-linecap: round"/>
   </g>
   <g id="text_23">
    <!-- 4 -->
    <g style="fill: #262626" transform="translate(374.96503 224.932969)scale(0.11 -0.11)">
     <use xlink:href="#DejaVuSans-34"/>
    </g>
   </g>
  </g>
 </g>
 <defs>
  <clipPath id="p7487904832">
   <rect x="67.3075" y="22.318125" width="272.17008" height="296.82"/>
  </clipPath>
 </defs>
</svg>
