<?xml version="1.0" encoding="utf-8" standalone="no"?>
<!DOCTYPE svg PUBLIC "-//W3C//DTD SVG 1.1//EN"
  "http://www.w3.org/Graphics/SVG/1.1/DTD/svg11.dtd">
<svg xmlns:xlink="http://www.w3.org/1999/xlink" width="394.349835pt" height="362.097812pt" viewBox="0 0 394.349835 362.097812" xmlns="http://www.w3.org/2000/svg" version="1.1">
 <metadata>
  <rdf:RDF xmlns:dc="http://purl.org/dc/elements/1.1/" xmlns:cc="http://creativecommons.org/ns#" xmlns:rdf="http://www.w3.org/1999/02/22-rdf-syntax-ns#">
   <cc:Work>
    <dc:type rdf:resource="http://purl.org/dc/dcmitype/StillImage"/>
    <dc:date>2022-11-20T08:21:52.741931</dc:date>
    <dc:format>image/svg+xml</dc:format>
    <dc:creator>
     <cc:Agent>
      <dc:title>Matplotlib v3.5.2, https://matplotlib.org/</dc:title>
     </cc:Agent>
    </dc:creator>
   </cc:Work>
  </rdf:RDF>
 </metadata>
 <defs>
  <style type="text/css">*{stroke-linejoin: round; stroke-linecap: butt}</style>
 </defs>
 <g id="figure_1">
  <g id="patch_1">
   <path d="M 0 362.097812 
L 394.349835 362.097812 
L 394.349835 0 
L 0 0 
z
" style="fill: #ffffff"/>
  </g>
  <g id="axes_1">
   <g id="patch_2">
    <path d="M 46.31125 319.138125 
L 341.963635 319.138125 
L 341.963635 22.318125 
L 46.31125 22.318125 
z
" style="fill: #eaeaf2"/>
   </g>
   <g id="matplotlib.axis_1">
    <g id="xtick_1">
     <g id="line2d_1">
      <path d="M 59.749995 319.138125 
L 59.749995 22.318125 
" clip-path="url(#p32eefd90a5)" style="fill: none; stroke: #ffffff; stroke-linecap: round"/>
     </g>
     <g id="text_1">
      <!-- 0 -->
      <g style="fill: #262626" transform="translate(56.25062 336.996406)scale(0.11 -0.11)">
       <defs>
        <path id="DejaVuSans-30" d="M 2034 4250 
Q 1547 4250 1301 3770 
Q 1056 3291 1056 2328 
Q 1056 1369 1301 889 
Q 1547 409 2034 409 
Q 2525 409 2770 889 
Q 3016 1369 3016 2328 
Q 3016 3291 2770 3770 
Q 2525 4250 2034 4250 
z
M 2034 4750 
Q 2819 4750 3233 4129 
Q 3647 3509 3647 2328 
Q 3647 1150 3233 529 
Q 2819 -91 2034 -91 
Q 1250 -91 836 529 
Q 422 1150 422 2328 
Q 422 3509 836 4129 
Q 1250 4750 2034 4750 
z
" transform="scale(0.015625)"/>
       </defs>
       <use xlink:href="#DejaVuSans-30"/>
      </g>
     </g>
    </g>
    <g id="xtick_2">
     <g id="line2d_2">
      <path d="M 127.281376 319.138125 
L 127.281376 22.318125 
" clip-path="url(#p32eefd90a5)" style="fill: none; stroke: #ffffff; stroke-linecap: round"/>
     </g>
     <g id="text_2">
      <!-- 50 -->
      <g style="fill: #262626" transform="translate(120.282626 336.996406)scale(0.11 -0.11)">
       <defs>
        <path id="DejaVuSans-35" d="M 691 4666 
L 3169 4666 
L 3169 4134 
L 1269 4134 
L 1269 2991 
Q 1406 3038 1543 3061 
Q 1681 3084 1819 3084 
Q 2600 3084 3056 2656 
Q 3513 2228 3513 1497 
Q 3513 744 3044 326 
Q 2575 -91 1722 -91 
Q 1428 -91 1123 -41 
Q 819 9 494 109 
L 494 744 
Q 775 591 1075 516 
Q 1375 441 1709 441 
Q 2250 441 2565 725 
Q 2881 1009 2881 1497 
Q 2881 1984 2565 2268 
Q 2250 2553 1709 2553 
Q 1456 2553 1204 2497 
Q 953 2441 691 2322 
L 691 4666 
z
" transform="scale(0.015625)"/>
       </defs>
       <use xlink:href="#DejaVuSans-35"/>
       <use xlink:href="#DejaVuSans-30" x="63.623047"/>
      </g>
     </g>
    </g>
    <g id="xtick_3">
     <g id="line2d_3">
      <path d="M 194.812756 319.138125 
L 194.812756 22.318125 
" clip-path="url(#p32eefd90a5)" style="fill: none; stroke: #ffffff; stroke-linecap: round"/>
     </g>
     <g id="text_3">
      <!-- 100 -->
      <g style="fill: #262626" transform="translate(184.314631 336.996406)scale(0.11 -0.11)">
       <defs>
        <path id="DejaVuSans-31" d="M 794 531 
L 1825 531 
L 1825 4091 
L 703 3866 
L 703 4441 
L 1819 4666 
L 2450 4666 
L 2450 531 
L 3481 531 
L 3481 0 
L 794 0 
L 794 531 
z
" transform="scale(0.015625)"/>
       </defs>
       <use xlink:href="#DejaVuSans-31"/>
       <use xlink:href="#DejaVuSans-30" x="63.623047"/>
       <use xlink:href="#DejaVuSans-30" x="127.246094"/>
      </g>
     </g>
    </g>
    <g id="xtick_4">
     <g id="line2d_4">
      <path d="M 262.344137 319.138125 
L 262.344137 22.318125 
" clip-path="url(#p32eefd90a5)" style="fill: none; stroke: #ffffff; stroke-linecap: round"/>
     </g>
     <g id="text_4">
      <!-- 150 -->
      <g style="fill: #262626" transform="translate(251.846012 336.996406)scale(0.11 -0.11)">
       <use xlink:href="#DejaVuSans-31"/>
       <use xlink:href="#DejaVuSans-35" x="63.623047"/>
       <use xlink:href="#DejaVuSans-30" x="127.246094"/>
      </g>
     </g>
    </g>
    <g id="xtick_5">
     <g id="line2d_5">
      <path d="M 329.875518 319.138125 
L 329.875518 22.318125 
" clip-path="url(#p32eefd90a5)" style="fill: none; stroke: #ffffff; stroke-linecap: round"/>
     </g>
     <g id="text_5">
      <!-- 200 -->
      <g style="fill: #262626" transform="translate(319.377393 336.996406)scale(0.11 -0.11)">
       <defs>
        <path id="DejaVuSans-32" d="M 1228 531 
L 3431 531 
L 3431 0 
L 469 0 
L 469 531 
Q 828 903 1448 1529 
Q 2069 2156 2228 2338 
Q 2531 2678 2651 2914 
Q 2772 3150 2772 3378 
Q 2772 3750 2511 3984 
Q 2250 4219 1831 4219 
Q 1534 4219 1204 4116 
Q 875 4013 500 3803 
L 500 4441 
Q 881 4594 1212 4672 
Q 1544 4750 1819 4750 
Q 2544 4750 2975 4387 
Q 3406 4025 3406 3419 
Q 3406 3131 3298 2873 
Q 3191 2616 2906 2266 
Q 2828 2175 2409 1742 
Q 1991 1309 1228 531 
z
" transform="scale(0.015625)"/>
       </defs>
       <use xlink:href="#DejaVuSans-32"/>
       <use xlink:href="#DejaVuSans-30" x="63.623047"/>
       <use xlink:href="#DejaVuSans-30" x="127.246094"/>
      </g>
     </g>
    </g>
    <g id="text_6">
     <!-- Generation -->
     <g style="fill: #262626" transform="translate(160.66588 352.402187)scale(0.12 -0.12)">
      <defs>
       <path id="DejaVuSans-47" d="M 3809 666 
L 3809 1919 
L 2778 1919 
L 2778 2438 
L 4434 2438 
L 4434 434 
Q 4069 175 3628 42 
Q 3188 -91 2688 -91 
Q 1594 -91 976 548 
Q 359 1188 359 2328 
Q 359 3472 976 4111 
Q 1594 4750 2688 4750 
Q 3144 4750 3555 4637 
Q 3966 4525 4313 4306 
L 4313 3634 
Q 3963 3931 3569 4081 
Q 3175 4231 2741 4231 
Q 1884 4231 1454 3753 
Q 1025 3275 1025 2328 
Q 1025 1384 1454 906 
Q 1884 428 2741 428 
Q 3075 428 3337 486 
Q 3600 544 3809 666 
z
" transform="scale(0.015625)"/>
       <path id="DejaVuSans-65" d="M 3597 1894 
L 3597 1613 
L 953 1613 
Q 991 1019 1311 708 
Q 1631 397 2203 397 
Q 2534 397 2845 478 
Q 3156 559 3463 722 
L 3463 178 
Q 3153 47 2828 -22 
Q 2503 -91 2169 -91 
Q 1331 -91 842 396 
Q 353 884 353 1716 
Q 353 2575 817 3079 
Q 1281 3584 2069 3584 
Q 2775 3584 3186 3129 
Q 3597 2675 3597 1894 
z
M 3022 2063 
Q 3016 2534 2758 2815 
Q 2500 3097 2075 3097 
Q 1594 3097 1305 2825 
Q 1016 2553 972 2059 
L 3022 2063 
z
" transform="scale(0.015625)"/>
       <path id="DejaVuSans-6e" d="M 3513 2113 
L 3513 0 
L 2938 0 
L 2938 2094 
Q 2938 2591 2744 2837 
Q 2550 3084 2163 3084 
Q 1697 3084 1428 2787 
Q 1159 2491 1159 1978 
L 1159 0 
L 581 0 
L 581 3500 
L 1159 3500 
L 1159 2956 
Q 1366 3272 1645 3428 
Q 1925 3584 2291 3584 
Q 2894 3584 3203 3211 
Q 3513 2838 3513 2113 
z
" transform="scale(0.015625)"/>
       <path id="DejaVuSans-72" d="M 2631 2963 
Q 2534 3019 2420 3045 
Q 2306 3072 2169 3072 
Q 1681 3072 1420 2755 
Q 1159 2438 1159 1844 
L 1159 0 
L 581 0 
L 581 3500 
L 1159 3500 
L 1159 2956 
Q 1341 3275 1631 3429 
Q 1922 3584 2338 3584 
Q 2397 3584 2469 3576 
Q 2541 3569 2628 3553 
L 2631 2963 
z
" transform="scale(0.015625)"/>
       <path id="DejaVuSans-61" d="M 2194 1759 
Q 1497 1759 1228 1600 
Q 959 1441 959 1056 
Q 959 750 1161 570 
Q 1363 391 1709 391 
Q 2188 391 2477 730 
Q 2766 1069 2766 1631 
L 2766 1759 
L 2194 1759 
z
M 3341 1997 
L 3341 0 
L 2766 0 
L 2766 531 
Q 2569 213 2275 61 
Q 1981 -91 1556 -91 
Q 1019 -91 701 211 
Q 384 513 384 1019 
Q 384 1609 779 1909 
Q 1175 2209 1959 2209 
L 2766 2209 
L 2766 2266 
Q 2766 2663 2505 2880 
Q 2244 3097 1772 3097 
Q 1472 3097 1187 3025 
Q 903 2953 641 2809 
L 641 3341 
Q 956 3463 1253 3523 
Q 1550 3584 1831 3584 
Q 2591 3584 2966 3190 
Q 3341 2797 3341 1997 
z
" transform="scale(0.015625)"/>
       <path id="DejaVuSans-74" d="M 1172 4494 
L 1172 3500 
L 2356 3500 
L 2356 3053 
L 1172 3053 
L 1172 1153 
Q 1172 725 1289 603 
Q 1406 481 1766 481 
L 2356 481 
L 2356 0 
L 1766 0 
Q 1100 0 847 248 
Q 594 497 594 1153 
L 594 3053 
L 172 3053 
L 172 3500 
L 594 3500 
L 594 4494 
L 1172 4494 
z
" transform="scale(0.015625)"/>
       <path id="DejaVuSans-69" d="M 603 3500 
L 1178 3500 
L 1178 0 
L 603 0 
L 603 3500 
z
M 603 4863 
L 1178 4863 
L 1178 4134 
L 603 4134 
L 603 4863 
z
" transform="scale(0.015625)"/>
       <path id="DejaVuSans-6f" d="M 1959 3097 
Q 1497 3097 1228 2736 
Q 959 2375 959 1747 
Q 959 1119 1226 758 
Q 1494 397 1959 397 
Q 2419 397 2687 759 
Q 2956 1122 2956 1747 
Q 2956 2369 2687 2733 
Q 2419 3097 1959 3097 
z
M 1959 3584 
Q 2709 3584 3137 3096 
Q 3566 2609 3566 1747 
Q 3566 888 3137 398 
Q 2709 -91 1959 -91 
Q 1206 -91 779 398 
Q 353 888 353 1747 
Q 353 2609 779 3096 
Q 1206 3584 1959 3584 
z
" transform="scale(0.015625)"/>
      </defs>
      <use xlink:href="#DejaVuSans-47"/>
      <use xlink:href="#DejaVuSans-65" x="77.490234"/>
      <use xlink:href="#DejaVuSans-6e" x="139.013672"/>
      <use xlink:href="#DejaVuSans-65" x="202.392578"/>
      <use xlink:href="#DejaVuSans-72" x="263.916016"/>
      <use xlink:href="#DejaVuSans-61" x="305.029297"/>
      <use xlink:href="#DejaVuSans-74" x="366.308594"/>
      <use xlink:href="#DejaVuSans-69" x="405.517578"/>
      <use xlink:href="#DejaVuSans-6f" x="433.300781"/>
      <use xlink:href="#DejaVuSans-6e" x="494.482422"/>
     </g>
    </g>
   </g>
   <g id="matplotlib.axis_2">
    <g id="ytick_1">
     <g id="line2d_6">
      <path d="M 46.31125 293.645134 
L 341.963635 293.645134 
" clip-path="url(#p32eefd90a5)" style="fill: none; stroke: #ffffff; stroke-linecap: round"/>
     </g>
     <g id="text_7">
      <!-- 10 -->
      <g style="fill: #262626" transform="translate(22.81375 297.824275)scale(0.11 -0.11)">
       <use xlink:href="#DejaVuSans-31"/>
       <use xlink:href="#DejaVuSans-30" x="63.623047"/>
      </g>
     </g>
    </g>
    <g id="ytick_2">
     <g id="line2d_7">
      <path d="M 46.31125 229.638881 
L 341.963635 229.638881 
" clip-path="url(#p32eefd90a5)" style="fill: none; stroke: #ffffff; stroke-linecap: round"/>
     </g>
     <g id="text_8">
      <!-- 20 -->
      <g style="fill: #262626" transform="translate(22.81375 233.818021)scale(0.11 -0.11)">
       <use xlink:href="#DejaVuSans-32"/>
       <use xlink:href="#DejaVuSans-30" x="63.623047"/>
      </g>
     </g>
    </g>
    <g id="ytick_3">
     <g id="line2d_8">
      <path d="M 46.31125 165.632627 
L 341.963635 165.632627 
" clip-path="url(#p32eefd90a5)" style="fill: none; stroke: #ffffff; stroke-linecap: round"/>
     </g>
     <g id="text_9">
      <!-- 30 -->
      <g style="fill: #262626" transform="translate(22.81375 169.811768)scale(0.11 -0.11)">
       <defs>
        <path id="DejaVuSans-33" d="M 2597 2516 
Q 3050 2419 3304 2112 
Q 3559 1806 3559 1356 
Q 3559 666 3084 287 
Q 2609 -91 1734 -91 
Q 1441 -91 1130 -33 
Q 819 25 488 141 
L 488 750 
Q 750 597 1062 519 
Q 1375 441 1716 441 
Q 2309 441 2620 675 
Q 2931 909 2931 1356 
Q 2931 1769 2642 2001 
Q 2353 2234 1838 2234 
L 1294 2234 
L 1294 2753 
L 1863 2753 
Q 2328 2753 2575 2939 
Q 2822 3125 2822 3475 
Q 2822 3834 2567 4026 
Q 2313 4219 1838 4219 
Q 1578 4219 1281 4162 
Q 984 4106 628 3988 
L 628 4550 
Q 988 4650 1302 4700 
Q 1616 4750 1894 4750 
Q 2613 4750 3031 4423 
Q 3450 4097 3450 3541 
Q 3450 3153 3228 2886 
Q 3006 2619 2597 2516 
z
" transform="scale(0.015625)"/>
       </defs>
       <use xlink:href="#DejaVuSans-33"/>
       <use xlink:href="#DejaVuSans-30" x="63.623047"/>
      </g>
     </g>
    </g>
    <g id="ytick_4">
     <g id="line2d_9">
      <path d="M 46.31125 101.626374 
L 341.963635 101.626374 
" clip-path="url(#p32eefd90a5)" style="fill: none; stroke: #ffffff; stroke-linecap: round"/>
     </g>
     <g id="text_10">
      <!-- 40 -->
      <g style="fill: #262626" transform="translate(22.81375 105.805514)scale(0.11 -0.11)">
       <defs>
        <path id="DejaVuSans-34" d="M 2419 4116 
L 825 1625 
L 2419 1625 
L 2419 4116 
z
M 2253 4666 
L 3047 4666 
L 3047 1625 
L 3713 1625 
L 3713 1100 
L 3047 1100 
L 3047 0 
L 2419 0 
L 2419 1100 
L 313 1100 
L 313 1709 
L 2253 4666 
z
" transform="scale(0.015625)"/>
       </defs>
       <use xlink:href="#DejaVuSans-34"/>
       <use xlink:href="#DejaVuSans-30" x="63.623047"/>
      </g>
     </g>
    </g>
    <g id="ytick_5">
     <g id="line2d_10">
      <path d="M 46.31125 37.62012 
L 341.963635 37.62012 
" clip-path="url(#p32eefd90a5)" style="fill: none; stroke: #ffffff; stroke-linecap: round"/>
     </g>
     <g id="text_11">
      <!-- 50 -->
      <g style="fill: #262626" transform="translate(22.81375 41.799261)scale(0.11 -0.11)">
       <use xlink:href="#DejaVuSans-35"/>
       <use xlink:href="#DejaVuSans-30" x="63.623047"/>
      </g>
     </g>
    </g>
    <g id="text_12">
     <!-- Fitness -->
     <g style="fill: #262626" transform="translate(16.318125 191.50875)rotate(-90)scale(0.12 -0.12)">
      <defs>
       <path id="DejaVuSans-46" d="M 628 4666 
L 3309 4666 
L 3309 4134 
L 1259 4134 
L 1259 2759 
L 3109 2759 
L 3109 2228 
L 1259 2228 
L 1259 0 
L 628 0 
L 628 4666 
z
" transform="scale(0.015625)"/>
       <path id="DejaVuSans-73" d="M 2834 3397 
L 2834 2853 
Q 2591 2978 2328 3040 
Q 2066 3103 1784 3103 
Q 1356 3103 1142 2972 
Q 928 2841 928 2578 
Q 928 2378 1081 2264 
Q 1234 2150 1697 2047 
L 1894 2003 
Q 2506 1872 2764 1633 
Q 3022 1394 3022 966 
Q 3022 478 2636 193 
Q 2250 -91 1575 -91 
Q 1294 -91 989 -36 
Q 684 19 347 128 
L 347 722 
Q 666 556 975 473 
Q 1284 391 1588 391 
Q 1994 391 2212 530 
Q 2431 669 2431 922 
Q 2431 1156 2273 1281 
Q 2116 1406 1581 1522 
L 1381 1569 
Q 847 1681 609 1914 
Q 372 2147 372 2553 
Q 372 3047 722 3315 
Q 1072 3584 1716 3584 
Q 2034 3584 2315 3537 
Q 2597 3491 2834 3397 
z
" transform="scale(0.015625)"/>
      </defs>
      <use xlink:href="#DejaVuSans-46"/>
      <use xlink:href="#DejaVuSans-69" x="50.269531"/>
      <use xlink:href="#DejaVuSans-74" x="78.052734"/>
      <use xlink:href="#DejaVuSans-6e" x="117.261719"/>
      <use xlink:href="#DejaVuSans-65" x="180.640625"/>
      <use xlink:href="#DejaVuSans-73" x="242.164062"/>
      <use xlink:href="#DejaVuSans-73" x="294.263672"/>
     </g>
    </g>
   </g>
   <g id="PolyCollection_1">
    <defs>
     <path id="m5fb7e3606d" d="M 59.749995 -155.861218 
L 59.749995 -79.653773 
L 61.100622 -171.257723 
L 62.45125 -177.243307 
L 63.801878 -200.060537 
L 65.152505 -187.864345 
L 66.503133 -192.454794 
L 67.85376 -216.26712 
L 69.204388 -217.667257 
L 70.555016 -209.056416 
L 71.905643 -206.856201 
L 73.256271 -192.459794 
L 74.606899 -193.664912 
L 75.957526 -189.464501 
L 77.308154 -186.059169 
L 78.658781 -179.853562 
L 80.009409 -206.651181 
L 81.360037 -179.058485 
L 82.710664 -210.266534 
L 84.061292 -174.253015 
L 85.411919 -179.023481 
L 86.762547 -187.839343 
L 88.113175 -201.265654 
L 89.463802 -210.661572 
L 90.81443 -215.062002 
L 92.165058 -193.659911 
L 93.515685 -196.060146 
L 94.866313 -172.657859 
L 96.21694 -202.260752 
L 97.567568 -198.260361 
L 98.918196 -195.065049 
L 100.268823 -234.068859 
L 101.619451 -182.648835 
L 102.970078 -206.856201 
L 104.320706 -206.661182 
L 105.671334 -225.663038 
L 107.021961 -209.066417 
L 108.372589 -227.658233 
L 109.723217 -196.460185 
L 111.073844 -203.860908 
L 112.424472 -230.253487 
L 113.775099 -192.459794 
L 115.125727 -205.666084 
L 116.476355 -190.454598 
L 117.826982 -215.262022 
L 119.17761 -185.854149 
L 120.528237 -175.263114 
L 121.878865 -219.267413 
L 123.229493 -201.260654 
L 124.58012 -188.264384 
L 125.930748 -196.060146 
L 127.281376 -182.853855 
L 128.632003 -186.644226 
L 129.982631 -199.865518 
L 131.333258 -189.034459 
L 132.683886 -225.267999 
L 134.034514 -192.454794 
L 135.385141 -207.05622 
L 136.735769 -200.455575 
L 138.086396 -186.659227 
L 139.437024 -179.258504 
L 140.787652 -184.053973 
L 142.138279 -202.85581 
L 143.488907 -208.861396 
L 144.839535 -208.266338 
L 146.190162 -200.860615 
L 147.54079 -205.261045 
L 148.891417 -184.864052 
L 150.242045 -195.260068 
L 151.592673 -198.060341 
L 152.9433 -196.865224 
L 154.293928 -199.855517 
L 155.644555 -197.660302 
L 156.995183 -204.260947 
L 158.345811 -217.862276 
L 159.696438 -217.857275 
L 161.047066 -199.055438 
L 162.397694 -199.860517 
L 163.748321 -208.461357 
L 165.098949 -197.060243 
L 166.449576 -210.856591 
L 167.800204 -239.264367 
L 169.150832 -212.061709 
L 170.501459 -162.861902 
L 171.852087 -201.655692 
L 173.202714 -194.064951 
L 174.553342 -187.254285 
L 175.90397 -213.466846 
L 177.254597 -193.464892 
L 178.605225 -206.661182 
L 179.955853 -202.065733 
L 181.30648 -193.859931 
L 182.657108 -190.464599 
L 184.007735 -190.06456 
L 185.358363 -202.260752 
L 186.708991 -215.45204 
L 188.059618 -179.848562 
L 189.410246 -172.057801 
L 190.760873 -195.250067 
L 192.111501 -199.465478 
L 193.462129 -214.261924 
L 194.812756 -211.66167 
L 196.163384 -205.261045 
L 197.514012 -214.461944 
L 198.864639 -192.459794 
L 200.215267 -192.664814 
L 201.565894 -211.666671 
L 202.916522 -194.254969 
L 204.26715 -229.258389 
L 205.617777 -184.464013 
L 206.968405 -219.062393 
L 208.319032 -186.259188 
L 209.66966 -190.06456 
L 211.020288 -228.058272 
L 212.370915 -210.261533 
L 213.721543 -232.058663 
L 215.072171 -221.262608 
L 216.422798 -182.848855 
L 217.773426 -196.065146 
L 219.124053 -194.860029 
L 220.474681 -209.656474 
L 221.825309 -202.060732 
L 223.175936 -191.459696 
L 224.526564 -180.858661 
L 225.877191 -209.666475 
L 227.227819 -206.261142 
L 228.578447 -208.451356 
L 229.929074 -217.847274 
L 231.279702 -192.064755 
L 232.63033 -173.862977 
L 233.980957 -196.855223 
L 235.331585 -201.860712 
L 236.682212 -196.665205 
L 238.03284 -194.454989 
L 239.383468 -192.659814 
L 240.734095 -215.267022 
L 242.084723 -222.867765 
L 243.43535 -210.066514 
L 244.785978 -186.664228 
L 246.136606 -199.245457 
L 247.487233 -192.864834 
L 248.837861 -201.055634 
L 250.188489 -185.25909 
L 251.539116 -210.666573 
L 252.889744 -213.461846 
L 254.240371 -214.661963 
L 255.590999 -202.465772 
L 256.941627 -215.267022 
L 258.292254 -172.062801 
L 259.642882 -194.660009 
L 260.993509 -223.662843 
L 262.344137 -212.061709 
L 263.694765 -213.851884 
L 265.045392 -192.249773 
L 266.39602 -183.438913 
L 267.746648 -171.057703 
L 269.097275 -174.858074 
L 270.447903 -193.254872 
L 271.79853 -195.860126 
L 273.149158 -216.657158 
L 274.499786 -195.660107 
L 275.850413 -199.660498 
L 277.201041 -219.252412 
L 278.551668 -192.259774 
L 279.902296 -227.268195 
L 281.252924 -197.850321 
L 282.603551 -194.860029 
L 283.954179 -176.253211 
L 285.304807 -201.860712 
L 286.655434 -187.054266 
L 288.006062 -200.060537 
L 289.356689 -197.265264 
L 290.707317 -206.866202 
L 292.057945 -204.831003 
L 293.408572 -188.864443 
L 294.7592 -191.449695 
L 296.109827 -204.861006 
L 297.460455 -244.459875 
L 298.811083 -218.267315 
L 300.16171 -201.865713 
L 301.512338 -182.458817 
L 302.862966 -213.051806 
L 304.213593 -179.658543 
L 305.564221 -210.261533 
L 306.914848 -211.461651 
L 308.265476 -203.855907 
L 309.616104 -196.860224 
L 310.966731 -205.061025 
L 312.317359 -196.450184 
L 313.667986 -194.439987 
L 315.018614 -211.261631 
L 316.369242 -213.466846 
L 317.719869 -208.066319 
L 319.070497 -209.861494 
L 320.421125 -200.060537 
L 321.771752 -220.252509 
L 323.12238 -199.255458 
L 324.473007 -221.667648 
L 325.823635 -203.26585 
L 327.174263 -194.660009 
L 328.52489 -206.266143 
L 328.52489 -258.271224 
L 328.52489 -258.271224 
L 327.174263 -267.487124 
L 325.823635 -260.676459 
L 324.473007 -294.084723 
L 323.12238 -265.08689 
L 321.771752 -294.289743 
L 320.421125 -254.880893 
L 319.070497 -280.678413 
L 317.719869 -262.081596 
L 316.369242 -283.278667 
L 315.018614 -284.083746 
L 313.667986 -268.287203 
L 312.317359 -264.486831 
L 310.966731 -260.871478 
L 309.616104 -253.105719 
L 308.265476 -271.282495 
L 306.914848 -284.078745 
L 305.564221 -274.872846 
L 304.213593 -245.479974 
L 302.862966 -282.883629 
L 301.512338 -240.674505 
L 300.16171 -280.283375 
L 298.811083 -293.479664 
L 297.460455 -313.2916 
L 296.109827 -276.478003 
L 294.7592 -259.276322 
L 293.408572 -248.080228 
L 292.057945 -275.687926 
L 290.707317 -278.883238 
L 289.356689 -285.328868 
L 288.006062 -268.87226 
L 286.655434 -236.474094 
L 285.304807 -253.480756 
L 283.954179 -239.469387 
L 282.603551 -248.280248 
L 281.252924 -272.692633 
L 279.902296 -294.319746 
L 278.551668 -268.077182 
L 277.201041 -301.080406 
L 275.850413 -259.476342 
L 274.499786 -253.690776 
L 273.149158 -285.678902 
L 271.79853 -262.471634 
L 270.447903 -243.074739 
L 269.097275 -238.27427 
L 267.746648 -238.67931 
L 266.39602 -259.676361 
L 265.045392 -244.869915 
L 263.694765 -269.107283 
L 262.344137 -279.673315 
L 260.993509 -293.674683 
L 259.642882 -243.674798 
L 258.292254 -230.893549 
L 256.941627 -266.877065 
L 255.590999 -264.696852 
L 254.240371 -268.502224 
L 252.889744 -274.882847 
L 251.539116 -275.287887 
L 250.188489 -244.299859 
L 248.837861 -265.276908 
L 247.487233 -250.075423 
L 246.136606 -267.082085 
L 244.785978 -263.476733 
L 243.43535 -266.472025 
L 242.084723 -309.09619 
L 240.734095 -285.098845 
L 239.383468 -260.671458 
L 238.03284 -245.870012 
L 236.682212 -254.270833 
L 235.331585 -259.681362 
L 233.980957 -254.875892 
L 232.63033 -237.079153 
L 231.279702 -252.470657 
L 229.929074 -298.890193 
L 228.578447 -272.677631 
L 227.227819 -277.87814 
L 225.877191 -265.891968 
L 224.526564 -231.283587 
L 223.175936 -275.087867 
L 221.825309 -275.677925 
L 220.474681 -289.289254 
L 219.124053 -262.076596 
L 217.773426 -257.676166 
L 216.422798 -238.669309 
L 215.072171 -297.685075 
L 213.721543 -299.295232 
L 212.370915 -281.098454 
L 211.020288 -297.480055 
L 209.66966 -245.669993 
L 208.319032 -241.069543 
L 206.968405 -289.894314 
L 205.617777 -245.074935 
L 204.26715 -277.278081 
L 202.916522 -271.872553 
L 201.565894 -265.676947 
L 200.215267 -250.870501 
L 198.864639 -269.872357 
L 197.514012 -287.08904 
L 196.163384 -265.676947 
L 194.812756 -278.883238 
L 193.462129 -271.072475 
L 192.111501 -270.682437 
L 190.760873 -261.276518 
L 189.410246 -228.678333 
L 188.059618 -238.06925 
L 186.708991 -281.87353 
L 185.358363 -263.691754 
L 184.007735 -251.07052 
L 182.657108 -272.277592 
L 181.30648 -274.282788 
L 179.955853 -257.876185 
L 178.605225 -278.873237 
L 177.254597 -255.085913 
L 175.90397 -283.478687 
L 174.553342 -253.485756 
L 173.202714 -261.681557 
L 171.852087 -277.688121 
L 170.501459 -223.472824 
L 169.150832 -270.272396 
L 167.800204 -309.681247 
L 166.449576 -270.082378 
L 165.098949 -264.67685 
L 163.748321 -281.083453 
L 162.397694 -280.483394 
L 161.047066 -251.470559 
L 159.696438 -287.679097 
L 158.345811 -285.103846 
L 156.995183 -287.919121 
L 155.644555 -250.480463 
L 154.293928 -274.077768 
L 152.9433 -257.671165 
L 151.592673 -269.872357 
L 150.242045 -251.295542 
L 148.891417 -252.475658 
L 147.54079 -265.286909 
L 146.190162 -260.671458 
L 144.839535 -265.476928 
L 143.488907 -273.877749 
L 142.138279 -279.273276 
L 140.787652 -266.872064 
L 139.437024 -242.074641 
L 138.086396 -255.080912 
L 136.735769 -264.286812 
L 135.385141 -276.693024 
L 134.034514 -254.075814 
L 132.683886 -303.485641 
L 131.333258 -240.469485 
L 129.982631 -260.476439 
L 128.632003 -241.269563 
L 127.281376 -247.27515 
L 125.930748 -255.090913 
L 124.58012 -238.67931 
L 123.229493 -278.078159 
L 121.878865 -283.678706 
L 120.528237 -242.079642 
L 119.17761 -241.879622 
L 117.826982 -282.48359 
L 116.476355 -251.68058 
L 115.125727 -255.680971 
L 113.775099 -250.685483 
L 112.424472 -297.685075 
L 111.073844 -265.676947 
L 109.723217 -261.291519 
L 108.372589 -294.084723 
L 107.021961 -279.073256 
L 105.671334 -277.4781 
L 104.320706 -268.272201 
L 102.970078 -280.098356 
L 101.619451 -229.078372 
L 100.268823 -297.885094 
L 98.918196 -254.680873 
L 97.567568 -255.070911 
L 96.21694 -274.472807 
L 94.866313 -237.474192 
L 93.515685 -262.476635 
L 92.165058 -264.88187 
L 90.81443 -298.910194 
L 89.463802 -281.678511 
L 88.113175 -258.081205 
L 86.762547 -246.67009 
L 85.411919 -235.679017 
L 84.061292 -242.084642 
L 82.710664 -265.681948 
L 81.360037 -228.473313 
L 80.009409 -277.87814 
L 78.658781 -243.669797 
L 77.308154 -244.674896 
L 75.957526 -251.875599 
L 74.606899 -251.8806 
L 73.256271 -248.085229 
L 71.905643 -262.271615 
L 70.555016 -265.871967 
L 69.204388 -283.473686 
L 67.85376 -269.087281 
L 66.503133 -263.276713 
L 65.152505 -251.875599 
L 63.801878 -267.877162 
L 62.45125 -240.294468 
L 61.100622 -245.474974 
L 59.749995 -155.861218 
z
" style="stroke: #edd1cb; stroke-opacity: 0.2"/>
    </defs>
    <g clip-path="url(#p32eefd90a5)">
     <use xlink:href="#m5fb7e3606d" x="0" y="362.097812" style="fill: #edd1cb; fill-opacity: 0.2; stroke: #edd1cb; stroke-opacity: 0.2"/>
    </g>
   </g>
   <g id="PolyCollection_2">
    <defs>
     <path id="m1218d169d9" d="M 59.749995 -113.857114 
L 59.749995 -56.451506 
L 61.100622 -145.055162 
L 62.45125 -176.843268 
L 63.801878 -195.865127 
L 65.152505 -174.263016 
L 66.503133 -174.458035 
L 67.85376 -221.662647 
L 69.204388 -167.457351 
L 70.555016 -186.254188 
L 71.905643 -195.455087 
L 73.256271 -199.060439 
L 74.606899 -189.65452 
L 75.957526 -183.058876 
L 77.308154 -171.647761 
L 78.658781 -203.06083 
L 80.009409 -207.66628 
L 81.360037 -203.660888 
L 82.710664 -220.662549 
L 84.061292 -208.861396 
L 85.411919 -209.651474 
L 86.762547 -190.849637 
L 88.113175 -204.265947 
L 89.463802 -207.46126 
L 90.81443 -185.464111 
L 92.165058 -202.460771 
L 93.515685 -205.061025 
L 94.866313 -184.454012 
L 96.21694 -214.051904 
L 97.567568 -224.462921 
L 98.918196 -196.655204 
L 100.268823 -223.662843 
L 101.619451 -202.865811 
L 102.970078 -221.062589 
L 104.320706 -199.045437 
L 105.671334 -197.855321 
L 107.021961 -202.865811 
L 108.372589 -215.262022 
L 109.723217 -173.662958 
L 111.073844 -202.45077 
L 112.424472 -187.459305 
L 113.775099 -202.85581 
L 115.125727 -195.865127 
L 116.476355 -215.262022 
L 117.826982 -195.250067 
L 119.17761 -201.060634 
L 120.528237 -197.260263 
L 121.878865 -198.46038 
L 123.229493 -220.062491 
L 124.58012 -189.059462 
L 125.930748 -217.657256 
L 127.281376 -210.861592 
L 128.632003 -217.462237 
L 129.982631 -195.860126 
L 131.333258 -180.653641 
L 132.683886 -221.657647 
L 134.034514 -165.857195 
L 135.385141 -204.465967 
L 136.735769 -199.455478 
L 138.086396 -201.265654 
L 139.437024 -219.067394 
L 140.787652 -202.665791 
L 142.138279 -195.060048 
L 143.488907 -210.036511 
L 144.839535 -194.26497 
L 146.190162 -203.055829 
L 147.54079 -175.438131 
L 148.891417 -190.459599 
L 150.242045 -181.05868 
L 151.592673 -213.056806 
L 152.9433 -200.855614 
L 154.293928 -205.256044 
L 155.644555 -217.467237 
L 156.995183 -213.651865 
L 158.345811 -209.266436 
L 159.696438 -211.061611 
L 161.047066 -202.865811 
L 162.397694 -198.265361 
L 163.748321 -174.663055 
L 165.098949 -204.260947 
L 166.449576 -204.260947 
L 167.800204 -189.054461 
L 169.150832 -211.261631 
L 170.501459 -200.860615 
L 171.852087 -219.662452 
L 173.202714 -192.459794 
L 174.553342 -203.860908 
L 175.90397 -217.667257 
L 177.254597 -192.839831 
L 178.605225 -223.062784 
L 179.955853 -208.456357 
L 181.30648 -190.664619 
L 182.657108 -214.661963 
L 184.007735 -221.662647 
L 185.358363 -173.857977 
L 186.708991 -182.653836 
L 188.059618 -199.460478 
L 189.410246 -215.467042 
L 190.760873 -185.859149 
L 192.111501 -199.065439 
L 193.462129 -199.655497 
L 194.812756 -222.267706 
L 196.163384 -165.057117 
L 197.514012 -211.66167 
L 198.864639 -184.649031 
L 200.215267 -197.260263 
L 201.565894 -197.820318 
L 202.916522 -215.867081 
L 204.26715 -200.655595 
L 205.617777 -218.262315 
L 206.968405 -196.860224 
L 208.319032 -187.839343 
L 209.66966 -177.653347 
L 211.020288 -210.461553 
L 212.370915 -207.05622 
L 213.721543 -207.66628 
L 215.072171 -198.6604 
L 216.422798 -211.461651 
L 217.773426 -184.258993 
L 219.124053 -214.656963 
L 220.474681 -225.663038 
L 221.825309 -199.265459 
L 223.175936 -207.26124 
L 224.526564 -199.465478 
L 225.877191 -191.459696 
L 227.227819 -221.062589 
L 228.578447 -199.060439 
L 229.929074 -188.059364 
L 231.279702 -218.662354 
L 232.63033 -163.851999 
L 233.980957 -214.051904 
L 235.331585 -229.868449 
L 236.682212 -242.46468 
L 238.03284 -205.861103 
L 239.383468 -198.655399 
L 240.734095 -212.446747 
L 242.084723 -215.462041 
L 243.43535 -193.85493 
L 244.785978 -180.863661 
L 246.136606 -212.861787 
L 247.487233 -196.665205 
L 248.837861 -225.468019 
L 250.188489 -215.462041 
L 251.539116 -187.254285 
L 252.889744 -200.255556 
L 254.240371 -177.658348 
L 255.590999 -198.650399 
L 256.941627 -202.065733 
L 258.292254 -179.858563 
L 259.642882 -214.066905 
L 260.993509 -200.640593 
L 262.344137 -202.265752 
L 263.694765 -220.062491 
L 265.045392 -211.261631 
L 266.39602 -170.662664 
L 267.746648 -205.456064 
L 269.097275 -186.064169 
L 270.447903 -211.261631 
L 271.79853 -198.860419 
L 273.149158 -189.064462 
L 274.499786 -169.857586 
L 275.850413 -203.250848 
L 277.201041 -193.864931 
L 278.551668 -149.84063 
L 279.902296 -177.453328 
L 281.252924 -189.85954 
L 282.603551 -192.864834 
L 283.954179 -202.65079 
L 285.304807 -221.657647 
L 286.655434 -200.655595 
L 288.006062 -225.042977 
L 289.356689 -206.866202 
L 290.707317 -176.85827 
L 292.057945 -209.261436 
L 293.408572 -197.860322 
L 294.7592 -180.863661 
L 296.109827 -178.653445 
L 297.460455 -189.664521 
L 298.811083 -185.834147 
L 300.16171 -207.856298 
L 301.512338 -243.269758 
L 302.862966 -204.060927 
L 304.213593 -222.242704 
L 305.564221 -198.45538 
L 306.914848 -221.252607 
L 308.265476 -185.644128 
L 309.616104 -187.454305 
L 310.966731 -208.846395 
L 312.317359 -203.06583 
L 313.667986 -208.861396 
L 315.018614 -227.868253 
L 316.369242 -214.461944 
L 317.719869 -198.46038 
L 319.070497 -185.859149 
L 320.421125 -204.060927 
L 321.771752 -206.256142 
L 323.12238 -230.458507 
L 324.473007 -198.465381 
L 325.823635 -211.856689 
L 327.174263 -194.26497 
L 328.52489 -206.861201 
L 328.52489 -274.277788 
L 328.52489 -274.277788 
L 327.174263 -253.075716 
L 325.823635 -272.492613 
L 324.473007 -251.68058 
L 323.12238 -287.484078 
L 321.771752 -268.487222 
L 320.421125 -269.472318 
L 319.070497 -246.480072 
L 317.719869 -259.87138 
L 316.369242 -286.27396 
L 315.018614 -285.478882 
L 313.667986 -278.673217 
L 312.317359 -257.891187 
L 310.966731 -270.672436 
L 309.616104 -264.27181 
L 308.265476 -251.470559 
L 306.914848 -292.884606 
L 305.564221 -250.670481 
L 304.213593 -282.678609 
L 302.862966 -264.071791 
L 301.512338 -298.485153 
L 300.16171 -259.476342 
L 298.811083 -243.869817 
L 297.460455 -244.874915 
L 296.109827 -240.294468 
L 294.7592 -246.080033 
L 293.408572 -255.870989 
L 292.057945 -278.483199 
L 290.707317 -227.088177 
L 289.356689 -271.877553 
L 288.006062 -295.679879 
L 286.655434 -251.27054 
L 285.304807 -301.280426 
L 283.954179 -278.078159 
L 282.603551 -257.686167 
L 281.252924 -262.076596 
L 279.902296 -236.074055 
L 278.551668 -207.866299 
L 277.201041 -232.868742 
L 275.850413 -255.67597 
L 274.499786 -229.873449 
L 273.149158 -246.075032 
L 271.79853 -256.476049 
L 270.447903 -270.672436 
L 269.097275 -251.47556 
L 267.746648 -266.872064 
L 266.39602 -223.667843 
L 265.045392 -298.275132 
L 263.694765 -261.871576 
L 262.344137 -245.069934 
L 260.993509 -258.696265 
L 259.642882 -276.272983 
L 258.292254 -237.674212 
L 256.941627 -269.092281 
L 255.590999 -254.080815 
L 254.240371 -236.274075 
L 252.889744 -256.676068 
L 251.539116 -237.874231 
L 250.188489 -271.472514 
L 248.837861 -293.474663 
L 247.487233 -241.674602 
L 246.136606 -264.67685 
L 244.785978 -232.268683 
L 243.43535 -258.686264 
L 242.084723 -274.277788 
L 240.734095 -258.481244 
L 239.383468 -244.469876 
L 238.03284 -263.076693 
L 236.682212 -299.48025 
L 235.331585 -278.283179 
L 233.980957 -278.483199 
L 232.63033 -231.868644 
L 231.279702 -275.697927 
L 229.929074 -245.274954 
L 228.578447 -265.676947 
L 227.227819 -281.87853 
L 225.877191 -253.475755 
L 224.526564 -243.074739 
L 223.175936 -262.481635 
L 221.825309 -256.476049 
L 220.474681 -292.474566 
L 219.124053 -291.679488 
L 217.773426 -244.074837 
L 216.422798 -266.277006 
L 215.072171 -277.073061 
L 213.721543 -273.27269 
L 212.370915 -258.671263 
L 211.020288 -268.472221 
L 209.66966 -241.074544 
L 208.319032 -264.67685 
L 206.968405 -250.470462 
L 205.617777 -267.272103 
L 204.26715 -282.478589 
L 202.916522 -280.278374 
L 201.565894 -264.871869 
L 200.215267 -277.693121 
L 198.864639 -261.496539 
L 197.514012 -297.090017 
L 196.163384 -221.672648 
L 194.812756 -285.878921 
L 193.462129 -265.096891 
L 192.111501 -255.270931 
L 190.760873 -252.470657 
L 189.410246 -295.07482 
L 188.059618 -258.086206 
L 186.708991 -250.475462 
L 185.358363 -245.274954 
L 184.007735 -279.278276 
L 182.657108 -264.68185 
L 181.30648 -262.276615 
L 179.955853 -280.283375 
L 178.605225 -271.072475 
L 177.254597 -252.680678 
L 175.90397 -286.884019 
L 174.553342 -256.476049 
L 173.202714 -250.470462 
L 171.852087 -303.88068 
L 170.501459 -261.676557 
L 169.150832 -261.671556 
L 167.800204 -245.274954 
L 166.449576 -272.277592 
L 165.098949 -263.476733 
L 163.748321 -227.678235 
L 162.397694 -258.676264 
L 161.047066 -254.075814 
L 159.696438 -277.27308 
L 158.345811 -271.477514 
L 156.995183 -270.677436 
L 155.644555 -271.677534 
L 154.293928 -278.90324 
L 152.9433 -266.477026 
L 151.592673 -277.873139 
L 150.242045 -229.868449 
L 148.891417 -244.469876 
L 147.54079 -250.075423 
L 146.190162 -254.875892 
L 144.839535 -246.075032 
L 143.488907 -276.708025 
L 142.138279 -243.874817 
L 140.787652 -265.886968 
L 139.437024 -290.084332 
L 138.086396 -268.472221 
L 136.735769 -267.272103 
L 135.385141 -258.271224 
L 134.034514 -228.268293 
L 132.683886 -290.074331 
L 131.333258 -234.678919 
L 129.982631 -253.680775 
L 128.632003 -268.082182 
L 127.281376 -272.687632 
L 125.930748 -285.473882 
L 124.58012 -263.081694 
L 123.229493 -279.278276 
L 121.878865 -256.871087 
L 120.528237 -268.072182 
L 119.17761 -261.281518 
L 117.826982 -269.482319 
L 116.476355 -284.083746 
L 115.125727 -265.476928 
L 113.775099 -279.098259 
L 112.424472 -238.279271 
L 111.073844 -262.686655 
L 109.723217 -230.668527 
L 108.372589 -294.079723 
L 107.021961 -270.872455 
L 105.671334 -275.072865 
L 104.320706 -258.876283 
L 102.970078 -283.878726 
L 101.619451 -261.881577 
L 100.268823 -281.87353 
L 98.918196 -264.876869 
L 97.567568 -290.67939 
L 96.21694 -284.278765 
L 94.866313 -252.675677 
L 93.515685 -267.892164 
L 92.165058 -253.675775 
L 90.81443 -237.269172 
L 89.463802 -261.871576 
L 88.113175 -278.078159 
L 86.762547 -267.277104 
L 85.411919 -256.886089 
L 84.061292 -270.672436 
L 82.710664 -276.272983 
L 81.360037 -282.878628 
L 80.009409 -277.873139 
L 78.658781 -258.471243 
L 77.308154 -223.267804 
L 75.957526 -237.274172 
L 74.606899 -243.874817 
L 73.256271 -257.076107 
L 71.905643 -255.870989 
L 70.555016 -240.269465 
L 69.204388 -219.672453 
L 67.85376 -293.284645 
L 66.503133 -240.669504 
L 65.152505 -241.869621 
L 63.801878 -264.276811 
L 62.45125 -254.680873 
L 61.100622 -206.871202 
L 59.749995 -113.857114 
z
" style="stroke: #d499a7; stroke-opacity: 0.2"/>
    </defs>
    <g clip-path="url(#p32eefd90a5)">
     <use xlink:href="#m1218d169d9" x="0" y="362.097812" style="fill: #d499a7; fill-opacity: 0.2; stroke: #d499a7; stroke-opacity: 0.2"/>
    </g>
   </g>
   <g id="PolyCollection_3">
    <defs>
     <path id="m1c7ce762d0" d="M 59.749995 -159.861609 
L 59.749995 -72.653089 
L 61.100622 -164.457058 
L 62.45125 -174.458035 
L 63.801878 -158.056433 
L 65.152505 -148.855534 
L 66.503133 -165.257136 
L 67.85376 -175.463133 
L 69.204388 -209.066417 
L 70.555016 -183.858954 
L 71.905643 -215.667061 
L 73.256271 -180.263602 
L 74.606899 -205.466065 
L 75.957526 -170.262625 
L 77.308154 -177.653347 
L 78.658781 -184.664032 
L 80.009409 -205.861103 
L 81.360037 -219.057393 
L 82.710664 -169.462547 
L 84.061292 -198.86542 
L 85.411919 -219.467433 
L 86.762547 -181.848757 
L 88.113175 -228.863351 
L 89.463802 -226.263097 
L 90.81443 -204.055927 
L 92.165058 -192.649813 
L 93.515685 -201.660693 
L 94.866313 -204.866006 
L 96.21694 -169.662567 
L 97.567568 -242.069641 
L 98.918196 -218.467335 
L 100.268823 -196.465185 
L 101.619451 -188.659423 
L 102.970078 -202.455771 
L 104.320706 -200.450575 
L 105.671334 -208.661377 
L 107.021961 -201.465674 
L 108.372589 -204.255947 
L 109.723217 -181.663739 
L 111.073844 -206.066123 
L 112.424472 -190.454598 
L 113.775099 -190.649617 
L 115.125727 -202.660791 
L 116.476355 -226.058077 
L 117.826982 -190.049559 
L 119.17761 -222.257705 
L 120.528237 -215.632058 
L 121.878865 -197.065244 
L 123.229493 -242.6697 
L 124.58012 -195.060048 
L 125.930748 -235.869035 
L 127.281376 -202.465772 
L 128.632003 -199.445477 
L 129.982631 -208.056318 
L 131.333258 -203.245848 
L 132.683886 -177.663348 
L 134.034514 -197.060243 
L 135.385141 -203.06583 
L 136.735769 -209.461455 
L 138.086396 -204.856005 
L 139.437024 -214.461944 
L 140.787652 -201.855712 
L 142.138279 -201.065635 
L 143.488907 -211.266631 
L 144.839535 -181.653738 
L 146.190162 -219.447431 
L 147.54079 -177.658348 
L 148.891417 -177.263309 
L 150.242045 -194.26497 
L 151.592673 -195.855126 
L 152.9433 -181.448718 
L 154.293928 -182.658836 
L 155.644555 -212.466749 
L 156.995183 -175.058094 
L 158.345811 -204.460967 
L 159.696438 -228.263292 
L 161.047066 -185.064071 
L 162.397694 -202.865811 
L 163.748321 -193.464892 
L 165.098949 -187.864345 
L 166.449576 -211.461651 
L 167.800204 -201.660693 
L 169.150832 -215.267022 
L 170.501459 -210.066514 
L 171.852087 -228.65333 
L 173.202714 -217.867276 
L 174.553342 -211.641668 
L 175.90397 -154.846119 
L 177.254597 -194.860029 
L 178.605225 -191.064658 
L 179.955853 -172.242819 
L 181.30648 -201.855712 
L 182.657108 -205.861103 
L 184.007735 -204.060927 
L 185.358363 -197.065244 
L 186.708991 -202.460771 
L 188.059618 -217.062198 
L 189.410246 -164.657078 
L 190.760873 -204.460967 
L 192.111501 -231.233582 
L 193.462129 -203.055829 
L 194.812756 -225.267999 
L 196.163384 -196.265166 
L 197.514012 -203.255849 
L 198.864639 -189.624517 
L 200.215267 -188.654422 
L 201.565894 -227.863253 
L 202.916522 -224.447919 
L 204.26715 -203.660888 
L 205.617777 -204.460967 
L 206.968405 -235.068957 
L 208.319032 -206.061123 
L 209.66966 -203.260849 
L 211.020288 -192.259774 
L 212.370915 -190.26458 
L 213.721543 -197.84532 
L 215.072171 -185.45411 
L 216.422798 -192.664814 
L 217.773426 -187.459305 
L 219.124053 -204.665987 
L 220.474681 -191.244675 
L 221.825309 -231.068566 
L 223.175936 -193.254872 
L 224.526564 -214.266925 
L 225.877191 -195.260068 
L 227.227819 -208.861396 
L 228.578447 -224.067882 
L 229.929074 -199.250457 
L 231.279702 -175.448132 
L 232.63033 -209.061416 
L 233.980957 -199.855517 
L 235.331585 -186.054168 
L 236.682212 -181.043679 
L 238.03284 -204.025924 
L 239.383468 -184.053973 
L 240.734095 -179.858563 
L 242.084723 -186.864247 
L 243.43535 -201.065635 
L 244.785978 -191.264677 
L 246.136606 -199.260458 
L 247.487233 -199.265459 
L 248.837861 -175.253113 
L 250.188489 -210.466553 
L 251.539116 -189.064462 
L 252.889744 -189.054461 
L 254.240371 -217.467237 
L 255.590999 -199.440476 
L 256.941627 -194.254969 
L 258.292254 -194.05995 
L 259.642882 -198.450379 
L 260.993509 -216.0621 
L 262.344137 -210.861592 
L 263.694765 -210.246532 
L 265.045392 -196.460185 
L 266.39602 -189.459501 
L 267.746648 -198.445379 
L 269.097275 -194.665009 
L 270.447903 -183.463915 
L 271.79853 -190.259579 
L 273.149158 -191.064658 
L 274.499786 -194.665009 
L 275.850413 -241.664601 
L 277.201041 -220.05249 
L 278.551668 -201.065635 
L 279.902296 -196.065146 
L 281.252924 -223.067784 
L 282.603551 -211.66167 
L 283.954179 -205.856103 
L 285.304807 -196.465185 
L 286.655434 -210.056513 
L 288.006062 -227.663233 
L 289.356689 -186.454207 
L 290.707317 -191.859735 
L 292.057945 -189.854539 
L 293.408572 -209.066417 
L 294.7592 -195.055048 
L 296.109827 -176.463231 
L 297.460455 -214.661963 
L 298.811083 -198.055341 
L 300.16171 -222.462725 
L 301.512338 -225.463018 
L 302.862966 -240.869524 
L 304.213593 -200.855614 
L 305.564221 -210.451552 
L 306.914848 -221.262608 
L 308.265476 -205.851102 
L 309.616104 -212.666768 
L 310.966731 -213.861885 
L 312.317359 -221.257608 
L 313.667986 -214.646962 
L 315.018614 -194.46499 
L 316.369242 -198.860419 
L 317.719869 -192.464794 
L 319.070497 -200.855614 
L 320.421125 -218.047294 
L 321.771752 -185.45911 
L 323.12238 -183.258895 
L 324.473007 -233.4638 
L 325.823635 -213.051806 
L 327.174263 -212.466749 
L 328.52489 -217.262217 
L 328.52489 -281.678511 
L 328.52489 -281.678511 
L 327.174263 -286.879019 
L 325.823635 -271.277495 
L 324.473007 -293.079625 
L 323.12238 -242.714704 
L 321.771752 -241.069543 
L 320.421125 -263.871771 
L 319.070497 -284.488785 
L 317.719869 -249.075325 
L 316.369242 -255.88099 
L 315.018614 -279.098259 
L 313.667986 -298.880192 
L 312.317359 -286.874018 
L 310.966731 -268.472221 
L 309.616104 -260.27642 
L 308.265476 -297.480055 
L 306.914848 -284.878824 
L 305.564221 -258.871283 
L 304.213593 -263.086694 
L 302.862966 -290.47437 
L 301.512338 -296.089919 
L 300.16171 -306.480934 
L 298.811083 -260.471439 
L 297.460455 -272.072572 
L 296.109827 -234.868937 
L 294.7592 -254.675873 
L 293.408572 -272.677631 
L 292.057945 -256.076009 
L 290.707317 -255.495953 
L 289.356689 -238.469289 
L 288.006062 -281.073452 
L 286.655434 -277.87814 
L 285.304807 -251.890601 
L 283.954179 -269.877358 
L 282.603551 -280.273374 
L 281.252924 -283.278667 
L 279.902296 -254.085815 
L 278.551668 -256.476049 
L 277.201041 -285.278863 
L 275.850413 -297.480055 
L 274.499786 -273.082671 
L 273.149158 -257.681166 
L 271.79853 -240.874524 
L 270.447903 -238.27427 
L 269.097275 -251.075521 
L 267.746648 -265.08689 
L 266.39602 -244.874915 
L 265.045392 -269.07728 
L 263.694765 -267.277104 
L 262.344137 -278.683218 
L 260.993509 -294.8748 
L 259.642882 -251.290542 
L 258.292254 -248.270247 
L 256.941627 -246.270051 
L 255.590999 -266.482026 
L 254.240371 -283.473686 
L 252.889744 -240.674505 
L 251.539116 -235.674016 
L 250.188489 -264.67685 
L 248.837861 -237.479193 
L 247.487233 -257.471146 
L 246.136606 -262.676654 
L 244.785978 -251.27554 
L 243.43535 -251.47556 
L 242.084723 -247.270149 
L 240.734095 -247.475169 
L 239.383468 -235.874036 
L 238.03284 -276.092965 
L 236.682212 -242.484682 
L 235.331585 -255.070911 
L 233.980957 -275.477905 
L 232.63033 -276.072963 
L 231.279702 -231.673625 
L 229.929074 -261.681557 
L 228.578447 -273.672729 
L 227.227819 -274.482808 
L 225.877191 -266.282007 
L 224.526564 -302.880582 
L 223.175936 -273.472709 
L 221.825309 -282.878628 
L 220.474681 -257.876185 
L 219.124053 -262.686655 
L 217.773426 -250.285444 
L 216.422798 -243.469778 
L 215.072171 -257.471146 
L 213.721543 -277.293082 
L 212.370915 -233.673821 
L 211.020288 -254.680873 
L 209.66966 -276.272983 
L 208.319032 -247.870208 
L 206.968405 -289.474273 
L 205.617777 -280.303377 
L 204.26715 -261.681557 
L 202.916522 -290.074331 
L 201.565894 -304.0807 
L 200.215267 -249.675384 
L 198.864639 -255.480951 
L 197.514012 -264.27181 
L 196.163384 -259.886382 
L 194.812756 -291.279449 
L 193.462129 -268.87726 
L 192.111501 -318.477106 
L 190.760873 -269.072279 
L 189.410246 -219.072394 
L 188.059618 -276.473002 
L 186.708991 -265.471927 
L 185.358363 -268.687242 
L 184.007735 -282.073549 
L 182.657108 -276.077964 
L 181.30648 -262.071595 
L 179.955853 -231.878645 
L 178.605225 -242.279662 
L 177.254597 -257.486147 
L 175.90397 -217.672257 
L 174.553342 -271.677534 
L 173.202714 -285.283863 
L 171.852087 -287.274058 
L 170.501459 -282.873628 
L 169.150832 -283.678706 
L 167.800204 -251.27554 
L 166.449576 -277.67812 
L 165.098949 -249.895406 
L 163.748321 -252.50066 
L 162.397694 -283.50869 
L 161.047066 -258.476244 
L 159.696438 -301.290427 
L 158.345811 -269.072279 
L 156.995183 -241.669602 
L 155.644555 -268.87726 
L 154.293928 -249.670384 
L 152.9433 -242.479681 
L 151.592673 -258.486245 
L 150.242045 -243.884818 
L 148.891417 -225.873059 
L 147.54079 -229.273391 
L 146.190162 -273.672729 
L 144.839535 -234.473899 
L 143.488907 -281.083453 
L 142.138279 -264.68185 
L 140.787652 -255.87599 
L 139.437024 -281.478491 
L 138.086396 -273.27269 
L 136.735769 -288.879214 
L 135.385141 -279.698317 
L 134.034514 -255.67097 
L 132.683886 -229.478411 
L 131.333258 -261.081499 
L 129.982631 -279.493297 
L 128.632003 -267.672142 
L 127.281376 -269.482319 
L 125.930748 -308.876168 
L 124.58012 -256.08101 
L 123.229493 -298.675171 
L 121.878865 -251.67558 
L 120.528237 -274.472807 
L 119.17761 -292.074527 
L 117.826982 -262.276615 
L 116.476355 -287.079039 
L 115.125727 -267.087085 
L 113.775099 -259.076303 
L 112.424472 -253.875794 
L 111.073844 -252.880697 
L 109.723217 -227.268195 
L 108.372589 -261.271517 
L 107.021961 -290.67939 
L 105.671334 -259.276322 
L 104.320706 -279.478296 
L 102.970078 -267.282104 
L 101.619451 -262.681655 
L 100.268823 -257.876185 
L 98.918196 -292.884606 
L 97.567568 -316.88195 
L 96.21694 -217.472238 
L 94.866313 -272.472611 
L 93.515685 -264.481831 
L 92.165058 -254.280834 
L 90.81443 -287.474077 
L 89.463802 -295.07982 
L 88.113175 -301.475445 
L 86.762547 -245.074935 
L 85.411919 -279.073256 
L 84.061292 -261.876576 
L 82.710664 -215.267022 
L 81.360037 -286.879019 
L 80.009409 -261.081499 
L 78.658781 -238.869328 
L 77.308154 -239.279368 
L 75.957526 -222.472726 
L 74.606899 -262.291617 
L 73.256271 -242.069641 
L 71.905643 -260.0764 
L 70.555016 -237.469192 
L 69.204388 -262.076596 
L 67.85376 -235.073958 
L 66.503133 -217.472238 
L 65.152505 -200.875616 
L 63.801878 -211.271632 
L 62.45125 -232.668723 
L 61.100622 -236.504097 
L 59.749995 -159.861609 
z
" style="stroke: #a9678f; stroke-opacity: 0.2"/>
    </defs>
    <g clip-path="url(#p32eefd90a5)">
     <use xlink:href="#m1c7ce762d0" x="0" y="362.097812" style="fill: #a9678f; fill-opacity: 0.2; stroke: #a9678f; stroke-opacity: 0.2"/>
    </g>
   </g>
   <g id="PolyCollection_4">
    <defs>
     <path id="m8b5ae5b52c" d="M 59.749995 -169.08751 
L 59.749995 -82.049007 
L 61.100622 -185.86415 
L 62.45125 -171.257723 
L 63.801878 -160.856706 
L 65.152505 -198.860419 
L 66.503133 -175.063094 
L 67.85376 -198.6604 
L 69.204388 -187.264286 
L 70.555016 -187.649324 
L 71.905643 -188.254383 
L 73.256271 -181.2587 
L 74.606899 -178.258406 
L 75.957526 -165.057117 
L 77.308154 -195.660107 
L 78.658781 -183.653934 
L 80.009409 -179.253504 
L 81.360037 -178.258406 
L 82.710664 -188.064365 
L 84.061292 -177.658348 
L 85.411919 -163.65698 
L 86.762547 -199.655497 
L 88.113175 -176.258211 
L 89.463802 -182.658836 
L 90.81443 -201.860712 
L 92.165058 -162.661883 
L 93.515685 -195.260068 
L 94.866313 -216.462139 
L 96.21694 -188.064365 
L 97.567568 -175.853172 
L 98.918196 -164.462059 
L 100.268823 -190.844636 
L 101.619451 -182.058778 
L 102.970078 -189.464501 
L 104.320706 -191.654715 
L 105.671334 -197.655302 
L 107.021961 -223.062784 
L 108.372589 -198.450379 
L 109.723217 -197.055243 
L 111.073844 -206.261142 
L 112.424472 -196.060146 
L 113.775099 -205.656083 
L 115.125727 -197.465283 
L 116.476355 -185.25909 
L 117.826982 -176.458231 
L 119.17761 -198.860419 
L 120.528237 -183.863954 
L 121.878865 -226.843153 
L 123.229493 -215.86208 
L 124.58012 -190.859638 
L 125.930748 -216.447138 
L 127.281376 -190.659618 
L 128.632003 -211.061611 
L 129.982631 -180.063583 
L 131.333258 -199.865518 
L 132.683886 -208.666377 
L 134.034514 -215.662061 
L 135.385141 -208.056318 
L 136.735769 -180.863661 
L 138.086396 -205.466065 
L 139.437024 -198.465381 
L 140.787652 -192.264775 
L 142.138279 -204.055927 
L 143.488907 -214.061905 
L 144.839535 -185.65913 
L 146.190162 -199.255458 
L 147.54079 -207.26124 
L 148.891417 -192.649813 
L 150.242045 -178.048386 
L 151.592673 -213.856885 
L 152.9433 -208.046317 
L 154.293928 -220.46753 
L 155.644555 -203.660888 
L 156.995183 -208.261338 
L 158.345811 -207.46626 
L 159.696438 -191.264677 
L 161.047066 -179.863563 
L 162.397694 -181.663739 
L 163.748321 -205.061025 
L 165.098949 -181.863759 
L 166.449576 -207.066221 
L 167.800204 -154.256061 
L 169.150832 -195.250067 
L 170.501459 -186.264189 
L 171.852087 -194.840027 
L 173.202714 -178.458426 
L 174.553342 -235.468996 
L 175.90397 -205.861103 
L 177.254597 -199.665498 
L 178.605225 -203.855907 
L 179.955853 -204.465967 
L 181.30648 -200.260556 
L 182.657108 -231.468605 
L 184.007735 -199.065439 
L 185.358363 -199.055438 
L 186.708991 -193.664912 
L 188.059618 -215.462041 
L 189.410246 -197.460283 
L 190.760873 -203.255849 
L 192.111501 -223.262804 
L 193.462129 -188.249383 
L 194.812756 -219.047392 
L 196.163384 -207.856298 
L 197.514012 -170.257625 
L 198.864639 -212.856787 
L 200.215267 -197.665303 
L 201.565894 -195.850125 
L 202.916522 -192.044753 
L 204.26715 -167.85739 
L 205.617777 -188.259384 
L 206.968405 -201.860712 
L 208.319032 -193.659911 
L 209.66966 -219.452431 
L 211.020288 -193.054852 
L 212.370915 -185.859149 
L 213.721543 -191.459696 
L 215.072171 -176.843268 
L 216.422798 -182.863856 
L 217.773426 -173.247917 
L 219.124053 -196.260165 
L 220.474681 -180.458621 
L 221.825309 -206.261142 
L 223.175936 -189.259481 
L 224.526564 -205.861103 
L 225.877191 -206.461162 
L 227.227819 -198.86542 
L 228.578447 -184.258993 
L 229.929074 -181.2637 
L 231.279702 -207.061221 
L 232.63033 -210.051513 
L 233.980957 -212.646766 
L 235.331585 -222.262706 
L 236.682212 -205.041023 
L 238.03284 -179.463524 
L 239.383468 -214.666964 
L 240.734095 -223.857862 
L 242.084723 -223.652842 
L 243.43535 -177.458328 
L 244.785978 -233.86884 
L 246.136606 -203.865908 
L 247.487233 -193.249871 
L 248.837861 -221.257608 
L 250.188489 -199.465478 
L 251.539116 -199.455478 
L 252.889744 -194.655008 
L 254.240371 -216.867179 
L 255.590999 -197.460283 
L 256.941627 -204.650985 
L 258.292254 -207.456259 
L 259.642882 -210.866592 
L 260.993509 -219.262413 
L 262.344137 -196.850223 
L 263.694765 -185.05407 
L 265.045392 -180.053582 
L 266.39602 -220.46753 
L 267.746648 -181.2637 
L 269.097275 -176.65825 
L 270.447903 -200.465576 
L 271.79853 -210.461553 
L 273.149158 -204.065928 
L 274.499786 -183.463915 
L 275.850413 -190.054559 
L 277.201041 -181.438717 
L 278.551668 -200.650594 
L 279.902296 -178.453426 
L 281.252924 -198.260361 
L 282.603551 -183.458915 
L 283.954179 -181.863759 
L 285.304807 -177.463329 
L 286.655434 -201.665693 
L 288.006062 -190.059559 
L 289.356689 -174.858074 
L 290.707317 -201.655692 
L 292.057945 -162.256843 
L 293.408572 -197.660302 
L 294.7592 -172.262821 
L 296.109827 -183.658934 
L 297.460455 -189.254481 
L 298.811083 -175.658152 
L 300.16171 -196.860224 
L 301.512338 -193.459892 
L 302.862966 -211.266631 
L 304.213593 -217.662256 
L 305.564221 -212.846786 
L 306.914848 -195.665107 
L 308.265476 -186.259188 
L 309.616104 -198.260361 
L 310.966731 -208.266338 
L 312.317359 -198.86542 
L 313.667986 -211.86169 
L 315.018614 -192.059755 
L 316.369242 -210.256533 
L 317.719869 -212.061709 
L 319.070497 -201.865713 
L 320.421125 -201.065635 
L 321.771752 -205.861103 
L 323.12238 -156.051237 
L 324.473007 -167.262332 
L 325.823635 -190.664619 
L 327.174263 -199.065439 
L 328.52489 -192.064755 
L 328.52489 -266.677045 
L 328.52489 -266.677045 
L 327.174263 -262.071595 
L 325.823635 -259.476342 
L 324.473007 -219.077395 
L 323.12238 -210.271534 
L 321.771752 -261.281518 
L 320.421125 -275.492907 
L 319.070497 -263.471732 
L 317.719869 -254.475853 
L 316.369242 -270.277397 
L 315.018614 -244.294858 
L 313.667986 -276.077964 
L 312.317359 -264.47183 
L 310.966731 -270.077377 
L 309.616104 -250.270442 
L 308.265476 -247.675189 
L 306.914848 -253.075716 
L 305.564221 -284.278765 
L 304.213593 -269.672338 
L 302.862966 -282.478589 
L 301.512338 -259.671361 
L 300.16171 -261.471537 
L 298.811083 -233.073762 
L 297.460455 -239.679407 
L 296.109827 -239.269367 
L 294.7592 -234.07386 
L 293.408572 -260.0764 
L 292.057945 -216.282122 
L 290.707317 -271.272494 
L 289.356689 -218.272316 
L 288.006062 -246.485072 
L 286.655434 -264.086792 
L 285.304807 -242.869719 
L 283.954179 -226.273098 
L 282.603551 -230.868547 
L 281.252924 -274.087769 
L 279.902296 -246.67009 
L 278.551668 -264.871869 
L 277.201041 -254.885893 
L 275.850413 -235.679017 
L 274.499786 -254.070814 
L 273.149158 -265.271908 
L 271.79853 -255.270931 
L 270.447903 -279.473295 
L 269.097275 -229.668429 
L 267.746648 -250.485463 
L 266.39602 -282.08355 
L 265.045392 -248.275247 
L 263.694765 -257.301129 
L 262.344137 -258.751271 
L 260.993509 -279.288277 
L 259.642882 -284.888825 
L 258.292254 -271.082476 
L 256.941627 -246.875111 
L 255.590999 -263.286714 
L 254.240371 -266.076987 
L 252.889744 -256.676068 
L 251.539116 -257.071107 
L 250.188489 -252.08562 
L 248.837861 -284.278765 
L 247.487233 -266.677045 
L 246.136606 -269.277299 
L 244.785978 -311.296405 
L 243.43535 -244.284857 
L 242.084723 -292.679586 
L 240.734095 -309.081188 
L 239.383468 -283.093649 
L 238.03284 -257.676166 
L 236.682212 -281.473491 
L 235.331585 -300.080309 
L 233.980957 -277.4781 
L 232.63033 -267.872162 
L 231.279702 -271.677534 
L 229.929074 -235.869035 
L 228.578447 -250.080424 
L 227.227819 -254.875892 
L 225.877191 -256.676068 
L 224.526564 -285.283863 
L 223.175936 -243.469778 
L 221.825309 -267.887163 
L 220.474681 -240.869524 
L 219.124053 -258.886284 
L 217.773426 -224.467921 
L 216.422798 -235.874036 
L 215.072171 -225.673039 
L 213.721543 -273.68273 
L 212.370915 -245.870012 
L 211.020288 -268.087183 
L 209.66966 -284.893825 
L 208.319032 -269.89736 
L 206.968405 -261.281518 
L 205.617777 -244.469876 
L 204.26715 -233.078763 
L 202.916522 -263.476733 
L 201.565894 -258.081205 
L 200.215267 -269.682339 
L 198.864639 -278.883238 
L 197.514012 -225.893061 
L 196.163384 -257.071107 
L 194.812756 -286.884019 
L 193.462129 -251.8806 
L 192.111501 -297.280035 
L 190.760873 -270.877456 
L 189.410246 -269.49232 
L 188.059618 -298.480152 
L 186.708991 -249.870403 
L 185.358363 -245.875013 
L 184.007735 -276.893043 
L 182.657108 -299.300233 
L 181.30648 -268.477221 
L 179.955853 -271.487515 
L 178.605225 -273.282691 
L 177.254597 -262.681655 
L 175.90397 -275.677925 
L 174.553342 -293.504666 
L 173.202714 -247.080131 
L 171.852087 -271.477514 
L 170.501459 -248.280248 
L 169.150832 -255.695972 
L 167.800204 -223.682845 
L 166.449576 -271.287496 
L 165.098949 -234.07386 
L 163.748321 -285.678902 
L 162.397694 -239.079349 
L 161.047066 -246.475071 
L 159.696438 -242.87472 
L 158.345811 -266.482026 
L 156.995183 -274.677827 
L 155.644555 -256.481049 
L 154.293928 -276.082964 
L 152.9433 -277.488101 
L 151.592673 -294.8748 
L 150.242045 -237.669211 
L 148.891417 -249.475365 
L 147.54079 -274.277788 
L 146.190162 -272.077573 
L 144.839535 -243.474778 
L 143.488907 -288.879214 
L 142.138279 -263.291714 
L 140.787652 -253.675775 
L 139.437024 -271.077475 
L 138.086396 -266.472025 
L 136.735769 -247.27515 
L 135.385141 -268.077182 
L 134.034514 -270.882456 
L 132.683886 -285.478882 
L 131.333258 -269.682339 
L 129.982631 -239.669406 
L 128.632003 -274.277788 
L 127.281376 -255.87599 
L 125.930748 -279.078257 
L 124.58012 -263.291714 
L 123.229493 -281.073452 
L 121.878865 -292.279547 
L 120.528237 -239.269367 
L 119.17761 -268.072182 
L 117.826982 -247.48017 
L 116.476355 -246.070032 
L 115.125727 -259.876381 
L 113.775099 -275.677925 
L 112.424472 -256.471048 
L 111.073844 -292.484567 
L 109.723217 -269.677338 
L 108.372589 -257.871185 
L 107.021961 -279.678315 
L 105.671334 -249.475365 
L 104.320706 -238.484291 
L 102.970078 -275.077866 
L 101.619451 -245.274954 
L 100.268823 -245.870012 
L 98.918196 -223.277805 
L 97.567568 -241.474583 
L 96.21694 -249.085326 
L 94.866313 -296.679977 
L 93.515685 -254.480854 
L 92.165058 -215.672062 
L 90.81443 -267.072084 
L 89.463802 -242.079642 
L 88.113175 -234.683919 
L 86.762547 -289.879312 
L 85.411919 -226.273098 
L 84.061292 -237.274172 
L 82.710664 -235.669016 
L 81.360037 -240.684506 
L 80.009409 -230.668527 
L 78.658781 -243.08474 
L 77.308154 -257.876185 
L 75.957526 -219.067394 
L 74.606899 -243.679798 
L 73.256271 -245.679994 
L 71.905643 -250.870501 
L 70.555016 -262.091597 
L 69.204388 -241.479583 
L 67.85376 -256.681069 
L 66.503133 -238.074251 
L 65.152505 -262.091597 
L 63.801878 -221.872668 
L 62.45125 -207.66628 
L 61.100622 -266.477026 
L 59.749995 -169.08751 
z
" style="stroke: #6c3f70; stroke-opacity: 0.2"/>
    </defs>
    <g clip-path="url(#p32eefd90a5)">
     <use xlink:href="#m8b5ae5b52c" x="0" y="362.097812" style="fill: #6c3f70; fill-opacity: 0.2; stroke: #6c3f70; stroke-opacity: 0.2"/>
    </g>
   </g>
   <g id="PolyCollection_5">
    <defs>
     <path id="m6ff61e4a4c" d="M 59.749995 -134.464128 
L 59.749995 -62.827129 
L 61.100622 -153.040943 
L 62.45125 -157.656394 
L 63.801878 -199.865518 
L 65.152505 -179.258504 
L 66.503133 -155.06114 
L 67.85376 -189.464501 
L 69.204388 -170.462645 
L 70.555016 -201.050633 
L 71.905643 -181.46372 
L 73.256271 -182.458817 
L 74.606899 -198.060341 
L 75.957526 -193.459892 
L 77.308154 -198.265361 
L 78.658781 -169.047507 
L 80.009409 -179.063485 
L 81.360037 -173.247917 
L 82.710664 -170.452644 
L 84.061292 -184.459012 
L 85.411919 -163.25194 
L 86.762547 -163.646979 
L 88.113175 -189.059462 
L 89.463802 -203.840906 
L 90.81443 -209.466456 
L 92.165058 -209.056416 
L 93.515685 -211.066612 
L 94.866313 -182.058778 
L 96.21694 -192.859833 
L 97.567568 -202.465772 
L 98.918196 -201.045633 
L 100.268823 -173.457937 
L 101.619451 -201.260654 
L 102.970078 -170.857683 
L 104.320706 -165.662176 
L 105.671334 -204.841004 
L 107.021961 -213.461846 
L 108.372589 -225.257998 
L 109.723217 -188.864443 
L 111.073844 -222.657744 
L 112.424472 -225.463018 
L 113.775099 -201.265654 
L 115.125727 -186.654227 
L 116.476355 -197.465283 
L 117.826982 -188.659423 
L 119.17761 -184.053973 
L 120.528237 -179.663544 
L 121.878865 -195.860126 
L 123.229493 -198.260361 
L 124.58012 -214.261924 
L 125.930748 -194.645008 
L 127.281376 -179.458524 
L 128.632003 -194.05995 
L 129.982631 -190.259579 
L 131.333258 -201.650692 
L 132.683886 -223.467824 
L 134.034514 -215.462041 
L 135.385141 -217.857275 
L 136.735769 -195.055048 
L 138.086396 -213.656865 
L 139.437024 -207.061221 
L 140.787652 -199.460478 
L 142.138279 -197.260263 
L 143.488907 -196.055145 
L 144.839535 -194.660009 
L 146.190162 -206.266143 
L 147.54079 -218.652353 
L 148.891417 -216.862178 
L 150.242045 -222.657744 
L 151.592673 -220.862569 
L 152.9433 -258.456242 
L 154.293928 -206.866202 
L 155.644555 -222.467726 
L 156.995183 -204.465967 
L 158.345811 -169.652566 
L 159.696438 -188.83944 
L 161.047066 -229.458409 
L 162.397694 -239.064347 
L 163.748321 -227.668234 
L 165.098949 -224.66294 
L 166.449576 -237.85923 
L 167.800204 -233.268781 
L 169.150832 -212.661768 
L 170.501459 -227.063175 
L 171.852087 -195.060048 
L 173.202714 -210.456552 
L 174.553342 -186.254188 
L 175.90397 -224.462921 
L 177.254597 -221.267609 
L 178.605225 -200.650594 
L 179.955853 -196.665205 
L 181.30648 -178.458426 
L 182.657108 -202.460771 
L 184.007735 -209.451454 
L 185.358363 -215.067003 
L 186.708991 -200.250555 
L 188.059618 -186.254188 
L 189.410246 -200.060537 
L 190.760873 -189.254481 
L 192.111501 -202.665791 
L 193.462129 -196.865224 
L 194.812756 -207.46126 
L 196.163384 -215.267022 
L 197.514012 -234.858937 
L 198.864639 -205.466065 
L 200.215267 -200.850614 
L 201.565894 -239.664406 
L 202.916522 -226.663136 
L 204.26715 -216.462139 
L 205.617777 -217.067198 
L 206.968405 -215.65206 
L 208.319032 -219.657451 
L 209.66966 -238.859327 
L 211.020288 -174.253015 
L 212.370915 -195.255067 
L 213.721543 -202.660791 
L 215.072171 -221.062589 
L 216.422798 -236.849131 
L 217.773426 -229.668429 
L 219.124053 -226.663136 
L 220.474681 -243.869817 
L 221.825309 -195.865127 
L 223.175936 -222.867765 
L 224.526564 -185.25909 
L 225.877191 -199.260458 
L 227.227819 -207.66628 
L 228.578447 -208.851396 
L 229.929074 -218.862374 
L 231.279702 -204.856005 
L 232.63033 -208.656376 
L 233.980957 -182.658836 
L 235.331585 -211.256631 
L 236.682212 -200.065537 
L 238.03284 -201.265654 
L 239.383468 -193.864931 
L 240.734095 -193.864931 
L 242.084723 -247.045127 
L 243.43535 -185.04907 
L 244.785978 -179.663544 
L 246.136606 -205.261045 
L 247.487233 -217.852275 
L 248.837861 -205.466065 
L 250.188489 -176.463231 
L 251.539116 -190.254579 
L 252.889744 -227.063175 
L 254.240371 -215.252021 
L 255.590999 -188.234381 
L 256.941627 -196.460185 
L 258.292254 -234.848936 
L 259.642882 -196.855223 
L 260.993509 -228.063273 
L 262.344137 -174.062997 
L 263.694765 -185.65913 
L 265.045392 -195.060048 
L 266.39602 -169.857586 
L 267.746648 -211.256631 
L 269.097275 -192.059755 
L 270.447903 -173.842975 
L 271.79853 -177.258309 
L 273.149158 -211.066612 
L 274.499786 -208.661377 
L 275.850413 -211.266631 
L 277.201041 -188.464404 
L 278.551668 -181.46372 
L 279.902296 -183.663935 
L 281.252924 -194.46499 
L 282.603551 -192.059755 
L 283.954179 -201.060634 
L 285.304807 -193.864931 
L 286.655434 -220.457529 
L 288.006062 -199.455478 
L 289.356689 -212.461748 
L 290.707317 -234.453897 
L 292.057945 -200.660595 
L 293.408572 -194.044949 
L 294.7592 -191.059657 
L 296.109827 -217.252216 
L 297.460455 -210.061514 
L 298.811083 -198.6604 
L 300.16171 -186.054168 
L 301.512338 -212.061709 
L 302.862966 -216.257119 
L 304.213593 -220.862569 
L 305.564221 -202.060732 
L 306.914848 -193.449891 
L 308.265476 -204.665987 
L 309.616104 -196.860224 
L 310.966731 -217.267218 
L 312.317359 -197.660302 
L 313.667986 -225.057979 
L 315.018614 -181.063681 
L 316.369242 -179.658543 
L 317.719869 -226.663136 
L 319.070497 -190.459599 
L 320.421125 -209.266436 
L 321.771752 -200.865615 
L 323.12238 -186.249187 
L 324.473007 -210.261533 
L 325.823635 -184.664032 
L 327.174263 -203.460869 
L 328.52489 -193.454891 
L 328.52489 -246.475071 
L 328.52489 -246.475071 
L 327.174263 -260.881479 
L 325.823635 -264.506833 
L 324.473007 -256.076009 
L 323.12238 -254.670872 
L 321.771752 -263.086694 
L 320.421125 -260.0764 
L 319.070497 -253.075716 
L 317.719869 -275.672924 
L 316.369242 -241.089545 
L 315.018614 -223.872863 
L 313.667986 -310.881364 
L 312.317359 -268.87226 
L 310.966731 -297.090017 
L 309.616104 -268.67224 
L 308.265476 -275.302888 
L 306.914848 -248.675286 
L 305.564221 -279.473295 
L 304.213593 -280.478394 
L 302.862966 -280.273374 
L 301.512338 -266.482026 
L 300.16171 -256.476049 
L 298.811083 -265.676947 
L 297.460455 -270.477417 
L 296.109827 -288.079136 
L 294.7592 -258.871283 
L 293.408572 -250.075423 
L 292.057945 -271.072475 
L 290.707317 -294.079723 
L 289.356689 -284.513788 
L 288.006062 -253.100719 
L 286.655434 -275.277886 
L 285.304807 -237.274172 
L 283.954179 -283.073647 
L 282.603551 -251.695581 
L 281.252924 -245.289956 
L 279.902296 -240.274466 
L 278.551668 -235.669016 
L 277.201041 -239.674407 
L 275.850413 -280.678413 
L 274.499786 -302.085505 
L 273.149158 -286.27896 
L 271.79853 -213.066807 
L 270.447903 -222.267706 
L 269.097275 -248.270247 
L 267.746648 -273.877749 
L 266.39602 -233.688822 
L 265.045392 -267.672142 
L 263.694765 -255.270931 
L 262.344137 -231.068566 
L 260.993509 -302.290525 
L 259.642882 -264.671849 
L 258.292254 -304.875777 
L 256.941627 -271.882554 
L 255.590999 -256.876088 
L 254.240371 -277.903142 
L 252.889744 -278.673217 
L 251.539116 -248.285248 
L 250.188489 -245.474974 
L 248.837861 -269.687339 
L 247.487233 -274.272787 
L 246.136606 -254.470853 
L 244.785978 -222.072687 
L 243.43535 -241.869621 
L 242.084723 -326.287869 
L 240.734095 -254.290835 
L 239.383468 -259.471341 
L 238.03284 -255.480951 
L 236.682212 -270.297399 
L 235.331585 -288.084137 
L 233.980957 -235.869035 
L 232.63033 -267.072084 
L 231.279702 -265.471927 
L 229.929074 -284.483785 
L 228.578447 -266.872064 
L 227.227819 -268.082182 
L 225.877191 -258.481244 
L 224.526564 -241.069543 
L 223.175936 -278.073159 
L 221.825309 -258.286225 
L 220.474681 -323.677614 
L 219.124053 -280.078355 
L 217.773426 -295.479859 
L 216.422798 -297.680074 
L 215.072171 -280.483394 
L 213.721543 -270.282397 
L 212.370915 -253.690776 
L 211.020288 -232.673723 
L 209.66966 -306.485935 
L 208.319032 -301.085407 
L 206.968405 -291.484469 
L 205.617777 -272.677631 
L 204.26715 -282.48859 
L 202.916522 -277.893141 
L 201.565894 -301.880485 
L 200.215267 -254.680873 
L 198.864639 -268.077182 
L 197.514012 -302.680563 
L 196.163384 -291.534474 
L 194.812756 -268.687242 
L 193.462129 -271.477514 
L 192.111501 -263.081694 
L 190.760873 -250.670481 
L 189.410246 -253.495757 
L 188.059618 -243.074739 
L 186.708991 -275.682925 
L 185.358363 -280.673413 
L 184.007735 -273.07267 
L 182.657108 -269.08228 
L 181.30648 -245.279955 
L 179.955853 -255.475951 
L 178.605225 -260.28142 
L 177.254597 -292.874605 
L 175.90397 -301.675465 
L 174.553342 -247.27515 
L 173.202714 -263.681753 
L 171.852087 -253.475755 
L 170.501459 -290.089333 
L 169.150832 -269.677338 
L 167.800204 -286.07394 
L 166.449576 -293.284645 
L 165.098949 -291.279449 
L 163.748321 -291.679488 
L 162.397694 -311.676442 
L 161.047066 -317.682029 
L 159.696438 -262.496637 
L 158.345811 -227.488216 
L 156.995183 -263.071693 
L 155.644555 -284.678804 
L 154.293928 -274.282788 
L 152.9433 -320.482302 
L 151.592673 -279.478296 
L 150.242045 -305.880876 
L 148.891417 -289.484274 
L 147.54079 -269.087281 
L 146.190162 -262.271615 
L 144.839535 -258.271224 
L 143.488907 -264.671849 
L 142.138279 -243.869817 
L 140.787652 -264.276811 
L 139.437024 -271.507517 
L 138.086396 -275.872944 
L 136.735769 -259.476342 
L 135.385141 -281.288473 
L 134.034514 -283.478687 
L 132.683886 -297.695076 
L 131.333258 -271.472514 
L 129.982631 -262.491636 
L 128.632003 -262.276615 
L 127.281376 -241.069543 
L 125.930748 -244.874915 
L 124.58012 -275.882945 
L 123.229493 -259.886382 
L 121.878865 -262.076596 
L 120.528237 -238.469289 
L 119.17761 -249.480365 
L 117.826982 -239.279368 
L 116.476355 -250.675482 
L 115.125727 -240.499488 
L 113.775099 -259.671361 
L 112.424472 -276.272983 
L 111.073844 -281.67351 
L 109.723217 -235.268977 
L 108.372589 -303.280621 
L 107.021961 -283.678706 
L 105.671334 -283.888727 
L 104.320706 -224.692943 
L 102.970078 -231.688627 
L 101.619451 -259.276322 
L 100.268823 -256.29103 
L 98.918196 -267.487124 
L 97.567568 -277.873139 
L 96.21694 -253.670774 
L 94.866313 -251.900602 
L 93.515685 -270.677436 
L 92.165058 -263.471732 
L 90.81443 -272.677631 
L 89.463802 -267.477123 
L 88.113175 -265.076889 
L 86.762547 -226.878157 
L 85.411919 -226.868156 
L 84.061292 -243.074739 
L 82.710664 -231.868644 
L 81.360037 -240.879525 
L 80.009409 -238.279271 
L 78.658781 -230.468508 
L 77.308154 -267.682143 
L 75.957526 -270.277397 
L 74.606899 -257.476146 
L 73.256271 -242.069641 
L 71.905643 -242.679701 
L 70.555016 -279.678315 
L 69.204388 -222.472726 
L 67.85376 -250.075423 
L 66.503133 -217.667257 
L 65.152505 -231.273586 
L 63.801878 -250.475462 
L 62.45125 -215.872081 
L 61.100622 -210.071515 
L 59.749995 -134.464128 
z
" style="stroke: #2d1e3e; stroke-opacity: 0.2"/>
    </defs>
    <g clip-path="url(#p32eefd90a5)">
     <use xlink:href="#m6ff61e4a4c" x="0" y="362.097812" style="fill: #2d1e3e; fill-opacity: 0.2; stroke: #2d1e3e; stroke-opacity: 0.2"/>
    </g>
   </g>
   <g id="line2d_11">
    <path d="M 59.749995 245.840464 
L 61.100622 153.831474 
L 62.45125 153.231416 
L 63.801878 129.029051 
L 65.152505 143.030419 
L 66.503133 136.229754 
L 67.85376 118.628035 
L 69.204388 110.227214 
L 70.555016 125.828738 
L 71.905643 126.828836 
L 73.256271 142.43036 
L 74.606899 140.230145 
L 78.658781 150.231122 
L 80.009409 122.628426 
L 81.360037 158.031885 
L 82.710664 123.028465 
L 84.061292 154.431533 
L 85.411919 156.231709 
L 86.762547 145.630673 
L 88.113175 133.6295 
L 89.463802 116.027781 
L 90.81443 105.826784 
L 92.165058 133.6295 
L 93.515685 133.6295 
L 94.866313 155.83167 
L 96.21694 124.028562 
L 97.567568 135.429676 
L 98.918196 136.829813 
L 100.268823 99.226139 
L 101.619451 156.231709 
L 102.970078 117.827957 
L 104.320706 124.828641 
L 105.671334 111.427331 
L 107.021961 118.828054 
L 108.372589 104.426647 
L 109.723217 134.029539 
L 111.073844 128.028953 
L 112.424472 100.826295 
L 113.775099 141.830302 
L 115.125727 131.229266 
L 116.476355 143.230438 
L 117.826982 113.827566 
L 119.17761 149.831083 
L 120.528237 152.831376 
L 121.878865 110.427233 
L 123.229493 123.828543 
L 124.58012 149.031005 
L 125.930748 136.429774 
L 127.281376 148.230927 
L 128.632003 147.630868 
L 129.982631 133.029442 
L 131.333258 147.03081 
L 132.683886 100.026217 
L 134.034514 139.630087 
L 135.385141 122.228386 
L 136.735769 130.229168 
L 138.086396 143.630477 
L 139.437024 152.831376 
L 140.787652 136.229754 
L 142.138279 122.028367 
L 143.488907 118.828054 
L 144.839535 126.428797 
L 146.190162 131.829324 
L 147.54079 127.028855 
L 148.891417 142.63038 
L 150.242045 137.629891 
L 151.592673 127.828934 
L 152.9433 134.829618 
L 154.293928 126.228777 
L 155.644555 139.630087 
L 156.995183 120.028171 
L 158.345811 113.227507 
L 159.696438 108.026999 
L 161.047066 136.829813 
L 162.397694 122.428406 
L 163.748321 118.828054 
L 165.098949 134.429579 
L 166.449576 121.428308 
L 167.800204 88.625103 
L 169.150832 120.82825 
L 170.501459 171.833233 
L 171.852087 123.828543 
L 173.202714 135.629696 
L 174.553342 144.030517 
L 175.90397 115.627742 
L 177.254597 137.829911 
L 178.605225 121.428308 
L 179.955853 133.429481 
L 181.30648 132.229364 
L 182.657108 133.82952 
L 184.007735 143.430458 
L 185.358363 128.629012 
L 186.708991 115.627742 
L 188.059618 153.831474 
L 189.410246 161.232197 
L 190.760873 134.629598 
L 192.111501 126.828836 
L 193.462129 120.028171 
L 194.812756 117.627937 
L 196.163384 127.028855 
L 197.514012 112.02739 
L 198.864639 134.029539 
L 200.215267 140.030126 
L 201.565894 125.22868 
L 202.916522 130.229168 
L 204.26715 110.627253 
L 205.617777 146.630771 
L 206.968405 109.027097 
L 208.319032 148.030907 
L 209.66966 145.630673 
L 211.020288 99.226139 
L 212.370915 116.827859 
L 213.721543 98.026022 
L 215.072171 104.026608 
L 216.422798 152.631357 
L 217.773426 136.629794 
L 219.124053 134.029539 
L 220.474681 113.827566 
L 221.825309 125.428699 
L 223.175936 132.429383 
L 224.526564 154.231513 
L 225.877191 124.228582 
L 227.227819 120.228191 
L 228.578447 122.228386 
L 229.929074 104.626667 
L 231.279702 141.230243 
L 232.63033 157.231806 
L 233.980957 138.22995 
L 235.331585 132.229364 
L 238.03284 141.830302 
L 239.383468 136.029735 
L 240.734095 110.627253 
L 242.084723 97.225944 
L 243.43535 124.828641 
L 244.785978 138.22995 
L 246.136606 131.029246 
L 247.487233 142.030321 
L 248.837861 129.42909 
L 250.188489 147.830888 
L 251.539116 119.228093 
L 252.889744 118.628035 
L 254.240371 120.028171 
L 255.590999 129.22907 
L 256.941627 121.228289 
L 258.292254 162.432314 
L 259.642882 144.030517 
L 260.993509 104.026608 
L 262.344137 118.027976 
L 263.694765 120.82825 
L 265.045392 143.230438 
L 266.39602 139.830106 
L 267.746648 157.231806 
L 269.097275 155.83167 
L 271.79853 134.829618 
L 273.149158 111.627351 
L 274.499786 138.830008 
L 275.850413 133.229461 
L 277.201041 99.826198 
L 278.551668 132.629403 
L 279.902296 103.22653 
L 281.252924 129.029051 
L 283.954179 153.431435 
L 285.304807 135.829715 
L 286.655434 150.231122 
L 288.006062 126.828836 
L 289.356689 125.628719 
L 290.707317 120.428211 
L 292.057945 123.228484 
L 293.408572 144.830595 
L 294.7592 137.429872 
L 296.109827 120.62823 
L 297.460455 83.424595 
L 298.811083 109.227116 
L 300.16171 120.228191 
L 301.512338 152.831376 
L 302.862966 116.027781 
L 304.213593 147.430849 
L 305.564221 120.82825 
L 306.914848 117.227898 
L 308.265476 122.828445 
L 309.616104 136.429774 
L 310.966731 130.229168 
L 312.317359 132.029344 
L 313.667986 132.429383 
L 315.018614 115.827761 
L 316.369242 113.827566 
L 317.719869 127.428895 
L 319.070497 118.628035 
L 320.421125 135.229657 
L 321.771752 104.626667 
L 323.12238 131.429285 
L 324.473007 104.026608 
L 325.823635 131.629305 
L 327.174263 131.429285 
L 328.52489 129.42909 
L 328.52489 129.42909 
" clip-path="url(#p32eefd90a5)" style="fill: none; stroke: #edd1cb; stroke-width: 1.5; stroke-linecap: round"/>
   </g>
   <g id="line2d_12">
    <path d="M 59.749995 276.843493 
L 61.100622 187.034718 
L 62.45125 145.430653 
L 63.801878 134.429579 
L 65.152505 156.431728 
L 66.503133 155.83167 
L 67.85376 106.226823 
L 69.204388 168.232881 
L 70.555016 148.030907 
L 71.905643 138.429969 
L 73.256271 136.029735 
L 74.606899 145.230634 
L 75.957526 151.23122 
L 77.308154 165.032569 
L 78.658781 130.629207 
L 80.009409 119.428113 
L 81.360037 119.028074 
L 82.710664 115.827761 
L 84.061292 122.628426 
L 85.411919 128.829031 
L 86.762547 134.029539 
L 88.113175 121.428308 
L 89.463802 127.428895 
L 90.81443 151.23122 
L 92.165058 134.829618 
L 93.515685 127.428895 
L 94.866313 145.030614 
L 96.21694 112.627448 
L 97.567568 105.226725 
L 98.918196 133.229461 
L 100.268823 109.027097 
L 101.619451 129.62911 
L 102.970078 109.427136 
L 104.320706 133.229461 
L 105.671334 128.028953 
L 107.021961 126.028758 
L 108.372589 108.227018 
L 109.723217 161.232197 
L 111.073844 131.629305 
L 112.424472 150.431142 
L 113.775099 122.828445 
L 115.125727 131.829324 
L 116.476355 113.827566 
L 117.826982 131.629305 
L 119.17761 130.429188 
L 120.528237 127.828934 
L 121.878865 133.6295 
L 123.229493 113.827566 
L 124.58012 138.830008 
L 125.930748 111.027292 
L 127.281376 119.028074 
L 128.632003 120.028171 
L 129.982631 139.630087 
L 131.333258 154.031494 
L 132.683886 106.026804 
L 134.034514 164.632529 
L 135.385141 131.229266 
L 136.735769 128.228973 
L 138.086396 127.628914 
L 139.437024 109.827175 
L 140.787652 128.829031 
L 142.138279 143.430458 
L 143.488907 119.028074 
L 144.839535 143.230438 
L 146.190162 134.229559 
L 147.54079 149.631064 
L 148.891417 145.830692 
L 150.242045 158.231904 
L 151.592673 115.627742 
L 152.9433 129.22907 
L 154.293928 121.028269 
L 155.644555 118.628035 
L 156.995183 119.628132 
L 158.345811 122.228386 
L 159.696438 117.827957 
L 161.047066 133.429481 
L 162.397694 134.229559 
L 163.748321 161.432217 
L 165.098949 129.62911 
L 166.449576 123.628523 
L 167.800204 146.83079 
L 169.150832 126.628816 
L 170.501459 133.6295 
L 171.852087 105.026706 
L 173.202714 139.030028 
L 174.553342 133.029442 
L 175.90397 111.027292 
L 177.254597 139.230048 
L 178.605225 115.027683 
L 179.955853 119.828152 
L 181.30648 135.829715 
L 182.657108 122.028367 
L 184.007735 112.02739 
L 185.358363 154.031494 
L 186.708991 147.230829 
L 188.059618 133.429481 
L 189.410246 108.827077 
L 190.760873 145.830692 
L 192.111501 136.829813 
L 193.462129 132.029344 
L 194.812756 109.827175 
L 196.163384 169.633018 
L 197.514012 111.627351 
L 198.864639 138.830008 
L 200.215267 130.429188 
L 201.565894 131.229266 
L 202.916522 113.027488 
L 204.26715 121.228289 
L 205.617777 119.228093 
L 206.968405 137.829911 
L 208.319032 136.629794 
L 209.66966 153.631455 
L 211.020288 122.628426 
L 212.370915 129.829129 
L 213.721543 123.028465 
L 215.072171 124.228582 
L 216.422798 123.628523 
L 217.773426 148.430947 
L 219.124053 111.227312 
L 220.474681 103.22653 
L 221.825309 135.229657 
L 223.175936 128.228973 
L 224.526564 140.830204 
L 225.877191 140.830204 
L 227.227819 112.02739 
L 229.929074 145.030614 
L 231.279702 115.427722 
L 232.63033 165.232588 
L 233.980957 116.42782 
L 235.331585 108.627058 
L 236.682212 90.22526 
L 238.03284 129.42909 
L 239.383468 141.230243 
L 240.734095 126.828836 
L 242.084723 117.227898 
L 244.785978 155.83167 
L 246.136606 122.828445 
L 247.487233 143.830497 
L 248.837861 101.826393 
L 250.188489 120.428211 
L 251.539116 149.231025 
L 252.889744 133.82952 
L 254.240371 155.63165 
L 255.590999 135.229657 
L 256.941627 125.02866 
L 258.292254 153.831474 
L 259.642882 118.027976 
L 260.993509 133.429481 
L 262.344137 138.429969 
L 263.694765 120.82825 
L 265.045392 105.826784 
L 266.39602 167.832842 
L 267.746648 127.828934 
L 269.097275 145.630673 
L 270.447903 121.228289 
L 271.79853 134.229559 
L 273.149158 144.430556 
L 274.499786 162.432314 
L 275.850413 133.229461 
L 277.201041 149.631064 
L 278.551668 183.234347 
L 279.902296 153.831474 
L 281.252924 138.02993 
L 282.603551 140.430165 
L 283.954179 123.228484 
L 285.304807 101.026315 
L 286.655434 137.029833 
L 288.006062 101.026315 
L 289.356689 124.228582 
L 290.707317 160.832158 
L 292.057945 120.228191 
L 294.7592 151.43124 
L 296.109827 153.231416 
L 297.460455 143.430458 
L 298.811083 147.830888 
L 300.16171 128.829031 
L 301.512338 91.425377 
L 302.862966 128.629012 
L 304.213593 109.827175 
L 305.564221 138.22995 
L 306.914848 106.226823 
L 308.265476 145.230634 
L 309.616104 136.629794 
L 310.966731 121.028269 
L 312.317359 132.429383 
L 315.018614 102.026413 
L 316.369242 112.02739 
L 317.719869 134.029539 
L 319.070497 146.630771 
L 320.421125 126.428797 
L 321.771752 124.828641 
L 323.12238 103.02651 
L 324.473007 135.829715 
L 325.823635 118.428015 
L 327.174263 139.230048 
L 328.52489 122.228386 
L 328.52489 122.228386 
" clip-path="url(#p32eefd90a5)" style="fill: none; stroke: #d499a7; stroke-width: 1.5; stroke-linecap: round"/>
   </g>
   <g id="line2d_13">
    <path d="M 59.749995 247.040581 
L 61.100622 163.832451 
L 62.45125 160.2321 
L 63.801878 180.434073 
L 65.152505 188.034816 
L 66.503133 170.633116 
L 67.85376 157.831865 
L 69.204388 127.628914 
L 70.555016 151.43124 
L 71.905643 124.828641 
L 73.256271 148.830986 
L 74.606899 127.628914 
L 75.957526 166.432705 
L 77.308154 153.231416 
L 78.658781 150.231122 
L 81.360037 110.027194 
L 82.710664 169.833038 
L 84.061292 132.429383 
L 85.411919 113.427527 
L 86.762547 149.231025 
L 88.113175 96.025826 
L 89.463802 102.026413 
L 90.81443 121.228289 
L 92.165058 137.029833 
L 93.515685 129.42909 
L 94.866313 125.02866 
L 96.21694 169.232979 
L 97.567568 82.824537 
L 98.918196 107.62696 
L 100.268823 135.629696 
L 101.619451 135.029637 
L 102.970078 126.228777 
L 104.320706 124.028562 
L 105.671334 130.029149 
L 107.021961 118.628035 
L 108.372589 129.22907 
L 109.723217 158.231904 
L 111.073844 133.82952 
L 112.424472 140.630184 
L 113.775099 140.630184 
L 115.125727 127.228875 
L 116.476355 107.226921 
L 117.826982 137.229852 
L 119.17761 102.826491 
L 120.528237 118.828054 
L 121.878865 137.629891 
L 123.229493 90.425279 
L 124.58012 138.429969 
L 125.930748 92.825514 
L 127.281376 126.228777 
L 128.632003 130.629207 
L 129.982631 121.428308 
L 131.333258 131.629305 
L 132.683886 160.432119 
L 134.034514 136.229754 
L 135.385141 120.62823 
L 136.735769 116.027781 
L 138.086396 124.628621 
L 139.437024 112.427429 
L 140.787652 133.229461 
L 142.138279 129.829129 
L 143.488907 116.627839 
L 144.839535 154.831572 
L 146.190162 115.827761 
L 147.54079 158.831963 
L 148.891417 160.632139 
L 150.242045 143.630477 
L 151.592673 135.429676 
L 152.9433 151.631259 
L 154.293928 144.230536 
L 155.644555 120.428211 
L 156.995183 155.231611 
L 158.345811 125.02866 
L 159.696438 100.026217 
L 161.047066 141.430263 
L 162.397694 120.228191 
L 163.748321 137.629891 
L 165.098949 144.230536 
L 166.449576 117.227898 
L 167.800204 137.029833 
L 169.150832 112.227409 
L 170.501459 115.627742 
L 171.852087 103.02651 
L 173.202714 110.227214 
L 174.553342 119.828152 
L 175.90397 177.233761 
L 177.254597 136.229754 
L 178.605225 146.430751 
L 179.955853 159.83206 
L 181.30648 131.829324 
L 182.657108 124.028562 
L 184.007735 120.028171 
L 185.358363 129.42909 
L 186.708991 128.428992 
L 188.059618 114.627644 
L 189.410246 169.633018 
L 190.760873 126.628816 
L 192.111501 91.425377 
L 193.462129 128.829031 
L 194.812756 104.826686 
L 196.163384 134.229559 
L 197.514012 128.028953 
L 198.864639 139.830106 
L 200.215267 142.63038 
L 201.565894 96.825905 
L 202.916522 105.026706 
L 204.26715 128.629012 
L 205.617777 119.628132 
L 206.968405 101.826393 
L 208.319032 135.829715 
L 209.66966 124.028562 
L 211.020288 139.230048 
L 212.370915 150.831181 
L 213.721543 128.428992 
L 215.072171 141.030223 
L 216.422798 144.230536 
L 217.773426 144.230536 
L 219.124053 130.029149 
L 220.474681 139.430067 
L 221.825309 105.626764 
L 223.175936 129.62911 
L 224.526564 104.626667 
L 225.877191 133.229461 
L 227.227819 122.028367 
L 228.578447 114.627644 
L 229.929074 133.429481 
L 231.279702 159.632041 
L 232.63033 120.82825 
L 233.980957 126.628816 
L 235.331585 142.43036 
L 236.682212 150.231122 
L 238.03284 120.228191 
L 239.383468 151.831279 
L 242.084723 146.430751 
L 243.43535 137.229852 
L 244.785978 141.630282 
L 246.136606 131.829324 
L 247.487233 132.629403 
L 248.837861 157.431826 
L 250.188489 125.428699 
L 251.539116 150.431142 
L 252.889744 147.630868 
L 254.240371 113.827566 
L 255.590999 130.429188 
L 256.941627 142.230341 
L 258.292254 139.430067 
L 259.642882 137.829911 
L 260.993509 109.627155 
L 262.344137 116.627839 
L 263.694765 123.028465 
L 265.045392 130.029149 
L 266.39602 143.430458 
L 267.746648 129.029051 
L 269.097275 139.230048 
L 270.447903 152.431337 
L 271.79853 146.630771 
L 274.499786 129.829129 
L 275.850413 92.225455 
L 277.201041 110.427233 
L 278.551668 133.429481 
L 279.902296 137.029833 
L 281.252924 108.427038 
L 282.603551 116.827859 
L 283.954179 126.828836 
L 285.304807 138.22995 
L 286.655434 117.627937 
L 288.006062 106.226823 
L 289.356689 149.831083 
L 290.707317 140.830204 
L 292.057945 138.830008 
L 293.408572 122.828445 
L 294.7592 139.030028 
L 296.109827 158.431924 
L 297.460455 117.427917 
L 298.811083 133.429481 
L 300.16171 99.626178 
L 301.512338 102.226432 
L 302.862966 95.025729 
L 304.213593 131.229266 
L 305.564221 127.828934 
L 306.914848 109.027097 
L 308.265476 112.827468 
L 309.616104 125.22868 
L 310.966731 121.428308 
L 312.317359 109.427136 
L 313.667986 104.026608 
L 315.018614 126.428797 
L 316.369242 135.629696 
L 317.719869 142.230341 
L 319.070497 120.228191 
L 320.421125 120.62823 
L 321.771752 148.830986 
L 323.12238 149.431044 
L 324.473007 97.625983 
L 325.823635 119.828152 
L 327.174263 114.027585 
L 328.52489 113.227507 
L 328.52489 113.227507 
" clip-path="url(#p32eefd90a5)" style="fill: none; stroke: #a9678f; stroke-width: 1.5; stroke-linecap: round"/>
   </g>
   <g id="line2d_14">
    <path d="M 59.749995 236.439545 
L 61.100622 136.029735 
L 62.45125 173.03335 
L 63.801878 173.23337 
L 65.152505 132.829422 
L 66.503133 155.031591 
L 67.85376 134.429579 
L 69.204388 146.430751 
L 70.555016 140.030126 
L 71.905643 142.63038 
L 73.256271 150.431142 
L 74.606899 153.031396 
L 75.957526 170.833135 
L 77.308154 137.029833 
L 78.658781 151.23122 
L 80.009409 157.431826 
L 81.360037 152.631357 
L 82.710664 151.031201 
L 84.061292 156.031689 
L 85.411919 167.032764 
L 86.762547 119.828152 
L 88.113175 157.631845 
L 89.463802 151.23122 
L 90.81443 130.029149 
L 92.165058 171.833233 
L 93.515685 137.629891 
L 94.866313 109.627155 
L 96.21694 142.030321 
L 97.567568 153.431435 
L 98.918196 169.432998 
L 100.268823 144.430556 
L 101.619451 147.630868 
L 102.970078 131.229266 
L 104.320706 147.230829 
L 105.671334 137.629891 
L 107.021961 112.227409 
L 108.372589 136.429774 
L 109.723217 130.429188 
L 111.073844 114.227605 
L 112.424472 137.029833 
L 113.775099 123.228484 
L 115.125727 135.229657 
L 116.476355 149.631064 
L 117.826982 151.031201 
L 119.17761 130.629207 
L 120.528237 150.831181 
L 121.878865 102.426452 
L 123.229493 113.227507 
L 124.58012 135.429676 
L 125.930748 115.827761 
L 127.281376 140.830204 
L 128.632003 119.428113 
L 129.982631 153.431435 
L 131.333258 127.228875 
L 132.683886 116.627839 
L 135.385141 124.028562 
L 136.735769 147.830888 
L 138.086396 126.628816 
L 139.437024 127.628914 
L 140.787652 139.430067 
L 142.138279 130.229168 
L 143.488907 111.82737 
L 144.839535 149.431044 
L 146.190162 126.028758 
L 147.54079 121.028269 
L 148.891417 139.430067 
L 150.242045 154.831572 
L 151.592673 108.827077 
L 152.9433 121.028269 
L 154.293928 114.027585 
L 155.644555 131.029246 
L 156.995183 120.62823 
L 158.345811 124.028562 
L 159.696438 144.630575 
L 161.047066 148.830986 
L 162.397694 153.831474 
L 163.748321 119.028074 
L 165.098949 153.831474 
L 166.449576 122.428406 
L 167.800204 174.033448 
L 169.150832 135.829715 
L 170.501459 146.030712 
L 171.852087 129.029051 
L 173.202714 150.231122 
L 174.553342 98.226041 
L 175.90397 121.428308 
L 177.254597 132.429383 
L 178.605225 126.628816 
L 179.955853 124.228582 
L 181.30648 126.028758 
L 182.657108 97.625983 
L 184.007735 126.428797 
L 185.358363 139.430067 
L 186.708991 139.430067 
L 188.059618 107.226921 
L 189.410246 127.228875 
L 190.760873 125.428699 
L 192.111501 102.226432 
L 193.462129 144.030517 
L 194.812756 110.627253 
L 196.163384 129.42909 
L 197.514012 164.23249 
L 198.864639 117.227898 
L 200.215267 129.62911 
L 201.565894 134.029539 
L 202.916522 135.829715 
L 204.26715 163.232393 
L 205.617777 146.030712 
L 206.968405 132.429383 
L 208.319032 131.229266 
L 209.66966 111.027292 
L 211.020288 133.82952 
L 212.370915 145.430653 
L 213.721543 134.029539 
L 215.072171 160.432119 
L 216.422798 153.431435 
L 217.773426 163.432412 
L 219.124053 137.029833 
L 220.474681 153.231416 
L 221.825309 125.02866 
L 223.175936 146.230732 
L 224.526564 117.227898 
L 225.877191 130.429188 
L 227.227819 136.429774 
L 229.929074 154.231513 
L 231.279702 125.02866 
L 232.63033 122.228386 
L 233.980957 117.427917 
L 235.331585 101.226335 
L 236.682212 122.228386 
L 238.03284 146.630771 
L 239.383468 111.82737 
L 240.734095 94.42567 
L 242.084723 103.826589 
L 243.43535 152.631357 
L 244.785978 90.02524 
L 246.136606 125.428699 
L 247.487233 136.029735 
L 248.837861 110.227214 
L 250.188489 136.629794 
L 251.539116 134.629598 
L 252.889744 137.229852 
L 254.240371 120.82825 
L 255.590999 131.429285 
L 256.941627 136.029735 
L 258.292254 123.028465 
L 259.642882 114.427624 
L 260.993509 114.027585 
L 262.344137 135.429676 
L 263.694765 142.830399 
L 265.045392 149.431044 
L 266.39602 111.82737 
L 267.746648 147.230829 
L 269.097275 160.832158 
L 270.447903 124.828641 
L 271.79853 129.42909 
L 273.149158 127.828934 
L 274.499786 143.830497 
L 275.850413 150.031103 
L 277.201041 143.030419 
L 278.551668 131.029246 
L 279.902296 151.631259 
L 281.252924 126.628816 
L 282.603551 155.43163 
L 283.954179 158.231904 
L 285.304807 152.031298 
L 286.655434 130.229168 
L 288.006062 144.230536 
L 289.356689 166.832744 
L 290.707317 126.828836 
L 292.057945 173.03335 
L 293.408572 133.429481 
L 294.7592 159.432021 
L 296.109827 149.431044 
L 297.460455 146.83079 
L 298.811083 158.031885 
L 300.16171 133.6295 
L 301.512338 138.02993 
L 302.862966 116.027781 
L 304.213593 118.828054 
L 305.564221 114.427624 
L 306.914848 137.429872 
L 308.265476 145.030614 
L 309.616104 138.830008 
L 310.966731 125.628719 
L 312.317359 131.629305 
L 313.667986 120.428211 
L 315.018614 145.230634 
L 316.369242 123.428504 
L 317.719869 128.228973 
L 319.070497 130.829227 
L 320.421125 124.428601 
L 321.771752 128.629012 
L 323.12238 178.433878 
L 324.473007 170.433096 
L 325.823635 138.629989 
L 327.174263 132.829422 
L 328.52489 135.229657 
L 328.52489 135.229657 
" clip-path="url(#p32eefd90a5)" style="fill: none; stroke: #6c3f70; stroke-width: 1.5; stroke-linecap: round"/>
   </g>
   <g id="line2d_15">
    <path d="M 59.749995 264.84232 
L 61.100622 179.433976 
L 62.45125 176.833722 
L 63.801878 136.629794 
L 65.152505 157.031787 
L 66.503133 175.233565 
L 67.85376 143.230438 
L 69.204388 167.832842 
L 70.555016 124.028562 
L 71.905643 150.631161 
L 73.256271 150.631161 
L 74.606899 135.229657 
L 75.957526 130.429188 
L 77.308154 130.029149 
L 78.658781 163.632432 
L 80.009409 153.431435 
L 81.360037 155.43163 
L 82.710664 162.232295 
L 84.061292 148.630966 
L 85.411919 168.432901 
L 86.762547 167.432803 
L 88.113175 138.429969 
L 89.463802 129.42909 
L 90.81443 122.028367 
L 92.165058 124.628621 
L 93.515685 121.628328 
L 94.866313 148.030907 
L 96.21694 140.230145 
L 97.567568 121.028269 
L 98.918196 128.629012 
L 100.268823 150.431142 
L 101.619451 131.829324 
L 102.970078 160.03208 
L 104.320706 168.432901 
L 105.671334 119.028074 
L 107.021961 114.027585 
L 108.372589 98.026022 
L 109.723217 151.031201 
L 111.073844 109.627155 
L 112.424472 112.427429 
L 113.775099 131.029246 
L 115.125727 147.630868 
L 116.476355 138.02993 
L 117.826982 147.630868 
L 119.17761 146.230732 
L 120.528237 153.431435 
L 121.878865 134.629598 
L 123.229493 132.429383 
L 124.58012 120.028171 
L 125.930748 144.030517 
L 127.281376 151.831279 
L 128.632003 136.029735 
L 129.982631 138.02993 
L 131.333258 126.428797 
L 132.683886 103.22653 
L 134.034514 113.027488 
L 135.385141 114.027585 
L 136.735769 134.229559 
L 138.086396 116.827859 
L 139.437024 123.428504 
L 140.787652 130.629207 
L 142.138279 141.430263 
L 143.488907 134.429579 
L 144.839535 134.429579 
L 146.190162 127.628914 
L 148.891417 109.027097 
L 150.242045 102.626471 
L 151.592673 110.827273 
L 152.9433 73.223599 
L 154.293928 123.428504 
L 155.644555 109.427136 
L 156.995183 127.628914 
L 158.345811 165.432608 
L 159.696438 138.02993 
L 161.047066 91.825416 
L 162.397694 87.825025 
L 163.748321 102.626471 
L 165.098949 103.826589 
L 166.449576 98.226041 
L 167.800204 102.026413 
L 169.150832 121.628328 
L 170.501459 102.626471 
L 171.852087 138.22995 
L 173.202714 126.628816 
L 174.553342 145.830692 
L 175.90397 98.426061 
L 177.254597 108.227018 
L 178.605225 131.629305 
L 179.955853 137.429872 
L 181.30648 149.631064 
L 182.657108 128.028953 
L 185.358363 114.627644 
L 186.708991 122.828445 
L 188.059618 145.830692 
L 189.410246 135.429676 
L 190.760873 142.63038 
L 192.111501 129.829129 
L 193.462129 128.829031 
L 194.812756 123.828543 
L 196.163384 111.427331 
L 197.514012 95.625787 
L 198.864639 124.428601 
L 200.215267 134.429579 
L 201.565894 91.625396 
L 202.916522 110.627253 
L 204.26715 112.827468 
L 205.617777 117.027878 
L 206.968405 110.427233 
L 208.319032 102.226432 
L 209.66966 90.22526 
L 211.020288 159.432021 
L 212.370915 139.030028 
L 213.721543 125.22868 
L 215.072171 113.227507 
L 216.422798 95.425768 
L 217.773426 103.02651 
L 219.124053 109.827175 
L 220.474681 80.024263 
L 221.825309 135.629696 
L 223.175936 111.427331 
L 224.526564 149.431044 
L 225.877191 133.029442 
L 227.227819 126.228777 
L 228.578447 122.828445 
L 229.929074 111.027292 
L 231.279702 126.828836 
L 232.63033 123.428504 
L 233.980957 151.43124 
L 235.331585 112.427429 
L 236.682212 127.228875 
L 238.03284 133.029442 
L 239.383468 136.629794 
L 240.734095 136.829813 
L 242.084723 76.623931 
L 243.43535 149.431044 
L 244.785978 161.832256 
L 246.136606 133.82952 
L 247.487233 117.227898 
L 248.837861 126.028758 
L 250.188489 148.830986 
L 251.539116 144.030517 
L 252.889744 110.627253 
L 254.240371 115.227702 
L 255.590999 142.830399 
L 256.941627 128.629012 
L 258.292254 91.225357 
L 259.642882 134.229559 
L 260.993509 97.225944 
L 262.344137 159.632041 
L 263.694765 144.430556 
L 265.045392 131.029246 
L 266.39602 160.832158 
L 267.746648 120.228191 
L 270.447903 163.832451 
L 271.79853 167.232783 
L 273.149158 112.227409 
L 274.499786 109.627155 
L 275.850413 116.027781 
L 277.201041 148.230927 
L 278.551668 154.231513 
L 279.902296 151.831279 
L 281.252924 143.230438 
L 282.603551 142.030321 
L 283.954179 121.028269 
L 285.304807 146.230732 
L 286.655434 114.827663 
L 288.006062 135.629696 
L 289.356689 115.027683 
L 290.707317 97.826002 
L 292.057945 125.428699 
L 293.408572 139.630087 
L 294.7592 136.029735 
L 296.109827 112.02739 
L 297.460455 122.428406 
L 298.811083 130.629207 
L 300.16171 141.230243 
L 301.512338 123.228484 
L 302.862966 114.027585 
L 304.213593 113.627546 
L 305.564221 122.428406 
L 306.914848 142.830399 
L 308.265476 123.028465 
L 309.616104 129.22907 
L 310.966731 107.62696 
L 312.317359 130.629207 
L 313.667986 94.025631 
L 315.018614 159.632041 
L 316.369242 153.031396 
L 317.719869 111.427331 
L 319.070497 143.230438 
L 320.421125 128.629012 
L 321.771752 130.829227 
L 323.12238 144.030517 
L 324.473007 129.029051 
L 325.823635 137.629891 
L 327.174263 129.62911 
L 328.52489 144.230536 
L 328.52489 144.230536 
" clip-path="url(#p32eefd90a5)" style="fill: none; stroke: #2d1e3e; stroke-width: 1.5; stroke-linecap: round"/>
   </g>
   <g id="line2d_16"/>
   <g id="line2d_17"/>
   <g id="line2d_18"/>
   <g id="line2d_19"/>
   <g id="line2d_20"/>
   <g id="patch_3">
    <path d="M 46.31125 319.138125 
L 46.31125 22.318125 
" style="fill: none; stroke: #ffffff; stroke-width: 1.25; stroke-linejoin: miter; stroke-linecap: square"/>
   </g>
   <g id="patch_4">
    <path d="M 46.31125 319.138125 
L 341.963635 319.138125 
" style="fill: none; stroke: #ffffff; stroke-width: 1.25; stroke-linejoin: miter; stroke-linecap: square"/>
   </g>
   <g id="text_13">
    <!-- Control For Symmetry -->
    <g style="fill: #262626" transform="translate(128.156192 16.318125)scale(0.12 -0.12)">
     <defs>
      <path id="DejaVuSans-43" d="M 4122 4306 
L 4122 3641 
Q 3803 3938 3442 4084 
Q 3081 4231 2675 4231 
Q 1875 4231 1450 3742 
Q 1025 3253 1025 2328 
Q 1025 1406 1450 917 
Q 1875 428 2675 428 
Q 3081 428 3442 575 
Q 3803 722 4122 1019 
L 4122 359 
Q 3791 134 3420 21 
Q 3050 -91 2638 -91 
Q 1578 -91 968 557 
Q 359 1206 359 2328 
Q 359 3453 968 4101 
Q 1578 4750 2638 4750 
Q 3056 4750 3426 4639 
Q 3797 4528 4122 4306 
z
" transform="scale(0.015625)"/>
      <path id="DejaVuSans-6c" d="M 603 4863 
L 1178 4863 
L 1178 0 
L 603 0 
L 603 4863 
z
" transform="scale(0.015625)"/>
      <path id="DejaVuSans-20" transform="scale(0.015625)"/>
      <path id="DejaVuSans-53" d="M 3425 4513 
L 3425 3897 
Q 3066 4069 2747 4153 
Q 2428 4238 2131 4238 
Q 1616 4238 1336 4038 
Q 1056 3838 1056 3469 
Q 1056 3159 1242 3001 
Q 1428 2844 1947 2747 
L 2328 2669 
Q 3034 2534 3370 2195 
Q 3706 1856 3706 1288 
Q 3706 609 3251 259 
Q 2797 -91 1919 -91 
Q 1588 -91 1214 -16 
Q 841 59 441 206 
L 441 856 
Q 825 641 1194 531 
Q 1563 422 1919 422 
Q 2459 422 2753 634 
Q 3047 847 3047 1241 
Q 3047 1584 2836 1778 
Q 2625 1972 2144 2069 
L 1759 2144 
Q 1053 2284 737 2584 
Q 422 2884 422 3419 
Q 422 4038 858 4394 
Q 1294 4750 2059 4750 
Q 2388 4750 2728 4690 
Q 3069 4631 3425 4513 
z
" transform="scale(0.015625)"/>
      <path id="DejaVuSans-79" d="M 2059 -325 
Q 1816 -950 1584 -1140 
Q 1353 -1331 966 -1331 
L 506 -1331 
L 506 -850 
L 844 -850 
Q 1081 -850 1212 -737 
Q 1344 -625 1503 -206 
L 1606 56 
L 191 3500 
L 800 3500 
L 1894 763 
L 2988 3500 
L 3597 3500 
L 2059 -325 
z
" transform="scale(0.015625)"/>
      <path id="DejaVuSans-6d" d="M 3328 2828 
Q 3544 3216 3844 3400 
Q 4144 3584 4550 3584 
Q 5097 3584 5394 3201 
Q 5691 2819 5691 2113 
L 5691 0 
L 5113 0 
L 5113 2094 
Q 5113 2597 4934 2840 
Q 4756 3084 4391 3084 
Q 3944 3084 3684 2787 
Q 3425 2491 3425 1978 
L 3425 0 
L 2847 0 
L 2847 2094 
Q 2847 2600 2669 2842 
Q 2491 3084 2119 3084 
Q 1678 3084 1418 2786 
Q 1159 2488 1159 1978 
L 1159 0 
L 581 0 
L 581 3500 
L 1159 3500 
L 1159 2956 
Q 1356 3278 1631 3431 
Q 1906 3584 2284 3584 
Q 2666 3584 2933 3390 
Q 3200 3197 3328 2828 
z
" transform="scale(0.015625)"/>
     </defs>
     <use xlink:href="#DejaVuSans-43"/>
     <use xlink:href="#DejaVuSans-6f" x="69.824219"/>
     <use xlink:href="#DejaVuSans-6e" x="131.005859"/>
     <use xlink:href="#DejaVuSans-74" x="194.384766"/>
     <use xlink:href="#DejaVuSans-72" x="233.59375"/>
     <use xlink:href="#DejaVuSans-6f" x="272.457031"/>
     <use xlink:href="#DejaVuSans-6c" x="333.638672"/>
     <use xlink:href="#DejaVuSans-20" x="361.421875"/>
     <use xlink:href="#DejaVuSans-46" x="393.208984"/>
     <use xlink:href="#DejaVuSans-6f" x="447.103516"/>
     <use xlink:href="#DejaVuSans-72" x="508.285156"/>
     <use xlink:href="#DejaVuSans-20" x="549.398438"/>
     <use xlink:href="#DejaVuSans-53" x="581.185547"/>
     <use xlink:href="#DejaVuSans-79" x="644.662109"/>
     <use xlink:href="#DejaVuSans-6d" x="703.841797"/>
     <use xlink:href="#DejaVuSans-6d" x="801.253906"/>
     <use xlink:href="#DejaVuSans-65" x="898.666016"/>
     <use xlink:href="#DejaVuSans-74" x="960.189453"/>
     <use xlink:href="#DejaVuSans-72" x="999.398438"/>
     <use xlink:href="#DejaVuSans-79" x="1040.511719"/>
    </g>
   </g>
  </g>
  <g id="legend_1">
   <g id="text_14">
    <!-- Trial -->
    <g style="fill: #262626" transform="translate(353.293585 143.995312)scale(0.12 -0.12)">
     <defs>
      <path id="DejaVuSans-54" d="M -19 4666 
L 3928 4666 
L 3928 4134 
L 2272 4134 
L 2272 0 
L 1638 0 
L 1638 4134 
L -19 4134 
L -19 4666 
z
" transform="scale(0.015625)"/>
     </defs>
     <use xlink:href="#DejaVuSans-54"/>
     <use xlink:href="#DejaVuSans-72" x="46.333984"/>
     <use xlink:href="#DejaVuSans-69" x="87.447266"/>
     <use xlink:href="#DejaVuSans-61" x="115.230469"/>
     <use xlink:href="#DejaVuSans-6c" x="176.509766"/>
    </g>
   </g>
   <g id="line2d_21">
    <path d="M 346.651085 156.499219 
L 357.651085 156.499219 
L 368.651085 156.499219 
" style="fill: none; stroke: #edd1cb; stroke-width: 1.5; stroke-linecap: round"/>
   </g>
   <g id="text_15">
    <!-- 0 -->
    <g style="fill: #262626" transform="translate(377.451085 160.349219)scale(0.11 -0.11)">
     <use xlink:href="#DejaVuSans-30"/>
    </g>
   </g>
   <g id="line2d_22">
    <path d="M 346.651085 172.645156 
L 357.651085 172.645156 
L 368.651085 172.645156 
" style="fill: none; stroke: #d499a7; stroke-width: 1.5; stroke-linecap: round"/>
   </g>
   <g id="text_16">
    <!-- 1 -->
    <g style="fill: #262626" transform="translate(377.451085 176.495156)scale(0.11 -0.11)">
     <use xlink:href="#DejaVuSans-31"/>
    </g>
   </g>
   <g id="line2d_23">
    <path d="M 346.651085 188.791094 
L 357.651085 188.791094 
L 368.651085 188.791094 
" style="fill: none; stroke: #a9678f; stroke-width: 1.5; stroke-linecap: round"/>
   </g>
   <g id="text_17">
    <!-- 2 -->
    <g style="fill: #262626" transform="translate(377.451085 192.641094)scale(0.11 -0.11)">
     <use xlink:href="#DejaVuSans-32"/>
    </g>
   </g>
   <g id="line2d_24">
    <path d="M 346.651085 204.937031 
L 357.651085 204.937031 
L 368.651085 204.937031 
" style="fill: none; stroke: #6c3f70; stroke-width: 1.5; stroke-linecap: round"/>
   </g>
   <g id="text_18">
    <!-- 3 -->
    <g style="fill: #262626" transform="translate(377.451085 208.787031)scale(0.11 -0.11)">
     <use xlink:href="#DejaVuSans-33"/>
    </g>
   </g>
   <g id="line2d_25">
    <path d="M 346.651085 221.082969 
L 357.651085 221.082969 
L 368.651085 221.082969 
" style="fill: none; stroke: #2d1e3e; stroke-width: 1.5; stroke-linecap: round"/>
   </g>
   <g id="text_19">
    <!-- 4 -->
    <g style="fill: #262626" transform="translate(377.451085 224.932969)scale(0.11 -0.11)">
     <use xlink:href="#DejaVuSans-34"/>
    </g>
   </g>
  </g>
 </g>
 <defs>
  <clipPath id="p32eefd90a5">
   <rect x="46.31125" y="22.318125" width="295.652385" height="296.82"/>
  </clipPath>
 </defs>
</svg>
