<?xml version="1.0" encoding="utf-8" standalone="no"?>
<!DOCTYPE svg PUBLIC "-//W3C//DTD SVG 1.1//EN"
  "http://www.w3.org/Graphics/SVG/1.1/DTD/svg11.dtd">
<svg xmlns:xlink="http://www.w3.org/1999/xlink" width="393.622805pt" height="362.097812pt" viewBox="0 0 393.622805 362.097812" xmlns="http://www.w3.org/2000/svg" version="1.1">
 <metadata>
  <rdf:RDF xmlns:dc="http://purl.org/dc/elements/1.1/" xmlns:cc="http://creativecommons.org/ns#" xmlns:rdf="http://www.w3.org/1999/02/22-rdf-syntax-ns#">
   <cc:Work>
    <dc:type rdf:resource="http://purl.org/dc/dcmitype/StillImage"/>
    <dc:date>2022-11-20T08:29:24.638597</dc:date>
    <dc:format>image/svg+xml</dc:format>
    <dc:creator>
     <cc:Agent>
      <dc:title>Matplotlib v3.5.2, https://matplotlib.org/</dc:title>
     </cc:Agent>
    </dc:creator>
   </cc:Work>
  </rdf:RDF>
 </metadata>
 <defs>
  <style type="text/css">*{stroke-linejoin: round; stroke-linecap: butt}</style>
 </defs>
 <g id="figure_1">
  <g id="patch_1">
   <path d="M 0 362.097812 
L 393.622805 362.097812 
L 393.622805 0 
L 0 0 
z
" style="fill: #ffffff"/>
  </g>
  <g id="axes_1">
   <g id="patch_2">
    <path d="M 53.31 319.138125 
L 341.236605 319.138125 
L 341.236605 22.318125 
L 53.31 22.318125 
z
" style="fill: #eaeaf2"/>
   </g>
   <g id="matplotlib.axis_1">
    <g id="xtick_1">
     <g id="line2d_1">
      <path d="M 66.397573 319.138125 
L 66.397573 22.318125 
" clip-path="url(#p155b3b9448)" style="fill: none; stroke: #ffffff; stroke-linecap: round"/>
     </g>
     <g id="text_1">
      <!-- 0 -->
      <g style="fill: #262626" transform="translate(62.898198 336.996406)scale(0.11 -0.11)">
       <defs>
        <path id="DejaVuSans-30" d="M 2034 4250 
Q 1547 4250 1301 3770 
Q 1056 3291 1056 2328 
Q 1056 1369 1301 889 
Q 1547 409 2034 409 
Q 2525 409 2770 889 
Q 3016 1369 3016 2328 
Q 3016 3291 2770 3770 
Q 2525 4250 2034 4250 
z
M 2034 4750 
Q 2819 4750 3233 4129 
Q 3647 3509 3647 2328 
Q 3647 1150 3233 529 
Q 2819 -91 2034 -91 
Q 1250 -91 836 529 
Q 422 1150 422 2328 
Q 422 3509 836 4129 
Q 1250 4750 2034 4750 
z
" transform="scale(0.015625)"/>
       </defs>
       <use xlink:href="#DejaVuSans-30"/>
      </g>
     </g>
    </g>
    <g id="xtick_2">
     <g id="line2d_2">
      <path d="M 132.164271 319.138125 
L 132.164271 22.318125 
" clip-path="url(#p155b3b9448)" style="fill: none; stroke: #ffffff; stroke-linecap: round"/>
     </g>
     <g id="text_2">
      <!-- 50 -->
      <g style="fill: #262626" transform="translate(125.165521 336.996406)scale(0.11 -0.11)">
       <defs>
        <path id="DejaVuSans-35" d="M 691 4666 
L 3169 4666 
L 3169 4134 
L 1269 4134 
L 1269 2991 
Q 1406 3038 1543 3061 
Q 1681 3084 1819 3084 
Q 2600 3084 3056 2656 
Q 3513 2228 3513 1497 
Q 3513 744 3044 326 
Q 2575 -91 1722 -91 
Q 1428 -91 1123 -41 
Q 819 9 494 109 
L 494 744 
Q 775 591 1075 516 
Q 1375 441 1709 441 
Q 2250 441 2565 725 
Q 2881 1009 2881 1497 
Q 2881 1984 2565 2268 
Q 2250 2553 1709 2553 
Q 1456 2553 1204 2497 
Q 953 2441 691 2322 
L 691 4666 
z
" transform="scale(0.015625)"/>
       </defs>
       <use xlink:href="#DejaVuSans-35"/>
       <use xlink:href="#DejaVuSans-30" x="63.623047"/>
      </g>
     </g>
    </g>
    <g id="xtick_3">
     <g id="line2d_3">
      <path d="M 197.930969 319.138125 
L 197.930969 22.318125 
" clip-path="url(#p155b3b9448)" style="fill: none; stroke: #ffffff; stroke-linecap: round"/>
     </g>
     <g id="text_3">
      <!-- 100 -->
      <g style="fill: #262626" transform="translate(187.432844 336.996406)scale(0.11 -0.11)">
       <defs>
        <path id="DejaVuSans-31" d="M 794 531 
L 1825 531 
L 1825 4091 
L 703 3866 
L 703 4441 
L 1819 4666 
L 2450 4666 
L 2450 531 
L 3481 531 
L 3481 0 
L 794 0 
L 794 531 
z
" transform="scale(0.015625)"/>
       </defs>
       <use xlink:href="#DejaVuSans-31"/>
       <use xlink:href="#DejaVuSans-30" x="63.623047"/>
       <use xlink:href="#DejaVuSans-30" x="127.246094"/>
      </g>
     </g>
    </g>
    <g id="xtick_4">
     <g id="line2d_4">
      <path d="M 263.697668 319.138125 
L 263.697668 22.318125 
" clip-path="url(#p155b3b9448)" style="fill: none; stroke: #ffffff; stroke-linecap: round"/>
     </g>
     <g id="text_4">
      <!-- 150 -->
      <g style="fill: #262626" transform="translate(253.199543 336.996406)scale(0.11 -0.11)">
       <use xlink:href="#DejaVuSans-31"/>
       <use xlink:href="#DejaVuSans-35" x="63.623047"/>
       <use xlink:href="#DejaVuSans-30" x="127.246094"/>
      </g>
     </g>
    </g>
    <g id="xtick_5">
     <g id="line2d_5">
      <path d="M 329.464366 319.138125 
L 329.464366 22.318125 
" clip-path="url(#p155b3b9448)" style="fill: none; stroke: #ffffff; stroke-linecap: round"/>
     </g>
     <g id="text_5">
      <!-- 200 -->
      <g style="fill: #262626" transform="translate(318.966241 336.996406)scale(0.11 -0.11)">
       <defs>
        <path id="DejaVuSans-32" d="M 1228 531 
L 3431 531 
L 3431 0 
L 469 0 
L 469 531 
Q 828 903 1448 1529 
Q 2069 2156 2228 2338 
Q 2531 2678 2651 2914 
Q 2772 3150 2772 3378 
Q 2772 3750 2511 3984 
Q 2250 4219 1831 4219 
Q 1534 4219 1204 4116 
Q 875 4013 500 3803 
L 500 4441 
Q 881 4594 1212 4672 
Q 1544 4750 1819 4750 
Q 2544 4750 2975 4387 
Q 3406 4025 3406 3419 
Q 3406 3131 3298 2873 
Q 3191 2616 2906 2266 
Q 2828 2175 2409 1742 
Q 1991 1309 1228 531 
z
" transform="scale(0.015625)"/>
       </defs>
       <use xlink:href="#DejaVuSans-32"/>
       <use xlink:href="#DejaVuSans-30" x="63.623047"/>
       <use xlink:href="#DejaVuSans-30" x="127.246094"/>
      </g>
     </g>
    </g>
    <g id="text_6">
     <!-- Generation -->
     <g style="fill: #262626" transform="translate(163.80174 352.402187)scale(0.12 -0.12)">
      <defs>
       <path id="DejaVuSans-47" d="M 3809 666 
L 3809 1919 
L 2778 1919 
L 2778 2438 
L 4434 2438 
L 4434 434 
Q 4069 175 3628 42 
Q 3188 -91 2688 -91 
Q 1594 -91 976 548 
Q 359 1188 359 2328 
Q 359 3472 976 4111 
Q 1594 4750 2688 4750 
Q 3144 4750 3555 4637 
Q 3966 4525 4313 4306 
L 4313 3634 
Q 3963 3931 3569 4081 
Q 3175 4231 2741 4231 
Q 1884 4231 1454 3753 
Q 1025 3275 1025 2328 
Q 1025 1384 1454 906 
Q 1884 428 2741 428 
Q 3075 428 3337 486 
Q 3600 544 3809 666 
z
" transform="scale(0.015625)"/>
       <path id="DejaVuSans-65" d="M 3597 1894 
L 3597 1613 
L 953 1613 
Q 991 1019 1311 708 
Q 1631 397 2203 397 
Q 2534 397 2845 478 
Q 3156 559 3463 722 
L 3463 178 
Q 3153 47 2828 -22 
Q 2503 -91 2169 -91 
Q 1331 -91 842 396 
Q 353 884 353 1716 
Q 353 2575 817 3079 
Q 1281 3584 2069 3584 
Q 2775 3584 3186 3129 
Q 3597 2675 3597 1894 
z
M 3022 2063 
Q 3016 2534 2758 2815 
Q 2500 3097 2075 3097 
Q 1594 3097 1305 2825 
Q 1016 2553 972 2059 
L 3022 2063 
z
" transform="scale(0.015625)"/>
       <path id="DejaVuSans-6e" d="M 3513 2113 
L 3513 0 
L 2938 0 
L 2938 2094 
Q 2938 2591 2744 2837 
Q 2550 3084 2163 3084 
Q 1697 3084 1428 2787 
Q 1159 2491 1159 1978 
L 1159 0 
L 581 0 
L 581 3500 
L 1159 3500 
L 1159 2956 
Q 1366 3272 1645 3428 
Q 1925 3584 2291 3584 
Q 2894 3584 3203 3211 
Q 3513 2838 3513 2113 
z
" transform="scale(0.015625)"/>
       <path id="DejaVuSans-72" d="M 2631 2963 
Q 2534 3019 2420 3045 
Q 2306 3072 2169 3072 
Q 1681 3072 1420 2755 
Q 1159 2438 1159 1844 
L 1159 0 
L 581 0 
L 581 3500 
L 1159 3500 
L 1159 2956 
Q 1341 3275 1631 3429 
Q 1922 3584 2338 3584 
Q 2397 3584 2469 3576 
Q 2541 3569 2628 3553 
L 2631 2963 
z
" transform="scale(0.015625)"/>
       <path id="DejaVuSans-61" d="M 2194 1759 
Q 1497 1759 1228 1600 
Q 959 1441 959 1056 
Q 959 750 1161 570 
Q 1363 391 1709 391 
Q 2188 391 2477 730 
Q 2766 1069 2766 1631 
L 2766 1759 
L 2194 1759 
z
M 3341 1997 
L 3341 0 
L 2766 0 
L 2766 531 
Q 2569 213 2275 61 
Q 1981 -91 1556 -91 
Q 1019 -91 701 211 
Q 384 513 384 1019 
Q 384 1609 779 1909 
Q 1175 2209 1959 2209 
L 2766 2209 
L 2766 2266 
Q 2766 2663 2505 2880 
Q 2244 3097 1772 3097 
Q 1472 3097 1187 3025 
Q 903 2953 641 2809 
L 641 3341 
Q 956 3463 1253 3523 
Q 1550 3584 1831 3584 
Q 2591 3584 2966 3190 
Q 3341 2797 3341 1997 
z
" transform="scale(0.015625)"/>
       <path id="DejaVuSans-74" d="M 1172 4494 
L 1172 3500 
L 2356 3500 
L 2356 3053 
L 1172 3053 
L 1172 1153 
Q 1172 725 1289 603 
Q 1406 481 1766 481 
L 2356 481 
L 2356 0 
L 1766 0 
Q 1100 0 847 248 
Q 594 497 594 1153 
L 594 3053 
L 172 3053 
L 172 3500 
L 594 3500 
L 594 4494 
L 1172 4494 
z
" transform="scale(0.015625)"/>
       <path id="DejaVuSans-69" d="M 603 3500 
L 1178 3500 
L 1178 0 
L 603 0 
L 603 3500 
z
M 603 4863 
L 1178 4863 
L 1178 4134 
L 603 4134 
L 603 4863 
z
" transform="scale(0.015625)"/>
       <path id="DejaVuSans-6f" d="M 1959 3097 
Q 1497 3097 1228 2736 
Q 959 2375 959 1747 
Q 959 1119 1226 758 
Q 1494 397 1959 397 
Q 2419 397 2687 759 
Q 2956 1122 2956 1747 
Q 2956 2369 2687 2733 
Q 2419 3097 1959 3097 
z
M 1959 3584 
Q 2709 3584 3137 3096 
Q 3566 2609 3566 1747 
Q 3566 888 3137 398 
Q 2709 -91 1959 -91 
Q 1206 -91 779 398 
Q 353 888 353 1747 
Q 353 2609 779 3096 
Q 1206 3584 1959 3584 
z
" transform="scale(0.015625)"/>
      </defs>
      <use xlink:href="#DejaVuSans-47"/>
      <use xlink:href="#DejaVuSans-65" x="77.490234"/>
      <use xlink:href="#DejaVuSans-6e" x="139.013672"/>
      <use xlink:href="#DejaVuSans-65" x="202.392578"/>
      <use xlink:href="#DejaVuSans-72" x="263.916016"/>
      <use xlink:href="#DejaVuSans-61" x="305.029297"/>
      <use xlink:href="#DejaVuSans-74" x="366.308594"/>
      <use xlink:href="#DejaVuSans-69" x="405.517578"/>
      <use xlink:href="#DejaVuSans-6f" x="433.300781"/>
      <use xlink:href="#DejaVuSans-6e" x="494.482422"/>
     </g>
    </g>
   </g>
   <g id="matplotlib.axis_2">
    <g id="ytick_1">
     <g id="line2d_6">
      <path d="M 53.31 278.86416 
L 341.236605 278.86416 
" clip-path="url(#p155b3b9448)" style="fill: none; stroke: #ffffff; stroke-linecap: round"/>
     </g>
     <g id="text_7">
      <!-- 50 -->
      <g style="fill: #262626" transform="translate(29.8125 283.043301)scale(0.11 -0.11)">
       <use xlink:href="#DejaVuSans-35"/>
       <use xlink:href="#DejaVuSans-30" x="63.623047"/>
      </g>
     </g>
    </g>
    <g id="ytick_2">
     <g id="line2d_7">
      <path d="M 53.31 219.273791 
L 341.236605 219.273791 
" clip-path="url(#p155b3b9448)" style="fill: none; stroke: #ffffff; stroke-linecap: round"/>
     </g>
     <g id="text_8">
      <!-- 100 -->
      <g style="fill: #262626" transform="translate(22.81375 223.452932)scale(0.11 -0.11)">
       <use xlink:href="#DejaVuSans-31"/>
       <use xlink:href="#DejaVuSans-30" x="63.623047"/>
       <use xlink:href="#DejaVuSans-30" x="127.246094"/>
      </g>
     </g>
    </g>
    <g id="ytick_3">
     <g id="line2d_8">
      <path d="M 53.31 159.683423 
L 341.236605 159.683423 
" clip-path="url(#p155b3b9448)" style="fill: none; stroke: #ffffff; stroke-linecap: round"/>
     </g>
     <g id="text_9">
      <!-- 150 -->
      <g style="fill: #262626" transform="translate(22.81375 163.862563)scale(0.11 -0.11)">
       <use xlink:href="#DejaVuSans-31"/>
       <use xlink:href="#DejaVuSans-35" x="63.623047"/>
       <use xlink:href="#DejaVuSans-30" x="127.246094"/>
      </g>
     </g>
    </g>
    <g id="ytick_4">
     <g id="line2d_9">
      <path d="M 53.31 100.093054 
L 341.236605 100.093054 
" clip-path="url(#p155b3b9448)" style="fill: none; stroke: #ffffff; stroke-linecap: round"/>
     </g>
     <g id="text_10">
      <!-- 200 -->
      <g style="fill: #262626" transform="translate(22.81375 104.272194)scale(0.11 -0.11)">
       <use xlink:href="#DejaVuSans-32"/>
       <use xlink:href="#DejaVuSans-30" x="63.623047"/>
       <use xlink:href="#DejaVuSans-30" x="127.246094"/>
      </g>
     </g>
    </g>
    <g id="ytick_5">
     <g id="line2d_10">
      <path d="M 53.31 40.502685 
L 341.236605 40.502685 
" clip-path="url(#p155b3b9448)" style="fill: none; stroke: #ffffff; stroke-linecap: round"/>
     </g>
     <g id="text_11">
      <!-- 250 -->
      <g style="fill: #262626" transform="translate(22.81375 44.681825)scale(0.11 -0.11)">
       <use xlink:href="#DejaVuSans-32"/>
       <use xlink:href="#DejaVuSans-35" x="63.623047"/>
       <use xlink:href="#DejaVuSans-30" x="127.246094"/>
      </g>
     </g>
    </g>
    <g id="text_12">
     <!-- Fitness -->
     <g style="fill: #262626" transform="translate(16.318125 191.50875)rotate(-90)scale(0.12 -0.12)">
      <defs>
       <path id="DejaVuSans-46" d="M 628 4666 
L 3309 4666 
L 3309 4134 
L 1259 4134 
L 1259 2759 
L 3109 2759 
L 3109 2228 
L 1259 2228 
L 1259 0 
L 628 0 
L 628 4666 
z
" transform="scale(0.015625)"/>
       <path id="DejaVuSans-73" d="M 2834 3397 
L 2834 2853 
Q 2591 2978 2328 3040 
Q 2066 3103 1784 3103 
Q 1356 3103 1142 2972 
Q 928 2841 928 2578 
Q 928 2378 1081 2264 
Q 1234 2150 1697 2047 
L 1894 2003 
Q 2506 1872 2764 1633 
Q 3022 1394 3022 966 
Q 3022 478 2636 193 
Q 2250 -91 1575 -91 
Q 1294 -91 989 -36 
Q 684 19 347 128 
L 347 722 
Q 666 556 975 473 
Q 1284 391 1588 391 
Q 1994 391 2212 530 
Q 2431 669 2431 922 
Q 2431 1156 2273 1281 
Q 2116 1406 1581 1522 
L 1381 1569 
Q 847 1681 609 1914 
Q 372 2147 372 2553 
Q 372 3047 722 3315 
Q 1072 3584 1716 3584 
Q 2034 3584 2315 3537 
Q 2597 3491 2834 3397 
z
" transform="scale(0.015625)"/>
      </defs>
      <use xlink:href="#DejaVuSans-46"/>
      <use xlink:href="#DejaVuSans-69" x="50.269531"/>
      <use xlink:href="#DejaVuSans-74" x="78.052734"/>
      <use xlink:href="#DejaVuSans-6e" x="117.261719"/>
      <use xlink:href="#DejaVuSans-65" x="180.640625"/>
      <use xlink:href="#DejaVuSans-73" x="242.164062"/>
      <use xlink:href="#DejaVuSans-73" x="294.263672"/>
     </g>
    </g>
   </g>
   <g id="PolyCollection_1">
    <defs>
     <path id="mb7ad022812" d="M 66.397573 -132.324012 
L 66.397573 -70.710364 
L 67.712907 -151.893861 
L 69.028241 -195.703025 
L 70.343575 -199.579192 
L 71.658909 -237.112744 
L 72.974243 -258.204011 
L 74.289577 -258.98241 
L 75.604911 -265.170497 
L 76.920245 -258.837158 
L 78.235579 -273.957283 
L 79.550913 -263.82599 
L 80.866247 -272.986147 
L 82.181581 -272.089498 
L 83.496915 -263.196566 
L 84.812248 -265.727295 
L 86.127582 -260.918166 
L 87.442916 -259.839952 
L 88.75825 -249.748696 
L 90.073584 -263.230086 
L 91.388918 -257.012203 
L 92.704252 -243.490776 
L 94.019586 -270.00849 
L 95.33492 -264.49545 
L 96.650254 -258.124867 
L 97.965588 -268.06901 
L 99.280922 -274.849277 
L 100.596256 -257.349261 
L 101.91159 -275.920041 
L 103.226924 -270.158397 
L 104.542258 -264.760813 
L 105.857592 -261.48055 
L 107.172926 -273.920039 
L 108.48826 -263.600663 
L 109.803594 -257.533619 
L 111.118928 -271.352067 
L 112.434262 -260.850195 
L 113.749596 -266.695638 
L 115.06493 -270.679813 
L 116.380264 -273.028046 
L 117.695598 -282.785969 
L 119.010932 -267.402343 
L 120.326266 -277.344623 
L 121.641599 -277.46008 
L 122.956933 -273.401417 
L 124.272267 -282.816695 
L 125.587601 -266.994521 
L 126.902935 -287.477779 
L 128.218269 -292.121173 
L 129.533603 -264.871614 
L 130.848937 -266.920033 
L 132.164271 -289.043889 
L 133.479605 -265.76547 
L 134.794939 -270.933072 
L 136.110273 -274.555049 
L 137.425607 -276.453561 
L 138.740941 -266.174222 
L 140.056275 -275.559706 
L 141.371609 -278.686338 
L 142.686943 -264.946102 
L 144.002277 -275.929352 
L 145.317611 -275.001977 
L 146.632945 -271.238473 
L 147.948279 -269.487075 
L 149.263613 -280.290622 
L 150.578947 -273.215197 
L 151.894281 -276.491736 
L 153.209615 -270.791545 
L 154.524949 -263.111836 
L 155.840283 -270.267336 
L 157.155617 -270.159328 
L 158.470951 -273.102534 
L 159.786284 -264.424686 
L 161.101618 -276.786895 
L 162.416952 -269.629533 
L 163.732286 -285.875357 
L 165.04762 -290.679831 
L 166.362954 -275.821345 
L 167.678288 -282.263622 
L 168.993622 -277.384661 
L 170.308956 -262.375336 
L 171.62429 -264.83437 
L 172.939624 -267.920965 
L 174.254958 -273.101603 
L 175.570292 -269.258024 
L 176.885626 -278.202166 
L 178.20096 -267.737539 
L 179.516294 -261.104386 
L 180.831628 -272.842757 
L 182.146962 -287.404223 
L 183.462296 -286.842769 
L 184.77763 -297.535516 
L 186.092964 -261.817608 
L 187.408298 -278.651887 
L 188.723632 -272.313893 
L 190.038966 -276.117434 
L 191.3543 -286.659343 
L 192.669634 -287.107202 
L 193.984968 -285.021539 
L 195.300302 -277.162128 
L 196.615636 -277.490806 
L 197.930969 -280.620231 
L 199.246303 -278.316691 
L 200.561637 -279.354867 
L 201.876971 -258.636972 
L 203.192305 -263.904202 
L 204.507639 -267.550388 
L 205.822973 -268.295267 
L 207.138307 -275.555981 
L 208.453641 -270.3381 
L 209.768975 -266.866961 
L 211.084309 -277.569949 
L 212.399643 -276.228235 
L 213.714977 -275.523393 
L 215.030311 -279.65375 
L 216.345645 -288.148171 
L 217.660979 -274.031771 
L 218.976313 -281.8558 
L 220.291647 -285.317628 
L 221.606981 -281.073677 
L 222.922315 -277.678888 
L 224.237649 -261.4042 
L 225.552983 -276.007564 
L 226.868317 -272.389312 
L 228.183651 -269.564356 
L 229.498985 -266.622081 
L 230.814319 -279.545743 
L 232.129653 -270.978696 
L 233.444987 -265.244054 
L 234.760321 -263.642563 
L 236.075654 -293.393055 
L 237.390988 -281.740344 
L 238.706322 -273.958214 
L 240.021656 -269.78782 
L 241.33699 -280.359524 
L 242.652324 -265.798058 
L 243.967658 -270.161191 
L 245.282992 -273.096947 
L 246.598326 -267.664913 
L 247.91366 -272.35393 
L 249.228994 -265.388374 
L 250.544328 -277.124884 
L 251.859662 -286.91912 
L 253.174996 -279.583918 
L 254.49033 -272.318548 
L 255.805664 -263.531762 
L 257.120998 -275.188197 
L 258.436332 -267.625807 
L 259.751666 -261.667701 
L 261.067 -271.163985 
L 262.382334 -274.105328 
L 263.697668 -277.67237 
L 265.013002 -286.730106 
L 266.328336 -277.945183 
L 267.64367 -287.32601 
L 268.959004 -280.476842 
L 270.274338 -271.872552 
L 271.589672 -268.634187 
L 272.905006 -279.616506 
L 274.220339 -277.869763 
L 275.535673 -297.422853 
L 276.851007 -276.15654 
L 278.166341 -269.713332 
L 279.481675 -277.677957 
L 280.797009 -280.291553 
L 282.112343 -276.076466 
L 283.427677 -266.168636 
L 284.743011 -276.751513 
L 286.058345 -287.697519 
L 287.373679 -284.088577 
L 288.689013 -260.550381 
L 290.004347 -279.086711 
L 291.319681 -260.847402 
L 292.635015 -281.290623 
L 293.950349 -278.274792 
L 295.265683 -278.541086 
L 296.581017 -262.297124 
L 297.896351 -257.758014 
L 299.211685 -274.629537 
L 300.527019 -276.857658 
L 301.842353 -274.291548 
L 303.157687 -297.532723 
L 304.473021 -277.795276 
L 305.788355 -272.653744 
L 307.103689 -283.26083 
L 308.419023 -269.600669 
L 309.734357 -285.836251 
L 311.04969 -267.44238 
L 312.365024 -278.615574 
L 313.680358 -263.90234 
L 314.995692 -273.586706 
L 316.311026 -267.356719 
L 317.62636 -278.982427 
L 318.941694 -284.085784 
L 320.257028 -268.334373 
L 321.572362 -283.64258 
L 322.887696 -277.051327 
L 324.20303 -282.446118 
L 325.518364 -266.725433 
L 326.833698 -281.107196 
L 328.149032 -267.801784 
L 328.149032 -303.793436 
L 328.149032 -303.793436 
L 326.833698 -308.040181 
L 325.518364 -299.174251 
L 324.20303 -306.847443 
L 322.887696 -307.562527 
L 321.572362 -313.365139 
L 320.257028 -302.567178 
L 318.941694 -315.154712 
L 317.62636 -308.007593 
L 316.311026 -300.296226 
L 314.995692 -301.448928 
L 313.680358 -288.900499 
L 312.365024 -310.053218 
L 311.04969 -289.52806 
L 309.734357 -314.893073 
L 308.419023 -292.920056 
L 307.103689 -308.645396 
L 305.788355 -303.64446 
L 304.473021 -306.028075 
L 303.157687 -320.404251 
L 301.842353 -306.549491 
L 300.527019 -318.578365 
L 299.211685 -304.996417 
L 297.896351 -281.520605 
L 296.581017 -289.310183 
L 295.265683 -307.856754 
L 293.950349 -310.917279 
L 292.635015 -307.629566 
L 291.319681 -292.100688 
L 290.004347 -304.837199 
L 288.689013 -285.805525 
L 287.373679 -308.785061 
L 286.058345 -313.252476 
L 284.743011 -306.214295 
L 283.427677 -295.864193 
L 282.112343 -305.21057 
L 280.797009 -314.335345 
L 279.481675 -309.82603 
L 278.166341 -298.324158 
L 276.851007 -301.186358 
L 275.535673 -324.731071 
L 274.220339 -308.858618 
L 272.905006 -314.150987 
L 271.589672 -299.621179 
L 270.274338 -299.288777 
L 268.959004 -309.307407 
L 267.64367 -308.001075 
L 266.328336 -315.420076 
L 265.013002 -314.631434 
L 263.697668 -301.67984 
L 262.382334 -303.533659 
L 261.067 -300.404234 
L 259.751666 -291.988957 
L 258.436332 -292.549478 
L 257.120998 -306.962899 
L 255.805664 -302.117457 
L 254.49033 -294.113726 
L 253.174996 -312.060669 
L 251.859662 -306.365133 
L 250.544328 -309.121188 
L 249.228994 -296.568104 
L 247.91366 -306.886549 
L 246.598326 -298.655629 
L 245.282992 -297.015032 
L 243.967658 -301.151907 
L 242.652324 -294.929369 
L 241.33699 -314.667747 
L 240.021656 -299.595108 
L 238.706322 -305.623978 
L 237.390988 -309.946142 
L 236.075654 -321.52064 
L 234.760321 -288.711486 
L 233.444987 -289.829737 
L 232.129653 -302.640735 
L 230.814319 -306.141669 
L 229.498985 -290.34929 
L 228.183651 -304.763642 
L 226.868317 -305.889341 
L 225.552983 -316.23665 
L 224.237649 -293.739424 
L 222.922315 -306.960106 
L 221.606981 -315.231063 
L 220.291647 -320.406114 
L 218.976313 -313.029943 
L 217.660979 -301.038313 
L 216.345645 -310.204987 
L 215.030311 -310.610947 
L 213.714977 -306.59139 
L 212.399643 -309.715229 
L 211.084309 -307.592322 
L 209.768975 -297.610935 
L 208.453641 -298.466616 
L 207.138307 -299.814848 
L 205.822973 -296.345571 
L 204.507639 -298.802743 
L 203.192305 -299.702185 
L 201.876971 -302.047625 
L 200.561637 -309.047631 
L 199.246303 -303.421927 
L 197.930969 -310.831617 
L 196.615636 -307.373514 
L 195.300302 -307.182638 
L 193.984968 -306.475003 
L 192.669634 -311.541115 
L 191.3543 -312.023425 
L 190.038966 -307.262713 
L 188.723632 -307.930311 
L 187.408298 -315.637022 
L 186.092964 -291.997336 
L 184.77763 -319.777622 
L 183.462296 -317.313001 
L 182.146962 -316.232926 
L 180.831628 -306.774817 
L 179.516294 -291.172382 
L 178.20096 -297.765498 
L 176.885626 -306.586735 
L 175.570292 -303.014106 
L 174.254958 -300.336264 
L 172.939624 -296.089519 
L 171.62429 -291.056926 
L 170.308956 -297.574622 
L 168.993622 -306.99735 
L 167.678288 -307.444277 
L 166.362954 -302.080213 
L 165.04762 -320.033674 
L 163.732286 -312.098844 
L 162.416952 -297.38654 
L 161.101618 -300.887475 
L 159.786284 -291.691005 
L 158.470951 -296.643523 
L 157.155617 -301.149114 
L 155.840283 -300.18077 
L 154.524949 -313.147262 
L 153.209615 -307.482452 
L 151.894281 -303.27202 
L 150.578947 -299.623973 
L 149.263613 -309.643534 
L 147.948279 -298.20777 
L 146.632945 -301.150976 
L 145.317611 -307.295301 
L 144.002277 -305.401445 
L 142.686943 -292.622104 
L 141.371609 -313.998287 
L 140.056275 -312.734785 
L 138.740941 -292.737561 
L 137.425607 -308.637016 
L 136.110273 -303.233845 
L 134.794939 -296.568104 
L 133.479605 -295.083 
L 132.164271 -311.654709 
L 130.848937 -295.415403 
L 129.533603 -294.484303 
L 128.218269 -312.062531 
L 126.902935 -316.678922 
L 125.587601 -298.878162 
L 124.272267 -312.213369 
L 122.956933 -308.895861 
L 121.641599 -302.229189 
L 120.326266 -301.711498 
L 119.010932 -296.839054 
L 117.695598 -308.528077 
L 116.380264 -301.004793 
L 115.06493 -301.226395 
L 113.749596 -300.338126 
L 112.434262 -289.641655 
L 111.118928 -305.214294 
L 109.803594 -290.393983 
L 108.48826 -294.648177 
L 107.172926 -296.308327 
L 105.857592 -303.949861 
L 104.542258 -290.877224 
L 103.226924 -302.677979 
L 101.91159 -305.323233 
L 100.596256 -286.627686 
L 99.280922 -300.963825 
L 97.965588 -298.060656 
L 96.650254 -287.670517 
L 95.33492 -288.8586 
L 94.019586 -298.848367 
L 92.704252 -279.478703 
L 91.388918 -288.900499 
L 90.073584 -297.203114 
L 88.75825 -285.150962 
L 87.442916 -290.466609 
L 86.127582 -291.582997 
L 84.812248 -297.723598 
L 83.496915 -291.328807 
L 82.181581 -298.431234 
L 80.866247 -305.394927 
L 79.550913 -295.380021 
L 78.235579 -301.152838 
L 76.920245 -292.10162 
L 75.604911 -294.30367 
L 74.289577 -287.857668 
L 72.974243 -293.334395 
L 71.658909 -278.429354 
L 70.343575 -254.7487 
L 69.028241 -251.316668 
L 67.712907 -216.68349 
L 66.397573 -132.324012 
z
" style="stroke: #edd1cb; stroke-opacity: 0.2"/>
    </defs>
    <g clip-path="url(#p155b3b9448)">
     <use xlink:href="#mb7ad022812" x="0" y="362.097812" style="fill: #edd1cb; fill-opacity: 0.2; stroke: #edd1cb; stroke-opacity: 0.2"/>
    </g>
   </g>
   <g id="PolyCollection_2">
    <defs>
     <path id="mf7afaf3138" d="M 66.397573 -207.970261 
L 66.397573 -119.878936 
L 67.712907 -218.679767 
L 69.028241 -252.804565 
L 70.343575 -260.289674 
L 71.658909 -261.331574 
L 72.974243 -254.063411 
L 74.289577 -245.126718 
L 75.604911 -265.02059 
L 76.920245 -261.406993 
L 78.235579 -251.311081 
L 79.550913 -249.409776 
L 80.866247 -259.166768 
L 82.181581 -263.339956 
L 83.496915 -259.948891 
L 84.812248 -269.562494 
L 86.127582 -267.999178 
L 87.442916 -262.595076 
L 88.75825 -273.586706 
L 90.073584 -257.235667 
L 91.388918 -271.909795 
L 92.704252 -266.881858 
L 94.019586 -264.943309 
L 95.33492 -253.204937 
L 96.650254 -268.034559 
L 97.965588 -266.992659 
L 99.280922 -273.584844 
L 100.596256 -259.021516 
L 101.91159 -276.752444 
L 103.226924 -277.08764 
L 104.542258 -272.876277 
L 105.857592 -264.973104 
L 107.172926 -284.866976 
L 108.48826 -279.465668 
L 109.803594 -270.198435 
L 111.118928 -273.958214 
L 112.434262 -282.300866 
L 113.749596 -273.325998 
L 115.06493 -281.962877 
L 116.380264 -277.793413 
L 117.695598 -280.248723 
L 119.010932 -286.696587 
L 120.326266 -264.569938 
L 121.641599 -273.140709 
L 122.956933 -278.575537 
L 124.272267 -273.622087 
L 125.587601 -265.949827 
L 126.902935 -275.557843 
L 128.218269 -263.827852 
L 129.533603 -274.703094 
L 130.848937 -264.311092 
L 132.164271 -274.258028 
L 133.479605 -263.152805 
L 134.794939 -274.736614 
L 136.110273 -271.089497 
L 137.425607 -275.448905 
L 138.740941 -279.358592 
L 140.056275 -273.475905 
L 141.371609 -275.708682 
L 142.686943 -266.138841 
L 144.002277 -269.451693 
L 145.317611 -267.962865 
L 146.632945 -266.058766 
L 147.948279 -275.001977 
L 149.263613 -257.309224 
L 150.578947 -263.899546 
L 151.894281 -259.873472 
L 153.209615 -265.352993 
L 154.524949 -271.717989 
L 155.840283 -271.352998 
L 157.155617 -266.953553 
L 158.470951 -279.844626 
L 159.786284 -273.81017 
L 161.101618 -259.87999 
L 162.416952 -267.926552 
L 163.732286 -257.269187 
L 165.04762 -274.553187 
L 166.362954 -276.566224 
L 167.678288 -283.083921 
L 168.993622 -273.139778 
L 170.308956 -269.263611 
L 171.62429 -276.902351 
L 172.939624 -276.451699 
L 174.254958 -269.750576 
L 175.570292 -279.31483 
L 176.885626 -284.984295 
L 178.20096 -277.270135 
L 179.516294 -256.379056 
L 180.831628 -288.221728 
L 182.146962 -281.780381 
L 183.462296 -273.099741 
L 184.77763 -281.928426 
L 186.092964 -289.488954 
L 187.408298 -267.067147 
L 188.723632 -258.950752 
L 190.038966 -276.745926 
L 191.3543 -269.862308 
L 192.669634 -273.474974 
L 193.984968 -269.218918 
L 195.300302 -274.55598 
L 196.615636 -262.001034 
L 197.930969 -291.127689 
L 199.246303 -266.323198 
L 200.561637 -268.520593 
L 201.876971 -286.432155 
L 203.192305 -279.434011 
L 204.507639 -270.681675 
L 205.822973 -271.758026 
L 207.138307 -259.471237 
L 208.453641 -287.627686 
L 209.768975 -291.8735 
L 211.084309 -273.25151 
L 212.399643 -270.347411 
L 213.714977 -271.569944 
L 215.030311 -280.435874 
L 216.345645 -275.742201 
L 217.660979 -270.085772 
L 218.976313 -273.138847 
L 220.291647 -268.074597 
L 221.606981 -260.437718 
L 222.922315 -277.200303 
L 224.237649 -279.321348 
L 225.552983 -263.455412 
L 226.868317 -281.99919 
L 228.183651 -274.368829 
L 229.498985 -268.223573 
L 230.814319 -270.157466 
L 232.129653 -255.821327 
L 233.444987 -267.293404 
L 234.760321 -274.88559 
L 236.075654 -284.757107 
L 237.390988 -282.969396 
L 238.706322 -284.015951 
L 240.021656 -271.129534 
L 241.33699 -283.267347 
L 242.652324 -281.06809 
L 243.967658 -280.699375 
L 245.282992 -253.922815 
L 246.598326 -292.433091 
L 247.91366 -277.640713 
L 249.228994 -281.21986 
L 250.544328 -268.96659 
L 251.859662 -283.866975 
L 253.174996 -279.285035 
L 254.49033 -278.949839 
L 255.805664 -275.966596 
L 257.120998 -277.08764 
L 258.436332 -286.026195 
L 259.751666 -277.048534 
L 261.067 -276.7152 
L 262.382334 -282.298073 
L 263.697668 -278.085779 
L 265.013002 -252.319462 
L 266.328336 -262.821333 
L 267.64367 -263.865096 
L 268.959004 -276.15654 
L 270.274338 -271.082048 
L 271.589672 -262.224498 
L 272.905006 -284.461948 
L 274.220339 -279.395836 
L 275.535673 -274.774789 
L 276.851007 -273.995458 
L 278.166341 -266.398617 
L 279.481675 -271.090428 
L 280.797009 -268.629532 
L 282.112343 -279.545743 
L 283.427677 -281.370698 
L 284.743011 -268.48428 
L 286.058345 -280.515017 
L 287.373679 -272.358585 
L 288.689013 -270.714264 
L 290.004347 -285.69193 
L 291.319681 -273.474974 
L 292.635015 -276.120227 
L 293.950349 -274.999184 
L 295.265683 -274.536427 
L 296.581017 -279.508499 
L 297.896351 -289.301803 
L 299.211685 -279.7301 
L 300.527019 -275.412592 
L 301.842353 -271.277579 
L 303.157687 -268.671431 
L 304.473021 -281.595093 
L 305.788355 -274.069946 
L 307.103689 -272.543874 
L 308.419023 -272.170503 
L 309.734357 -279.918182 
L 311.04969 -273.959146 
L 312.365024 -272.356723 
L 313.680358 -283.78597 
L 314.995692 -271.128603 
L 316.311026 -272.095084 
L 317.62636 -262.637907 
L 318.941694 -282.857664 
L 320.257028 -267.848339 
L 321.572362 -282.824144 
L 322.887696 -279.731963 
L 324.20303 -271.165847 
L 325.518364 -272.654675 
L 326.833698 -271.500112 
L 328.149032 -287.591374 
L 328.149032 -314.299963 
L 328.149032 -314.299963 
L 326.833698 -302.231051 
L 325.518364 -298.468478 
L 324.20303 -303.345577 
L 322.887696 -306.847443 
L 321.572362 -311.727335 
L 320.257028 -295.528066 
L 318.941694 -308.079287 
L 317.62636 -296.642592 
L 316.311026 -303.647254 
L 314.995692 -306.17612 
L 313.680358 -312.060669 
L 312.365024 -306.549491 
L 311.04969 -305.95638 
L 309.734357 -310.908899 
L 308.419023 -302.044831 
L 307.103689 -298.69008 
L 305.788355 -300.292502 
L 304.473021 -308.119324 
L 303.157687 -297.427509 
L 301.842353 -301.410752 
L 300.527019 -304.242226 
L 299.211685 -307.293439 
L 297.896351 -313.998287 
L 296.581017 -308.266438 
L 295.265683 -308.822305 
L 293.950349 -299.62211 
L 292.635015 -302.750605 
L 291.319681 -304.390271 
L 290.004347 -310.016905 
L 288.689013 -299.736636 
L 287.373679 -302.192876 
L 286.058345 -308.637016 
L 284.743011 -294.110001 
L 283.427677 -307.333477 
L 282.112343 -301.745017 
L 280.797009 -304.204982 
L 279.481675 -297.695665 
L 278.166341 -291.467541 
L 276.851007 -304.280401 
L 275.535673 -307.817648 
L 274.220339 -302.974069 
L 272.905006 -310.907036 
L 271.589672 -294.825086 
L 270.274338 -300.030863 
L 268.959004 -302.056004 
L 267.64367 -301.302745 
L 266.328336 -290.385603 
L 265.013002 -290.054132 
L 263.697668 -306.998281 
L 262.382334 -310.980593 
L 261.067 -302.861406 
L 259.751666 -311.354895 
L 258.436332 -312.733854 
L 257.120998 -303.719879 
L 255.805664 -303.988967 
L 254.49033 -309.872585 
L 253.174996 -308.524353 
L 251.859662 -316.607228 
L 250.544328 -301.149114 
L 249.228994 -305.62584 
L 247.91366 -305.101631 
L 246.598326 -324.12865 
L 245.282992 -285.102545 
L 243.967658 -306.920999 
L 242.652324 -310.722679 
L 241.33699 -315.52529 
L 240.021656 -303.429376 
L 238.706322 -309.613739 
L 237.390988 -310.237576 
L 236.075654 -310.794373 
L 234.760321 -304.800886 
L 233.444987 -299.289708 
L 232.129653 -291.055995 
L 230.814319 -297.573691 
L 229.498985 -298.765499 
L 228.183651 -301.56066 
L 226.868317 -310.610016 
L 225.552983 -291.204971 
L 224.237649 -312.361414 
L 222.922315 -304.577422 
L 221.606981 -298.355815 
L 220.291647 -298.804605 
L 218.976313 -304.128632 
L 217.660979 -298.395852 
L 216.345645 -300.964756 
L 215.030311 -310.161226 
L 213.714977 -305.177981 
L 212.399643 -303.084869 
L 211.084309 -301.636079 
L 209.768975 -317.61654 
L 208.453641 -314.446146 
L 207.138307 -291.056926 
L 205.822973 -299.960099 
L 204.507639 -296.159351 
L 203.192305 -312.322308 
L 201.876971 -316.196613 
L 200.561637 -299.961962 
L 199.246303 -299.139801 
L 197.930969 -314.035531 
L 196.615636 -295.898643 
L 195.300302 -296.9033 
L 193.984968 -302.274813 
L 192.669634 -306.028075 
L 191.3543 -298.883748 
L 190.038966 -304.20312 
L 188.723632 -285.209621 
L 187.408298 -288.864187 
L 186.092964 -316.27017 
L 184.77763 -310.353963 
L 183.462296 -302.117457 
L 182.146962 -314.633297 
L 180.831628 -317.239444 
L 179.516294 -289.870705 
L 178.20096 -306.517833 
L 176.885626 -320.627715 
L 175.570292 -311.391208 
L 174.254958 -302.83161 
L 172.939624 -301.484309 
L 171.62429 -306.331613 
L 170.308956 -295.93775 
L 168.993622 -299.584866 
L 167.678288 -310.19847 
L 166.362954 -308.489902 
L 165.04762 -300.666804 
L 163.732286 -292.920987 
L 162.416952 -307.853961 
L 161.101618 -292.880019 
L 159.786284 -309.082081 
L 158.470951 -315.599778 
L 157.155617 -298.138869 
L 155.840283 -292.36419 
L 154.524949 -304.098837 
L 153.209615 -295.866055 
L 151.894281 -288.71428 
L 150.578947 -304.467552 
L 149.263613 -290.16307 
L 147.948279 -307.892136 
L 146.632945 -297.947062 
L 145.317611 -293.476854 
L 144.002277 -296.758048 
L 142.686943 -292.209627 
L 141.371609 -306.028075 
L 140.056275 -300.710566 
L 138.740941 -303.909824 
L 137.425607 -301.077419 
L 136.110273 -304.165876 
L 134.794939 -299.029 
L 133.479605 -298.880955 
L 132.164271 -299.628628 
L 130.848937 -292.50851 
L 129.533603 -299.362334 
L 128.218269 -294.034582 
L 126.902935 -295.413541 
L 125.587601 -292.362327 
L 124.272267 -301.484309 
L 122.956933 -307.891205 
L 121.641599 -301.972206 
L 120.326266 -293.551341 
L 119.010932 -311.1305 
L 117.695598 -310.758061 
L 116.380264 -306.177982 
L 115.06493 -311.804616 
L 113.749596 -310.913554 
L 112.434262 -303.346508 
L 111.118928 -303.463827 
L 109.803594 -295.675179 
L 108.48826 -307.778542 
L 107.172926 -313.406108 
L 105.857592 -302.233844 
L 104.542258 -294.859536 
L 103.226924 -304.053213 
L 101.91159 -307.600702 
L 100.596256 -292.106275 
L 99.280922 -308.042043 
L 97.965588 -301.371646 
L 96.650254 -297.426578 
L 95.33492 -280.962876 
L 94.019586 -291.912606 
L 92.704252 -303.123045 
L 91.388918 -301.712429 
L 90.073584 -290.609998 
L 88.75825 -296.53086 
L 87.442916 -291.242215 
L 86.127582 -298.801812 
L 84.812248 -295.153764 
L 83.496915 -290.014094 
L 82.181581 -296.42099 
L 80.866247 -292.258044 
L 79.550913 -287.825079 
L 78.235579 -280.442391 
L 76.920245 -288.414465 
L 75.604911 -298.731048 
L 74.289577 -276.979632 
L 72.974243 -284.841837 
L 71.658909 -297.684492 
L 70.343575 -288.077407 
L 69.028241 -294.969406 
L 67.712907 -283.979638 
L 66.397573 -207.970261 
z
" style="stroke: #d499a7; stroke-opacity: 0.2"/>
    </defs>
    <g clip-path="url(#p155b3b9448)">
     <use xlink:href="#mf7afaf3138" x="0" y="362.097812" style="fill: #d499a7; fill-opacity: 0.2; stroke: #d499a7; stroke-opacity: 0.2"/>
    </g>
   </g>
   <g id="PolyCollection_3">
    <defs>
     <path id="m0b7f8d92ca" d="M 66.397573 -126.846353 
L 66.397573 -56.451506 
L 67.712907 -177.011202 
L 69.028241 -233.661159 
L 70.343575 -230.603428 
L 71.658909 -244.199343 
L 72.974243 -249.4135 
L 74.289577 -240.730066 
L 75.604911 -264.908858 
L 76.920245 -248.108099 
L 78.235579 -254.627657 
L 79.550913 -268.557837 
L 80.866247 -277.086709 
L 82.181581 -263.040142 
L 83.496915 -253.213317 
L 84.812248 -255.336224 
L 86.127582 -255.150935 
L 87.442916 -266.091355 
L 88.75825 -260.030828 
L 90.073584 -275.822276 
L 91.388918 -268.631394 
L 92.704252 -277.384661 
L 94.019586 -263.677945 
L 95.33492 -278.427492 
L 96.650254 -258.615557 
L 97.965588 -266.320405 
L 99.280922 -257.269187 
L 100.596256 -258.23753 
L 101.91159 -261.183529 
L 103.226924 -274.288755 
L 104.542258 -259.582969 
L 105.857592 -265.02059 
L 107.172926 -238.427457 
L 108.48826 -265.430274 
L 109.803594 -261.667701 
L 111.118928 -267.776645 
L 112.434262 -261.296192 
L 113.749596 -252.693764 
L 115.06493 -276.488943 
L 116.380264 -271.054115 
L 117.695598 -272.206816 
L 119.010932 -280.176097 
L 120.326266 -271.827859 
L 121.641599 -274.397693 
L 122.956933 -262.97124 
L 124.272267 -272.987078 
L 125.587601 -272.05784 
L 126.902935 -277.864177 
L 128.218269 -265.504762 
L 129.533603 -278.091365 
L 130.848937 -257.231012 
L 132.164271 -277.944251 
L 133.479605 -275.076465 
L 134.794939 -268.334373 
L 136.110273 -272.279442 
L 137.425607 -277.684475 
L 138.740941 -288.745937 
L 140.056275 -271.203091 
L 141.371609 -271.042942 
L 142.686943 -274.926558 
L 144.002277 -279.581124 
L 145.317611 -271.5746 
L 146.632945 -253.251492 
L 147.948279 -258.672354 
L 149.263613 -267.624876 
L 150.578947 -256.108106 
L 151.894281 -269.785957 
L 153.209615 -278.681682 
L 154.524949 -266.538282 
L 155.840283 -275.299929 
L 157.155617 -277.005703 
L 158.470951 -270.904208 
L 159.786284 -261.183529 
L 161.101618 -261.109041 
L 162.416952 -271.650019 
L 163.732286 -259.248704 
L 165.04762 -289.152827 
L 166.362954 -279.766413 
L 167.678288 -275.557843 
L 168.993622 -282.785038 
L 170.308956 -264.760813 
L 171.62429 -267.663982 
L 172.939624 -287.366047 
L 174.254958 -280.251516 
L 175.570292 -288.22359 
L 176.885626 -277.755238 
L 178.20096 -281.10161 
L 179.516294 -281.221722 
L 180.831628 -279.877214 
L 182.146962 -268.481487 
L 183.462296 -284.568093 
L 184.77763 -284.272935 
L 186.092964 -265.988934 
L 187.408298 -258.650007 
L 188.723632 -283.456361 
L 190.038966 -278.837176 
L 191.3543 -277.198441 
L 192.669634 -274.366036 
L 193.984968 -269.887447 
L 195.300302 -270.6435 
L 196.615636 -264.644426 
L 197.930969 -276.231959 
L 199.246303 -274.217991 
L 200.561637 -274.886521 
L 201.876971 -269.785957 
L 203.192305 -272.915383 
L 204.507639 -268.889309 
L 205.822973 -273.212404 
L 207.138307 -263.865096 
L 208.453641 -271.012216 
L 209.768975 -273.25151 
L 211.084309 -279.245929 
L 212.399643 -273.771995 
L 213.714977 -268.855789 
L 215.030311 -274.295272 
L 216.345645 -268.708675 
L 217.660979 -274.104397 
L 218.976313 -279.693787 
L 220.291647 -273.138847 
L 221.606981 -286.395842 
L 222.922315 -275.442387 
L 224.237649 -272.914452 
L 225.552983 -263.59787 
L 226.868317 -262.151873 
L 228.183651 -267.770127 
L 229.498985 -278.018739 
L 230.814319 -290.307391 
L 232.129653 -286.133272 
L 233.444987 -276.227304 
L 234.760321 -273.811101 
L 236.075654 -272.69285 
L 237.390988 -278.125816 
L 238.706322 -275.783169 
L 240.021656 -267.963796 
L 241.33699 -278.762688 
L 242.652324 -276.304585 
L 243.967658 -259.879059 
L 245.282992 -272.431211 
L 246.598326 -282.784107 
L 247.91366 -288.891188 
L 249.228994 -285.281316 
L 250.544328 -287.515023 
L 251.859662 -273.510356 
L 253.174996 -281.481498 
L 254.49033 -267.624876 
L 255.805664 -273.807376 
L 257.120998 -292.246871 
L 258.436332 -281.258966 
L 259.751666 -272.129535 
L 261.067 -276.226373 
L 262.382334 -278.119298 
L 263.697668 -275.561568 
L 265.013002 -277.533637 
L 266.328336 -279.582987 
L 267.64367 -263.977759 
L 268.959004 -273.360449 
L 270.274338 -269.863239 
L 271.589672 -289.862325 
L 272.905006 -279.844626 
L 274.220339 -280.47498 
L 275.535673 -256.859503 
L 276.851007 -276.5625 
L 278.166341 -273.399555 
L 279.481675 -280.361386 
L 280.797009 -276.529911 
L 282.112343 -273.994527 
L 283.427677 -273.697507 
L 284.743011 -277.163059 
L 286.058345 -269.266404 
L 287.373679 -288.484298 
L 288.689013 -279.731963 
L 290.004347 -277.125815 
L 291.319681 -275.634194 
L 292.635015 -286.397704 
L 293.950349 -277.200303 
L 295.265683 -286.659343 
L 296.581017 -278.650956 
L 297.896351 -263.270123 
L 299.211685 -264.313886 
L 300.527019 -262.409787 
L 301.842353 -277.158403 
L 303.157687 -264.195636 
L 304.473021 -275.991736 
L 305.788355 -283.714275 
L 307.103689 -267.180741 
L 308.419023 -287.516886 
L 309.734357 -274.441455 
L 311.04969 -282.488948 
L 312.365024 -295.854882 
L 313.680358 -291.015026 
L 314.995692 -282.116508 
L 316.311026 -284.723587 
L 317.62636 -278.911664 
L 318.941694 -292.952645 
L 320.257028 -274.888383 
L 321.572362 -262.709601 
L 322.887696 -277.009428 
L 324.20303 -259.209598 
L 325.518364 -266.209604 
L 326.833698 -293.401434 
L 328.149032 -277.86697 
L 328.149032 -311.209644 
L 328.149032 -311.209644 
L 326.833698 -321.03833 
L 325.518364 -294.745011 
L 324.20303 -297.988031 
L 322.887696 -302.155632 
L 321.572362 -301.893993 
L 320.257028 -297.351159 
L 318.941694 -319.549502 
L 317.62636 -302.638873 
L 316.311026 -309.196607 
L 314.995692 -307.815786 
L 313.680358 -320.1063 
L 312.365024 -325.097924 
L 311.04969 -315.377245 
L 309.734357 -309.087668 
L 308.419023 -322.640753 
L 307.103689 -298.170526 
L 305.788355 -317.910767 
L 304.473021 -306.437759 
L 303.157687 -294.146314 
L 301.842353 -309.006662 
L 300.527019 -301.110938 
L 299.211685 -306.772023 
L 297.896351 -291.875362 
L 296.581017 -305.28692 
L 295.265683 -318.433114 
L 293.950349 -316.201268 
L 292.635015 -309.605359 
L 291.319681 -302.863268 
L 290.004347 -303.643529 
L 288.689013 -308.266438 
L 287.373679 -319.36142 
L 286.058345 -296.53086 
L 284.743011 -307.448002 
L 283.427677 -305.470346 
L 282.112343 -304.612804 
L 280.797009 -304.392133 
L 279.481675 -305.097907 
L 278.166341 -297.985237 
L 276.851007 -305.358614 
L 275.535673 -296.348364 
L 274.220339 -308.712435 
L 272.905006 -312.657504 
L 271.589672 -314.109088 
L 270.274338 -301.818574 
L 268.959004 -301.297158 
L 267.64367 -290.012232 
L 266.328336 -310.094187 
L 265.013002 -303.721741 
L 263.697668 -305.883755 
L 262.382334 -303.3223 
L 261.067 -303.088594 
L 259.751666 -301.334402 
L 258.436332 -311.317651 
L 257.120998 -312.918211 
L 255.805664 -306.035524 
L 254.49033 -302.455446 
L 253.174996 -303.570903 
L 251.859662 -303.569972 
L 250.544328 -311.772959 
L 249.228994 -312.286926 
L 247.91366 -316.012255 
L 246.598326 -312.106293 
L 245.282992 -295.571827 
L 243.967658 -295.598829 
L 242.652324 -307.489901 
L 241.33699 -311.391208 
L 240.021656 -291.316703 
L 238.706322 -309.158432 
L 237.390988 -314.306481 
L 236.075654 -297.910749 
L 234.760321 -300.665873 
L 233.444987 -301.744086 
L 232.129653 -312.102568 
L 230.814319 -313.553221 
L 229.498985 -307.591391 
L 228.183651 -300.255258 
L 226.868317 -287.033645 
L 225.552983 -296.980581 
L 224.237649 -300.407027 
L 222.922315 -311.881898 
L 221.606981 -317.799035 
L 220.291647 -308.858618 
L 218.976313 -309.603497 
L 217.660979 -300.449858 
L 216.345645 -297.391196 
L 215.030311 -310.609085 
L 213.714977 -300.775743 
L 212.399643 -307.111875 
L 211.084309 -308.337202 
L 209.768975 -306.287852 
L 208.453641 -306.780403 
L 207.138307 -291.019682 
L 205.822973 -303.835336 
L 204.507639 -297.329743 
L 203.192305 -298.804605 
L 201.876971 -296.457303 
L 200.561637 -302.118388 
L 199.246303 -304.876305 
L 197.930969 -303.908892 
L 196.615636 -302.191945 
L 195.300302 -298.471271 
L 193.984968 -300.558796 
L 192.669634 -305.171463 
L 191.3543 -302.193807 
L 190.038966 -311.429383 
L 188.723632 -313.364208 
L 187.408298 -289.755249 
L 186.092964 -303.386546 
L 184.77763 -314.930317 
L 183.462296 -311.391208 
L 182.146962 -293.850224 
L 180.831628 -317.349314 
L 179.516294 -313.401452 
L 178.20096 -312.361414 
L 176.885626 -300.554141 
L 175.570292 -315.304619 
L 174.254958 -312.24782 
L 172.939624 -309.791579 
L 171.62429 -302.12025 
L 170.308956 -298.95265 
L 168.993622 -311.017837 
L 167.678288 -308.785992 
L 166.362954 -303.45824 
L 165.04762 -324.020642 
L 163.732286 -286.400497 
L 162.416952 -306.364202 
L 161.101618 -291.28039 
L 159.786284 -287.740349 
L 158.470951 -292.061582 
L 157.155617 -311.913555 
L 155.840283 -302.234776 
L 154.524949 -301.449859 
L 153.209615 -312.512252 
L 151.894281 -298.096038 
L 150.578947 -294.373502 
L 149.263613 -299.251533 
L 147.948279 -301.075557 
L 146.632945 -281.373491 
L 145.317611 -298.288776 
L 144.002277 -308.191019 
L 142.686943 -310.244094 
L 141.371609 -299.212427 
L 140.056275 -297.917267 
L 138.740941 -319.440563 
L 137.425607 -302.231051 
L 136.110273 -306.928448 
L 134.794939 -304.874443 
L 133.479605 -300.738499 
L 132.164271 -300.669597 
L 130.848937 -290.211488 
L 129.533603 -308.858618 
L 128.218269 -294.075551 
L 126.902935 -310.668675 
L 125.587601 -296.343709 
L 124.272267 -298.696597 
L 122.956933 -298.65656 
L 121.641599 -300.296226 
L 120.326266 -300.477791 
L 119.010932 -308.151913 
L 117.695598 -304.875374 
L 116.380264 -295.785049 
L 115.06493 -303.312989 
L 113.749596 -292.359534 
L 112.434262 -289.789699 
L 111.118928 -295.339984 
L 109.803594 -292.435884 
L 108.48826 -296.052275 
L 107.172926 -278.542948 
L 105.857592 -299.920993 
L 104.542258 -291.542029 
L 103.226924 -299.511309 
L 101.91159 -284.650961 
L 100.596256 -295.449853 
L 99.280922 -289.082995 
L 97.965588 -291.28039 
L 96.650254 -299.174251 
L 95.33492 -298.431234 
L 94.019586 -291.953575 
L 92.704252 -300.069038 
L 91.388918 -298.057863 
L 90.073584 -303.123045 
L 88.75825 -295.971269 
L 87.442916 -299.140732 
L 86.127582 -284.135132 
L 84.812248 -288.042026 
L 83.496915 -282.68541 
L 82.181581 -299.478721 
L 80.866247 -301.63701 
L 79.550913 -298.58021 
L 78.235579 -284.318559 
L 76.920245 -280.82228 
L 75.604911 -299.556002 
L 74.289577 -283.680756 
L 72.974243 -283.162133 
L 71.658909 -284.432153 
L 70.343575 -268.785957 
L 69.028241 -281.374422 
L 67.712907 -244.295246 
L 66.397573 -126.846353 
z
" style="stroke: #a9678f; stroke-opacity: 0.2"/>
    </defs>
    <g clip-path="url(#p155b3b9448)">
     <use xlink:href="#m0b7f8d92ca" x="0" y="362.097812" style="fill: #a9678f; fill-opacity: 0.2; stroke: #a9678f; stroke-opacity: 0.2"/>
    </g>
   </g>
   <g id="PolyCollection_4">
    <defs>
     <path id="mc051ed37c5" d="M 66.397573 -139.810983 
L 66.397573 -70.979451 
L 67.712907 -164.782141 
L 69.028241 -207.849218 
L 70.343575 -238.19282 
L 71.658909 -242.114611 
L 72.974243 -252.382776 
L 74.289577 -245.578301 
L 75.604911 -257.200285 
L 76.920245 -264.871614 
L 78.235579 -262.11556 
L 79.550913 -254.886503 
L 80.866247 -256.637901 
L 82.181581 -264.19936 
L 83.496915 -269.452624 
L 84.812248 -270.644431 
L 86.127582 -276.404213 
L 87.442916 -265.205879 
L 88.75825 -277.459149 
L 90.073584 -274.890245 
L 91.388918 -272.728232 
L 92.704252 -276.602537 
L 94.019586 -280.764552 
L 95.33492 -267.848339 
L 96.650254 -262.888372 
L 97.965588 -261.441444 
L 99.280922 -262.711463 
L 100.596256 -272.284097 
L 101.91159 -265.985209 
L 103.226924 -275.447974 
L 104.542258 -264.569938 
L 105.857592 -274.47963 
L 107.172926 -280.913528 
L 108.48826 -278.354866 
L 109.803594 -260.886508 
L 111.118928 -274.444248 
L 112.434262 -258.387437 
L 113.749596 -261.594144 
L 115.06493 -269.701227 
L 116.380264 -281.589506 
L 117.695598 -281.930288 
L 119.010932 -279.06064 
L 120.326266 -278.95077 
L 121.641599 -270.754301 
L 122.956933 -273.058772 
L 124.272267 -279.099746 
L 125.587601 -282.523399 
L 126.902935 -266.395824 
L 128.218269 -264.163979 
L 129.533603 -264.717052 
L 130.848937 -288.14724 
L 132.164271 -281.780381 
L 133.479605 -264.197498 
L 134.794939 -274.366967 
L 136.110273 -271.761751 
L 137.425607 -261.072728 
L 138.740941 -257.013134 
L 140.056275 -272.652813 
L 141.371609 -269.856721 
L 142.686943 -269.971246 
L 144.002277 -264.239398 
L 145.317611 -274.406073 
L 146.632945 -268.548526 
L 147.948279 -267.393032 
L 149.263613 -279.956357 
L 150.578947 -265.801783 
L 151.894281 -274.362312 
L 153.209615 -264.313886 
L 154.524949 -294.555067 
L 155.840283 -279.955426 
L 157.155617 -273.024322 
L 158.470951 -256.342743 
L 159.786284 -264.014072 
L 161.101618 -257.189112 
L 162.416952 -266.393031 
L 163.732286 -275.448905 
L 165.04762 -275.636056 
L 166.362954 -285.654687 
L 167.678288 -281.966601 
L 168.993622 -282.225447 
L 170.308956 -271.723576 
L 171.62429 -288.555993 
L 172.939624 -278.055052 
L 174.254958 -265.319473 
L 175.570292 -275.524324 
L 176.885626 -279.621162 
L 178.20096 -277.048534 
L 179.516294 -265.603458 
L 180.831628 -254.703076 
L 182.146962 -265.832509 
L 183.462296 -277.347417 
L 184.77763 -264.532694 
L 186.092964 -281.221722 
L 187.408298 -257.234736 
L 188.723632 -260.177011 
L 190.038966 -276.752444 
L 191.3543 -282.970327 
L 192.669634 -291.721731 
L 193.984968 -281.705893 
L 195.300302 -277.975909 
L 196.615636 -292.278528 
L 197.930969 -280.849282 
L 199.246303 -271.798995 
L 200.561637 -270.19471 
L 201.876971 -253.810152 
L 203.192305 -265.542937 
L 204.507639 -278.39211 
L 205.822973 -273.206817 
L 207.138307 -268.000109 
L 208.453641 -270.825996 
L 209.768975 -278.386524 
L 211.084309 -280.513155 
L 212.399643 -278.164922 
L 213.714977 -286.771075 
L 215.030311 -284.195654 
L 216.345645 -275.856726 
L 217.660979 -267.955416 
L 218.976313 -264.008485 
L 220.291647 -272.088567 
L 221.606981 -261.92934 
L 222.922315 -284.053195 
L 224.237649 -271.390242 
L 225.552983 -273.177022 
L 226.868317 -270.789683 
L 228.183651 -265.244985 
L 229.498985 -269.070873 
L 230.814319 -271.872552 
L 232.129653 -264.423755 
L 233.444987 -238.985186 
L 234.760321 -272.128604 
L 236.075654 -276.267341 
L 237.390988 -269.78782 
L 238.706322 -277.380005 
L 240.021656 -285.019677 
L 241.33699 -279.619299 
L 242.652324 -278.240341 
L 243.967658 -287.098822 
L 245.282992 -282.224516 
L 246.598326 -270.868826 
L 247.91366 -270.225436 
L 249.228994 -277.047603 
L 250.544328 -269.265473 
L 251.859662 -280.775725 
L 253.174996 -291.384673 
L 254.49033 -281.51688 
L 255.805664 -275.556912 
L 257.120998 -290.868844 
L 258.436332 -272.20961 
L 259.751666 -273.885589 
L 261.067 -275.187266 
L 262.382334 -277.117435 
L 263.697668 -266.499176 
L 265.013002 -270.012215 
L 266.328336 -279.656543 
L 267.64367 -268.513144 
L 268.959004 -284.941464 
L 270.274338 -267.589494 
L 271.589672 -287.700312 
L 272.905006 -276.864176 
L 274.220339 -268.224504 
L 275.535673 -282.89677 
L 276.851007 -287.218003 
L 278.166341 -271.500112 
L 279.481675 -268.781301 
L 280.797009 -275.440525 
L 282.112343 -273.434936 
L 283.427677 -269.150948 
L 284.743011 -272.656537 
L 286.058345 -271.046666 
L 287.373679 -272.767338 
L 288.689013 -274.554118 
L 290.004347 -282.596956 
L 291.319681 -275.97032 
L 292.635015 -276.826001 
L 293.950349 -271.01594 
L 295.265683 -265.243123 
L 296.581017 -262.07366 
L 297.896351 -280.650958 
L 299.211685 -292.391192 
L 300.527019 -277.868832 
L 301.842353 -284.272935 
L 303.157687 -277.382798 
L 304.473021 -280.065296 
L 305.788355 -265.803645 
L 307.103689 -284.897703 
L 308.419023 -280.436805 
L 309.734357 -288.000126 
L 311.04969 -274.964733 
L 312.365024 -282.784107 
L 313.680358 -302.521554 
L 314.995692 -275.113709 
L 316.311026 -270.638845 
L 317.62636 -287.734763 
L 318.941694 -276.265479 
L 320.257028 -285.617443 
L 321.572362 -270.08484 
L 322.887696 -285.951707 
L 324.20303 -276.231028 
L 325.518364 -280.812038 
L 326.833698 -278.276654 
L 328.149032 -284.272935 
L 328.149032 -305.435896 
L 328.149032 -305.435896 
L 326.833698 -305.692879 
L 325.518364 -303.085801 
L 324.20303 -305.95638 
L 322.887696 -318.059743 
L 321.572362 -301.522484 
L 320.257028 -320.409838 
L 318.941694 -310.38469 
L 317.62636 -310.536459 
L 316.311026 -308.822305 
L 314.995692 -297.871643 
L 313.680358 -326.287869 
L 312.365024 -314.186369 
L 311.04969 -298.764568 
L 309.734357 -320.329764 
L 308.419023 -307.629566 
L 307.103689 -314.78041 
L 305.788355 -289.008507 
L 304.473021 -307.444277 
L 303.157687 -312.734785 
L 301.842353 -311.578359 
L 300.527019 -310.126775 
L 299.211685 -318.653784 
L 297.896351 -315.751547 
L 296.581017 -291.580204 
L 295.265683 -294.37164 
L 293.950349 -297.648179 
L 292.635015 -306.073699 
L 291.319681 -301.411684 
L 290.004347 -308.262714 
L 288.689013 -311.279476 
L 287.373679 -296.231977 
L 286.058345 -307.741298 
L 284.743011 -303.015037 
L 283.427677 -298.281327 
L 282.112343 -302.752467 
L 280.797009 -307.633291 
L 279.481675 -302.417271 
L 278.166341 -299.174251 
L 276.851007 -317.573709 
L 275.535673 -312.509459 
L 274.220339 -294.224526 
L 272.905006 -303.497347 
L 271.589672 -314.630503 
L 270.274338 -298.802743 
L 268.959004 -314.929386 
L 267.64367 -293.850224 
L 266.328336 -304.539247 
L 265.013002 -295.303671 
L 263.697668 -299.103488 
L 262.382334 -311.698471 
L 261.067 -306.814854 
L 259.751666 -304.612804 
L 258.436332 -304.429377 
L 257.120998 -311.874449 
L 255.805664 -307.260851 
L 254.49033 -307.070906 
L 253.174996 -317.726409 
L 251.859662 -302.191014 
L 250.544328 -302.527141 
L 249.228994 -309.231988 
L 247.91366 -295.080207 
L 246.598326 -303.985243 
L 245.282992 -310.053218 
L 243.967658 -315.975011 
L 242.652324 -301.93403 
L 241.33699 -309.529009 
L 240.021656 -317.985255 
L 238.706322 -303.123976 
L 237.390988 -293.141658 
L 236.075654 -307.74316 
L 234.760321 -306.363271 
L 233.444987 -276.054119 
L 232.129653 -290.496404 
L 230.814319 -295.636073 
L 229.498985 -299.259913 
L 228.183651 -295.525272 
L 226.868317 -302.87351 
L 225.552983 -309.678916 
L 224.237649 -299.025276 
L 222.922315 -306.736642 
L 221.606981 -286.511298 
L 220.291647 -306.51504 
L 218.976313 -300.334401 
L 217.660979 -292.733836 
L 216.345645 -302.268295 
L 215.030311 -313.92473 
L 213.714977 -310.123982 
L 212.399643 -307.716158 
L 211.084309 -309.684503 
L 209.768975 -300.931236 
L 208.453641 -306.812061 
L 207.138307 -295.711492 
L 205.822973 -312.289719 
L 204.507639 -309.120256 
L 203.192305 -291.916331 
L 201.876971 -285.731037 
L 200.561637 -303.196601 
L 199.246303 -302.23012 
L 197.930969 -316.048568 
L 196.615636 -322.758071 
L 195.300302 -304.015969 
L 193.984968 -307.293439 
L 192.669634 -316.347451 
L 191.3543 -314.036462 
L 190.038966 -305.357683 
L 188.723632 -286.8856 
L 187.408298 -286.251521 
L 186.092964 -307.486177 
L 184.77763 -298.802743 
L 183.462296 -310.281338 
L 182.146962 -296.941475 
L 180.831628 -293.104414 
L 179.516294 -302.826955 
L 178.20096 -300.143526 
L 176.885626 -311.808341 
L 175.570292 -304.614666 
L 174.254958 -293.255252 
L 172.939624 -307.703123 
L 171.62429 -315.569052 
L 170.308956 -302.938687 
L 168.993622 -310.349308 
L 167.678288 -309.918209 
L 166.362954 -308.715228 
L 165.04762 -299.659354 
L 163.732286 -304.652841 
L 162.416952 -291.505716 
L 161.101618 -286.959157 
L 159.786284 -292.439609 
L 158.470951 -282.749656 
L 157.155617 -306.846511 
L 155.840283 -309.912622 
L 154.524949 -322.232931 
L 153.209615 -291.321358 
L 151.894281 -304.017831 
L 150.578947 -295.080207 
L 149.263613 -307.824166 
L 147.948279 -295.339984 
L 146.632945 -299.101626 
L 145.317611 -307.964762 
L 144.002277 -292.880019 
L 142.686943 -298.13142 
L 141.371609 -301.634216 
L 140.056275 -296.980581 
L 138.740941 -280.632336 
L 137.425607 -288.939606 
L 136.110273 -297.913543 
L 134.794939 -300.89213 
L 133.479605 -300.18077 
L 132.164271 -305.955449 
L 130.848937 -319.48805 
L 129.533603 -291.321358 
L 128.218269 -300.337195 
L 126.902935 -294.190076 
L 125.587601 -312.248751 
L 124.272267 -314.232924 
L 122.956933 -314.482459 
L 121.641599 -298.803674 
L 120.326266 -309.566253 
L 119.010932 -304.909824 
L 117.695598 -310.128637 
L 116.380264 -311.204057 
L 115.06493 -300.928443 
L 113.749596 -293.082067 
L 112.434262 -295.679835 
L 111.118928 -305.319508 
L 109.803594 -288.301802 
L 108.48826 -306.363271 
L 107.172926 -310.015974 
L 105.857592 -299.588591 
L 104.542258 -288.933088 
L 103.226924 -303.467551 
L 101.91159 -292.658417 
L 100.596256 -299.32509 
L 99.280922 -292.805531 
L 97.965588 -287.297146 
L 96.650254 -295.86233 
L 95.33492 -300.740361 
L 94.019586 -311.728266 
L 92.704252 -313.218957 
L 91.388918 -304.393064 
L 90.073584 -304.83813 
L 88.75825 -314.345587 
L 87.442916 -300.294364 
L 86.127582 -315.91449 
L 84.812248 -300.00293 
L 83.496915 -297.537379 
L 82.181581 -297.947062 
L 80.866247 -293.891193 
L 79.550913 -284.016882 
L 78.235579 -291.393053 
L 76.920245 -290.310184 
L 75.604911 -283.94705 
L 74.289577 -279.793415 
L 72.974243 -298.505722 
L 71.658909 -280.8139 
L 70.343575 -283.048539 
L 69.028241 -263.721706 
L 67.712907 -223.384613 
L 66.397573 -139.810983 
z
" style="stroke: #6c3f70; stroke-opacity: 0.2"/>
    </defs>
    <g clip-path="url(#p155b3b9448)">
     <use xlink:href="#mc051ed37c5" x="0" y="362.097812" style="fill: #6c3f70; fill-opacity: 0.2; stroke: #6c3f70; stroke-opacity: 0.2"/>
    </g>
   </g>
   <g id="PolyCollection_5">
    <defs>
     <path id="m88a6164232" d="M 66.397573 -159.847313 
L 66.397573 -86.693618 
L 67.712907 -209.813838 
L 69.028241 -237.568983 
L 70.343575 -243.998225 
L 71.658909 -263.785952 
L 72.974243 -265.167704 
L 74.289577 -261.110903 
L 75.604911 -254.139761 
L 76.920245 -248.595995 
L 78.235579 -251.537338 
L 79.550913 -272.130466 
L 80.866247 -266.249642 
L 82.181581 -257.829709 
L 83.496915 -273.100672 
L 84.812248 -264.123941 
L 86.127582 -281.334385 
L 87.442916 -276.790619 
L 88.75825 -276.300861 
L 90.073584 -264.015934 
L 91.388918 -268.929346 
L 92.704252 -266.804577 
L 94.019586 -267.955416 
L 95.33492 -268.515938 
L 96.650254 -266.835303 
L 97.965588 -263.45355 
L 99.280922 -275.040152 
L 100.596256 -268.038284 
L 101.91159 -267.326924 
L 103.226924 -268.112772 
L 104.542258 -258.947959 
L 105.857592 -269.340892 
L 107.172926 -270.334375 
L 108.48826 -276.417248 
L 109.803594 -264.010347 
L 111.118928 -268.03549 
L 112.434262 -276.7152 
L 113.749596 -251.573651 
L 115.06493 -270.083909 
L 116.380264 -272.804582 
L 117.695598 -256.224493 
L 119.010932 -267.325061 
L 120.326266 -250.905122 
L 121.641599 -237.867866 
L 122.956933 -259.506619 
L 124.272267 -273.847414 
L 125.587601 -259.395818 
L 126.902935 -253.659314 
L 128.218269 -259.650939 
L 129.533603 -252.952609 
L 130.848937 -263.678876 
L 132.164271 -270.233816 
L 133.479605 -265.427481 
L 134.794939 -269.154672 
L 136.110273 -271.38838 
L 137.425607 -267.740332 
L 138.740941 -272.839964 
L 140.056275 -273.064359 
L 141.371609 -271.241266 
L 142.686943 -268.260816 
L 144.002277 -263.679807 
L 145.317611 -272.761752 
L 146.632945 -271.124879 
L 147.948279 -268.366962 
L 149.263613 -276.082052 
L 150.578947 -266.918171 
L 151.894281 -276.604399 
L 153.209615 -285.317628 
L 154.524949 -269.042009 
L 155.840283 -272.020596 
L 157.155617 -278.949839 
L 158.470951 -286.657481 
L 159.786284 -289.783182 
L 161.101618 -266.657463 
L 162.416952 -274.480561 
L 163.732286 -267.553181 
L 165.04762 -288.482436 
L 166.362954 -286.918189 
L 167.678288 -280.064365 
L 168.993622 -273.650952 
L 170.308956 -276.267341 
L 171.62429 -284.94612 
L 172.939624 -290.493611 
L 174.254958 -265.653738 
L 175.570292 -281.852076 
L 176.885626 -273.509424 
L 178.20096 -268.073665 
L 179.516294 -260.243119 
L 180.831628 -275.559706 
L 182.146962 -279.581124 
L 183.462296 -268.445174 
L 184.77763 -255.963785 
L 186.092964 -281.961946 
L 187.408298 -281.370698 
L 188.723632 -280.176097 
L 190.038966 -280.697513 
L 191.3543 -276.90142 
L 192.669634 -288.99454 
L 193.984968 -284.835319 
L 195.300302 -266.171429 
L 196.615636 -274.846483 
L 197.930969 -269.66957 
L 199.246303 -274.704956 
L 200.561637 -246.659308 
L 201.876971 -289.116515 
L 203.192305 -267.105322 
L 204.507639 -275.448905 
L 205.822973 -267.513144 
L 207.138307 -257.718908 
L 208.453641 -276.527118 
L 209.768975 -278.912595 
L 211.084309 -259.880921 
L 212.399643 -266.280368 
L 213.714977 -256.342743 
L 215.030311 -273.917246 
L 216.345645 -277.047603 
L 217.660979 -274.181678 
L 218.976313 -276.52898 
L 220.291647 -265.539213 
L 221.606981 -266.808301 
L 222.922315 -272.767338 
L 224.237649 -259.616489 
L 225.552983 -284.973122 
L 226.868317 -275.183541 
L 228.183651 -269.379067 
L 229.498985 -280.137922 
L 230.814319 -258.428406 
L 232.129653 -269.937727 
L 233.444987 -267.44238 
L 234.760321 -278.757101 
L 236.075654 -268.112772 
L 237.390988 -258.350193 
L 238.706322 -279.990808 
L 240.021656 -270.121153 
L 241.33699 -258.794328 
L 242.652324 -253.770115 
L 243.967658 -270.122084 
L 245.282992 -262.596938 
L 246.598326 -281.368835 
L 247.91366 -278.354866 
L 249.228994 -281.964739 
L 250.544328 -262.844611 
L 251.859662 -274.515012 
L 253.174996 -276.566224 
L 254.49033 -282.560643 
L 255.805664 -267.068078 
L 257.120998 -276.677956 
L 258.436332 -270.679813 
L 259.751666 -262.228223 
L 261.067 -272.171434 
L 262.382334 -283.492673 
L 263.697668 -266.65467 
L 265.013002 -268.17888 
L 266.328336 -262.409787 
L 267.64367 -274.478699 
L 268.959004 -267.361374 
L 270.274338 -264.275711 
L 271.589672 -268.78037 
L 272.905006 -274.47963 
L 274.220339 -255.708664 
L 275.535673 -269.895827 
L 276.851007 -262.932134 
L 278.166341 -276.303654 
L 279.481675 -271.054115 
L 280.797009 -265.353924 
L 282.112343 -273.732888 
L 283.427677 -279.163992 
L 284.743011 -251.869741 
L 286.058345 -275.448905 
L 287.373679 -275.299929 
L 288.689013 -272.469386 
L 290.004347 -275.670506 
L 291.319681 -269.005696 
L 292.635015 -271.237542 
L 293.950349 -264.535487 
L 295.265683 -263.641632 
L 296.581017 -277.19751 
L 297.896351 -269.416311 
L 299.211685 -277.199372 
L 300.527019 -281.034571 
L 301.842353 -277.94332 
L 303.157687 -274.628606 
L 304.473021 -265.876271 
L 305.788355 -279.279448 
L 307.103689 -265.839027 
L 308.419023 -286.917257 
L 309.734357 -281.184478 
L 311.04969 -283.528986 
L 312.365024 -274.144434 
L 313.680358 -271.166778 
L 314.995692 -279.694719 
L 316.311026 -273.249648 
L 317.62636 -269.746851 
L 318.941694 -277.419111 
L 320.257028 -284.424704 
L 321.572362 -283.973121 
L 322.887696 -270.980558 
L 324.20303 -282.04202 
L 325.518364 -274.517805 
L 326.833698 -274.182609 
L 328.149032 -264.462862 
L 328.149032 -296.456372 
L 328.149032 -296.456372 
L 326.833698 -309.959177 
L 325.518364 -302.30647 
L 324.20303 -306.515971 
L 322.887696 -292.471266 
L 321.572362 -314.677058 
L 320.257028 -311.68916 
L 318.941694 -300.031794 
L 317.62636 -297.240358 
L 316.311026 -305.284126 
L 314.995692 -307.484315 
L 313.680358 -300.963825 
L 312.365024 -296.529929 
L 311.04969 -313.218957 
L 309.734357 -307.109082 
L 308.419023 -313.777616 
L 307.103689 -292.657486 
L 305.788355 -308.008524 
L 304.473021 -295.002926 
L 303.157687 -303.27202 
L 301.842353 -311.093256 
L 300.527019 -305.395858 
L 299.211685 -303.241294 
L 297.896351 -295.338121 
L 296.581017 -306.818578 
L 295.265683 -295.044825 
L 293.950349 -292.548547 
L 292.635015 -300.071831 
L 291.319681 -299.326952 
L 290.004347 -308.713366 
L 288.689013 -301.185426 
L 287.373679 -310.502008 
L 286.058345 -301.932168 
L 284.743011 -299.176114 
L 283.427677 -307.29437 
L 282.112343 -303.27202 
L 280.797009 -290.274802 
L 279.481675 -301.119318 
L 278.166341 -299.735704 
L 276.851007 -306.62491 
L 275.535673 -307.93776 
L 274.220339 -282.826937 
L 272.905006 -305.585803 
L 271.589672 -302.676117 
L 270.274338 -293.477785 
L 268.959004 -295.747805 
L 267.64367 -299.809261 
L 266.328336 -304.954517 
L 265.013002 -301.96755 
L 263.697668 -298.542035 
L 262.382334 -302.340921 
L 261.067 -298.69008 
L 259.751666 -289.974988 
L 258.436332 -298.76643 
L 257.120998 -304.649117 
L 255.805664 -299.100695 
L 254.49033 -309.121188 
L 253.174996 -303.347439 
L 251.859662 -311.13888 
L 250.544328 -299.437753 
L 249.228994 -312.919142 
L 247.91366 -305.654704 
L 246.598326 -307.853961 
L 245.282992 -291.177038 
L 243.967658 -298.168664 
L 242.652324 -287.154688 
L 241.33699 -290.421916 
L 240.021656 -300.142595 
L 238.706322 -303.758054 
L 237.390988 -291.9154 
L 236.075654 -300.977791 
L 234.760321 -310.013181 
L 233.444987 -297.164939 
L 232.129653 -298.991756 
L 230.814319 -292.177039 
L 229.498985 -313.737579 
L 228.183651 -298.95265 
L 226.868317 -301.149114 
L 225.552983 -316.273894 
L 224.237649 -289.046682 
L 222.922315 -302.641666 
L 221.606981 -304.431239 
L 220.291647 -296.279463 
L 218.976313 -304.170531 
L 217.660979 -297.799017 
L 216.345645 -305.619322 
L 215.030311 -302.825093 
L 213.714977 -301.001069 
L 212.399643 -295.304602 
L 211.084309 -291.508509 
L 209.768975 -303.496415 
L 208.453641 -300.632353 
L 207.138307 -284.989881 
L 205.822973 -291.316703 
L 204.507639 -301.152838 
L 203.192305 -296.04855 
L 201.876971 -309.155638 
L 200.561637 -286.8856 
L 199.246303 -302.010381 
L 197.930969 -303.202188 
L 196.615636 -301.297158 
L 195.300302 -294.110001 
L 193.984968 -318.057881 
L 192.669634 -324.767384 
L 191.3543 -300.441478 
L 190.038966 -311.43497 
L 188.723632 -308.450796 
L 187.408298 -309.975006 
L 186.092964 -311.168675 
L 184.77763 -284.845561 
L 183.462296 -294.18542 
L 182.146962 -305.881892 
L 180.831628 -308.862342 
L 179.516294 -291.725455 
L 178.20096 -302.489897 
L 176.885626 -293.70218 
L 175.570292 -304.83813 
L 174.254958 -294.297152 
L 172.939624 -324.205931 
L 171.62429 -316.529946 
L 170.308956 -305.77016 
L 168.993622 -307.069975 
L 167.678288 -310.573703 
L 166.362954 -315.599778 
L 165.04762 -310.757129 
L 163.732286 -293.67704 
L 162.416952 -298.804605 
L 161.101618 -297.279464 
L 159.786284 -320.183581 
L 158.470951 -315.785998 
L 157.155617 -307.222676 
L 155.840283 -301.039244 
L 154.524949 -299.183562 
L 153.209615 -315.972218 
L 151.894281 -303.308333 
L 150.578947 -306.933104 
L 149.263613 -305.469415 
L 147.948279 -297.350228 
L 146.632945 -298.0979 
L 145.317611 -300.481515 
L 144.002277 -288.897706 
L 142.686943 -299.812986 
L 141.371609 -298.652836 
L 140.056275 -303.084869 
L 138.740941 -301.933099 
L 137.425607 -294.110001 
L 136.110273 -297.277602 
L 134.794939 -299.142594 
L 133.479605 -295.564379 
L 132.164271 -306.557871 
L 130.848937 -289.380947 
L 129.533603 -278.583917 
L 128.218269 -295.713355 
L 126.902935 -286.698449 
L 125.587601 -285.359528 
L 124.272267 -301.855818 
L 122.956933 -293.147244 
L 121.641599 -266.959139 
L 120.326266 -284.278521 
L 119.010932 -286.515022 
L 117.695598 -300.142595 
L 116.380264 -304.240364 
L 115.06493 -302.677979 
L 113.749596 -275.93587 
L 112.434262 -309.567184 
L 111.118928 -294.745011 
L 109.803594 -298.359539 
L 108.48826 -301.968481 
L 107.172926 -302.046693 
L 105.857592 -296.196595 
L 104.542258 -287.817631 
L 103.226924 -295.266427 
L 101.91159 -287.479642 
L 100.596256 -292.507579 
L 99.280922 -295.749667 
L 97.965588 -289.754318 
L 96.650254 -299.030862 
L 95.33492 -298.839056 
L 94.019586 -304.873512 
L 92.704252 -291.730111 
L 91.388918 -302.080213 
L 90.073584 -297.164008 
L 88.75825 -305.323233 
L 87.442916 -302.866992 
L 86.127582 -314.632366 
L 84.812248 -288.263627 
L 83.496915 -303.832542 
L 82.181581 -288.684484 
L 80.866247 -295.867917 
L 79.550913 -302.083006 
L 78.235579 -282.865112 
L 76.920245 -275.636987 
L 75.604911 -282.452635 
L 74.289577 -282.192859 
L 72.974243 -292.063444 
L 71.658909 -296.308327 
L 70.343575 -282.787831 
L 69.028241 -278.989876 
L 67.712907 -267.932138 
L 66.397573 -159.847313 
z
" style="stroke: #2d1e3e; stroke-opacity: 0.2"/>
    </defs>
    <g clip-path="url(#p155b3b9448)">
     <use xlink:href="#m88a6164232" x="0" y="362.097812" style="fill: #2d1e3e; fill-opacity: 0.2; stroke: #2d1e3e; stroke-opacity: 0.2"/>
    </g>
   </g>
   <g id="line2d_11">
    <path d="M 66.397573 262.216101 
L 67.712907 177.188093 
L 69.028241 139.310965 
L 70.343575 134.692712 
L 71.658909 104.674063 
L 72.974243 87.24388 
L 74.289577 88.770884 
L 75.604911 82.513895 
L 76.920245 86.983172 
L 78.235579 75.176831 
L 79.550913 82.998067 
L 80.866247 72.08558 
L 82.181581 77.076274 
L 83.496915 85.009242 
L 84.812248 79.683352 
L 86.127582 86.499001 
L 87.442916 87.690808 
L 88.75825 94.692676 
L 90.073584 81.731771 
L 91.388918 88.472932 
L 92.704252 100.279274 
L 94.019586 77.076274 
L 95.33492 85.344437 
L 96.650254 88.621908 
L 97.965588 78.938473 
L 99.280922 74.394707 
L 100.596256 90.297887 
L 101.91159 71.377945 
L 103.226924 75.474782 
L 104.542258 83.556726 
L 105.857592 78.044617 
L 107.172926 76.592102 
L 108.48826 82.960823 
L 109.803594 88.510176 
L 111.118928 73.538096 
L 112.434262 86.647977 
L 113.749596 78.603277 
L 115.06493 76.256906 
L 116.380264 75.54927 
L 117.695598 66.573471 
L 119.010932 80.465476 
L 120.326266 72.64424 
L 121.641599 72.45802 
L 122.956933 70.148893 
L 124.272267 64.934736 
L 125.587601 79.497132 
L 126.902935 60.093019 
L 128.218269 60.130262 
L 129.533603 81.433819 
L 130.848937 80.912404 
L 132.164271 61.843486 
L 133.479605 81.620039 
L 134.794939 78.119105 
L 136.110273 73.575339 
L 137.425607 70.521333 
L 138.740941 82.513895 
L 140.056275 68.919842 
L 141.371609 66.014811 
L 142.686943 83.296018 
L 144.002277 70.968261 
L 145.317611 71.117237 
L 146.632945 75.996198 
L 147.948279 77.783909 
L 149.263613 67.839766 
L 150.578947 75.102343 
L 151.894281 72.011092 
L 154.524949 72.08558 
L 155.840283 76.85281 
L 157.155617 75.214075 
L 158.470951 77.336982 
L 159.786284 84.301606 
L 161.101618 72.867704 
L 162.416952 78.119105 
L 163.732286 63.072537 
L 165.04762 55.884449 
L 166.362954 72.867704 
L 167.678288 67.020399 
L 168.993622 69.739209 
L 170.308956 81.471063 
L 171.62429 84.078142 
L 172.939624 79.459888 
L 174.254958 75.661002 
L 175.570292 75.772734 
L 176.885626 70.186137 
L 178.20096 79.050205 
L 179.516294 85.903097 
L 180.831628 72.234556 
L 182.146962 60.651678 
L 183.462296 60.055775 
L 184.77763 53.873274 
L 186.092964 85.046485 
L 187.408298 65.046468 
L 188.723632 71.824872 
L 190.038966 71.266213 
L 191.3543 62.886317 
L 192.669634 62.588365 
L 193.984968 65.903079 
L 195.300302 70.037161 
L 196.615636 69.217794 
L 197.930969 66.759691 
L 199.246303 71.340701 
L 200.561637 67.430083 
L 201.876971 83.370506 
L 203.192305 80.390988 
L 204.507639 79.608864 
L 205.822973 79.3854 
L 207.138307 74.469195 
L 208.453641 77.970129 
L 209.768975 80.018548 
L 211.084309 69.068818 
L 212.399643 69.255038 
L 213.714977 72.2718 
L 215.030311 68.323938 
L 216.345645 62.700097 
L 217.660979 74.506439 
L 218.976313 64.78576 
L 220.291647 57.85838 
L 221.606981 64.376076 
L 222.922315 69.999917 
L 224.237649 84.115386 
L 225.552983 65.642372 
L 226.868317 73.277388 
L 228.183651 75.214075 
L 229.498985 84.003654 
L 230.814319 69.813697 
L 232.129653 75.586514 
L 233.444987 84.301606 
L 234.760321 85.679633 
L 236.075654 54.655397 
L 237.390988 66.759691 
L 238.706322 72.532508 
L 240.021656 77.299738 
L 241.33699 64.860248 
L 242.652324 81.06138 
L 243.967658 76.964542 
L 245.282992 77.22525 
L 246.598326 78.491545 
L 247.91366 72.45802 
L 249.228994 80.837916 
L 250.544328 69.255038 
L 251.859662 65.120956 
L 253.174996 65.71686 
L 254.49033 78.752253 
L 255.805664 79.608864 
L 257.120998 70.931017 
L 258.436332 81.769015 
L 259.751666 85.195461 
L 261.067 76.405882 
L 262.382334 72.867704 
L 263.697668 72.048336 
L 265.013002 60.800654 
L 266.328336 65.754104 
L 267.64367 63.817417 
L 268.959004 65.865836 
L 270.274338 76.10793 
L 271.589672 77.262494 
L 272.905006 65.977567 
L 274.220339 69.404014 
L 275.535673 50.893755 
L 276.851007 73.649827 
L 278.166341 77.783909 
L 279.481675 67.094887 
L 280.797009 65.120956 
L 282.112343 71.228969 
L 283.427677 81.173112 
L 286.058345 61.768998 
L 287.373679 65.1582 
L 288.689013 88.323956 
L 290.004347 70.782041 
L 291.319681 86.461757 
L 292.635015 67.914254 
L 293.950349 66.312763 
L 295.265683 69.36677 
L 296.581017 85.679633 
L 297.896351 91.973866 
L 299.211685 72.681484 
L 300.527019 65.567884 
L 301.842353 71.750384 
L 303.157687 52.383515 
L 304.473021 70.111649 
L 305.788355 73.947779 
L 307.103689 66.201031 
L 308.419023 80.428232 
L 309.734357 61.545534 
L 311.04969 83.891922 
L 312.365024 67.951498 
L 313.680358 85.344437 
L 314.995692 74.469195 
L 316.311026 78.044617 
L 317.62636 68.845354 
L 318.941694 63.519465 
L 320.257028 76.815566 
L 321.572362 63.891905 
L 322.887696 68.696378 
L 324.20303 67.653547 
L 325.518364 79.050205 
L 326.833698 67.355595 
L 328.149032 76.331394 
L 328.149032 76.331394 
" clip-path="url(#p155b3b9448)" style="fill: none; stroke: #edd1cb; stroke-width: 1.5; stroke-linecap: round"/>
   </g>
   <g id="line2d_12">
    <path d="M 66.397573 199.944166 
L 67.712907 109.031609 
L 69.028241 87.24388 
L 70.343575 87.206636 
L 71.658909 82.439407 
L 74.289577 101.471081 
L 75.604911 79.646108 
L 76.920245 87.132148 
L 78.235579 96.256924 
L 79.550913 92.830477 
L 80.866247 86.312781 
L 82.181581 82.290431 
L 83.496915 86.610733 
L 84.812248 80.577208 
L 86.127582 77.895641 
L 87.442916 85.828609 
L 88.75825 76.964542 
L 90.073584 88.323956 
L 91.388918 74.692659 
L 92.704252 76.890054 
L 94.019586 83.519482 
L 95.33492 93.910553 
L 96.650254 78.938473 
L 97.965588 77.970129 
L 99.280922 71.228969 
L 100.596256 85.716877 
L 101.91159 70.558577 
L 103.226924 72.160068 
L 104.542258 77.783909 
L 105.857592 78.826741 
L 107.172926 63.966392 
L 108.48826 68.62189 
L 109.803594 79.795084 
L 111.118928 73.687071 
L 112.434262 68.957086 
L 113.749596 70.409601 
L 115.06493 65.679616 
L 116.380264 70.484089 
L 119.010932 63.221513 
L 120.326266 82.960823 
L 121.641599 74.320219 
L 122.956933 68.99433 
L 124.272267 74.878879 
L 125.587601 83.668458 
L 126.902935 76.145174 
L 128.218269 82.662871 
L 129.533603 74.916123 
L 130.848937 83.668458 
L 132.164271 75.251319 
L 133.479605 81.694527 
L 134.794939 75.102343 
L 136.110273 75.400295 
L 137.425607 73.947779 
L 138.740941 71.042749 
L 140.056275 74.953367 
L 141.371609 72.234556 
L 142.686943 82.551139 
L 144.002277 79.906816 
L 145.317611 81.657283 
L 146.632945 80.13028 
L 147.948279 69.962673 
L 149.263613 88.472932 
L 150.578947 78.044617 
L 151.894281 87.541832 
L 153.209615 81.843503 
L 154.524949 73.798803 
L 155.840283 79.832328 
L 157.155617 79.795084 
L 158.470951 65.493396 
L 159.786284 71.452433 
L 161.101618 86.350025 
L 162.416952 73.053924 
L 163.732286 84.487826 
L 165.04762 75.065099 
L 166.362954 69.664722 
L 167.678288 65.903079 
L 168.993622 75.623758 
L 170.308956 79.348156 
L 171.62429 70.856529 
L 172.939624 72.64424 
L 174.254958 75.809978 
L 175.570292 67.020399 
L 176.885626 59.422627 
L 178.20096 69.739209 
L 179.516294 89.404031 
L 180.831628 58.342551 
L 182.146962 63.593953 
L 183.462296 74.878879 
L 184.77763 66.014811 
L 186.092964 59.124675 
L 187.408298 83.96641 
L 188.723632 89.217811 
L 190.038966 71.042749 
L 191.3543 78.230837 
L 192.669634 71.079993 
L 193.984968 75.92171 
L 195.300302 76.554858 
L 196.615636 82.923579 
L 197.930969 59.795067 
L 199.246303 78.826741 
L 200.561637 78.230837 
L 201.876971 60.539946 
L 203.192305 66.201031 
L 204.507639 79.459888 
L 205.822973 76.592102 
L 207.138307 87.467344 
L 208.453641 60.800654 
L 209.768975 57.150744 
L 211.084309 73.985023 
L 212.399643 75.176831 
L 213.714977 73.724315 
L 215.030311 67.020399 
L 216.345645 73.836047 
L 217.660979 77.821153 
L 218.976313 73.910535 
L 220.291647 77.709421 
L 221.606981 83.705702 
L 222.922315 71.415189 
L 224.237649 66.610715 
L 225.552983 85.381681 
L 226.868317 66.722447 
L 228.183651 74.133999 
L 229.498985 78.715009 
L 230.814319 78.826741 
L 232.129653 89.925447 
L 233.444987 79.199181 
L 236.075654 64.636784 
L 237.390988 64.78576 
L 238.706322 66.126543 
L 240.021656 75.214075 
L 241.33699 63.296001 
L 243.967658 67.430083 
L 245.282992 92.01111 
L 246.598326 53.947762 
L 247.91366 70.372357 
L 249.228994 68.286694 
L 250.544328 77.374225 
L 251.859662 62.253169 
L 253.174996 68.025986 
L 254.49033 67.728035 
L 255.805664 72.569752 
L 257.120998 72.309044 
L 258.436332 62.923561 
L 259.751666 68.547402 
L 261.067 72.383532 
L 262.382334 65.456152 
L 263.697668 69.478502 
L 265.013002 89.180567 
L 266.328336 85.344437 
L 267.64367 78.119105 
L 268.959004 72.2718 
L 270.274338 76.331394 
L 271.589672 82.998067 
L 272.905006 64.264344 
L 274.220339 70.446845 
L 275.535673 70.484089 
L 276.851007 73.724315 
L 278.166341 83.147042 
L 279.481675 77.783909 
L 280.797009 75.54927 
L 282.112343 71.303457 
L 283.427677 67.839766 
L 284.743011 80.055792 
L 286.058345 67.467327 
L 287.373679 75.065099 
L 288.689013 76.182418 
L 290.004347 64.2271 
L 291.319681 73.351876 
L 292.635015 72.45802 
L 293.950349 74.618171 
L 295.265683 71.787628 
L 296.581017 68.137718 
L 297.896351 59.385383 
L 299.211685 68.43567 
L 300.527019 73.165656 
L 301.842353 75.623758 
L 303.157687 78.677765 
L 304.473021 67.355595 
L 305.788355 75.474782 
L 307.103689 76.629346 
L 308.419023 75.400295 
L 309.734357 67.467327 
L 311.04969 71.638652 
L 312.365024 72.681484 
L 313.680358 64.2271 
L 314.995692 74.692659 
L 316.311026 74.208487 
L 317.62636 82.327675 
L 318.941694 66.796935 
L 320.257028 80.577208 
L 321.572362 65.195444 
L 322.887696 69.18055 
L 324.20303 75.586514 
L 325.518364 76.703834 
L 326.833698 75.139587 
L 328.149032 61.768998 
L 328.149032 61.768998 
" clip-path="url(#p155b3b9448)" style="fill: none; stroke: #d499a7; stroke-width: 1.5; stroke-linecap: round"/>
   </g>
   <g id="line2d_13">
    <path d="M 66.397573 273.352051 
L 67.712907 150.11172 
L 69.028241 104.189892 
L 70.343575 112.420811 
L 71.658909 96.294168 
L 72.974243 96.331412 
L 74.289577 100.800689 
L 75.604911 79.608864 
L 76.920245 97.560463 
L 78.235579 92.234574 
L 79.550913 79.273669 
L 80.866247 73.761559 
L 82.181581 80.837916 
L 83.496915 93.612601 
L 84.812248 89.068835 
L 86.127582 92.085598 
L 87.442916 79.832328 
L 88.75825 84.89751 
L 90.073584 73.128412 
L 91.388918 79.348156 
L 92.704252 73.2029 
L 94.019586 84.52507 
L 95.33492 73.2029 
L 96.650254 83.929166 
L 97.965588 83.444994 
L 99.280922 88.063248 
L 100.596256 86.424513 
L 101.91159 88.808128 
L 103.226924 75.54927 
L 104.542258 86.461757 
L 105.857592 79.832328 
L 107.172926 102.178717 
L 108.48826 81.284843 
L 109.803594 84.934754 
L 111.118928 80.3165 
L 112.434262 86.610733 
L 113.749596 89.925447 
L 115.06493 72.45802 
L 116.380264 79.124693 
L 119.010932 67.914254 
L 120.326266 76.10793 
L 121.641599 74.208487 
L 122.956933 80.763428 
L 124.272267 76.219662 
L 125.587601 78.305325 
L 126.902935 68.99433 
L 128.218269 81.396575 
L 129.533603 68.696378 
L 130.848937 89.255055 
L 132.164271 73.091168 
L 133.479605 74.171243 
L 134.794939 74.729903 
L 136.110273 73.165656 
L 137.425607 71.936604 
L 138.740941 58.566015 
L 140.056275 77.299738 
L 141.371609 77.262494 
L 142.686943 68.80811 
L 144.002277 68.24945 
L 145.317611 77.746665 
L 146.632945 94.171261 
L 147.948279 80.428232 
L 149.263613 79.161937 
L 150.578947 87.4301 
L 151.894281 77.970129 
L 153.209615 66.610715 
L 154.524949 78.119105 
L 155.840283 73.724315 
L 157.155617 67.243863 
L 158.470951 80.242012 
L 159.786284 86.647977 
L 161.101618 85.754121 
L 162.416952 71.601409 
L 163.732286 89.106079 
L 165.04762 55.437521 
L 166.362954 71.154481 
L 167.678288 70.670309 
L 168.993622 65.34442 
L 170.308956 79.497132 
L 171.62429 77.113518 
L 172.939624 63.296001 
L 174.254958 65.977567 
L 175.570292 60.428214 
L 176.885626 73.053924 
L 178.20096 65.307176 
L 179.516294 64.152612 
L 180.831628 63.184269 
L 182.146962 81.471063 
L 183.462296 64.264344 
L 184.77763 63.072537 
L 186.092964 77.746665 
L 187.408298 87.690808 
L 188.723632 63.891905 
L 191.3543 72.048336 
L 192.669634 72.346288 
L 193.984968 76.629346 
L 195.300302 77.821153 
L 196.615636 78.528789 
L 197.930969 72.45802 
L 199.246303 72.606996 
L 200.561637 74.767147 
L 201.876971 79.497132 
L 203.192305 76.629346 
L 204.507639 79.012961 
L 205.822973 73.01668 
L 207.138307 84.264362 
L 208.453641 73.277388 
L 209.768975 72.606996 
L 211.084309 68.06323 
L 212.399643 71.042749 
L 213.714977 76.741078 
L 215.030311 69.701966 
L 216.345645 79.012961 
L 217.660979 75.847222 
L 218.976313 67.728035 
L 220.291647 69.18055 
L 221.606981 59.459871 
L 224.237649 75.214075 
L 225.552983 81.620039 
L 226.868317 87.169392 
L 229.498985 69.850941 
L 230.814319 59.869555 
L 232.129653 63.258757 
L 233.444987 73.314632 
L 234.760321 74.655415 
L 236.075654 76.48037 
L 237.390988 65.679616 
L 238.706322 70.186137 
L 240.021656 82.625627 
L 241.33699 67.094887 
L 242.652324 70.670309 
L 243.967658 83.817434 
L 245.282992 78.268081 
L 246.598326 64.487808 
L 247.91366 59.348139 
L 249.228994 63.109781 
L 250.544328 62.476633 
L 251.859662 74.208487 
L 253.174996 69.590234 
L 254.49033 77.634933 
L 255.805664 72.83046 
L 257.120998 59.497115 
L 258.436332 66.238275 
L 259.751666 75.363051 
L 261.067 72.979436 
L 262.382334 70.297869 
L 263.697668 71.71314 
L 265.013002 71.564165 
L 266.328336 67.467327 
L 267.64367 85.158217 
L 268.959004 75.214075 
L 270.274338 76.368638 
L 271.589672 59.608847 
L 272.905006 65.195444 
L 274.220339 67.914254 
L 275.535673 84.785778 
L 276.851007 70.819285 
L 278.166341 76.256906 
L 279.481675 68.43567 
L 280.797009 72.346288 
L 282.112343 73.910535 
L 283.427677 72.197312 
L 284.743011 70.297869 
L 286.058345 78.715009 
L 287.373679 57.746648 
L 288.689013 68.06323 
L 290.004347 71.042749 
L 291.319681 72.160068 
L 292.635015 64.078124 
L 293.950349 66.424495 
L 295.265683 59.683335 
L 296.581017 69.515746 
L 297.896351 84.785778 
L 299.211685 74.767147 
L 300.527019 78.938473 
L 301.842353 68.137718 
L 303.157687 83.184286 
L 304.473021 70.186137 
L 305.788355 61.917974 
L 307.103689 79.981304 
L 308.419023 56.405864 
L 309.734357 70.148893 
L 311.04969 62.215925 
L 312.365024 51.862099 
L 313.680358 57.29972 
L 314.995692 66.685203 
L 316.311026 65.642372 
L 317.62636 70.782041 
L 318.941694 56.033425 
L 320.257028 76.629346 
L 321.572362 79.459888 
L 322.887696 72.383532 
L 324.20303 83.891922 
L 325.518364 82.029723 
L 326.833698 54.320202 
L 328.149032 66.834179 
L 328.149032 66.834179 
" clip-path="url(#p155b3b9448)" style="fill: none; stroke: #a9678f; stroke-width: 1.5; stroke-linecap: round"/>
   </g>
   <g id="line2d_14">
    <path d="M 66.397573 258.528947 
L 67.712907 166.387339 
L 69.028241 125.158253 
L 70.343575 101.322105 
L 71.658909 99.087466 
L 72.974243 86.424513 
L 74.289577 98.975734 
L 76.920245 83.370506 
L 78.235579 85.679633 
L 79.550913 92.271818 
L 82.181581 80.651696 
L 83.496915 78.342569 
L 84.812248 77.076274 
L 86.127582 65.1582 
L 87.442916 78.752253 
L 88.75825 66.052055 
L 90.073584 72.160068 
L 91.388918 73.985023 
L 92.704252 66.610715 
L 94.019586 64.897492 
L 95.33492 77.970129 
L 97.965588 87.839784 
L 99.280922 84.078142 
L 100.596256 75.54927 
L 101.91159 83.184286 
L 103.226924 73.687071 
L 104.542258 85.791365 
L 107.172926 66.424495 
L 108.48826 70.111649 
L 109.803594 87.541832 
L 111.118928 72.793216 
L 112.434262 84.562314 
L 113.749596 85.381681 
L 115.06493 77.150762 
L 116.380264 65.381664 
L 117.695598 66.722447 
L 119.010932 69.962673 
L 120.326266 67.057643 
L 121.641599 76.182418 
L 122.956933 67.318351 
L 124.272267 64.636784 
L 125.587601 65.679616 
L 126.902935 81.508307 
L 128.218269 80.3165 
L 129.533603 83.705702 
L 130.848937 58.007356 
L 132.164271 67.839766 
L 133.479605 80.055792 
L 134.794939 74.171243 
L 136.110273 76.85281 
L 137.425607 85.977585 
L 138.740941 93.538113 
L 140.056275 77.485957 
L 141.371609 76.592102 
L 142.686943 77.672177 
L 144.002277 83.370506 
L 145.317611 69.776453 
L 146.632945 79.087449 
L 147.948279 80.204768 
L 149.263613 69.478502 
L 150.578947 82.104211 
L 151.894281 73.538096 
L 153.209615 84.003654 
L 154.524949 54.431933 
L 155.840283 66.536227 
L 157.155617 72.234556 
L 158.470951 92.644258 
L 159.786284 84.823022 
L 161.101618 90.484107 
L 162.416952 83.109799 
L 163.732286 71.415189 
L 165.04762 74.282975 
L 166.362954 63.854661 
L 167.678288 66.759691 
L 168.993622 66.201031 
L 170.308956 74.729903 
L 171.62429 60.316482 
L 172.939624 69.36677 
L 174.254958 83.59397 
L 175.570292 71.71314 
L 176.885626 65.34442 
L 178.20096 73.2029 
L 179.516294 77.03903 
L 180.831628 86.163805 
L 182.146962 80.465476 
L 183.462296 67.87701 
L 184.77763 79.869572 
L 186.092964 67.132131 
L 187.408298 89.999935 
L 188.723632 87.914272 
L 190.038966 70.744797 
L 192.669634 57.634916 
L 193.984968 66.610715 
L 195.300302 71.228969 
L 196.615636 55.214057 
L 197.930969 64.301588 
L 199.246303 75.214075 
L 200.561637 75.027855 
L 201.876971 92.644258 
L 203.192305 82.998067 
L 204.507639 68.100474 
L 205.822973 67.169375 
L 207.138307 80.577208 
L 208.453641 73.351876 
L 209.768975 72.45802 
L 211.084309 67.504571 
L 212.399643 68.584646 
L 213.714977 63.705685 
L 215.030311 63.221513 
L 216.345645 72.942192 
L 217.660979 81.359331 
L 218.976313 79.981304 
L 220.291647 72.83046 
L 221.606981 87.98876 
L 222.922315 66.498983 
L 224.237649 76.890054 
L 225.552983 71.005505 
L 226.868317 75.884466 
L 228.183651 82.178699 
L 229.498985 77.262494 
L 230.814319 78.305325 
L 232.129653 84.971998 
L 233.444987 103.817452 
L 234.760321 73.01668 
L 236.075654 70.223381 
L 237.390988 80.837916 
L 240.021656 61.69451 
L 241.33699 68.137718 
L 242.652324 71.89936 
L 243.967658 60.651678 
L 245.282992 65.1582 
L 246.598326 75.623758 
L 247.91366 79.75784 
L 249.228994 69.404014 
L 250.544328 75.214075 
L 251.859662 69.850941 
L 253.174996 57.895624 
L 254.49033 67.281107 
L 255.805664 70.744797 
L 257.120998 60.316482 
L 258.436332 73.2029 
L 259.751666 73.277388 
L 261.067 71.750384 
L 262.382334 66.983155 
L 263.697668 79.57162 
L 265.013002 78.789497 
L 266.328336 70.335113 
L 267.64367 80.912404 
L 268.959004 61.992462 
L 270.274338 78.715009 
L 271.589672 60.465458 
L 272.905006 71.601409 
L 274.220339 80.68894 
L 275.535673 62.960805 
L 276.851007 60.241994 
L 278.166341 76.815566 
L 279.481675 76.182418 
L 280.797009 70.968261 
L 282.112343 73.836047 
L 283.427677 78.491545 
L 284.743011 73.240144 
L 286.058345 72.755972 
L 287.373679 76.778322 
L 288.689013 69.55299 
L 290.004347 67.057643 
L 291.319681 73.500852 
L 292.635015 70.223381 
L 293.950349 77.299738 
L 295.265683 83.035311 
L 296.581017 85.456169 
L 297.896351 64.78576 
L 299.211685 57.039012 
L 300.527019 69.217794 
L 301.842353 64.487808 
L 303.157687 65.903079 
L 304.473021 67.616303 
L 305.788355 84.040898 
L 307.103689 63.035293 
L 308.419023 68.361182 
L 309.734357 57.85838 
L 311.04969 75.325807 
L 312.365024 63.407733 
L 313.680358 48.025969 
L 314.995692 75.586514 
L 316.311026 72.718728 
L 317.62636 62.662853 
L 318.941694 68.43567 
L 320.257028 58.268063 
L 321.572362 76.256906 
L 322.887696 60.726166 
L 324.20303 69.441258 
L 325.518364 70.446845 
L 326.833698 69.664722 
L 328.149032 67.392839 
L 328.149032 67.392839 
" clip-path="url(#p155b3b9448)" style="fill: none; stroke: #6c3f70; stroke-width: 1.5; stroke-linecap: round"/>
   </g>
   <g id="line2d_15">
    <path d="M 66.397573 240.465616 
L 67.712907 121.359367 
L 69.028241 102.439424 
L 70.343575 97.672195 
L 71.658909 81.471063 
L 72.974243 83.296018 
L 74.289577 90.744815 
L 75.604911 93.985041 
L 76.920245 99.981322 
L 78.235579 94.804408 
L 79.550913 75.251319 
L 80.866247 81.135868 
L 82.181581 89.292299 
L 83.496915 75.400295 
L 84.812248 84.934754 
L 86.127582 64.264344 
L 87.442916 71.71314 
L 88.75825 71.452433 
L 90.073584 80.577208 
L 91.388918 76.256906 
L 92.704252 82.923579 
L 94.019586 76.219662 
L 95.33492 79.087449 
L 96.650254 79.94406 
L 97.965588 84.674046 
L 99.280922 76.927298 
L 100.596256 81.992479 
L 101.91159 84.487826 
L 103.226924 80.465476 
L 104.542258 89.255055 
L 105.857592 79.75784 
L 107.172926 75.176831 
L 108.48826 73.463608 
L 109.803594 81.359331 
L 111.118928 80.279256 
L 112.434262 68.882598 
L 113.749596 97.672195 
L 115.06493 75.92171 
L 116.380264 73.575339 
L 117.695598 82.364919 
L 119.010932 84.934754 
L 120.326266 95.325824 
L 121.641599 110.07444 
L 122.956933 85.567901 
L 124.272267 74.171243 
L 125.587601 90.335131 
L 126.902935 92.420794 
L 128.218269 84.376094 
L 129.533603 97.225267 
L 130.848937 84.971998 
L 132.164271 73.836047 
L 133.479605 81.06138 
L 134.794939 77.560445 
L 136.110273 78.044617 
L 137.425607 81.433819 
L 138.740941 74.767147 
L 140.056275 73.910535 
L 141.371609 76.890054 
L 142.686943 77.783909 
L 144.002277 85.009242 
L 145.317611 74.506439 
L 146.632945 77.523201 
L 147.948279 78.863985 
L 149.263613 70.670309 
L 150.578947 74.208487 
L 151.894281 72.495264 
L 153.209615 60.539946 
L 154.524949 77.932885 
L 155.840283 76.331394 
L 157.155617 69.404014 
L 158.470951 61.545534 
L 159.786284 57.746648 
L 161.101618 81.508307 
L 162.416952 75.809978 
L 163.732286 81.806259 
L 165.04762 62.364901 
L 166.362954 61.806242 
L 167.678288 66.685203 
L 168.993622 72.346288 
L 170.308956 70.819285 
L 171.62429 61.061362 
L 172.939624 54.878861 
L 174.254958 81.620039 
L 175.570292 68.584646 
L 176.885626 78.677765 
L 178.20096 75.73549 
L 179.516294 86.350025 
L 180.831628 70.670309 
L 182.146962 68.547402 
L 184.77763 92.048354 
L 186.092964 65.567884 
L 187.408298 65.865836 
L 188.723632 67.318351 
L 190.038966 65.269932 
L 191.3543 73.873291 
L 192.669634 54.357446 
L 193.984968 60.986874 
L 195.300302 81.694527 
L 196.615636 73.575339 
L 197.930969 77.001786 
L 199.246303 73.01668 
L 200.561637 93.128429 
L 201.876971 62.849073 
L 203.192305 80.353744 
L 204.507639 74.320219 
L 205.822973 83.184286 
L 207.138307 90.037179 
L 208.453641 73.053924 
L 209.768975 71.154481 
L 211.084309 87.4301 
L 212.399643 81.396575 
L 213.714977 82.588383 
L 215.030311 73.649827 
L 216.345645 71.415189 
L 217.660979 75.623758 
L 218.976313 72.122824 
L 220.291647 80.50272 
L 221.606981 76.517614 
L 222.922315 74.878879 
L 224.237649 88.286712 
L 225.552983 61.806242 
L 226.868317 74.022267 
L 228.183651 78.603277 
L 229.498985 65.940323 
L 230.814319 87.504588 
L 232.129653 77.485957 
L 233.444987 80.13028 
L 234.760321 67.87701 
L 236.075654 78.454301 
L 237.390988 87.80254 
L 238.706322 70.409601 
L 240.021656 76.778322 
L 241.33699 87.4301 
L 242.652324 91.82489 
L 243.967658 77.895641 
L 245.282992 85.456169 
L 246.598326 67.87701 
L 247.91366 70.558577 
L 249.228994 65.083712 
L 250.544328 78.305325 
L 251.859662 69.515746 
L 253.174996 72.45802 
L 254.49033 66.908667 
L 255.805664 78.901229 
L 257.120998 71.89936 
L 258.436332 77.858397 
L 259.751666 85.828609 
L 261.067 76.703834 
L 262.382334 68.845354 
L 263.697668 78.752253 
L 265.013002 77.076274 
L 266.328336 79.087449 
L 267.64367 75.586514 
L 268.959004 80.204768 
L 270.274338 82.849091 
L 271.589672 75.73549 
L 272.905006 72.606996 
L 274.220339 92.346306 
L 275.535673 74.208487 
L 276.851007 75.996198 
L 278.166341 73.985023 
L 279.481675 75.73549 
L 280.797009 84.040898 
L 282.112343 73.687071 
L 283.427677 69.404014 
L 284.743011 85.791365 
L 286.058345 74.245731 
L 287.373679 68.99433 
L 288.689013 75.288563 
L 290.004347 70.484089 
L 291.319681 78.417057 
L 292.635015 76.10793 
L 293.950349 83.519482 
L 295.265683 82.737359 
L 296.581017 70.558577 
L 297.896351 80.055792 
L 299.211685 70.931017 
L 300.527019 69.031574 
L 301.842353 68.06323 
L 303.157687 72.904948 
L 304.473021 81.545551 
L 305.788355 68.882598 
L 307.103689 83.854678 
L 308.419023 62.364901 
L 309.734357 68.174962 
L 311.04969 63.631197 
L 312.365024 76.741078 
L 313.680358 75.73549 
L 314.995692 68.80811 
L 316.311026 72.532508 
L 317.62636 78.901229 
L 318.941694 73.687071 
L 320.257028 64.003636 
L 321.572362 62.588365 
L 322.887696 81.284843 
L 324.20303 67.690791 
L 325.518364 72.793216 
L 326.833698 69.739209 
L 328.149032 81.731771 
L 328.149032 81.731771 
" clip-path="url(#p155b3b9448)" style="fill: none; stroke: #2d1e3e; stroke-width: 1.5; stroke-linecap: round"/>
   </g>
   <g id="line2d_16"/>
   <g id="line2d_17"/>
   <g id="line2d_18"/>
   <g id="line2d_19"/>
   <g id="line2d_20"/>
   <g id="patch_3">
    <path d="M 53.31 319.138125 
L 53.31 22.318125 
" style="fill: none; stroke: #ffffff; stroke-width: 1.25; stroke-linejoin: miter; stroke-linecap: square"/>
   </g>
   <g id="patch_4">
    <path d="M 53.31 319.138125 
L 341.236605 319.138125 
" style="fill: none; stroke: #ffffff; stroke-width: 1.25; stroke-linejoin: miter; stroke-linecap: square"/>
   </g>
   <g id="text_13">
    <!-- Freeform For Still Life -->
    <g style="fill: #262626" transform="translate(133.484865 16.318125)scale(0.12 -0.12)">
     <defs>
      <path id="DejaVuSans-66" d="M 2375 4863 
L 2375 4384 
L 1825 4384 
Q 1516 4384 1395 4259 
Q 1275 4134 1275 3809 
L 1275 3500 
L 2222 3500 
L 2222 3053 
L 1275 3053 
L 1275 0 
L 697 0 
L 697 3053 
L 147 3053 
L 147 3500 
L 697 3500 
L 697 3744 
Q 697 4328 969 4595 
Q 1241 4863 1831 4863 
L 2375 4863 
z
" transform="scale(0.015625)"/>
      <path id="DejaVuSans-6d" d="M 3328 2828 
Q 3544 3216 3844 3400 
Q 4144 3584 4550 3584 
Q 5097 3584 5394 3201 
Q 5691 2819 5691 2113 
L 5691 0 
L 5113 0 
L 5113 2094 
Q 5113 2597 4934 2840 
Q 4756 3084 4391 3084 
Q 3944 3084 3684 2787 
Q 3425 2491 3425 1978 
L 3425 0 
L 2847 0 
L 2847 2094 
Q 2847 2600 2669 2842 
Q 2491 3084 2119 3084 
Q 1678 3084 1418 2786 
Q 1159 2488 1159 1978 
L 1159 0 
L 581 0 
L 581 3500 
L 1159 3500 
L 1159 2956 
Q 1356 3278 1631 3431 
Q 1906 3584 2284 3584 
Q 2666 3584 2933 3390 
Q 3200 3197 3328 2828 
z
" transform="scale(0.015625)"/>
      <path id="DejaVuSans-20" transform="scale(0.015625)"/>
      <path id="DejaVuSans-53" d="M 3425 4513 
L 3425 3897 
Q 3066 4069 2747 4153 
Q 2428 4238 2131 4238 
Q 1616 4238 1336 4038 
Q 1056 3838 1056 3469 
Q 1056 3159 1242 3001 
Q 1428 2844 1947 2747 
L 2328 2669 
Q 3034 2534 3370 2195 
Q 3706 1856 3706 1288 
Q 3706 609 3251 259 
Q 2797 -91 1919 -91 
Q 1588 -91 1214 -16 
Q 841 59 441 206 
L 441 856 
Q 825 641 1194 531 
Q 1563 422 1919 422 
Q 2459 422 2753 634 
Q 3047 847 3047 1241 
Q 3047 1584 2836 1778 
Q 2625 1972 2144 2069 
L 1759 2144 
Q 1053 2284 737 2584 
Q 422 2884 422 3419 
Q 422 4038 858 4394 
Q 1294 4750 2059 4750 
Q 2388 4750 2728 4690 
Q 3069 4631 3425 4513 
z
" transform="scale(0.015625)"/>
      <path id="DejaVuSans-6c" d="M 603 4863 
L 1178 4863 
L 1178 0 
L 603 0 
L 603 4863 
z
" transform="scale(0.015625)"/>
      <path id="DejaVuSans-4c" d="M 628 4666 
L 1259 4666 
L 1259 531 
L 3531 531 
L 3531 0 
L 628 0 
L 628 4666 
z
" transform="scale(0.015625)"/>
     </defs>
     <use xlink:href="#DejaVuSans-46"/>
     <use xlink:href="#DejaVuSans-72" x="50.269531"/>
     <use xlink:href="#DejaVuSans-65" x="89.132812"/>
     <use xlink:href="#DejaVuSans-65" x="150.65625"/>
     <use xlink:href="#DejaVuSans-66" x="212.179688"/>
     <use xlink:href="#DejaVuSans-6f" x="247.384766"/>
     <use xlink:href="#DejaVuSans-72" x="308.566406"/>
     <use xlink:href="#DejaVuSans-6d" x="347.929688"/>
     <use xlink:href="#DejaVuSans-20" x="445.341797"/>
     <use xlink:href="#DejaVuSans-46" x="477.128906"/>
     <use xlink:href="#DejaVuSans-6f" x="531.023438"/>
     <use xlink:href="#DejaVuSans-72" x="592.205078"/>
     <use xlink:href="#DejaVuSans-20" x="633.318359"/>
     <use xlink:href="#DejaVuSans-53" x="665.105469"/>
     <use xlink:href="#DejaVuSans-74" x="728.582031"/>
     <use xlink:href="#DejaVuSans-69" x="767.791016"/>
     <use xlink:href="#DejaVuSans-6c" x="795.574219"/>
     <use xlink:href="#DejaVuSans-6c" x="823.357422"/>
     <use xlink:href="#DejaVuSans-20" x="851.140625"/>
     <use xlink:href="#DejaVuSans-4c" x="882.927734"/>
     <use xlink:href="#DejaVuSans-69" x="938.640625"/>
     <use xlink:href="#DejaVuSans-66" x="966.423828"/>
     <use xlink:href="#DejaVuSans-65" x="1001.628906"/>
    </g>
   </g>
  </g>
  <g id="legend_1">
   <g id="text_14">
    <!-- Trial -->
    <g style="fill: #262626" transform="translate(352.566555 143.995312)scale(0.12 -0.12)">
     <defs>
      <path id="DejaVuSans-54" d="M -19 4666 
L 3928 4666 
L 3928 4134 
L 2272 4134 
L 2272 0 
L 1638 0 
L 1638 4134 
L -19 4134 
L -19 4666 
z
" transform="scale(0.015625)"/>
     </defs>
     <use xlink:href="#DejaVuSans-54"/>
     <use xlink:href="#DejaVuSans-72" x="46.333984"/>
     <use xlink:href="#DejaVuSans-69" x="87.447266"/>
     <use xlink:href="#DejaVuSans-61" x="115.230469"/>
     <use xlink:href="#DejaVuSans-6c" x="176.509766"/>
    </g>
   </g>
   <g id="line2d_21">
    <path d="M 345.924055 156.499219 
L 356.924055 156.499219 
L 367.924055 156.499219 
" style="fill: none; stroke: #edd1cb; stroke-width: 1.5; stroke-linecap: round"/>
   </g>
   <g id="text_15">
    <!-- 0 -->
    <g style="fill: #262626" transform="translate(376.724055 160.349219)scale(0.11 -0.11)">
     <use xlink:href="#DejaVuSans-30"/>
    </g>
   </g>
   <g id="line2d_22">
    <path d="M 345.924055 172.645156 
L 356.924055 172.645156 
L 367.924055 172.645156 
" style="fill: none; stroke: #d499a7; stroke-width: 1.5; stroke-linecap: round"/>
   </g>
   <g id="text_16">
    <!-- 1 -->
    <g style="fill: #262626" transform="translate(376.724055 176.495156)scale(0.11 -0.11)">
     <use xlink:href="#DejaVuSans-31"/>
    </g>
   </g>
   <g id="line2d_23">
    <path d="M 345.924055 188.791094 
L 356.924055 188.791094 
L 367.924055 188.791094 
" style="fill: none; stroke: #a9678f; stroke-width: 1.5; stroke-linecap: round"/>
   </g>
   <g id="text_17">
    <!-- 2 -->
    <g style="fill: #262626" transform="translate(376.724055 192.641094)scale(0.11 -0.11)">
     <use xlink:href="#DejaVuSans-32"/>
    </g>
   </g>
   <g id="line2d_24">
    <path d="M 345.924055 204.937031 
L 356.924055 204.937031 
L 367.924055 204.937031 
" style="fill: none; stroke: #6c3f70; stroke-width: 1.5; stroke-linecap: round"/>
   </g>
   <g id="text_18">
    <!-- 3 -->
    <g style="fill: #262626" transform="translate(376.724055 208.787031)scale(0.11 -0.11)">
     <defs>
      <path id="DejaVuSans-33" d="M 2597 2516 
Q 3050 2419 3304 2112 
Q 3559 1806 3559 1356 
Q 3559 666 3084 287 
Q 2609 -91 1734 -91 
Q 1441 -91 1130 -33 
Q 819 25 488 141 
L 488 750 
Q 750 597 1062 519 
Q 1375 441 1716 441 
Q 2309 441 2620 675 
Q 2931 909 2931 1356 
Q 2931 1769 2642 2001 
Q 2353 2234 1838 2234 
L 1294 2234 
L 1294 2753 
L 1863 2753 
Q 2328 2753 2575 2939 
Q 2822 3125 2822 3475 
Q 2822 3834 2567 4026 
Q 2313 4219 1838 4219 
Q 1578 4219 1281 4162 
Q 984 4106 628 3988 
L 628 4550 
Q 988 4650 1302 4700 
Q 1616 4750 1894 4750 
Q 2613 4750 3031 4423 
Q 3450 4097 3450 3541 
Q 3450 3153 3228 2886 
Q 3006 2619 2597 2516 
z
" transform="scale(0.015625)"/>
     </defs>
     <use xlink:href="#DejaVuSans-33"/>
    </g>
   </g>
   <g id="line2d_25">
    <path d="M 345.924055 221.082969 
L 356.924055 221.082969 
L 367.924055 221.082969 
" style="fill: none; stroke: #2d1e3e; stroke-width: 1.5; stroke-linecap: round"/>
   </g>
   <g id="text_19">
    <!-- 4 -->
    <g style="fill: #262626" transform="translate(376.724055 224.932969)scale(0.11 -0.11)">
     <defs>
      <path id="DejaVuSans-34" d="M 2419 4116 
L 825 1625 
L 2419 1625 
L 2419 4116 
z
M 2253 4666 
L 3047 4666 
L 3047 1625 
L 3713 1625 
L 3713 1100 
L 3047 1100 
L 3047 0 
L 2419 0 
L 2419 1100 
L 313 1100 
L 313 1709 
L 2253 4666 
z
" transform="scale(0.015625)"/>
     </defs>
     <use xlink:href="#DejaVuSans-34"/>
    </g>
   </g>
  </g>
 </g>
 <defs>
  <clipPath id="p155b3b9448">
   <rect x="53.31" y="22.318125" width="287.926605" height="296.82"/>
  </clipPath>
 </defs>
</svg>
