<?xml version="1.0" encoding="utf-8" standalone="no"?>
<!DOCTYPE svg PUBLIC "-//W3C//DTD SVG 1.1//EN"
  "http://www.w3.org/Graphics/SVG/1.1/DTD/svg11.dtd">
<svg xmlns:xlink="http://www.w3.org/1999/xlink" width="393.622805pt" height="361.300935pt" viewBox="0 0 393.622805 361.300935" xmlns="http://www.w3.org/2000/svg" version="1.1">
 <metadata>
  <rdf:RDF xmlns:dc="http://purl.org/dc/elements/1.1/" xmlns:cc="http://creativecommons.org/ns#" xmlns:rdf="http://www.w3.org/1999/02/22-rdf-syntax-ns#">
   <cc:Work>
    <dc:type rdf:resource="http://purl.org/dc/dcmitype/StillImage"/>
    <dc:date>2022-11-20T08:32:26.705299</dc:date>
    <dc:format>image/svg+xml</dc:format>
    <dc:creator>
     <cc:Agent>
      <dc:title>Matplotlib v3.5.2, https://matplotlib.org/</dc:title>
     </cc:Agent>
    </dc:creator>
   </cc:Work>
  </rdf:RDF>
 </metadata>
 <defs>
  <style type="text/css">*{stroke-linejoin: round; stroke-linecap: butt}</style>
 </defs>
 <g id="figure_1">
  <g id="patch_1">
   <path d="M 0 361.300935 
L 393.622805 361.300935 
L 393.622805 0 
L 0 0 
z
" style="fill: #ffffff"/>
  </g>
  <g id="axes_1">
   <g id="patch_2">
    <path d="M 53.31 318.341247 
L 341.236605 318.341247 
L 341.236605 22.318125 
L 53.31 22.318125 
z
" style="fill: #eaeaf2"/>
   </g>
   <g id="matplotlib.axis_1">
    <g id="xtick_1">
     <g id="line2d_1">
      <path d="M 66.397573 318.341247 
L 66.397573 22.318125 
" clip-path="url(#pf1337223ad)" style="fill: none; stroke: #ffffff; stroke-linecap: round"/>
     </g>
     <g id="text_1">
      <!-- 0 -->
      <g style="fill: #262626" transform="translate(62.898198 336.199529)scale(0.11 -0.11)">
       <defs>
        <path id="DejaVuSans-30" d="M 2034 4250 
Q 1547 4250 1301 3770 
Q 1056 3291 1056 2328 
Q 1056 1369 1301 889 
Q 1547 409 2034 409 
Q 2525 409 2770 889 
Q 3016 1369 3016 2328 
Q 3016 3291 2770 3770 
Q 2525 4250 2034 4250 
z
M 2034 4750 
Q 2819 4750 3233 4129 
Q 3647 3509 3647 2328 
Q 3647 1150 3233 529 
Q 2819 -91 2034 -91 
Q 1250 -91 836 529 
Q 422 1150 422 2328 
Q 422 3509 836 4129 
Q 1250 4750 2034 4750 
z
" transform="scale(0.015625)"/>
       </defs>
       <use xlink:href="#DejaVuSans-30"/>
      </g>
     </g>
    </g>
    <g id="xtick_2">
     <g id="line2d_2">
      <path d="M 132.164271 318.341247 
L 132.164271 22.318125 
" clip-path="url(#pf1337223ad)" style="fill: none; stroke: #ffffff; stroke-linecap: round"/>
     </g>
     <g id="text_2">
      <!-- 50 -->
      <g style="fill: #262626" transform="translate(125.165521 336.199529)scale(0.11 -0.11)">
       <defs>
        <path id="DejaVuSans-35" d="M 691 4666 
L 3169 4666 
L 3169 4134 
L 1269 4134 
L 1269 2991 
Q 1406 3038 1543 3061 
Q 1681 3084 1819 3084 
Q 2600 3084 3056 2656 
Q 3513 2228 3513 1497 
Q 3513 744 3044 326 
Q 2575 -91 1722 -91 
Q 1428 -91 1123 -41 
Q 819 9 494 109 
L 494 744 
Q 775 591 1075 516 
Q 1375 441 1709 441 
Q 2250 441 2565 725 
Q 2881 1009 2881 1497 
Q 2881 1984 2565 2268 
Q 2250 2553 1709 2553 
Q 1456 2553 1204 2497 
Q 953 2441 691 2322 
L 691 4666 
z
" transform="scale(0.015625)"/>
       </defs>
       <use xlink:href="#DejaVuSans-35"/>
       <use xlink:href="#DejaVuSans-30" x="63.623047"/>
      </g>
     </g>
    </g>
    <g id="xtick_3">
     <g id="line2d_3">
      <path d="M 197.930969 318.341247 
L 197.930969 22.318125 
" clip-path="url(#pf1337223ad)" style="fill: none; stroke: #ffffff; stroke-linecap: round"/>
     </g>
     <g id="text_3">
      <!-- 100 -->
      <g style="fill: #262626" transform="translate(187.432844 336.199529)scale(0.11 -0.11)">
       <defs>
        <path id="DejaVuSans-31" d="M 794 531 
L 1825 531 
L 1825 4091 
L 703 3866 
L 703 4441 
L 1819 4666 
L 2450 4666 
L 2450 531 
L 3481 531 
L 3481 0 
L 794 0 
L 794 531 
z
" transform="scale(0.015625)"/>
       </defs>
       <use xlink:href="#DejaVuSans-31"/>
       <use xlink:href="#DejaVuSans-30" x="63.623047"/>
       <use xlink:href="#DejaVuSans-30" x="127.246094"/>
      </g>
     </g>
    </g>
    <g id="xtick_4">
     <g id="line2d_4">
      <path d="M 263.697668 318.341247 
L 263.697668 22.318125 
" clip-path="url(#pf1337223ad)" style="fill: none; stroke: #ffffff; stroke-linecap: round"/>
     </g>
     <g id="text_4">
      <!-- 150 -->
      <g style="fill: #262626" transform="translate(253.199543 336.199529)scale(0.11 -0.11)">
       <use xlink:href="#DejaVuSans-31"/>
       <use xlink:href="#DejaVuSans-35" x="63.623047"/>
       <use xlink:href="#DejaVuSans-30" x="127.246094"/>
      </g>
     </g>
    </g>
    <g id="xtick_5">
     <g id="line2d_5">
      <path d="M 329.464366 318.341247 
L 329.464366 22.318125 
" clip-path="url(#pf1337223ad)" style="fill: none; stroke: #ffffff; stroke-linecap: round"/>
     </g>
     <g id="text_5">
      <!-- 200 -->
      <g style="fill: #262626" transform="translate(318.966241 336.199529)scale(0.11 -0.11)">
       <defs>
        <path id="DejaVuSans-32" d="M 1228 531 
L 3431 531 
L 3431 0 
L 469 0 
L 469 531 
Q 828 903 1448 1529 
Q 2069 2156 2228 2338 
Q 2531 2678 2651 2914 
Q 2772 3150 2772 3378 
Q 2772 3750 2511 3984 
Q 2250 4219 1831 4219 
Q 1534 4219 1204 4116 
Q 875 4013 500 3803 
L 500 4441 
Q 881 4594 1212 4672 
Q 1544 4750 1819 4750 
Q 2544 4750 2975 4387 
Q 3406 4025 3406 3419 
Q 3406 3131 3298 2873 
Q 3191 2616 2906 2266 
Q 2828 2175 2409 1742 
Q 1991 1309 1228 531 
z
" transform="scale(0.015625)"/>
       </defs>
       <use xlink:href="#DejaVuSans-32"/>
       <use xlink:href="#DejaVuSans-30" x="63.623047"/>
       <use xlink:href="#DejaVuSans-30" x="127.246094"/>
      </g>
     </g>
    </g>
    <g id="text_6">
     <!-- Generation -->
     <g style="fill: #262626" transform="translate(163.80174 351.60531)scale(0.12 -0.12)">
      <defs>
       <path id="DejaVuSans-47" d="M 3809 666 
L 3809 1919 
L 2778 1919 
L 2778 2438 
L 4434 2438 
L 4434 434 
Q 4069 175 3628 42 
Q 3188 -91 2688 -91 
Q 1594 -91 976 548 
Q 359 1188 359 2328 
Q 359 3472 976 4111 
Q 1594 4750 2688 4750 
Q 3144 4750 3555 4637 
Q 3966 4525 4313 4306 
L 4313 3634 
Q 3963 3931 3569 4081 
Q 3175 4231 2741 4231 
Q 1884 4231 1454 3753 
Q 1025 3275 1025 2328 
Q 1025 1384 1454 906 
Q 1884 428 2741 428 
Q 3075 428 3337 486 
Q 3600 544 3809 666 
z
" transform="scale(0.015625)"/>
       <path id="DejaVuSans-65" d="M 3597 1894 
L 3597 1613 
L 953 1613 
Q 991 1019 1311 708 
Q 1631 397 2203 397 
Q 2534 397 2845 478 
Q 3156 559 3463 722 
L 3463 178 
Q 3153 47 2828 -22 
Q 2503 -91 2169 -91 
Q 1331 -91 842 396 
Q 353 884 353 1716 
Q 353 2575 817 3079 
Q 1281 3584 2069 3584 
Q 2775 3584 3186 3129 
Q 3597 2675 3597 1894 
z
M 3022 2063 
Q 3016 2534 2758 2815 
Q 2500 3097 2075 3097 
Q 1594 3097 1305 2825 
Q 1016 2553 972 2059 
L 3022 2063 
z
" transform="scale(0.015625)"/>
       <path id="DejaVuSans-6e" d="M 3513 2113 
L 3513 0 
L 2938 0 
L 2938 2094 
Q 2938 2591 2744 2837 
Q 2550 3084 2163 3084 
Q 1697 3084 1428 2787 
Q 1159 2491 1159 1978 
L 1159 0 
L 581 0 
L 581 3500 
L 1159 3500 
L 1159 2956 
Q 1366 3272 1645 3428 
Q 1925 3584 2291 3584 
Q 2894 3584 3203 3211 
Q 3513 2838 3513 2113 
z
" transform="scale(0.015625)"/>
       <path id="DejaVuSans-72" d="M 2631 2963 
Q 2534 3019 2420 3045 
Q 2306 3072 2169 3072 
Q 1681 3072 1420 2755 
Q 1159 2438 1159 1844 
L 1159 0 
L 581 0 
L 581 3500 
L 1159 3500 
L 1159 2956 
Q 1341 3275 1631 3429 
Q 1922 3584 2338 3584 
Q 2397 3584 2469 3576 
Q 2541 3569 2628 3553 
L 2631 2963 
z
" transform="scale(0.015625)"/>
       <path id="DejaVuSans-61" d="M 2194 1759 
Q 1497 1759 1228 1600 
Q 959 1441 959 1056 
Q 959 750 1161 570 
Q 1363 391 1709 391 
Q 2188 391 2477 730 
Q 2766 1069 2766 1631 
L 2766 1759 
L 2194 1759 
z
M 3341 1997 
L 3341 0 
L 2766 0 
L 2766 531 
Q 2569 213 2275 61 
Q 1981 -91 1556 -91 
Q 1019 -91 701 211 
Q 384 513 384 1019 
Q 384 1609 779 1909 
Q 1175 2209 1959 2209 
L 2766 2209 
L 2766 2266 
Q 2766 2663 2505 2880 
Q 2244 3097 1772 3097 
Q 1472 3097 1187 3025 
Q 903 2953 641 2809 
L 641 3341 
Q 956 3463 1253 3523 
Q 1550 3584 1831 3584 
Q 2591 3584 2966 3190 
Q 3341 2797 3341 1997 
z
" transform="scale(0.015625)"/>
       <path id="DejaVuSans-74" d="M 1172 4494 
L 1172 3500 
L 2356 3500 
L 2356 3053 
L 1172 3053 
L 1172 1153 
Q 1172 725 1289 603 
Q 1406 481 1766 481 
L 2356 481 
L 2356 0 
L 1766 0 
Q 1100 0 847 248 
Q 594 497 594 1153 
L 594 3053 
L 172 3053 
L 172 3500 
L 594 3500 
L 594 4494 
L 1172 4494 
z
" transform="scale(0.015625)"/>
       <path id="DejaVuSans-69" d="M 603 3500 
L 1178 3500 
L 1178 0 
L 603 0 
L 603 3500 
z
M 603 4863 
L 1178 4863 
L 1178 4134 
L 603 4134 
L 603 4863 
z
" transform="scale(0.015625)"/>
       <path id="DejaVuSans-6f" d="M 1959 3097 
Q 1497 3097 1228 2736 
Q 959 2375 959 1747 
Q 959 1119 1226 758 
Q 1494 397 1959 397 
Q 2419 397 2687 759 
Q 2956 1122 2956 1747 
Q 2956 2369 2687 2733 
Q 2419 3097 1959 3097 
z
M 1959 3584 
Q 2709 3584 3137 3096 
Q 3566 2609 3566 1747 
Q 3566 888 3137 398 
Q 2709 -91 1959 -91 
Q 1206 -91 779 398 
Q 353 888 353 1747 
Q 353 2609 779 3096 
Q 1206 3584 1959 3584 
z
" transform="scale(0.015625)"/>
      </defs>
      <use xlink:href="#DejaVuSans-47"/>
      <use xlink:href="#DejaVuSans-65" x="77.490234"/>
      <use xlink:href="#DejaVuSans-6e" x="139.013672"/>
      <use xlink:href="#DejaVuSans-65" x="202.392578"/>
      <use xlink:href="#DejaVuSans-72" x="263.916016"/>
      <use xlink:href="#DejaVuSans-61" x="305.029297"/>
      <use xlink:href="#DejaVuSans-74" x="366.308594"/>
      <use xlink:href="#DejaVuSans-69" x="405.517578"/>
      <use xlink:href="#DejaVuSans-6f" x="433.300781"/>
      <use xlink:href="#DejaVuSans-6e" x="494.482422"/>
     </g>
    </g>
   </g>
   <g id="matplotlib.axis_2">
    <g id="ytick_1">
     <g id="line2d_6">
      <path d="M 53.31 309.785439 
L 341.236605 309.785439 
" clip-path="url(#pf1337223ad)" style="fill: none; stroke: #ffffff; stroke-linecap: round"/>
     </g>
     <g id="text_7">
      <!-- 0 -->
      <g style="fill: #262626" transform="translate(36.81125 313.96458)scale(0.11 -0.11)">
       <use xlink:href="#DejaVuSans-30"/>
      </g>
     </g>
    </g>
    <g id="ytick_2">
     <g id="line2d_7">
      <path d="M 53.31 252.966006 
L 341.236605 252.966006 
" clip-path="url(#pf1337223ad)" style="fill: none; stroke: #ffffff; stroke-linecap: round"/>
     </g>
     <g id="text_8">
      <!-- 50 -->
      <g style="fill: #262626" transform="translate(29.8125 257.145146)scale(0.11 -0.11)">
       <use xlink:href="#DejaVuSans-35"/>
       <use xlink:href="#DejaVuSans-30" x="63.623047"/>
      </g>
     </g>
    </g>
    <g id="ytick_3">
     <g id="line2d_8">
      <path d="M 53.31 196.146572 
L 341.236605 196.146572 
" clip-path="url(#pf1337223ad)" style="fill: none; stroke: #ffffff; stroke-linecap: round"/>
     </g>
     <g id="text_9">
      <!-- 100 -->
      <g style="fill: #262626" transform="translate(22.81375 200.325713)scale(0.11 -0.11)">
       <use xlink:href="#DejaVuSans-31"/>
       <use xlink:href="#DejaVuSans-30" x="63.623047"/>
       <use xlink:href="#DejaVuSans-30" x="127.246094"/>
      </g>
     </g>
    </g>
    <g id="ytick_4">
     <g id="line2d_9">
      <path d="M 53.31 139.327139 
L 341.236605 139.327139 
" clip-path="url(#pf1337223ad)" style="fill: none; stroke: #ffffff; stroke-linecap: round"/>
     </g>
     <g id="text_10">
      <!-- 150 -->
      <g style="fill: #262626" transform="translate(22.81375 143.50628)scale(0.11 -0.11)">
       <use xlink:href="#DejaVuSans-31"/>
       <use xlink:href="#DejaVuSans-35" x="63.623047"/>
       <use xlink:href="#DejaVuSans-30" x="127.246094"/>
      </g>
     </g>
    </g>
    <g id="ytick_5">
     <g id="line2d_10">
      <path d="M 53.31 82.507705 
L 341.236605 82.507705 
" clip-path="url(#pf1337223ad)" style="fill: none; stroke: #ffffff; stroke-linecap: round"/>
     </g>
     <g id="text_11">
      <!-- 200 -->
      <g style="fill: #262626" transform="translate(22.81375 86.686846)scale(0.11 -0.11)">
       <use xlink:href="#DejaVuSans-32"/>
       <use xlink:href="#DejaVuSans-30" x="63.623047"/>
       <use xlink:href="#DejaVuSans-30" x="127.246094"/>
      </g>
     </g>
    </g>
    <g id="ytick_6">
     <g id="line2d_11">
      <path d="M 53.31 25.688272 
L 341.236605 25.688272 
" clip-path="url(#pf1337223ad)" style="fill: none; stroke: #ffffff; stroke-linecap: round"/>
     </g>
     <g id="text_12">
      <!-- 250 -->
      <g style="fill: #262626" transform="translate(22.81375 29.867413)scale(0.11 -0.11)">
       <use xlink:href="#DejaVuSans-32"/>
       <use xlink:href="#DejaVuSans-35" x="63.623047"/>
       <use xlink:href="#DejaVuSans-30" x="127.246094"/>
      </g>
     </g>
    </g>
    <g id="text_13">
     <!-- Fitness -->
     <g style="fill: #262626" transform="translate(16.318125 191.110311)rotate(-90)scale(0.12 -0.12)">
      <defs>
       <path id="DejaVuSans-46" d="M 628 4666 
L 3309 4666 
L 3309 4134 
L 1259 4134 
L 1259 2759 
L 3109 2759 
L 3109 2228 
L 1259 2228 
L 1259 0 
L 628 0 
L 628 4666 
z
" transform="scale(0.015625)"/>
       <path id="DejaVuSans-73" d="M 2834 3397 
L 2834 2853 
Q 2591 2978 2328 3040 
Q 2066 3103 1784 3103 
Q 1356 3103 1142 2972 
Q 928 2841 928 2578 
Q 928 2378 1081 2264 
Q 1234 2150 1697 2047 
L 1894 2003 
Q 2506 1872 2764 1633 
Q 3022 1394 3022 966 
Q 3022 478 2636 193 
Q 2250 -91 1575 -91 
Q 1294 -91 989 -36 
Q 684 19 347 128 
L 347 722 
Q 666 556 975 473 
Q 1284 391 1588 391 
Q 1994 391 2212 530 
Q 2431 669 2431 922 
Q 2431 1156 2273 1281 
Q 2116 1406 1581 1522 
L 1381 1569 
Q 847 1681 609 1914 
Q 372 2147 372 2553 
Q 372 3047 722 3315 
Q 1072 3584 1716 3584 
Q 2034 3584 2315 3537 
Q 2597 3491 2834 3397 
z
" transform="scale(0.015625)"/>
      </defs>
      <use xlink:href="#DejaVuSans-46"/>
      <use xlink:href="#DejaVuSans-69" x="50.269531"/>
      <use xlink:href="#DejaVuSans-74" x="78.052734"/>
      <use xlink:href="#DejaVuSans-6e" x="117.261719"/>
      <use xlink:href="#DejaVuSans-65" x="180.640625"/>
      <use xlink:href="#DejaVuSans-73" x="242.164062"/>
      <use xlink:href="#DejaVuSans-73" x="294.263672"/>
     </g>
    </g>
   </g>
   <g id="PolyCollection_1">
    <defs>
     <path id="me3dc0fcbbe" d="M 66.397573 -67.036079 
L 66.397573 -56.415284 
L 67.712907 -74.207757 
L 69.028241 -75.876828 
L 70.343575 -81.13085 
L 71.658909 -84.432591 
L 72.974243 -85.074474 
L 74.289577 -86.742657 
L 75.604911 -82.943745 
L 76.920245 -85.251146 
L 78.235579 -80.598168 
L 79.550913 -84.256806 
L 80.866247 -80.634567 
L 82.181581 -87.523924 
L 83.496915 -83.617588 
L 84.812248 -83.084906 
L 86.127582 -84.184894 
L 87.442916 -86.421272 
L 88.75825 -85.890365 
L 90.073584 -86.245487 
L 91.388918 -85.783829 
L 92.704252 -87.63046 
L 94.019586 -87.452899 
L 95.33492 -87.204314 
L 96.650254 -92.070366 
L 97.965588 -89.189443 
L 99.280922 -85.640892 
L 100.596256 -86.67252 
L 101.91159 -86.423935 
L 103.226924 -84.432591 
L 104.542258 -83.404515 
L 105.857592 -88.125855 
L 107.172926 -85.783829 
L 108.48826 -85.464219 
L 109.803594 -83.437364 
L 111.118928 -84.043733 
L 112.434262 -88.12763 
L 113.749596 -89.584516 
L 115.06493 -85.891253 
L 116.380264 -86.423935 
L 117.695598 -85.535244 
L 119.010932 -83.829773 
L 120.326266 -84.68384 
L 121.641599 -81.912117 
L 122.956933 -84.861401 
L 124.272267 -81.486859 
L 125.587601 -91.076026 
L 126.902935 -87.098666 
L 128.218269 -84.966161 
L 129.533603 -84.397967 
L 130.848937 -85.500619 
L 132.164271 -85.038074 
L 133.479605 -89.442467 
L 134.794939 -86.779057 
L 136.110273 -83.404515 
L 137.425607 -84.434367 
L 138.740941 -87.737884 
L 140.056275 -85.533468 
L 141.371609 -87.276227 
L 142.686943 -85.961389 
L 144.002277 -85.465107 
L 145.317611 -87.631348 
L 146.632945 -86.033301 
L 147.948279 -83.404515 
L 149.263613 -90.575305 
L 150.578947 -80.777504 
L 151.894281 -86.38576 
L 153.209615 -88.269679 
L 154.524949 -86.989466 
L 155.840283 -85.251146 
L 157.155617 -82.836321 
L 158.470951 -86.423935 
L 159.786284 -83.6531 
L 161.101618 -84.362455 
L 162.416952 -105.916552 
L 163.732286 -117.849521 
L 165.04762 -169.344796 
L 166.362954 -185.145037 
L 167.678288 -188.8747 
L 168.993622 -199.349896 
L 170.308956 -216.176438 
L 171.62429 -241.166335 
L 172.939624 -290.689798 
L 174.254958 -262.131818 
L 175.570292 -285.25644 
L 176.885626 -280.888446 
L 178.20096 -295.330348 
L 179.516294 -313.06245 
L 180.831628 -313.06245 
L 182.146962 -286.641414 
L 183.462296 -303.900317 
L 184.77763 -293.424234 
L 186.092964 -287.24512 
L 187.408298 -324.248776 
L 188.723632 -299.958468 
L 190.038966 -302.621879 
L 191.3543 -290.867359 
L 192.669634 -300.917296 
L 193.984968 -270.541982 
L 195.300302 -278.045699 
L 196.615636 -289.2338 
L 197.930969 -249.864148 
L 199.246303 -271.546976 
L 200.561637 -264.085874 
L 201.876971 -286.108731 
L 203.192305 -270.412363 
L 204.507639 -282.445654 
L 205.822973 -291.364529 
L 207.138307 -283.622881 
L 208.453641 -275.764043 
L 209.768975 -308.374847 
L 211.084309 -278.21882 
L 212.399643 -301.663051 
L 213.714977 -294.168213 
L 215.030311 -324.248776 
L 216.345645 -304.006853 
L 217.660979 -305.072217 
L 218.976313 -324.248776 
L 220.291647 -281.634201 
L 221.606981 -268.388171 
L 222.922315 -291.648626 
L 224.237649 -286.178868 
L 225.552983 -288.452533 
L 226.868317 -304.006853 
L 228.183651 -262.59614 
L 229.498985 -289.837507 
L 230.814319 -316.578153 
L 232.129653 -324.248776 
L 233.444987 -318.282736 
L 234.760321 -298.745729 
L 236.075654 -324.248776 
L 237.390988 -281.944045 
L 238.706322 -291.962909 
L 240.021656 -306.031045 
L 241.33699 -292.607454 
L 242.652324 -261.212942 
L 243.967658 -272.816535 
L 245.282992 -239.728981 
L 246.598326 -276.019731 
L 247.91366 -272.43478 
L 249.228994 -324.248776 
L 250.544328 -287.813315 
L 251.859662 -303.79378 
L 253.174996 -281.634201 
L 254.49033 -297.259545 
L 255.805664 -305.498363 
L 257.120998 -276.661613 
L 258.436332 -324.248776 
L 259.751666 -268.34822 
L 261.067 -286.605902 
L 262.382334 -283.869691 
L 263.697668 -291.364529 
L 265.013002 -291.364529 
L 266.328336 -272.401043 
L 267.64367 -288.701118 
L 268.959004 -282.710219 
L 270.274338 -302.195734 
L 271.589672 -299.745396 
L 272.905006 -283.338784 
L 274.220339 -289.944043 
L 275.535673 -259.03871 
L 276.851007 -300.704223 
L 278.166341 -282.628541 
L 279.481675 -281.057129 
L 280.797009 -257.019845 
L 282.112343 -292.962576 
L 283.427677 -324.248776 
L 284.743011 -288.985215 
L 286.058345 -286.321804 
L 287.373679 -253.180982 
L 288.689013 -286.676926 
L 290.004347 -324.248776 
L 291.319681 -282.009742 
L 292.635015 -265.936057 
L 293.950349 -266.790124 
L 295.265683 -282.894882 
L 296.581017 -279.894106 
L 297.896351 -313.38206 
L 299.211685 -284.368636 
L 300.527019 -270.057242 
L 301.842353 -288.0619 
L 303.157687 -289.162776 
L 304.473021 -274.050582 
L 305.788355 -255.774256 
L 307.103689 -324.248776 
L 308.419023 -274.026612 
L 309.734357 -286.605902 
L 311.04969 -315.725861 
L 312.365024 -298.680031 
L 313.680358 -299.31925 
L 314.995692 -298.680031 
L 316.311026 -286.74795 
L 317.62636 -248.49693 
L 318.941694 -299.31925 
L 320.257028 -294.880232 
L 321.572362 -291.648626 
L 322.887696 -288.955918 
L 324.20303 -273.592476 
L 325.518364 -286.605902 
L 326.833698 -286.179756 
L 328.149032 -250.795454 
L 328.149032 -315.725861 
L 328.149032 -315.725861 
L 326.833698 -324.248776 
L 325.518364 -324.248776 
L 324.20303 -318.247224 
L 322.887696 -324.248776 
L 321.572362 -324.248776 
L 320.257028 -324.248776 
L 318.941694 -324.248776 
L 317.62636 -309.58226 
L 316.311026 -324.248776 
L 314.995692 -324.248776 
L 313.680358 -324.248776 
L 312.365024 -324.248776 
L 311.04969 -324.248776 
L 309.734357 -324.248776 
L 308.419023 -324.248776 
L 307.103689 -324.248776 
L 305.788355 -316.294056 
L 304.473021 -320.022831 
L 303.157687 -324.248776 
L 301.842353 -324.248776 
L 300.527019 -317.98177 
L 299.211685 -324.248776 
L 297.896351 -324.248776 
L 296.581017 -324.248776 
L 295.265683 -324.248776 
L 293.950349 -320.626537 
L 292.635015 -316.86225 
L 291.319681 -324.248776 
L 290.004347 -324.248776 
L 288.689013 -324.248776 
L 287.373679 -315.725861 
L 286.058345 -324.248776 
L 284.743011 -324.248776 
L 283.427677 -324.248776 
L 282.112343 -324.248776 
L 280.797009 -315.86791 
L 279.481675 -324.248776 
L 278.166341 -324.248776 
L 276.851007 -324.248776 
L 275.535673 -316.720201 
L 274.220339 -324.248776 
L 272.905006 -324.248776 
L 271.589672 -324.248776 
L 270.274338 -324.248776 
L 268.959004 -324.3198 
L 267.64367 -324.390825 
L 266.328336 -324.248776 
L 265.013002 -324.248776 
L 263.697668 -324.248776 
L 262.382334 -324.248776 
L 261.067 -324.248776 
L 259.751666 -324.248776 
L 258.436332 -324.248776 
L 257.120998 -324.248776 
L 255.805664 -324.248776 
L 254.49033 -324.248776 
L 253.174996 -324.248776 
L 251.859662 -324.248776 
L 250.544328 -324.248776 
L 249.228994 -324.887995 
L 247.91366 -318.714208 
L 246.598326 -320.200392 
L 245.282992 -310.151342 
L 243.967658 -324.674922 
L 242.652324 -317.998639 
L 241.33699 -325.101068 
L 240.021656 -325.527213 
L 238.706322 -324.887995 
L 237.390988 -324.248776 
L 236.075654 -324.887995 
L 234.760321 -324.674922 
L 233.444987 -324.248776 
L 232.129653 -324.248776 
L 230.814319 -324.248776 
L 229.498985 -324.248776 
L 228.183651 -316.933274 
L 226.868317 -324.248776 
L 225.552983 -324.248776 
L 224.237649 -324.248776 
L 222.922315 -324.248776 
L 221.606981 -324.248776 
L 220.291647 -324.248776 
L 218.976313 -324.248776 
L 217.660979 -324.248776 
L 216.345645 -324.248776 
L 215.030311 -324.248776 
L 213.714977 -324.248776 
L 212.399643 -324.248776 
L 211.084309 -323.82263 
L 209.768975 -324.248776 
L 208.453641 -324.248776 
L 207.138307 -324.248776 
L 205.822973 -324.248776 
L 204.507639 -324.248776 
L 203.192305 -324.248776 
L 201.876971 -324.248776 
L 200.561637 -317.714541 
L 199.246303 -318.35376 
L 197.930969 -309.972894 
L 196.615636 -324.248776 
L 195.300302 -318.35376 
L 193.984968 -317.68258 
L 192.669634 -324.248776 
L 191.3543 -324.248776 
L 190.038966 -324.248776 
L 188.723632 -324.248776 
L 187.408298 -324.248776 
L 186.092964 -324.248776 
L 184.77763 -324.248776 
L 183.462296 -324.248776 
L 182.146962 -324.248776 
L 180.831628 -324.248776 
L 179.516294 -324.248776 
L 178.20096 -324.248776 
L 176.885626 -324.248776 
L 175.570292 -324.248776 
L 174.254958 -317.181859 
L 172.939624 -320.520001 
L 171.62429 -298.434997 
L 170.308956 -276.701564 
L 168.993622 -259.333461 
L 167.678288 -240.227927 
L 166.362954 -227.447105 
L 165.04762 -206.246354 
L 163.732286 -164.555983 
L 162.416952 -150.169125 
L 161.101618 -111.713022 
L 159.786284 -101.731446 
L 158.470951 -96.084127 
L 157.155617 -93.703925 
L 155.840283 -98.394192 
L 154.524949 -98.677401 
L 153.209615 -98.250367 
L 151.894281 -96.512048 
L 150.578947 -93.669301 
L 149.263613 -104.961275 
L 147.948279 -94.804802 
L 146.632945 -98.321392 
L 145.317611 -98.640113 
L 144.002277 -97.504612 
L 142.686943 -96.085014 
L 141.371609 -95.764517 
L 140.056275 -99.456893 
L 138.740941 -97.29154 
L 137.425607 -93.207643 
L 136.110273 -94.06171 
L 134.794939 -97.184115 
L 133.479605 -101.907231 
L 132.164271 -100.453896 
L 130.848937 -95.657981 
L 129.533603 -96.686945 
L 128.218269 -95.127074 
L 126.902935 -97.716797 
L 125.587601 -103.82755 
L 124.272267 -91.360123 
L 122.956933 -94.414168 
L 121.641599 -92.144054 
L 120.326266 -97.539237 
L 119.010932 -96.374438 
L 117.695598 -97.753197 
L 116.380264 -98.072807 
L 115.06493 -97.547227 
L 113.749596 -101.695046 
L 112.434262 -97.469988 
L 111.118928 -92.95817 
L 109.803594 -93.101106 
L 108.48826 -96.686945 
L 107.172926 -96.226175 
L 105.857592 -97.75231 
L 104.542258 -92.425488 
L 103.226924 -94.273007 
L 101.91159 -96.584848 
L 100.596256 -97.363452 
L 99.280922 -95.372996 
L 97.965588 -101.553885 
L 96.650254 -103.543453 
L 95.33492 -99.812014 
L 94.019586 -96.758857 
L 92.704252 -96.513824 
L 91.388918 -97.968046 
L 90.073584 -99.139947 
L 88.75825 -95.129738 
L 87.442916 -98.854074 
L 86.127582 -94.772841 
L 84.812248 -94.807465 
L 83.496915 -97.540125 
L 82.181581 -98.926874 
L 80.866247 -92.461888 
L 79.550913 -95.592283 
L 78.235579 -96.048614 
L 76.920245 -96.261687 
L 75.604911 -93.135731 
L 74.289577 -98.747538 
L 72.974243 -93.52814 
L 71.658909 -98.394192 
L 70.343575 -94.771065 
L 69.028241 -92.5338 
L 67.712907 -85.465107 
L 66.397573 -67.036079 
z
" style="stroke: #edd1cb; stroke-opacity: 0.2"/>
    </defs>
    <g clip-path="url(#pf1337223ad)">
     <use xlink:href="#me3dc0fcbbe" x="0" y="361.300935" style="fill: #edd1cb; fill-opacity: 0.2; stroke: #edd1cb; stroke-opacity: 0.2"/>
    </g>
   </g>
   <g id="PolyCollection_2">
    <defs>
     <path id="m52963a0e65" d="M 66.397573 -72.149828 
L 66.397573 -59.503065 
L 67.712907 -79.036521 
L 69.028241 -83.19233 
L 70.343575 -86.742657 
L 71.658909 -86.920217 
L 72.974243 -84.860513 
L 74.289577 -84.326943 
L 75.604911 -87.878157 
L 76.920245 -84.790376 
L 78.235579 -84.256806 
L 79.550913 -80.562655 
L 80.866247 -91.855518 
L 82.181581 -85.323059 
L 83.496915 -88.732225 
L 84.812248 -83.261578 
L 86.127582 -83.331715 
L 87.442916 -83.049393 
L 88.75825 -87.879045 
L 90.073584 -89.157482 
L 91.388918 -87.417387 
L 92.704252 -88.12763 
L 94.019586 -89.584516 
L 95.33492 -90.862066 
L 96.650254 -84.860513 
L 97.965588 -88.5884 
L 99.280922 -86.423935 
L 100.596256 -87.808909 
L 101.91159 -86.137174 
L 103.226924 -88.908897 
L 104.542258 -81.239162 
L 105.857592 -87.485748 
L 107.172926 -84.184006 
L 108.48826 -83.045842 
L 109.803594 -90.755529 
L 111.118928 -91.785381 
L 112.434262 -88.056606 
L 113.749596 -84.363343 
L 115.06493 -88.731337 
L 116.380264 -83.511051 
L 117.695598 -89.229395 
L 119.010932 -85.251146 
L 120.326266 -81.947629 
L 121.641599 -87.166139 
L 122.956933 -87.95007 
L 124.272267 -85.250259 
L 125.587601 -91.253587 
L 126.902935 -85.428707 
L 128.218269 -95.301972 
L 129.533603 -86.708032 
L 130.848937 -83.333491 
L 132.164271 -78.964609 
L 133.479605 -83.295315 
L 134.794939 -88.270567 
L 136.110273 -81.022538 
L 137.425607 -89.618253 
L 138.740941 -84.435255 
L 140.056275 -82.624135 
L 141.371609 -81.699932 
L 142.686943 -84.221294 
L 144.002277 -86.67252 
L 145.317611 -84.151158 
L 146.632945 -89.867725 
L 147.948279 -85.394083 
L 149.263613 -81.736332 
L 150.578947 -88.553776 
L 151.894281 -87.839094 
L 153.209615 -89.833101 
L 154.524949 -86.493184 
L 155.840283 -84.860513 
L 157.155617 -85.464219 
L 158.470951 -86.884705 
L 159.786284 -90.898465 
L 161.101618 -91.286436 
L 162.416952 -89.512604 
L 163.732286 -85.530805 
L 165.04762 -83.369003 
L 166.362954 -88.517376 
L 167.678288 -87.309963 
L 168.993622 -81.66442 
L 170.308956 -84.149382 
L 171.62429 -85.677292 
L 172.939624 -82.799033 
L 174.254958 -86.600608 
L 175.570292 -89.620028 
L 176.885626 -85.141059 
L 178.20096 -86.63612 
L 179.516294 -84.965274 
L 180.831628 -90.183784 
L 182.146962 -91.075138 
L 183.462296 -82.37555 
L 184.77763 -84.18667 
L 186.092964 -86.740881 
L 187.408298 -88.409952 
L 188.723632 -82.374663 
L 190.038966 -88.728673 
L 191.3543 -88.552888 
L 192.669634 -87.66686 
L 193.984968 -86.849193 
L 195.300302 -87.984694 
L 196.615636 -86.59972 
L 197.930969 -84.148494 
L 199.246303 -84.15027 
L 200.561637 -88.590176 
L 201.876971 -86.775505 
L 203.192305 -90.362232 
L 204.507639 -86.033301 
L 205.822973 -85.925877 
L 207.138307 -86.885593 
L 208.453641 -89.761189 
L 209.768975 -87.841757 
L 211.084309 -91.14705 
L 212.399643 -89.725677 
L 213.714977 -83.900797 
L 215.030311 -85.536131 
L 216.345645 -87.311739 
L 217.660979 -87.702372 
L 218.976313 -87.874606 
L 220.291647 -86.244599 
L 221.606981 -84.151158 
L 222.922315 -84.821449 
L 224.237649 -85.707478 
L 225.552983 -89.264019 
L 226.868317 -83.511939 
L 228.183651 -90.542456 
L 229.498985 -90.611705 
L 230.814319 -85.853965 
L 232.129653 -89.93875 
L 233.444987 -87.489299 
L 234.760321 -81.556995 
L 236.075654 -89.867725 
L 237.390988 -86.45412 
L 238.706322 -88.98081 
L 240.021656 -84.648328 
L 241.33699 -89.335931 
L 242.652324 -86.703593 
L 243.967658 -86.423935 
L 245.282992 -87.879045 
L 246.598326 -87.452899 
L 247.91366 -85.996902 
L 249.228994 -86.352023 
L 250.544328 -82.552223 
L 251.859662 -85.07181 
L 253.174996 -83.511939 
L 254.49033 -86.352023 
L 255.805664 -89.015434 
L 257.120998 -86.63612 
L 258.436332 -81.84198 
L 259.751666 -86.991242 
L 261.067 -89.97515 
L 262.382334 -89.050946 
L 263.697668 -88.163142 
L 265.013002 -86.104326 
L 266.328336 -86.459447 
L 267.64367 -88.660312 
L 268.959004 -90.11631 
L 270.274338 -85.607156 
L 271.589672 -89.832213 
L 272.905006 -84.612816 
L 274.220339 -90.043511 
L 275.535673 -87.986469 
L 276.851007 -83.226954 
L 278.166341 -85.498844 
L 279.481675 -88.302528 
L 280.797009 -87.95007 
L 282.112343 -83.685061 
L 283.427677 -86.850081 
L 284.743011 -88.801473 
L 286.058345 -88.056606 
L 287.373679 -86.06615 
L 288.689013 -89.724789 
L 290.004347 -83.6531 
L 291.319681 -88.6248 
L 292.635015 -84.221294 
L 293.950349 -86.316511 
L 295.265683 -88.270567 
L 296.581017 -86.174462 
L 297.896351 -90.720905 
L 299.211685 -85.109098 
L 300.527019 -89.300419 
L 301.842353 -84.896913 
L 303.157687 -82.979257 
L 304.473021 -88.235055 
L 305.788355 -89.725677 
L 307.103689 -91.287323 
L 308.419023 -91.785381 
L 309.734357 -89.300419 
L 311.04969 -84.184006 
L 312.365024 -88.092118 
L 313.680358 -91.749869 
L 314.995692 -83.724124 
L 316.311026 -86.88293 
L 317.62636 -83.725012 
L 318.941694 -87.808021 
L 320.257028 -77.508611 
L 321.572362 -83.04673 
L 322.887696 -90.434144 
L 324.20303 -89.654653 
L 325.518364 -88.802361 
L 326.833698 -84.216855 
L 328.149032 -84.718464 
L 328.149032 -94.770177 
L 328.149032 -94.770177 
L 326.833698 -95.020538 
L 325.518364 -102.654761 
L 324.20303 -102.192216 
L 322.887696 -101.801582 
L 321.572362 -94.950401 
L 320.257028 -87.596724 
L 318.941694 -98.533577 
L 317.62636 -93.881486 
L 316.311026 -97.363452 
L 314.995692 -95.374771 
L 313.680358 -104.216408 
L 312.365024 -103.046283 
L 311.04969 -96.760633 
L 309.734357 -101.552997 
L 308.419023 -102.298752 
L 307.103689 -101.376324 
L 305.788355 -103.826662 
L 304.473021 -101.908118 
L 303.157687 -94.416831 
L 301.842353 -92.675848 
L 300.527019 -96.828994 
L 299.211685 -94.911338 
L 297.896351 -100.984803 
L 296.581017 -102.373328 
L 295.265683 -100.131623 
L 293.950349 -96.014878 
L 292.635015 -97.541012 
L 291.319681 -102.369776 
L 290.004347 -92.532024 
L 288.689013 -97.612924 
L 287.373679 -97.042067 
L 286.058345 -99.208308 
L 284.743011 -99.85019 
L 283.427677 -96.189775 
L 282.112343 -93.278667 
L 280.797009 -100.344696 
L 279.481675 -99.669965 
L 278.166341 -96.012214 
L 276.851007 -93.244043 
L 275.535673 -98.144719 
L 274.220339 -103.150156 
L 272.905006 -98.391528 
L 271.589672 -99.77739 
L 270.274338 -98.538016 
L 268.959004 -103.931423 
L 267.64367 -100.454784 
L 266.328336 -95.980254 
L 265.013002 -98.641001 
L 263.697668 -100.205311 
L 262.382334 -98.46344 
L 261.067 -99.210083 
L 259.751666 -98.49984 
L 258.436332 -91.928318 
L 257.120998 -96.688721 
L 255.805664 -99.848414 
L 254.49033 -97.5055 
L 253.174996 -92.498288 
L 251.859662 -97.539237 
L 250.544328 -93.847749 
L 249.228994 -95.126186 
L 247.91366 -94.94685 
L 246.598326 -98.747538 
L 245.282992 -100.522257 
L 243.967658 -99.528805 
L 242.652324 -97.645773 
L 241.33699 -97.895246 
L 240.021656 -93.704813 
L 238.706322 -100.453008 
L 237.390988 -98.541567 
L 236.075654 -97.220515 
L 234.760321 -90.580632 
L 233.444987 -100.846305 
L 232.129653 -100.344696 
L 230.814319 -98.073695 
L 229.498985 -105.247148 
L 228.183651 -100.132511 
L 226.868317 -99.101771 
L 225.552983 -100.593281 
L 224.237649 -97.575637 
L 222.922315 -95.766293 
L 221.606981 -96.833433 
L 220.291647 -96.441911 
L 218.976313 -98.78305 
L 217.660979 -97.967158 
L 216.345645 -99.101771 
L 215.030311 -95.017874 
L 213.714977 -95.871054 
L 212.399643 -101.658646 
L 211.084309 -105.214299 
L 209.768975 -103.29398 
L 208.453641 -102.617474 
L 207.138307 -101.732333 
L 205.822973 -98.356904 
L 204.507639 -98.071919 
L 203.192305 -105.139724 
L 201.876971 -96.332712 
L 200.561637 -101.233388 
L 199.246303 -92.284327 
L 197.930969 -95.657981 
L 196.615636 -100.806354 
L 195.300302 -104.393081 
L 193.984968 -98.392416 
L 192.669634 -98.854962 
L 191.3543 -96.296312 
L 190.038966 -99.208308 
L 188.723632 -91.857293 
L 187.408298 -99.067147 
L 186.092964 -98.857625 
L 184.77763 -95.237162 
L 183.462296 -89.939638 
L 182.146962 -102.653874 
L 180.831628 -102.265903 
L 179.516294 -95.62602 
L 178.20096 -97.787822 
L 176.885626 -96.976369 
L 175.570292 -103.543453 
L 174.254958 -97.007442 
L 172.939624 -93.243155 
L 171.62429 -97.294203 
L 170.308956 -98.394192 
L 168.993622 -92.532024 
L 167.678288 -100.593281 
L 166.362954 -99.42138 
L 165.04762 -94.98325 
L 163.732286 -97.503725 
L 162.416952 -100.345584 
L 161.101618 -104.148047 
L 159.786284 -98.498065 
L 158.470951 -100.026863 
L 157.155617 -95.515932 
L 155.840283 -96.581297 
L 154.524949 -96.616809 
L 153.209615 -96.545784 
L 151.894281 -98.252143 
L 150.578947 -96.865394 
L 149.263613 -90.117198 
L 147.948279 -95.836429 
L 146.632945 -100.877378 
L 145.317611 -96.687833 
L 144.002277 -101.552109 
L 142.686943 -94.912226 
L 141.371609 -94.024422 
L 140.056275 -93.064706 
L 138.740941 -93.846861 
L 137.425607 -98.214855 
L 136.110273 -91.681508 
L 134.794939 -98.216631 
L 133.479605 -96.012214 
L 132.164271 -88.377991 
L 130.848937 -93.597389 
L 129.533603 -97.435364 
L 128.218269 -105.56587 
L 126.902935 -96.084127 
L 125.587601 -104.466769 
L 124.272267 -99.247371 
L 122.956933 -100.843642 
L 121.641599 -100.240823 
L 120.326266 -91.752533 
L 119.010932 -96.900018 
L 117.695598 -99.990463 
L 116.380264 -95.05605 
L 115.06493 -102.764849 
L 113.749596 -93.845974 
L 112.434262 -97.860622 
L 111.118928 -105.920991 
L 109.803594 -100.380208 
L 108.48826 -92.888033 
L 107.172926 -92.960833 
L 105.857592 -97.433588 
L 104.542258 -92.071254 
L 103.226924 -98.853186 
L 101.91159 -98.24948 
L 100.596256 -101.445573 
L 99.280922 -98.320504 
L 97.965588 -99.53058 
L 96.650254 -95.624244 
L 95.33492 -106.2042 
L 94.019586 -102.300528 
L 92.704252 -99.990463 
L 91.388918 -95.871054 
L 90.073584 -99.847526 
L 88.75825 -99.174571 
L 87.442916 -93.064706 
L 86.127582 -97.503725 
L 84.812248 -94.201983 
L 83.496915 -99.989575 
L 82.181581 -95.766293 
L 80.866247 -103.151931 
L 79.550913 -89.762077 
L 78.235579 -93.242267 
L 76.920245 -97.078467 
L 75.604911 -100.168911 
L 74.289577 -98.74665 
L 72.974243 -95.978478 
L 71.658909 -97.149491 
L 70.343575 -99.885702 
L 69.028241 -95.161699 
L 67.712907 -92.996345 
L 66.397573 -72.149828 
z
" style="stroke: #d499a7; stroke-opacity: 0.2"/>
    </defs>
    <g clip-path="url(#pf1337223ad)">
     <use xlink:href="#m52963a0e65" x="0" y="361.300935" style="fill: #d499a7; fill-opacity: 0.2; stroke: #d499a7; stroke-opacity: 0.2"/>
    </g>
   </g>
   <g id="PolyCollection_3">
    <defs>
     <path id="m63de9add48" d="M 66.397573 -72.574198 
L 66.397573 -60.213308 
L 67.712907 -79.428042 
L 69.028241 -83.297978 
L 70.343575 -86.10255 
L 71.658909 -83.189666 
L 72.974243 -81.13085 
L 74.289577 -84.15027 
L 75.604911 -82.195326 
L 76.920245 -78.005781 
L 78.235579 -77.330162 
L 79.550913 -80.35047 
L 80.866247 -84.576416 
L 82.181581 -85.926765 
L 83.496915 -89.726565 
L 84.812248 -89.438916 
L 86.127582 -82.188224 
L 87.442916 -86.989466 
L 88.75825 -88.6612 
L 90.073584 -87.134178 
L 91.388918 -89.831325 
L 92.704252 -88.021094 
L 94.019586 -84.825001 
L 95.33492 -86.743544 
L 96.650254 -86.032414 
L 97.965588 -85.464219 
L 99.280922 -84.079246 
L 100.596256 -86.104326 
L 101.91159 -92.316288 
L 103.226924 -83.902573 
L 104.542258 -86.315623 
L 105.857592 -89.04917 
L 107.172926 -85.429595 
L 108.48826 -85.819341 
L 109.803594 -89.549004 
L 111.118928 -88.198655 
L 112.434262 -86.067926 
L 113.749596 -87.950957 
L 115.06493 -82.694272 
L 116.380264 -87.523036 
L 117.695598 -87.168802 
L 119.010932 -86.920217 
L 120.326266 -87.772509 
L 121.641599 -86.458559 
L 122.956933 -84.504504 
L 124.272267 -83.900797 
L 125.587601 -89.723013 
L 126.902935 -84.363343 
L 128.218269 -84.043733 
L 129.533603 -83.759636 
L 130.848937 -88.16403 
L 132.164271 -87.702372 
L 133.479605 -84.292319 
L 134.794939 -85.429595 
L 136.110273 -84.753976 
L 137.425607 -84.932425 
L 138.740941 -85.428707 
L 140.056275 -88.16403 
L 141.371609 -87.736997 
L 142.686943 -84.503616 
L 144.002277 -85.18101 
L 145.317611 -86.352911 
L 146.632945 -90.256583 
L 147.948279 -81.310186 
L 149.263613 -88.553776 
L 150.578947 -87.879045 
L 151.894281 -85.392307 
L 153.209615 -90.330271 
L 154.524949 -87.700597 
L 155.840283 -90.29032 
L 157.155617 -85.463332 
L 158.470951 -89.548116 
L 159.786284 -87.594948 
L 161.101618 -88.873385 
L 162.416952 -83.617588 
L 163.732286 -92.175127 
L 165.04762 -89.370555 
L 166.362954 -84.717576 
L 167.678288 -87.736109 
L 168.993622 -81.947629 
L 170.308956 -86.423935 
L 171.62429 -89.868613 
L 172.939624 -86.811017 
L 174.254958 -84.789489 
L 175.570292 -84.361567 
L 176.885626 -84.470767 
L 178.20096 -83.405403 
L 179.516294 -85.465107 
L 180.831628 -81.202762 
L 182.146962 -88.197767 
L 183.462296 -88.98081 
L 184.77763 -87.381875 
L 186.092964 -85.038074 
L 187.408298 -85.464219 
L 188.723632 -85.784716 
L 190.038966 -88.163142 
L 191.3543 -86.91933 
L 192.669634 -86.813681 
L 193.984968 -86.17535 
L 195.300302 -87.346363 
L 196.615636 -82.33915 
L 197.930969 -86.210862 
L 199.246303 -80.562655 
L 200.561637 -85.109986 
L 201.876971 -82.907345 
L 203.192305 -82.617921 
L 204.507639 -85.002561 
L 205.822973 -80.953289 
L 207.138307 -85.216522 
L 208.453641 -85.782941 
L 209.768975 -85.464219 
L 211.084309 -91.217187 
L 212.399643 -97.254252 
L 213.714977 -91.994903 
L 215.030311 -92.955507 
L 216.345645 -102.439025 
L 217.660979 -101.188998 
L 218.976313 -115.75608 
L 220.291647 -118.097218 
L 221.606981 -113.975146 
L 222.922315 -116.466323 
L 224.237649 -120.654093 
L 225.552983 -122.677397 
L 226.868317 -129.380315 
L 228.183651 -123.000558 
L 229.498985 -124.137834 
L 230.814319 -132.199091 
L 232.129653 -125.734993 
L 233.444987 -112.450787 
L 234.760321 -124.525804 
L 236.075654 -116.571084 
L 237.390988 -115.171905 
L 238.706322 -122.609924 
L 240.021656 -127.618024 
L 241.33699 -119.302855 
L 242.652324 -126.515372 
L 243.967658 -126.368885 
L 245.282992 -127.191879 
L 246.598326 -126.265012 
L 247.91366 -122.325827 
L 249.228994 -126.870494 
L 250.544328 -122.573524 
L 251.859662 -128.610589 
L 253.174996 -132.232828 
L 254.49033 -120.904453 
L 255.805664 -135.285097 
L 257.120998 -140.508933 
L 258.436332 -130.35246 
L 259.751666 -135.679281 
L 261.067 -139.583842 
L 262.382334 -129.322607 
L 263.697668 -127.262015 
L 265.013002 -126.054602 
L 266.328336 -130.920654 
L 267.64367 -117.639111 
L 268.959004 -114.047946 
L 270.274338 -125.096662 
L 271.589672 -131.772058 
L 272.905006 -121.048277 
L 274.220339 -128.754413 
L 275.535673 -129.675953 
L 276.851007 -135.388082 
L 278.166341 -127.225615 
L 279.481675 -136.349573 
L 280.797009 -131.52436 
L 282.112343 -130.956166 
L 283.427677 -127.475088 
L 284.743011 -128.433028 
L 286.058345 -129.073134 
L 287.373679 -138.62679 
L 288.689013 -132.264789 
L 290.004347 -124.350907 
L 291.319681 -132.693598 
L 292.635015 -128.575964 
L 293.950349 -131.382312 
L 295.265683 -137.808235 
L 296.581017 -142.284541 
L 297.896351 -131.202975 
L 299.211685 -126.481636 
L 300.527019 -132.160028 
L 301.842353 -140.153812 
L 303.157687 -130.274333 
L 304.473021 -133.761626 
L 305.788355 -129.921875 
L 307.103689 -133.654201 
L 308.419023 -125.587617 
L 309.734357 -134.542893 
L 311.04969 -125.235159 
L 312.365024 -130.277884 
L 313.680358 -124.170683 
L 314.995692 -131.700145 
L 316.311026 -132.124516 
L 317.62636 -136.033515 
L 318.941694 -124.100546 
L 320.257028 -130.989903 
L 321.572362 -128.576852 
L 322.887696 -133.156143 
L 324.20303 -127.934082 
L 325.518364 -119.27267 
L 326.833698 -132.482301 
L 328.149032 -122.149154 
L 328.149032 -143.884363 
L 328.149032 -143.884363 
L 326.833698 -147.263343 
L 325.518364 -140.297636 
L 324.20303 -143.63489 
L 322.887696 -145.267561 
L 321.572362 -144.663854 
L 320.257028 -145.267561 
L 318.941694 -142.391077 
L 317.62636 -146.119852 
L 316.311026 -144.913327 
L 314.995692 -145.800243 
L 313.680358 -143.031183 
L 312.365024 -146.40395 
L 311.04969 -145.338585 
L 309.734357 -148.108533 
L 308.419023 -144.917766 
L 307.103689 -147.220729 
L 305.788355 -146.617022 
L 304.473021 -148.108533 
L 303.157687 -148.108533 
L 301.842353 -147.114192 
L 300.527019 -146.723559 
L 299.211685 -145.1992 
L 297.896351 -146.617022 
L 296.581017 -147.327265 
L 295.265683 -146.688934 
L 293.950349 -146.688047 
L 292.635015 -145.906779 
L 291.319681 -147.39829 
L 290.004347 -145.161024 
L 288.689013 -148.108533 
L 287.373679 -148.108533 
L 286.058345 -145.09 
L 284.743011 -145.942292 
L 283.427677 -145.729219 
L 282.112343 -145.729219 
L 280.797009 -147.079568 
L 279.481675 -148.037508 
L 278.166341 -145.451336 
L 276.851007 -147.043168 
L 275.535673 -145.232049 
L 274.220339 -144.308733 
L 272.905006 -140.65187 
L 271.589672 -145.765619 
L 270.274338 -142.213516 
L 268.959004 -134.901565 
L 267.64367 -138.025746 
L 266.328336 -145.303073 
L 265.013002 -144.806791 
L 263.697668 -146.121628 
L 262.382334 -148.676727 
L 261.067 -147.400065 
L 259.751666 -147.611362 
L 258.436332 -146.475862 
L 257.120998 -148.250581 
L 255.805664 -147.967372 
L 254.49033 -142.426589 
L 253.174996 -146.475862 
L 251.859662 -144.203084 
L 250.544328 -140.943957 
L 249.228994 -144.096548 
L 247.91366 -142.676062 
L 246.598326 -143.492841 
L 245.282992 -145.161912 
L 243.967658 -144.561757 
L 242.652324 -145.268449 
L 241.33699 -141.077128 
L 240.021656 -144.16846 
L 238.706322 -142.925535 
L 237.390988 -138.737765 
L 236.075654 -138.239707 
L 234.760321 -142.037731 
L 233.444987 -136.96127 
L 232.129653 -143.814226 
L 230.814319 -147.788923 
L 229.498985 -140.616358 
L 228.183651 -141.154367 
L 226.868317 -146.332925 
L 225.552983 -141.538786 
L 224.237649 -140.473421 
L 222.922315 -137.099767 
L 221.606981 -134.296971 
L 220.291647 -133.836201 
L 218.976313 -132.416603 
L 217.660979 -123.645103 
L 216.345645 -123.536791 
L 215.030311 -112.386865 
L 213.714977 -108.975036 
L 212.399643 -114.944627 
L 211.084309 -106.670297 
L 209.768975 -97.823334 
L 208.453641 -98.35868 
L 207.138307 -95.302859 
L 205.822973 -91.326387 
L 204.507639 -97.645773 
L 203.192305 -93.424267 
L 201.876971 -93.03097 
L 200.561637 -95.836429 
L 199.246303 -90.544232 
L 197.930969 -98.00267 
L 196.615636 -92.603936 
L 195.300302 -98.889586 
L 193.984968 -98.74665 
L 192.669634 -99.105322 
L 191.3543 -99.568756 
L 190.038966 -99.353907 
L 188.723632 -97.895246 
L 187.408298 -97.184115 
L 186.092964 -95.444908 
L 184.77763 -97.219627 
L 183.462296 -99.31662 
L 182.146962 -101.163251 
L 180.831628 -92.00023 
L 179.516294 -96.651433 
L 178.20096 -92.568424 
L 176.885626 -95.127962 
L 175.570292 -96.651433 
L 174.254958 -94.062598 
L 172.939624 -99.707253 
L 171.62429 -98.252143 
L 170.308956 -96.724233 
L 168.993622 -92.248815 
L 167.678288 -97.113979 
L 166.362954 -97.469988 
L 165.04762 -101.483748 
L 163.732286 -106.312512 
L 162.416952 -92.745097 
L 161.101618 -101.83887 
L 159.786284 -103.688165 
L 158.470951 -102.440801 
L 157.155617 -97.327939 
L 155.840283 -100.167136 
L 154.524949 -98.250367 
L 153.209615 -102.37244 
L 151.894281 -97.042954 
L 150.578947 -99.919438 
L 149.263613 -99.883038 
L 147.948279 -92.922658 
L 146.632945 -99.137283 
L 145.317611 -97.575637 
L 144.002277 -98.284992 
L 142.686943 -95.339259 
L 141.371609 -100.595057 
L 140.056275 -99.352132 
L 138.740941 -98.108319 
L 137.425607 -95.161699 
L 136.110273 -96.58396 
L 134.794939 -97.858846 
L 133.479605 -95.693493 
L 132.164271 -98.641889 
L 130.848937 -99.249147 
L 129.533603 -93.633788 
L 128.218269 -95.479532 
L 126.902935 -95.694381 
L 125.587601 -99.883926 
L 124.272267 -93.883261 
L 122.956933 -98.143831 
L 121.641599 -96.43836 
L 120.326266 -101.126851 
L 119.010932 -97.930758 
L 117.695598 -99.918551 
L 116.380264 -96.154263 
L 115.06493 -92.711361 
L 113.749596 -96.724233 
L 112.434262 -94.98325 
L 111.118928 -99.144386 
L 109.803594 -103.150156 
L 108.48826 -95.125299 
L 107.172926 -96.830769 
L 105.857592 -102.975258 
L 104.542258 -96.545784 
L 103.226924 -96.155151 
L 101.91159 -103.825774 
L 100.596256 -96.261687 
L 99.280922 -97.824222 
L 97.965588 -96.297199 
L 96.650254 -93.845974 
L 95.33492 -103.11997 
L 94.019586 -94.379544 
L 92.704252 -99.849302 
L 91.388918 -103.471541 
L 90.073584 -99.598941 
L 88.75825 -100.202648 
L 87.442916 -100.948403 
L 86.127582 -96.048614 
L 84.812248 -100.131623 
L 83.496915 -101.161476 
L 82.181581 -98.072807 
L 80.866247 -99.319283 
L 79.550913 -91.46666 
L 78.235579 -90.96949 
L 76.920245 -90.082574 
L 75.604911 -95.445796 
L 74.289577 -93.849525 
L 72.974243 -92.105878 
L 71.658909 -94.702704 
L 70.343575 -98.182007 
L 69.028241 -96.866282 
L 67.712907 -92.889809 
L 66.397573 -72.574198 
z
" style="stroke: #a9678f; stroke-opacity: 0.2"/>
    </defs>
    <g clip-path="url(#pf1337223ad)">
     <use xlink:href="#m63de9add48" x="0" y="361.300935" style="fill: #a9678f; fill-opacity: 0.2; stroke: #a9678f; stroke-opacity: 0.2"/>
    </g>
   </g>
   <g id="PolyCollection_4">
    <defs>
     <path id="m1d42016a7f" d="M 66.397573 -66.998791 
L 66.397573 -56.628357 
L 67.712907 -79.925212 
L 69.028241 -80.67008 
L 70.343575 -85.250259 
L 71.658909 -80.883153 
L 72.974243 -85.393195 
L 74.289577 -85.427819 
L 75.604911 -86.952178 
L 76.920245 -87.4165 
L 78.235579 -91.358348 
L 79.550913 -86.814569 
L 80.866247 -85.428707 
L 82.181581 -89.725677 
L 83.496915 -85.782941 
L 84.812248 -84.469879 
L 86.127582 -85.819341 
L 87.442916 -85.03541 
L 88.75825 -84.861401 
L 90.073584 -87.061378 
L 91.388918 -91.713469 
L 92.704252 -87.522148 
L 94.019586 -81.628908 
L 95.33492 -80.670967 
L 96.650254 -85.855741 
L 97.965588 -93.490852 
L 99.280922 -86.920217 
L 100.596256 -86.174462 
L 101.91159 -87.842645 
L 103.226924 -82.765296 
L 104.542258 -83.510163 
L 105.857592 -86.387535 
L 107.172926 -84.009109 
L 108.48826 -88.765073 
L 109.803594 -86.492296 
L 111.118928 -91.038738 
L 112.434262 -92.460112 
L 113.749596 -91.322836 
L 115.06493 -84.009109 
L 116.380264 -91.074251 
L 117.695598 -85.854853 
L 119.010932 -91.324611 
L 120.326266 -83.830661 
L 121.641599 -84.540016 
L 122.956933 -84.504504 
L 124.272267 -87.593172 
L 125.587601 -90.78749 
L 126.902935 -90.045286 
L 128.218269 -85.393195 
L 129.533603 -87.131515 
L 130.848937 -85.891253 
L 132.164271 -85.677292 
L 133.479605 -87.134178 
L 134.794939 -84.221294 
L 136.110273 -83.936309 
L 137.425607 -84.682064 
L 138.740941 -82.055941 
L 140.056275 -88.057494 
L 141.371609 -88.16403 
L 142.686943 -87.3437 
L 144.002277 -87.345475 
L 145.317611 -86.492296 
L 146.632945 -90.080798 
L 147.948279 -86.704481 
L 149.263613 -92.603048 
L 150.578947 -86.634345 
L 151.894281 -85.782941 
L 153.209615 -85.925877 
L 154.524949 -86.921105 
L 155.840283 -84.788601 
L 157.155617 -85.890365 
L 158.470951 -85.926765 
L 159.786284 -88.623913 
L 161.101618 -90.258359 
L 162.416952 -88.305191 
L 163.732286 -87.199875 
L 165.04762 -87.274451 
L 166.362954 -87.16969 
L 167.678288 -85.676404 
L 168.993622 -90.47232 
L 170.308956 -86.63612 
L 171.62429 -83.084906 
L 172.939624 -86.277447 
L 174.254958 -82.337375 
L 175.570292 -87.13329 
L 176.885626 -90.898465 
L 178.20096 -86.246374 
L 179.516294 -84.717576 
L 180.831628 -89.120195 
L 182.146962 -87.167915 
L 183.462296 -93.383428 
L 184.77763 -86.103438 
L 186.092964 -86.779057 
L 187.408298 -86.637008 
L 188.723632 -86.10255 
L 190.038966 -93.312404 
L 191.3543 -87.062266 
L 192.669634 -88.232391 
L 193.984968 -89.264907 
L 195.300302 -86.845642 
L 196.615636 -90.327608 
L 197.930969 -88.836098 
L 199.246303 -89.087346 
L 200.561637 -85.500619 
L 201.876971 -88.12763 
L 203.192305 -89.335931 
L 204.507639 -86.63612 
L 205.822973 -89.192995 
L 207.138307 -83.405403 
L 208.453641 -83.6531 
L 209.768975 -90.47232 
L 211.084309 -80.848528 
L 212.399643 -85.038074 
L 213.714977 -90.506944 
L 215.030311 -88.306079 
L 216.345645 -88.44724 
L 217.660979 -84.293206 
L 218.976313 -88.482752 
L 220.291647 -86.032414 
L 221.606981 -90.401295 
L 222.922315 -87.453787 
L 224.237649 -88.802361 
L 225.552983 -88.694049 
L 226.868317 -90.648105 
L 228.183651 -87.736109 
L 229.498985 -85.996902 
L 230.814319 -87.488412 
L 232.129653 -82.760857 
L 233.444987 -85.14461 
L 234.760321 -82.266351 
L 236.075654 -82.517599 
L 237.390988 -86.777281 
L 238.706322 -89.44158 
L 240.021656 -81.735444 
L 241.33699 -85.109098 
L 242.652324 -88.41084 
L 243.967658 -89.44158 
L 245.282992 -87.204314 
L 246.598326 -85.037186 
L 247.91366 -89.300419 
L 249.228994 -89.264019 
L 250.544328 -90.791929 
L 251.859662 -86.565096 
L 253.174996 -84.364231 
L 254.49033 -81.84198 
L 255.805664 -88.446352 
L 257.120998 -87.236275 
L 258.436332 -88.021982 
L 259.751666 -91.182563 
L 261.067 -89.477092 
L 262.382334 -86.814569 
L 263.697668 -81.486859 
L 265.013002 -84.114758 
L 266.328336 -90.364008 
L 267.64367 -86.423935 
L 268.959004 -85.428707 
L 270.274338 -89.403404 
L 271.589672 -89.192995 
L 272.905006 -86.314735 
L 274.220339 -87.485748 
L 275.535673 -86.209974 
L 276.851007 -88.87161 
L 278.166341 -89.899686 
L 279.481675 -87.09689 
L 280.797009 -88.198655 
L 282.112343 -89.620028 
L 283.427677 -85.037186 
L 284.743011 -83.653988 
L 286.058345 -90.400408 
L 287.373679 -92.033966 
L 288.689013 -90.470544 
L 290.004347 -85.960502 
L 291.319681 -83.368115 
L 292.635015 -86.707144 
L 293.950349 -91.998454 
L 295.265683 -85.781165 
L 296.581017 -85.428707 
L 297.896351 -89.904125 
L 299.211685 -90.117198 
L 300.527019 -89.154819 
L 301.842353 -87.4165 
L 303.157687 -87.062266 
L 304.473021 -86.209974 
L 305.788355 -87.876382 
L 307.103689 -91.750757 
L 308.419023 -81.984917 
L 309.734357 -91.571421 
L 311.04969 -77.40385 
L 312.365024 -89.762077 
L 313.680358 -85.890365 
L 314.995692 -85.180122 
L 316.311026 -89.086458 
L 317.62636 -87.773397 
L 318.941694 -84.576416 
L 320.257028 -86.955729 
L 321.572362 -88.376215 
L 322.887696 -84.790376 
L 324.20303 -89.228507 
L 325.518364 -86.742657 
L 326.833698 -89.370555 
L 328.149032 -86.068814 
L 328.149032 -98.394192 
L 328.149032 -98.394192 
L 326.833698 -102.582849 
L 325.518364 -100.23816 
L 324.20303 -102.901571 
L 322.887696 -95.621581 
L 321.572362 -99.709917 
L 320.257028 -98.356904 
L 318.941694 -96.05039 
L 317.62636 -100.381096 
L 316.311026 -98.747538 
L 314.995692 -93.988022 
L 313.680358 -96.013102 
L 312.365024 -101.303524 
L 311.04969 -85.288434 
L 309.734357 -103.364116 
L 308.419023 -92.039293 
L 307.103689 -106.382649 
L 305.788355 -97.789597 
L 304.473021 -97.435364 
L 303.157687 -97.894358 
L 301.842353 -100.275448 
L 300.527019 -100.202648 
L 299.211685 -101.697709 
L 297.896351 -101.162363 
L 296.581017 -94.98325 
L 295.265683 -96.831657 
L 293.950349 -104.287432 
L 292.635015 -99.386756 
L 291.319681 -95.231835 
L 290.004347 -97.043842 
L 288.689013 -105.494845 
L 287.373679 -101.943631 
L 286.058345 -102.051943 
L 284.743011 -95.023201 
L 283.427677 -96.865394 
L 282.112343 -101.481973 
L 280.797009 -98.569089 
L 279.481675 -99.883038 
L 278.166341 -104.820114 
L 276.851007 -99.670853 
L 275.535673 -99.812902 
L 274.220339 -100.346472 
L 272.905006 -102.834098 
L 271.589672 -100.062375 
L 270.274338 -100.983915 
L 268.959004 -98.214855 
L 267.64367 -97.717685 
L 266.328336 -100.096111 
L 265.013002 -96.512048 
L 263.697668 -93.39053 
L 262.382334 -98.570865 
L 261.067 -104.183559 
L 259.751666 -102.29964 
L 258.436332 -99.848414 
L 257.120998 -98.145607 
L 255.805664 -98.250367 
L 254.49033 -91.964718 
L 253.174996 -94.840314 
L 251.859662 -98.324055 
L 250.544328 -101.80247 
L 249.228994 -98.356016 
L 247.91366 -103.471541 
L 246.598326 -96.617697 
L 245.282992 -99.635341 
L 243.967658 -99.067147 
L 242.652324 -100.949291 
L 241.33699 -97.256915 
L 240.021656 -93.242267 
L 238.706322 -100.416608 
L 237.390988 -97.400739 
L 236.075654 -93.740325 
L 234.760321 -92.923546 
L 233.444987 -94.629016 
L 232.129653 -95.373884 
L 230.814319 -99.989575 
L 229.498985 -95.835542 
L 228.183651 -101.091339 
L 226.868317 -101.587621 
L 225.552983 -104.358457 
L 224.237649 -105.211636 
L 222.922315 -96.97193 
L 221.606981 -101.126851 
L 220.291647 -95.943854 
L 218.976313 -98.037295 
L 217.660979 -93.632901 
L 216.345645 -100.73533 
L 215.030311 -98.427928 
L 213.714977 -102.121191 
L 212.399643 -96.227951 
L 211.084309 -89.443355 
L 209.768975 -101.694158 
L 208.453641 -94.627241 
L 207.138307 -96.473872 
L 205.822973 -99.245595 
L 204.507639 -96.617697 
L 203.192305 -100.56132 
L 201.876971 -98.925986 
L 200.561637 -97.965382 
L 199.246303 -98.641001 
L 197.930969 -102.049279 
L 196.615636 -102.228616 
L 195.300302 -97.007442 
L 193.984968 -99.95495 
L 192.669634 -98.995235 
L 191.3543 -97.930758 
L 190.038966 -104.571529 
L 188.723632 -95.301972 
L 187.408298 -99.31662 
L 186.092964 -95.729893 
L 184.77763 -96.261687 
L 183.462296 -102.618361 
L 182.146962 -101.304412 
L 180.831628 -98.251255 
L 179.516294 -94.699153 
L 178.20096 -99.812902 
L 176.885626 -100.809018 
L 175.570292 -96.723345 
L 174.254958 -95.160811 
L 172.939624 -98.28588 
L 171.62429 -95.48042 
L 170.308956 -97.327052 
L 168.993622 -100.984803 
L 167.678288 -98.74665 
L 166.362954 -96.653209 
L 165.04762 -96.936418 
L 163.732286 -96.475648 
L 162.416952 -103.044507 
L 161.101618 -106.2042 
L 159.786284 -98.854962 
L 158.470951 -98.534465 
L 157.155617 -98.818562 
L 155.840283 -95.090674 
L 154.524949 -99.778278 
L 153.209615 -94.023534 
L 151.894281 -98.431479 
L 150.578947 -98.288543 
L 149.263613 -103.222956 
L 147.948279 -98.253919 
L 146.632945 -100.310072 
L 145.317611 -98.675625 
L 144.002277 -99.28022 
L 142.686943 -98.533577 
L 141.371609 -97.361676 
L 140.056275 -100.062375 
L 138.740941 -94.236607 
L 137.425607 -98.073695 
L 136.110273 -94.521592 
L 134.794939 -93.775837 
L 133.479605 -96.54756 
L 132.164271 -96.085902 
L 130.848937 -99.101771 
L 129.533603 -98.42704 
L 128.218269 -97.611149 
L 126.902935 -102.014655 
L 125.587601 -103.152819 
L 124.272267 -98.320504 
L 122.956933 -96.118751 
L 121.641599 -96.651433 
L 120.326266 -95.729893 
L 119.010932 -104.322944 
L 117.695598 -96.937306 
L 116.380264 -100.489408 
L 115.06493 -97.009218 
L 113.749596 -101.658646 
L 112.434262 -104.073472 
L 111.118928 -104.289208 
L 109.803594 -96.794369 
L 108.48826 -98.712025 
L 107.172926 -97.185891 
L 105.857592 -96.331824 
L 104.542258 -92.816121 
L 103.226924 -94.664529 
L 101.91159 -98.535352 
L 100.596256 -98.818562 
L 99.280922 -98.144719 
L 97.965588 -106.914443 
L 96.650254 -95.55322 
L 95.33492 -91.645108 
L 94.019586 -90.223735 
L 92.704252 -99.74099 
L 91.388918 -102.297864 
L 90.073584 -96.686945 
L 88.75825 -96.296312 
L 87.442916 -94.450568 
L 86.127582 -97.049169 
L 84.812248 -94.344031 
L 83.496915 -95.976702 
L 82.181581 -102.830546 
L 80.866247 -97.824222 
L 79.550913 -97.00833 
L 78.235579 -102.86961 
L 76.920245 -98.81945 
L 75.604911 -101.2689 
L 74.289577 -98.03907 
L 72.974243 -96.687833 
L 71.658909 -93.385203 
L 70.343575 -96.900018 
L 69.028241 -90.935753 
L 67.712907 -92.389976 
L 66.397573 -66.998791 
z
" style="stroke: #6c3f70; stroke-opacity: 0.2"/>
    </defs>
    <g clip-path="url(#pf1337223ad)">
     <use xlink:href="#m1d42016a7f" x="0" y="361.300935" style="fill: #6c3f70; fill-opacity: 0.2; stroke: #6c3f70; stroke-opacity: 0.2"/>
    </g>
   </g>
   <g id="PolyCollection_5">
    <defs>
     <path id="m5b83212770" d="M 66.397573 -72.46855 
L 66.397573 -60.180459 
L 67.712907 -77.792708 
L 69.028241 -76.444134 
L 70.343575 -85.070035 
L 71.658909 -90.826553 
L 72.974243 -86.457672 
L 74.289577 -89.760301 
L 75.604911 -85.18101 
L 76.920245 -84.505391 
L 78.235579 -82.978369 
L 79.550913 -87.842645 
L 80.866247 -81.060713 
L 82.181581 -87.879933 
L 83.496915 -85.499731 
L 84.812248 -86.883817 
L 86.127582 -85.996902 
L 87.442916 -82.480311 
L 88.75825 -83.830661 
L 90.073584 -84.043733 
L 91.388918 -83.261578 
L 92.704252 -81.629795 
L 94.019586 -84.399743 
L 95.33492 -80.670967 
L 96.650254 -88.163142 
L 97.965588 -84.789489 
L 99.280922 -88.6248 
L 100.596256 -85.216522 
L 101.91159 -84.682064 
L 103.226924 -88.766849 
L 104.542258 -96.153375 
L 105.857592 -82.907345 
L 107.172926 -84.68384 
L 108.48826 -88.089455 
L 109.803594 -88.124079 
L 111.118928 -85.358571 
L 112.434262 -86.13895 
L 113.749596 -83.901685 
L 115.06493 -90.933978 
L 116.380264 -88.695825 
L 117.695598 -88.306079 
L 119.010932 -88.481864 
L 120.326266 -89.904125 
L 121.641599 -90.614368 
L 122.956933 -88.12763 
L 124.272267 -91.997566 
L 125.587601 -83.156818 
L 126.902935 -88.589288 
L 128.218269 -90.398632 
L 129.533603 -81.84198 
L 130.848937 -83.582076 
L 132.164271 -84.042846 
L 133.479605 -81.913893 
L 134.794939 -80.457007 
L 136.110273 -86.778169 
L 137.425607 -84.361567 
L 138.740941 -89.796701 
L 140.056275 -86.174462 
L 141.371609 -90.257471 
L 142.686943 -86.494959 
L 144.002277 -92.140503 
L 145.317611 -85.889477 
L 146.632945 -81.557883 
L 147.948279 -90.684505 
L 149.263613 -85.287546 
L 150.578947 -87.381875 
L 151.894281 -81.949405 
L 153.209615 -85.926765 
L 154.524949 -84.115646 
L 155.840283 -87.841757 
L 157.155617 -93.808686 
L 158.470951 -80.848528 
L 159.786284 -86.601496 
L 161.101618 -85.819341 
L 162.416952 -80.491631 
L 163.732286 -86.103438 
L 165.04762 -88.195103 
L 166.362954 -89.974262 
L 167.678288 -88.412615 
L 168.993622 -87.736997 
L 170.308956 -80.741104 
L 171.62429 -88.163142 
L 172.939624 -86.84653 
L 174.254958 -84.469879 
L 175.570292 -87.382763 
L 176.885626 -87.310851 
L 178.20096 -87.875494 
L 179.516294 -85.961389 
L 180.831628 -88.056606 
L 182.146962 -84.256806 
L 183.462296 -83.367227 
L 184.77763 -82.089678 
L 186.092964 -87.773397 
L 187.408298 -88.445464 
L 188.723632 -88.874273 
L 190.038966 -84.505391 
L 191.3543 -86.423935 
L 192.669634 -85.357683 
L 193.984968 -86.565984 
L 195.300302 -84.469879 
L 196.615636 -83.795148 
L 197.930969 -85.925877 
L 199.246303 -84.824113 
L 200.561637 -84.185782 
L 201.876971 -92.032191 
L 203.192305 -82.764408 
L 204.507639 -87.132402 
L 205.822973 -83.6895 
L 207.138307 -86.671632 
L 208.453641 -86.172687 
L 209.768975 -85.109986 
L 211.084309 -85.322171 
L 212.399643 -89.653765 
L 213.714977 -93.739437 
L 215.030311 -89.369668 
L 216.345645 -87.595836 
L 217.660979 -93.986247 
L 218.976313 -85.286659 
L 220.291647 -84.540904 
L 221.606981 -84.148494 
L 222.922315 -85.712804 
L 224.237649 -86.13895 
L 225.552983 -86.707144 
L 226.868317 -86.849193 
L 228.183651 -89.12197 
L 229.498985 -84.257694 
L 230.814319 -85.038074 
L 232.129653 -83.973597 
L 233.444987 -83.369003 
L 234.760321 -83.511051 
L 236.075654 -85.000786 
L 237.390988 -89.937862 
L 238.706322 -90.010662 
L 240.021656 -85.215634 
L 241.33699 -87.098666 
L 242.652324 -87.523924 
L 243.967658 -85.393195 
L 245.282992 -85.358571 
L 246.598326 -84.18667 
L 247.91366 -88.44724 
L 249.228994 -85.571644 
L 250.544328 -86.494072 
L 251.859662 -90.29032 
L 253.174996 -82.054166 
L 254.49033 -84.681177 
L 255.805664 -85.855741 
L 257.120998 -86.423047 
L 258.436332 -84.754864 
L 259.751666 -85.145498 
L 261.067 -87.488412 
L 262.382334 -88.44724 
L 263.697668 -87.204314 
L 265.013002 -83.652212 
L 266.328336 -85.67818 
L 267.64367 -81.913005 
L 268.959004 -85.357683 
L 270.274338 -83.758749 
L 271.589672 -85.070922 
L 272.905006 -88.476537 
L 274.220339 -89.972486 
L 275.535673 -88.306079 
L 276.851007 -85.461556 
L 278.166341 -87.3801 
L 279.481675 -84.576416 
L 280.797009 -87.807133 
L 282.112343 -81.912117 
L 283.427677 -86.423935 
L 284.743011 -93.099331 
L 286.058345 -86.778169 
L 287.373679 -88.341591 
L 288.689013 -91.43026 
L 290.004347 -82.766184 
L 291.319681 -86.776393 
L 292.635015 -85.569868 
L 293.950349 -88.838761 
L 295.265683 -85.926765 
L 296.581017 -87.737884 
L 297.896351 -87.701485 
L 299.211685 -80.808577 
L 300.527019 -89.191219 
L 301.842353 -83.511939 
L 303.157687 -86.529584 
L 304.473021 -85.746541 
L 305.788355 -84.398855 
L 307.103689 -82.976594 
L 308.419023 -84.505391 
L 309.734357 -85.428707 
L 311.04969 -86.316511 
L 312.365024 -87.276227 
L 313.680358 -86.812793 
L 314.995692 -85.925877 
L 316.311026 -83.582076 
L 317.62636 -81.522371 
L 318.941694 -86.314735 
L 320.257028 -87.772509 
L 321.572362 -85.996014 
L 322.887696 -85.500619 
L 324.20303 -86.918442 
L 325.518364 -87.770733 
L 326.833698 -86.671632 
L 328.149032 -87.805358 
L 328.149032 -99.884814 
L 328.149032 -99.884814 
L 326.833698 -99.741878 
L 325.518364 -99.634453 
L 324.20303 -98.391528 
L 322.887696 -97.148603 
L 321.572362 -96.119639 
L 320.257028 -100.275448 
L 318.941694 -96.864506 
L 317.62636 -91.859069 
L 316.311026 -95.729005 
L 314.995692 -98.607265 
L 313.680358 -95.871054 
L 312.365024 -97.92987 
L 311.04969 -100.878266 
L 309.734357 -94.202871 
L 308.419023 -96.189775 
L 307.103689 -95.661532 
L 305.788355 -95.587844 
L 304.473021 -96.331824 
L 303.157687 -98.251255 
L 301.842353 -92.745097 
L 300.527019 -103.436916 
L 299.211685 -90.863841 
L 297.896351 -99.741878 
L 296.581017 -96.263463 
L 295.265683 -96.369999 
L 293.950349 -103.862174 
L 292.635015 -96.509385 
L 291.319681 -100.345584 
L 290.004347 -93.953398 
L 288.689013 -102.830546 
L 287.373679 -102.29964 
L 286.058345 -97.968046 
L 284.743011 -104.28832 
L 283.427677 -97.326164 
L 282.112343 -93.526364 
L 280.797009 -102.440801 
L 279.481675 -95.340147 
L 278.166341 -97.789597 
L 276.851007 -97.366115 
L 275.535673 -97.824222 
L 274.220339 -101.019427 
L 272.905006 -98.853186 
L 271.589672 -97.930758 
L 270.274338 -96.616809 
L 268.959004 -97.078467 
L 267.64367 -92.997233 
L 266.328336 -98.324055 
L 265.013002 -93.065594 
L 263.697668 -97.897022 
L 262.382334 -98.462553 
L 261.067 -98.81945 
L 259.751666 -95.515044 
L 258.436332 -94.48608 
L 257.120998 -101.552997 
L 255.805664 -95.267347 
L 254.49033 -95.764517 
L 253.174996 -94.414168 
L 251.859662 -101.375436 
L 250.544328 -97.149491 
L 249.228994 -94.379544 
L 247.91366 -100.345584 
L 246.598326 -94.664529 
L 245.282992 -94.44968 
L 243.967658 -94.805689 
L 242.652324 -97.648437 
L 241.33699 -98.890474 
L 240.021656 -98.110982 
L 238.706322 -101.485524 
L 237.390988 -103.723677 
L 236.075654 -96.93553 
L 234.760321 -95.339259 
L 233.444987 -93.810461 
L 232.129653 -97.365227 
L 230.814319 -95.94119 
L 229.498985 -95.836429 
L 228.183651 -100.522257 
L 226.868317 -94.378656 
L 225.552983 -98.143831 
L 224.237649 -99.244708 
L 222.922315 -99.350356 
L 221.606981 -94.809241 
L 220.291647 -95.871054 
L 218.976313 -94.982362 
L 217.660979 -104.500505 
L 216.345645 -99.031635 
L 215.030311 -101.658646 
L 213.714977 -104.715354 
L 212.399643 -101.339924 
L 211.084309 -94.770177 
L 209.768975 -93.881486 
L 208.453641 -100.060599 
L 207.138307 -99.068035 
L 205.822973 -94.023534 
L 204.507639 -96.831657 
L 203.192305 -92.461888 
L 201.876971 -103.400516 
L 200.561637 -94.169134 
L 199.246303 -97.830436 
L 197.930969 -99.031635 
L 196.615636 -93.492628 
L 195.300302 -97.294203 
L 193.984968 -97.4691 
L 192.669634 -95.197211 
L 191.3543 -97.681285 
L 190.038966 -97.006555 
L 188.723632 -99.602492 
L 187.408298 -99.77739 
L 186.092964 -99.669965 
L 184.77763 -93.527252 
L 183.462296 -93.632901 
L 182.146962 -93.849525 
L 180.831628 -103.755638 
L 179.516294 -96.403736 
L 178.20096 -99.315732 
L 176.885626 -100.77173 
L 175.570292 -97.932534 
L 174.254958 -92.851633 
L 172.939624 -100.275448 
L 171.62429 -100.239048 
L 170.308956 -91.254475 
L 168.993622 -98.498952 
L 167.678288 -96.439248 
L 166.362954 -99.599829 
L 165.04762 -102.511825 
L 163.732286 -96.261687 
L 162.416952 -90.933978 
L 161.101618 -95.124411 
L 159.786284 -97.722124 
L 158.470951 -90.901129 
L 157.155617 -105.034075 
L 155.840283 -103.969599 
L 154.524949 -95.411171 
L 153.209615 -94.308519 
L 151.894281 -94.950401 
L 150.578947 -99.385868 
L 149.263613 -94.771065 
L 147.948279 -99.918551 
L 146.632945 -90.756417 
L 145.317611 -94.520704 
L 144.002277 -103.719238 
L 142.686943 -97.858846 
L 141.371609 -102.795034 
L 140.056275 -99.497732 
L 138.740941 -102.335152 
L 137.425607 -94.521592 
L 136.110273 -99.137283 
L 134.794939 -89.833101 
L 133.479605 -93.988022 
L 132.164271 -94.48608 
L 130.848937 -95.231835 
L 129.533603 -93.384316 
L 128.218269 -100.809905 
L 126.902935 -99.456893 
L 125.587601 -94.414168 
L 124.272267 -104.465881 
L 122.956933 -101.944518 
L 121.641599 -100.878266 
L 120.326266 -100.344696 
L 119.010932 -99.706365 
L 117.695598 -101.629348 
L 116.380264 -100.203535 
L 115.06493 -102.086567 
L 113.749596 -93.810461 
L 112.434262 -97.540125 
L 111.118928 -97.75231 
L 109.803594 -103.968711 
L 108.48826 -97.683061 
L 107.172926 -93.172131 
L 105.857592 -91.502172 
L 104.542258 -106.098552 
L 103.226924 -96.936418 
L 101.91159 -95.873717 
L 100.596256 -96.97193 
L 99.280922 -100.345584 
L 97.965588 -96.442799 
L 96.650254 -102.091006 
L 95.33492 -88.627464 
L 94.019586 -93.917886 
L 92.704252 -90.863841 
L 91.388918 -94.663641 
L 90.073584 -93.598276 
L 88.75825 -93.669301 
L 87.442916 -91.96383 
L 86.127582 -99.636229 
L 84.812248 -99.172795 
L 83.496915 -102.191328 
L 82.181581 -103.932311 
L 80.866247 -91.502172 
L 79.550913 -96.75797 
L 78.235579 -93.810461 
L 76.920245 -95.444908 
L 75.604911 -96.615921 
L 74.289577 -101.72967 
L 72.974243 -99.599829 
L 71.658909 -100.310072 
L 70.343575 -95.088899 
L 69.028241 -89.444243 
L 67.712907 -91.467548 
L 66.397573 -72.46855 
z
" style="stroke: #2d1e3e; stroke-opacity: 0.2"/>
    </defs>
    <g clip-path="url(#pf1337223ad)">
     <use xlink:href="#m5b83212770" x="0" y="361.300935" style="fill: #2d1e3e; fill-opacity: 0.2; stroke: #2d1e3e; stroke-opacity: 0.2"/>
    </g>
   </g>
   <g id="line2d_12">
    <path d="M 66.397573 299.913063 
L 67.712907 281.375723 
L 69.028241 277.86002 
L 70.343575 273.705099 
L 71.658909 270.011836 
L 72.974243 271.965004 
L 74.289577 268.520326 
L 75.604911 273.421002 
L 76.920245 270.935152 
L 78.235579 272.959344 
L 79.550913 271.467834 
L 80.866247 275.125585 
L 82.181581 268.520326 
L 83.496915 270.970664 
L 84.812248 272.56871 
L 86.127582 271.858467 
L 87.442916 268.839935 
L 88.75825 270.651054 
L 90.073584 269.053008 
L 91.388918 269.727739 
L 94.019586 268.981984 
L 95.33492 267.739059 
L 96.650254 263.61965 
L 97.965588 266.318573 
L 99.280922 270.970664 
L 100.596256 269.550178 
L 101.91159 269.834275 
L 103.226924 271.858467 
L 104.542258 273.314465 
L 105.857592 268.413789 
L 107.172926 270.153884 
L 108.48826 270.260421 
L 109.803594 273.207929 
L 111.118928 272.746271 
L 112.434262 268.449301 
L 113.749596 265.466281 
L 115.06493 269.58569 
L 116.380264 269.514666 
L 117.695598 270.011836 
L 119.010932 271.432322 
L 120.326266 270.331445 
L 121.641599 274.415342 
L 122.956933 271.858467 
L 124.272267 275.019048 
L 125.587601 264.010283 
L 126.902935 268.981984 
L 128.218269 271.006176 
L 129.533603 270.935152 
L 130.848937 270.686567 
L 132.164271 268.555838 
L 133.479605 265.501793 
L 134.794939 269.692227 
L 136.110273 272.639735 
L 137.425607 272.462174 
L 138.740941 269.017496 
L 140.056275 268.839935 
L 141.371609 270.153884 
L 142.686943 270.189397 
L 144.002277 269.727739 
L 145.317611 268.449301 
L 146.632945 269.337105 
L 147.948279 272.249101 
L 149.263613 263.974771 
L 150.578947 274.628415 
L 151.894281 270.047348 
L 153.209615 267.987644 
L 155.840283 269.408129 
L 157.155617 273.314465 
L 158.470951 270.011836 
L 159.786284 269.656714 
L 161.101618 264.61399 
L 162.416952 234.428666 
L 163.732286 221.360196 
L 165.04762 174.200066 
L 166.362954 154.24224 
L 167.678288 147.530445 
L 168.993622 133.680708 
L 170.308956 114.894783 
L 171.62429 91.101645 
L 172.939624 55.696035 
L 174.254958 69.758845 
L 175.570292 54.879256 
L 176.885626 56.335254 
L 178.20096 49.1618 
L 179.516294 40.780934 
L 180.831628 40.780934 
L 182.146962 52.038284 
L 183.462296 43.834979 
L 184.77763 49.197313 
L 186.092964 52.038284 
L 187.408298 37.052159 
L 188.723632 45.148928 
L 190.038966 44.261124 
L 191.3543 50.440238 
L 192.669634 44.829319 
L 193.984968 65.390851 
L 195.300302 60.561199 
L 196.615636 50.688823 
L 197.930969 78.956491 
L 199.246303 63.118074 
L 200.561637 67.02441 
L 201.876971 52.606479 
L 203.192305 59.779932 
L 204.507639 55.518475 
L 205.822973 49.232825 
L 207.138307 53.174673 
L 208.453641 60.383639 
L 209.768975 42.343468 
L 211.084309 57.968813 
L 212.399643 44.580734 
L 213.714977 48.238485 
L 215.030311 37.052159 
L 216.345645 43.799466 
L 217.660979 43.444345 
L 218.976313 37.052159 
L 220.291647 54.097989 
L 221.606981 60.916321 
L 222.922315 49.658971 
L 224.237649 52.286869 
L 225.552983 50.688823 
L 226.868317 43.799466 
L 228.183651 67.805677 
L 229.498985 50.582286 
L 230.814319 39.609033 
L 232.129653 37.052159 
L 233.444987 39.040839 
L 234.760321 46.143268 
L 236.075654 36.839086 
L 237.390988 56.832424 
L 238.706322 50.049604 
L 240.021656 42.485517 
L 241.33699 49.197313 
L 242.652324 68.267335 
L 243.967658 59.637884 
L 245.282992 83.040388 
L 246.598326 61.839637 
L 247.91366 62.301294 
L 249.228994 36.839086 
L 250.544328 51.47009 
L 251.859662 43.870491 
L 253.174996 57.862276 
L 254.49033 43.799466 
L 255.805664 43.302296 
L 257.120998 57.75574 
L 258.436332 37.052159 
L 259.751666 61.23593 
L 261.067 52.180333 
L 262.382334 55.411938 
L 263.697668 49.232825 
L 265.013002 49.232825 
L 266.328336 60.206078 
L 267.64367 51.647651 
L 268.959004 55.056817 
L 270.274338 44.403173 
L 271.589672 45.219952 
L 272.905006 53.245697 
L 274.220339 50.617798 
L 275.535673 69.616797 
L 276.851007 44.900343 
L 278.166341 53.103649 
L 279.481675 56.867936 
L 280.797009 72.244695 
L 282.112343 49.090776 
L 283.427677 37.052159 
L 284.743011 51.079456 
L 286.058345 52.038284 
L 287.373679 75.937958 
L 288.689013 51.576626 
L 290.004347 37.052159 
L 291.319681 54.914768 
L 292.635015 67.308507 
L 293.950349 64.112414 
L 295.265683 55.234377 
L 296.581017 57.081009 
L 297.896351 40.674398 
L 299.211685 55.092329 
L 300.527019 64.147926 
L 301.842353 51.114969 
L 303.157687 53.565307 
L 304.473021 62.549879 
L 305.788355 73.452108 
L 307.103689 37.052159 
L 308.419023 59.034177 
L 309.734357 51.896236 
L 311.04969 39.89313 
L 312.365024 45.575074 
L 313.680358 45.362001 
L 314.995692 45.575074 
L 316.311026 51.754187 
L 317.62636 79.489173 
L 318.941694 45.362001 
L 320.257028 48.060924 
L 321.572362 51.576626 
L 322.887696 52.855064 
L 324.20303 63.970365 
L 325.518364 52.002772 
L 326.833698 52.038284 
L 328.149032 75.369764 
L 328.149032 75.369764 
" clip-path="url(#pf1337223ad)" style="fill: none; stroke: #edd1cb; stroke-width: 1.5; stroke-linecap: round"/>
   </g>
   <g id="line2d_13">
    <path d="M 66.397573 295.758142 
L 67.712907 275.232121 
L 69.028241 272.320125 
L 70.343575 268.200716 
L 72.974243 270.89964 
L 74.289577 269.834275 
L 75.604911 267.668034 
L 76.920245 270.402469 
L 78.235579 272.56871 
L 79.550913 276.297486 
L 80.866247 263.690674 
L 82.181581 271.041688 
L 83.496915 267.09984 
L 84.812248 272.639735 
L 86.127582 271.112712 
L 87.442916 273.349978 
L 88.75825 267.952131 
L 90.073584 267.09984 
L 91.388918 269.443642 
L 94.019586 265.501793 
L 95.33492 262.767358 
L 96.650254 271.006176 
L 97.965588 267.206376 
L 99.280922 269.08852 
L 100.596256 267.064328 
L 101.91159 269.159544 
L 103.226924 267.383937 
L 104.542258 274.699439 
L 105.857592 268.981984 
L 107.172926 272.781783 
L 108.48826 273.349978 
L 109.803594 265.998963 
L 111.118928 262.341212 
L 112.434262 268.626862 
L 113.749596 272.178077 
L 115.06493 265.466281 
L 116.380264 272.39115 
L 117.695598 266.886767 
L 119.010932 270.437982 
L 120.326266 274.628415 
L 121.641599 267.703546 
L 122.956933 266.851255 
L 124.272267 269.408129 
L 125.587601 263.548625 
L 126.902935 270.437982 
L 128.218269 261.027263 
L 129.533603 269.479154 
L 130.848937 272.923832 
L 132.164271 277.824508 
L 133.479605 271.503346 
L 134.794939 268.271741 
L 136.110273 274.912512 
L 137.425607 267.454961 
L 138.740941 272.213589 
L 140.056275 273.243441 
L 141.371609 273.918172 
L 142.686943 271.787443 
L 144.002277 267.241888 
L 145.317611 270.89964 
L 146.632945 265.785891 
L 147.948279 270.935152 
L 149.263613 275.480706 
L 150.578947 268.733399 
L 151.894281 268.271741 
L 153.209615 267.987644 
L 154.524949 269.479154 
L 155.840283 270.473494 
L 157.155617 270.864127 
L 158.470951 268.058668 
L 159.786284 266.744718 
L 161.101618 264.223356 
L 162.416952 266.283061 
L 163.732286 270.047348 
L 165.04762 272.497686 
L 166.362954 267.312913 
L 167.678288 267.277401 
L 168.993622 274.486366 
L 170.308956 270.437982 
L 171.62429 270.047348 
L 172.939624 273.492026 
L 174.254958 269.621202 
L 175.570292 265.11116 
L 176.885626 270.509006 
L 178.20096 269.266081 
L 179.516294 271.112712 
L 180.831628 265.146672 
L 182.146962 264.400917 
L 183.462296 275.232121 
L 186.092964 268.555838 
L 187.408298 267.632522 
L 188.723632 274.095733 
L 190.038966 267.59701 
L 191.3543 269.053008 
L 192.669634 268.165204 
L 193.984968 268.875447 
L 195.300302 265.182184 
L 196.615636 267.810083 
L 197.930969 271.538858 
L 199.246303 273.349978 
L 200.561637 266.318573 
L 201.876971 269.905299 
L 203.192305 263.513113 
L 204.507639 269.08852 
L 205.822973 269.266081 
L 207.138307 267.490474 
L 208.453641 264.898087 
L 209.768975 266.283061 
L 211.084309 263.229016 
L 212.399643 265.821403 
L 213.714977 271.609882 
L 215.030311 271.0772 
L 216.345645 268.520326 
L 218.976313 268.449301 
L 220.291647 270.08286 
L 221.606981 271.183737 
L 222.922315 270.970664 
L 224.237649 269.656714 
L 225.552983 265.927939 
L 226.868317 270.295933 
L 228.183651 265.998963 
L 229.498985 264.081308 
L 230.814319 269.301593 
L 232.129653 266.283061 
L 233.444987 267.59701 
L 234.760321 275.303146 
L 236.075654 267.810083 
L 237.390988 269.266081 
L 238.706322 266.318573 
L 240.021656 272.07154 
L 241.33699 267.739059 
L 242.652324 268.875447 
L 243.967658 268.236229 
L 245.282992 267.454961 
L 246.598326 268.378277 
L 247.91366 270.935152 
L 249.228994 270.757591 
L 250.544328 273.243441 
L 251.859662 269.692227 
L 253.174996 273.634075 
L 254.49033 269.443642 
L 255.805664 267.135352 
L 257.120998 269.940812 
L 258.436332 274.663927 
L 259.751666 268.768911 
L 261.067 266.744718 
L 262.382334 267.348425 
L 263.697668 267.454961 
L 265.013002 269.337105 
L 266.328336 270.189397 
L 267.64367 266.815743 
L 268.959004 264.365405 
L 270.274338 269.58569 
L 271.589672 266.389597 
L 272.905006 270.189397 
L 274.220339 264.969111 
L 275.535673 268.484814 
L 276.851007 272.923832 
L 278.166341 270.722079 
L 279.481675 267.348425 
L 280.797009 267.312913 
L 282.112343 272.923832 
L 283.427677 269.869787 
L 284.743011 267.241888 
L 286.058345 267.916619 
L 287.373679 269.656714 
L 288.689013 267.668034 
L 290.004347 273.349978 
L 291.319681 265.28872 
L 292.635015 271.219249 
L 293.950349 270.011836 
L 295.265683 267.383937 
L 296.581017 267.419449 
L 297.896351 265.430769 
L 299.211685 271.112712 
L 300.527019 268.165204 
L 301.842353 272.533198 
L 303.157687 272.710759 
L 304.473021 266.638182 
L 305.788355 264.649502 
L 307.103689 265.040135 
L 308.419023 264.400917 
L 309.734357 266.247548 
L 311.04969 270.651054 
L 312.365024 266.389597 
L 313.680358 263.690674 
L 314.995692 271.965004 
L 316.311026 269.408129 
L 317.62636 272.497686 
L 318.941694 268.200716 
L 320.257028 278.747824 
L 322.887696 265.253208 
L 324.20303 265.643842 
L 325.518364 265.430769 
L 326.833698 271.858467 
L 328.149032 271.822955 
L 328.149032 271.822955 
" clip-path="url(#pf1337223ad)" style="fill: none; stroke: #d499a7; stroke-width: 1.5; stroke-linecap: round"/>
   </g>
   <g id="line2d_14">
    <path d="M 66.397573 295.40302 
L 67.712907 275.338658 
L 69.028241 271.680907 
L 70.343575 268.875447 
L 71.658909 272.426662 
L 72.974243 274.450854 
L 74.289577 272.355638 
L 75.604911 272.781783 
L 76.920245 277.717972 
L 78.235579 277.398362 
L 79.550913 275.054561 
L 80.866247 269.479154 
L 82.181581 269.443642 
L 83.496915 265.963451 
L 84.812248 266.851255 
L 86.127582 272.178077 
L 87.442916 267.739059 
L 88.75825 266.993303 
L 90.073584 268.165204 
L 91.388918 264.969111 
L 92.704252 267.490474 
L 94.019586 271.680907 
L 95.33492 266.638182 
L 96.650254 271.325785 
L 97.965588 270.153884 
L 99.280922 271.112712 
L 100.596256 270.118372 
L 101.91159 263.086967 
L 103.226924 271.183737 
L 104.542258 269.976324 
L 105.857592 265.714866 
L 107.172926 270.509006 
L 108.48826 271.112712 
L 109.803594 264.542965 
L 111.118928 268.023156 
L 112.434262 270.651054 
L 113.749596 268.946471 
L 115.06493 273.811635 
L 116.380264 269.621202 
L 117.695598 267.810083 
L 119.010932 269.017496 
L 120.326266 267.348425 
L 121.641599 270.153884 
L 122.956933 270.295933 
L 124.272267 272.497686 
L 125.587601 266.460621 
L 126.902935 271.361297 
L 128.218269 271.645395 
L 129.533603 272.426662 
L 130.848937 267.632522 
L 132.164271 268.271741 
L 133.479605 271.787443 
L 134.794939 269.621202 
L 136.110273 270.757591 
L 137.425607 271.290273 
L 138.740941 269.798763 
L 140.056275 267.454961 
L 141.371609 267.064328 
L 142.686943 271.467834 
L 144.002277 269.621202 
L 145.317611 269.230569 
L 146.632945 266.744718 
L 147.948279 274.237781 
L 149.263613 266.993303 
L 150.578947 267.668034 
L 151.894281 269.905299 
L 153.209615 264.933599 
L 154.524949 268.484814 
L 155.840283 266.354085 
L 157.155617 270.189397 
L 158.470951 265.537305 
L 159.786284 266.709206 
L 161.101618 265.785891 
L 162.416952 273.38549 
L 163.732286 262.731846 
L 165.04762 266.176524 
L 166.362954 270.722079 
L 167.678288 268.839935 
L 168.993622 274.628415 
L 170.308956 269.550178 
L 171.62429 267.09984 
L 172.939624 268.09418 
L 174.254958 271.965004 
L 175.570292 271.325785 
L 176.885626 271.680907 
L 178.20096 273.278953 
L 179.516294 270.437982 
L 180.831628 274.948024 
L 182.146962 267.241888 
L 183.462296 267.490474 
L 184.77763 268.910959 
L 186.092964 271.290273 
L 187.408298 270.260421 
L 188.723632 269.834275 
L 190.038966 267.739059 
L 192.669634 268.271741 
L 193.984968 268.626862 
L 195.300302 268.307253 
L 196.615636 273.811635 
L 197.930969 269.550178 
L 199.246303 275.942364 
L 200.561637 271.219249 
L 201.876971 273.527538 
L 203.192305 273.527538 
L 204.507639 270.331445 
L 205.822973 275.161097 
L 207.138307 271.219249 
L 208.453641 269.479154 
L 209.768975 269.763251 
L 211.084309 262.944919 
L 212.399643 255.096735 
L 213.714977 260.849702 
L 215.030311 258.470388 
L 216.345645 248.526988 
L 217.660979 248.74006 
L 218.976313 237.127589 
L 220.291647 235.067884 
L 221.606981 237.056564 
L 222.922315 234.464178 
L 224.237649 230.664378 
L 225.552983 228.782234 
L 226.868317 223.24234 
L 228.183651 228.817747 
L 229.498985 228.533649 
L 230.814319 220.543417 
L 232.129653 226.154336 
L 233.444987 236.239785 
L 234.760321 227.858919 
L 236.075654 232.972668 
L 237.390988 234.393154 
L 238.706322 227.894431 
L 240.021656 224.627313 
L 241.33699 229.812087 
L 242.652324 224.165656 
L 243.967658 224.627313 
L 245.282992 224.23668 
L 246.598326 225.905751 
L 247.91366 227.894431 
L 249.228994 225.088971 
L 250.544328 229.20838 
L 251.859662 224.662826 
L 253.174996 221.608781 
L 254.49033 228.249552 
L 255.805664 218.519224 
L 257.120998 216.317471 
L 258.436332 222.283512 
L 259.751666 218.590249 
L 261.067 217.45386 
L 262.382334 221.147123 
L 263.697668 223.73951 
L 265.013002 225.195508 
L 266.328336 222.638633 
L 267.64367 232.653058 
L 268.959004 236.062224 
L 270.274338 227.006627 
L 271.589672 221.786342 
L 272.905006 229.634526 
L 274.220339 223.91707 
L 275.535673 222.709658 
L 276.851007 219.513564 
L 278.166341 224.414241 
L 279.481675 217.915518 
L 280.797009 221.040587 
L 282.112343 222.105951 
L 283.427677 224.769362 
L 284.743011 222.851706 
L 286.058345 223.277852 
L 287.373679 216.850153 
L 288.689013 220.223807 
L 290.004347 225.657166 
L 291.319681 220.472392 
L 292.635015 223.24234 
L 293.950349 221.147123 
L 296.581017 216.175423 
L 297.896351 221.786342 
L 299.211685 224.627313 
L 300.527019 220.543417 
L 301.842353 217.169763 
L 303.157687 221.076099 
L 304.473021 219.691125 
L 305.788355 222.390048 
L 307.103689 220.401368 
L 308.419023 224.698338 
L 309.734357 218.767809 
L 311.04969 224.769362 
L 312.365024 221.644293 
L 313.680358 227.042139 
L 314.995692 221.999415 
L 316.311026 222.070439 
L 317.62636 219.797662 
L 318.941694 227.468285 
L 320.257028 222.496585 
L 321.572362 224.094631 
L 322.887696 221.360196 
L 324.20303 224.804874 
L 325.518364 230.557842 
L 326.833698 220.685465 
L 328.149032 227.823407 
L 328.149032 227.823407 
" clip-path="url(#pf1337223ad)" style="fill: none; stroke: #a9678f; stroke-width: 1.5; stroke-linecap: round"/>
   </g>
   <g id="line2d_15">
    <path d="M 66.397573 299.984087 
L 67.712907 275.125585 
L 69.028241 275.516218 
L 70.343575 270.366957 
L 71.658909 274.948024 
L 72.974243 270.402469 
L 74.289577 269.834275 
L 75.604911 267.490474 
L 76.920245 268.662374 
L 78.235579 264.329893 
L 79.550913 269.58569 
L 80.866247 269.834275 
L 82.181581 264.898087 
L 83.496915 270.615542 
L 84.812248 271.787443 
L 86.127582 270.08286 
L 87.442916 271.609882 
L 88.75825 270.828615 
L 90.073584 269.230569 
L 91.388918 264.471941 
L 92.704252 267.454961 
L 94.019586 275.445194 
L 95.33492 275.835828 
L 96.650254 270.686567 
L 97.965588 261.382384 
L 99.280922 269.053008 
L 100.596256 268.875447 
L 101.91159 268.342765 
L 103.226924 272.852808 
L 104.542258 273.136905 
L 105.857592 270.011836 
L 107.172926 270.828615 
L 108.48826 267.490474 
L 109.803594 269.905299 
L 111.118928 263.974771 
L 112.434262 263.193504 
L 113.749596 265.004623 
L 115.06493 270.686567 
L 116.380264 265.679354 
L 117.695598 269.656714 
L 119.010932 263.939259 
L 120.326266 271.57437 
L 121.641599 271.0772 
L 122.956933 271.041688 
L 124.272267 268.449301 
L 125.587601 264.29438 
L 126.902935 265.466281 
L 128.218269 269.621202 
L 129.533603 268.484814 
L 130.848937 269.58569 
L 132.164271 270.402469 
L 133.479605 269.443642 
L 134.794939 272.142565 
L 136.110273 272.249101 
L 137.425607 269.940812 
L 138.740941 273.634075 
L 140.056275 267.312913 
L 141.371609 269.017496 
L 142.686943 268.307253 
L 144.002277 267.881107 
L 145.317611 268.875447 
L 146.632945 265.501793 
L 147.948279 269.017496 
L 149.263613 263.477601 
L 150.578947 269.017496 
L 151.894281 269.266081 
L 153.209615 271.432322 
L 154.524949 267.952131 
L 155.840283 271.39681 
L 157.155617 269.301593 
L 158.470951 269.230569 
L 159.786284 267.739059 
L 161.101618 263.548625 
L 162.416952 266.069988 
L 163.732286 269.692227 
L 165.04762 269.337105 
L 166.362954 269.195057 
L 167.678288 269.195057 
L 168.993622 265.821403 
L 170.308956 269.479154 
L 171.62429 272.355638 
L 172.939624 269.159544 
L 174.254958 272.923832 
L 176.885626 265.395257 
L 178.20096 268.236229 
L 179.516294 271.39681 
L 180.831628 267.490474 
L 182.146962 267.454961 
L 183.462296 263.477601 
L 184.77763 270.189397 
L 186.092964 270.047348 
L 187.408298 268.165204 
L 188.723632 270.828615 
L 190.038966 262.163652 
L 191.3543 268.413789 
L 193.984968 266.922279 
L 195.300302 269.230569 
L 196.615636 265.217696 
L 199.246303 267.490474 
L 200.561637 269.940812 
L 201.876971 267.810083 
L 203.192305 266.176524 
L 204.507639 269.58569 
L 205.822973 267.170864 
L 207.138307 271.57437 
L 208.453641 271.89398 
L 209.768975 265.395257 
L 211.084309 276.190949 
L 213.714977 265.28872 
L 215.030311 268.129692 
L 216.345645 266.851255 
L 217.660979 272.497686 
L 218.976313 268.058668 
L 220.291647 270.473494 
L 221.606981 265.998963 
L 222.922315 268.981984 
L 224.237649 265.28872 
L 225.552983 265.253208 
L 226.868317 265.359745 
L 228.183651 266.815743 
L 229.498985 270.402469 
L 230.814319 267.774571 
L 232.129653 272.107052 
L 233.444987 271.503346 
L 234.760321 273.421002 
L 236.075654 273.278953 
L 237.390988 269.301593 
L 238.706322 266.318573 
L 240.021656 274.37983 
L 242.652324 266.815743 
L 243.967658 267.09984 
L 245.282992 268.023156 
L 246.598326 270.509006 
L 247.91366 265.28872 
L 249.228994 267.419449 
L 250.544328 265.004623 
L 251.859662 269.053008 
L 254.49033 274.663927 
L 255.805664 268.129692 
L 257.120998 268.733399 
L 258.436332 267.952131 
L 259.751666 264.61399 
L 261.067 264.649502 
L 262.382334 268.910959 
L 263.697668 273.776123 
L 265.013002 270.793103 
L 266.328336 266.176524 
L 267.64367 269.159544 
L 268.959004 269.58569 
L 270.274338 266.460621 
L 271.589672 266.673694 
L 272.905006 267.703546 
L 274.220339 267.845595 
L 275.535673 268.839935 
L 276.851007 267.09984 
L 278.166341 264.223356 
L 279.481675 268.09418 
L 280.797009 267.916619 
L 282.112343 265.927939 
L 283.427677 270.224909 
L 284.743011 272.142565 
L 286.058345 265.040135 
L 287.373679 264.329893 
L 288.689013 263.193504 
L 290.004347 269.763251 
L 291.319681 272.036028 
L 292.635015 268.342765 
L 293.950349 263.513113 
L 295.265683 269.727739 
L 296.581017 271.006176 
L 297.896351 265.785891 
L 299.211685 265.182184 
L 300.527019 266.709206 
L 301.842353 267.09984 
L 303.157687 268.981984 
L 304.473021 269.408129 
L 305.788355 268.484814 
L 307.103689 262.554285 
L 308.419023 274.273293 
L 309.734357 263.939259 
L 311.04969 279.777676 
L 312.365024 266.176524 
L 313.680358 270.224909 
L 314.995692 271.787443 
L 316.311026 267.348425 
L 317.62636 267.419449 
L 318.941694 271.0772 
L 321.572362 266.993303 
L 322.887696 271.467834 
L 324.20303 265.466281 
L 325.518364 267.881107 
L 326.833698 265.714866 
L 328.149032 268.910959 
L 328.149032 268.910959 
" clip-path="url(#pf1337223ad)" style="fill: none; stroke: #6c3f70; stroke-width: 1.5; stroke-linecap: round"/>
   </g>
   <g id="line2d_16">
    <path d="M 66.397573 295.260972 
L 67.712907 276.581583 
L 69.028241 278.676799 
L 70.343575 271.645395 
L 71.658909 265.785891 
L 72.974243 268.271741 
L 74.289577 265.679354 
L 75.604911 270.544518 
L 76.920245 271.503346 
L 78.235579 273.06588 
L 79.550913 269.159544 
L 80.866247 275.480706 
L 82.181581 265.963451 
L 83.496915 267.845595 
L 86.127582 268.981984 
L 87.442916 274.095733 
L 88.75825 272.604223 
L 90.073584 272.604223 
L 91.388918 272.249101 
L 92.704252 275.019048 
L 94.019586 272.142565 
L 95.33492 276.617095 
L 96.650254 266.425109 
L 97.965588 270.793103 
L 99.280922 266.993303 
L 100.596256 270.509006 
L 101.91159 271.39681 
L 103.226924 268.733399 
L 104.542258 260.245996 
L 105.857592 274.344318 
L 107.172926 272.533198 
L 108.48826 268.165204 
L 109.803594 265.359745 
L 111.118928 269.692227 
L 112.434262 269.976324 
L 113.749596 272.284613 
L 115.06493 264.720526 
L 116.380264 266.780231 
L 117.695598 266.60267 
L 119.010932 267.668034 
L 121.641599 265.466281 
L 122.956933 266.318573 
L 124.272267 263.193504 
L 125.587601 272.852808 
L 126.902935 267.525986 
L 128.218269 265.679354 
L 129.533603 273.847148 
L 130.848937 271.89398 
L 132.164271 272.07154 
L 133.479605 273.527538 
L 134.794939 276.190949 
L 136.110273 268.449301 
L 137.425607 271.716419 
L 138.740941 265.572818 
L 140.056275 268.804423 
L 141.371609 264.933599 
L 142.686943 269.266081 
L 144.002277 263.371065 
L 145.317611 271.0772 
L 146.632945 275.196609 
L 147.948279 266.496133 
L 149.263613 271.006176 
L 150.578947 268.023156 
L 151.894281 272.923832 
L 153.209615 271.254761 
L 154.524949 271.432322 
L 155.840283 265.927939 
L 157.155617 262.128139 
L 158.470951 275.303146 
L 159.786284 269.08852 
L 161.101618 271.0772 
L 162.416952 275.125585 
L 165.04762 265.856915 
L 166.362954 266.460621 
L 167.678288 268.804423 
L 168.993622 268.733399 
L 170.308956 275.338658 
L 171.62429 267.312913 
L 172.939624 267.952131 
L 174.254958 272.675247 
L 175.570292 268.768911 
L 176.885626 267.277401 
L 178.20096 267.739059 
L 179.516294 270.295933 
L 180.831628 265.466281 
L 182.146962 272.462174 
L 183.462296 273.030368 
L 184.77763 273.314465 
L 186.092964 267.703546 
L 187.408298 267.525986 
L 188.723632 266.957791 
L 190.038966 270.651054 
L 191.3543 269.514666 
L 192.669634 271.148225 
L 193.984968 269.58569 
L 195.300302 270.260421 
L 196.615636 272.675247 
L 197.930969 268.946471 
L 199.246303 270.366957 
L 200.561637 272.036028 
L 201.876971 263.79721 
L 203.192305 273.918172 
L 204.507639 269.550178 
L 205.822973 272.497686 
L 207.138307 268.413789 
L 208.453641 268.520326 
L 209.768975 271.822955 
L 211.084309 271.432322 
L 212.399643 266.283061 
L 213.714977 261.879554 
L 215.030311 266.1055 
L 216.345645 268.236229 
L 217.660979 262.483261 
L 218.976313 271.432322 
L 220.291647 271.183737 
L 221.606981 271.680907 
L 222.922315 269.017496 
L 224.237649 268.662374 
L 225.552983 269.017496 
L 226.868317 270.58003 
L 228.183651 266.567158 
L 229.498985 271.57437 
L 230.814319 271.112712 
L 232.129653 270.935152 
L 233.444987 272.355638 
L 234.760321 272.000516 
L 236.075654 270.651054 
L 237.390988 264.471941 
L 238.706322 265.430769 
L 240.021656 269.763251 
L 241.33699 268.662374 
L 242.652324 268.662374 
L 243.967658 271.467834 
L 245.282992 271.680907 
L 246.598326 271.645395 
L 247.91366 267.028816 
L 249.228994 271.148225 
L 250.544328 269.621202 
L 251.859662 265.643842 
L 253.174996 272.852808 
L 254.49033 271.325785 
L 255.805664 270.615542 
L 257.120998 267.419449 
L 258.436332 271.929492 
L 259.751666 271.006176 
L 261.067 268.09418 
L 262.382334 268.023156 
L 263.697668 268.626862 
L 265.013002 272.994856 
L 266.328336 269.479154 
L 267.64367 273.918172 
L 268.959004 269.834275 
L 270.274338 271.254761 
L 271.589672 269.869787 
L 272.905006 267.881107 
L 274.220339 266.141012 
L 275.535673 268.200716 
L 276.851007 269.976324 
L 278.166341 268.662374 
L 279.481675 271.645395 
L 280.797009 266.709206 
L 282.112343 273.669587 
L 283.427677 269.58569 
L 284.743011 262.554285 
L 286.058345 269.195057 
L 287.373679 266.460621 
L 288.689013 264.329893 
L 290.004347 273.243441 
L 291.319681 267.525986 
L 292.635015 270.011836 
L 293.950349 265.182184 
L 295.265683 270.366957 
L 296.581017 269.408129 
L 297.896351 267.845595 
L 299.211685 275.303146 
L 300.527019 264.862575 
L 301.842353 273.634075 
L 303.157687 269.301593 
L 307.103689 272.533198 
L 308.419023 271.0772 
L 309.734357 271.432322 
L 311.04969 267.881107 
L 312.365024 268.520326 
L 313.680358 270.047348 
L 314.995692 268.768911 
L 316.311026 271.680907 
L 317.62636 275.054561 
L 318.941694 270.047348 
L 320.257028 267.383937 
L 321.572362 270.295933 
L 322.887696 269.692227 
L 324.20303 268.449301 
L 325.518364 267.454961 
L 326.833698 268.59135 
L 328.149032 267.845595 
L 328.149032 267.845595 
" clip-path="url(#pf1337223ad)" style="fill: none; stroke: #2d1e3e; stroke-width: 1.5; stroke-linecap: round"/>
   </g>
   <g id="line2d_17"/>
   <g id="line2d_18"/>
   <g id="line2d_19"/>
   <g id="line2d_20"/>
   <g id="line2d_21"/>
   <g id="patch_3">
    <path d="M 53.31 318.341247 
L 53.31 22.318125 
" style="fill: none; stroke: #ffffff; stroke-width: 1.25; stroke-linejoin: miter; stroke-linecap: square"/>
   </g>
   <g id="patch_4">
    <path d="M 53.31 318.341247 
L 341.236605 318.341247 
" style="fill: none; stroke: #ffffff; stroke-width: 1.25; stroke-linejoin: miter; stroke-linecap: square"/>
   </g>
   <g id="text_14">
    <!-- Freeform For Symmetry -->
    <g style="fill: #262626" transform="translate(126.25674 16.318125)scale(0.12 -0.12)">
     <defs>
      <path id="DejaVuSans-66" d="M 2375 4863 
L 2375 4384 
L 1825 4384 
Q 1516 4384 1395 4259 
Q 1275 4134 1275 3809 
L 1275 3500 
L 2222 3500 
L 2222 3053 
L 1275 3053 
L 1275 0 
L 697 0 
L 697 3053 
L 147 3053 
L 147 3500 
L 697 3500 
L 697 3744 
Q 697 4328 969 4595 
Q 1241 4863 1831 4863 
L 2375 4863 
z
" transform="scale(0.015625)"/>
      <path id="DejaVuSans-6d" d="M 3328 2828 
Q 3544 3216 3844 3400 
Q 4144 3584 4550 3584 
Q 5097 3584 5394 3201 
Q 5691 2819 5691 2113 
L 5691 0 
L 5113 0 
L 5113 2094 
Q 5113 2597 4934 2840 
Q 4756 3084 4391 3084 
Q 3944 3084 3684 2787 
Q 3425 2491 3425 1978 
L 3425 0 
L 2847 0 
L 2847 2094 
Q 2847 2600 2669 2842 
Q 2491 3084 2119 3084 
Q 1678 3084 1418 2786 
Q 1159 2488 1159 1978 
L 1159 0 
L 581 0 
L 581 3500 
L 1159 3500 
L 1159 2956 
Q 1356 3278 1631 3431 
Q 1906 3584 2284 3584 
Q 2666 3584 2933 3390 
Q 3200 3197 3328 2828 
z
" transform="scale(0.015625)"/>
      <path id="DejaVuSans-20" transform="scale(0.015625)"/>
      <path id="DejaVuSans-53" d="M 3425 4513 
L 3425 3897 
Q 3066 4069 2747 4153 
Q 2428 4238 2131 4238 
Q 1616 4238 1336 4038 
Q 1056 3838 1056 3469 
Q 1056 3159 1242 3001 
Q 1428 2844 1947 2747 
L 2328 2669 
Q 3034 2534 3370 2195 
Q 3706 1856 3706 1288 
Q 3706 609 3251 259 
Q 2797 -91 1919 -91 
Q 1588 -91 1214 -16 
Q 841 59 441 206 
L 441 856 
Q 825 641 1194 531 
Q 1563 422 1919 422 
Q 2459 422 2753 634 
Q 3047 847 3047 1241 
Q 3047 1584 2836 1778 
Q 2625 1972 2144 2069 
L 1759 2144 
Q 1053 2284 737 2584 
Q 422 2884 422 3419 
Q 422 4038 858 4394 
Q 1294 4750 2059 4750 
Q 2388 4750 2728 4690 
Q 3069 4631 3425 4513 
z
" transform="scale(0.015625)"/>
      <path id="DejaVuSans-79" d="M 2059 -325 
Q 1816 -950 1584 -1140 
Q 1353 -1331 966 -1331 
L 506 -1331 
L 506 -850 
L 844 -850 
Q 1081 -850 1212 -737 
Q 1344 -625 1503 -206 
L 1606 56 
L 191 3500 
L 800 3500 
L 1894 763 
L 2988 3500 
L 3597 3500 
L 2059 -325 
z
" transform="scale(0.015625)"/>
     </defs>
     <use xlink:href="#DejaVuSans-46"/>
     <use xlink:href="#DejaVuSans-72" x="50.269531"/>
     <use xlink:href="#DejaVuSans-65" x="89.132812"/>
     <use xlink:href="#DejaVuSans-65" x="150.65625"/>
     <use xlink:href="#DejaVuSans-66" x="212.179688"/>
     <use xlink:href="#DejaVuSans-6f" x="247.384766"/>
     <use xlink:href="#DejaVuSans-72" x="308.566406"/>
     <use xlink:href="#DejaVuSans-6d" x="347.929688"/>
     <use xlink:href="#DejaVuSans-20" x="445.341797"/>
     <use xlink:href="#DejaVuSans-46" x="477.128906"/>
     <use xlink:href="#DejaVuSans-6f" x="531.023438"/>
     <use xlink:href="#DejaVuSans-72" x="592.205078"/>
     <use xlink:href="#DejaVuSans-20" x="633.318359"/>
     <use xlink:href="#DejaVuSans-53" x="665.105469"/>
     <use xlink:href="#DejaVuSans-79" x="728.582031"/>
     <use xlink:href="#DejaVuSans-6d" x="787.761719"/>
     <use xlink:href="#DejaVuSans-6d" x="885.173828"/>
     <use xlink:href="#DejaVuSans-65" x="982.585938"/>
     <use xlink:href="#DejaVuSans-74" x="1044.109375"/>
     <use xlink:href="#DejaVuSans-72" x="1083.318359"/>
     <use xlink:href="#DejaVuSans-79" x="1124.431641"/>
    </g>
   </g>
  </g>
  <g id="legend_1">
   <g id="text_15">
    <!-- Trial -->
    <g style="fill: #262626" transform="translate(352.566555 143.596874)scale(0.12 -0.12)">
     <defs>
      <path id="DejaVuSans-54" d="M -19 4666 
L 3928 4666 
L 3928 4134 
L 2272 4134 
L 2272 0 
L 1638 0 
L 1638 4134 
L -19 4134 
L -19 4666 
z
" transform="scale(0.015625)"/>
      <path id="DejaVuSans-6c" d="M 603 4863 
L 1178 4863 
L 1178 0 
L 603 0 
L 603 4863 
z
" transform="scale(0.015625)"/>
     </defs>
     <use xlink:href="#DejaVuSans-54"/>
     <use xlink:href="#DejaVuSans-72" x="46.333984"/>
     <use xlink:href="#DejaVuSans-69" x="87.447266"/>
     <use xlink:href="#DejaVuSans-61" x="115.230469"/>
     <use xlink:href="#DejaVuSans-6c" x="176.509766"/>
    </g>
   </g>
   <g id="line2d_22">
    <path d="M 345.924055 156.10078 
L 356.924055 156.10078 
L 367.924055 156.10078 
" style="fill: none; stroke: #edd1cb; stroke-width: 1.5; stroke-linecap: round"/>
   </g>
   <g id="text_16">
    <!-- 0 -->
    <g style="fill: #262626" transform="translate(376.724055 159.95078)scale(0.11 -0.11)">
     <use xlink:href="#DejaVuSans-30"/>
    </g>
   </g>
   <g id="line2d_23">
    <path d="M 345.924055 172.246717 
L 356.924055 172.246717 
L 367.924055 172.246717 
" style="fill: none; stroke: #d499a7; stroke-width: 1.5; stroke-linecap: round"/>
   </g>
   <g id="text_17">
    <!-- 1 -->
    <g style="fill: #262626" transform="translate(376.724055 176.096717)scale(0.11 -0.11)">
     <use xlink:href="#DejaVuSans-31"/>
    </g>
   </g>
   <g id="line2d_24">
    <path d="M 345.924055 188.392655 
L 356.924055 188.392655 
L 367.924055 188.392655 
" style="fill: none; stroke: #a9678f; stroke-width: 1.5; stroke-linecap: round"/>
   </g>
   <g id="text_18">
    <!-- 2 -->
    <g style="fill: #262626" transform="translate(376.724055 192.242655)scale(0.11 -0.11)">
     <use xlink:href="#DejaVuSans-32"/>
    </g>
   </g>
   <g id="line2d_25">
    <path d="M 345.924055 204.538592 
L 356.924055 204.538592 
L 367.924055 204.538592 
" style="fill: none; stroke: #6c3f70; stroke-width: 1.5; stroke-linecap: round"/>
   </g>
   <g id="text_19">
    <!-- 3 -->
    <g style="fill: #262626" transform="translate(376.724055 208.388592)scale(0.11 -0.11)">
     <defs>
      <path id="DejaVuSans-33" d="M 2597 2516 
Q 3050 2419 3304 2112 
Q 3559 1806 3559 1356 
Q 3559 666 3084 287 
Q 2609 -91 1734 -91 
Q 1441 -91 1130 -33 
Q 819 25 488 141 
L 488 750 
Q 750 597 1062 519 
Q 1375 441 1716 441 
Q 2309 441 2620 675 
Q 2931 909 2931 1356 
Q 2931 1769 2642 2001 
Q 2353 2234 1838 2234 
L 1294 2234 
L 1294 2753 
L 1863 2753 
Q 2328 2753 2575 2939 
Q 2822 3125 2822 3475 
Q 2822 3834 2567 4026 
Q 2313 4219 1838 4219 
Q 1578 4219 1281 4162 
Q 984 4106 628 3988 
L 628 4550 
Q 988 4650 1302 4700 
Q 1616 4750 1894 4750 
Q 2613 4750 3031 4423 
Q 3450 4097 3450 3541 
Q 3450 3153 3228 2886 
Q 3006 2619 2597 2516 
z
" transform="scale(0.015625)"/>
     </defs>
     <use xlink:href="#DejaVuSans-33"/>
    </g>
   </g>
   <g id="line2d_26">
    <path d="M 345.924055 220.68453 
L 356.924055 220.68453 
L 367.924055 220.68453 
" style="fill: none; stroke: #2d1e3e; stroke-width: 1.5; stroke-linecap: round"/>
   </g>
   <g id="text_20">
    <!-- 4 -->
    <g style="fill: #262626" transform="translate(376.724055 224.53453)scale(0.11 -0.11)">
     <defs>
      <path id="DejaVuSans-34" d="M 2419 4116 
L 825 1625 
L 2419 1625 
L 2419 4116 
z
M 2253 4666 
L 3047 4666 
L 3047 1625 
L 3713 1625 
L 3713 1100 
L 3047 1100 
L 3047 0 
L 2419 0 
L 2419 1100 
L 313 1100 
L 313 1709 
L 2253 4666 
z
" transform="scale(0.015625)"/>
     </defs>
     <use xlink:href="#DejaVuSans-34"/>
    </g>
   </g>
  </g>
 </g>
 <defs>
  <clipPath id="pf1337223ad">
   <rect x="53.31" y="22.318125" width="287.926605" height="296.023122"/>
  </clipPath>
 </defs>
</svg>
