<?xml version="1.0" encoding="utf-8" standalone="no"?>
<!DOCTYPE svg PUBLIC "-//W3C//DTD SVG 1.1//EN"
  "http://www.w3.org/Graphics/SVG/1.1/DTD/svg11.dtd">
<svg xmlns:xlink="http://www.w3.org/1999/xlink" width="864pt" height="360pt" viewBox="0 0 864 360" xmlns="http://www.w3.org/2000/svg" version="1.1">
 <metadata>
  <rdf:RDF xmlns:dc="http://purl.org/dc/elements/1.1/" xmlns:cc="http://creativecommons.org/ns#" xmlns:rdf="http://www.w3.org/1999/02/22-rdf-syntax-ns#">
   <cc:Work>
    <dc:type rdf:resource="http://purl.org/dc/dcmitype/StillImage"/>
    <dc:date>2022-11-20T08:19:53.048542</dc:date>
    <dc:format>image/svg+xml</dc:format>
    <dc:creator>
     <cc:Agent>
      <dc:title>Matplotlib v3.5.2, https://matplotlib.org/</dc:title>
     </cc:Agent>
    </dc:creator>
   </cc:Work>
  </rdf:RDF>
 </metadata>
 <defs>
  <style type="text/css">*{stroke-linejoin: round; stroke-linecap: butt}</style>
 </defs>
 <g id="figure_1">
  <g id="patch_1">
   <path d="M 0 360 
L 864 360 
L 864 0 
L 0 0 
z
" style="fill: #ffffff"/>
  </g>
  <g id="axes_1">
   <g id="patch_2">
    <path d="M 74.07 309.78 
L 337.45 309.78 
L 337.45 55.68 
L 74.07 55.68 
z
" style="fill: #eaeaf2"/>
   </g>
   <g id="matplotlib.axis_1">
    <g id="xtick_1">
     <g id="line2d_1">
      <path d="M 86.041818 309.78 
L 86.041818 55.68 
" clip-path="url(#p78581b4ce8)" style="fill: none; stroke: #ffffff; stroke-linecap: round"/>
     </g>
     <g id="text_1">
      <!-- 0 -->
      <g style="fill: #262626" transform="translate(82.542443 327.638281)scale(0.11 -0.11)">
       <defs>
        <path id="DejaVuSans-30" d="M 2034 4250 
Q 1547 4250 1301 3770 
Q 1056 3291 1056 2328 
Q 1056 1369 1301 889 
Q 1547 409 2034 409 
Q 2525 409 2770 889 
Q 3016 1369 3016 2328 
Q 3016 3291 2770 3770 
Q 2525 4250 2034 4250 
z
M 2034 4750 
Q 2819 4750 3233 4129 
Q 3647 3509 3647 2328 
Q 3647 1150 3233 529 
Q 2819 -91 2034 -91 
Q 1250 -91 836 529 
Q 422 1150 422 2328 
Q 422 3509 836 4129 
Q 1250 4750 2034 4750 
z
" transform="scale(0.015625)"/>
       </defs>
       <use xlink:href="#DejaVuSans-30"/>
      </g>
     </g>
    </g>
    <g id="xtick_2">
     <g id="line2d_2">
      <path d="M 146.201709 309.78 
L 146.201709 55.68 
" clip-path="url(#p78581b4ce8)" style="fill: none; stroke: #ffffff; stroke-linecap: round"/>
     </g>
     <g id="text_2">
      <!-- 50 -->
      <g style="fill: #262626" transform="translate(139.202959 327.638281)scale(0.11 -0.11)">
       <defs>
        <path id="DejaVuSans-35" d="M 691 4666 
L 3169 4666 
L 3169 4134 
L 1269 4134 
L 1269 2991 
Q 1406 3038 1543 3061 
Q 1681 3084 1819 3084 
Q 2600 3084 3056 2656 
Q 3513 2228 3513 1497 
Q 3513 744 3044 326 
Q 2575 -91 1722 -91 
Q 1428 -91 1123 -41 
Q 819 9 494 109 
L 494 744 
Q 775 591 1075 516 
Q 1375 441 1709 441 
Q 2250 441 2565 725 
Q 2881 1009 2881 1497 
Q 2881 1984 2565 2268 
Q 2250 2553 1709 2553 
Q 1456 2553 1204 2497 
Q 953 2441 691 2322 
L 691 4666 
z
" transform="scale(0.015625)"/>
       </defs>
       <use xlink:href="#DejaVuSans-35"/>
       <use xlink:href="#DejaVuSans-30" x="63.623047"/>
      </g>
     </g>
    </g>
    <g id="xtick_3">
     <g id="line2d_3">
      <path d="M 206.361599 309.78 
L 206.361599 55.68 
" clip-path="url(#p78581b4ce8)" style="fill: none; stroke: #ffffff; stroke-linecap: round"/>
     </g>
     <g id="text_3">
      <!-- 100 -->
      <g style="fill: #262626" transform="translate(195.863474 327.638281)scale(0.11 -0.11)">
       <defs>
        <path id="DejaVuSans-31" d="M 794 531 
L 1825 531 
L 1825 4091 
L 703 3866 
L 703 4441 
L 1819 4666 
L 2450 4666 
L 2450 531 
L 3481 531 
L 3481 0 
L 794 0 
L 794 531 
z
" transform="scale(0.015625)"/>
       </defs>
       <use xlink:href="#DejaVuSans-31"/>
       <use xlink:href="#DejaVuSans-30" x="63.623047"/>
       <use xlink:href="#DejaVuSans-30" x="127.246094"/>
      </g>
     </g>
    </g>
    <g id="xtick_4">
     <g id="line2d_4">
      <path d="M 266.521489 309.78 
L 266.521489 55.68 
" clip-path="url(#p78581b4ce8)" style="fill: none; stroke: #ffffff; stroke-linecap: round"/>
     </g>
     <g id="text_4">
      <!-- 150 -->
      <g style="fill: #262626" transform="translate(256.023364 327.638281)scale(0.11 -0.11)">
       <use xlink:href="#DejaVuSans-31"/>
       <use xlink:href="#DejaVuSans-35" x="63.623047"/>
       <use xlink:href="#DejaVuSans-30" x="127.246094"/>
      </g>
     </g>
    </g>
    <g id="xtick_5">
     <g id="line2d_5">
      <path d="M 326.68138 309.78 
L 326.68138 55.68 
" clip-path="url(#p78581b4ce8)" style="fill: none; stroke: #ffffff; stroke-linecap: round"/>
     </g>
     <g id="text_5">
      <!-- 200 -->
      <g style="fill: #262626" transform="translate(316.183255 327.638281)scale(0.11 -0.11)">
       <defs>
        <path id="DejaVuSans-32" d="M 1228 531 
L 3431 531 
L 3431 0 
L 469 0 
L 469 531 
Q 828 903 1448 1529 
Q 2069 2156 2228 2338 
Q 2531 2678 2651 2914 
Q 2772 3150 2772 3378 
Q 2772 3750 2511 3984 
Q 2250 4219 1831 4219 
Q 1534 4219 1204 4116 
Q 875 4013 500 3803 
L 500 4441 
Q 881 4594 1212 4672 
Q 1544 4750 1819 4750 
Q 2544 4750 2975 4387 
Q 3406 4025 3406 3419 
Q 3406 3131 3298 2873 
Q 3191 2616 2906 2266 
Q 2828 2175 2409 1742 
Q 1991 1309 1228 531 
z
" transform="scale(0.015625)"/>
       </defs>
       <use xlink:href="#DejaVuSans-32"/>
       <use xlink:href="#DejaVuSans-30" x="63.623047"/>
       <use xlink:href="#DejaVuSans-30" x="127.246094"/>
      </g>
     </g>
    </g>
    <g id="text_6">
     <!-- Generation -->
     <g style="fill: #262626" transform="translate(172.288437 343.044062)scale(0.12 -0.12)">
      <defs>
       <path id="DejaVuSans-47" d="M 3809 666 
L 3809 1919 
L 2778 1919 
L 2778 2438 
L 4434 2438 
L 4434 434 
Q 4069 175 3628 42 
Q 3188 -91 2688 -91 
Q 1594 -91 976 548 
Q 359 1188 359 2328 
Q 359 3472 976 4111 
Q 1594 4750 2688 4750 
Q 3144 4750 3555 4637 
Q 3966 4525 4313 4306 
L 4313 3634 
Q 3963 3931 3569 4081 
Q 3175 4231 2741 4231 
Q 1884 4231 1454 3753 
Q 1025 3275 1025 2328 
Q 1025 1384 1454 906 
Q 1884 428 2741 428 
Q 3075 428 3337 486 
Q 3600 544 3809 666 
z
" transform="scale(0.015625)"/>
       <path id="DejaVuSans-65" d="M 3597 1894 
L 3597 1613 
L 953 1613 
Q 991 1019 1311 708 
Q 1631 397 2203 397 
Q 2534 397 2845 478 
Q 3156 559 3463 722 
L 3463 178 
Q 3153 47 2828 -22 
Q 2503 -91 2169 -91 
Q 1331 -91 842 396 
Q 353 884 353 1716 
Q 353 2575 817 3079 
Q 1281 3584 2069 3584 
Q 2775 3584 3186 3129 
Q 3597 2675 3597 1894 
z
M 3022 2063 
Q 3016 2534 2758 2815 
Q 2500 3097 2075 3097 
Q 1594 3097 1305 2825 
Q 1016 2553 972 2059 
L 3022 2063 
z
" transform="scale(0.015625)"/>
       <path id="DejaVuSans-6e" d="M 3513 2113 
L 3513 0 
L 2938 0 
L 2938 2094 
Q 2938 2591 2744 2837 
Q 2550 3084 2163 3084 
Q 1697 3084 1428 2787 
Q 1159 2491 1159 1978 
L 1159 0 
L 581 0 
L 581 3500 
L 1159 3500 
L 1159 2956 
Q 1366 3272 1645 3428 
Q 1925 3584 2291 3584 
Q 2894 3584 3203 3211 
Q 3513 2838 3513 2113 
z
" transform="scale(0.015625)"/>
       <path id="DejaVuSans-72" d="M 2631 2963 
Q 2534 3019 2420 3045 
Q 2306 3072 2169 3072 
Q 1681 3072 1420 2755 
Q 1159 2438 1159 1844 
L 1159 0 
L 581 0 
L 581 3500 
L 1159 3500 
L 1159 2956 
Q 1341 3275 1631 3429 
Q 1922 3584 2338 3584 
Q 2397 3584 2469 3576 
Q 2541 3569 2628 3553 
L 2631 2963 
z
" transform="scale(0.015625)"/>
       <path id="DejaVuSans-61" d="M 2194 1759 
Q 1497 1759 1228 1600 
Q 959 1441 959 1056 
Q 959 750 1161 570 
Q 1363 391 1709 391 
Q 2188 391 2477 730 
Q 2766 1069 2766 1631 
L 2766 1759 
L 2194 1759 
z
M 3341 1997 
L 3341 0 
L 2766 0 
L 2766 531 
Q 2569 213 2275 61 
Q 1981 -91 1556 -91 
Q 1019 -91 701 211 
Q 384 513 384 1019 
Q 384 1609 779 1909 
Q 1175 2209 1959 2209 
L 2766 2209 
L 2766 2266 
Q 2766 2663 2505 2880 
Q 2244 3097 1772 3097 
Q 1472 3097 1187 3025 
Q 903 2953 641 2809 
L 641 3341 
Q 956 3463 1253 3523 
Q 1550 3584 1831 3584 
Q 2591 3584 2966 3190 
Q 3341 2797 3341 1997 
z
" transform="scale(0.015625)"/>
       <path id="DejaVuSans-74" d="M 1172 4494 
L 1172 3500 
L 2356 3500 
L 2356 3053 
L 1172 3053 
L 1172 1153 
Q 1172 725 1289 603 
Q 1406 481 1766 481 
L 2356 481 
L 2356 0 
L 1766 0 
Q 1100 0 847 248 
Q 594 497 594 1153 
L 594 3053 
L 172 3053 
L 172 3500 
L 594 3500 
L 594 4494 
L 1172 4494 
z
" transform="scale(0.015625)"/>
       <path id="DejaVuSans-69" d="M 603 3500 
L 1178 3500 
L 1178 0 
L 603 0 
L 603 3500 
z
M 603 4863 
L 1178 4863 
L 1178 4134 
L 603 4134 
L 603 4863 
z
" transform="scale(0.015625)"/>
       <path id="DejaVuSans-6f" d="M 1959 3097 
Q 1497 3097 1228 2736 
Q 959 2375 959 1747 
Q 959 1119 1226 758 
Q 1494 397 1959 397 
Q 2419 397 2687 759 
Q 2956 1122 2956 1747 
Q 2956 2369 2687 2733 
Q 2419 3097 1959 3097 
z
M 1959 3584 
Q 2709 3584 3137 3096 
Q 3566 2609 3566 1747 
Q 3566 888 3137 398 
Q 2709 -91 1959 -91 
Q 1206 -91 779 398 
Q 353 888 353 1747 
Q 353 2609 779 3096 
Q 1206 3584 1959 3584 
z
" transform="scale(0.015625)"/>
      </defs>
      <use xlink:href="#DejaVuSans-47"/>
      <use xlink:href="#DejaVuSans-65" x="77.490234"/>
      <use xlink:href="#DejaVuSans-6e" x="139.013672"/>
      <use xlink:href="#DejaVuSans-65" x="202.392578"/>
      <use xlink:href="#DejaVuSans-72" x="263.916016"/>
      <use xlink:href="#DejaVuSans-61" x="305.029297"/>
      <use xlink:href="#DejaVuSans-74" x="366.308594"/>
      <use xlink:href="#DejaVuSans-69" x="405.517578"/>
      <use xlink:href="#DejaVuSans-6f" x="433.300781"/>
      <use xlink:href="#DejaVuSans-6e" x="494.482422"/>
     </g>
    </g>
   </g>
   <g id="matplotlib.axis_2">
    <g id="ytick_1">
     <g id="line2d_6">
      <path d="M 74.07 298.23 
L 337.45 298.23 
" clip-path="url(#p78581b4ce8)" style="fill: none; stroke: #ffffff; stroke-linecap: round"/>
     </g>
     <g id="text_7">
      <!-- 0 -->
      <g style="fill: #262626" transform="translate(57.57125 302.409141)scale(0.11 -0.11)">
       <use xlink:href="#DejaVuSans-30"/>
      </g>
     </g>
    </g>
    <g id="ytick_2">
     <g id="line2d_7">
      <path d="M 74.07 244.935426 
L 337.45 244.935426 
" clip-path="url(#p78581b4ce8)" style="fill: none; stroke: #ffffff; stroke-linecap: round"/>
     </g>
     <g id="text_8">
      <!-- 5000 -->
      <g style="fill: #262626" transform="translate(36.575 249.114567)scale(0.11 -0.11)">
       <use xlink:href="#DejaVuSans-35"/>
       <use xlink:href="#DejaVuSans-30" x="63.623047"/>
       <use xlink:href="#DejaVuSans-30" x="127.246094"/>
       <use xlink:href="#DejaVuSans-30" x="190.869141"/>
      </g>
     </g>
    </g>
    <g id="ytick_3">
     <g id="line2d_8">
      <path d="M 74.07 191.640853 
L 337.45 191.640853 
" clip-path="url(#p78581b4ce8)" style="fill: none; stroke: #ffffff; stroke-linecap: round"/>
     </g>
     <g id="text_9">
      <!-- 10000 -->
      <g style="fill: #262626" transform="translate(29.57625 195.819993)scale(0.11 -0.11)">
       <use xlink:href="#DejaVuSans-31"/>
       <use xlink:href="#DejaVuSans-30" x="63.623047"/>
       <use xlink:href="#DejaVuSans-30" x="127.246094"/>
       <use xlink:href="#DejaVuSans-30" x="190.869141"/>
       <use xlink:href="#DejaVuSans-30" x="254.492188"/>
      </g>
     </g>
    </g>
    <g id="ytick_4">
     <g id="line2d_9">
      <path d="M 74.07 138.346279 
L 337.45 138.346279 
" clip-path="url(#p78581b4ce8)" style="fill: none; stroke: #ffffff; stroke-linecap: round"/>
     </g>
     <g id="text_10">
      <!-- 15000 -->
      <g style="fill: #262626" transform="translate(29.57625 142.52542)scale(0.11 -0.11)">
       <use xlink:href="#DejaVuSans-31"/>
       <use xlink:href="#DejaVuSans-35" x="63.623047"/>
       <use xlink:href="#DejaVuSans-30" x="127.246094"/>
       <use xlink:href="#DejaVuSans-30" x="190.869141"/>
       <use xlink:href="#DejaVuSans-30" x="254.492188"/>
      </g>
     </g>
    </g>
    <g id="ytick_5">
     <g id="line2d_10">
      <path d="M 74.07 85.051705 
L 337.45 85.051705 
" clip-path="url(#p78581b4ce8)" style="fill: none; stroke: #ffffff; stroke-linecap: round"/>
     </g>
     <g id="text_11">
      <!-- 20000 -->
      <g style="fill: #262626" transform="translate(29.57625 89.230846)scale(0.11 -0.11)">
       <use xlink:href="#DejaVuSans-32"/>
       <use xlink:href="#DejaVuSans-30" x="63.623047"/>
       <use xlink:href="#DejaVuSans-30" x="127.246094"/>
       <use xlink:href="#DejaVuSans-30" x="190.869141"/>
       <use xlink:href="#DejaVuSans-30" x="254.492188"/>
      </g>
     </g>
    </g>
    <g id="text_12">
     <!-- Fitness -->
     <g style="fill: #262626" transform="translate(23.080625 203.510625)rotate(-90)scale(0.12 -0.12)">
      <defs>
       <path id="DejaVuSans-46" d="M 628 4666 
L 3309 4666 
L 3309 4134 
L 1259 4134 
L 1259 2759 
L 3109 2759 
L 3109 2228 
L 1259 2228 
L 1259 0 
L 628 0 
L 628 4666 
z
" transform="scale(0.015625)"/>
       <path id="DejaVuSans-73" d="M 2834 3397 
L 2834 2853 
Q 2591 2978 2328 3040 
Q 2066 3103 1784 3103 
Q 1356 3103 1142 2972 
Q 928 2841 928 2578 
Q 928 2378 1081 2264 
Q 1234 2150 1697 2047 
L 1894 2003 
Q 2506 1872 2764 1633 
Q 3022 1394 3022 966 
Q 3022 478 2636 193 
Q 2250 -91 1575 -91 
Q 1294 -91 989 -36 
Q 684 19 347 128 
L 347 722 
Q 666 556 975 473 
Q 1284 391 1588 391 
Q 1994 391 2212 530 
Q 2431 669 2431 922 
Q 2431 1156 2273 1281 
Q 2116 1406 1581 1522 
L 1381 1569 
Q 847 1681 609 1914 
Q 372 2147 372 2553 
Q 372 3047 722 3315 
Q 1072 3584 1716 3584 
Q 2034 3584 2315 3537 
Q 2597 3491 2834 3397 
z
" transform="scale(0.015625)"/>
      </defs>
      <use xlink:href="#DejaVuSans-46"/>
      <use xlink:href="#DejaVuSans-69" x="50.269531"/>
      <use xlink:href="#DejaVuSans-74" x="78.052734"/>
      <use xlink:href="#DejaVuSans-6e" x="117.261719"/>
      <use xlink:href="#DejaVuSans-65" x="180.640625"/>
      <use xlink:href="#DejaVuSans-73" x="242.164062"/>
      <use xlink:href="#DejaVuSans-73" x="294.263672"/>
     </g>
    </g>
   </g>
   <g id="PolyCollection_1">
    <defs>
     <path id="m42552cf4cd" d="M 86.041818 -61.77 
L 86.041818 -61.77 
L 87.245016 -61.77 
L 88.448214 -61.833953 
L 89.651412 -61.900572 
L 90.854609 -61.993837 
L 92.057807 -62.430853 
L 93.261005 -62.484147 
L 94.464203 -62.484147 
L 95.667401 -62.484147 
L 96.870598 -62.484147 
L 98.073796 -62.50813 
L 99.276994 -62.484147 
L 100.480192 -62.484147 
L 101.68339 -62.484147 
L 102.886587 -62.510795 
L 104.089785 -62.65469 
L 105.292983 -62.50813 
L 106.496181 -62.484147 
L 107.699379 -62.484147 
L 108.902577 -62.516124 
L 110.105774 -62.718643 
L 111.308972 -62.516124 
L 112.51217 -62.910504 
L 113.715368 -62.910504 
L 114.918566 -62.718643 
L 116.121763 -62.694661 
L 117.324961 -62.516124 
L 118.528159 -62.620048 
L 119.731357 -62.516124 
L 120.934555 -62.516124 
L 122.137752 -62.707984 
L 123.34095 -62.516124 
L 124.544148 -62.763944 
L 125.747346 -62.516124 
L 126.950544 -62.516124 
L 128.153741 -62.516124 
L 129.356939 -62.516124 
L 130.560137 -62.516124 
L 131.763335 -62.516124 
L 132.966533 -63.280901 
L 134.16973 -63.33686 
L 135.372928 -62.652025 
L 136.576126 -63.280901 
L 137.779324 -63.131676 
L 138.982522 -62.516124 
L 140.18572 -63.33686 
L 141.388917 -63.33686 
L 142.592115 -62.569419 
L 143.795313 -62.556095 
L 144.998511 -62.516124 
L 146.201709 -62.510795 
L 147.404906 -62.516124 
L 148.608104 -62.516124 
L 149.811302 -62.516124 
L 151.0145 -62.516124 
L 152.217698 -62.516124 
L 153.420895 -62.516124 
L 154.624093 -63.152994 
L 155.827291 -63.33686 
L 157.030489 -62.532112 
L 158.233687 -62.532112 
L 159.436884 -63.33686 
L 160.640082 -63.33686 
L 161.84328 -63.33686 
L 163.046478 -63.33686 
L 164.249676 -63.33686 
L 165.452873 -63.347519 
L 166.656071 -63.33686 
L 167.859269 -63.347519 
L 169.062467 -63.344855 
L 170.265665 -63.347519 
L 171.468862 -63.347519 
L 172.67206 -63.347519 
L 173.875258 -63.347519 
L 175.078456 -63.347519 
L 176.281654 -63.347519 
L 177.484852 -65.095581 
L 178.688049 -64.706531 
L 179.891247 -65.159535 
L 181.094445 -63.347519 
L 182.297643 -63.651298 
L 183.500841 -63.347519 
L 184.704038 -65.159535 
L 185.907236 -63.347519 
L 187.110434 -63.347519 
L 188.313632 -63.347519 
L 189.51683 -63.33686 
L 190.720027 -63.347519 
L 191.923225 -63.347519 
L 193.126423 -63.347519 
L 194.329621 -64.658566 
L 195.532819 -63.33686 
L 196.736016 -63.347519 
L 197.939214 -63.347519 
L 199.142412 -63.355514 
L 200.34561 -63.411473 
L 201.548808 -63.347519 
L 202.752005 -65.10624 
L 203.955203 -67.76031 
L 205.158401 -63.33686 
L 206.361599 -63.33686 
L 207.564797 -63.33686 
L 208.767995 -63.344855 
L 209.971192 -63.33686 
L 211.17439 -63.33686 
L 212.377588 -63.33686 
L 213.580786 -68.698295 
L 214.783984 -63.33686 
L 215.987181 -68.698295 
L 217.190379 -63.33686 
L 218.393577 -63.33686 
L 219.596775 -63.33686 
L 220.799973 -66.257403 
L 222.00317 -63.33686 
L 223.206368 -63.33686 
L 224.409566 -67.46719 
L 225.612764 -63.33686 
L 226.815962 -63.33686 
L 228.019159 -68.698295 
L 229.222357 -63.347519 
L 230.425555 -63.347519 
L 231.628753 -63.33686 
L 232.831951 -67.360601 
L 234.035148 -63.33686 
L 235.238346 -63.347519 
L 236.441544 -63.435455 
L 237.644742 -63.33686 
L 238.84794 -66.161473 
L 240.051138 -63.33686 
L 241.254335 -63.667287 
L 242.457533 -63.347519 
L 243.660731 -63.347519 
L 244.863929 -63.347519 
L 246.067127 -63.347519 
L 247.270324 -67.360601 
L 248.473522 -63.347519 
L 249.67672 -64.631919 
L 250.879918 -63.347519 
L 252.083116 -63.344855 
L 253.286313 -63.347519 
L 254.489511 -63.33686 
L 255.692709 -63.33686 
L 256.895907 -68.631676 
L 258.099105 -68.698295 
L 259.302302 -63.33686 
L 260.5055 -63.347519 
L 261.708698 -63.33686 
L 262.911896 -64.658566 
L 264.115094 -64.610601 
L 265.318291 -63.344855 
L 266.521489 -63.344855 
L 267.724687 -63.33686 
L 268.927885 -63.33686 
L 270.131083 -68.898149 
L 271.33428 -63.33686 
L 272.537478 -63.33686 
L 273.740676 -63.33686 
L 274.943874 -67.557791 
L 276.147072 -63.33686 
L 277.35027 -67.557791 
L 278.553467 -63.33686 
L 279.756665 -68.964767 
L 280.959863 -63.33686 
L 282.163061 -63.33686 
L 283.366259 -63.33686 
L 284.569456 -68.964767 
L 285.772654 -63.33686 
L 286.975852 -63.33686 
L 288.17905 -63.33686 
L 289.382248 -63.33686 
L 290.585445 -67.557791 
L 291.788643 -63.33686 
L 292.991841 -63.33686 
L 294.195039 -63.33686 
L 295.398237 -63.33686 
L 296.601434 -63.33686 
L 297.804632 -66.278721 
L 299.00783 -63.33686 
L 300.211028 -63.33686 
L 301.414226 -63.33686 
L 302.617423 -68.964767 
L 303.820621 -68.964767 
L 305.023819 -68.898149 
L 306.227017 -63.33686 
L 307.430215 -63.33686 
L 308.633413 -64.088314 
L 309.83661 -63.33686 
L 311.039808 -63.33686 
L 312.243006 -64.751831 
L 313.446204 -63.33686 
L 314.649402 -63.33686 
L 315.852599 -68.54374 
L 317.055797 -63.315543 
L 318.258995 -63.33686 
L 319.462193 -63.33686 
L 320.665391 -63.33686 
L 321.868588 -63.33686 
L 323.071786 -68.485116 
L 324.274984 -63.33686 
L 325.478182 -63.33686 
L 325.478182 -79.282597 
L 325.478182 -79.282597 
L 324.274984 -79.282597 
L 323.071786 -79.282597 
L 321.868588 -79.282597 
L 320.665391 -79.282597 
L 319.462193 -79.034777 
L 318.258995 -78.952171 
L 317.055797 -78.952171 
L 315.852599 -78.952171 
L 314.649402 -78.952171 
L 313.446204 -79.282597 
L 312.243006 -79.282597 
L 311.039808 -79.282597 
L 309.83661 -79.282597 
L 308.633413 -78.952171 
L 307.430215 -78.952171 
L 306.227017 -78.952171 
L 305.023819 -79.034777 
L 303.820621 -78.952171 
L 302.617423 -78.952171 
L 301.414226 -78.952171 
L 300.211028 -78.952171 
L 299.00783 -78.952171 
L 297.804632 -79.034777 
L 296.601434 -78.952171 
L 295.398237 -78.952171 
L 294.195039 -78.952171 
L 292.991841 -78.952171 
L 291.788643 -78.952171 
L 290.585445 -79.282597 
L 289.382248 -78.952171 
L 288.17905 -78.952171 
L 286.975852 -78.952171 
L 285.772654 -79.282597 
L 284.569456 -78.952171 
L 283.366259 -78.952171 
L 282.163061 -78.952171 
L 280.959863 -79.034777 
L 279.756665 -79.282597 
L 278.553467 -79.034777 
L 277.35027 -79.282597 
L 276.147072 -78.952171 
L 274.943874 -79.034777 
L 273.740676 -79.282597 
L 272.537478 -79.282597 
L 271.33428 -78.952171 
L 270.131083 -79.282597 
L 268.927885 -78.952171 
L 267.724687 -79.282597 
L 266.521489 -78.952171 
L 265.318291 -79.282597 
L 264.115094 -79.282597 
L 262.911896 -79.282597 
L 261.708698 -79.282597 
L 260.5055 -79.282597 
L 259.302302 -79.282597 
L 258.099105 -79.282597 
L 256.895907 -79.282597 
L 255.692709 -79.282597 
L 254.489511 -78.952171 
L 253.286313 -79.282597 
L 252.083116 -79.282597 
L 250.879918 -79.282597 
L 249.67672 -79.282597 
L 248.473522 -79.282597 
L 247.270324 -79.282597 
L 246.067127 -78.952171 
L 244.863929 -79.282597 
L 243.660731 -79.282597 
L 242.457533 -79.282597 
L 241.254335 -79.282597 
L 240.051138 -79.282597 
L 238.84794 -78.952171 
L 237.644742 -78.952171 
L 236.441544 -79.034777 
L 235.238346 -78.952171 
L 234.035148 -78.952171 
L 232.831951 -78.952171 
L 231.628753 -79.034777 
L 230.425555 -79.034777 
L 229.222357 -79.282597 
L 228.019159 -78.952171 
L 226.815962 -78.952171 
L 225.612764 -78.952171 
L 224.409566 -78.952171 
L 223.206368 -78.952171 
L 222.00317 -79.282597 
L 220.799973 -79.282597 
L 219.596775 -79.282597 
L 218.393577 -79.282597 
L 217.190379 -79.282597 
L 215.987181 -79.282597 
L 214.783984 -78.952171 
L 213.580786 -79.034777 
L 212.377588 -78.952171 
L 211.17439 -78.952171 
L 209.971192 -79.282597 
L 208.767995 -79.282597 
L 207.564797 -78.952171 
L 206.361599 -79.034777 
L 205.158401 -79.282597 
L 203.955203 -79.282597 
L 202.752005 -79.282597 
L 201.548808 -79.282597 
L 200.34561 -79.282597 
L 199.142412 -79.282597 
L 197.939214 -79.282597 
L 196.736016 -69.764186 
L 195.532819 -69.764186 
L 194.329621 -69.764186 
L 193.126423 -69.657597 
L 191.923225 -69.657597 
L 190.720027 -69.657597 
L 189.51683 -69.657597 
L 188.313632 -69.657597 
L 187.110434 -69.684244 
L 185.907236 -69.657597 
L 184.704038 -69.657597 
L 183.500841 -69.657597 
L 182.297643 -69.657597 
L 181.094445 -69.657597 
L 179.891247 -69.764186 
L 178.688049 -69.684244 
L 177.484852 -69.657597 
L 176.281654 -69.657597 
L 175.078456 -69.657597 
L 173.875258 -69.657597 
L 172.67206 -69.657597 
L 171.468862 -69.657597 
L 170.265665 -69.577655 
L 169.062467 -69.551008 
L 167.859269 -67.730998 
L 166.656071 -67.408566 
L 165.452873 -67.352607 
L 164.249676 -67.333953 
L 163.046478 -67.333953 
L 161.84328 -67.333953 
L 160.640082 -67.333953 
L 159.436884 -67.333953 
L 158.233687 -67.333953 
L 157.030489 -67.333953 
L 155.827291 -67.333953 
L 154.624093 -67.333953 
L 153.420895 -67.333953 
L 152.217698 -67.333953 
L 151.0145 -67.333953 
L 149.811302 -67.333953 
L 148.608104 -67.333953 
L 147.404906 -67.333953 
L 146.201709 -67.333953 
L 144.998511 -67.333953 
L 143.795313 -67.333953 
L 142.592115 -67.333953 
L 141.388917 -67.408566 
L 140.18572 -67.333953 
L 138.982522 -67.333953 
L 137.779324 -67.333953 
L 136.576126 -67.408566 
L 135.372928 -67.408566 
L 134.16973 -67.352607 
L 132.966533 -67.352607 
L 131.763335 -67.333953 
L 130.560137 -67.333953 
L 129.356939 -65.223488 
L 128.153741 -65.159535 
L 126.950544 -65.159535 
L 125.747346 -65.223488 
L 124.544148 -65.223488 
L 123.34095 -65.223488 
L 122.137752 -65.223488 
L 120.934555 -65.159535 
L 119.731357 -65.159535 
L 118.528159 -65.159535 
L 117.324961 -65.159535 
L 116.121763 -65.159535 
L 114.918566 -65.159535 
L 113.715368 -65.159535 
L 112.51217 -65.159535 
L 111.308972 -65.159535 
L 110.105774 -65.159535 
L 108.902577 -65.159535 
L 107.699379 -65.095581 
L 106.496181 -65.095581 
L 105.292983 -65.095581 
L 104.089785 -65.159535 
L 102.886587 -65.11157 
L 101.68339 -65.095581 
L 100.480192 -65.095581 
L 99.276994 -65.095581 
L 98.073796 -65.095581 
L 96.870598 -65.047616 
L 95.667401 -63.912442 
L 94.464203 -63.912442 
L 93.261005 -63.912442 
L 92.057807 -63.48875 
L 90.854609 -63.358178 
L 89.651412 -62.65469 
L 88.448214 -62.132403 
L 87.245016 -61.940543 
L 86.041818 -61.77 
z
" style="stroke: #4c72b0; stroke-opacity: 0.2"/>
    </defs>
    <g clip-path="url(#p78581b4ce8)">
     <use xlink:href="#m42552cf4cd" x="0" y="360" style="fill: #4c72b0; fill-opacity: 0.2; stroke: #4c72b0; stroke-opacity: 0.2"/>
    </g>
   </g>
   <g id="PolyCollection_2">
    <defs>
     <path id="m9cb30633e2" d="M 86.041818 -61.772665 
L 86.041818 -61.77 
L 87.245016 -61.77 
L 88.448214 -61.77 
L 89.651412 -61.791318 
L 90.854609 -61.801977 
L 92.057807 -61.801977 
L 93.261005 -61.812636 
L 94.464203 -61.823295 
L 95.667401 -61.833953 
L 96.870598 -61.833953 
L 98.073796 -61.823295 
L 99.276994 -61.855271 
L 100.480192 -61.855271 
L 101.68339 -61.833953 
L 102.886587 -61.844612 
L 104.089785 -61.833953 
L 105.292983 -61.823295 
L 106.496181 -61.844612 
L 107.699379 -61.841948 
L 108.902577 -61.844612 
L 110.105774 -61.844612 
L 111.308972 -61.833953 
L 112.51217 -61.823295 
L 113.715368 -61.844612 
L 114.918566 -61.823295 
L 116.121763 -61.812636 
L 117.324961 -61.841948 
L 118.528159 -61.823295 
L 119.731357 -61.823295 
L 120.934555 -61.841948 
L 122.137752 -61.833953 
L 123.34095 -61.833953 
L 124.544148 -61.823295 
L 125.747346 -61.812636 
L 126.950544 -61.823295 
L 128.153741 -61.823295 
L 129.356939 -61.823295 
L 130.560137 -61.82063 
L 131.763335 -61.823295 
L 132.966533 -61.812636 
L 134.16973 -61.812636 
L 135.372928 -61.812636 
L 136.576126 -61.809971 
L 137.779324 -61.809971 
L 138.982522 -61.812636 
L 140.18572 -61.823295 
L 141.388917 -61.812636 
L 142.592115 -61.812636 
L 143.795313 -61.812636 
L 144.998511 -61.812636 
L 146.201709 -61.809971 
L 147.404906 -61.801977 
L 148.608104 -61.801977 
L 149.811302 -61.801977 
L 151.0145 -61.801977 
L 152.217698 -61.812636 
L 153.420895 -61.809971 
L 154.624093 -61.799312 
L 155.827291 -61.801977 
L 157.030489 -61.812636 
L 158.233687 -61.801977 
L 159.436884 -61.801977 
L 160.640082 -61.791318 
L 161.84328 -61.809971 
L 163.046478 -61.801977 
L 164.249676 -61.801977 
L 165.452873 -61.801977 
L 166.656071 -61.801977 
L 167.859269 -61.801977 
L 169.062467 -61.791318 
L 170.265665 -61.791318 
L 171.468862 -61.799312 
L 172.67206 -61.801977 
L 173.875258 -61.801977 
L 175.078456 -61.791318 
L 176.281654 -61.791318 
L 177.484852 -61.791318 
L 178.688049 -61.801977 
L 179.891247 -61.801977 
L 181.094445 -61.791318 
L 182.297643 -61.791318 
L 183.500841 -61.791318 
L 184.704038 -61.791318 
L 185.907236 -61.791318 
L 187.110434 -61.791318 
L 188.313632 -61.791318 
L 189.51683 -61.791318 
L 190.720027 -61.791318 
L 191.923225 -61.791318 
L 193.126423 -61.791318 
L 194.329621 -61.791318 
L 195.532819 -61.791318 
L 196.736016 -61.791318 
L 197.939214 -61.791318 
L 199.142412 -61.791318 
L 200.34561 -61.780659 
L 201.548808 -61.780659 
L 202.752005 -61.780659 
L 203.955203 -61.791318 
L 205.158401 -61.791318 
L 206.361599 -61.791318 
L 207.564797 -61.791318 
L 208.767995 -61.780659 
L 209.971192 -61.780659 
L 211.17439 -61.780659 
L 212.377588 -61.780659 
L 213.580786 -61.780659 
L 214.783984 -61.780659 
L 215.987181 -61.791318 
L 217.190379 -61.780659 
L 218.393577 -61.780659 
L 219.596775 -61.780659 
L 220.799973 -61.780659 
L 222.00317 -61.780659 
L 223.206368 -61.780659 
L 224.409566 -61.791318 
L 225.612764 -61.780659 
L 226.815962 -61.780659 
L 228.019159 -61.780659 
L 229.222357 -61.780659 
L 230.425555 -61.780659 
L 231.628753 -61.791318 
L 232.831951 -61.799312 
L 234.035148 -61.86593 
L 235.238346 -61.86593 
L 236.441544 -61.812636 
L 237.644742 -61.86593 
L 238.84794 -61.86593 
L 240.051138 -61.86593 
L 241.254335 -61.780659 
L 242.457533 -61.86593 
L 243.660731 -61.86593 
L 244.863929 -61.86593 
L 246.067127 -61.86593 
L 247.270324 -61.86593 
L 248.473522 -61.780659 
L 249.67672 -61.86593 
L 250.879918 -61.892578 
L 252.083116 -61.895242 
L 253.286313 -61.873924 
L 254.489511 -61.799312 
L 255.692709 -61.876589 
L 256.895907 -61.841948 
L 258.099105 -61.876589 
L 259.302302 -61.897907 
L 260.5055 -61.897907 
L 261.708698 -62.015155 
L 262.911896 -61.991172 
L 264.115094 -61.951202 
L 265.318291 -61.924554 
L 266.521489 -61.96719 
L 267.724687 -62.015155 
L 268.927885 -61.852607 
L 270.131083 -61.860601 
L 271.33428 -62.481483 
L 272.537478 -62.366899 
L 273.740676 -62.065785 
L 274.943874 -61.929884 
L 276.147072 -62.111085 
L 277.35027 -62.31094 
L 278.553467 -61.895242 
L 279.756665 -62.364234 
L 280.959863 -61.993837 
L 282.163061 -62.21501 
L 283.366259 -62.532112 
L 284.569456 -61.943207 
L 285.772654 -62.201686 
L 286.975852 -61.924554 
L 288.17905 -61.855271 
L 289.382248 -62.771938 
L 290.585445 -61.881919 
L 291.788643 -61.972519 
L 292.991841 -61.895242 
L 294.195039 -62.076444 
L 295.398237 -61.887248 
L 296.601434 -62.454835 
L 297.804632 -62.031143 
L 299.00783 -62.204351 
L 300.211028 -62.207016 
L 301.414226 -62.473488 
L 302.617423 -62.342917 
L 303.820621 -62.433517 
L 305.023819 -62.097762 
L 306.227017 -62.803915 
L 307.430215 -62.342917 
L 308.633413 -62.713314 
L 309.83661 -62.294952 
L 311.039808 -62.747955 
L 312.243006 -62.644031 
L 313.446204 -61.969855 
L 314.649402 -62.731967 
L 315.852599 -62.84655 
L 317.055797 -62.087103 
L 318.258995 -62.377558 
L 319.462193 -62.747955 
L 320.665391 -62.889186 
L 321.868588 -62.249651 
L 323.071786 -62.620048 
L 324.274984 -62.116415 
L 325.478182 -62.079109 
L 325.478182 -80.836134 
L 325.478182 -80.836134 
L 324.274984 -97.456047 
L 323.071786 -97.456047 
L 321.868588 -80.737539 
L 320.665391 -97.456047 
L 319.462193 -97.456047 
L 318.258995 -97.456047 
L 317.055797 -97.456047 
L 315.852599 -97.456047 
L 314.649402 -79.325233 
L 313.446204 -79.613023 
L 312.243006 -79.660988 
L 311.039808 -73.177703 
L 309.83661 -79.421163 
L 308.633413 -79.804884 
L 307.430215 -79.804884 
L 306.227017 -79.804884 
L 305.023819 -72.876589 
L 303.820621 -72.876589 
L 302.617423 -72.399603 
L 301.414226 -72.439574 
L 300.211028 -66.022907 
L 299.00783 -72.588798 
L 297.804632 -72.588798 
L 296.601434 -72.194419 
L 295.398237 -72.293014 
L 294.195039 -71.458953 
L 292.991841 -71.650814 
L 291.788643 -72.194419 
L 290.585445 -72.231725 
L 289.382248 -72.415591 
L 288.17905 -66.049554 
L 286.975852 -71.83468 
L 285.772654 -72.588798 
L 284.569456 -72.588798 
L 283.366259 -71.93061 
L 282.163061 -71.773391 
L 280.959863 -72.231725 
L 279.756665 -71.962587 
L 278.553467 -72.343643 
L 277.35027 -72.343643 
L 276.147072 -71.949264 
L 274.943874 -69.652267 
L 273.740676 -71.906628 
L 272.537478 -69.833469 
L 271.33428 -67.520484 
L 270.131083 -68.890155 
L 268.927885 -65.969612 
L 267.724687 -70.027994 
L 266.521489 -69.508372 
L 265.318291 -69.657597 
L 264.115094 -66.001589 
L 262.911896 -69.870775 
L 261.708698 -69.657597 
L 260.5055 -69.508372 
L 259.302302 -69.508372 
L 258.099105 -69.404448 
L 256.895907 -69.508372 
L 255.692709 -67.794952 
L 254.489511 -69.404448 
L 253.286313 -69.508372 
L 252.083116 -69.508372 
L 250.879918 -67.914864 
L 249.67672 -69.508372 
L 248.473522 -66.020242 
L 247.270324 -69.369806 
L 246.067127 -69.508372 
L 244.863929 -69.508372 
L 243.660731 -69.508372 
L 242.457533 -69.508372 
L 241.254335 -66.758372 
L 240.051138 -69.050039 
L 238.84794 -66.758372 
L 237.644742 -66.758372 
L 236.441544 -66.662442 
L 235.238346 -66.662442 
L 234.035148 -66.758372 
L 232.831951 -66.758372 
L 231.628753 -66.758372 
L 230.425555 -66.662442 
L 229.222357 -65.831047 
L 228.019159 -65.388702 
L 226.815962 -65.70314 
L 225.612764 -65.788411 
L 224.409566 -65.788411 
L 223.206368 -65.692481 
L 222.00317 -63.011764 
L 220.799973 -65.692481 
L 219.596775 -63.496744 
L 218.393577 -65.692481 
L 217.190379 -65.649845 
L 215.987181 -63.592674 
L 214.783984 -65.692481 
L 213.580786 -63.310213 
L 212.377588 -63.603333 
L 211.17439 -62.90251 
L 209.971192 -65.649845 
L 208.767995 -64.485359 
L 207.564797 -65.692481 
L 206.361599 -65.649845 
L 205.158401 -65.617868 
L 203.955203 -65.607209 
L 202.752005 -65.575233 
L 201.548808 -63.789864 
L 200.34561 -65.479302 
L 199.142412 -63.459438 
L 197.939214 -65.564574 
L 196.736016 -62.843886 
L 195.532819 -65.617868 
L 194.329621 -65.649845 
L 193.126423 -65.607209 
L 191.923225 -63.987054 
L 190.720027 -65.521938 
L 189.51683 -62.958469 
L 188.313632 -64.301492 
L 187.110434 -65.521938 
L 185.907236 -65.521938 
L 184.704038 -65.575233 
L 183.500841 -65.607209 
L 182.297643 -65.575233 
L 181.094445 -64.317481 
L 179.891247 -65.607209 
L 178.688049 -65.564574 
L 177.484852 -65.532597 
L 176.281654 -62.625378 
L 175.078456 -65.426008 
L 173.875258 -65.439331 
L 172.67206 -65.426008 
L 171.468862 -63.861812 
L 170.265665 -65.521938 
L 169.062467 -65.564574 
L 167.859269 -65.564574 
L 166.656071 -63.965736 
L 165.452873 -65.479302 
L 164.249676 -63.414138 
L 163.046478 -64.168256 
L 161.84328 -65.151541 
L 160.640082 -64.81312 
L 159.436884 -64.62126 
L 158.233687 -65.439331 
L 157.030489 -63.53405 
L 155.827291 -63.102364 
L 154.624093 -63.92843 
L 153.420895 -65.426008 
L 152.217698 -64.879738 
L 151.0145 -63.837829 
L 149.811302 -64.786473 
L 148.608104 -64.66656 
L 147.404906 -63.34219 
L 146.201709 -63.038411 
L 144.998511 -64.557306 
L 143.795313 -62.838556 
L 142.592115 -63.129012 
L 141.388917 -63.163653 
L 140.18572 -64.631919 
L 138.982522 -64.613266 
L 137.779324 -64.269516 
L 136.576126 -62.95314 
L 135.372928 -62.857209 
L 134.16973 -63.512733 
L 132.966533 -64.71186 
L 131.763335 -64.679884 
L 130.560137 -64.637248 
L 129.356939 -64.637248 
L 128.153741 -64.687878 
L 126.950544 -63.486085 
L 125.747346 -63.603333 
L 124.544148 -63.518062 
L 123.34095 -63.486085 
L 122.137752 -62.665349 
L 120.934555 -63.518062 
L 119.731357 -62.838556 
L 118.528159 -63.475426 
L 117.324961 -63.518062 
L 116.121763 -62.891851 
L 114.918566 -63.475426 
L 113.715368 -63.44345 
L 112.51217 -62.598731 
L 111.308972 -63.432791 
L 110.105774 -63.432791 
L 108.902577 -63.304884 
L 107.699379 -62.670678 
L 106.496181 -62.473488 
L 105.292983 -62.473488 
L 104.089785 -62.473488 
L 102.886587 -62.473488 
L 101.68339 -62.473488 
L 100.480192 -62.473488 
L 99.276994 -62.473488 
L 98.073796 -62.473488 
L 96.870598 -62.161715 
L 95.667401 -62.417529 
L 94.464203 -62.079109 
L 93.261005 -62.079109 
L 92.057807 -62.079109 
L 90.854609 -62.079109 
L 89.651412 -61.996502 
L 88.448214 -61.897907 
L 87.245016 -61.801977 
L 86.041818 -61.772665 
z
" style="stroke: #dd8452; stroke-opacity: 0.2"/>
    </defs>
    <g clip-path="url(#p78581b4ce8)">
     <use xlink:href="#m9cb30633e2" x="0" y="360" style="fill: #dd8452; fill-opacity: 0.2; stroke: #dd8452; stroke-opacity: 0.2"/>
    </g>
   </g>
   <g id="PolyCollection_3">
    <defs>
     <path id="mdbacccf335" d="M 86.041818 -61.780659 
L 86.041818 -61.77 
L 87.245016 -61.777994 
L 88.448214 -61.823295 
L 89.651412 -61.929884 
L 90.854609 -61.929884 
L 92.057807 -62.089767 
L 93.261005 -62.148391 
L 94.464203 -62.228333 
L 95.667401 -62.270969 
L 96.870598 -62.420194 
L 98.073796 -62.420194 
L 99.276994 -62.420194 
L 100.480192 -62.420194 
L 101.68339 -62.420194 
L 102.886587 -62.436182 
L 104.089785 -62.665349 
L 105.292983 -62.420194 
L 106.496181 -62.478818 
L 107.699379 -62.420194 
L 108.902577 -62.420194 
L 110.105774 -62.420194 
L 111.308972 -62.444176 
L 112.51217 -62.420194 
L 113.715368 -62.420194 
L 114.918566 -62.420194 
L 116.121763 -62.636037 
L 117.324961 -62.420194 
L 118.528159 -62.420194 
L 119.731357 -62.420194 
L 120.934555 -62.420194 
L 122.137752 -62.420194 
L 123.34095 -62.420194 
L 124.544148 -62.420194 
L 125.747346 -62.420194 
L 126.950544 -62.420194 
L 128.153741 -62.420194 
L 129.356939 -62.420194 
L 130.560137 -62.420194 
L 131.763335 -62.420194 
L 132.966533 -62.420194 
L 134.16973 -62.420194 
L 135.372928 -62.420194 
L 136.576126 -62.420194 
L 137.779324 -62.420194 
L 138.982522 -62.420194 
L 140.18572 -62.420194 
L 141.388917 -62.420194 
L 142.592115 -62.420194 
L 143.795313 -62.420194 
L 144.998511 -62.420194 
L 146.201709 -62.420194 
L 147.404906 -62.420194 
L 148.608104 -62.420194 
L 149.811302 -62.420194 
L 151.0145 -62.420194 
L 152.217698 -62.420194 
L 153.420895 -62.420194 
L 154.624093 -62.420194 
L 155.827291 -62.420194 
L 157.030489 -62.420194 
L 158.233687 -62.420194 
L 159.436884 -62.420194 
L 160.640082 -62.420194 
L 161.84328 -62.420194 
L 163.046478 -62.715979 
L 164.249676 -62.420194 
L 165.452873 -62.420194 
L 166.656071 -62.420194 
L 167.859269 -62.420194 
L 169.062467 -62.420194 
L 170.265665 -62.870533 
L 171.468862 -62.420194 
L 172.67206 -62.420194 
L 173.875258 -62.420194 
L 175.078456 -62.420194 
L 176.281654 -62.428188 
L 177.484852 -62.420194 
L 178.688049 -62.867868 
L 179.891247 -62.420194 
L 181.094445 -62.867868 
L 182.297643 -62.867868 
L 183.500841 -62.867868 
L 184.704038 -62.867868 
L 185.907236 -62.867868 
L 187.110434 -62.867868 
L 188.313632 -62.867868 
L 189.51683 -62.867868 
L 190.720027 -62.867868 
L 191.923225 -62.867868 
L 193.126423 -62.867868 
L 194.329621 -62.867868 
L 195.532819 -62.867868 
L 196.736016 -63.208953 
L 197.939214 -62.867868 
L 199.142412 -63.208953 
L 200.34561 -63.019758 
L 201.548808 -62.867868 
L 202.752005 -63.123682 
L 203.955203 -62.867868 
L 205.158401 -63.107694 
L 206.361599 -63.123682 
L 207.564797 -63.123682 
L 208.767995 -62.867868 
L 209.971192 -63.019758 
L 211.17439 -63.019758 
L 212.377588 -63.107694 
L 213.580786 -62.867868 
L 214.783984 -62.867868 
L 215.987181 -62.867868 
L 217.190379 -63.208953 
L 218.393577 -63.123682 
L 219.596775 -63.123682 
L 220.799973 -63.123682 
L 222.00317 -63.208953 
L 223.206368 -62.867868 
L 224.409566 -62.867868 
L 225.612764 -63.107694 
L 226.815962 -63.107694 
L 228.019159 -62.867868 
L 229.222357 -62.867868 
L 230.425555 -62.867868 
L 231.628753 -62.867868 
L 232.831951 -63.107694 
L 234.035148 -62.867868 
L 235.238346 -62.867868 
L 236.441544 -62.867868 
L 237.644742 -62.867868 
L 238.84794 -62.867868 
L 240.051138 -62.867868 
L 241.254335 -62.867868 
L 242.457533 -62.867868 
L 243.660731 -62.995775 
L 244.863929 -62.867868 
L 246.067127 -63.187636 
L 247.270324 -62.867868 
L 248.473522 -63.208953 
L 249.67672 -63.208953 
L 250.879918 -63.208953 
L 252.083116 -63.216948 
L 253.286313 -63.272907 
L 254.489511 -63.283566 
L 255.692709 -63.283566 
L 256.895907 -63.283566 
L 258.099105 -63.283566 
L 259.302302 -63.283566 
L 260.5055 -63.603333 
L 261.708698 -63.283566 
L 262.911896 -63.283566 
L 264.115094 -63.283566 
L 265.318291 -63.709922 
L 266.521489 -63.709922 
L 267.724687 -63.29156 
L 268.927885 -63.611328 
L 270.131083 -63.605998 
L 271.33428 -63.29156 
L 272.537478 -63.605998 
L 273.740676 -63.283566 
L 274.943874 -63.709922 
L 276.147072 -63.709922 
L 277.35027 -63.709922 
L 278.553467 -63.283566 
L 279.756665 -63.283566 
L 280.959863 -63.307548 
L 282.163061 -63.283566 
L 283.366259 -63.283566 
L 284.569456 -63.283566 
L 285.772654 -63.283566 
L 286.975852 -63.283566 
L 288.17905 -63.283566 
L 289.382248 -63.283566 
L 290.585445 -63.283566 
L 291.788643 -63.283566 
L 292.991841 -63.283566 
L 294.195039 -63.283566 
L 295.398237 -63.283566 
L 296.601434 -63.283566 
L 297.804632 -63.283566 
L 299.00783 -63.283566 
L 300.211028 -63.709922 
L 301.414226 -63.283566 
L 302.617423 -63.283566 
L 303.820621 -63.29156 
L 305.023819 -63.283566 
L 306.227017 -63.294225 
L 307.430215 -63.283566 
L 308.633413 -63.294225 
L 309.83661 -63.283566 
L 311.039808 -63.283566 
L 312.243006 -63.701928 
L 313.446204 -63.283566 
L 314.649402 -63.283566 
L 315.852599 -63.283566 
L 317.055797 -63.283566 
L 318.258995 -63.283566 
L 319.462193 -63.283566 
L 320.665391 -63.307548 
L 321.868588 -63.283566 
L 323.071786 -63.605998 
L 324.274984 -63.283566 
L 325.478182 -63.29156 
L 325.478182 -75.392093 
L 325.478182 -75.392093 
L 324.274984 -75.392093 
L 323.071786 -75.583953 
L 321.868588 -75.583953 
L 320.665391 -75.392093 
L 319.462193 -75.392093 
L 318.258995 -75.392093 
L 317.055797 -75.583953 
L 315.852599 -75.440058 
L 314.649402 -75.583953 
L 313.446204 -75.583953 
L 312.243006 -75.775814 
L 311.039808 -75.583953 
L 309.83661 -75.583953 
L 308.633413 -75.583953 
L 307.430215 -75.583953 
L 306.227017 -75.583953 
L 305.023819 -75.440058 
L 303.820621 -75.775814 
L 302.617423 -75.440058 
L 301.414226 -75.583953 
L 300.211028 -75.583953 
L 299.00783 -75.583953 
L 297.804632 -75.583953 
L 296.601434 -75.583953 
L 295.398237 -75.583953 
L 294.195039 -75.583953 
L 292.991841 -75.583953 
L 291.788643 -75.583953 
L 290.585445 -75.583953 
L 289.382248 -75.583953 
L 288.17905 -75.583953 
L 286.975852 -75.583953 
L 285.772654 -75.583953 
L 284.569456 -75.583953 
L 283.366259 -75.583953 
L 282.163061 -75.583953 
L 280.959863 -75.631919 
L 279.756665 -75.583953 
L 278.553467 -75.583953 
L 277.35027 -75.583953 
L 276.147072 -75.583953 
L 274.943874 -75.775814 
L 273.740676 -75.583953 
L 272.537478 -75.583953 
L 271.33428 -75.583953 
L 270.131083 -75.583953 
L 268.927885 -75.583953 
L 267.724687 -75.583953 
L 266.521489 -75.583953 
L 265.318291 -75.583953 
L 264.115094 -75.583953 
L 262.911896 -75.440058 
L 261.708698 -75.440058 
L 260.5055 -75.583953 
L 259.302302 -75.583953 
L 258.099105 -75.583953 
L 256.895907 -75.583953 
L 255.692709 -75.392093 
L 254.489511 -75.583953 
L 253.286313 -75.583953 
L 252.083116 -75.392093 
L 250.879918 -75.583953 
L 249.67672 -75.583953 
L 248.473522 -75.392093 
L 247.270324 -75.392093 
L 246.067127 -75.583953 
L 244.863929 -75.583953 
L 243.660731 -75.583953 
L 242.457533 -75.583953 
L 241.254335 -75.392093 
L 240.051138 -75.392093 
L 238.84794 -75.392093 
L 237.644742 -75.440058 
L 236.441544 -75.583953 
L 235.238346 -75.583953 
L 234.035148 -75.392093 
L 232.831951 -75.583953 
L 231.628753 -75.583953 
L 230.425555 -75.440058 
L 229.222357 -75.583953 
L 228.019159 -75.583953 
L 226.815962 -75.583953 
L 225.612764 -75.583953 
L 224.409566 -75.583953 
L 223.206368 -75.775814 
L 222.00317 -75.775814 
L 220.799973 -75.583953 
L 219.596775 -75.583953 
L 218.393577 -75.583953 
L 217.190379 -75.631919 
L 215.987181 -75.392093 
L 214.783984 -75.583953 
L 213.580786 -75.583953 
L 212.377588 -75.583953 
L 211.17439 -75.583953 
L 209.971192 -75.583953 
L 208.767995 -75.583953 
L 207.564797 -75.631919 
L 206.361599 -75.775814 
L 205.158401 -75.631919 
L 203.955203 -75.583953 
L 202.752005 -75.583953 
L 201.548808 -75.392093 
L 200.34561 -75.440058 
L 199.142412 -75.583953 
L 197.939214 -75.392093 
L 196.736016 -75.583953 
L 195.532819 -75.583953 
L 194.329621 -75.583953 
L 193.126423 -75.583953 
L 191.923225 -75.583953 
L 190.720027 -75.583953 
L 189.51683 -75.583953 
L 188.313632 -75.583953 
L 187.110434 -75.775814 
L 185.907236 -75.583953 
L 184.704038 -75.583953 
L 183.500841 -75.392093 
L 182.297643 -75.583953 
L 181.094445 -75.583953 
L 179.891247 -75.583953 
L 178.688049 -75.583953 
L 177.484852 -75.775814 
L 176.281654 -75.583953 
L 175.078456 -75.775814 
L 173.875258 -75.583953 
L 172.67206 -75.392093 
L 171.468862 -66.108178 
L 170.265665 -66.108178 
L 169.062467 -66.108178 
L 167.859269 -66.108178 
L 166.656071 -66.108178 
L 165.452873 -66.108178 
L 164.249676 -66.108178 
L 163.046478 -66.108178 
L 161.84328 -66.108178 
L 160.640082 -66.108178 
L 159.436884 -66.108178 
L 158.233687 -66.108178 
L 157.030489 -66.108178 
L 155.827291 -66.108178 
L 154.624093 -66.108178 
L 153.420895 -66.108178 
L 152.217698 -66.108178 
L 151.0145 -66.108178 
L 149.811302 -66.108178 
L 148.608104 -66.108178 
L 147.404906 -66.022907 
L 146.201709 -66.022907 
L 144.998511 -66.108178 
L 143.795313 -66.108178 
L 142.592115 -66.108178 
L 141.388917 -66.108178 
L 140.18572 -66.108178 
L 138.982522 -66.022907 
L 137.779324 -66.022907 
L 136.576126 -66.108178 
L 135.372928 -66.108178 
L 134.16973 -66.108178 
L 132.966533 -66.108178 
L 131.763335 -66.108178 
L 130.560137 -66.108178 
L 129.356939 -66.108178 
L 128.153741 -66.022907 
L 126.950544 -66.108178 
L 125.747346 -66.022907 
L 124.544148 -66.108178 
L 123.34095 -66.108178 
L 122.137752 -66.108178 
L 120.934555 -66.108178 
L 119.731357 -66.108178 
L 118.528159 -66.022907 
L 117.324961 -66.108178 
L 116.121763 -66.108178 
L 114.918566 -66.044225 
L 113.715368 -66.044225 
L 112.51217 -66.022907 
L 111.308972 -66.022907 
L 110.105774 -66.022907 
L 108.902577 -66.022907 
L 107.699379 -66.044225 
L 106.496181 -66.022907 
L 105.292983 -66.022907 
L 104.089785 -66.022907 
L 102.886587 -64.661231 
L 101.68339 -64.647907 
L 100.480192 -64.647907 
L 99.276994 -64.647907 
L 98.073796 -64.647907 
L 96.870598 -64.647907 
L 95.667401 -64.232209 
L 94.464203 -62.753285 
L 93.261005 -62.665349 
L 92.057807 -62.665349 
L 90.854609 -62.665349 
L 89.651412 -62.665349 
L 88.448214 -62.590736 
L 87.245016 -62.057791 
L 86.041818 -61.780659 
z
" style="stroke: #55a868; stroke-opacity: 0.2"/>
    </defs>
    <g clip-path="url(#p78581b4ce8)">
     <use xlink:href="#mdbacccf335" x="0" y="360" style="fill: #55a868; fill-opacity: 0.2; stroke: #55a868; stroke-opacity: 0.2"/>
    </g>
   </g>
   <g id="PolyCollection_4">
    <defs>
     <path id="mb45db74e6b" d="M 86.041818 -61.780659 
L 86.041818 -61.77 
L 87.245016 -61.77 
L 88.448214 -61.780659 
L 89.651412 -61.801977 
L 90.854609 -61.833953 
L 92.057807 -61.844612 
L 93.261005 -61.841948 
L 94.464203 -61.855271 
L 95.667401 -61.873924 
L 96.870598 -61.919225 
L 98.073796 -61.980514 
L 99.276994 -61.993837 
L 100.480192 -62.01249 
L 101.68339 -61.972519 
L 102.886587 -62.023149 
L 104.089785 -61.983178 
L 105.292983 -62.023149 
L 106.496181 -61.988508 
L 107.699379 -62.001831 
L 108.902577 -61.937878 
L 110.105774 -61.940543 
L 111.308972 -61.927219 
L 112.51217 -61.929884 
L 113.715368 -61.929884 
L 114.918566 -61.929884 
L 116.121763 -61.919225 
L 117.324961 -61.948537 
L 118.528159 -61.919225 
L 119.731357 -61.905901 
L 120.934555 -61.905901 
L 122.137752 -61.919225 
L 123.34095 -61.908566 
L 124.544148 -61.919225 
L 125.747346 -61.876589 
L 126.950544 -61.908566 
L 128.153741 -61.887248 
L 129.356939 -61.86593 
L 130.560137 -61.887248 
L 131.763335 -61.887248 
L 132.966533 -61.887248 
L 134.16973 -61.86593 
L 135.372928 -61.86593 
L 136.576126 -61.86593 
L 137.779324 -61.86593 
L 138.982522 -61.855271 
L 140.18572 -61.855271 
L 141.388917 -61.833953 
L 142.592115 -61.844612 
L 143.795313 -61.844612 
L 144.998511 -61.855271 
L 146.201709 -61.841948 
L 147.404906 -61.844612 
L 148.608104 -61.833953 
L 149.811302 -61.833953 
L 151.0145 -61.833953 
L 152.217698 -61.833953 
L 153.420895 -61.823295 
L 154.624093 -61.823295 
L 155.827291 -61.823295 
L 157.030489 -61.823295 
L 158.233687 -61.823295 
L 159.436884 -61.823295 
L 160.640082 -61.823295 
L 161.84328 -61.833953 
L 163.046478 -61.82063 
L 164.249676 -61.812636 
L 165.452873 -61.823295 
L 166.656071 -61.82063 
L 167.859269 -61.823295 
L 169.062467 -61.812636 
L 170.265665 -61.812636 
L 171.468862 -61.812636 
L 172.67206 -61.812636 
L 173.875258 -61.801977 
L 175.078456 -61.812636 
L 176.281654 -61.812636 
L 177.484852 -61.812636 
L 178.688049 -61.812636 
L 179.891247 -61.801977 
L 181.094445 -61.801977 
L 182.297643 -61.801977 
L 183.500841 -61.801977 
L 184.704038 -61.801977 
L 185.907236 -61.801977 
L 187.110434 -61.801977 
L 188.313632 -61.801977 
L 189.51683 -61.801977 
L 190.720027 -61.801977 
L 191.923225 -61.801977 
L 193.126423 -61.812636 
L 194.329621 -61.812636 
L 195.532819 -61.812636 
L 196.736016 -61.812636 
L 197.939214 -61.812636 
L 199.142412 -61.801977 
L 200.34561 -61.801977 
L 201.548808 -61.801977 
L 202.752005 -61.801977 
L 203.955203 -61.801977 
L 205.158401 -61.801977 
L 206.361599 -61.801977 
L 207.564797 -61.799312 
L 208.767995 -61.801977 
L 209.971192 -61.801977 
L 211.17439 -61.801977 
L 212.377588 -61.812636 
L 213.580786 -61.801977 
L 214.783984 -61.812636 
L 215.987181 -61.812636 
L 217.190379 -61.812636 
L 218.393577 -61.844612 
L 219.596775 -61.812636 
L 220.799973 -61.812636 
L 222.00317 -61.801977 
L 223.206368 -61.823295 
L 224.409566 -61.82063 
L 225.612764 -61.844612 
L 226.815962 -61.823295 
L 228.019159 -61.812636 
L 229.222357 -61.82063 
L 230.425555 -61.833953 
L 231.628753 -61.801977 
L 232.831951 -61.812636 
L 234.035148 -61.801977 
L 235.238346 -61.823295 
L 236.441544 -61.812636 
L 237.644742 -61.812636 
L 238.84794 -61.82063 
L 240.051138 -61.809971 
L 241.254335 -61.801977 
L 242.457533 -61.801977 
L 243.660731 -61.812636 
L 244.863929 -61.801977 
L 246.067127 -61.812636 
L 247.270324 -61.82063 
L 248.473522 -61.801977 
L 249.67672 -61.801977 
L 250.879918 -61.801977 
L 252.083116 -61.823295 
L 253.286313 -61.801977 
L 254.489511 -61.897907 
L 255.692709 -61.932548 
L 256.895907 -62.089767 
L 258.099105 -62.089767 
L 259.302302 -62.089767 
L 260.5055 -61.972519 
L 261.708698 -62.089767 
L 262.911896 -62.089767 
L 264.115094 -62.516124 
L 265.318291 -62.516124 
L 266.521489 -62.516124 
L 267.724687 -62.516124 
L 268.927885 -62.516124 
L 270.131083 -62.516124 
L 271.33428 -62.516124 
L 272.537478 -62.516124 
L 273.740676 -62.516124 
L 274.943874 -62.516124 
L 276.147072 -62.516124 
L 277.35027 -62.516124 
L 278.553467 -62.516124 
L 279.756665 -62.516124 
L 280.959863 -62.516124 
L 282.163061 -62.473488 
L 283.366259 -62.516124 
L 284.569456 -62.516124 
L 285.772654 -62.516124 
L 286.975852 -62.516124 
L 288.17905 -62.516124 
L 289.382248 -62.516124 
L 290.585445 -62.516124 
L 291.788643 -62.516124 
L 292.991841 -62.516124 
L 294.195039 -62.516124 
L 295.398237 -62.516124 
L 296.601434 -62.516124 
L 297.804632 -62.516124 
L 299.00783 -62.516124 
L 300.211028 -62.516124 
L 301.414226 -62.516124 
L 302.617423 -62.516124 
L 303.820621 -62.516124 
L 305.023819 -62.516124 
L 306.227017 -62.516124 
L 307.430215 -62.516124 
L 308.633413 -62.516124 
L 309.83661 -62.516124 
L 311.039808 -62.516124 
L 312.243006 -62.516124 
L 313.446204 -62.516124 
L 314.649402 -62.486812 
L 315.852599 -62.516124 
L 317.055797 -62.516124 
L 318.258995 -62.516124 
L 319.462193 -62.516124 
L 320.665391 -62.516124 
L 321.868588 -62.516124 
L 323.071786 -62.516124 
L 324.274984 -62.516124 
L 325.478182 -62.516124 
L 325.478182 -63.976395 
L 325.478182 -63.976395 
L 324.274984 -63.976395 
L 323.071786 -63.976395 
L 321.868588 -63.976395 
L 320.665391 -63.976395 
L 319.462193 -63.976395 
L 318.258995 -63.976395 
L 317.055797 -63.976395 
L 315.852599 -63.976395 
L 314.649402 -63.976395 
L 313.446204 -63.976395 
L 312.243006 -63.976395 
L 311.039808 -63.976395 
L 309.83661 -63.976395 
L 308.633413 -63.976395 
L 307.430215 -63.976395 
L 306.227017 -63.976395 
L 305.023819 -63.976395 
L 303.820621 -63.976395 
L 302.617423 -63.976395 
L 301.414226 -63.976395 
L 300.211028 -63.976395 
L 299.00783 -63.976395 
L 297.804632 -63.976395 
L 296.601434 -63.976395 
L 295.398237 -63.976395 
L 294.195039 -63.976395 
L 292.991841 -63.976395 
L 291.788643 -63.976395 
L 290.585445 -63.976395 
L 289.382248 -63.976395 
L 288.17905 -63.976395 
L 286.975852 -63.976395 
L 285.772654 -63.976395 
L 284.569456 -63.976395 
L 283.366259 -63.976395 
L 282.163061 -63.976395 
L 280.959863 -63.976395 
L 279.756665 -63.976395 
L 278.553467 -63.976395 
L 277.35027 -63.976395 
L 276.147072 -63.976395 
L 274.943874 -63.976395 
L 273.740676 -63.976395 
L 272.537478 -63.976395 
L 271.33428 -63.976395 
L 270.131083 -63.976395 
L 268.927885 -63.976395 
L 267.724687 -63.976395 
L 266.521489 -63.976395 
L 265.318291 -63.976395 
L 264.115094 -63.976395 
L 262.911896 -62.771938 
L 261.708698 -62.771938 
L 260.5055 -62.771938 
L 259.302302 -62.771938 
L 258.099105 -62.771938 
L 256.895907 -62.771938 
L 255.692709 -62.771938 
L 254.489511 -62.771938 
L 253.286313 -62.771938 
L 252.083116 -62.771938 
L 250.879918 -62.771938 
L 249.67672 -62.771938 
L 248.473522 -62.771938 
L 247.270324 -62.771938 
L 246.067127 -62.771938 
L 244.863929 -62.771938 
L 243.660731 -62.771938 
L 242.457533 -62.771938 
L 241.254335 -62.771938 
L 240.051138 -62.771938 
L 238.84794 -62.771938 
L 237.644742 -62.771938 
L 236.441544 -62.771938 
L 235.238346 -62.771938 
L 234.035148 -62.771938 
L 232.831951 -62.771938 
L 231.628753 -62.771938 
L 230.425555 -62.771938 
L 229.222357 -62.771938 
L 228.019159 -62.771938 
L 226.815962 -62.771938 
L 225.612764 -62.771938 
L 224.409566 -62.771938 
L 223.206368 -62.771938 
L 222.00317 -62.771938 
L 220.799973 -62.771938 
L 219.596775 -62.771938 
L 218.393577 -62.771938 
L 217.190379 -62.771938 
L 215.987181 -62.771938 
L 214.783984 -62.771938 
L 213.580786 -62.537442 
L 212.377588 -62.537442 
L 211.17439 -62.521453 
L 209.971192 -62.516124 
L 208.767995 -62.396211 
L 207.564797 -62.302946 
L 206.361599 -62.302946 
L 205.158401 -62.302946 
L 203.955203 -62.302946 
L 202.752005 -62.302946 
L 201.548808 -62.302946 
L 200.34561 -62.294952 
L 199.142412 -62.292287 
L 197.939214 -62.292287 
L 196.736016 -62.294952 
L 195.532819 -62.292287 
L 194.329621 -62.292287 
L 193.126423 -62.292287 
L 191.923225 -62.292287 
L 190.720027 -62.292287 
L 189.51683 -62.292287 
L 188.313632 -62.294952 
L 187.110434 -62.292287 
L 185.907236 -62.292287 
L 184.704038 -62.292287 
L 183.500841 -62.292287 
L 182.297643 -62.292287 
L 181.094445 -62.292287 
L 179.891247 -62.292287 
L 178.688049 -62.292287 
L 177.484852 -62.292287 
L 176.281654 -62.292287 
L 175.078456 -62.292287 
L 173.875258 -62.292287 
L 172.67206 -62.292287 
L 171.468862 -62.292287 
L 170.265665 -62.292287 
L 169.062467 -62.292287 
L 167.859269 -62.292287 
L 166.656071 -62.292287 
L 165.452873 -62.292287 
L 164.249676 -62.292287 
L 163.046478 -62.292287 
L 161.84328 -62.292287 
L 160.640082 -62.292287 
L 159.436884 -62.292287 
L 158.233687 -62.292287 
L 157.030489 -62.292287 
L 155.827291 -62.292287 
L 154.624093 -62.292287 
L 153.420895 -62.292287 
L 152.217698 -62.292287 
L 151.0145 -62.292287 
L 149.811302 -62.292287 
L 148.608104 -62.292287 
L 147.404906 -62.292287 
L 146.201709 -62.292287 
L 144.998511 -62.292287 
L 143.795313 -62.324264 
L 142.592115 -62.292287 
L 141.388917 -62.292287 
L 140.18572 -62.300281 
L 138.982522 -62.292287 
L 137.779324 -62.324264 
L 136.576126 -62.324264 
L 135.372928 -62.292287 
L 134.16973 -62.324264 
L 132.966533 -62.473488 
L 131.763335 -62.476153 
L 130.560137 -62.292287 
L 129.356939 -62.388217 
L 128.153741 -62.676008 
L 126.950544 -62.90251 
L 125.747346 -62.676008 
L 124.544148 -62.814574 
L 123.34095 -62.766609 
L 122.137752 -62.691996 
L 120.934555 -62.742626 
L 119.731357 -62.894516 
L 118.528159 -63.038411 
L 117.324961 -63.152994 
L 116.121763 -62.934486 
L 114.918566 -63.09437 
L 113.715368 -63.771211 
L 112.51217 -63.073052 
L 111.308972 -63.611328 
L 110.105774 -63.054399 
L 108.902577 -63.355514 
L 107.699379 -65.044952 
L 106.496181 -65.260795 
L 105.292983 -63.947083 
L 104.089785 -63.376831 
L 102.886587 -63.475426 
L 101.68339 -63.611328 
L 100.480192 -62.524118 
L 99.276994 -62.859874 
L 98.073796 -62.449506 
L 96.870598 -62.542771 
L 95.667401 -62.313605 
L 94.464203 -62.358905 
L 93.261005 -62.337587 
L 92.057807 -62.313605 
L 90.854609 -62.292287 
L 89.651412 -62.001831 
L 88.448214 -61.833953 
L 87.245016 -61.812636 
L 86.041818 -61.780659 
z
" style="stroke: #c44e52; stroke-opacity: 0.2"/>
    </defs>
    <g clip-path="url(#p78581b4ce8)">
     <use xlink:href="#mb45db74e6b" x="0" y="360" style="fill: #c44e52; fill-opacity: 0.2; stroke: #c44e52; stroke-opacity: 0.2"/>
    </g>
   </g>
   <g id="line2d_11">
    <path d="M 86.041818 298.23 
L 88.448214 298.059457 
L 89.651412 297.867597 
L 90.854609 297.34531 
L 93.261005 297.34531 
L 94.464203 296.641822 
L 118.528159 296.641822 
L 120.934555 295.160233 
L 129.356939 295.160233 
L 130.560137 294.936395 
L 132.966533 294.840465 
L 171.468862 294.776512 
L 172.67206 292.740659 
L 173.875258 292.117112 
L 175.078456 291.301705 
L 197.939214 291.301705 
L 199.142412 290.502287 
L 203.955203 290.342403 
L 208.767995 290.448992 
L 274.943874 290.448992 
L 276.147072 290.614205 
L 277.35027 290.448992 
L 305.023819 290.342403 
L 306.227017 290.662171 
L 307.430215 290.448992 
L 315.852599 290.448992 
L 317.055797 290.854031 
L 318.258995 290.448992 
L 325.478182 290.502287 
L 325.478182 290.502287 
" clip-path="url(#p78581b4ce8)" style="fill: none; stroke: #4c72b0; stroke-width: 1.5; stroke-linecap: round"/>
   </g>
   <g id="line2d_12">
    <path d="M 86.041818 298.23 
L 114.918566 297.952868 
L 116.121763 298.080775 
L 117.324961 297.878256 
L 119.731357 297.968857 
L 120.934555 297.894244 
L 126.950544 298.086105 
L 128.153741 297.84095 
L 130.560137 297.926221 
L 131.763335 297.888915 
L 132.966533 298.011492 
L 141.388917 297.952868 
L 143.795313 298.048798 
L 146.201709 297.984845 
L 151.0145 298.016822 
L 153.420895 297.995504 
L 155.827291 298.000833 
L 157.030489 297.830291 
L 158.233687 297.808973 
L 160.640082 298.043469 
L 163.046478 297.942209 
L 164.249676 297.979516 
L 165.452873 297.883585 
L 166.656071 298.022151 
L 167.859269 297.84095 
L 169.062467 297.990174 
L 175.078456 297.750349 
L 176.281654 298.102093 
L 177.484852 298.12874 
L 178.688049 298.011492 
L 179.891247 297.601124 
L 181.094445 298.080775 
L 187.110434 298.139399 
L 188.313632 298.064787 
L 190.720027 298.118081 
L 193.126423 298.107422 
L 206.361599 298.070116 
L 207.564797 297.926221 
L 208.767995 298.155388 
L 214.783984 298.091434 
L 217.190379 298.059457 
L 219.596775 298.182035 
L 228.019159 298.054128 
L 229.222357 297.302674 
L 234.035148 297.228062 
L 270.131083 297.185426 
L 271.33428 296.236783 
L 273.740676 296.26343 
L 274.943874 297.068178 
L 276.147072 296.236783 
L 282.163061 296.236783 
L 284.569456 295.48 
L 286.975852 296.236783 
L 288.17905 296.258101 
L 289.382248 295.362752 
L 290.585445 295.821085 
L 291.788643 295.362752 
L 325.478182 295.362752 
L 325.478182 295.362752 
" clip-path="url(#p78581b4ce8)" style="fill: none; stroke: #dd8452; stroke-width: 1.5; stroke-linecap: round"/>
   </g>
   <g id="line2d_13">
    <path d="M 86.041818 298.23 
L 88.448214 298.027481 
L 90.854609 297.579806 
L 92.057807 297.44657 
L 98.073796 297.260039 
L 105.292983 297.238721 
L 125.747346 297.164109 
L 126.950544 296.620504 
L 128.153741 296.620504 
L 129.356939 296.130194 
L 146.201709 296.130194 
L 147.404906 296.748411 
L 148.608104 296.130194 
L 178.688049 296.130194 
L 179.891247 296.705775 
L 181.094445 296.130194 
L 185.907236 296.130194 
L 187.110434 295.362752 
L 188.313632 295.97031 
L 189.51683 295.362752 
L 190.720027 295.746473 
L 191.923225 296.252771 
L 193.126423 295.362752 
L 214.783984 295.362752 
L 215.987181 296.785717 
L 217.190379 295.362752 
L 296.601434 295.362752 
L 297.804632 295.666531 
L 299.00783 295.362752 
L 317.055797 295.362752 
L 318.258995 295.645213 
L 319.462193 295.362752 
L 325.478182 295.362752 
L 325.478182 295.362752 
" clip-path="url(#p78581b4ce8)" style="fill: none; stroke: #55a868; stroke-width: 1.5; stroke-linecap: round"/>
   </g>
   <g id="line2d_14">
    <path d="M 86.041818 298.23 
L 89.651412 298.166047 
L 92.057807 297.93155 
L 104.089785 297.707713 
L 113.715368 297.707713 
L 118.528159 297.707713 
L 124.544148 297.707713 
L 125.747346 297.867597 
L 126.950544 297.707713 
L 128.153741 297.910233 
L 129.356939 297.867597 
L 131.763335 297.915562 
L 137.779324 297.979516 
L 140.18572 298.048798 
L 142.592115 297.990174 
L 149.811302 298.107422 
L 154.624093 298.091434 
L 161.84328 298.112752 
L 175.078456 298.155388 
L 177.484852 298.144729 
L 195.532819 298.102093 
L 197.939214 298.006163 
L 200.34561 298.043469 
L 201.548808 297.984845 
L 202.752005 298.13407 
L 203.955203 297.984845 
L 205.158401 298.150058 
L 206.361599 298.075446 
L 207.564797 298.155388 
L 208.767995 298.054128 
L 209.971192 298.091434 
L 213.580786 297.579806 
L 215.987181 297.483876 
L 265.318291 297.430581 
L 266.521489 297.228062 
L 268.927885 297.339981 
L 270.131083 297.228062 
L 271.33428 297.430581 
L 273.740676 297.414593 
L 274.943874 297.228062 
L 276.147072 297.430581 
L 282.163061 297.403934 
L 283.366259 297.228062 
L 292.991841 297.228062 
L 294.195039 296.886977 
L 295.398237 296.897636 
L 296.601434 297.228062 
L 297.804632 296.886977 
L 299.00783 296.886977 
L 300.211028 297.228062 
L 301.414226 297.228062 
L 302.617423 296.95093 
L 303.820621 297.228062 
L 305.023819 296.886977 
L 306.227017 297.228062 
L 307.430215 296.886977 
L 309.83661 297.228062 
L 312.243006 296.902965 
L 313.446204 297.228062 
L 314.649402 297.228062 
L 315.852599 296.886977 
L 317.055797 297.057519 
L 319.462193 296.865659 
L 325.478182 296.865659 
L 325.478182 296.865659 
" clip-path="url(#p78581b4ce8)" style="fill: none; stroke: #c44e52; stroke-width: 1.5; stroke-linecap: round"/>
   </g>
   <g id="line2d_15"/>
   <g id="line2d_16"/>
   <g id="line2d_17"/>
   <g id="line2d_18"/>
   <g id="patch_3">
    <path d="M 74.07 309.78 
L 74.07 55.68 
" style="fill: none; stroke: #ffffff; stroke-width: 1.25; stroke-linejoin: miter; stroke-linecap: square"/>
   </g>
   <g id="patch_4">
    <path d="M 337.45 309.78 
L 337.45 55.68 
" style="fill: none; stroke: #ffffff; stroke-width: 1.25; stroke-linejoin: miter; stroke-linecap: square"/>
   </g>
   <g id="patch_5">
    <path d="M 74.07 309.78 
L 337.45 309.78 
" style="fill: none; stroke: #ffffff; stroke-width: 1.25; stroke-linejoin: miter; stroke-linecap: square"/>
   </g>
   <g id="patch_6">
    <path d="M 74.07 55.68 
L 337.45 55.68 
" style="fill: none; stroke: #ffffff; stroke-width: 1.25; stroke-linejoin: miter; stroke-linecap: square"/>
   </g>
   <g id="text_13">
    <!-- Median By Generation -->
    <g style="fill: #262626" transform="translate(138.982812 49.68)scale(0.12 -0.12)">
     <defs>
      <path id="DejaVuSans-4d" d="M 628 4666 
L 1569 4666 
L 2759 1491 
L 3956 4666 
L 4897 4666 
L 4897 0 
L 4281 0 
L 4281 4097 
L 3078 897 
L 2444 897 
L 1241 4097 
L 1241 0 
L 628 0 
L 628 4666 
z
" transform="scale(0.015625)"/>
      <path id="DejaVuSans-64" d="M 2906 2969 
L 2906 4863 
L 3481 4863 
L 3481 0 
L 2906 0 
L 2906 525 
Q 2725 213 2448 61 
Q 2172 -91 1784 -91 
Q 1150 -91 751 415 
Q 353 922 353 1747 
Q 353 2572 751 3078 
Q 1150 3584 1784 3584 
Q 2172 3584 2448 3432 
Q 2725 3281 2906 2969 
z
M 947 1747 
Q 947 1113 1208 752 
Q 1469 391 1925 391 
Q 2381 391 2643 752 
Q 2906 1113 2906 1747 
Q 2906 2381 2643 2742 
Q 2381 3103 1925 3103 
Q 1469 3103 1208 2742 
Q 947 2381 947 1747 
z
" transform="scale(0.015625)"/>
      <path id="DejaVuSans-20" transform="scale(0.015625)"/>
      <path id="DejaVuSans-42" d="M 1259 2228 
L 1259 519 
L 2272 519 
Q 2781 519 3026 730 
Q 3272 941 3272 1375 
Q 3272 1813 3026 2020 
Q 2781 2228 2272 2228 
L 1259 2228 
z
M 1259 4147 
L 1259 2741 
L 2194 2741 
Q 2656 2741 2882 2914 
Q 3109 3088 3109 3444 
Q 3109 3797 2882 3972 
Q 2656 4147 2194 4147 
L 1259 4147 
z
M 628 4666 
L 2241 4666 
Q 2963 4666 3353 4366 
Q 3744 4066 3744 3513 
Q 3744 3084 3544 2831 
Q 3344 2578 2956 2516 
Q 3422 2416 3680 2098 
Q 3938 1781 3938 1306 
Q 3938 681 3513 340 
Q 3088 0 2303 0 
L 628 0 
L 628 4666 
z
" transform="scale(0.015625)"/>
      <path id="DejaVuSans-79" d="M 2059 -325 
Q 1816 -950 1584 -1140 
Q 1353 -1331 966 -1331 
L 506 -1331 
L 506 -850 
L 844 -850 
Q 1081 -850 1212 -737 
Q 1344 -625 1503 -206 
L 1606 56 
L 191 3500 
L 800 3500 
L 1894 763 
L 2988 3500 
L 3597 3500 
L 2059 -325 
z
" transform="scale(0.015625)"/>
     </defs>
     <use xlink:href="#DejaVuSans-4d"/>
     <use xlink:href="#DejaVuSans-65" x="86.279297"/>
     <use xlink:href="#DejaVuSans-64" x="147.802734"/>
     <use xlink:href="#DejaVuSans-69" x="211.279297"/>
     <use xlink:href="#DejaVuSans-61" x="239.0625"/>
     <use xlink:href="#DejaVuSans-6e" x="300.341797"/>
     <use xlink:href="#DejaVuSans-20" x="363.720703"/>
     <use xlink:href="#DejaVuSans-42" x="395.507812"/>
     <use xlink:href="#DejaVuSans-79" x="464.111328"/>
     <use xlink:href="#DejaVuSans-20" x="523.291016"/>
     <use xlink:href="#DejaVuSans-47" x="555.078125"/>
     <use xlink:href="#DejaVuSans-65" x="632.568359"/>
     <use xlink:href="#DejaVuSans-6e" x="694.091797"/>
     <use xlink:href="#DejaVuSans-65" x="757.470703"/>
     <use xlink:href="#DejaVuSans-72" x="818.994141"/>
     <use xlink:href="#DejaVuSans-61" x="860.107422"/>
     <use xlink:href="#DejaVuSans-74" x="921.386719"/>
     <use xlink:href="#DejaVuSans-69" x="960.595703"/>
     <use xlink:href="#DejaVuSans-6f" x="988.378906"/>
     <use xlink:href="#DejaVuSans-6e" x="1049.560547"/>
    </g>
   </g>
   <g id="legend_1">
    <g id="text_14">
     <!-- GenomeConfig -->
     <g style="fill: #262626" transform="translate(383.545078 153.749375)scale(0.12 -0.12)">
      <defs>
       <path id="DejaVuSans-6d" d="M 3328 2828 
Q 3544 3216 3844 3400 
Q 4144 3584 4550 3584 
Q 5097 3584 5394 3201 
Q 5691 2819 5691 2113 
L 5691 0 
L 5113 0 
L 5113 2094 
Q 5113 2597 4934 2840 
Q 4756 3084 4391 3084 
Q 3944 3084 3684 2787 
Q 3425 2491 3425 1978 
L 3425 0 
L 2847 0 
L 2847 2094 
Q 2847 2600 2669 2842 
Q 2491 3084 2119 3084 
Q 1678 3084 1418 2786 
Q 1159 2488 1159 1978 
L 1159 0 
L 581 0 
L 581 3500 
L 1159 3500 
L 1159 2956 
Q 1356 3278 1631 3431 
Q 1906 3584 2284 3584 
Q 2666 3584 2933 3390 
Q 3200 3197 3328 2828 
z
" transform="scale(0.015625)"/>
       <path id="DejaVuSans-43" d="M 4122 4306 
L 4122 3641 
Q 3803 3938 3442 4084 
Q 3081 4231 2675 4231 
Q 1875 4231 1450 3742 
Q 1025 3253 1025 2328 
Q 1025 1406 1450 917 
Q 1875 428 2675 428 
Q 3081 428 3442 575 
Q 3803 722 4122 1019 
L 4122 359 
Q 3791 134 3420 21 
Q 3050 -91 2638 -91 
Q 1578 -91 968 557 
Q 359 1206 359 2328 
Q 359 3453 968 4101 
Q 1578 4750 2638 4750 
Q 3056 4750 3426 4639 
Q 3797 4528 4122 4306 
z
" transform="scale(0.015625)"/>
       <path id="DejaVuSans-66" d="M 2375 4863 
L 2375 4384 
L 1825 4384 
Q 1516 4384 1395 4259 
Q 1275 4134 1275 3809 
L 1275 3500 
L 2222 3500 
L 2222 3053 
L 1275 3053 
L 1275 0 
L 697 0 
L 697 3053 
L 147 3053 
L 147 3500 
L 697 3500 
L 697 3744 
Q 697 4328 969 4595 
Q 1241 4863 1831 4863 
L 2375 4863 
z
" transform="scale(0.015625)"/>
       <path id="DejaVuSans-67" d="M 2906 1791 
Q 2906 2416 2648 2759 
Q 2391 3103 1925 3103 
Q 1463 3103 1205 2759 
Q 947 2416 947 1791 
Q 947 1169 1205 825 
Q 1463 481 1925 481 
Q 2391 481 2648 825 
Q 2906 1169 2906 1791 
z
M 3481 434 
Q 3481 -459 3084 -895 
Q 2688 -1331 1869 -1331 
Q 1566 -1331 1297 -1286 
Q 1028 -1241 775 -1147 
L 775 -588 
Q 1028 -725 1275 -790 
Q 1522 -856 1778 -856 
Q 2344 -856 2625 -561 
Q 2906 -266 2906 331 
L 2906 616 
Q 2728 306 2450 153 
Q 2172 0 1784 0 
Q 1141 0 747 490 
Q 353 981 353 1791 
Q 353 2603 747 3093 
Q 1141 3584 1784 3584 
Q 2172 3584 2450 3431 
Q 2728 3278 2906 2969 
L 2906 3500 
L 3481 3500 
L 3481 434 
z
" transform="scale(0.015625)"/>
      </defs>
      <use xlink:href="#DejaVuSans-47"/>
      <use xlink:href="#DejaVuSans-65" x="77.490234"/>
      <use xlink:href="#DejaVuSans-6e" x="139.013672"/>
      <use xlink:href="#DejaVuSans-6f" x="202.392578"/>
      <use xlink:href="#DejaVuSans-6d" x="263.574219"/>
      <use xlink:href="#DejaVuSans-65" x="360.986328"/>
      <use xlink:href="#DejaVuSans-43" x="422.509766"/>
      <use xlink:href="#DejaVuSans-6f" x="492.333984"/>
      <use xlink:href="#DejaVuSans-6e" x="553.515625"/>
      <use xlink:href="#DejaVuSans-66" x="616.894531"/>
      <use xlink:href="#DejaVuSans-69" x="652.099609"/>
      <use xlink:href="#DejaVuSans-67" x="679.882812"/>
     </g>
    </g>
    <g id="line2d_19">
     <path d="M 347.35 166.253281 
L 358.35 166.253281 
L 369.35 166.253281 
" style="fill: none; stroke: #4c72b0; stroke-width: 1.5; stroke-linecap: round"/>
    </g>
    <g id="text_15">
     <!-- No Vector x Fine-Grain -->
     <g style="fill: #262626" transform="translate(378.15 170.103281)scale(0.11 -0.11)">
      <defs>
       <path id="DejaVuSans-4e" d="M 628 4666 
L 1478 4666 
L 3547 763 
L 3547 4666 
L 4159 4666 
L 4159 0 
L 3309 0 
L 1241 3903 
L 1241 0 
L 628 0 
L 628 4666 
z
" transform="scale(0.015625)"/>
       <path id="DejaVuSans-56" d="M 1831 0 
L 50 4666 
L 709 4666 
L 2188 738 
L 3669 4666 
L 4325 4666 
L 2547 0 
L 1831 0 
z
" transform="scale(0.015625)"/>
       <path id="DejaVuSans-63" d="M 3122 3366 
L 3122 2828 
Q 2878 2963 2633 3030 
Q 2388 3097 2138 3097 
Q 1578 3097 1268 2742 
Q 959 2388 959 1747 
Q 959 1106 1268 751 
Q 1578 397 2138 397 
Q 2388 397 2633 464 
Q 2878 531 3122 666 
L 3122 134 
Q 2881 22 2623 -34 
Q 2366 -91 2075 -91 
Q 1284 -91 818 406 
Q 353 903 353 1747 
Q 353 2603 823 3093 
Q 1294 3584 2113 3584 
Q 2378 3584 2631 3529 
Q 2884 3475 3122 3366 
z
" transform="scale(0.015625)"/>
       <path id="DejaVuSans-78" d="M 3513 3500 
L 2247 1797 
L 3578 0 
L 2900 0 
L 1881 1375 
L 863 0 
L 184 0 
L 1544 1831 
L 300 3500 
L 978 3500 
L 1906 2253 
L 2834 3500 
L 3513 3500 
z
" transform="scale(0.015625)"/>
       <path id="DejaVuSans-2d" d="M 313 2009 
L 1997 2009 
L 1997 1497 
L 313 1497 
L 313 2009 
z
" transform="scale(0.015625)"/>
      </defs>
      <use xlink:href="#DejaVuSans-4e"/>
      <use xlink:href="#DejaVuSans-6f" x="74.804688"/>
      <use xlink:href="#DejaVuSans-20" x="135.986328"/>
      <use xlink:href="#DejaVuSans-56" x="167.773438"/>
      <use xlink:href="#DejaVuSans-65" x="228.431641"/>
      <use xlink:href="#DejaVuSans-63" x="289.955078"/>
      <use xlink:href="#DejaVuSans-74" x="344.935547"/>
      <use xlink:href="#DejaVuSans-6f" x="384.144531"/>
      <use xlink:href="#DejaVuSans-72" x="445.326172"/>
      <use xlink:href="#DejaVuSans-20" x="486.439453"/>
      <use xlink:href="#DejaVuSans-78" x="518.226562"/>
      <use xlink:href="#DejaVuSans-20" x="577.40625"/>
      <use xlink:href="#DejaVuSans-46" x="609.193359"/>
      <use xlink:href="#DejaVuSans-69" x="659.462891"/>
      <use xlink:href="#DejaVuSans-6e" x="687.246094"/>
      <use xlink:href="#DejaVuSans-65" x="750.625"/>
      <use xlink:href="#DejaVuSans-2d" x="812.148438"/>
      <use xlink:href="#DejaVuSans-47" x="851.857422"/>
      <use xlink:href="#DejaVuSans-72" x="929.347656"/>
      <use xlink:href="#DejaVuSans-61" x="970.460938"/>
      <use xlink:href="#DejaVuSans-69" x="1031.740234"/>
      <use xlink:href="#DejaVuSans-6e" x="1059.523438"/>
     </g>
    </g>
    <g id="line2d_20">
     <path d="M 347.35 182.399219 
L 358.35 182.399219 
L 369.35 182.399219 
" style="fill: none; stroke: #dd8452; stroke-width: 1.5; stroke-linecap: round"/>
    </g>
    <g id="text_16">
     <!-- No Vector x Global Only -->
     <g style="fill: #262626" transform="translate(378.15 186.249219)scale(0.11 -0.11)">
      <defs>
       <path id="DejaVuSans-6c" d="M 603 4863 
L 1178 4863 
L 1178 0 
L 603 0 
L 603 4863 
z
" transform="scale(0.015625)"/>
       <path id="DejaVuSans-62" d="M 3116 1747 
Q 3116 2381 2855 2742 
Q 2594 3103 2138 3103 
Q 1681 3103 1420 2742 
Q 1159 2381 1159 1747 
Q 1159 1113 1420 752 
Q 1681 391 2138 391 
Q 2594 391 2855 752 
Q 3116 1113 3116 1747 
z
M 1159 2969 
Q 1341 3281 1617 3432 
Q 1894 3584 2278 3584 
Q 2916 3584 3314 3078 
Q 3713 2572 3713 1747 
Q 3713 922 3314 415 
Q 2916 -91 2278 -91 
Q 1894 -91 1617 61 
Q 1341 213 1159 525 
L 1159 0 
L 581 0 
L 581 4863 
L 1159 4863 
L 1159 2969 
z
" transform="scale(0.015625)"/>
       <path id="DejaVuSans-4f" d="M 2522 4238 
Q 1834 4238 1429 3725 
Q 1025 3213 1025 2328 
Q 1025 1447 1429 934 
Q 1834 422 2522 422 
Q 3209 422 3611 934 
Q 4013 1447 4013 2328 
Q 4013 3213 3611 3725 
Q 3209 4238 2522 4238 
z
M 2522 4750 
Q 3503 4750 4090 4092 
Q 4678 3434 4678 2328 
Q 4678 1225 4090 567 
Q 3503 -91 2522 -91 
Q 1538 -91 948 565 
Q 359 1222 359 2328 
Q 359 3434 948 4092 
Q 1538 4750 2522 4750 
z
" transform="scale(0.015625)"/>
      </defs>
      <use xlink:href="#DejaVuSans-4e"/>
      <use xlink:href="#DejaVuSans-6f" x="74.804688"/>
      <use xlink:href="#DejaVuSans-20" x="135.986328"/>
      <use xlink:href="#DejaVuSans-56" x="167.773438"/>
      <use xlink:href="#DejaVuSans-65" x="228.431641"/>
      <use xlink:href="#DejaVuSans-63" x="289.955078"/>
      <use xlink:href="#DejaVuSans-74" x="344.935547"/>
      <use xlink:href="#DejaVuSans-6f" x="384.144531"/>
      <use xlink:href="#DejaVuSans-72" x="445.326172"/>
      <use xlink:href="#DejaVuSans-20" x="486.439453"/>
      <use xlink:href="#DejaVuSans-78" x="518.226562"/>
      <use xlink:href="#DejaVuSans-20" x="577.40625"/>
      <use xlink:href="#DejaVuSans-47" x="609.193359"/>
      <use xlink:href="#DejaVuSans-6c" x="686.683594"/>
      <use xlink:href="#DejaVuSans-6f" x="714.466797"/>
      <use xlink:href="#DejaVuSans-62" x="775.648438"/>
      <use xlink:href="#DejaVuSans-61" x="839.125"/>
      <use xlink:href="#DejaVuSans-6c" x="900.404297"/>
      <use xlink:href="#DejaVuSans-20" x="928.1875"/>
      <use xlink:href="#DejaVuSans-4f" x="959.974609"/>
      <use xlink:href="#DejaVuSans-6e" x="1038.685547"/>
      <use xlink:href="#DejaVuSans-6c" x="1102.064453"/>
      <use xlink:href="#DejaVuSans-79" x="1129.847656"/>
     </g>
    </g>
    <g id="line2d_21">
     <path d="M 347.35 198.545156 
L 358.35 198.545156 
L 369.35 198.545156 
" style="fill: none; stroke: #55a868; stroke-width: 1.5; stroke-linecap: round"/>
    </g>
    <g id="text_17">
     <!-- Vector x Fine-Grain -->
     <g style="fill: #262626" transform="translate(378.15 202.395156)scale(0.11 -0.11)">
      <use xlink:href="#DejaVuSans-56"/>
      <use xlink:href="#DejaVuSans-65" x="60.658203"/>
      <use xlink:href="#DejaVuSans-63" x="122.181641"/>
      <use xlink:href="#DejaVuSans-74" x="177.162109"/>
      <use xlink:href="#DejaVuSans-6f" x="216.371094"/>
      <use xlink:href="#DejaVuSans-72" x="277.552734"/>
      <use xlink:href="#DejaVuSans-20" x="318.666016"/>
      <use xlink:href="#DejaVuSans-78" x="350.453125"/>
      <use xlink:href="#DejaVuSans-20" x="409.632812"/>
      <use xlink:href="#DejaVuSans-46" x="441.419922"/>
      <use xlink:href="#DejaVuSans-69" x="491.689453"/>
      <use xlink:href="#DejaVuSans-6e" x="519.472656"/>
      <use xlink:href="#DejaVuSans-65" x="582.851562"/>
      <use xlink:href="#DejaVuSans-2d" x="644.375"/>
      <use xlink:href="#DejaVuSans-47" x="684.083984"/>
      <use xlink:href="#DejaVuSans-72" x="761.574219"/>
      <use xlink:href="#DejaVuSans-61" x="802.6875"/>
      <use xlink:href="#DejaVuSans-69" x="863.966797"/>
      <use xlink:href="#DejaVuSans-6e" x="891.75"/>
     </g>
    </g>
    <g id="line2d_22">
     <path d="M 347.35 214.691094 
L 358.35 214.691094 
L 369.35 214.691094 
" style="fill: none; stroke: #c44e52; stroke-width: 1.5; stroke-linecap: round"/>
    </g>
    <g id="text_18">
     <!-- Vector x Global Only -->
     <g style="fill: #262626" transform="translate(378.15 218.541094)scale(0.11 -0.11)">
      <use xlink:href="#DejaVuSans-56"/>
      <use xlink:href="#DejaVuSans-65" x="60.658203"/>
      <use xlink:href="#DejaVuSans-63" x="122.181641"/>
      <use xlink:href="#DejaVuSans-74" x="177.162109"/>
      <use xlink:href="#DejaVuSans-6f" x="216.371094"/>
      <use xlink:href="#DejaVuSans-72" x="277.552734"/>
      <use xlink:href="#DejaVuSans-20" x="318.666016"/>
      <use xlink:href="#DejaVuSans-78" x="350.453125"/>
      <use xlink:href="#DejaVuSans-20" x="409.632812"/>
      <use xlink:href="#DejaVuSans-47" x="441.419922"/>
      <use xlink:href="#DejaVuSans-6c" x="518.910156"/>
      <use xlink:href="#DejaVuSans-6f" x="546.693359"/>
      <use xlink:href="#DejaVuSans-62" x="607.875"/>
      <use xlink:href="#DejaVuSans-61" x="671.351562"/>
      <use xlink:href="#DejaVuSans-6c" x="732.630859"/>
      <use xlink:href="#DejaVuSans-20" x="760.414062"/>
      <use xlink:href="#DejaVuSans-4f" x="792.201172"/>
      <use xlink:href="#DejaVuSans-6e" x="870.912109"/>
      <use xlink:href="#DejaVuSans-6c" x="934.291016"/>
      <use xlink:href="#DejaVuSans-79" x="962.074219"/>
     </g>
    </g>
   </g>
  </g>
  <g id="axes_2">
   <g id="patch_7">
    <path d="M 587.66 309.78 
L 851.04 309.78 
L 851.04 55.68 
L 587.66 55.68 
z
" style="fill: #eaeaf2"/>
   </g>
   <g id="matplotlib.axis_3">
    <g id="xtick_6"/>
    <g id="xtick_7"/>
    <g id="xtick_8"/>
    <g id="xtick_9"/>
    <g id="text_19">
     <!-- GenomeConfig -->
     <g style="fill: #262626" transform="translate(674.7475 332.398125)scale(0.12 -0.12)">
      <use xlink:href="#DejaVuSans-47"/>
      <use xlink:href="#DejaVuSans-65" x="77.490234"/>
      <use xlink:href="#DejaVuSans-6e" x="139.013672"/>
      <use xlink:href="#DejaVuSans-6f" x="202.392578"/>
      <use xlink:href="#DejaVuSans-6d" x="263.574219"/>
      <use xlink:href="#DejaVuSans-65" x="360.986328"/>
      <use xlink:href="#DejaVuSans-43" x="422.509766"/>
      <use xlink:href="#DejaVuSans-6f" x="492.333984"/>
      <use xlink:href="#DejaVuSans-6e" x="553.515625"/>
      <use xlink:href="#DejaVuSans-66" x="616.894531"/>
      <use xlink:href="#DejaVuSans-69" x="652.099609"/>
      <use xlink:href="#DejaVuSans-67" x="679.882812"/>
     </g>
    </g>
   </g>
   <g id="matplotlib.axis_4">
    <g id="ytick_6">
     <g id="line2d_23">
      <path d="M 587.66 298.23 
L 851.04 298.23 
" clip-path="url(#p36ea767ac7)" style="fill: none; stroke: #ffffff; stroke-linecap: round"/>
     </g>
     <g id="text_20">
      <!-- 0 -->
      <g style="fill: #262626" transform="translate(571.16125 302.409141)scale(0.11 -0.11)">
       <use xlink:href="#DejaVuSans-30"/>
      </g>
     </g>
    </g>
    <g id="ytick_7">
     <g id="line2d_24">
      <path d="M 587.66 244.935426 
L 851.04 244.935426 
" clip-path="url(#p36ea767ac7)" style="fill: none; stroke: #ffffff; stroke-linecap: round"/>
     </g>
     <g id="text_21">
      <!-- 5000 -->
      <g style="fill: #262626" transform="translate(550.165 249.114567)scale(0.11 -0.11)">
       <use xlink:href="#DejaVuSans-35"/>
       <use xlink:href="#DejaVuSans-30" x="63.623047"/>
       <use xlink:href="#DejaVuSans-30" x="127.246094"/>
       <use xlink:href="#DejaVuSans-30" x="190.869141"/>
      </g>
     </g>
    </g>
    <g id="ytick_8">
     <g id="line2d_25">
      <path d="M 587.66 191.640853 
L 851.04 191.640853 
" clip-path="url(#p36ea767ac7)" style="fill: none; stroke: #ffffff; stroke-linecap: round"/>
     </g>
     <g id="text_22">
      <!-- 10000 -->
      <g style="fill: #262626" transform="translate(543.16625 195.819993)scale(0.11 -0.11)">
       <use xlink:href="#DejaVuSans-31"/>
       <use xlink:href="#DejaVuSans-30" x="63.623047"/>
       <use xlink:href="#DejaVuSans-30" x="127.246094"/>
       <use xlink:href="#DejaVuSans-30" x="190.869141"/>
       <use xlink:href="#DejaVuSans-30" x="254.492188"/>
      </g>
     </g>
    </g>
    <g id="ytick_9">
     <g id="line2d_26">
      <path d="M 587.66 138.346279 
L 851.04 138.346279 
" clip-path="url(#p36ea767ac7)" style="fill: none; stroke: #ffffff; stroke-linecap: round"/>
     </g>
     <g id="text_23">
      <!-- 15000 -->
      <g style="fill: #262626" transform="translate(543.16625 142.52542)scale(0.11 -0.11)">
       <use xlink:href="#DejaVuSans-31"/>
       <use xlink:href="#DejaVuSans-35" x="63.623047"/>
       <use xlink:href="#DejaVuSans-30" x="127.246094"/>
       <use xlink:href="#DejaVuSans-30" x="190.869141"/>
       <use xlink:href="#DejaVuSans-30" x="254.492188"/>
      </g>
     </g>
    </g>
    <g id="ytick_10">
     <g id="line2d_27">
      <path d="M 587.66 85.051705 
L 851.04 85.051705 
" clip-path="url(#p36ea767ac7)" style="fill: none; stroke: #ffffff; stroke-linecap: round"/>
     </g>
     <g id="text_24">
      <!-- 20000 -->
      <g style="fill: #262626" transform="translate(543.16625 89.230846)scale(0.11 -0.11)">
       <use xlink:href="#DejaVuSans-32"/>
       <use xlink:href="#DejaVuSans-30" x="63.623047"/>
       <use xlink:href="#DejaVuSans-30" x="127.246094"/>
       <use xlink:href="#DejaVuSans-30" x="190.869141"/>
       <use xlink:href="#DejaVuSans-30" x="254.492188"/>
      </g>
     </g>
    </g>
    <g id="text_25">
     <!-- Fitness -->
     <g style="fill: #262626" transform="translate(536.670625 203.510625)rotate(-90)scale(0.12 -0.12)">
      <use xlink:href="#DejaVuSans-46"/>
      <use xlink:href="#DejaVuSans-69" x="50.269531"/>
      <use xlink:href="#DejaVuSans-74" x="78.052734"/>
      <use xlink:href="#DejaVuSans-6e" x="117.261719"/>
      <use xlink:href="#DejaVuSans-65" x="180.640625"/>
      <use xlink:href="#DejaVuSans-73" x="242.164062"/>
      <use xlink:href="#DejaVuSans-73" x="294.263672"/>
     </g>
    </g>
   </g>
   <g id="patch_8">
    <path d="M 594.2445 291.035233 
L 646.9205 291.035233 
L 646.9205 280.717403 
L 594.2445 280.717403 
L 594.2445 291.035233 
z
" clip-path="url(#p36ea767ac7)" style="fill: #5875a4; stroke: #4c4c4c; stroke-width: 1.5; stroke-linejoin: miter"/>
   </g>
   <g id="patch_9">
    <path d="M 660.0895 295.330775 
L 712.7655 295.330775 
L 712.7655 262.543953 
L 660.0895 262.543953 
L 660.0895 295.330775 
z
" clip-path="url(#p36ea767ac7)" style="fill: #cc8963; stroke: #4c4c4c; stroke-width: 1.5; stroke-linejoin: miter"/>
   </g>
   <g id="patch_10">
    <path d="M 725.9345 296.290078 
L 778.6105 296.290078 
L 778.6105 283.840465 
L 725.9345 283.840465 
L 725.9345 296.290078 
z
" clip-path="url(#p36ea767ac7)" style="fill: #5f9e6e; stroke: #4c4c4c; stroke-width: 1.5; stroke-linejoin: miter"/>
   </g>
   <g id="patch_11">
    <path d="M 791.7795 296.865659 
L 844.4555 296.865659 
L 844.4555 296.023605 
L 791.7795 296.023605 
L 791.7795 296.865659 
z
" clip-path="url(#p36ea767ac7)" style="fill: #b55d60; stroke: #4c4c4c; stroke-width: 1.5; stroke-linejoin: miter"/>
   </g>
   <g id="line2d_28">
    <path d="M 620.5825 291.035233 
L 620.5825 296.652481 
" clip-path="url(#p36ea767ac7)" style="fill: none; stroke: #4c4c4c; stroke-width: 1.5; stroke-linecap: round"/>
   </g>
   <g id="line2d_29">
    <path d="M 620.5825 280.717403 
L 620.5825 265.805581 
" clip-path="url(#p36ea767ac7)" style="fill: none; stroke: #4c4c4c; stroke-width: 1.5; stroke-linecap: round"/>
   </g>
   <g id="line2d_30">
    <path d="M 607.4135 296.652481 
L 633.7515 296.652481 
" clip-path="url(#p36ea767ac7)" style="fill: none; stroke: #4c4c4c; stroke-width: 1.5; stroke-linecap: round"/>
   </g>
   <g id="line2d_31">
    <path d="M 607.4135 265.805581 
L 633.7515 265.805581 
" clip-path="url(#p36ea767ac7)" style="fill: none; stroke: #4c4c4c; stroke-width: 1.5; stroke-linecap: round"/>
   </g>
   <g id="line2d_32"/>
   <g id="line2d_33">
    <path d="M 686.4275 295.330775 
L 686.4275 297.110814 
" clip-path="url(#p36ea767ac7)" style="fill: none; stroke: #4c4c4c; stroke-width: 1.5; stroke-linecap: round"/>
   </g>
   <g id="line2d_34">
    <path d="M 686.4275 262.543953 
L 686.4275 262.543953 
" clip-path="url(#p36ea767ac7)" style="fill: none; stroke: #4c4c4c; stroke-width: 1.5; stroke-linecap: round"/>
   </g>
   <g id="line2d_35">
    <path d="M 673.2585 297.110814 
L 699.5965 297.110814 
" clip-path="url(#p36ea767ac7)" style="fill: none; stroke: #4c4c4c; stroke-width: 1.5; stroke-linecap: round"/>
   </g>
   <g id="line2d_36">
    <path d="M 673.2585 262.543953 
L 699.5965 262.543953 
" clip-path="url(#p36ea767ac7)" style="fill: none; stroke: #4c4c4c; stroke-width: 1.5; stroke-linecap: round"/>
   </g>
   <g id="line2d_37">
    <defs>
     <path id="m80b1a447cb" d="M -0 3.535534 
L 2.12132 0 
L -0 -3.535534 
L -2.12132 -0 
z
" style="stroke: #4c4c4c; stroke-linejoin: miter"/>
    </defs>
    <g clip-path="url(#p36ea767ac7)">
     <use xlink:href="#m80b1a447cb" x="686.4275" y="67.23" style="fill: #4c4c4c; stroke: #4c4c4c; stroke-linejoin: miter"/>
    </g>
   </g>
   <g id="line2d_38">
    <path d="M 752.2725 296.290078 
L 752.2725 296.716434 
" clip-path="url(#p36ea767ac7)" style="fill: none; stroke: #4c4c4c; stroke-width: 1.5; stroke-linecap: round"/>
   </g>
   <g id="line2d_39">
    <path d="M 752.2725 283.840465 
L 752.2725 283.840465 
" clip-path="url(#p36ea767ac7)" style="fill: none; stroke: #4c4c4c; stroke-width: 1.5; stroke-linecap: round"/>
   </g>
   <g id="line2d_40">
    <path d="M 739.1035 296.716434 
L 765.4415 296.716434 
" clip-path="url(#p36ea767ac7)" style="fill: none; stroke: #4c4c4c; stroke-width: 1.5; stroke-linecap: round"/>
   </g>
   <g id="line2d_41">
    <path d="M 739.1035 283.840465 
L 765.4415 283.840465 
" clip-path="url(#p36ea767ac7)" style="fill: none; stroke: #4c4c4c; stroke-width: 1.5; stroke-linecap: round"/>
   </g>
   <g id="line2d_42">
    <g clip-path="url(#p36ea767ac7)">
     <use xlink:href="#m80b1a447cb" x="752.2725" y="136.843372" style="fill: #4c4c4c; stroke: #4c4c4c; stroke-linejoin: miter"/>
    </g>
   </g>
   <g id="line2d_43">
    <path d="M 818.1175 296.865659 
L 818.1175 297.483876 
" clip-path="url(#p36ea767ac7)" style="fill: none; stroke: #4c4c4c; stroke-width: 1.5; stroke-linecap: round"/>
   </g>
   <g id="line2d_44">
    <path d="M 818.1175 296.023605 
L 818.1175 296.023605 
" clip-path="url(#p36ea767ac7)" style="fill: none; stroke: #4c4c4c; stroke-width: 1.5; stroke-linecap: round"/>
   </g>
   <g id="line2d_45">
    <path d="M 804.9485 297.483876 
L 831.2865 297.483876 
" clip-path="url(#p36ea767ac7)" style="fill: none; stroke: #4c4c4c; stroke-width: 1.5; stroke-linecap: round"/>
   </g>
   <g id="line2d_46">
    <path d="M 804.9485 296.023605 
L 831.2865 296.023605 
" clip-path="url(#p36ea767ac7)" style="fill: none; stroke: #4c4c4c; stroke-width: 1.5; stroke-linecap: round"/>
   </g>
   <g id="line2d_47">
    <g clip-path="url(#p36ea767ac7)">
     <use xlink:href="#m80b1a447cb" x="818.1175" y="289.169922" style="fill: #4c4c4c; stroke: #4c4c4c; stroke-linejoin: miter"/>
    </g>
   </g>
   <g id="line2d_48">
    <path d="M 594.2445 290.342403 
L 646.9205 290.342403 
" clip-path="url(#p36ea767ac7)" style="fill: none; stroke: #4c4c4c; stroke-width: 1.5; stroke-linecap: round"/>
   </g>
   <g id="line2d_49">
    <path d="M 660.0895 287.176705 
L 712.7655 287.176705 
" clip-path="url(#p36ea767ac7)" style="fill: none; stroke: #4c4c4c; stroke-width: 1.5; stroke-linecap: round"/>
   </g>
   <g id="line2d_50">
    <path d="M 725.9345 295.362752 
L 778.6105 295.362752 
" clip-path="url(#p36ea767ac7)" style="fill: none; stroke: #4c4c4c; stroke-width: 1.5; stroke-linecap: round"/>
   </g>
   <g id="line2d_51">
    <path d="M 791.7795 296.609845 
L 844.4555 296.609845 
" clip-path="url(#p36ea767ac7)" style="fill: none; stroke: #4c4c4c; stroke-width: 1.5; stroke-linecap: round"/>
   </g>
   <g id="patch_12">
    <path d="M 587.66 309.78 
L 587.66 55.68 
" style="fill: none; stroke: #ffffff; stroke-width: 1.25; stroke-linejoin: miter; stroke-linecap: square"/>
   </g>
   <g id="patch_13">
    <path d="M 851.04 309.78 
L 851.04 55.68 
" style="fill: none; stroke: #ffffff; stroke-width: 1.25; stroke-linejoin: miter; stroke-linecap: square"/>
   </g>
   <g id="patch_14">
    <path d="M 587.66 309.78 
L 851.04 309.78 
" style="fill: none; stroke: #ffffff; stroke-width: 1.25; stroke-linejoin: miter; stroke-linecap: square"/>
   </g>
   <g id="patch_15">
    <path d="M 587.66 55.68 
L 851.04 55.68 
" style="fill: none; stroke: #ffffff; stroke-width: 1.25; stroke-linejoin: miter; stroke-linecap: square"/>
   </g>
   <g id="text_26">
    <!-- Best Performance Across Trials -->
    <g style="fill: #262626" transform="translate(627.389687 49.68)scale(0.12 -0.12)">
     <defs>
      <path id="DejaVuSans-50" d="M 1259 4147 
L 1259 2394 
L 2053 2394 
Q 2494 2394 2734 2622 
Q 2975 2850 2975 3272 
Q 2975 3691 2734 3919 
Q 2494 4147 2053 4147 
L 1259 4147 
z
M 628 4666 
L 2053 4666 
Q 2838 4666 3239 4311 
Q 3641 3956 3641 3272 
Q 3641 2581 3239 2228 
Q 2838 1875 2053 1875 
L 1259 1875 
L 1259 0 
L 628 0 
L 628 4666 
z
" transform="scale(0.015625)"/>
      <path id="DejaVuSans-41" d="M 2188 4044 
L 1331 1722 
L 3047 1722 
L 2188 4044 
z
M 1831 4666 
L 2547 4666 
L 4325 0 
L 3669 0 
L 3244 1197 
L 1141 1197 
L 716 0 
L 50 0 
L 1831 4666 
z
" transform="scale(0.015625)"/>
      <path id="DejaVuSans-54" d="M -19 4666 
L 3928 4666 
L 3928 4134 
L 2272 4134 
L 2272 0 
L 1638 0 
L 1638 4134 
L -19 4134 
L -19 4666 
z
" transform="scale(0.015625)"/>
     </defs>
     <use xlink:href="#DejaVuSans-42"/>
     <use xlink:href="#DejaVuSans-65" x="68.603516"/>
     <use xlink:href="#DejaVuSans-73" x="130.126953"/>
     <use xlink:href="#DejaVuSans-74" x="182.226562"/>
     <use xlink:href="#DejaVuSans-20" x="221.435547"/>
     <use xlink:href="#DejaVuSans-50" x="253.222656"/>
     <use xlink:href="#DejaVuSans-65" x="309.900391"/>
     <use xlink:href="#DejaVuSans-72" x="371.423828"/>
     <use xlink:href="#DejaVuSans-66" x="412.537109"/>
     <use xlink:href="#DejaVuSans-6f" x="447.742188"/>
     <use xlink:href="#DejaVuSans-72" x="508.923828"/>
     <use xlink:href="#DejaVuSans-6d" x="548.287109"/>
     <use xlink:href="#DejaVuSans-61" x="645.699219"/>
     <use xlink:href="#DejaVuSans-6e" x="706.978516"/>
     <use xlink:href="#DejaVuSans-63" x="770.357422"/>
     <use xlink:href="#DejaVuSans-65" x="825.337891"/>
     <use xlink:href="#DejaVuSans-20" x="886.861328"/>
     <use xlink:href="#DejaVuSans-41" x="918.648438"/>
     <use xlink:href="#DejaVuSans-63" x="985.306641"/>
     <use xlink:href="#DejaVuSans-72" x="1040.287109"/>
     <use xlink:href="#DejaVuSans-6f" x="1079.150391"/>
     <use xlink:href="#DejaVuSans-73" x="1140.332031"/>
     <use xlink:href="#DejaVuSans-73" x="1192.431641"/>
     <use xlink:href="#DejaVuSans-20" x="1244.53125"/>
     <use xlink:href="#DejaVuSans-54" x="1276.318359"/>
     <use xlink:href="#DejaVuSans-72" x="1322.652344"/>
     <use xlink:href="#DejaVuSans-69" x="1363.765625"/>
     <use xlink:href="#DejaVuSans-61" x="1391.548828"/>
     <use xlink:href="#DejaVuSans-6c" x="1452.828125"/>
     <use xlink:href="#DejaVuSans-73" x="1480.611328"/>
    </g>
   </g>
  </g>
  <g id="text_27">
   <!-- Compare Evolved Variations For Left To Right -->
   <g style="fill: #262626" transform="translate(270.108 18.14175)scale(0.144 -0.144)">
    <defs>
     <path id="DejaVuSans-70" d="M 1159 525 
L 1159 -1331 
L 581 -1331 
L 581 3500 
L 1159 3500 
L 1159 2969 
Q 1341 3281 1617 3432 
Q 1894 3584 2278 3584 
Q 2916 3584 3314 3078 
Q 3713 2572 3713 1747 
Q 3713 922 3314 415 
Q 2916 -91 2278 -91 
Q 1894 -91 1617 61 
Q 1341 213 1159 525 
z
M 3116 1747 
Q 3116 2381 2855 2742 
Q 2594 3103 2138 3103 
Q 1681 3103 1420 2742 
Q 1159 2381 1159 1747 
Q 1159 1113 1420 752 
Q 1681 391 2138 391 
Q 2594 391 2855 752 
Q 3116 1113 3116 1747 
z
" transform="scale(0.015625)"/>
     <path id="DejaVuSans-45" d="M 628 4666 
L 3578 4666 
L 3578 4134 
L 1259 4134 
L 1259 2753 
L 3481 2753 
L 3481 2222 
L 1259 2222 
L 1259 531 
L 3634 531 
L 3634 0 
L 628 0 
L 628 4666 
z
" transform="scale(0.015625)"/>
     <path id="DejaVuSans-76" d="M 191 3500 
L 800 3500 
L 1894 563 
L 2988 3500 
L 3597 3500 
L 2284 0 
L 1503 0 
L 191 3500 
z
" transform="scale(0.015625)"/>
     <path id="DejaVuSans-4c" d="M 628 4666 
L 1259 4666 
L 1259 531 
L 3531 531 
L 3531 0 
L 628 0 
L 628 4666 
z
" transform="scale(0.015625)"/>
     <path id="DejaVuSans-52" d="M 2841 2188 
Q 3044 2119 3236 1894 
Q 3428 1669 3622 1275 
L 4263 0 
L 3584 0 
L 2988 1197 
Q 2756 1666 2539 1819 
Q 2322 1972 1947 1972 
L 1259 1972 
L 1259 0 
L 628 0 
L 628 4666 
L 2053 4666 
Q 2853 4666 3247 4331 
Q 3641 3997 3641 3322 
Q 3641 2881 3436 2590 
Q 3231 2300 2841 2188 
z
M 1259 4147 
L 1259 2491 
L 2053 2491 
Q 2509 2491 2742 2702 
Q 2975 2913 2975 3322 
Q 2975 3731 2742 3939 
Q 2509 4147 2053 4147 
L 1259 4147 
z
" transform="scale(0.015625)"/>
     <path id="DejaVuSans-68" d="M 3513 2113 
L 3513 0 
L 2938 0 
L 2938 2094 
Q 2938 2591 2744 2837 
Q 2550 3084 2163 3084 
Q 1697 3084 1428 2787 
Q 1159 2491 1159 1978 
L 1159 0 
L 581 0 
L 581 4863 
L 1159 4863 
L 1159 2956 
Q 1366 3272 1645 3428 
Q 1925 3584 2291 3584 
Q 2894 3584 3203 3211 
Q 3513 2838 3513 2113 
z
" transform="scale(0.015625)"/>
    </defs>
    <use xlink:href="#DejaVuSans-43"/>
    <use xlink:href="#DejaVuSans-6f" x="69.824219"/>
    <use xlink:href="#DejaVuSans-6d" x="131.005859"/>
    <use xlink:href="#DejaVuSans-70" x="228.417969"/>
    <use xlink:href="#DejaVuSans-61" x="291.894531"/>
    <use xlink:href="#DejaVuSans-72" x="353.173828"/>
    <use xlink:href="#DejaVuSans-65" x="392.037109"/>
    <use xlink:href="#DejaVuSans-20" x="453.560547"/>
    <use xlink:href="#DejaVuSans-45" x="485.347656"/>
    <use xlink:href="#DejaVuSans-76" x="548.53125"/>
    <use xlink:href="#DejaVuSans-6f" x="607.710938"/>
    <use xlink:href="#DejaVuSans-6c" x="668.892578"/>
    <use xlink:href="#DejaVuSans-76" x="696.675781"/>
    <use xlink:href="#DejaVuSans-65" x="755.855469"/>
    <use xlink:href="#DejaVuSans-64" x="817.378906"/>
    <use xlink:href="#DejaVuSans-20" x="880.855469"/>
    <use xlink:href="#DejaVuSans-56" x="912.642578"/>
    <use xlink:href="#DejaVuSans-61" x="973.300781"/>
    <use xlink:href="#DejaVuSans-72" x="1034.580078"/>
    <use xlink:href="#DejaVuSans-69" x="1075.693359"/>
    <use xlink:href="#DejaVuSans-61" x="1103.476562"/>
    <use xlink:href="#DejaVuSans-74" x="1164.755859"/>
    <use xlink:href="#DejaVuSans-69" x="1203.964844"/>
    <use xlink:href="#DejaVuSans-6f" x="1231.748047"/>
    <use xlink:href="#DejaVuSans-6e" x="1292.929688"/>
    <use xlink:href="#DejaVuSans-73" x="1356.308594"/>
    <use xlink:href="#DejaVuSans-20" x="1408.408203"/>
    <use xlink:href="#DejaVuSans-46" x="1440.195312"/>
    <use xlink:href="#DejaVuSans-6f" x="1494.089844"/>
    <use xlink:href="#DejaVuSans-72" x="1555.271484"/>
    <use xlink:href="#DejaVuSans-20" x="1596.384766"/>
    <use xlink:href="#DejaVuSans-4c" x="1628.171875"/>
    <use xlink:href="#DejaVuSans-65" x="1682.134766"/>
    <use xlink:href="#DejaVuSans-66" x="1743.658203"/>
    <use xlink:href="#DejaVuSans-74" x="1777.113281"/>
    <use xlink:href="#DejaVuSans-20" x="1816.322266"/>
    <use xlink:href="#DejaVuSans-54" x="1848.109375"/>
    <use xlink:href="#DejaVuSans-6f" x="1892.193359"/>
    <use xlink:href="#DejaVuSans-20" x="1953.375"/>
    <use xlink:href="#DejaVuSans-52" x="1985.162109"/>
    <use xlink:href="#DejaVuSans-69" x="2054.644531"/>
    <use xlink:href="#DejaVuSans-67" x="2082.427734"/>
    <use xlink:href="#DejaVuSans-68" x="2145.904297"/>
    <use xlink:href="#DejaVuSans-74" x="2209.283203"/>
   </g>
  </g>
 </g>
 <defs>
  <clipPath id="p78581b4ce8">
   <rect x="74.07" y="55.68" width="263.38" height="254.1"/>
  </clipPath>
  <clipPath id="p36ea767ac7">
   <rect x="587.66" y="55.68" width="263.38" height="254.1"/>
  </clipPath>
 </defs>
</svg>
