<?xml version="1.0" encoding="utf-8" standalone="no"?>
<!DOCTYPE svg PUBLIC "-//W3C//DTD SVG 1.1//EN"
  "http://www.w3.org/Graphics/SVG/1.1/DTD/svg11.dtd">
<svg xmlns:xlink="http://www.w3.org/1999/xlink" width="392.79412pt" height="362.097812pt" viewBox="0 0 392.79412 362.097812" xmlns="http://www.w3.org/2000/svg" version="1.1">
 <metadata>
  <rdf:RDF xmlns:dc="http://purl.org/dc/elements/1.1/" xmlns:cc="http://creativecommons.org/ns#" xmlns:rdf="http://www.w3.org/1999/02/22-rdf-syntax-ns#">
   <cc:Work>
    <dc:type rdf:resource="http://purl.org/dc/dcmitype/StillImage"/>
    <dc:date>2022-11-20T08:23:13.067806</dc:date>
    <dc:format>image/svg+xml</dc:format>
    <dc:creator>
     <cc:Agent>
      <dc:title>Matplotlib v3.5.2, https://matplotlib.org/</dc:title>
     </cc:Agent>
    </dc:creator>
   </cc:Work>
  </rdf:RDF>
 </metadata>
 <defs>
  <style type="text/css">*{stroke-linejoin: round; stroke-linecap: butt}</style>
 </defs>
 <g id="figure_1">
  <g id="patch_1">
   <path d="M 0 362.097812 
L 392.79412 362.097812 
L 392.79412 0 
L 0 0 
z
" style="fill: #ffffff"/>
  </g>
  <g id="axes_1">
   <g id="patch_2">
    <path d="M 60.30875 319.138125 
L 340.40792 319.138125 
L 340.40792 22.318125 
L 60.30875 22.318125 
z
" style="fill: #eaeaf2"/>
   </g>
   <g id="matplotlib.axis_1">
    <g id="xtick_1">
     <g id="line2d_1">
      <path d="M 73.04053 319.138125 
L 73.04053 22.318125 
" clip-path="url(#p22a0115ba8)" style="fill: none; stroke: #ffffff; stroke-linecap: round"/>
     </g>
     <g id="text_1">
      <!-- 0 -->
      <g style="fill: #262626" transform="translate(69.541155 336.996406)scale(0.11 -0.11)">
       <defs>
        <path id="DejaVuSans-30" d="M 2034 4250 
Q 1547 4250 1301 3770 
Q 1056 3291 1056 2328 
Q 1056 1369 1301 889 
Q 1547 409 2034 409 
Q 2525 409 2770 889 
Q 3016 1369 3016 2328 
Q 3016 3291 2770 3770 
Q 2525 4250 2034 4250 
z
M 2034 4750 
Q 2819 4750 3233 4129 
Q 3647 3509 3647 2328 
Q 3647 1150 3233 529 
Q 2819 -91 2034 -91 
Q 1250 -91 836 529 
Q 422 1150 422 2328 
Q 422 3509 836 4129 
Q 1250 4750 2034 4750 
z
" transform="scale(0.015625)"/>
       </defs>
       <use xlink:href="#DejaVuSans-30"/>
      </g>
     </g>
    </g>
    <g id="xtick_2">
     <g id="line2d_2">
      <path d="M 137.019327 319.138125 
L 137.019327 22.318125 
" clip-path="url(#p22a0115ba8)" style="fill: none; stroke: #ffffff; stroke-linecap: round"/>
     </g>
     <g id="text_2">
      <!-- 50 -->
      <g style="fill: #262626" transform="translate(130.020577 336.996406)scale(0.11 -0.11)">
       <defs>
        <path id="DejaVuSans-35" d="M 691 4666 
L 3169 4666 
L 3169 4134 
L 1269 4134 
L 1269 2991 
Q 1406 3038 1543 3061 
Q 1681 3084 1819 3084 
Q 2600 3084 3056 2656 
Q 3513 2228 3513 1497 
Q 3513 744 3044 326 
Q 2575 -91 1722 -91 
Q 1428 -91 1123 -41 
Q 819 9 494 109 
L 494 744 
Q 775 591 1075 516 
Q 1375 441 1709 441 
Q 2250 441 2565 725 
Q 2881 1009 2881 1497 
Q 2881 1984 2565 2268 
Q 2250 2553 1709 2553 
Q 1456 2553 1204 2497 
Q 953 2441 691 2322 
L 691 4666 
z
" transform="scale(0.015625)"/>
       </defs>
       <use xlink:href="#DejaVuSans-35"/>
       <use xlink:href="#DejaVuSans-30" x="63.623047"/>
      </g>
     </g>
    </g>
    <g id="xtick_3">
     <g id="line2d_3">
      <path d="M 200.998123 319.138125 
L 200.998123 22.318125 
" clip-path="url(#p22a0115ba8)" style="fill: none; stroke: #ffffff; stroke-linecap: round"/>
     </g>
     <g id="text_3">
      <!-- 100 -->
      <g style="fill: #262626" transform="translate(190.499998 336.996406)scale(0.11 -0.11)">
       <defs>
        <path id="DejaVuSans-31" d="M 794 531 
L 1825 531 
L 1825 4091 
L 703 3866 
L 703 4441 
L 1819 4666 
L 2450 4666 
L 2450 531 
L 3481 531 
L 3481 0 
L 794 0 
L 794 531 
z
" transform="scale(0.015625)"/>
       </defs>
       <use xlink:href="#DejaVuSans-31"/>
       <use xlink:href="#DejaVuSans-30" x="63.623047"/>
       <use xlink:href="#DejaVuSans-30" x="127.246094"/>
      </g>
     </g>
    </g>
    <g id="xtick_4">
     <g id="line2d_4">
      <path d="M 264.976919 319.138125 
L 264.976919 22.318125 
" clip-path="url(#p22a0115ba8)" style="fill: none; stroke: #ffffff; stroke-linecap: round"/>
     </g>
     <g id="text_4">
      <!-- 150 -->
      <g style="fill: #262626" transform="translate(254.478794 336.996406)scale(0.11 -0.11)">
       <use xlink:href="#DejaVuSans-31"/>
       <use xlink:href="#DejaVuSans-35" x="63.623047"/>
       <use xlink:href="#DejaVuSans-30" x="127.246094"/>
      </g>
     </g>
    </g>
    <g id="xtick_5">
     <g id="line2d_5">
      <path d="M 328.955715 319.138125 
L 328.955715 22.318125 
" clip-path="url(#p22a0115ba8)" style="fill: none; stroke: #ffffff; stroke-linecap: round"/>
     </g>
     <g id="text_5">
      <!-- 200 -->
      <g style="fill: #262626" transform="translate(318.45759 336.996406)scale(0.11 -0.11)">
       <defs>
        <path id="DejaVuSans-32" d="M 1228 531 
L 3431 531 
L 3431 0 
L 469 0 
L 469 531 
Q 828 903 1448 1529 
Q 2069 2156 2228 2338 
Q 2531 2678 2651 2914 
Q 2772 3150 2772 3378 
Q 2772 3750 2511 3984 
Q 2250 4219 1831 4219 
Q 1534 4219 1204 4116 
Q 875 4013 500 3803 
L 500 4441 
Q 881 4594 1212 4672 
Q 1544 4750 1819 4750 
Q 2544 4750 2975 4387 
Q 3406 4025 3406 3419 
Q 3406 3131 3298 2873 
Q 3191 2616 2906 2266 
Q 2828 2175 2409 1742 
Q 1991 1309 1228 531 
z
" transform="scale(0.015625)"/>
       </defs>
       <use xlink:href="#DejaVuSans-32"/>
       <use xlink:href="#DejaVuSans-30" x="63.623047"/>
       <use xlink:href="#DejaVuSans-30" x="127.246094"/>
      </g>
     </g>
    </g>
    <g id="text_6">
     <!-- Generation -->
     <g style="fill: #262626" transform="translate(166.886773 352.402187)scale(0.12 -0.12)">
      <defs>
       <path id="DejaVuSans-47" d="M 3809 666 
L 3809 1919 
L 2778 1919 
L 2778 2438 
L 4434 2438 
L 4434 434 
Q 4069 175 3628 42 
Q 3188 -91 2688 -91 
Q 1594 -91 976 548 
Q 359 1188 359 2328 
Q 359 3472 976 4111 
Q 1594 4750 2688 4750 
Q 3144 4750 3555 4637 
Q 3966 4525 4313 4306 
L 4313 3634 
Q 3963 3931 3569 4081 
Q 3175 4231 2741 4231 
Q 1884 4231 1454 3753 
Q 1025 3275 1025 2328 
Q 1025 1384 1454 906 
Q 1884 428 2741 428 
Q 3075 428 3337 486 
Q 3600 544 3809 666 
z
" transform="scale(0.015625)"/>
       <path id="DejaVuSans-65" d="M 3597 1894 
L 3597 1613 
L 953 1613 
Q 991 1019 1311 708 
Q 1631 397 2203 397 
Q 2534 397 2845 478 
Q 3156 559 3463 722 
L 3463 178 
Q 3153 47 2828 -22 
Q 2503 -91 2169 -91 
Q 1331 -91 842 396 
Q 353 884 353 1716 
Q 353 2575 817 3079 
Q 1281 3584 2069 3584 
Q 2775 3584 3186 3129 
Q 3597 2675 3597 1894 
z
M 3022 2063 
Q 3016 2534 2758 2815 
Q 2500 3097 2075 3097 
Q 1594 3097 1305 2825 
Q 1016 2553 972 2059 
L 3022 2063 
z
" transform="scale(0.015625)"/>
       <path id="DejaVuSans-6e" d="M 3513 2113 
L 3513 0 
L 2938 0 
L 2938 2094 
Q 2938 2591 2744 2837 
Q 2550 3084 2163 3084 
Q 1697 3084 1428 2787 
Q 1159 2491 1159 1978 
L 1159 0 
L 581 0 
L 581 3500 
L 1159 3500 
L 1159 2956 
Q 1366 3272 1645 3428 
Q 1925 3584 2291 3584 
Q 2894 3584 3203 3211 
Q 3513 2838 3513 2113 
z
" transform="scale(0.015625)"/>
       <path id="DejaVuSans-72" d="M 2631 2963 
Q 2534 3019 2420 3045 
Q 2306 3072 2169 3072 
Q 1681 3072 1420 2755 
Q 1159 2438 1159 1844 
L 1159 0 
L 581 0 
L 581 3500 
L 1159 3500 
L 1159 2956 
Q 1341 3275 1631 3429 
Q 1922 3584 2338 3584 
Q 2397 3584 2469 3576 
Q 2541 3569 2628 3553 
L 2631 2963 
z
" transform="scale(0.015625)"/>
       <path id="DejaVuSans-61" d="M 2194 1759 
Q 1497 1759 1228 1600 
Q 959 1441 959 1056 
Q 959 750 1161 570 
Q 1363 391 1709 391 
Q 2188 391 2477 730 
Q 2766 1069 2766 1631 
L 2766 1759 
L 2194 1759 
z
M 3341 1997 
L 3341 0 
L 2766 0 
L 2766 531 
Q 2569 213 2275 61 
Q 1981 -91 1556 -91 
Q 1019 -91 701 211 
Q 384 513 384 1019 
Q 384 1609 779 1909 
Q 1175 2209 1959 2209 
L 2766 2209 
L 2766 2266 
Q 2766 2663 2505 2880 
Q 2244 3097 1772 3097 
Q 1472 3097 1187 3025 
Q 903 2953 641 2809 
L 641 3341 
Q 956 3463 1253 3523 
Q 1550 3584 1831 3584 
Q 2591 3584 2966 3190 
Q 3341 2797 3341 1997 
z
" transform="scale(0.015625)"/>
       <path id="DejaVuSans-74" d="M 1172 4494 
L 1172 3500 
L 2356 3500 
L 2356 3053 
L 1172 3053 
L 1172 1153 
Q 1172 725 1289 603 
Q 1406 481 1766 481 
L 2356 481 
L 2356 0 
L 1766 0 
Q 1100 0 847 248 
Q 594 497 594 1153 
L 594 3053 
L 172 3053 
L 172 3500 
L 594 3500 
L 594 4494 
L 1172 4494 
z
" transform="scale(0.015625)"/>
       <path id="DejaVuSans-69" d="M 603 3500 
L 1178 3500 
L 1178 0 
L 603 0 
L 603 3500 
z
M 603 4863 
L 1178 4863 
L 1178 4134 
L 603 4134 
L 603 4863 
z
" transform="scale(0.015625)"/>
       <path id="DejaVuSans-6f" d="M 1959 3097 
Q 1497 3097 1228 2736 
Q 959 2375 959 1747 
Q 959 1119 1226 758 
Q 1494 397 1959 397 
Q 2419 397 2687 759 
Q 2956 1122 2956 1747 
Q 2956 2369 2687 2733 
Q 2419 3097 1959 3097 
z
M 1959 3584 
Q 2709 3584 3137 3096 
Q 3566 2609 3566 1747 
Q 3566 888 3137 398 
Q 2709 -91 1959 -91 
Q 1206 -91 779 398 
Q 353 888 353 1747 
Q 353 2609 779 3096 
Q 1206 3584 1959 3584 
z
" transform="scale(0.015625)"/>
      </defs>
      <use xlink:href="#DejaVuSans-47"/>
      <use xlink:href="#DejaVuSans-65" x="77.490234"/>
      <use xlink:href="#DejaVuSans-6e" x="139.013672"/>
      <use xlink:href="#DejaVuSans-65" x="202.392578"/>
      <use xlink:href="#DejaVuSans-72" x="263.916016"/>
      <use xlink:href="#DejaVuSans-61" x="305.029297"/>
      <use xlink:href="#DejaVuSans-74" x="366.308594"/>
      <use xlink:href="#DejaVuSans-69" x="405.517578"/>
      <use xlink:href="#DejaVuSans-6f" x="433.300781"/>
      <use xlink:href="#DejaVuSans-6e" x="494.482422"/>
     </g>
    </g>
   </g>
   <g id="matplotlib.axis_2">
    <g id="ytick_1">
     <g id="line2d_6">
      <path d="M 60.30875 308.484796 
L 340.40792 308.484796 
" clip-path="url(#p22a0115ba8)" style="fill: none; stroke: #ffffff; stroke-linecap: round"/>
     </g>
     <g id="text_7">
      <!-- 0 -->
      <g style="fill: #262626" transform="translate(43.81 312.663937)scale(0.11 -0.11)">
       <use xlink:href="#DejaVuSans-30"/>
      </g>
     </g>
    </g>
    <g id="ytick_2">
     <g id="line2d_7">
      <path d="M 60.30875 272.511861 
L 340.40792 272.511861 
" clip-path="url(#p22a0115ba8)" style="fill: none; stroke: #ffffff; stroke-linecap: round"/>
     </g>
     <g id="text_8">
      <!-- 200 -->
      <g style="fill: #262626" transform="translate(29.8125 276.691001)scale(0.11 -0.11)">
       <use xlink:href="#DejaVuSans-32"/>
       <use xlink:href="#DejaVuSans-30" x="63.623047"/>
       <use xlink:href="#DejaVuSans-30" x="127.246094"/>
      </g>
     </g>
    </g>
    <g id="ytick_3">
     <g id="line2d_8">
      <path d="M 60.30875 236.538925 
L 340.40792 236.538925 
" clip-path="url(#p22a0115ba8)" style="fill: none; stroke: #ffffff; stroke-linecap: round"/>
     </g>
     <g id="text_9">
      <!-- 400 -->
      <g style="fill: #262626" transform="translate(29.8125 240.718065)scale(0.11 -0.11)">
       <defs>
        <path id="DejaVuSans-34" d="M 2419 4116 
L 825 1625 
L 2419 1625 
L 2419 4116 
z
M 2253 4666 
L 3047 4666 
L 3047 1625 
L 3713 1625 
L 3713 1100 
L 3047 1100 
L 3047 0 
L 2419 0 
L 2419 1100 
L 313 1100 
L 313 1709 
L 2253 4666 
z
" transform="scale(0.015625)"/>
       </defs>
       <use xlink:href="#DejaVuSans-34"/>
       <use xlink:href="#DejaVuSans-30" x="63.623047"/>
       <use xlink:href="#DejaVuSans-30" x="127.246094"/>
      </g>
     </g>
    </g>
    <g id="ytick_4">
     <g id="line2d_9">
      <path d="M 60.30875 200.565989 
L 340.40792 200.565989 
" clip-path="url(#p22a0115ba8)" style="fill: none; stroke: #ffffff; stroke-linecap: round"/>
     </g>
     <g id="text_10">
      <!-- 600 -->
      <g style="fill: #262626" transform="translate(29.8125 204.74513)scale(0.11 -0.11)">
       <defs>
        <path id="DejaVuSans-36" d="M 2113 2584 
Q 1688 2584 1439 2293 
Q 1191 2003 1191 1497 
Q 1191 994 1439 701 
Q 1688 409 2113 409 
Q 2538 409 2786 701 
Q 3034 994 3034 1497 
Q 3034 2003 2786 2293 
Q 2538 2584 2113 2584 
z
M 3366 4563 
L 3366 3988 
Q 3128 4100 2886 4159 
Q 2644 4219 2406 4219 
Q 1781 4219 1451 3797 
Q 1122 3375 1075 2522 
Q 1259 2794 1537 2939 
Q 1816 3084 2150 3084 
Q 2853 3084 3261 2657 
Q 3669 2231 3669 1497 
Q 3669 778 3244 343 
Q 2819 -91 2113 -91 
Q 1303 -91 875 529 
Q 447 1150 447 2328 
Q 447 3434 972 4092 
Q 1497 4750 2381 4750 
Q 2619 4750 2861 4703 
Q 3103 4656 3366 4563 
z
" transform="scale(0.015625)"/>
       </defs>
       <use xlink:href="#DejaVuSans-36"/>
       <use xlink:href="#DejaVuSans-30" x="63.623047"/>
       <use xlink:href="#DejaVuSans-30" x="127.246094"/>
      </g>
     </g>
    </g>
    <g id="ytick_5">
     <g id="line2d_10">
      <path d="M 60.30875 164.593053 
L 340.40792 164.593053 
" clip-path="url(#p22a0115ba8)" style="fill: none; stroke: #ffffff; stroke-linecap: round"/>
     </g>
     <g id="text_11">
      <!-- 800 -->
      <g style="fill: #262626" transform="translate(29.8125 168.772194)scale(0.11 -0.11)">
       <defs>
        <path id="DejaVuSans-38" d="M 2034 2216 
Q 1584 2216 1326 1975 
Q 1069 1734 1069 1313 
Q 1069 891 1326 650 
Q 1584 409 2034 409 
Q 2484 409 2743 651 
Q 3003 894 3003 1313 
Q 3003 1734 2745 1975 
Q 2488 2216 2034 2216 
z
M 1403 2484 
Q 997 2584 770 2862 
Q 544 3141 544 3541 
Q 544 4100 942 4425 
Q 1341 4750 2034 4750 
Q 2731 4750 3128 4425 
Q 3525 4100 3525 3541 
Q 3525 3141 3298 2862 
Q 3072 2584 2669 2484 
Q 3125 2378 3379 2068 
Q 3634 1759 3634 1313 
Q 3634 634 3220 271 
Q 2806 -91 2034 -91 
Q 1263 -91 848 271 
Q 434 634 434 1313 
Q 434 1759 690 2068 
Q 947 2378 1403 2484 
z
M 1172 3481 
Q 1172 3119 1398 2916 
Q 1625 2713 2034 2713 
Q 2441 2713 2670 2916 
Q 2900 3119 2900 3481 
Q 2900 3844 2670 4047 
Q 2441 4250 2034 4250 
Q 1625 4250 1398 4047 
Q 1172 3844 1172 3481 
z
" transform="scale(0.015625)"/>
       </defs>
       <use xlink:href="#DejaVuSans-38"/>
       <use xlink:href="#DejaVuSans-30" x="63.623047"/>
       <use xlink:href="#DejaVuSans-30" x="127.246094"/>
      </g>
     </g>
    </g>
    <g id="ytick_6">
     <g id="line2d_11">
      <path d="M 60.30875 128.620117 
L 340.40792 128.620117 
" clip-path="url(#p22a0115ba8)" style="fill: none; stroke: #ffffff; stroke-linecap: round"/>
     </g>
     <g id="text_12">
      <!-- 1000 -->
      <g style="fill: #262626" transform="translate(22.81375 132.799258)scale(0.11 -0.11)">
       <use xlink:href="#DejaVuSans-31"/>
       <use xlink:href="#DejaVuSans-30" x="63.623047"/>
       <use xlink:href="#DejaVuSans-30" x="127.246094"/>
       <use xlink:href="#DejaVuSans-30" x="190.869141"/>
      </g>
     </g>
    </g>
    <g id="ytick_7">
     <g id="line2d_12">
      <path d="M 60.30875 92.647182 
L 340.40792 92.647182 
" clip-path="url(#p22a0115ba8)" style="fill: none; stroke: #ffffff; stroke-linecap: round"/>
     </g>
     <g id="text_13">
      <!-- 1200 -->
      <g style="fill: #262626" transform="translate(22.81375 96.826322)scale(0.11 -0.11)">
       <use xlink:href="#DejaVuSans-31"/>
       <use xlink:href="#DejaVuSans-32" x="63.623047"/>
       <use xlink:href="#DejaVuSans-30" x="127.246094"/>
       <use xlink:href="#DejaVuSans-30" x="190.869141"/>
      </g>
     </g>
    </g>
    <g id="ytick_8">
     <g id="line2d_13">
      <path d="M 60.30875 56.674246 
L 340.40792 56.674246 
" clip-path="url(#p22a0115ba8)" style="fill: none; stroke: #ffffff; stroke-linecap: round"/>
     </g>
     <g id="text_14">
      <!-- 1400 -->
      <g style="fill: #262626" transform="translate(22.81375 60.853387)scale(0.11 -0.11)">
       <use xlink:href="#DejaVuSans-31"/>
       <use xlink:href="#DejaVuSans-34" x="63.623047"/>
       <use xlink:href="#DejaVuSans-30" x="127.246094"/>
       <use xlink:href="#DejaVuSans-30" x="190.869141"/>
      </g>
     </g>
    </g>
    <g id="text_15">
     <!-- Fitness -->
     <g style="fill: #262626" transform="translate(16.318125 191.50875)rotate(-90)scale(0.12 -0.12)">
      <defs>
       <path id="DejaVuSans-46" d="M 628 4666 
L 3309 4666 
L 3309 4134 
L 1259 4134 
L 1259 2759 
L 3109 2759 
L 3109 2228 
L 1259 2228 
L 1259 0 
L 628 0 
L 628 4666 
z
" transform="scale(0.015625)"/>
       <path id="DejaVuSans-73" d="M 2834 3397 
L 2834 2853 
Q 2591 2978 2328 3040 
Q 2066 3103 1784 3103 
Q 1356 3103 1142 2972 
Q 928 2841 928 2578 
Q 928 2378 1081 2264 
Q 1234 2150 1697 2047 
L 1894 2003 
Q 2506 1872 2764 1633 
Q 3022 1394 3022 966 
Q 3022 478 2636 193 
Q 2250 -91 1575 -91 
Q 1294 -91 989 -36 
Q 684 19 347 128 
L 347 722 
Q 666 556 975 473 
Q 1284 391 1588 391 
Q 1994 391 2212 530 
Q 2431 669 2431 922 
Q 2431 1156 2273 1281 
Q 2116 1406 1581 1522 
L 1381 1569 
Q 847 1681 609 1914 
Q 372 2147 372 2553 
Q 372 3047 722 3315 
Q 1072 3584 1716 3584 
Q 2034 3584 2315 3537 
Q 2597 3491 2834 3397 
z
" transform="scale(0.015625)"/>
      </defs>
      <use xlink:href="#DejaVuSans-46"/>
      <use xlink:href="#DejaVuSans-69" x="50.269531"/>
      <use xlink:href="#DejaVuSans-74" x="78.052734"/>
      <use xlink:href="#DejaVuSans-6e" x="117.261719"/>
      <use xlink:href="#DejaVuSans-65" x="180.640625"/>
      <use xlink:href="#DejaVuSans-73" x="242.164062"/>
      <use xlink:href="#DejaVuSans-73" x="294.263672"/>
     </g>
    </g>
   </g>
   <g id="PolyCollection_1">
    <defs>
     <path id="mbd1dea2127" d="M 73.04053 -76.929099 
L 73.04053 -60.740857 
L 74.320106 -72.745559 
L 75.599682 -83.712246 
L 76.879258 -86.381831 
L 78.158834 -74.454414 
L 79.43841 -75.500159 
L 80.717986 -82.173419 
L 81.997562 -96.519876 
L 83.277138 -109.197947 
L 84.556714 -130.052273 
L 85.83629 -139.029769 
L 87.115866 -168.48809 
L 88.395442 -174.164647 
L 89.675017 -168.061614 
L 90.954593 -169.512897 
L 92.234169 -177.826299 
L 93.513745 -187.271724 
L 94.793321 -184.897229 
L 96.072897 -193.774394 
L 97.352473 -199.217549 
L 98.632049 -216.813233 
L 99.911625 -218.312854 
L 101.191201 -227.744508 
L 102.470777 -229.307083 
L 103.750353 -223.292858 
L 105.029929 -205.49595 
L 106.309505 -237.502167 
L 107.58908 -237.502167 
L 108.868656 -243.370252 
L 110.148232 -243.370252 
L 111.427808 -243.370252 
L 112.707384 -243.370252 
L 113.98696 -225.432264 
L 115.266536 -243.370252 
L 116.546112 -243.370252 
L 117.825688 -243.370252 
L 119.105264 -243.370252 
L 120.38484 -243.370252 
L 121.664416 -225.580511 
L 122.943992 -243.370252 
L 124.223567 -243.370252 
L 125.503143 -243.370252 
L 126.782719 -243.370252 
L 128.062295 -243.370252 
L 129.341871 -243.370252 
L 130.621447 -243.370252 
L 131.901023 -243.370252 
L 133.180599 -243.370252 
L 134.460175 -243.370252 
L 135.739751 -226.120106 
L 137.019327 -243.370252 
L 138.298903 -243.370252 
L 139.578479 -243.370252 
L 140.858054 -225.580511 
L 142.13763 -243.370252 
L 143.417206 -243.370252 
L 144.696782 -243.370252 
L 145.976358 -243.370252 
L 147.255934 -243.370252 
L 148.53551 -225.93462 
L 149.815086 -243.370252 
L 151.094662 -243.370252 
L 152.374238 -225.580511 
L 153.653814 -243.370252 
L 154.93339 -243.370252 
L 156.212966 -243.370252 
L 157.492542 -243.370252 
L 158.772117 -243.370252 
L 160.051693 -227.982689 
L 161.331269 -228.109859 
L 162.610845 -243.370252 
L 163.890421 -243.370252 
L 165.169997 -243.370252 
L 166.449573 -243.370252 
L 167.729149 -243.370252 
L 169.008725 -243.370252 
L 170.288301 -243.370252 
L 171.567877 -243.370252 
L 172.847453 -243.370252 
L 174.127029 -243.370252 
L 175.406604 -243.370252 
L 176.68618 -243.370252 
L 177.965756 -243.370252 
L 179.245332 -237.755102 
L 180.524908 -237.755102 
L 181.804484 -237.755102 
L 183.08406 -243.370252 
L 184.363636 -243.370252 
L 185.643212 -243.370252 
L 186.922788 -243.370252 
L 188.202364 -225.432264 
L 189.48194 -243.370252 
L 190.761516 -243.370252 
L 192.041091 -243.370252 
L 193.320667 -243.370252 
L 194.600243 -243.370252 
L 195.879819 -243.370252 
L 197.159395 -243.370252 
L 198.438971 -226.625975 
L 199.718547 -243.370252 
L 200.998123 -243.370252 
L 202.277699 -241.599709 
L 203.557275 -243.370252 
L 204.836851 -243.370252 
L 206.116427 -243.370252 
L 207.396003 -243.370252 
L 208.675579 -243.370252 
L 209.955154 -243.370252 
L 211.23473 -243.370252 
L 212.514306 -243.370252 
L 213.793882 -243.370252 
L 215.073458 -243.370252 
L 216.353034 -243.370252 
L 217.63261 -243.370252 
L 218.912186 -243.370252 
L 220.191762 -243.370252 
L 221.471338 -243.370252 
L 222.750914 -243.370252 
L 224.03049 -243.370252 
L 225.310066 -243.370252 
L 226.589641 -225.580511 
L 227.869217 -226.423627 
L 229.148793 -243.370252 
L 230.428369 -243.370252 
L 231.707945 -243.370252 
L 232.987521 -243.370252 
L 234.267097 -243.370252 
L 235.546673 -243.370252 
L 236.826249 -243.370252 
L 238.105825 -243.370252 
L 239.385401 -226.625975 
L 240.664977 -240.942079 
L 241.944553 -239.323297 
L 243.224128 -238.513906 
L 244.503704 -224.804845 
L 245.78328 -241.599709 
L 247.062856 -241.599709 
L 248.342432 -243.370252 
L 249.622008 -243.370252 
L 250.901584 -243.370252 
L 252.18116 -243.370252 
L 253.460736 -243.370252 
L 254.740312 -243.370252 
L 256.019888 -243.370252 
L 257.299464 -226.760873 
L 258.57904 -243.370252 
L 259.858616 -243.370252 
L 261.138191 -243.370252 
L 262.417767 -243.370252 
L 263.697343 -243.370252 
L 264.976919 -243.370252 
L 266.256495 -243.370252 
L 267.536071 -243.370252 
L 268.815647 -243.370252 
L 270.095223 -243.370252 
L 271.374799 -243.370252 
L 272.654375 -243.370252 
L 273.933951 -243.370252 
L 275.213527 -243.370252 
L 276.493103 -243.370252 
L 277.772678 -243.370252 
L 279.052254 -236.254356 
L 280.33183 -243.370252 
L 281.611406 -243.370252 
L 282.890982 -243.370252 
L 284.170558 -226.845185 
L 285.450134 -243.370252 
L 286.72971 -243.370252 
L 288.009286 -243.370252 
L 289.288862 -243.370252 
L 290.568438 -243.370252 
L 291.848014 -243.370252 
L 293.12759 -243.370252 
L 294.407165 -243.370252 
L 295.686741 -225.580511 
L 296.966317 -243.370252 
L 298.245893 -243.370252 
L 299.525469 -241.599709 
L 300.805045 -240.419347 
L 302.084621 -238.648805 
L 303.364197 -238.648805 
L 304.643773 -240.419347 
L 305.923349 -240.419347 
L 307.202925 -241.599709 
L 308.482501 -241.599709 
L 309.762077 -240.419347 
L 311.041653 -239.829167 
L 312.321228 -238.648805 
L 313.600804 -238.648805 
L 314.88038 -243.370252 
L 316.159956 -243.370252 
L 317.439532 -232.999929 
L 318.719108 -243.370252 
L 319.998684 -243.370252 
L 321.27826 -243.370252 
L 322.557836 -243.370252 
L 323.837412 -243.370252 
L 325.116988 -243.370252 
L 326.396564 -243.370252 
L 327.67614 -243.370252 
L 327.67614 -243.370252 
L 327.67614 -243.370252 
L 326.396564 -243.370252 
L 325.116988 -243.370252 
L 323.837412 -243.370252 
L 322.557836 -243.370252 
L 321.27826 -243.370252 
L 319.998684 -243.370252 
L 318.719108 -243.370252 
L 317.439532 -243.370252 
L 316.159956 -243.370252 
L 314.88038 -243.370252 
L 313.600804 -242.780071 
L 312.321228 -242.780071 
L 311.041653 -243.370252 
L 309.762077 -243.370252 
L 308.482501 -243.370252 
L 307.202925 -243.370252 
L 305.923349 -243.370252 
L 304.643773 -243.370252 
L 303.364197 -242.780071 
L 302.084621 -242.780071 
L 300.805045 -243.370252 
L 299.525469 -243.370252 
L 298.245893 -243.370252 
L 296.966317 -243.370252 
L 295.686741 -243.370252 
L 294.407165 -243.370252 
L 293.12759 -243.370252 
L 291.848014 -243.370252 
L 290.568438 -243.370252 
L 289.288862 -243.370252 
L 288.009286 -243.370252 
L 286.72971 -243.370252 
L 285.450134 -244.314542 
L 284.170558 -243.370252 
L 282.890982 -243.370252 
L 281.611406 -243.370252 
L 280.33183 -243.370252 
L 279.052254 -243.370252 
L 277.772678 -243.370252 
L 276.493103 -243.370252 
L 275.213527 -243.370252 
L 273.933951 -243.370252 
L 272.654375 -243.370252 
L 271.374799 -243.370252 
L 270.095223 -243.370252 
L 268.815647 -243.370252 
L 267.536071 -243.370252 
L 266.256495 -243.370252 
L 264.976919 -243.370252 
L 263.697343 -243.370252 
L 262.417767 -243.370252 
L 261.138191 -243.370252 
L 259.858616 -243.370252 
L 258.57904 -243.370252 
L 257.299464 -243.370252 
L 256.019888 -243.370252 
L 254.740312 -243.370252 
L 253.460736 -243.370252 
L 252.18116 -243.370252 
L 250.901584 -243.370252 
L 249.622008 -243.370252 
L 248.342432 -243.370252 
L 247.062856 -243.370252 
L 245.78328 -243.370252 
L 244.503704 -243.370252 
L 243.224128 -243.370252 
L 241.944553 -243.370252 
L 240.664977 -243.370252 
L 239.385401 -243.370252 
L 238.105825 -243.370252 
L 236.826249 -243.370252 
L 235.546673 -243.370252 
L 234.267097 -243.370252 
L 232.987521 -243.370252 
L 231.707945 -243.370252 
L 230.428369 -243.370252 
L 229.148793 -243.370252 
L 227.869217 -243.370252 
L 226.589641 -243.370252 
L 225.310066 -243.370252 
L 224.03049 -243.370252 
L 222.750914 -243.370252 
L 221.471338 -243.370252 
L 220.191762 -243.370252 
L 218.912186 -243.370252 
L 217.63261 -243.370252 
L 216.353034 -243.370252 
L 215.073458 -243.370252 
L 213.793882 -243.370252 
L 212.514306 -243.370252 
L 211.23473 -243.370252 
L 209.955154 -243.370252 
L 208.675579 -243.370252 
L 207.396003 -243.370252 
L 206.116427 -243.370252 
L 204.836851 -243.370252 
L 203.557275 -243.370252 
L 202.277699 -243.370252 
L 200.998123 -243.370252 
L 199.718547 -243.370252 
L 198.438971 -243.370252 
L 197.159395 -243.370252 
L 195.879819 -243.370252 
L 194.600243 -243.370252 
L 193.320667 -243.370252 
L 192.041091 -243.370252 
L 190.761516 -243.370252 
L 189.48194 -243.370252 
L 188.202364 -243.370252 
L 186.922788 -243.370252 
L 185.643212 -243.370252 
L 184.363636 -243.370252 
L 183.08406 -243.370252 
L 181.804484 -243.370252 
L 180.524908 -243.370252 
L 179.245332 -243.370252 
L 177.965756 -243.370252 
L 176.68618 -243.370252 
L 175.406604 -243.370252 
L 174.127029 -243.370252 
L 172.847453 -243.370252 
L 171.567877 -243.370252 
L 170.288301 -243.370252 
L 169.008725 -243.370252 
L 167.729149 -243.370252 
L 166.449573 -243.370252 
L 165.169997 -243.370252 
L 163.890421 -243.370252 
L 162.610845 -243.370252 
L 161.331269 -243.370252 
L 160.051693 -243.370252 
L 158.772117 -243.370252 
L 157.492542 -243.370252 
L 156.212966 -243.370252 
L 154.93339 -243.370252 
L 153.653814 -243.370252 
L 152.374238 -243.370252 
L 151.094662 -243.370252 
L 149.815086 -243.370252 
L 148.53551 -243.370252 
L 147.255934 -243.370252 
L 145.976358 -243.370252 
L 144.696782 -243.370252 
L 143.417206 -243.370252 
L 142.13763 -243.370252 
L 140.858054 -243.370252 
L 139.578479 -243.370252 
L 138.298903 -243.370252 
L 137.019327 -243.370252 
L 135.739751 -243.370252 
L 134.460175 -243.370252 
L 133.180599 -243.370252 
L 131.901023 -243.370252 
L 130.621447 -243.370252 
L 129.341871 -243.370252 
L 128.062295 -243.370252 
L 126.782719 -243.370252 
L 125.503143 -243.370252 
L 124.223567 -243.370252 
L 122.943992 -243.370252 
L 121.664416 -243.370252 
L 120.38484 -243.370252 
L 119.105264 -243.370252 
L 117.825688 -243.370252 
L 116.546112 -243.370252 
L 115.266536 -243.370252 
L 113.98696 -243.370252 
L 112.707384 -243.370252 
L 111.427808 -243.370252 
L 110.148232 -243.370252 
L 108.868656 -243.370252 
L 107.58908 -243.370252 
L 106.309505 -243.370252 
L 105.029929 -237.502167 
L 103.750353 -240.245104 
L 102.470777 -241.807678 
L 101.191201 -240.245104 
L 99.911625 -237.322303 
L 98.632049 -235.939593 
L 97.352473 -230.869657 
L 96.072897 -227.864231 
L 94.793321 -222.581268 
L 93.513745 -223.194354 
L 92.234169 -216.549197 
L 90.954593 -210.359604 
L 89.675017 -205.504522 
L 88.395442 -202.078381 
L 87.115866 -197.797601 
L 85.83629 -174.24643 
L 84.556714 -160.502239 
L 83.277138 -140.920596 
L 81.997562 -130.461746 
L 80.717986 -108.772033 
L 79.43841 -99.343611 
L 78.158834 -102.229596 
L 76.879258 -113.626131 
L 75.599682 -110.870407 
L 74.320106 -96.056162 
L 73.04053 -76.929099 
z
" style="stroke: #edd1cb; stroke-opacity: 0.2"/>
    </defs>
    <g clip-path="url(#p22a0115ba8)">
     <use xlink:href="#mbd1dea2127" x="0" y="362.097812" style="fill: #edd1cb; fill-opacity: 0.2; stroke: #edd1cb; stroke-opacity: 0.2"/>
    </g>
   </g>
   <g id="PolyCollection_2">
    <defs>
     <path id="mc89d1b67a5" d="M 73.04053 -64.006244 
L 73.04053 -58.744218 
L 74.320106 -62.724146 
L 75.599682 -66.074266 
L 76.879258 -69.451928 
L 78.158834 -70.463526 
L 79.43841 -70.963353 
L 80.717986 -70.249375 
L 81.997562 -71.119892 
L 83.277138 -76.954393 
L 84.556714 -79.974152 
L 85.83629 -78.894683 
L 87.115866 -80.266292 
L 88.395442 -79.681169 
L 89.675017 -82.318014 
L 90.954593 -78.57992 
L 92.234169 -78.916745 
L 93.513745 -78.759785 
L 94.793321 -85.241096 
L 96.072897 -86.661746 
L 97.352473 -87.013044 
L 98.632049 -82.180445 
L 99.911625 -86.078591 
L 101.191201 -91.001262 
L 102.470777 -92.407298 
L 103.750353 -89.580191 
L 105.029929 -95.678165 
L 106.309505 -89.681365 
L 107.58908 -95.588374 
L 108.868656 -94.665443 
L 110.148232 -94.925404 
L 111.427808 -93.878816 
L 112.707384 -96.701146 
L 113.98696 -88.022394 
L 115.266536 -85.436699 
L 116.546112 -88.183991 
L 117.825688 -95.97424 
L 119.105264 -94.216624 
L 120.38484 -91.04679 
L 121.664416 -88.028155 
L 122.943992 -94.01793 
L 124.223567 -94.788397 
L 125.503143 -93.048207 
L 126.782719 -89.973785 
L 128.062295 -85.370093 
L 129.341871 -91.275977 
L 130.621447 -84.436342 
L 131.901023 -88.182586 
L 133.180599 -101.355706 
L 134.460175 -101.192845 
L 135.739751 -96.194714 
L 137.019327 -92.740469 
L 138.298903 -101.349664 
L 139.578479 -96.970381 
L 140.858054 -97.768811 
L 142.13763 -95.351739 
L 143.417206 -87.818079 
L 144.696782 -88.341092 
L 145.976358 -104.657347 
L 147.255934 -97.762769 
L 148.53551 -98.639047 
L 149.815086 -106.71202 
L 151.094662 -110.779772 
L 152.374238 -110.461496 
L 153.653814 -114.225586 
L 154.93339 -111.652959 
L 156.212966 -111.845049 
L 157.492542 -117.811919 
L 158.772117 -123.936593 
L 160.051693 -138.687183 
L 161.331269 -128.986715 
L 162.610845 -136.788627 
L 163.890421 -130.741098 
L 165.169997 -142.055149 
L 166.449573 -138.98677 
L 167.729149 -133.140324 
L 169.008725 -148.547842 
L 170.288301 -141.302106 
L 171.567877 -127.593326 
L 172.847453 -128.2792 
L 174.127029 -129.463497 
L 175.406604 -125.994638 
L 176.68618 -123.427913 
L 177.965756 -125.248902 
L 179.245332 -124.807953 
L 180.524908 -123.368754 
L 181.804484 -127.24273 
L 183.08406 -133.992293 
L 184.363636 -120.509187 
L 185.643212 -132.999524 
L 186.922788 -118.483039 
L 188.202364 -125.232461 
L 189.48194 -128.794906 
L 190.761516 -141.003502 
L 192.041091 -143.723815 
L 193.320667 -138.760534 
L 194.600243 -142.915829 
L 195.879819 -137.001092 
L 197.159395 -145.261096 
L 198.438971 -134.738591 
L 199.718547 -150.388785 
L 200.998123 -135.117852 
L 202.277699 -143.472988 
L 203.557275 -147.451792 
L 204.836851 -131.364723 
L 206.116427 -137.304894 
L 207.396003 -135.020753 
L 208.675579 -143.953002 
L 209.955154 -152.510345 
L 211.23473 -138.438182 
L 212.514306 -142.335485 
L 213.793882 -143.253076 
L 215.073458 -141.448527 
L 216.353034 -141.396816 
L 217.63261 -157.912047 
L 218.912186 -151.650508 
L 220.191762 -149.732982 
L 221.471338 -144.943663 
L 222.750914 -154.522722 
L 224.03049 -160.272771 
L 225.310066 -155.770533 
L 226.589641 -155.585048 
L 227.869217 -152.965768 
L 229.148793 -147.204478 
L 230.428369 -146.13091 
L 231.707945 -144.789935 
L 232.987521 -151.071568 
L 234.267097 -150.026105 
L 235.546673 -160.272771 
L 236.826249 -152.382051 
L 238.105825 -159.542071 
L 239.385401 -140.156031 
L 240.664977 -144.212682 
L 241.944553 -146.683292 
L 243.224128 -135.869068 
L 244.503704 -136.540751 
L 245.78328 -135.680632 
L 247.062856 -147.262372 
L 248.342432 -142.167986 
L 249.622008 -153.097716 
L 250.901584 -140.558899 
L 252.18116 -143.405117 
L 253.460736 -126.545755 
L 254.740312 -147.897378 
L 256.019888 -146.875522 
L 257.299464 -139.457509 
L 258.57904 -135.299544 
L 259.858616 -134.629829 
L 261.138191 -134.488045 
L 262.417767 -142.882667 
L 263.697343 -144.921039 
L 264.976919 -142.802852 
L 266.256495 -146.360238 
L 267.536071 -145.28934 
L 268.815647 -147.473151 
L 270.095223 -151.56451 
L 271.374799 -145.169477 
L 272.654375 -154.249974 
L 273.933951 -151.694912 
L 275.213527 -169.815295 
L 276.493103 -166.03378 
L 277.772678 -168.698307 
L 279.052254 -158.360725 
L 280.33183 -153.980739 
L 281.611406 -156.662409 
L 282.890982 -149.821649 
L 284.170558 -155.313845 
L 285.450134 -145.713709 
L 286.72971 -138.835711 
L 288.009286 -143.98209 
L 289.288862 -142.527715 
L 290.568438 -152.319379 
L 291.848014 -149.972426 
L 293.12759 -141.090905 
L 294.407165 -145.379975 
L 295.686741 -146.606287 
L 296.966317 -159.565116 
L 298.245893 -161.762135 
L 299.525469 -150.564575 
L 300.805045 -150.386677 
L 302.084621 -161.615432 
L 303.364197 -151.602731 
L 304.643773 -147.785244 
L 305.923349 -154.514712 
L 307.202925 -157.158723 
L 308.482501 -163.50907 
L 309.762077 -170.533489 
L 311.041653 -172.371762 
L 312.321228 -170.266361 
L 313.600804 -170.140878 
L 314.88038 -156.315467 
L 316.159956 -163.485042 
L 317.439532 -167.381922 
L 318.719108 -153.471357 
L 319.998684 -155.645892 
L 321.27826 -149.586139 
L 322.557836 -152.154831 
L 323.837412 -164.162485 
L 325.116988 -142.224474 
L 326.396564 -159.259486 
L 327.67614 -161.738106 
L 327.67614 -180.808399 
L 327.67614 -180.808399 
L 326.396564 -178.866703 
L 325.116988 -170.26313 
L 323.837412 -180.878518 
L 322.557836 -176.216088 
L 321.27826 -176.427429 
L 319.998684 -179.622276 
L 318.719108 -176.382323 
L 317.439532 -182.05888 
L 316.159956 -181.822808 
L 314.88038 -178.311371 
L 313.600804 -181.716013 
L 312.321228 -181.716013 
L 311.041653 -181.817187 
L 309.762077 -181.923981 
L 308.482501 -181.704771 
L 307.202925 -178.692038 
L 305.923349 -176.949739 
L 304.643773 -175.001018 
L 303.364197 -175.657103 
L 302.084621 -178.937385 
L 300.805045 -175.679445 
L 299.525469 -173.296098 
L 298.245893 -178.568522 
L 296.966317 -177.922554 
L 295.686741 -171.774976 
L 294.407165 -171.36452 
L 293.12759 -170.043076 
L 291.848014 -174.15734 
L 290.568438 -175.100787 
L 289.288862 -171.626869 
L 288.009286 -171.650476 
L 286.72971 -168.137354 
L 285.450134 -170.50693 
L 284.170558 -176.016551 
L 282.890982 -173.262795 
L 281.611406 -177.689152 
L 280.33183 -177.221504 
L 279.052254 -179.003991 
L 277.772678 -181.024658 
L 276.493103 -180.912243 
L 275.213527 -180.479443 
L 273.933951 -174.933569 
L 272.654375 -174.855159 
L 271.374799 -170.789234 
L 270.095223 -174.656465 
L 268.815647 -173.59976 
L 267.536071 -170.261865 
L 266.256495 -172.426564 
L 264.976919 -169.054945 
L 263.697343 -169.466245 
L 262.417767 -168.800745 
L 261.138191 -162.454192 
L 259.858616 -161.556133 
L 258.57904 -161.494586 
L 257.299464 -163.656616 
L 256.019888 -168.562425 
L 254.740312 -166.48569 
L 253.460736 -155.682006 
L 252.18116 -161.633278 
L 250.901584 -161.954646 
L 249.622008 -163.583967 
L 248.342432 -159.701279 
L 247.062856 -161.579179 
L 245.78328 -154.903108 
L 244.503704 -154.455273 
L 243.224128 -154.47902 
L 241.944553 -158.828514 
L 240.664977 -159.013718 
L 239.385401 -157.688481 
L 238.105825 -160.46472 
L 236.826249 -160.448279 
L 235.546673 -160.553809 
L 234.267097 -160.385186 
L 232.987521 -160.385186 
L 231.707945 -160.272771 
L 230.428369 -160.272771 
L 229.148793 -160.272771 
L 227.869217 -160.272771 
L 226.589641 -160.272771 
L 225.310066 -160.272771 
L 224.03049 -160.272771 
L 222.750914 -160.272771 
L 221.471338 -160.272771 
L 220.191762 -160.272771 
L 218.912186 -160.064802 
L 217.63261 -160.272771 
L 216.353034 -157.895887 
L 215.073458 -158.441664 
L 213.793882 -158.662279 
L 212.514306 -158.60551 
L 211.23473 -156.97928 
L 209.955154 -160.610017 
L 208.675579 -160.165976 
L 207.396003 -155.394503 
L 206.116427 -156.440107 
L 204.836851 -152.546178 
L 203.557275 -158.755163 
L 202.277699 -157.69382 
L 200.998123 -156.777213 
L 199.718547 -160.475119 
L 198.438971 -155.678352 
L 197.159395 -159.60952 
L 195.879819 -155.360357 
L 194.600243 -155.96178 
L 193.320667 -154.446279 
L 192.041091 -157.063732 
L 190.761516 -156.8115 
L 189.48194 -150.545605 
L 188.202364 -149.457845 
L 186.922788 -144.849656 
L 185.643212 -151.293589 
L 184.363636 -145.417494 
L 183.08406 -151.125528 
L 181.804484 -148.189237 
L 180.524908 -145.745607 
L 179.245332 -146.741326 
L 177.965756 -145.857319 
L 176.68618 -146.895757 
L 175.406604 -147.704726 
L 174.127029 -149.491007 
L 172.847453 -148.710844 
L 171.567877 -150.206953 
L 170.288301 -156.625171 
L 169.008725 -159.064305 
L 167.729149 -153.209569 
L 166.449573 -155.861168 
L 165.169997 -156.771171 
L 163.890421 -151.108946 
L 162.610845 -154.622772 
L 161.331269 -150.442604 
L 160.051693 -154.283558 
L 158.772117 -145.232711 
L 157.492542 -138.782033 
L 156.212966 -137.005307 
L 154.93339 -137.768327 
L 153.653814 -135.384277 
L 152.374238 -130.674914 
L 151.094662 -131.002043 
L 149.815086 -126.246449 
L 148.53551 -121.507857 
L 147.255934 -116.493427 
L 145.976358 -118.443413 
L 144.696782 -102.982077 
L 143.417206 -102.458221 
L 142.13763 -107.82128 
L 140.858054 -109.883259 
L 139.578479 -107.658558 
L 138.298903 -111.097627 
L 137.019327 -106.129146 
L 135.739751 -107.360095 
L 134.460175 -111.002214 
L 133.180599 -111.530286 
L 131.901023 -102.970554 
L 130.621447 -97.533582 
L 129.341871 -102.486887 
L 128.062295 -99.036717 
L 126.782719 -103.420356 
L 125.503143 -105.904456 
L 124.223567 -105.05572 
L 122.943992 -105.178252 
L 121.664416 -100.710161 
L 120.38484 -103.388739 
L 119.105264 -105.05572 
L 117.825688 -106.139123 
L 116.546112 -100.467906 
L 115.266536 -99.065523 
L 113.98696 -100.91279 
L 112.707384 -106.911698 
L 111.427808 -106.150365 
L 110.148232 -106.298472 
L 108.868656 -104.72845 
L 107.58908 -105.501166 
L 106.309505 -102.047904 
L 105.029929 -104.554206 
L 103.750353 -101.586439 
L 102.470777 -104.009554 
L 101.191201 -103.312718 
L 99.911625 -98.79952 
L 98.632049 -94.127676 
L 97.352473 -96.810189 
L 96.072897 -96.101269 
L 94.793321 -94.537851 
L 93.513745 -90.201707 
L 92.234169 -90.35656 
L 90.954593 -88.118509 
L 89.675017 -93.070971 
L 88.395442 -91.305908 
L 87.115866 -91.44165 
L 85.83629 -89.424214 
L 84.556714 -92.060918 
L 83.277138 -92.595032 
L 81.997562 -85.069803 
L 80.717986 -82.184099 
L 79.43841 -85.393138 
L 78.158834 -84.313669 
L 76.879258 -79.839956 
L 75.599682 -75.382404 
L 74.320106 -69.829925 
L 73.04053 -64.006244 
z
" style="stroke: #d499a7; stroke-opacity: 0.2"/>
    </defs>
    <g clip-path="url(#p22a0115ba8)">
     <use xlink:href="#mc89d1b67a5" x="0" y="362.097812" style="fill: #d499a7; fill-opacity: 0.2; stroke: #d499a7; stroke-opacity: 0.2"/>
    </g>
   </g>
   <g id="PolyCollection_3">
    <defs>
     <path id="mdfd3aa0af9" d="M 73.04053 -62.449009 
L 73.04053 -56.889364 
L 74.320106 -61.532683 
L 75.599682 -67.119308 
L 76.879258 -70.817775 
L 78.158834 -76.720007 
L 79.43841 -81.60797 
L 80.717986 -90.982854 
L 81.997562 -95.150094 
L 83.277138 -100.473386 
L 84.556714 -100.681073 
L 85.83629 -101.884199 
L 87.115866 -102.064064 
L 88.395442 -102.187721 
L 89.675017 -98.759051 
L 90.954593 -98.554173 
L 92.234169 -100.999912 
L 93.513745 -103.559189 
L 94.793321 -103.93016 
L 96.072897 -103.682846 
L 97.352473 -103.49174 
L 98.632049 -100.135437 
L 99.911625 -98.500214 
L 101.191201 -94.412227 
L 102.470777 -101.156028 
L 103.750353 -101.282777 
L 105.029929 -97.494377 
L 106.309505 -104.053817 
L 107.58908 -104.177474 
L 108.868656 -103.93016 
L 110.148232 -102.46876 
L 111.427808 -99.939413 
L 112.707384 -104.863208 
L 113.98696 -105.138626 
L 115.266536 -105.16673 
L 116.546112 -105.110522 
L 117.825688 -105.38594 
L 119.105264 -105.414044 
L 120.38484 -102.142755 
L 121.664416 -105.414044 
L 122.943992 -105.414044 
L 124.223567 -103.171356 
L 125.503143 -105.414044 
L 126.782719 -105.414044 
L 128.062295 -105.414044 
L 129.341871 -105.414044 
L 130.621447 -105.414044 
L 131.901023 -105.414044 
L 133.180599 -105.414044 
L 134.460175 -105.414044 
L 135.739751 -105.414044 
L 137.019327 -105.414044 
L 138.298903 -105.414044 
L 139.578479 -105.414044 
L 140.858054 -105.414044 
L 142.13763 -105.414044 
L 143.417206 -105.414044 
L 144.696782 -105.414044 
L 145.976358 -105.414044 
L 147.255934 -105.414044 
L 148.53551 -105.414044 
L 149.815086 -105.414044 
L 151.094662 -105.414044 
L 152.374238 -105.414044 
L 153.653814 -105.414044 
L 154.93339 -105.414044 
L 156.212966 -105.414044 
L 157.492542 -105.414044 
L 158.772117 -105.414044 
L 160.051693 -105.414044 
L 161.331269 -105.414044 
L 162.610845 -105.414044 
L 163.890421 -105.414044 
L 165.169997 -105.414044 
L 166.449573 -105.414044 
L 167.729149 -105.414044 
L 169.008725 -105.414044 
L 170.288301 -105.414044 
L 171.567877 -105.414044 
L 172.847453 -105.414044 
L 174.127029 -105.414044 
L 175.406604 -105.414044 
L 176.68618 -105.414044 
L 177.965756 -105.414044 
L 179.245332 -105.414044 
L 180.524908 -105.414044 
L 181.804484 -101.923545 
L 183.08406 -105.414044 
L 184.363636 -105.414044 
L 185.643212 -105.414044 
L 186.922788 -105.414044 
L 188.202364 -105.414044 
L 189.48194 -105.414044 
L 190.761516 -105.414044 
L 192.041091 -105.414044 
L 193.320667 -105.414044 
L 194.600243 -105.414044 
L 195.879819 -105.414044 
L 197.159395 -105.414044 
L 198.438971 -105.414044 
L 199.718547 -105.414044 
L 200.998123 -101.923545 
L 202.277699 -105.414044 
L 203.557275 -105.414044 
L 204.836851 -105.414044 
L 206.116427 -105.414044 
L 207.396003 -105.414044 
L 208.675579 -105.414044 
L 209.955154 -105.414044 
L 211.23473 -105.414044 
L 212.514306 -105.414044 
L 213.793882 -105.414044 
L 215.073458 -105.414044 
L 216.353034 -105.414044 
L 217.63261 -105.414044 
L 218.912186 -104.87445 
L 220.191762 -100.2879 
L 221.471338 -101.653748 
L 222.750914 -105.009348 
L 224.03049 -105.414044 
L 225.310066 -105.414044 
L 226.589641 -105.414044 
L 227.869217 -105.414044 
L 229.148793 -105.414044 
L 230.428369 -105.414044 
L 231.707945 -105.414044 
L 232.987521 -105.414044 
L 234.267097 -105.414044 
L 235.546673 -105.414044 
L 236.826249 -104.065059 
L 238.105825 -105.414044 
L 239.385401 -105.414044 
L 240.664977 -105.414044 
L 241.944553 -105.414044 
L 243.224128 -105.414044 
L 244.503704 -105.414044 
L 245.78328 -105.414044 
L 247.062856 -105.414044 
L 248.342432 -105.414044 
L 249.622008 -105.414044 
L 250.901584 -105.414044 
L 252.18116 -105.414044 
L 253.460736 -105.414044 
L 254.740312 -105.414044 
L 256.019888 -104.705827 
L 257.299464 -101.923545 
L 258.57904 -105.414044 
L 259.858616 -105.414044 
L 261.138191 -105.414044 
L 262.417767 -105.414044 
L 263.697343 -105.414044 
L 264.976919 -105.414044 
L 266.256495 -105.414044 
L 267.536071 -105.414044 
L 268.815647 -105.414044 
L 270.095223 -105.414044 
L 271.374799 -105.414044 
L 272.654375 -103.306255 
L 273.933951 -98.236319 
L 275.213527 -99.793273 
L 276.493103 -101.901062 
L 277.772678 -101.901062 
L 279.052254 -105.414044 
L 280.33183 -104.717068 
L 281.611406 -104.542824 
L 282.890982 -105.414044 
L 284.170558 -105.414044 
L 285.450134 -105.414044 
L 286.72971 -105.414044 
L 288.009286 -105.414044 
L 289.288862 -105.414044 
L 290.568438 -105.414044 
L 291.848014 -105.414044 
L 293.12759 -105.414044 
L 294.407165 -105.414044 
L 295.686741 -105.633254 
L 296.966317 -105.633254 
L 298.245893 -105.633254 
L 299.525469 -100.557697 
L 300.805045 -105.633254 
L 302.084621 -105.633254 
L 303.364197 -105.414044 
L 304.643773 -105.414044 
L 305.923349 -105.414044 
L 307.202925 -105.633254 
L 308.482501 -105.633254 
L 309.762077 -105.852464 
L 311.041653 -105.852464 
L 312.321228 -106.071674 
L 313.600804 -106.290884 
L 314.88038 -106.290884 
L 316.159956 -104.183095 
L 317.439532 -104.503479 
L 318.719108 -105.397181 
L 319.998684 -102.682349 
L 321.27826 -104.166233 
L 322.557836 -105.599529 
L 323.837412 -105.717565 
L 325.116988 -105.498355 
L 326.396564 -105.801877 
L 327.67614 -105.580559 
L 327.67614 -109.680209 
L 327.67614 -109.680209 
L 326.396564 -109.798245 
L 325.116988 -108.921405 
L 323.837412 -109.02553 
L 322.557836 -108.704724 
L 321.27826 -108.482985 
L 319.998684 -108.263775 
L 318.719108 -108.702195 
L 317.439532 -107.606144 
L 316.159956 -108.027702 
L 314.88038 -108.263775 
L 313.600804 -108.263775 
L 312.321228 -108.263775 
L 311.041653 -107.825355 
L 309.762077 -107.825355 
L 308.482501 -107.386934 
L 307.202925 -107.167724 
L 305.923349 -106.510094 
L 304.643773 -106.729304 
L 303.364197 -106.948514 
L 302.084621 -107.167724 
L 300.805045 -107.167724 
L 299.525469 -106.729304 
L 298.245893 -107.167724 
L 296.966317 -107.386934 
L 295.686741 -107.167724 
L 294.407165 -106.510094 
L 293.12759 -106.510094 
L 291.848014 -106.071674 
L 290.568438 -106.071674 
L 289.288862 -106.510094 
L 288.009286 -106.071674 
L 286.72971 -106.510094 
L 285.450134 -106.071674 
L 284.170558 -106.071674 
L 282.890982 -105.414044 
L 281.611406 -105.414044 
L 280.33183 -105.414044 
L 279.052254 -105.414044 
L 277.772678 -105.414044 
L 276.493103 -105.414044 
L 275.213527 -105.414044 
L 273.933951 -105.414044 
L 272.654375 -105.414044 
L 271.374799 -105.414044 
L 270.095223 -105.414044 
L 268.815647 -105.414044 
L 267.536071 -105.414044 
L 266.256495 -105.414044 
L 264.976919 -105.414044 
L 263.697343 -105.414044 
L 262.417767 -105.414044 
L 261.138191 -105.414044 
L 259.858616 -105.414044 
L 258.57904 -105.414044 
L 257.299464 -105.414044 
L 256.019888 -105.414044 
L 254.740312 -105.414044 
L 253.460736 -105.414044 
L 252.18116 -105.414044 
L 250.901584 -105.414044 
L 249.622008 -105.414044 
L 248.342432 -105.414044 
L 247.062856 -105.414044 
L 245.78328 -105.414044 
L 244.503704 -105.414044 
L 243.224128 -105.414044 
L 241.944553 -105.414044 
L 240.664977 -105.414044 
L 239.385401 -105.414044 
L 238.105825 -105.414044 
L 236.826249 -105.414044 
L 235.546673 -105.414044 
L 234.267097 -105.414044 
L 232.987521 -105.414044 
L 231.707945 -105.414044 
L 230.428369 -105.414044 
L 229.148793 -105.414044 
L 227.869217 -105.414044 
L 226.589641 -105.414044 
L 225.310066 -105.414044 
L 224.03049 -105.414044 
L 222.750914 -105.414044 
L 221.471338 -105.414044 
L 220.191762 -105.414044 
L 218.912186 -105.414044 
L 217.63261 -105.414044 
L 216.353034 -105.414044 
L 215.073458 -105.414044 
L 213.793882 -105.414044 
L 212.514306 -105.414044 
L 211.23473 -105.414044 
L 209.955154 -105.414044 
L 208.675579 -105.414044 
L 207.396003 -105.414044 
L 206.116427 -105.414044 
L 204.836851 -105.414044 
L 203.557275 -105.414044 
L 202.277699 -105.414044 
L 200.998123 -105.414044 
L 199.718547 -105.414044 
L 198.438971 -105.414044 
L 197.159395 -105.414044 
L 195.879819 -105.414044 
L 194.600243 -105.414044 
L 193.320667 -105.414044 
L 192.041091 -105.414044 
L 190.761516 -105.414044 
L 189.48194 -105.414044 
L 188.202364 -105.414044 
L 186.922788 -105.414044 
L 185.643212 -105.414044 
L 184.363636 -105.414044 
L 183.08406 -105.414044 
L 181.804484 -105.414044 
L 180.524908 -105.414044 
L 179.245332 -105.414044 
L 177.965756 -105.414044 
L 176.68618 -105.414044 
L 175.406604 -105.414044 
L 174.127029 -105.414044 
L 172.847453 -105.414044 
L 171.567877 -105.414044 
L 170.288301 -105.414044 
L 169.008725 -105.414044 
L 167.729149 -105.414044 
L 166.449573 -105.414044 
L 165.169997 -105.414044 
L 163.890421 -105.414044 
L 162.610845 -105.414044 
L 161.331269 -105.414044 
L 160.051693 -105.414044 
L 158.772117 -105.414044 
L 157.492542 -105.414044 
L 156.212966 -105.414044 
L 154.93339 -105.414044 
L 153.653814 -105.414044 
L 152.374238 -105.414044 
L 151.094662 -105.414044 
L 149.815086 -105.414044 
L 148.53551 -105.414044 
L 147.255934 -105.414044 
L 145.976358 -105.414044 
L 144.696782 -105.414044 
L 143.417206 -105.414044 
L 142.13763 -105.414044 
L 140.858054 -105.414044 
L 139.578479 -105.414044 
L 138.298903 -105.414044 
L 137.019327 -105.414044 
L 135.739751 -105.414044 
L 134.460175 -105.414044 
L 133.180599 -105.414044 
L 131.901023 -105.414044 
L 130.621447 -105.414044 
L 129.341871 -105.414044 
L 128.062295 -105.414044 
L 126.782719 -105.414044 
L 125.503143 -105.414044 
L 124.223567 -105.852464 
L 122.943992 -106.071674 
L 121.664416 -106.948514 
L 120.38484 -106.729304 
L 119.105264 -106.510094 
L 117.825688 -107.263277 
L 116.546112 -106.7012 
L 115.266536 -106.386437 
L 113.98696 -106.111722 
L 112.707384 -105.548942 
L 111.427808 -105.290387 
L 110.148232 -105.290387 
L 108.868656 -105.043073 
L 107.58908 -105.16673 
L 106.309505 -105.16673 
L 105.029929 -104.795759 
L 103.750353 -105.043073 
L 102.470777 -105.043073 
L 101.191201 -103.178804 
L 99.911625 -104.098783 
L 98.632049 -104.919416 
L 97.352473 -104.919416 
L 96.072897 -104.795759 
L 94.793321 -105.043073 
L 93.513745 -104.795759 
L 92.234169 -104.053817 
L 90.954593 -103.918919 
L 89.675017 -103.435532 
L 88.395442 -103.435532 
L 87.115866 -103.311875 
L 85.83629 -103.289392 
L 84.556714 -103.064561 
L 83.277138 -102.817247 
L 81.997562 -102.446277 
L 80.717986 -100.097637 
L 79.43841 -94.780669 
L 78.158834 -89.867553 
L 76.879258 -83.347317 
L 75.599682 -78.007866 
L 74.320106 -69.819105 
L 73.04053 -62.449009 
z
" style="stroke: #a9678f; stroke-opacity: 0.2"/>
    </defs>
    <g clip-path="url(#p22a0115ba8)">
     <use xlink:href="#mdfd3aa0af9" x="0" y="362.097812" style="fill: #a9678f; fill-opacity: 0.2; stroke: #a9678f; stroke-opacity: 0.2"/>
    </g>
   </g>
   <g id="PolyCollection_4">
    <defs>
     <path id="m55c593e7b5" d="M 73.04053 -64.838258 
L 73.04053 -58.74478 
L 74.320106 -64.168684 
L 75.599682 -69.564062 
L 76.879258 -74.645521 
L 78.158834 -74.538164 
L 79.43841 -79.161951 
L 80.717986 -90.113602 
L 81.997562 -101.816469 
L 83.277138 -99.532609 
L 84.556714 -107.716312 
L 85.83629 -121.056088 
L 87.115866 -112.860863 
L 88.395442 -116.188922 
L 89.675017 -115.738979 
L 90.954593 -113.40678 
L 92.234169 -115.351567 
L 93.513745 -123.102611 
L 94.793321 -123.726516 
L 96.072897 -119.173692 
L 97.352473 -116.601908 
L 98.632049 -118.526741 
L 99.911625 -118.830403 
L 101.191201 -106.186338 
L 102.470777 -117.217663 
L 103.750353 -119.496183 
L 105.029929 -112.39462 
L 106.309505 -110.42735 
L 107.58908 -116.183301 
L 108.868656 -113.209491 
L 110.148232 -109.342682 
L 111.427808 -111.776054 
L 112.707384 -111.309811 
L 113.98696 -112.751961 
L 115.266536 -110.58979 
L 116.546112 -105.069912 
L 117.825688 -109.578473 
L 119.105264 -100.767774 
L 120.38484 -101.279966 
L 121.664416 -90.648418 
L 122.943992 -98.311216 
L 124.223567 -107.777859 
L 125.503143 -109.05532 
L 126.782719 -97.064669 
L 128.062295 -107.167865 
L 129.341871 -101.967808 
L 130.621447 -105.733444 
L 131.901023 -113.264153 
L 133.180599 -99.414433 
L 134.460175 -93.882751 
L 135.739751 -109.802742 
L 137.019327 -105.796678 
L 138.298903 -98.398759 
L 139.578479 -104.148106 
L 140.858054 -106.671832 
L 142.13763 -107.498788 
L 143.417206 -108.897657 
L 144.696782 -117.253215 
L 145.976358 -112.775708 
L 147.255934 -113.361112 
L 148.53551 -118.666839 
L 149.815086 -108.416941 
L 151.094662 -118.431469 
L 152.374238 -116.204941 
L 153.653814 -102.361262 
L 154.93339 -105.579997 
L 156.212966 -114.264791 
L 157.492542 -109.345633 
L 158.772117 -120.516775 
L 160.051693 -114.915114 
L 161.331269 -119.284421 
L 162.610845 -119.970998 
L 163.890421 -119.143761 
L 165.169997 -112.650787 
L 166.449573 -118.278162 
L 167.729149 -111.261754 
L 169.008725 -102.966619 
L 170.288301 -118.111085 
L 171.567877 -111.596892 
L 172.847453 -106.76345 
L 174.127029 -124.613755 
L 175.406604 -118.806515 
L 176.68618 -127.473603 
L 177.965756 -116.272812 
L 179.245332 -130.912813 
L 180.524908 -122.297857 
L 181.804484 -124.507241 
L 183.08406 -117.357761 
L 184.363636 -129.08269 
L 185.643212 -118.766607 
L 186.922788 -114.548078 
L 188.202364 -117.576831 
L 189.48194 -122.711124 
L 190.761516 -119.644993 
L 192.041091 -121.12972 
L 193.320667 -135.738104 
L 194.600243 -110.774573 
L 195.879819 -126.889465 
L 197.159395 -126.474933 
L 198.438971 -111.591131 
L 199.718547 -112.038404 
L 200.998123 -119.049754 
L 202.277699 -129.135244 
L 203.557275 -116.935922 
L 204.836851 -125.165293 
L 206.116427 -127.291631 
L 207.396003 -110.915374 
L 208.675579 -128.897907 
L 209.955154 -127.901625 
L 211.23473 -142.914846 
L 212.514306 -122.110685 
L 213.793882 -127.776844 
L 215.073458 -120.531108 
L 216.353034 -122.590137 
L 217.63261 -117.749669 
L 218.912186 -127.70546 
L 220.191762 -115.947791 
L 221.471338 -120.011187 
L 222.750914 -126.491233 
L 224.03049 -119.426205 
L 225.310066 -128.114793 
L 226.589641 -124.805845 
L 227.869217 -125.069319 
L 229.148793 -109.286615 
L 230.428369 -129.773201 
L 231.707945 -115.698088 
L 232.987521 -130.834403 
L 234.267097 -128.451477 
L 235.546673 -119.166666 
L 236.826249 -120.114749 
L 238.105825 -126.460459 
L 239.385401 -116.294452 
L 240.664977 -129.388881 
L 241.944553 -137.272013 
L 243.224128 -124.780973 
L 244.503704 -161.27102 
L 245.78328 -137.657176 
L 247.062856 -135.905463 
L 248.342432 -150.784628 
L 249.622008 -123.237228 
L 250.901584 -139.745152 
L 252.18116 -144.511145 
L 253.460736 -134.854098 
L 254.740312 -122.839278 
L 256.019888 -123.361869 
L 257.299464 -125.063838 
L 258.57904 -132.123808 
L 259.858616 -139.635969 
L 261.138191 -123.561828 
L 262.417767 -133.726571 
L 263.697343 -138.48076 
L 264.976919 -133.848682 
L 266.256495 -133.091705 
L 267.536071 -143.326708 
L 268.815647 -144.065699 
L 270.095223 -139.734473 
L 271.374799 -135.498519 
L 272.654375 -153.218281 
L 273.933951 -141.032309 
L 275.213527 -124.202596 
L 276.493103 -142.993536 
L 277.772678 -148.873847 
L 279.052254 -151.030677 
L 280.33183 -131.7808 
L 281.611406 -147.090938 
L 282.890982 -137.78814 
L 284.170558 -147.023629 
L 285.450134 -127.840359 
L 286.72971 -135.126565 
L 288.009286 -149.576443 
L 289.288862 -149.926898 
L 290.568438 -122.170827 
L 291.848014 -126.597466 
L 293.12759 -129.381153 
L 294.407165 -127.966967 
L 295.686741 -137.83943 
L 296.966317 -137.307845 
L 298.245893 -161.17645 
L 299.525469 -156.247034 
L 300.805045 -147.849602 
L 302.084621 -148.057851 
L 303.364197 -156.04019 
L 304.643773 -141.337657 
L 305.923349 -150.951003 
L 307.202925 -140.447187 
L 308.482501 -150.624014 
L 309.762077 -167.498132 
L 311.041653 -152.906891 
L 312.321228 -161.482642 
L 313.600804 -164.212931 
L 314.88038 -174.077385 
L 316.159956 -173.998694 
L 317.439532 -174.099868 
L 318.719108 -161.829724 
L 319.998684 -177.899509 
L 321.27826 -175.437611 
L 322.557836 -173.796346 
L 323.837412 -173.629269 
L 325.116988 -165.631614 
L 326.396564 -159.164776 
L 327.67614 -170.878604 
L 327.67614 -177.018172 
L 327.67614 -177.018172 
L 326.396564 -177.129464 
L 325.116988 -176.96084 
L 323.837412 -177.899509 
L 322.557836 -177.899509 
L 321.27826 -177.899509 
L 319.998684 -177.899509 
L 318.719108 -177.899509 
L 317.439532 -177.899509 
L 316.159956 -177.899509 
L 314.88038 -177.899509 
L 313.600804 -177.359915 
L 312.321228 -176.820321 
L 311.041653 -175.021674 
L 309.762077 -176.640457 
L 308.482501 -172.542071 
L 307.202925 -169.682223 
L 305.923349 -172.842923 
L 304.643773 -168.336048 
L 303.364197 -172.998478 
L 302.084621 -172.250634 
L 300.805045 -171.181142 
L 299.525469 -175.42637 
L 298.245893 -175.371286 
L 296.966317 -166.335897 
L 295.686741 -167.434476 
L 294.407165 -159.160842 
L 293.12759 -159.808636 
L 291.848014 -156.036677 
L 290.568438 -154.21091 
L 289.288862 -168.102505 
L 288.009286 -169.429569 
L 286.72971 -162.533023 
L 285.450134 -158.347797 
L 284.170558 -169.181974 
L 282.890982 -166.411074 
L 281.611406 -171.768372 
L 280.33183 -163.410004 
L 279.052254 -172.606148 
L 277.772678 -171.370843 
L 276.493103 -170.10364 
L 275.213527 -157.553301 
L 273.933951 -166.157297 
L 272.654375 -172.054188 
L 271.374799 -165.450204 
L 270.095223 -165.418306 
L 268.815647 -168.037445 
L 267.536071 -168.305274 
L 266.256495 -161.167598 
L 264.976919 -158.848046 
L 263.697343 -161.599975 
L 262.417767 -160.660744 
L 261.138191 -154.45724 
L 259.858616 -162.431287 
L 258.57904 -158.319131 
L 257.299464 -155.711936 
L 256.019888 -152.969703 
L 254.740312 -156.84129 
L 253.460736 -162.9543 
L 252.18116 -166.513794 
L 250.901584 -165.124761 
L 249.622008 -153.3803 
L 248.342432 -167.501364 
L 247.062856 -162.316764 
L 245.78328 -161.961953 
L 244.503704 -167.591296 
L 243.224128 -154.916878 
L 241.944553 -159.446517 
L 240.664977 -154.748115 
L 239.385401 -144.120079 
L 238.105825 -148.762555 
L 236.826249 -146.315974 
L 235.546673 -146.659684 
L 234.267097 -151.55369 
L 232.987521 -152.022603 
L 231.707945 -142.651091 
L 230.428369 -152.349591 
L 229.148793 -139.622479 
L 227.869217 -148.717589 
L 226.589641 -149.751952 
L 225.310066 -152.826514 
L 224.03049 -149.226269 
L 222.750914 -148.429806 
L 221.471338 -150.217633 
L 220.191762 -145.272619 
L 218.912186 -152.797426 
L 217.63261 -147.515728 
L 216.353034 -147.647394 
L 215.073458 -145.962709 
L 213.793882 -149.415408 
L 212.514306 -146.642822 
L 211.23473 -157.603326 
L 209.955154 -153.65895 
L 208.675579 -151.578281 
L 207.396003 -139.549409 
L 206.116427 -148.7908 
L 204.836851 -149.421029 
L 203.557275 -144.694241 
L 202.277699 -151.147027 
L 200.998123 -143.804192 
L 199.718547 -139.554889 
L 198.438971 -138.402772 
L 197.159395 -147.457412 
L 195.879819 -147.696576 
L 194.600243 -139.150053 
L 193.320667 -151.111897 
L 192.041091 -142.888006 
L 190.761516 -141.708628 
L 189.48194 -143.669294 
L 188.202364 -140.205774 
L 186.922788 -138.454483 
L 185.643212 -140.702229 
L 184.363636 -144.607962 
L 183.08406 -136.132823 
L 181.804484 -141.321216 
L 180.524908 -140.276034 
L 179.245332 -145.867577 
L 177.965756 -139.525099 
L 176.68618 -144.314699 
L 175.406604 -140.989169 
L 174.127029 -139.314601 
L 172.847453 -131.220269 
L 171.567877 -133.465908 
L 170.288301 -135.058132 
L 169.008725 -126.874148 
L 167.729149 -132.057623 
L 166.449573 -136.041767 
L 165.169997 -134.019273 
L 163.890421 -137.23885 
L 162.610845 -136.322103 
L 161.331269 -135.352941 
L 160.051693 -134.542847 
L 158.772117 -135.23898 
L 157.492542 -130.989255 
L 156.212966 -131.102233 
L 154.93339 -124.476187 
L 153.653814 -123.659348 
L 152.374238 -130.689668 
L 151.094662 -132.652442 
L 149.815086 -124.806969 
L 148.53551 -131.236288 
L 147.255934 -127.31313 
L 145.976358 -127.398285 
L 144.696782 -129.360637 
L 143.417206 -126.72857 
L 142.13763 -123.468523 
L 140.858054 -124.024979 
L 139.578479 -122.214529 
L 138.298903 -118.148322 
L 137.019327 -122.147361 
L 135.739751 -124.295619 
L 134.460175 -113.733769 
L 133.180599 -117.734915 
L 131.901023 -125.57842 
L 130.621447 -120.843482 
L 129.341871 -118.528708 
L 128.062295 -121.967777 
L 126.782719 -116.206205 
L 125.503143 -121.54116 
L 124.223567 -122.928648 
L 122.943992 -117.499826 
L 121.664416 -109.910661 
L 120.38484 -119.112706 
L 119.105264 -116.194823 
L 117.825688 -124.603919 
L 116.546112 -119.191257 
L 115.266536 -123.23779 
L 113.98696 -125.48652 
L 112.707384 -124.204844 
L 111.427808 -124.963648 
L 110.148232 -123.119754 
L 108.868656 -124.890859 
L 107.58908 -125.301035 
L 106.309505 -123.508571 
L 105.029929 -124.525509 
L 103.750353 -126.255863 
L 102.470777 -125.919179 
L 101.191201 -121.557742 
L 99.911625 -125.289091 
L 98.632049 -124.906878 
L 97.352473 -124.573848 
L 96.072897 -125.075501 
L 94.793321 -125.412748 
L 93.513745 -125.244125 
L 92.234169 -124.232386 
L 90.954593 -123.423838 
L 89.675017 -123.896545 
L 88.395442 -123.726938 
L 87.115866 -123.108232 
L 85.83629 -123.906522 
L 84.556714 -120.972338 
L 83.277138 -115.150063 
L 81.997562 -115.256436 
L 80.717986 -109.036209 
L 79.43841 -96.92148 
L 78.158834 -91.44727 
L 76.879258 -92.481211 
L 75.599682 -82.97733 
L 74.320106 -74.665474 
L 73.04053 -64.838258 
z
" style="stroke: #6c3f70; stroke-opacity: 0.2"/>
    </defs>
    <g clip-path="url(#p22a0115ba8)">
     <use xlink:href="#m55c593e7b5" x="0" y="362.097812" style="fill: #6c3f70; fill-opacity: 0.2; stroke: #6c3f70; stroke-opacity: 0.2"/>
    </g>
   </g>
   <g id="PolyCollection_5">
    <defs>
     <path id="mcc945b5d6c" d="M 73.04053 -64.981026 
L 73.04053 -56.451506 
L 74.320106 -65.426753 
L 75.599682 -70.683158 
L 76.879258 -71.181861 
L 78.158834 -67.910712 
L 79.43841 -75.174295 
L 80.717986 -71.264205 
L 81.997562 -75.228676 
L 83.277138 -82.340637 
L 84.556714 -90.99536 
L 85.83629 -93.41173 
L 87.115866 -109.78068 
L 88.395442 -122.048716 
L 89.675017 -145.663403 
L 90.954593 -166.354305 
L 92.234169 -173.52135 
L 93.513745 -199.954291 
L 94.793321 -201.300185 
L 96.072897 -247.407652 
L 97.352473 -240.252692 
L 98.632049 -244.501714 
L 99.911625 -270.363304 
L 101.191201 -284.294104 
L 102.470777 -285.636204 
L 103.750353 -294.474304 
L 105.029929 -297.048617 
L 106.309505 -285.418399 
L 107.58908 -295.126314 
L 108.868656 -280.830585 
L 110.148232 -298.071598 
L 111.427808 -265.48602 
L 112.707384 -285.983989 
L 113.98696 -274.231799 
L 115.266536 -270.046433 
L 116.546112 -287.246555 
L 117.825688 -287.262855 
L 119.105264 -269.596771 
L 120.38484 -308.683614 
L 121.664416 -285.98694 
L 122.943992 -284.930235 
L 124.223567 -306.727585 
L 125.503143 -272.855975 
L 126.782719 -274.617244 
L 128.062295 -270.349954 
L 129.341871 -282.965213 
L 130.621447 -307.379595 
L 131.901023 -306.412822 
L 133.180599 -271.977589 
L 134.460175 -282.771859 
L 135.739751 -252.621199 
L 137.019327 -278.341988 
L 138.298903 -269.254325 
L 139.578479 -273.90186 
L 140.858054 -282.086124 
L 142.13763 -285.683418 
L 143.417206 -308.930928 
L 144.696782 -306.772552 
L 145.976358 -267.018242 
L 147.255934 -241.568233 
L 148.53551 -257.886737 
L 149.815086 -276.273123 
L 151.094662 -308.470025 
L 152.374238 -262.944588 
L 153.653814 -279.134376 
L 154.93339 -278.275242 
L 156.212966 -316.507727 
L 157.492542 -318.463756 
L 158.772117 -295.44726 
L 160.051693 -258.545773 
L 161.331269 -320.419784 
L 162.610845 -321.071794 
L 163.890421 -321.071794 
L 165.169997 -321.071794 
L 166.449573 -321.723803 
L 167.729149 -321.071794 
L 169.008725 -321.071794 
L 170.288301 -296.111635 
L 171.567877 -319.115765 
L 172.847453 -294.79525 
L 174.127029 -295.998095 
L 175.406604 -295.098772 
L 176.68618 -319.115765 
L 177.965756 -295.09821 
L 179.245332 -297.419588 
L 180.524908 -297.453313 
L 181.804484 -306.800656 
L 183.08406 -306.800656 
L 184.363636 -321.071794 
L 185.643212 -323.027822 
L 186.922788 -324.331841 
L 188.202364 -301.432819 
L 189.48194 -326.287869 
L 190.761516 -326.287869 
L 192.041091 -326.287869 
L 193.320667 -326.287869 
L 194.600243 -301.331645 
L 195.879819 -326.287869 
L 197.159395 -326.287869 
L 198.438971 -326.287869 
L 199.718547 -326.287869 
L 200.998123 -326.287869 
L 202.277699 -326.287869 
L 203.557275 -326.287869 
L 204.836851 -326.287869 
L 206.116427 -326.287869 
L 207.396003 -301.635167 
L 208.675579 -326.287869 
L 209.955154 -326.287869 
L 211.23473 -326.287869 
L 212.514306 -326.287869 
L 213.793882 -326.287869 
L 215.073458 -326.287869 
L 216.353034 -326.287869 
L 217.63261 -307.587563 
L 218.912186 -326.287869 
L 220.191762 -301.500268 
L 221.471338 -301.331645 
L 222.750914 -307.587563 
L 224.03049 -290.950081 
L 225.310066 -326.287869 
L 226.589641 -326.287869 
L 227.869217 -326.287869 
L 229.148793 -326.287869 
L 230.428369 -301.230471 
L 231.707945 -301.230471 
L 232.987521 -309.45928 
L 234.267097 -295.328661 
L 235.546673 -326.287869 
L 236.826249 -326.287869 
L 238.105825 -326.287869 
L 239.385401 -326.287869 
L 240.664977 -326.287869 
L 241.944553 -326.287869 
L 243.224128 -326.287869 
L 244.503704 -326.287869 
L 245.78328 -326.287869 
L 247.062856 -326.287869 
L 248.342432 -301.331645 
L 249.622008 -326.287869 
L 250.901584 -315.108155 
L 252.18116 -301.635167 
L 253.460736 -301.635167 
L 254.740312 -326.287869 
L 256.019888 -326.287869 
L 257.299464 -326.287869 
L 258.57904 -326.287869 
L 259.858616 -326.287869 
L 261.138191 -326.287869 
L 262.417767 -326.287869 
L 263.697343 -326.287869 
L 264.976919 -326.287869 
L 266.256495 -326.287869 
L 267.536071 -326.287869 
L 268.815647 -326.287869 
L 270.095223 -326.287869 
L 271.374799 -326.287869 
L 272.654375 -326.287869 
L 273.933951 -326.287869 
L 275.213527 -326.287869 
L 276.493103 -326.287869 
L 277.772678 -326.287869 
L 279.052254 -326.287869 
L 280.33183 -326.287869 
L 281.611406 -326.287869 
L 282.890982 -326.287869 
L 284.170558 -326.287869 
L 285.450134 -326.287869 
L 286.72971 -326.287869 
L 288.009286 -318.092785 
L 289.288862 -326.287869 
L 290.568438 -326.287869 
L 291.848014 -326.287869 
L 293.12759 -309.155759 
L 294.407165 -326.287869 
L 295.686741 -326.287869 
L 296.966317 -326.287869 
L 298.245893 -326.287869 
L 299.525469 -276.556269 
L 300.805045 -326.287869 
L 302.084621 -326.287869 
L 303.364197 -326.287869 
L 304.643773 -326.287869 
L 305.923349 -326.287869 
L 307.202925 -326.287869 
L 308.482501 -326.287869 
L 309.762077 -326.287869 
L 311.041653 -326.287869 
L 312.321228 -326.287869 
L 313.600804 -326.287869 
L 314.88038 -326.287869 
L 316.159956 -326.287869 
L 317.439532 -301.618304 
L 318.719108 -326.287869 
L 319.998684 -309.155759 
L 321.27826 -326.287869 
L 322.557836 -307.587563 
L 323.837412 -286.93685 
L 325.116988 -326.287869 
L 326.396564 -326.287869 
L 327.67614 -326.287869 
L 327.67614 -326.287869 
L 327.67614 -326.287869 
L 326.396564 -326.287869 
L 325.116988 -326.287869 
L 323.837412 -326.287869 
L 322.557836 -326.287869 
L 321.27826 -326.287869 
L 319.998684 -326.287869 
L 318.719108 -326.287869 
L 317.439532 -326.287869 
L 316.159956 -326.287869 
L 314.88038 -326.287869 
L 313.600804 -326.287869 
L 312.321228 -326.287869 
L 311.041653 -326.287869 
L 309.762077 -326.287869 
L 308.482501 -326.287869 
L 307.202925 -326.287869 
L 305.923349 -326.287869 
L 304.643773 -326.287869 
L 303.364197 -326.287869 
L 302.084621 -326.287869 
L 300.805045 -326.287869 
L 299.525469 -326.287869 
L 298.245893 -326.287869 
L 296.966317 -326.287869 
L 295.686741 -326.287869 
L 294.407165 -326.287869 
L 293.12759 -326.287869 
L 291.848014 -326.287869 
L 290.568438 -326.287869 
L 289.288862 -326.287869 
L 288.009286 -326.287869 
L 286.72971 -326.287869 
L 285.450134 -326.287869 
L 284.170558 -326.287869 
L 282.890982 -326.287869 
L 281.611406 -326.287869 
L 280.33183 -326.287869 
L 279.052254 -326.287869 
L 277.772678 -326.287869 
L 276.493103 -326.287869 
L 275.213527 -326.287869 
L 273.933951 -326.287869 
L 272.654375 -326.287869 
L 271.374799 -326.287869 
L 270.095223 -326.287869 
L 268.815647 -326.287869 
L 267.536071 -326.287869 
L 266.256495 -326.287869 
L 264.976919 -326.287869 
L 263.697343 -326.287869 
L 262.417767 -326.287869 
L 261.138191 -326.287869 
L 259.858616 -326.287869 
L 258.57904 -326.287869 
L 257.299464 -326.287869 
L 256.019888 -326.287869 
L 254.740312 -326.287869 
L 253.460736 -326.287869 
L 252.18116 -326.287869 
L 250.901584 -326.287869 
L 249.622008 -326.287869 
L 248.342432 -326.287869 
L 247.062856 -326.287869 
L 245.78328 -326.287869 
L 244.503704 -326.287869 
L 243.224128 -326.287869 
L 241.944553 -326.287869 
L 240.664977 -326.287869 
L 239.385401 -326.287869 
L 238.105825 -326.287869 
L 236.826249 -326.287869 
L 235.546673 -326.287869 
L 234.267097 -326.287869 
L 232.987521 -326.287869 
L 231.707945 -326.287869 
L 230.428369 -326.287869 
L 229.148793 -326.287869 
L 227.869217 -326.287869 
L 226.589641 -326.287869 
L 225.310066 -326.287869 
L 224.03049 -326.287869 
L 222.750914 -326.287869 
L 221.471338 -326.287869 
L 220.191762 -326.287869 
L 218.912186 -326.287869 
L 217.63261 -326.287869 
L 216.353034 -326.287869 
L 215.073458 -326.287869 
L 213.793882 -326.287869 
L 212.514306 -326.287869 
L 211.23473 -326.287869 
L 209.955154 -326.287869 
L 208.675579 -326.287869 
L 207.396003 -326.287869 
L 206.116427 -326.287869 
L 204.836851 -326.287869 
L 203.557275 -326.287869 
L 202.277699 -326.287869 
L 200.998123 -326.287869 
L 199.718547 -326.287869 
L 198.438971 -326.287869 
L 197.159395 -326.287869 
L 195.879819 -326.287869 
L 194.600243 -326.287869 
L 193.320667 -326.287869 
L 192.041091 -326.287869 
L 190.761516 -326.287869 
L 189.48194 -326.287869 
L 188.202364 -326.287869 
L 186.922788 -326.287869 
L 185.643212 -326.287869 
L 184.363636 -325.63586 
L 183.08406 -325.63586 
L 181.804484 -325.63586 
L 180.524908 -324.98385 
L 179.245332 -324.331841 
L 177.965756 -323.679831 
L 176.68618 -324.331841 
L 175.406604 -323.027822 
L 174.127029 -324.98385 
L 172.847453 -323.027822 
L 171.567877 -324.98385 
L 170.288301 -325.000151 
L 169.008725 -325.63586 
L 167.729149 -325.63586 
L 166.449573 -326.287869 
L 165.169997 -325.63586 
L 163.890421 -325.63586 
L 162.610845 -325.63586 
L 161.331269 -325.63586 
L 160.051693 -316.114273 
L 158.772117 -323.679831 
L 157.492542 -324.331841 
L 156.212966 -323.027822 
L 154.93339 -321.071794 
L 153.653814 -317.811746 
L 152.374238 -314.551699 
L 151.094662 -319.115765 
L 149.815086 -319.132065 
L 148.53551 -310.115365 
L 147.255934 -308.158634 
L 145.976358 -314.639664 
L 144.696782 -318.463756 
L 143.417206 -321.071794 
L 142.13763 -319.767775 
L 140.858054 -317.159737 
L 139.578479 -314.900187 
L 138.298903 -311.291652 
L 137.019327 -310.427599 
L 135.739751 -304.92669 
L 134.460175 -311.13427 
L 133.180599 -313.24768 
L 131.901023 -313.260046 
L 130.621447 -313.24768 
L 129.341871 -309.987633 
L 128.062295 -309.987633 
L 126.782719 -310.003933 
L 125.503143 -311.291652 
L 124.223567 -312.595671 
L 122.943992 -312.611971 
L 121.664416 -312.595671 
L 120.38484 -315.203708 
L 119.105264 -310.655942 
L 117.825688 -311.307952 
L 116.546112 -313.24768 
L 115.266536 -310.639642 
L 113.98696 -310.032599 
L 112.707384 -311.291652 
L 111.427808 -307.255938 
L 110.148232 -309.987633 
L 108.868656 -309.335623 
L 107.58908 -309.377077 
L 106.309505 -311.291652 
L 105.029929 -308.683614 
L 103.750353 -307.722462 
L 102.470777 -301.889226 
L 101.191201 -300.934678 
L 99.911625 -302.760024 
L 98.632049 -288.369866 
L 97.352473 -283.985945 
L 96.072897 -287.370071 
L 94.793321 -259.074687 
L 93.513745 -250.105623 
L 92.234169 -223.550289 
L 90.954593 -212.991249 
L 89.675017 -184.521902 
L 88.395442 -155.219838 
L 87.115866 -145.09978 
L 85.83629 -120.943251 
L 84.556714 -115.402576 
L 83.277138 -103.596286 
L 81.997562 -93.453043 
L 80.717986 -86.219532 
L 79.43841 -89.529744 
L 78.158834 -80.520491 
L 76.879258 -82.751797 
L 75.599682 -81.689331 
L 74.320106 -76.29873 
L 73.04053 -64.981026 
z
" style="stroke: #2d1e3e; stroke-opacity: 0.2"/>
    </defs>
    <g clip-path="url(#p22a0115ba8)">
     <use xlink:href="#mcc945b5d6c" x="0" y="362.097812" style="fill: #2d1e3e; fill-opacity: 0.2; stroke: #2d1e3e; stroke-opacity: 0.2"/>
    </g>
   </g>
   <g id="line2d_14">
    <path d="M 73.04053 294.134967 
L 74.320106 278.211323 
L 75.599682 265.187996 
L 76.879258 262.242712 
L 78.158834 273.669739 
L 79.43841 274.265541 
L 80.717986 266.222218 
L 81.997562 249.719633 
L 83.277138 236.460234 
L 84.556714 216.208595 
L 85.83629 205.585338 
L 87.115866 178.656223 
L 88.395442 174.288884 
L 89.675017 174.170847 
L 90.954593 170.590416 
L 92.234169 163.541969 
L 93.513745 155.155778 
L 94.793321 156.875734 
L 96.072897 149.855391 
L 97.352473 145.847781 
L 98.632049 135.128971 
L 99.911625 133.409015 
L 101.191201 127.130613 
L 102.470777 126.540432 
L 103.750353 129.024813 
L 105.029929 139.119718 
L 106.309505 120.880315 
L 107.58908 120.880315 
L 108.868656 118.72756 
L 112.707384 118.72756 
L 113.98696 124.657474 
L 115.266536 118.72756 
L 120.38484 118.72756 
L 121.664416 124.657474 
L 122.943992 118.72756 
L 134.460175 118.72756 
L 135.739751 124.477609 
L 137.019327 118.72756 
L 139.578479 118.72756 
L 140.858054 124.657474 
L 142.13763 118.72756 
L 147.255934 118.72756 
L 148.53551 124.539438 
L 149.815086 118.72756 
L 151.094662 118.72756 
L 152.374238 124.657474 
L 153.653814 118.72756 
L 158.772117 118.72756 
L 160.051693 123.814358 
L 161.331269 123.814358 
L 162.610845 118.72756 
L 177.965756 118.72756 
L 179.245332 120.599277 
L 181.804484 120.599277 
L 183.08406 118.72756 
L 186.922788 118.72756 
L 188.202364 124.657474 
L 189.48194 118.72756 
L 197.159395 118.72756 
L 198.438971 124.308986 
L 199.718547 118.72756 
L 200.998123 118.72756 
L 202.277699 119.317741 
L 203.557275 118.72756 
L 225.310066 118.72756 
L 226.589641 124.657474 
L 227.869217 124.376435 
L 229.148793 118.72756 
L 238.105825 118.72756 
L 239.385401 124.308986 
L 240.664977 119.536951 
L 241.944553 120.346342 
L 243.224128 120.936523 
L 244.503704 125.185826 
L 245.78328 119.317741 
L 247.062856 119.317741 
L 248.342432 118.72756 
L 256.019888 118.72756 
L 257.299464 124.26402 
L 258.57904 118.72756 
L 277.772678 118.72756 
L 279.052254 121.099526 
L 280.33183 118.72756 
L 282.890982 118.72756 
L 284.170558 124.235916 
L 285.450134 118.412797 
L 286.72971 118.72756 
L 294.407165 118.72756 
L 295.686741 124.657474 
L 296.966317 118.72756 
L 298.245893 118.72756 
L 300.805045 119.907922 
L 302.084621 121.088284 
L 303.364197 121.088284 
L 304.643773 119.907922 
L 305.923349 119.907922 
L 307.202925 119.317741 
L 308.482501 119.317741 
L 312.321228 121.088284 
L 313.600804 121.088284 
L 314.88038 118.72756 
L 316.159956 118.72756 
L 317.439532 122.184334 
L 318.719108 118.72756 
L 327.67614 118.72756 
L 327.67614 118.72756 
" clip-path="url(#p22a0115ba8)" style="fill: none; stroke: #edd1cb; stroke-width: 1.5; stroke-linecap: round"/>
   </g>
   <g id="line2d_15">
    <path d="M 73.04053 300.907997 
L 74.320106 295.956097 
L 76.879258 287.805979 
L 78.158834 284.96749 
L 79.43841 284.371688 
L 80.717986 286.372682 
L 81.997562 283.961371 
L 83.277138 277.272654 
L 84.556714 276.322743 
L 85.83629 278.04832 
L 87.115866 276.272156 
L 88.395442 276.73868 
L 89.675017 274.490372 
L 90.954593 278.801504 
L 92.234169 277.598658 
L 93.513745 277.379448 
L 94.793321 272.197097 
L 96.072897 270.494004 
L 97.352473 270.184861 
L 98.632049 273.776534 
L 99.911625 269.527231 
L 101.191201 264.524745 
L 102.470777 263.822148 
L 103.750353 266.413324 
L 105.029929 261.652531 
L 106.309505 265.795039 
L 107.58908 261.225352 
L 108.868656 262.298919 
L 110.148232 260.983659 
L 111.427808 261.337767 
L 112.707384 259.853884 
L 113.98696 267.132782 
L 115.266536 269.841994 
L 116.546112 267.301406 
L 117.825688 260.871243 
L 119.105264 262.619303 
L 121.664416 267.48127 
L 122.943992 262.074088 
L 124.223567 262.119055 
L 125.503143 262.040364 
L 126.782719 265.165513 
L 128.062295 269.527231 
L 129.341871 264.71023 
L 130.621447 270.999873 
L 131.901023 266.525739 
L 133.180599 255.16054 
L 134.460175 255.553994 
L 135.739751 260.033748 
L 137.019327 262.310161 
L 138.298903 255.660788 
L 139.578479 259.735848 
L 140.858054 258.133928 
L 142.13763 260.151785 
L 143.417206 266.722466 
L 144.696782 266.109802 
L 145.976358 251.07986 
L 147.255934 255.514648 
L 148.53551 251.703765 
L 149.815086 245.9762 
L 151.094662 240.979334 
L 152.374238 240.990576 
L 153.653814 237.314591 
L 154.93339 236.87055 
L 156.212966 236.763756 
L 157.492542 233.419397 
L 158.772117 226.702575 
L 160.051693 214.842748 
L 161.331269 221.41905 
L 162.610845 215.966902 
L 163.890421 220.356724 
L 165.169997 212.16164 
L 166.449573 213.949045 
L 167.729149 218.057829 
L 169.008725 207.608815 
L 170.288301 211.700737 
L 171.567877 223.144627 
L 172.847453 222.745552 
L 174.127029 221.486499 
L 175.406604 224.819617 
L 176.68618 226.191085 
L 177.965756 226.281017 
L 179.245332 225.93815 
L 180.524908 227.562553 
L 181.804484 224.083296 
L 183.08406 218.912186 
L 184.363636 227.922282 
L 185.643212 219.51923 
L 186.922788 229.990726 
L 188.202364 224.25754 
L 189.48194 221.941782 
L 190.761516 212.425816 
L 192.041091 211.054348 
L 193.320667 214.820265 
L 194.600243 211.925568 
L 195.879819 214.988888 
L 197.159395 208.626175 
L 198.438971 215.528482 
L 199.718547 205.871997 
L 200.998123 214.870852 
L 202.277699 210.587824 
L 203.557275 208.530622 
L 204.836851 220.379208 
L 206.116427 214.218842 
L 207.396003 216.045593 
L 208.675579 209.435566 
L 209.955154 204.472425 
L 211.23473 213.336381 
L 212.514306 210.244957 
L 213.793882 210.318027 
L 215.073458 210.902587 
L 216.353034 211.329766 
L 217.63261 202.729986 
L 218.912186 205.534751 
L 220.191762 206.006896 
L 221.471338 208.704866 
L 222.750914 203.741725 
L 224.03049 201.825042 
L 225.310066 203.325788 
L 226.589641 203.387616 
L 227.869217 204.663531 
L 229.148793 207.895475 
L 230.428369 208.317032 
L 231.707945 209.227597 
L 232.987521 204.905224 
L 234.267097 205.827031 
L 235.546673 201.712626 
L 236.826249 204.36001 
L 238.105825 202.02739 
L 239.385401 211.830014 
L 240.664977 209.289426 
L 241.944553 208.783556 
L 243.224128 216.034351 
L 244.503704 215.848866 
L 245.78328 215.972523 
L 247.062856 207.209741 
L 248.342432 209.75595 
L 249.622008 203.544998 
L 250.901584 210.087575 
L 252.18116 208.822902 
L 253.460736 219.603541 
L 254.740312 204.180145 
L 256.019888 203.218993 
L 257.299464 210.025747 
L 258.57904 212.302159 
L 259.858616 213.223966 
L 261.138191 213.561212 
L 262.417767 204.843396 
L 263.697343 204.14642 
L 264.976919 205.742719 
L 266.256495 202.044252 
L 267.536071 204.067729 
L 268.815647 200.105086 
L 270.095223 198.109712 
L 271.374799 203.055991 
L 272.654375 196.906867 
L 273.933951 198.222127 
L 275.213527 185.283112 
L 276.493103 187.300969 
L 277.772678 185.968846 
L 279.052254 192.545148 
L 280.33183 195.170049 
L 281.611406 193.590612 
L 282.890982 199.644183 
L 284.170558 195.080116 
L 285.450134 202.791814 
L 286.72971 208.643037 
L 288.009286 203.573102 
L 289.288862 204.202628 
L 290.568438 197.58698 
L 291.848014 198.930345 
L 293.12759 205.731478 
L 294.407165 202.724365 
L 295.686741 202.201633 
L 296.966317 192.382146 
L 298.245893 190.73526 
L 299.525469 199.891496 
L 300.805045 197.789328 
L 302.084621 190.757743 
L 303.364197 197.356529 
L 304.643773 199.795943 
L 305.923349 194.96208 
L 307.202925 192.427112 
L 308.482501 187.789976 
L 309.762077 184.080267 
L 311.041653 183.613743 
L 313.600804 185.04704 
L 314.88038 193.450093 
L 316.159956 188.835439 
L 317.439532 185.788981 
L 318.719108 196.260478 
L 319.998684 192.612598 
L 321.27826 197.755603 
L 322.557836 196.333548 
L 323.837412 188.228396 
L 325.116988 205.248091 
L 326.396564 192.230385 
L 327.67614 189.397517 
L 327.67614 189.397517 
" clip-path="url(#p22a0115ba8)" style="fill: none; stroke: #d499a7; stroke-width: 1.5; stroke-linecap: round"/>
   </g>
   <g id="line2d_16">
    <path d="M 73.04053 302.695402 
L 74.320106 296.658694 
L 75.599682 289.885664 
L 76.879258 285.006835 
L 78.158834 278.953264 
L 79.43841 273.658498 
L 80.717986 266.216597 
L 81.997562 262.658649 
L 83.277138 260.309166 
L 84.556714 260.033748 
L 85.83629 259.550362 
L 88.395442 259.291807 
L 89.675017 260.427202 
L 90.954593 260.292304 
L 92.234169 259.443567 
L 93.513745 257.920338 
L 94.793321 257.549368 
L 96.072897 257.796681 
L 97.352473 257.819165 
L 98.632049 259.24122 
L 99.911625 260.393478 
L 101.191201 262.950929 
L 102.470777 258.707246 
L 103.750353 258.583589 
L 105.029929 260.326029 
L 106.309505 257.425711 
L 107.58908 257.425711 
L 108.868656 257.549368 
L 110.148232 257.830406 
L 111.427808 258.673522 
L 112.707384 256.863633 
L 113.98696 256.520766 
L 116.546112 256.273452 
L 117.825688 255.835032 
L 119.105264 256.245349 
L 120.38484 257.189638 
L 121.664416 256.026139 
L 122.943992 256.464559 
L 124.223567 257.302054 
L 125.503143 256.683769 
L 180.524908 256.683769 
L 181.804484 257.847268 
L 183.08406 256.683769 
L 199.718547 256.683769 
L 200.998123 257.847268 
L 202.277699 256.683769 
L 217.63261 256.683769 
L 218.912186 256.818667 
L 220.191762 258.437449 
L 221.471338 257.982167 
L 222.750914 256.818667 
L 224.03049 256.683769 
L 235.546673 256.683769 
L 236.826249 257.13343 
L 238.105825 256.683769 
L 254.740312 256.683769 
L 256.019888 256.919841 
L 257.299464 257.847268 
L 258.57904 256.683769 
L 271.374799 256.683769 
L 272.654375 257.386365 
L 273.933951 259.707744 
L 275.213527 259.494154 
L 276.493103 258.088962 
L 277.772678 258.088962 
L 279.052254 256.683769 
L 281.611406 257.032257 
L 282.890982 256.683769 
L 284.170558 256.464559 
L 285.450134 256.464559 
L 286.72971 256.245349 
L 288.009286 256.464559 
L 289.288862 256.245349 
L 290.568438 256.464559 
L 291.848014 256.464559 
L 293.12759 256.245349 
L 294.407165 256.245349 
L 295.686741 255.806928 
L 296.966317 255.587718 
L 298.245893 255.806928 
L 299.525469 257.644921 
L 300.805045 255.806928 
L 302.084621 255.806928 
L 303.364197 256.026139 
L 304.643773 256.026139 
L 305.923349 256.245349 
L 307.202925 255.806928 
L 309.762077 255.368508 
L 311.041653 255.368508 
L 312.321228 254.930088 
L 314.88038 254.930088 
L 316.159956 255.711375 
L 317.439532 255.924965 
L 318.719108 255.048124 
L 319.998684 256.211624 
L 321.27826 255.604581 
L 322.557836 254.828914 
L 323.837412 254.609704 
L 325.116988 254.828914 
L 326.396564 254.28932 
L 327.67614 254.28932 
L 327.67614 254.28932 
" clip-path="url(#p22a0115ba8)" style="fill: none; stroke: #a9678f; stroke-width: 1.5; stroke-linecap: round"/>
   </g>
   <g id="line2d_17">
    <path d="M 73.04053 300.553888 
L 75.599682 285.939883 
L 76.879258 279.003851 
L 78.158834 279.110646 
L 79.43841 274.102539 
L 80.717986 262.265195 
L 81.997562 253.592345 
L 83.277138 254.43546 
L 85.83629 239.450484 
L 87.115866 243.289471 
L 88.395442 241.648206 
L 89.675017 241.940486 
L 90.954593 243.059019 
L 92.234169 241.479583 
L 93.513745 237.848564 
L 94.793321 237.52818 
L 96.072897 239.551658 
L 97.352473 240.602742 
L 98.632049 240.186805 
L 99.911625 239.647211 
L 101.191201 247.668052 
L 102.470777 240.124977 
L 103.750353 238.646714 
L 105.029929 243.222022 
L 106.309505 244.638456 
L 107.58908 240.630846 
L 108.868656 242.834189 
L 110.148232 245.267982 
L 111.427808 242.867913 
L 112.707384 244.194415 
L 113.98696 242.305836 
L 115.266536 244.700285 
L 116.546112 249.832049 
L 117.825688 244.571007 
L 119.105264 253.597965 
L 120.38484 251.596971 
L 121.664416 262.017881 
L 124.223567 246.358412 
L 125.503143 246.375274 
L 126.782719 255.188644 
L 128.062295 247.038525 
L 129.341871 251.029273 
L 130.621447 248.224508 
L 131.901023 242.221524 
L 133.180599 252.82792 
L 134.460175 257.959684 
L 135.739751 244.66656 
L 137.019327 247.336426 
L 138.298903 253.446205 
L 139.578479 248.449339 
L 140.858054 245.650195 
L 142.13763 246.12796 
L 143.417206 243.817823 
L 144.696782 238.303847 
L 145.976358 241.350305 
L 147.255934 241.468341 
L 148.53551 236.746893 
L 149.815086 245.076876 
L 151.094662 236.078022 
L 152.374238 238.315088 
L 153.653814 248.910242 
L 154.93339 246.987938 
L 156.212966 238.905269 
L 157.492542 241.38965 
L 158.772117 233.869058 
L 160.051693 236.853688 
L 161.331269 234.492964 
L 162.610845 233.537433 
L 163.890421 232.795491 
L 165.169997 238.534299 
L 166.449573 234.178201 
L 167.729149 240.057528 
L 169.008725 246.594484 
L 170.288301 234.875176 
L 171.567877 239.579762 
L 172.847453 243.514302 
L 174.127029 229.591652 
L 175.406604 230.991224 
L 176.68618 225.308624 
L 177.965756 233.604882 
L 179.245332 223.279525 
L 180.524908 229.94576 
L 181.804484 228.838468 
L 183.08406 234.745899 
L 184.363636 224.634131 
L 185.643212 231.508335 
L 186.922788 234.116372 
L 188.202364 233.340706 
L 189.48194 228.141493 
L 190.761516 231.289124 
L 192.041091 229.563548 
L 193.320667 217.883585 
L 194.600243 236.780618 
L 195.879819 224.718443 
L 197.159395 224.76903 
L 198.438971 236.196058 
L 199.718547 235.948744 
L 200.998123 229.805241 
L 202.277699 220.868215 
L 203.557275 230.642736 
L 204.836851 224.313747 
L 206.116427 223.341354 
L 207.396003 236.027435 
L 208.675579 221.514603 
L 209.955154 219.878959 
L 211.23473 210.986899 
L 212.514306 227.022959 
L 213.793882 222.666861 
L 215.073458 228.793502 
L 216.353034 226.51709 
L 217.63261 228.92278 
L 218.912186 221.503362 
L 220.191762 231.013707 
L 221.471338 226.66323 
L 222.750914 223.656117 
L 224.03049 227.169099 
L 225.310066 220.935664 
L 226.589641 224.246298 
L 227.869217 224.319368 
L 229.148793 237.876668 
L 230.428369 220.362345 
L 231.707945 232.486349 
L 232.987521 219.485505 
L 234.267097 221.475258 
L 235.546673 228.107768 
L 236.826249 227.455758 
L 238.105825 224.364334 
L 239.385401 231.384678 
L 240.664977 218.850358 
L 241.944553 212.347125 
L 243.224128 221.908057 
L 244.503704 197.654429 
L 245.78328 210.77893 
L 247.062856 211.998638 
L 248.342432 202.25222 
L 249.622008 222.526342 
L 250.901584 208.317032 
L 252.18116 205.540372 
L 253.460736 212.251572 
L 254.740312 221.239186 
L 256.019888 224.19009 
L 257.299464 220.817628 
L 258.57904 215.933177 
L 259.858616 210.126921 
L 261.138191 223.099661 
L 262.417767 214.499881 
L 263.697343 211.565838 
L 264.976919 215.101303 
L 266.256495 214.286292 
L 267.536071 205.332403 
L 268.815647 204.781567 
L 270.095223 208.418206 
L 271.374799 209.845882 
L 272.654375 198.008538 
L 273.933951 207.091704 
L 275.213527 220.767041 
L 276.493103 204.938949 
L 277.772678 200.487298 
L 279.052254 199.098968 
L 280.33183 214.342499 
L 281.611406 201.099962 
L 282.890982 208.946559 
L 284.170558 203.100957 
L 285.450134 218.327626 
L 286.72971 213.510625 
L 288.009286 201.493416 
L 289.288862 201.982423 
L 290.568438 223.043453 
L 291.848014 219.682232 
L 293.12759 216.821259 
L 294.407165 218.052208 
L 295.686741 208.092202 
L 296.966317 208.80604 
L 298.245893 192.438354 
L 299.525469 195.164428 
L 300.805045 201.111204 
L 302.084621 200.931339 
L 303.364197 196.49093 
L 304.643773 205.855135 
L 305.923349 198.621202 
L 307.202925 205.933825 
L 308.482501 199.824047 
L 309.762077 189.335688 
L 311.041653 196.372894 
L 312.321228 192.399008 
L 313.600804 189.779729 
L 314.88038 185.153834 
L 316.159956 185.738395 
L 317.439532 185.738395 
L 318.719108 190.617224 
L 319.998684 184.198303 
L 322.557836 185.839568 
L 323.837412 186.002571 
L 325.116988 189.78535 
L 326.396564 192.573252 
L 327.67614 187.846184 
L 327.67614 187.846184 
" clip-path="url(#p22a0115ba8)" style="fill: none; stroke: #6c3f70; stroke-width: 1.5; stroke-linecap: round"/>
   </g>
   <g id="line2d_18">
    <path d="M 73.04053 301.627455 
L 74.320106 291.734898 
L 75.599682 285.923021 
L 76.879258 285.540808 
L 78.158834 288.087018 
L 79.43841 280.004349 
L 80.717986 283.421777 
L 81.997562 277.542451 
L 83.277138 269.59468 
L 84.556714 259.072597 
L 85.83629 255.89124 
L 87.115866 235.566531 
L 88.395442 223.470632 
L 90.954593 172.563307 
L 92.234169 163.18786 
L 93.513745 135.758497 
L 94.793321 130.345694 
L 96.072897 93.282329 
L 97.352473 98.065605 
L 98.632049 92.939462 
L 99.911625 72.81148 
L 101.191201 69.427776 
L 102.470777 67.876443 
L 103.750353 60.518853 
L 105.029929 58.905692 
L 106.309505 61.912805 
L 107.58908 59.214835 
L 108.868656 64.194838 
L 110.148232 57.354359 
L 111.427808 73.053173 
L 112.707384 61.080931 
L 113.98696 67.2694 
L 115.266536 68.601522 
L 116.546112 58.16375 
L 117.825688 59.467769 
L 119.105264 68.129378 
L 120.38484 50.806161 
L 121.664416 59.675738 
L 122.943992 59.158627 
L 124.223567 52.762189 
L 125.503143 66.516216 
L 126.782719 66.611769 
L 128.062295 68.747662 
L 129.341871 61.73294 
L 130.621447 52.11018 
L 131.901023 52.267561 
L 133.180599 65.954139 
L 134.460175 61.339486 
L 135.739751 80.16907 
L 137.019327 65.470753 
L 138.298903 68.820733 
L 139.578479 63.99249 
L 142.13763 54.965531 
L 143.417206 46.444442 
L 144.696782 49.05248 
L 145.976358 67.645991 
L 147.255934 83.715776 
L 148.53551 75.099134 
L 149.815086 60.294023 
L 151.094662 48.051983 
L 152.374238 69.815609 
L 153.653814 60.614407 
L 154.93339 58.900071 
L 156.212966 41.678028 
L 157.492542 40.374009 
L 158.772117 48.692751 
L 160.051693 71.827845 
L 161.331269 39.06999 
L 162.610845 38.417981 
L 165.169997 38.417981 
L 166.449573 37.765972 
L 167.729149 38.417981 
L 169.008725 38.417981 
L 170.288301 46.93907 
L 171.567877 39.722 
L 172.847453 49.34476 
L 174.127029 47.422457 
L 175.406604 49.243586 
L 176.68618 40.374009 
L 177.965756 48.597198 
L 179.245332 47.388732 
L 180.524908 47.37749 
L 181.804484 43.392364 
L 183.08406 43.392364 
L 184.363636 38.417981 
L 185.643212 37.113962 
L 186.922788 36.461953 
L 188.202364 44.09496 
L 189.48194 35.809943 
L 193.320667 35.809943 
L 194.600243 44.128685 
L 195.879819 35.809943 
L 206.116427 35.809943 
L 207.396003 44.027511 
L 208.675579 35.809943 
L 216.353034 35.809943 
L 217.63261 42.043378 
L 218.912186 35.809943 
L 220.191762 44.072477 
L 221.471338 44.128685 
L 222.750914 42.043378 
L 224.03049 50.36212 
L 225.310066 35.809943 
L 229.148793 35.809943 
L 230.428369 44.162409 
L 231.707945 44.162409 
L 232.987521 41.419473 
L 234.267097 47.113314 
L 235.546673 35.809943 
L 247.062856 35.809943 
L 248.342432 44.128685 
L 249.622008 35.809943 
L 250.901584 39.536514 
L 252.18116 44.027511 
L 253.460736 44.027511 
L 254.740312 35.809943 
L 286.72971 35.809943 
L 288.009286 38.541638 
L 289.288862 35.809943 
L 291.848014 35.809943 
L 293.12759 41.520647 
L 294.407165 35.809943 
L 298.245893 35.809943 
L 299.525469 60.580682 
L 300.805045 35.809943 
L 316.159956 35.809943 
L 317.439532 44.033131 
L 318.719108 35.809943 
L 319.998684 41.520647 
L 321.27826 35.809943 
L 322.557836 42.043378 
L 323.837412 50.322774 
L 325.116988 35.809943 
L 327.67614 35.809943 
L 327.67614 35.809943 
" clip-path="url(#p22a0115ba8)" style="fill: none; stroke: #2d1e3e; stroke-width: 1.5; stroke-linecap: round"/>
   </g>
   <g id="line2d_19"/>
   <g id="line2d_20"/>
   <g id="line2d_21"/>
   <g id="line2d_22"/>
   <g id="line2d_23"/>
   <g id="patch_3">
    <path d="M 60.30875 319.138125 
L 60.30875 22.318125 
" style="fill: none; stroke: #ffffff; stroke-width: 1.25; stroke-linejoin: miter; stroke-linecap: square"/>
   </g>
   <g id="patch_4">
    <path d="M 60.30875 319.138125 
L 340.40792 319.138125 
" style="fill: none; stroke: #ffffff; stroke-width: 1.25; stroke-linejoin: miter; stroke-linecap: square"/>
   </g>
   <g id="text_16">
    <!-- Evolved For Still Life For Explode -->
    <g style="fill: #262626" transform="translate(102.382085 16.318125)scale(0.12 -0.12)">
     <defs>
      <path id="DejaVuSans-45" d="M 628 4666 
L 3578 4666 
L 3578 4134 
L 1259 4134 
L 1259 2753 
L 3481 2753 
L 3481 2222 
L 1259 2222 
L 1259 531 
L 3634 531 
L 3634 0 
L 628 0 
L 628 4666 
z
" transform="scale(0.015625)"/>
      <path id="DejaVuSans-76" d="M 191 3500 
L 800 3500 
L 1894 563 
L 2988 3500 
L 3597 3500 
L 2284 0 
L 1503 0 
L 191 3500 
z
" transform="scale(0.015625)"/>
      <path id="DejaVuSans-6c" d="M 603 4863 
L 1178 4863 
L 1178 0 
L 603 0 
L 603 4863 
z
" transform="scale(0.015625)"/>
      <path id="DejaVuSans-64" d="M 2906 2969 
L 2906 4863 
L 3481 4863 
L 3481 0 
L 2906 0 
L 2906 525 
Q 2725 213 2448 61 
Q 2172 -91 1784 -91 
Q 1150 -91 751 415 
Q 353 922 353 1747 
Q 353 2572 751 3078 
Q 1150 3584 1784 3584 
Q 2172 3584 2448 3432 
Q 2725 3281 2906 2969 
z
M 947 1747 
Q 947 1113 1208 752 
Q 1469 391 1925 391 
Q 2381 391 2643 752 
Q 2906 1113 2906 1747 
Q 2906 2381 2643 2742 
Q 2381 3103 1925 3103 
Q 1469 3103 1208 2742 
Q 947 2381 947 1747 
z
" transform="scale(0.015625)"/>
      <path id="DejaVuSans-20" transform="scale(0.015625)"/>
      <path id="DejaVuSans-53" d="M 3425 4513 
L 3425 3897 
Q 3066 4069 2747 4153 
Q 2428 4238 2131 4238 
Q 1616 4238 1336 4038 
Q 1056 3838 1056 3469 
Q 1056 3159 1242 3001 
Q 1428 2844 1947 2747 
L 2328 2669 
Q 3034 2534 3370 2195 
Q 3706 1856 3706 1288 
Q 3706 609 3251 259 
Q 2797 -91 1919 -91 
Q 1588 -91 1214 -16 
Q 841 59 441 206 
L 441 856 
Q 825 641 1194 531 
Q 1563 422 1919 422 
Q 2459 422 2753 634 
Q 3047 847 3047 1241 
Q 3047 1584 2836 1778 
Q 2625 1972 2144 2069 
L 1759 2144 
Q 1053 2284 737 2584 
Q 422 2884 422 3419 
Q 422 4038 858 4394 
Q 1294 4750 2059 4750 
Q 2388 4750 2728 4690 
Q 3069 4631 3425 4513 
z
" transform="scale(0.015625)"/>
      <path id="DejaVuSans-4c" d="M 628 4666 
L 1259 4666 
L 1259 531 
L 3531 531 
L 3531 0 
L 628 0 
L 628 4666 
z
" transform="scale(0.015625)"/>
      <path id="DejaVuSans-66" d="M 2375 4863 
L 2375 4384 
L 1825 4384 
Q 1516 4384 1395 4259 
Q 1275 4134 1275 3809 
L 1275 3500 
L 2222 3500 
L 2222 3053 
L 1275 3053 
L 1275 0 
L 697 0 
L 697 3053 
L 147 3053 
L 147 3500 
L 697 3500 
L 697 3744 
Q 697 4328 969 4595 
Q 1241 4863 1831 4863 
L 2375 4863 
z
" transform="scale(0.015625)"/>
      <path id="DejaVuSans-78" d="M 3513 3500 
L 2247 1797 
L 3578 0 
L 2900 0 
L 1881 1375 
L 863 0 
L 184 0 
L 1544 1831 
L 300 3500 
L 978 3500 
L 1906 2253 
L 2834 3500 
L 3513 3500 
z
" transform="scale(0.015625)"/>
      <path id="DejaVuSans-70" d="M 1159 525 
L 1159 -1331 
L 581 -1331 
L 581 3500 
L 1159 3500 
L 1159 2969 
Q 1341 3281 1617 3432 
Q 1894 3584 2278 3584 
Q 2916 3584 3314 3078 
Q 3713 2572 3713 1747 
Q 3713 922 3314 415 
Q 2916 -91 2278 -91 
Q 1894 -91 1617 61 
Q 1341 213 1159 525 
z
M 3116 1747 
Q 3116 2381 2855 2742 
Q 2594 3103 2138 3103 
Q 1681 3103 1420 2742 
Q 1159 2381 1159 1747 
Q 1159 1113 1420 752 
Q 1681 391 2138 391 
Q 2594 391 2855 752 
Q 3116 1113 3116 1747 
z
" transform="scale(0.015625)"/>
     </defs>
     <use xlink:href="#DejaVuSans-45"/>
     <use xlink:href="#DejaVuSans-76" x="63.183594"/>
     <use xlink:href="#DejaVuSans-6f" x="122.363281"/>
     <use xlink:href="#DejaVuSans-6c" x="183.544922"/>
     <use xlink:href="#DejaVuSans-76" x="211.328125"/>
     <use xlink:href="#DejaVuSans-65" x="270.507812"/>
     <use xlink:href="#DejaVuSans-64" x="332.03125"/>
     <use xlink:href="#DejaVuSans-20" x="395.507812"/>
     <use xlink:href="#DejaVuSans-46" x="427.294922"/>
     <use xlink:href="#DejaVuSans-6f" x="481.189453"/>
     <use xlink:href="#DejaVuSans-72" x="542.371094"/>
     <use xlink:href="#DejaVuSans-20" x="583.484375"/>
     <use xlink:href="#DejaVuSans-53" x="615.271484"/>
     <use xlink:href="#DejaVuSans-74" x="678.748047"/>
     <use xlink:href="#DejaVuSans-69" x="717.957031"/>
     <use xlink:href="#DejaVuSans-6c" x="745.740234"/>
     <use xlink:href="#DejaVuSans-6c" x="773.523438"/>
     <use xlink:href="#DejaVuSans-20" x="801.306641"/>
     <use xlink:href="#DejaVuSans-4c" x="833.09375"/>
     <use xlink:href="#DejaVuSans-69" x="888.806641"/>
     <use xlink:href="#DejaVuSans-66" x="916.589844"/>
     <use xlink:href="#DejaVuSans-65" x="951.794922"/>
     <use xlink:href="#DejaVuSans-20" x="1013.318359"/>
     <use xlink:href="#DejaVuSans-46" x="1045.105469"/>
     <use xlink:href="#DejaVuSans-6f" x="1099"/>
     <use xlink:href="#DejaVuSans-72" x="1160.181641"/>
     <use xlink:href="#DejaVuSans-20" x="1201.294922"/>
     <use xlink:href="#DejaVuSans-45" x="1233.082031"/>
     <use xlink:href="#DejaVuSans-78" x="1296.265625"/>
     <use xlink:href="#DejaVuSans-70" x="1355.445312"/>
     <use xlink:href="#DejaVuSans-6c" x="1418.921875"/>
     <use xlink:href="#DejaVuSans-6f" x="1446.705078"/>
     <use xlink:href="#DejaVuSans-64" x="1507.886719"/>
     <use xlink:href="#DejaVuSans-65" x="1571.363281"/>
    </g>
   </g>
  </g>
  <g id="legend_1">
   <g id="text_17">
    <!-- Trial -->
    <g style="fill: #262626" transform="translate(351.73787 143.995312)scale(0.12 -0.12)">
     <defs>
      <path id="DejaVuSans-54" d="M -19 4666 
L 3928 4666 
L 3928 4134 
L 2272 4134 
L 2272 0 
L 1638 0 
L 1638 4134 
L -19 4134 
L -19 4666 
z
" transform="scale(0.015625)"/>
     </defs>
     <use xlink:href="#DejaVuSans-54"/>
     <use xlink:href="#DejaVuSans-72" x="46.333984"/>
     <use xlink:href="#DejaVuSans-69" x="87.447266"/>
     <use xlink:href="#DejaVuSans-61" x="115.230469"/>
     <use xlink:href="#DejaVuSans-6c" x="176.509766"/>
    </g>
   </g>
   <g id="line2d_24">
    <path d="M 345.09537 156.499219 
L 356.09537 156.499219 
L 367.09537 156.499219 
" style="fill: none; stroke: #edd1cb; stroke-width: 1.5; stroke-linecap: round"/>
   </g>
   <g id="text_18">
    <!-- 0 -->
    <g style="fill: #262626" transform="translate(375.89537 160.349219)scale(0.11 -0.11)">
     <use xlink:href="#DejaVuSans-30"/>
    </g>
   </g>
   <g id="line2d_25">
    <path d="M 345.09537 172.645156 
L 356.09537 172.645156 
L 367.09537 172.645156 
" style="fill: none; stroke: #d499a7; stroke-width: 1.5; stroke-linecap: round"/>
   </g>
   <g id="text_19">
    <!-- 1 -->
    <g style="fill: #262626" transform="translate(375.89537 176.495156)scale(0.11 -0.11)">
     <use xlink:href="#DejaVuSans-31"/>
    </g>
   </g>
   <g id="line2d_26">
    <path d="M 345.09537 188.791094 
L 356.09537 188.791094 
L 367.09537 188.791094 
" style="fill: none; stroke: #a9678f; stroke-width: 1.5; stroke-linecap: round"/>
   </g>
   <g id="text_20">
    <!-- 2 -->
    <g style="fill: #262626" transform="translate(375.89537 192.641094)scale(0.11 -0.11)">
     <use xlink:href="#DejaVuSans-32"/>
    </g>
   </g>
   <g id="line2d_27">
    <path d="M 345.09537 204.937031 
L 356.09537 204.937031 
L 367.09537 204.937031 
" style="fill: none; stroke: #6c3f70; stroke-width: 1.5; stroke-linecap: round"/>
   </g>
   <g id="text_21">
    <!-- 3 -->
    <g style="fill: #262626" transform="translate(375.89537 208.787031)scale(0.11 -0.11)">
     <defs>
      <path id="DejaVuSans-33" d="M 2597 2516 
Q 3050 2419 3304 2112 
Q 3559 1806 3559 1356 
Q 3559 666 3084 287 
Q 2609 -91 1734 -91 
Q 1441 -91 1130 -33 
Q 819 25 488 141 
L 488 750 
Q 750 597 1062 519 
Q 1375 441 1716 441 
Q 2309 441 2620 675 
Q 2931 909 2931 1356 
Q 2931 1769 2642 2001 
Q 2353 2234 1838 2234 
L 1294 2234 
L 1294 2753 
L 1863 2753 
Q 2328 2753 2575 2939 
Q 2822 3125 2822 3475 
Q 2822 3834 2567 4026 
Q 2313 4219 1838 4219 
Q 1578 4219 1281 4162 
Q 984 4106 628 3988 
L 628 4550 
Q 988 4650 1302 4700 
Q 1616 4750 1894 4750 
Q 2613 4750 3031 4423 
Q 3450 4097 3450 3541 
Q 3450 3153 3228 2886 
Q 3006 2619 2597 2516 
z
" transform="scale(0.015625)"/>
     </defs>
     <use xlink:href="#DejaVuSans-33"/>
    </g>
   </g>
   <g id="line2d_28">
    <path d="M 345.09537 221.082969 
L 356.09537 221.082969 
L 367.09537 221.082969 
" style="fill: none; stroke: #2d1e3e; stroke-width: 1.5; stroke-linecap: round"/>
   </g>
   <g id="text_22">
    <!-- 4 -->
    <g style="fill: #262626" transform="translate(375.89537 224.932969)scale(0.11 -0.11)">
     <use xlink:href="#DejaVuSans-34"/>
    </g>
   </g>
  </g>
 </g>
 <defs>
  <clipPath id="p22a0115ba8">
   <rect x="60.30875" y="22.318125" width="280.09917" height="296.82"/>
  </clipPath>
 </defs>
</svg>
