<?xml version="1.0" encoding="utf-8" standalone="no"?>
<!DOCTYPE svg PUBLIC "-//W3C//DTD SVG 1.1//EN"
  "http://www.w3.org/Graphics/SVG/1.1/DTD/svg11.dtd">
<svg xmlns:xlink="http://www.w3.org/1999/xlink" width="392.692465pt" height="362.097812pt" viewBox="0 0 392.692465 362.097812" xmlns="http://www.w3.org/2000/svg" version="1.1">
 <metadata>
  <rdf:RDF xmlns:dc="http://purl.org/dc/elements/1.1/" xmlns:cc="http://creativecommons.org/ns#" xmlns:rdf="http://www.w3.org/1999/02/22-rdf-syntax-ns#">
   <cc:Work>
    <dc:type rdf:resource="http://purl.org/dc/dcmitype/StillImage"/>
    <dc:date>2022-11-20T08:31:38.389636</dc:date>
    <dc:format>image/svg+xml</dc:format>
    <dc:creator>
     <cc:Agent>
      <dc:title>Matplotlib v3.5.2, https://matplotlib.org/</dc:title>
     </cc:Agent>
    </dc:creator>
   </cc:Work>
  </rdf:RDF>
 </metadata>
 <defs>
  <style type="text/css">*{stroke-linejoin: round; stroke-linecap: butt}</style>
 </defs>
 <g id="figure_1">
  <g id="patch_1">
   <path d="M 0 362.097812 
L 392.692465 362.097812 
L 392.692465 0 
L 0 0 
z
" style="fill: #ffffff"/>
  </g>
  <g id="axes_1">
   <g id="patch_2">
    <path d="M 60.30875 319.138125 
L 340.306265 319.138125 
L 340.306265 22.318125 
L 60.30875 22.318125 
z
" style="fill: #eaeaf2"/>
   </g>
   <g id="matplotlib.axis_1">
    <g id="xtick_1">
     <g id="line2d_1">
      <path d="M 73.03591 319.138125 
L 73.03591 22.318125 
" clip-path="url(#p75ef2b7472)" style="fill: none; stroke: #ffffff; stroke-linecap: round"/>
     </g>
     <g id="text_1">
      <!-- 0 -->
      <g style="fill: #262626" transform="translate(69.536535 336.996406)scale(0.11 -0.11)">
       <defs>
        <path id="DejaVuSans-30" d="M 2034 4250 
Q 1547 4250 1301 3770 
Q 1056 3291 1056 2328 
Q 1056 1369 1301 889 
Q 1547 409 2034 409 
Q 2525 409 2770 889 
Q 3016 1369 3016 2328 
Q 3016 3291 2770 3770 
Q 2525 4250 2034 4250 
z
M 2034 4750 
Q 2819 4750 3233 4129 
Q 3647 3509 3647 2328 
Q 3647 1150 3233 529 
Q 2819 -91 2034 -91 
Q 1250 -91 836 529 
Q 422 1150 422 2328 
Q 422 3509 836 4129 
Q 1250 4750 2034 4750 
z
" transform="scale(0.015625)"/>
       </defs>
       <use xlink:href="#DejaVuSans-30"/>
      </g>
     </g>
    </g>
    <g id="xtick_2">
     <g id="line2d_2">
      <path d="M 136.991487 319.138125 
L 136.991487 22.318125 
" clip-path="url(#p75ef2b7472)" style="fill: none; stroke: #ffffff; stroke-linecap: round"/>
     </g>
     <g id="text_2">
      <!-- 50 -->
      <g style="fill: #262626" transform="translate(129.992737 336.996406)scale(0.11 -0.11)">
       <defs>
        <path id="DejaVuSans-35" d="M 691 4666 
L 3169 4666 
L 3169 4134 
L 1269 4134 
L 1269 2991 
Q 1406 3038 1543 3061 
Q 1681 3084 1819 3084 
Q 2600 3084 3056 2656 
Q 3513 2228 3513 1497 
Q 3513 744 3044 326 
Q 2575 -91 1722 -91 
Q 1428 -91 1123 -41 
Q 819 9 494 109 
L 494 744 
Q 775 591 1075 516 
Q 1375 441 1709 441 
Q 2250 441 2565 725 
Q 2881 1009 2881 1497 
Q 2881 1984 2565 2268 
Q 2250 2553 1709 2553 
Q 1456 2553 1204 2497 
Q 953 2441 691 2322 
L 691 4666 
z
" transform="scale(0.015625)"/>
       </defs>
       <use xlink:href="#DejaVuSans-35"/>
       <use xlink:href="#DejaVuSans-30" x="63.623047"/>
      </g>
     </g>
    </g>
    <g id="xtick_3">
     <g id="line2d_3">
      <path d="M 200.947063 319.138125 
L 200.947063 22.318125 
" clip-path="url(#p75ef2b7472)" style="fill: none; stroke: #ffffff; stroke-linecap: round"/>
     </g>
     <g id="text_3">
      <!-- 100 -->
      <g style="fill: #262626" transform="translate(190.448938 336.996406)scale(0.11 -0.11)">
       <defs>
        <path id="DejaVuSans-31" d="M 794 531 
L 1825 531 
L 1825 4091 
L 703 3866 
L 703 4441 
L 1819 4666 
L 2450 4666 
L 2450 531 
L 3481 531 
L 3481 0 
L 794 0 
L 794 531 
z
" transform="scale(0.015625)"/>
       </defs>
       <use xlink:href="#DejaVuSans-31"/>
       <use xlink:href="#DejaVuSans-30" x="63.623047"/>
       <use xlink:href="#DejaVuSans-30" x="127.246094"/>
      </g>
     </g>
    </g>
    <g id="xtick_4">
     <g id="line2d_4">
      <path d="M 264.90264 319.138125 
L 264.90264 22.318125 
" clip-path="url(#p75ef2b7472)" style="fill: none; stroke: #ffffff; stroke-linecap: round"/>
     </g>
     <g id="text_4">
      <!-- 150 -->
      <g style="fill: #262626" transform="translate(254.404515 336.996406)scale(0.11 -0.11)">
       <use xlink:href="#DejaVuSans-31"/>
       <use xlink:href="#DejaVuSans-35" x="63.623047"/>
       <use xlink:href="#DejaVuSans-30" x="127.246094"/>
      </g>
     </g>
    </g>
    <g id="xtick_5">
     <g id="line2d_5">
      <path d="M 328.858217 319.138125 
L 328.858217 22.318125 
" clip-path="url(#p75ef2b7472)" style="fill: none; stroke: #ffffff; stroke-linecap: round"/>
     </g>
     <g id="text_5">
      <!-- 200 -->
      <g style="fill: #262626" transform="translate(318.360092 336.996406)scale(0.11 -0.11)">
       <defs>
        <path id="DejaVuSans-32" d="M 1228 531 
L 3431 531 
L 3431 0 
L 469 0 
L 469 531 
Q 828 903 1448 1529 
Q 2069 2156 2228 2338 
Q 2531 2678 2651 2914 
Q 2772 3150 2772 3378 
Q 2772 3750 2511 3984 
Q 2250 4219 1831 4219 
Q 1534 4219 1204 4116 
Q 875 4013 500 3803 
L 500 4441 
Q 881 4594 1212 4672 
Q 1544 4750 1819 4750 
Q 2544 4750 2975 4387 
Q 3406 4025 3406 3419 
Q 3406 3131 3298 2873 
Q 3191 2616 2906 2266 
Q 2828 2175 2409 1742 
Q 1991 1309 1228 531 
z
" transform="scale(0.015625)"/>
       </defs>
       <use xlink:href="#DejaVuSans-32"/>
       <use xlink:href="#DejaVuSans-30" x="63.623047"/>
       <use xlink:href="#DejaVuSans-30" x="127.246094"/>
      </g>
     </g>
    </g>
    <g id="text_6">
     <!-- Generation -->
     <g style="fill: #262626" transform="translate(166.835945 352.402187)scale(0.12 -0.12)">
      <defs>
       <path id="DejaVuSans-47" d="M 3809 666 
L 3809 1919 
L 2778 1919 
L 2778 2438 
L 4434 2438 
L 4434 434 
Q 4069 175 3628 42 
Q 3188 -91 2688 -91 
Q 1594 -91 976 548 
Q 359 1188 359 2328 
Q 359 3472 976 4111 
Q 1594 4750 2688 4750 
Q 3144 4750 3555 4637 
Q 3966 4525 4313 4306 
L 4313 3634 
Q 3963 3931 3569 4081 
Q 3175 4231 2741 4231 
Q 1884 4231 1454 3753 
Q 1025 3275 1025 2328 
Q 1025 1384 1454 906 
Q 1884 428 2741 428 
Q 3075 428 3337 486 
Q 3600 544 3809 666 
z
" transform="scale(0.015625)"/>
       <path id="DejaVuSans-65" d="M 3597 1894 
L 3597 1613 
L 953 1613 
Q 991 1019 1311 708 
Q 1631 397 2203 397 
Q 2534 397 2845 478 
Q 3156 559 3463 722 
L 3463 178 
Q 3153 47 2828 -22 
Q 2503 -91 2169 -91 
Q 1331 -91 842 396 
Q 353 884 353 1716 
Q 353 2575 817 3079 
Q 1281 3584 2069 3584 
Q 2775 3584 3186 3129 
Q 3597 2675 3597 1894 
z
M 3022 2063 
Q 3016 2534 2758 2815 
Q 2500 3097 2075 3097 
Q 1594 3097 1305 2825 
Q 1016 2553 972 2059 
L 3022 2063 
z
" transform="scale(0.015625)"/>
       <path id="DejaVuSans-6e" d="M 3513 2113 
L 3513 0 
L 2938 0 
L 2938 2094 
Q 2938 2591 2744 2837 
Q 2550 3084 2163 3084 
Q 1697 3084 1428 2787 
Q 1159 2491 1159 1978 
L 1159 0 
L 581 0 
L 581 3500 
L 1159 3500 
L 1159 2956 
Q 1366 3272 1645 3428 
Q 1925 3584 2291 3584 
Q 2894 3584 3203 3211 
Q 3513 2838 3513 2113 
z
" transform="scale(0.015625)"/>
       <path id="DejaVuSans-72" d="M 2631 2963 
Q 2534 3019 2420 3045 
Q 2306 3072 2169 3072 
Q 1681 3072 1420 2755 
Q 1159 2438 1159 1844 
L 1159 0 
L 581 0 
L 581 3500 
L 1159 3500 
L 1159 2956 
Q 1341 3275 1631 3429 
Q 1922 3584 2338 3584 
Q 2397 3584 2469 3576 
Q 2541 3569 2628 3553 
L 2631 2963 
z
" transform="scale(0.015625)"/>
       <path id="DejaVuSans-61" d="M 2194 1759 
Q 1497 1759 1228 1600 
Q 959 1441 959 1056 
Q 959 750 1161 570 
Q 1363 391 1709 391 
Q 2188 391 2477 730 
Q 2766 1069 2766 1631 
L 2766 1759 
L 2194 1759 
z
M 3341 1997 
L 3341 0 
L 2766 0 
L 2766 531 
Q 2569 213 2275 61 
Q 1981 -91 1556 -91 
Q 1019 -91 701 211 
Q 384 513 384 1019 
Q 384 1609 779 1909 
Q 1175 2209 1959 2209 
L 2766 2209 
L 2766 2266 
Q 2766 2663 2505 2880 
Q 2244 3097 1772 3097 
Q 1472 3097 1187 3025 
Q 903 2953 641 2809 
L 641 3341 
Q 956 3463 1253 3523 
Q 1550 3584 1831 3584 
Q 2591 3584 2966 3190 
Q 3341 2797 3341 1997 
z
" transform="scale(0.015625)"/>
       <path id="DejaVuSans-74" d="M 1172 4494 
L 1172 3500 
L 2356 3500 
L 2356 3053 
L 1172 3053 
L 1172 1153 
Q 1172 725 1289 603 
Q 1406 481 1766 481 
L 2356 481 
L 2356 0 
L 1766 0 
Q 1100 0 847 248 
Q 594 497 594 1153 
L 594 3053 
L 172 3053 
L 172 3500 
L 594 3500 
L 594 4494 
L 1172 4494 
z
" transform="scale(0.015625)"/>
       <path id="DejaVuSans-69" d="M 603 3500 
L 1178 3500 
L 1178 0 
L 603 0 
L 603 3500 
z
M 603 4863 
L 1178 4863 
L 1178 4134 
L 603 4134 
L 603 4863 
z
" transform="scale(0.015625)"/>
       <path id="DejaVuSans-6f" d="M 1959 3097 
Q 1497 3097 1228 2736 
Q 959 2375 959 1747 
Q 959 1119 1226 758 
Q 1494 397 1959 397 
Q 2419 397 2687 759 
Q 2956 1122 2956 1747 
Q 2956 2369 2687 2733 
Q 2419 3097 1959 3097 
z
M 1959 3584 
Q 2709 3584 3137 3096 
Q 3566 2609 3566 1747 
Q 3566 888 3137 398 
Q 2709 -91 1959 -91 
Q 1206 -91 779 398 
Q 353 888 353 1747 
Q 353 2609 779 3096 
Q 1206 3584 1959 3584 
z
" transform="scale(0.015625)"/>
      </defs>
      <use xlink:href="#DejaVuSans-47"/>
      <use xlink:href="#DejaVuSans-65" x="77.490234"/>
      <use xlink:href="#DejaVuSans-6e" x="139.013672"/>
      <use xlink:href="#DejaVuSans-65" x="202.392578"/>
      <use xlink:href="#DejaVuSans-72" x="263.916016"/>
      <use xlink:href="#DejaVuSans-61" x="305.029297"/>
      <use xlink:href="#DejaVuSans-74" x="366.308594"/>
      <use xlink:href="#DejaVuSans-69" x="405.517578"/>
      <use xlink:href="#DejaVuSans-6f" x="433.300781"/>
      <use xlink:href="#DejaVuSans-6e" x="494.482422"/>
     </g>
    </g>
   </g>
   <g id="matplotlib.axis_2">
    <g id="ytick_1">
     <g id="line2d_6">
      <path d="M 60.30875 305.649113 
L 340.306265 305.649113 
" clip-path="url(#p75ef2b7472)" style="fill: none; stroke: #ffffff; stroke-linecap: round"/>
     </g>
     <g id="text_7">
      <!-- 0 -->
      <g style="fill: #262626" transform="translate(43.81 309.828253)scale(0.11 -0.11)">
       <use xlink:href="#DejaVuSans-30"/>
      </g>
     </g>
    </g>
    <g id="ytick_2">
     <g id="line2d_7">
      <path d="M 60.30875 260.757284 
L 340.306265 260.757284 
" clip-path="url(#p75ef2b7472)" style="fill: none; stroke: #ffffff; stroke-linecap: round"/>
     </g>
     <g id="text_8">
      <!-- 500 -->
      <g style="fill: #262626" transform="translate(29.8125 264.936425)scale(0.11 -0.11)">
       <use xlink:href="#DejaVuSans-35"/>
       <use xlink:href="#DejaVuSans-30" x="63.623047"/>
       <use xlink:href="#DejaVuSans-30" x="127.246094"/>
      </g>
     </g>
    </g>
    <g id="ytick_3">
     <g id="line2d_8">
      <path d="M 60.30875 215.865456 
L 340.306265 215.865456 
" clip-path="url(#p75ef2b7472)" style="fill: none; stroke: #ffffff; stroke-linecap: round"/>
     </g>
     <g id="text_9">
      <!-- 1000 -->
      <g style="fill: #262626" transform="translate(22.81375 220.044596)scale(0.11 -0.11)">
       <use xlink:href="#DejaVuSans-31"/>
       <use xlink:href="#DejaVuSans-30" x="63.623047"/>
       <use xlink:href="#DejaVuSans-30" x="127.246094"/>
       <use xlink:href="#DejaVuSans-30" x="190.869141"/>
      </g>
     </g>
    </g>
    <g id="ytick_4">
     <g id="line2d_9">
      <path d="M 60.30875 170.973627 
L 340.306265 170.973627 
" clip-path="url(#p75ef2b7472)" style="fill: none; stroke: #ffffff; stroke-linecap: round"/>
     </g>
     <g id="text_10">
      <!-- 1500 -->
      <g style="fill: #262626" transform="translate(22.81375 175.152768)scale(0.11 -0.11)">
       <use xlink:href="#DejaVuSans-31"/>
       <use xlink:href="#DejaVuSans-35" x="63.623047"/>
       <use xlink:href="#DejaVuSans-30" x="127.246094"/>
       <use xlink:href="#DejaVuSans-30" x="190.869141"/>
      </g>
     </g>
    </g>
    <g id="ytick_5">
     <g id="line2d_10">
      <path d="M 60.30875 126.081799 
L 340.306265 126.081799 
" clip-path="url(#p75ef2b7472)" style="fill: none; stroke: #ffffff; stroke-linecap: round"/>
     </g>
     <g id="text_11">
      <!-- 2000 -->
      <g style="fill: #262626" transform="translate(22.81375 130.260939)scale(0.11 -0.11)">
       <use xlink:href="#DejaVuSans-32"/>
       <use xlink:href="#DejaVuSans-30" x="63.623047"/>
       <use xlink:href="#DejaVuSans-30" x="127.246094"/>
       <use xlink:href="#DejaVuSans-30" x="190.869141"/>
      </g>
     </g>
    </g>
    <g id="ytick_6">
     <g id="line2d_11">
      <path d="M 60.30875 81.18997 
L 340.306265 81.18997 
" clip-path="url(#p75ef2b7472)" style="fill: none; stroke: #ffffff; stroke-linecap: round"/>
     </g>
     <g id="text_12">
      <!-- 2500 -->
      <g style="fill: #262626" transform="translate(22.81375 85.369111)scale(0.11 -0.11)">
       <use xlink:href="#DejaVuSans-32"/>
       <use xlink:href="#DejaVuSans-35" x="63.623047"/>
       <use xlink:href="#DejaVuSans-30" x="127.246094"/>
       <use xlink:href="#DejaVuSans-30" x="190.869141"/>
      </g>
     </g>
    </g>
    <g id="ytick_7">
     <g id="line2d_12">
      <path d="M 60.30875 36.298142 
L 340.306265 36.298142 
" clip-path="url(#p75ef2b7472)" style="fill: none; stroke: #ffffff; stroke-linecap: round"/>
     </g>
     <g id="text_13">
      <!-- 3000 -->
      <g style="fill: #262626" transform="translate(22.81375 40.477282)scale(0.11 -0.11)">
       <defs>
        <path id="DejaVuSans-33" d="M 2597 2516 
Q 3050 2419 3304 2112 
Q 3559 1806 3559 1356 
Q 3559 666 3084 287 
Q 2609 -91 1734 -91 
Q 1441 -91 1130 -33 
Q 819 25 488 141 
L 488 750 
Q 750 597 1062 519 
Q 1375 441 1716 441 
Q 2309 441 2620 675 
Q 2931 909 2931 1356 
Q 2931 1769 2642 2001 
Q 2353 2234 1838 2234 
L 1294 2234 
L 1294 2753 
L 1863 2753 
Q 2328 2753 2575 2939 
Q 2822 3125 2822 3475 
Q 2822 3834 2567 4026 
Q 2313 4219 1838 4219 
Q 1578 4219 1281 4162 
Q 984 4106 628 3988 
L 628 4550 
Q 988 4650 1302 4700 
Q 1616 4750 1894 4750 
Q 2613 4750 3031 4423 
Q 3450 4097 3450 3541 
Q 3450 3153 3228 2886 
Q 3006 2619 2597 2516 
z
" transform="scale(0.015625)"/>
       </defs>
       <use xlink:href="#DejaVuSans-33"/>
       <use xlink:href="#DejaVuSans-30" x="63.623047"/>
       <use xlink:href="#DejaVuSans-30" x="127.246094"/>
       <use xlink:href="#DejaVuSans-30" x="190.869141"/>
      </g>
     </g>
    </g>
    <g id="text_14">
     <!-- Fitness -->
     <g style="fill: #262626" transform="translate(16.318125 191.50875)rotate(-90)scale(0.12 -0.12)">
      <defs>
       <path id="DejaVuSans-46" d="M 628 4666 
L 3309 4666 
L 3309 4134 
L 1259 4134 
L 1259 2759 
L 3109 2759 
L 3109 2228 
L 1259 2228 
L 1259 0 
L 628 0 
L 628 4666 
z
" transform="scale(0.015625)"/>
       <path id="DejaVuSans-73" d="M 2834 3397 
L 2834 2853 
Q 2591 2978 2328 3040 
Q 2066 3103 1784 3103 
Q 1356 3103 1142 2972 
Q 928 2841 928 2578 
Q 928 2378 1081 2264 
Q 1234 2150 1697 2047 
L 1894 2003 
Q 2506 1872 2764 1633 
Q 3022 1394 3022 966 
Q 3022 478 2636 193 
Q 2250 -91 1575 -91 
Q 1294 -91 989 -36 
Q 684 19 347 128 
L 347 722 
Q 666 556 975 473 
Q 1284 391 1588 391 
Q 1994 391 2212 530 
Q 2431 669 2431 922 
Q 2431 1156 2273 1281 
Q 2116 1406 1581 1522 
L 1381 1569 
Q 847 1681 609 1914 
Q 372 2147 372 2553 
Q 372 3047 722 3315 
Q 1072 3584 1716 3584 
Q 2034 3584 2315 3537 
Q 2597 3491 2834 3397 
z
" transform="scale(0.015625)"/>
      </defs>
      <use xlink:href="#DejaVuSans-46"/>
      <use xlink:href="#DejaVuSans-69" x="50.269531"/>
      <use xlink:href="#DejaVuSans-74" x="78.052734"/>
      <use xlink:href="#DejaVuSans-6e" x="117.261719"/>
      <use xlink:href="#DejaVuSans-65" x="180.640625"/>
      <use xlink:href="#DejaVuSans-73" x="242.164062"/>
      <use xlink:href="#DejaVuSans-73" x="294.263672"/>
     </g>
    </g>
   </g>
   <g id="PolyCollection_1">
    <defs>
     <path id="m46aa728e07" d="M 73.03591 -56.726538 
L 73.03591 -56.454311 
L 74.315021 -57.149994 
L 75.594133 -59.62164 
L 76.873244 -64.87686 
L 78.152356 -68.57763 
L 79.431467 -68.28892 
L 80.710579 -66.784833 
L 81.989691 -67.651736 
L 83.268802 -66.526775 
L 84.547914 -68.687265 
L 85.827025 -69.80963 
L 87.106137 -68.84144 
L 88.385248 -66.152981 
L 89.66436 -67.660294 
L 90.943471 -69.649703 
L 92.222583 -68.11777 
L 93.501694 -70.165959 
L 94.780806 -73.626488 
L 96.059917 -84.796417 
L 97.339029 -90.665532 
L 98.61814 -99.550467 
L 99.897252 -94.926468 
L 101.176364 -102.154193 
L 102.455475 -104.109793 
L 103.734587 -112.933843 
L 105.013698 -164.716497 
L 106.29281 -211.443139 
L 107.571921 -272.871644 
L 108.851033 -269.510929 
L 110.130144 -273.00688 
L 111.409256 -272.549825 
L 112.688367 -281.031295 
L 113.967479 -248.024578 
L 115.24659 -280.986403 
L 116.525702 -281.205251 
L 117.804813 -256.13597 
L 119.083925 -297.618825 
L 120.363037 -287.422769 
L 121.642148 -273.025679 
L 122.92126 -281.118273 
L 124.200371 -264.825345 
L 125.479483 -242.560751 
L 126.758594 -272.687026 
L 128.037706 -256.037769 
L 129.316817 -280.992014 
L 130.595929 -272.678398 
L 131.87504 -266.104762 
L 133.154152 -251.287653 
L 134.433263 -256.105107 
L 135.712375 -298.931911 
L 136.991487 -280.986403 
L 138.270598 -273.983488 
L 139.54971 -322.567459 
L 140.828821 -281.311939 
L 142.107933 -272.737109 
L 143.387044 -273.018103 
L 144.666156 -256.750287 
L 145.945267 -297.618825 
L 147.224379 -281.339926 
L 148.50349 -258.405322 
L 149.782602 -297.837673 
L 151.061713 -273.407119 
L 152.340825 -282.356095 
L 153.619936 -281.911666 
L 154.899048 -266.756956 
L 156.17816 -267.443029 
L 157.457271 -298.275368 
L 158.736383 -323.224002 
L 160.015494 -274.050756 
L 161.294606 -266.117107 
L 162.573717 -282.203533 
L 163.852829 -322.786307 
L 165.13194 -256.909302 
L 166.411052 -248.824003 
L 167.690163 -273.238214 
L 168.969275 -322.567459 
L 170.248386 -260.002279 
L 171.527498 -281.160359 
L 172.806609 -302.601818 
L 174.085721 -272.477227 
L 175.364833 -258.886436 
L 176.643944 -297.618825 
L 177.923056 -247.721558 
L 179.202167 -256.309084 
L 180.481279 -269.387477 
L 181.76039 -271.136715 
L 183.039502 -274.728201 
L 184.318613 -265.941398 
L 185.597725 -297.618825 
L 186.876836 -297.618825 
L 188.155948 -287.616365 
L 189.435059 -280.989209 
L 190.714171 -281.01446 
L 191.993283 -322.567459 
L 193.272394 -272.670192 
L 194.551506 -297.618825 
L 195.830617 -265.846634 
L 197.109729 -282.602509 
L 198.38884 -248.101736 
L 199.667952 -282.647401 
L 200.947063 -272.670192 
L 202.226175 -274.35581 
L 203.505286 -297.618825 
L 204.784398 -281.295034 
L 206.063509 -297.618825 
L 207.342621 -243.57187 
L 208.621732 -232.766687 
L 209.900844 -297.618825 
L 211.179956 -248.636229 
L 212.459067 -281.160359 
L 213.738179 -264.359592 
L 215.01729 -247.814147 
L 216.296402 -281.345538 
L 217.575513 -302.601818 
L 218.854625 -297.618825 
L 220.133736 -281.222085 
L 221.412848 -281.160359 
L 222.691959 -264.555994 
L 223.971071 -262.543928 
L 225.250182 -264.494267 
L 226.529294 -234.658457 
L 227.808406 -236.929983 
L 229.087517 -256.349136 
L 230.366629 -322.567459 
L 231.64574 -272.670192 
L 232.924852 -297.905011 
L 234.203963 -322.567459 
L 235.483075 -256.211725 
L 236.762186 -256.15561 
L 238.041298 -297.618825 
L 239.320409 -265.823066 
L 240.599521 -281.143524 
L 241.878632 -256.955246 
L 243.157744 -322.567459 
L 244.436855 -276.376573 
L 245.715967 -261.407954 
L 246.995079 -272.720485 
L 248.27419 -282.333158 
L 249.553302 -264.479187 
L 250.832413 -272.843867 
L 252.111525 -284.529981 
L 253.390636 -284.375736 
L 254.669748 -281.137913 
L 255.948859 -272.978823 
L 257.227971 -281.536328 
L 258.507082 -272.813284 
L 259.786194 -266.29927 
L 261.065305 -273.595104 
L 262.344417 -299.201262 
L 263.623528 -264.903835 
L 264.90264 -248.56328 
L 266.181752 -281.889851 
L 267.460863 -282.512865 
L 268.739975 -282.892342 
L 270.019086 -257.987968 
L 271.298198 -283.138405 
L 272.577309 -273.591105 
L 273.856421 -301.081248 
L 275.135532 -283.225523 
L 276.414644 -249.470866 
L 277.693755 -267.493112 
L 278.972867 -299.016084 
L 280.251978 -274.066678 
L 281.53109 -248.759401 
L 282.810202 -257.364393 
L 284.089313 -272.792873 
L 285.368425 -267.336902 
L 286.647536 -282.535171 
L 287.926648 -215.927552 
L 289.205759 -281.945966 
L 290.484871 -256.980498 
L 291.763982 -281.858988 
L 293.043094 -259.628274 
L 294.322205 -289.291391 
L 295.601317 -285.927871 
L 296.880428 -265.080667 
L 298.15954 -272.897457 
L 299.438651 -297.69458 
L 300.717763 -281.42971 
L 301.996875 -264.365203 
L 303.275986 -272.889039 
L 304.555098 -281.020072 
L 305.834209 -264.686601 
L 307.113321 -322.567459 
L 308.392432 -264.687863 
L 309.671544 -256.963663 
L 310.950655 -297.618825 
L 312.229767 -297.618825 
L 313.508878 -297.618825 
L 314.78799 -280.992014 
L 316.067101 -297.947097 
L 317.346213 -265.005052 
L 318.625324 -248.136667 
L 319.904436 -297.618825 
L 321.183548 -274.723993 
L 322.462659 -266.525623 
L 323.741771 -257.28464 
L 325.020882 -281.935865 
L 326.299994 -273.763869 
L 327.579105 -273.977806 
L 327.579105 -324.323712 
L 327.579105 -324.323712 
L 326.299994 -324.537088 
L 325.020882 -324.537088 
L 323.741771 -316.004835 
L 322.462659 -323.224002 
L 321.183548 -322.786307 
L 319.904436 -323.44285 
L 318.625324 -314.784338 
L 317.346213 -322.567459 
L 316.067101 -322.567459 
L 314.78799 -322.567459 
L 313.508878 -322.567459 
L 312.229767 -322.567459 
L 310.950655 -322.567459 
L 309.671544 -314.688943 
L 308.392432 -322.567459 
L 307.113321 -322.567459 
L 305.834209 -322.567459 
L 304.555098 -322.567459 
L 303.275986 -322.567459 
L 301.996875 -322.567459 
L 300.717763 -322.567459 
L 299.438651 -322.567459 
L 298.15954 -322.567459 
L 296.880428 -322.567459 
L 295.601317 -322.567459 
L 294.322205 -322.567459 
L 293.043094 -314.31578 
L 291.763982 -322.567459 
L 290.484871 -314.554268 
L 289.205759 -323.005154 
L 287.926648 -291.67627 
L 286.647536 -323.44285 
L 285.368425 -323.005154 
L 284.089313 -323.44285 
L 282.810202 -315.345486 
L 281.53109 -315.126638 
L 280.251978 -324.537088 
L 278.972867 -325.412479 
L 277.693755 -324.31824 
L 276.414644 -309.236901 
L 275.135532 -325.631326 
L 273.856421 -326.287869 
L 272.577309 -324.761407 
L 271.298198 -325.855645 
L 270.019086 -316.72591 
L 268.739975 -324.31824 
L 267.460863 -324.974783 
L 266.181752 -324.099393 
L 264.90264 -315.348222 
L 263.623528 -317.536137 
L 262.344417 -325.412479 
L 261.065305 -323.886016 
L 259.786194 -323.44285 
L 258.507082 -323.005154 
L 257.227971 -323.005154 
L 255.948859 -322.786307 
L 254.669748 -322.567459 
L 253.390636 -322.567459 
L 252.111525 -322.567459 
L 250.832413 -322.567459 
L 249.553302 -322.567459 
L 248.27419 -322.567459 
L 246.995079 -322.567459 
L 245.715967 -316.742744 
L 244.436855 -322.567459 
L 243.157744 -322.567459 
L 241.878632 -315.149084 
L 240.599521 -322.567459 
L 239.320409 -322.567459 
L 238.041298 -322.567459 
L 236.762186 -314.276499 
L 235.483075 -314.338226 
L 234.203963 -322.567459 
L 232.924852 -322.567459 
L 231.64574 -322.567459 
L 230.366629 -322.567459 
L 229.087517 -314.312974 
L 227.808406 -306.810427 
L 226.529294 -306.055683 
L 225.250182 -322.567459 
L 223.971071 -317.469431 
L 222.691959 -322.567459 
L 221.412848 -322.567459 
L 220.133736 -322.567459 
L 218.854625 -322.567459 
L 217.575513 -322.567459 
L 216.296402 -322.567459 
L 215.01729 -314.251248 
L 213.738179 -322.567459 
L 212.459067 -322.567459 
L 211.179956 -314.321391 
L 209.900844 -322.567459 
L 208.621732 -300.121755 
L 207.342621 -306.395178 
L 206.063509 -322.567459 
L 204.784398 -322.567459 
L 203.505286 -322.567459 
L 202.226175 -322.567459 
L 200.947063 -322.567459 
L 199.667952 -322.567459 
L 198.38884 -314.251248 
L 197.109729 -322.567459 
L 195.830617 -322.567459 
L 194.551506 -322.567459 
L 193.272394 -322.567459 
L 191.993283 -322.567459 
L 190.714171 -322.567459 
L 189.435059 -322.567459 
L 188.155948 -322.567459 
L 186.876836 -322.567459 
L 185.597725 -322.567459 
L 184.318613 -322.567459 
L 183.039502 -322.567459 
L 181.76039 -322.567459 
L 180.481279 -322.567459 
L 179.202167 -314.277692 
L 177.923056 -305.935037 
L 176.643944 -322.567459 
L 175.364833 -315.912245 
L 174.085721 -322.567459 
L 172.806609 -322.567459 
L 171.527498 -322.567459 
L 170.248386 -315.912245 
L 168.969275 -322.567459 
L 167.690163 -322.567459 
L 166.411052 -314.311431 
L 165.13194 -315.345486 
L 163.852829 -324.31824 
L 162.573717 -324.31824 
L 161.294606 -323.880545 
L 160.015494 -323.661697 
L 158.736383 -325.193631 
L 157.457271 -324.31824 
L 156.17816 -323.44285 
L 154.899048 -323.448321 
L 153.619936 -323.661697 
L 152.340825 -323.880545 
L 151.061713 -323.005154 
L 149.782602 -324.099393 
L 148.50349 -315.45491 
L 147.224379 -323.224002 
L 145.945267 -323.010626 
L 144.666156 -314.864021 
L 143.387044 -322.786307 
L 142.107933 -322.786307 
L 140.828821 -323.005154 
L 139.54971 -323.44285 
L 138.270598 -322.567459 
L 136.991487 -322.567459 
L 135.712375 -322.567459 
L 134.433263 -314.312974 
L 133.154152 -314.251248 
L 131.87504 -322.567459 
L 130.595929 -322.567459 
L 129.316817 -322.567459 
L 128.037706 -314.251248 
L 126.758594 -322.567459 
L 125.479483 -305.94626 
L 124.200371 -322.567459 
L 122.92126 -322.567459 
L 121.642148 -322.567459 
L 120.363037 -322.567459 
L 119.083925 -322.567459 
L 117.804813 -314.338226 
L 116.525702 -322.567459 
L 115.24659 -322.567459 
L 113.967479 -314.251248 
L 112.688367 -322.567459 
L 111.409256 -322.567459 
L 110.130144 -322.567459 
L 108.851033 -322.567459 
L 107.571921 -322.567459 
L 106.29281 -286.02039 
L 105.013698 -241.129193 
L 103.734587 -161.222861 
L 102.455475 -128.128535 
L 101.176364 -109.600625 
L 99.897252 -107.967685 
L 98.61814 -109.600625 
L 97.339029 -104.707626 
L 96.059917 -99.272909 
L 94.780806 -86.742688 
L 93.501694 -79.668998 
L 92.222583 -73.504789 
L 90.943471 -69.826465 
L 89.66436 -69.77035 
L 88.385248 -69.360782 
L 87.106137 -69.826465 
L 85.827025 -69.826465 
L 84.547914 -69.820853 
L 83.268802 -69.504085 
L 81.989691 -69.80963 
L 80.710579 -69.458913 
L 79.431467 -69.804019 
L 78.152356 -69.804019 
L 76.873244 -68.319853 
L 75.594133 -63.308943 
L 74.315021 -58.70732 
L 73.03591 -56.726538 
z
" style="stroke: #edd1cb; stroke-opacity: 0.2"/>
    </defs>
    <g clip-path="url(#p75ef2b7472)">
     <use xlink:href="#m46aa728e07" x="0" y="362.097812" style="fill: #edd1cb; fill-opacity: 0.2; stroke: #edd1cb; stroke-opacity: 0.2"/>
    </g>
   </g>
   <g id="PolyCollection_2">
    <defs>
     <path id="me9db4262e6" d="M 73.03591 -56.535678 
L 73.03591 -56.454311 
L 74.315021 -56.628267 
L 75.594133 -56.667548 
L 76.873244 -56.695605 
L 78.152356 -56.605751 
L 79.431467 -56.813376 
L 80.710579 -57.122007 
L 81.989691 -57.368912 
L 83.268802 -57.677614 
L 84.547914 -57.669197 
L 85.827025 -57.677614 
L 87.106137 -57.795455 
L 88.385248 -57.795455 
L 89.66436 -57.677614 
L 90.943471 -57.795455 
L 92.222583 -57.554021 
L 93.501694 -57.551355 
L 94.780806 -57.669197 
L 96.059917 -57.795455 
L 97.339029 -57.795455 
L 98.61814 -57.506464 
L 99.897252 -57.795455 
L 101.176364 -57.677614 
L 102.455475 -57.669197 
L 103.734587 -57.643945 
L 105.013698 -57.815095 
L 106.29281 -57.669197 
L 107.571921 -57.747757 
L 108.851033 -57.882363 
L 110.130144 -57.775815 
L 111.409256 -57.817831 
L 112.688367 -57.986245 
L 113.967479 -58.140561 
L 115.24659 -58.02265 
L 116.525702 -58.311711 
L 117.804813 -58.185382 
L 119.083925 -58.376243 
L 120.363037 -58.373437 
L 121.642148 -58.379049 
L 122.92126 -58.140561 
L 124.200371 -58.440775 
L 125.479483 -58.440775 
L 126.758594 -58.283653 
L 128.037706 -58.182647 
L 129.316817 -58.25272 
L 130.595929 -58.157395 
L 131.87504 -58.317322 
L 133.154152 -58.508113 
L 134.433263 -58.53617 
L 135.712375 -58.53617 
L 136.991487 -58.547393 
L 138.270598 -58.564227 
L 139.54971 -58.564227 
L 140.828821 -58.581062 
L 142.107933 -58.586673 
L 143.387044 -58.586673 
L 144.666156 -58.603508 
L 145.945267 -58.603508 
L 147.224379 -58.603508 
L 148.50349 -58.401494 
L 149.782602 -58.401494 
L 151.061713 -58.603508 
L 152.340825 -58.266819 
L 153.619936 -58.603508 
L 154.899048 -58.603508 
L 156.17816 -58.603508 
L 157.457271 -58.401494 
L 158.736383 -58.266819 
L 160.015494 -58.603508 
L 161.294606 -58.603508 
L 162.573717 -58.603508 
L 163.852829 -58.603508 
L 165.13194 -58.603508 
L 166.411052 -58.603508 
L 167.690163 -58.409912 
L 168.969275 -58.603508 
L 170.248386 -58.603508 
L 171.527498 -58.199481 
L 172.806609 -58.603508 
L 174.085721 -58.603508 
L 175.364833 -58.399811 
L 176.643944 -58.603508 
L 177.923056 -58.603508 
L 179.202167 -58.603508 
L 180.481279 -58.603508 
L 181.76039 -58.603508 
L 183.039502 -58.603508 
L 184.318613 -58.401494 
L 185.597725 -58.603508 
L 186.876836 -58.401494 
L 188.155948 -58.401494 
L 189.435059 -58.603508 
L 190.714171 -58.401494 
L 191.993283 -58.266819 
L 193.272394 -58.603508 
L 194.551506 -58.603508 
L 195.830617 -58.603508 
L 197.109729 -58.401494 
L 198.38884 -58.586673 
L 199.667952 -58.592285 
L 200.947063 -58.488472 
L 202.226175 -58.494084 
L 203.505286 -58.390272 
L 204.784398 -58.603508 
L 206.063509 -58.34538 
L 207.342621 -58.401494 
L 208.621732 -58.603508 
L 209.900844 -58.401494 
L 211.179956 -58.603508 
L 212.459067 -58.401494 
L 213.738179 -58.603508 
L 215.01729 -58.409912 
L 216.296402 -58.401494 
L 217.575513 -58.603508 
L 218.854625 -58.603508 
L 220.133736 -58.603508 
L 221.412848 -58.603508 
L 222.691959 -58.603508 
L 223.971071 -58.401494 
L 225.250182 -58.266819 
L 226.529294 -58.603508 
L 227.808406 -58.603508 
L 229.087517 -58.603508 
L 230.366629 -58.493172 
L 231.64574 -58.603508 
L 232.924852 -58.603508 
L 234.203963 -58.603508 
L 235.483075 -58.266819 
L 236.762186 -58.603508 
L 238.041298 -58.409912 
L 239.320409 -58.603508 
L 240.599521 -58.401494 
L 241.878632 -58.603508 
L 243.157744 -58.603508 
L 244.436855 -58.603508 
L 245.715967 -58.603508 
L 246.995079 -58.603508 
L 248.27419 -58.401494 
L 249.553302 -58.401494 
L 250.832413 -58.401494 
L 252.111525 -58.603508 
L 253.390636 -58.603508 
L 254.669748 -58.603508 
L 255.948859 -58.401494 
L 257.227971 -58.603508 
L 258.507082 -58.603508 
L 259.786194 -58.603508 
L 261.065305 -58.401494 
L 262.344417 -58.603508 
L 263.623528 -58.603508 
L 264.90264 -58.603508 
L 266.181752 -58.401494 
L 267.460863 -58.401494 
L 268.739975 -58.603508 
L 270.019086 -58.401494 
L 271.298198 -58.401494 
L 272.577309 -58.603508 
L 273.856421 -58.603508 
L 275.135532 -58.603508 
L 276.414644 -58.603508 
L 277.693755 -58.603508 
L 278.972867 -58.603508 
L 280.251978 -58.603508 
L 281.53109 -58.409912 
L 282.810202 -58.409912 
L 284.089313 -58.603508 
L 285.368425 -58.494084 
L 286.647536 -58.266819 
L 287.926648 -58.603508 
L 289.205759 -58.603508 
L 290.484871 -58.603508 
L 291.763982 -58.401494 
L 293.043094 -58.603508 
L 294.322205 -58.603508 
L 295.601317 -58.603508 
L 296.880428 -58.38466 
L 298.15954 -58.586673 
L 299.438651 -58.603508 
L 300.717763 -58.603508 
L 301.996875 -58.401494 
L 303.275986 -58.401494 
L 304.555098 -58.603508 
L 305.834209 -58.266819 
L 307.113321 -58.603508 
L 308.392432 -58.466026 
L 309.671544 -58.586673 
L 310.950655 -58.401494 
L 312.229767 -58.603508 
L 313.508878 -58.401494 
L 314.78799 -58.603508 
L 316.067101 -58.603508 
L 317.346213 -58.401494 
L 318.625324 -58.199481 
L 319.904436 -58.356603 
L 321.183548 -58.401494 
L 322.462659 -58.401494 
L 323.741771 -58.401494 
L 325.020882 -58.275166 
L 326.299994 -58.199481 
L 327.579105 -58.401494 
L 327.579105 -58.603508 
L 327.579105 -58.603508 
L 326.299994 -58.603508 
L 325.020882 -58.603508 
L 323.741771 -58.603508 
L 322.462659 -58.603508 
L 321.183548 -58.603508 
L 319.904436 -58.603508 
L 318.625324 -58.603508 
L 317.346213 -58.603508 
L 316.067101 -58.603508 
L 314.78799 -58.603508 
L 313.508878 -58.603508 
L 312.229767 -58.603508 
L 310.950655 -58.603508 
L 309.671544 -58.603508 
L 308.392432 -58.603508 
L 307.113321 -58.603508 
L 305.834209 -58.603508 
L 304.555098 -58.603508 
L 303.275986 -58.603508 
L 301.996875 -58.603508 
L 300.717763 -58.603508 
L 299.438651 -58.603508 
L 298.15954 -58.603508 
L 296.880428 -58.603508 
L 295.601317 -58.603508 
L 294.322205 -58.603508 
L 293.043094 -58.603508 
L 291.763982 -58.603508 
L 290.484871 -58.603508 
L 289.205759 -58.603508 
L 287.926648 -58.603508 
L 286.647536 -58.603508 
L 285.368425 -58.603508 
L 284.089313 -58.603508 
L 282.810202 -58.603508 
L 281.53109 -58.603508 
L 280.251978 -58.603508 
L 278.972867 -58.603508 
L 277.693755 -58.603508 
L 276.414644 -58.603508 
L 275.135532 -58.603508 
L 273.856421 -58.603508 
L 272.577309 -58.603508 
L 271.298198 -58.603508 
L 270.019086 -58.603508 
L 268.739975 -58.603508 
L 267.460863 -58.603508 
L 266.181752 -58.603508 
L 264.90264 -58.603508 
L 263.623528 -58.603508 
L 262.344417 -58.603508 
L 261.065305 -58.603508 
L 259.786194 -58.603508 
L 258.507082 -58.603508 
L 257.227971 -58.603508 
L 255.948859 -58.603508 
L 254.669748 -58.603508 
L 253.390636 -58.603508 
L 252.111525 -58.603508 
L 250.832413 -58.603508 
L 249.553302 -58.603508 
L 248.27419 -58.603508 
L 246.995079 -58.603508 
L 245.715967 -58.603508 
L 244.436855 -58.603508 
L 243.157744 -58.603508 
L 241.878632 -58.603508 
L 240.599521 -58.603508 
L 239.320409 -58.603508 
L 238.041298 -58.603508 
L 236.762186 -58.603508 
L 235.483075 -58.603508 
L 234.203963 -58.603508 
L 232.924852 -58.603508 
L 231.64574 -58.603508 
L 230.366629 -58.603508 
L 229.087517 -58.603508 
L 227.808406 -58.603508 
L 226.529294 -58.603508 
L 225.250182 -58.603508 
L 223.971071 -58.603508 
L 222.691959 -58.603508 
L 221.412848 -58.603508 
L 220.133736 -58.603508 
L 218.854625 -58.603508 
L 217.575513 -58.603508 
L 216.296402 -58.603508 
L 215.01729 -58.603508 
L 213.738179 -58.603508 
L 212.459067 -58.603508 
L 211.179956 -58.603508 
L 209.900844 -58.603508 
L 208.621732 -58.603508 
L 207.342621 -58.603508 
L 206.063509 -58.603508 
L 204.784398 -58.603508 
L 203.505286 -58.603508 
L 202.226175 -58.682068 
L 200.947063 -58.676457 
L 199.667952 -58.738183 
L 198.38884 -58.68768 
L 197.109729 -58.603508 
L 195.830617 -58.603508 
L 194.551506 -58.603508 
L 193.272394 -58.603508 
L 191.993283 -58.603508 
L 190.714171 -58.603508 
L 189.435059 -58.603508 
L 188.155948 -58.603508 
L 186.876836 -58.603508 
L 185.597725 -58.603508 
L 184.318613 -58.603508 
L 183.039502 -58.603508 
L 181.76039 -58.603508 
L 180.481279 -58.603508 
L 179.202167 -58.603508 
L 177.923056 -58.603508 
L 176.643944 -58.603508 
L 175.364833 -58.603508 
L 174.085721 -58.603508 
L 172.806609 -58.603508 
L 171.527498 -58.603508 
L 170.248386 -58.603508 
L 168.969275 -58.603508 
L 167.690163 -58.603508 
L 166.411052 -58.603508 
L 165.13194 -58.603508 
L 163.852829 -58.603508 
L 162.573717 -58.603508 
L 161.294606 -58.603508 
L 160.015494 -58.603508 
L 158.736383 -58.603508 
L 157.457271 -58.603508 
L 156.17816 -58.603508 
L 154.899048 -58.603508 
L 153.619936 -58.603508 
L 152.340825 -58.603508 
L 151.061713 -58.603508 
L 149.782602 -58.603508 
L 148.50349 -58.603508 
L 147.224379 -58.603508 
L 145.945267 -58.603508 
L 144.666156 -58.603508 
L 143.387044 -58.603508 
L 142.107933 -58.712932 
L 140.828821 -58.70732 
L 139.54971 -58.603508 
L 138.270598 -58.603508 
L 136.991487 -58.592285 
L 135.712375 -58.586673 
L 134.433263 -58.586673 
L 133.154152 -58.564368 
L 131.87504 -58.553004 
L 130.595929 -58.513864 
L 129.316817 -58.524947 
L 128.037706 -58.508113 
L 126.758594 -58.502641 
L 125.479483 -58.49689 
L 124.200371 -58.491418 
L 122.92126 -58.457609 
L 121.642148 -58.468832 
L 120.363037 -58.463221 
L 119.083925 -58.463221 
L 117.804813 -58.443581 
L 116.525702 -58.452068 
L 115.24659 -58.370701 
L 113.967479 -58.348185 
L 112.688367 -58.283653 
L 111.409256 -58.163007 
L 110.130144 -58.129408 
L 108.851033 -58.168618 
L 107.571921 -58.095739 
L 106.29281 -57.972216 
L 105.013698 -57.972216 
L 103.734587 -57.874015 
L 102.455475 -57.854375 
L 101.176364 -57.795455 
L 99.897252 -57.795455 
L 98.61814 -57.795455 
L 97.339029 -57.795455 
L 96.059917 -57.795455 
L 94.780806 -57.795455 
L 93.501694 -57.795455 
L 92.222583 -57.795455 
L 90.943471 -57.795455 
L 89.66436 -57.795455 
L 88.385248 -57.795455 
L 87.106137 -57.795455 
L 85.827025 -57.795455 
L 84.547914 -57.795455 
L 83.268802 -57.795455 
L 81.989691 -57.716894 
L 80.710579 -57.506464 
L 79.431467 -57.172581 
L 78.152356 -56.844309 
L 76.873244 -56.911717 
L 75.594133 -56.866755 
L 74.315021 -56.765748 
L 73.03591 -56.535678 
z
" style="stroke: #d499a7; stroke-opacity: 0.2"/>
    </defs>
    <g clip-path="url(#p75ef2b7472)">
     <use xlink:href="#me9db4262e6" x="0" y="362.097812" style="fill: #d499a7; fill-opacity: 0.2; stroke: #d499a7; stroke-opacity: 0.2"/>
    </g>
   </g>
   <g id="PolyCollection_3">
    <defs>
     <path id="m7c1133015d" d="M 73.03591 -56.605891 
L 73.03591 -56.465534 
L 74.315021 -56.833086 
L 75.594133 -57.458696 
L 76.873244 -57.742005 
L 78.152356 -58.703673 
L 79.431467 -58.903722 
L 80.710579 -59.588112 
L 81.989691 -59.635879 
L 83.268802 -60.177527 
L 84.547914 -60.431868 
L 85.827025 -59.481494 
L 87.106137 -60.528245 
L 88.385248 -60.160693 
L 89.66436 -59.759472 
L 90.943471 -60.295368 
L 92.222583 -59.41107 
L 93.501694 -59.650048 
L 94.780806 -59.689189 
L 96.059917 -59.498328 
L 97.339029 -59.509621 
L 98.61814 -60.376665 
L 99.897252 -60.239184 
L 101.176364 -59.888466 
L 102.455475 -60.062492 
L 103.734587 -60.171916 
L 105.013698 -60.154801 
L 106.29281 -60.609541 
L 107.571921 -59.938969 
L 108.851033 -60.067542 
L 110.130144 -60.174722 
L 111.409256 -60.578678 
L 112.688367 -61.364285 
L 113.967479 -62.36867 
L 115.24659 -65.376562 
L 116.525702 -66.268717 
L 117.804813 -66.102688 
L 119.083925 -66.984251 
L 120.363037 -66.397851 
L 121.642148 -68.072878 
L 122.92126 -66.770454 
L 124.200371 -68.948268 
L 125.479483 -67.500297 
L 126.758594 -68.946585 
L 128.037706 -70.530705 
L 129.316817 -70.530705 
L 130.595929 -66.608282 
L 131.87504 -67.538946 
L 133.154152 -69.004383 
L 134.433263 -68.956686 
L 135.712375 -70.724301 
L 136.991487 -67.609159 
L 138.270598 -67.475045 
L 139.54971 -69.411215 
L 140.828821 -70.75797 
L 142.107933 -67.22835 
L 143.387044 -67.879282 
L 144.666156 -66.776626 
L 145.945267 -68.597481 
L 147.224379 -66.627571 
L 148.50349 -68.695612 
L 149.782602 -67.538946 
L 151.061713 -68.047626 
L 152.340825 -68.97331 
L 153.619936 -68.114543 
L 154.899048 -66.936413 
L 156.17816 -67.587415 
L 157.457271 -69.453301 
L 158.736383 -68.569494 
L 160.015494 -67.775329 
L 161.294606 -66.796266 
L 162.573717 -69.42805 
L 163.852829 -68.603162 
L 165.13194 -70.783222 
L 166.411052 -68.128712 
L 167.690163 -69.495388 
L 168.969275 -70.808474 
L 170.248386 -68.429207 
L 171.527498 -69.113316 
L 172.806609 -68.586258 
L 174.085721 -69.646407 
L 175.364833 -70.59166 
L 176.643944 -70.235471 
L 177.923056 -70.112089 
L 179.202167 -72.317891 
L 180.481279 -72.134747 
L 181.76039 -72.560658 
L 183.039502 -74.718341 
L 184.318613 -73.930841 
L 185.597725 -74.159438 
L 186.876836 -74.55645 
L 188.155948 -77.883496 
L 189.435059 -72.687758 
L 190.714171 -74.23358 
L 191.993283 -74.820611 
L 193.272394 -74.621473 
L 194.551506 -80.170875 
L 195.830617 -77.213976 
L 197.109729 -80.990501 
L 198.38884 -75.878094 
L 199.667952 -76.919163 
L 200.947063 -77.337359 
L 202.226175 -74.301619 
L 203.505286 -75.148531 
L 204.784398 -76.469754 
L 206.063509 -75.679027 
L 207.342621 -74.89363 
L 208.621732 -76.425423 
L 209.900844 -77.446853 
L 211.179956 -73.692633 
L 212.459067 -74.192195 
L 213.738179 -76.500407 
L 215.01729 -76.858489 
L 216.296402 -76.284575 
L 217.575513 -77.244839 
L 218.854625 -78.136714 
L 220.133736 -78.19844 
L 221.412848 -79.697056 
L 222.691959 -79.051736 
L 223.971071 -77.486133 
L 225.250182 -74.997372 
L 226.529294 -78.866557 
L 227.808406 -77.337429 
L 229.087517 -78.880585 
L 230.366629 -78.849722 
L 231.64574 -78.855334 
L 232.924852 -76.363837 
L 234.203963 -75.602991 
L 235.483075 -75.4996 
L 236.762186 -78.835694 
L 238.041298 -77.34269 
L 239.320409 -79.208857 
L 240.599521 -78.863751 
L 241.878632 -77.149444 
L 243.157744 -75.685339 
L 244.436855 -77.337218 
L 245.715967 -74.494163 
L 246.995079 -76.82952 
L 248.27419 -77.90973 
L 249.553302 -78.134259 
L 250.832413 -77.239509 
L 252.111525 -75.805495 
L 253.390636 -74.253921 
L 254.669748 -77.581528 
L 255.948859 -75.600185 
L 257.227971 -77.463687 
L 258.507082 -78.891808 
L 259.786194 -76.865574 
L 261.065305 -78.85814 
L 262.344417 -76.128015 
L 263.623528 -78.218992 
L 264.90264 -76.608007 
L 266.181752 -78.880585 
L 267.460863 -77.314983 
L 268.739975 -79.957639 
L 270.019086 -77.651321 
L 271.298198 -81.11676 
L 272.577309 -77.286926 
L 273.856421 -78.802025 
L 275.135532 -79.104694 
L 276.414644 -77.371098 
L 277.693755 -77.314983 
L 278.972867 -78.849372 
L 280.251978 -77.281314 
L 281.53109 -75.061483 
L 282.810202 -77.238877 
L 284.089313 -78.058504 
L 285.368425 -77.047175 
L 286.647536 -75.748749 
L 287.926648 -75.502125 
L 289.205759 -76.610392 
L 290.484871 -76.582685 
L 291.763982 -76.737001 
L 293.043094 -78.013612 
L 294.322205 -77.603974 
L 295.601317 -77.040021 
L 296.880428 -81.228989 
L 298.15954 -77.507316 
L 299.438651 -77.491745 
L 300.717763 -75.328099 
L 301.996875 -78.137065 
L 303.275986 -81.228989 
L 304.555098 -76.86887 
L 305.834209 -78.039144 
L 307.113321 -78.022029 
L 308.392432 -75.867221 
L 309.671544 -76.647217 
L 310.950655 -77.354263 
L 312.229767 -78.420374 
L 313.508878 -75.078739 
L 314.78799 -77.895701 
L 316.067101 -81.102731 
L 317.346213 -77.289661 
L 318.625324 -77.648726 
L 319.904436 -77.337429 
L 321.183548 -77.841971 
L 322.462659 -77.320314 
L 323.741771 -77.0201 
L 325.020882 -75.014066 
L 326.299994 -77.278508 
L 327.579105 -78.097784 
L 327.579105 -81.055033 
L 327.579105 -81.055033 
L 326.299994 -81.085897 
L 325.020882 -80.384532 
L 323.741771 -81.091578 
L 322.462659 -81.142081 
L 321.183548 -81.181292 
L 319.904436 -81.181292 
L 318.625324 -81.192515 
L 317.346213 -81.192585 
L 316.067101 -81.209349 
L 314.78799 -81.19532 
L 313.508878 -80.468634 
L 312.229767 -81.220572 
L 310.950655 -81.226184 
L 309.671544 -81.226184 
L 308.392432 -81.220572 
L 307.113321 -81.226184 
L 305.834209 -81.228989 
L 304.555098 -81.223378 
L 303.275986 -81.228989 
L 301.996875 -81.228989 
L 300.717763 -80.547195 
L 299.438651 -81.228989 
L 298.15954 -81.228989 
L 296.880428 -81.228989 
L 295.601317 -81.228989 
L 294.322205 -81.228989 
L 293.043094 -81.228989 
L 291.763982 -81.228989 
L 290.484871 -81.228989 
L 289.205759 -81.271075 
L 287.926648 -80.639784 
L 286.647536 -80.589351 
L 285.368425 -80.847409 
L 284.089313 -81.243018 
L 282.810202 -81.038199 
L 281.53109 -80.367627 
L 280.251978 -81.214961 
L 278.972867 -81.214961 
L 277.693755 -81.187254 
L 276.414644 -81.200932 
L 275.135532 -81.214961 
L 273.856421 -81.186903 
L 272.577309 -81.200932 
L 271.298198 -81.214961 
L 270.019086 -81.200932 
L 268.739975 -81.228989 
L 267.460863 -81.214961 
L 266.181752 -81.228989 
L 264.90264 -80.996113 
L 263.623528 -81.228989 
L 262.344417 -81.200932 
L 261.065305 -81.226184 
L 259.786194 -81.214961 
L 258.507082 -81.228989 
L 257.227971 -81.217766 
L 255.948859 -80.732444 
L 254.669748 -81.223378 
L 253.390636 -80.446188 
L 252.111525 -81.217766 
L 250.832413 -81.240282 
L 249.553302 -81.243158 
L 248.27419 -81.223378 
L 246.995079 -80.841867 
L 245.715967 -80.169472 
L 244.436855 -80.782877 
L 243.157744 -80.782877 
L 241.878632 -81.186903 
L 240.599521 -81.228989 
L 239.320409 -81.228989 
L 238.041298 -81.214961 
L 236.762186 -81.228989 
L 235.483075 -80.659424 
L 234.203963 -80.558418 
L 232.924852 -81.173225 
L 231.64574 -81.214961 
L 230.366629 -81.228989 
L 229.087517 -81.200932 
L 227.808406 -81.200932 
L 226.529294 -81.214961 
L 225.250182 -80.426548 
L 223.971071 -81.228989 
L 222.691959 -81.214961 
L 221.412848 -81.228989 
L 220.133736 -81.172874 
L 218.854625 -81.200932 
L 217.575513 -81.144817 
L 216.296402 -80.707472 
L 215.01729 -81.102731 
L 213.738179 -81.060645 
L 212.459067 -80.303376 
L 211.179956 -79.635399 
L 209.900844 -81.060645 
L 208.621732 -81.018559 
L 207.342621 -80.314318 
L 206.063509 -80.429424 
L 204.784398 -81.046967 
L 203.505286 -80.370503 
L 202.226175 -80.297554 
L 200.947063 -81.130788 
L 199.667952 -81.060645 
L 198.38884 -81.057839 
L 197.109729 -81.172874 
L 195.830617 -81.102731 
L 194.551506 -81.158846 
L 193.272394 -80.272583 
L 191.993283 -80.244385 
L 190.714171 -79.660651 
L 189.435059 -78.836325 
L 188.155948 -80.654023 
L 186.876836 -79.751136 
L 185.597725 -79.054611 
L 184.318613 -78.987414 
L 183.039502 -79.116478 
L 181.76039 -78.283454 
L 180.481279 -77.166489 
L 179.202167 -76.914814 
L 177.923056 -74.882407 
L 176.643944 -74.349387 
L 175.364833 -74.568655 
L 174.085721 -73.019536 
L 172.806609 -71.776664 
L 171.527498 -72.725004 
L 170.248386 -71.765581 
L 168.969275 -70.901063 
L 167.690163 -70.892646 
L 166.411052 -70.85077 
L 165.13194 -70.867394 
L 163.852829 -70.825308 
L 162.573717 -70.833725 
L 161.294606 -69.955669 
L 160.015494 -70.816891 
L 158.736383 -70.85056 
L 157.457271 -70.858977 
L 156.17816 -70.558763 
L 154.899048 -70.320415 
L 153.619936 -70.791639 
L 152.340825 -70.774805 
L 151.061713 -70.75797 
L 149.782602 -70.440922 
L 148.50349 -70.783222 
L 147.224379 -69.989338 
L 145.945267 -70.808474 
L 144.666156 -70.337109 
L 143.387044 -70.791639 
L 142.107933 -70.379195 
L 140.828821 -70.833725 
L 139.54971 -70.800056 
L 138.270598 -70.516677 
L 136.991487 -70.328832 
L 135.712375 -70.766387 
L 134.433263 -70.741136 
L 133.154152 -70.724301 
L 131.87504 -70.54754 
L 130.595929 -70.062708 
L 129.316817 -70.741136 
L 128.037706 -70.749553 
L 126.758594 -70.749553 
L 125.479483 -70.446533 
L 124.200371 -70.741136 
L 122.92126 -69.992003 
L 121.642148 -70.724301 
L 120.363037 -69.899414 
L 119.083925 -70.278189 
L 117.804813 -69.660926 
L 116.525702 -69.352365 
L 115.24659 -68.916143 
L 113.967479 -66.170587 
L 112.688367 -64.279588 
L 111.409256 -62.573629 
L 110.130144 -61.647805 
L 108.851033 -60.850975 
L 107.571921 -60.783637 
L 106.29281 -60.881768 
L 105.013698 -60.864934 
L 103.734587 -60.870545 
L 102.455475 -60.856586 
L 101.176364 -60.797596 
L 99.897252 -60.850905 
L 98.61814 -60.856516 
L 97.339029 -60.561914 
L 96.059917 -60.573137 
L 94.780806 -60.710618 
L 93.501694 -60.710618 
L 92.222583 -60.497382 
L 90.943471 -60.848099 
L 89.66436 -60.716229 
L 88.385248 -60.848099 
L 87.106137 -60.848099 
L 85.827025 -60.581554 
L 84.547914 -60.848099 
L 83.268802 -60.848099 
L 81.989691 -60.657379 
L 80.710579 -60.665866 
L 79.431467 -60.2617 
L 78.152356 -60.034645 
L 76.873244 -58.979547 
L 75.594133 -58.744005 
L 74.315021 -57.399916 
L 73.03591 -56.605891 
z
" style="stroke: #a9678f; stroke-opacity: 0.2"/>
    </defs>
    <g clip-path="url(#p75ef2b7472)">
     <use xlink:href="#m7c1133015d" x="0" y="362.097812" style="fill: #a9678f; fill-opacity: 0.2; stroke: #a9678f; stroke-opacity: 0.2"/>
    </g>
   </g>
   <g id="PolyCollection_4">
    <defs>
     <path id="m168760555d" d="M 73.03591 -56.65913 
L 73.03591 -56.451506 
L 74.315021 -57.312868 
L 75.594133 -58.948263 
L 76.873244 -64.831407 
L 78.152356 -68.136989 
L 79.431467 -66.567739 
L 80.710579 -67.750218 
L 81.989691 -70.962719 
L 83.268802 -69.722652 
L 84.547914 -70.996458 
L 85.827025 -70.401571 
L 87.106137 -69.270788 
L 88.385248 -68.072667 
L 89.66436 -69.456107 
L 90.943471 -69.629923 
L 92.222583 -68.193314 
L 93.501694 -71.299478 
L 94.780806 -71.822608 
L 96.059917 -72.026164 
L 97.339029 -73.978749 
L 98.61814 -76.532112 
L 99.897252 -81.789997 
L 101.176364 -85.291209 
L 102.455475 -86.051634 
L 103.734587 -84.360124 
L 105.013698 -84.288297 
L 106.29281 -81.721677 
L 107.571921 -89.805643 
L 108.851033 -90.452506 
L 110.130144 -88.474601 
L 111.409256 -90.827423 
L 112.688367 -88.490102 
L 113.967479 -90.024982 
L 115.24659 -90.041185 
L 116.525702 -90.033399 
L 117.804813 -87.810272 
L 119.083925 -91.218473 
L 120.363037 -91.324039 
L 121.642148 -93.560213 
L 122.92126 -91.092215 
L 124.200371 -96.016778 
L 125.479483 -93.980303 
L 126.758594 -103.997493 
L 128.037706 -111.413132 
L 129.316817 -105.986622 
L 130.595929 -114.375081 
L 131.87504 -119.383536 
L 133.154152 -118.812919 
L 134.433263 -116.906419 
L 135.712375 -122.354954 
L 136.991487 -117.741898 
L 138.270598 -121.988104 
L 139.54971 -118.007181 
L 140.828821 -122.918908 
L 142.107933 -115.24002 
L 143.387044 -126.221333 
L 144.666156 -118.058877 
L 145.945267 -112.742071 
L 147.224379 -118.130002 
L 148.50349 -118.227011 
L 149.782602 -119.992803 
L 151.061713 -126.437866 
L 152.340825 -126.213197 
L 153.619936 -118.253946 
L 154.899048 -126.193486 
L 156.17816 -115.295785 
L 157.457271 -113.994342 
L 158.736383 -116.725659 
L 160.015494 -118.033485 
L 161.294606 -125.307364 
L 162.573717 -124.72868 
L 163.852829 -125.567877 
L 165.13194 -114.064556 
L 166.411052 -124.240341 
L 167.690163 -118.890989 
L 168.969275 -128.67376 
L 170.248386 -123.79472 
L 171.527498 -124.800226 
L 172.806609 -128.511237 
L 174.085721 -125.382137 
L 175.364833 -135.609547 
L 176.643944 -120.760032 
L 177.923056 -129.799142 
L 179.202167 -124.461503 
L 180.481279 -123.521861 
L 181.76039 -124.523791 
L 183.039502 -113.881692 
L 184.318613 -135.480694 
L 185.597725 -123.768275 
L 186.876836 -124.75309 
L 188.155948 -128.984987 
L 189.435059 -127.972465 
L 190.714171 -116.216418 
L 191.993283 -125.227821 
L 193.272394 -128.177144 
L 194.551506 -124.364214 
L 195.830617 -134.902712 
L 197.109729 -124.419628 
L 198.38884 -134.80437 
L 199.667952 -114.31581 
L 200.947063 -135.242276 
L 202.226175 -124.321708 
L 203.505286 -119.696797 
L 204.784398 -122.352289 
L 206.063509 -123.620623 
L 207.342621 -121.645383 
L 208.621732 -115.795066 
L 209.900844 -122.462064 
L 211.179956 -125.800753 
L 212.459067 -122.295543 
L 213.738179 -121.024683 
L 215.01729 -122.243286 
L 216.296402 -125.211197 
L 217.575513 -109.34916 
L 218.854625 -134.563217 
L 220.133736 -125.262191 
L 221.412848 -122.94437 
L 222.691959 -120.705039 
L 223.971071 -127.234135 
L 225.250182 -116.410645 
L 226.529294 -129.585695 
L 227.808406 -115.630018 
L 229.087517 -118.280881 
L 230.366629 -121.011426 
L 231.64574 -120.46073 
L 232.924852 -118.349972 
L 234.203963 -115.812391 
L 235.483075 -117.655341 
L 236.762186 -115.295925 
L 238.041298 -126.407003 
L 239.320409 -112.773355 
L 240.599521 -133.841791 
L 241.878632 -123.404792 
L 243.157744 -124.877805 
L 244.436855 -135.242136 
L 245.715967 -124.662815 
L 246.995079 -123.983897 
L 248.27419 -128.148596 
L 249.553302 -125.273484 
L 250.832413 -129.792829 
L 252.111525 -117.668949 
L 253.390636 -121.631495 
L 254.669748 -120.570925 
L 255.948859 -128.26307 
L 257.227971 -124.150628 
L 258.507082 -123.916699 
L 259.786194 -128.356852 
L 261.065305 -120.999081 
L 262.344417 -135.887456 
L 263.623528 -119.398126 
L 264.90264 -125.603159 
L 266.181752 -125.995892 
L 267.460863 -124.169917 
L 268.739975 -123.070278 
L 270.019086 -123.666147 
L 271.298198 -125.343558 
L 272.577309 -130.239292 
L 273.856421 -131.613754 
L 275.135532 -126.293792 
L 276.414644 -117.242126 
L 277.693755 -121.840662 
L 278.972867 -114.955308 
L 280.251978 -122.419206 
L 281.53109 -136.54968 
L 282.810202 -130.143967 
L 284.089313 -127.862901 
L 285.368425 -136.933997 
L 286.647536 -120.468305 
L 287.926648 -122.340014 
L 289.205759 -137.500686 
L 290.484871 -130.469433 
L 291.763982 -130.337704 
L 293.043094 -115.842974 
L 294.322205 -130.459683 
L 295.601317 -122.896041 
L 296.880428 -126.229821 
L 298.15954 -125.649313 
L 299.438651 -124.974884 
L 300.717763 -125.331493 
L 301.996875 -117.413346 
L 303.275986 -120.925991 
L 304.555098 -123.231467 
L 305.834209 -110.212627 
L 307.113321 -126.771749 
L 308.392432 -123.492822 
L 309.671544 -130.070317 
L 310.950655 -126.458979 
L 312.229767 -130.009151 
L 313.508878 -137.357523 
L 314.78799 -131.470731 
L 316.067101 -131.114753 
L 317.346213 -130.088063 
L 318.625324 -121.826002 
L 319.904436 -117.627214 
L 321.183548 -129.835266 
L 322.462659 -129.954931 
L 323.741771 -125.548236 
L 325.020882 -122.301786 
L 326.299994 -125.584711 
L 327.579105 -122.399776 
L 327.579105 -138.182901 
L 327.579105 -138.182901 
L 326.299994 -138.182901 
L 325.020882 -137.829939 
L 323.741771 -138.112547 
L 322.462659 -138.202612 
L 321.183548 -138.098869 
L 319.904436 -135.469822 
L 318.625324 -137.663769 
L 317.346213 -138.241892 
L 316.067101 -138.356857 
L 314.78799 -138.429947 
L 313.508878 -138.698947 
L 312.229767 -138.460529 
L 310.950655 -138.376708 
L 309.671544 -138.480169 
L 308.392432 -138.008805 
L 307.113321 -138.326415 
L 305.834209 -131.252936 
L 304.555098 -137.503772 
L 303.275986 -137.85491 
L 301.996875 -135.613055 
L 300.717763 -138.119071 
L 299.438651 -137.851614 
L 298.15954 -137.790168 
L 296.880428 -138.031532 
L 295.601317 -138.053978 
L 294.322205 -138.438224 
L 293.043094 -135.528532 
L 291.763982 -138.424055 
L 290.484871 -138.340584 
L 289.205759 -138.957285 
L 287.926648 -137.896505 
L 286.647536 -137.596642 
L 285.368425 -138.219306 
L 284.089313 -137.411183 
L 282.810202 -137.702909 
L 281.53109 -137.748152 
L 280.251978 -137.2878 
L 278.972867 -132.753936 
L 277.693755 -137.465193 
L 276.414644 -135.464701 
L 275.135532 -138.096064 
L 273.856421 -138.648514 
L 272.577309 -138.38758 
L 271.298198 -137.91355 
L 270.019086 -137.72269 
L 268.739975 -137.569567 
L 267.460863 -137.315717 
L 266.181752 -137.461756 
L 264.90264 -137.414129 
L 263.623528 -134.837408 
L 262.344417 -137.478731 
L 261.065305 -136.321504 
L 259.786194 -136.667662 
L 258.507082 -136.347106 
L 257.227971 -136.656369 
L 255.948859 -136.594923 
L 254.669748 -135.447656 
L 253.390636 -136.085471 
L 252.111525 -134.019956 
L 250.832413 -136.608741 
L 249.553302 -136.328308 
L 248.27419 -136.053275 
L 246.995079 -136.230528 
L 245.715967 -136.215938 
L 244.436855 -136.76923 
L 243.157744 -135.78659 
L 241.878632 -135.677587 
L 240.599521 -135.158174 
L 239.320409 -131.82208 
L 238.041298 -134.571985 
L 236.762186 -132.594149 
L 235.483075 -133.290393 
L 234.203963 -132.560691 
L 232.924852 -133.619016 
L 231.64574 -135.043279 
L 230.366629 -135.002245 
L 229.087517 -135.02925 
L 227.808406 -132.518394 
L 226.529294 -135.80651 
L 225.250182 -133.615438 
L 223.971071 -135.814927 
L 222.691959 -135.449971 
L 221.412848 -135.660822 
L 220.133736 -135.626662 
L 218.854625 -135.974644 
L 217.575513 -130.798406 
L 216.296402 -135.29285 
L 215.01729 -135.020693 
L 213.738179 -135.173255 
L 212.459067 -135.388385 
L 211.179956 -135.826221 
L 209.900844 -134.544278 
L 208.621732 -132.209763 
L 207.342621 -135.61579 
L 206.063509 -135.514643 
L 204.784398 -135.854559 
L 203.505286 -134.485288 
L 202.226175 -135.800688 
L 200.947063 -135.994284 
L 199.667952 -133.175288 
L 198.38884 -135.668819 
L 197.109729 -135.44457 
L 195.830617 -135.834287 
L 194.551506 -135.876443 
L 193.272394 -136.216008 
L 191.993283 -136.064498 
L 190.714171 -133.534212 
L 189.435059 -135.887666 
L 188.155948 -136.030829 
L 186.876836 -135.758532 
L 185.597725 -136.067234 
L 184.318613 -136.41248 
L 183.039502 -131.878265 
L 181.76039 -135.952268 
L 180.481279 -136.162909 
L 179.202167 -136.244135 
L 177.923056 -136.406658 
L 176.643944 -135.9186 
L 175.364833 -136.468384 
L 174.085721 -136.095361 
L 172.806609 -136.162629 
L 171.527498 -136.061622 
L 170.248386 -136.485499 
L 168.969275 -136.345212 
L 167.690163 -134.715078 
L 166.411052 -136.134571 
L 165.13194 -133.312278 
L 163.852829 -135.896575 
L 162.573717 -136.182409 
L 161.294606 -136.10939 
L 160.015494 -134.08077 
L 158.736383 -133.940553 
L 157.457271 -133.397362 
L 156.17816 -133.441062 
L 154.899048 -135.95774 
L 153.619936 -134.407008 
L 152.340825 -135.688389 
L 151.061713 -135.711115 
L 149.782602 -135.319153 
L 148.50349 -134.886368 
L 147.224379 -133.564725 
L 145.945267 -130.723493 
L 144.666156 -132.603829 
L 143.387044 -135.003788 
L 142.107933 -132.352435 
L 140.828821 -134.89731 
L 139.54971 -134.914425 
L 138.270598 -133.871111 
L 136.991487 -132.563076 
L 135.712375 -134.852278 
L 134.433263 -132.591133 
L 133.154152 -133.840669 
L 131.87504 -132.837758 
L 130.595929 -130.162555 
L 129.316817 -123.068454 
L 128.037706 -125.375543 
L 126.758594 -119.741128 
L 125.479483 -108.393035 
L 124.200371 -104.410358 
L 122.92126 -99.676795 
L 121.642148 -97.558392 
L 120.363037 -97.634147 
L 119.083925 -97.524933 
L 117.804813 -95.687805 
L 116.525702 -96.815713 
L 115.24659 -96.789619 
L 113.967479 -96.84854 
L 112.688367 -96.486599 
L 111.409256 -96.831705 
L 110.130144 -95.95414 
L 108.851033 -97.137531 
L 107.571921 -97.137531 
L 106.29281 -92.599388 
L 105.013698 -93.816798 
L 103.734587 -93.732135 
L 102.455475 -94.730557 
L 101.176364 -93.212582 
L 99.897252 -91.351535 
L 98.61814 -85.175402 
L 97.339029 -81.490133 
L 96.059917 -78.053383 
L 94.780806 -77.183534 
L 93.501694 -75.917725 
L 92.222583 -72.511768 
L 90.943471 -72.234 
L 89.66436 -71.817347 
L 88.385248 -71.308807 
L 87.106137 -71.072283 
L 85.827025 -71.2125 
L 84.547914 -71.254586 
L 83.268802 -71.226529 
L 81.989691 -71.223723 
L 80.710579 -70.766458 
L 79.431467 -70.197313 
L 78.152356 -70.920703 
L 76.873244 -68.906603 
L 75.594133 -62.851607 
L 74.315021 -58.85897 
L 73.03591 -56.65913 
z
" style="stroke: #6c3f70; stroke-opacity: 0.2"/>
    </defs>
    <g clip-path="url(#p75ef2b7472)">
     <use xlink:href="#m168760555d" x="0" y="362.097812" style="fill: #6c3f70; fill-opacity: 0.2; stroke: #6c3f70; stroke-opacity: 0.2"/>
    </g>
   </g>
   <g id="PolyCollection_5">
    <defs>
     <path id="m9ffbde647e" d="M 73.03591 -56.518843 
L 73.03591 -56.457117 
L 74.315021 -56.586181 
L 75.594133 -56.757331 
L 76.873244 -56.802153 
L 78.152356 -56.889131 
L 79.431467 -57.05474 
L 80.710579 -57.413874 
L 81.989691 -57.363371 
L 83.268802 -57.531645 
L 84.547914 -57.582078 
L 85.827025 -57.54855 
L 87.106137 -57.610206 
L 88.385248 -57.683225 
L 89.66436 -64.68614 
L 90.943471 -78.61902 
L 92.222583 -85.544216 
L 93.501694 -85.544216 
L 94.780806 -85.628388 
L 96.059917 -85.628388 
L 97.339029 -82.174173 
L 98.61814 -81.711576 
L 99.897252 -81.038199 
L 101.176364 -85.401124 
L 102.455475 -82.80862 
L 103.734587 -82.954168 
L 105.013698 -82.802518 
L 106.29281 -84.461131 
L 107.571921 -81.952589 
L 108.851033 -81.851092 
L 110.130144 -80.698705 
L 111.409256 -84.985874 
L 112.688367 -82.825174 
L 113.967479 -83.083583 
L 115.24659 -78.806023 
L 116.525702 -80.726131 
L 117.804813 -84.651851 
L 119.083925 -84.7248 
L 120.363037 -84.68566 
L 121.642148 -82.244667 
L 122.92126 -82.530431 
L 124.200371 -81.716627 
L 125.479483 -83.579918 
L 126.758594 -84.242003 
L 128.037706 -81.775197 
L 129.316817 -82.648272 
L 130.595929 -84.91559 
L 131.87504 -81.753522 
L 133.154152 -82.63747 
L 134.433263 -82.095893 
L 135.712375 -81.913309 
L 136.991487 -79.935684 
L 138.270598 -81.011544 
L 139.54971 -80.979138 
L 140.828821 -82.365314 
L 142.107933 -82.334451 
L 143.387044 -84.593001 
L 144.666156 -84.38257 
L 145.945267 -82.151797 
L 147.224379 -84.483647 
L 148.50349 -84.486453 
L 149.782602 -81.248629 
L 151.061713 -85.729395 
L 152.340825 -81.545617 
L 153.619936 -78.997655 
L 154.899048 -82.457903 
L 156.17816 -82.877922 
L 157.457271 -82.184975 
L 158.736383 -82.569712 
L 160.015494 -82.875958 
L 161.294606 -85.493713 
L 162.573717 -83.035885 
L 163.852829 -82.0651 
L 165.13194 -85.544216 
L 166.411052 -85.555439 
L 167.690163 -82.844534 
L 168.969275 -82.791576 
L 170.248386 -85.423569 
L 171.527498 -85.266448 
L 172.806609 -82.713155 
L 174.085721 -85.243862 
L 175.364833 -79.090174 
L 176.643944 -82.558769 
L 177.923056 -78.823699 
L 179.202167 -82.566976 
L 180.481279 -82.099961 
L 181.76039 -84.643574 
L 183.039502 -84.660338 
L 184.318613 -80.915869 
L 185.597725 -80.653813 
L 186.876836 -84.525593 
L 188.155948 -81.562451 
L 189.435059 -83.007688 
L 190.714171 -80.036269 
L 191.993283 -85.224292 
L 193.272394 -85.215875 
L 194.551506 -85.086881 
L 195.830617 -82.328488 
L 197.109729 -84.881922 
L 198.38884 -85.148537 
L 199.667952 -85.207457 
L 200.947063 -85.285878 
L 202.226175 -85.342133 
L 203.505286 -85.288894 
L 204.784398 -85.263502 
L 206.063509 -85.426305 
L 207.342621 -82.744088 
L 208.621732 -83.498482 
L 209.900844 -79.629157 
L 211.179956 -85.367455 
L 212.459067 -80.552806 
L 213.738179 -85.420764 
L 215.01729 -76.997303 
L 216.296402 -78.500408 
L 217.575513 -85.532993 
L 218.854625 -82.974861 
L 220.133736 -81.127983 
L 221.412848 -85.420764 
L 222.691959 -85.543795 
L 223.971071 -82.797327 
L 225.250182 -82.633963 
L 226.529294 -81.046195 
L 227.808406 -82.350443 
L 229.087517 -80.728235 
L 230.366629 -82.470669 
L 231.64574 -79.907346 
L 232.924852 -82.261221 
L 234.203963 -80.877851 
L 235.483075 -81.485855 
L 236.762186 -81.612113 
L 238.041298 -81.877045 
L 239.320409 -85.142855 
L 240.599521 -81.471896 
L 241.878632 -82.309059 
L 243.157744 -79.77267 
L 244.436855 -81.442155 
L 245.715967 -83.762432 
L 246.995079 -83.481717 
L 248.27419 -83.156322 
L 249.553302 -82.457833 
L 250.832413 -82.014316 
L 252.111525 -85.599489 
L 253.390636 -88.627654 
L 254.669748 -87.024875 
L 255.948859 -88.688117 
L 257.227971 -87.68724 
L 258.507082 -90.813324 
L 259.786194 -88.806379 
L 261.065305 -90.866704 
L 262.344417 -90.694852 
L 263.623528 -90.907667 
L 264.90264 -90.826371 
L 266.181752 -88.064822 
L 267.460863 -89.900547 
L 268.739975 -93.298718 
L 270.019086 -91.377138 
L 271.298198 -92.364197 
L 272.577309 -94.230224 
L 273.856421 -94.432798 
L 275.135532 -96.169551 
L 276.414644 -92.670794 
L 277.693755 -90.198938 
L 278.972867 -92.252108 
L 280.251978 -95.956034 
L 281.53109 -95.989422 
L 282.810202 -95.989913 
L 284.089313 -95.840999 
L 285.368425 -92.383907 
L 286.647536 -94.811363 
L 287.926648 -96.725087 
L 289.205759 -91.128058 
L 290.484871 -93.355044 
L 291.763982 -92.160149 
L 293.043094 -91.205988 
L 294.322205 -92.939794 
L 295.601317 -93.065702 
L 296.880428 -93.301033 
L 298.15954 -93.243025 
L 299.438651 -93.584062 
L 300.717763 -97.255091 
L 301.996875 -94.905846 
L 303.275986 -89.552846 
L 304.555098 -94.485686 
L 305.834209 -89.867931 
L 307.113321 -97.395308 
L 308.392432 -90.782531 
L 309.671544 -95.975464 
L 310.950655 -94.034033 
L 312.229767 -97.123502 
L 313.508878 -100.248535 
L 314.78799 -96.890065 
L 316.067101 -97.130657 
L 317.346213 -97.08822 
L 318.625324 -95.728138 
L 319.904436 -93.187611 
L 321.183548 -102.569442 
L 322.462659 -98.374371 
L 323.741771 -96.418981 
L 325.020882 -102.488006 
L 326.299994 -95.123992 
L 327.579105 -94.718633 
L 327.579105 -102.059429 
L 327.579105 -102.059429 
L 326.299994 -102.586347 
L 325.020882 -102.995985 
L 323.741771 -102.948217 
L 322.462659 -103.077351 
L 321.183548 -103.082892 
L 319.904436 -102.30921 
L 318.625324 -102.303037 
L 317.346213 -102.527567 
L 316.067101 -101.865412 
L 314.78799 -101.80067 
L 313.508878 -102.269579 
L 312.229767 -101.770438 
L 310.950655 -101.542892 
L 309.671544 -101.828797 
L 308.392432 -99.854118 
L 307.113321 -100.159382 
L 305.834209 -98.038384 
L 304.555098 -98.8773 
L 303.275986 -97.452545 
L 301.996875 -100.089449 
L 300.717763 -100.01643 
L 299.438651 -98.860535 
L 298.15954 -98.30535 
L 296.880428 -98.153209 
L 295.601317 -98.501681 
L 294.322205 -98.032983 
L 293.043094 -98.333407 
L 291.763982 -99.119014 
L 290.484871 -98.723054 
L 289.205759 -98.018603 
L 287.926648 -99.362622 
L 286.647536 -98.220616 
L 285.368425 -97.51371 
L 284.089313 -97.423997 
L 282.810202 -97.785657 
L 281.53109 -97.81652 
L 280.251978 -97.769103 
L 278.972867 -97.244149 
L 277.693755 -96.952352 
L 276.414644 -97.303981 
L 275.135532 -97.973641 
L 273.856421 -97.101056 
L 272.577309 -96.534297 
L 271.298198 -96.251268 
L 270.019086 -96.385593 
L 268.739975 -95.931063 
L 267.460863 -95.773942 
L 266.181752 -95.703798 
L 264.90264 -95.661712 
L 263.623528 -95.462925 
L 262.344417 -95.462505 
L 261.065305 -95.479339 
L 259.786194 -94.867828 
L 258.507082 -94.598547 
L 257.227971 -93.007693 
L 255.948859 -93.78818 
L 254.669748 -92.412806 
L 253.390636 -93.027544 
L 252.111525 -91.961012 
L 250.832413 -90.011514 
L 249.553302 -89.203181 
L 248.27419 -88.816129 
L 246.995079 -88.238357 
L 245.715967 -88.282898 
L 244.436855 -87.286721 
L 243.157744 -86.021613 
L 241.878632 -86.989593 
L 240.599521 -86.726134 
L 239.320409 -86.64126 
L 238.041298 -85.519105 
L 236.762186 -85.440825 
L 235.483075 -85.65364 
L 234.203963 -85.600752 
L 232.924852 -85.74665 
L 231.64574 -85.016807 
L 230.366629 -85.678892 
L 229.087517 -85.505357 
L 227.808406 -85.575079 
L 226.529294 -85.659322 
L 225.250182 -85.712841 
L 223.971071 -85.810761 
L 222.691959 -85.813567 
L 221.412848 -85.729395 
L 220.133736 -85.810761 
L 218.854625 -85.827596 
L 217.575513 -85.861265 
L 216.296402 -84.789683 
L 215.01729 -83.866524 
L 213.738179 -85.746229 
L 212.459067 -85.519035 
L 211.179956 -85.678892 
L 209.900844 -84.946664 
L 208.621732 -85.726659 
L 207.342621 -85.729676 
L 206.063509 -85.729395 
L 204.784398 -85.625583 
L 203.505286 -85.625653 
L 202.226175 -85.662338 
L 200.947063 -85.645223 
L 199.667952 -85.583497 
L 198.38884 -85.516229 
L 197.109729 -85.294505 
L 195.830617 -85.27213 
L 194.551506 -85.519035 
L 193.272394 -85.52177 
L 191.993283 -85.563927 
L 190.714171 -85.294856 
L 189.435059 -85.465726 
L 188.155948 -85.434863 
L 186.876836 -85.378748 
L 185.597725 -85.204792 
L 184.318613 -85.185573 
L 183.039502 -85.519035 
L 181.76039 -85.563927 
L 180.481279 -85.491188 
L 179.202167 -85.485296 
L 177.923056 -84.683065 
L 176.643944 -85.535799 
L 175.364833 -84.787368 
L 174.085721 -85.639611 
L 172.806609 -85.636806 
L 171.527498 -85.684573 
L 170.248386 -85.810832 
L 168.969275 -85.729535 
L 167.690163 -85.726589 
L 166.411052 -85.847236 
L 165.13194 -85.797154 
L 163.852829 -85.746229 
L 162.573717 -85.813567 
L 161.294606 -85.763064 
L 160.015494 -85.757523 
L 158.736383 -85.729395 
L 157.457271 -85.796733 
L 156.17816 -85.813567 
L 154.899048 -85.864071 
L 153.619936 -85.017018 
L 152.340825 -85.591914 
L 151.061713 -85.965077 
L 149.782602 -85.847236 
L 148.50349 -85.847236 
L 147.224379 -85.830752 
L 145.945267 -85.690185 
L 144.666156 -85.740828 
L 143.387044 -85.712561 
L 142.107933 -85.662057 
L 140.828821 -85.645223 
L 139.54971 -85.302993 
L 138.270598 -84.941263 
L 136.991487 -84.641119 
L 135.712375 -85.507742 
L 134.433263 -85.572344 
L 133.154152 -85.606013 
L 131.87504 -85.552633 
L 130.595929 -85.777093 
L 129.316817 -85.757523 
L 128.037706 -85.362194 
L 126.758594 -85.625933 
L 125.479483 -85.269324 
L 124.200371 -85.269324 
L 122.92126 -85.431987 
L 121.642148 -85.527382 
L 120.363037 -85.508022 
L 119.083925 -85.504936 
L 117.804813 -85.488101 
L 116.525702 -85.316951 
L 115.24659 -84.571466 
L 113.967479 -85.454433 
L 112.688367 -85.52177 
L 111.409256 -85.561051 
L 110.130144 -85.476879 
L 108.851033 -85.493713 
L 107.571921 -85.611764 
L 106.29281 -85.611554 
L 105.013698 -85.575079 
L 103.734587 -85.57515 
L 102.455475 -85.561051 
L 101.176364 -85.59472 
L 99.897252 -85.510547 
L 98.61814 -85.527382 
L 97.339029 -85.59472 
L 96.059917 -85.628388 
L 94.780806 -85.628388 
L 93.501694 -85.628388 
L 92.222583 -85.628388 
L 90.943471 -84.708106 
L 89.66436 -73.861398 
L 88.385248 -60.365582 
L 87.106137 -57.75898 
L 85.827025 -57.77862 
L 84.547914 -57.77862 
L 83.268802 -57.753369 
L 81.989691 -57.646821 
L 80.710579 -57.657974 
L 79.431467 -57.340925 
L 78.152356 -57.091284 
L 76.873244 -56.970638 
L 75.594133 -56.880854 
L 74.315021 -56.726468 
L 73.03591 -56.518843 
z
" style="stroke: #2d1e3e; stroke-opacity: 0.2"/>
    </defs>
    <g clip-path="url(#p75ef2b7472)">
     <use xlink:href="#m9ffbde647e" x="0" y="362.097812" style="fill: #2d1e3e; fill-opacity: 0.2; stroke: #2d1e3e; stroke-opacity: 0.2"/>
    </g>
   </g>
   <g id="line2d_13">
    <path d="M 73.03591 305.534077 
L 74.315021 304.352861 
L 75.594133 300.696983 
L 76.873244 295.377301 
L 78.152356 292.773575 
L 79.431467 292.902639 
L 80.710579 293.828533 
L 81.989691 293.214076 
L 83.268802 293.92954 
L 84.547914 292.714654 
L 85.827025 292.276959 
L 87.106137 292.608036 
L 88.385248 294.198891 
L 90.943471 292.347103 
L 92.222583 291.898184 
L 93.501694 287.776553 
L 94.780806 282.62241 
L 96.059917 269.752484 
L 98.61814 256.81522 
L 99.897252 260.622609 
L 101.176364 255.440408 
L 102.455475 248.442894 
L 103.734587 227.537331 
L 105.013698 157.587445 
L 106.29281 112.204612 
L 107.571921 62.719789 
L 108.851033 62.731012 
L 110.130144 64.27978 
L 111.409256 64.018846 
L 112.688367 56.117884 
L 113.967479 80.912202 
L 115.24659 56.162776 
L 116.525702 56.089827 
L 117.804813 72.705415 
L 119.083925 47.846565 
L 120.363037 52.944593 
L 121.642148 63.816833 
L 122.92126 56.098244 
L 124.200371 64.321866 
L 125.479483 86.024259 
L 126.758594 64.47057 
L 128.037706 72.795198 
L 129.316817 56.15997 
L 130.595929 64.038486 
L 131.87504 64.041292 
L 133.154152 77.719271 
L 134.433263 72.730666 
L 135.712375 47.408869 
L 136.991487 56.162776 
L 138.270598 62.153029 
L 139.54971 39.311506 
L 140.828821 55.834504 
L 142.107933 64.192802 
L 143.387044 62.512164 
L 144.666156 72.312611 
L 145.945267 47.627717 
L 147.224379 55.680189 
L 148.50349 71.501753 
L 149.782602 46.971174 
L 151.061713 63.477338 
L 152.340825 54.975948 
L 153.619936 55.262134 
L 154.899048 62.924608 
L 156.17816 63.050866 
L 157.457271 46.752326 
L 158.736383 37.99842 
L 160.015494 62.273676 
L 161.294606 63.059283 
L 162.573717 54.726237 
L 163.852829 38.654963 
L 165.13194 71.9647 
L 166.411052 80.126595 
L 167.690163 60.997065 
L 168.969275 39.530353 
L 170.248386 70.643196 
L 171.527498 56.075798 
L 172.806609 46.185567 
L 174.085721 64.316254 
L 175.364833 70.797512 
L 176.643944 47.846565 
L 177.923056 81.11141 
L 179.202167 72.682969 
L 180.481279 62.792738 
L 181.76039 62.74504 
L 183.039502 62.53461 
L 184.318613 64.136687 
L 185.597725 47.846565 
L 186.876836 47.846565 
L 188.155948 52.880061 
L 189.435059 56.15997 
L 190.714171 56.148747 
L 191.993283 39.530353 
L 193.272394 64.478987 
L 194.551506 47.846565 
L 195.830617 63.968343 
L 197.109729 55.354723 
L 198.38884 80.684937 
L 199.667952 54.501778 
L 200.947063 64.175967 
L 202.226175 62.792738 
L 203.505286 47.846565 
L 204.784398 56.030906 
L 206.063509 47.846565 
L 207.342621 84.638224 
L 208.621732 93.347239 
L 209.900844 47.846565 
L 211.179956 77.390999 
L 212.459067 56.098244 
L 213.738179 64.476181 
L 215.01729 81.032849 
L 216.296402 56.016877 
L 217.575513 46.185567 
L 218.854625 47.846565 
L 220.133736 56.084215 
L 221.412848 56.047741 
L 222.691959 64.411649 
L 223.971071 69.476009 
L 225.250182 64.408844 
L 226.529294 87.578639 
L 227.808406 87.185835 
L 229.087517 72.663329 
L 230.366629 39.530353 
L 231.64574 64.478987 
L 232.924852 47.75117 
L 234.203963 39.530353 
L 235.483075 72.70822 
L 236.762186 72.736278 
L 238.041298 47.846565 
L 239.320409 64.077766 
L 240.599521 56.084215 
L 241.878632 71.883333 
L 243.157744 39.530353 
L 244.436855 61.033539 
L 245.715967 70.110106 
L 246.995079 64.445318 
L 248.27419 55.567959 
L 249.553302 64.436901 
L 250.832413 64.327477 
L 252.111525 54.4148 
L 253.390636 54.686957 
L 254.669748 56.087021 
L 255.948859 64.083378 
L 257.227971 55.812058 
L 258.507082 63.959925 
L 259.786194 63.454892 
L 261.065305 60.632319 
L 262.344417 45.787152 
L 263.623528 67.520409 
L 264.90264 79.307319 
L 266.181752 55.04048 
L 267.460863 54.411995 
L 268.739975 54.591562 
L 270.019086 70.710534 
L 271.298198 53.373871 
L 272.577309 62.172669 
L 273.856421 44.575073 
L 275.135532 53.631999 
L 276.414644 79.066026 
L 278.972867 45.848878 
L 281.53109 79.801129 
L 284.089313 63.569928 
L 285.368425 63.109786 
L 286.647536 55.026452 
L 287.926648 104.368182 
L 289.205759 55.478176 
L 290.484871 72.461315 
L 291.763982 55.733498 
L 293.043094 71.050029 
L 294.322205 52.840781 
L 295.601317 54.501778 
L 296.880428 64.229276 
L 298.15954 64.316254 
L 299.438651 47.821313 
L 301.996875 64.476181 
L 303.275986 63.990788 
L 304.555098 56.151553 
L 305.834209 64.389203 
L 307.113321 39.530353 
L 308.392432 64.383592 
L 309.671544 72.307 
L 310.950655 47.846565 
L 313.508878 47.846565 
L 314.78799 56.15997 
L 316.067101 47.737141 
L 318.625324 80.572708 
L 319.904436 47.408869 
L 321.183548 61.420731 
L 322.462659 63.550287 
L 323.741771 71.622399 
L 325.020882 54.773935 
L 326.299994 62.630005 
L 327.579105 62.509358 
L 327.579105 62.509358 
" clip-path="url(#p75ef2b7472)" style="fill: none; stroke: #edd1cb; stroke-width: 1.5; stroke-linecap: round"/>
   </g>
   <g id="line2d_14">
    <path d="M 73.03591 305.607026 
L 74.315021 305.399402 
L 76.873244 305.295589 
L 78.152356 305.382567 
L 83.268802 304.341638 
L 103.734587 304.338832 
L 105.013698 304.204157 
L 106.29281 304.265883 
L 108.851033 304.077899 
L 111.409256 304.094733 
L 113.967479 303.853439 
L 115.24659 303.878691 
L 116.525702 303.707541 
L 117.804813 303.766462 
L 120.363037 303.671066 
L 121.642148 303.665455 
L 122.92126 303.777684 
L 124.200371 303.634592 
L 129.316817 303.687901 
L 130.595929 303.738404 
L 134.433263 303.533585 
L 170.248386 303.494305 
L 171.527498 303.665455 
L 172.806609 303.494305 
L 190.714171 303.561643 
L 191.993283 303.62898 
L 193.272394 303.494305 
L 223.971071 303.561643 
L 225.250182 303.62898 
L 226.529294 303.494305 
L 234.203963 303.494305 
L 235.483075 303.62898 
L 236.762186 303.494305 
L 238.041298 303.558837 
L 239.320409 303.494305 
L 240.599521 303.561643 
L 243.157744 303.494305 
L 285.368425 303.530779 
L 286.647536 303.62898 
L 287.926648 303.494305 
L 304.555098 303.494305 
L 305.834209 303.62898 
L 307.113321 303.494305 
L 310.950655 303.561643 
L 312.229767 303.494305 
L 313.508878 303.561643 
L 316.067101 303.494305 
L 318.625324 303.696318 
L 321.183548 303.561643 
L 325.020882 303.626175 
L 326.299994 303.696318 
L 327.579105 303.561643 
L 327.579105 303.561643 
" clip-path="url(#p75ef2b7472)" style="fill: none; stroke: #d499a7; stroke-width: 1.5; stroke-linecap: round"/>
   </g>
   <g id="line2d_15">
    <path d="M 73.03591 305.567746 
L 74.315021 305.006598 
L 75.594133 304.038618 
L 76.873244 303.735598 
L 78.152356 302.728338 
L 79.431467 302.512296 
L 80.710579 301.914674 
L 81.989691 301.911868 
L 83.268802 301.519064 
L 84.547914 301.423669 
L 85.827025 302.046543 
L 87.106137 301.356331 
L 89.66436 301.794027 
L 90.943471 301.457338 
L 92.222583 302.122298 
L 93.501694 301.897839 
L 94.780806 301.866976 
L 96.059917 302.029709 
L 97.339029 302.032515 
L 98.61814 301.367554 
L 101.176364 301.709855 
L 103.734587 301.507841 
L 105.013698 301.555539 
L 106.29281 301.314245 
L 107.571921 301.684603 
L 108.851033 301.577985 
L 110.130144 301.291799 
L 111.409256 300.590365 
L 112.688367 299.358645 
L 113.967479 297.86038 
L 115.24659 294.970469 
L 116.525702 294.285868 
L 117.804813 294.078244 
L 119.083925 293.309471 
L 120.363037 293.825727 
L 121.642148 292.69782 
L 122.92126 293.438535 
L 124.200371 292.0525 
L 125.479483 292.9812 
L 126.758594 292.088975 
L 128.037706 291.429626 
L 129.316817 291.429626 
L 130.595929 293.553571 
L 131.87504 292.874582 
L 133.154152 292.058111 
L 134.433263 292.058111 
L 135.712375 291.356677 
L 136.991487 292.913862 
L 138.270598 292.880193 
L 139.54971 291.76912 
L 140.828821 291.306173 
L 142.107933 293.079401 
L 143.387044 292.571562 
L 144.666156 293.472204 
L 145.945267 292.18437 
L 147.224379 293.671412 
L 148.50349 292.330268 
L 149.782602 292.905445 
L 151.061713 292.67818 
L 152.340825 292.066529 
L 153.619936 292.577173 
L 154.899048 293.261774 
L 156.17816 292.807244 
L 157.457271 291.727034 
L 160.015494 292.588396 
L 161.294606 293.51429 
L 162.573717 291.743869 
L 163.852829 292.167535 
L 165.13194 291.272504 
L 166.411052 292.549116 
L 167.690163 291.679337 
L 168.969275 291.247253 
L 170.248386 291.858904 
L 171.527498 291.193944 
L 172.806609 291.875738 
L 175.364833 289.513306 
L 176.643944 289.77424 
L 177.923056 289.558198 
L 179.202167 287.327635 
L 180.481279 287.409002 
L 181.76039 286.544834 
L 183.039502 285.119518 
L 184.318613 285.512322 
L 185.597725 285.271028 
L 186.876836 284.715492 
L 188.155948 282.706582 
L 189.435059 286.129584 
L 190.714171 285.010094 
L 191.993283 284.38722 
L 193.272394 284.409666 
L 194.551506 281.314936 
L 195.830617 282.552267 
L 197.109729 281.00911 
L 198.38884 283.278953 
L 199.667952 283.012408 
L 200.947063 282.498958 
L 202.226175 284.765995 
L 204.784398 283.149889 
L 206.063509 283.769958 
L 207.342621 284.120675 
L 209.900844 282.4709 
L 211.179956 285.408509 
L 212.459067 284.82211 
L 213.738179 283.236867 
L 215.01729 283.020825 
L 216.296402 283.273342 
L 218.854625 281.718962 
L 220.133736 282.170686 
L 221.412848 281.407525 
L 222.691959 281.631984 
L 223.971071 282.375505 
L 225.250182 284.00564 
L 226.529294 281.679682 
L 227.808406 282.442843 
L 229.087517 281.693711 
L 231.64574 281.67407 
L 232.924852 283.029242 
L 234.203963 283.697008 
L 235.483075 283.747512 
L 236.762186 281.671265 
L 238.041298 282.445649 
L 239.320409 281.556229 
L 240.599521 281.671265 
L 243.157744 283.635282 
L 244.436855 282.787949 
L 245.715967 284.47981 
L 246.995079 283.01802 
L 248.27419 282.187521 
L 249.553302 282.030399 
L 252.111525 283.200393 
L 253.390636 284.743549 
L 254.669748 282.313779 
L 255.948859 283.553916 
L 257.227971 282.383922 
L 258.507082 281.65443 
L 259.786194 282.880538 
L 261.065305 281.67407 
L 262.344417 283.135861 
L 263.623528 281.876084 
L 264.90264 283.054494 
L 266.181752 281.651625 
L 267.460863 282.445649 
L 268.739975 281.306519 
L 270.019086 282.330613 
L 271.298198 280.924938 
L 272.577309 282.473706 
L 273.856421 281.724574 
L 275.135532 281.609538 
L 276.414644 282.43162 
L 277.693755 282.473706 
L 278.972867 281.685293 
L 280.251978 282.566296 
L 281.53109 284.230099 
L 282.810202 282.75428 
L 284.089313 282.052845 
L 286.647536 283.66334 
L 287.926648 283.638088 
L 289.205759 283.046077 
L 290.484871 283.155501 
L 291.763982 283.054494 
L 293.043094 282.08932 
L 294.322205 282.294139 
L 295.601317 282.796366 
L 296.880428 280.868823 
L 298.15954 282.367088 
L 299.438651 282.369894 
L 300.717763 283.837295 
L 301.996875 282.036011 
L 303.275986 280.868823 
L 304.555098 282.902984 
L 305.834209 282.1286 
L 307.113321 282.103349 
L 308.392432 283.169529 
L 309.671544 282.902984 
L 312.229767 282.033205 
L 313.508878 283.927079 
L 314.78799 282.176298 
L 316.067101 280.936161 
L 317.346213 282.4709 
L 318.625324 282.294139 
L 319.904436 282.45126 
L 321.183548 282.308167 
L 323.741771 282.79356 
L 325.020882 284.019668 
L 326.299994 282.552267 
L 327.579105 282.277304 
L 327.579105 282.277304 
" clip-path="url(#p75ef2b7472)" style="fill: none; stroke: #a9678f; stroke-width: 1.5; stroke-linecap: round"/>
   </g>
   <g id="line2d_16">
    <path d="M 73.03591 305.556523 
L 74.315021 304.162071 
L 75.594133 301.364749 
L 76.873244 295.155648 
L 78.152356 292.400412 
L 79.431467 293.531125 
L 80.710579 292.675374 
L 81.989691 290.97229 
L 83.268802 291.40718 
L 84.547914 290.949844 
L 85.827025 291.174304 
L 88.385248 292.366743 
L 89.66436 291.38754 
L 90.943471 291.031211 
L 92.222583 291.53905 
L 93.501694 288.609858 
L 94.780806 287.650295 
L 96.059917 287.190154 
L 97.339029 284.415278 
L 98.61814 281.056808 
L 99.897252 275.518278 
L 101.176364 272.743402 
L 102.455475 271.646358 
L 103.734587 272.844409 
L 105.013698 272.642396 
L 106.29281 274.68778 
L 107.571921 268.231774 
L 108.851033 267.954005 
L 110.130144 269.572917 
L 111.409256 267.81933 
L 112.688367 269.404573 
L 113.967479 268.234579 
L 116.525702 268.192493 
L 117.804813 269.960109 
L 119.083925 267.440555 
L 120.363037 266.991637 
L 121.642148 265.928262 
L 122.92126 266.868184 
L 124.200371 262.35375 
L 125.479483 260.987355 
L 126.758594 249.694254 
L 128.037706 243.504793 
L 129.316817 247.082111 
L 130.595929 239.486975 
L 131.87504 235.281171 
L 133.154152 235.090381 
L 134.433263 236.748573 
L 135.712375 232.646582 
L 136.991487 236.437136 
L 138.270598 233.505138 
L 139.54971 234.543262 
L 140.828821 232.037737 
L 142.107933 237.626769 
L 143.387044 230.545084 
L 144.666156 235.864765 
L 145.945267 239.711434 
L 147.224379 235.480379 
L 148.50349 234.447867 
L 149.782602 233.64262 
L 151.061713 229.07207 
L 152.340825 230.068108 
L 153.619936 234.683549 
L 154.899048 229.866095 
L 156.17816 237.19188 
L 157.457271 238.131803 
L 158.736383 235.511242 
L 160.015494 234.795779 
L 161.294606 230.441271 
L 162.573717 230.486163 
L 163.852829 230.401991 
L 165.13194 238.185112 
L 166.411052 230.814435 
L 167.690163 234.411392 
L 168.969275 228.460419 
L 170.248386 230.780766 
L 171.527498 230.637673 
L 172.806609 228.645598 
L 174.085721 230.497386 
L 175.364833 226.039066 
L 176.643944 233.55003 
L 177.923056 228.033947 
L 179.202167 230.486163 
L 180.481279 231.125872 
L 181.76039 230.83688 
L 183.039502 237.47526 
L 184.318613 226.140073 
L 185.597725 231.005225 
L 186.876836 230.789183 
L 188.155948 228.533368 
L 189.435059 228.945812 
L 190.714171 236.05275 
L 191.993283 230.449688 
L 193.272394 228.679267 
L 194.551506 230.870549 
L 195.830617 226.723667 
L 197.109729 230.996808 
L 198.38884 226.872371 
L 199.667952 237.991516 
L 200.947063 226.482373 
L 202.226175 230.901412 
L 203.505286 233.917582 
L 204.784398 232.287448 
L 206.063509 231.908673 
L 207.342621 232.441763 
L 208.621732 237.02073 
L 209.900844 232.478238 
L 211.179956 230.199978 
L 212.459067 232.380037 
L 213.738179 233.948445 
L 215.01729 232.640971 
L 216.296402 230.94911 
L 217.575513 241.030131 
L 218.854625 226.79381 
L 220.133736 230.716234 
L 221.412848 231.608459 
L 222.691959 233.482693 
L 223.971071 229.324587 
L 225.250182 236.106059 
L 226.529294 229.027179 
L 227.808406 237.2508 
L 229.087517 234.220602 
L 230.366629 233.412549 
L 231.64574 233.816576 
L 232.924852 235.098798 
L 234.203963 236.919723 
L 235.483075 235.878794 
L 236.762186 237.138571 
L 238.041298 230.528249 
L 239.320409 239.649708 
L 240.599521 227.599057 
L 241.878632 231.490618 
L 243.157744 230.780766 
L 244.436855 226.081152 
L 245.715967 230.685371 
L 246.995079 230.834075 
L 248.27419 228.830777 
L 249.553302 230.340265 
L 250.832413 227.93294 
L 252.111525 235.328869 
L 253.390636 232.702697 
L 254.669748 233.434995 
L 255.948859 228.617541 
L 257.227971 230.564724 
L 258.507082 231.712271 
L 259.786194 228.466031 
L 261.065305 232.511907 
L 262.344417 225.410581 
L 263.623528 233.973697 
L 264.90264 229.403148 
L 266.181752 229.380702 
L 267.460863 230.009187 
L 268.739975 231.642128 
L 270.019086 231.019253 
L 271.298198 229.251638 
L 272.577309 226.650717 
L 273.856421 225.988563 
L 275.135532 228.721353 
L 276.414644 234.473119 
L 277.693755 231.524287 
L 278.972867 237.915761 
L 280.251978 231.93673 
L 281.53109 224.961662 
L 282.810202 227.113664 
L 284.089313 228.27524 
L 285.368425 224.521161 
L 286.647536 231.93673 
L 287.926648 231.600042 
L 289.205759 223.875841 
L 290.484871 226.569351 
L 291.763982 226.580574 
L 293.043094 236.344547 
L 294.322205 226.549711 
L 295.601317 231.092203 
L 296.880428 228.937395 
L 298.15954 229.192717 
L 299.438651 229.599549 
L 300.717763 229.14502 
L 301.996875 234.257077 
L 303.275986 231.431697 
L 304.555098 231.369971 
L 305.834209 240.606465 
L 307.113321 228.496894 
L 308.392432 231.095008 
L 309.671544 226.687192 
L 310.950655 228.533368 
L 312.229767 226.664746 
L 313.508878 224.077855 
L 314.78799 226.218634 
L 316.067101 226.429064 
L 317.346213 226.858342 
L 318.625324 231.490618 
L 319.904436 234.338443 
L 321.183548 226.920068 
L 322.462659 226.791004 
L 325.020882 231.302633 
L 326.299994 229.046819 
L 327.579105 230.727457 
L 327.579105 230.727457 
" clip-path="url(#p75ef2b7472)" style="fill: none; stroke: #6c3f70; stroke-width: 1.5; stroke-linecap: round"/>
   </g>
   <g id="line2d_17">
    <path d="M 73.03591 305.615444 
L 75.594133 305.273143 
L 78.152356 305.110411 
L 79.431467 304.908397 
L 80.710579 304.560486 
L 81.989691 304.57732 
L 84.547914 304.408976 
L 87.106137 304.403364 
L 88.385248 303.497111 
L 89.66436 292.815661 
L 90.943471 280.057965 
L 92.222583 276.503093 
L 96.059917 276.469424 
L 97.339029 277.757258 
L 98.61814 278.287543 
L 99.897252 278.382938 
L 101.176364 276.590071 
L 102.455475 277.487907 
L 103.734587 277.434598 
L 105.013698 277.597331 
L 106.29281 276.893091 
L 107.571921 277.740424 
L 108.851033 278.110782 
L 110.130144 278.742073 
L 111.409256 276.780861 
L 112.688367 277.600137 
L 113.967479 277.485102 
L 115.24659 280.164583 
L 116.525702 278.702793 
L 117.804813 276.9464 
L 120.363037 276.912731 
L 121.642148 277.692726 
L 122.92126 277.80215 
L 124.200371 278.309989 
L 125.479483 277.619777 
L 126.758594 277.111938 
L 128.037706 278.054667 
L 129.316817 277.524382 
L 130.595929 276.668632 
L 131.87504 278.155673 
L 133.154152 277.541216 
L 135.712375 278.155673 
L 136.991487 279.575377 
L 138.270598 278.88236 
L 139.54971 278.685958 
L 140.828821 277.684309 
L 142.107933 277.645029 
L 143.387044 276.800501 
L 144.666156 276.943594 
L 145.945267 277.807762 
L 147.224379 276.856616 
L 148.50349 276.811724 
L 149.782602 278.110782 
L 151.061713 276.250576 
L 152.340825 278.27632 
L 153.619936 279.780196 
L 154.899048 277.428987 
L 156.17816 277.370066 
L 158.736383 277.636612 
L 160.015494 277.350426 
L 161.294606 276.469424 
L 162.573717 277.238197 
L 163.852829 277.34762 
L 165.13194 276.418921 
L 166.411052 276.388058 
L 167.690163 277.204528 
L 168.969275 277.384095 
L 170.248386 276.477841 
L 171.527498 276.618128 
L 172.806609 277.504742 
L 174.085721 276.651797 
L 175.364833 279.931706 
L 176.643944 277.580497 
L 177.923056 279.996238 
L 179.202167 277.642223 
L 180.481279 277.779704 
L 181.76039 276.912731 
L 183.039502 276.9464 
L 184.318613 278.733656 
L 185.597725 278.716821 
L 186.876836 277.072658 
L 188.155948 278.214594 
L 189.435059 277.496325 
L 190.714171 279.300415 
L 191.993283 276.696689 
L 194.551506 276.79489 
L 195.830617 277.872294 
L 197.109729 276.999709 
L 198.38884 276.755609 
L 203.505286 276.629351 
L 204.784398 276.646186 
L 206.063509 276.508704 
L 207.342621 277.40093 
L 208.621732 277.187693 
L 209.900844 279.552932 
L 211.179956 276.576042 
L 212.459067 278.890777 
L 213.738179 276.505899 
L 215.01729 281.441194 
L 216.296402 280.349761 
L 217.575513 276.390863 
L 220.133736 278.189342 
L 221.412848 276.522733 
L 222.691959 276.418921 
L 223.971071 277.417764 
L 225.250182 277.504742 
L 226.529294 278.399773 
L 227.808406 277.689921 
L 229.087517 278.548477 
L 230.366629 277.636612 
L 231.64574 279.381781 
L 232.924852 277.717978 
L 234.203963 278.587757 
L 235.483075 278.197759 
L 236.762186 278.253874 
L 238.041298 278.093947 
L 239.320409 276.312303 
L 240.599521 277.653446 
L 241.878632 277.050212 
L 243.157744 278.831857 
L 245.715967 276.065398 
L 246.995079 276.110289 
L 248.27419 275.902665 
L 249.553302 276.135541 
L 250.832413 275.939139 
L 252.111525 273.161457 
L 253.390636 271.225497 
L 254.669748 272.100888 
L 255.948859 270.608235 
L 257.227971 271.332115 
L 258.507082 269.311983 
L 259.786194 269.918023 
L 261.065305 268.473067 
L 262.344417 268.588102 
L 263.623528 268.537599 
L 264.90264 268.172853 
L 266.181752 269.752484 
L 267.460863 268.790116 
L 268.739975 267.255376 
L 270.019086 267.665014 
L 271.298198 267.376023 
L 272.577309 266.584805 
L 273.856421 266.211641 
L 275.135532 265.123014 
L 276.414644 266.697034 
L 277.693755 267.900696 
L 278.972867 266.812069 
L 280.251978 265.353085 
L 282.810202 265.305387 
L 284.089313 265.543875 
L 285.368425 266.50905 
L 286.647536 265.504595 
L 287.926648 264.1382 
L 289.205759 266.980414 
L 290.484871 265.602796 
L 291.763982 266.301425 
L 293.043094 266.809264 
L 294.322205 266.163944 
L 295.601317 265.919844 
L 296.880428 266.032074 
L 298.15954 265.978765 
L 299.438651 265.479343 
L 300.717763 263.394679 
L 301.996875 264.183092 
L 303.275986 268.088681 
L 304.555098 264.957476 
L 305.834209 267.676237 
L 307.113321 263.316118 
L 308.392432 265.995599 
L 309.671544 262.682021 
L 310.950655 263.809928 
L 313.508878 260.810593 
L 314.78799 262.24152 
L 316.067101 262.165765 
L 317.346213 261.540085 
L 319.904436 263.739785 
L 321.183548 259.261825 
L 322.462659 260.681529 
L 323.741771 261.795408 
L 325.020882 259.365637 
L 326.299994 262.732525 
L 327.579105 263.318924 
L 327.579105 263.318924 
" clip-path="url(#p75ef2b7472)" style="fill: none; stroke: #2d1e3e; stroke-width: 1.5; stroke-linecap: round"/>
   </g>
   <g id="line2d_18"/>
   <g id="line2d_19"/>
   <g id="line2d_20"/>
   <g id="line2d_21"/>
   <g id="line2d_22"/>
   <g id="patch_3">
    <path d="M 60.30875 319.138125 
L 60.30875 22.318125 
" style="fill: none; stroke: #ffffff; stroke-width: 1.25; stroke-linejoin: miter; stroke-linecap: square"/>
   </g>
   <g id="patch_4">
    <path d="M 60.30875 319.138125 
L 340.306265 319.138125 
" style="fill: none; stroke: #ffffff; stroke-width: 1.25; stroke-linejoin: miter; stroke-linecap: square"/>
   </g>
   <g id="text_15">
    <!-- Stamp For Left To Right -->
    <g style="fill: #262626" transform="translate(130.412195 16.318125)scale(0.12 -0.12)">
     <defs>
      <path id="DejaVuSans-53" d="M 3425 4513 
L 3425 3897 
Q 3066 4069 2747 4153 
Q 2428 4238 2131 4238 
Q 1616 4238 1336 4038 
Q 1056 3838 1056 3469 
Q 1056 3159 1242 3001 
Q 1428 2844 1947 2747 
L 2328 2669 
Q 3034 2534 3370 2195 
Q 3706 1856 3706 1288 
Q 3706 609 3251 259 
Q 2797 -91 1919 -91 
Q 1588 -91 1214 -16 
Q 841 59 441 206 
L 441 856 
Q 825 641 1194 531 
Q 1563 422 1919 422 
Q 2459 422 2753 634 
Q 3047 847 3047 1241 
Q 3047 1584 2836 1778 
Q 2625 1972 2144 2069 
L 1759 2144 
Q 1053 2284 737 2584 
Q 422 2884 422 3419 
Q 422 4038 858 4394 
Q 1294 4750 2059 4750 
Q 2388 4750 2728 4690 
Q 3069 4631 3425 4513 
z
" transform="scale(0.015625)"/>
      <path id="DejaVuSans-6d" d="M 3328 2828 
Q 3544 3216 3844 3400 
Q 4144 3584 4550 3584 
Q 5097 3584 5394 3201 
Q 5691 2819 5691 2113 
L 5691 0 
L 5113 0 
L 5113 2094 
Q 5113 2597 4934 2840 
Q 4756 3084 4391 3084 
Q 3944 3084 3684 2787 
Q 3425 2491 3425 1978 
L 3425 0 
L 2847 0 
L 2847 2094 
Q 2847 2600 2669 2842 
Q 2491 3084 2119 3084 
Q 1678 3084 1418 2786 
Q 1159 2488 1159 1978 
L 1159 0 
L 581 0 
L 581 3500 
L 1159 3500 
L 1159 2956 
Q 1356 3278 1631 3431 
Q 1906 3584 2284 3584 
Q 2666 3584 2933 3390 
Q 3200 3197 3328 2828 
z
" transform="scale(0.015625)"/>
      <path id="DejaVuSans-70" d="M 1159 525 
L 1159 -1331 
L 581 -1331 
L 581 3500 
L 1159 3500 
L 1159 2969 
Q 1341 3281 1617 3432 
Q 1894 3584 2278 3584 
Q 2916 3584 3314 3078 
Q 3713 2572 3713 1747 
Q 3713 922 3314 415 
Q 2916 -91 2278 -91 
Q 1894 -91 1617 61 
Q 1341 213 1159 525 
z
M 3116 1747 
Q 3116 2381 2855 2742 
Q 2594 3103 2138 3103 
Q 1681 3103 1420 2742 
Q 1159 2381 1159 1747 
Q 1159 1113 1420 752 
Q 1681 391 2138 391 
Q 2594 391 2855 752 
Q 3116 1113 3116 1747 
z
" transform="scale(0.015625)"/>
      <path id="DejaVuSans-20" transform="scale(0.015625)"/>
      <path id="DejaVuSans-4c" d="M 628 4666 
L 1259 4666 
L 1259 531 
L 3531 531 
L 3531 0 
L 628 0 
L 628 4666 
z
" transform="scale(0.015625)"/>
      <path id="DejaVuSans-66" d="M 2375 4863 
L 2375 4384 
L 1825 4384 
Q 1516 4384 1395 4259 
Q 1275 4134 1275 3809 
L 1275 3500 
L 2222 3500 
L 2222 3053 
L 1275 3053 
L 1275 0 
L 697 0 
L 697 3053 
L 147 3053 
L 147 3500 
L 697 3500 
L 697 3744 
Q 697 4328 969 4595 
Q 1241 4863 1831 4863 
L 2375 4863 
z
" transform="scale(0.015625)"/>
      <path id="DejaVuSans-54" d="M -19 4666 
L 3928 4666 
L 3928 4134 
L 2272 4134 
L 2272 0 
L 1638 0 
L 1638 4134 
L -19 4134 
L -19 4666 
z
" transform="scale(0.015625)"/>
      <path id="DejaVuSans-52" d="M 2841 2188 
Q 3044 2119 3236 1894 
Q 3428 1669 3622 1275 
L 4263 0 
L 3584 0 
L 2988 1197 
Q 2756 1666 2539 1819 
Q 2322 1972 1947 1972 
L 1259 1972 
L 1259 0 
L 628 0 
L 628 4666 
L 2053 4666 
Q 2853 4666 3247 4331 
Q 3641 3997 3641 3322 
Q 3641 2881 3436 2590 
Q 3231 2300 2841 2188 
z
M 1259 4147 
L 1259 2491 
L 2053 2491 
Q 2509 2491 2742 2702 
Q 2975 2913 2975 3322 
Q 2975 3731 2742 3939 
Q 2509 4147 2053 4147 
L 1259 4147 
z
" transform="scale(0.015625)"/>
      <path id="DejaVuSans-67" d="M 2906 1791 
Q 2906 2416 2648 2759 
Q 2391 3103 1925 3103 
Q 1463 3103 1205 2759 
Q 947 2416 947 1791 
Q 947 1169 1205 825 
Q 1463 481 1925 481 
Q 2391 481 2648 825 
Q 2906 1169 2906 1791 
z
M 3481 434 
Q 3481 -459 3084 -895 
Q 2688 -1331 1869 -1331 
Q 1566 -1331 1297 -1286 
Q 1028 -1241 775 -1147 
L 775 -588 
Q 1028 -725 1275 -790 
Q 1522 -856 1778 -856 
Q 2344 -856 2625 -561 
Q 2906 -266 2906 331 
L 2906 616 
Q 2728 306 2450 153 
Q 2172 0 1784 0 
Q 1141 0 747 490 
Q 353 981 353 1791 
Q 353 2603 747 3093 
Q 1141 3584 1784 3584 
Q 2172 3584 2450 3431 
Q 2728 3278 2906 2969 
L 2906 3500 
L 3481 3500 
L 3481 434 
z
" transform="scale(0.015625)"/>
      <path id="DejaVuSans-68" d="M 3513 2113 
L 3513 0 
L 2938 0 
L 2938 2094 
Q 2938 2591 2744 2837 
Q 2550 3084 2163 3084 
Q 1697 3084 1428 2787 
Q 1159 2491 1159 1978 
L 1159 0 
L 581 0 
L 581 4863 
L 1159 4863 
L 1159 2956 
Q 1366 3272 1645 3428 
Q 1925 3584 2291 3584 
Q 2894 3584 3203 3211 
Q 3513 2838 3513 2113 
z
" transform="scale(0.015625)"/>
     </defs>
     <use xlink:href="#DejaVuSans-53"/>
     <use xlink:href="#DejaVuSans-74" x="63.476562"/>
     <use xlink:href="#DejaVuSans-61" x="102.685547"/>
     <use xlink:href="#DejaVuSans-6d" x="163.964844"/>
     <use xlink:href="#DejaVuSans-70" x="261.376953"/>
     <use xlink:href="#DejaVuSans-20" x="324.853516"/>
     <use xlink:href="#DejaVuSans-46" x="356.640625"/>
     <use xlink:href="#DejaVuSans-6f" x="410.535156"/>
     <use xlink:href="#DejaVuSans-72" x="471.716797"/>
     <use xlink:href="#DejaVuSans-20" x="512.830078"/>
     <use xlink:href="#DejaVuSans-4c" x="544.617188"/>
     <use xlink:href="#DejaVuSans-65" x="598.580078"/>
     <use xlink:href="#DejaVuSans-66" x="660.103516"/>
     <use xlink:href="#DejaVuSans-74" x="693.558594"/>
     <use xlink:href="#DejaVuSans-20" x="732.767578"/>
     <use xlink:href="#DejaVuSans-54" x="764.554688"/>
     <use xlink:href="#DejaVuSans-6f" x="808.638672"/>
     <use xlink:href="#DejaVuSans-20" x="869.820312"/>
     <use xlink:href="#DejaVuSans-52" x="901.607422"/>
     <use xlink:href="#DejaVuSans-69" x="971.089844"/>
     <use xlink:href="#DejaVuSans-67" x="998.873047"/>
     <use xlink:href="#DejaVuSans-68" x="1062.349609"/>
     <use xlink:href="#DejaVuSans-74" x="1125.728516"/>
    </g>
   </g>
  </g>
  <g id="legend_1">
   <g id="text_16">
    <!-- Trial -->
    <g style="fill: #262626" transform="translate(351.636215 143.995312)scale(0.12 -0.12)">
     <defs>
      <path id="DejaVuSans-6c" d="M 603 4863 
L 1178 4863 
L 1178 0 
L 603 0 
L 603 4863 
z
" transform="scale(0.015625)"/>
     </defs>
     <use xlink:href="#DejaVuSans-54"/>
     <use xlink:href="#DejaVuSans-72" x="46.333984"/>
     <use xlink:href="#DejaVuSans-69" x="87.447266"/>
     <use xlink:href="#DejaVuSans-61" x="115.230469"/>
     <use xlink:href="#DejaVuSans-6c" x="176.509766"/>
    </g>
   </g>
   <g id="line2d_23">
    <path d="M 344.993715 156.499219 
L 355.993715 156.499219 
L 366.993715 156.499219 
" style="fill: none; stroke: #edd1cb; stroke-width: 1.5; stroke-linecap: round"/>
   </g>
   <g id="text_17">
    <!-- 0 -->
    <g style="fill: #262626" transform="translate(375.793715 160.349219)scale(0.11 -0.11)">
     <use xlink:href="#DejaVuSans-30"/>
    </g>
   </g>
   <g id="line2d_24">
    <path d="M 344.993715 172.645156 
L 355.993715 172.645156 
L 366.993715 172.645156 
" style="fill: none; stroke: #d499a7; stroke-width: 1.5; stroke-linecap: round"/>
   </g>
   <g id="text_18">
    <!-- 1 -->
    <g style="fill: #262626" transform="translate(375.793715 176.495156)scale(0.11 -0.11)">
     <use xlink:href="#DejaVuSans-31"/>
    </g>
   </g>
   <g id="line2d_25">
    <path d="M 344.993715 188.791094 
L 355.993715 188.791094 
L 366.993715 188.791094 
" style="fill: none; stroke: #a9678f; stroke-width: 1.5; stroke-linecap: round"/>
   </g>
   <g id="text_19">
    <!-- 2 -->
    <g style="fill: #262626" transform="translate(375.793715 192.641094)scale(0.11 -0.11)">
     <use xlink:href="#DejaVuSans-32"/>
    </g>
   </g>
   <g id="line2d_26">
    <path d="M 344.993715 204.937031 
L 355.993715 204.937031 
L 366.993715 204.937031 
" style="fill: none; stroke: #6c3f70; stroke-width: 1.5; stroke-linecap: round"/>
   </g>
   <g id="text_20">
    <!-- 3 -->
    <g style="fill: #262626" transform="translate(375.793715 208.787031)scale(0.11 -0.11)">
     <use xlink:href="#DejaVuSans-33"/>
    </g>
   </g>
   <g id="line2d_27">
    <path d="M 344.993715 221.082969 
L 355.993715 221.082969 
L 366.993715 221.082969 
" style="fill: none; stroke: #2d1e3e; stroke-width: 1.5; stroke-linecap: round"/>
   </g>
   <g id="text_21">
    <!-- 4 -->
    <g style="fill: #262626" transform="translate(375.793715 224.932969)scale(0.11 -0.11)">
     <defs>
      <path id="DejaVuSans-34" d="M 2419 4116 
L 825 1625 
L 2419 1625 
L 2419 4116 
z
M 2253 4666 
L 3047 4666 
L 3047 1625 
L 3713 1625 
L 3713 1100 
L 3047 1100 
L 3047 0 
L 2419 0 
L 2419 1100 
L 313 1100 
L 313 1709 
L 2253 4666 
z
" transform="scale(0.015625)"/>
     </defs>
     <use xlink:href="#DejaVuSans-34"/>
    </g>
   </g>
  </g>
 </g>
 <defs>
  <clipPath id="p75ef2b7472">
   <rect x="60.30875" y="22.318125" width="279.997515" height="296.82"/>
  </clipPath>
 </defs>
</svg>
