<?xml version="1.0" encoding="utf-8" standalone="no"?>
<!DOCTYPE svg PUBLIC "-//W3C//DTD SVG 1.1//EN"
  "http://www.w3.org/Graphics/SVG/1.1/DTD/svg11.dtd">
<svg xmlns:xlink="http://www.w3.org/1999/xlink" width="393.52115pt" height="362.097812pt" viewBox="0 0 393.52115 362.097812" xmlns="http://www.w3.org/2000/svg" version="1.1">
 <metadata>
  <rdf:RDF xmlns:dc="http://purl.org/dc/elements/1.1/" xmlns:cc="http://creativecommons.org/ns#" xmlns:rdf="http://www.w3.org/1999/02/22-rdf-syntax-ns#">
   <cc:Work>
    <dc:type rdf:resource="http://purl.org/dc/dcmitype/StillImage"/>
    <dc:date>2022-11-20T08:27:50.353019</dc:date>
    <dc:format>image/svg+xml</dc:format>
    <dc:creator>
     <cc:Agent>
      <dc:title>Matplotlib v3.5.2, https://matplotlib.org/</dc:title>
     </cc:Agent>
    </dc:creator>
   </cc:Work>
  </rdf:RDF>
 </metadata>
 <defs>
  <style type="text/css">*{stroke-linejoin: round; stroke-linecap: butt}</style>
 </defs>
 <g id="figure_1">
  <g id="patch_1">
   <path d="M 0 362.097812 
L 393.52115 362.097812 
L 393.52115 0 
L 0 0 
z
" style="fill: #ffffff"/>
  </g>
  <g id="axes_1">
   <g id="patch_2">
    <path d="M 53.31 319.138125 
L 341.13495 319.138125 
L 341.13495 22.318125 
L 53.31 22.318125 
z
" style="fill: #eaeaf2"/>
   </g>
   <g id="matplotlib.axis_1">
    <g id="xtick_1">
     <g id="line2d_1">
      <path d="M 66.392952 319.138125 
L 66.392952 22.318125 
" clip-path="url(#pb638edc058)" style="fill: none; stroke: #ffffff; stroke-linecap: round"/>
     </g>
     <g id="text_1">
      <!-- 0 -->
      <g style="fill: #262626" transform="translate(62.893577 336.996406)scale(0.11 -0.11)">
       <defs>
        <path id="DejaVuSans-30" d="M 2034 4250 
Q 1547 4250 1301 3770 
Q 1056 3291 1056 2328 
Q 1056 1369 1301 889 
Q 1547 409 2034 409 
Q 2525 409 2770 889 
Q 3016 1369 3016 2328 
Q 3016 3291 2770 3770 
Q 2525 4250 2034 4250 
z
M 2034 4750 
Q 2819 4750 3233 4129 
Q 3647 3509 3647 2328 
Q 3647 1150 3233 529 
Q 2819 -91 2034 -91 
Q 1250 -91 836 529 
Q 422 1150 422 2328 
Q 422 3509 836 4129 
Q 1250 4750 2034 4750 
z
" transform="scale(0.015625)"/>
       </defs>
       <use xlink:href="#DejaVuSans-30"/>
      </g>
     </g>
    </g>
    <g id="xtick_2">
     <g id="line2d_2">
      <path d="M 132.136431 319.138125 
L 132.136431 22.318125 
" clip-path="url(#pb638edc058)" style="fill: none; stroke: #ffffff; stroke-linecap: round"/>
     </g>
     <g id="text_2">
      <!-- 50 -->
      <g style="fill: #262626" transform="translate(125.137681 336.996406)scale(0.11 -0.11)">
       <defs>
        <path id="DejaVuSans-35" d="M 691 4666 
L 3169 4666 
L 3169 4134 
L 1269 4134 
L 1269 2991 
Q 1406 3038 1543 3061 
Q 1681 3084 1819 3084 
Q 2600 3084 3056 2656 
Q 3513 2228 3513 1497 
Q 3513 744 3044 326 
Q 2575 -91 1722 -91 
Q 1428 -91 1123 -41 
Q 819 9 494 109 
L 494 744 
Q 775 591 1075 516 
Q 1375 441 1709 441 
Q 2250 441 2565 725 
Q 2881 1009 2881 1497 
Q 2881 1984 2565 2268 
Q 2250 2553 1709 2553 
Q 1456 2553 1204 2497 
Q 953 2441 691 2322 
L 691 4666 
z
" transform="scale(0.015625)"/>
       </defs>
       <use xlink:href="#DejaVuSans-35"/>
       <use xlink:href="#DejaVuSans-30" x="63.623047"/>
      </g>
     </g>
    </g>
    <g id="xtick_3">
     <g id="line2d_3">
      <path d="M 197.87991 319.138125 
L 197.87991 22.318125 
" clip-path="url(#pb638edc058)" style="fill: none; stroke: #ffffff; stroke-linecap: round"/>
     </g>
     <g id="text_3">
      <!-- 100 -->
      <g style="fill: #262626" transform="translate(187.381785 336.996406)scale(0.11 -0.11)">
       <defs>
        <path id="DejaVuSans-31" d="M 794 531 
L 1825 531 
L 1825 4091 
L 703 3866 
L 703 4441 
L 1819 4666 
L 2450 4666 
L 2450 531 
L 3481 531 
L 3481 0 
L 794 0 
L 794 531 
z
" transform="scale(0.015625)"/>
       </defs>
       <use xlink:href="#DejaVuSans-31"/>
       <use xlink:href="#DejaVuSans-30" x="63.623047"/>
       <use xlink:href="#DejaVuSans-30" x="127.246094"/>
      </g>
     </g>
    </g>
    <g id="xtick_4">
     <g id="line2d_4">
      <path d="M 263.623389 319.138125 
L 263.623389 22.318125 
" clip-path="url(#pb638edc058)" style="fill: none; stroke: #ffffff; stroke-linecap: round"/>
     </g>
     <g id="text_4">
      <!-- 150 -->
      <g style="fill: #262626" transform="translate(253.125264 336.996406)scale(0.11 -0.11)">
       <use xlink:href="#DejaVuSans-31"/>
       <use xlink:href="#DejaVuSans-35" x="63.623047"/>
       <use xlink:href="#DejaVuSans-30" x="127.246094"/>
      </g>
     </g>
    </g>
    <g id="xtick_5">
     <g id="line2d_5">
      <path d="M 329.366867 319.138125 
L 329.366867 22.318125 
" clip-path="url(#pb638edc058)" style="fill: none; stroke: #ffffff; stroke-linecap: round"/>
     </g>
     <g id="text_5">
      <!-- 200 -->
      <g style="fill: #262626" transform="translate(318.868742 336.996406)scale(0.11 -0.11)">
       <defs>
        <path id="DejaVuSans-32" d="M 1228 531 
L 3431 531 
L 3431 0 
L 469 0 
L 469 531 
Q 828 903 1448 1529 
Q 2069 2156 2228 2338 
Q 2531 2678 2651 2914 
Q 2772 3150 2772 3378 
Q 2772 3750 2511 3984 
Q 2250 4219 1831 4219 
Q 1534 4219 1204 4116 
Q 875 4013 500 3803 
L 500 4441 
Q 881 4594 1212 4672 
Q 1544 4750 1819 4750 
Q 2544 4750 2975 4387 
Q 3406 4025 3406 3419 
Q 3406 3131 3298 2873 
Q 3191 2616 2906 2266 
Q 2828 2175 2409 1742 
Q 1991 1309 1228 531 
z
" transform="scale(0.015625)"/>
       </defs>
       <use xlink:href="#DejaVuSans-32"/>
       <use xlink:href="#DejaVuSans-30" x="63.623047"/>
       <use xlink:href="#DejaVuSans-30" x="127.246094"/>
      </g>
     </g>
    </g>
    <g id="text_6">
     <!-- Generation -->
     <g style="fill: #262626" transform="translate(163.750912 352.402187)scale(0.12 -0.12)">
      <defs>
       <path id="DejaVuSans-47" d="M 3809 666 
L 3809 1919 
L 2778 1919 
L 2778 2438 
L 4434 2438 
L 4434 434 
Q 4069 175 3628 42 
Q 3188 -91 2688 -91 
Q 1594 -91 976 548 
Q 359 1188 359 2328 
Q 359 3472 976 4111 
Q 1594 4750 2688 4750 
Q 3144 4750 3555 4637 
Q 3966 4525 4313 4306 
L 4313 3634 
Q 3963 3931 3569 4081 
Q 3175 4231 2741 4231 
Q 1884 4231 1454 3753 
Q 1025 3275 1025 2328 
Q 1025 1384 1454 906 
Q 1884 428 2741 428 
Q 3075 428 3337 486 
Q 3600 544 3809 666 
z
" transform="scale(0.015625)"/>
       <path id="DejaVuSans-65" d="M 3597 1894 
L 3597 1613 
L 953 1613 
Q 991 1019 1311 708 
Q 1631 397 2203 397 
Q 2534 397 2845 478 
Q 3156 559 3463 722 
L 3463 178 
Q 3153 47 2828 -22 
Q 2503 -91 2169 -91 
Q 1331 -91 842 396 
Q 353 884 353 1716 
Q 353 2575 817 3079 
Q 1281 3584 2069 3584 
Q 2775 3584 3186 3129 
Q 3597 2675 3597 1894 
z
M 3022 2063 
Q 3016 2534 2758 2815 
Q 2500 3097 2075 3097 
Q 1594 3097 1305 2825 
Q 1016 2553 972 2059 
L 3022 2063 
z
" transform="scale(0.015625)"/>
       <path id="DejaVuSans-6e" d="M 3513 2113 
L 3513 0 
L 2938 0 
L 2938 2094 
Q 2938 2591 2744 2837 
Q 2550 3084 2163 3084 
Q 1697 3084 1428 2787 
Q 1159 2491 1159 1978 
L 1159 0 
L 581 0 
L 581 3500 
L 1159 3500 
L 1159 2956 
Q 1366 3272 1645 3428 
Q 1925 3584 2291 3584 
Q 2894 3584 3203 3211 
Q 3513 2838 3513 2113 
z
" transform="scale(0.015625)"/>
       <path id="DejaVuSans-72" d="M 2631 2963 
Q 2534 3019 2420 3045 
Q 2306 3072 2169 3072 
Q 1681 3072 1420 2755 
Q 1159 2438 1159 1844 
L 1159 0 
L 581 0 
L 581 3500 
L 1159 3500 
L 1159 2956 
Q 1341 3275 1631 3429 
Q 1922 3584 2338 3584 
Q 2397 3584 2469 3576 
Q 2541 3569 2628 3553 
L 2631 2963 
z
" transform="scale(0.015625)"/>
       <path id="DejaVuSans-61" d="M 2194 1759 
Q 1497 1759 1228 1600 
Q 959 1441 959 1056 
Q 959 750 1161 570 
Q 1363 391 1709 391 
Q 2188 391 2477 730 
Q 2766 1069 2766 1631 
L 2766 1759 
L 2194 1759 
z
M 3341 1997 
L 3341 0 
L 2766 0 
L 2766 531 
Q 2569 213 2275 61 
Q 1981 -91 1556 -91 
Q 1019 -91 701 211 
Q 384 513 384 1019 
Q 384 1609 779 1909 
Q 1175 2209 1959 2209 
L 2766 2209 
L 2766 2266 
Q 2766 2663 2505 2880 
Q 2244 3097 1772 3097 
Q 1472 3097 1187 3025 
Q 903 2953 641 2809 
L 641 3341 
Q 956 3463 1253 3523 
Q 1550 3584 1831 3584 
Q 2591 3584 2966 3190 
Q 3341 2797 3341 1997 
z
" transform="scale(0.015625)"/>
       <path id="DejaVuSans-74" d="M 1172 4494 
L 1172 3500 
L 2356 3500 
L 2356 3053 
L 1172 3053 
L 1172 1153 
Q 1172 725 1289 603 
Q 1406 481 1766 481 
L 2356 481 
L 2356 0 
L 1766 0 
Q 1100 0 847 248 
Q 594 497 594 1153 
L 594 3053 
L 172 3053 
L 172 3500 
L 594 3500 
L 594 4494 
L 1172 4494 
z
" transform="scale(0.015625)"/>
       <path id="DejaVuSans-69" d="M 603 3500 
L 1178 3500 
L 1178 0 
L 603 0 
L 603 3500 
z
M 603 4863 
L 1178 4863 
L 1178 4134 
L 603 4134 
L 603 4863 
z
" transform="scale(0.015625)"/>
       <path id="DejaVuSans-6f" d="M 1959 3097 
Q 1497 3097 1228 2736 
Q 959 2375 959 1747 
Q 959 1119 1226 758 
Q 1494 397 1959 397 
Q 2419 397 2687 759 
Q 2956 1122 2956 1747 
Q 2956 2369 2687 2733 
Q 2419 3097 1959 3097 
z
M 1959 3584 
Q 2709 3584 3137 3096 
Q 3566 2609 3566 1747 
Q 3566 888 3137 398 
Q 2709 -91 1959 -91 
Q 1206 -91 779 398 
Q 353 888 353 1747 
Q 353 2609 779 3096 
Q 1206 3584 1959 3584 
z
" transform="scale(0.015625)"/>
      </defs>
      <use xlink:href="#DejaVuSans-47"/>
      <use xlink:href="#DejaVuSans-65" x="77.490234"/>
      <use xlink:href="#DejaVuSans-6e" x="139.013672"/>
      <use xlink:href="#DejaVuSans-65" x="202.392578"/>
      <use xlink:href="#DejaVuSans-72" x="263.916016"/>
      <use xlink:href="#DejaVuSans-61" x="305.029297"/>
      <use xlink:href="#DejaVuSans-74" x="366.308594"/>
      <use xlink:href="#DejaVuSans-69" x="405.517578"/>
      <use xlink:href="#DejaVuSans-6f" x="433.300781"/>
      <use xlink:href="#DejaVuSans-6e" x="494.482422"/>
     </g>
    </g>
   </g>
   <g id="matplotlib.axis_2">
    <g id="ytick_1">
     <g id="line2d_6">
      <path d="M 53.31 305.988594 
L 341.13495 305.988594 
" clip-path="url(#pb638edc058)" style="fill: none; stroke: #ffffff; stroke-linecap: round"/>
     </g>
     <g id="text_7">
      <!-- 0 -->
      <g style="fill: #262626" transform="translate(36.81125 310.167735)scale(0.11 -0.11)">
       <use xlink:href="#DejaVuSans-30"/>
      </g>
     </g>
    </g>
    <g id="ytick_2">
     <g id="line2d_7">
      <path d="M 53.31 269.477965 
L 341.13495 269.477965 
" clip-path="url(#pb638edc058)" style="fill: none; stroke: #ffffff; stroke-linecap: round"/>
     </g>
     <g id="text_8">
      <!-- 50 -->
      <g style="fill: #262626" transform="translate(29.8125 273.657106)scale(0.11 -0.11)">
       <use xlink:href="#DejaVuSans-35"/>
       <use xlink:href="#DejaVuSans-30" x="63.623047"/>
      </g>
     </g>
    </g>
    <g id="ytick_3">
     <g id="line2d_8">
      <path d="M 53.31 232.967337 
L 341.13495 232.967337 
" clip-path="url(#pb638edc058)" style="fill: none; stroke: #ffffff; stroke-linecap: round"/>
     </g>
     <g id="text_9">
      <!-- 100 -->
      <g style="fill: #262626" transform="translate(22.81375 237.146478)scale(0.11 -0.11)">
       <use xlink:href="#DejaVuSans-31"/>
       <use xlink:href="#DejaVuSans-30" x="63.623047"/>
       <use xlink:href="#DejaVuSans-30" x="127.246094"/>
      </g>
     </g>
    </g>
    <g id="ytick_4">
     <g id="line2d_9">
      <path d="M 53.31 196.456709 
L 341.13495 196.456709 
" clip-path="url(#pb638edc058)" style="fill: none; stroke: #ffffff; stroke-linecap: round"/>
     </g>
     <g id="text_10">
      <!-- 150 -->
      <g style="fill: #262626" transform="translate(22.81375 200.635849)scale(0.11 -0.11)">
       <use xlink:href="#DejaVuSans-31"/>
       <use xlink:href="#DejaVuSans-35" x="63.623047"/>
       <use xlink:href="#DejaVuSans-30" x="127.246094"/>
      </g>
     </g>
    </g>
    <g id="ytick_5">
     <g id="line2d_10">
      <path d="M 53.31 159.94608 
L 341.13495 159.94608 
" clip-path="url(#pb638edc058)" style="fill: none; stroke: #ffffff; stroke-linecap: round"/>
     </g>
     <g id="text_11">
      <!-- 200 -->
      <g style="fill: #262626" transform="translate(22.81375 164.125221)scale(0.11 -0.11)">
       <use xlink:href="#DejaVuSans-32"/>
       <use xlink:href="#DejaVuSans-30" x="63.623047"/>
       <use xlink:href="#DejaVuSans-30" x="127.246094"/>
      </g>
     </g>
    </g>
    <g id="ytick_6">
     <g id="line2d_11">
      <path d="M 53.31 123.435452 
L 341.13495 123.435452 
" clip-path="url(#pb638edc058)" style="fill: none; stroke: #ffffff; stroke-linecap: round"/>
     </g>
     <g id="text_12">
      <!-- 250 -->
      <g style="fill: #262626" transform="translate(22.81375 127.614592)scale(0.11 -0.11)">
       <use xlink:href="#DejaVuSans-32"/>
       <use xlink:href="#DejaVuSans-35" x="63.623047"/>
       <use xlink:href="#DejaVuSans-30" x="127.246094"/>
      </g>
     </g>
    </g>
    <g id="ytick_7">
     <g id="line2d_12">
      <path d="M 53.31 86.924823 
L 341.13495 86.924823 
" clip-path="url(#pb638edc058)" style="fill: none; stroke: #ffffff; stroke-linecap: round"/>
     </g>
     <g id="text_13">
      <!-- 300 -->
      <g style="fill: #262626" transform="translate(22.81375 91.103964)scale(0.11 -0.11)">
       <defs>
        <path id="DejaVuSans-33" d="M 2597 2516 
Q 3050 2419 3304 2112 
Q 3559 1806 3559 1356 
Q 3559 666 3084 287 
Q 2609 -91 1734 -91 
Q 1441 -91 1130 -33 
Q 819 25 488 141 
L 488 750 
Q 750 597 1062 519 
Q 1375 441 1716 441 
Q 2309 441 2620 675 
Q 2931 909 2931 1356 
Q 2931 1769 2642 2001 
Q 2353 2234 1838 2234 
L 1294 2234 
L 1294 2753 
L 1863 2753 
Q 2328 2753 2575 2939 
Q 2822 3125 2822 3475 
Q 2822 3834 2567 4026 
Q 2313 4219 1838 4219 
Q 1578 4219 1281 4162 
Q 984 4106 628 3988 
L 628 4550 
Q 988 4650 1302 4700 
Q 1616 4750 1894 4750 
Q 2613 4750 3031 4423 
Q 3450 4097 3450 3541 
Q 3450 3153 3228 2886 
Q 3006 2619 2597 2516 
z
" transform="scale(0.015625)"/>
       </defs>
       <use xlink:href="#DejaVuSans-33"/>
       <use xlink:href="#DejaVuSans-30" x="63.623047"/>
       <use xlink:href="#DejaVuSans-30" x="127.246094"/>
      </g>
     </g>
    </g>
    <g id="ytick_8">
     <g id="line2d_13">
      <path d="M 53.31 50.414195 
L 341.13495 50.414195 
" clip-path="url(#pb638edc058)" style="fill: none; stroke: #ffffff; stroke-linecap: round"/>
     </g>
     <g id="text_14">
      <!-- 350 -->
      <g style="fill: #262626" transform="translate(22.81375 54.593335)scale(0.11 -0.11)">
       <use xlink:href="#DejaVuSans-33"/>
       <use xlink:href="#DejaVuSans-35" x="63.623047"/>
       <use xlink:href="#DejaVuSans-30" x="127.246094"/>
      </g>
     </g>
    </g>
    <g id="text_15">
     <!-- Fitness -->
     <g style="fill: #262626" transform="translate(16.318125 191.50875)rotate(-90)scale(0.12 -0.12)">
      <defs>
       <path id="DejaVuSans-46" d="M 628 4666 
L 3309 4666 
L 3309 4134 
L 1259 4134 
L 1259 2759 
L 3109 2759 
L 3109 2228 
L 1259 2228 
L 1259 0 
L 628 0 
L 628 4666 
z
" transform="scale(0.015625)"/>
       <path id="DejaVuSans-73" d="M 2834 3397 
L 2834 2853 
Q 2591 2978 2328 3040 
Q 2066 3103 1784 3103 
Q 1356 3103 1142 2972 
Q 928 2841 928 2578 
Q 928 2378 1081 2264 
Q 1234 2150 1697 2047 
L 1894 2003 
Q 2506 1872 2764 1633 
Q 3022 1394 3022 966 
Q 3022 478 2636 193 
Q 2250 -91 1575 -91 
Q 1294 -91 989 -36 
Q 684 19 347 128 
L 347 722 
Q 666 556 975 473 
Q 1284 391 1588 391 
Q 1994 391 2212 530 
Q 2431 669 2431 922 
Q 2431 1156 2273 1281 
Q 2116 1406 1581 1522 
L 1381 1569 
Q 847 1681 609 1914 
Q 372 2147 372 2553 
Q 372 3047 722 3315 
Q 1072 3584 1716 3584 
Q 2034 3584 2315 3537 
Q 2597 3491 2834 3397 
z
" transform="scale(0.015625)"/>
      </defs>
      <use xlink:href="#DejaVuSans-46"/>
      <use xlink:href="#DejaVuSans-69" x="50.269531"/>
      <use xlink:href="#DejaVuSans-74" x="78.052734"/>
      <use xlink:href="#DejaVuSans-6e" x="117.261719"/>
      <use xlink:href="#DejaVuSans-65" x="180.640625"/>
      <use xlink:href="#DejaVuSans-73" x="242.164062"/>
      <use xlink:href="#DejaVuSans-73" x="294.263672"/>
     </g>
    </g>
   </g>
   <g id="PolyCollection_1">
    <defs>
     <path id="m90bba39124" d="M 66.392952 -66.766329 
L 66.392952 -56.838861 
L 67.707822 -78.42577 
L 69.022691 -113.632855 
L 70.337561 -145.651535 
L 71.652431 -150.215363 
L 72.9673 -144.202519 
L 74.28217 -153.039803 
L 75.597039 -162.193702 
L 76.911909 -166.234402 
L 78.226778 -176.343282 
L 79.541648 -169.172366 
L 80.856518 -178.049013 
L 82.171387 -177.188161 
L 83.486257 -192.658969 
L 84.801126 -192.658969 
L 86.115996 -192.658969 
L 87.430865 -185.676311 
L 88.745735 -192.658969 
L 90.060605 -192.658969 
L 91.375474 -192.658969 
L 92.690344 -192.658969 
L 94.005213 -185.060195 
L 95.320083 -192.658969 
L 96.634953 -190.673704 
L 97.949822 -182.184983 
L 99.264692 -174.762486 
L 100.579561 -175.681527 
L 101.894431 -192.658969 
L 103.2093 -190.399874 
L 104.52417 -181.158121 
L 105.83904 -183.554131 
L 107.153909 -185.881684 
L 108.468779 -185.881684 
L 109.783648 -183.622589 
L 111.098518 -176.411739 
L 112.413387 -190.536789 
L 113.728257 -192.658969 
L 115.043127 -192.658969 
L 116.357996 -192.658969 
L 117.672866 -192.658969 
L 118.987735 -192.658969 
L 120.302605 -181.705781 
L 121.617474 -190.536789 
L 122.932344 -192.658969 
L 124.247214 -192.658969 
L 125.562083 -192.658969 
L 126.876953 -192.658969 
L 128.191822 -192.658969 
L 129.506692 -188.962268 
L 130.821561 -192.658969 
L 132.136431 -192.658969 
L 133.451301 -192.658969 
L 134.76617 -192.658969 
L 136.08104 -192.658969 
L 137.395909 -175.59025 
L 138.710779 -192.658969 
L 140.025648 -190.399874 
L 141.340518 -192.658969 
L 142.655388 -192.658969 
L 143.970257 -192.658969 
L 145.285127 -192.658969 
L 146.599996 -192.658969 
L 147.914866 -192.658969 
L 149.229736 -185.060195 
L 150.544605 -185.539397 
L 151.859475 -192.658969 
L 153.174344 -192.658969 
L 154.489214 -192.658969 
L 155.804083 -190.399874 
L 157.118953 -174.106435 
L 158.433823 -192.658969 
L 159.748692 -192.658969 
L 161.063562 -192.658969 
L 162.378431 -192.658969 
L 163.693301 -192.658969 
L 165.00817 -192.658969 
L 166.32304 -192.658969 
L 167.63791 -192.658969 
L 168.952779 -192.658969 
L 170.267649 -192.658969 
L 171.582518 -192.658969 
L 172.897388 -192.658969 
L 174.212257 -192.658969 
L 175.527127 -192.658969 
L 176.841997 -179.85743 
L 178.156866 -192.658969 
L 179.471736 -192.658969 
L 180.786605 -183.691046 
L 182.101475 -185.060195 
L 183.416344 -192.658969 
L 184.731214 -192.658969 
L 186.046084 -183.691046 
L 187.360953 -192.658969 
L 188.675823 -192.658969 
L 189.990692 -192.658969 
L 191.305562 -183.691046 
L 192.620431 -192.658969 
L 193.935301 -192.658969 
L 195.250171 -185.744769 
L 196.56504 -185.744769 
L 197.87991 -185.744769 
L 199.194779 -185.744769 
L 200.509649 -192.658969 
L 201.824519 -192.658969 
L 203.139388 -192.658969 
L 204.454258 -185.676311 
L 205.769127 -185.676311 
L 207.083997 -192.658969 
L 208.398866 -185.265567 
L 209.713736 -183.417216 
L 211.028606 -192.658969 
L 212.343475 -192.658969 
L 213.658345 -192.658969 
L 214.973214 -192.658969 
L 216.288084 -192.658969 
L 217.602953 -192.658969 
L 218.917823 -192.658969 
L 220.232693 -192.658969 
L 221.547562 -192.658969 
L 222.862432 -185.128652 
L 224.177301 -171.482234 
L 225.492171 -169.178071 
L 226.80704 -192.658969 
L 228.12191 -192.658969 
L 229.43678 -192.658969 
L 230.751649 -192.658969 
L 232.066519 -192.658969 
L 233.381388 -192.658969 
L 234.696258 -181.705781 
L 236.011127 -192.658969 
L 237.325997 -192.658969 
L 238.640867 -192.658969 
L 239.955736 -192.658969 
L 241.270606 -192.658969 
L 242.585475 -192.658969 
L 243.900345 -190.399874 
L 245.215214 -192.658969 
L 246.530084 -190.399874 
L 247.844954 -180.793015 
L 249.159823 -183.554131 
L 250.474693 -179.035941 
L 251.789562 -192.658969 
L 253.104432 -179.035941 
L 254.419302 -192.658969 
L 255.734171 -183.691046 
L 257.049041 -183.485674 
L 258.36391 -190.536789 
L 259.67878 -186.657535 
L 260.993649 -188.396924 
L 262.308519 -190.536789 
L 263.623389 -188.985087 
L 264.938258 -190.399874 
L 266.253128 -192.658969 
L 267.567997 -192.658969 
L 268.882867 -192.658969 
L 270.197736 -183.759503 
L 271.512606 -183.759503 
L 272.827476 -182.234614 
L 274.142345 -192.658969 
L 275.457215 -192.658969 
L 276.772084 -192.658969 
L 278.086954 -185.744769 
L 279.401823 -192.658969 
L 280.716693 -192.658969 
L 282.031563 -192.658969 
L 283.346432 -181.363493 
L 284.661302 -192.658969 
L 285.976171 -192.658969 
L 287.291041 -183.280301 
L 288.60591 -183.280301 
L 289.92078 -192.658969 
L 291.23565 -192.658969 
L 292.550519 -192.658969 
L 293.865389 -192.658969 
L 295.180258 -183.554131 
L 296.495128 -192.658969 
L 297.809997 -192.658969 
L 299.124867 -192.658969 
L 300.439737 -192.658969 
L 301.754606 -192.658969 
L 303.069476 -190.399874 
L 304.384345 -189.487108 
L 305.699215 -191.289821 
L 307.014085 -191.289821 
L 308.328954 -183.702456 
L 309.643824 -185.676311 
L 310.958693 -192.658969 
L 312.273563 -192.658969 
L 313.588432 -190.399874 
L 314.903302 -183.554131 
L 316.218172 -192.658969 
L 317.533041 -192.658969 
L 318.847911 -192.658969 
L 320.16278 -183.554131 
L 321.47765 -192.658969 
L 322.792519 -192.658969 
L 324.107389 -192.658969 
L 325.422259 -185.128652 
L 326.737128 -192.658969 
L 328.051998 -192.658969 
L 328.051998 -192.658969 
L 328.051998 -192.658969 
L 326.737128 -192.658969 
L 325.422259 -192.658969 
L 324.107389 -192.658969 
L 322.792519 -192.658969 
L 321.47765 -192.658969 
L 320.16278 -192.658969 
L 318.847911 -192.658969 
L 317.533041 -192.658969 
L 316.218172 -192.658969 
L 314.903302 -192.658969 
L 313.588432 -192.658969 
L 312.273563 -192.658969 
L 310.958693 -192.658969 
L 309.643824 -192.658969 
L 308.328954 -192.658969 
L 307.014085 -192.658969 
L 305.699215 -192.658969 
L 304.384345 -192.658969 
L 303.069476 -192.658969 
L 301.754606 -192.658969 
L 300.439737 -192.658969 
L 299.124867 -192.658969 
L 297.809997 -192.658969 
L 296.495128 -192.658969 
L 295.180258 -192.658969 
L 293.865389 -192.658969 
L 292.550519 -192.658969 
L 291.23565 -192.658969 
L 289.92078 -192.658969 
L 288.60591 -192.658969 
L 287.291041 -192.658969 
L 285.976171 -192.658969 
L 284.661302 -192.658969 
L 283.346432 -192.658969 
L 282.031563 -192.658969 
L 280.716693 -192.658969 
L 279.401823 -192.658969 
L 278.086954 -192.658969 
L 276.772084 -192.658969 
L 275.457215 -192.658969 
L 274.142345 -192.658969 
L 272.827476 -192.658969 
L 271.512606 -192.658969 
L 270.197736 -192.658969 
L 268.882867 -192.658969 
L 267.567997 -192.658969 
L 266.253128 -192.658969 
L 264.938258 -192.658969 
L 263.623389 -192.658969 
L 262.308519 -192.658969 
L 260.993649 -192.658969 
L 259.67878 -192.658969 
L 258.36391 -192.658969 
L 257.049041 -192.658969 
L 255.734171 -192.658969 
L 254.419302 -192.658969 
L 253.104432 -192.658969 
L 251.789562 -192.658969 
L 250.474693 -192.658969 
L 249.159823 -192.658969 
L 247.844954 -192.658969 
L 246.530084 -192.658969 
L 245.215214 -192.658969 
L 243.900345 -192.658969 
L 242.585475 -192.658969 
L 241.270606 -192.658969 
L 239.955736 -192.658969 
L 238.640867 -192.658969 
L 237.325997 -192.658969 
L 236.011127 -192.658969 
L 234.696258 -192.658969 
L 233.381388 -192.658969 
L 232.066519 -192.658969 
L 230.751649 -192.658969 
L 229.43678 -192.658969 
L 228.12191 -192.658969 
L 226.80704 -192.658969 
L 225.492171 -192.658969 
L 224.177301 -190.148863 
L 222.862432 -192.795884 
L 221.547562 -192.658969 
L 220.232693 -192.658969 
L 218.917823 -192.658969 
L 217.602953 -192.658969 
L 216.288084 -192.658969 
L 214.973214 -192.658969 
L 213.658345 -192.658969 
L 212.343475 -192.658969 
L 211.028606 -192.658969 
L 209.713736 -192.658969 
L 208.398866 -192.658969 
L 207.083997 -192.658969 
L 205.769127 -192.658969 
L 204.454258 -192.658969 
L 203.139388 -192.658969 
L 201.824519 -192.658969 
L 200.509649 -192.658969 
L 199.194779 -192.658969 
L 197.87991 -192.658969 
L 196.56504 -192.658969 
L 195.250171 -192.658969 
L 193.935301 -192.658969 
L 192.620431 -192.658969 
L 191.305562 -192.658969 
L 189.990692 -192.658969 
L 188.675823 -192.658969 
L 187.360953 -192.658969 
L 186.046084 -192.658969 
L 184.731214 -192.658969 
L 183.416344 -192.658969 
L 182.101475 -192.658969 
L 180.786605 -192.658969 
L 179.471736 -192.658969 
L 178.156866 -192.658969 
L 176.841997 -192.658969 
L 175.527127 -192.658969 
L 174.212257 -192.658969 
L 172.897388 -192.658969 
L 171.582518 -192.658969 
L 170.267649 -192.658969 
L 168.952779 -192.658969 
L 167.63791 -192.658969 
L 166.32304 -192.658969 
L 165.00817 -192.658969 
L 163.693301 -192.658969 
L 162.378431 -192.658969 
L 161.063562 -192.658969 
L 159.748692 -192.658969 
L 158.433823 -192.658969 
L 157.118953 -192.658969 
L 155.804083 -192.658969 
L 154.489214 -192.658969 
L 153.174344 -192.658969 
L 151.859475 -192.658969 
L 150.544605 -192.658969 
L 149.229736 -192.658969 
L 147.914866 -192.658969 
L 146.599996 -192.658969 
L 145.285127 -192.658969 
L 143.970257 -192.658969 
L 142.655388 -192.658969 
L 141.340518 -192.658969 
L 140.025648 -192.658969 
L 138.710779 -192.658969 
L 137.395909 -192.658969 
L 136.08104 -192.658969 
L 134.76617 -192.658969 
L 133.451301 -192.658969 
L 132.136431 -192.658969 
L 130.821561 -192.658969 
L 129.506692 -192.658969 
L 128.191822 -192.658969 
L 126.876953 -192.658969 
L 125.562083 -192.658969 
L 124.247214 -192.658969 
L 122.932344 -192.658969 
L 121.617474 -192.658969 
L 120.302605 -192.658969 
L 118.987735 -192.658969 
L 117.672866 -192.658969 
L 116.357996 -192.658969 
L 115.043127 -192.658969 
L 113.728257 -192.658969 
L 112.413387 -192.658969 
L 111.098518 -192.658969 
L 109.783648 -192.658969 
L 108.468779 -192.658969 
L 107.153909 -192.658969 
L 105.83904 -192.658969 
L 104.52417 -192.658969 
L 103.2093 -192.658969 
L 101.894431 -192.658969 
L 100.579561 -192.658969 
L 99.264692 -192.658969 
L 97.949822 -192.658969 
L 96.634953 -192.658969 
L 95.320083 -192.658969 
L 94.005213 -192.658969 
L 92.690344 -192.658969 
L 91.375474 -196.697957 
L 90.060605 -196.697957 
L 88.745735 -192.658969 
L 87.430865 -192.658969 
L 86.115996 -192.658969 
L 84.801126 -192.658969 
L 83.486257 -192.658969 
L 82.171387 -192.658969 
L 80.856518 -191.426735 
L 79.541648 -190.063292 
L 78.226778 -189.738689 
L 76.911909 -186.383705 
L 75.597039 -179.378228 
L 74.28217 -173.76643 
L 72.9673 -168.174029 
L 71.652431 -165.893826 
L 70.337561 -159.822223 
L 69.022691 -138.191387 
L 67.707822 -106.496168 
L 66.392952 -66.766329 
z
" style="stroke: #edd1cb; stroke-opacity: 0.2"/>
    </defs>
    <g clip-path="url(#pb638edc058)">
     <use xlink:href="#m90bba39124" x="0" y="362.097812" style="fill: #edd1cb; fill-opacity: 0.2; stroke: #edd1cb; stroke-opacity: 0.2"/>
    </g>
   </g>
   <g id="PolyCollection_2">
    <defs>
     <path id="m75890a1f53" d="M 66.392952 -59.350107 
L 66.392952 -56.451506 
L 67.707822 -65.145029 
L 69.022691 -77.420016 
L 70.337561 -77.102259 
L 71.652431 -90.652837 
L 72.9673 -119.271465 
L 74.28217 -145.375994 
L 75.597039 -187.429392 
L 76.911909 -198.178349 
L 78.226778 -222.803057 
L 79.541648 -226.545396 
L 80.856518 -226.545396 
L 82.171387 -226.545396 
L 83.486257 -236.471723 
L 84.801126 -236.471723 
L 86.115996 -236.471723 
L 87.430865 -236.471723 
L 88.745735 -236.471723 
L 90.060605 -221.205717 
L 91.375474 -226.271566 
L 92.690344 -236.471723 
L 94.005213 -236.471723 
L 95.320083 -221.411089 
L 96.634953 -236.471723 
L 97.949822 -236.471723 
L 99.264692 -236.471723 
L 100.579561 -236.471723 
L 101.894431 -236.471723 
L 103.2093 -236.471723 
L 104.52417 -226.545396 
L 105.83904 -236.471723 
L 107.153909 -221.411089 
L 108.468779 -236.471723 
L 109.783648 -236.471723 
L 111.098518 -236.471723 
L 112.413387 -236.471723 
L 113.728257 -236.471723 
L 115.043127 -236.471723 
L 116.357996 -221.411089 
L 117.672866 -236.471723 
L 118.987735 -221.411089 
L 120.302605 -236.471723 
L 121.617474 -236.471723 
L 122.932344 -236.471723 
L 124.247214 -236.471723 
L 125.562083 -236.471723 
L 126.876953 -221.205717 
L 128.191822 -222.98561 
L 129.506692 -236.471723 
L 130.821561 -236.471723 
L 132.136431 -236.471723 
L 133.451301 -236.471723 
L 134.76617 -222.98561 
L 136.08104 -236.471723 
L 137.395909 -236.471723 
L 138.710779 -236.471723 
L 140.025648 -236.471723 
L 141.340518 -220.247313 
L 142.655388 -236.471723 
L 143.970257 -236.471723 
L 145.285127 -236.471723 
L 146.599996 -236.471723 
L 147.914866 -236.471723 
L 149.229736 -222.98561 
L 150.544605 -236.471723 
L 151.859475 -236.471723 
L 153.174344 -222.98561 
L 154.489214 -222.98561 
L 155.804083 -236.471723 
L 157.118953 -221.205717 
L 158.433823 -236.471723 
L 159.748692 -219.562738 
L 161.063562 -236.471723 
L 162.378431 -236.471723 
L 163.693301 -236.471723 
L 165.00817 -236.471723 
L 166.32304 -236.471723 
L 167.63791 -236.471723 
L 168.952779 -221.205717 
L 170.267649 -236.471723 
L 171.582518 -236.471723 
L 172.897388 -236.471723 
L 174.212257 -236.471723 
L 175.527127 -236.471723 
L 176.841997 -236.471723 
L 178.156866 -236.471723 
L 179.471736 -236.471723 
L 180.786605 -236.471723 
L 182.101475 -236.471723 
L 183.416344 -236.471723 
L 184.731214 -236.471723 
L 186.046084 -236.471723 
L 187.360953 -226.545396 
L 188.675823 -236.471723 
L 189.990692 -236.471723 
L 191.305562 -236.471723 
L 192.620431 -236.471723 
L 193.935301 -236.471723 
L 195.250171 -236.471723 
L 196.56504 -236.471723 
L 197.87991 -236.471723 
L 199.194779 -236.471723 
L 200.509649 -236.471723 
L 201.824519 -236.471723 
L 203.139388 -236.471723 
L 204.454258 -236.471723 
L 205.769127 -236.471723 
L 207.083997 -236.471723 
L 208.398866 -223.533269 
L 209.713736 -236.471723 
L 211.028606 -236.471723 
L 212.343475 -236.471723 
L 213.658345 -236.471723 
L 214.973214 -236.471723 
L 216.288084 -236.471723 
L 217.602953 -236.471723 
L 218.917823 -236.471723 
L 220.232693 -236.471723 
L 221.547562 -235.444862 
L 222.862432 -235.763759 
L 224.177301 -236.471723 
L 225.492171 -236.471723 
L 226.80704 -236.471723 
L 228.12191 -236.783205 
L 229.43678 -236.471723 
L 230.751649 -219.562738 
L 232.066519 -219.562738 
L 233.381388 -236.471723 
L 234.696258 -236.791191 
L 236.011127 -236.791191 
L 237.325997 -231.588427 
L 238.640867 -231.907895 
L 239.955736 -227.153526 
L 241.270606 -216.839274 
L 242.585475 -209.700875 
L 243.900345 -227.800449 
L 245.215214 -231.907895 
L 246.530084 -235.627415 
L 247.844954 -234.459075 
L 249.159823 -237.61268 
L 250.474693 -240.944275 
L 251.789562 -240.944275 
L 253.104432 -228.804491 
L 254.419302 -216.001811 
L 255.734171 -216.342957 
L 257.049041 -218.421781 
L 258.36391 -216.320709 
L 259.67878 -242.222147 
L 260.993649 -228.279651 
L 262.308519 -242.861083 
L 263.623389 -242.222147 
L 264.938258 -235.536138 
L 266.253128 -233.505235 
L 267.567997 -225.153428 
L 268.882867 -235.102575 
L 270.197736 -237.681138 
L 271.512606 -231.976352 
L 272.827476 -221.684348 
L 274.142345 -213.468886 
L 275.457215 -223.213801 
L 276.772084 -223.254876 
L 278.086954 -223.964551 
L 279.401823 -192.520343 
L 280.716693 -232.592469 
L 282.031563 -231.084124 
L 283.346432 -212.945187 
L 284.661302 -230.105182 
L 285.976171 -230.744118 
L 287.291041 -237.110659 
L 288.60591 -237.110659 
L 289.92078 -224.263482 
L 291.23565 -217.957412 
L 292.550519 -238.707999 
L 293.865389 -238.707999 
L 295.180258 -217.27626 
L 296.495128 -227.161513 
L 297.809997 -227.58709 
L 299.124867 -243.180551 
L 300.439737 -242.222147 
L 301.754606 -229.366983 
L 303.069476 -225.539642 
L 304.384345 -225.130609 
L 305.699215 -231.040767 
L 307.014085 -236.380447 
L 308.328954 -227.275609 
L 309.643824 -241.902679 
L 310.958693 -241.583211 
L 312.273563 -241.902679 
L 313.588432 -242.222147 
L 314.903302 -242.541615 
L 316.218172 -243.180551 
L 317.533041 -242.541615 
L 318.847911 -242.541615 
L 320.16278 -221.205717 
L 321.47765 -243.180551 
L 322.792519 -243.819487 
L 324.107389 -243.819487 
L 325.422259 -243.180551 
L 326.737128 -243.180551 
L 328.051998 -242.541615 
L 328.051998 -245.424814 
L 328.051998 -245.424814 
L 326.737128 -246.055763 
L 325.422259 -245.736295 
L 324.107389 -246.055763 
L 322.792519 -246.375231 
L 321.47765 -246.055763 
L 320.16278 -245.097359 
L 318.847911 -245.416827 
L 317.533041 -245.416827 
L 316.218172 -246.055763 
L 314.903302 -245.736295 
L 313.588432 -245.105346 
L 312.273563 -245.097359 
L 310.958693 -244.777891 
L 309.643824 -245.097359 
L 308.328954 -244.777891 
L 307.014085 -245.416827 
L 305.699215 -245.736295 
L 304.384345 -245.097359 
L 303.069476 -244.458423 
L 301.754606 -245.416827 
L 300.439737 -245.416827 
L 299.124867 -246.055763 
L 297.809997 -244.458423 
L 296.495128 -244.777891 
L 295.180258 -243.500019 
L 293.865389 -242.222147 
L 292.550519 -241.902679 
L 291.23565 -239.346935 
L 289.92078 -239.985871 
L 288.60591 -239.985871 
L 287.291041 -239.985871 
L 285.976171 -239.985871 
L 284.661302 -239.666403 
L 283.346432 -239.346935 
L 282.031563 -240.305339 
L 280.716693 -241.583211 
L 279.401823 -234.015243 
L 278.086954 -241.583211 
L 276.772084 -241.27173 
L 275.457215 -242.541615 
L 274.142345 -241.583211 
L 272.827476 -242.541615 
L 271.512606 -243.819487 
L 270.197736 -243.819487 
L 268.882867 -244.138955 
L 267.567997 -244.116136 
L 266.253128 -244.138955 
L 264.938258 -245.097359 
L 263.623389 -245.416827 
L 262.308519 -245.736295 
L 260.993649 -246.055763 
L 259.67878 -245.416827 
L 258.36391 -244.777891 
L 257.049041 -244.146942 
L 255.734171 -243.819487 
L 254.419302 -244.777891 
L 253.104432 -244.138955 
L 251.789562 -244.138955 
L 250.474693 -244.138955 
L 249.159823 -243.188538 
L 247.844954 -241.834222 
L 246.530084 -240.944275 
L 245.215214 -240.305339 
L 243.900345 -239.354922 
L 242.585475 -238.069063 
L 241.270606 -238.388531 
L 239.955736 -237.749595 
L 238.640867 -239.985871 
L 237.325997 -239.666403 
L 236.011127 -239.346935 
L 234.696258 -239.027467 
L 233.381388 -238.069063 
L 232.066519 -237.110659 
L 230.751649 -237.430127 
L 229.43678 -237.430127 
L 228.12191 -238.707999 
L 226.80704 -238.069063 
L 225.492171 -238.069063 
L 224.177301 -237.430127 
L 222.862432 -237.749595 
L 221.547562 -237.430127 
L 220.232693 -237.430127 
L 218.917823 -237.430127 
L 217.602953 -238.069063 
L 216.288084 -238.069063 
L 214.973214 -237.430127 
L 213.658345 -236.471723 
L 212.343475 -236.471723 
L 211.028606 -236.471723 
L 209.713736 -236.471723 
L 208.398866 -236.471723 
L 207.083997 -236.471723 
L 205.769127 -236.471723 
L 204.454258 -236.471723 
L 203.139388 -236.471723 
L 201.824519 -236.471723 
L 200.509649 -236.471723 
L 199.194779 -236.471723 
L 197.87991 -236.471723 
L 196.56504 -236.471723 
L 195.250171 -236.471723 
L 193.935301 -236.471723 
L 192.620431 -236.471723 
L 191.305562 -236.471723 
L 189.990692 -236.471723 
L 188.675823 -236.471723 
L 187.360953 -236.471723 
L 186.046084 -236.471723 
L 184.731214 -236.471723 
L 183.416344 -236.471723 
L 182.101475 -236.471723 
L 180.786605 -236.471723 
L 179.471736 -236.471723 
L 178.156866 -236.471723 
L 176.841997 -236.471723 
L 175.527127 -236.471723 
L 174.212257 -236.471723 
L 172.897388 -236.471723 
L 171.582518 -236.471723 
L 170.267649 -236.471723 
L 168.952779 -236.471723 
L 167.63791 -236.471723 
L 166.32304 -236.471723 
L 165.00817 -236.471723 
L 163.693301 -236.471723 
L 162.378431 -236.471723 
L 161.063562 -236.471723 
L 159.748692 -236.471723 
L 158.433823 -236.471723 
L 157.118953 -236.471723 
L 155.804083 -236.471723 
L 154.489214 -236.471723 
L 153.174344 -236.471723 
L 151.859475 -236.471723 
L 150.544605 -236.471723 
L 149.229736 -236.471723 
L 147.914866 -236.471723 
L 146.599996 -236.471723 
L 145.285127 -236.471723 
L 143.970257 -236.471723 
L 142.655388 -236.471723 
L 141.340518 -236.471723 
L 140.025648 -236.471723 
L 138.710779 -236.471723 
L 137.395909 -236.471723 
L 136.08104 -236.471723 
L 134.76617 -236.471723 
L 133.451301 -236.471723 
L 132.136431 -236.471723 
L 130.821561 -236.471723 
L 129.506692 -236.471723 
L 128.191822 -236.471723 
L 126.876953 -236.471723 
L 125.562083 -236.471723 
L 124.247214 -236.471723 
L 122.932344 -236.471723 
L 121.617474 -236.471723 
L 120.302605 -236.471723 
L 118.987735 -236.471723 
L 117.672866 -236.471723 
L 116.357996 -236.471723 
L 115.043127 -236.471723 
L 113.728257 -236.471723 
L 112.413387 -236.471723 
L 111.098518 -236.471723 
L 109.783648 -236.471723 
L 108.468779 -236.471723 
L 107.153909 -236.471723 
L 105.83904 -236.471723 
L 104.52417 -236.471723 
L 103.2093 -236.471723 
L 101.894431 -236.471723 
L 100.579561 -236.471723 
L 99.264692 -236.471723 
L 97.949822 -236.471723 
L 96.634953 -236.471723 
L 95.320083 -236.471723 
L 94.005213 -236.471723 
L 92.690344 -236.471723 
L 91.375474 -236.471723 
L 90.060605 -236.471723 
L 88.745735 -236.471723 
L 87.430865 -236.471723 
L 86.115996 -236.471723 
L 84.801126 -236.471723 
L 83.486257 -236.471723 
L 82.171387 -236.471723 
L 80.856518 -236.471723 
L 79.541648 -236.471723 
L 78.226778 -236.471723 
L 76.911909 -229.192417 
L 75.597039 -221.231388 
L 74.28217 -189.305696 
L 72.9673 -160.878178 
L 71.652431 -117.768824 
L 70.337561 -98.396513 
L 69.022691 -87.782759 
L 67.707822 -75.511765 
L 66.392952 -59.350107 
z
" style="stroke: #d499a7; stroke-opacity: 0.2"/>
    </defs>
    <g clip-path="url(#pb638edc058)">
     <use xlink:href="#m75890a1f53" x="0" y="362.097812" style="fill: #d499a7; fill-opacity: 0.2; stroke: #d499a7; stroke-opacity: 0.2"/>
    </g>
   </g>
   <g id="PolyCollection_3">
    <defs>
     <path id="m2996c0262e" d="M 66.392952 -65.487886 
L 66.392952 -58.116733 
L 67.707822 -73.696502 
L 69.022691 -135.8587 
L 70.337561 -158.086827 
L 71.652431 -152.953661 
L 72.9673 -147.132497 
L 74.28217 -167.694256 
L 75.597039 -156.623549 
L 76.911909 -164.123631 
L 78.226778 -163.861211 
L 79.541648 -179.604708 
L 80.856518 -173.557635 
L 82.171387 -173.352833 
L 83.486257 -199.388905 
L 84.801126 -184.889621 
L 86.115996 -242.877627 
L 87.430865 -243.654619 
L 88.745735 -246.144187 
L 90.060605 -250.381702 
L 91.375474 -265.056122 
L 92.690344 -281.514429 
L 94.005213 -286.267086 
L 95.320083 -280.626765 
L 96.634953 -326.287869 
L 97.949822 -311.706437 
L 99.264692 -311.706437 
L 100.579561 -326.287869 
L 101.894431 -326.287869 
L 103.2093 -326.287869 
L 104.52417 -308.420481 
L 105.83904 -326.287869 
L 107.153909 -326.287869 
L 108.468779 -326.287869 
L 109.783648 -326.287869 
L 111.098518 -319.442126 
L 112.413387 -326.287869 
L 113.728257 -326.287869 
L 115.043127 -326.287869 
L 116.357996 -326.287869 
L 117.672866 -326.287869 
L 118.987735 -326.287869 
L 120.302605 -326.287869 
L 121.617474 -311.706437 
L 122.932344 -326.287869 
L 124.247214 -326.287869 
L 125.562083 -326.287869 
L 126.876953 -326.287869 
L 128.191822 -326.287869 
L 129.506692 -326.287869 
L 130.821561 -326.287869 
L 132.136431 -326.287869 
L 133.451301 -326.287869 
L 134.76617 -326.287869 
L 136.08104 -326.287869 
L 137.395909 -326.287869 
L 138.710779 -326.287869 
L 140.025648 -326.287869 
L 141.340518 -326.287869 
L 142.655388 -326.287869 
L 143.970257 -326.287869 
L 145.285127 -326.287869 
L 146.599996 -326.287869 
L 147.914866 -326.287869 
L 149.229736 -326.287869 
L 150.544605 -326.287869 
L 151.859475 -326.287869 
L 153.174344 -326.287869 
L 154.489214 -326.287869 
L 155.804083 -326.287869 
L 157.118953 -326.287869 
L 158.433823 -326.287869 
L 159.748692 -326.287869 
L 161.063562 -326.287869 
L 162.378431 -326.287869 
L 163.693301 -326.287869 
L 165.00817 -326.287869 
L 166.32304 -326.287869 
L 167.63791 -326.287869 
L 168.952779 -326.287869 
L 170.267649 -326.287869 
L 171.582518 -326.287869 
L 172.897388 -326.287869 
L 174.212257 -308.420481 
L 175.527127 -308.420481 
L 176.841997 -326.287869 
L 178.156866 -326.287869 
L 179.471736 -326.287869 
L 180.786605 -326.287869 
L 182.101475 -326.287869 
L 183.416344 -326.287869 
L 184.731214 -326.287869 
L 186.046084 -326.287869 
L 187.360953 -326.287869 
L 188.675823 -326.287869 
L 189.990692 -326.287869 
L 191.305562 -326.287869 
L 192.620431 -326.287869 
L 193.935301 -326.287869 
L 195.250171 -326.287869 
L 196.56504 -326.287869 
L 197.87991 -326.287869 
L 199.194779 -326.287869 
L 200.509649 -326.287869 
L 201.824519 -326.287869 
L 203.139388 -326.287869 
L 204.454258 -326.287869 
L 205.769127 -326.287869 
L 207.083997 -326.287869 
L 208.398866 -326.287869 
L 209.713736 -326.287869 
L 211.028606 -326.287869 
L 212.343475 -326.287869 
L 213.658345 -326.287869 
L 214.973214 -326.287869 
L 216.288084 -326.287869 
L 217.602953 -326.287869 
L 218.917823 -326.287869 
L 220.232693 -326.287869 
L 221.547562 -326.287869 
L 222.862432 -326.287869 
L 224.177301 -326.287869 
L 225.492171 -326.287869 
L 226.80704 -326.287869 
L 228.12191 -326.287869 
L 229.43678 -326.287869 
L 230.751649 -326.287869 
L 232.066519 -326.287869 
L 233.381388 -326.287869 
L 234.696258 -326.287869 
L 236.011127 -326.287869 
L 237.325997 -326.287869 
L 238.640867 -326.287869 
L 239.955736 -326.287869 
L 241.270606 -326.287869 
L 242.585475 -326.287869 
L 243.900345 -326.287869 
L 245.215214 -326.287869 
L 246.530084 -326.287869 
L 247.844954 -326.287869 
L 249.159823 -326.287869 
L 250.474693 -326.287869 
L 251.789562 -326.287869 
L 253.104432 -308.146651 
L 254.419302 -326.287869 
L 255.734171 -326.287869 
L 257.049041 -326.287869 
L 258.36391 -326.287869 
L 259.67878 -326.287869 
L 260.993649 -326.287869 
L 262.308519 -326.287869 
L 263.623389 -326.287869 
L 264.938258 -326.287869 
L 266.253128 -326.287869 
L 267.567997 -326.287869 
L 268.882867 -326.287869 
L 270.197736 -326.287869 
L 271.512606 -311.706437 
L 272.827476 -311.706437 
L 274.142345 -308.96814 
L 275.457215 -299.064632 
L 276.772084 -301.709371 
L 278.086954 -301.529099 
L 279.401823 -311.432607 
L 280.716693 -297.695483 
L 282.031563 -308.557395 
L 283.346432 -326.287869 
L 284.661302 -326.287869 
L 285.976171 -326.287869 
L 287.291041 -326.287869 
L 288.60591 -326.287869 
L 289.92078 -310.405746 
L 291.23565 -326.287869 
L 292.550519 -326.287869 
L 293.865389 -326.287869 
L 295.180258 -326.287869 
L 296.495128 -326.287869 
L 297.809997 -326.287869 
L 299.124867 -326.287869 
L 300.439737 -326.287869 
L 301.754606 -326.287869 
L 303.069476 -326.287869 
L 304.384345 -326.287869 
L 305.699215 -326.287869 
L 307.014085 -326.287869 
L 308.328954 -300.958621 
L 309.643824 -326.287869 
L 310.958693 -326.287869 
L 312.273563 -326.287869 
L 313.588432 -313.691702 
L 314.903302 -326.287869 
L 316.218172 -326.287869 
L 317.533041 -326.287869 
L 318.847911 -326.287869 
L 320.16278 -326.287869 
L 321.47765 -326.287869 
L 322.792519 -326.287869 
L 324.107389 -326.287869 
L 325.422259 -326.287869 
L 326.737128 -326.287869 
L 328.051998 -326.287869 
L 328.051998 -326.287869 
L 328.051998 -326.287869 
L 326.737128 -326.287869 
L 325.422259 -326.287869 
L 324.107389 -326.287869 
L 322.792519 -326.287869 
L 321.47765 -326.287869 
L 320.16278 -326.287869 
L 318.847911 -326.287869 
L 317.533041 -326.287869 
L 316.218172 -326.287869 
L 314.903302 -326.287869 
L 313.588432 -326.287869 
L 312.273563 -326.287869 
L 310.958693 -326.287869 
L 309.643824 -326.287869 
L 308.328954 -326.287869 
L 307.014085 -326.287869 
L 305.699215 -326.287869 
L 304.384345 -326.287869 
L 303.069476 -326.287869 
L 301.754606 -326.287869 
L 300.439737 -326.287869 
L 299.124867 -326.287869 
L 297.809997 -326.287869 
L 296.495128 -326.287869 
L 295.180258 -326.287869 
L 293.865389 -326.287869 
L 292.550519 -326.287869 
L 291.23565 -326.287869 
L 289.92078 -326.287869 
L 288.60591 -326.287869 
L 287.291041 -326.287869 
L 285.976171 -326.287869 
L 284.661302 -326.287869 
L 283.346432 -326.287869 
L 282.031563 -326.287869 
L 280.716693 -326.287869 
L 279.401823 -326.287869 
L 278.086954 -326.287869 
L 276.772084 -326.287869 
L 275.457215 -326.287869 
L 274.142345 -326.287869 
L 272.827476 -326.287869 
L 271.512606 -326.287869 
L 270.197736 -326.287869 
L 268.882867 -326.287869 
L 267.567997 -326.287869 
L 266.253128 -326.287869 
L 264.938258 -326.287869 
L 263.623389 -326.287869 
L 262.308519 -326.287869 
L 260.993649 -326.287869 
L 259.67878 -326.287869 
L 258.36391 -326.287869 
L 257.049041 -326.287869 
L 255.734171 -326.287869 
L 254.419302 -326.287869 
L 253.104432 -326.287869 
L 251.789562 -326.287869 
L 250.474693 -326.287869 
L 249.159823 -326.287869 
L 247.844954 -326.287869 
L 246.530084 -326.287869 
L 245.215214 -326.287869 
L 243.900345 -326.287869 
L 242.585475 -326.287869 
L 241.270606 -326.287869 
L 239.955736 -326.287869 
L 238.640867 -326.287869 
L 237.325997 -326.287869 
L 236.011127 -326.287869 
L 234.696258 -326.287869 
L 233.381388 -326.287869 
L 232.066519 -326.287869 
L 230.751649 -326.287869 
L 229.43678 -326.287869 
L 228.12191 -326.287869 
L 226.80704 -326.287869 
L 225.492171 -326.287869 
L 224.177301 -326.287869 
L 222.862432 -326.287869 
L 221.547562 -326.287869 
L 220.232693 -326.287869 
L 218.917823 -326.287869 
L 217.602953 -326.287869 
L 216.288084 -326.287869 
L 214.973214 -326.287869 
L 213.658345 -326.287869 
L 212.343475 -326.287869 
L 211.028606 -326.287869 
L 209.713736 -326.287869 
L 208.398866 -326.287869 
L 207.083997 -326.287869 
L 205.769127 -326.287869 
L 204.454258 -326.287869 
L 203.139388 -326.287869 
L 201.824519 -326.287869 
L 200.509649 -326.287869 
L 199.194779 -326.287869 
L 197.87991 -326.287869 
L 196.56504 -326.287869 
L 195.250171 -326.287869 
L 193.935301 -326.287869 
L 192.620431 -326.287869 
L 191.305562 -326.287869 
L 189.990692 -326.287869 
L 188.675823 -326.287869 
L 187.360953 -326.287869 
L 186.046084 -326.287869 
L 184.731214 -326.287869 
L 183.416344 -326.287869 
L 182.101475 -326.287869 
L 180.786605 -326.287869 
L 179.471736 -326.287869 
L 178.156866 -326.287869 
L 176.841997 -326.287869 
L 175.527127 -326.287869 
L 174.212257 -326.287869 
L 172.897388 -326.287869 
L 171.582518 -326.287869 
L 170.267649 -326.287869 
L 168.952779 -326.287869 
L 167.63791 -326.287869 
L 166.32304 -326.287869 
L 165.00817 -326.287869 
L 163.693301 -326.287869 
L 162.378431 -326.287869 
L 161.063562 -326.287869 
L 159.748692 -326.287869 
L 158.433823 -326.287869 
L 157.118953 -326.287869 
L 155.804083 -326.287869 
L 154.489214 -326.287869 
L 153.174344 -326.287869 
L 151.859475 -326.287869 
L 150.544605 -326.287869 
L 149.229736 -326.287869 
L 147.914866 -326.287869 
L 146.599996 -326.287869 
L 145.285127 -326.287869 
L 143.970257 -326.287869 
L 142.655388 -326.287869 
L 141.340518 -326.287869 
L 140.025648 -326.287869 
L 138.710779 -326.287869 
L 137.395909 -326.287869 
L 136.08104 -326.287869 
L 134.76617 -326.287869 
L 133.451301 -326.287869 
L 132.136431 -326.287869 
L 130.821561 -326.287869 
L 129.506692 -326.287869 
L 128.191822 -326.287869 
L 126.876953 -326.287869 
L 125.562083 -326.287869 
L 124.247214 -326.287869 
L 122.932344 -326.287869 
L 121.617474 -326.287869 
L 120.302605 -326.287869 
L 118.987735 -326.287869 
L 117.672866 -326.287869 
L 116.357996 -326.287869 
L 115.043127 -326.287869 
L 113.728257 -326.287869 
L 112.413387 -326.287869 
L 111.098518 -326.287869 
L 109.783648 -326.287869 
L 108.468779 -326.287869 
L 107.153909 -326.287869 
L 105.83904 -326.287869 
L 104.52417 -326.287869 
L 103.2093 -326.287869 
L 101.894431 -326.287869 
L 100.579561 -326.287869 
L 99.264692 -326.287869 
L 97.949822 -326.287869 
L 96.634953 -326.287869 
L 95.320083 -320.993828 
L 94.005213 -323.367019 
L 92.690344 -320.446169 
L 91.375474 -312.231277 
L 90.060605 -306.350784 
L 88.745735 -297.22712 
L 87.430865 -289.552472 
L 86.115996 -286.674978 
L 84.801126 -237.212204 
L 83.486257 -244.300401 
L 82.171387 -218.833096 
L 80.856518 -217.397772 
L 79.541648 -218.649973 
L 78.226778 -204.322974 
L 76.911909 -195.786333 
L 75.597039 -186.954754 
L 74.28217 -197.228502 
L 72.9673 -181.913435 
L 71.652431 -192.020604 
L 70.337561 -197.703141 
L 69.022691 -181.958503 
L 67.707822 -106.592579 
L 66.392952 -65.487886 
z
" style="stroke: #a9678f; stroke-opacity: 0.2"/>
    </defs>
    <g clip-path="url(#pb638edc058)">
     <use xlink:href="#m2996c0262e" x="0" y="362.097812" style="fill: #a9678f; fill-opacity: 0.2; stroke: #a9678f; stroke-opacity: 0.2"/>
    </g>
   </g>
   <g id="PolyCollection_4">
    <defs>
     <path id="m2cb7bc5955" d="M 66.392952 -61.175639 
L 66.392952 -56.952956 
L 67.707822 -67.653423 
L 69.022691 -76.461612 
L 70.337561 -75.252197 
L 71.652431 -71.237169 
L 72.9673 -82.761977 
L 74.28217 -95.674189 
L 75.597039 -120.342253 
L 76.911909 -161.575874 
L 78.226778 -213.55674 
L 79.541648 -239.708619 
L 80.856518 -243.360252 
L 82.171387 -251.349804 
L 83.486257 -249.249302 
L 84.801126 -262.941929 
L 86.115996 -265.086928 
L 87.430865 -271.521927 
L 88.745735 -271.521927 
L 90.060605 -271.521927 
L 91.375474 -271.521927 
L 92.690344 -271.521927 
L 94.005213 -255.023686 
L 95.320083 -271.521927 
L 96.634953 -271.521927 
L 97.949822 -271.521927 
L 99.264692 -271.521927 
L 100.579561 -271.521927 
L 101.894431 -271.521927 
L 103.2093 -271.521927 
L 104.52417 -271.521927 
L 105.83904 -271.521927 
L 107.153909 -271.521927 
L 108.468779 -271.521927 
L 109.783648 -271.521927 
L 111.098518 -271.521927 
L 112.413387 -271.521927 
L 113.728257 -271.521927 
L 115.043127 -271.521927 
L 116.357996 -271.521927 
L 117.672866 -271.521927 
L 118.987735 -271.521927 
L 120.302605 -271.521927 
L 121.617474 -257.077409 
L 122.932344 -271.521927 
L 124.247214 -253.380708 
L 125.562083 -271.521927 
L 126.876953 -271.521927 
L 128.191822 -271.521927 
L 129.506692 -271.521927 
L 130.821561 -271.521927 
L 132.136431 -271.521927 
L 133.451301 -271.521927 
L 134.76617 -271.521927 
L 136.08104 -271.521927 
L 137.395909 -271.521927 
L 138.710779 -271.521927 
L 140.025648 -271.521927 
L 141.340518 -271.521927 
L 142.655388 -271.521927 
L 143.970257 -253.380708 
L 145.285127 -271.521927 
L 146.599996 -271.521927 
L 147.914866 -271.521927 
L 149.229736 -271.521927 
L 150.544605 -271.521927 
L 151.859475 -261.458685 
L 153.174344 -271.521927 
L 154.489214 -271.521927 
L 155.804083 -271.521927 
L 157.118953 -271.521927 
L 158.433823 -271.521927 
L 159.748692 -271.521927 
L 161.063562 -271.521927 
L 162.378431 -262.074801 
L 163.693301 -271.521927 
L 165.00817 -271.521927 
L 166.32304 -271.521927 
L 167.63791 -271.521927 
L 168.952779 -271.521927 
L 170.267649 -271.521927 
L 171.582518 -271.521927 
L 172.897388 -271.521927 
L 174.212257 -271.521927 
L 175.527127 -255.023686 
L 176.841997 -271.521927 
L 178.156866 -271.521927 
L 179.471736 -271.521927 
L 180.786605 -271.521927 
L 182.101475 -271.521927 
L 183.416344 -271.521927 
L 184.731214 -271.521927 
L 186.046084 -271.521927 
L 187.360953 -271.521927 
L 188.675823 -271.521927 
L 189.990692 -271.521927 
L 191.305562 -271.521927 
L 192.620431 -271.521927 
L 193.935301 -271.521927 
L 195.250171 -271.521927 
L 196.56504 -271.521927 
L 197.87991 -271.521927 
L 199.194779 -271.521927 
L 200.509649 -271.521927 
L 201.824519 -253.380708 
L 203.139388 -271.521927 
L 204.454258 -271.521927 
L 205.769127 -271.521927 
L 207.083997 -271.521927 
L 208.398866 -255.023686 
L 209.713736 -271.521927 
L 211.028606 -271.521927 
L 212.343475 -271.521927 
L 213.658345 -271.521927 
L 214.973214 -271.521927 
L 216.288084 -271.521927 
L 217.602953 -271.521927 
L 218.917823 -271.521927 
L 220.232693 -271.521927 
L 221.547562 -271.521927 
L 222.862432 -271.521927 
L 224.177301 -271.521927 
L 225.492171 -271.521927 
L 226.80704 -271.521927 
L 228.12191 -271.521927 
L 229.43678 -271.521927 
L 230.751649 -271.521927 
L 232.066519 -271.521927 
L 233.381388 -271.521927 
L 234.696258 -259.336504 
L 236.011127 -271.521927 
L 237.325997 -271.521927 
L 238.640867 -271.521927 
L 239.955736 -271.521927 
L 241.270606 -271.521927 
L 242.585475 -271.521927 
L 243.900345 -271.521927 
L 245.215214 -271.521927 
L 246.530084 -271.521927 
L 247.844954 -271.521927 
L 249.159823 -271.521927 
L 250.474693 -271.521927 
L 251.789562 -271.521927 
L 253.104432 -271.521927 
L 254.419302 -262.074801 
L 255.734171 -262.074801 
L 257.049041 -271.521927 
L 258.36391 -271.521927 
L 259.67878 -271.521927 
L 260.993649 -251.326985 
L 262.308519 -271.521927 
L 263.623389 -271.521927 
L 264.938258 -271.521927 
L 266.253128 -253.380708 
L 267.567997 -258.172728 
L 268.882867 -255.639803 
L 270.197736 -271.521927 
L 271.512606 -271.521927 
L 272.827476 -271.521927 
L 274.142345 -271.521927 
L 275.457215 -271.521927 
L 276.772084 -271.521927 
L 278.086954 -271.521927 
L 279.401823 -271.521927 
L 280.716693 -271.521927 
L 282.031563 -271.521927 
L 283.346432 -271.521927 
L 284.661302 -271.521927 
L 285.976171 -271.521927 
L 287.291041 -271.521927 
L 288.60591 -271.521927 
L 289.92078 -271.521927 
L 291.23565 -271.521927 
L 292.550519 -271.521927 
L 293.865389 -271.521927 
L 295.180258 -271.521927 
L 296.495128 -251.943102 
L 297.809997 -271.521927 
L 299.124867 -271.521927 
L 300.439737 -271.521927 
L 301.754606 -271.521927 
L 303.069476 -271.521927 
L 304.384345 -271.521927 
L 305.699215 -271.521927 
L 307.014085 -271.521927 
L 308.328954 -271.521927 
L 309.643824 -253.722995 
L 310.958693 -271.521927 
L 312.273563 -262.074801 
L 313.588432 -251.806187 
L 314.903302 -271.521927 
L 316.218172 -271.521927 
L 317.533041 -271.521927 
L 318.847911 -271.521927 
L 320.16278 -271.521927 
L 321.47765 -271.521927 
L 322.792519 -271.521927 
L 324.107389 -271.521927 
L 325.422259 -271.521927 
L 326.737128 -271.521927 
L 328.051998 -271.521927 
L 328.051998 -271.521927 
L 328.051998 -271.521927 
L 326.737128 -271.521927 
L 325.422259 -271.521927 
L 324.107389 -271.521927 
L 322.792519 -271.521927 
L 321.47765 -271.521927 
L 320.16278 -271.521927 
L 318.847911 -271.521927 
L 317.533041 -271.521927 
L 316.218172 -271.521927 
L 314.903302 -271.521927 
L 313.588432 -271.521927 
L 312.273563 -271.521927 
L 310.958693 -271.521927 
L 309.643824 -271.521927 
L 308.328954 -271.521927 
L 307.014085 -271.521927 
L 305.699215 -271.521927 
L 304.384345 -271.521927 
L 303.069476 -271.521927 
L 301.754606 -271.521927 
L 300.439737 -271.521927 
L 299.124867 -271.521927 
L 297.809997 -271.521927 
L 296.495128 -271.521927 
L 295.180258 -271.521927 
L 293.865389 -271.521927 
L 292.550519 -271.521927 
L 291.23565 -271.521927 
L 289.92078 -271.521927 
L 288.60591 -271.521927 
L 287.291041 -271.521927 
L 285.976171 -271.521927 
L 284.661302 -271.521927 
L 283.346432 -271.521927 
L 282.031563 -271.521927 
L 280.716693 -271.521927 
L 279.401823 -271.521927 
L 278.086954 -271.521927 
L 276.772084 -271.521927 
L 275.457215 -271.521927 
L 274.142345 -271.521927 
L 272.827476 -271.521927 
L 271.512606 -271.521927 
L 270.197736 -271.521927 
L 268.882867 -271.521927 
L 267.567997 -271.521927 
L 266.253128 -271.521927 
L 264.938258 -271.521927 
L 263.623389 -271.521927 
L 262.308519 -271.521927 
L 260.993649 -271.521927 
L 259.67878 -271.521927 
L 258.36391 -271.521927 
L 257.049041 -271.521927 
L 255.734171 -271.521927 
L 254.419302 -271.521927 
L 253.104432 -271.521927 
L 251.789562 -271.521927 
L 250.474693 -271.521927 
L 249.159823 -271.521927 
L 247.844954 -271.521927 
L 246.530084 -271.521927 
L 245.215214 -271.521927 
L 243.900345 -271.521927 
L 242.585475 -271.521927 
L 241.270606 -271.521927 
L 239.955736 -271.521927 
L 238.640867 -271.521927 
L 237.325997 -271.521927 
L 236.011127 -271.521927 
L 234.696258 -271.521927 
L 233.381388 -271.521927 
L 232.066519 -271.521927 
L 230.751649 -271.521927 
L 229.43678 -271.521927 
L 228.12191 -271.521927 
L 226.80704 -271.521927 
L 225.492171 -271.521927 
L 224.177301 -271.521927 
L 222.862432 -271.521927 
L 221.547562 -271.521927 
L 220.232693 -271.521927 
L 218.917823 -271.521927 
L 217.602953 -271.521927 
L 216.288084 -271.521927 
L 214.973214 -271.521927 
L 213.658345 -271.521927 
L 212.343475 -271.521927 
L 211.028606 -271.521927 
L 209.713736 -271.521927 
L 208.398866 -271.521927 
L 207.083997 -271.521927 
L 205.769127 -271.521927 
L 204.454258 -271.521927 
L 203.139388 -271.521927 
L 201.824519 -271.521927 
L 200.509649 -271.521927 
L 199.194779 -271.521927 
L 197.87991 -271.521927 
L 196.56504 -271.521927 
L 195.250171 -271.521927 
L 193.935301 -271.521927 
L 192.620431 -271.521927 
L 191.305562 -271.521927 
L 189.990692 -271.521927 
L 188.675823 -271.521927 
L 187.360953 -271.521927 
L 186.046084 -271.521927 
L 184.731214 -271.521927 
L 183.416344 -271.521927 
L 182.101475 -271.521927 
L 180.786605 -271.521927 
L 179.471736 -271.521927 
L 178.156866 -271.521927 
L 176.841997 -271.521927 
L 175.527127 -271.521927 
L 174.212257 -271.521927 
L 172.897388 -271.521927 
L 171.582518 -271.521927 
L 170.267649 -271.521927 
L 168.952779 -271.521927 
L 167.63791 -271.521927 
L 166.32304 -271.521927 
L 165.00817 -271.521927 
L 163.693301 -271.521927 
L 162.378431 -271.521927 
L 161.063562 -271.521927 
L 159.748692 -271.521927 
L 158.433823 -271.521927 
L 157.118953 -271.521927 
L 155.804083 -271.521927 
L 154.489214 -271.521927 
L 153.174344 -271.521927 
L 151.859475 -271.521927 
L 150.544605 -271.521927 
L 149.229736 -271.521927 
L 147.914866 -271.521927 
L 146.599996 -271.521927 
L 145.285127 -271.521927 
L 143.970257 -271.521927 
L 142.655388 -271.521927 
L 141.340518 -271.521927 
L 140.025648 -271.521927 
L 138.710779 -271.521927 
L 137.395909 -271.521927 
L 136.08104 -271.521927 
L 134.76617 -271.521927 
L 133.451301 -271.521927 
L 132.136431 -271.521927 
L 130.821561 -271.521927 
L 129.506692 -271.521927 
L 128.191822 -271.521927 
L 126.876953 -271.521927 
L 125.562083 -271.521927 
L 124.247214 -271.521927 
L 122.932344 -271.521927 
L 121.617474 -271.521927 
L 120.302605 -271.521927 
L 118.987735 -271.521927 
L 117.672866 -271.521927 
L 116.357996 -271.521927 
L 115.043127 -271.521927 
L 113.728257 -271.521927 
L 112.413387 -271.521927 
L 111.098518 -271.521927 
L 109.783648 -271.521927 
L 108.468779 -271.521927 
L 107.153909 -271.521927 
L 105.83904 -271.521927 
L 104.52417 -271.521927 
L 103.2093 -271.521927 
L 101.894431 -271.521927 
L 100.579561 -271.521927 
L 99.264692 -271.521927 
L 97.949822 -271.521927 
L 96.634953 -271.521927 
L 95.320083 -271.521927 
L 94.005213 -271.521927 
L 92.690344 -271.521927 
L 91.375474 -271.521927 
L 90.060605 -271.521927 
L 88.745735 -271.521927 
L 87.430865 -271.521927 
L 86.115996 -271.521927 
L 84.801126 -271.521927 
L 83.486257 -271.521927 
L 82.171387 -271.521927 
L 80.856518 -271.521927 
L 79.541648 -267.597034 
L 78.226778 -255.685441 
L 76.911909 -215.435326 
L 75.597039 -169.49811 
L 74.28217 -123.386327 
L 72.9673 -101.36072 
L 71.652431 -85.797494 
L 70.337561 -87.372015 
L 69.022691 -86.458678 
L 67.707822 -78.450871 
L 66.392952 -61.175639 
z
" style="stroke: #6c3f70; stroke-opacity: 0.2"/>
    </defs>
    <g clip-path="url(#pb638edc058)">
     <use xlink:href="#m2cb7bc5955" x="0" y="362.097812" style="fill: #6c3f70; fill-opacity: 0.2; stroke: #6c3f70; stroke-opacity: 0.2"/>
    </g>
   </g>
   <g id="PolyCollection_5">
    <defs>
     <path id="madce701f8a" d="M 66.392952 -61.197887 
L 66.392952 -57.227357 
L 67.707822 -62.907612 
L 69.022691 -72.83565 
L 70.337561 -76.074828 
L 71.652431 -74.249296 
L 72.9673 -79.566727 
L 74.28217 -75.2077 
L 75.597039 -75.754789 
L 76.911909 -81.415077 
L 78.226778 -77.672168 
L 79.541648 -80.980943 
L 80.856518 -80.593588 
L 82.171387 -79.931833 
L 83.486257 -77.513004 
L 84.801126 -78.197008 
L 86.115996 -82.123041 
L 87.430865 -78.858763 
L 88.745735 -80.751611 
L 90.060605 -83.582326 
L 91.375474 -87.690342 
L 92.690344 -93.432779 
L 94.005213 -98.209967 
L 95.320083 -101.264309 
L 96.634953 -108.022768 
L 97.949822 -103.112659 
L 99.264692 -110.5517 
L 100.579561 -113.885006 
L 101.894431 -112.42344 
L 103.2093 -108.113475 
L 104.52417 -106.766575 
L 105.83904 -118.039802 
L 107.153909 -123.653881 
L 108.468779 -120.002818 
L 109.783648 -123.494147 
L 111.098518 -121.988084 
L 112.413387 -118.610851 
L 113.728257 -122.809573 
L 115.043127 -119.728989 
L 116.357996 -121.711972 
L 117.672866 -120.501987 
L 118.987735 -117.606808 
L 120.302605 -123.494147 
L 121.617474 -117.969633 
L 122.932344 -125.54787 
L 124.247214 -123.631062 
L 125.562083 -125.684785 
L 126.876953 -128.6952 
L 128.191822 -127.601593 
L 129.506692 -123.904892 
L 130.821561 -126.641478 
L 132.136431 -121.070754 
L 133.451301 -124.817087 
L 134.76617 -127.075612 
L 136.08104 -125.798881 
L 137.395909 -126.04875 
L 138.710779 -130.703285 
L 140.025648 -138.782973 
L 141.340518 -156.02797 
L 142.655388 -149.414412 
L 143.970257 -177.748941 
L 145.285127 -207.788061 
L 146.599996 -227.458162 
L 147.914866 -226.773588 
L 149.229736 -212.05524 
L 150.544605 -227.458162 
L 151.859475 -226.773588 
L 153.174344 -204.006358 
L 154.489214 -229.169598 
L 155.804083 -229.169598 
L 157.118953 -229.169598 
L 158.433823 -229.169598 
L 159.748692 -229.169598 
L 161.063562 -214.793538 
L 162.378431 -229.169598 
L 163.693301 -214.930452 
L 165.00817 -216.299601 
L 166.32304 -229.169598 
L 167.63791 -211.644496 
L 168.952779 -229.169598 
L 170.267649 -229.169598 
L 171.582518 -229.169598 
L 172.897388 -229.169598 
L 174.212257 -214.861995 
L 175.527127 -229.169598 
L 176.841997 -214.861995 
L 178.156866 -229.169598 
L 179.471736 -229.169598 
L 180.786605 -229.169598 
L 182.101475 -229.169598 
L 183.416344 -229.169598 
L 184.731214 -215.502072 
L 186.046084 -229.169598 
L 187.360953 -229.169598 
L 188.675823 -218.079494 
L 189.990692 -228.142736 
L 191.305562 -229.169598 
L 192.620431 -229.169598 
L 193.935301 -229.169598 
L 195.250171 -214.108963 
L 196.56504 -229.169598 
L 197.87991 -229.169598 
L 199.194779 -229.169598 
L 200.509649 -229.169598 
L 201.824519 -228.142736 
L 203.139388 -223.487631 
L 204.454258 -208.267263 
L 205.769127 -199.55035 
L 207.083997 -213.082102 
L 208.398866 -229.169598 
L 209.713736 -229.169598 
L 211.028606 -229.169598 
L 212.343475 -229.169598 
L 213.658345 -213.629761 
L 214.973214 -229.169598 
L 216.288084 -229.169598 
L 217.602953 -229.169598 
L 218.917823 -229.169598 
L 220.232693 -204.753115 
L 221.547562 -229.169598 
L 222.862432 -214.245878 
L 224.177301 -213.629761 
L 225.492171 -213.629761 
L 226.80704 -210.115613 
L 228.12191 -229.169598 
L 229.43678 -218.147952 
L 230.751649 -218.147952 
L 232.066519 -214.314336 
L 233.381388 -229.169598 
L 234.696258 -229.169598 
L 236.011127 -229.169598 
L 237.325997 -208.723646 
L 238.640867 -213.362207 
L 239.955736 -218.284866 
L 241.270606 -218.284866 
L 242.585475 -229.169598 
L 243.900345 -229.169598 
L 245.215214 -229.169598 
L 246.530084 -229.169598 
L 247.844954 -229.169598 
L 249.159823 -215.478112 
L 250.474693 -229.169598 
L 251.789562 -214.656623 
L 253.104432 -209.271305 
L 254.419302 -229.169598 
L 255.734171 -229.169598 
L 257.049041 -229.169598 
L 258.36391 -215.478112 
L 259.67878 -229.169598 
L 260.993649 -214.314336 
L 262.308519 -215.820399 
L 263.623389 -229.169598 
L 264.938258 -229.169598 
L 266.253128 -229.169598 
L 267.567997 -229.169598 
L 268.882867 -229.169598 
L 270.197736 -229.169598 
L 271.512606 -229.169598 
L 272.827476 -214.742765 
L 274.142345 -229.169598 
L 275.457215 -229.169598 
L 276.772084 -213.766676 
L 278.086954 -229.169598 
L 279.401823 -229.169598 
L 280.716693 -229.169598 
L 282.031563 -196.834302 
L 283.346432 -229.169598 
L 284.661302 -213.629761 
L 285.976171 -229.169598 
L 287.291041 -216.162686 
L 288.60591 -229.169598 
L 289.92078 -221.438472 
L 291.23565 -213.766676 
L 292.550519 -229.169598 
L 293.865389 -229.169598 
L 295.180258 -229.169598 
L 296.495128 -219.859387 
L 297.809997 -219.859387 
L 299.124867 -219.859387 
L 300.439737 -229.169598 
L 301.754606 -229.169598 
L 303.069476 -203.566519 
L 304.384345 -229.169598 
L 305.699215 -229.169598 
L 307.014085 -229.169598 
L 308.328954 -206.715561 
L 309.643824 -211.028379 
L 310.958693 -229.169598 
L 312.273563 -215.615027 
L 313.588432 -229.169598 
L 314.903302 -229.169598 
L 316.218172 -229.169598 
L 317.533041 -229.169598 
L 318.847911 -213.766676 
L 320.16278 -214.108963 
L 321.47765 -229.169598 
L 322.792519 -229.169598 
L 324.107389 -228.142736 
L 325.422259 -215.676068 
L 326.737128 -215.386835 
L 328.051998 -220.543962 
L 328.051998 -229.169598 
L 328.051998 -229.169598 
L 326.737128 -229.169598 
L 325.422259 -229.169598 
L 324.107389 -229.169598 
L 322.792519 -229.169598 
L 321.47765 -229.169598 
L 320.16278 -229.169598 
L 318.847911 -229.169598 
L 317.533041 -229.169598 
L 316.218172 -229.169598 
L 314.903302 -229.169598 
L 313.588432 -229.169598 
L 312.273563 -229.169598 
L 310.958693 -229.169598 
L 309.643824 -229.169598 
L 308.328954 -229.169598 
L 307.014085 -229.169598 
L 305.699215 -229.169598 
L 304.384345 -229.169598 
L 303.069476 -229.169598 
L 301.754606 -229.169598 
L 300.439737 -229.169598 
L 299.124867 -229.169598 
L 297.809997 -229.169598 
L 296.495128 -229.169598 
L 295.180258 -229.169598 
L 293.865389 -229.169598 
L 292.550519 -229.169598 
L 291.23565 -229.169598 
L 289.92078 -229.169598 
L 288.60591 -229.169598 
L 287.291041 -229.169598 
L 285.976171 -229.169598 
L 284.661302 -229.169598 
L 283.346432 -229.169598 
L 282.031563 -229.169598 
L 280.716693 -229.169598 
L 279.401823 -229.169598 
L 278.086954 -229.169598 
L 276.772084 -229.169598 
L 275.457215 -229.169598 
L 274.142345 -229.169598 
L 272.827476 -229.169598 
L 271.512606 -229.169598 
L 270.197736 -229.169598 
L 268.882867 -229.169598 
L 267.567997 -229.169598 
L 266.253128 -229.169598 
L 264.938258 -229.169598 
L 263.623389 -229.169598 
L 262.308519 -229.169598 
L 260.993649 -229.169598 
L 259.67878 -229.169598 
L 258.36391 -229.169598 
L 257.049041 -229.169598 
L 255.734171 -229.169598 
L 254.419302 -229.169598 
L 253.104432 -229.169598 
L 251.789562 -229.169598 
L 250.474693 -229.169598 
L 249.159823 -229.169598 
L 247.844954 -229.169598 
L 246.530084 -229.169598 
L 245.215214 -229.169598 
L 243.900345 -229.169598 
L 242.585475 -229.169598 
L 241.270606 -229.169598 
L 239.955736 -229.169598 
L 238.640867 -229.169598 
L 237.325997 -229.169598 
L 236.011127 -229.169598 
L 234.696258 -229.169598 
L 233.381388 -229.169598 
L 232.066519 -229.169598 
L 230.751649 -229.169598 
L 229.43678 -229.169598 
L 228.12191 -229.169598 
L 226.80704 -229.169598 
L 225.492171 -229.169598 
L 224.177301 -229.169598 
L 222.862432 -229.169598 
L 221.547562 -229.169598 
L 220.232693 -229.169598 
L 218.917823 -229.169598 
L 217.602953 -229.169598 
L 216.288084 -229.169598 
L 214.973214 -229.169598 
L 213.658345 -229.169598 
L 212.343475 -229.169598 
L 211.028606 -229.169598 
L 209.713736 -229.169598 
L 208.398866 -229.169598 
L 207.083997 -229.169598 
L 205.769127 -229.169598 
L 204.454258 -229.169598 
L 203.139388 -229.169598 
L 201.824519 -229.169598 
L 200.509649 -229.169598 
L 199.194779 -229.169598 
L 197.87991 -229.169598 
L 196.56504 -229.169598 
L 195.250171 -229.169598 
L 193.935301 -229.169598 
L 192.620431 -229.169598 
L 191.305562 -229.169598 
L 189.990692 -229.169598 
L 188.675823 -229.169598 
L 187.360953 -229.169598 
L 186.046084 -229.169598 
L 184.731214 -229.169598 
L 183.416344 -229.169598 
L 182.101475 -229.169598 
L 180.786605 -229.169598 
L 179.471736 -229.169598 
L 178.156866 -229.169598 
L 176.841997 -229.169598 
L 175.527127 -229.169598 
L 174.212257 -229.169598 
L 172.897388 -229.169598 
L 171.582518 -229.169598 
L 170.267649 -229.169598 
L 168.952779 -229.169598 
L 167.63791 -229.169598 
L 166.32304 -229.169598 
L 165.00817 -229.169598 
L 163.693301 -229.169598 
L 162.378431 -229.169598 
L 161.063562 -229.169598 
L 159.748692 -229.169598 
L 158.433823 -229.169598 
L 157.118953 -229.169598 
L 155.804083 -229.169598 
L 154.489214 -229.169598 
L 153.174344 -229.169598 
L 151.859475 -229.169598 
L 150.544605 -229.169598 
L 149.229736 -229.169598 
L 147.914866 -229.169598 
L 146.599996 -229.169598 
L 145.285127 -228.82731 
L 143.970257 -215.388547 
L 142.655388 -192.615613 
L 141.340518 -189.244655 
L 140.025648 -167.968657 
L 138.710779 -153.136214 
L 137.395909 -142.143092 
L 136.08104 -135.109091 
L 134.76617 -135.40574 
L 133.451301 -134.743985 
L 132.136431 -134.036591 
L 130.821561 -134.994995 
L 129.506692 -134.721165 
L 128.191822 -134.721165 
L 126.876953 -135.40574 
L 125.562083 -133.694304 
L 124.247214 -132.667443 
L 122.932344 -132.667443 
L 121.617474 -131.298294 
L 120.302605 -131.938371 
L 118.987735 -129.247424 
L 117.672866 -130.454556 
L 116.357996 -129.586858 
L 115.043127 -127.875423 
L 113.728257 -127.875423 
L 112.413387 -126.848561 
L 111.098518 -126.848561 
L 109.783648 -128.240529 
L 108.468779 -126.395031 
L 107.153909 -126.848561 
L 105.83904 -125.593508 
L 104.52417 -121.646367 
L 103.2093 -121.623548 
L 101.894431 -122.353761 
L 100.579561 -123.471328 
L 99.264692 -122.330941 
L 97.949822 -117.150426 
L 96.634953 -118.588032 
L 95.320083 -114.777805 
L 94.005213 -110.127834 
L 92.690344 -106.426569 
L 91.375474 -100.51527 
L 90.060605 -95.952583 
L 88.745735 -94.358666 
L 87.430865 -93.260494 
L 86.115996 -95.586336 
L 84.801126 -90.749818 
L 83.486257 -89.015563 
L 82.171387 -89.265433 
L 80.856518 -91.273518 
L 79.541648 -90.452599 
L 78.226778 -87.441043 
L 76.911909 -90.2033 
L 75.597039 -84.086058 
L 74.28217 -82.602814 
L 72.9673 -90.796598 
L 71.652431 -82.328984 
L 70.337561 -85.317721 
L 69.022691 -84.131696 
L 67.707822 -71.124215 
L 66.392952 -61.197887 
z
" style="stroke: #2d1e3e; stroke-opacity: 0.2"/>
    </defs>
    <g clip-path="url(#pb638edc058)">
     <use xlink:href="#madce701f8a" x="0" y="362.097812" style="fill: #2d1e3e; fill-opacity: 0.2; stroke: #2d1e3e; stroke-opacity: 0.2"/>
    </g>
   </g>
   <g id="line2d_14">
    <path d="M 66.392952 301.584499 
L 69.022691 235.842549 
L 70.337561 210.148194 
L 71.652431 204.009845 
L 72.9673 205.584366 
L 75.597039 191.276763 
L 76.911909 184.522297 
L 78.226778 178.817511 
L 79.541648 182.03501 
L 80.856518 176.238948 
L 82.171387 174.32214 
L 83.486257 169.438843 
L 86.115996 169.438843 
L 87.430865 171.766396 
L 88.745735 169.438843 
L 90.060605 168.092514 
L 91.375474 168.092514 
L 92.690344 169.438843 
L 94.005213 171.971768 
L 95.320083 169.438843 
L 96.634953 170.100599 
L 97.949822 173.181183 
L 99.264692 177.151714 
L 100.579561 176.695331 
L 101.894431 169.438843 
L 103.2093 170.191875 
L 104.52417 173.52347 
L 105.83904 172.473789 
L 107.153909 171.697939 
L 108.468779 171.697939 
L 109.783648 172.45097 
L 111.098518 174.208044 
L 112.413387 170.146237 
L 113.728257 169.438843 
L 118.987735 169.438843 
L 120.302605 173.089906 
L 121.617474 170.146237 
L 122.932344 169.438843 
L 128.191822 169.438843 
L 129.506692 170.671077 
L 130.821561 169.438843 
L 136.08104 169.438843 
L 137.395909 173.706023 
L 138.710779 169.438843 
L 140.025648 170.191875 
L 141.340518 169.438843 
L 147.914866 169.438843 
L 149.229736 171.971768 
L 150.544605 171.812034 
L 151.859475 169.438843 
L 154.489214 169.438843 
L 155.804083 170.191875 
L 157.118953 177.037618 
L 158.433823 169.438843 
L 175.527127 169.438843 
L 176.841997 173.706023 
L 178.156866 169.438843 
L 179.471736 169.438843 
L 180.786605 172.428151 
L 182.101475 171.971768 
L 183.416344 169.438843 
L 184.731214 169.438843 
L 186.046084 172.428151 
L 187.360953 169.438843 
L 189.990692 169.438843 
L 191.305562 172.428151 
L 192.620431 169.438843 
L 193.935301 169.438843 
L 195.250171 171.743577 
L 199.194779 171.743577 
L 200.509649 169.438843 
L 203.139388 169.438843 
L 204.454258 171.766396 
L 205.769127 171.766396 
L 207.083997 169.438843 
L 208.398866 171.903311 
L 209.713736 172.519428 
L 211.028606 169.438843 
L 221.547562 169.438843 
L 222.862432 171.903311 
L 224.177301 180.277936 
L 225.492171 179.684639 
L 226.80704 169.438843 
L 233.381388 169.438843 
L 234.696258 173.089906 
L 236.011127 169.438843 
L 242.585475 169.438843 
L 243.900345 170.191875 
L 245.215214 169.438843 
L 246.530084 170.191875 
L 247.844954 173.158364 
L 249.159823 172.473789 
L 250.474693 174.732885 
L 251.789562 169.438843 
L 253.104432 174.732885 
L 254.419302 169.438843 
L 255.734171 172.428151 
L 257.049041 172.496609 
L 258.36391 170.146237 
L 259.67878 172.085864 
L 260.993649 171.561024 
L 262.308519 170.146237 
L 263.623389 170.899269 
L 266.253128 169.438843 
L 268.882867 169.438843 
L 270.197736 172.405332 
L 271.512606 172.405332 
L 272.827476 173.158364 
L 274.142345 169.438843 
L 276.772084 169.438843 
L 278.086954 171.743577 
L 279.401823 169.438843 
L 282.031563 169.438843 
L 283.346432 173.204002 
L 284.661302 169.438843 
L 285.976171 169.438843 
L 287.291041 172.565066 
L 288.60591 172.565066 
L 289.92078 169.438843 
L 293.865389 169.438843 
L 295.180258 172.473789 
L 296.495128 169.438843 
L 301.754606 169.438843 
L 303.069476 170.191875 
L 304.384345 170.648258 
L 305.699215 169.895226 
L 307.014085 169.895226 
L 308.328954 172.268417 
L 309.643824 171.766396 
L 310.958693 169.438843 
L 312.273563 169.438843 
L 313.588432 170.191875 
L 314.903302 172.473789 
L 316.218172 169.438843 
L 318.847911 169.438843 
L 320.16278 172.473789 
L 321.47765 169.438843 
L 324.107389 169.438843 
L 325.422259 171.948949 
L 326.737128 169.438843 
L 328.051998 169.438843 
L 328.051998 169.438843 
" clip-path="url(#pb638edc058)" style="fill: none; stroke: #edd1cb; stroke-width: 1.5; stroke-linecap: round"/>
   </g>
   <g id="line2d_15">
    <path d="M 66.392952 304.345616 
L 69.022691 279.427112 
L 70.337561 275.707591 
L 71.652431 258.570415 
L 72.9673 221.808776 
L 74.28217 193.832507 
L 75.597039 157.390336 
L 76.911909 146.619701 
L 78.226778 130.806035 
L 79.541648 128.934865 
L 82.171387 128.934865 
L 83.486257 125.626089 
L 88.745735 125.626089 
L 90.060605 130.714758 
L 91.375474 129.026142 
L 92.690344 125.626089 
L 94.005213 125.626089 
L 95.320083 130.646301 
L 96.634953 125.626089 
L 103.2093 125.626089 
L 104.52417 128.934865 
L 105.83904 125.626089 
L 107.153909 130.646301 
L 108.468779 125.626089 
L 115.043127 125.626089 
L 116.357996 130.646301 
L 117.672866 125.626089 
L 118.987735 130.646301 
L 120.302605 125.626089 
L 125.562083 125.626089 
L 126.876953 130.714758 
L 128.191822 130.12146 
L 129.506692 125.626089 
L 133.451301 125.626089 
L 134.76617 130.12146 
L 136.08104 125.626089 
L 140.025648 125.626089 
L 141.340518 131.034226 
L 142.655388 125.626089 
L 147.914866 125.626089 
L 149.229736 130.12146 
L 150.544605 125.626089 
L 151.859475 125.626089 
L 153.174344 130.12146 
L 154.489214 130.12146 
L 155.804083 125.626089 
L 157.118953 130.714758 
L 158.433823 125.626089 
L 159.748692 131.262418 
L 161.063562 125.626089 
L 167.63791 125.626089 
L 168.952779 130.714758 
L 170.267649 125.626089 
L 186.046084 125.626089 
L 187.360953 128.934865 
L 188.675823 125.626089 
L 207.083997 125.626089 
L 208.398866 129.938907 
L 209.713736 125.626089 
L 213.658345 125.626089 
L 216.288084 124.987153 
L 217.602953 124.987153 
L 218.917823 125.306621 
L 220.232693 125.306621 
L 221.547562 125.648908 
L 222.862432 125.32944 
L 224.177301 125.306621 
L 225.492171 124.987153 
L 226.80704 124.987153 
L 228.12191 124.667685 
L 229.43678 125.306621 
L 230.751649 130.94295 
L 232.066519 130.94295 
L 233.381388 124.987153 
L 234.696258 124.348217 
L 236.011127 124.028749 
L 237.325997 125.763004 
L 238.640867 125.443536 
L 239.955736 128.775131 
L 241.270606 131.787258 
L 242.585475 135.894704 
L 243.900345 127.497259 
L 245.215214 125.124068 
L 246.530084 123.458271 
L 247.844954 123.526728 
L 249.159823 121.221995 
L 250.474693 119.556197 
L 251.789562 119.556197 
L 253.104432 123.709281 
L 254.419302 128.729493 
L 255.734171 129.733535 
L 257.049041 128.478482 
L 258.36391 128.661035 
L 259.67878 118.278325 
L 260.993649 122.499867 
L 262.308519 117.639389 
L 263.623389 118.278325 
L 264.938258 120.719974 
L 266.253128 122.362952 
L 267.567997 126.014015 
L 268.882867 121.838112 
L 270.197736 120.856888 
L 271.512606 123.298537 
L 272.827476 128.250291 
L 274.142345 132.083907 
L 275.457215 126.744227 
L 276.772084 128.159014 
L 278.086954 127.679812 
L 279.401823 145.455924 
L 280.716693 124.256941 
L 282.031563 125.215345 
L 283.346432 133.567151 
L 284.661302 126.15093 
L 285.976171 125.831462 
L 287.291041 123.709281 
L 288.60591 123.709281 
L 291.23565 131.810077 
L 292.550519 121.792473 
L 293.865389 121.473005 
L 295.180258 129.459705 
L 296.495128 123.618005 
L 297.809997 124.507951 
L 299.124867 117.319921 
L 300.439737 118.278325 
L 301.754606 122.773696 
L 303.069476 124.074388 
L 304.384345 124.485132 
L 305.699215 121.792473 
L 307.014085 120.332048 
L 308.328954 123.686462 
L 309.643824 118.597793 
L 310.958693 118.917261 
L 314.903302 117.958857 
L 316.218172 117.319921 
L 317.533041 117.958857 
L 318.847911 117.958857 
L 320.16278 126.789866 
L 321.47765 117.319921 
L 322.792519 117.000453 
L 324.107389 117.000453 
L 325.422259 117.639389 
L 326.737128 117.319921 
L 328.051998 117.958857 
L 328.051998 117.958857 
" clip-path="url(#pb638edc058)" style="fill: none; stroke: #d499a7; stroke-width: 1.5; stroke-linecap: round"/>
   </g>
   <g id="line2d_16">
    <path d="M 66.392952 300.717372 
L 67.707822 273.08339 
L 69.022691 203.964206 
L 70.337561 184.545116 
L 71.652431 189.542508 
L 72.9673 198.054049 
L 74.28217 179.661819 
L 75.597039 190.29554 
L 76.911909 181.784 
L 78.226778 178.155756 
L 79.541648 163.163579 
L 80.856518 166.266983 
L 82.171387 166.06161 
L 83.486257 139.933692 
L 84.801126 150.453317 
L 86.115996 97.64982 
L 87.430865 95.048438 
L 90.060605 83.045569 
L 91.375474 73.050784 
L 92.690344 59.31366 
L 94.005213 55.000842 
L 95.320083 58.971373 
L 96.634953 35.809943 
L 97.949822 40.670421 
L 99.264692 40.670421 
L 100.579561 35.809943 
L 103.2093 35.809943 
L 104.52417 41.765739 
L 105.83904 35.809943 
L 109.783648 35.809943 
L 111.098518 38.091857 
L 112.413387 35.809943 
L 120.302605 35.809943 
L 121.617474 40.670421 
L 122.932344 35.809943 
L 172.897388 35.809943 
L 174.212257 41.765739 
L 175.527127 41.765739 
L 176.841997 35.809943 
L 251.789562 35.809943 
L 253.104432 41.857016 
L 254.419302 35.809943 
L 270.197736 35.809943 
L 271.512606 40.670421 
L 272.827476 40.670421 
L 274.142345 41.583186 
L 275.457215 46.53494 
L 276.772084 45.622175 
L 278.086954 45.713451 
L 279.401823 40.761697 
L 280.716693 46.671855 
L 282.031563 41.720101 
L 283.346432 35.809943 
L 288.60591 35.809943 
L 289.92078 41.103984 
L 291.23565 35.809943 
L 307.014085 35.809943 
L 308.328954 44.253026 
L 309.643824 35.809943 
L 312.273563 35.809943 
L 313.588432 40.008665 
L 314.903302 35.809943 
L 328.051998 35.809943 
L 328.051998 35.809943 
" clip-path="url(#pb638edc058)" style="fill: none; stroke: #a9678f; stroke-width: 1.5; stroke-linecap: round"/>
   </g>
   <g id="line2d_17">
    <path d="M 66.392952 303.387212 
L 67.707822 289.011152 
L 69.022691 280.933175 
L 70.337561 281.115728 
L 71.652431 283.762749 
L 72.9673 270.573284 
L 74.28217 253.436108 
L 75.597039 218.340266 
L 78.226778 126.424759 
L 79.541648 106.549286 
L 80.856518 103.012319 
L 82.171387 98.562586 
L 83.486257 100.707585 
L 84.801126 92.720885 
L 86.115996 92.720885 
L 87.430865 90.575886 
L 92.690344 90.575886 
L 94.005213 96.075299 
L 95.320083 90.575886 
L 120.302605 90.575886 
L 121.617474 95.390725 
L 122.932344 90.575886 
L 124.247214 96.622959 
L 125.562083 90.575886 
L 142.655388 90.575886 
L 143.970257 96.622959 
L 145.285127 90.575886 
L 150.544605 90.575886 
L 151.859475 93.9303 
L 153.174344 90.575886 
L 161.063562 90.575886 
L 162.378431 93.724928 
L 163.693301 90.575886 
L 174.212257 90.575886 
L 175.527127 96.075299 
L 176.841997 90.575886 
L 200.509649 90.575886 
L 201.824519 96.622959 
L 203.139388 90.575886 
L 207.083997 90.575886 
L 208.398866 96.075299 
L 209.713736 90.575886 
L 233.381388 90.575886 
L 234.696258 94.637693 
L 236.011127 90.575886 
L 253.104432 90.575886 
L 254.419302 93.724928 
L 255.734171 93.724928 
L 257.049041 90.575886 
L 259.67878 90.575886 
L 260.993649 97.307533 
L 262.308519 90.575886 
L 264.938258 90.575886 
L 266.253128 96.622959 
L 267.567997 95.025619 
L 268.882867 95.869927 
L 270.197736 90.575886 
L 295.180258 90.575886 
L 296.495128 97.102161 
L 297.809997 90.575886 
L 308.328954 90.575886 
L 309.643824 95.025619 
L 310.958693 90.575886 
L 312.273563 93.724928 
L 313.588432 98.19748 
L 314.903302 90.575886 
L 328.051998 90.575886 
L 328.051998 90.575886 
" clip-path="url(#pb638edc058)" style="fill: none; stroke: #6c3f70; stroke-width: 1.5; stroke-linecap: round"/>
   </g>
   <g id="line2d_18">
    <path d="M 66.392952 303.090563 
L 67.707822 295.195139 
L 69.022691 283.671472 
L 70.337561 281.549292 
L 71.652431 283.854025 
L 72.9673 277.282112 
L 74.28217 283.215089 
L 75.597039 282.256685 
L 76.911909 276.186793 
L 78.226778 279.837856 
L 79.541648 276.437804 
L 80.856518 276.027059 
L 82.171387 277.806953 
L 83.486257 278.765357 
L 84.801126 277.943867 
L 86.115996 272.969294 
L 87.430865 276.323708 
L 88.745735 274.794826 
L 90.060605 272.193443 
L 91.375474 267.583977 
L 92.690344 262.267116 
L 94.005213 257.497916 
L 95.320083 253.299193 
L 96.634953 248.575631 
L 97.949822 251.24547 
L 99.264692 245.244036 
L 100.579561 242.665473 
L 101.894431 244.125898 
L 103.2093 246.704461 
L 104.52417 246.955472 
L 105.83904 239.630527 
L 107.153909 236.846591 
L 108.468779 238.21574 
L 109.783648 235.911006 
L 112.413387 238.626484 
L 113.728257 236.367389 
L 115.043127 237.280155 
L 116.357996 235.751272 
L 117.672866 235.933826 
L 118.987735 237.964729 
L 120.302605 233.971379 
L 121.617474 236.86941 
L 122.932344 232.488135 
L 124.247214 233.537816 
L 126.876953 229.7042 
L 128.191822 230.731061 
L 129.506692 232.282763 
L 130.821561 230.799518 
L 132.136431 234.131113 
L 133.451301 231.55255 
L 134.76617 230.48005 
L 136.08104 231.02771 
L 137.395909 228.494785 
L 138.710779 221.534946 
L 140.025648 208.893141 
L 141.340518 189.907615 
L 142.655388 190.363997 
L 143.970257 163.711239 
L 145.285127 142.512255 
L 146.599996 133.612789 
L 147.914866 133.955076 
L 149.229736 138.975288 
L 150.544605 133.612789 
L 151.859475 133.955076 
L 153.174344 142.854542 
L 154.489214 132.928215 
L 159.748692 132.928215 
L 161.063562 137.720235 
L 162.378431 132.928215 
L 163.693301 137.674597 
L 165.00817 137.218214 
L 166.32304 132.928215 
L 167.63791 137.30949 
L 168.952779 132.928215 
L 172.897388 132.928215 
L 174.212257 137.697416 
L 175.527127 132.928215 
L 176.841997 137.697416 
L 178.156866 132.928215 
L 183.416344 132.928215 
L 184.731214 137.446405 
L 186.046084 132.928215 
L 187.360953 132.928215 
L 188.675823 136.624916 
L 189.990692 133.270502 
L 191.305562 132.928215 
L 193.935301 132.928215 
L 195.250171 137.948426 
L 196.56504 132.928215 
L 200.509649 132.928215 
L 201.824519 133.270502 
L 203.139388 134.9363 
L 204.454258 141.120287 
L 205.769127 145.84385 
L 207.083997 138.290714 
L 208.398866 132.928215 
L 212.343475 132.928215 
L 213.658345 138.10816 
L 214.973214 132.928215 
L 218.917823 132.928215 
L 220.232693 142.64917 
L 221.547562 132.928215 
L 222.862432 137.902788 
L 224.177301 138.10816 
L 225.492171 138.10816 
L 226.80704 140.139064 
L 228.12191 132.928215 
L 229.43678 136.602097 
L 230.751649 136.602097 
L 232.066519 137.879969 
L 233.381388 132.928215 
L 236.011127 132.928215 
L 237.325997 141.006192 
L 238.640867 138.153799 
L 239.955736 136.556459 
L 241.270606 136.556459 
L 242.585475 132.928215 
L 247.844954 132.928215 
L 249.159823 137.492044 
L 250.474693 132.928215 
L 251.789562 137.765873 
L 253.104432 137.902788 
L 254.419302 132.928215 
L 257.049041 132.928215 
L 258.36391 137.492044 
L 259.67878 132.928215 
L 260.993649 137.879969 
L 262.308519 137.377948 
L 263.623389 132.928215 
L 271.512606 132.928215 
L 272.827476 137.697416 
L 274.142345 132.928215 
L 275.457215 132.928215 
L 276.772084 138.062522 
L 278.086954 132.928215 
L 280.716693 132.928215 
L 282.031563 146.939169 
L 283.346432 132.928215 
L 284.661302 138.10816 
L 285.976171 132.928215 
L 287.291041 137.263852 
L 288.60591 132.928215 
L 291.23565 138.062522 
L 292.550519 132.928215 
L 295.180258 132.928215 
L 296.495128 136.031618 
L 299.124867 136.031618 
L 300.439737 132.928215 
L 301.754606 132.928215 
L 303.069476 142.64917 
L 304.384345 132.928215 
L 307.014085 132.928215 
L 308.328954 141.622308 
L 309.643824 140.184702 
L 310.958693 132.928215 
L 312.273563 137.446405 
L 313.588432 132.928215 
L 317.533041 132.928215 
L 318.847911 138.062522 
L 320.16278 137.948426 
L 321.47765 132.928215 
L 322.792519 132.928215 
L 324.107389 133.270502 
L 325.422259 138.38199 
L 326.737128 138.38199 
L 328.051998 135.803427 
L 328.051998 135.803427 
" clip-path="url(#pb638edc058)" style="fill: none; stroke: #2d1e3e; stroke-width: 1.5; stroke-linecap: round"/>
   </g>
   <g id="line2d_19"/>
   <g id="line2d_20"/>
   <g id="line2d_21"/>
   <g id="line2d_22"/>
   <g id="line2d_23"/>
   <g id="patch_3">
    <path d="M 53.31 319.138125 
L 53.31 22.318125 
" style="fill: none; stroke: #ffffff; stroke-width: 1.25; stroke-linejoin: miter; stroke-linecap: square"/>
   </g>
   <g id="patch_4">
    <path d="M 53.31 319.138125 
L 341.13495 319.138125 
" style="fill: none; stroke: #ffffff; stroke-width: 1.25; stroke-linejoin: miter; stroke-linecap: square"/>
   </g>
   <g id="text_16">
    <!-- Evolved For Still Life For Symmetry -->
    <g style="fill: #262626" transform="translate(92.125913 16.318125)scale(0.12 -0.12)">
     <defs>
      <path id="DejaVuSans-45" d="M 628 4666 
L 3578 4666 
L 3578 4134 
L 1259 4134 
L 1259 2753 
L 3481 2753 
L 3481 2222 
L 1259 2222 
L 1259 531 
L 3634 531 
L 3634 0 
L 628 0 
L 628 4666 
z
" transform="scale(0.015625)"/>
      <path id="DejaVuSans-76" d="M 191 3500 
L 800 3500 
L 1894 563 
L 2988 3500 
L 3597 3500 
L 2284 0 
L 1503 0 
L 191 3500 
z
" transform="scale(0.015625)"/>
      <path id="DejaVuSans-6c" d="M 603 4863 
L 1178 4863 
L 1178 0 
L 603 0 
L 603 4863 
z
" transform="scale(0.015625)"/>
      <path id="DejaVuSans-64" d="M 2906 2969 
L 2906 4863 
L 3481 4863 
L 3481 0 
L 2906 0 
L 2906 525 
Q 2725 213 2448 61 
Q 2172 -91 1784 -91 
Q 1150 -91 751 415 
Q 353 922 353 1747 
Q 353 2572 751 3078 
Q 1150 3584 1784 3584 
Q 2172 3584 2448 3432 
Q 2725 3281 2906 2969 
z
M 947 1747 
Q 947 1113 1208 752 
Q 1469 391 1925 391 
Q 2381 391 2643 752 
Q 2906 1113 2906 1747 
Q 2906 2381 2643 2742 
Q 2381 3103 1925 3103 
Q 1469 3103 1208 2742 
Q 947 2381 947 1747 
z
" transform="scale(0.015625)"/>
      <path id="DejaVuSans-20" transform="scale(0.015625)"/>
      <path id="DejaVuSans-53" d="M 3425 4513 
L 3425 3897 
Q 3066 4069 2747 4153 
Q 2428 4238 2131 4238 
Q 1616 4238 1336 4038 
Q 1056 3838 1056 3469 
Q 1056 3159 1242 3001 
Q 1428 2844 1947 2747 
L 2328 2669 
Q 3034 2534 3370 2195 
Q 3706 1856 3706 1288 
Q 3706 609 3251 259 
Q 2797 -91 1919 -91 
Q 1588 -91 1214 -16 
Q 841 59 441 206 
L 441 856 
Q 825 641 1194 531 
Q 1563 422 1919 422 
Q 2459 422 2753 634 
Q 3047 847 3047 1241 
Q 3047 1584 2836 1778 
Q 2625 1972 2144 2069 
L 1759 2144 
Q 1053 2284 737 2584 
Q 422 2884 422 3419 
Q 422 4038 858 4394 
Q 1294 4750 2059 4750 
Q 2388 4750 2728 4690 
Q 3069 4631 3425 4513 
z
" transform="scale(0.015625)"/>
      <path id="DejaVuSans-4c" d="M 628 4666 
L 1259 4666 
L 1259 531 
L 3531 531 
L 3531 0 
L 628 0 
L 628 4666 
z
" transform="scale(0.015625)"/>
      <path id="DejaVuSans-66" d="M 2375 4863 
L 2375 4384 
L 1825 4384 
Q 1516 4384 1395 4259 
Q 1275 4134 1275 3809 
L 1275 3500 
L 2222 3500 
L 2222 3053 
L 1275 3053 
L 1275 0 
L 697 0 
L 697 3053 
L 147 3053 
L 147 3500 
L 697 3500 
L 697 3744 
Q 697 4328 969 4595 
Q 1241 4863 1831 4863 
L 2375 4863 
z
" transform="scale(0.015625)"/>
      <path id="DejaVuSans-79" d="M 2059 -325 
Q 1816 -950 1584 -1140 
Q 1353 -1331 966 -1331 
L 506 -1331 
L 506 -850 
L 844 -850 
Q 1081 -850 1212 -737 
Q 1344 -625 1503 -206 
L 1606 56 
L 191 3500 
L 800 3500 
L 1894 763 
L 2988 3500 
L 3597 3500 
L 2059 -325 
z
" transform="scale(0.015625)"/>
      <path id="DejaVuSans-6d" d="M 3328 2828 
Q 3544 3216 3844 3400 
Q 4144 3584 4550 3584 
Q 5097 3584 5394 3201 
Q 5691 2819 5691 2113 
L 5691 0 
L 5113 0 
L 5113 2094 
Q 5113 2597 4934 2840 
Q 4756 3084 4391 3084 
Q 3944 3084 3684 2787 
Q 3425 2491 3425 1978 
L 3425 0 
L 2847 0 
L 2847 2094 
Q 2847 2600 2669 2842 
Q 2491 3084 2119 3084 
Q 1678 3084 1418 2786 
Q 1159 2488 1159 1978 
L 1159 0 
L 581 0 
L 581 3500 
L 1159 3500 
L 1159 2956 
Q 1356 3278 1631 3431 
Q 1906 3584 2284 3584 
Q 2666 3584 2933 3390 
Q 3200 3197 3328 2828 
z
" transform="scale(0.015625)"/>
     </defs>
     <use xlink:href="#DejaVuSans-45"/>
     <use xlink:href="#DejaVuSans-76" x="63.183594"/>
     <use xlink:href="#DejaVuSans-6f" x="122.363281"/>
     <use xlink:href="#DejaVuSans-6c" x="183.544922"/>
     <use xlink:href="#DejaVuSans-76" x="211.328125"/>
     <use xlink:href="#DejaVuSans-65" x="270.507812"/>
     <use xlink:href="#DejaVuSans-64" x="332.03125"/>
     <use xlink:href="#DejaVuSans-20" x="395.507812"/>
     <use xlink:href="#DejaVuSans-46" x="427.294922"/>
     <use xlink:href="#DejaVuSans-6f" x="481.189453"/>
     <use xlink:href="#DejaVuSans-72" x="542.371094"/>
     <use xlink:href="#DejaVuSans-20" x="583.484375"/>
     <use xlink:href="#DejaVuSans-53" x="615.271484"/>
     <use xlink:href="#DejaVuSans-74" x="678.748047"/>
     <use xlink:href="#DejaVuSans-69" x="717.957031"/>
     <use xlink:href="#DejaVuSans-6c" x="745.740234"/>
     <use xlink:href="#DejaVuSans-6c" x="773.523438"/>
     <use xlink:href="#DejaVuSans-20" x="801.306641"/>
     <use xlink:href="#DejaVuSans-4c" x="833.09375"/>
     <use xlink:href="#DejaVuSans-69" x="888.806641"/>
     <use xlink:href="#DejaVuSans-66" x="916.589844"/>
     <use xlink:href="#DejaVuSans-65" x="951.794922"/>
     <use xlink:href="#DejaVuSans-20" x="1013.318359"/>
     <use xlink:href="#DejaVuSans-46" x="1045.105469"/>
     <use xlink:href="#DejaVuSans-6f" x="1099"/>
     <use xlink:href="#DejaVuSans-72" x="1160.181641"/>
     <use xlink:href="#DejaVuSans-20" x="1201.294922"/>
     <use xlink:href="#DejaVuSans-53" x="1233.082031"/>
     <use xlink:href="#DejaVuSans-79" x="1296.558594"/>
     <use xlink:href="#DejaVuSans-6d" x="1355.738281"/>
     <use xlink:href="#DejaVuSans-6d" x="1453.150391"/>
     <use xlink:href="#DejaVuSans-65" x="1550.5625"/>
     <use xlink:href="#DejaVuSans-74" x="1612.085938"/>
     <use xlink:href="#DejaVuSans-72" x="1651.294922"/>
     <use xlink:href="#DejaVuSans-79" x="1692.408203"/>
    </g>
   </g>
  </g>
  <g id="legend_1">
   <g id="text_17">
    <!-- Trial -->
    <g style="fill: #262626" transform="translate(352.4649 143.995312)scale(0.12 -0.12)">
     <defs>
      <path id="DejaVuSans-54" d="M -19 4666 
L 3928 4666 
L 3928 4134 
L 2272 4134 
L 2272 0 
L 1638 0 
L 1638 4134 
L -19 4134 
L -19 4666 
z
" transform="scale(0.015625)"/>
     </defs>
     <use xlink:href="#DejaVuSans-54"/>
     <use xlink:href="#DejaVuSans-72" x="46.333984"/>
     <use xlink:href="#DejaVuSans-69" x="87.447266"/>
     <use xlink:href="#DejaVuSans-61" x="115.230469"/>
     <use xlink:href="#DejaVuSans-6c" x="176.509766"/>
    </g>
   </g>
   <g id="line2d_24">
    <path d="M 345.8224 156.499219 
L 356.8224 156.499219 
L 367.8224 156.499219 
" style="fill: none; stroke: #edd1cb; stroke-width: 1.5; stroke-linecap: round"/>
   </g>
   <g id="text_18">
    <!-- 0 -->
    <g style="fill: #262626" transform="translate(376.6224 160.349219)scale(0.11 -0.11)">
     <use xlink:href="#DejaVuSans-30"/>
    </g>
   </g>
   <g id="line2d_25">
    <path d="M 345.8224 172.645156 
L 356.8224 172.645156 
L 367.8224 172.645156 
" style="fill: none; stroke: #d499a7; stroke-width: 1.5; stroke-linecap: round"/>
   </g>
   <g id="text_19">
    <!-- 1 -->
    <g style="fill: #262626" transform="translate(376.6224 176.495156)scale(0.11 -0.11)">
     <use xlink:href="#DejaVuSans-31"/>
    </g>
   </g>
   <g id="line2d_26">
    <path d="M 345.8224 188.791094 
L 356.8224 188.791094 
L 367.8224 188.791094 
" style="fill: none; stroke: #a9678f; stroke-width: 1.5; stroke-linecap: round"/>
   </g>
   <g id="text_20">
    <!-- 2 -->
    <g style="fill: #262626" transform="translate(376.6224 192.641094)scale(0.11 -0.11)">
     <use xlink:href="#DejaVuSans-32"/>
    </g>
   </g>
   <g id="line2d_27">
    <path d="M 345.8224 204.937031 
L 356.8224 204.937031 
L 367.8224 204.937031 
" style="fill: none; stroke: #6c3f70; stroke-width: 1.5; stroke-linecap: round"/>
   </g>
   <g id="text_21">
    <!-- 3 -->
    <g style="fill: #262626" transform="translate(376.6224 208.787031)scale(0.11 -0.11)">
     <use xlink:href="#DejaVuSans-33"/>
    </g>
   </g>
   <g id="line2d_28">
    <path d="M 345.8224 221.082969 
L 356.8224 221.082969 
L 367.8224 221.082969 
" style="fill: none; stroke: #2d1e3e; stroke-width: 1.5; stroke-linecap: round"/>
   </g>
   <g id="text_22">
    <!-- 4 -->
    <g style="fill: #262626" transform="translate(376.6224 224.932969)scale(0.11 -0.11)">
     <defs>
      <path id="DejaVuSans-34" d="M 2419 4116 
L 825 1625 
L 2419 1625 
L 2419 4116 
z
M 2253 4666 
L 3047 4666 
L 3047 1625 
L 3713 1625 
L 3713 1100 
L 3047 1100 
L 3047 0 
L 2419 0 
L 2419 1100 
L 313 1100 
L 313 1709 
L 2253 4666 
z
" transform="scale(0.015625)"/>
     </defs>
     <use xlink:href="#DejaVuSans-34"/>
    </g>
   </g>
  </g>
 </g>
 <defs>
  <clipPath id="pb638edc058">
   <rect x="53.31" y="22.318125" width="287.82495" height="296.82"/>
  </clipPath>
 </defs>
</svg>
