<?xml version="1.0" encoding="utf-8" standalone="no"?>
<!DOCTYPE svg PUBLIC "-//W3C//DTD SVG 1.1//EN"
  "http://www.w3.org/Graphics/SVG/1.1/DTD/svg11.dtd">
<svg xmlns:xlink="http://www.w3.org/1999/xlink" width="391.86378pt" height="358.564913pt" viewBox="0 0 391.86378 358.564913" xmlns="http://www.w3.org/2000/svg" version="1.1">
 <metadata>
  <rdf:RDF xmlns:dc="http://purl.org/dc/elements/1.1/" xmlns:cc="http://creativecommons.org/ns#" xmlns:rdf="http://www.w3.org/1999/02/22-rdf-syntax-ns#">
   <cc:Work>
    <dc:type rdf:resource="http://purl.org/dc/dcmitype/StillImage"/>
    <dc:date>2022-11-20T08:19:52.132083</dc:date>
    <dc:format>image/svg+xml</dc:format>
    <dc:creator>
     <cc:Agent>
      <dc:title>Matplotlib v3.5.2, https://matplotlib.org/</dc:title>
     </cc:Agent>
    </dc:creator>
   </cc:Work>
  </rdf:RDF>
 </metadata>
 <defs>
  <style type="text/css">*{stroke-linejoin: round; stroke-linecap: butt}</style>
 </defs>
 <g id="figure_1">
  <g id="patch_1">
   <path d="M 0 358.564913 
L 391.86378 358.564913 
L 391.86378 0 
L 0 0 
z
" style="fill: #ffffff"/>
  </g>
  <g id="axes_1">
   <g id="patch_2">
    <path d="M 67.3075 315.605225 
L 339.47758 315.605225 
L 339.47758 22.318125 
L 67.3075 22.318125 
z
" style="fill: #eaeaf2"/>
   </g>
   <g id="matplotlib.axis_1">
    <g id="xtick_1">
     <g id="line2d_1">
      <path d="M 79.678867 315.605225 
L 79.678867 22.318125 
" clip-path="url(#paeaa2a9626)" style="fill: none; stroke: #ffffff; stroke-linecap: round"/>
     </g>
     <g id="text_1">
      <!-- 0 -->
      <g style="fill: #262626" transform="translate(76.179492 333.463507)scale(0.11 -0.11)">
       <defs>
        <path id="DejaVuSans-30" d="M 2034 4250 
Q 1547 4250 1301 3770 
Q 1056 3291 1056 2328 
Q 1056 1369 1301 889 
Q 1547 409 2034 409 
Q 2525 409 2770 889 
Q 3016 1369 3016 2328 
Q 3016 3291 2770 3770 
Q 2525 4250 2034 4250 
z
M 2034 4750 
Q 2819 4750 3233 4129 
Q 3647 3509 3647 2328 
Q 3647 1150 3233 529 
Q 2819 -91 2034 -91 
Q 1250 -91 836 529 
Q 422 1150 422 2328 
Q 422 3509 836 4129 
Q 1250 4750 2034 4750 
z
" transform="scale(0.015625)"/>
       </defs>
       <use xlink:href="#DejaVuSans-30"/>
      </g>
     </g>
    </g>
    <g id="xtick_2">
     <g id="line2d_2">
      <path d="M 141.846542 315.605225 
L 141.846542 22.318125 
" clip-path="url(#paeaa2a9626)" style="fill: none; stroke: #ffffff; stroke-linecap: round"/>
     </g>
     <g id="text_2">
      <!-- 50 -->
      <g style="fill: #262626" transform="translate(134.847792 333.463507)scale(0.11 -0.11)">
       <defs>
        <path id="DejaVuSans-35" d="M 691 4666 
L 3169 4666 
L 3169 4134 
L 1269 4134 
L 1269 2991 
Q 1406 3038 1543 3061 
Q 1681 3084 1819 3084 
Q 2600 3084 3056 2656 
Q 3513 2228 3513 1497 
Q 3513 744 3044 326 
Q 2575 -91 1722 -91 
Q 1428 -91 1123 -41 
Q 819 9 494 109 
L 494 744 
Q 775 591 1075 516 
Q 1375 441 1709 441 
Q 2250 441 2565 725 
Q 2881 1009 2881 1497 
Q 2881 1984 2565 2268 
Q 2250 2553 1709 2553 
Q 1456 2553 1204 2497 
Q 953 2441 691 2322 
L 691 4666 
z
" transform="scale(0.015625)"/>
       </defs>
       <use xlink:href="#DejaVuSans-35"/>
       <use xlink:href="#DejaVuSans-30" x="63.623047"/>
      </g>
     </g>
    </g>
    <g id="xtick_3">
     <g id="line2d_3">
      <path d="M 204.014217 315.605225 
L 204.014217 22.318125 
" clip-path="url(#paeaa2a9626)" style="fill: none; stroke: #ffffff; stroke-linecap: round"/>
     </g>
     <g id="text_3">
      <!-- 100 -->
      <g style="fill: #262626" transform="translate(193.516092 333.463507)scale(0.11 -0.11)">
       <defs>
        <path id="DejaVuSans-31" d="M 794 531 
L 1825 531 
L 1825 4091 
L 703 3866 
L 703 4441 
L 1819 4666 
L 2450 4666 
L 2450 531 
L 3481 531 
L 3481 0 
L 794 0 
L 794 531 
z
" transform="scale(0.015625)"/>
       </defs>
       <use xlink:href="#DejaVuSans-31"/>
       <use xlink:href="#DejaVuSans-30" x="63.623047"/>
       <use xlink:href="#DejaVuSans-30" x="127.246094"/>
      </g>
     </g>
    </g>
    <g id="xtick_4">
     <g id="line2d_4">
      <path d="M 266.181891 315.605225 
L 266.181891 22.318125 
" clip-path="url(#paeaa2a9626)" style="fill: none; stroke: #ffffff; stroke-linecap: round"/>
     </g>
     <g id="text_4">
      <!-- 150 -->
      <g style="fill: #262626" transform="translate(255.683766 333.463507)scale(0.11 -0.11)">
       <use xlink:href="#DejaVuSans-31"/>
       <use xlink:href="#DejaVuSans-35" x="63.623047"/>
       <use xlink:href="#DejaVuSans-30" x="127.246094"/>
      </g>
     </g>
    </g>
    <g id="xtick_5">
     <g id="line2d_5">
      <path d="M 328.349566 315.605225 
L 328.349566 22.318125 
" clip-path="url(#paeaa2a9626)" style="fill: none; stroke: #ffffff; stroke-linecap: round"/>
     </g>
     <g id="text_5">
      <!-- 200 -->
      <g style="fill: #262626" transform="translate(317.851441 333.463507)scale(0.11 -0.11)">
       <defs>
        <path id="DejaVuSans-32" d="M 1228 531 
L 3431 531 
L 3431 0 
L 469 0 
L 469 531 
Q 828 903 1448 1529 
Q 2069 2156 2228 2338 
Q 2531 2678 2651 2914 
Q 2772 3150 2772 3378 
Q 2772 3750 2511 3984 
Q 2250 4219 1831 4219 
Q 1534 4219 1204 4116 
Q 875 4013 500 3803 
L 500 4441 
Q 881 4594 1212 4672 
Q 1544 4750 1819 4750 
Q 2544 4750 2975 4387 
Q 3406 4025 3406 3419 
Q 3406 3131 3298 2873 
Q 3191 2616 2906 2266 
Q 2828 2175 2409 1742 
Q 1991 1309 1228 531 
z
" transform="scale(0.015625)"/>
       </defs>
       <use xlink:href="#DejaVuSans-32"/>
       <use xlink:href="#DejaVuSans-30" x="63.623047"/>
       <use xlink:href="#DejaVuSans-30" x="127.246094"/>
      </g>
     </g>
    </g>
    <g id="text_6">
     <!-- Generation -->
     <g style="fill: #262626" transform="translate(169.920978 348.869288)scale(0.12 -0.12)">
      <defs>
       <path id="DejaVuSans-47" d="M 3809 666 
L 3809 1919 
L 2778 1919 
L 2778 2438 
L 4434 2438 
L 4434 434 
Q 4069 175 3628 42 
Q 3188 -91 2688 -91 
Q 1594 -91 976 548 
Q 359 1188 359 2328 
Q 359 3472 976 4111 
Q 1594 4750 2688 4750 
Q 3144 4750 3555 4637 
Q 3966 4525 4313 4306 
L 4313 3634 
Q 3963 3931 3569 4081 
Q 3175 4231 2741 4231 
Q 1884 4231 1454 3753 
Q 1025 3275 1025 2328 
Q 1025 1384 1454 906 
Q 1884 428 2741 428 
Q 3075 428 3337 486 
Q 3600 544 3809 666 
z
" transform="scale(0.015625)"/>
       <path id="DejaVuSans-65" d="M 3597 1894 
L 3597 1613 
L 953 1613 
Q 991 1019 1311 708 
Q 1631 397 2203 397 
Q 2534 397 2845 478 
Q 3156 559 3463 722 
L 3463 178 
Q 3153 47 2828 -22 
Q 2503 -91 2169 -91 
Q 1331 -91 842 396 
Q 353 884 353 1716 
Q 353 2575 817 3079 
Q 1281 3584 2069 3584 
Q 2775 3584 3186 3129 
Q 3597 2675 3597 1894 
z
M 3022 2063 
Q 3016 2534 2758 2815 
Q 2500 3097 2075 3097 
Q 1594 3097 1305 2825 
Q 1016 2553 972 2059 
L 3022 2063 
z
" transform="scale(0.015625)"/>
       <path id="DejaVuSans-6e" d="M 3513 2113 
L 3513 0 
L 2938 0 
L 2938 2094 
Q 2938 2591 2744 2837 
Q 2550 3084 2163 3084 
Q 1697 3084 1428 2787 
Q 1159 2491 1159 1978 
L 1159 0 
L 581 0 
L 581 3500 
L 1159 3500 
L 1159 2956 
Q 1366 3272 1645 3428 
Q 1925 3584 2291 3584 
Q 2894 3584 3203 3211 
Q 3513 2838 3513 2113 
z
" transform="scale(0.015625)"/>
       <path id="DejaVuSans-72" d="M 2631 2963 
Q 2534 3019 2420 3045 
Q 2306 3072 2169 3072 
Q 1681 3072 1420 2755 
Q 1159 2438 1159 1844 
L 1159 0 
L 581 0 
L 581 3500 
L 1159 3500 
L 1159 2956 
Q 1341 3275 1631 3429 
Q 1922 3584 2338 3584 
Q 2397 3584 2469 3576 
Q 2541 3569 2628 3553 
L 2631 2963 
z
" transform="scale(0.015625)"/>
       <path id="DejaVuSans-61" d="M 2194 1759 
Q 1497 1759 1228 1600 
Q 959 1441 959 1056 
Q 959 750 1161 570 
Q 1363 391 1709 391 
Q 2188 391 2477 730 
Q 2766 1069 2766 1631 
L 2766 1759 
L 2194 1759 
z
M 3341 1997 
L 3341 0 
L 2766 0 
L 2766 531 
Q 2569 213 2275 61 
Q 1981 -91 1556 -91 
Q 1019 -91 701 211 
Q 384 513 384 1019 
Q 384 1609 779 1909 
Q 1175 2209 1959 2209 
L 2766 2209 
L 2766 2266 
Q 2766 2663 2505 2880 
Q 2244 3097 1772 3097 
Q 1472 3097 1187 3025 
Q 903 2953 641 2809 
L 641 3341 
Q 956 3463 1253 3523 
Q 1550 3584 1831 3584 
Q 2591 3584 2966 3190 
Q 3341 2797 3341 1997 
z
" transform="scale(0.015625)"/>
       <path id="DejaVuSans-74" d="M 1172 4494 
L 1172 3500 
L 2356 3500 
L 2356 3053 
L 1172 3053 
L 1172 1153 
Q 1172 725 1289 603 
Q 1406 481 1766 481 
L 2356 481 
L 2356 0 
L 1766 0 
Q 1100 0 847 248 
Q 594 497 594 1153 
L 594 3053 
L 172 3053 
L 172 3500 
L 594 3500 
L 594 4494 
L 1172 4494 
z
" transform="scale(0.015625)"/>
       <path id="DejaVuSans-69" d="M 603 3500 
L 1178 3500 
L 1178 0 
L 603 0 
L 603 3500 
z
M 603 4863 
L 1178 4863 
L 1178 4134 
L 603 4134 
L 603 4863 
z
" transform="scale(0.015625)"/>
       <path id="DejaVuSans-6f" d="M 1959 3097 
Q 1497 3097 1228 2736 
Q 959 2375 959 1747 
Q 959 1119 1226 758 
Q 1494 397 1959 397 
Q 2419 397 2687 759 
Q 2956 1122 2956 1747 
Q 2956 2369 2687 2733 
Q 2419 3097 1959 3097 
z
M 1959 3584 
Q 2709 3584 3137 3096 
Q 3566 2609 3566 1747 
Q 3566 888 3137 398 
Q 2709 -91 1959 -91 
Q 1206 -91 779 398 
Q 353 888 353 1747 
Q 353 2609 779 3096 
Q 1206 3584 1959 3584 
z
" transform="scale(0.015625)"/>
      </defs>
      <use xlink:href="#DejaVuSans-47"/>
      <use xlink:href="#DejaVuSans-65" x="77.490234"/>
      <use xlink:href="#DejaVuSans-6e" x="139.013672"/>
      <use xlink:href="#DejaVuSans-65" x="202.392578"/>
      <use xlink:href="#DejaVuSans-72" x="263.916016"/>
      <use xlink:href="#DejaVuSans-61" x="305.029297"/>
      <use xlink:href="#DejaVuSans-74" x="366.308594"/>
      <use xlink:href="#DejaVuSans-69" x="405.517578"/>
      <use xlink:href="#DejaVuSans-6f" x="433.300781"/>
      <use xlink:href="#DejaVuSans-6e" x="494.482422"/>
     </g>
    </g>
   </g>
   <g id="matplotlib.axis_2">
    <g id="ytick_1">
     <g id="line2d_6">
      <path d="M 67.3075 302.276175 
L 339.47758 302.276175 
" clip-path="url(#paeaa2a9626)" style="fill: none; stroke: #ffffff; stroke-linecap: round"/>
     </g>
     <g id="text_7">
      <!-- 0 -->
      <g style="fill: #262626" transform="translate(50.80875 306.455316)scale(0.11 -0.11)">
       <use xlink:href="#DejaVuSans-30"/>
      </g>
     </g>
    </g>
    <g id="ytick_2">
     <g id="line2d_7">
      <path d="M 67.3075 267.374664 
L 339.47758 267.374664 
" clip-path="url(#paeaa2a9626)" style="fill: none; stroke: #ffffff; stroke-linecap: round"/>
     </g>
     <g id="text_8">
      <!-- 2000 -->
      <g style="fill: #262626" transform="translate(29.8125 271.553805)scale(0.11 -0.11)">
       <use xlink:href="#DejaVuSans-32"/>
       <use xlink:href="#DejaVuSans-30" x="63.623047"/>
       <use xlink:href="#DejaVuSans-30" x="127.246094"/>
       <use xlink:href="#DejaVuSans-30" x="190.869141"/>
      </g>
     </g>
    </g>
    <g id="ytick_3">
     <g id="line2d_8">
      <path d="M 67.3075 232.473154 
L 339.47758 232.473154 
" clip-path="url(#paeaa2a9626)" style="fill: none; stroke: #ffffff; stroke-linecap: round"/>
     </g>
     <g id="text_9">
      <!-- 4000 -->
      <g style="fill: #262626" transform="translate(29.8125 236.652294)scale(0.11 -0.11)">
       <defs>
        <path id="DejaVuSans-34" d="M 2419 4116 
L 825 1625 
L 2419 1625 
L 2419 4116 
z
M 2253 4666 
L 3047 4666 
L 3047 1625 
L 3713 1625 
L 3713 1100 
L 3047 1100 
L 3047 0 
L 2419 0 
L 2419 1100 
L 313 1100 
L 313 1709 
L 2253 4666 
z
" transform="scale(0.015625)"/>
       </defs>
       <use xlink:href="#DejaVuSans-34"/>
       <use xlink:href="#DejaVuSans-30" x="63.623047"/>
       <use xlink:href="#DejaVuSans-30" x="127.246094"/>
       <use xlink:href="#DejaVuSans-30" x="190.869141"/>
      </g>
     </g>
    </g>
    <g id="ytick_4">
     <g id="line2d_9">
      <path d="M 67.3075 197.571643 
L 339.47758 197.571643 
" clip-path="url(#paeaa2a9626)" style="fill: none; stroke: #ffffff; stroke-linecap: round"/>
     </g>
     <g id="text_10">
      <!-- 6000 -->
      <g style="fill: #262626" transform="translate(29.8125 201.750784)scale(0.11 -0.11)">
       <defs>
        <path id="DejaVuSans-36" d="M 2113 2584 
Q 1688 2584 1439 2293 
Q 1191 2003 1191 1497 
Q 1191 994 1439 701 
Q 1688 409 2113 409 
Q 2538 409 2786 701 
Q 3034 994 3034 1497 
Q 3034 2003 2786 2293 
Q 2538 2584 2113 2584 
z
M 3366 4563 
L 3366 3988 
Q 3128 4100 2886 4159 
Q 2644 4219 2406 4219 
Q 1781 4219 1451 3797 
Q 1122 3375 1075 2522 
Q 1259 2794 1537 2939 
Q 1816 3084 2150 3084 
Q 2853 3084 3261 2657 
Q 3669 2231 3669 1497 
Q 3669 778 3244 343 
Q 2819 -91 2113 -91 
Q 1303 -91 875 529 
Q 447 1150 447 2328 
Q 447 3434 972 4092 
Q 1497 4750 2381 4750 
Q 2619 4750 2861 4703 
Q 3103 4656 3366 4563 
z
" transform="scale(0.015625)"/>
       </defs>
       <use xlink:href="#DejaVuSans-36"/>
       <use xlink:href="#DejaVuSans-30" x="63.623047"/>
       <use xlink:href="#DejaVuSans-30" x="127.246094"/>
       <use xlink:href="#DejaVuSans-30" x="190.869141"/>
      </g>
     </g>
    </g>
    <g id="ytick_5">
     <g id="line2d_10">
      <path d="M 67.3075 162.670133 
L 339.47758 162.670133 
" clip-path="url(#paeaa2a9626)" style="fill: none; stroke: #ffffff; stroke-linecap: round"/>
     </g>
     <g id="text_11">
      <!-- 8000 -->
      <g style="fill: #262626" transform="translate(29.8125 166.849273)scale(0.11 -0.11)">
       <defs>
        <path id="DejaVuSans-38" d="M 2034 2216 
Q 1584 2216 1326 1975 
Q 1069 1734 1069 1313 
Q 1069 891 1326 650 
Q 1584 409 2034 409 
Q 2484 409 2743 651 
Q 3003 894 3003 1313 
Q 3003 1734 2745 1975 
Q 2488 2216 2034 2216 
z
M 1403 2484 
Q 997 2584 770 2862 
Q 544 3141 544 3541 
Q 544 4100 942 4425 
Q 1341 4750 2034 4750 
Q 2731 4750 3128 4425 
Q 3525 4100 3525 3541 
Q 3525 3141 3298 2862 
Q 3072 2584 2669 2484 
Q 3125 2378 3379 2068 
Q 3634 1759 3634 1313 
Q 3634 634 3220 271 
Q 2806 -91 2034 -91 
Q 1263 -91 848 271 
Q 434 634 434 1313 
Q 434 1759 690 2068 
Q 947 2378 1403 2484 
z
M 1172 3481 
Q 1172 3119 1398 2916 
Q 1625 2713 2034 2713 
Q 2441 2713 2670 2916 
Q 2900 3119 2900 3481 
Q 2900 3844 2670 4047 
Q 2441 4250 2034 4250 
Q 1625 4250 1398 4047 
Q 1172 3844 1172 3481 
z
" transform="scale(0.015625)"/>
       </defs>
       <use xlink:href="#DejaVuSans-38"/>
       <use xlink:href="#DejaVuSans-30" x="63.623047"/>
       <use xlink:href="#DejaVuSans-30" x="127.246094"/>
       <use xlink:href="#DejaVuSans-30" x="190.869141"/>
      </g>
     </g>
    </g>
    <g id="ytick_6">
     <g id="line2d_11">
      <path d="M 67.3075 127.768622 
L 339.47758 127.768622 
" clip-path="url(#paeaa2a9626)" style="fill: none; stroke: #ffffff; stroke-linecap: round"/>
     </g>
     <g id="text_12">
      <!-- 10000 -->
      <g style="fill: #262626" transform="translate(22.81375 131.947763)scale(0.11 -0.11)">
       <use xlink:href="#DejaVuSans-31"/>
       <use xlink:href="#DejaVuSans-30" x="63.623047"/>
       <use xlink:href="#DejaVuSans-30" x="127.246094"/>
       <use xlink:href="#DejaVuSans-30" x="190.869141"/>
       <use xlink:href="#DejaVuSans-30" x="254.492188"/>
      </g>
     </g>
    </g>
    <g id="ytick_7">
     <g id="line2d_12">
      <path d="M 67.3075 92.867111 
L 339.47758 92.867111 
" clip-path="url(#paeaa2a9626)" style="fill: none; stroke: #ffffff; stroke-linecap: round"/>
     </g>
     <g id="text_13">
      <!-- 12000 -->
      <g style="fill: #262626" transform="translate(22.81375 97.046252)scale(0.11 -0.11)">
       <use xlink:href="#DejaVuSans-31"/>
       <use xlink:href="#DejaVuSans-32" x="63.623047"/>
       <use xlink:href="#DejaVuSans-30" x="127.246094"/>
       <use xlink:href="#DejaVuSans-30" x="190.869141"/>
       <use xlink:href="#DejaVuSans-30" x="254.492188"/>
      </g>
     </g>
    </g>
    <g id="ytick_8">
     <g id="line2d_13">
      <path d="M 67.3075 57.965601 
L 339.47758 57.965601 
" clip-path="url(#paeaa2a9626)" style="fill: none; stroke: #ffffff; stroke-linecap: round"/>
     </g>
     <g id="text_14">
      <!-- 14000 -->
      <g style="fill: #262626" transform="translate(22.81375 62.144741)scale(0.11 -0.11)">
       <use xlink:href="#DejaVuSans-31"/>
       <use xlink:href="#DejaVuSans-34" x="63.623047"/>
       <use xlink:href="#DejaVuSans-30" x="127.246094"/>
       <use xlink:href="#DejaVuSans-30" x="190.869141"/>
       <use xlink:href="#DejaVuSans-30" x="254.492188"/>
      </g>
     </g>
    </g>
    <g id="ytick_9">
     <g id="line2d_14">
      <path d="M 67.3075 23.06409 
L 339.47758 23.06409 
" clip-path="url(#paeaa2a9626)" style="fill: none; stroke: #ffffff; stroke-linecap: round"/>
     </g>
     <g id="text_15">
      <!-- 16000 -->
      <g style="fill: #262626" transform="translate(22.81375 27.243231)scale(0.11 -0.11)">
       <use xlink:href="#DejaVuSans-31"/>
       <use xlink:href="#DejaVuSans-36" x="63.623047"/>
       <use xlink:href="#DejaVuSans-30" x="127.246094"/>
       <use xlink:href="#DejaVuSans-30" x="190.869141"/>
       <use xlink:href="#DejaVuSans-30" x="254.492188"/>
      </g>
     </g>
    </g>
    <g id="text_16">
     <!-- Fitness -->
     <g style="fill: #262626" transform="translate(16.318125 189.7423)rotate(-90)scale(0.12 -0.12)">
      <defs>
       <path id="DejaVuSans-46" d="M 628 4666 
L 3309 4666 
L 3309 4134 
L 1259 4134 
L 1259 2759 
L 3109 2759 
L 3109 2228 
L 1259 2228 
L 1259 0 
L 628 0 
L 628 4666 
z
" transform="scale(0.015625)"/>
       <path id="DejaVuSans-73" d="M 2834 3397 
L 2834 2853 
Q 2591 2978 2328 3040 
Q 2066 3103 1784 3103 
Q 1356 3103 1142 2972 
Q 928 2841 928 2578 
Q 928 2378 1081 2264 
Q 1234 2150 1697 2047 
L 1894 2003 
Q 2506 1872 2764 1633 
Q 3022 1394 3022 966 
Q 3022 478 2636 193 
Q 2250 -91 1575 -91 
Q 1294 -91 989 -36 
Q 684 19 347 128 
L 347 722 
Q 666 556 975 473 
Q 1284 391 1588 391 
Q 1994 391 2212 530 
Q 2431 669 2431 922 
Q 2431 1156 2273 1281 
Q 2116 1406 1581 1522 
L 1381 1569 
Q 847 1681 609 1914 
Q 372 2147 372 2553 
Q 372 3047 722 3315 
Q 1072 3584 1716 3584 
Q 2034 3584 2315 3537 
Q 2597 3491 2834 3397 
z
" transform="scale(0.015625)"/>
      </defs>
      <use xlink:href="#DejaVuSans-46"/>
      <use xlink:href="#DejaVuSans-69" x="50.269531"/>
      <use xlink:href="#DejaVuSans-74" x="78.052734"/>
      <use xlink:href="#DejaVuSans-6e" x="117.261719"/>
      <use xlink:href="#DejaVuSans-65" x="180.640625"/>
      <use xlink:href="#DejaVuSans-73" x="242.164062"/>
      <use xlink:href="#DejaVuSans-73" x="294.263672"/>
     </g>
    </g>
   </g>
   <g id="PolyCollection_1">
    <defs>
     <path id="m8cc450f9cb" d="M 79.678867 -56.298554 
L 79.678867 -56.290919 
L 80.922221 -56.309461 
L 82.165574 -56.37925 
L 83.408928 -56.390143 
L 84.652281 -56.519333 
L 85.895635 -56.619743 
L 87.138988 -56.778354 
L 88.382342 -56.878233 
L 89.625695 -57.101275 
L 90.869049 -57.218536 
L 92.112402 -57.241972 
L 93.355756 -57.028214 
L 94.599109 -57.294338 
L 95.842463 -57.108378 
L 97.085816 -57.186907 
L 98.32917 -57.20872 
L 99.572523 -57.202162 
L 100.815877 -57.136177 
L 102.05923 -57.280704 
L 103.302584 -57.245803 
L 104.545937 -57.068023 
L 105.789291 -57.102298 
L 107.032644 -57.070164 
L 108.275998 -57.088732 
L 109.519351 -56.846562 
L 110.762705 -57.080552 
L 112.006058 -57.187997 
L 113.249412 -57.253438 
L 114.492765 -57.140539 
L 115.736119 -57.240131 
L 116.979472 -57.153641 
L 118.222826 -57.21067 
L 119.466179 -57.19236 
L 120.709533 -57.253438 
L 121.952886 -57.120376 
L 123.19624 -57.253438 
L 124.439593 -57.353234 
L 125.682947 -57.103334 
L 126.9263 -57.253438 
L 128.169654 -57.220172 
L 129.413007 -57.137826 
L 130.656361 -57.276342 
L 131.899714 -57.042883 
L 133.143068 -57.044015 
L 134.386421 -57.163743 
L 135.629775 -57.144902 
L 136.873128 -57.15255 
L 138.116482 -57.186907 
L 139.359835 -57.224535 
L 140.603189 -57.266526 
L 141.846542 -57.152809 
L 143.089896 -57.171637 
L 144.333249 -57.145965 
L 145.576602 -57.258891 
L 146.819956 -57.086565 
L 148.063309 -57.154732 
L 149.306663 -57.186879 
L 150.550016 -57.279068 
L 151.79337 -57.21904 
L 153.036723 -57.089291 
L 154.280077 -57.264876 
L 155.52343 -57.271434 
L 156.766784 -57.143811 
L 158.010137 -57.1978 
L 159.253491 -57.250711 
L 160.496844 -57.349948 
L 161.740198 -57.277978 
L 162.983551 -57.162298 
L 164.226905 -57.059216 
L 165.470258 -57.015126 
L 166.713612 -57.049468 
L 167.956965 -57.157445 
L 169.200319 -57.122557 
L 170.443672 -57.148733 
L 171.687026 -57.224494 
L 172.930379 -57.167274 
L 174.173733 -57.230956 
L 175.417086 -57.298155 
L 176.66044 -57.325286 
L 177.903793 -57.318264 
L 179.147147 -57.330316 
L 180.3905 -57.396234 
L 181.633854 -57.605057 
L 182.877207 -57.803627 
L 184.120561 -57.487278 
L 185.363914 -57.671438 
L 186.607268 -57.764895 
L 187.850621 -57.833675 
L 189.093975 -57.863669 
L 190.337328 -57.730607 
L 191.580682 -57.805318 
L 192.824035 -57.827131 
L 194.067389 -57.924201 
L 195.310742 -57.924787 
L 196.554096 -57.712611 
L 197.797449 -57.805318 
L 199.040803 -58.086166 
L 200.284156 -57.736946 
L 201.52751 -57.991277 
L 202.770863 -57.805318 
L 204.014217 -57.776415 
L 205.25757 -57.86131 
L 206.500924 -57.899661 
L 207.744277 -57.923642 
L 208.987631 -57.714792 
L 210.230984 -57.653155 
L 211.474338 -57.777506 
L 212.717691 -57.862033 
L 213.961045 -57.917657 
L 215.204398 -57.815134 
L 216.447752 -57.917657 
L 217.691105 -57.944351 
L 218.934459 -57.671124 
L 220.177812 -57.749148 
L 221.421166 -57.692978 
L 222.664519 -57.917112 
L 223.907873 -57.936198 
L 225.151226 -57.917112 
L 226.39458 -57.813498 
L 227.637933 -57.521048 
L 228.881287 -57.82495 
L 230.12464 -57.786176 
L 231.367994 -57.848386 
L 232.611347 -57.77696 
L 233.854701 -57.5937 
L 235.098054 -57.805318 
L 236.341408 -57.636809 
L 237.584761 -57.807499 
L 238.828115 -57.818406 
L 240.071468 -57.916566 
L 241.314822 -58.086166 
L 242.558175 -57.862578 
L 243.801529 -57.706612 
L 245.044882 -57.906587 
L 246.288236 -57.878393 
L 247.531589 -57.847281 
L 248.774943 -58.172274 
L 250.018296 -58.149398 
L 251.26165 -58.013541 
L 252.505003 -58.284627 
L 253.748357 -58.818552 
L 254.99171 -58.753016 
L 256.235064 -58.677037 
L 257.478417 -58.956522 
L 258.721771 -59.247732 
L 259.965124 -58.852908 
L 261.208478 -59.335531 
L 262.451831 -58.655469 
L 263.695184 -58.933073 
L 264.938538 -59.167022 
L 266.181891 -59.464775 
L 267.425245 -58.980517 
L 268.668598 -58.96852 
L 269.911952 -58.869268 
L 271.155305 -58.883952 
L 272.398659 -59.052501 
L 273.642012 -58.973973 
L 274.885366 -59.464775 
L 276.128719 -59.464775 
L 277.372073 -58.978336 
L 278.615426 -59.167022 
L 279.85878 -58.991424 
L 281.102133 -58.942343 
L 282.345487 -59.322988 
L 283.58884 -58.979208 
L 284.832194 -58.795103 
L 286.075547 -59.216102 
L 287.318901 -58.96852 
L 288.562254 -58.988152 
L 289.805608 -59.185018 
L 291.048961 -58.681618 
L 292.292315 -58.756929 
L 293.535668 -58.935799 
L 294.779022 -58.779833 
L 296.022375 -58.884538 
L 297.265729 -59.193198 
L 298.509082 -59.167022 
L 299.752436 -59.041049 
L 300.995789 -59.464775 
L 302.239143 -59.080859 
L 303.482496 -58.988152 
L 304.72585 -58.774271 
L 305.969203 -59.464775 
L 307.212557 -58.981608 
L 308.45591 -58.888901 
L 309.699264 -58.689853 
L 310.942617 -59.181746 
L 312.185971 -59.167022 
L 313.429324 -59.087403 
L 314.672678 -59.000149 
L 315.916031 -58.869268 
L 317.159385 -58.970115 
L 318.402738 -58.871436 
L 319.646092 -58.979876 
L 320.889445 -58.990333 
L 322.132799 -58.96961 
L 323.376152 -59.185018 
L 324.619506 -59.464775 
L 325.862859 -59.17193 
L 327.106213 -59.464775 
L 327.106213 -59.464775 
L 327.106213 -59.464775 
L 325.862859 -59.464775 
L 324.619506 -59.464775 
L 323.376152 -59.464775 
L 322.132799 -59.464775 
L 320.889445 -59.464775 
L 319.646092 -59.464775 
L 318.402738 -59.464775 
L 317.159385 -59.466411 
L 315.916031 -59.464775 
L 314.672678 -59.464775 
L 313.429324 -59.464775 
L 312.185971 -59.464775 
L 310.942617 -59.464775 
L 309.699264 -59.372068 
L 308.45591 -59.464775 
L 307.212557 -59.464775 
L 305.969203 -59.464775 
L 304.72585 -59.39879 
L 303.482496 -59.464775 
L 302.239143 -59.464775 
L 300.995789 -59.464775 
L 299.752436 -59.464775 
L 298.509082 -59.464775 
L 297.265729 -59.464775 
L 296.022375 -59.464775 
L 294.779022 -59.464775 
L 293.535668 -59.464775 
L 292.292315 -59.397699 
L 291.048961 -59.367706 
L 289.805608 -59.464775 
L 288.562254 -59.464775 
L 287.318901 -59.464775 
L 286.075547 -59.464775 
L 284.832194 -59.435327 
L 283.58884 -59.464775 
L 282.345487 -59.464775 
L 281.102133 -59.464775 
L 279.85878 -59.464775 
L 278.615426 -59.464775 
L 277.372073 -59.464775 
L 276.128719 -59.464775 
L 274.885366 -59.464775 
L 273.642012 -59.464775 
L 272.398659 -59.464775 
L 271.155305 -59.464775 
L 269.911952 -59.464775 
L 268.668598 -59.464775 
L 267.425245 -59.464775 
L 266.181891 -59.464775 
L 264.938538 -59.464775 
L 263.695184 -59.464775 
L 262.451831 -59.328987 
L 261.208478 -59.464775 
L 259.965124 -59.421694 
L 258.721771 -59.464775 
L 257.478417 -59.378612 
L 256.235064 -59.249368 
L 254.99171 -59.279361 
L 253.748357 -59.249368 
L 252.505003 -58.983789 
L 251.26165 -58.755893 
L 250.018296 -58.719301 
L 248.774943 -58.687181 
L 247.531589 -58.387737 
L 246.288236 -58.301574 
L 245.044882 -58.279283 
L 243.801529 -58.129247 
L 242.558175 -58.172329 
L 241.314822 -58.086166 
L 240.071468 -58.086166 
L 238.828115 -58.086166 
L 237.584761 -58.086166 
L 236.341408 -58.029996 
L 235.098054 -58.086166 
L 233.854701 -58.029996 
L 232.611347 -58.086166 
L 231.367994 -58.063807 
L 230.12464 -58.06817 
L 228.881287 -58.086166 
L 227.637933 -57.982007 
L 226.39458 -58.086166 
L 225.151226 -58.086166 
L 223.907873 -58.086166 
L 222.664519 -58.086166 
L 221.421166 -58.037086 
L 220.177812 -58.086166 
L 218.934459 -58.035995 
L 217.691105 -58.086166 
L 216.447752 -58.086166 
L 215.204398 -58.086166 
L 213.961045 -58.086166 
L 212.717691 -58.086166 
L 211.474338 -58.086166 
L 210.230984 -58.034904 
L 208.987631 -58.094359 
L 207.744277 -58.151129 
L 206.500924 -58.133065 
L 205.25757 -58.133065 
L 204.014217 -58.086166 
L 202.770863 -58.086166 
L 201.52751 -58.086166 
L 200.284156 -58.086166 
L 199.040803 -58.086166 
L 197.797449 -58.086166 
L 196.554096 -58.086166 
L 195.310742 -58.086166 
L 194.067389 -58.086166 
L 192.824035 -58.086166 
L 191.580682 -58.086166 
L 190.337328 -58.062716 
L 189.093975 -58.088347 
L 187.850621 -58.086166 
L 186.607268 -58.086166 
L 185.363914 -58.047447 
L 184.120561 -57.944937 
L 182.877207 -58.083984 
L 181.633854 -57.981489 
L 180.3905 -57.840765 
L 179.147147 -57.733442 
L 177.903793 -57.686434 
L 176.66044 -57.559371 
L 175.417086 -57.563188 
L 174.173733 -57.490768 
L 172.930379 -57.434489 
L 171.687026 -57.438306 
L 170.443672 -57.388695 
L 169.200319 -57.353234 
L 167.956965 -57.352143 
L 166.713612 -57.292729 
L 165.470258 -57.278059 
L 164.226905 -57.682617 
L 162.983551 -57.352157 
L 161.740198 -57.352689 
L 160.496844 -57.353234 
L 159.253491 -57.352143 
L 158.010137 -57.352689 
L 156.766784 -57.351598 
L 155.52343 -57.353234 
L 154.280077 -57.352143 
L 153.036723 -57.321059 
L 151.79337 -57.364154 
L 150.550016 -57.352143 
L 149.306663 -57.357051 
L 148.063309 -57.352157 
L 146.819956 -57.319423 
L 145.576602 -57.353234 
L 144.333249 -57.353234 
L 143.089896 -57.353234 
L 141.846542 -57.353234 
L 140.603189 -57.353234 
L 139.359835 -57.353234 
L 138.116482 -57.353234 
L 136.873128 -57.353234 
L 135.629775 -57.330875 
L 134.386421 -57.353234 
L 133.143068 -57.295974 
L 131.899714 -57.389267 
L 130.656361 -57.766163 
L 129.413007 -57.461783 
L 128.169654 -57.427945 
L 126.9263 -57.399042 
L 125.682947 -57.326513 
L 124.439593 -57.353234 
L 123.19624 -57.353234 
L 121.952886 -57.353234 
L 120.709533 -57.353234 
L 119.466179 -57.353234 
L 118.222826 -57.353234 
L 116.979472 -57.348926 
L 115.736119 -57.353234 
L 114.492765 -57.349417 
L 113.249412 -57.35487 
L 112.006058 -57.353234 
L 110.762705 -57.302518 
L 109.519351 -57.147656 
L 108.275998 -57.80649 
L 107.032644 -57.303077 
L 105.789291 -57.313479 
L 104.545937 -57.303608 
L 103.302584 -57.352143 
L 102.05923 -57.353234 
L 100.815877 -57.352689 
L 99.572523 -57.353779 
L 98.32917 -57.353234 
L 97.085816 -57.353234 
L 95.842463 -57.326513 
L 94.599109 -57.354325 
L 93.355756 -57.294338 
L 92.112402 -57.400133 
L 90.869049 -57.336329 
L 89.625695 -57.28838 
L 88.382342 -57.150396 
L 87.138988 -57.05713 
L 85.895635 -56.895711 
L 84.652281 -56.745212 
L 83.408928 -56.549968 
L 82.165574 -56.522155 
L 80.922221 -56.34 
L 79.678867 -56.298554 
z
" style="stroke: #edd1cb; stroke-opacity: 0.2"/>
    </defs>
    <g clip-path="url(#paeaa2a9626)">
     <use xlink:href="#m8cc450f9cb" x="0" y="358.564913" style="fill: #edd1cb; fill-opacity: 0.2; stroke: #edd1cb; stroke-opacity: 0.2"/>
    </g>
   </g>
   <g id="PolyCollection_2">
    <defs>
     <path id="m0f2ecac014" d="M 79.678867 -56.438215 
L 79.678867 -56.293646 
L 80.922221 -56.768566 
L 82.165574 -57.362914 
L 83.408928 -57.405586 
L 84.652281 -57.198863 
L 85.895635 -57.18084 
L 87.138988 -57.537012 
L 88.382342 -58.743637 
L 89.625695 -71.362905 
L 90.869049 -76.177691 
L 92.112402 -75.385263 
L 93.355756 -79.749097 
L 94.599109 -74.097616 
L 95.842463 -74.879546 
L 97.085816 -77.713657 
L 98.32917 -77.635374 
L 99.572523 -76.105707 
L 100.815877 -76.087465 
L 102.05923 -76.097281 
L 103.302584 -74.052312 
L 104.545937 -75.312093 
L 105.789291 -74.666674 
L 107.032644 -76.307263 
L 108.275998 -76.058262 
L 109.519351 -74.673054 
L 110.762705 -79.581979 
L 112.006058 -76.054336 
L 113.249412 -73.828179 
L 114.492765 -77.295085 
L 115.736119 -77.323987 
L 116.979472 -75.156004 
L 118.222826 -75.920592 
L 119.466179 -79.366026 
L 120.709533 -73.057128 
L 121.952886 -74.025849 
L 123.19624 -73.010215 
L 124.439593 -75.846045 
L 125.682947 -75.753474 
L 126.9263 -73.87351 
L 128.169654 -75.14537 
L 129.413007 -75.763781 
L 130.656361 -75.773352 
L 131.899714 -75.97349 
L 133.143068 -75.056044 
L 134.386421 -71.813598 
L 135.629775 -75.98167 
L 136.873128 -74.151358 
L 138.116482 -75.488073 
L 139.359835 -74.909785 
L 140.603189 -74.955647 
L 141.846542 -72.036381 
L 143.089896 -68.211244 
L 144.333249 -74.868066 
L 145.576602 -76.017267 
L 146.819956 -73.795009 
L 148.063309 -74.120792 
L 149.306663 -73.123263 
L 150.550016 -73.104708 
L 151.79337 -73.692594 
L 153.036723 -72.173547 
L 154.280077 -75.155186 
L 155.52343 -75.16492 
L 156.766784 -72.291053 
L 158.010137 -73.712404 
L 159.253491 -74.124201 
L 160.496844 -73.693671 
L 161.740198 -71.518776 
L 162.983551 -70.889335 
L 164.226905 -73.0192 
L 165.470258 -72.881093 
L 166.713612 -74.093662 
L 167.956965 -74.289683 
L 169.200319 -74.822667 
L 170.443672 -74.178475 
L 171.687026 -75.448863 
L 172.930379 -74.097302 
L 174.173733 -69.839768 
L 175.417086 -71.856543 
L 176.66044 -69.919946 
L 177.903793 -73.288896 
L 179.147147 -74.6306 
L 180.3905 -72.052114 
L 181.633854 -72.301278 
L 182.877207 -74.511417 
L 184.120561 -74.438014 
L 185.363914 -72.845537 
L 186.607268 -68.690949 
L 187.850621 -74.223711 
L 189.093975 -68.761365 
L 190.337328 -71.286844 
L 191.580682 -74.161856 
L 192.824035 -73.562409 
L 194.067389 -74.754023 
L 195.310742 -70.25969 
L 196.554096 -73.700693 
L 197.797449 -73.153911 
L 199.040803 -69.447262 
L 200.284156 -72.868114 
L 201.52751 -71.314929 
L 202.770863 -72.85898 
L 204.014217 -73.264901 
L 205.25757 -74.127214 
L 206.500924 -71.701695 
L 207.744277 -71.552068 
L 208.987631 -71.206816 
L 210.230984 -75.058089 
L 211.474338 -74.248224 
L 212.717691 -74.768365 
L 213.961045 -69.69404 
L 215.204398 -74.084746 
L 216.447752 -73.628081 
L 217.691105 -72.593088 
L 218.934459 -72.790349 
L 220.177812 -72.598909 
L 221.421166 -74.835796 
L 222.664519 -72.583394 
L 223.907873 -74.59773 
L 225.151226 -74.20521 
L 226.39458 -73.967839 
L 227.637933 -71.034435 
L 228.881287 -71.786467 
L 230.12464 -71.639377 
L 231.367994 -71.158922 
L 232.611347 -70.724521 
L 233.854701 -73.41191 
L 235.098054 -75.135308 
L 236.341408 -75.2803 
L 237.584761 -72.353549 
L 238.828115 -74.221966 
L 240.071468 -69.423485 
L 241.314822 -74.369765 
L 242.558175 -73.922522 
L 243.801529 -73.110175 
L 245.044882 -73.950756 
L 246.288236 -70.004582 
L 247.531589 -72.097432 
L 248.774943 -75.184089 
L 250.018296 -71.166979 
L 251.26165 -71.793693 
L 252.505003 -73.087762 
L 253.748357 -73.533029 
L 254.99171 -74.417878 
L 256.235064 -74.322267 
L 257.478417 -76.470291 
L 258.721771 -73.012492 
L 259.965124 -74.317781 
L 261.208478 -73.232331 
L 262.451831 -70.80748 
L 263.695184 -70.114044 
L 264.938538 -73.786733 
L 266.181891 -73.716766 
L 267.425245 -69.61363 
L 268.668598 -70.657922 
L 269.911952 -74.447244 
L 271.155305 -73.203114 
L 272.398659 -75.17899 
L 273.642012 -71.975726 
L 274.885366 -71.088546 
L 276.128719 -71.250252 
L 277.372073 -73.541059 
L 278.615426 -72.217842 
L 279.85878 -71.412012 
L 281.102133 -73.393532 
L 282.345487 -72.489433 
L 283.58884 -76.696306 
L 284.832194 -76.832094 
L 286.075547 -74.607587 
L 287.318901 -73.968712 
L 288.562254 -69.414978 
L 289.805608 -71.448345 
L 291.048961 -73.968453 
L 292.292315 -75.300572 
L 293.535668 -74.477701 
L 294.779022 -74.565023 
L 296.022375 -70.668106 
L 297.265729 -73.290055 
L 298.509082 -71.124961 
L 299.752436 -73.192698 
L 300.995789 -74.156498 
L 302.239143 -73.174893 
L 303.482496 -71.655846 
L 304.72585 -74.514307 
L 305.969203 -70.98571 
L 307.212557 -71.497603 
L 308.45591 -72.829436 
L 309.699264 -72.803424 
L 310.942617 -72.981544 
L 312.185971 -73.723747 
L 313.429324 -74.34832 
L 314.672678 -73.717475 
L 315.916031 -73.906148 
L 317.159385 -71.116686 
L 318.402738 -75.257654 
L 319.646092 -73.317158 
L 320.889445 -71.025342 
L 322.132799 -75.086228 
L 323.376152 -73.038109 
L 324.619506 -72.271353 
L 325.862859 -75.16263 
L 327.106213 -71.953027 
L 327.106213 -77.44418 
L 327.106213 -77.44418 
L 325.862859 -78.738044 
L 324.619506 -77.719138 
L 323.376152 -77.972638 
L 322.132799 -78.630067 
L 320.889445 -77.262692 
L 319.646092 -78.071861 
L 318.402738 -78.718412 
L 317.159385 -77.287014 
L 315.916031 -78.546222 
L 314.672678 -78.114329 
L 313.429324 -78.67064 
L 312.185971 -78.261666 
L 310.942617 -78.007075 
L 309.699264 -77.953005 
L 308.45591 -77.924225 
L 307.212557 -77.474255 
L 305.969203 -76.802714 
L 304.72585 -78.728719 
L 303.482496 -77.32726 
L 302.239143 -78.119101 
L 300.995789 -78.610926 
L 299.752436 -78.098406 
L 298.509082 -76.803246 
L 297.265729 -78.181801 
L 296.022375 -76.822292 
L 294.779022 -78.797186 
L 293.535668 -78.767738 
L 292.292315 -78.836205 
L 291.048961 -78.846021 
L 289.805608 -77.459994 
L 288.562254 -76.190179 
L 287.318901 -78.326806 
L 286.075547 -78.855837 
L 284.832194 -78.914733 
L 283.58884 -78.983445 
L 282.345487 -78.124541 
L 281.102133 -78.237439 
L 279.85878 -77.525953 
L 278.615426 -77.57776 
L 277.372073 -78.306629 
L 276.128719 -76.850758 
L 274.885366 -76.848577 
L 273.642012 -77.515414 
L 272.398659 -78.807002 
L 271.155305 -78.100601 
L 269.911952 -78.649945 
L 268.668598 -76.901038 
L 267.425245 -75.975167 
L 266.181891 -78.504831 
L 264.938538 -78.562446 
L 263.695184 -76.085052 
L 262.451831 -76.69152 
L 261.208478 -77.98229 
L 259.965124 -78.561355 
L 258.721771 -77.943189 
L 257.478417 -78.69878 
L 256.235064 -78.561355 
L 254.99171 -78.522091 
L 253.748357 -78.065099 
L 252.505003 -77.992215 
L 251.26165 -77.952855 
L 250.018296 -77.320811 
L 248.774943 -78.611744 
L 247.531589 -77.352045 
L 246.288236 -76.567334 
L 245.044882 -78.639884 
L 243.801529 -77.992024 
L 242.558175 -78.55203 
L 241.314822 -78.561601 
L 240.071468 -75.835683 
L 238.828115 -78.433992 
L 237.584761 -77.7247 
L 236.341408 -78.563591 
L 235.098054 -78.708841 
L 233.854701 -78.112107 
L 232.611347 -76.741146 
L 231.367994 -77.26625 
L 230.12464 -77.272331 
L 228.881287 -77.312576 
L 227.637933 -76.664499 
L 226.39458 -78.531948 
L 225.151226 -78.522336 
L 223.907873 -78.757676 
L 222.664519 -77.750086 
L 221.421166 -78.875469 
L 220.177812 -77.745764 
L 218.934459 -77.639519 
L 217.691105 -77.982454 
L 216.447752 -78.129694 
L 215.204398 -78.690191 
L 213.961045 -76.388722 
L 212.717691 -78.602801 
L 211.474338 -78.553911 
L 210.230984 -78.659543 
L 208.987631 -77.20141 
L 207.744277 -77.255916 
L 206.500924 -77.201928 
L 205.25757 -78.728282 
L 204.014217 -78.100601 
L 202.770863 -77.904007 
L 201.52751 -77.230421 
L 200.284156 -77.745723 
L 199.040803 -75.898111 
L 197.797449 -77.903244 
L 196.554096 -78.286001 
L 195.310742 -76.413972 
L 194.067389 -78.38378 
L 192.824035 -77.99032 
L 191.580682 -78.411565 
L 190.337328 -77.281765 
L 189.093975 -75.416415 
L 187.850621 -78.738289 
L 186.607268 -75.377042 
L 185.363914 -77.657161 
L 184.120561 -78.640674 
L 182.877207 -78.678071 
L 181.633854 -78.027716 
L 180.3905 -77.462516 
L 179.147147 -78.816572 
L 177.903793 -78.177466 
L 176.66044 -76.180227 
L 175.417086 -77.403634 
L 174.173733 -76.708208 
L 172.930379 -78.913124 
L 171.687026 -79.119793 
L 170.443672 -78.923486 
L 169.200319 -78.954965 
L 167.956965 -79.011803 
L 166.713612 -78.462131 
L 165.470258 -78.410052 
L 164.226905 -78.401613 
L 162.983551 -77.233775 
L 161.740198 -77.896604 
L 160.496844 -78.767588 
L 159.253491 -78.744588 
L 158.010137 -78.779708 
L 156.766784 -78.091303 
L 155.52343 -79.523573 
L 154.280077 -79.562592 
L 153.036723 -78.286915 
L 151.79337 -78.875469 
L 150.550016 -78.915224 
L 149.306663 -78.788747 
L 148.063309 -79.003255 
L 146.819956 -78.914733 
L 145.576602 -79.601856 
L 144.333249 -79.553022 
L 143.089896 -75.261226 
L 141.846542 -77.697897 
L 140.603189 -79.376087 
L 139.359835 -79.405535 
L 138.116482 -79.364117 
L 136.873128 -78.834119 
L 135.629775 -79.552776 
L 134.386421 -77.503417 
L 133.143068 -79.385903 
L 131.899714 -79.4448 
L 130.656361 -79.49388 
L 129.413007 -79.49388 
L 128.169654 -79.435229 
L 126.9263 -78.745924 
L 125.682947 -79.454616 
L 124.439593 -79.503941 
L 123.19624 -78.167227 
L 121.952886 -78.988353 
L 120.709533 -78.59203 
L 119.466179 -79.641121 
L 118.222826 -79.631305 
L 116.979472 -79.572654 
L 115.736119 -79.592272 
L 114.492765 -79.621488 
L 113.249412 -78.954243 
L 112.006058 -79.700017 
L 110.762705 -79.749097 
L 109.519351 -79.670814 
L 108.275998 -79.788361 
L 107.032644 -79.758913 
L 105.789291 -79.214368 
L 104.545937 -79.709833 
L 103.302584 -79.214368 
L 102.05923 -79.798423 
L 100.815877 -79.778545 
L 99.572523 -79.798177 
L 98.32917 -79.798177 
L 97.085816 -79.798177 
L 95.842463 -79.768729 
L 94.599109 -79.127659 
L 93.355756 -79.827626 
L 92.112402 -79.778791 
L 90.869049 -79.827626 
L 89.625695 -77.706445 
L 88.382342 -65.025963 
L 87.138988 -59.697648 
L 85.895635 -57.517408 
L 84.652281 -57.525601 
L 83.408928 -57.605725 
L 82.165574 -57.578635 
L 80.922221 -57.202803 
L 79.678867 -56.438215 
z
" style="stroke: #d499a7; stroke-opacity: 0.2"/>
    </defs>
    <g clip-path="url(#paeaa2a9626)">
     <use xlink:href="#m0f2ecac014" x="0" y="358.564913" style="fill: #d499a7; fill-opacity: 0.2; stroke: #d499a7; stroke-opacity: 0.2"/>
    </g>
   </g>
   <g id="PolyCollection_3">
    <defs>
     <path id="m9947833858" d="M 79.678867 -56.343817 
L 79.678867 -56.293646 
L 80.922221 -56.441964 
L 82.165574 -57.153041 
L 83.408928 -58.139418 
L 84.652281 -58.687017 
L 85.895635 -59.054942 
L 87.138988 -58.815798 
L 88.382342 -59.614198 
L 89.625695 -59.717757 
L 90.869049 -59.731336 
L 92.112402 -59.810764 
L 93.355756 -59.802039 
L 94.599109 -59.875577 
L 95.842463 -60.018946 
L 97.085816 -60.030643 
L 98.32917 -60.894483 
L 99.572523 -60.696472 
L 100.815877 -61.949027 
L 102.05923 -61.620421 
L 103.302584 -61.761717 
L 104.545937 -61.612186 
L 105.789291 -62.220318 
L 107.032644 -61.361972 
L 108.275998 -62.668012 
L 109.519351 -62.413967 
L 110.762705 -62.015749 
L 112.006058 -61.736455 
L 113.249412 -62.198545 
L 114.492765 -62.27053 
L 115.736119 -61.108323 
L 116.979472 -61.833143 
L 118.222826 -62.420933 
L 119.466179 -60.689041 
L 120.709533 -61.619916 
L 121.952886 -62.286467 
L 123.19624 -61.124083 
L 124.439593 -62.788054 
L 125.682947 -61.020606 
L 126.9263 -61.765739 
L 128.169654 -62.086383 
L 129.413007 -62.193596 
L 130.656361 -61.645002 
L 131.899714 -62.037671 
L 133.143068 -60.878246 
L 134.386421 -61.840082 
L 135.629775 -61.193832 
L 136.873128 -61.864786 
L 138.116482 -61.694982 
L 139.359835 -61.912135 
L 140.603189 -61.322463 
L 141.846542 -61.739563 
L 143.089896 -61.075671 
L 144.333249 -61.545287 
L 145.576602 -61.610114 
L 146.819956 -61.680462 
L 148.063309 -61.129182 
L 149.306663 -61.367344 
L 150.550016 -62.284054 
L 151.79337 -61.892557 
L 153.036723 -61.254991 
L 154.280077 -61.140375 
L 155.52343 -61.532894 
L 156.766784 -61.553399 
L 158.010137 -62.225349 
L 159.253491 -63.090702 
L 160.496844 -61.694109 
L 161.740198 -62.873671 
L 162.983551 -62.586279 
L 164.226905 -62.759137 
L 165.470258 -62.144134 
L 166.713612 -63.312994 
L 167.956965 -65.685874 
L 169.200319 -72.296125 
L 170.443672 -89.943256 
L 171.687026 -94.489614 
L 172.930379 -93.069095 
L 174.173733 -100.541127 
L 175.417086 -97.426603 
L 176.66044 -89.926541 
L 177.903793 -92.841349 
L 179.147147 -92.984268 
L 180.3905 -89.917434 
L 181.633854 -96.248882 
L 182.877207 -100.409701 
L 184.120561 -97.518792 
L 185.363914 -91.563013 
L 186.607268 -104.950169 
L 187.850621 -88.366498 
L 189.093975 -93.021474 
L 190.337328 -100.66001 
L 191.580682 -92.989476 
L 192.824035 -100.584754 
L 194.067389 -94.654932 
L 195.310742 -96.151635 
L 196.554096 -105.148671 
L 197.797449 -97.616107 
L 199.040803 -100.636015 
L 200.284156 -105.120314 
L 201.52751 -94.599513 
L 202.770863 -100.687113 
L 204.014217 -105.115951 
L 205.25757 -100.590207 
L 206.500924 -92.985277 
L 207.744277 -101.454401 
L 208.987631 -98.019138 
L 210.230984 -93.713437 
L 211.474338 -98.333306 
L 212.717691 -93.026927 
L 213.961045 -91.617656 
L 215.204398 -105.148671 
L 216.447752 -95.598977 
L 217.691105 -97.689769 
L 218.934459 -97.695018 
L 220.177812 -105.148671 
L 221.421166 -97.625051 
L 222.664519 -97.876069 
L 223.907873 -93.070458 
L 225.151226 -100.498045 
L 226.39458 -100.498045 
L 227.637933 -98.336087 
L 228.881287 -94.571714 
L 230.12464 -105.148671 
L 231.367994 -104.470273 
L 232.611347 -95.1375 
L 233.854701 -96.15293 
L 235.098054 -96.205705 
L 236.341408 -96.045921 
L 237.584761 -97.606128 
L 238.828115 -97.605582 
L 240.071468 -100.696548 
L 241.314822 -97.788815 
L 242.558175 -105.205386 
L 243.801529 -105.205386 
L 245.044882 -100.611475 
L 246.288236 -97.774037 
L 247.531589 -96.095533 
L 248.774943 -105.205386 
L 250.018296 -100.583118 
L 251.26165 -97.78827 
L 252.505003 -99.106797 
L 253.748357 -100.639833 
L 254.99171 -92.273286 
L 256.235064 -101.450952 
L 257.478417 -100.698184 
L 258.721771 -100.737448 
L 259.965124 -105.290459 
L 261.208478 -97.681384 
L 262.451831 -100.701456 
L 263.695184 -100.696548 
L 264.938538 -95.100499 
L 266.181891 -100.696548 
L 267.425245 -100.696548 
L 268.668598 -105.290459 
L 269.911952 -100.755444 
L 271.155305 -105.290459 
L 272.398659 -97.63394 
L 273.642012 -97.750642 
L 274.885366 -100.714544 
L 276.128719 -105.290459 
L 277.372073 -100.76526 
L 278.615426 -95.257883 
L 279.85878 -100.721088 
L 281.102133 -105.290459 
L 282.345487 -94.594237 
L 283.58884 -91.509816 
L 284.832194 -105.205386 
L 286.075547 -96.827851 
L 287.318901 -99.276492 
L 288.562254 -97.736327 
L 289.805608 -96.000386 
L 291.048961 -94.685839 
L 292.292315 -97.52051 
L 293.535668 -100.654011 
L 294.779022 -100.603513 
L 296.022375 -97.531417 
L 297.265729 -97.518329 
L 298.509082 -92.205651 
L 299.752436 -100.659846 
L 300.995789 -96.36767 
L 302.239143 -96.333491 
L 303.482496 -94.895807 
L 304.72585 -105.290459 
L 305.969203 -97.720062 
L 307.212557 -100.724905 
L 308.45591 -94.703658 
L 309.699264 -97.661589 
L 310.942617 -96.143932 
L 312.185971 -91.532556 
L 313.429324 -97.730723 
L 314.672678 -95.367646 
L 315.916031 -99.165244 
L 317.159385 -97.762094 
L 318.402738 -109.46956 
L 319.646092 -129.589313 
L 320.889445 -169.702655 
L 322.132799 -241.042434 
L 323.376152 -271.620506 
L 324.619506 -273.574718 
L 325.862859 -229.471165 
L 327.106213 -235.077902 
L 327.106213 -307.159187 
L 327.106213 -307.159187 
L 325.862859 -298.751523 
L 324.619506 -322.915556 
L 323.376152 -321.632926 
L 322.132799 -305.849113 
L 320.889445 -254.535208 
L 319.646092 -201.625554 
L 318.402738 -169.802711 
L 317.159385 -135.848613 
L 315.916031 -124.176539 
L 314.672678 -104.649144 
L 313.429324 -105.262101 
L 312.185971 -103.743886 
L 310.942617 -105.262101 
L 309.699264 -105.347174 
L 308.45591 -105.262101 
L 307.212557 -105.432246 
L 305.969203 -105.375531 
L 304.72585 -105.375531 
L 303.482496 -105.290459 
L 302.239143 -105.290459 
L 300.995789 -105.290459 
L 299.752436 -105.290459 
L 298.509082 -103.696987 
L 297.265729 -105.205386 
L 296.022375 -105.233744 
L 294.779022 -105.262101 
L 293.535668 -105.290459 
L 292.292315 -105.233744 
L 291.048961 -105.177738 
L 289.805608 -105.233744 
L 288.562254 -105.290459 
L 287.318901 -105.290459 
L 286.075547 -105.205386 
L 284.832194 -105.290459 
L 283.58884 -103.70244 
L 282.345487 -105.290459 
L 281.102133 -105.290459 
L 279.85878 -105.290459 
L 278.615426 -105.290459 
L 277.372073 -105.290459 
L 276.128719 -105.290459 
L 274.885366 -105.290459 
L 273.642012 -105.290459 
L 272.398659 -105.290459 
L 271.155305 -105.290459 
L 269.911952 -105.290459 
L 268.668598 -105.290459 
L 267.425245 -105.290459 
L 266.181891 -105.290459 
L 264.938538 -105.290459 
L 263.695184 -105.290459 
L 262.451831 -105.290459 
L 261.208478 -105.290459 
L 259.965124 -105.290459 
L 258.721771 -105.290459 
L 257.478417 -105.290459 
L 256.235064 -105.290459 
L 254.99171 -102.978397 
L 253.748357 -105.290459 
L 252.505003 -105.290459 
L 251.26165 -105.262101 
L 250.018296 -105.290459 
L 248.774943 -105.290459 
L 247.531589 -105.262101 
L 246.288236 -105.262101 
L 245.044882 -105.290459 
L 243.801529 -105.290459 
L 242.558175 -105.290459 
L 241.314822 -105.290459 
L 240.071468 -105.290459 
L 238.828115 -105.290459 
L 237.584761 -105.290459 
L 236.341408 -105.262101 
L 235.098054 -105.290459 
L 233.854701 -105.290459 
L 232.611347 -104.440062 
L 231.367994 -105.262101 
L 230.12464 -105.290459 
L 228.881287 -105.205386 
L 227.637933 -105.233744 
L 226.39458 -105.205386 
L 225.151226 -105.233744 
L 223.907873 -103.724799 
L 222.664519 -105.262101 
L 221.421166 -105.290459 
L 220.177812 -105.290459 
L 218.934459 -105.290459 
L 217.691105 -105.290459 
L 216.447752 -105.233744 
L 215.204398 -105.290459 
L 213.961045 -103.618131 
L 212.717691 -103.7597 
L 211.474338 -105.205386 
L 210.230984 -103.767335 
L 208.987631 -105.204296 
L 207.744277 -105.205386 
L 206.500924 -103.721009 
L 205.25757 -105.262101 
L 204.014217 -105.290459 
L 202.770863 -105.290459 
L 201.52751 -105.262101 
L 200.284156 -105.290459 
L 199.040803 -105.290459 
L 197.797449 -105.262101 
L 196.554096 -105.290459 
L 195.310742 -105.233744 
L 194.067389 -105.205386 
L 192.824035 -105.262101 
L 191.580682 -103.698187 
L 190.337328 -105.233744 
L 189.093975 -103.680627 
L 187.850621 -102.089881 
L 186.607268 -105.262101 
L 185.363914 -102.246475 
L 184.120561 -105.205386 
L 182.877207 -105.177029 
L 181.633854 -104.950169 
L 180.3905 -102.420478 
L 179.147147 -103.611914 
L 177.903793 -103.610824 
L 176.66044 -102.106882 
L 175.417086 -105.063599 
L 174.173733 -105.091957 
L 172.930379 -103.61246 
L 171.687026 -104.126712 
L 170.443672 -101.902722 
L 169.200319 -88.129904 
L 167.956965 -78.417795 
L 166.713612 -71.939993 
L 165.470258 -67.051055 
L 164.226905 -63.421734 
L 162.983551 -63.429369 
L 161.740198 -63.417917 
L 160.496844 -63.200887 
L 159.253491 -63.417917 
L 158.010137 -63.390664 
L 156.766784 -63.166012 
L 155.52343 -63.173661 
L 154.280077 -62.939153 
L 153.036723 -62.988192 
L 151.79337 -63.338298 
L 150.550016 -63.347569 
L 149.306663 -63.11471 
L 148.063309 -62.916221 
L 146.819956 -63.135515 
L 145.576602 -63.136005 
L 144.333249 -63.099495 
L 143.089896 -62.810467 
L 141.846542 -63.190062 
L 140.603189 -63.088534 
L 139.359835 -63.317602 
L 138.116482 -63.131166 
L 136.873128 -63.139305 
L 135.629775 -62.886228 
L 134.386421 -63.143736 
L 133.143068 -62.869309 
L 131.899714 -63.280506 
L 130.656361 -63.122345 
L 129.413007 -63.282674 
L 128.169654 -63.30341 
L 126.9263 -63.13002 
L 125.682947 -62.828477 
L 124.439593 -63.338843 
L 123.19624 -62.900966 
L 121.952886 -63.33448 
L 120.709533 -63.120163 
L 119.466179 -62.578195 
L 118.222826 -63.321392 
L 116.979472 -63.301815 
L 115.736119 -62.877039 
L 114.492765 -63.303942 
L 113.249412 -63.299579 
L 112.006058 -63.125153 
L 110.762705 -63.299579 
L 109.519351 -63.317098 
L 108.275998 -63.328482 
L 107.032644 -63.082058 
L 105.789291 -63.312735 
L 104.545937 -63.083094 
L 103.302584 -63.019849 
L 102.05923 -63.01385 
L 100.815877 -63.055309 
L 99.572523 -62.373748 
L 98.32917 -62.267421 
L 97.085816 -61.417679 
L 95.842463 -61.2557 
L 94.599109 -61.077389 
L 93.355756 -61.039761 
L 92.112402 -60.82648 
L 90.869049 -60.670677 
L 89.625695 -60.676049 
L 88.382342 -60.515338 
L 87.138988 -60.022218 
L 85.895635 -60.114407 
L 84.652281 -59.780007 
L 83.408928 -59.336649 
L 82.165574 -58.321369 
L 80.922221 -56.863031 
L 79.678867 -56.343817 
z
" style="stroke: #a9678f; stroke-opacity: 0.2"/>
    </defs>
    <g clip-path="url(#paeaa2a9626)">
     <use xlink:href="#m9947833858" x="0" y="358.564913" style="fill: #a9678f; fill-opacity: 0.2; stroke: #a9678f; stroke-opacity: 0.2"/>
    </g>
   </g>
   <g id="PolyCollection_4">
    <defs>
     <path id="m7d9689b1dc" d="M 79.678867 -56.320926 
L 79.678867 -56.291465 
L 80.922221 -56.390171 
L 82.165574 -56.468154 
L 83.408928 -56.561951 
L 84.652281 -56.744584 
L 85.895635 -56.844422 
L 87.138988 -56.771906 
L 88.382342 -56.85751 
L 89.625695 -57.132918 
L 90.869049 -57.044028 
L 92.112402 -57.316097 
L 93.355756 -57.289921 
L 94.599109 -57.632446 
L 95.842463 -57.677709 
L 97.085816 -57.692433 
L 98.32917 -57.911658 
L 99.572523 -57.759509 
L 100.815877 -57.835257 
L 102.05923 -57.586093 
L 103.302584 -57.770962 
L 104.545937 -57.661867 
L 105.789291 -57.757833 
L 107.032644 -57.759509 
L 108.275998 -57.535076 
L 109.519351 -57.612814 
L 110.762705 -57.759509 
L 112.006058 -57.547292 
L 113.249412 -57.911658 
L 114.492765 -57.911658 
L 115.736119 -57.870213 
L 116.979472 -57.746967 
L 118.222826 -57.806408 
L 119.466179 -58.14329 
L 120.709533 -58.146671 
L 121.952886 -58.675074 
L 123.19624 -59.110839 
L 124.439593 -58.900312 
L 125.682947 -58.979699 
L 126.9263 -59.332409 
L 128.169654 -58.704454 
L 129.413007 -59.033401 
L 130.656361 -59.090661 
L 131.899714 -58.861634 
L 133.143068 -59.451074 
L 134.386421 -59.087321 
L 135.629775 -59.04867 
L 136.873128 -58.906801 
L 138.116482 -59.466957 
L 139.359835 -59.050865 
L 140.603189 -59.355149 
L 141.846542 -59.192653 
L 143.089896 -58.867087 
L 144.333249 -59.237357 
L 145.576602 -59.185509 
L 146.819956 -59.415695 
L 148.063309 -59.417331 
L 149.306663 -59.197561 
L 150.550016 -59.440317 
L 151.79337 -59.404243 
L 153.036723 -59.405879 
L 154.280077 -59.726537 
L 155.52343 -59.071506 
L 156.766784 -59.726537 
L 158.010137 -59.189381 
L 159.253491 -59.261801 
L 160.496844 -58.755811 
L 161.740198 -59.101677 
L 162.983551 -59.059591 
L 164.226905 -59.466411 
L 165.470258 -59.134288 
L 166.713612 -59.77998 
L 167.956965 -59.095842 
L 169.200319 -59.363248 
L 170.443672 -59.284256 
L 171.687026 -59.816504 
L 172.930379 -59.339157 
L 174.173733 -58.925424 
L 175.417086 -59.293908 
L 176.66044 -59.033387 
L 177.903793 -59.144609 
L 179.147147 -59.737444 
L 180.3905 -59.332722 
L 181.633854 -59.121623 
L 182.877207 -58.928069 
L 184.120561 -60.09243 
L 185.363914 -59.845393 
L 186.607268 -60.08425 
L 187.850621 -60.046049 
L 189.093975 -60.142628 
L 190.337328 -59.996042 
L 191.580682 -59.972483 
L 192.824035 -59.673094 
L 194.067389 -60.982991 
L 195.310742 -60.481555 
L 196.554096 -60.467567 
L 197.797449 -60.144005 
L 199.040803 -60.982991 
L 200.284156 -60.544541 
L 201.52751 -60.982991 
L 202.770863 -60.542905 
L 204.014217 -60.544541 
L 205.25757 -60.251136 
L 206.500924 -60.889739 
L 207.744277 -60.039996 
L 208.987631 -60.573989 
L 210.230984 -60.442018 
L 211.474338 -59.893955 
L 212.717691 -59.896041 
L 213.961045 -59.569794 
L 215.204398 -60.220598 
L 216.447752 -60.490553 
L 217.691105 -60.982991 
L 218.934459 -60.982991 
L 220.177812 -60.249514 
L 221.421166 -60.249514 
L 222.664519 -60.259807 
L 223.907873 -60.982991 
L 225.151226 -60.116916 
L 226.39458 -60.043895 
L 227.637933 -60.053152 
L 228.881287 -59.959395 
L 230.12464 -59.961563 
L 231.367994 -60.547813 
L 232.611347 -60.268983 
L 233.854701 -60.572353 
L 235.098054 -60.488917 
L 236.341408 -59.6676 
L 237.584761 -60.542905 
L 238.828115 -59.852509 
L 240.071468 -60.982991 
L 241.314822 -60.271328 
L 242.558175 -60.264784 
L 243.801529 -60.113044 
L 245.044882 -60.430893 
L 246.288236 -60.247878 
L 247.531589 -60.982991 
L 248.774943 -59.380221 
L 250.018296 -60.742498 
L 251.26165 -60.542905 
L 252.505003 -59.922176 
L 253.748357 -60.547813 
L 254.99171 -59.86118 
L 256.235064 -59.83724 
L 257.478417 -60.066281 
L 258.721771 -60.098102 
L 259.965124 -60.524909 
L 261.208478 -60.129963 
L 262.451831 -60.206228 
L 263.695184 -60.542905 
L 264.938538 -60.573989 
L 266.181891 -60.12136 
L 267.425245 -60.31659 
L 268.668598 -60.744134 
L 269.911952 -60.344403 
L 271.155305 -60.099151 
L 272.398659 -60.274054 
L 273.642012 -60.012293 
L 274.885366 -60.982991 
L 276.128719 -60.554357 
L 277.372073 -60.840658 
L 278.615426 -60.083732 
L 279.85878 -60.378677 
L 281.102133 -60.270182 
L 282.345487 -59.771091 
L 283.58884 -60.228246 
L 284.832194 -59.706837 
L 286.075547 -59.698043 
L 287.318901 -59.933206 
L 288.562254 -60.03397 
L 289.805608 -60.341076 
L 291.048961 -60.048749 
L 292.292315 -59.542718 
L 293.535668 -59.802843 
L 294.779022 -59.077532 
L 296.022375 -59.690449 
L 297.265729 -59.628363 
L 298.509082 -60.012702 
L 299.752436 -59.585813 
L 300.995789 -60.423395 
L 302.239143 -59.753408 
L 303.482496 -60.024808 
L 304.72585 -59.886729 
L 305.969203 -59.848051 
L 307.212557 -60.421295 
L 308.45591 -60.380313 
L 309.699264 -60.788224 
L 310.942617 -59.947875 
L 312.185971 -60.058565 
L 313.429324 -60.283788 
L 314.672678 -60.288751 
L 315.916031 -59.896545 
L 317.159385 -60.256058 
L 318.402738 -59.891215 
L 319.646092 -59.950588 
L 320.889445 -60.265083 
L 322.132799 -60.264238 
L 323.376152 -59.810941 
L 324.619506 -60.245124 
L 325.862859 -60.307851 
L 327.106213 -60.060242 
L 327.106213 -60.873924 
L 327.106213 -60.873924 
L 325.862859 -60.912725 
L 324.619506 -60.981355 
L 323.376152 -60.8592 
L 322.132799 -61.009167 
L 320.889445 -60.974811 
L 319.646092 -60.84723 
L 318.402738 -60.838027 
L 317.159385 -60.992807 
L 315.916031 -60.886548 
L 314.672678 -61.044096 
L 313.429324 -61.01353 
L 312.185971 -60.955261 
L 310.942617 -60.911648 
L 309.699264 -61.028881 
L 308.45591 -60.989535 
L 307.212557 -60.986263 
L 305.969203 -60.839568 
L 304.72585 -60.895274 
L 303.482496 -60.929575 
L 302.239143 -60.816146 
L 300.995789 -60.999351 
L 299.752436 -60.760494 
L 298.509082 -60.927394 
L 297.265729 -60.78243 
L 296.022375 -60.79545 
L 294.779022 -60.462822 
L 293.535668 -60.862486 
L 292.292315 -60.709246 
L 291.048961 -61.005909 
L 289.805608 -61.022255 
L 288.562254 -60.918642 
L 287.318901 -60.919787 
L 286.075547 -60.800426 
L 284.832194 -60.740371 
L 283.58884 -60.992889 
L 282.345487 -60.86359 
L 281.102133 -61.022255 
L 279.85878 -61.009167 
L 278.615426 -60.93462 
L 277.372073 -61.009167 
L 276.128719 -60.992807 
L 274.885366 -60.982991 
L 273.642012 -60.982991 
L 272.398659 -60.982991 
L 271.155305 -60.982991 
L 269.911952 -60.982991 
L 268.668598 -60.982991 
L 267.425245 -60.982991 
L 266.181891 -60.990626 
L 264.938538 -61.005895 
L 263.695184 -60.982991 
L 262.451831 -60.951907 
L 261.208478 -60.951907 
L 259.965124 -60.982991 
L 258.721771 -60.920823 
L 257.478417 -60.990626 
L 256.235064 -60.866835 
L 254.99171 -60.879377 
L 253.748357 -61.032071 
L 252.505003 -60.846248 
L 251.26165 -60.982991 
L 250.018296 -61.575226 
L 248.774943 -60.660725 
L 247.531589 -60.982991 
L 246.288236 -60.982991 
L 245.044882 -60.982991 
L 243.801529 -60.982991 
L 242.558175 -60.982991 
L 241.314822 -60.982991 
L 240.071468 -61.005895 
L 238.828115 -60.857564 
L 237.584761 -60.982991 
L 236.341408 -60.764311 
L 235.098054 -60.989535 
L 233.854701 -60.996161 
L 232.611347 -60.992807 
L 231.367994 -61.002623 
L 230.12464 -60.986263 
L 228.881287 -60.951907 
L 227.637933 -60.893011 
L 226.39458 -60.951907 
L 225.151226 -60.986263 
L 223.907873 -60.999351 
L 222.664519 -60.986263 
L 221.421166 -60.989535 
L 220.177812 -60.982991 
L 218.934459 -60.982991 
L 217.691105 -60.982991 
L 216.447752 -60.982991 
L 215.204398 -60.982991 
L 213.961045 -60.774127 
L 212.717691 -60.885376 
L 211.474338 -60.847216 
L 210.230984 -60.982991 
L 208.987631 -60.989535 
L 207.744277 -60.958451 
L 206.500924 -60.992807 
L 205.25757 -60.989535 
L 204.014217 -60.992807 
L 202.770863 -60.992807 
L 201.52751 -60.999351 
L 200.284156 -60.992807 
L 199.040803 -60.999351 
L 197.797449 -60.946999 
L 196.554096 -60.989535 
L 195.310742 -60.989535 
L 194.067389 -60.982991 
L 192.824035 -60.836296 
L 191.580682 -60.982991 
L 190.337328 -60.84798 
L 189.093975 -60.8592 
L 187.850621 -60.853283 
L 186.607268 -60.913733 
L 185.363914 -60.769833 
L 184.120561 -60.857223 
L 182.877207 -60.208628 
L 181.633854 -60.275322 
L 180.3905 -60.386448 
L 179.147147 -60.523832 
L 177.903793 -60.135689 
L 176.66044 -60.025531 
L 175.417086 -60.139452 
L 174.173733 -59.927725 
L 172.930379 -60.009144 
L 171.687026 -60.173712 
L 170.443672 -59.915237 
L 169.200319 -60.028653 
L 167.956965 -59.807805 
L 166.713612 -60.091953 
L 165.470258 -59.899408 
L 164.226905 -59.896682 
L 162.983551 -59.769073 
L 161.740198 -59.785529 
L 160.496844 -59.638206 
L 159.253491 -59.813245 
L 158.010137 -59.726537 
L 156.766784 -59.726537 
L 155.52343 -59.726537 
L 154.280077 -59.726537 
L 153.036723 -59.751077 
L 151.79337 -59.751077 
L 150.550016 -59.759257 
L 149.306663 -59.742897 
L 148.063309 -59.751077 
L 146.819956 -59.751077 
L 145.576602 -59.734921 
L 144.333249 -59.742897 
L 143.089896 -59.619106 
L 141.846542 -59.711267 
L 140.603189 -59.726537 
L 139.359835 -59.695998 
L 138.116482 -59.751622 
L 136.873128 -59.631676 
L 135.629775 -59.695998 
L 134.386421 -59.669822 
L 133.143068 -59.737444 
L 131.899714 -59.59627 
L 130.656361 -59.74017 
L 129.413007 -59.663414 
L 128.169654 -59.531388 
L 126.9263 -59.740238 
L 125.682947 -59.616965 
L 124.439593 -59.584299 
L 123.19624 -59.621382 
L 121.952886 -59.393023 
L 120.709533 -58.982848 
L 119.466179 -58.886187 
L 118.222826 -58.403551 
L 116.979472 -58.164803 
L 115.736119 -58.138518 
L 114.492765 -57.911658 
L 113.249412 -57.911658 
L 112.006058 -57.876757 
L 110.762705 -57.911658 
L 109.519351 -57.911658 
L 108.275998 -57.861487 
L 107.032644 -57.911658 
L 105.789291 -57.911658 
L 104.545937 -57.911658 
L 103.302584 -57.911658 
L 102.05923 -57.894753 
L 100.815877 -58.040358 
L 99.572523 -57.911658 
L 98.32917 -57.911658 
L 97.085816 -57.911658 
L 95.842463 -57.911658 
L 94.599109 -57.884391 
L 93.355756 -57.730648 
L 92.112402 -57.735542 
L 90.869049 -57.476507 
L 89.625695 -57.438893 
L 88.382342 -57.211474 
L 87.138988 -57.082775 
L 85.895635 -57.078398 
L 84.652281 -56.966086 
L 83.408928 -56.726098 
L 82.165574 -56.606137 
L 80.922221 -56.502523 
L 79.678867 -56.320926 
z
" style="stroke: #6c3f70; stroke-opacity: 0.2"/>
    </defs>
    <g clip-path="url(#paeaa2a9626)">
     <use xlink:href="#m7d9689b1dc" x="0" y="358.564913" style="fill: #6c3f70; fill-opacity: 0.2; stroke: #6c3f70; stroke-opacity: 0.2"/>
    </g>
   </g>
   <g id="PolyCollection_5">
    <defs>
     <path id="m8b1997e53c" d="M 79.678867 -56.479606 
L 79.678867 -56.294191 
L 80.922221 -56.882036 
L 82.165574 -56.885336 
L 83.408928 -57.221794 
L 84.652281 -57.3002 
L 85.895635 -57.532595 
L 87.138988 -57.386977 
L 88.382342 -57.365218 
L 89.625695 -57.174909 
L 90.869049 -57.397952 
L 92.112402 -57.523365 
L 93.355756 -57.354734 
L 94.599109 -57.429554 
L 95.842463 -57.556099 
L 97.085816 -57.540762 
L 98.32917 -57.468245 
L 99.572523 -57.508641 
L 100.815877 -57.433944 
L 102.05923 -57.269743 
L 103.302584 -57.40286 
L 104.545937 -57.624757 
L 105.789291 -57.579508 
L 107.032644 -57.36789 
L 108.275998 -57.421824 
L 109.519351 -57.524429 
L 110.762705 -57.539712 
L 112.006058 -57.416425 
L 113.249412 -57.326963 
L 114.492765 -57.299723 
L 115.736119 -57.525997 
L 116.979472 -57.519548 
L 118.222826 -57.609528 
L 119.466179 -57.421374 
L 120.709533 -57.324863 
L 121.952886 -57.195073 
L 123.19624 -57.395566 
L 124.439593 -57.327508 
L 125.682947 -57.441579 
L 126.9263 -57.468791 
L 128.169654 -57.301932 
L 129.413007 -57.191596 
L 130.656361 -57.470481 
L 131.899714 -57.467114 
L 133.143068 -57.320391 
L 134.386421 -57.477012 
L 135.629775 -57.634587 
L 136.873128 -57.596359 
L 138.116482 -57.575159 
L 139.359835 -57.651451 
L 140.603189 -57.713647 
L 141.846542 -57.602384 
L 143.089896 -57.877275 
L 144.333249 -58.082321 
L 145.576602 -57.906696 
L 146.819956 -57.966737 
L 148.063309 -57.759959 
L 149.306663 -57.847009 
L 150.550016 -58.206044 
L 151.79337 -57.885428 
L 153.036723 -57.880942 
L 154.280077 -57.881597 
L 155.52343 -57.960643 
L 156.766784 -57.714778 
L 158.010137 -58.067897 
L 159.253491 -58.211539 
L 160.496844 -58.179336 
L 161.740198 -57.873457 
L 162.983551 -57.909463 
L 164.226905 -57.786108 
L 165.470258 -57.807922 
L 166.713612 -58.365364 
L 167.956965 -58.460253 
L 169.200319 -57.851576 
L 170.443672 -58.000493 
L 171.687026 -57.834739 
L 172.930379 -58.124162 
L 174.173733 -58.030323 
L 175.417086 -58.292248 
L 176.66044 -58.188062 
L 177.903793 -58.322283 
L 179.147147 -58.16903 
L 180.3905 -57.968291 
L 181.633854 -57.969982 
L 182.877207 -57.966178 
L 184.120561 -57.810771 
L 185.363914 -58.308104 
L 186.607268 -57.945442 
L 187.850621 -58.304791 
L 189.093975 -58.107925 
L 190.337328 -58.060999 
L 191.580682 -58.196787 
L 192.824035 -58.117795 
L 194.067389 -58.181559 
L 195.310742 -58.158082 
L 196.554096 -58.193038 
L 197.797449 -58.438998 
L 199.040803 -58.145008 
L 200.284156 -58.186439 
L 201.52751 -58.317375 
L 202.770863 -58.208798 
L 204.014217 -58.148307 
L 205.25757 -58.095423 
L 206.500924 -58.028878 
L 207.744277 -58.267749 
L 208.987631 -58.381329 
L 210.230984 -58.283032 
L 211.474338 -58.017958 
L 212.717691 -58.207748 
L 213.961045 -58.278669 
L 215.204398 -58.64459 
L 216.447752 -58.277579 
L 217.691105 -58.27976 
L 218.934459 -58.207421 
L 220.177812 -58.64459 
L 221.421166 -58.276897 
L 222.664519 -58.325568 
L 223.907873 -58.351186 
L 225.151226 -58.422625 
L 226.39458 -58.137973 
L 227.637933 -58.274293 
L 228.881287 -58.283537 
L 230.12464 -58.309699 
L 231.367994 -58.434636 
L 232.611347 -58.076322 
L 233.854701 -57.979812 
L 235.098054 -58.015245 
L 236.341408 -58.316788 
L 237.584761 -58.065975 
L 238.828115 -57.992832 
L 240.071468 -58.295548 
L 241.314822 -58.049056 
L 242.558175 -58.238778 
L 243.801529 -58.135778 
L 245.044882 -57.995613 
L 246.288236 -58.095914 
L 247.531589 -58.115069 
L 248.774943 -58.082839 
L 250.018296 -58.143399 
L 251.26165 -58.323891 
L 252.505003 -58.208962 
L 253.748357 -57.845018 
L 254.99171 -58.046793 
L 256.235064 -58.398575 
L 257.478417 -58.225036 
L 258.721771 -58.225676 
L 259.965124 -58.126507 
L 261.208478 -58.355003 
L 262.451831 -58.102526 
L 263.695184 -58.181491 
L 264.938538 -58.216951 
L 266.181891 -58.660309 
L 267.425245 -58.326645 
L 268.668598 -58.138941 
L 269.911952 -58.424765 
L 271.155305 -58.483634 
L 272.398659 -58.324355 
L 273.642012 -58.173201 
L 274.885366 -58.295575 
L 276.128719 -58.362106 
L 277.372073 -58.112328 
L 278.615426 -58.154319 
L 279.85878 -58.12922 
L 281.102133 -58.437867 
L 282.345487 -58.003261 
L 283.58884 -57.96446 
L 284.832194 -58.165676 
L 286.075547 -58.21646 
L 287.318901 -58.032109 
L 288.562254 -58.322814 
L 289.805608 -58.102471 
L 291.048961 -58.281928 
L 292.292315 -57.992354 
L 293.535668 -58.169589 
L 294.779022 -58.530069 
L 296.022375 -58.090474 
L 297.265729 -58.359366 
L 298.509082 -58.710576 
L 299.752436 -58.146657 
L 300.995789 -58.223536 
L 302.239143 -58.197919 
L 303.482496 -58.38486 
L 304.72585 -58.534432 
L 305.969203 -58.379011 
L 307.212557 -58.436817 
L 308.45591 -58.521889 
L 309.699264 -58.2634 
L 310.942617 -57.957998 
L 312.185971 -58.175601 
L 313.429324 -58.148252 
L 314.672678 -58.126425 
L 315.916031 -58.234497 
L 317.159385 -58.177782 
L 318.402738 -58.379557 
L 319.646092 -58.763473 
L 320.889445 -58.766745 
L 322.132799 -58.069806 
L 323.376152 -58.403006 
L 324.619506 -58.065429 
L 325.862859 -58.407328 
L 327.106213 -58.238669 
L 327.106213 -58.71003 
L 327.106213 -58.71003 
L 325.862859 -58.766745 
L 324.619506 -58.653343 
L 323.376152 -58.768381 
L 322.132799 -58.689348 
L 320.889445 -58.768381 
L 319.646092 -58.768381 
L 318.402738 -58.766745 
L 317.159385 -58.701305 
L 315.916031 -58.766745 
L 314.672678 -58.686117 
L 313.429324 -58.663118 
L 312.185971 -58.635333 
L 310.942617 -58.598864 
L 309.699264 -58.735675 
L 308.45591 -58.767304 
L 307.212557 -58.768381 
L 305.969203 -58.766745 
L 304.72585 -58.768381 
L 303.482496 -58.767836 
L 302.239143 -58.711148 
L 300.995789 -58.687672 
L 299.752436 -58.674638 
L 298.509082 -58.768927 
L 297.265729 -58.765655 
L 296.022375 -58.677337 
L 294.779022 -58.767291 
L 293.535668 -58.68823 
L 292.292315 -58.605871 
L 291.048961 -58.711162 
L 289.805608 -58.644086 
L 288.562254 -58.723677 
L 287.318901 -58.639696 
L 286.075547 -58.735129 
L 284.832194 -58.686036 
L 283.58884 -58.597159 
L 282.345487 -58.626103 
L 281.102133 -58.758579 
L 279.85878 -58.644672 
L 278.615426 -58.656615 
L 277.372073 -58.668585 
L 276.128719 -58.743855 
L 274.885366 -58.744959 
L 273.642012 -58.67626 
L 272.398659 -58.732389 
L 271.155305 -58.749308 
L 269.911952 -58.744945 
L 268.668598 -58.669144 
L 267.425245 -58.69367 
L 266.181891 -58.759111 
L 264.938538 -58.732389 
L 263.695184 -58.678946 
L 262.451831 -58.660977 
L 261.208478 -58.736206 
L 259.965124 -58.659328 
L 258.721771 -58.693711 
L 257.478417 -58.70185 
L 256.235064 -58.720937 
L 254.99171 -58.629348 
L 253.748357 -58.475727 
L 252.505003 -58.677406 
L 251.26165 -58.722573 
L 250.018296 -58.649689 
L 248.774943 -58.602626 
L 247.531589 -58.619532 
L 246.288236 -58.611324 
L 245.044882 -58.591188 
L 243.801529 -58.597705 
L 242.558175 -58.62823 
L 241.314822 -58.574801 
L 240.071468 -58.675129 
L 238.828115 -58.573778 
L 237.584761 -58.600418 
L 236.341408 -58.659873 
L 235.098054 -58.544916 
L 233.854701 -58.542176 
L 232.611347 -58.586798 
L 231.367994 -58.672402 
L 230.12464 -58.657133 
L 228.881287 -58.653329 
L 227.637933 -58.645694 
L 226.39458 -58.64459 
L 225.151226 -58.64733 
L 223.907873 -58.645135 
L 222.664519 -58.647317 
L 221.421166 -58.64459 
L 220.177812 -58.647317 
L 218.934459 -58.645135 
L 217.691105 -58.645681 
L 216.447752 -58.646226 
L 215.204398 -58.647317 
L 213.961045 -58.646771 
L 212.717691 -58.643499 
L 211.474338 -58.571515 
L 210.230984 -58.645681 
L 208.987631 -58.651679 
L 207.744277 -58.650043 
L 206.500924 -58.581331 
L 205.25757 -58.580254 
L 204.014217 -58.650602 
L 202.770863 -58.649498 
L 201.52751 -58.654951 
L 200.284156 -58.606416 
L 199.040803 -58.629321 
L 197.797449 -58.656042 
L 196.554096 -58.653861 
L 195.310742 -58.626089 
L 194.067389 -58.642436 
L 192.824035 -58.5966 
L 191.580682 -58.596614 
L 190.337328 -58.579177 
L 189.093975 -58.592238 
L 187.850621 -58.675129 
L 186.607268 -58.526266 
L 185.363914 -58.674611 
L 184.120561 -58.475045 
L 182.877207 -58.533355 
L 181.633854 -58.541549 
L 180.3905 -58.596055 
L 179.147147 -58.665885 
L 177.903793 -58.686594 
L 176.66044 -58.654406 
L 175.417086 -58.675183 
L 174.173733 -58.597746 
L 172.930379 -58.589661 
L 171.687026 -58.437976 
L 170.443672 -58.525761 
L 169.200319 -58.419407 
L 167.956965 -58.65551 
L 166.713612 -58.639137 
L 165.470258 -58.422693 
L 164.226905 -58.392263 
L 162.983551 -58.44561 
L 161.740198 -58.426456 
L 160.496844 -58.594433 
L 159.253491 -58.607521 
L 158.010137 -58.568243 
L 156.766784 -58.373626 
L 155.52343 -58.480553 
L 154.280077 -58.461412 
L 153.036723 -58.441861 
L 151.79337 -58.464656 
L 150.550016 -58.622245 
L 149.306663 -58.464397 
L 148.063309 -58.433218 
L 146.819956 -58.507233 
L 145.576602 -58.477744 
L 144.333249 -58.595033 
L 143.089896 -58.474459 
L 141.846542 -58.266195 
L 140.603189 -58.343128 
L 139.359835 -58.199664 
L 138.116482 -58.122253 
L 136.873128 -58.117809 
L 135.629775 -58.099267 
L 134.386421 -57.973295 
L 133.143068 -57.820683 
L 131.899714 -57.908482 
L 130.656361 -57.908386 
L 129.413007 -57.701745 
L 128.169654 -57.801514 
L 126.9263 -57.846218 
L 125.682947 -57.856075 
L 124.439593 -57.759523 
L 123.19624 -57.819565 
L 121.952886 -57.700109 
L 120.709533 -57.761145 
L 119.466179 -57.829858 
L 118.222826 -57.965687 
L 116.979472 -57.893703 
L 115.736119 -57.917125 
L 114.492765 -57.749175 
L 113.249412 -57.779196 
L 112.006058 -57.834848 
L 110.762705 -57.866395 
L 109.519351 -57.842428 
L 108.275998 -57.79666 
L 107.032644 -57.730061 
L 105.789291 -57.799319 
L 104.545937 -57.79118 
L 103.302584 -57.727894 
L 102.05923 -57.671192 
L 100.815877 -57.734438 
L 99.572523 -57.783504 
L 98.32917 -57.778051 
L 97.085816 -57.77696 
L 95.842463 -57.778065 
L 94.599109 -57.726789 
L 93.355756 -57.699741 
L 92.112402 -57.757355 
L 90.869049 -57.72135 
L 89.625695 -57.620462 
L 88.382342 -57.719182 
L 87.138988 -57.721336 
L 85.895635 -57.749162 
L 84.652281 -57.675023 
L 83.408928 -57.615064 
L 82.165574 -57.317242 
L 80.922221 -57.324972 
L 79.678867 -56.479606 
z
" style="stroke: #2d1e3e; stroke-opacity: 0.2"/>
    </defs>
    <g clip-path="url(#paeaa2a9626)">
     <use xlink:href="#m8b1997e53c" x="0" y="358.564913" style="fill: #2d1e3e; fill-opacity: 0.2; stroke: #2d1e3e; stroke-opacity: 0.2"/>
    </g>
   </g>
   <g id="line2d_15">
    <path d="M 79.678867 302.270722 
L 83.408928 302.102213 
L 89.625695 301.361101 
L 92.112402 301.2384 
L 93.355756 301.394366 
L 94.599109 301.230766 
L 95.842463 301.336561 
L 99.572523 301.271666 
L 102.05923 301.236219 
L 108.275998 301.193683 
L 109.519351 301.565057 
L 110.762705 301.362737 
L 113.249412 301.244399 
L 114.492765 301.308749 
L 115.736119 301.249307 
L 118.222826 301.266212 
L 129.413007 301.268394 
L 130.656361 301.068801 
L 131.899714 301.354557 
L 133.143068 301.387822 
L 135.629775 301.317474 
L 143.089896 301.293479 
L 153.036723 301.343105 
L 155.52343 301.239491 
L 158.010137 301.273847 
L 161.740198 301.23731 
L 162.983551 301.305477 
L 164.226905 301.250398 
L 165.470258 301.405819 
L 174.173733 301.20568 
L 177.903793 301.061711 
L 180.3905 300.934103 
L 182.877207 300.606901 
L 184.120561 300.826126 
L 186.607268 300.623261 
L 189.093975 300.557276 
L 190.337328 300.655436 
L 194.067389 300.532735 
L 197.797449 300.591086 
L 199.040803 300.478747 
L 200.284156 300.635804 
L 201.52751 300.510377 
L 204.014217 300.619989 
L 207.744277 300.514739 
L 210.230984 300.698518 
L 213.961045 300.534917 
L 216.447752 300.534917 
L 217.691105 300.525646 
L 218.934459 300.68652 
L 220.177812 300.630351 
L 221.421166 300.695246 
L 222.664519 300.535462 
L 226.39458 300.58836 
L 227.637933 300.795042 
L 228.881287 300.58127 
L 233.854701 300.747598 
L 235.098054 300.591086 
L 236.341408 300.703426 
L 238.828115 300.584542 
L 242.558175 300.540915 
L 243.801529 300.635259 
L 245.044882 300.467295 
L 247.531589 300.42585 
L 248.774943 300.136276 
L 251.26165 300.186447 
L 253.748357 299.530953 
L 256.235064 299.586032 
L 258.721771 299.187937 
L 259.965124 299.406071 
L 261.208478 299.143219 
L 262.451831 299.54295 
L 264.938538 299.199389 
L 266.181891 299.100137 
L 267.425245 299.292641 
L 273.642012 299.295913 
L 274.885366 299.100137 
L 276.128719 299.100137 
L 277.372073 299.293732 
L 278.615426 299.199389 
L 281.102133 299.326452 
L 282.345487 299.156307 
L 284.832194 299.414796 
L 286.075547 299.183029 
L 287.318901 299.29864 
L 289.805608 299.19339 
L 291.048961 299.490598 
L 302.239143 299.196117 
L 304.72585 299.459514 
L 305.969203 299.100137 
L 308.45591 299.384803 
L 309.699264 299.484599 
L 310.942617 299.194481 
L 314.672678 299.286097 
L 315.916031 299.377168 
L 317.159385 299.297004 
L 318.402738 299.376623 
L 320.889445 299.287733 
L 322.132799 299.298094 
L 324.619506 299.100137 
L 325.862859 299.197753 
L 327.106213 299.100137 
L 327.106213 299.100137 
" clip-path="url(#paeaa2a9626)" style="fill: none; stroke: #edd1cb; stroke-width: 1.5; stroke-linecap: round"/>
   </g>
   <g id="line2d_16">
    <path d="M 79.678867 302.222732 
L 80.922221 301.580871 
L 82.165574 301.085161 
L 83.408928 301.04317 
L 84.652281 301.195319 
L 85.895635 301.200772 
L 87.138988 300.290606 
L 88.382342 296.98696 
L 89.625695 283.679669 
L 90.869049 280.215694 
L 92.112402 280.959532 
L 93.355756 278.776552 
L 94.599109 281.621025 
L 95.842463 280.918632 
L 97.085816 279.477854 
L 98.32917 279.510574 
L 99.572523 280.255503 
L 102.05923 280.258775 
L 103.302584 281.577398 
L 104.545937 280.981345 
L 105.789291 281.536498 
L 107.032644 280.206968 
L 108.275998 280.268591 
L 109.519351 281.02879 
L 110.762705 278.894344 
L 113.249412 281.803712 
L 114.492765 279.758157 
L 115.736119 279.784878 
L 116.979472 281.15149 
L 118.222826 280.44528 
L 119.466179 279.061217 
L 120.709533 282.626079 
L 121.952886 281.69519 
L 123.19624 282.653891 
L 124.439593 280.554347 
L 125.682947 280.631785 
L 126.9263 281.857155 
L 129.413007 280.563073 
L 131.899714 280.567435 
L 133.143068 281.269828 
L 134.386421 283.891804 
L 135.629775 280.473638 
L 136.873128 281.746452 
L 138.116482 280.996615 
L 139.359835 281.279644 
L 140.603189 281.063691 
L 141.846542 283.628407 
L 143.089896 286.760817 
L 144.333249 281.025518 
L 145.576602 280.400017 
L 146.819956 281.868607 
L 148.063309 281.648292 
L 149.306663 282.531191 
L 150.550016 282.488654 
L 151.79337 281.917688 
L 153.036723 283.112519 
L 154.280077 280.943172 
L 155.52343 281.032607 
L 156.766784 282.701881 
L 158.010137 282.012576 
L 160.496844 282.012576 
L 161.740198 283.501344 
L 162.983551 284.236457 
L 164.226905 282.601539 
L 165.470258 282.756414 
L 166.713612 282.016393 
L 167.956965 281.573035 
L 169.200319 281.569763 
L 170.443672 281.701189 
L 171.687026 280.936628 
L 172.930379 281.774264 
L 174.173733 285.266051 
L 175.417086 283.766922 
L 176.66044 285.189159 
L 177.903793 282.542097 
L 179.147147 281.614481 
L 180.3905 283.733657 
L 181.633854 283.156146 
L 182.877207 281.926413 
L 184.120561 281.942773 
L 185.363914 283.116882 
L 186.607268 286.338182 
L 187.850621 281.806984 
L 189.093975 286.3829 
L 190.337328 283.979058 
L 191.580682 282.183812 
L 192.824035 282.737873 
L 194.067389 281.873515 
L 195.310742 284.919763 
L 196.554096 282.241072 
L 197.797449 282.768412 
L 199.040803 285.743766 
L 200.284156 283.091796 
L 201.52751 284.000871 
L 202.770863 283.09016 
L 204.014217 282.544279 
L 205.25757 281.834251 
L 206.500924 283.797461 
L 208.987631 284.070674 
L 210.230984 281.391438 
L 211.474338 281.858791 
L 212.717691 281.6941 
L 213.961045 285.422563 
L 215.204398 281.844067 
L 216.447752 282.413943 
L 217.691105 283.170325 
L 218.934459 283.081435 
L 220.177812 283.116336 
L 221.421166 281.628114 
L 222.664519 283.071073 
L 223.907873 281.642838 
L 225.151226 282.088923 
L 226.39458 282.004941 
L 227.637933 284.572929 
L 228.881287 283.782192 
L 230.12464 284.059768 
L 231.367994 284.033046 
L 232.611347 284.532029 
L 233.854701 282.45757 
L 235.098054 281.309092 
L 236.341408 281.371806 
L 237.584761 283.379188 
L 238.828115 282.169633 
L 240.071468 285.819567 
L 241.314822 281.986945 
L 242.558175 282.008759 
L 243.801529 282.686611 
L 245.044882 281.973312 
L 246.288236 285.283502 
L 247.531589 283.621863 
L 248.774943 281.377259 
L 250.018296 284.001962 
L 252.505003 282.684975 
L 253.748357 282.443392 
L 254.99171 281.974948 
L 256.235064 282.080743 
L 257.478417 280.641601 
L 258.721771 282.754778 
L 259.965124 282.084015 
L 261.208478 282.682794 
L 262.451831 284.499854 
L 263.695184 285.340762 
L 264.938538 282.069291 
L 266.181891 282.117826 
L 267.425245 285.641788 
L 268.668598 284.434414 
L 269.911952 281.792806 
L 271.155305 282.518103 
L 272.398659 281.228383 
L 273.642012 283.675306 
L 274.885366 284.451864 
L 276.128719 284.485675 
L 277.372073 282.370862 
L 278.615426 283.599504 
L 279.85878 283.817093 
L 281.102133 282.429213 
L 282.345487 283.192138 
L 283.58884 280.376568 
L 284.832194 280.373841 
L 286.075547 281.819527 
L 287.318901 282.256341 
L 288.562254 285.61343 
L 289.805608 283.816003 
L 291.048961 281.802076 
L 292.292315 281.177121 
L 293.535668 281.871334 
L 294.779022 281.822254 
L 296.022375 284.497127 
L 297.265729 282.506651 
L 298.509082 284.560386 
L 299.752436 282.596086 
L 300.995789 281.891511 
L 302.239143 282.606992 
L 303.482496 284.010688 
L 304.72585 281.784626 
L 305.969203 284.55766 
L 308.45591 283.022539 
L 309.699264 283.012722 
L 312.185971 282.417215 
L 313.429324 281.883331 
L 314.672678 282.447754 
L 315.916031 282.060566 
L 317.159385 284.078309 
L 318.402738 281.276372 
L 319.646092 282.562275 
L 320.889445 284.122481 
L 322.132799 281.390893 
L 323.376152 282.778228 
L 324.619506 283.438085 
L 325.862859 281.295459 
L 327.106213 283.697665 
L 327.106213 283.697665 
" clip-path="url(#paeaa2a9626)" style="fill: none; stroke: #d499a7; stroke-width: 1.5; stroke-linecap: round"/>
   </g>
   <g id="line2d_17">
    <path d="M 79.678867 302.251635 
L 80.922221 301.957153 
L 83.408928 299.861972 
L 84.652281 299.317727 
L 85.895635 298.929993 
L 87.138988 299.100683 
L 88.382342 298.464276 
L 95.842463 297.939662 
L 97.085816 297.797875 
L 98.32917 296.94606 
L 99.572523 296.996231 
L 100.815877 296.021715 
L 102.05923 296.242031 
L 103.302584 296.100244 
L 104.545937 296.180953 
L 105.789291 295.693423 
L 107.032644 296.330375 
L 108.275998 295.467654 
L 109.519351 295.588718 
L 112.006058 296.046801 
L 113.249412 295.709238 
L 114.492765 295.666701 
L 115.736119 296.551782 
L 116.979472 295.898469 
L 118.222826 295.595808 
L 119.466179 296.817906 
L 120.709533 296.105152 
L 121.952886 295.65634 
L 123.19624 296.450349 
L 124.439593 295.413665 
L 125.682947 296.606315 
L 126.9263 296.042983 
L 128.169654 295.764317 
L 129.413007 295.753955 
L 130.656361 296.080611 
L 131.899714 295.85048 
L 133.143068 296.709929 
L 134.386421 296.000992 
L 135.629775 296.424719 
L 136.873128 295.968272 
L 138.116482 296.069159 
L 139.359835 295.847208 
L 140.603189 296.326013 
L 141.846542 296.008082 
L 143.089896 296.56487 
L 144.333249 296.173319 
L 146.819956 296.069705 
L 148.063309 296.470527 
L 149.306663 296.308562 
L 150.550016 295.649251 
L 151.79337 295.843936 
L 153.036723 296.391453 
L 154.280077 296.453621 
L 155.52343 296.206039 
L 156.766784 296.113332 
L 159.253491 295.264243 
L 160.496844 296.021715 
L 161.740198 295.333501 
L 164.226905 295.371129 
L 165.470258 294.607659 
L 166.713612 291.379269 
L 167.956965 286.90206 
L 169.200319 277.987996 
L 170.443672 261.986198 
L 171.687026 258.890871 
L 172.930379 259.483106 
L 174.173733 255.02771 
L 175.417086 256.596642 
L 176.66044 261.157833 
L 177.903793 259.580721 
L 179.147147 259.549637 
L 180.3905 262.058728 
L 181.633854 257.687314 
L 182.877207 255.005351 
L 184.120561 256.482666 
L 185.363914 260.963148 
L 186.607268 253.444599 
L 187.850621 262.592612 
L 189.093975 259.479288 
L 190.337328 254.893557 
L 191.580682 259.46511 
L 192.824035 254.890285 
L 194.067389 257.90054 
L 195.310742 257.843825 
L 196.554096 253.331169 
L 197.797449 256.369782 
L 200.284156 253.359527 
L 201.52751 257.889634 
L 202.770863 254.827571 
L 204.014217 253.360617 
L 205.25757 254.889194 
L 206.500924 259.47438 
L 207.744277 254.7365 
L 208.987631 256.717706 
L 210.230984 259.414393 
L 211.474338 256.416681 
L 212.717691 259.424209 
L 213.961045 260.882983 
L 215.204398 253.331169 
L 216.447752 257.696039 
L 217.691105 256.334335 
L 218.934459 256.311431 
L 220.177812 253.331169 
L 221.421166 256.358875 
L 222.664519 256.269985 
L 223.907873 259.412212 
L 225.151226 254.947545 
L 226.39458 254.975903 
L 227.637933 256.13965 
L 228.881287 257.935442 
L 230.12464 253.331169 
L 231.367994 253.595112 
L 232.611347 258.569122 
L 233.854701 257.76148 
L 235.098054 257.755481 
L 236.341408 257.896723 
L 237.584761 256.364874 
L 238.828115 256.365419 
L 240.071468 254.805758 
L 241.314822 256.285255 
L 242.558175 253.302812 
L 243.801529 253.302812 
L 246.288236 256.274893 
L 247.531589 257.742393 
L 248.774943 253.302812 
L 251.26165 256.306523 
L 253.748357 254.862473 
L 254.99171 260.173501 
L 256.235064 254.823754 
L 258.721771 254.792124 
L 259.965124 253.274454 
L 261.208478 256.321247 
L 262.451831 254.804122 
L 263.695184 254.805758 
L 264.938538 257.758208 
L 266.181891 254.805758 
L 267.425245 254.805758 
L 268.668598 253.274454 
L 269.911952 254.786126 
L 271.155305 253.274454 
L 272.398659 256.337062 
L 273.642012 256.288527 
L 276.128719 253.274454 
L 277.372073 254.782854 
L 278.615426 257.639324 
L 279.85878 254.797578 
L 281.102133 253.274454 
L 282.345487 257.860731 
L 283.58884 260.956058 
L 284.832194 253.302812 
L 286.075547 257.155066 
L 287.318901 254.834661 
L 289.805608 257.881999 
L 291.048961 257.910356 
L 293.535668 254.848294 
L 294.779022 254.864654 
L 296.022375 256.40741 
L 297.265729 256.470124 
L 298.509082 260.143508 
L 299.752436 254.846113 
L 300.995789 257.360658 
L 302.239143 257.626782 
L 303.482496 257.775658 
L 304.72585 253.246097 
L 305.969203 256.252535 
L 307.212557 254.749043 
L 308.45591 257.824193 
L 309.699264 256.308704 
L 310.942617 257.838917 
L 312.185971 260.889527 
L 313.429324 256.299433 
L 314.672678 258.244102 
L 315.916031 249.531267 
L 317.159385 244.381658 
L 319.646092 195.725135 
L 320.889445 148.15983 
L 322.132799 83.028703 
L 323.376152 60.026971 
L 324.619506 59.181155 
L 325.862859 94.34988 
L 327.106213 83.754545 
L 327.106213 83.754545 
" clip-path="url(#paeaa2a9626)" style="fill: none; stroke: #a9678f; stroke-width: 1.5; stroke-linecap: round"/>
   </g>
   <g id="line2d_18">
    <path d="M 79.678867 302.261996 
L 85.895635 301.608684 
L 87.138988 301.638677 
L 88.382342 301.529064 
L 89.625695 301.283663 
L 90.869049 301.306567 
L 92.112402 301.036626 
L 93.355756 301.043715 
L 94.599109 300.792861 
L 100.815877 300.624897 
L 102.05923 300.807585 
L 103.302584 300.700154 
L 105.789291 300.705607 
L 107.032644 300.703971 
L 108.275998 300.84085 
L 110.762705 300.703971 
L 112.006058 300.837033 
L 113.249412 300.653255 
L 116.979472 300.621625 
L 118.222826 300.468386 
L 119.466179 300.043569 
L 120.709533 299.990126 
L 123.19624 299.167214 
L 124.439593 299.270828 
L 125.682947 299.243016 
L 126.9263 299.024336 
L 128.169654 299.413706 
L 129.413007 299.201025 
L 130.656361 299.114316 
L 131.899714 299.324816 
L 133.143068 298.943626 
L 134.386421 299.143219 
L 136.873128 299.255558 
L 138.116482 298.91745 
L 139.359835 299.156852 
L 140.603189 298.987253 
L 141.846542 299.066872 
L 143.089896 299.268101 
L 144.333249 299.029244 
L 145.576602 299.072325 
L 146.819956 298.93381 
L 148.063309 298.933265 
L 149.306663 299.045059 
L 150.550016 298.916905 
L 153.036723 298.937082 
L 154.280077 298.838376 
L 155.52343 299.114316 
L 156.766784 298.838376 
L 158.010137 299.053239 
L 159.253491 298.993252 
L 160.496844 299.313909 
L 161.740198 299.095229 
L 162.983551 299.118134 
L 164.226905 298.854191 
L 165.470258 299.025972 
L 166.713612 298.648054 
L 167.956965 299.102319 
L 169.200319 298.835649 
L 170.443672 298.917995 
L 171.687026 298.582614 
L 174.173733 299.125223 
L 175.417086 298.821471 
L 176.66044 299.017246 
L 177.903793 298.901635 
L 179.147147 298.413014 
L 181.633854 298.860735 
L 182.877207 298.957259 
L 184.120561 298.042185 
L 185.363914 298.207968 
L 186.607268 298.032369 
L 190.337328 298.0989 
L 191.580682 298.016555 
L 192.824035 298.263047 
L 194.067389 297.581922 
L 195.310742 297.758611 
L 196.554096 297.764609 
L 197.797449 297.981108 
L 199.040803 297.575378 
L 200.284156 297.7248 
L 201.52751 297.575378 
L 202.770863 297.725345 
L 204.014217 297.7248 
L 205.25757 297.871495 
L 206.500924 297.609734 
L 207.744277 298.046003 
L 208.987631 297.714984 
L 210.230984 297.796784 
L 211.474338 298.139255 
L 212.717691 298.121805 
L 213.961045 298.345938 
L 215.204398 297.905851 
L 217.691105 297.581922 
L 218.934459 297.581922 
L 220.177812 297.875313 
L 222.664519 297.89549 
L 223.907873 297.575378 
L 225.151226 297.96911 
L 228.881287 298.04982 
L 230.12464 298.018191 
L 231.367994 297.718256 
L 232.611347 297.858953 
L 233.854701 297.712257 
L 235.098054 297.753703 
L 236.341408 298.240688 
L 237.584761 297.728617 
L 238.828115 298.14689 
L 240.071468 297.574287 
L 241.314822 297.864406 
L 242.558175 297.868223 
L 243.801529 297.999104 
L 245.044882 297.800056 
L 246.288236 297.891673 
L 247.531589 297.581922 
L 248.774943 298.487725 
L 250.018296 297.464675 
L 251.26165 297.728617 
L 252.505003 298.164341 
L 253.748357 297.70953 
L 254.99171 298.134893 
L 256.235064 298.140891 
L 257.478417 297.988743 
L 258.721771 298.018736 
L 259.965124 297.734616 
L 261.208478 297.993105 
L 262.451831 297.92821 
L 263.695184 297.728617 
L 264.938538 297.710621 
L 266.181891 297.999104 
L 268.668598 297.661541 
L 271.155305 298.022008 
L 272.398659 297.863315 
L 273.642012 298.007284 
L 274.885366 297.581922 
L 276.128719 297.721528 
L 277.372073 297.61955 
L 278.615426 298.006193 
L 279.85878 297.804964 
L 281.102133 297.850227 
L 282.345487 298.17143 
L 283.58884 297.890037 
L 284.832194 298.303401 
L 286.075547 298.252685 
L 287.318901 298.077632 
L 288.562254 298.017645 
L 289.805608 297.816416 
L 291.048961 298.004557 
L 292.292315 298.423375 
L 293.535668 298.173611 
L 294.779022 298.776208 
L 296.022375 298.285405 
L 297.265729 298.294131 
L 298.509082 298.048184 
L 299.752436 298.30122 
L 300.995789 297.787513 
L 302.239143 298.216693 
L 303.482496 298.054183 
L 305.969203 298.191062 
L 307.212557 297.809872 
L 308.45591 297.809872 
L 309.699264 297.629366 
L 310.942617 298.088539 
L 314.672678 297.837684 
L 315.916031 298.090175 
L 317.159385 297.868769 
L 318.402738 298.157251 
L 319.646092 298.109262 
L 320.889445 297.894945 
L 322.132799 297.858407 
L 323.376152 298.17961 
L 324.619506 297.901489 
L 325.862859 297.902579 
L 327.106213 298.083631 
L 327.106213 298.083631 
" clip-path="url(#paeaa2a9626)" style="fill: none; stroke: #6c3f70; stroke-width: 1.5; stroke-linecap: round"/>
   </g>
   <g id="line2d_19">
    <path d="M 79.678867 302.200919 
L 80.922221 301.47344 
L 82.165574 301.454353 
L 83.408928 301.135332 
L 87.138988 301.00227 
L 88.382342 301.015358 
L 89.625695 301.1566 
L 92.112402 300.91338 
L 93.355756 301.020266 
L 98.32917 300.922651 
L 100.815877 300.965732 
L 102.05923 301.074254 
L 105.789291 300.862664 
L 107.032644 301.005542 
L 110.762705 300.844668 
L 114.492765 301.032263 
L 115.736119 300.831034 
L 116.979472 300.855574 
L 118.222826 300.761231 
L 120.709533 301.015358 
L 121.952886 301.110246 
L 123.19624 300.944464 
L 124.439593 301.025719 
L 125.682947 300.904109 
L 128.169654 301.003906 
L 129.413007 301.11679 
L 130.656361 300.873025 
L 134.386421 300.836488 
L 135.629775 300.678886 
L 139.359835 300.624352 
L 140.603189 300.521283 
L 141.846542 300.605265 
L 144.333249 300.197354 
L 145.576602 300.356047 
L 146.819956 300.314601 
L 148.063309 300.46784 
L 149.306663 300.380041 
L 150.550016 300.122097 
L 151.79337 300.381132 
L 155.52343 300.332597 
L 156.766784 300.520193 
L 158.010137 300.21535 
L 159.253491 300.121552 
L 160.496844 300.15918 
L 161.740198 300.399128 
L 165.470258 300.435666 
L 166.713612 300.046296 
L 167.956965 299.987945 
L 169.200319 300.411671 
L 170.443672 300.267702 
L 171.687026 300.41058 
L 172.930379 300.18263 
L 174.173733 300.219167 
L 175.417086 300.059384 
L 176.66044 300.124824 
L 177.903793 300.034844 
L 184.120561 300.391493 
L 185.363914 300.039206 
L 186.607268 300.261703 
L 187.850621 300.039206 
L 190.337328 300.228983 
L 191.580682 300.144456 
L 192.824035 300.202262 
L 195.310742 300.148273 
L 199.040803 300.152636 
L 205.25757 300.195172 
L 206.500924 300.250797 
L 208.987631 300.010849 
L 210.230984 300.064837 
L 211.474338 300.260067 
L 215.204398 299.919232 
L 216.447752 300.066473 
L 218.934459 300.135185 
L 220.177812 299.919232 
L 221.421166 300.076289 
L 225.151226 299.993943 
L 226.39458 300.137912 
L 228.881287 300.06102 
L 231.367994 299.977038 
L 232.611347 300.208806 
L 235.098054 300.25625 
L 236.341408 300.049022 
L 238.828115 300.270429 
L 240.071468 300.046841 
L 241.314822 300.238799 
L 242.558175 300.107373 
L 245.044882 300.263885 
L 247.531589 300.187538 
L 250.018296 300.135731 
L 251.26165 300.005395 
L 252.505003 300.096467 
L 253.748357 300.382223 
L 256.235064 299.976493 
L 257.478417 300.081197 
L 261.208478 299.986854 
L 262.451831 300.164634 
L 264.938538 300.057202 
L 266.181891 299.845067 
L 268.668598 300.139003 
L 269.911952 299.951952 
L 271.155305 299.91487 
L 273.642012 300.112827 
L 276.128719 299.981946 
L 277.372073 300.137912 
L 279.85878 300.154272 
L 281.102133 299.943772 
L 282.345487 300.23171 
L 283.58884 300.250251 
L 286.075547 300.056112 
L 287.318901 300.22353 
L 288.562254 300.007577 
L 289.805608 300.17445 
L 291.048961 300.047932 
L 292.292315 300.26443 
L 294.779022 299.877241 
L 296.022375 300.158635 
L 298.509082 299.815618 
L 299.752436 300.128641 
L 308.45591 299.894147 
L 310.942617 300.27261 
L 312.185971 300.136821 
L 317.159385 300.09374 
L 319.646092 299.798713 
L 320.889445 299.797622 
L 322.132799 300.18372 
L 323.376152 299.956315 
L 324.619506 300.189174 
L 325.862859 299.94868 
L 327.106213 300.062656 
L 327.106213 300.062656 
" clip-path="url(#paeaa2a9626)" style="fill: none; stroke: #2d1e3e; stroke-width: 1.5; stroke-linecap: round"/>
   </g>
   <g id="line2d_20"/>
   <g id="line2d_21"/>
   <g id="line2d_22"/>
   <g id="line2d_23"/>
   <g id="line2d_24"/>
   <g id="patch_3">
    <path d="M 67.3075 315.605225 
L 67.3075 22.318125 
" style="fill: none; stroke: #ffffff; stroke-width: 1.25; stroke-linejoin: miter; stroke-linecap: square"/>
   </g>
   <g id="patch_4">
    <path d="M 67.3075 315.605225 
L 339.47758 315.605225 
" style="fill: none; stroke: #ffffff; stroke-width: 1.25; stroke-linejoin: miter; stroke-linecap: square"/>
   </g>
   <g id="text_17">
    <!-- Vector x Fine-Grain For Left To Right -->
    <g style="fill: #262626" transform="translate(95.682228 16.318125)scale(0.12 -0.12)">
     <defs>
      <path id="DejaVuSans-56" d="M 1831 0 
L 50 4666 
L 709 4666 
L 2188 738 
L 3669 4666 
L 4325 4666 
L 2547 0 
L 1831 0 
z
" transform="scale(0.015625)"/>
      <path id="DejaVuSans-63" d="M 3122 3366 
L 3122 2828 
Q 2878 2963 2633 3030 
Q 2388 3097 2138 3097 
Q 1578 3097 1268 2742 
Q 959 2388 959 1747 
Q 959 1106 1268 751 
Q 1578 397 2138 397 
Q 2388 397 2633 464 
Q 2878 531 3122 666 
L 3122 134 
Q 2881 22 2623 -34 
Q 2366 -91 2075 -91 
Q 1284 -91 818 406 
Q 353 903 353 1747 
Q 353 2603 823 3093 
Q 1294 3584 2113 3584 
Q 2378 3584 2631 3529 
Q 2884 3475 3122 3366 
z
" transform="scale(0.015625)"/>
      <path id="DejaVuSans-20" transform="scale(0.015625)"/>
      <path id="DejaVuSans-78" d="M 3513 3500 
L 2247 1797 
L 3578 0 
L 2900 0 
L 1881 1375 
L 863 0 
L 184 0 
L 1544 1831 
L 300 3500 
L 978 3500 
L 1906 2253 
L 2834 3500 
L 3513 3500 
z
" transform="scale(0.015625)"/>
      <path id="DejaVuSans-2d" d="M 313 2009 
L 1997 2009 
L 1997 1497 
L 313 1497 
L 313 2009 
z
" transform="scale(0.015625)"/>
      <path id="DejaVuSans-4c" d="M 628 4666 
L 1259 4666 
L 1259 531 
L 3531 531 
L 3531 0 
L 628 0 
L 628 4666 
z
" transform="scale(0.015625)"/>
      <path id="DejaVuSans-66" d="M 2375 4863 
L 2375 4384 
L 1825 4384 
Q 1516 4384 1395 4259 
Q 1275 4134 1275 3809 
L 1275 3500 
L 2222 3500 
L 2222 3053 
L 1275 3053 
L 1275 0 
L 697 0 
L 697 3053 
L 147 3053 
L 147 3500 
L 697 3500 
L 697 3744 
Q 697 4328 969 4595 
Q 1241 4863 1831 4863 
L 2375 4863 
z
" transform="scale(0.015625)"/>
      <path id="DejaVuSans-54" d="M -19 4666 
L 3928 4666 
L 3928 4134 
L 2272 4134 
L 2272 0 
L 1638 0 
L 1638 4134 
L -19 4134 
L -19 4666 
z
" transform="scale(0.015625)"/>
      <path id="DejaVuSans-52" d="M 2841 2188 
Q 3044 2119 3236 1894 
Q 3428 1669 3622 1275 
L 4263 0 
L 3584 0 
L 2988 1197 
Q 2756 1666 2539 1819 
Q 2322 1972 1947 1972 
L 1259 1972 
L 1259 0 
L 628 0 
L 628 4666 
L 2053 4666 
Q 2853 4666 3247 4331 
Q 3641 3997 3641 3322 
Q 3641 2881 3436 2590 
Q 3231 2300 2841 2188 
z
M 1259 4147 
L 1259 2491 
L 2053 2491 
Q 2509 2491 2742 2702 
Q 2975 2913 2975 3322 
Q 2975 3731 2742 3939 
Q 2509 4147 2053 4147 
L 1259 4147 
z
" transform="scale(0.015625)"/>
      <path id="DejaVuSans-67" d="M 2906 1791 
Q 2906 2416 2648 2759 
Q 2391 3103 1925 3103 
Q 1463 3103 1205 2759 
Q 947 2416 947 1791 
Q 947 1169 1205 825 
Q 1463 481 1925 481 
Q 2391 481 2648 825 
Q 2906 1169 2906 1791 
z
M 3481 434 
Q 3481 -459 3084 -895 
Q 2688 -1331 1869 -1331 
Q 1566 -1331 1297 -1286 
Q 1028 -1241 775 -1147 
L 775 -588 
Q 1028 -725 1275 -790 
Q 1522 -856 1778 -856 
Q 2344 -856 2625 -561 
Q 2906 -266 2906 331 
L 2906 616 
Q 2728 306 2450 153 
Q 2172 0 1784 0 
Q 1141 0 747 490 
Q 353 981 353 1791 
Q 353 2603 747 3093 
Q 1141 3584 1784 3584 
Q 2172 3584 2450 3431 
Q 2728 3278 2906 2969 
L 2906 3500 
L 3481 3500 
L 3481 434 
z
" transform="scale(0.015625)"/>
      <path id="DejaVuSans-68" d="M 3513 2113 
L 3513 0 
L 2938 0 
L 2938 2094 
Q 2938 2591 2744 2837 
Q 2550 3084 2163 3084 
Q 1697 3084 1428 2787 
Q 1159 2491 1159 1978 
L 1159 0 
L 581 0 
L 581 4863 
L 1159 4863 
L 1159 2956 
Q 1366 3272 1645 3428 
Q 1925 3584 2291 3584 
Q 2894 3584 3203 3211 
Q 3513 2838 3513 2113 
z
" transform="scale(0.015625)"/>
     </defs>
     <use xlink:href="#DejaVuSans-56"/>
     <use xlink:href="#DejaVuSans-65" x="60.658203"/>
     <use xlink:href="#DejaVuSans-63" x="122.181641"/>
     <use xlink:href="#DejaVuSans-74" x="177.162109"/>
     <use xlink:href="#DejaVuSans-6f" x="216.371094"/>
     <use xlink:href="#DejaVuSans-72" x="277.552734"/>
     <use xlink:href="#DejaVuSans-20" x="318.666016"/>
     <use xlink:href="#DejaVuSans-78" x="350.453125"/>
     <use xlink:href="#DejaVuSans-20" x="409.632812"/>
     <use xlink:href="#DejaVuSans-46" x="441.419922"/>
     <use xlink:href="#DejaVuSans-69" x="491.689453"/>
     <use xlink:href="#DejaVuSans-6e" x="519.472656"/>
     <use xlink:href="#DejaVuSans-65" x="582.851562"/>
     <use xlink:href="#DejaVuSans-2d" x="644.375"/>
     <use xlink:href="#DejaVuSans-47" x="684.083984"/>
     <use xlink:href="#DejaVuSans-72" x="761.574219"/>
     <use xlink:href="#DejaVuSans-61" x="802.6875"/>
     <use xlink:href="#DejaVuSans-69" x="863.966797"/>
     <use xlink:href="#DejaVuSans-6e" x="891.75"/>
     <use xlink:href="#DejaVuSans-20" x="955.128906"/>
     <use xlink:href="#DejaVuSans-46" x="986.916016"/>
     <use xlink:href="#DejaVuSans-6f" x="1040.810547"/>
     <use xlink:href="#DejaVuSans-72" x="1101.992188"/>
     <use xlink:href="#DejaVuSans-20" x="1143.105469"/>
     <use xlink:href="#DejaVuSans-4c" x="1174.892578"/>
     <use xlink:href="#DejaVuSans-65" x="1228.855469"/>
     <use xlink:href="#DejaVuSans-66" x="1290.378906"/>
     <use xlink:href="#DejaVuSans-74" x="1323.833984"/>
     <use xlink:href="#DejaVuSans-20" x="1363.042969"/>
     <use xlink:href="#DejaVuSans-54" x="1394.830078"/>
     <use xlink:href="#DejaVuSans-6f" x="1438.914062"/>
     <use xlink:href="#DejaVuSans-20" x="1500.095703"/>
     <use xlink:href="#DejaVuSans-52" x="1531.882812"/>
     <use xlink:href="#DejaVuSans-69" x="1601.365234"/>
     <use xlink:href="#DejaVuSans-67" x="1629.148438"/>
     <use xlink:href="#DejaVuSans-68" x="1692.625"/>
     <use xlink:href="#DejaVuSans-74" x="1756.003906"/>
    </g>
   </g>
  </g>
  <g id="legend_1">
   <g id="text_18">
    <!-- Trial -->
    <g style="fill: #262626" transform="translate(350.80753 142.228863)scale(0.12 -0.12)">
     <defs>
      <path id="DejaVuSans-6c" d="M 603 4863 
L 1178 4863 
L 1178 0 
L 603 0 
L 603 4863 
z
" transform="scale(0.015625)"/>
     </defs>
     <use xlink:href="#DejaVuSans-54"/>
     <use xlink:href="#DejaVuSans-72" x="46.333984"/>
     <use xlink:href="#DejaVuSans-69" x="87.447266"/>
     <use xlink:href="#DejaVuSans-61" x="115.230469"/>
     <use xlink:href="#DejaVuSans-6c" x="176.509766"/>
    </g>
   </g>
   <g id="line2d_25">
    <path d="M 344.16503 154.732769 
L 355.16503 154.732769 
L 366.16503 154.732769 
" style="fill: none; stroke: #edd1cb; stroke-width: 1.5; stroke-linecap: round"/>
   </g>
   <g id="text_19">
    <!-- 0 -->
    <g style="fill: #262626" transform="translate(374.96503 158.582769)scale(0.11 -0.11)">
     <use xlink:href="#DejaVuSans-30"/>
    </g>
   </g>
   <g id="line2d_26">
    <path d="M 344.16503 170.878706 
L 355.16503 170.878706 
L 366.16503 170.878706 
" style="fill: none; stroke: #d499a7; stroke-width: 1.5; stroke-linecap: round"/>
   </g>
   <g id="text_20">
    <!-- 1 -->
    <g style="fill: #262626" transform="translate(374.96503 174.728706)scale(0.11 -0.11)">
     <use xlink:href="#DejaVuSans-31"/>
    </g>
   </g>
   <g id="line2d_27">
    <path d="M 344.16503 187.024644 
L 355.16503 187.024644 
L 366.16503 187.024644 
" style="fill: none; stroke: #a9678f; stroke-width: 1.5; stroke-linecap: round"/>
   </g>
   <g id="text_21">
    <!-- 2 -->
    <g style="fill: #262626" transform="translate(374.96503 190.874644)scale(0.11 -0.11)">
     <use xlink:href="#DejaVuSans-32"/>
    </g>
   </g>
   <g id="line2d_28">
    <path d="M 344.16503 203.170581 
L 355.16503 203.170581 
L 366.16503 203.170581 
" style="fill: none; stroke: #6c3f70; stroke-width: 1.5; stroke-linecap: round"/>
   </g>
   <g id="text_22">
    <!-- 3 -->
    <g style="fill: #262626" transform="translate(374.96503 207.020581)scale(0.11 -0.11)">
     <defs>
      <path id="DejaVuSans-33" d="M 2597 2516 
Q 3050 2419 3304 2112 
Q 3559 1806 3559 1356 
Q 3559 666 3084 287 
Q 2609 -91 1734 -91 
Q 1441 -91 1130 -33 
Q 819 25 488 141 
L 488 750 
Q 750 597 1062 519 
Q 1375 441 1716 441 
Q 2309 441 2620 675 
Q 2931 909 2931 1356 
Q 2931 1769 2642 2001 
Q 2353 2234 1838 2234 
L 1294 2234 
L 1294 2753 
L 1863 2753 
Q 2328 2753 2575 2939 
Q 2822 3125 2822 3475 
Q 2822 3834 2567 4026 
Q 2313 4219 1838 4219 
Q 1578 4219 1281 4162 
Q 984 4106 628 3988 
L 628 4550 
Q 988 4650 1302 4700 
Q 1616 4750 1894 4750 
Q 2613 4750 3031 4423 
Q 3450 4097 3450 3541 
Q 3450 3153 3228 2886 
Q 3006 2619 2597 2516 
z
" transform="scale(0.015625)"/>
     </defs>
     <use xlink:href="#DejaVuSans-33"/>
    </g>
   </g>
   <g id="line2d_29">
    <path d="M 344.16503 219.316519 
L 355.16503 219.316519 
L 366.16503 219.316519 
" style="fill: none; stroke: #2d1e3e; stroke-width: 1.5; stroke-linecap: round"/>
   </g>
   <g id="text_23">
    <!-- 4 -->
    <g style="fill: #262626" transform="translate(374.96503 223.166519)scale(0.11 -0.11)">
     <use xlink:href="#DejaVuSans-34"/>
    </g>
   </g>
  </g>
 </g>
 <defs>
  <clipPath id="paeaa2a9626">
   <rect x="67.3075" y="22.318125" width="272.17008" height="293.2871"/>
  </clipPath>
 </defs>
</svg>
