<?xml version="1.0" encoding="utf-8" standalone="no"?>
<!DOCTYPE svg PUBLIC "-//W3C//DTD SVG 1.1//EN"
  "http://www.w3.org/Graphics/SVG/1.1/DTD/svg11.dtd">
<svg xmlns:xlink="http://www.w3.org/1999/xlink" width="391.965435pt" height="362.097812pt" viewBox="0 0 391.965435 362.097812" xmlns="http://www.w3.org/2000/svg" version="1.1">
 <metadata>
  <rdf:RDF xmlns:dc="http://purl.org/dc/elements/1.1/" xmlns:cc="http://creativecommons.org/ns#" xmlns:rdf="http://www.w3.org/1999/02/22-rdf-syntax-ns#">
   <cc:Work>
    <dc:type rdf:resource="http://purl.org/dc/dcmitype/StillImage"/>
    <dc:date>2022-11-20T08:18:39.053043</dc:date>
    <dc:format>image/svg+xml</dc:format>
    <dc:creator>
     <cc:Agent>
      <dc:title>Matplotlib v3.5.2, https://matplotlib.org/</dc:title>
     </cc:Agent>
    </dc:creator>
   </cc:Work>
  </rdf:RDF>
 </metadata>
 <defs>
  <style type="text/css">*{stroke-linejoin: round; stroke-linecap: butt}</style>
 </defs>
 <g id="figure_1">
  <g id="patch_1">
   <path d="M 0 362.097812 
L 391.965435 362.097812 
L 391.965435 0 
L 0 0 
z
" style="fill: #ffffff"/>
  </g>
  <g id="axes_1">
   <g id="patch_2">
    <path d="M 67.3075 319.138125 
L 339.579235 319.138125 
L 339.579235 22.318125 
L 67.3075 22.318125 
z
" style="fill: #eaeaf2"/>
   </g>
   <g id="matplotlib.axis_1">
    <g id="xtick_1">
     <g id="line2d_1">
      <path d="M 79.683488 319.138125 
L 79.683488 22.318125 
" clip-path="url(#pda6312da7f)" style="fill: none; stroke: #ffffff; stroke-linecap: round"/>
     </g>
     <g id="text_1">
      <!-- 0 -->
      <g style="fill: #262626" transform="translate(76.184113 336.996406)scale(0.11 -0.11)">
       <defs>
        <path id="DejaVuSans-30" d="M 2034 4250 
Q 1547 4250 1301 3770 
Q 1056 3291 1056 2328 
Q 1056 1369 1301 889 
Q 1547 409 2034 409 
Q 2525 409 2770 889 
Q 3016 1369 3016 2328 
Q 3016 3291 2770 3770 
Q 2525 4250 2034 4250 
z
M 2034 4750 
Q 2819 4750 3233 4129 
Q 3647 3509 3647 2328 
Q 3647 1150 3233 529 
Q 2819 -91 2034 -91 
Q 1250 -91 836 529 
Q 422 1150 422 2328 
Q 422 3509 836 4129 
Q 1250 4750 2034 4750 
z
" transform="scale(0.015625)"/>
       </defs>
       <use xlink:href="#DejaVuSans-30"/>
      </g>
     </g>
    </g>
    <g id="xtick_2">
     <g id="line2d_2">
      <path d="M 141.874382 319.138125 
L 141.874382 22.318125 
" clip-path="url(#pda6312da7f)" style="fill: none; stroke: #ffffff; stroke-linecap: round"/>
     </g>
     <g id="text_2">
      <!-- 50 -->
      <g style="fill: #262626" transform="translate(134.875632 336.996406)scale(0.11 -0.11)">
       <defs>
        <path id="DejaVuSans-35" d="M 691 4666 
L 3169 4666 
L 3169 4134 
L 1269 4134 
L 1269 2991 
Q 1406 3038 1543 3061 
Q 1681 3084 1819 3084 
Q 2600 3084 3056 2656 
Q 3513 2228 3513 1497 
Q 3513 744 3044 326 
Q 2575 -91 1722 -91 
Q 1428 -91 1123 -41 
Q 819 9 494 109 
L 494 744 
Q 775 591 1075 516 
Q 1375 441 1709 441 
Q 2250 441 2565 725 
Q 2881 1009 2881 1497 
Q 2881 1984 2565 2268 
Q 2250 2553 1709 2553 
Q 1456 2553 1204 2497 
Q 953 2441 691 2322 
L 691 4666 
z
" transform="scale(0.015625)"/>
       </defs>
       <use xlink:href="#DejaVuSans-35"/>
       <use xlink:href="#DejaVuSans-30" x="63.623047"/>
      </g>
     </g>
    </g>
    <g id="xtick_3">
     <g id="line2d_3">
      <path d="M 204.065276 319.138125 
L 204.065276 22.318125 
" clip-path="url(#pda6312da7f)" style="fill: none; stroke: #ffffff; stroke-linecap: round"/>
     </g>
     <g id="text_3">
      <!-- 100 -->
      <g style="fill: #262626" transform="translate(193.567151 336.996406)scale(0.11 -0.11)">
       <defs>
        <path id="DejaVuSans-31" d="M 794 531 
L 1825 531 
L 1825 4091 
L 703 3866 
L 703 4441 
L 1819 4666 
L 2450 4666 
L 2450 531 
L 3481 531 
L 3481 0 
L 794 0 
L 794 531 
z
" transform="scale(0.015625)"/>
       </defs>
       <use xlink:href="#DejaVuSans-31"/>
       <use xlink:href="#DejaVuSans-30" x="63.623047"/>
       <use xlink:href="#DejaVuSans-30" x="127.246094"/>
      </g>
     </g>
    </g>
    <g id="xtick_4">
     <g id="line2d_4">
      <path d="M 266.256171 319.138125 
L 266.256171 22.318125 
" clip-path="url(#pda6312da7f)" style="fill: none; stroke: #ffffff; stroke-linecap: round"/>
     </g>
     <g id="text_4">
      <!-- 150 -->
      <g style="fill: #262626" transform="translate(255.758046 336.996406)scale(0.11 -0.11)">
       <use xlink:href="#DejaVuSans-31"/>
       <use xlink:href="#DejaVuSans-35" x="63.623047"/>
       <use xlink:href="#DejaVuSans-30" x="127.246094"/>
      </g>
     </g>
    </g>
    <g id="xtick_5">
     <g id="line2d_5">
      <path d="M 328.447065 319.138125 
L 328.447065 22.318125 
" clip-path="url(#pda6312da7f)" style="fill: none; stroke: #ffffff; stroke-linecap: round"/>
     </g>
     <g id="text_5">
      <!-- 200 -->
      <g style="fill: #262626" transform="translate(317.94894 336.996406)scale(0.11 -0.11)">
       <defs>
        <path id="DejaVuSans-32" d="M 1228 531 
L 3431 531 
L 3431 0 
L 469 0 
L 469 531 
Q 828 903 1448 1529 
Q 2069 2156 2228 2338 
Q 2531 2678 2651 2914 
Q 2772 3150 2772 3378 
Q 2772 3750 2511 3984 
Q 2250 4219 1831 4219 
Q 1534 4219 1204 4116 
Q 875 4013 500 3803 
L 500 4441 
Q 881 4594 1212 4672 
Q 1544 4750 1819 4750 
Q 2544 4750 2975 4387 
Q 3406 4025 3406 3419 
Q 3406 3131 3298 2873 
Q 3191 2616 2906 2266 
Q 2828 2175 2409 1742 
Q 1991 1309 1228 531 
z
" transform="scale(0.015625)"/>
       </defs>
       <use xlink:href="#DejaVuSans-32"/>
       <use xlink:href="#DejaVuSans-30" x="63.623047"/>
       <use xlink:href="#DejaVuSans-30" x="127.246094"/>
      </g>
     </g>
    </g>
    <g id="text_6">
     <!-- Generation -->
     <g style="fill: #262626" transform="translate(169.971805 352.402187)scale(0.12 -0.12)">
      <defs>
       <path id="DejaVuSans-47" d="M 3809 666 
L 3809 1919 
L 2778 1919 
L 2778 2438 
L 4434 2438 
L 4434 434 
Q 4069 175 3628 42 
Q 3188 -91 2688 -91 
Q 1594 -91 976 548 
Q 359 1188 359 2328 
Q 359 3472 976 4111 
Q 1594 4750 2688 4750 
Q 3144 4750 3555 4637 
Q 3966 4525 4313 4306 
L 4313 3634 
Q 3963 3931 3569 4081 
Q 3175 4231 2741 4231 
Q 1884 4231 1454 3753 
Q 1025 3275 1025 2328 
Q 1025 1384 1454 906 
Q 1884 428 2741 428 
Q 3075 428 3337 486 
Q 3600 544 3809 666 
z
" transform="scale(0.015625)"/>
       <path id="DejaVuSans-65" d="M 3597 1894 
L 3597 1613 
L 953 1613 
Q 991 1019 1311 708 
Q 1631 397 2203 397 
Q 2534 397 2845 478 
Q 3156 559 3463 722 
L 3463 178 
Q 3153 47 2828 -22 
Q 2503 -91 2169 -91 
Q 1331 -91 842 396 
Q 353 884 353 1716 
Q 353 2575 817 3079 
Q 1281 3584 2069 3584 
Q 2775 3584 3186 3129 
Q 3597 2675 3597 1894 
z
M 3022 2063 
Q 3016 2534 2758 2815 
Q 2500 3097 2075 3097 
Q 1594 3097 1305 2825 
Q 1016 2553 972 2059 
L 3022 2063 
z
" transform="scale(0.015625)"/>
       <path id="DejaVuSans-6e" d="M 3513 2113 
L 3513 0 
L 2938 0 
L 2938 2094 
Q 2938 2591 2744 2837 
Q 2550 3084 2163 3084 
Q 1697 3084 1428 2787 
Q 1159 2491 1159 1978 
L 1159 0 
L 581 0 
L 581 3500 
L 1159 3500 
L 1159 2956 
Q 1366 3272 1645 3428 
Q 1925 3584 2291 3584 
Q 2894 3584 3203 3211 
Q 3513 2838 3513 2113 
z
" transform="scale(0.015625)"/>
       <path id="DejaVuSans-72" d="M 2631 2963 
Q 2534 3019 2420 3045 
Q 2306 3072 2169 3072 
Q 1681 3072 1420 2755 
Q 1159 2438 1159 1844 
L 1159 0 
L 581 0 
L 581 3500 
L 1159 3500 
L 1159 2956 
Q 1341 3275 1631 3429 
Q 1922 3584 2338 3584 
Q 2397 3584 2469 3576 
Q 2541 3569 2628 3553 
L 2631 2963 
z
" transform="scale(0.015625)"/>
       <path id="DejaVuSans-61" d="M 2194 1759 
Q 1497 1759 1228 1600 
Q 959 1441 959 1056 
Q 959 750 1161 570 
Q 1363 391 1709 391 
Q 2188 391 2477 730 
Q 2766 1069 2766 1631 
L 2766 1759 
L 2194 1759 
z
M 3341 1997 
L 3341 0 
L 2766 0 
L 2766 531 
Q 2569 213 2275 61 
Q 1981 -91 1556 -91 
Q 1019 -91 701 211 
Q 384 513 384 1019 
Q 384 1609 779 1909 
Q 1175 2209 1959 2209 
L 2766 2209 
L 2766 2266 
Q 2766 2663 2505 2880 
Q 2244 3097 1772 3097 
Q 1472 3097 1187 3025 
Q 903 2953 641 2809 
L 641 3341 
Q 956 3463 1253 3523 
Q 1550 3584 1831 3584 
Q 2591 3584 2966 3190 
Q 3341 2797 3341 1997 
z
" transform="scale(0.015625)"/>
       <path id="DejaVuSans-74" d="M 1172 4494 
L 1172 3500 
L 2356 3500 
L 2356 3053 
L 1172 3053 
L 1172 1153 
Q 1172 725 1289 603 
Q 1406 481 1766 481 
L 2356 481 
L 2356 0 
L 1766 0 
Q 1100 0 847 248 
Q 594 497 594 1153 
L 594 3053 
L 172 3053 
L 172 3500 
L 594 3500 
L 594 4494 
L 1172 4494 
z
" transform="scale(0.015625)"/>
       <path id="DejaVuSans-69" d="M 603 3500 
L 1178 3500 
L 1178 0 
L 603 0 
L 603 3500 
z
M 603 4863 
L 1178 4863 
L 1178 4134 
L 603 4134 
L 603 4863 
z
" transform="scale(0.015625)"/>
       <path id="DejaVuSans-6f" d="M 1959 3097 
Q 1497 3097 1228 2736 
Q 959 2375 959 1747 
Q 959 1119 1226 758 
Q 1494 397 1959 397 
Q 2419 397 2687 759 
Q 2956 1122 2956 1747 
Q 2956 2369 2687 2733 
Q 2419 3097 1959 3097 
z
M 1959 3584 
Q 2709 3584 3137 3096 
Q 3566 2609 3566 1747 
Q 3566 888 3137 398 
Q 2709 -91 1959 -91 
Q 1206 -91 779 398 
Q 353 888 353 1747 
Q 353 2609 779 3096 
Q 1206 3584 1959 3584 
z
" transform="scale(0.015625)"/>
      </defs>
      <use xlink:href="#DejaVuSans-47"/>
      <use xlink:href="#DejaVuSans-65" x="77.490234"/>
      <use xlink:href="#DejaVuSans-6e" x="139.013672"/>
      <use xlink:href="#DejaVuSans-65" x="202.392578"/>
      <use xlink:href="#DejaVuSans-72" x="263.916016"/>
      <use xlink:href="#DejaVuSans-61" x="305.029297"/>
      <use xlink:href="#DejaVuSans-74" x="366.308594"/>
      <use xlink:href="#DejaVuSans-69" x="405.517578"/>
      <use xlink:href="#DejaVuSans-6f" x="433.300781"/>
      <use xlink:href="#DejaVuSans-6e" x="494.482422"/>
     </g>
    </g>
   </g>
   <g id="matplotlib.axis_2">
    <g id="ytick_1">
     <g id="line2d_6">
      <path d="M 67.3075 305.646652 
L 339.579235 305.646652 
" clip-path="url(#pda6312da7f)" style="fill: none; stroke: #ffffff; stroke-linecap: round"/>
     </g>
     <g id="text_7">
      <!-- 0 -->
      <g style="fill: #262626" transform="translate(50.80875 309.825793)scale(0.11 -0.11)">
       <use xlink:href="#DejaVuSans-30"/>
      </g>
     </g>
    </g>
    <g id="ytick_2">
     <g id="line2d_7">
      <path d="M 67.3075 250.419439 
L 339.579235 250.419439 
" clip-path="url(#pda6312da7f)" style="fill: none; stroke: #ffffff; stroke-linecap: round"/>
     </g>
     <g id="text_8">
      <!-- 5000 -->
      <g style="fill: #262626" transform="translate(29.8125 254.59858)scale(0.11 -0.11)">
       <use xlink:href="#DejaVuSans-35"/>
       <use xlink:href="#DejaVuSans-30" x="63.623047"/>
       <use xlink:href="#DejaVuSans-30" x="127.246094"/>
       <use xlink:href="#DejaVuSans-30" x="190.869141"/>
      </g>
     </g>
    </g>
    <g id="ytick_3">
     <g id="line2d_8">
      <path d="M 67.3075 195.192227 
L 339.579235 195.192227 
" clip-path="url(#pda6312da7f)" style="fill: none; stroke: #ffffff; stroke-linecap: round"/>
     </g>
     <g id="text_9">
      <!-- 10000 -->
      <g style="fill: #262626" transform="translate(22.81375 199.371368)scale(0.11 -0.11)">
       <use xlink:href="#DejaVuSans-31"/>
       <use xlink:href="#DejaVuSans-30" x="63.623047"/>
       <use xlink:href="#DejaVuSans-30" x="127.246094"/>
       <use xlink:href="#DejaVuSans-30" x="190.869141"/>
       <use xlink:href="#DejaVuSans-30" x="254.492188"/>
      </g>
     </g>
    </g>
    <g id="ytick_4">
     <g id="line2d_9">
      <path d="M 67.3075 139.965014 
L 339.579235 139.965014 
" clip-path="url(#pda6312da7f)" style="fill: none; stroke: #ffffff; stroke-linecap: round"/>
     </g>
     <g id="text_10">
      <!-- 15000 -->
      <g style="fill: #262626" transform="translate(22.81375 144.144155)scale(0.11 -0.11)">
       <use xlink:href="#DejaVuSans-31"/>
       <use xlink:href="#DejaVuSans-35" x="63.623047"/>
       <use xlink:href="#DejaVuSans-30" x="127.246094"/>
       <use xlink:href="#DejaVuSans-30" x="190.869141"/>
       <use xlink:href="#DejaVuSans-30" x="254.492188"/>
      </g>
     </g>
    </g>
    <g id="ytick_5">
     <g id="line2d_10">
      <path d="M 67.3075 84.737802 
L 339.579235 84.737802 
" clip-path="url(#pda6312da7f)" style="fill: none; stroke: #ffffff; stroke-linecap: round"/>
     </g>
     <g id="text_11">
      <!-- 20000 -->
      <g style="fill: #262626" transform="translate(22.81375 88.916942)scale(0.11 -0.11)">
       <use xlink:href="#DejaVuSans-32"/>
       <use xlink:href="#DejaVuSans-30" x="63.623047"/>
       <use xlink:href="#DejaVuSans-30" x="127.246094"/>
       <use xlink:href="#DejaVuSans-30" x="190.869141"/>
       <use xlink:href="#DejaVuSans-30" x="254.492188"/>
      </g>
     </g>
    </g>
    <g id="ytick_6">
     <g id="line2d_11">
      <path d="M 67.3075 29.510589 
L 339.579235 29.510589 
" clip-path="url(#pda6312da7f)" style="fill: none; stroke: #ffffff; stroke-linecap: round"/>
     </g>
     <g id="text_12">
      <!-- 25000 -->
      <g style="fill: #262626" transform="translate(22.81375 33.68973)scale(0.11 -0.11)">
       <use xlink:href="#DejaVuSans-32"/>
       <use xlink:href="#DejaVuSans-35" x="63.623047"/>
       <use xlink:href="#DejaVuSans-30" x="127.246094"/>
       <use xlink:href="#DejaVuSans-30" x="190.869141"/>
       <use xlink:href="#DejaVuSans-30" x="254.492188"/>
      </g>
     </g>
    </g>
    <g id="text_13">
     <!-- Fitness -->
     <g style="fill: #262626" transform="translate(16.318125 191.50875)rotate(-90)scale(0.12 -0.12)">
      <defs>
       <path id="DejaVuSans-46" d="M 628 4666 
L 3309 4666 
L 3309 4134 
L 1259 4134 
L 1259 2759 
L 3109 2759 
L 3109 2228 
L 1259 2228 
L 1259 0 
L 628 0 
L 628 4666 
z
" transform="scale(0.015625)"/>
       <path id="DejaVuSans-73" d="M 2834 3397 
L 2834 2853 
Q 2591 2978 2328 3040 
Q 2066 3103 1784 3103 
Q 1356 3103 1142 2972 
Q 928 2841 928 2578 
Q 928 2378 1081 2264 
Q 1234 2150 1697 2047 
L 1894 2003 
Q 2506 1872 2764 1633 
Q 3022 1394 3022 966 
Q 3022 478 2636 193 
Q 2250 -91 1575 -91 
Q 1294 -91 989 -36 
Q 684 19 347 128 
L 347 722 
Q 666 556 975 473 
Q 1284 391 1588 391 
Q 1994 391 2212 530 
Q 2431 669 2431 922 
Q 2431 1156 2273 1281 
Q 2116 1406 1581 1522 
L 1381 1569 
Q 847 1681 609 1914 
Q 372 2147 372 2553 
Q 372 3047 722 3315 
Q 1072 3584 1716 3584 
Q 2034 3584 2315 3537 
Q 2597 3491 2834 3397 
z
" transform="scale(0.015625)"/>
      </defs>
      <use xlink:href="#DejaVuSans-46"/>
      <use xlink:href="#DejaVuSans-69" x="50.269531"/>
      <use xlink:href="#DejaVuSans-74" x="78.052734"/>
      <use xlink:href="#DejaVuSans-6e" x="117.261719"/>
      <use xlink:href="#DejaVuSans-65" x="180.640625"/>
      <use xlink:href="#DejaVuSans-73" x="242.164062"/>
      <use xlink:href="#DejaVuSans-73" x="294.263672"/>
     </g>
    </g>
   </g>
   <g id="PolyCollection_1">
    <defs>
     <path id="md374187d8e" d="M 79.683488 -56.48258 
L 79.683488 -56.454267 
L 80.927306 -56.505689 
L 82.171124 -56.499484 
L 83.414942 -56.519849 
L 84.658759 -56.543321 
L 85.902577 -56.564368 
L 87.146395 -56.58991 
L 88.390213 -56.612338 
L 89.634031 -56.625463 
L 90.877849 -56.713136 
L 92.121667 -56.693781 
L 93.365485 -56.795278 
L 94.609303 -56.864657 
L 95.85312 -56.896421 
L 97.096938 -56.917779 
L 98.340756 -56.967181 
L 99.584574 -56.940258 
L 100.828392 -56.937497 
L 102.07221 -56.910884 
L 103.316028 -56.907122 
L 104.559846 -56.878481 
L 105.803664 -56.950251 
L 107.047481 -56.996866 
L 108.291299 -56.831857 
L 109.535117 -56.895386 
L 110.778935 -56.917813 
L 112.022753 -56.848434 
L 113.266571 -57.005849 
L 114.510389 -56.9658 
L 115.754207 -56.939921 
L 116.998025 -56.958207 
L 118.241842 -56.836017 
L 119.48566 -56.948542 
L 120.729478 -56.931974 
L 121.973296 -56.963712 
L 123.217114 -56.94648 
L 124.460932 -56.829104 
L 125.70475 -56.888137 
L 126.948568 -56.867712 
L 128.192385 -56.913309 
L 129.436203 -56.863941 
L 130.680021 -56.850859 
L 131.923839 -56.961641 
L 133.167657 -56.900572 
L 134.411475 -56.922999 
L 135.655293 -56.92646 
L 136.899111 -56.948887 
L 138.142929 -56.941276 
L 139.386746 -57.001707 
L 140.630564 -56.99722 
L 141.874382 -56.919841 
L 143.1182 -56.909866 
L 144.362018 -56.924691 
L 145.605836 -56.960977 
L 146.849654 -56.966827 
L 148.093472 -56.935434 
L 149.33729 -56.887102 
L 150.581107 -56.922991 
L 151.824925 -56.993742 
L 153.068743 -56.984431 
L 154.312561 -56.980979 
L 155.556379 -56.893323 
L 156.800197 -56.920937 
L 158.044015 -56.966801 
L 159.287833 -56.966499 
L 160.53165 -56.961624 
L 161.775468 -56.951951 
L 163.019286 -56.968208 
L 164.263104 -56.946126 
L 165.506922 -56.98513 
L 166.75074 -56.990601 
L 167.994558 -57.050712 
L 169.238376 -57.027577 
L 170.482194 -57.128729 
L 171.726011 -56.983404 
L 172.969829 -56.994795 
L 174.213647 -57.112843 
L 175.457465 -57.02586 
L 176.701283 -57.103515 
L 177.945101 -56.9789 
L 179.188919 -56.938869 
L 180.432737 -57.067979 
L 181.676555 -57.119729 
L 182.920372 -57.084194 
L 184.16419 -57.016894 
L 185.408008 -56.969951 
L 186.651826 -57.020001 
L 187.895644 -56.97581 
L 189.139462 -57.161866 
L 190.38328 -57.013417 
L 191.627098 -57.114577 
L 192.870915 -57.032738 
L 194.114733 -57.051049 
L 195.358551 -57.071647 
L 196.602369 -57.022736 
L 197.846187 -57.023107 
L 199.090005 -57.095248 
L 200.333823 -57.119738 
L 201.577641 -57.033109 
L 202.821459 -56.965792 
L 204.065276 -56.93439 
L 205.309094 -57.059669 
L 206.552912 -57.011363 
L 207.79673 -57.041048 
L 209.040548 -57.079689 
L 210.284366 -56.984768 
L 211.528184 -57.067626 
L 212.772002 -56.970961 
L 214.01582 -56.991352 
L 215.259637 -56.940931 
L 216.503455 -57.086567 
L 217.747273 -57.010949 
L 218.991091 -57.018603 
L 220.234909 -56.919513 
L 221.478727 -56.927832 
L 222.722545 -56.931974 
L 223.966363 -57.005832 
L 225.21018 -56.982317 
L 226.453998 -57.00723 
L 227.697816 -57.022072 
L 228.941634 -57.060351 
L 230.185452 -57.098682 
L 231.42927 -57.057279 
L 232.673088 -57.157025 
L 233.916906 -57.008576 
L 235.160724 -57.024143 
L 236.404541 -56.934045 
L 237.648359 -57.024825 
L 238.892177 -57.092452 
L 240.135995 -57.04796 
L 241.379813 -57.097664 
L 242.623631 -57.124587 
L 243.867449 -57.161866 
L 245.111267 -57.022408 
L 246.355085 -57.081381 
L 247.598902 -56.969244 
L 248.84272 -57.064174 
L 250.086538 -56.929195 
L 251.330356 -57.000922 
L 252.574174 -56.944745 
L 253.817992 -57.065209 
L 255.06181 -56.994087 
L 256.305628 -57.026559 
L 257.549445 -57.129075 
L 258.793263 -57.033109 
L 260.037081 -57.151165 
L 261.280899 -57.169787 
L 262.524717 -57.115596 
L 263.768535 -57.074538 
L 265.012353 -57.072467 
L 266.256171 -57.2416 
L 267.499989 -57.09731 
L 268.743806 -57.02517 
L 269.987624 -57.102488 
L 271.231442 -57.06936 
L 272.47526 -57.02863 
L 273.719078 -57.009628 
L 274.962896 -57.077989 
L 276.206714 -57.079991 
L 277.450532 -57.027595 
L 278.69435 -57.049677 
L 279.938167 -57.166681 
L 281.181985 -56.963721 
L 282.425803 -57.096516 
L 283.669621 -57.054854 
L 284.913439 -57.126305 
L 286.157257 -57.170115 
L 287.401075 -57.075219 
L 288.644893 -56.945729 
L 289.88871 -57.046208 
L 291.132528 -57.041401 
L 292.376346 -57.088983 
L 293.620164 -57.059695 
L 294.863982 -57.001318 
L 296.1078 -57.124587 
L 297.351618 -57.126995 
L 298.595436 -57.078335 
L 299.839254 -56.978209 
L 301.083071 -56.875892 
L 302.326889 -57.111126 
L 303.570707 -57.047597 
L 304.814525 -57.048633 
L 306.058343 -56.945712 
L 307.302161 -57.042748 
L 308.545979 -57.027232 
L 309.789797 -57.119755 
L 311.033615 -57.12904 
L 312.277432 -57.058988 
L 313.52125 -57.009628 
L 314.765068 -57.003769 
L 316.008886 -57.12734 
L 317.252704 -57.051403 
L 318.496522 -57.147369 
L 319.74034 -57.036897 
L 320.984158 -57.110763 
L 322.227976 -57.147006 
L 323.471793 -57.047554 
L 324.715611 -56.9388 
L 325.959429 -57.131137 
L 327.203247 -57.065883 
L 327.203247 -57.219872 
L 327.203247 -57.219872 
L 325.959429 -57.235396 
L 324.715611 -57.152572 
L 323.471793 -57.221925 
L 322.227976 -57.24229 
L 320.984158 -57.24091 
L 319.74034 -57.207445 
L 318.496522 -57.245742 
L 317.252704 -57.221943 
L 316.008886 -57.248503 
L 314.765068 -57.197082 
L 313.52125 -57.202604 
L 312.277432 -57.221252 
L 311.033615 -57.245742 
L 309.789797 -57.246432 
L 308.545979 -57.207816 
L 307.302161 -57.207445 
L 306.058343 -57.164653 
L 304.814525 -57.219863 
L 303.570707 -57.225731 
L 302.326889 -57.244707 
L 301.083071 -57.132871 
L 299.839254 -57.196469 
L 298.595436 -57.251627 
L 297.351618 -57.251964 
L 296.1078 -57.25161 
L 294.863982 -57.197772 
L 293.620164 -57.225386 
L 292.376346 -57.245052 
L 291.132528 -57.220208 
L 289.88871 -57.218499 
L 288.644893 -57.1743 
L 287.401075 -57.240918 
L 286.157257 -57.251955 
L 284.913439 -57.247131 
L 283.669621 -57.224695 
L 282.425803 -57.250229 
L 281.181985 -57.178796 
L 279.938167 -57.248158 
L 278.69435 -57.227457 
L 277.450532 -57.219173 
L 276.206714 -57.227448 
L 274.962896 -57.229528 
L 273.719078 -57.206427 
L 272.47526 -57.207428 
L 271.231442 -57.2416 
L 269.987624 -57.246432 
L 268.743806 -57.21711 
L 267.499989 -57.245052 
L 266.256171 -57.249884 
L 265.012353 -57.230209 
L 263.768535 -57.225739 
L 262.524717 -57.246432 
L 261.280899 -57.247123 
L 260.037081 -57.245052 
L 258.793263 -57.219198 
L 257.549445 -57.247813 
L 256.305628 -57.220562 
L 255.06181 -57.197418 
L 253.817992 -57.225377 
L 252.574174 -57.164981 
L 251.330356 -57.197073 
L 250.086538 -57.145997 
L 248.84272 -57.218482 
L 247.598902 -57.171556 
L 246.355085 -57.239192 
L 245.111267 -57.207773 
L 243.867449 -57.248503 
L 242.623631 -57.248167 
L 241.379813 -57.245742 
L 240.135995 -57.223651 
L 238.892177 -57.245086 
L 237.648359 -57.217136 
L 236.404541 -57.154617 
L 235.160724 -57.207083 
L 233.916906 -57.207816 
L 232.673088 -57.26162 
L 231.42927 -57.232626 
L 230.185452 -57.247477 
L 228.941634 -57.223677 
L 227.697816 -57.203666 
L 226.453998 -57.205081 
L 225.21018 -57.186036 
L 223.966363 -57.198506 
L 222.722545 -57.150501 
L 221.478727 -57.149448 
L 220.234909 -57.139102 
L 218.991091 -57.205711 
L 217.747273 -57.210975 
L 216.503455 -57.244715 
L 215.259637 -57.175353 
L 214.01582 -57.201905 
L 212.772002 -57.177744 
L 211.528184 -57.226421 
L 210.284366 -57.182921 
L 209.040548 -57.226067 
L 207.79673 -57.217102 
L 206.552912 -57.197435 
L 205.309094 -57.220199 
L 204.065276 -57.167078 
L 202.821459 -57.17292 
L 201.577641 -57.215039 
L 200.333823 -57.238166 
L 199.090005 -57.236077 
L 197.846187 -57.212261 
L 196.602369 -57.21088 
L 195.358551 -57.220199 
L 194.114733 -57.216403 
L 192.870915 -57.21088 
L 191.627098 -57.235387 
L 190.38328 -57.204322 
L 189.139462 -57.235387 
L 187.895644 -57.186718 
L 186.651826 -57.196038 
L 185.408008 -57.186718 
L 184.16419 -57.187753 
L 182.920372 -57.23058 
L 181.676555 -57.234697 
L 180.432737 -57.228484 
L 179.188919 -57.149802 
L 177.945101 -57.164291 
L 176.701283 -57.195701 
L 175.457465 -57.17292 
L 174.213647 -57.20295 
L 172.969829 -57.167414 
L 171.726011 -57.169813 
L 170.482194 -57.207083 
L 169.238376 -57.188107 
L 167.994558 -57.200197 
L 166.75074 -57.17153 
L 165.506922 -57.164291 
L 164.263104 -57.149819 
L 163.019286 -57.14912 
L 161.775468 -57.143606 
L 160.53165 -57.144659 
L 159.287833 -57.138066 
L 158.044015 -57.144961 
L 156.800197 -57.107337 
L 155.556379 -57.081165 
L 154.312561 -57.136332 
L 153.068743 -57.144271 
L 151.824925 -57.143235 
L 150.581107 -57.100831 
L 149.33729 -57.079396 
L 148.093472 -57.098717 
L 146.849654 -57.116648 
L 145.605836 -57.109745 
L 144.362018 -57.084901 
L 143.1182 -57.069714 
L 141.874382 -57.085937 
L 140.630564 -57.128755 
L 139.386746 -57.112178 
L 138.142929 -57.080785 
L 136.899111 -57.080423 
L 135.655293 -57.05696 
L 134.411475 -57.058323 
L 133.167657 -57.043127 
L 131.923839 -57.062112 
L 130.680021 -57.005875 
L 129.436203 -57.01415 
L 128.192385 -57.051066 
L 126.948568 -57.024151 
L 125.70475 -57.040711 
L 124.460932 -57.01862 
L 123.217114 -57.064899 
L 121.973296 -57.063156 
L 120.729478 -57.047977 
L 119.48566 -57.048305 
L 118.241842 -57.010008 
L 116.998025 -57.061775 
L 115.754207 -57.053146 
L 114.510389 -57.065563 
L 113.266571 -57.070396 
L 112.022753 -57.014478 
L 110.778935 -57.057624 
L 109.535117 -57.04179 
L 108.291299 -57.004511 
L 107.047481 -57.074546 
L 105.803664 -57.059359 
L 104.559846 -57.027267 
L 103.316028 -57.036586 
L 102.07221 -57.045897 
L 100.828392 -57.06143 
L 99.584574 -57.056295 
L 98.340756 -57.060731 
L 97.096938 -57.03933 
L 95.85312 -57.027249 
L 94.609303 -57.011734 
L 93.365485 -56.948576 
L 92.121667 -56.851221 
L 90.877849 -56.857081 
L 89.634031 -56.737307 
L 88.390213 -56.720402 
L 87.146395 -56.678636 
L 85.902577 -56.632375 
L 84.658759 -56.60546 
L 83.414942 -56.585777 
L 82.171124 -56.555756 
L 80.927306 -56.556463 
L 79.683488 -56.48258 
z
" style="stroke: #edd1cb; stroke-opacity: 0.2"/>
    </defs>
    <g clip-path="url(#pda6312da7f)">
     <use xlink:href="#md374187d8e" x="0" y="362.097812" style="fill: #edd1cb; fill-opacity: 0.2; stroke: #edd1cb; stroke-opacity: 0.2"/>
    </g>
   </g>
   <g id="PolyCollection_2">
    <defs>
     <path id="m23ad72dc39" d="M 79.683488 -56.454612 
L 79.683488 -56.451506 
L 80.927306 -56.459445 
L 82.171124 -56.463932 
L 83.414942 -56.466693 
L 84.658759 -56.490165 
L 85.902577 -56.522611 
L 87.146395 -56.584396 
L 88.390213 -56.575422 
L 89.634031 -56.606487 
L 90.877849 -56.624427 
L 92.121667 -56.645146 
L 93.365485 -56.634791 
L 94.609303 -56.62718 
L 95.85312 -56.635827 
L 97.096938 -56.650652 
L 98.340756 -56.620976 
L 99.584574 -56.616497 
L 100.828392 -56.623392 
L 102.07221 -56.648934 
L 103.316028 -56.627197 
L 104.559846 -56.637518 
L 105.803664 -56.644456 
L 107.047481 -56.662405 
L 108.291299 -56.641004 
L 109.535117 -56.613045 
L 110.778935 -56.648926 
L 112.022753 -56.60716 
L 113.266571 -56.649625 
L 114.510389 -56.667927 
L 115.754207 -56.641004 
L 116.998025 -56.64273 
L 118.241842 -56.633402 
L 119.48566 -56.625118 
L 120.729478 -56.690337 
L 121.973296 -56.696231 
L 123.217114 -56.665856 
L 124.460932 -56.668264 
L 125.70475 -56.704515 
L 126.948568 -56.693815 
L 128.192385 -56.716941 
L 129.436203 -56.704136 
L 130.680021 -56.702789 
L 131.923839 -56.726598 
L 133.167657 -56.716251 
L 134.411475 -56.746971 
L 135.655293 -56.715216 
L 136.899111 -56.722456 
L 138.142929 -56.749733 
L 139.386746 -56.724173 
L 140.630564 -56.72073 
L 141.874382 -56.754211 
L 143.1182 -56.725907 
L 144.362018 -56.720039 
L 145.605836 -56.717287 
L 146.849654 -56.758353 
L 148.093472 -56.731421 
L 149.33729 -56.7449 
L 150.581107 -56.725571 
L 151.824925 -56.731439 
L 153.068743 -56.786657 
L 154.312561 -56.77562 
L 155.556379 -56.80011 
L 156.800197 -56.833264 
L 158.044015 -56.808412 
L 159.287833 -56.845 
L 160.53165 -56.888482 
L 161.775468 -56.86086 
L 163.019286 -56.890553 
L 164.263104 -56.732768 
L 165.506922 -56.822218 
L 166.75074 -56.80886 
L 167.994558 -56.885376 
L 169.238376 -56.849832 
L 170.482194 -56.832228 
L 171.726011 -56.841548 
L 172.969829 -56.831529 
L 174.213647 -56.950276 
L 175.457465 -56.860532 
L 176.701283 -56.81635 
L 177.945101 -56.85085 
L 179.188919 -56.851178 
L 180.432737 -56.876401 
L 181.676555 -56.822218 
L 182.920372 -56.790756 
L 184.16419 -56.786942 
L 185.408008 -56.754556 
L 186.651826 -56.879862 
L 187.895644 -56.834299 
L 189.139462 -56.948896 
L 190.38328 -56.892271 
L 191.627098 -56.836353 
L 192.870915 -56.816696 
L 194.114733 -56.831521 
L 195.358551 -56.820829 
L 196.602369 -56.88573 
L 197.846187 -56.8625 
L 199.090005 -56.799394 
L 200.333823 -56.91437 
L 201.577641 -56.873304 
L 202.821459 -56.789746 
L 204.065276 -56.888836 
L 205.309094 -56.882968 
L 206.552912 -56.849487 
L 207.79673 -56.88642 
L 209.040548 -56.858444 
L 210.284366 -56.818758 
L 211.528184 -56.754884 
L 212.772002 -56.833954 
L 214.01582 -56.883659 
L 215.259637 -56.83291 
L 216.503455 -56.833609 
L 217.747273 -56.855363 
L 218.991091 -56.85356 
L 220.234909 -56.909201 
L 221.478727 -56.90575 
L 222.722545 -56.897802 
L 223.966363 -56.828759 
L 225.21018 -56.828777 
L 226.453998 -56.856356 
L 227.697816 -56.908856 
L 228.941634 -56.801154 
L 230.185452 -56.891598 
L 231.42927 -56.869161 
L 232.673088 -56.817041 
L 233.916906 -56.867436 
L 235.160724 -56.917442 
L 236.404541 -56.847399 
L 237.648359 -57.033083 
L 238.892177 -56.968217 
L 240.135995 -57.144512 
L 241.379813 -57.444172 
L 242.623631 -57.509038 
L 243.867449 -57.58677 
L 245.111267 -57.708615 
L 246.355085 -57.513931 
L 247.598902 -57.368277 
L 248.84272 -57.442826 
L 250.086538 -57.451757 
L 251.330356 -57.608852 
L 252.574174 -57.589186 
L 253.817992 -57.537756 
L 255.06181 -57.36058 
L 256.305628 -57.831841 
L 257.549445 -57.620588 
L 258.793263 -57.553634 
L 260.037081 -57.722077 
L 261.280899 -57.706544 
L 262.524717 -57.832876 
L 263.768535 -57.59074 
L 265.012353 -57.333752 
L 266.256171 -57.338239 
L 267.499989 -57.453862 
L 268.743806 -57.305094 
L 269.987624 -57.660636 
L 271.231442 -57.504965 
L 272.47526 -57.53603 
L 273.719078 -57.738645 
L 274.962896 -57.429174 
L 276.206714 -57.54119 
L 277.450532 -57.352727 
L 278.69435 -57.391343 
L 279.938167 -57.571583 
L 281.181985 -57.49461 
L 282.425803 -57.619898 
L 283.669621 -57.570176 
L 284.913439 -57.667186 
L 286.157257 -57.507726 
L 287.401075 -57.641247 
L 288.644893 -57.581575 
L 289.88871 -57.703774 
L 291.132528 -57.702747 
L 292.376346 -57.54327 
L 293.620164 -57.498717 
L 294.863982 -57.367164 
L 296.1078 -57.718625 
L 297.351618 -57.58803 
L 298.595436 -57.452154 
L 299.839254 -57.71897 
L 301.083071 -57.65992 
L 302.326889 -57.624739 
L 303.570707 -57.533959 
L 304.814525 -57.792491 
L 306.058343 -57.585691 
L 307.302161 -57.513931 
L 308.545979 -57.510807 
L 309.789797 -57.501151 
L 311.033615 -57.549121 
L 312.277432 -57.578011 
L 313.52125 -57.618871 
L 314.765068 -57.366879 
L 316.008886 -57.616455 
L 317.252704 -57.620588 
L 318.496522 -57.570538 
L 319.74034 -57.49184 
L 320.984158 -57.591766 
L 322.227976 -57.544599 
L 323.471793 -57.5332 
L 324.715611 -57.483892 
L 325.959429 -57.55567 
L 327.203247 -57.386537 
L 327.203247 -57.745212 
L 327.203247 -57.745212 
L 325.959429 -57.809068 
L 324.715611 -57.790144 
L 323.471793 -57.793881 
L 322.227976 -57.812529 
L 320.984158 -57.832186 
L 319.74034 -57.793527 
L 318.496522 -57.830814 
L 317.252704 -57.835983 
L 316.008886 -57.836328 
L 314.765068 -57.75108 
L 313.52125 -57.837364 
L 312.277432 -57.838063 
L 311.033615 -57.837709 
L 309.789797 -57.800094 
L 308.545979 -57.805263 
L 307.302161 -57.801466 
L 306.058343 -57.817706 
L 304.814525 -57.846338 
L 303.570707 -57.799403 
L 302.326889 -57.849108 
L 301.083071 -57.852577 
L 299.839254 -57.854622 
L 298.595436 -57.773162 
L 297.351618 -57.856693 
L 296.1078 -57.854622 
L 294.863982 -57.729325 
L 293.620164 -57.807334 
L 292.376346 -57.840134 
L 291.132528 -57.842541 
L 289.88871 -57.844612 
L 288.644893 -57.835293 
L 287.401075 -57.834602 
L 286.157257 -57.791456 
L 284.913439 -57.837018 
L 283.669621 -57.833946 
L 282.425803 -57.836673 
L 281.181985 -57.794571 
L 279.938167 -57.834274 
L 278.69435 -57.757672 
L 277.450532 -57.724493 
L 276.206714 -57.807679 
L 274.962896 -57.791456 
L 273.719078 -57.84116 
L 272.47526 -57.837018 
L 271.231442 -57.801121 
L 269.987624 -57.835983 
L 268.743806 -57.68724 
L 267.499989 -57.791801 
L 266.256171 -57.709055 
L 265.012353 -57.712075 
L 263.768535 -57.837018 
L 262.524717 -57.84116 
L 261.280899 -57.843231 
L 260.037081 -57.84116 
L 258.793263 -57.835983 
L 257.549445 -57.835983 
L 256.305628 -57.837018 
L 255.06181 -57.723699 
L 253.817992 -57.833912 
L 252.574174 -57.832876 
L 251.330356 -57.833912 
L 250.086538 -57.792837 
L 248.84272 -57.792862 
L 247.598902 -57.74969 
L 246.355085 -57.797678 
L 245.111267 -57.837044 
L 243.867449 -57.837018 
L 242.623631 -57.794908 
L 241.379813 -57.769391 
L 240.135995 -57.522637 
L 238.892177 -57.351381 
L 237.648359 -57.340336 
L 236.404541 -57.113551 
L 235.160724 -57.115975 
L 233.916906 -57.061421 
L 232.673088 -56.993078 
L 231.42927 -57.011035 
L 230.185452 -57.034161 
L 228.941634 -56.923716 
L 227.697816 -56.955109 
L 226.453998 -56.952693 
L 225.21018 -56.938886 
L 223.966363 -56.935779 
L 222.722545 -56.954073 
L 221.478727 -56.955109 
L 220.234909 -56.954418 
L 218.991091 -56.952002 
L 217.747273 -56.950622 
L 216.503455 -56.939576 
L 215.259637 -56.938549 
L 214.01582 -56.952347 
L 212.772002 -56.938541 
L 211.528184 -56.894014 
L 210.284366 -56.935779 
L 209.040548 -56.951312 
L 207.79673 -56.953038 
L 206.552912 -56.941656 
L 205.309094 -56.952347 
L 204.065276 -56.953038 
L 202.821459 -56.909555 
L 201.577641 -56.952347 
L 200.333823 -56.953728 
L 199.090005 -56.923353 
L 197.846187 -56.951657 
L 196.602369 -56.952002 
L 195.358551 -56.929281 
L 194.114733 -56.938195 
L 192.870915 -56.932353 
L 191.627098 -56.932328 
L 190.38328 -56.952693 
L 189.139462 -56.953383 
L 187.895644 -56.938886 
L 186.651826 -56.953728 
L 185.408008 -56.90304 
L 184.16419 -56.914051 
L 182.920372 -56.916113 
L 181.676555 -56.934399 
L 180.432737 -56.953038 
L 179.188919 -56.939231 
L 177.945101 -56.951657 
L 176.701283 -56.93647 
L 175.457465 -56.952693 
L 174.213647 -56.955454 
L 172.969829 -56.93716 
L 171.726011 -56.939231 
L 170.482194 -56.939231 
L 169.238376 -56.943382 
L 167.994558 -56.953728 
L 166.75074 -56.923017 
L 165.506922 -56.93647 
L 164.263104 -56.873321 
L 163.019286 -56.952347 
L 161.775468 -56.945798 
L 160.53165 -56.951657 
L 159.287833 -56.93647 
L 158.044015 -56.919901 
L 156.800197 -56.902988 
L 155.556379 -56.891598 
L 154.312561 -56.86986 
L 153.068743 -56.864674 
L 151.824925 -56.82844 
L 150.581107 -56.822218 
L 149.33729 -56.811872 
L 148.093472 -56.790118 
L 146.849654 -56.796331 
L 145.605836 -56.785639 
L 144.362018 -56.787356 
L 143.1182 -56.788047 
L 141.874382 -56.795295 
L 140.630564 -56.791162 
L 139.386746 -56.791153 
L 138.142929 -56.795985 
L 136.899111 -56.790471 
L 135.655293 -56.78425 
L 134.411475 -56.79426 
L 133.167657 -56.78563 
L 131.923839 -56.791498 
L 130.680021 -56.775974 
L 129.436203 -56.781143 
L 128.192385 -56.781488 
L 126.948568 -56.770098 
L 125.70475 -56.769787 
L 124.460932 -56.742139 
L 123.217114 -56.738342 
L 121.973296 -56.741457 
L 120.729478 -56.732819 
L 119.48566 -56.694868 
L 118.241842 -56.691054 
L 116.998025 -56.693479 
L 115.754207 -56.691399 
L 114.510389 -56.694851 
L 113.266571 -56.683115 
L 112.022753 -56.664829 
L 110.778935 -56.679318 
L 109.535117 -56.658616 
L 108.291299 -56.669998 
L 107.047481 -56.672069 
L 105.803664 -56.672069 
L 104.559846 -56.672069 
L 103.316028 -56.672069 
L 102.07221 -56.672069 
L 100.828392 -56.667237 
L 99.584574 -56.665537 
L 98.340756 -56.667927 
L 97.096938 -56.67414 
L 95.85312 -56.67276 
L 94.609303 -56.669308 
L 93.365485 -56.672069 
L 92.121667 -56.672069 
L 90.877849 -56.666547 
L 89.634031 -56.649978 
L 88.390213 -56.632729 
L 87.146395 -56.634791 
L 85.902577 -56.58028 
L 84.658759 -56.541259 
L 83.414942 -56.496732 
L 82.171124 -56.473251 
L 80.927306 -56.467729 
L 79.683488 -56.454612 
z
" style="stroke: #d499a7; stroke-opacity: 0.2"/>
    </defs>
    <g clip-path="url(#pda6312da7f)">
     <use xlink:href="#m23ad72dc39" x="0" y="362.097812" style="fill: #d499a7; fill-opacity: 0.2; stroke: #d499a7; stroke-opacity: 0.2"/>
    </g>
   </g>
   <g id="PolyCollection_3">
    <defs>
     <path id="m7276100345" d="M 79.683488 -56.539869 
L 79.683488 -56.451851 
L 80.927306 -57.052084 
L 82.171124 -57.413141 
L 83.414942 -58.312274 
L 84.658759 -58.262579 
L 85.902577 -58.705993 
L 87.146395 -59.264297 
L 88.390213 -59.252466 
L 89.634031 -59.109997 
L 90.877849 -59.375364 
L 92.121667 -59.108884 
L 93.365485 -59.590465 
L 94.609303 -59.251094 
L 95.85312 -58.804875 
L 97.096938 -59.294309 
L 98.340756 -59.350831 
L 99.584574 -59.067783 
L 100.828392 -59.399586 
L 102.07221 -59.21423 
L 103.316028 -59.107926 
L 104.559846 -58.992078 
L 105.803664 -59.174544 
L 107.047481 -59.209 
L 108.291299 -58.923217 
L 109.535117 -59.369539 
L 110.778935 -59.037839 
L 112.022753 -59.275256 
L 113.266571 -60.267162 
L 114.510389 -61.65806 
L 115.754207 -65.840313 
L 116.998025 -69.058575 
L 118.241842 -69.849921 
L 119.48566 -72.275362 
L 120.729478 -73.659615 
L 121.973296 -73.648845 
L 123.217114 -76.931525 
L 124.460932 -79.969729 
L 125.70475 -81.563647 
L 126.948568 -87.51261 
L 128.192385 -90.083713 
L 129.436203 -94.201635 
L 130.680021 -95.585508 
L 131.923839 -89.513742 
L 133.167657 -95.680706 
L 134.411475 -92.82546 
L 135.655293 -90.364802 
L 136.899111 -93.386145 
L 138.142929 -95.83907 
L 139.386746 -90.855496 
L 140.630564 -90.493257 
L 141.874382 -93.866631 
L 143.1182 -98.147637 
L 144.362018 -104.353139 
L 145.605836 -181.339313 
L 146.849654 -260.517756 
L 148.093472 -285.402819 
L 149.33729 -274.325767 
L 150.581107 -233.353984 
L 151.824925 -281.854324 
L 153.068743 -281.103061 
L 154.312561 -272.035676 
L 155.556379 -269.906719 
L 156.800197 -279.753075 
L 158.044015 -268.795461 
L 159.287833 -284.007123 
L 160.53165 -296.658729 
L 161.775468 -296.534209 
L 163.019286 -319.45307 
L 164.263104 -250.24785 
L 165.506922 -270.245607 
L 166.75074 -286.752951 
L 167.994558 -267.298173 
L 169.238376 -281.743239 
L 170.482194 -283.122556 
L 171.726011 -284.997261 
L 172.969829 -323.233114 
L 174.213647 -323.871247 
L 175.457465 -293.378232 
L 176.701283 -299.607776 
L 177.945101 -251.932755 
L 179.188919 -281.544275 
L 180.432737 -283.239681 
L 181.676555 -323.266337 
L 182.920372 -282.409348 
L 184.16419 -321.748883 
L 185.408008 -284.252505 
L 186.651826 -298.779454 
L 187.895644 -320.12572 
L 189.139462 -319.712379 
L 190.38328 -296.998721 
L 191.627098 -320.264651 
L 192.870915 -280.439273 
L 194.114733 -296.736047 
L 195.358551 -280.233759 
L 196.602369 -280.739571 
L 197.846187 -257.653863 
L 199.090005 -295.603285 
L 200.333823 -318.987522 
L 201.577641 -239.954706 
L 202.821459 -276.958233 
L 204.065276 -281.369351 
L 205.309094 -279.208034 
L 206.552912 -258.370789 
L 207.79673 -302.145811 
L 209.040548 -280.158201 
L 210.284366 -281.50792 
L 211.528184 -270.831378 
L 212.772002 -283.7119 
L 214.01582 -283.589899 
L 215.259637 -279.921095 
L 216.503455 -296.042082 
L 217.747273 -264.260219 
L 218.991091 -280.290884 
L 220.234909 -272.39001 
L 221.478727 -272.996819 
L 222.722545 -280.775054 
L 223.966363 -269.544411 
L 225.21018 -297.092176 
L 226.453998 -321.144404 
L 227.697816 -250.110516 
L 228.941634 -267.349543 
L 230.185452 -299.06163 
L 231.42927 -298.112585 
L 232.673088 -257.606393 
L 233.916906 -320.60939 
L 235.160724 -322.128138 
L 236.404541 -272.059665 
L 237.648359 -292.20405 
L 238.892177 -275.712963 
L 240.135995 -269.883679 
L 241.379813 -297.558414 
L 242.623631 -296.99199 
L 243.867449 -320.851441 
L 245.111267 -281.22205 
L 246.355085 -282.746597 
L 247.598902 -256.088059 
L 248.84272 -280.943385 
L 250.086538 -281.96829 
L 251.330356 -283.005958 
L 252.574174 -272.623199 
L 253.817992 -264.237956 
L 255.06181 -255.258236 
L 256.305628 -259.211589 
L 257.549445 -295.047043 
L 258.793263 -295.468582 
L 260.037081 -277.903843 
L 261.280899 -282.205422 
L 262.524717 -317.330274 
L 263.768535 -293.586025 
L 265.012353 -278.36751 
L 266.256171 -247.09322 
L 267.499989 -254.660384 
L 268.743806 -267.681442 
L 269.987624 -255.702426 
L 271.231442 -300.774623 
L 272.47526 -262.950411 
L 273.719078 -279.484722 
L 274.962896 -257.713905 
L 276.206714 -289.942409 
L 277.450532 -256.105999 
L 278.69435 -281.072574 
L 279.938167 -279.602356 
L 281.181985 -263.843979 
L 282.425803 -319.107469 
L 283.669621 -297.691132 
L 284.913439 -278.425723 
L 286.157257 -301.425527 
L 287.401075 -281.628626 
L 288.644893 -249.546516 
L 289.88871 -316.087662 
L 291.132528 -317.72722 
L 292.376346 -264.837137 
L 293.620164 -262.168195 
L 294.863982 -246.898458 
L 296.1078 -255.332585 
L 297.351618 -269.771403 
L 298.595436 -271.041258 
L 299.839254 -268.580256 
L 301.083071 -266.72186 
L 302.326889 -245.571935 
L 303.570707 -254.267485 
L 304.814525 -230.277949 
L 306.058343 -269.394814 
L 307.302161 -264.737849 
L 308.545979 -276.232625 
L 309.789797 -261.53757 
L 311.033615 -263.273447 
L 312.277432 -312.30805 
L 313.52125 -249.617725 
L 314.765068 -265.089163 
L 316.008886 -260.811591 
L 317.252704 -275.958534 
L 318.496522 -295.761459 
L 319.74034 -291.519664 
L 320.984158 -290.552497 
L 322.227976 -274.636187 
L 323.471793 -266.282493 
L 324.715611 -290.017139 
L 325.959429 -274.14363 
L 327.203247 -276.256467 
L 327.203247 -316.831072 
L 327.203247 -316.831072 
L 325.959429 -315.605287 
L 324.715611 -316.674883 
L 323.471793 -314.676348 
L 322.227976 -316.727521 
L 320.984158 -318.435681 
L 319.74034 -318.57375 
L 318.496522 -318.194494 
L 317.252704 -316.882848 
L 316.008886 -315.214382 
L 314.765068 -313.949333 
L 313.52125 -307.304999 
L 312.277432 -315.639372 
L 311.033615 -314.207779 
L 309.789797 -316.24342 
L 308.545979 -318.005082 
L 307.302161 -317.764326 
L 306.058343 -318.195357 
L 304.814525 -301.629264 
L 303.570707 -312.176488 
L 302.326889 -308.545195 
L 301.083071 -318.814937 
L 299.839254 -318.262665 
L 298.595436 -318.297613 
L 297.351618 -318.454234 
L 296.1078 -312.406423 
L 294.863982 -310.363517 
L 293.620164 -318.33213 
L 292.376346 -318.763162 
L 291.132528 -320.558909 
L 289.88871 -319.453502 
L 288.644893 -309.639937 
L 287.401075 -319.712811 
L 286.157257 -321.075801 
L 284.913439 -321.248818 
L 283.669621 -321.508127 
L 282.425803 -322.214862 
L 281.181985 -319.214471 
L 279.938167 -321.286355 
L 278.69435 -321.370059 
L 277.450532 -313.317672 
L 276.206714 -321.732487 
L 274.962896 -313.240518 
L 273.719078 -320.989509 
L 272.47526 -319.042318 
L 271.231442 -320.31729 
L 269.987624 -311.811324 
L 268.743806 -317.989118 
L 267.499989 -311.499894 
L 266.256171 -309.865902 
L 265.012353 -320.247393 
L 263.768535 -320.903648 
L 262.524717 -320.489875 
L 261.280899 -320.420409 
L 260.037081 -320.006205 
L 258.793263 -320.627511 
L 257.549445 -320.766011 
L 256.305628 -312.759938 
L 255.06181 -312.21878 
L 253.817992 -320.973113 
L 252.574174 -320.52396 
L 251.330356 -322.076794 
L 250.086538 -322.232552 
L 248.84272 -322.284328 
L 247.598902 -314.760966 
L 246.355085 -323.526509 
L 245.111267 -323.561889 
L 243.867449 -323.510545 
L 242.623631 -323.906627 
L 241.379813 -324.320831 
L 240.135995 -324.062817 
L 238.892177 -323.926475 
L 237.648359 -324.942137 
L 236.404541 -323.423821 
L 235.160724 -324.890362 
L 233.916906 -324.200022 
L 232.673088 -315.631753 
L 231.42927 -323.717647 
L 230.185452 -323.87211 
L 228.941634 -322.439654 
L 227.697816 -314.533163 
L 226.453998 -324.147815 
L 225.21018 -323.647318 
L 223.966363 -322.422827 
L 222.722545 -323.129995 
L 221.478727 -322.456481 
L 220.234909 -321.525385 
L 218.991091 -321.921468 
L 217.747273 -321.300162 
L 216.503455 -321.835607 
L 215.259637 -321.352369 
L 214.01582 -321.403713 
L 212.772002 -321.577161 
L 211.528184 -321.613404 
L 210.284366 -321.714366 
L 209.040548 -321.524522 
L 207.79673 -321.387317 
L 206.552912 -313.306023 
L 205.309094 -320.937733 
L 204.065276 -320.351807 
L 202.821459 -319.661467 
L 201.577641 -305.749628 
L 200.333823 -320.885958 
L 199.090005 -321.921468 
L 197.846187 -313.184091 
L 196.602369 -320.765148 
L 195.358551 -321.042147 
L 194.114733 -322.525947 
L 192.870915 -321.974538 
L 191.627098 -323.198597 
L 190.38328 -323.198597 
L 189.139462 -323.026012 
L 187.895644 -323.026012 
L 186.651826 -322.888807 
L 185.408008 -323.008754 
L 184.16419 -324.493416 
L 182.920372 -324.113729 
L 181.676555 -325.617808 
L 180.432737 -325.01074 
L 179.188919 -324.666001 
L 177.945101 -316.074226 
L 176.701283 -326.134269 
L 175.457465 -325.943131 
L 174.213647 -326.287869 
L 172.969829 -325.977216 
L 171.726011 -324.717345 
L 170.482194 -324.90762 
L 169.238376 -324.666001 
L 167.994558 -323.216287 
L 166.75074 -323.250804 
L 165.506922 -321.593988 
L 164.263104 -313.749109 
L 163.019286 -323.285321 
L 161.775468 -323.319838 
L 160.53165 -323.63006 
L 159.287833 -322.577291 
L 158.044015 -321.490005 
L 156.800197 -322.076794 
L 155.556379 -321.352369 
L 154.312561 -322.49143 
L 153.068743 -323.18177 
L 151.824925 -323.354787 
L 150.581107 -307.498743 
L 149.33729 -324.476589 
L 148.093472 -324.803638 
L 146.849654 -317.120583 
L 145.605836 -260.210822 
L 144.362018 -161.594523 
L 143.1182 -119.482047 
L 141.874382 -98.832523 
L 140.630564 -98.786064 
L 139.386746 -98.896104 
L 138.142929 -99.324115 
L 136.899111 -99.232921 
L 135.655293 -98.308348 
L 134.411475 -99.500773 
L 133.167657 -99.683022 
L 131.923839 -98.34674 
L 130.680021 -99.696829 
L 129.436203 -99.721682 
L 128.192385 -98.553143 
L 126.948568 -95.677876 
L 125.70475 -91.08399 
L 124.460932 -88.213349 
L 123.217114 -85.23403 
L 121.973296 -80.591148 
L 120.729478 -78.886629 
L 119.48566 -77.306596 
L 118.241842 -74.444626 
L 116.998025 -73.636178 
L 115.754207 -70.71905 
L 114.510389 -65.934734 
L 113.266571 -62.82552 
L 112.022753 -60.807474 
L 110.778935 -59.653787 
L 109.535117 -59.831411 
L 108.291299 -59.608794 
L 107.047481 -59.785935 
L 105.803664 -59.736834 
L 104.559846 -59.713423 
L 103.316028 -59.692316 
L 102.07221 -59.729586 
L 100.828392 -59.754438 
L 99.584574 -59.681685 
L 98.340756 -59.769971 
L 97.096938 -59.769643 
L 95.85312 -59.584761 
L 94.609303 -59.773448 
L 93.365485 -59.785857 
L 92.121667 -59.717867 
L 90.877849 -59.764483 
L 89.634031 -59.707892 
L 88.390213 -59.731657 
L 87.146395 -59.712681 
L 85.902577 -59.462778 
L 84.658759 -59.167994 
L 83.414942 -59.162834 
L 82.171124 -58.14252 
L 80.927306 -57.448383 
L 79.683488 -56.539869 
z
" style="stroke: #a9678f; stroke-opacity: 0.2"/>
    </defs>
    <g clip-path="url(#pda6312da7f)">
     <use xlink:href="#m7276100345" x="0" y="362.097812" style="fill: #a9678f; fill-opacity: 0.2; stroke: #a9678f; stroke-opacity: 0.2"/>
    </g>
   </g>
   <g id="PolyCollection_4">
    <defs>
     <path id="m415a41ed3a" d="M 79.683488 -56.471526 
L 79.683488 -56.451851 
L 80.927306 -56.529859 
L 82.171124 -59.510291 
L 83.414942 -61.616605 
L 84.658759 -62.816442 
L 85.902577 -62.504676 
L 87.146395 -62.810151 
L 88.390213 -63.298774 
L 89.634031 -62.979897 
L 90.877849 -63.934715 
L 92.121667 -63.027608 
L 93.365485 -62.158108 
L 94.609303 -62.342135 
L 95.85312 -63.245066 
L 97.096938 -61.822274 
L 98.340756 -62.946554 
L 99.584574 -63.214078 
L 100.828392 -63.906834 
L 102.07221 -63.47645 
L 103.316028 -63.380139 
L 104.559846 -63.931686 
L 105.803664 -64.065483 
L 107.047481 -66.067211 
L 108.291299 -68.889546 
L 109.535117 -69.917721 
L 110.778935 -72.706523 
L 112.022753 -72.041457 
L 113.266571 -73.135345 
L 114.510389 -72.575945 
L 115.754207 -74.11882 
L 116.998025 -75.48106 
L 118.241842 -76.593552 
L 119.48566 -71.717558 
L 120.729478 -74.677858 
L 121.973296 -74.806934 
L 123.217114 -74.043996 
L 124.460932 -74.210817 
L 125.70475 -74.811775 
L 126.948568 -76.523146 
L 128.192385 -72.743309 
L 129.436203 -72.705711 
L 130.680021 -73.307438 
L 131.923839 -73.911235 
L 133.167657 -73.446731 
L 134.411475 -73.986215 
L 135.655293 -70.870891 
L 136.899111 -73.493933 
L 138.142929 -73.399728 
L 139.386746 -73.445954 
L 140.630564 -74.862869 
L 141.874382 -71.504192 
L 143.1182 -76.3799 
L 144.362018 -74.592264 
L 145.605836 -74.575325 
L 146.849654 -74.842841 
L 148.093472 -74.469755 
L 149.33729 -74.554114 
L 150.581107 -74.510796 
L 151.824925 -74.584153 
L 153.068743 -80.416414 
L 154.312561 -91.383028 
L 155.556379 -100.308195 
L 156.800197 -110.795333 
L 158.044015 -109.422997 
L 159.287833 -104.857148 
L 160.53165 -105.907561 
L 161.775468 -107.47037 
L 163.019286 -111.129587 
L 164.263104 -107.31324 
L 165.506922 -116.312972 
L 166.75074 -116.494876 
L 167.994558 -110.950789 
L 169.238376 -110.962525 
L 170.482194 -110.938328 
L 171.726011 -110.945266 
L 172.969829 -105.195251 
L 174.213647 -107.651274 
L 175.457465 -107.569123 
L 176.701283 -116.760657 
L 177.945101 -102.171975 
L 179.188919 -107.546635 
L 180.432737 -107.587668 
L 181.676555 -111.097797 
L 182.920372 -105.199867 
L 184.16419 -107.384233 
L 185.408008 -116.393396 
L 186.651826 -101.754932 
L 187.895644 -99.647375 
L 189.139462 -108.460387 
L 190.38328 -110.615318 
L 191.627098 -107.721688 
L 192.870915 -107.576061 
L 194.114733 -111.582071 
L 195.358551 -107.177718 
L 196.602369 -111.073635 
L 197.846187 -99.636623 
L 199.090005 -104.505238 
L 200.333823 -107.184983 
L 201.577641 -111.556217 
L 202.821459 -116.367163 
L 204.065276 -116.262232 
L 205.309094 -107.072113 
L 206.552912 -101.566124 
L 207.79673 -116.078601 
L 209.040548 -116.052368 
L 210.284366 -110.446841 
L 211.528184 -115.667055 
L 212.772002 -110.085758 
L 214.01582 -110.188654 
L 215.259637 -106.668902 
L 216.503455 -106.609775 
L 217.747273 -100.573665 
L 218.991091 -107.175319 
L 220.234909 -109.948933 
L 221.478727 -98.947482 
L 222.722545 -110.130768 
L 223.966363 -115.96259 
L 225.21018 -106.422365 
L 226.453998 -105.54099 
L 227.697816 -103.544216 
L 228.941634 -114.985033 
L 230.185452 -114.869125 
L 231.42927 -109.963188 
L 232.673088 -109.942582 
L 233.916906 -109.645943 
L 235.160724 -114.899224 
L 236.404541 -114.754425 
L 237.648359 -106.251609 
L 238.892177 -100.802668 
L 240.135995 -100.779809 
L 241.379813 -102.812654 
L 242.623631 -109.70117 
L 243.867449 -110.262744 
L 245.111267 -102.081152 
L 246.355085 -109.399871 
L 247.598902 -110.426726 
L 248.84272 -107.557293 
L 250.086538 -107.249642 
L 251.330356 -107.222831 
L 252.574174 -104.659978 
L 253.817992 -106.386743 
L 255.06181 -106.390152 
L 256.305628 -102.606052 
L 257.549445 -109.52515 
L 258.793263 -109.256064 
L 260.037081 -106.844551 
L 261.280899 -106.608972 
L 262.524717 -108.486326 
L 263.768535 -101.203402 
L 265.012353 -105.930722 
L 266.256171 -107.785053 
L 267.499989 -105.07168 
L 268.743806 -113.896324 
L 269.987624 -113.916016 
L 271.231442 -121.506478 
L 272.47526 -135.801499 
L 273.719078 -162.279599 
L 274.962896 -199.097027 
L 276.206714 -196.316492 
L 277.450532 -194.308802 
L 278.69435 -204.319166 
L 279.938167 -200.920794 
L 281.181985 -194.724188 
L 282.425803 -202.281774 
L 283.669621 -209.500367 
L 284.913439 -199.268491 
L 286.157257 -229.224317 
L 287.401075 -218.071898 
L 288.644893 -201.266266 
L 289.88871 -195.348963 
L 291.132528 -215.408566 
L 292.376346 -206.51242 
L 293.620164 -181.180785 
L 294.863982 -201.081056 
L 296.1078 -197.820873 
L 297.351618 -196.091813 
L 298.595436 -197.867911 
L 299.839254 -192.611609 
L 301.083071 -217.535021 
L 302.326889 -197.002466 
L 303.570707 -206.840504 
L 304.814525 -194.514247 
L 306.058343 -184.602171 
L 307.302161 -202.885416 
L 308.545979 -208.321473 
L 309.789797 -217.632816 
L 311.033615 -218.427052 
L 312.277432 -184.84889 
L 313.52125 -196.813192 
L 314.765068 -195.677617 
L 316.008886 -213.922168 
L 317.252704 -216.308476 
L 318.496522 -212.82741 
L 319.74034 -209.635657 
L 320.984158 -201.929277 
L 322.227976 -195.27791 
L 323.471793 -210.627253 
L 324.715611 -209.929897 
L 325.959429 -210.864807 
L 327.203247 -195.269825 
L 327.203247 -234.145364 
L 327.203247 -234.145364 
L 325.959429 -238.873435 
L 324.715611 -239.591768 
L 323.471793 -239.023299 
L 322.227976 -233.561595 
L 320.984158 -233.553786 
L 319.74034 -234.072576 
L 318.496522 -233.354968 
L 317.252704 -232.956296 
L 316.008886 -233.913108 
L 314.765068 -233.594171 
L 313.52125 -233.755633 
L 312.277432 -228.101462 
L 311.033615 -235.188856 
L 309.789797 -235.029388 
L 308.545979 -234.710451 
L 307.302161 -234.232045 
L 306.058343 -229.078371 
L 304.814525 -231.255963 
L 303.570707 -234.604138 
L 302.326889 -233.230534 
L 301.083071 -236.619932 
L 299.839254 -231.150315 
L 298.595436 -231.62872 
L 297.351618 -229.424067 
L 296.1078 -231.70779 
L 294.863982 -235.030717 
L 293.620164 -224.987355 
L 292.376346 -234.499819 
L 291.132528 -235.136365 
L 289.88871 -231.07058 
L 288.644893 -234.446663 
L 287.401075 -235.853309 
L 286.157257 -235.906465 
L 284.913439 -233.361448 
L 283.669621 -235.188856 
L 282.425803 -232.033225 
L 281.181985 -230.387049 
L 279.938167 -232.087003 
L 278.69435 -229.592459 
L 277.450532 -226.383231 
L 276.206714 -226.969572 
L 274.962896 -228.067627 
L 273.719078 -205.059651 
L 272.47526 -183.67595 
L 271.231442 -164.498887 
L 269.987624 -150.516021 
L 268.743806 -146.013036 
L 267.499989 -128.683211 
L 266.256171 -129.582423 
L 265.012353 -121.88998 
L 263.768535 -117.613348 
L 262.524717 -120.479554 
L 261.280899 -116.462801 
L 260.037081 -115.483632 
L 258.793263 -115.611931 
L 257.549445 -115.726528 
L 256.305628 -115.203284 
L 255.06181 -115.729289 
L 253.817992 -115.860799 
L 252.574174 -115.919987 
L 251.330356 -117.664451 
L 250.086538 -117.072415 
L 248.84272 -118.00333 
L 247.598902 -117.73282 
L 246.355085 -116.338463 
L 245.111267 -114.163166 
L 243.867449 -117.773438 
L 242.623631 -116.43511 
L 241.379813 -115.449218 
L 240.135995 -113.858131 
L 238.892177 -113.949187 
L 237.648359 -115.768052 
L 236.404541 -115.841159 
L 235.160724 -116.138109 
L 233.916906 -116.187744 
L 232.673088 -116.324362 
L 231.42927 -116.284392 
L 230.185452 -115.991687 
L 228.941634 -115.975085 
L 227.697816 -115.521117 
L 226.453998 -115.620008 
L 225.21018 -118.68624 
L 223.966363 -118.394278 
L 222.722545 -116.182187 
L 221.478727 -113.649191 
L 220.234909 -116.052541 
L 218.991091 -115.882717 
L 217.747273 -113.891621 
L 216.503455 -116.008187 
L 215.259637 -116.215427 
L 214.01582 -116.078601 
L 212.772002 -116.136866 
L 211.528184 -116.423875 
L 210.284366 -116.393396 
L 209.040548 -116.681959 
L 207.79673 -116.629493 
L 206.552912 -114.7408 
L 205.309094 -116.655726 
L 204.065276 -116.865589 
L 202.821459 -116.944288 
L 201.577641 -116.78689 
L 200.333823 -116.681959 
L 199.090005 -116.577027 
L 197.846187 -114.511529 
L 196.602369 -116.682614 
L 195.358551 -116.708191 
L 194.114733 -116.918055 
L 192.870915 -116.708191 
L 191.627098 -116.734424 
L 190.38328 -116.760657 
L 189.139462 -116.681959 
L 187.895644 -114.688912 
L 186.651826 -115.087972 
L 185.408008 -117.049219 
L 184.16419 -116.918711 
L 182.920372 -116.708847 
L 181.676555 -116.996754 
L 180.432737 -116.944288 
L 179.188919 -117.101685 
L 177.945101 -115.317812 
L 176.701283 -117.180384 
L 175.457465 -116.944288 
L 174.213647 -116.865589 
L 172.969829 -116.577683 
L 171.726011 -116.787546 
L 170.482194 -116.839356 
L 169.238376 -116.918711 
L 167.994558 -116.918055 
L 166.75074 -116.995028 
L 165.506922 -116.865589 
L 164.263104 -116.811397 
L 163.019286 -116.995373 
L 161.775468 -116.966042 
L 160.53165 -116.679197 
L 159.287833 -115.601533 
L 158.044015 -117.329282 
L 156.800197 -117.280501 
L 155.556379 -113.457104 
L 154.312561 -107.325373 
L 153.068743 -94.662248 
L 151.824925 -83.057034 
L 150.581107 -83.250683 
L 149.33729 -76.491891 
L 148.093472 -76.515215 
L 146.849654 -76.532811 
L 145.605836 -76.575612 
L 144.362018 -76.592525 
L 143.1182 -76.610482 
L 141.874382 -75.924276 
L 140.630564 -76.566292 
L 139.386746 -76.584448 
L 138.142929 -76.6443 
L 136.899111 -76.643955 
L 135.655293 -75.431054 
L 134.411475 -76.645181 
L 133.167657 -76.550431 
L 131.923839 -76.627042 
L 130.680021 -76.600818 
L 129.436203 -76.609783 
L 128.192385 -76.601154 
L 126.948568 -76.703325 
L 125.70475 -76.721273 
L 124.460932 -76.763384 
L 123.217114 -76.755109 
L 121.973296 -76.806876 
L 120.729478 -76.729566 
L 119.48566 -76.097214 
L 118.241842 -76.77392 
L 116.998025 -76.739222 
L 115.754207 -76.739222 
L 114.510389 -76.350216 
L 113.266571 -76.70436 
L 112.022753 -76.03404 
L 110.778935 -76.022779 
L 109.535117 -74.817134 
L 108.291299 -73.282111 
L 107.047481 -71.011573 
L 105.803664 -67.677334 
L 104.559846 -66.740353 
L 103.316028 -66.099372 
L 102.07221 -65.113281 
L 100.828392 -63.965858 
L 99.584574 -63.956616 
L 98.340756 -63.956539 
L 97.096938 -63.711123 
L 95.85312 -63.981391 
L 94.609303 -63.959645 
L 93.365485 -63.758497 
L 92.121667 -63.975178 
L 90.877849 -63.981391 
L 89.634031 -63.975178 
L 88.390213 -63.996924 
L 87.146395 -63.993817 
L 85.902577 -63.993817 
L 84.658759 -64.003137 
L 83.414942 -63.542335 
L 82.171124 -62.025364 
L 80.927306 -57.260938 
L 79.683488 -56.471526 
z
" style="stroke: #6c3f70; stroke-opacity: 0.2"/>
    </defs>
    <g clip-path="url(#pda6312da7f)">
     <use xlink:href="#m415a41ed3a" x="0" y="362.097812" style="fill: #6c3f70; fill-opacity: 0.2; stroke: #6c3f70; stroke-opacity: 0.2"/>
    </g>
   </g>
   <g id="PolyCollection_5">
    <defs>
     <path id="m44a47072b0" d="M 79.683488 -56.548162 
L 79.683488 -56.456338 
L 80.927306 -56.827715 
L 82.171124 -57.072467 
L 83.414942 -57.275081 
L 84.658759 -57.186356 
L 85.902577 -57.09007 
L 87.146395 -57.149362 
L 88.390213 -57.126305 
L 89.634031 -57.171807 
L 90.877849 -57.385855 
L 92.121667 -57.459385 
L 93.365485 -57.350622 
L 94.609303 -57.380686 
L 95.85312 -57.265046 
L 97.096938 -57.35718 
L 98.340756 -57.482158 
L 99.584574 -57.717227 
L 100.828392 -57.955049 
L 102.07221 -58.023609 
L 103.316028 -58.229779 
L 104.559846 -58.521016 
L 105.803664 -58.882124 
L 107.047481 -59.279113 
L 108.291299 -58.961997 
L 109.535117 -59.439634 
L 110.778935 -58.995582 
L 112.022753 -59.472607 
L 113.266571 -59.041947 
L 114.510389 -58.975847 
L 115.754207 -58.871812 
L 116.998025 -59.360599 
L 118.241842 -59.345317 
L 119.48566 -63.085243 
L 120.729478 -77.075237 
L 121.973296 -89.01788 
L 123.217114 -96.312437 
L 124.460932 -93.560344 
L 125.70475 -111.628936 
L 126.948568 -117.10178 
L 128.192385 -115.795683 
L 129.436203 -124.866631 
L 130.680021 -126.555549 
L 131.923839 -131.614361 
L 133.167657 -131.529449 
L 134.411475 -125.691726 
L 135.655293 -128.385174 
L 136.899111 -132.000261 
L 138.142929 -136.526477 
L 139.386746 -123.840622 
L 140.630564 -131.05623 
L 141.874382 -133.473482 
L 143.1182 -127.964447 
L 144.362018 -136.427758 
L 145.605836 -122.795576 
L 146.849654 -136.474011 
L 148.093472 -136.447122 
L 149.33729 -120.642259 
L 150.581107 -123.88174 
L 151.824925 -131.229531 
L 153.068743 -136.119176 
L 154.312561 -122.797276 
L 155.556379 -122.622879 
L 156.800197 -123.434409 
L 158.044015 -127.716123 
L 159.287833 -136.527512 
L 160.53165 -126.349344 
L 161.775468 -136.528548 
L 163.019286 -144.835411 
L 164.263104 -136.712178 
L 165.506922 -131.179447 
L 166.75074 -126.246078 
L 167.994558 -128.462613 
L 169.238376 -136.78639 
L 170.482194 -132.010651 
L 171.726011 -131.074774 
L 172.969829 -131.232931 
L 174.213647 -125.771175 
L 175.457465 -115.642168 
L 176.701283 -131.231568 
L 177.945101 -131.239783 
L 179.188919 -136.770857 
L 180.432737 -121.414206 
L 181.676555 -123.996354 
L 182.920372 -120.16387 
L 184.16419 -131.152179 
L 185.408008 -128.108408 
L 186.651826 -119.016007 
L 187.895644 -136.657641 
L 189.139462 -131.69344 
L 190.38328 -137.240288 
L 191.627098 -126.697638 
L 192.870915 -131.86461 
L 194.114733 -128.919644 
L 195.358551 -131.706522 
L 196.602369 -145.079791 
L 197.846187 -134.023044 
L 199.090005 -125.692969 
L 200.333823 -115.388822 
L 201.577641 -136.770857 
L 202.821459 -128.427889 
L 204.065276 -122.968869 
L 205.309094 -122.999952 
L 206.552912 -126.046009 
L 207.79673 -128.560987 
L 209.040548 -125.698491 
L 210.284366 -128.472278 
L 211.528184 -123.080342 
L 212.772002 -140.414818 
L 214.01582 -131.275749 
L 215.259637 -131.232258 
L 216.503455 -125.693995 
L 217.747273 -144.833374 
L 218.991091 -120.174873 
L 220.234909 -136.783283 
L 221.478727 -126.425765 
L 222.722545 -120.759513 
L 223.966363 -125.157929 
L 225.21018 -136.770857 
L 226.453998 -139.241585 
L 227.697816 -131.070028 
L 228.941634 -131.183244 
L 230.185452 -134.143768 
L 231.42927 -128.309996 
L 232.673088 -131.156321 
L 233.916906 -131.394212 
L 235.160724 -131.223007 
L 236.404541 -131.168591 
L 237.648359 -128.534892 
L 238.892177 -120.57961 
L 240.135995 -128.467135 
L 241.379813 -144.835411 
L 242.623631 -131.265739 
L 243.867449 -145.079791 
L 245.111267 -125.696394 
L 246.355085 -131.262762 
L 247.598902 -144.672491 
L 248.84272 -131.17634 
L 250.086538 -136.526477 
L 251.330356 -144.59103 
L 252.574174 -122.848534 
L 253.817992 -127.356283 
L 255.06181 -127.957276 
L 256.305628 -125.609757 
L 257.549445 -136.718391 
L 258.793263 -128.249143 
L 260.037081 -123.801687 
L 261.280899 -128.462958 
L 262.524717 -131.330631 
L 263.768535 -137.922344 
L 265.012353 -125.944572 
L 266.256171 -136.928255 
L 267.499989 -136.771893 
L 268.743806 -133.291198 
L 269.987624 -136.789496 
L 271.231442 -131.176686 
L 272.47526 -132.237039 
L 273.719078 -144.835411 
L 274.962896 -144.835411 
L 276.206714 -125.550845 
L 277.450532 -130.992201 
L 278.69435 -136.616221 
L 279.938167 -140.271917 
L 281.181985 -136.770857 
L 282.425803 -132.744103 
L 283.669621 -125.714369 
L 284.913439 -125.819042 
L 286.157257 -131.344093 
L 287.401075 -131.270572 
L 288.644893 -125.719365 
L 289.88871 -128.350485 
L 291.132528 -125.107698 
L 292.376346 -136.379089 
L 293.620164 -130.9725 
L 294.863982 -131.208493 
L 296.1078 -144.71115 
L 297.351618 -119.494353 
L 298.595436 -135.292459 
L 299.839254 -130.181534 
L 301.083071 -126.651238 
L 302.326889 -140.040015 
L 303.570707 -126.059729 
L 304.814525 -120.808173 
L 306.058343 -139.689667 
L 307.302161 -131.075301 
L 308.545979 -130.625 
L 309.789797 -130.130665 
L 311.033615 -135.164643 
L 312.277432 -141.9574 
L 313.52125 -136.247545 
L 314.765068 -133.193256 
L 316.008886 -147.12394 
L 317.252704 -135.156756 
L 318.496522 -126.453629 
L 319.74034 -129.318937 
L 320.984158 -144.586112 
L 322.227976 -154.699716 
L 323.471793 -146.352226 
L 324.715611 -132.230852 
L 325.959429 -142.613378 
L 327.203247 -137.869326 
L 327.203247 -155.825246 
L 327.203247 -155.825246 
L 325.959429 -157.256011 
L 324.715611 -153.220869 
L 323.471793 -157.323664 
L 322.227976 -157.958777 
L 320.984158 -156.782455 
L 319.74034 -152.438136 
L 318.496522 -151.470978 
L 317.252704 -154.584308 
L 316.008886 -156.32469 
L 314.765068 -152.673481 
L 313.52125 -152.590002 
L 312.277432 -153.160551 
L 311.033615 -150.309066 
L 309.789797 -148.482806 
L 308.545979 -149.090685 
L 307.302161 -148.956086 
L 306.058343 -151.21512 
L 304.814525 -144.136208 
L 303.570707 -147.700288 
L 302.326889 -150.821661 
L 301.083071 -147.353754 
L 299.839254 -147.981998 
L 298.595436 -148.929836 
L 297.351618 -142.218901 
L 296.1078 -148.158708 
L 294.863982 -146.092796 
L 293.620164 -145.3211 
L 292.376346 -146.012406 
L 291.132528 -143.168239 
L 289.88871 -144.998331 
L 288.644893 -144.998331 
L 287.401075 -145.079791 
L 286.157257 -145.079791 
L 284.913439 -144.998331 
L 283.669621 -145.079791 
L 282.425803 -145.079791 
L 281.181985 -145.079791 
L 279.938167 -145.079791 
L 278.69435 -145.079791 
L 277.450532 -144.998331 
L 276.206714 -142.255955 
L 274.962896 -145.220621 
L 273.719078 -145.079791 
L 272.47526 -145.079791 
L 271.231442 -145.079791 
L 269.987624 -145.079791 
L 268.743806 -145.079791 
L 267.499989 -145.079791 
L 266.256171 -145.079791 
L 265.012353 -145.079791 
L 263.768535 -145.079791 
L 262.524717 -145.079791 
L 261.280899 -145.079791 
L 260.037081 -142.228686 
L 258.793263 -144.753951 
L 257.549445 -144.998331 
L 256.305628 -144.753951 
L 255.06181 -144.59103 
L 253.817992 -145.143958 
L 252.574174 -142.700154 
L 251.330356 -146.469239 
L 250.086538 -145.079791 
L 248.84272 -144.998331 
L 247.598902 -145.079791 
L 246.355085 -145.079791 
L 245.111267 -144.998331 
L 243.867449 -145.079791 
L 242.623631 -145.079791 
L 241.379813 -145.079791 
L 240.135995 -144.998331 
L 238.892177 -142.085984 
L 237.648359 -144.998331 
L 236.404541 -145.079791 
L 235.160724 -145.079791 
L 233.916906 -144.998331 
L 232.673088 -145.079791 
L 231.42927 -144.998331 
L 230.185452 -145.079791 
L 228.941634 -145.079791 
L 227.697816 -144.998331 
L 226.453998 -145.079791 
L 225.21018 -145.079791 
L 223.966363 -143.217599 
L 222.722545 -142.310146 
L 221.478727 -145.079791 
L 220.234909 -145.079791 
L 218.991091 -142.310146 
L 217.747273 -145.079791 
L 216.503455 -145.079791 
L 215.259637 -145.079791 
L 214.01582 -145.079791 
L 212.772002 -145.079791 
L 211.528184 -142.354673 
L 210.284366 -145.079791 
L 209.040548 -142.31636 
L 207.79673 -145.079791 
L 206.552912 -145.079791 
L 205.309094 -142.346389 
L 204.065276 -142.325334 
L 202.821459 -145.079791 
L 201.577641 -145.079791 
L 200.333823 -139.64923 
L 199.090005 -143.510993 
L 197.846187 -145.079791 
L 196.602369 -146.488085 
L 195.358551 -146.018654 
L 194.114733 -146.488085 
L 192.870915 -146.488085 
L 191.627098 -146.018654 
L 190.38328 -146.957516 
L 189.139462 -146.018654 
L 187.895644 -146.325165 
L 186.651826 -142.156891 
L 185.408008 -144.998331 
L 184.16419 -145.079791 
L 182.920372 -142.165322 
L 181.676555 -142.541652 
L 180.432737 -142.313943 
L 179.188919 -145.079791 
L 177.945101 -145.079791 
L 176.701283 -145.079791 
L 175.457465 -139.541563 
L 174.213647 -145.079791 
L 172.969829 -145.079791 
L 171.726011 -144.998331 
L 170.482194 -145.079791 
L 169.238376 -145.079791 
L 167.994558 -145.079791 
L 166.75074 -144.998331 
L 165.506922 -145.079791 
L 164.263104 -145.079791 
L 163.019286 -145.079791 
L 161.775468 -145.079791 
L 160.53165 -144.998331 
L 159.287833 -145.079791 
L 158.044015 -144.42811 
L 156.800197 -142.000874 
L 155.556379 -141.990519 
L 154.312561 -142.067492 
L 153.068743 -144.916871 
L 151.824925 -144.753951 
L 150.581107 -143.348073 
L 149.33729 -141.57748 
L 148.093472 -144.998331 
L 146.849654 -144.998331 
L 145.605836 -142.111329 
L 144.362018 -144.998331 
L 143.1182 -143.266613 
L 141.874382 -144.998331 
L 140.630564 -144.916871 
L 139.386746 -143.052262 
L 138.142929 -145.079791 
L 136.899111 -145.079791 
L 135.655293 -144.998331 
L 134.411475 -144.998331 
L 133.167657 -145.079791 
L 131.923839 -145.079791 
L 130.680021 -143.99216 
L 129.436203 -143.396129 
L 128.192385 -138.246312 
L 126.948568 -136.525096 
L 125.70475 -132.758471 
L 124.460932 -115.869644 
L 123.217114 -110.51937 
L 121.973296 -100.318213 
L 120.729478 -87.649522 
L 119.48566 -73.295107 
L 118.241842 -62.987664 
L 116.998025 -59.856324 
L 115.754207 -59.629159 
L 114.510389 -59.671269 
L 113.266571 -59.692739 
L 112.022753 -59.821418 
L 110.778935 -59.671951 
L 109.535117 -59.81933 
L 108.291299 -59.658852 
L 107.047481 -59.82279 
L 105.803664 -59.607051 
L 104.559846 -59.401053 
L 103.316028 -59.076783 
L 102.07221 -58.807317 
L 100.828392 -58.692773 
L 99.584574 -58.316529 
L 98.340756 -58.039348 
L 97.096938 -57.87365 
L 95.85312 -57.693108 
L 94.609303 -57.804236 
L 93.365485 -57.659627 
L 92.121667 -57.671017 
L 90.877849 -57.593371 
L 89.634031 -57.419406 
L 88.390213 -57.381799 
L 87.146395 -57.363108 
L 85.902577 -57.305491 
L 84.658759 -57.353435 
L 83.414942 -57.334796 
L 82.171124 -57.279569 
L 80.927306 -57.119764 
L 79.683488 -56.548162 
z
" style="stroke: #2d1e3e; stroke-opacity: 0.2"/>
    </defs>
    <g clip-path="url(#pda6312da7f)">
     <use xlink:href="#m44a47072b0" x="0" y="362.097812" style="fill: #2d1e3e; fill-opacity: 0.2; stroke: #2d1e3e; stroke-opacity: 0.2"/>
    </g>
   </g>
   <g id="line2d_12">
    <path d="M 79.683488 305.631119 
L 83.414942 305.546207 
L 92.121667 305.324953 
L 94.609303 305.156165 
L 102.07221 305.1144 
L 112.022753 305.161343 
L 113.266571 305.051924 
L 120.729478 305.101283 
L 123.217114 305.086096 
L 124.460932 305.167901 
L 128.192385 305.111984 
L 130.680021 305.166866 
L 131.923839 305.082299 
L 135.655293 305.100938 
L 141.874382 305.093344 
L 150.581107 305.081263 
L 153.068743 305.026727 
L 180.432737 304.939053 
L 182.920372 304.937673 
L 186.651826 304.979783 
L 187.895644 305.00429 
L 189.139462 304.886933 
L 190.38328 304.989448 
L 191.627098 304.916272 
L 194.114733 304.950099 
L 201.577641 304.971844 
L 204.065276 305.045021 
L 205.309094 304.949063 
L 207.79673 304.958038 
L 211.528184 304.94147 
L 214.01582 304.991174 
L 215.259637 305.037772 
L 216.503455 304.926282 
L 221.478727 305.052614 
L 228.941634 304.954931 
L 232.673088 304.879684 
L 235.160724 304.978748 
L 236.404541 305.042259 
L 238.892177 304.925937 
L 242.623631 304.899704 
L 243.867449 304.881065 
L 245.111267 304.980474 
L 246.355085 304.926282 
L 247.598902 305.020859 
L 248.84272 304.950099 
L 250.086538 305.05365 
L 251.330356 304.989793 
L 252.574174 305.04295 
L 253.817992 304.945957 
L 256.305628 304.971844 
L 257.549445 304.897978 
L 258.793263 304.969083 
L 261.280899 304.878303 
L 265.012353 304.939398 
L 266.256171 304.85207 
L 268.743806 304.97288 
L 271.231442 304.931114 
L 274.962896 304.933876 
L 308.545979 304.973916 
L 311.033615 304.898668 
L 314.765068 304.994626 
L 316.008886 304.898668 
L 317.252704 304.954931 
L 318.496522 304.891765 
L 319.74034 304.965286 
L 322.227976 304.895562 
L 324.715611 305.045021 
L 325.959429 304.909024 
L 327.203247 304.946992 
L 327.203247 304.946992 
" clip-path="url(#pda6312da7f)" style="fill: none; stroke: #edd1cb; stroke-width: 1.5; stroke-linecap: round"/>
   </g>
   <g id="line2d_13">
    <path d="M 79.683488 305.644926 
L 118.241842 305.434718 
L 130.680021 305.354983 
L 139.386746 305.336344 
L 155.556379 305.251087 
L 163.019286 305.170317 
L 164.263104 305.293198 
L 166.75074 305.223473 
L 169.238376 305.197586 
L 187.895644 305.204144 
L 190.38328 305.170662 
L 195.358551 305.216225 
L 197.846187 305.187231 
L 199.090005 305.231067 
L 201.577641 305.177566 
L 202.821459 305.242113 
L 205.309094 305.176876 
L 212.772002 305.204489 
L 216.503455 305.203454 
L 227.697816 305.158581 
L 228.941634 305.227616 
L 231.42927 305.158236 
L 233.916906 305.14443 
L 238.892177 304.935602 
L 242.623631 304.434415 
L 245.111267 304.30394 
L 247.598902 304.518636 
L 252.574174 304.378152 
L 253.817992 304.390578 
L 255.06181 304.551082 
L 256.305628 304.263901 
L 258.793263 304.386091 
L 261.280899 304.301869 
L 262.524717 304.260794 
L 266.256171 304.564889 
L 267.499989 304.458577 
L 268.743806 304.578696 
L 269.987624 304.332589 
L 271.231442 304.423714 
L 273.719078 304.291859 
L 274.962896 304.470312 
L 276.206714 304.405075 
L 277.450532 304.545214 
L 284.913439 304.326376 
L 286.157257 304.431998 
L 287.401075 304.341564 
L 289.88871 304.302905 
L 292.376346 304.385746 
L 294.863982 304.532788 
L 296.1078 304.290824 
L 298.595436 304.481703 
L 299.839254 304.290479 
L 303.570707 304.418882 
L 304.814525 304.271494 
L 307.302161 304.422679 
L 325.959429 304.396101 
L 327.203247 304.520707 
L 327.203247 304.520707 
" clip-path="url(#pda6312da7f)" style="fill: none; stroke: #d499a7; stroke-width: 1.5; stroke-linecap: round"/>
   </g>
   <g id="line2d_14">
    <path d="M 79.683488 305.615242 
L 80.927306 304.859319 
L 82.171124 304.348467 
L 83.414942 303.363352 
L 84.658759 303.360591 
L 87.146395 302.5774 
L 90.877849 302.522863 
L 92.121667 302.651611 
L 93.365485 302.381343 
L 94.609303 302.561177 
L 95.85312 302.870104 
L 97.096938 302.532528 
L 98.340756 302.484204 
L 99.584574 302.693377 
L 100.828392 302.470742 
L 104.559846 302.714087 
L 107.047481 302.56739 
L 108.291299 302.805557 
L 109.535117 302.464874 
L 110.778935 302.716158 
L 112.022753 302.276411 
L 113.266571 300.68138 
L 114.510389 298.332153 
L 115.754207 293.864617 
L 116.998025 290.616566 
L 118.241842 289.727753 
L 119.48566 287.302243 
L 120.729478 285.849767 
L 121.973296 285.178066 
L 123.217114 281.134399 
L 124.460932 278.012336 
L 125.70475 275.763207 
L 126.948568 270.044775 
L 129.436203 264.490298 
L 130.680021 263.811003 
L 131.923839 267.635142 
L 133.167657 263.831713 
L 134.411475 265.303518 
L 135.655293 267.307231 
L 136.899111 265.172699 
L 138.142929 264.06781 
L 139.386746 267.099783 
L 140.630564 266.902001 
L 141.874382 265.196861 
L 143.1182 256.701535 
L 144.362018 231.196227 
L 145.605836 139.215995 
L 146.849654 68.715352 
L 148.093472 53.597593 
L 149.33729 62.378029 
L 150.581107 87.92096 
L 151.824925 55.592676 
L 153.068743 56.011712 
L 154.312561 64.004816 
L 155.556379 65.376867 
L 156.800197 57.391357 
L 158.044015 63.826018 
L 159.287833 55.370732 
L 160.53165 47.975808 
L 161.775468 48.149773 
L 163.019286 40.642324 
L 164.263104 79.371443 
L 165.506922 64.799397 
L 166.75074 53.956225 
L 167.994558 63.152591 
L 169.238376 54.846073 
L 171.726011 53.428114 
L 172.969829 37.414984 
L 174.213647 36.914487 
L 175.457465 45.120216 
L 176.701283 45.17993 
L 177.945101 75.453762 
L 179.188919 57.84353 
L 180.432737 54.117419 
L 181.676555 37.639345 
L 182.920372 55.088382 
L 184.16419 38.916474 
L 185.408008 55.04282 
L 187.895644 40.538773 
L 189.139462 40.728617 
L 190.38328 48.108698 
L 191.627098 40.331671 
L 192.870915 56.96024 
L 194.114733 48.611611 
L 195.358551 57.684061 
L 196.602369 57.583617 
L 197.846187 73.33925 
L 199.090005 49.253973 
L 200.333823 42.126556 
L 201.577641 85.466801 
L 202.821459 61.567225 
L 204.065276 57.748263 
L 205.309094 58.121047 
L 206.552912 72.270949 
L 207.79673 47.521564 
L 209.040548 57.320252 
L 210.284366 56.371725 
L 211.528184 62.614471 
L 212.772002 55.722115 
L 214.01582 56.281981 
L 215.259637 57.455214 
L 216.503455 49.262602 
L 217.747273 65.346837 
L 218.991091 57.024787 
L 220.234909 63.729715 
L 221.478727 62.838486 
L 222.722545 55.86467 
L 223.966363 62.75461 
L 225.21018 47.813923 
L 226.453998 39.365195 
L 227.697816 78.358368 
L 228.941634 63.54574 
L 230.185452 47.117025 
L 231.42927 47.284087 
L 232.673088 71.607877 
L 233.916906 39.693107 
L 235.160724 38.536787 
L 236.404541 62.03424 
L 237.648359 46.297936 
L 238.892177 61.468851 
L 240.135995 61.928963 
L 241.379813 47.225753 
L 242.623631 47.628567 
L 243.867449 39.848433 
L 245.111267 56.004464 
L 246.355085 55.231283 
L 247.598902 72.180169 
L 248.84272 56.643374 
L 250.086538 56.164623 
L 251.330356 56.346182 
L 252.574174 64.841508 
L 253.817992 65.850095 
L 255.06181 74.550452 
L 256.305628 74.242215 
L 257.549445 50.445845 
L 258.793263 50.311229 
L 260.037081 58.942206 
L 261.280899 57.508025 
L 262.524717 43.144807 
L 265.012353 58.899405 
L 266.256171 82.675411 
L 267.499989 75.775116 
L 268.743806 66.476579 
L 269.987624 75.364018 
L 271.231442 48.829759 
L 272.47526 66.918742 
L 273.719078 58.119321 
L 274.962896 72.93264 
L 276.206714 49.65437 
L 277.450532 72.270259 
L 278.69435 57.238102 
L 279.938167 57.646783 
L 281.181985 66.176971 
L 282.425803 41.401698 
L 283.669621 48.926061 
L 284.913439 58.220111 
L 286.157257 48.141489 
L 287.401075 60.458884 
L 288.644893 79.797728 
L 289.88871 44.352903 
L 291.132528 42.868671 
L 292.376346 66.57012 
L 293.620164 68.070229 
L 294.863982 82.735815 
L 297.351618 67.314307 
L 298.595436 66.37786 
L 299.839254 65.844918 
L 301.083071 65.709266 
L 302.326889 83.34366 
L 303.570707 75.219737 
L 304.814525 92.16241 
L 306.058343 67.471704 
L 307.302161 67.550748 
L 308.545979 61.111945 
L 309.789797 69.461264 
L 311.033615 70.797073 
L 312.277432 48.149773 
L 313.52125 79.587864 
L 314.765068 71.769072 
L 316.008886 70.188193 
L 317.252704 62.15574 
L 318.496522 51.984613 
L 319.74034 53.254149 
L 320.984158 53.605877 
L 322.227976 62.617232 
L 323.471793 70.240659 
L 324.715611 54.704208 
L 325.959429 63.398697 
L 327.203247 61.824722 
L 327.203247 61.824722 
" clip-path="url(#pda6312da7f)" style="fill: none; stroke: #a9678f; stroke-width: 1.5; stroke-linecap: round"/>
   </g>
   <g id="line2d_15">
    <path d="M 79.683488 305.639058 
L 80.927306 305.314944 
L 82.171124 301.252292 
L 83.414942 299.413226 
L 84.658759 298.569975 
L 85.902577 298.75326 
L 88.390213 298.334224 
L 89.634031 298.538219 
L 90.877849 298.138167 
L 92.121667 298.374264 
L 93.365485 299.02698 
L 94.609303 298.830233 
L 95.85312 298.371157 
L 97.096938 299.315542 
L 98.340756 298.557204 
L 102.07221 297.975247 
L 105.803664 296.351222 
L 108.291299 291.015583 
L 109.535117 289.62075 
L 110.778935 287.49899 
L 112.022753 287.768913 
L 113.266571 287.002981 
L 114.510389 287.376109 
L 115.754207 286.398588 
L 116.998025 285.798337 
L 118.241842 285.410021 
L 119.48566 287.921133 
L 120.729478 286.074818 
L 121.973296 285.977825 
L 123.217114 286.429308 
L 124.460932 286.356477 
L 125.70475 286.039266 
L 126.948568 285.488719 
L 128.192385 287.382668 
L 131.923839 286.552188 
L 133.167657 286.964321 
L 134.411475 286.530443 
L 135.655293 288.763693 
L 136.899111 286.736509 
L 139.386746 286.796914 
L 140.630564 286.133152 
L 141.874382 288.112702 
L 143.1182 285.606768 
L 144.362018 286.203221 
L 149.33729 286.289514 
L 150.581107 283.879537 
L 151.824925 283.415628 
L 153.068743 274.629324 
L 154.312561 262.498321 
L 156.800197 247.448215 
L 158.044015 248.125094 
L 159.287833 251.396616 
L 160.53165 250.356618 
L 161.775468 248.959025 
L 163.019286 247.15413 
L 164.263104 249.135407 
L 165.506922 245.496279 
L 166.75074 245.365114 
L 167.994558 247.247326 
L 171.726011 247.319122 
L 172.969829 251.092521 
L 174.213647 248.926234 
L 175.457465 248.918985 
L 176.701283 245.127292 
L 177.945101 252.450075 
L 179.188919 248.844774 
L 180.432737 248.887229 
L 181.676555 247.154821 
L 182.920372 250.96757 
L 184.16419 249.015978 
L 185.408008 245.363388 
L 186.651826 252.789722 
L 187.895644 254.371982 
L 189.139462 248.789546 
L 190.38328 247.428886 
L 191.627098 248.994232 
L 192.870915 249.034272 
L 194.114733 247.037118 
L 195.358551 249.241029 
L 196.602369 247.337761 
L 197.846187 254.900437 
L 199.090005 250.73527 
L 200.333823 249.272094 
L 201.577641 247.167937 
L 202.821459 245.442087 
L 204.065276 245.547019 
L 206.552912 253.116944 
L 207.79673 245.756882 
L 209.040548 245.730649 
L 210.284366 247.817547 
L 211.528184 246.041302 
L 212.772002 248.159956 
L 214.01582 248.085399 
L 215.259637 249.812285 
L 216.503455 250.006961 
L 217.747273 253.965717 
L 218.991091 249.809869 
L 220.234909 248.244178 
L 221.478727 255.649456 
L 222.722545 248.064344 
L 223.966363 245.02167 
L 225.21018 249.290043 
L 226.453998 250.976889 
L 227.697816 251.737299 
L 228.941634 246.617046 
L 230.185452 246.658466 
L 231.42927 248.109216 
L 232.673088 248.055024 
L 233.916906 248.224503 
L 235.160724 246.574245 
L 236.404541 246.759256 
L 238.892177 253.905312 
L 240.135995 253.917048 
L 241.379813 252.103179 
L 242.623631 248.240381 
L 243.867449 247.434754 
L 245.111267 253.418622 
L 246.355085 248.457493 
L 247.598902 247.329822 
L 248.84272 248.556902 
L 250.086538 249.065337 
L 251.330356 248.800592 
L 252.574174 251.447011 
L 253.817992 250.101883 
L 255.06181 250.241677 
L 256.305628 252.281977 
L 257.549445 248.651133 
L 258.793263 248.679437 
L 260.037081 250.225109 
L 261.280899 249.79192 
L 262.524717 247.266656 
L 263.768535 251.997212 
L 266.256171 244.104898 
L 267.499989 245.856291 
L 268.743806 233.000086 
L 269.987624 229.347496 
L 271.231442 219.922973 
L 272.47526 202.286853 
L 273.719078 177.618238 
L 274.962896 146.453521 
L 276.206714 148.496238 
L 277.450532 149.910055 
L 278.69435 143.056358 
L 279.938167 142.923467 
L 281.181985 147.988493 
L 283.669621 137.86569 
L 284.913439 144.616526 
L 286.157257 128.631355 
L 287.401075 132.330888 
L 288.644893 142.036725 
L 289.88871 146.777981 
L 291.132528 134.830609 
L 292.376346 140.13898 
L 293.620164 156.799304 
L 294.863982 142.039832 
L 296.1078 145.352084 
L 297.351618 147.400668 
L 298.595436 145.488426 
L 299.839254 147.492829 
L 301.083071 132.438581 
L 302.326889 145.17156 
L 303.570707 140.397167 
L 304.814525 147.336121 
L 306.058343 155.020643 
L 307.302161 142.416067 
L 308.545979 137.502571 
L 309.789797 133.079907 
L 311.033615 132.682271 
L 312.277432 154.933315 
L 313.52125 144.114649 
L 314.765068 144.760117 
L 316.008886 136.045953 
L 317.252704 136.598225 
L 318.496522 138.03931 
L 319.74034 137.457699 
L 320.984158 142.698416 
L 322.227976 145.463919 
L 323.471793 135.034605 
L 324.715611 135.466413 
L 325.959429 135.577557 
L 327.203247 146.096961 
L 327.203247 146.096961 
" clip-path="url(#pda6312da7f)" style="fill: none; stroke: #6c3f70; stroke-width: 1.5; stroke-linecap: round"/>
   </g>
   <g id="line2d_16">
    <path d="M 79.683488 305.607648 
L 80.927306 305.120613 
L 83.414942 304.787178 
L 88.390213 304.838264 
L 89.634031 304.792356 
L 92.121667 304.532443 
L 93.365485 304.584909 
L 94.609303 304.513113 
L 95.85312 304.633578 
L 98.340756 304.341219 
L 107.047481 302.499391 
L 108.291299 302.764482 
L 109.535117 302.427251 
L 110.778935 302.745843 
L 112.022753 302.418276 
L 113.266571 302.709255 
L 115.754207 302.83248 
L 116.998025 302.44658 
L 118.241842 301.438684 
L 119.48566 294.218416 
L 120.729478 279.692969 
L 121.973296 267.445644 
L 123.217114 259.111167 
L 124.460932 257.216874 
L 125.70475 239.00501 
L 126.948568 234.65138 
L 128.192385 234.89507 
L 129.436203 227.375885 
L 130.680021 226.411135 
L 131.923839 222.381274 
L 133.167657 222.409578 
L 134.411475 225.40669 
L 135.655293 225.324539 
L 136.899111 222.254597 
L 138.142929 219.869126 
L 139.386746 227.265776 
L 140.630564 222.782016 
L 141.874382 221.599119 
L 143.1182 225.872324 
L 144.362018 220.092106 
L 145.605836 228.335458 
L 146.849654 220.022382 
L 148.093472 220.030666 
L 149.33729 230.215944 
L 150.581107 227.100094 
L 151.824925 222.823782 
L 153.068743 220.194967 
L 154.312561 228.362726 
L 155.556379 228.568448 
L 156.800197 228.211887 
L 158.044015 225.87405 
L 159.287833 219.950241 
L 160.53165 225.183365 
L 161.775468 219.868436 
L 163.019286 217.099481 
L 166.75074 225.167487 
L 167.994558 225.326265 
L 169.238376 219.782488 
L 170.482194 222.216283 
L 171.726011 222.712637 
L 172.969829 222.55662 
L 174.213647 225.303829 
L 175.457465 233.317988 
L 176.701283 222.557311 
L 177.945101 222.554549 
L 179.188919 219.787666 
L 180.432737 229.624323 
L 181.676555 227.481507 
L 182.920372 230.848296 
L 184.16419 222.637735 
L 185.408008 225.390467 
L 186.651826 230.571124 
L 187.895644 219.464587 
L 189.139462 222.084083 
L 190.38328 218.848803 
L 191.627098 224.370834 
L 192.870915 221.563566 
L 194.114733 223.918316 
L 195.358551 222.085118 
L 196.602369 216.54859 
L 199.090005 226.553 
L 200.333823 233.107779 
L 201.577641 219.787666 
L 202.821459 225.293819 
L 204.065276 228.080722 
L 205.309094 228.057596 
L 206.552912 225.237211 
L 207.79673 225.246531 
L 209.040548 228.087626 
L 210.284366 225.235485 
L 211.528184 228.00444 
L 212.772002 218.573012 
L 214.01582 222.53522 
L 215.259637 222.556966 
L 216.503455 225.32661 
L 217.747273 217.099481 
L 218.991091 230.46999 
L 220.234909 219.783524 
L 221.478727 224.969014 
L 222.722545 229.577035 
L 223.966363 227.007934 
L 225.21018 219.787666 
L 226.453998 219.04555 
L 227.697816 222.719886 
L 228.941634 222.622203 
L 230.185452 221.180427 
L 231.42927 225.402202 
L 232.673088 222.635664 
L 233.916906 222.543504 
L 236.404541 222.632558 
L 237.648359 224.98144 
L 238.892177 230.353322 
L 240.135995 224.329069 
L 241.379813 217.099481 
L 242.623631 222.540397 
L 243.867449 217.018021 
L 245.111267 225.40738 
L 246.355085 222.614264 
L 247.598902 217.180942 
L 248.84272 222.666384 
L 250.086538 219.950586 
L 251.330356 216.79297 
L 252.574174 227.862575 
L 253.817992 224.849585 
L 255.06181 225.688348 
L 256.305628 225.624147 
L 257.549445 219.940922 
L 258.793263 225.465023 
L 260.037081 228.97851 
L 261.280899 225.323504 
L 262.524717 222.516581 
L 263.768535 219.403837 
L 265.012353 225.238592 
L 266.256171 219.7352 
L 267.499989 219.787321 
L 268.743806 221.64261 
L 269.987624 219.781453 
L 271.231442 222.619441 
L 272.47526 222.242861 
L 273.719078 217.099481 
L 274.962896 217.052538 
L 276.206714 228.084174 
L 277.450532 222.795133 
L 278.69435 219.866365 
L 279.938167 218.620646 
L 281.181985 219.787666 
L 282.425803 221.861448 
L 283.669621 225.317291 
L 284.913439 225.349046 
L 286.157257 222.512439 
L 287.401075 222.540397 
L 288.644893 225.395644 
L 289.88871 225.387015 
L 291.132528 227.069029 
L 292.376346 219.662369 
L 293.620164 222.494145 
L 294.863982 222.145178 
L 296.1078 215.804403 
L 297.351618 230.583205 
L 298.595436 219.443877 
L 301.083071 224.174778 
L 302.326889 215.721562 
L 303.570707 224.095389 
L 304.814525 228.464897 
L 306.058343 215.558297 
L 307.302161 221.340586 
L 309.789797 221.823479 
L 311.033615 218.612017 
L 312.277432 213.564249 
L 313.52125 216.329752 
L 314.765068 217.578232 
L 316.008886 209.421173 
L 318.496522 222.161401 
L 319.74034 220.392059 
L 320.984158 210.369355 
L 322.227976 205.652951 
L 323.471793 208.969691 
L 324.715611 218.145347 
L 325.959429 211.036914 
L 327.203247 214.159323 
L 327.203247 214.159323 
" clip-path="url(#pda6312da7f)" style="fill: none; stroke: #2d1e3e; stroke-width: 1.5; stroke-linecap: round"/>
   </g>
   <g id="line2d_17"/>
   <g id="line2d_18"/>
   <g id="line2d_19"/>
   <g id="line2d_20"/>
   <g id="line2d_21"/>
   <g id="patch_3">
    <path d="M 67.3075 319.138125 
L 67.3075 22.318125 
" style="fill: none; stroke: #ffffff; stroke-width: 1.25; stroke-linejoin: miter; stroke-linecap: square"/>
   </g>
   <g id="patch_4">
    <path d="M 67.3075 319.138125 
L 339.579235 319.138125 
" style="fill: none; stroke: #ffffff; stroke-width: 1.25; stroke-linejoin: miter; stroke-linecap: square"/>
   </g>
   <g id="text_14">
    <!-- Best Trials (No Vector x Fine-Grain) -->
    <g style="fill: #262626" transform="translate(98.905555 16.318125)scale(0.12 -0.12)">
     <defs>
      <path id="DejaVuSans-42" d="M 1259 2228 
L 1259 519 
L 2272 519 
Q 2781 519 3026 730 
Q 3272 941 3272 1375 
Q 3272 1813 3026 2020 
Q 2781 2228 2272 2228 
L 1259 2228 
z
M 1259 4147 
L 1259 2741 
L 2194 2741 
Q 2656 2741 2882 2914 
Q 3109 3088 3109 3444 
Q 3109 3797 2882 3972 
Q 2656 4147 2194 4147 
L 1259 4147 
z
M 628 4666 
L 2241 4666 
Q 2963 4666 3353 4366 
Q 3744 4066 3744 3513 
Q 3744 3084 3544 2831 
Q 3344 2578 2956 2516 
Q 3422 2416 3680 2098 
Q 3938 1781 3938 1306 
Q 3938 681 3513 340 
Q 3088 0 2303 0 
L 628 0 
L 628 4666 
z
" transform="scale(0.015625)"/>
      <path id="DejaVuSans-20" transform="scale(0.015625)"/>
      <path id="DejaVuSans-54" d="M -19 4666 
L 3928 4666 
L 3928 4134 
L 2272 4134 
L 2272 0 
L 1638 0 
L 1638 4134 
L -19 4134 
L -19 4666 
z
" transform="scale(0.015625)"/>
      <path id="DejaVuSans-6c" d="M 603 4863 
L 1178 4863 
L 1178 0 
L 603 0 
L 603 4863 
z
" transform="scale(0.015625)"/>
      <path id="DejaVuSans-28" d="M 1984 4856 
Q 1566 4138 1362 3434 
Q 1159 2731 1159 2009 
Q 1159 1288 1364 580 
Q 1569 -128 1984 -844 
L 1484 -844 
Q 1016 -109 783 600 
Q 550 1309 550 2009 
Q 550 2706 781 3412 
Q 1013 4119 1484 4856 
L 1984 4856 
z
" transform="scale(0.015625)"/>
      <path id="DejaVuSans-4e" d="M 628 4666 
L 1478 4666 
L 3547 763 
L 3547 4666 
L 4159 4666 
L 4159 0 
L 3309 0 
L 1241 3903 
L 1241 0 
L 628 0 
L 628 4666 
z
" transform="scale(0.015625)"/>
      <path id="DejaVuSans-56" d="M 1831 0 
L 50 4666 
L 709 4666 
L 2188 738 
L 3669 4666 
L 4325 4666 
L 2547 0 
L 1831 0 
z
" transform="scale(0.015625)"/>
      <path id="DejaVuSans-63" d="M 3122 3366 
L 3122 2828 
Q 2878 2963 2633 3030 
Q 2388 3097 2138 3097 
Q 1578 3097 1268 2742 
Q 959 2388 959 1747 
Q 959 1106 1268 751 
Q 1578 397 2138 397 
Q 2388 397 2633 464 
Q 2878 531 3122 666 
L 3122 134 
Q 2881 22 2623 -34 
Q 2366 -91 2075 -91 
Q 1284 -91 818 406 
Q 353 903 353 1747 
Q 353 2603 823 3093 
Q 1294 3584 2113 3584 
Q 2378 3584 2631 3529 
Q 2884 3475 3122 3366 
z
" transform="scale(0.015625)"/>
      <path id="DejaVuSans-78" d="M 3513 3500 
L 2247 1797 
L 3578 0 
L 2900 0 
L 1881 1375 
L 863 0 
L 184 0 
L 1544 1831 
L 300 3500 
L 978 3500 
L 1906 2253 
L 2834 3500 
L 3513 3500 
z
" transform="scale(0.015625)"/>
      <path id="DejaVuSans-2d" d="M 313 2009 
L 1997 2009 
L 1997 1497 
L 313 1497 
L 313 2009 
z
" transform="scale(0.015625)"/>
      <path id="DejaVuSans-29" d="M 513 4856 
L 1013 4856 
Q 1481 4119 1714 3412 
Q 1947 2706 1947 2009 
Q 1947 1309 1714 600 
Q 1481 -109 1013 -844 
L 513 -844 
Q 928 -128 1133 580 
Q 1338 1288 1338 2009 
Q 1338 2731 1133 3434 
Q 928 4138 513 4856 
z
" transform="scale(0.015625)"/>
     </defs>
     <use xlink:href="#DejaVuSans-42"/>
     <use xlink:href="#DejaVuSans-65" x="68.603516"/>
     <use xlink:href="#DejaVuSans-73" x="130.126953"/>
     <use xlink:href="#DejaVuSans-74" x="182.226562"/>
     <use xlink:href="#DejaVuSans-20" x="221.435547"/>
     <use xlink:href="#DejaVuSans-54" x="253.222656"/>
     <use xlink:href="#DejaVuSans-72" x="299.556641"/>
     <use xlink:href="#DejaVuSans-69" x="340.669922"/>
     <use xlink:href="#DejaVuSans-61" x="368.453125"/>
     <use xlink:href="#DejaVuSans-6c" x="429.732422"/>
     <use xlink:href="#DejaVuSans-73" x="457.515625"/>
     <use xlink:href="#DejaVuSans-20" x="509.615234"/>
     <use xlink:href="#DejaVuSans-28" x="541.402344"/>
     <use xlink:href="#DejaVuSans-4e" x="580.416016"/>
     <use xlink:href="#DejaVuSans-6f" x="655.220703"/>
     <use xlink:href="#DejaVuSans-20" x="716.402344"/>
     <use xlink:href="#DejaVuSans-56" x="748.189453"/>
     <use xlink:href="#DejaVuSans-65" x="808.847656"/>
     <use xlink:href="#DejaVuSans-63" x="870.371094"/>
     <use xlink:href="#DejaVuSans-74" x="925.351562"/>
     <use xlink:href="#DejaVuSans-6f" x="964.560547"/>
     <use xlink:href="#DejaVuSans-72" x="1025.742188"/>
     <use xlink:href="#DejaVuSans-20" x="1066.855469"/>
     <use xlink:href="#DejaVuSans-78" x="1098.642578"/>
     <use xlink:href="#DejaVuSans-20" x="1157.822266"/>
     <use xlink:href="#DejaVuSans-46" x="1189.609375"/>
     <use xlink:href="#DejaVuSans-69" x="1239.878906"/>
     <use xlink:href="#DejaVuSans-6e" x="1267.662109"/>
     <use xlink:href="#DejaVuSans-65" x="1331.041016"/>
     <use xlink:href="#DejaVuSans-2d" x="1392.564453"/>
     <use xlink:href="#DejaVuSans-47" x="1432.273438"/>
     <use xlink:href="#DejaVuSans-72" x="1509.763672"/>
     <use xlink:href="#DejaVuSans-61" x="1550.876953"/>
     <use xlink:href="#DejaVuSans-69" x="1612.15625"/>
     <use xlink:href="#DejaVuSans-6e" x="1639.939453"/>
     <use xlink:href="#DejaVuSans-29" x="1703.318359"/>
    </g>
   </g>
  </g>
  <g id="legend_1">
   <g id="text_15">
    <!-- Trial -->
    <g style="fill: #262626" transform="translate(350.909185 143.995312)scale(0.12 -0.12)">
     <use xlink:href="#DejaVuSans-54"/>
     <use xlink:href="#DejaVuSans-72" x="46.333984"/>
     <use xlink:href="#DejaVuSans-69" x="87.447266"/>
     <use xlink:href="#DejaVuSans-61" x="115.230469"/>
     <use xlink:href="#DejaVuSans-6c" x="176.509766"/>
    </g>
   </g>
   <g id="line2d_22">
    <path d="M 344.266685 156.499219 
L 355.266685 156.499219 
L 366.266685 156.499219 
" style="fill: none; stroke: #edd1cb; stroke-width: 1.5; stroke-linecap: round"/>
   </g>
   <g id="text_16">
    <!-- 0 -->
    <g style="fill: #262626" transform="translate(375.066685 160.349219)scale(0.11 -0.11)">
     <use xlink:href="#DejaVuSans-30"/>
    </g>
   </g>
   <g id="line2d_23">
    <path d="M 344.266685 172.645156 
L 355.266685 172.645156 
L 366.266685 172.645156 
" style="fill: none; stroke: #d499a7; stroke-width: 1.5; stroke-linecap: round"/>
   </g>
   <g id="text_17">
    <!-- 1 -->
    <g style="fill: #262626" transform="translate(375.066685 176.495156)scale(0.11 -0.11)">
     <use xlink:href="#DejaVuSans-31"/>
    </g>
   </g>
   <g id="line2d_24">
    <path d="M 344.266685 188.791094 
L 355.266685 188.791094 
L 366.266685 188.791094 
" style="fill: none; stroke: #a9678f; stroke-width: 1.5; stroke-linecap: round"/>
   </g>
   <g id="text_18">
    <!-- 2 -->
    <g style="fill: #262626" transform="translate(375.066685 192.641094)scale(0.11 -0.11)">
     <use xlink:href="#DejaVuSans-32"/>
    </g>
   </g>
   <g id="line2d_25">
    <path d="M 344.266685 204.937031 
L 355.266685 204.937031 
L 366.266685 204.937031 
" style="fill: none; stroke: #6c3f70; stroke-width: 1.5; stroke-linecap: round"/>
   </g>
   <g id="text_19">
    <!-- 3 -->
    <g style="fill: #262626" transform="translate(375.066685 208.787031)scale(0.11 -0.11)">
     <defs>
      <path id="DejaVuSans-33" d="M 2597 2516 
Q 3050 2419 3304 2112 
Q 3559 1806 3559 1356 
Q 3559 666 3084 287 
Q 2609 -91 1734 -91 
Q 1441 -91 1130 -33 
Q 819 25 488 141 
L 488 750 
Q 750 597 1062 519 
Q 1375 441 1716 441 
Q 2309 441 2620 675 
Q 2931 909 2931 1356 
Q 2931 1769 2642 2001 
Q 2353 2234 1838 2234 
L 1294 2234 
L 1294 2753 
L 1863 2753 
Q 2328 2753 2575 2939 
Q 2822 3125 2822 3475 
Q 2822 3834 2567 4026 
Q 2313 4219 1838 4219 
Q 1578 4219 1281 4162 
Q 984 4106 628 3988 
L 628 4550 
Q 988 4650 1302 4700 
Q 1616 4750 1894 4750 
Q 2613 4750 3031 4423 
Q 3450 4097 3450 3541 
Q 3450 3153 3228 2886 
Q 3006 2619 2597 2516 
z
" transform="scale(0.015625)"/>
     </defs>
     <use xlink:href="#DejaVuSans-33"/>
    </g>
   </g>
   <g id="line2d_26">
    <path d="M 344.266685 221.082969 
L 355.266685 221.082969 
L 366.266685 221.082969 
" style="fill: none; stroke: #2d1e3e; stroke-width: 1.5; stroke-linecap: round"/>
   </g>
   <g id="text_20">
    <!-- 4 -->
    <g style="fill: #262626" transform="translate(375.066685 224.932969)scale(0.11 -0.11)">
     <defs>
      <path id="DejaVuSans-34" d="M 2419 4116 
L 825 1625 
L 2419 1625 
L 2419 4116 
z
M 2253 4666 
L 3047 4666 
L 3047 1625 
L 3713 1625 
L 3713 1100 
L 3047 1100 
L 3047 0 
L 2419 0 
L 2419 1100 
L 313 1100 
L 313 1709 
L 2253 4666 
z
" transform="scale(0.015625)"/>
     </defs>
     <use xlink:href="#DejaVuSans-34"/>
    </g>
   </g>
  </g>
 </g>
 <defs>
  <clipPath id="pda6312da7f">
   <rect x="67.3075" y="22.318125" width="272.271735" height="296.82"/>
  </clipPath>
 </defs>
</svg>
