<?xml version="1.0" encoding="utf-8" standalone="no"?>
<!DOCTYPE svg PUBLIC "-//W3C//DTD SVG 1.1//EN"
  "http://www.w3.org/Graphics/SVG/1.1/DTD/svg11.dtd">
<svg xmlns:xlink="http://www.w3.org/1999/xlink" width="393.52115pt" height="362.097812pt" viewBox="0 0 393.52115 362.097812" xmlns="http://www.w3.org/2000/svg" version="1.1">
 <metadata>
  <rdf:RDF xmlns:dc="http://purl.org/dc/elements/1.1/" xmlns:cc="http://creativecommons.org/ns#" xmlns:rdf="http://www.w3.org/1999/02/22-rdf-syntax-ns#">
   <cc:Work>
    <dc:type rdf:resource="http://purl.org/dc/dcmitype/StillImage"/>
    <dc:date>2022-11-20T08:28:01.863966</dc:date>
    <dc:format>image/svg+xml</dc:format>
    <dc:creator>
     <cc:Agent>
      <dc:title>Matplotlib v3.5.2, https://matplotlib.org/</dc:title>
     </cc:Agent>
    </dc:creator>
   </cc:Work>
  </rdf:RDF>
 </metadata>
 <defs>
  <style type="text/css">*{stroke-linejoin: round; stroke-linecap: butt}</style>
 </defs>
 <g id="figure_1">
  <g id="patch_1">
   <path d="M 0 362.097812 
L 393.52115 362.097812 
L 393.52115 0 
L 0 0 
z
" style="fill: #ffffff"/>
  </g>
  <g id="axes_1">
   <g id="patch_2">
    <path d="M 53.31 319.138125 
L 341.13495 319.138125 
L 341.13495 22.318125 
L 53.31 22.318125 
z
" style="fill: #eaeaf2"/>
   </g>
   <g id="matplotlib.axis_1">
    <g id="xtick_1">
     <g id="line2d_1">
      <path d="M 66.392952 319.138125 
L 66.392952 22.318125 
" clip-path="url(#pd1ad8d12b4)" style="fill: none; stroke: #ffffff; stroke-linecap: round"/>
     </g>
     <g id="text_1">
      <!-- 0 -->
      <g style="fill: #262626" transform="translate(62.893577 336.996406)scale(0.11 -0.11)">
       <defs>
        <path id="DejaVuSans-30" d="M 2034 4250 
Q 1547 4250 1301 3770 
Q 1056 3291 1056 2328 
Q 1056 1369 1301 889 
Q 1547 409 2034 409 
Q 2525 409 2770 889 
Q 3016 1369 3016 2328 
Q 3016 3291 2770 3770 
Q 2525 4250 2034 4250 
z
M 2034 4750 
Q 2819 4750 3233 4129 
Q 3647 3509 3647 2328 
Q 3647 1150 3233 529 
Q 2819 -91 2034 -91 
Q 1250 -91 836 529 
Q 422 1150 422 2328 
Q 422 3509 836 4129 
Q 1250 4750 2034 4750 
z
" transform="scale(0.015625)"/>
       </defs>
       <use xlink:href="#DejaVuSans-30"/>
      </g>
     </g>
    </g>
    <g id="xtick_2">
     <g id="line2d_2">
      <path d="M 132.136431 319.138125 
L 132.136431 22.318125 
" clip-path="url(#pd1ad8d12b4)" style="fill: none; stroke: #ffffff; stroke-linecap: round"/>
     </g>
     <g id="text_2">
      <!-- 50 -->
      <g style="fill: #262626" transform="translate(125.137681 336.996406)scale(0.11 -0.11)">
       <defs>
        <path id="DejaVuSans-35" d="M 691 4666 
L 3169 4666 
L 3169 4134 
L 1269 4134 
L 1269 2991 
Q 1406 3038 1543 3061 
Q 1681 3084 1819 3084 
Q 2600 3084 3056 2656 
Q 3513 2228 3513 1497 
Q 3513 744 3044 326 
Q 2575 -91 1722 -91 
Q 1428 -91 1123 -41 
Q 819 9 494 109 
L 494 744 
Q 775 591 1075 516 
Q 1375 441 1709 441 
Q 2250 441 2565 725 
Q 2881 1009 2881 1497 
Q 2881 1984 2565 2268 
Q 2250 2553 1709 2553 
Q 1456 2553 1204 2497 
Q 953 2441 691 2322 
L 691 4666 
z
" transform="scale(0.015625)"/>
       </defs>
       <use xlink:href="#DejaVuSans-35"/>
       <use xlink:href="#DejaVuSans-30" x="63.623047"/>
      </g>
     </g>
    </g>
    <g id="xtick_3">
     <g id="line2d_3">
      <path d="M 197.87991 319.138125 
L 197.87991 22.318125 
" clip-path="url(#pd1ad8d12b4)" style="fill: none; stroke: #ffffff; stroke-linecap: round"/>
     </g>
     <g id="text_3">
      <!-- 100 -->
      <g style="fill: #262626" transform="translate(187.381785 336.996406)scale(0.11 -0.11)">
       <defs>
        <path id="DejaVuSans-31" d="M 794 531 
L 1825 531 
L 1825 4091 
L 703 3866 
L 703 4441 
L 1819 4666 
L 2450 4666 
L 2450 531 
L 3481 531 
L 3481 0 
L 794 0 
L 794 531 
z
" transform="scale(0.015625)"/>
       </defs>
       <use xlink:href="#DejaVuSans-31"/>
       <use xlink:href="#DejaVuSans-30" x="63.623047"/>
       <use xlink:href="#DejaVuSans-30" x="127.246094"/>
      </g>
     </g>
    </g>
    <g id="xtick_4">
     <g id="line2d_4">
      <path d="M 263.623389 319.138125 
L 263.623389 22.318125 
" clip-path="url(#pd1ad8d12b4)" style="fill: none; stroke: #ffffff; stroke-linecap: round"/>
     </g>
     <g id="text_4">
      <!-- 150 -->
      <g style="fill: #262626" transform="translate(253.125264 336.996406)scale(0.11 -0.11)">
       <use xlink:href="#DejaVuSans-31"/>
       <use xlink:href="#DejaVuSans-35" x="63.623047"/>
       <use xlink:href="#DejaVuSans-30" x="127.246094"/>
      </g>
     </g>
    </g>
    <g id="xtick_5">
     <g id="line2d_5">
      <path d="M 329.366867 319.138125 
L 329.366867 22.318125 
" clip-path="url(#pd1ad8d12b4)" style="fill: none; stroke: #ffffff; stroke-linecap: round"/>
     </g>
     <g id="text_5">
      <!-- 200 -->
      <g style="fill: #262626" transform="translate(318.868742 336.996406)scale(0.11 -0.11)">
       <defs>
        <path id="DejaVuSans-32" d="M 1228 531 
L 3431 531 
L 3431 0 
L 469 0 
L 469 531 
Q 828 903 1448 1529 
Q 2069 2156 2228 2338 
Q 2531 2678 2651 2914 
Q 2772 3150 2772 3378 
Q 2772 3750 2511 3984 
Q 2250 4219 1831 4219 
Q 1534 4219 1204 4116 
Q 875 4013 500 3803 
L 500 4441 
Q 881 4594 1212 4672 
Q 1544 4750 1819 4750 
Q 2544 4750 2975 4387 
Q 3406 4025 3406 3419 
Q 3406 3131 3298 2873 
Q 3191 2616 2906 2266 
Q 2828 2175 2409 1742 
Q 1991 1309 1228 531 
z
" transform="scale(0.015625)"/>
       </defs>
       <use xlink:href="#DejaVuSans-32"/>
       <use xlink:href="#DejaVuSans-30" x="63.623047"/>
       <use xlink:href="#DejaVuSans-30" x="127.246094"/>
      </g>
     </g>
    </g>
    <g id="text_6">
     <!-- Generation -->
     <g style="fill: #262626" transform="translate(163.750912 352.402187)scale(0.12 -0.12)">
      <defs>
       <path id="DejaVuSans-47" d="M 3809 666 
L 3809 1919 
L 2778 1919 
L 2778 2438 
L 4434 2438 
L 4434 434 
Q 4069 175 3628 42 
Q 3188 -91 2688 -91 
Q 1594 -91 976 548 
Q 359 1188 359 2328 
Q 359 3472 976 4111 
Q 1594 4750 2688 4750 
Q 3144 4750 3555 4637 
Q 3966 4525 4313 4306 
L 4313 3634 
Q 3963 3931 3569 4081 
Q 3175 4231 2741 4231 
Q 1884 4231 1454 3753 
Q 1025 3275 1025 2328 
Q 1025 1384 1454 906 
Q 1884 428 2741 428 
Q 3075 428 3337 486 
Q 3600 544 3809 666 
z
" transform="scale(0.015625)"/>
       <path id="DejaVuSans-65" d="M 3597 1894 
L 3597 1613 
L 953 1613 
Q 991 1019 1311 708 
Q 1631 397 2203 397 
Q 2534 397 2845 478 
Q 3156 559 3463 722 
L 3463 178 
Q 3153 47 2828 -22 
Q 2503 -91 2169 -91 
Q 1331 -91 842 396 
Q 353 884 353 1716 
Q 353 2575 817 3079 
Q 1281 3584 2069 3584 
Q 2775 3584 3186 3129 
Q 3597 2675 3597 1894 
z
M 3022 2063 
Q 3016 2534 2758 2815 
Q 2500 3097 2075 3097 
Q 1594 3097 1305 2825 
Q 1016 2553 972 2059 
L 3022 2063 
z
" transform="scale(0.015625)"/>
       <path id="DejaVuSans-6e" d="M 3513 2113 
L 3513 0 
L 2938 0 
L 2938 2094 
Q 2938 2591 2744 2837 
Q 2550 3084 2163 3084 
Q 1697 3084 1428 2787 
Q 1159 2491 1159 1978 
L 1159 0 
L 581 0 
L 581 3500 
L 1159 3500 
L 1159 2956 
Q 1366 3272 1645 3428 
Q 1925 3584 2291 3584 
Q 2894 3584 3203 3211 
Q 3513 2838 3513 2113 
z
" transform="scale(0.015625)"/>
       <path id="DejaVuSans-72" d="M 2631 2963 
Q 2534 3019 2420 3045 
Q 2306 3072 2169 3072 
Q 1681 3072 1420 2755 
Q 1159 2438 1159 1844 
L 1159 0 
L 581 0 
L 581 3500 
L 1159 3500 
L 1159 2956 
Q 1341 3275 1631 3429 
Q 1922 3584 2338 3584 
Q 2397 3584 2469 3576 
Q 2541 3569 2628 3553 
L 2631 2963 
z
" transform="scale(0.015625)"/>
       <path id="DejaVuSans-61" d="M 2194 1759 
Q 1497 1759 1228 1600 
Q 959 1441 959 1056 
Q 959 750 1161 570 
Q 1363 391 1709 391 
Q 2188 391 2477 730 
Q 2766 1069 2766 1631 
L 2766 1759 
L 2194 1759 
z
M 3341 1997 
L 3341 0 
L 2766 0 
L 2766 531 
Q 2569 213 2275 61 
Q 1981 -91 1556 -91 
Q 1019 -91 701 211 
Q 384 513 384 1019 
Q 384 1609 779 1909 
Q 1175 2209 1959 2209 
L 2766 2209 
L 2766 2266 
Q 2766 2663 2505 2880 
Q 2244 3097 1772 3097 
Q 1472 3097 1187 3025 
Q 903 2953 641 2809 
L 641 3341 
Q 956 3463 1253 3523 
Q 1550 3584 1831 3584 
Q 2591 3584 2966 3190 
Q 3341 2797 3341 1997 
z
" transform="scale(0.015625)"/>
       <path id="DejaVuSans-74" d="M 1172 4494 
L 1172 3500 
L 2356 3500 
L 2356 3053 
L 1172 3053 
L 1172 1153 
Q 1172 725 1289 603 
Q 1406 481 1766 481 
L 2356 481 
L 2356 0 
L 1766 0 
Q 1100 0 847 248 
Q 594 497 594 1153 
L 594 3053 
L 172 3053 
L 172 3500 
L 594 3500 
L 594 4494 
L 1172 4494 
z
" transform="scale(0.015625)"/>
       <path id="DejaVuSans-69" d="M 603 3500 
L 1178 3500 
L 1178 0 
L 603 0 
L 603 3500 
z
M 603 4863 
L 1178 4863 
L 1178 4134 
L 603 4134 
L 603 4863 
z
" transform="scale(0.015625)"/>
       <path id="DejaVuSans-6f" d="M 1959 3097 
Q 1497 3097 1228 2736 
Q 959 2375 959 1747 
Q 959 1119 1226 758 
Q 1494 397 1959 397 
Q 2419 397 2687 759 
Q 2956 1122 2956 1747 
Q 2956 2369 2687 2733 
Q 2419 3097 1959 3097 
z
M 1959 3584 
Q 2709 3584 3137 3096 
Q 3566 2609 3566 1747 
Q 3566 888 3137 398 
Q 2709 -91 1959 -91 
Q 1206 -91 779 398 
Q 353 888 353 1747 
Q 353 2609 779 3096 
Q 1206 3584 1959 3584 
z
" transform="scale(0.015625)"/>
      </defs>
      <use xlink:href="#DejaVuSans-47"/>
      <use xlink:href="#DejaVuSans-65" x="77.490234"/>
      <use xlink:href="#DejaVuSans-6e" x="139.013672"/>
      <use xlink:href="#DejaVuSans-65" x="202.392578"/>
      <use xlink:href="#DejaVuSans-72" x="263.916016"/>
      <use xlink:href="#DejaVuSans-61" x="305.029297"/>
      <use xlink:href="#DejaVuSans-74" x="366.308594"/>
      <use xlink:href="#DejaVuSans-69" x="405.517578"/>
      <use xlink:href="#DejaVuSans-6f" x="433.300781"/>
      <use xlink:href="#DejaVuSans-6e" x="494.482422"/>
     </g>
    </g>
   </g>
   <g id="matplotlib.axis_2">
    <g id="ytick_1">
     <g id="line2d_6">
      <path d="M 53.31 308.099592 
L 341.13495 308.099592 
" clip-path="url(#pd1ad8d12b4)" style="fill: none; stroke: #ffffff; stroke-linecap: round"/>
     </g>
     <g id="text_7">
      <!-- 0 -->
      <g style="fill: #262626" transform="translate(36.81125 312.278733)scale(0.11 -0.11)">
       <use xlink:href="#DejaVuSans-30"/>
      </g>
     </g>
    </g>
    <g id="ytick_2">
     <g id="line2d_7">
      <path d="M 53.31 242.665012 
L 341.13495 242.665012 
" clip-path="url(#pd1ad8d12b4)" style="fill: none; stroke: #ffffff; stroke-linecap: round"/>
     </g>
     <g id="text_8">
      <!-- 100 -->
      <g style="fill: #262626" transform="translate(22.81375 246.844152)scale(0.11 -0.11)">
       <use xlink:href="#DejaVuSans-31"/>
       <use xlink:href="#DejaVuSans-30" x="63.623047"/>
       <use xlink:href="#DejaVuSans-30" x="127.246094"/>
      </g>
     </g>
    </g>
    <g id="ytick_3">
     <g id="line2d_8">
      <path d="M 53.31 177.230431 
L 341.13495 177.230431 
" clip-path="url(#pd1ad8d12b4)" style="fill: none; stroke: #ffffff; stroke-linecap: round"/>
     </g>
     <g id="text_9">
      <!-- 200 -->
      <g style="fill: #262626" transform="translate(22.81375 181.409571)scale(0.11 -0.11)">
       <use xlink:href="#DejaVuSans-32"/>
       <use xlink:href="#DejaVuSans-30" x="63.623047"/>
       <use xlink:href="#DejaVuSans-30" x="127.246094"/>
      </g>
     </g>
    </g>
    <g id="ytick_4">
     <g id="line2d_9">
      <path d="M 53.31 111.79585 
L 341.13495 111.79585 
" clip-path="url(#pd1ad8d12b4)" style="fill: none; stroke: #ffffff; stroke-linecap: round"/>
     </g>
     <g id="text_10">
      <!-- 300 -->
      <g style="fill: #262626" transform="translate(22.81375 115.974991)scale(0.11 -0.11)">
       <defs>
        <path id="DejaVuSans-33" d="M 2597 2516 
Q 3050 2419 3304 2112 
Q 3559 1806 3559 1356 
Q 3559 666 3084 287 
Q 2609 -91 1734 -91 
Q 1441 -91 1130 -33 
Q 819 25 488 141 
L 488 750 
Q 750 597 1062 519 
Q 1375 441 1716 441 
Q 2309 441 2620 675 
Q 2931 909 2931 1356 
Q 2931 1769 2642 2001 
Q 2353 2234 1838 2234 
L 1294 2234 
L 1294 2753 
L 1863 2753 
Q 2328 2753 2575 2939 
Q 2822 3125 2822 3475 
Q 2822 3834 2567 4026 
Q 2313 4219 1838 4219 
Q 1578 4219 1281 4162 
Q 984 4106 628 3988 
L 628 4550 
Q 988 4650 1302 4700 
Q 1616 4750 1894 4750 
Q 2613 4750 3031 4423 
Q 3450 4097 3450 3541 
Q 3450 3153 3228 2886 
Q 3006 2619 2597 2516 
z
" transform="scale(0.015625)"/>
       </defs>
       <use xlink:href="#DejaVuSans-33"/>
       <use xlink:href="#DejaVuSans-30" x="63.623047"/>
       <use xlink:href="#DejaVuSans-30" x="127.246094"/>
      </g>
     </g>
    </g>
    <g id="ytick_5">
     <g id="line2d_10">
      <path d="M 53.31 46.361269 
L 341.13495 46.361269 
" clip-path="url(#pd1ad8d12b4)" style="fill: none; stroke: #ffffff; stroke-linecap: round"/>
     </g>
     <g id="text_11">
      <!-- 400 -->
      <g style="fill: #262626" transform="translate(22.81375 50.54041)scale(0.11 -0.11)">
       <defs>
        <path id="DejaVuSans-34" d="M 2419 4116 
L 825 1625 
L 2419 1625 
L 2419 4116 
z
M 2253 4666 
L 3047 4666 
L 3047 1625 
L 3713 1625 
L 3713 1100 
L 3047 1100 
L 3047 0 
L 2419 0 
L 2419 1100 
L 313 1100 
L 313 1709 
L 2253 4666 
z
" transform="scale(0.015625)"/>
       </defs>
       <use xlink:href="#DejaVuSans-34"/>
       <use xlink:href="#DejaVuSans-30" x="63.623047"/>
       <use xlink:href="#DejaVuSans-30" x="127.246094"/>
      </g>
     </g>
    </g>
    <g id="text_12">
     <!-- Fitness -->
     <g style="fill: #262626" transform="translate(16.318125 191.50875)rotate(-90)scale(0.12 -0.12)">
      <defs>
       <path id="DejaVuSans-46" d="M 628 4666 
L 3309 4666 
L 3309 4134 
L 1259 4134 
L 1259 2759 
L 3109 2759 
L 3109 2228 
L 1259 2228 
L 1259 0 
L 628 0 
L 628 4666 
z
" transform="scale(0.015625)"/>
       <path id="DejaVuSans-73" d="M 2834 3397 
L 2834 2853 
Q 2591 2978 2328 3040 
Q 2066 3103 1784 3103 
Q 1356 3103 1142 2972 
Q 928 2841 928 2578 
Q 928 2378 1081 2264 
Q 1234 2150 1697 2047 
L 1894 2003 
Q 2506 1872 2764 1633 
Q 3022 1394 3022 966 
Q 3022 478 2636 193 
Q 2250 -91 1575 -91 
Q 1294 -91 989 -36 
Q 684 19 347 128 
L 347 722 
Q 666 556 975 473 
Q 1284 391 1588 391 
Q 1994 391 2212 530 
Q 2431 669 2431 922 
Q 2431 1156 2273 1281 
Q 2116 1406 1581 1522 
L 1381 1569 
Q 847 1681 609 1914 
Q 372 2147 372 2553 
Q 372 3047 722 3315 
Q 1072 3584 1716 3584 
Q 2034 3584 2315 3537 
Q 2597 3491 2834 3397 
z
" transform="scale(0.015625)"/>
      </defs>
      <use xlink:href="#DejaVuSans-46"/>
      <use xlink:href="#DejaVuSans-69" x="50.269531"/>
      <use xlink:href="#DejaVuSans-74" x="78.052734"/>
      <use xlink:href="#DejaVuSans-6e" x="117.261719"/>
      <use xlink:href="#DejaVuSans-65" x="180.640625"/>
      <use xlink:href="#DejaVuSans-73" x="242.164062"/>
      <use xlink:href="#DejaVuSans-73" x="294.263672"/>
     </g>
    </g>
   </g>
   <g id="PolyCollection_1">
    <defs>
     <path id="mcdff3c5878" d="M 66.392952 -63.159061 
L 66.392952 -56.737782 
L 67.707822 -62.974004 
L 69.022691 -69.415221 
L 70.337561 -71.194735 
L 71.652431 -71.849592 
L 72.9673 -74.629539 
L 74.28217 -72.442081 
L 75.597039 -75.017034 
L 76.911909 -73.935319 
L 78.226778 -72.03107 
L 79.541648 -72.237598 
L 80.856518 -77.450383 
L 82.171387 -74.7737 
L 83.486257 -72.11542 
L 84.801126 -73.014634 
L 86.115996 -73.240077 
L 87.430865 -70.806217 
L 88.745735 -75.488879 
L 90.060605 -72.606179 
L 91.375474 -72.420611 
L 92.690344 -72.44157 
L 94.005213 -75.693362 
L 95.320083 -75.099339 
L 96.634953 -73.239565 
L 97.949822 -72.994186 
L 99.264692 -74.258913 
L 100.579561 -72.9538 
L 101.894431 -71.644597 
L 103.2093 -76.674881 
L 104.52417 -74.567172 
L 105.83904 -73.096427 
L 107.153909 -75.448494 
L 108.468779 -70.580774 
L 109.783648 -76.531743 
L 111.098518 -72.156316 
L 112.413387 -73.546801 
L 113.728257 -73.035082 
L 115.043127 -72.360799 
L 116.357996 -74.691906 
L 117.672866 -73.935319 
L 118.987735 -71.500437 
L 120.302605 -72.175742 
L 121.617474 -74.507872 
L 122.932344 -74.52832 
L 124.247214 -73.30091 
L 125.562083 -75.468942 
L 126.876953 -73.526353 
L 128.191822 -72.298943 
L 129.506692 -72.973226 
L 130.821561 -76.756674 
L 132.136431 -74.159228 
L 133.451301 -71.440626 
L 134.76617 -75.427534 
L 136.08104 -73.258991 
L 137.395909 -73.219628 
L 138.710779 -73.44456 
L 140.025648 -72.951755 
L 141.340518 -73.279951 
L 142.655388 -75.365678 
L 143.970257 -73.464497 
L 145.285127 -73.321359 
L 146.599996 -75.203114 
L 147.914866 -72.21715 
L 149.229736 -72.704842 
L 150.544605 -73.955256 
L 151.859475 -75.264459 
L 153.174344 -72.974249 
L 154.489214 -71.665557 
L 155.804083 -72.155294 
L 157.118953 -76.082391 
L 158.433823 -73.853526 
L 159.748692 -74.956712 
L 161.063562 -73.976216 
L 162.378431 -73.30091 
L 163.693301 -72.728869 
L 165.00817 -72.278495 
L 166.32304 -71.746839 
L 167.63791 -73.649043 
L 168.952779 -75.07889 
L 170.267649 -71.542867 
L 171.582518 -70.029181 
L 172.897388 -76.000598 
L 174.212257 -72.114908 
L 175.527127 -72.33984 
L 176.841997 -72.256513 
L 178.156866 -72.339329 
L 179.471736 -74.691395 
L 180.786605 -71.295954 
L 182.101475 -74.180187 
L 183.416344 -70.704487 
L 184.731214 -74.916326 
L 186.046084 -73.240077 
L 187.360953 -77.266348 
L 188.675823 -72.667013 
L 189.990692 -71.419666 
L 191.305562 -76.776611 
L 192.620431 -74.813062 
L 193.935301 -75.978616 
L 195.250171 -72.749317 
L 196.56504 -69.702519 
L 197.87991 -74.241021 
L 199.194779 -72.769765 
L 200.509649 -71.951833 
L 201.824519 -73.955256 
L 203.139388 -72.58522 
L 204.454258 -73.708854 
L 205.769127 -71.74735 
L 207.083997 -72.748295 
L 208.398866 -73.893911 
L 209.713736 -73.894422 
L 211.028606 -72.298943 
L 212.343475 -72.912904 
L 213.658345 -74.03756 
L 214.973214 -74.52832 
L 216.288084 -74.200125 
L 217.602953 -71.788247 
L 218.917823 -72.891433 
L 220.232693 -74.568194 
L 221.547562 -70.397251 
L 222.862432 -73.52533 
L 224.177301 -71.951833 
L 225.492171 -72.708421 
L 226.80704 -73.64802 
L 228.12191 -76.715777 
L 229.43678 -72.626116 
L 230.751649 -73.751284 
L 232.066519 -74.691906 
L 233.381388 -72.687972 
L 234.696258 -74.221084 
L 236.011127 -73.362255 
L 237.325997 -71.153838 
L 238.640867 -73.484434 
L 239.955736 -74.017112 
L 241.270606 -73.812118 
L 242.585475 -74.077946 
L 243.900345 -73.485456 
L 245.215214 -73.321359 
L 246.530084 -73.934808 
L 247.844954 -73.014634 
L 249.159823 -76.389116 
L 250.474693 -73.648531 
L 251.789562 -74.794148 
L 253.104432 -71.950811 
L 254.419302 -71.623127 
L 255.734171 -73.66898 
L 257.049041 -74.792614 
L 258.36391 -72.237087 
L 259.67878 -74.425567 
L 260.993649 -76.20457 
L 262.308519 -73.382703 
L 263.623389 -73.320847 
L 264.938258 -73.748217 
L 266.253128 -73.096427 
L 267.567997 -72.994186 
L 268.882867 -74.855493 
L 270.197736 -76.777122 
L 271.512606 -74.527809 
L 272.827476 -71.194735 
L 274.142345 -73.750773 
L 275.457215 -72.768743 
L 276.772084 -73.075979 
L 278.086954 -72.789703 
L 279.401823 -72.626116 
L 280.716693 -76.000598 
L 282.031563 -74.937286 
L 283.346432 -74.261981 
L 284.661302 -75.202603 
L 285.976171 -73.32187 
L 287.291041 -71.992219 
L 288.60591 -75.059465 
L 289.92078 -72.524386 
L 291.23565 -72.912392 
L 292.550519 -74.956201 
L 293.865389 -72.9538 
L 295.180258 -74.794148 
L 296.495128 -74.242044 
L 297.809997 -73.157772 
L 299.124867 -73.627572 
L 300.439737 -72.523875 
L 301.754606 -71.277039 
L 303.069476 -73.32187 
L 304.384345 -71.869529 
L 305.699215 -71.767287 
L 307.014085 -74.527297 
L 308.328954 -74.792103 
L 309.643824 -70.66359 
L 310.958693 -74.487423 
L 312.273563 -76.572639 
L 313.588432 -72.074012 
L 314.903302 -72.974249 
L 316.218172 -72.133823 
L 317.533041 -73.996153 
L 318.847911 -74.873896 
L 320.16278 -70.517385 
L 321.47765 -72.643497 
L 322.792519 -76.714755 
L 324.107389 -72.78868 
L 325.422259 -72.381248 
L 326.737128 -73.833077 
L 328.051998 -69.620215 
L 328.051998 -76.532765 
L 328.051998 -76.532765 
L 326.737128 -80.745627 
L 325.422259 -77.80056 
L 324.107389 -78.577085 
L 322.792519 -83.424867 
L 321.47765 -80.111219 
L 320.16278 -78.027536 
L 318.847911 -82.565015 
L 317.533041 -79.191045 
L 316.218172 -78.516251 
L 314.903302 -79.252901 
L 313.588432 -78.904769 
L 312.273563 -85.694118 
L 310.958693 -81.276261 
L 309.643824 -77.575629 
L 308.328954 -81.133123 
L 307.014085 -81.194979 
L 305.699215 -78.516251 
L 304.384345 -79.580074 
L 303.069476 -81.501704 
L 301.754606 -76.717311 
L 300.439737 -77.697807 
L 299.124867 -80.274805 
L 297.809997 -78.516762 
L 296.495128 -80.601467 
L 295.180258 -82.525141 
L 293.865389 -78.883809 
L 292.550519 -82.197968 
L 291.23565 -78.967136 
L 289.92078 -79.559114 
L 288.60591 -79.968081 
L 287.291041 -77.943698 
L 285.976171 -81.523174 
L 284.661302 -80.826909 
L 283.346432 -81.053374 
L 282.031563 -81.563048 
L 280.716693 -82.728602 
L 279.401823 -78.88432 
L 278.086954 -80.417943 
L 276.772084 -78.516762 
L 275.457215 -80.480311 
L 274.142345 -81.644842 
L 272.827476 -78.270871 
L 271.512606 -80.069811 
L 270.197736 -85.080157 
L 268.882867 -80.95011 
L 267.567997 -79.927184 
L 266.253128 -80.235442 
L 264.938258 -79.641419 
L 263.623389 -80.766587 
L 262.308519 -80.319791 
L 260.993649 -83.444293 
L 259.67878 -79.910314 
L 258.36391 -77.840945 
L 257.049041 -82.094704 
L 255.734171 -80.35711 
L 254.419302 -78.352664 
L 253.104432 -78.617981 
L 251.789562 -80.930173 
L 250.474693 -81.175042 
L 249.159823 -84.588887 
L 247.844954 -78.004532 
L 246.530084 -81.175042 
L 245.215214 -79.415976 
L 243.900345 -79.436425 
L 242.585475 -79.334694 
L 241.270606 -78.824509 
L 239.955736 -78.924706 
L 238.640867 -80.398517 
L 237.325997 -78.066899 
L 236.011127 -79.129189 
L 234.696258 -80.396984 
L 233.381388 -78.987584 
L 232.066519 -80.049363 
L 230.751649 -80.029425 
L 229.43678 -78.374135 
L 228.12191 -83.219361 
L 226.80704 -78.720223 
L 225.492171 -78.720734 
L 224.177301 -79.130211 
L 222.862432 -81.235876 
L 221.547562 -75.776178 
L 220.232693 -83.13859 
L 218.917823 -78.679837 
L 217.602953 -77.821008 
L 216.288084 -80.275316 
L 214.973214 -80.520696 
L 213.658345 -80.951133 
L 212.343475 -77.985106 
L 211.028606 -77.187111 
L 209.713736 -81.114208 
L 208.398866 -80.398006 
L 207.083997 -79.210982 
L 205.769127 -78.16863 
L 204.454258 -82.8927 
L 203.139388 -78.372601 
L 201.824519 -79.948143 
L 200.509649 -77.452939 
L 199.194779 -78.802527 
L 197.87991 -81.705675 
L 196.56504 -75.755218 
L 195.250171 -77.411531 
L 193.935301 -81.564071 
L 192.620431 -81.788491 
L 191.305562 -83.362499 
L 189.990692 -77.043973 
L 188.675823 -78.313813 
L 187.360953 -84.200369 
L 186.046084 -79.886287 
L 184.731214 -80.131667 
L 183.416344 -75.652977 
L 182.101475 -80.908703 
L 180.786605 -77.779601 
L 179.471736 -81.072289 
L 178.156866 -78.065877 
L 176.841997 -78.14767 
L 175.527127 -79.048418 
L 174.212257 -78.557659 
L 172.897388 -82.524119 
L 171.582518 -75.857971 
L 170.267649 -76.144247 
L 168.952779 -80.294742 
L 167.63791 -79.335205 
L 166.32304 -78.475865 
L 165.00817 -79.25239 
L 163.693301 -77.738704 
L 162.378431 -81.972015 
L 161.063562 -81.256835 
L 159.748692 -81.073312 
L 158.433823 -79.744172 
L 157.118953 -82.626872 
L 155.804083 -79.068355 
L 154.489214 -77.943698 
L 153.174344 -78.802527 
L 151.859475 -81.010944 
L 150.544605 -80.152115 
L 149.229736 -78.925217 
L 147.914866 -79.170597 
L 146.599996 -80.008466 
L 145.285127 -79.947632 
L 143.970257 -81.011455 
L 142.655388 -82.361044 
L 141.340518 -81.768043 
L 140.025648 -79.477832 
L 138.710779 -80.519674 
L 137.395909 -79.35412 
L 136.08104 -78.78259 
L 134.76617 -81.419399 
L 133.451301 -76.860449 
L 132.136431 -80.09077 
L 130.821561 -81.501192 
L 129.506692 -79.109252 
L 128.191822 -78.781568 
L 126.876953 -79.66289 
L 125.562083 -81.665801 
L 124.247214 -78.413498 
L 122.932344 -82.463285 
L 121.617474 -81.972015 
L 120.302605 -78.210037 
L 118.987735 -77.92325 
L 117.672866 -80.45884 
L 116.357996 -81.215427 
L 115.043127 -77.739726 
L 113.728257 -78.352153 
L 112.413387 -79.803983 
L 111.098518 -77.412553 
L 109.783648 -83.895689 
L 108.468779 -77.148259 
L 107.153909 -80.315702 
L 105.83904 -79.374568 
L 104.52417 -79.538666 
L 103.2093 -85.694118 
L 101.894431 -77.984595 
L 100.579561 -80.192501 
L 99.264692 -80.663323 
L 97.949822 -79.396039 
L 96.634953 -79.928206 
L 95.320083 -79.886799 
L 94.005213 -82.627383 
L 92.690344 -77.656911 
L 91.375474 -77.92325 
L 90.060605 -77.698319 
L 88.745735 -81.78798 
L 87.430865 -78.699774 
L 86.115996 -79.149637 
L 84.801126 -79.026947 
L 83.486257 -77.90229 
L 82.171387 -81.869262 
L 80.856518 -84.609846 
L 79.541648 -78.290808 
L 78.226778 -78.065877 
L 76.911909 -80.969536 
L 75.597039 -81.953611 
L 74.28217 -79.15066 
L 72.9673 -82.137135 
L 71.652431 -78.16863 
L 70.337561 -78.39305 
L 69.022691 -75.755218 
L 67.707822 -69.928473 
L 66.392952 -63.159061 
z
" style="stroke: #edd1cb; stroke-opacity: 0.2"/>
    </defs>
    <g clip-path="url(#pd1ad8d12b4)">
     <use xlink:href="#mcdff3c5878" x="0" y="362.097812" style="fill: #edd1cb; fill-opacity: 0.2; stroke: #edd1cb; stroke-opacity: 0.2"/>
    </g>
   </g>
   <g id="PolyCollection_2">
    <defs>
     <path id="m320ce2757d" d="M 66.392952 -65.921116 
L 66.392952 -58.312302 
L 67.707822 -67.923006 
L 69.022691 -71.541333 
L 70.337561 -72.012667 
L 71.652431 -72.564771 
L 72.9673 -73.912826 
L 74.28217 -71.233586 
L 75.597039 -71.399218 
L 76.911909 -76.020535 
L 78.226778 -72.238109 
L 79.541648 -73.443026 
L 80.856518 -73.321359 
L 82.171387 -75.447982 
L 83.486257 -74.895878 
L 84.801126 -75.468431 
L 86.115996 -72.707909 
L 87.430865 -72.237087 
L 88.745735 -72.011645 
L 90.060605 -74.200125 
L 91.375474 -76.879875 
L 92.690344 -74.077946 
L 94.005213 -74.527809 
L 95.320083 -74.425567 
L 96.634953 -75.223051 
L 97.949822 -75.284396 
L 99.264692 -74.568194 
L 100.579561 -75.385104 
L 101.894431 -75.182154 
L 103.2093 -72.974249 
L 104.52417 -73.955256 
L 105.83904 -73.872952 
L 107.153909 -72.666502 
L 108.468779 -75.263948 
L 109.783648 -70.827176 
L 111.098518 -72.789703 
L 112.413387 -75.140747 
L 113.728257 -72.707909 
L 115.043127 -75.182154 
L 116.357996 -76.736737 
L 117.672866 -71.602678 
L 118.987735 -74.813574 
L 120.302605 -73.096938 
L 121.617474 -72.687461 
L 122.932344 -74.956712 
L 124.247214 -71.706454 
L 125.562083 -72.708421 
L 126.876953 -74.037049 
L 128.191822 -70.806728 
L 129.506692 -73.075979 
L 130.821561 -73.833077 
L 132.136431 -72.463041 
L 133.451301 -75.837011 
L 134.76617 -72.667524 
L 136.08104 -72.340351 
L 137.395909 -73.709876 
L 138.710779 -71.808695 
L 140.025648 -76.286874 
L 141.340518 -72.626627 
L 142.655388 -76.368667 
L 143.970257 -77.308778 
L 145.285127 -75.059976 
L 146.599996 -72.156316 
L 147.914866 -75.917782 
L 149.229736 -73.893911 
L 150.544605 -73.954234 
L 151.859475 -77.226985 
L 153.174344 -72.338817 
L 154.489214 -74.055453 
L 155.804083 -70.74385 
L 157.118953 -71.420177 
L 158.433823 -75.201069 
L 159.748692 -72.646564 
L 161.063562 -73.976216 
L 162.378431 -73.035082 
L 163.693301 -74.997608 
L 165.00817 -74.568194 
L 166.32304 -73.627572 
L 167.63791 -70.704487 
L 168.952779 -75.876374 
L 170.267649 -76.777122 
L 171.582518 -74.058009 
L 172.897388 -74.280895 
L 174.212257 -74.221595 
L 175.527127 -73.750262 
L 176.841997 -72.5433 
L 178.156866 -73.299888 
L 179.471736 -76.55168 
L 180.786605 -71.868506 
L 182.101475 -73.362255 
L 183.416344 -74.835044 
L 184.731214 -74.098905 
L 186.046084 -73.219628 
L 187.360953 -72.708421 
L 188.675823 -74.426078 
L 189.990692 -75.366189 
L 191.305562 -73.137835 
L 192.620431 -74.670436 
L 193.935301 -73.465008 
L 195.250171 -72.524386 
L 196.56504 -71.072556 
L 197.87991 -74.671458 
L 199.194779 -74.977671 
L 200.509649 -75.488879 
L 201.824519 -72.33984 
L 203.139388 -72.463041 
L 204.454258 -72.155294 
L 205.769127 -73.935319 
L 207.083997 -74.097883 
L 208.398866 -71.195246 
L 209.713736 -76.879875 
L 211.028606 -73.892889 
L 212.343475 -74.690884 
L 213.658345 -74.977671 
L 214.973214 -75.202603 
L 216.288084 -75.95919 
L 217.602953 -73.444048 
L 218.917823 -76.409564 
L 220.232693 -75.407086 
L 221.547562 -72.340351 
L 222.862432 -74.609091 
L 224.177301 -72.319903 
L 225.492171 -71.317424 
L 226.80704 -73.8934 
L 228.12191 -72.687972 
L 229.43678 -74.649476 
L 230.751649 -71.277039 
L 232.066519 -73.97366 
L 233.381388 -73.341296 
L 234.696258 -75.571183 
L 236.011127 -70.970314 
L 237.325997 -72.769765 
L 238.640867 -73.096938 
L 239.955736 -74.055964 
L 241.270606 -74.671458 
L 242.585475 -76.634495 
L 243.900345 -75.079913 
L 245.215214 -76.245978 
L 246.530084 -71.726902 
L 247.844954 -75.570672 
L 249.159823 -74.03756 
L 250.474693 -73.17822 
L 251.789562 -76.266426 
L 253.104432 -74.056475 
L 254.419302 -72.380225 
L 255.734171 -71.787224 
L 257.049041 -74.50736 
L 258.36391 -73.218606 
L 259.67878 -71.828632 
L 260.993649 -76.430012 
L 262.308519 -73.158283 
L 263.623389 -75.139213 
L 264.938258 -74.077946 
L 266.253128 -74.487423 
L 267.567997 -76.08188 
L 268.882867 -70.929418 
L 270.197736 -72.461507 
L 271.512606 -74.118331 
L 272.827476 -73.280973 
L 274.142345 -71.297487 
L 275.457215 -73.932763 
L 276.772084 -75.345741 
L 278.086954 -74.568194 
L 279.401823 -75.918805 
L 280.716693 -72.483489 
L 282.031563 -74.03756 
L 283.346432 -74.895878 
L 284.661302 -73.833077 
L 285.976171 -72.298943 
L 287.291041 -73.54629 
L 288.60591 -72.80964 
L 289.92078 -76.122265 
L 291.23565 -73.586164 
L 292.550519 -77.227496 
L 293.865389 -74.03756 
L 295.180258 -73.832055 
L 296.495128 -72.401696 
L 297.809997 -74.404608 
L 299.124867 -71.889466 
L 300.439737 -75.037994 
L 301.754606 -71.255568 
L 303.069476 -74.446015 
L 304.384345 -72.748295 
L 305.699215 -73.442515 
L 307.014085 -74.976649 
L 308.328954 -76.061943 
L 309.643824 -73.258991 
L 310.958693 -72.033115 
L 312.273563 -76.654944 
L 313.588432 -74.098905 
L 314.903302 -74.772677 
L 316.218172 -73.137324 
L 317.533041 -76.347197 
L 318.847911 -74.527809 
L 320.16278 -73.157772 
L 321.47765 -76.163673 
L 322.792519 -75.816052 
L 324.107389 -74.323837 
L 325.422259 -73.116875 
L 326.737128 -75.201069 
L 328.051998 -71.113453 
L 328.051998 -76.634495 
L 328.051998 -76.634495 
L 326.737128 -81.29722 
L 325.422259 -78.618492 
L 324.107389 -80.622426 
L 322.792519 -84.202414 
L 321.47765 -82.850781 
L 320.16278 -79.701741 
L 318.847911 -80.050896 
L 317.533041 -83.137568 
L 316.218172 -80.847869 
L 314.903302 -82.789436 
L 313.588432 -80.050896 
L 312.273563 -85.349564 
L 310.958693 -79.601033 
L 309.643824 -79.968081 
L 308.328954 -82.646809 
L 307.014085 -82.810906 
L 305.699215 -78.414009 
L 304.384345 -79.742638 
L 303.069476 -81.255813 
L 301.754606 -77.514795 
L 300.439737 -81.584008 
L 299.124867 -78.045429 
L 297.809997 -81.480744 
L 296.495128 -77.964147 
L 295.180258 -80.56057 
L 293.865389 -79.825454 
L 292.550519 -83.73108 
L 291.23565 -78.946688 
L 289.92078 -83.157505 
L 288.60591 -79.701741 
L 287.291041 -80.745116 
L 285.976171 -78.658878 
L 284.661302 -80.663323 
L 283.346432 -83.505126 
L 282.031563 -80.888766 
L 280.716693 -78.311257 
L 279.401823 -82.258802 
L 278.086954 -82.421877 
L 276.772084 -82.810906 
L 275.457215 -79.907247 
L 274.142345 -79.457384 
L 272.827476 -79.845391 
L 271.512606 -80.356087 
L 270.197736 -79.050974 
L 268.882867 -76.798082 
L 267.567997 -84.549012 
L 266.253128 -79.906736 
L 264.938258 -82.258291 
L 263.623389 -82.625849 
L 262.308519 -79.069889 
L 260.993649 -82.565527 
L 259.67878 -79.047396 
L 258.36391 -80.111219 
L 257.049041 -80.093838 
L 255.734171 -78.863361 
L 254.419302 -77.841968 
L 253.104432 -79.968081 
L 251.789562 -82.504182 
L 250.474693 -79.683849 
L 249.159823 -80.540122 
L 247.844954 -80.540122 
L 246.530084 -77.043973 
L 245.215214 -82.851292 
L 243.900345 -81.256324 
L 242.585475 -83.668713 
L 241.270606 -81.052863 
L 239.955736 -80.684794 
L 238.640867 -78.88432 
L 237.325997 -77.473387 
L 236.011127 -77.268904 
L 234.696258 -82.074256 
L 233.381388 -80.316724 
L 232.066519 -81.992463 
L 230.751649 -77.431979 
L 229.43678 -81.543111 
L 228.12191 -79.701741 
L 226.80704 -79.579052 
L 225.492171 -78.108307 
L 224.177301 -78.721756 
L 222.862432 -82.012911 
L 221.547562 -77.820497 
L 220.232693 -81.338117 
L 218.917823 -84.037294 
L 217.602953 -80.111219 
L 216.288084 -84.098127 
L 214.973214 -81.685738 
L 213.658345 -82.339573 
L 212.343475 -81.5426 
L 211.028606 -80.294742 
L 209.713736 -82.482711 
L 208.398866 -78.210037 
L 207.083997 -80.356598 
L 205.769127 -79.272838 
L 204.454258 -78.88432 
L 203.139388 -79.008033 
L 201.824519 -79.5402 
L 200.509649 -81.562537 
L 199.194779 -83.833322 
L 197.87991 -80.703708 
L 196.56504 -80.621915 
L 195.250171 -78.965602 
L 193.935301 -80.686327 
L 192.620431 -82.851803 
L 191.305562 -79.069377 
L 189.990692 -81.521641 
L 188.675823 -80.888766 
L 187.360953 -80.253846 
L 186.046084 -80.315702 
L 184.731214 -82.13509 
L 183.416344 -82.730647 
L 182.101475 -78.946176 
L 180.786605 -78.884832 
L 179.471736 -82.850781 
L 178.156866 -78.659389 
L 176.841997 -79.86635 
L 175.527127 -78.904257 
L 174.212257 -80.887743 
L 172.897388 -80.254357 
L 171.582518 -81.071778 
L 170.267649 -84.384404 
L 168.952779 -82.380981 
L 167.63791 -76.207126 
L 166.32304 -81.501704 
L 165.00817 -81.092737 
L 163.693301 -81.726635 
L 162.378431 -79.047907 
L 161.063562 -80.110707 
L 159.748692 -80.642363 
L 158.433823 -82.729113 
L 157.118953 -77.104806 
L 155.804083 -76.227063 
L 154.489214 -83.116609 
L 153.174344 -78.536699 
L 151.859475 -82.768987 
L 150.544605 -78.904769 
L 149.229736 -79.395017 
L 147.914866 -81.214916 
L 146.599996 -77.595566 
L 145.285127 -82.155538 
L 143.970257 -84.693684 
L 142.655388 -85.06022 
L 141.340518 -79.906736 
L 140.025648 -81.951566 
L 138.710779 -77.494858 
L 137.395909 -78.577596 
L 136.08104 -79.395017 
L 134.76617 -78.598044 
L 133.451301 -82.810906 
L 132.136431 -78.844446 
L 130.821561 -79.068866 
L 129.506692 -78.433946 
L 128.191822 -75.714322 
L 126.876953 -80.58153 
L 125.562083 -79.192067 
L 124.247214 -78.842912 
L 122.932344 -81.398951 
L 121.617474 -78.966114 
L 120.302605 -80.502293 
L 118.987735 -80.131667 
L 117.672866 -78.271894 
L 116.357996 -82.789947 
L 115.043127 -80.151604 
L 113.728257 -78.987073 
L 112.413387 -81.358054 
L 111.098518 -79.660845 
L 109.783648 -76.103351 
L 108.468779 -81.379014 
L 107.153909 -79.559114 
L 105.83904 -78.94771 
L 104.52417 -80.458329 
L 103.2093 -80.68326 
L 101.894431 -81.29722 
L 100.579561 -82.831355 
L 99.264692 -80.970048 
L 97.949822 -83.425378 
L 96.634953 -80.68326 
L 95.320083 -82.667257 
L 94.005213 -81.542089 
L 92.690344 -82.669813 
L 91.375474 -84.426834 
L 90.060605 -80.908191 
L 88.745735 -78.393561 
L 87.430865 -77.944209 
L 86.115996 -78.290808 
L 84.801126 -82.421366 
L 83.486257 -81.727146 
L 82.171387 -81.501704 
L 80.856518 -79.395528 
L 79.541648 -79.681804 
L 78.226778 -78.639452 
L 76.911909 -82.38047 
L 75.597039 -77.656911 
L 74.28217 -77.514284 
L 72.9673 -80.152627 
L 71.652431 -77.904335 
L 70.337561 -77.311846 
L 69.022691 -77.268904 
L 67.707822 -74.078968 
L 66.392952 -65.921116 
z
" style="stroke: #d499a7; stroke-opacity: 0.2"/>
    </defs>
    <g clip-path="url(#pd1ad8d12b4)">
     <use xlink:href="#m320ce2757d" x="0" y="362.097812" style="fill: #d499a7; fill-opacity: 0.2; stroke: #d499a7; stroke-opacity: 0.2"/>
    </g>
   </g>
   <g id="PolyCollection_3">
    <defs>
     <path id="m9013aa44a4" d="M 66.392952 -62.075812 
L 66.392952 -56.451506 
L 67.707822 -64.405386 
L 69.022691 -66.921039 
L 70.337561 -69.006766 
L 71.652431 -70.274561 
L 72.9673 -70.806728 
L 74.28217 -74.242044 
L 75.597039 -72.27645 
L 76.911909 -70.643142 
L 78.226778 -72.850025 
L 79.541648 -73.30091 
L 80.856518 -70.41821 
L 82.171387 -71.276528 
L 83.486257 -74.446015 
L 84.801126 -72.994697 
L 86.115996 -74.3632 
L 87.430865 -73.730325 
L 88.745735 -71.563315 
L 90.060605 -70.908458 
L 91.375474 -71.439603 
L 92.690344 -72.155805 
L 94.005213 -76.65341 
L 95.320083 -74.875941 
L 96.634953 -72.994186 
L 97.949822 -76.101817 
L 99.264692 -72.769765 
L 100.579561 -74.28294 
L 101.894431 -73.239565 
L 103.2093 -73.996664 
L 104.52417 -76.449438 
L 105.83904 -70.887499 
L 107.153909 -73.811095 
L 108.468779 -75.571183 
L 109.783648 -73.955256 
L 111.098518 -77.308778 
L 112.413387 -73.751284 
L 113.728257 -75.262925 
L 115.043127 -73.137835 
L 116.357996 -75.427534 
L 117.672866 -69.968347 
L 118.987735 -75.386126 
L 120.302605 -72.483489 
L 121.617474 -74.017112 
L 122.932344 -73.13579 
L 124.247214 -75.160172 
L 125.562083 -72.748806 
L 126.876953 -71.685494 
L 128.191822 -73.137324 
L 129.506692 -74.262492 
L 130.821561 -74.568705 
L 132.136431 -74.794148 
L 133.451301 -74.546723 
L 134.76617 -72.606179 
L 136.08104 -74.486912 
L 137.395909 -73.178732 
L 138.710779 -75.283374 
L 140.025648 -73.771732 
L 141.340518 -70.887499 
L 142.655388 -74.343263 
L 143.970257 -73.19918 
L 145.285127 -73.505393 
L 146.599996 -74.01609 
L 147.914866 -73.79167 
L 149.229736 -75.650421 
L 150.544605 -72.933352 
L 151.859475 -75.69234 
L 153.174344 -76.531231 
L 154.489214 -75.119787 
L 155.804083 -71.788247 
L 157.118953 -74.056986 
L 158.433823 -75.264459 
L 159.748692 -73.648531 
L 161.063562 -75.018057 
L 162.378431 -74.344285 
L 163.693301 -75.550224 
L 165.00817 -72.891944 
L 166.32304 -71.133901 
L 167.63791 -74.200125 
L 168.952779 -75.918805 
L 170.267649 -73.771221 
L 171.582518 -74.057498 
L 172.897388 -73.382703 
L 174.212257 -77.042439 
L 175.527127 -75.8365 
L 176.841997 -74.85447 
L 178.156866 -75.407086 
L 179.471736 -72.707909 
L 180.786605 -74.875941 
L 182.101475 -77.124744 
L 183.416344 -71.726391 
L 184.731214 -77.123721 
L 186.046084 -74.937286 
L 187.360953 -77.020968 
L 188.675823 -74.015067 
L 189.990692 -73.096427 
L 191.305562 -70.806217 
L 192.620431 -72.950733 
L 193.935301 -73.240077 
L 195.250171 -72.973737 
L 196.56504 -70.519941 
L 197.87991 -73.158283 
L 199.194779 -74.383648 
L 200.509649 -75.182666 
L 201.824519 -75.264459 
L 203.139388 -75.100361 
L 204.454258 -72.483489 
L 205.769127 -75.918293 
L 207.083997 -75.264459 
L 208.398866 -74.650498 
L 209.713736 -74.201147 
L 211.028606 -74.670947 
L 212.343475 -73.709876 
L 213.658345 -75.508816 
L 214.973214 -75.059465 
L 216.288084 -71.233075 
L 217.602953 -72.809128 
L 218.917823 -73.177709 
L 220.232693 -71.031148 
L 221.547562 -74.63005 
L 222.862432 -74.916838 
L 224.177301 -71.051597 
L 225.492171 -70.704487 
L 226.80704 -74.589154 
L 228.12191 -72.544323 
L 229.43678 -72.176765 
L 230.751649 -74.547235 
L 232.066519 -75.09985 
L 233.381388 -74.589154 
L 234.696258 -73.157261 
L 236.011127 -76.307322 
L 237.325997 -73.545779 
L 238.640867 -73.196113 
L 239.955736 -77.04295 
L 241.270606 -73.587187 
L 242.585475 -74.853959 
L 243.900345 -74.077946 
L 245.215214 -72.790214 
L 246.530084 -74.588131 
L 247.844954 -71.522419 
L 249.159823 -74.200636 
L 250.474693 -76.42899 
L 251.789562 -72.298943 
L 253.104432 -71.58223 
L 254.419302 -71.910425 
L 255.734171 -72.851559 
L 257.049041 -75.386126 
L 258.36391 -73.158283 
L 259.67878 -72.973737 
L 260.993649 -75.530287 
L 262.308519 -78.188055 
L 263.623389 -74.52832 
L 264.938258 -72.074523 
L 266.253128 -73.484434 
L 267.567997 -76.490335 
L 268.882867 -72.892455 
L 270.197736 -74.385182 
L 271.512606 -73.401107 
L 272.827476 -73.095916 
L 274.142345 -74.671458 
L 275.457215 -75.284396 
L 276.772084 -77.124744 
L 278.086954 -72.708421 
L 279.401823 -73.483923 
L 280.716693 -72.238109 
L 282.031563 -73.587698 
L 283.346432 -71.909403 
L 284.661302 -72.749317 
L 285.976171 -71.829143 
L 287.291041 -73.729813 
L 288.60591 -74.814596 
L 289.92078 -72.769254 
L 291.23565 -71.62466 
L 292.550519 -76.040472 
L 293.865389 -74.773188 
L 295.180258 -71.522419 
L 296.495128 -72.992652 
L 297.809997 -75.100361 
L 299.124867 -75.938742 
L 300.439737 -73.015145 
L 301.754606 -72.80964 
L 303.069476 -73.893911 
L 304.384345 -71.439603 
L 305.699215 -71.460563 
L 307.014085 -71.972282 
L 308.328954 -76.613536 
L 309.643824 -74.180699 
L 310.958693 -76.879364 
L 312.273563 -72.380736 
L 313.588432 -72.237598 
L 314.903302 -75.162217 
L 316.218172 -71.889977 
L 317.533041 -74.731269 
L 318.847911 -72.829577 
L 320.16278 -71.951322 
L 321.47765 -76.017468 
L 322.792519 -73.649043 
L 324.107389 -73.606612 
L 325.422259 -72.645031 
L 326.737128 -77.411531 
L 328.051998 -71.461074 
L 328.051998 -77.882353 
L 328.051998 -77.882353 
L 326.737128 -83.893644 
L 325.422259 -79.640908 
L 324.107389 -81.256835 
L 322.792519 -79.559114 
L 321.47765 -82.605912 
L 320.16278 -78.53721 
L 318.847911 -79.027458 
L 317.533041 -81.972526 
L 316.218172 -78.16863 
L 314.903302 -80.765565 
L 313.588432 -78.945665 
L 312.273563 -79.397062 
L 310.958693 -82.953022 
L 309.643824 -80.663834 
L 308.328954 -83.712677 
L 307.014085 -79.067844 
L 305.699215 -79.314757 
L 304.384345 -78.924706 
L 303.069476 -79.660845 
L 301.754606 -78.394072 
L 300.439737 -78.311768 
L 299.124867 -83.996397 
L 297.809997 -82.135601 
L 296.495128 -79.701741 
L 295.180258 -77.575629 
L 293.865389 -80.540122 
L 292.550519 -83.382437 
L 291.23565 -77.739215 
L 289.92078 -79.294309 
L 288.60591 -81.154594 
L 287.291041 -79.98904 
L 285.976171 -78.598555 
L 284.661302 -80.846847 
L 283.346432 -80.09077 
L 282.031563 -81.666824 
L 280.716693 -77.084869 
L 279.401823 -79.663401 
L 278.086954 -79.211493 
L 276.772084 -83.138079 
L 275.457215 -83.648776 
L 274.142345 -80.541656 
L 272.827476 -79.334694 
L 271.512606 -80.33615 
L 270.197736 -80.258958 
L 268.882867 -78.598044 
L 267.567997 -82.708154 
L 266.253128 -80.051919 
L 264.938258 -77.473387 
L 263.623389 -79.559114 
L 262.308519 -86.326993 
L 260.993649 -82.503671 
L 259.67878 -78.454395 
L 258.36391 -79.00701 
L 257.049041 -81.010433 
L 255.734171 -78.066388 
L 254.419302 -77.781134 
L 253.104432 -77.413576 
L 251.789562 -77.166663 
L 250.474693 -85.490657 
L 249.159823 -80.235953 
L 247.844954 -78.128244 
L 246.530084 -84.262225 
L 245.215214 -79.784046 
L 243.900345 -80.663323 
L 242.585475 -81.092226 
L 241.270606 -79.457384 
L 239.955736 -83.546534 
L 238.640867 -80.520185 
L 237.325997 -80.214483 
L 236.011127 -82.584953 
L 234.696258 -78.292342 
L 233.381388 -82.258802 
L 232.066519 -81.154082 
L 230.751649 -82.400918 
L 229.43678 -76.287385 
L 228.12191 -77.1866 
L 226.80704 -80.295765 
L 225.492171 -77.269927 
L 224.177301 -76.246489 
L 222.862432 -81.685227 
L 221.547562 -79.928206 
L 220.232693 -76.879875 
L 218.917823 -77.780112 
L 217.602953 -78.966625 
L 216.288084 -76.7168 
L 214.973214 -81.705675 
L 213.658345 -82.036427 
L 212.343475 -80.296276 
L 211.028606 -81.665801 
L 209.713736 -80.45884 
L 208.398866 -81.828876 
L 207.083997 -81.583497 
L 205.769127 -82.585464 
L 204.454258 -79.028992 
L 203.139388 -81.869773 
L 201.824519 -84.263759 
L 200.509649 -80.110707 
L 199.194779 -81.174531 
L 197.87991 -80.172564 
L 196.56504 -75.796626 
L 195.250171 -79.885776 
L 193.935301 -79.313735 
L 192.620431 -78.454906 
L 191.305562 -75.755729 
L 189.990692 -78.823998 
L 188.675823 -80.519674 
L 187.360953 -83.34154 
L 186.046084 -82.217394 
L 184.731214 -84.406385 
L 183.416344 -76.532254 
L 182.101475 -82.933596 
L 180.786605 -81.19549 
L 179.471736 -79.559114 
L 178.156866 -81.420422 
L 176.841997 -81.829388 
L 175.527127 -81.21645 
L 174.212257 -84.303122 
L 172.897388 -78.986051 
L 171.582518 -81.276261 
L 170.267649 -79.640908 
L 168.952779 -82.87174 
L 167.63791 -80.561593 
L 166.32304 -76.553213 
L 165.00817 -79.805005 
L 163.693301 -81.358054 
L 162.378431 -79.231942 
L 161.063562 -80.70422 
L 159.748692 -80.908703 
L 158.433823 -80.971581 
L 157.118953 -79.026947 
L 155.804083 -77.187111 
L 154.489214 -81.807917 
L 153.174344 -81.298754 
L 151.859475 -83.342562 
L 150.544605 -78.76163 
L 149.229736 -82.666746 
L 147.914866 -78.393561 
L 146.599996 -80.929662 
L 145.285127 -81.298754 
L 143.970257 -79.15066 
L 142.655388 -81.138235 
L 141.340518 -77.494347 
L 140.025648 -79.826476 
L 138.710779 -82.237331 
L 137.395909 -79.988018 
L 136.08104 -80.745116 
L 134.76617 -78.311257 
L 133.451301 -81.891755 
L 132.136431 -80.662812 
L 130.821561 -81.29722 
L 129.506692 -80.029425 
L 128.191822 -80.417943 
L 126.876953 -77.105829 
L 125.562083 -79.170085 
L 124.247214 -81.113697 
L 122.932344 -79.661356 
L 121.617474 -80.21346 
L 120.302605 -78.720734 
L 118.987735 -82.688217 
L 117.672866 -75.530798 
L 116.357996 -82.809884 
L 115.043127 -79.824431 
L 113.728257 -81.789002 
L 112.413387 -79.970637 
L 111.098518 -84.016845 
L 109.783648 -79.824431 
L 108.468779 -82.769499 
L 107.153909 -79.660845 
L 105.83904 -77.67787 
L 104.52417 -83.873707 
L 103.2093 -79.170085 
L 101.894431 -78.065877 
L 100.579561 -81.66529 
L 99.264692 -78.169141 
L 97.949822 -82.135601 
L 96.634953 -78.617981 
L 95.320083 -82.137646 
L 94.005213 -84.09915 
L 92.690344 -79.047907 
L 91.375474 -77.023524 
L 90.060605 -78.433946 
L 88.745735 -79.660845 
L 87.430865 -80.459351 
L 86.115996 -80.642875 
L 84.801126 -78.885343 
L 83.486257 -81.19549 
L 82.171387 -79.067844 
L 80.856518 -75.694896 
L 79.541648 -79.806028 
L 78.226778 -81.398951 
L 76.911909 -76.245978 
L 75.597039 -78.066388 
L 74.28217 -81.910158 
L 72.9673 -76.798593 
L 71.652431 -76.921283 
L 70.337561 -76.082391 
L 69.022691 -73.404174 
L 67.707822 -72.485534 
L 66.392952 -62.075812 
z
" style="stroke: #a9678f; stroke-opacity: 0.2"/>
    </defs>
    <g clip-path="url(#pd1ad8d12b4)">
     <use xlink:href="#m9013aa44a4" x="0" y="362.097812" style="fill: #a9678f; fill-opacity: 0.2; stroke: #a9678f; stroke-opacity: 0.2"/>
    </g>
   </g>
   <g id="PolyCollection_4">
    <defs>
     <path id="m1ae96e2df9" d="M 66.392952 -66.516162 
L 66.392952 -56.615603 
L 67.707822 -64.160006 
L 69.022691 -67.447582 
L 70.337561 -83.177953 
L 71.652431 -104.521896 
L 72.9673 -115.077312 
L 74.28217 -113.87035 
L 75.597039 -106.958823 
L 76.911909 -107.877974 
L 78.226778 -119.289663 
L 79.541648 -132.12711 
L 80.856518 -126.40005 
L 82.171387 -123.277082 
L 83.486257 -126.0785 
L 84.801126 -136.586885 
L 86.115996 -142.49389 
L 87.430865 -144.929794 
L 88.745735 -123.906379 
L 90.060605 -140.594753 
L 91.375474 -134.131555 
L 92.690344 -143.865971 
L 94.005213 -133.296241 
L 95.320083 -130.02349 
L 96.634953 -137.303598 
L 97.949822 -146.997118 
L 99.264692 -154.21537 
L 100.579561 -151.141479 
L 101.894431 -142.86656 
L 103.2093 -152.538609 
L 104.52417 -140.20828 
L 105.83904 -149.013832 
L 107.153909 -146.260468 
L 108.468779 -145.727278 
L 109.783648 -132.82593 
L 111.098518 -151.146079 
L 112.413387 -147.31969 
L 113.728257 -143.92885 
L 115.043127 -145.40215 
L 116.357996 -150.429877 
L 117.672866 -137.849568 
L 118.987735 -158.673101 
L 120.302605 -147.09936 
L 121.617474 -141.911113 
L 122.932344 -148.959133 
L 124.247214 -156.147735 
L 125.562083 -139.180242 
L 126.876953 -143.04855 
L 128.191822 -145.116385 
L 129.506692 -128.284873 
L 130.821561 -130.08279 
L 132.136431 -146.257401 
L 133.451301 -171.429266 
L 134.76617 -158.380179 
L 136.08104 -171.104649 
L 137.395909 -188.608911 
L 138.710779 -201.65493 
L 140.025648 -199.651507 
L 141.340518 -189.611389 
L 142.655388 -190.122596 
L 143.970257 -189.263768 
L 145.285127 -175.371188 
L 146.599996 -192.412807 
L 147.914866 -201.001095 
L 149.229736 -202.534718 
L 150.544605 -189.39617 
L 151.859475 -172.107127 
L 153.174344 -209.098625 
L 154.489214 -209.098625 
L 155.804083 -214.312943 
L 157.118953 -214.312943 
L 158.433823 -187.443868 
L 159.748692 -195.950364 
L 161.063562 -202.534718 
L 162.378431 -189.672734 
L 163.693301 -185.746659 
L 165.00817 -195.766329 
L 166.32304 -209.03728 
L 167.63791 -198.588195 
L 168.952779 -209.03728 
L 170.267649 -181.900844 
L 171.582518 -199.038058 
L 172.897388 -192.771163 
L 174.212257 -186.297741 
L 175.527127 -202.657408 
L 176.841997 -200.612578 
L 178.156866 -206.460793 
L 179.471736 -206.460793 
L 180.786605 -181.248031 
L 182.101475 -208.178451 
L 183.416344 -208.178451 
L 184.731214 -203.269835 
L 186.046084 -195.372188 
L 187.360953 -197.974746 
L 188.675823 -191.676156 
L 189.990692 -186.503246 
L 191.305562 -186.41583 
L 192.620431 -201.226027 
L 193.935301 -195.398259 
L 195.250171 -208.485176 
L 196.56504 -205.213447 
L 197.87991 -199.711319 
L 199.194779 -180.81555 
L 200.509649 -188.196877 
L 201.824519 -195.926337 
L 203.139388 -200.387646 
L 204.454258 -195.807226 
L 205.769127 -188.11355 
L 207.083997 -214.312943 
L 208.398866 -201.06244 
L 209.713736 -199.283438 
L 211.028606 -179.244097 
L 212.343475 -214.312943 
L 213.658345 -214.312943 
L 214.973214 -214.312943 
L 216.288084 -186.827352 
L 217.602953 -181.079844 
L 218.917823 -183.761639 
L 220.232693 -191.553978 
L 221.547562 -188.568014 
L 222.862432 -209.650729 
L 224.177301 -187.709696 
L 225.492171 -197.729366 
L 226.80704 -202.88234 
L 228.12191 -189.559757 
L 229.43678 -194.287405 
L 230.751649 -215.233117 
L 232.066519 -208.109949 
L 233.381388 -214.022066 
L 234.696258 -220.50469 
L 236.011127 -248.152845 
L 237.325997 -257.291194 
L 238.640867 -254.882383 
L 239.955736 -300.529649 
L 241.270606 -305.287459 
L 242.585475 -292.95713 
L 243.900345 -299.050725 
L 245.215214 -323.588693 
L 246.530084 -313.773506 
L 247.844954 -255.8547 
L 249.159823 -285.800222 
L 250.474693 -298.437276 
L 251.789562 -323.588693 
L 253.104432 -323.588693 
L 254.419302 -298.314586 
L 255.734171 -283.980323 
L 257.049041 -313.344091 
L 258.36391 -298.314586 
L 259.67878 -273.713229 
L 260.993649 -298.314586 
L 262.308519 -305.430597 
L 263.623389 -300.277623 
L 264.938258 -323.588693 
L 266.253128 -323.588693 
L 267.567997 -310.522225 
L 268.882867 -323.588693 
L 270.197736 -299.541484 
L 271.512606 -323.588693 
L 272.827476 -285.800222 
L 274.142345 -260.239839 
L 275.457215 -282.998804 
L 276.772084 -285.800222 
L 278.086954 -323.588693 
L 279.401823 -323.588693 
L 280.716693 -285.800222 
L 282.031563 -323.588693 
L 283.346432 -299.541484 
L 284.661302 -277.702693 
L 285.976171 -323.588693 
L 287.291041 -303.978767 
L 288.60591 -305.062527 
L 289.92078 -275.037768 
L 291.23565 -277.37552 
L 292.550519 -271.649994 
L 293.865389 -283.346426 
L 295.180258 -289.889884 
L 296.495128 -275.938004 
L 297.809997 -307.230048 
L 299.124867 -291.362162 
L 300.439737 -285.043124 
L 301.754606 -289.471205 
L 303.069476 -293.07982 
L 304.384345 -313.773506 
L 305.699215 -272.893763 
L 307.014085 -293.508723 
L 308.328954 -323.588693 
L 309.643824 -323.588693 
L 310.958693 -301.872591 
L 312.273563 -301.872591 
L 313.588432 -300.277623 
L 314.903302 -300.891073 
L 316.218172 -313.344091 
L 317.533041 -311.933158 
L 318.847911 -311.933158 
L 320.16278 -311.933158 
L 321.47765 -290.789609 
L 322.792519 -290.757914 
L 324.107389 -294.773962 
L 325.422259 -309.029499 
L 326.737128 -304.960286 
L 328.051998 -313.098712 
L 328.051998 -323.588693 
L 328.051998 -323.588693 
L 326.737128 -321.871035 
L 325.422259 -323.588693 
L 324.107389 -319.703515 
L 322.792519 -323.588693 
L 321.47765 -323.588693 
L 320.16278 -323.588693 
L 318.847911 -323.588693 
L 317.533041 -323.588693 
L 316.218172 -323.588693 
L 314.903302 -323.588693 
L 313.588432 -323.588693 
L 312.273563 -323.588693 
L 310.958693 -323.588693 
L 309.643824 -323.588693 
L 308.328954 -326.287869 
L 307.014085 -325.388144 
L 305.699215 -320.316964 
L 304.384345 -323.588693 
L 303.069476 -323.588693 
L 301.754606 -323.588693 
L 300.439737 -320.316964 
L 299.124867 -323.588693 
L 297.809997 -323.588693 
L 296.495128 -320.316964 
L 295.180258 -323.588693 
L 293.865389 -320.316964 
L 292.550519 -317.112714 
L 291.23565 -319.758725 
L 289.92078 -320.316964 
L 288.60591 -323.588693 
L 287.291041 -323.588693 
L 285.976171 -323.588693 
L 284.661302 -323.588693 
L 283.346432 -323.588693 
L 282.031563 -323.588693 
L 280.716693 -323.588693 
L 279.401823 -323.588693 
L 278.086954 -323.588693 
L 276.772084 -323.588693 
L 275.457215 -323.588693 
L 274.142345 -316.349992 
L 272.827476 -323.588693 
L 271.512606 -323.588693 
L 270.197736 -323.588693 
L 268.882867 -323.588693 
L 267.567997 -323.588693 
L 266.253128 -323.588693 
L 264.938258 -323.834073 
L 263.623389 -323.834073 
L 262.308519 -323.834073 
L 260.993649 -323.588693 
L 259.67878 -323.588693 
L 258.36391 -323.588693 
L 257.049041 -323.588693 
L 255.734171 -323.588693 
L 254.419302 -323.588693 
L 253.104432 -323.588693 
L 251.789562 -323.588693 
L 250.474693 -323.588693 
L 249.159823 -323.588693 
L 247.844954 -315.572957 
L 246.530084 -323.588693 
L 245.215214 -323.588693 
L 243.900345 -323.588693 
L 242.585475 -323.588693 
L 241.270606 -323.588693 
L 239.955736 -323.588693 
L 238.640867 -308.743222 
L 237.325997 -308.31483 
L 236.011127 -298.233304 
L 234.696258 -270.688924 
L 233.381388 -255.087889 
L 232.066519 -253.266967 
L 230.751649 -248.768339 
L 229.43678 -236.192631 
L 228.12191 -225.966433 
L 226.80704 -219.895331 
L 225.492171 -223.003473 
L 224.177301 -213.535907 
L 222.862432 -214.312943 
L 221.547562 -213.495011 
L 220.232693 -212.574837 
L 218.917823 -211.552422 
L 217.602953 -209.754504 
L 216.288084 -212.329457 
L 214.973214 -214.312943 
L 213.658345 -214.312943 
L 212.343475 -214.312943 
L 211.028606 -214.312943 
L 209.713736 -214.312943 
L 208.398866 -214.312943 
L 207.083997 -214.312943 
L 205.769127 -214.312943 
L 204.454258 -214.312943 
L 203.139388 -214.312943 
L 201.824519 -210.836731 
L 200.509649 -210.693593 
L 199.194779 -205.458826 
L 197.87991 -212.574837 
L 196.56504 -214.312943 
L 195.250171 -214.312943 
L 193.935301 -214.312943 
L 192.620431 -214.312943 
L 191.305562 -211.69556 
L 189.990692 -213.658597 
L 188.675823 -213.658597 
L 187.360953 -214.312943 
L 186.046084 -214.312943 
L 184.731214 -213.658597 
L 183.416344 -214.312943 
L 182.101475 -214.312943 
L 180.786605 -210.3199 
L 179.471736 -214.312943 
L 178.156866 -214.312943 
L 176.841997 -214.312943 
L 175.527127 -214.312943 
L 174.212257 -212.41125 
L 172.897388 -214.312943 
L 171.582518 -213.0247 
L 170.267649 -212.554389 
L 168.952779 -214.312943 
L 167.63791 -214.312943 
L 166.32304 -214.312943 
L 165.00817 -214.312943 
L 163.693301 -214.312943 
L 162.378431 -214.312943 
L 161.063562 -214.312943 
L 159.748692 -214.312943 
L 158.433823 -214.312943 
L 157.118953 -214.312943 
L 155.804083 -214.312943 
L 154.489214 -214.312943 
L 153.174344 -214.312943 
L 151.859475 -207.583917 
L 150.544605 -214.312943 
L 149.229736 -214.312943 
L 147.914866 -214.312943 
L 146.599996 -214.312943 
L 145.285127 -209.303108 
L 143.970257 -214.312943 
L 142.655388 -214.312943 
L 141.340518 -214.312943 
L 140.025648 -214.312943 
L 138.710779 -214.312943 
L 137.395909 -210.836731 
L 136.08104 -199.224649 
L 134.76617 -191.247764 
L 133.451301 -194.713752 
L 132.136431 -179.985348 
L 130.821561 -164.624069 
L 129.506692 -162.131932 
L 128.191822 -173.683692 
L 126.876953 -170.923681 
L 125.562083 -169.633905 
L 124.247214 -183.848545 
L 122.932344 -174.909056 
L 121.617474 -171.190532 
L 120.302605 -171.24881 
L 118.987735 -172.598398 
L 117.672866 -163.33736 
L 116.357996 -167.527218 
L 115.043127 -161.250099 
L 113.728257 -160.942863 
L 112.413387 -163.624147 
L 111.098518 -171.721677 
L 109.783648 -159.431222 
L 108.468779 -166.464417 
L 107.153909 -169.122186 
L 105.83904 -161.249588 
L 104.52417 -155.933028 
L 103.2093 -158.693549 
L 101.894431 -157.814272 
L 100.579561 -163.376212 
L 99.264692 -158.693549 
L 97.949822 -158.693549 
L 96.634953 -156.689615 
L 95.320083 -152.313678 
L 94.005213 -152.970068 
L 92.690344 -156.485132 
L 91.375474 -154.419853 
L 90.060605 -156.689615 
L 88.745735 -149.574627 
L 87.430865 -159.491033 
L 86.115996 -154.399405 
L 84.801126 -152.681747 
L 83.486257 -148.716309 
L 82.171387 -145.322402 
L 80.856518 -147.4296 
L 79.541648 -147.492989 
L 78.226778 -135.936118 
L 76.911909 -125.935874 
L 75.597039 -129.105361 
L 74.28217 -133.074377 
L 72.9673 -132.337216 
L 71.652431 -124.423721 
L 70.337561 -107.390282 
L 69.022691 -84.283184 
L 67.707822 -78.02498 
L 66.392952 -66.516162 
z
" style="stroke: #6c3f70; stroke-opacity: 0.2"/>
    </defs>
    <g clip-path="url(#pd1ad8d12b4)">
     <use xlink:href="#m1ae96e2df9" x="0" y="362.097812" style="fill: #6c3f70; fill-opacity: 0.2; stroke: #6c3f70; stroke-opacity: 0.2"/>
    </g>
   </g>
   <g id="PolyCollection_5">
    <defs>
     <path id="m504cbe104f" d="M 66.392952 -66.104129 
L 66.392952 -57.657956 
L 67.707822 -73.853526 
L 69.022691 -74.956201 
L 70.337561 -73.627061 
L 71.652431 -75.754707 
L 72.9673 -74.691395 
L 74.28217 -76.184121 
L 75.597039 -69.619193 
L 76.911909 -72.278495 
L 78.226778 -75.12081 
L 79.541648 -72.421633 
L 80.856518 -72.892455 
L 82.171387 -74.159739 
L 83.486257 -74.998631 
L 84.801126 -76.510783 
L 86.115996 -74.262492 
L 87.430865 -74.180699 
L 88.745735 -74.036538 
L 90.060605 -71.132367 
L 91.375474 -73.424111 
L 92.690344 -73.30091 
L 94.005213 -75.570161 
L 95.320083 -73.790647 
L 96.634953 -76.835911 
L 97.949822 -72.790214 
L 99.264692 -74.303388 
L 100.579561 -72.564771 
L 101.894431 -71.951322 
L 103.2093 -74.957734 
L 104.52417 -73.485456 
L 105.83904 -73.464497 
L 107.153909 -70.355843 
L 108.468779 -73.341807 
L 109.783648 -73.096427 
L 111.098518 -72.053564 
L 112.413387 -71.888955 
L 113.728257 -74.506849 
L 115.043127 -73.85097 
L 116.357996 -71.746839 
L 117.672866 -74.426078 
L 118.987735 -72.892455 
L 120.302605 -75.039527 
L 121.617474 -73.056042 
L 122.932344 -73.913848 
L 124.247214 -75.284907 
L 125.562083 -73.587187 
L 126.876953 -74.343774 
L 128.191822 -71.87004 
L 129.506692 -73.812118 
L 130.821561 -72.646053 
L 132.136431 -73.833077 
L 133.451301 -70.724935 
L 134.76617 -77.267882 
L 136.08104 -70.98974 
L 137.395909 -75.09985 
L 138.710779 -72.769254 
L 140.025648 -74.098394 
L 141.340518 -75.346252 
L 142.655388 -72.542789 
L 143.970257 -74.751718 
L 145.285127 -74.38467 
L 146.599996 -74.915304 
L 147.914866 -73.157261 
L 149.229736 -71.644597 
L 150.544605 -71.297487 
L 151.859475 -74.486401 
L 153.174344 -72.523875 
L 154.489214 -72.810151 
L 155.804083 -73.893911 
L 157.118953 -71.603701 
L 158.433823 -74.874919 
L 159.748692 -72.012156 
L 161.063562 -71.604212 
L 162.378431 -72.483489 
L 163.693301 -75.325293 
L 165.00817 -76.695329 
L 166.32304 -71.930874 
L 167.63791 -74.649987 
L 168.952779 -76.184121 
L 170.267649 -75.324781 
L 171.582518 -75.775155 
L 172.897388 -70.601223 
L 174.212257 -75.918293 
L 175.527127 -74.548768 
L 176.841997 -72.011645 
L 178.156866 -72.626116 
L 179.471736 -72.9538 
L 180.786605 -75.059465 
L 182.101475 -73.035593 
L 183.416344 -71.521396 
L 184.731214 -73.4236 
L 186.046084 -73.424111 
L 187.360953 -72.931818 
L 188.675823 -74.322814 
L 189.990692 -71.685494 
L 191.305562 -70.560837 
L 192.620431 -74.833511 
L 193.935301 -74.157694 
L 195.250171 -72.074523 
L 196.56504 -75.07889 
L 197.87991 -75.815541 
L 199.194779 -72.829577 
L 200.509649 -74.65101 
L 201.824519 -74.200125 
L 203.139388 -73.340784 
L 204.454258 -75.427534 
L 205.769127 -73.362255 
L 207.083997 -73.239565 
L 208.398866 -72.810151 
L 209.713736 -71.113453 
L 211.028606 -75.202603 
L 212.343475 -75.48939 
L 213.658345 -73.792181 
L 214.973214 -76.182588 
L 216.288084 -71.930874 
L 217.602953 -73.219117 
L 218.917823 -74.732803 
L 220.232693 -73.197646 
L 221.547562 -73.832566 
L 222.862432 -73.545779 
L 224.177301 -72.974249 
L 225.492171 -71.665557 
L 226.80704 -72.851559 
L 228.12191 -73.729813 
L 229.43678 -72.584197 
L 230.751649 -75.284396 
L 232.066519 -73.996153 
L 233.381388 -73.933785 
L 234.696258 -72.297921 
L 236.011127 -77.716722 
L 237.325997 -72.89041 
L 238.640867 -72.667013 
L 239.955736 -75.019079 
L 241.270606 -71.992219 
L 242.585475 -72.769254 
L 243.900345 -72.605157 
L 245.215214 -71.439092 
L 246.530084 -72.298943 
L 247.844954 -70.928907 
L 249.159823 -70.234175 
L 250.474693 -74.65101 
L 251.789562 -74.098905 
L 253.104432 -73.586675 
L 254.419302 -73.178732 
L 255.734171 -74.200636 
L 257.049041 -72.297921 
L 258.36391 -74.548768 
L 259.67878 -71.295954 
L 260.993649 -72.544323 
L 262.308519 -73.54629 
L 263.623389 -73.525842 
L 264.938258 -75.305355 
L 266.253128 -74.426078 
L 267.567997 -74.425056 
L 268.882867 -71.277039 
L 270.197736 -71.440114 
L 271.512606 -71.82761 
L 272.827476 -71.686005 
L 274.142345 -72.851047 
L 275.457215 -74.446015 
L 276.772084 -73.833077 
L 278.086954 -75.243499 
L 279.401823 -71.684472 
L 280.716693 -73.975193 
L 282.031563 -73.014634 
L 283.346432 -71.890488 
L 284.661302 -74.794148 
L 285.976171 -75.998042 
L 287.291041 -73.853015 
L 288.60591 -74.344285 
L 289.92078 -72.482978 
L 291.23565 -73.239054 
L 292.550519 -69.763353 
L 293.865389 -73.8934 
L 295.180258 -73.587187 
L 296.495128 -72.155805 
L 297.809997 -73.075468 
L 299.124867 -72.972715 
L 300.439737 -72.707398 
L 301.754606 -75.385615 
L 303.069476 -73.607635 
L 304.384345 -72.133823 
L 305.699215 -76.307322 
L 307.014085 -73.301421 
L 308.328954 -73.934808 
L 309.643824 -74.87543 
L 310.958693 -76.652899 
L 312.273563 -76.879364 
L 313.588432 -75.243499 
L 314.903302 -72.319903 
L 316.218172 -76.877319 
L 317.533041 -74.936775 
L 318.847911 -73.361744 
L 320.16278 -75.570161 
L 321.47765 -74.220062 
L 322.792519 -72.9538 
L 324.107389 -72.912392 
L 325.422259 -73.465008 
L 326.737128 -73.157261 
L 328.051998 -75.447982 
L 328.051998 -83.158016 
L 328.051998 -83.158016 
L 326.737128 -79.559114 
L 325.422259 -78.822975 
L 324.107389 -78.189078 
L 322.792519 -80.97107 
L 321.47765 -79.988529 
L 320.16278 -82.850781 
L 318.847911 -79.907758 
L 317.533041 -81.828365 
L 316.218172 -82.933085 
L 314.903302 -76.430524 
L 313.588432 -82.360532 
L 312.273563 -84.241777 
L 310.958693 -82.770521 
L 309.643824 -80.95011 
L 308.328954 -80.049874 
L 307.014085 -79.783535 
L 305.699215 -84.20088 
L 304.384345 -79.926673 
L 303.069476 -78.843935 
L 301.754606 -81.174019 
L 300.439737 -78.353687 
L 299.124867 -79.906736 
L 297.809997 -80.295253 
L 296.495128 -78.741182 
L 295.180258 -79.602056 
L 293.865389 -79.191045 
L 292.550519 -76.450972 
L 291.23565 -79.784557 
L 289.92078 -77.841968 
L 288.60591 -80.11173 
L 287.291041 -79.640396 
L 285.976171 -82.217394 
L 284.661302 -83.669735 
L 283.346432 -76.47142 
L 282.031563 -78.925728 
L 280.716693 -80.765565 
L 279.401823 -78.966625 
L 278.086954 -80.520696 
L 276.772084 -80.13729 
L 275.457215 -81.010944 
L 274.142345 -79.436936 
L 272.827476 -78.904257 
L 271.512606 -78.107285 
L 270.197736 -77.413065 
L 268.882867 -76.943265 
L 267.567997 -80.45884 
L 266.253128 -81.296709 
L 264.938258 -81.543623 
L 263.623389 -80.131667 
L 262.308519 -79.620971 
L 260.993649 -79.23143 
L 259.67878 -78.803038 
L 258.36391 -80.356087 
L 257.049041 -79.520263 
L 255.734171 -81.523174 
L 254.419302 -79.171108 
L 253.104432 -80.172052 
L 251.789562 -83.077246 
L 250.474693 -80.601978 
L 249.159823 -76.389116 
L 247.844954 -77.697807 
L 246.530084 -79.803983 
L 245.215214 -76.798593 
L 243.900345 -78.290808 
L 242.585475 -80.235442 
L 241.270606 -78.373624 
L 239.955736 -81.542089 
L 238.640867 -78.598555 
L 237.325997 -80.601978 
L 236.011127 -83.791914 
L 234.696258 -78.352153 
L 233.381388 -80.09077 
L 232.066519 -81.647909 
L 230.751649 -82.38047 
L 229.43678 -78.475354 
L 228.12191 -79.5995 
L 226.80704 -78.76163 
L 225.492171 -78.393561 
L 224.177301 -81.052863 
L 222.862432 -79.804494 
L 221.547562 -81.624393 
L 220.232693 -79.02797 
L 218.917823 -79.600011 
L 217.602953 -80.151604 
L 216.288084 -77.923761 
L 214.973214 -82.299187 
L 213.658345 -79.907247 
L 212.343475 -84.588887 
L 211.028606 -82.871229 
L 209.713736 -76.920772 
L 208.398866 -80.253846 
L 207.083997 -78.986562 
L 205.769127 -80.478777 
L 204.454258 -82.053808 
L 203.139388 -79.048418 
L 201.824519 -81.194468 
L 200.509649 -83.975949 
L 199.194779 -78.986051 
L 197.87991 -83.894667 
L 196.56504 -81.460296 
L 195.250171 -80.296276 
L 193.935301 -80.502293 
L 192.620431 -80.193012 
L 191.305562 -76.880897 
L 189.990692 -77.473387 
L 188.675823 -81.378502 
L 187.360953 -79.37508 
L 186.046084 -80.336661 
L 184.731214 -80.379092 
L 183.416344 -78.373113 
L 182.101475 -79.763086 
L 180.786605 -82.728602 
L 179.471736 -78.986562 
L 178.156866 -79.191045 
L 176.841997 -78.087859 
L 175.527127 -79.967569 
L 174.212257 -82.319636 
L 172.897388 -75.898356 
L 171.582518 -82.074767 
L 170.267649 -80.193012 
L 168.952779 -81.829388 
L 167.63791 -81.379525 
L 166.32304 -77.882865 
L 165.00817 -82.954045 
L 163.693301 -80.254357 
L 162.378431 -77.964147 
L 161.063562 -78.393561 
L 159.748692 -78.598044 
L 158.433823 -80.826909 
L 157.118953 -77.760686 
L 155.804083 -79.74366 
L 154.489214 -79.129189 
L 153.174344 -79.660845 
L 151.859475 -81.892777 
L 150.544605 -77.657933 
L 149.229736 -76.900323 
L 147.914866 -78.55817 
L 146.599996 -81.685227 
L 145.285127 -79.763086 
L 143.970257 -79.988018 
L 142.655388 -78.353176 
L 141.340518 -80.868317 
L 140.025648 -80.396984 
L 138.710779 -78.679837 
L 137.395909 -83.669224 
L 136.08104 -76.655455 
L 134.76617 -83.709609 
L 133.451301 -76.7168 
L 132.136431 -80.131667 
L 130.821561 -78.292853 
L 129.506692 -80.315191 
L 128.191822 -77.759663 
L 126.876953 -81.358054 
L 125.562083 -79.681804 
L 124.247214 -83.361988 
L 122.932344 -81.257857 
L 121.617474 -77.493324 
L 120.302605 -81.460807 
L 118.987735 -78.863361 
L 117.672866 -82.115664 
L 116.357996 -77.227496 
L 115.043127 -79.744172 
L 113.728257 -80.561081 
L 112.413387 -79.151171 
L 111.098518 -77.943698 
L 109.783648 -78.536188 
L 108.468779 -80.070322 
L 107.153909 -76.83949 
L 105.83904 -79.191045 
L 104.52417 -80.255379 
L 103.2093 -81.522152 
L 101.894431 -78.764698 
L 100.579561 -78.004532 
L 99.264692 -81.788491 
L 97.949822 -79.517707 
L 96.634953 -84.202925 
L 95.320083 -81.808428 
L 94.005213 -82.851292 
L 92.690344 -80.500248 
L 91.375474 -78.39305 
L 90.060605 -76.920772 
L 88.745735 -81.010944 
L 87.430865 -80.43788 
L 86.115996 -80.131667 
L 84.801126 -82.526164 
L 83.486257 -81.194468 
L 82.171387 -80.519674 
L 80.856518 -79.437447 
L 79.541648 -80.131667 
L 78.226778 -83.035838 
L 76.911909 -78.617981 
L 75.597039 -75.162217 
L 74.28217 -82.38047 
L 72.9673 -81.869773 
L 71.652431 -81.749128 
L 70.337561 -79.109252 
L 69.022691 -80.581019 
L 67.707822 -79.211493 
L 66.392952 -66.104129 
z
" style="stroke: #2d1e3e; stroke-opacity: 0.2"/>
    </defs>
    <g clip-path="url(#pd1ad8d12b4)">
     <use xlink:href="#m504cbe104f" x="0" y="362.097812" style="fill: #2d1e3e; fill-opacity: 0.2; stroke: #2d1e3e; stroke-opacity: 0.2"/>
    </g>
   </g>
   <g id="line2d_11">
    <path d="M 66.392952 302.414963 
L 69.022691 289.430289 
L 70.337561 287.405906 
L 71.652431 286.956043 
L 72.9673 283.786556 
L 74.28217 286.363043 
L 75.597039 283.807004 
L 76.911909 284.563592 
L 78.226778 286.99694 
L 79.541648 287.140078 
L 80.856518 281.189621 
L 82.171387 283.827453 
L 83.486257 287.037837 
L 84.801126 286.199456 
L 86.115996 285.872283 
L 87.430865 287.589941 
L 88.745735 283.602521 
L 90.060605 286.894699 
L 91.375474 286.833354 
L 92.690344 287.078733 
L 94.005213 283.070865 
L 95.320083 284.563592 
L 96.634953 285.586007 
L 97.949822 285.892732 
L 99.264692 284.58404 
L 100.579561 285.729145 
L 101.894431 287.303665 
L 103.2093 280.985138 
L 104.52417 285.074799 
L 105.83904 286.03587 
L 107.153909 284.175074 
L 108.468779 288.346528 
L 109.783648 281.946208 
L 111.098518 287.099182 
L 112.413387 285.463317 
L 113.728257 286.485732 
L 115.043127 287.099182 
L 116.357996 284.297764 
L 117.672866 285.054351 
L 118.987735 287.467251 
L 120.302605 286.833354 
L 121.617474 283.888798 
L 122.932344 284.113729 
L 124.247214 286.15856 
L 125.562083 283.643418 
L 126.876953 285.626904 
L 128.191822 286.567526 
L 129.506692 286.056318 
L 130.821561 282.907279 
L 132.136431 285.095248 
L 133.451301 287.95801 
L 134.76617 283.807004 
L 136.08104 286.117663 
L 137.395909 285.892732 
L 138.710779 285.054351 
L 140.025648 285.831387 
L 142.655388 283.357142 
L 143.970257 284.747626 
L 145.285127 285.442869 
L 146.599996 284.481798 
L 147.914866 286.567526 
L 149.229736 286.363043 
L 151.859475 284.072832 
L 153.174344 286.219904 
L 154.489214 287.508148 
L 155.804083 286.403939 
L 157.118953 283.050417 
L 158.433823 285.463317 
L 159.748692 284.236419 
L 161.063562 284.624937 
L 162.378431 284.82942 
L 163.693301 286.87425 
L 165.00817 286.219904 
L 166.32304 286.894699 
L 167.63791 285.91318 
L 168.952779 284.645385 
L 170.267649 288.223838 
L 171.582518 289.328047 
L 172.897388 282.641451 
L 174.212257 286.99694 
L 175.527127 286.424388 
L 176.841997 287.017388 
L 178.156866 286.99694 
L 179.471736 284.236419 
L 180.786605 287.814872 
L 182.101475 284.645385 
L 183.416344 288.796391 
L 184.731214 284.563592 
L 186.046084 285.42242 
L 187.360953 281.414552 
L 188.675823 286.690215 
L 189.990692 287.978459 
L 191.305562 282.396071 
L 192.620431 283.970591 
L 193.935301 283.275348 
L 195.250171 287.078733 
L 196.56504 289.40984 
L 197.87991 284.277315 
L 199.194779 286.506181 
L 200.509649 287.467251 
L 201.824519 285.279282 
L 203.139388 286.669767 
L 204.454258 284.052384 
L 205.769127 287.078733 
L 208.398866 285.074799 
L 209.713736 284.686281 
L 211.028606 287.405906 
L 212.343475 286.649319 
L 213.658345 284.481798 
L 216.288084 284.890765 
L 217.602953 287.487699 
L 218.917823 286.363043 
L 220.232693 283.459383 
L 221.547562 289.144012 
L 222.862432 284.972558 
L 224.177301 286.628871 
L 225.492171 286.567526 
L 226.80704 285.91318 
L 228.12191 282.191588 
L 229.43678 286.608422 
L 230.751649 285.258834 
L 232.066519 284.82942 
L 233.381388 286.260801 
L 234.696258 284.890765 
L 236.011127 285.831387 
L 237.325997 287.671734 
L 238.640867 285.361076 
L 239.955736 285.647352 
L 241.270606 285.79049 
L 242.585475 285.320179 
L 243.900345 285.586007 
L 245.215214 285.729145 
L 246.530084 284.58404 
L 247.844954 286.547077 
L 249.159823 281.843967 
L 250.474693 284.993006 
L 251.789562 284.21597 
L 253.104432 286.915147 
L 254.419302 287.426355 
L 255.734171 285.136144 
L 257.049041 284.031936 
L 258.36391 287.160527 
L 260.993649 282.314278 
L 262.308519 285.238386 
L 263.623389 284.972558 
L 266.253128 285.79049 
L 267.567997 285.851835 
L 268.882867 284.33866 
L 270.197736 281.230518 
L 271.512606 284.890765 
L 272.827476 287.508148 
L 274.142345 284.440902 
L 275.457215 285.647352 
L 276.772084 286.301698 
L 278.086954 285.851835 
L 279.401823 286.547077 
L 280.716693 282.723244 
L 282.031563 284.011487 
L 283.346432 284.297764 
L 284.661302 284.236419 
L 285.976171 284.890765 
L 287.291041 287.324113 
L 288.60591 284.563592 
L 289.92078 285.994973 
L 291.23565 286.301698 
L 292.550519 283.704763 
L 293.865389 286.342594 
L 295.180258 283.582073 
L 296.495128 284.808971 
L 297.809997 286.240353 
L 299.124867 285.299731 
L 300.439737 286.956043 
L 301.754606 288.223838 
L 303.069476 284.911213 
L 304.384345 286.363043 
L 305.699215 287.221871 
L 307.014085 284.154625 
L 308.328954 284.318212 
L 309.643824 288.060252 
L 310.958693 284.400005 
L 312.273563 281.230518 
L 313.588432 286.87425 
L 314.903302 286.03587 
L 316.218172 286.99694 
L 317.533041 285.6678 
L 318.847911 283.602521 
L 320.16278 287.896666 
L 321.47765 285.708697 
L 322.792519 282.089347 
L 324.107389 286.628871 
L 325.422259 286.976492 
L 326.737128 284.788523 
L 328.051998 289.021322 
L 328.051998 289.021322 
" clip-path="url(#pd1ad8d12b4)" style="fill: none; stroke: #edd1cb; stroke-width: 1.5; stroke-linecap: round"/>
   </g>
   <g id="line2d_12">
    <path d="M 66.392952 300.308788 
L 67.707822 291.372878 
L 69.022691 287.733079 
L 71.652431 286.99694 
L 72.9673 285.258834 
L 74.28217 287.753527 
L 75.597039 287.651286 
L 76.911909 283.029969 
L 78.226778 286.669767 
L 79.541648 285.6678 
L 80.856518 285.851835 
L 82.171387 283.643418 
L 83.486257 283.827453 
L 84.801126 283.111762 
L 86.115996 286.587974 
L 87.430865 287.24232 
L 88.745735 286.956043 
L 90.060605 284.686281 
L 91.375474 281.762174 
L 92.690344 283.868349 
L 94.005213 284.154625 
L 95.320083 284.031936 
L 96.634953 284.154625 
L 97.949822 282.743692 
L 99.264692 284.604488 
L 100.579561 283.00952 
L 101.894431 283.991039 
L 103.2093 285.340627 
L 104.52417 284.931661 
L 105.83904 285.6678 
L 107.153909 286.240353 
L 108.468779 283.868349 
L 109.783648 288.69415 
L 111.098518 285.810938 
L 112.413387 283.991039 
L 113.728257 286.219904 
L 115.043127 284.440902 
L 116.357996 282.375623 
L 117.672866 287.058285 
L 118.987735 284.543143 
L 121.617474 286.219904 
L 122.932344 283.950142 
L 124.247214 286.87425 
L 125.562083 286.465284 
L 126.876953 285.054351 
L 128.191822 288.735046 
L 129.506692 286.322146 
L 130.821561 285.586007 
L 132.136431 286.567526 
L 133.451301 282.784589 
L 134.76617 286.465284 
L 136.08104 286.342594 
L 137.395909 285.91318 
L 138.710779 287.446803 
L 140.025648 282.907279 
L 141.340518 285.872283 
L 142.655388 281.68038 
L 143.970257 281.128276 
L 145.285127 283.62297 
L 146.599996 287.283216 
L 147.914866 283.62297 
L 149.229736 285.463317 
L 150.544605 285.647352 
L 151.859475 282.028002 
L 153.174344 286.587974 
L 154.489214 283.663866 
L 155.804083 288.837288 
L 157.118953 287.95801 
L 158.433823 283.029969 
L 159.748692 285.810938 
L 161.063562 285.115696 
L 162.378431 286.097215 
L 163.693301 283.868349 
L 165.00817 284.440902 
L 166.32304 284.870316 
L 167.63791 288.796391 
L 168.952779 283.070865 
L 170.267649 281.537242 
L 171.582518 284.420453 
L 172.897388 284.911213 
L 174.212257 284.624937 
L 175.527127 285.626904 
L 176.841997 286.117663 
L 178.156866 286.179008 
L 179.471736 282.314278 
L 180.786605 286.75156 
L 182.101475 285.892732 
L 183.416344 283.50028 
L 184.731214 284.236419 
L 186.046084 285.524662 
L 187.360953 285.892732 
L 188.675823 284.440902 
L 189.990692 283.541176 
L 191.305562 286.117663 
L 192.620431 283.459383 
L 193.935301 285.136144 
L 195.250171 286.301698 
L 196.56504 286.465284 
L 197.87991 284.46135 
L 199.194779 282.723244 
L 200.509649 283.602521 
L 201.824519 286.219904 
L 203.139388 286.485732 
L 204.454258 286.587974 
L 207.083997 284.788523 
L 208.398866 287.487699 
L 209.713736 282.191588 
L 211.028606 285.115696 
L 212.343475 283.929694 
L 213.658345 283.561625 
L 214.973214 283.766108 
L 216.288084 282.089347 
L 217.602953 285.42242 
L 218.917823 281.68038 
L 220.232693 283.684314 
L 221.547562 286.956043 
L 222.862432 283.663866 
L 224.177301 286.608422 
L 225.492171 287.24232 
L 226.80704 285.279282 
L 228.12191 285.91318 
L 229.43678 284.011487 
L 230.751649 288.101149 
L 232.066519 284.33866 
L 233.381388 285.524662 
L 234.696258 283.193555 
L 236.011127 287.814872 
L 238.640867 286.301698 
L 239.955736 284.890765 
L 241.270606 284.175074 
L 242.585475 281.987105 
L 243.900345 283.991039 
L 245.215214 282.743692 
L 246.530084 287.876217 
L 247.844954 284.072832 
L 249.159823 285.054351 
L 250.474693 285.688248 
L 251.789562 282.88683 
L 253.104432 285.095248 
L 254.419302 287.058285 
L 255.734171 286.608422 
L 257.049041 284.768075 
L 258.36391 285.524662 
L 259.67878 286.690215 
L 260.993649 282.600554 
L 262.308519 285.974525 
L 263.623389 283.214003 
L 266.253128 284.788523 
L 267.567997 282.109795 
L 268.882867 288.182942 
L 270.197736 286.260801 
L 271.512606 284.911213 
L 272.827476 285.606455 
L 274.142345 287.201423 
L 275.457215 285.361076 
L 276.772084 282.948175 
L 278.086954 283.684314 
L 279.401823 282.948175 
L 280.716693 286.772009 
L 282.031563 284.645385 
L 283.346432 283.193555 
L 284.661302 284.747626 
L 285.976171 286.587974 
L 287.291041 284.911213 
L 288.60591 285.810938 
L 289.92078 282.784589 
L 291.23565 285.831387 
L 292.550519 281.557691 
L 293.865389 285.238386 
L 295.180258 284.849868 
L 296.495128 286.935595 
L 297.809997 284.440902 
L 299.124867 287.24232 
L 300.439737 283.847901 
L 301.754606 287.835321 
L 303.069476 284.318212 
L 304.384345 286.056318 
L 305.699215 286.199456 
L 307.014085 283.275348 
L 308.328954 282.805037 
L 309.643824 285.483765 
L 310.958693 286.383491 
L 312.273563 281.250966 
L 313.588432 285.013454 
L 314.903302 283.316245 
L 316.218172 285.279282 
L 317.533041 282.641451 
L 318.847911 284.911213 
L 320.16278 285.565559 
L 321.47765 282.436968 
L 322.792519 282.232485 
L 324.107389 284.543143 
L 325.422259 286.219904 
L 326.737128 283.991039 
L 328.051998 288.264735 
L 328.051998 288.264735 
" clip-path="url(#pd1ad8d12b4)" style="fill: none; stroke: #d499a7; stroke-width: 1.5; stroke-linecap: round"/>
   </g>
   <g id="line2d_13">
    <path d="M 66.392952 302.946619 
L 67.707822 293.724433 
L 69.022691 292.06812 
L 70.337561 289.430289 
L 71.652431 288.591908 
L 72.9673 288.32608 
L 74.28217 284.440902 
L 75.597039 286.935595 
L 76.911909 288.57146 
L 78.226778 285.197489 
L 79.541648 285.463317 
L 80.856518 289.082667 
L 82.171387 287.037837 
L 83.486257 284.440902 
L 84.801126 286.240353 
L 86.115996 284.665833 
L 87.430865 285.013454 
L 88.745735 286.669767 
L 90.060605 287.610389 
L 91.375474 287.896666 
L 92.690344 286.669767 
L 94.005213 282.089347 
L 95.320083 283.663866 
L 96.634953 286.444836 
L 97.949822 283.13221 
L 99.264692 286.772009 
L 100.579561 284.686281 
L 101.894431 286.465284 
L 103.2093 285.504214 
L 104.52417 281.987105 
L 105.83904 287.876217 
L 108.468779 282.989072 
L 109.783648 285.177041 
L 111.098518 281.455449 
L 112.413387 285.320179 
L 113.728257 283.643418 
L 115.043127 285.933628 
L 116.357996 283.152658 
L 117.672866 289.491633 
L 118.987735 283.234452 
L 120.302605 286.772009 
L 121.617474 285.095248 
L 122.932344 285.892732 
L 124.247214 283.847901 
L 125.562083 286.097215 
L 126.876953 287.630838 
L 128.191822 285.606455 
L 129.506692 285.136144 
L 130.821561 284.277315 
L 132.136431 284.400005 
L 133.451301 283.827453 
L 134.76617 286.731112 
L 136.08104 284.481798 
L 137.395909 285.524662 
L 138.710779 283.37759 
L 140.025648 285.361076 
L 141.340518 287.917114 
L 142.655388 284.440902 
L 143.970257 285.872283 
L 145.285127 285.074799 
L 146.599996 284.686281 
L 147.914866 286.097215 
L 149.229736 283.091314 
L 150.544605 286.383491 
L 151.859475 282.989072 
L 154.489214 283.582073 
L 155.804083 287.671734 
L 157.118953 285.483765 
L 158.433823 284.011487 
L 159.748692 284.890765 
L 161.063562 284.420453 
L 162.378431 285.279282 
L 163.693301 283.704763 
L 165.00817 285.851835 
L 166.32304 288.346528 
L 167.63791 284.870316 
L 168.952779 282.621003 
L 170.267649 285.42242 
L 171.582518 284.70673 
L 172.897388 285.831387 
L 174.212257 281.516794 
L 175.527127 283.50028 
L 176.841997 283.929694 
L 178.156866 283.786556 
L 179.471736 285.831387 
L 180.786605 284.277315 
L 182.101475 281.966657 
L 183.416344 288.019355 
L 184.731214 281.762174 
L 186.046084 283.663866 
L 187.360953 281.946208 
L 188.675823 284.788523 
L 189.990692 286.076766 
L 191.305562 289.041771 
L 192.620431 286.301698 
L 193.935301 285.79049 
L 195.250171 285.831387 
L 196.56504 288.980426 
L 197.87991 285.6678 
L 199.194779 284.21597 
L 200.509649 284.318212 
L 201.824519 282.641451 
L 203.139388 283.827453 
L 204.454258 286.342594 
L 205.769127 283.00952 
L 207.083997 283.725211 
L 208.398866 283.991039 
L 209.713736 284.686281 
L 211.028606 283.847901 
L 212.343475 284.911213 
L 213.658345 283.479831 
L 214.973214 283.725211 
L 216.288084 288.223838 
L 217.602953 286.424388 
L 218.917823 286.608422 
L 220.232693 288.121597 
L 221.547562 284.768075 
L 222.862432 283.929694 
L 224.177301 288.346528 
L 225.492171 288.32608 
L 226.80704 284.747626 
L 228.12191 287.160527 
L 229.43678 287.753527 
L 230.751649 283.725211 
L 232.066519 283.909246 
L 233.381388 283.888798 
L 234.696258 286.383491 
L 236.011127 282.764141 
L 237.325997 285.504214 
L 238.640867 285.258834 
L 239.955736 281.80307 
L 241.270606 285.54511 
L 242.585475 284.297764 
L 243.900345 284.747626 
L 245.215214 285.954076 
L 246.530084 283.029969 
L 247.844954 287.262768 
L 249.159823 284.931661 
L 250.474693 281.107828 
L 251.789562 287.324113 
L 253.104432 287.712631 
L 254.419302 287.385458 
L 255.734171 286.710664 
L 257.049041 283.929694 
L 258.36391 285.954076 
L 259.67878 286.485732 
L 262.308519 279.942274 
L 263.623389 285.095248 
L 264.938258 287.589941 
L 266.253128 285.381524 
L 267.567997 282.600554 
L 268.882867 286.260801 
L 270.197736 284.727178 
L 271.512606 285.156593 
L 272.827476 285.91318 
L 274.142345 284.563592 
L 275.457215 282.621003 
L 276.772084 282.130243 
L 278.086954 286.240353 
L 279.401823 285.54511 
L 280.716693 287.262768 
L 282.031563 284.58404 
L 283.346432 286.322146 
L 284.661302 285.647352 
L 285.976171 286.976492 
L 287.291041 285.340627 
L 288.60591 284.093281 
L 289.92078 286.281249 
L 291.23565 287.385458 
L 292.550519 282.477864 
L 293.865389 284.624937 
L 295.180258 287.651286 
L 296.495128 285.810938 
L 297.809997 283.459383 
L 299.124867 281.987105 
L 300.439737 286.444836 
L 301.754606 286.587974 
L 303.069476 285.340627 
L 304.384345 286.976492 
L 305.699215 286.853802 
L 307.014085 286.526629 
L 308.328954 282.007553 
L 309.643824 284.727178 
L 310.958693 282.232485 
L 312.273563 286.219904 
L 313.588432 286.608422 
L 314.903302 284.052384 
L 316.218172 287.058285 
L 317.533041 283.929694 
L 318.847911 286.219904 
L 320.16278 287.037837 
L 321.47765 282.866382 
L 322.792519 285.299731 
L 324.107389 284.747626 
L 325.422259 286.03587 
L 326.737128 281.92576 
L 328.051998 287.569493 
L 328.051998 287.569493 
" clip-path="url(#pd1ad8d12b4)" style="fill: none; stroke: #a9678f; stroke-width: 1.5; stroke-linecap: round"/>
   </g>
   <g id="line2d_14">
    <path d="M 66.392952 300.983582 
L 67.707822 291.577361 
L 69.022691 286.690215 
L 71.652431 247.470364 
L 72.9673 238.166384 
L 74.28217 238.493557 
L 75.597039 243.278461 
L 76.911909 245.425533 
L 79.541648 221.869084 
L 80.856518 224.629605 
L 82.171387 226.756229 
L 83.486257 224.384226 
L 84.801126 216.900145 
L 86.115996 213.09676 
L 87.430865 208.945754 
L 88.745735 224.281984 
L 90.060605 212.974071 
L 91.375474 217.288663 
L 92.690344 211.317758 
L 94.005213 218.127044 
L 95.320083 219.86515 
L 96.634953 214.160072 
L 97.949822 207.596166 
L 99.264692 205.244611 
L 100.579561 204.447127 
L 101.894431 210.438481 
L 103.2093 206.042095 
L 104.52417 213.076312 
L 105.83904 206.328371 
L 107.153909 203.710988 
L 108.468779 205.61268 
L 109.783648 215.018901 
L 111.098518 200.623293 
L 112.413387 205.85806 
L 113.728257 209.047996 
L 115.043127 207.841546 
L 116.357996 202.443193 
L 117.672866 210.274894 
L 118.987735 197.331116 
L 120.302605 202.627228 
L 121.617474 204.7743 
L 122.932344 199.764465 
L 124.247214 191.932763 
L 125.562083 206.369268 
L 126.876953 204.40623 
L 128.191822 202.156916 
L 129.506692 216.675214 
L 130.821561 214.385004 
L 132.136431 198.353531 
L 133.451301 178.477778 
L 134.76617 185.675581 
L 136.08104 176.146671 
L 137.395909 161.505683 
L 138.710779 153.57174 
L 140.025648 152.672015 
L 141.340518 157.640953 
L 142.655388 157.375125 
L 143.970257 157.80454 
L 145.285127 168.458107 
L 146.599996 156.516296 
L 147.914866 152.222152 
L 149.229736 151.710944 
L 150.544605 158.704265 
L 151.859475 169.766799 
L 153.174344 149.522976 
L 154.489214 149.522976 
L 155.804083 147.78487 
L 157.118953 147.78487 
L 158.433823 159.358611 
L 159.748692 154.348776 
L 161.063562 151.710944 
L 162.378431 157.600057 
L 163.693301 159.563094 
L 166.32304 149.543424 
L 167.63791 153.612637 
L 168.952779 149.543424 
L 170.267649 162.037339 
L 171.582518 155.207605 
L 172.897388 157.007056 
L 174.212257 161.567028 
L 175.527127 152.303945 
L 176.841997 152.569773 
L 178.156866 150.402253 
L 179.471736 150.402253 
L 180.786605 164.429791 
L 182.101475 149.8297 
L 183.416344 149.8297 
L 184.731214 152.999188 
L 186.046084 155.187156 
L 187.360953 153.44905 
L 188.675823 157.293332 
L 189.990692 160.565061 
L 191.305562 160.646854 
L 192.620431 153.019636 
L 193.935301 154.737294 
L 195.250171 149.727459 
L 196.56504 151.465565 
L 197.87991 155.084915 
L 199.194779 168.212728 
L 200.509649 161.219407 
L 201.824519 158.64292 
L 203.139388 153.878465 
L 204.454258 154.532811 
L 205.769127 158.949645 
L 207.083997 147.78487 
L 208.398866 152.201704 
L 209.713736 152.794705 
L 211.028606 162.814375 
L 212.343475 147.78487 
L 214.973214 147.78487 
L 216.288084 161.137614 
L 217.602953 165.268172 
L 218.917823 162.078236 
L 220.232693 157.824988 
L 221.547562 159.276818 
L 222.862432 150.115976 
L 224.177301 159.358611 
L 225.492171 150.933909 
L 226.80704 151.547358 
L 228.12191 153.776223 
L 229.43678 147.559938 
L 230.751649 130.87412 
L 232.066519 132.182812 
L 233.381388 128.072702 
L 234.696258 117.030617 
L 236.011127 88.464332 
L 237.325997 77.176867 
L 238.640867 78.669594 
L 239.955736 48.978653 
L 241.270606 45.563785 
L 242.585475 49.673895 
L 243.900345 46.688442 
L 245.215214 38.50912 
L 246.530084 41.780849 
L 247.844954 74.907105 
L 249.159823 53.518177 
L 250.474693 46.892925 
L 251.789562 38.50912 
L 253.104432 38.50912 
L 254.419302 46.933822 
L 255.734171 56.401388 
L 257.049041 41.923987 
L 258.36391 46.933822 
L 259.67878 63.353812 
L 260.993649 46.933822 
L 262.308519 44.480025 
L 263.623389 46.197683 
L 264.938258 38.427326 
L 266.253128 38.50912 
L 267.567997 42.864609 
L 268.882867 38.50912 
L 270.197736 46.524856 
L 271.512606 38.50912 
L 272.827476 53.518177 
L 274.142345 70.183546 
L 275.457215 54.765523 
L 276.772084 53.518177 
L 278.086954 38.50912 
L 279.401823 38.50912 
L 280.716693 53.518177 
L 282.031563 38.50912 
L 283.346432 46.524856 
L 284.661302 57.566941 
L 285.976171 38.50912 
L 287.291041 46.136338 
L 288.60591 46.136338 
L 289.92078 61.677051 
L 291.23565 60.879567 
L 292.550519 64.478469 
L 293.865389 56.667216 
L 295.180258 50.205551 
L 296.495128 60.470601 
L 297.809997 45.052578 
L 299.124867 52.291278 
L 300.439737 56.626319 
L 303.069476 49.878378 
L 304.384345 41.780849 
L 305.699215 61.677051 
L 307.014085 50.225999 
L 308.328954 37.609394 
L 309.643824 38.50912 
L 310.958693 45.74782 
L 312.273563 45.74782 
L 313.588432 46.279476 
L 314.903302 46.074993 
L 316.218172 41.923987 
L 317.533041 42.394298 
L 320.16278 42.394298 
L 321.47765 51.882312 
L 322.792519 51.882312 
L 324.107389 53.620418 
L 325.422259 44.929888 
L 326.737128 47.281443 
L 328.051998 42.578333 
L 328.051998 42.578333 
" clip-path="url(#pd1ad8d12b4)" style="fill: none; stroke: #6c3f70; stroke-width: 1.5; stroke-linecap: round"/>
   </g>
   <g id="line2d_15">
    <path d="M 66.392952 300.186098 
L 67.707822 285.565559 
L 69.022691 284.236419 
L 70.337561 285.524662 
L 71.652431 283.357142 
L 72.9673 283.970591 
L 74.28217 282.723244 
L 75.597039 289.798358 
L 76.911909 286.812905 
L 78.226778 283.357142 
L 79.541648 286.15856 
L 80.856518 286.076766 
L 84.801126 282.702796 
L 86.115996 284.870316 
L 87.430865 284.849868 
L 88.745735 284.645385 
L 90.060605 288.101149 
L 91.375474 286.097215 
L 92.690344 285.279282 
L 94.005213 282.88683 
L 95.320083 284.33866 
L 96.634953 281.905312 
L 97.949822 285.933628 
L 99.264692 284.21597 
L 100.579561 286.853802 
L 101.894431 286.812905 
L 103.2093 283.868349 
L 104.52417 285.217937 
L 105.83904 285.892732 
L 107.153909 288.591908 
L 108.468779 285.647352 
L 109.783648 286.219904 
L 111.098518 287.180975 
L 112.413387 286.87425 
L 113.728257 284.768075 
L 115.043127 285.401972 
L 116.357996 287.467251 
L 117.672866 284.175074 
L 118.987735 286.15856 
L 120.302605 283.868349 
L 121.617474 286.833354 
L 122.932344 284.645385 
L 124.247214 282.907279 
L 125.562083 285.647352 
L 126.876953 284.236419 
L 128.191822 287.324113 
L 129.506692 285.054351 
L 130.821561 286.587974 
L 132.136431 285.115696 
L 133.451301 288.285183 
L 134.76617 281.864415 
L 136.08104 288.407873 
L 137.395909 282.764141 
L 138.710779 286.424388 
L 140.025648 284.82942 
L 141.340518 284.072832 
L 142.655388 286.772009 
L 143.970257 284.747626 
L 145.285127 285.115696 
L 146.599996 284.011487 
L 147.914866 286.219904 
L 149.229736 287.855769 
L 150.544605 287.487699 
L 151.859475 283.991039 
L 153.174344 286.281249 
L 154.489214 286.138111 
L 155.804083 285.361076 
L 157.118953 287.589941 
L 158.433823 284.256867 
L 159.748692 286.812905 
L 161.063562 287.324113 
L 162.378431 286.669767 
L 163.693301 284.256867 
L 165.00817 282.334726 
L 166.32304 287.201423 
L 167.63791 284.052384 
L 168.952779 283.295797 
L 170.267649 284.46135 
L 171.582518 283.173107 
L 172.897388 288.919081 
L 174.212257 282.88683 
L 176.841997 286.956043 
L 178.156866 286.097215 
L 179.471736 286.076766 
L 180.786605 283.295797 
L 182.101475 285.688248 
L 183.416344 287.201423 
L 184.731214 285.42242 
L 186.046084 285.401972 
L 187.360953 286.015421 
L 188.675823 284.481798 
L 189.990692 287.589941 
L 191.305562 288.387425 
L 192.620431 284.502247 
L 193.935301 284.768075 
L 195.250171 286.056318 
L 196.56504 283.970591 
L 197.87991 282.273381 
L 199.194779 286.260801 
L 200.509649 282.948175 
L 201.824519 284.665833 
L 203.139388 285.851835 
L 204.454258 283.459383 
L 205.769127 284.972558 
L 207.083997 285.770042 
L 208.398866 285.586007 
L 209.713736 288.162494 
L 211.028606 283.214003 
L 212.343475 282.29383 
L 213.658345 285.463317 
L 214.973214 282.907279 
L 216.288084 287.221871 
L 217.602953 285.524662 
L 218.917823 284.931661 
L 220.232693 286.015421 
L 221.547562 284.686281 
L 222.862432 285.483765 
L 224.177301 285.074799 
L 225.492171 286.915147 
L 226.80704 286.444836 
L 228.12191 285.442869 
L 229.43678 286.567526 
L 230.751649 283.316245 
L 232.066519 284.481798 
L 233.381388 285.115696 
L 234.696258 286.792457 
L 236.011127 281.250966 
L 237.325997 285.463317 
L 238.640867 286.547077 
L 239.955736 283.847901 
L 241.270606 286.935595 
L 242.585475 285.810938 
L 243.900345 286.587974 
L 245.215214 288.101149 
L 246.530084 286.097215 
L 247.844954 287.794424 
L 249.159823 288.755494 
L 250.474693 284.563592 
L 251.789562 283.582073 
L 253.104432 285.115696 
L 254.419302 285.729145 
L 255.734171 284.420453 
L 257.049041 286.301698 
L 258.36391 284.665833 
L 259.67878 287.180975 
L 260.993649 286.322146 
L 262.308519 285.606455 
L 263.623389 285.320179 
L 264.938258 283.766108 
L 266.253128 284.46135 
L 267.567997 284.870316 
L 268.882867 288.264735 
L 270.197736 287.508148 
L 272.827476 286.75156 
L 274.142345 285.994973 
L 275.457215 284.420453 
L 276.772084 285.095248 
L 278.086954 284.318212 
L 279.401823 287.037837 
L 280.716693 284.952109 
L 282.031563 286.076766 
L 283.346432 287.937562 
L 284.661302 282.88683 
L 285.976171 283.070865 
L 287.291041 285.42242 
L 288.60591 284.747626 
L 289.92078 286.915147 
L 291.23565 285.6678 
L 292.550519 289.082667 
L 293.865389 285.6678 
L 295.180258 285.442869 
L 296.495128 286.853802 
L 297.809997 285.463317 
L 299.124867 285.892732 
L 300.439737 286.608422 
L 301.754606 283.888798 
L 303.069476 285.851835 
L 304.384345 286.240353 
L 305.699215 282.212036 
L 307.014085 285.606455 
L 308.328954 285.115696 
L 309.643824 284.113729 
L 310.958693 282.355175 
L 312.273563 281.659932 
L 313.588432 283.602521 
L 314.903302 287.773976 
L 316.218172 282.416519 
L 317.533041 283.725211 
L 318.847911 285.626904 
L 320.16278 283.13221 
L 321.47765 284.993006 
L 322.792519 285.136144 
L 324.107389 286.608422 
L 325.422259 285.91318 
L 326.737128 285.79049 
L 328.051998 282.702796 
L 328.051998 282.702796 
" clip-path="url(#pd1ad8d12b4)" style="fill: none; stroke: #2d1e3e; stroke-width: 1.5; stroke-linecap: round"/>
   </g>
   <g id="line2d_16"/>
   <g id="line2d_17"/>
   <g id="line2d_18"/>
   <g id="line2d_19"/>
   <g id="line2d_20"/>
   <g id="patch_3">
    <path d="M 53.31 319.138125 
L 53.31 22.318125 
" style="fill: none; stroke: #ffffff; stroke-width: 1.25; stroke-linejoin: miter; stroke-linecap: square"/>
   </g>
   <g id="patch_4">
    <path d="M 53.31 319.138125 
L 341.13495 319.138125 
" style="fill: none; stroke: #ffffff; stroke-width: 1.25; stroke-linejoin: miter; stroke-linecap: square"/>
   </g>
   <g id="text_13">
    <!-- Evolved For Explode For Symmetry -->
    <g style="fill: #262626" transform="translate(92.0181 16.318125)scale(0.12 -0.12)">
     <defs>
      <path id="DejaVuSans-45" d="M 628 4666 
L 3578 4666 
L 3578 4134 
L 1259 4134 
L 1259 2753 
L 3481 2753 
L 3481 2222 
L 1259 2222 
L 1259 531 
L 3634 531 
L 3634 0 
L 628 0 
L 628 4666 
z
" transform="scale(0.015625)"/>
      <path id="DejaVuSans-76" d="M 191 3500 
L 800 3500 
L 1894 563 
L 2988 3500 
L 3597 3500 
L 2284 0 
L 1503 0 
L 191 3500 
z
" transform="scale(0.015625)"/>
      <path id="DejaVuSans-6c" d="M 603 4863 
L 1178 4863 
L 1178 0 
L 603 0 
L 603 4863 
z
" transform="scale(0.015625)"/>
      <path id="DejaVuSans-64" d="M 2906 2969 
L 2906 4863 
L 3481 4863 
L 3481 0 
L 2906 0 
L 2906 525 
Q 2725 213 2448 61 
Q 2172 -91 1784 -91 
Q 1150 -91 751 415 
Q 353 922 353 1747 
Q 353 2572 751 3078 
Q 1150 3584 1784 3584 
Q 2172 3584 2448 3432 
Q 2725 3281 2906 2969 
z
M 947 1747 
Q 947 1113 1208 752 
Q 1469 391 1925 391 
Q 2381 391 2643 752 
Q 2906 1113 2906 1747 
Q 2906 2381 2643 2742 
Q 2381 3103 1925 3103 
Q 1469 3103 1208 2742 
Q 947 2381 947 1747 
z
" transform="scale(0.015625)"/>
      <path id="DejaVuSans-20" transform="scale(0.015625)"/>
      <path id="DejaVuSans-78" d="M 3513 3500 
L 2247 1797 
L 3578 0 
L 2900 0 
L 1881 1375 
L 863 0 
L 184 0 
L 1544 1831 
L 300 3500 
L 978 3500 
L 1906 2253 
L 2834 3500 
L 3513 3500 
z
" transform="scale(0.015625)"/>
      <path id="DejaVuSans-70" d="M 1159 525 
L 1159 -1331 
L 581 -1331 
L 581 3500 
L 1159 3500 
L 1159 2969 
Q 1341 3281 1617 3432 
Q 1894 3584 2278 3584 
Q 2916 3584 3314 3078 
Q 3713 2572 3713 1747 
Q 3713 922 3314 415 
Q 2916 -91 2278 -91 
Q 1894 -91 1617 61 
Q 1341 213 1159 525 
z
M 3116 1747 
Q 3116 2381 2855 2742 
Q 2594 3103 2138 3103 
Q 1681 3103 1420 2742 
Q 1159 2381 1159 1747 
Q 1159 1113 1420 752 
Q 1681 391 2138 391 
Q 2594 391 2855 752 
Q 3116 1113 3116 1747 
z
" transform="scale(0.015625)"/>
      <path id="DejaVuSans-53" d="M 3425 4513 
L 3425 3897 
Q 3066 4069 2747 4153 
Q 2428 4238 2131 4238 
Q 1616 4238 1336 4038 
Q 1056 3838 1056 3469 
Q 1056 3159 1242 3001 
Q 1428 2844 1947 2747 
L 2328 2669 
Q 3034 2534 3370 2195 
Q 3706 1856 3706 1288 
Q 3706 609 3251 259 
Q 2797 -91 1919 -91 
Q 1588 -91 1214 -16 
Q 841 59 441 206 
L 441 856 
Q 825 641 1194 531 
Q 1563 422 1919 422 
Q 2459 422 2753 634 
Q 3047 847 3047 1241 
Q 3047 1584 2836 1778 
Q 2625 1972 2144 2069 
L 1759 2144 
Q 1053 2284 737 2584 
Q 422 2884 422 3419 
Q 422 4038 858 4394 
Q 1294 4750 2059 4750 
Q 2388 4750 2728 4690 
Q 3069 4631 3425 4513 
z
" transform="scale(0.015625)"/>
      <path id="DejaVuSans-79" d="M 2059 -325 
Q 1816 -950 1584 -1140 
Q 1353 -1331 966 -1331 
L 506 -1331 
L 506 -850 
L 844 -850 
Q 1081 -850 1212 -737 
Q 1344 -625 1503 -206 
L 1606 56 
L 191 3500 
L 800 3500 
L 1894 763 
L 2988 3500 
L 3597 3500 
L 2059 -325 
z
" transform="scale(0.015625)"/>
      <path id="DejaVuSans-6d" d="M 3328 2828 
Q 3544 3216 3844 3400 
Q 4144 3584 4550 3584 
Q 5097 3584 5394 3201 
Q 5691 2819 5691 2113 
L 5691 0 
L 5113 0 
L 5113 2094 
Q 5113 2597 4934 2840 
Q 4756 3084 4391 3084 
Q 3944 3084 3684 2787 
Q 3425 2491 3425 1978 
L 3425 0 
L 2847 0 
L 2847 2094 
Q 2847 2600 2669 2842 
Q 2491 3084 2119 3084 
Q 1678 3084 1418 2786 
Q 1159 2488 1159 1978 
L 1159 0 
L 581 0 
L 581 3500 
L 1159 3500 
L 1159 2956 
Q 1356 3278 1631 3431 
Q 1906 3584 2284 3584 
Q 2666 3584 2933 3390 
Q 3200 3197 3328 2828 
z
" transform="scale(0.015625)"/>
     </defs>
     <use xlink:href="#DejaVuSans-45"/>
     <use xlink:href="#DejaVuSans-76" x="63.183594"/>
     <use xlink:href="#DejaVuSans-6f" x="122.363281"/>
     <use xlink:href="#DejaVuSans-6c" x="183.544922"/>
     <use xlink:href="#DejaVuSans-76" x="211.328125"/>
     <use xlink:href="#DejaVuSans-65" x="270.507812"/>
     <use xlink:href="#DejaVuSans-64" x="332.03125"/>
     <use xlink:href="#DejaVuSans-20" x="395.507812"/>
     <use xlink:href="#DejaVuSans-46" x="427.294922"/>
     <use xlink:href="#DejaVuSans-6f" x="481.189453"/>
     <use xlink:href="#DejaVuSans-72" x="542.371094"/>
     <use xlink:href="#DejaVuSans-20" x="583.484375"/>
     <use xlink:href="#DejaVuSans-45" x="615.271484"/>
     <use xlink:href="#DejaVuSans-78" x="678.455078"/>
     <use xlink:href="#DejaVuSans-70" x="737.634766"/>
     <use xlink:href="#DejaVuSans-6c" x="801.111328"/>
     <use xlink:href="#DejaVuSans-6f" x="828.894531"/>
     <use xlink:href="#DejaVuSans-64" x="890.076172"/>
     <use xlink:href="#DejaVuSans-65" x="953.552734"/>
     <use xlink:href="#DejaVuSans-20" x="1015.076172"/>
     <use xlink:href="#DejaVuSans-46" x="1046.863281"/>
     <use xlink:href="#DejaVuSans-6f" x="1100.757812"/>
     <use xlink:href="#DejaVuSans-72" x="1161.939453"/>
     <use xlink:href="#DejaVuSans-20" x="1203.052734"/>
     <use xlink:href="#DejaVuSans-53" x="1234.839844"/>
     <use xlink:href="#DejaVuSans-79" x="1298.316406"/>
     <use xlink:href="#DejaVuSans-6d" x="1357.496094"/>
     <use xlink:href="#DejaVuSans-6d" x="1454.908203"/>
     <use xlink:href="#DejaVuSans-65" x="1552.320312"/>
     <use xlink:href="#DejaVuSans-74" x="1613.84375"/>
     <use xlink:href="#DejaVuSans-72" x="1653.052734"/>
     <use xlink:href="#DejaVuSans-79" x="1694.166016"/>
    </g>
   </g>
  </g>
  <g id="legend_1">
   <g id="text_14">
    <!-- Trial -->
    <g style="fill: #262626" transform="translate(352.4649 143.995312)scale(0.12 -0.12)">
     <defs>
      <path id="DejaVuSans-54" d="M -19 4666 
L 3928 4666 
L 3928 4134 
L 2272 4134 
L 2272 0 
L 1638 0 
L 1638 4134 
L -19 4134 
L -19 4666 
z
" transform="scale(0.015625)"/>
     </defs>
     <use xlink:href="#DejaVuSans-54"/>
     <use xlink:href="#DejaVuSans-72" x="46.333984"/>
     <use xlink:href="#DejaVuSans-69" x="87.447266"/>
     <use xlink:href="#DejaVuSans-61" x="115.230469"/>
     <use xlink:href="#DejaVuSans-6c" x="176.509766"/>
    </g>
   </g>
   <g id="line2d_21">
    <path d="M 345.8224 156.499219 
L 356.8224 156.499219 
L 367.8224 156.499219 
" style="fill: none; stroke: #edd1cb; stroke-width: 1.5; stroke-linecap: round"/>
   </g>
   <g id="text_15">
    <!-- 0 -->
    <g style="fill: #262626" transform="translate(376.6224 160.349219)scale(0.11 -0.11)">
     <use xlink:href="#DejaVuSans-30"/>
    </g>
   </g>
   <g id="line2d_22">
    <path d="M 345.8224 172.645156 
L 356.8224 172.645156 
L 367.8224 172.645156 
" style="fill: none; stroke: #d499a7; stroke-width: 1.5; stroke-linecap: round"/>
   </g>
   <g id="text_16">
    <!-- 1 -->
    <g style="fill: #262626" transform="translate(376.6224 176.495156)scale(0.11 -0.11)">
     <use xlink:href="#DejaVuSans-31"/>
    </g>
   </g>
   <g id="line2d_23">
    <path d="M 345.8224 188.791094 
L 356.8224 188.791094 
L 367.8224 188.791094 
" style="fill: none; stroke: #a9678f; stroke-width: 1.5; stroke-linecap: round"/>
   </g>
   <g id="text_17">
    <!-- 2 -->
    <g style="fill: #262626" transform="translate(376.6224 192.641094)scale(0.11 -0.11)">
     <use xlink:href="#DejaVuSans-32"/>
    </g>
   </g>
   <g id="line2d_24">
    <path d="M 345.8224 204.937031 
L 356.8224 204.937031 
L 367.8224 204.937031 
" style="fill: none; stroke: #6c3f70; stroke-width: 1.5; stroke-linecap: round"/>
   </g>
   <g id="text_18">
    <!-- 3 -->
    <g style="fill: #262626" transform="translate(376.6224 208.787031)scale(0.11 -0.11)">
     <use xlink:href="#DejaVuSans-33"/>
    </g>
   </g>
   <g id="line2d_25">
    <path d="M 345.8224 221.082969 
L 356.8224 221.082969 
L 367.8224 221.082969 
" style="fill: none; stroke: #2d1e3e; stroke-width: 1.5; stroke-linecap: round"/>
   </g>
   <g id="text_19">
    <!-- 4 -->
    <g style="fill: #262626" transform="translate(376.6224 224.932969)scale(0.11 -0.11)">
     <use xlink:href="#DejaVuSans-34"/>
    </g>
   </g>
  </g>
 </g>
 <defs>
  <clipPath id="pd1ad8d12b4">
   <rect x="53.31" y="22.318125" width="287.82495" height="296.82"/>
  </clipPath>
 </defs>
</svg>
