<?xml version="1.0" encoding="utf-8" standalone="no"?>
<!DOCTYPE svg PUBLIC "-//W3C//DTD SVG 1.1//EN"
  "http://www.w3.org/Graphics/SVG/1.1/DTD/svg11.dtd">
<svg xmlns:xlink="http://www.w3.org/1999/xlink" width="393.52115pt" height="362.097812pt" viewBox="0 0 393.52115 362.097812" xmlns="http://www.w3.org/2000/svg" version="1.1">
 <metadata>
  <rdf:RDF xmlns:dc="http://purl.org/dc/elements/1.1/" xmlns:cc="http://creativecommons.org/ns#" xmlns:rdf="http://www.w3.org/1999/02/22-rdf-syntax-ns#">
   <cc:Work>
    <dc:type rdf:resource="http://purl.org/dc/dcmitype/StillImage"/>
    <dc:date>2022-11-20T08:22:04.357987</dc:date>
    <dc:format>image/svg+xml</dc:format>
    <dc:creator>
     <cc:Agent>
      <dc:title>Matplotlib v3.5.2, https://matplotlib.org/</dc:title>
     </cc:Agent>
    </dc:creator>
   </cc:Work>
  </rdf:RDF>
 </metadata>
 <defs>
  <style type="text/css">*{stroke-linejoin: round; stroke-linecap: butt}</style>
 </defs>
 <g id="figure_1">
  <g id="patch_1">
   <path d="M 0 362.097812 
L 393.52115 362.097812 
L 393.52115 0 
L 0 0 
z
" style="fill: #ffffff"/>
  </g>
  <g id="axes_1">
   <g id="patch_2">
    <path d="M 53.31 319.138125 
L 341.13495 319.138125 
L 341.13495 22.318125 
L 53.31 22.318125 
z
" style="fill: #eaeaf2"/>
   </g>
   <g id="matplotlib.axis_1">
    <g id="xtick_1">
     <g id="line2d_1">
      <path d="M 66.392952 319.138125 
L 66.392952 22.318125 
" clip-path="url(#p66df08768a)" style="fill: none; stroke: #ffffff; stroke-linecap: round"/>
     </g>
     <g id="text_1">
      <!-- 0 -->
      <g style="fill: #262626" transform="translate(62.893577 336.996406)scale(0.11 -0.11)">
       <defs>
        <path id="DejaVuSans-30" d="M 2034 4250 
Q 1547 4250 1301 3770 
Q 1056 3291 1056 2328 
Q 1056 1369 1301 889 
Q 1547 409 2034 409 
Q 2525 409 2770 889 
Q 3016 1369 3016 2328 
Q 3016 3291 2770 3770 
Q 2525 4250 2034 4250 
z
M 2034 4750 
Q 2819 4750 3233 4129 
Q 3647 3509 3647 2328 
Q 3647 1150 3233 529 
Q 2819 -91 2034 -91 
Q 1250 -91 836 529 
Q 422 1150 422 2328 
Q 422 3509 836 4129 
Q 1250 4750 2034 4750 
z
" transform="scale(0.015625)"/>
       </defs>
       <use xlink:href="#DejaVuSans-30"/>
      </g>
     </g>
    </g>
    <g id="xtick_2">
     <g id="line2d_2">
      <path d="M 132.136431 319.138125 
L 132.136431 22.318125 
" clip-path="url(#p66df08768a)" style="fill: none; stroke: #ffffff; stroke-linecap: round"/>
     </g>
     <g id="text_2">
      <!-- 50 -->
      <g style="fill: #262626" transform="translate(125.137681 336.996406)scale(0.11 -0.11)">
       <defs>
        <path id="DejaVuSans-35" d="M 691 4666 
L 3169 4666 
L 3169 4134 
L 1269 4134 
L 1269 2991 
Q 1406 3038 1543 3061 
Q 1681 3084 1819 3084 
Q 2600 3084 3056 2656 
Q 3513 2228 3513 1497 
Q 3513 744 3044 326 
Q 2575 -91 1722 -91 
Q 1428 -91 1123 -41 
Q 819 9 494 109 
L 494 744 
Q 775 591 1075 516 
Q 1375 441 1709 441 
Q 2250 441 2565 725 
Q 2881 1009 2881 1497 
Q 2881 1984 2565 2268 
Q 2250 2553 1709 2553 
Q 1456 2553 1204 2497 
Q 953 2441 691 2322 
L 691 4666 
z
" transform="scale(0.015625)"/>
       </defs>
       <use xlink:href="#DejaVuSans-35"/>
       <use xlink:href="#DejaVuSans-30" x="63.623047"/>
      </g>
     </g>
    </g>
    <g id="xtick_3">
     <g id="line2d_3">
      <path d="M 197.87991 319.138125 
L 197.87991 22.318125 
" clip-path="url(#p66df08768a)" style="fill: none; stroke: #ffffff; stroke-linecap: round"/>
     </g>
     <g id="text_3">
      <!-- 100 -->
      <g style="fill: #262626" transform="translate(187.381785 336.996406)scale(0.11 -0.11)">
       <defs>
        <path id="DejaVuSans-31" d="M 794 531 
L 1825 531 
L 1825 4091 
L 703 3866 
L 703 4441 
L 1819 4666 
L 2450 4666 
L 2450 531 
L 3481 531 
L 3481 0 
L 794 0 
L 794 531 
z
" transform="scale(0.015625)"/>
       </defs>
       <use xlink:href="#DejaVuSans-31"/>
       <use xlink:href="#DejaVuSans-30" x="63.623047"/>
       <use xlink:href="#DejaVuSans-30" x="127.246094"/>
      </g>
     </g>
    </g>
    <g id="xtick_4">
     <g id="line2d_4">
      <path d="M 263.623389 319.138125 
L 263.623389 22.318125 
" clip-path="url(#p66df08768a)" style="fill: none; stroke: #ffffff; stroke-linecap: round"/>
     </g>
     <g id="text_4">
      <!-- 150 -->
      <g style="fill: #262626" transform="translate(253.125264 336.996406)scale(0.11 -0.11)">
       <use xlink:href="#DejaVuSans-31"/>
       <use xlink:href="#DejaVuSans-35" x="63.623047"/>
       <use xlink:href="#DejaVuSans-30" x="127.246094"/>
      </g>
     </g>
    </g>
    <g id="xtick_5">
     <g id="line2d_5">
      <path d="M 329.366867 319.138125 
L 329.366867 22.318125 
" clip-path="url(#p66df08768a)" style="fill: none; stroke: #ffffff; stroke-linecap: round"/>
     </g>
     <g id="text_5">
      <!-- 200 -->
      <g style="fill: #262626" transform="translate(318.868742 336.996406)scale(0.11 -0.11)">
       <defs>
        <path id="DejaVuSans-32" d="M 1228 531 
L 3431 531 
L 3431 0 
L 469 0 
L 469 531 
Q 828 903 1448 1529 
Q 2069 2156 2228 2338 
Q 2531 2678 2651 2914 
Q 2772 3150 2772 3378 
Q 2772 3750 2511 3984 
Q 2250 4219 1831 4219 
Q 1534 4219 1204 4116 
Q 875 4013 500 3803 
L 500 4441 
Q 881 4594 1212 4672 
Q 1544 4750 1819 4750 
Q 2544 4750 2975 4387 
Q 3406 4025 3406 3419 
Q 3406 3131 3298 2873 
Q 3191 2616 2906 2266 
Q 2828 2175 2409 1742 
Q 1991 1309 1228 531 
z
" transform="scale(0.015625)"/>
       </defs>
       <use xlink:href="#DejaVuSans-32"/>
       <use xlink:href="#DejaVuSans-30" x="63.623047"/>
       <use xlink:href="#DejaVuSans-30" x="127.246094"/>
      </g>
     </g>
    </g>
    <g id="text_6">
     <!-- Generation -->
     <g style="fill: #262626" transform="translate(163.750912 352.402187)scale(0.12 -0.12)">
      <defs>
       <path id="DejaVuSans-47" d="M 3809 666 
L 3809 1919 
L 2778 1919 
L 2778 2438 
L 4434 2438 
L 4434 434 
Q 4069 175 3628 42 
Q 3188 -91 2688 -91 
Q 1594 -91 976 548 
Q 359 1188 359 2328 
Q 359 3472 976 4111 
Q 1594 4750 2688 4750 
Q 3144 4750 3555 4637 
Q 3966 4525 4313 4306 
L 4313 3634 
Q 3963 3931 3569 4081 
Q 3175 4231 2741 4231 
Q 1884 4231 1454 3753 
Q 1025 3275 1025 2328 
Q 1025 1384 1454 906 
Q 1884 428 2741 428 
Q 3075 428 3337 486 
Q 3600 544 3809 666 
z
" transform="scale(0.015625)"/>
       <path id="DejaVuSans-65" d="M 3597 1894 
L 3597 1613 
L 953 1613 
Q 991 1019 1311 708 
Q 1631 397 2203 397 
Q 2534 397 2845 478 
Q 3156 559 3463 722 
L 3463 178 
Q 3153 47 2828 -22 
Q 2503 -91 2169 -91 
Q 1331 -91 842 396 
Q 353 884 353 1716 
Q 353 2575 817 3079 
Q 1281 3584 2069 3584 
Q 2775 3584 3186 3129 
Q 3597 2675 3597 1894 
z
M 3022 2063 
Q 3016 2534 2758 2815 
Q 2500 3097 2075 3097 
Q 1594 3097 1305 2825 
Q 1016 2553 972 2059 
L 3022 2063 
z
" transform="scale(0.015625)"/>
       <path id="DejaVuSans-6e" d="M 3513 2113 
L 3513 0 
L 2938 0 
L 2938 2094 
Q 2938 2591 2744 2837 
Q 2550 3084 2163 3084 
Q 1697 3084 1428 2787 
Q 1159 2491 1159 1978 
L 1159 0 
L 581 0 
L 581 3500 
L 1159 3500 
L 1159 2956 
Q 1366 3272 1645 3428 
Q 1925 3584 2291 3584 
Q 2894 3584 3203 3211 
Q 3513 2838 3513 2113 
z
" transform="scale(0.015625)"/>
       <path id="DejaVuSans-72" d="M 2631 2963 
Q 2534 3019 2420 3045 
Q 2306 3072 2169 3072 
Q 1681 3072 1420 2755 
Q 1159 2438 1159 1844 
L 1159 0 
L 581 0 
L 581 3500 
L 1159 3500 
L 1159 2956 
Q 1341 3275 1631 3429 
Q 1922 3584 2338 3584 
Q 2397 3584 2469 3576 
Q 2541 3569 2628 3553 
L 2631 2963 
z
" transform="scale(0.015625)"/>
       <path id="DejaVuSans-61" d="M 2194 1759 
Q 1497 1759 1228 1600 
Q 959 1441 959 1056 
Q 959 750 1161 570 
Q 1363 391 1709 391 
Q 2188 391 2477 730 
Q 2766 1069 2766 1631 
L 2766 1759 
L 2194 1759 
z
M 3341 1997 
L 3341 0 
L 2766 0 
L 2766 531 
Q 2569 213 2275 61 
Q 1981 -91 1556 -91 
Q 1019 -91 701 211 
Q 384 513 384 1019 
Q 384 1609 779 1909 
Q 1175 2209 1959 2209 
L 2766 2209 
L 2766 2266 
Q 2766 2663 2505 2880 
Q 2244 3097 1772 3097 
Q 1472 3097 1187 3025 
Q 903 2953 641 2809 
L 641 3341 
Q 956 3463 1253 3523 
Q 1550 3584 1831 3584 
Q 2591 3584 2966 3190 
Q 3341 2797 3341 1997 
z
" transform="scale(0.015625)"/>
       <path id="DejaVuSans-74" d="M 1172 4494 
L 1172 3500 
L 2356 3500 
L 2356 3053 
L 1172 3053 
L 1172 1153 
Q 1172 725 1289 603 
Q 1406 481 1766 481 
L 2356 481 
L 2356 0 
L 1766 0 
Q 1100 0 847 248 
Q 594 497 594 1153 
L 594 3053 
L 172 3053 
L 172 3500 
L 594 3500 
L 594 4494 
L 1172 4494 
z
" transform="scale(0.015625)"/>
       <path id="DejaVuSans-69" d="M 603 3500 
L 1178 3500 
L 1178 0 
L 603 0 
L 603 3500 
z
M 603 4863 
L 1178 4863 
L 1178 4134 
L 603 4134 
L 603 4863 
z
" transform="scale(0.015625)"/>
       <path id="DejaVuSans-6f" d="M 1959 3097 
Q 1497 3097 1228 2736 
Q 959 2375 959 1747 
Q 959 1119 1226 758 
Q 1494 397 1959 397 
Q 2419 397 2687 759 
Q 2956 1122 2956 1747 
Q 2956 2369 2687 2733 
Q 2419 3097 1959 3097 
z
M 1959 3584 
Q 2709 3584 3137 3096 
Q 3566 2609 3566 1747 
Q 3566 888 3137 398 
Q 2709 -91 1959 -91 
Q 1206 -91 779 398 
Q 353 888 353 1747 
Q 353 2609 779 3096 
Q 1206 3584 1959 3584 
z
" transform="scale(0.015625)"/>
      </defs>
      <use xlink:href="#DejaVuSans-47"/>
      <use xlink:href="#DejaVuSans-65" x="77.490234"/>
      <use xlink:href="#DejaVuSans-6e" x="139.013672"/>
      <use xlink:href="#DejaVuSans-65" x="202.392578"/>
      <use xlink:href="#DejaVuSans-72" x="263.916016"/>
      <use xlink:href="#DejaVuSans-61" x="305.029297"/>
      <use xlink:href="#DejaVuSans-74" x="366.308594"/>
      <use xlink:href="#DejaVuSans-69" x="405.517578"/>
      <use xlink:href="#DejaVuSans-6f" x="433.300781"/>
      <use xlink:href="#DejaVuSans-6e" x="494.482422"/>
     </g>
    </g>
   </g>
   <g id="matplotlib.axis_2">
    <g id="ytick_1">
     <g id="line2d_6">
      <path d="M 53.31 310.944738 
L 341.13495 310.944738 
" clip-path="url(#p66df08768a)" style="fill: none; stroke: #ffffff; stroke-linecap: round"/>
     </g>
     <g id="text_7">
      <!-- 0 -->
      <g style="fill: #262626" transform="translate(36.81125 315.123878)scale(0.11 -0.11)">
       <use xlink:href="#DejaVuSans-30"/>
      </g>
     </g>
    </g>
    <g id="ytick_2">
     <g id="line2d_7">
      <path d="M 53.31 268.760303 
L 341.13495 268.760303 
" clip-path="url(#p66df08768a)" style="fill: none; stroke: #ffffff; stroke-linecap: round"/>
     </g>
     <g id="text_8">
      <!-- 100 -->
      <g style="fill: #262626" transform="translate(22.81375 272.939443)scale(0.11 -0.11)">
       <use xlink:href="#DejaVuSans-31"/>
       <use xlink:href="#DejaVuSans-30" x="63.623047"/>
       <use xlink:href="#DejaVuSans-30" x="127.246094"/>
      </g>
     </g>
    </g>
    <g id="ytick_3">
     <g id="line2d_8">
      <path d="M 53.31 226.575868 
L 341.13495 226.575868 
" clip-path="url(#p66df08768a)" style="fill: none; stroke: #ffffff; stroke-linecap: round"/>
     </g>
     <g id="text_9">
      <!-- 200 -->
      <g style="fill: #262626" transform="translate(22.81375 230.755008)scale(0.11 -0.11)">
       <use xlink:href="#DejaVuSans-32"/>
       <use xlink:href="#DejaVuSans-30" x="63.623047"/>
       <use xlink:href="#DejaVuSans-30" x="127.246094"/>
      </g>
     </g>
    </g>
    <g id="ytick_4">
     <g id="line2d_9">
      <path d="M 53.31 184.391433 
L 341.13495 184.391433 
" clip-path="url(#p66df08768a)" style="fill: none; stroke: #ffffff; stroke-linecap: round"/>
     </g>
     <g id="text_10">
      <!-- 300 -->
      <g style="fill: #262626" transform="translate(22.81375 188.570573)scale(0.11 -0.11)">
       <defs>
        <path id="DejaVuSans-33" d="M 2597 2516 
Q 3050 2419 3304 2112 
Q 3559 1806 3559 1356 
Q 3559 666 3084 287 
Q 2609 -91 1734 -91 
Q 1441 -91 1130 -33 
Q 819 25 488 141 
L 488 750 
Q 750 597 1062 519 
Q 1375 441 1716 441 
Q 2309 441 2620 675 
Q 2931 909 2931 1356 
Q 2931 1769 2642 2001 
Q 2353 2234 1838 2234 
L 1294 2234 
L 1294 2753 
L 1863 2753 
Q 2328 2753 2575 2939 
Q 2822 3125 2822 3475 
Q 2822 3834 2567 4026 
Q 2313 4219 1838 4219 
Q 1578 4219 1281 4162 
Q 984 4106 628 3988 
L 628 4550 
Q 988 4650 1302 4700 
Q 1616 4750 1894 4750 
Q 2613 4750 3031 4423 
Q 3450 4097 3450 3541 
Q 3450 3153 3228 2886 
Q 3006 2619 2597 2516 
z
" transform="scale(0.015625)"/>
       </defs>
       <use xlink:href="#DejaVuSans-33"/>
       <use xlink:href="#DejaVuSans-30" x="63.623047"/>
       <use xlink:href="#DejaVuSans-30" x="127.246094"/>
      </g>
     </g>
    </g>
    <g id="ytick_5">
     <g id="line2d_10">
      <path d="M 53.31 142.206998 
L 341.13495 142.206998 
" clip-path="url(#p66df08768a)" style="fill: none; stroke: #ffffff; stroke-linecap: round"/>
     </g>
     <g id="text_11">
      <!-- 400 -->
      <g style="fill: #262626" transform="translate(22.81375 146.386138)scale(0.11 -0.11)">
       <defs>
        <path id="DejaVuSans-34" d="M 2419 4116 
L 825 1625 
L 2419 1625 
L 2419 4116 
z
M 2253 4666 
L 3047 4666 
L 3047 1625 
L 3713 1625 
L 3713 1100 
L 3047 1100 
L 3047 0 
L 2419 0 
L 2419 1100 
L 313 1100 
L 313 1709 
L 2253 4666 
z
" transform="scale(0.015625)"/>
       </defs>
       <use xlink:href="#DejaVuSans-34"/>
       <use xlink:href="#DejaVuSans-30" x="63.623047"/>
       <use xlink:href="#DejaVuSans-30" x="127.246094"/>
      </g>
     </g>
    </g>
    <g id="ytick_6">
     <g id="line2d_11">
      <path d="M 53.31 100.022563 
L 341.13495 100.022563 
" clip-path="url(#p66df08768a)" style="fill: none; stroke: #ffffff; stroke-linecap: round"/>
     </g>
     <g id="text_12">
      <!-- 500 -->
      <g style="fill: #262626" transform="translate(22.81375 104.201703)scale(0.11 -0.11)">
       <use xlink:href="#DejaVuSans-35"/>
       <use xlink:href="#DejaVuSans-30" x="63.623047"/>
       <use xlink:href="#DejaVuSans-30" x="127.246094"/>
      </g>
     </g>
    </g>
    <g id="ytick_7">
     <g id="line2d_12">
      <path d="M 53.31 57.838128 
L 341.13495 57.838128 
" clip-path="url(#p66df08768a)" style="fill: none; stroke: #ffffff; stroke-linecap: round"/>
     </g>
     <g id="text_13">
      <!-- 600 -->
      <g style="fill: #262626" transform="translate(22.81375 62.017268)scale(0.11 -0.11)">
       <defs>
        <path id="DejaVuSans-36" d="M 2113 2584 
Q 1688 2584 1439 2293 
Q 1191 2003 1191 1497 
Q 1191 994 1439 701 
Q 1688 409 2113 409 
Q 2538 409 2786 701 
Q 3034 994 3034 1497 
Q 3034 2003 2786 2293 
Q 2538 2584 2113 2584 
z
M 3366 4563 
L 3366 3988 
Q 3128 4100 2886 4159 
Q 2644 4219 2406 4219 
Q 1781 4219 1451 3797 
Q 1122 3375 1075 2522 
Q 1259 2794 1537 2939 
Q 1816 3084 2150 3084 
Q 2853 3084 3261 2657 
Q 3669 2231 3669 1497 
Q 3669 778 3244 343 
Q 2819 -91 2113 -91 
Q 1303 -91 875 529 
Q 447 1150 447 2328 
Q 447 3434 972 4092 
Q 1497 4750 2381 4750 
Q 2619 4750 2861 4703 
Q 3103 4656 3366 4563 
z
" transform="scale(0.015625)"/>
       </defs>
       <use xlink:href="#DejaVuSans-36"/>
       <use xlink:href="#DejaVuSans-30" x="63.623047"/>
       <use xlink:href="#DejaVuSans-30" x="127.246094"/>
      </g>
     </g>
    </g>
    <g id="text_14">
     <!-- Fitness -->
     <g style="fill: #262626" transform="translate(16.318125 191.50875)rotate(-90)scale(0.12 -0.12)">
      <defs>
       <path id="DejaVuSans-46" d="M 628 4666 
L 3309 4666 
L 3309 4134 
L 1259 4134 
L 1259 2759 
L 3109 2759 
L 3109 2228 
L 1259 2228 
L 1259 0 
L 628 0 
L 628 4666 
z
" transform="scale(0.015625)"/>
       <path id="DejaVuSans-73" d="M 2834 3397 
L 2834 2853 
Q 2591 2978 2328 3040 
Q 2066 3103 1784 3103 
Q 1356 3103 1142 2972 
Q 928 2841 928 2578 
Q 928 2378 1081 2264 
Q 1234 2150 1697 2047 
L 1894 2003 
Q 2506 1872 2764 1633 
Q 3022 1394 3022 966 
Q 3022 478 2636 193 
Q 2250 -91 1575 -91 
Q 1294 -91 989 -36 
Q 684 19 347 128 
L 347 722 
Q 666 556 975 473 
Q 1284 391 1588 391 
Q 1994 391 2212 530 
Q 2431 669 2431 922 
Q 2431 1156 2273 1281 
Q 2116 1406 1581 1522 
L 1381 1569 
Q 847 1681 609 1914 
Q 372 2147 372 2553 
Q 372 3047 722 3315 
Q 1072 3584 1716 3584 
Q 2034 3584 2315 3537 
Q 2597 3491 2834 3397 
z
" transform="scale(0.015625)"/>
      </defs>
      <use xlink:href="#DejaVuSans-46"/>
      <use xlink:href="#DejaVuSans-69" x="50.269531"/>
      <use xlink:href="#DejaVuSans-74" x="78.052734"/>
      <use xlink:href="#DejaVuSans-6e" x="117.261719"/>
      <use xlink:href="#DejaVuSans-65" x="180.640625"/>
      <use xlink:href="#DejaVuSans-73" x="242.164062"/>
      <use xlink:href="#DejaVuSans-73" x="294.263672"/>
     </g>
    </g>
   </g>
   <g id="PolyCollection_1">
    <defs>
     <path id="m41a907277e" d="M 66.392952 -74.223676 
L 66.392952 -61.185061 
L 67.707822 -76.25545 
L 69.022691 -104.328532 
L 70.337561 -103.77651 
L 71.652431 -104.462007 
L 72.9673 -98.937164 
L 74.28217 -113.940651 
L 75.597039 -120.559323 
L 76.911909 -125.272775 
L 78.226778 -122.93022 
L 79.541648 -122.07236 
L 80.856518 -131.617578 
L 82.171387 -132.949024 
L 83.486257 -137.261394 
L 84.801126 -136.761112 
L 86.115996 -130.419276 
L 87.430865 -132.106983 
L 88.745735 -128.099462 
L 90.060605 -140.015905 
L 91.375474 -134.559283 
L 92.690344 -134.282777 
L 94.005213 -130.577468 
L 95.320083 -135.612905 
L 96.634953 -134.256082 
L 97.949822 -138.962283 
L 99.264692 -135.494591 
L 100.579561 -136.361349 
L 101.894431 -134.111073 
L 103.2093 -129.294467 
L 104.52417 -130.458165 
L 105.83904 -132.646812 
L 107.153909 -139.224288 
L 108.468779 -131.367767 
L 109.783648 -140.610442 
L 111.098518 -141.650882 
L 112.413387 -135.532491 
L 113.728257 -132.832357 
L 115.043127 -134.084049 
L 116.357996 -131.445544 
L 117.672866 -128.638961 
L 118.987735 -133.1873 
L 120.302605 -125.632002 
L 121.617474 -135.584892 
L 122.932344 -137.419256 
L 124.247214 -134.386261 
L 125.562083 -133.49116 
L 126.876953 -139.566707 
L 128.191822 -137.024765 
L 129.506692 -143.062083 
L 130.821561 -143.260152 
L 132.136431 -136.734088 
L 133.451301 -140.609453 
L 134.76617 -135.584892 
L 136.08104 -136.443411 
L 137.395909 -140.287797 
L 138.710779 -141.506532 
L 140.025648 -133.767665 
L 141.340518 -138.157483 
L 142.655388 -136.510642 
L 143.970257 -130.287779 
L 145.285127 -131.237258 
L 146.599996 -140.227487 
L 147.914866 -135.238848 
L 149.229736 -128.717068 
L 150.544605 -135.941482 
L 151.859475 -137.314454 
L 153.174344 -129.890982 
L 154.489214 -135.1001 
L 155.804083 -126.169524 
L 157.118953 -138.025986 
L 158.433823 -128.505487 
L 159.748692 -136.840208 
L 161.063562 -130.365227 
L 162.378431 -136.534701 
L 163.693301 -139.766424 
L 165.00817 -140.09566 
L 166.32304 -133.132262 
L 167.63791 -131.355573 
L 168.952779 -133.333298 
L 170.267649 -134.663426 
L 171.582518 -131.435328 
L 172.897388 -137.551741 
L 174.212257 -133.925857 
L 175.527127 -130.485848 
L 176.841997 -133.912345 
L 178.156866 -140.477957 
L 179.471736 -138.670288 
L 180.786605 -136.760124 
L 182.101475 -133.951563 
L 183.416344 -133.938381 
L 184.731214 -138.367417 
L 186.046084 -136.074297 
L 187.360953 -140.806534 
L 188.675823 -133.08118 
L 189.990692 -136.92985 
L 191.305562 -136.997082 
L 192.620431 -137.024436 
L 193.935301 -135.811304 
L 195.250171 -130.273608 
L 196.56504 -131.64592 
L 197.87991 -133.161923 
L 199.194779 -137.498022 
L 200.509649 -137.907343 
L 201.824519 -132.489938 
L 203.139388 -136.91469 
L 204.454258 -140.187939 
L 205.769127 -133.649681 
L 207.083997 -140.952202 
L 208.398866 -139.740059 
L 209.713736 -135.903912 
L 211.028606 -127.585339 
L 212.343475 -138.013133 
L 213.658345 -137.433097 
L 214.973214 -127.967306 
L 216.288084 -131.829488 
L 217.602953 -137.721138 
L 218.917823 -130.669416 
L 220.232693 -131.670967 
L 221.547562 -139.7918 
L 222.862432 -138.512755 
L 224.177301 -137.261723 
L 225.492171 -138.855174 
L 226.80704 -143.233457 
L 228.12191 -135.627076 
L 229.43678 -130.722477 
L 230.751649 -142.516981 
L 232.066519 -135.362435 
L 233.381388 -138.052352 
L 234.696258 -135.060552 
L 236.011127 -136.325756 
L 237.325997 -123.115766 
L 238.640867 -131.854206 
L 239.955736 -135.204902 
L 241.270606 -138.118265 
L 242.585475 -135.916435 
L 243.900345 -134.492051 
L 245.215214 -129.826057 
L 246.530084 -127.874368 
L 247.844954 -126.279928 
L 249.159823 -138.857152 
L 250.474693 -134.452174 
L 251.789562 -139.604937 
L 253.104432 -141.54608 
L 254.419302 -137.825281 
L 255.734171 -138.855504 
L 257.049041 -138.158142 
L 258.36391 -138.065205 
L 259.67878 -134.966626 
L 260.993649 -125.77767 
L 262.308519 -129.043997 
L 263.623389 -133.451941 
L 264.938258 -133.922891 
L 266.253128 -137.552071 
L 267.567997 -133.738993 
L 268.882867 -138.89637 
L 270.197736 -138.948441 
L 271.512606 -137.774528 
L 272.827476 -139.000842 
L 274.142345 -140.068965 
L 275.457215 -138.629092 
L 276.772084 -140.54387 
L 278.086954 -141.862793 
L 279.401823 -144.735289 
L 280.716693 -137.761345 
L 282.031563 -136.64148 
L 283.346432 -136.258195 
L 284.661302 -132.990879 
L 285.976171 -141.741183 
L 287.291041 -138.883187 
L 288.60591 -131.971531 
L 289.92078 -135.63927 
L 291.23565 -139.171887 
L 292.550519 -139.315578 
L 293.865389 -139.225936 
L 295.180258 -135.465259 
L 296.495128 -129.378836 
L 297.809997 -136.825378 
L 299.124867 -138.616898 
L 300.439737 -139.977346 
L 301.754606 -140.727768 
L 303.069476 -139.832337 
L 304.384345 -139.239448 
L 305.699215 -138.32721 
L 307.014085 -144.564903 
L 308.328954 -140.318776 
L 309.643824 -136.839879 
L 310.958693 -137.721797 
L 312.273563 -141.622209 
L 313.588432 -137.485498 
L 314.903302 -139.132998 
L 316.218172 -144.077146 
L 317.533041 -138.513085 
L 318.847911 -138.19769 
L 320.16278 -138.633047 
L 321.47765 -129.550211 
L 322.792519 -139.278337 
L 324.107389 -135.297181 
L 325.422259 -139.700181 
L 326.737128 -132.277698 
L 328.051998 -133.950904 
L 328.051998 -146.584483 
L 328.051998 -146.584483 
L 326.737128 -143.115143 
L 325.422259 -150.116771 
L 324.107389 -147.268332 
L 322.792519 -150.075575 
L 321.47765 -144.025734 
L 320.16278 -149.022282 
L 318.847911 -148.678545 
L 317.533041 -150.090735 
L 316.218172 -155.585917 
L 314.903302 -149.02426 
L 313.588432 -147.623605 
L 312.273563 -153.227213 
L 310.958693 -148.774119 
L 309.643824 -148.230665 
L 308.328954 -151.434375 
L 307.014085 -153.675753 
L 305.699215 -152.991574 
L 304.384345 -152.237527 
L 303.069476 -154.967651 
L 301.754606 -155.851547 
L 300.439737 -152.304099 
L 299.124867 -150.486214 
L 297.809997 -149.350859 
L 296.495128 -145.344327 
L 295.180258 -149.007781 
L 293.865389 -151.644638 
L 292.550519 -148.073792 
L 291.23565 -150.738332 
L 289.92078 -145.46363 
L 288.60591 -143.485246 
L 287.291041 -150.339557 
L 285.976171 -152.422743 
L 284.661302 -147.611081 
L 283.346432 -148.798507 
L 282.031563 -151.633103 
L 280.716693 -149.193986 
L 279.401823 -156.391705 
L 278.086954 -153.21469 
L 276.772084 -153.595339 
L 275.457215 -150.29968 
L 274.142345 -149.943748 
L 272.827476 -150.827644 
L 271.512606 -150.682965 
L 270.197736 -153.582815 
L 268.882867 -149.56277 
L 267.567997 -142.641227 
L 266.253128 -148.217482 
L 264.938258 -147.795308 
L 263.623389 -144.288398 
L 262.308519 -141.258039 
L 260.993649 -137.645008 
L 259.67878 -144.329264 
L 258.36391 -149.865641 
L 257.049041 -151.144027 
L 255.734171 -150.604858 
L 254.419302 -147.939988 
L 253.104432 -152.000899 
L 251.789562 -151.737905 
L 250.474693 -148.350297 
L 249.159823 -150.551798 
L 247.844954 -142.179835 
L 246.530084 -143.407138 
L 245.215214 -140.123014 
L 243.900345 -145.620833 
L 242.585475 -147.781796 
L 241.270606 -149.761169 
L 239.955736 -147.82464 
L 238.640867 -147.676665 
L 237.325997 -142.207848 
L 236.011127 -151.525665 
L 234.696258 -148.442576 
L 233.381388 -153.227213 
L 232.066519 -147.493096 
L 230.751649 -155.45409 
L 229.43678 -143.893248 
L 228.12191 -150.355047 
L 226.80704 -154.469677 
L 225.492171 -151.436023 
L 224.177301 -150.050857 
L 222.862432 -153.568973 
L 221.547562 -151.037907 
L 220.232693 -143.313212 
L 218.917823 -144.934347 
L 217.602953 -150.497749 
L 216.288084 -147.310846 
L 214.973214 -144.06627 
L 213.658345 -152.6073 
L 212.343475 -149.258581 
L 211.028606 -144.55205 
L 209.713736 -147.268003 
L 208.398866 -152.764833 
L 207.083997 -152.726273 
L 205.769127 -148.151569 
L 204.454258 -152.146896 
L 203.139388 -151.765918 
L 201.824519 -149.720303 
L 200.509649 -154.16351 
L 199.194779 -148.560231 
L 197.87991 -145.738817 
L 196.56504 -143.695179 
L 195.250171 -143.90676 
L 193.935301 -145.91118 
L 192.620431 -148.257689 
L 191.305562 -149.443467 
L 189.990692 -149.719973 
L 188.675823 -145.593808 
L 187.360953 -155.587235 
L 186.046084 -148.758629 
L 184.731214 -152.792846 
L 183.416344 -149.180144 
L 182.101475 -148.706558 
L 180.786605 -149.45665 
L 179.471736 -151.525994 
L 178.156866 -152.529193 
L 176.841997 -147.771909 
L 175.527127 -142.601679 
L 174.212257 -146.399926 
L 172.897388 -147.668096 
L 171.582518 -145.41024 
L 170.267649 -145.96424 
L 168.952779 -146.358731 
L 167.63791 -146.451339 
L 166.32304 -147.348087 
L 165.00817 -153.819443 
L 163.693301 -152.435267 
L 162.378431 -147.046205 
L 161.063562 -142.56345 
L 159.748692 -149.973409 
L 158.433823 -142.826443 
L 157.118953 -149.272093 
L 155.804083 -142.390757 
L 154.489214 -146.793428 
L 153.174344 -142.324514 
L 151.859475 -150.830281 
L 150.544605 -147.083776 
L 149.229736 -141.904647 
L 147.914866 -147.11047 
L 146.599996 -151.671003 
L 145.285127 -146.081895 
L 143.970257 -143.949604 
L 142.655388 -148.863761 
L 141.340518 -153.35871 
L 140.025648 -146.451009 
L 138.710779 -150.708341 
L 137.395909 -152.992233 
L 136.08104 -147.822662 
L 134.76617 -146.134296 
L 133.451301 -151.80283 
L 132.136431 -149.324165 
L 130.821561 -155.098159 
L 129.506692 -153.951599 
L 128.191822 -149.179815 
L 126.876953 -150.857305 
L 125.562083 -147.017533 
L 124.247214 -150.024822 
L 122.932344 -149.495539 
L 121.617474 -149.812581 
L 120.302605 -142.680116 
L 118.987735 -145.515371 
L 117.672866 -138.871323 
L 116.357996 -145.370033 
L 115.043127 -144.118342 
L 113.728257 -144.631805 
L 112.413387 -145.779354 
L 111.098518 -152.751979 
L 109.783648 -153.335641 
L 108.468779 -146.30567 
L 107.153909 -150.709 
L 105.83904 -145.581614 
L 104.52417 -143.15568 
L 103.2093 -144.47625 
L 101.894431 -148.41621 
L 100.579561 -150.088757 
L 99.264692 -148.786643 
L 97.949822 -155.467932 
L 96.634953 -147.914282 
L 95.320083 -148.771153 
L 94.005213 -145.914476 
L 92.690344 -147.521439 
L 91.375474 -146.635236 
L 90.060605 -151.407351 
L 88.745735 -146.094748 
L 87.430865 -148.137727 
L 86.115996 -145.369374 
L 84.801126 -148.665033 
L 83.486257 -147.822333 
L 82.171387 -145.343997 
L 80.856518 -146.279305 
L 79.541648 -140.968021 
L 78.226778 -137.988086 
L 76.911909 -142.403281 
L 75.597039 -140.762372 
L 74.28217 -133.138854 
L 72.9673 -121.938227 
L 71.652431 -122.142228 
L 70.337561 -125.403613 
L 69.022691 -129.524175 
L 67.707822 -102.18965 
L 66.392952 -74.223676 
z
" style="stroke: #edd1cb; stroke-opacity: 0.2"/>
    </defs>
    <g clip-path="url(#p66df08768a)">
     <use xlink:href="#m41a907277e" x="0" y="362.097812" style="fill: #edd1cb; fill-opacity: 0.2; stroke: #edd1cb; stroke-opacity: 0.2"/>
    </g>
   </g>
   <g id="PolyCollection_2">
    <defs>
     <path id="m7111a0bb77" d="M 66.392952 -62.609444 
L 66.392952 -56.451506 
L 67.707822 -58.429231 
L 69.022691 -64.335711 
L 70.337561 -70.359516 
L 71.652431 -74.498534 
L 72.9673 -93.305212 
L 74.28217 -102.998734 
L 75.597039 -111.013447 
L 76.911909 -133.860273 
L 78.226778 -131.89639 
L 79.541648 -134.532917 
L 80.856518 -138.360496 
L 82.171387 -126.266746 
L 83.486257 -136.826037 
L 84.801126 -129.03477 
L 86.115996 -129.77069 
L 87.430865 -137.839782 
L 88.745735 -129.707414 
L 90.060605 -126.464815 
L 91.375474 -122.337991 
L 92.690344 -135.231927 
L 94.005213 -131.154867 
L 95.320083 -134.517098 
L 96.634953 -134.46239 
L 97.949822 -143.805254 
L 99.264692 -145.737828 
L 100.579561 -154.604469 
L 101.894431 -148.821247 
L 103.2093 -166.893982 
L 104.52417 -178.835143 
L 105.83904 -193.496541 
L 107.153909 -208.435104 
L 108.468779 -202.189501 
L 109.783648 -212.901711 
L 111.098518 -208.943295 
L 112.413387 -229.762961 
L 113.728257 -213.968186 
L 115.043127 -226.321634 
L 116.357996 -227.891356 
L 117.672866 -216.224724 
L 118.987735 -233.192094 
L 120.302605 -215.553727 
L 121.617474 -234.786864 
L 122.932344 -238.06967 
L 124.247214 -238.109218 
L 125.562083 -236.775464 
L 126.876953 -230.516019 
L 128.191822 -225.005348 
L 129.506692 -226.679872 
L 130.821561 -228.115132 
L 132.136431 -239.122303 
L 133.451301 -242.511888 
L 134.76617 -216.146617 
L 136.08104 -207.639862 
L 137.395909 -228.327372 
L 138.710779 -220.496557 
L 140.025648 -202.10678 
L 141.340518 -221.859641 
L 142.655388 -239.531624 
L 143.970257 -215.296007 
L 145.285127 -191.945933 
L 146.599996 -234.073683 
L 147.914866 -213.164704 
L 149.229736 -232.854619 
L 150.544605 -220.765483 
L 151.859475 -227.7068 
L 153.174344 -252.42556 
L 154.489214 -242.574176 
L 155.804083 -238.163596 
L 157.118953 -233.858806 
L 158.433823 -236.879937 
L 159.748692 -240.147253 
L 161.063562 -244.304068 
L 162.378431 -253.082055 
L 163.693301 -236.93069 
L 165.00817 -232.264037 
L 166.32304 -226.664053 
L 167.63791 -249.561633 
L 168.952779 -258.594045 
L 170.267649 -237.295519 
L 171.582518 -248.400901 
L 172.897388 -250.326555 
L 174.212257 -256.903042 
L 175.527127 -201.19553 
L 176.841997 -246.135465 
L 178.156866 -243.855199 
L 179.471736 -252.284176 
L 180.786605 -224.41147 
L 182.101475 -246.676942 
L 183.416344 -231.607871 
L 184.731214 -231.068042 
L 186.046084 -242.778178 
L 187.360953 -258.304686 
L 188.675823 -284.063557 
L 189.990692 -270.890478 
L 191.305562 -282.309607 
L 192.620431 -255.169855 
L 193.935301 -251.71238 
L 195.250171 -296.059756 
L 196.56504 -279.742948 
L 197.87991 -290.148332 
L 199.194779 -262.425908 
L 200.509649 -244.870262 
L 201.824519 -283.887898 
L 203.139388 -254.442503 
L 204.454258 -286.632523 
L 205.769127 -282.995763 
L 207.083997 -250.720386 
L 208.398866 -273.964999 
L 209.713736 -284.339733 
L 211.028606 -240.454408 
L 212.343475 -236.472923 
L 213.658345 -277.195404 
L 214.973214 -269.426876 
L 216.288084 -239.609402 
L 217.602953 -297.46865 
L 218.917823 -261.495214 
L 220.232693 -272.933128 
L 221.547562 -284.972829 
L 222.862432 -269.918259 
L 224.177301 -289.546215 
L 225.492171 -280.453822 
L 226.80704 -300.554705 
L 228.12191 -282.968739 
L 229.43678 -300.776832 
L 230.751649 -298.281689 
L 232.066519 -270.550696 
L 233.381388 -277.63076 
L 234.696258 -282.632911 
L 236.011127 -293.463106 
L 237.325997 -305.472158 
L 238.640867 -295.393044 
L 239.955736 -305.732185 
L 241.270606 -317.414967 
L 242.585475 -282.086161 
L 243.900345 -320.843441 
L 245.215214 -302.968445 
L 246.530084 -300.203717 
L 247.844954 -283.956778 
L 249.159823 -315.029239 
L 250.474693 -285.193309 
L 251.789562 -283.762004 
L 253.104432 -301.727959 
L 254.419302 -273.496356 
L 255.734171 -281.952687 
L 257.049041 -287.648904 
L 258.36391 -297.785033 
L 259.67878 -316.874808 
L 260.993649 -317.850653 
L 262.308519 -316.716946 
L 263.623389 -292.843522 
L 264.938258 -292.373891 
L 266.253128 -285.945708 
L 267.567997 -297.114696 
L 268.882867 -301.026314 
L 270.197736 -299.395292 
L 271.512606 -321.660764 
L 272.827476 -303.152343 
L 274.142345 -321.660764 
L 275.457215 -324.508213 
L 276.772084 -314.660784 
L 278.086954 -324.508213 
L 279.401823 -324.508213 
L 280.716693 -324.508213 
L 282.031563 -324.508213 
L 283.346432 -324.508213 
L 284.661302 -324.508213 
L 285.976171 -324.508213 
L 287.291041 -324.508213 
L 288.60591 -316.282249 
L 289.92078 -324.508213 
L 291.23565 -306.790751 
L 292.550519 -324.508213 
L 293.865389 -324.508213 
L 295.180258 -324.508213 
L 296.495128 -324.508213 
L 297.809997 -324.508213 
L 299.124867 -324.508213 
L 300.439737 -324.508213 
L 301.754606 -302.440481 
L 303.069476 -290.93204 
L 304.384345 -311.892431 
L 305.699215 -298.282348 
L 307.014085 -305.327478 
L 308.328954 -304.404694 
L 309.643824 -314.660784 
L 310.958693 -324.508213 
L 312.273563 -298.894022 
L 313.588432 -308.056284 
L 314.903302 -308.056284 
L 316.218172 -324.508213 
L 317.533041 -316.598632 
L 318.847911 -320.157944 
L 320.16278 -313.382069 
L 321.47765 -316.282249 
L 322.792519 -316.585449 
L 324.107389 -324.508213 
L 325.422259 -324.508213 
L 326.737128 -324.508213 
L 328.051998 -324.508213 
L 328.051998 -324.508213 
L 328.051998 -324.508213 
L 326.737128 -324.508213 
L 325.422259 -324.508213 
L 324.107389 -324.508213 
L 322.792519 -325.721016 
L 321.47765 -325.114615 
L 320.16278 -324.508213 
L 318.847911 -326.287869 
L 317.533041 -324.508213 
L 316.218172 -325.536459 
L 314.903302 -324.547761 
L 313.588432 -324.560944 
L 312.273563 -324.560944 
L 310.958693 -324.547761 
L 309.643824 -324.534579 
L 308.328954 -324.508213 
L 307.014085 -324.508213 
L 305.699215 -324.508213 
L 304.384345 -324.508213 
L 303.069476 -324.508213 
L 301.754606 -324.508213 
L 300.439737 -324.508213 
L 299.124867 -324.508213 
L 297.809997 -324.508213 
L 296.495128 -324.508213 
L 295.180258 -324.508213 
L 293.865389 -324.508213 
L 292.550519 -324.508213 
L 291.23565 -324.508213 
L 289.92078 -324.508213 
L 288.60591 -324.508213 
L 287.291041 -324.508213 
L 285.976171 -324.508213 
L 284.661302 -324.508213 
L 283.346432 -324.508213 
L 282.031563 -324.508213 
L 280.716693 -324.508213 
L 279.401823 -324.508213 
L 278.086954 -324.508213 
L 276.772084 -324.508213 
L 275.457215 -324.508213 
L 274.142345 -324.508213 
L 272.827476 -324.508213 
L 271.512606 -324.508213 
L 270.197736 -324.508213 
L 268.882867 -322.754923 
L 267.567997 -321.014815 
L 266.253128 -320.860249 
L 264.938258 -320.71524 
L 263.623389 -321.951112 
L 262.308519 -323.559064 
L 260.993649 -323.717255 
L 259.67878 -323.559064 
L 258.36391 -322.900261 
L 257.049041 -320.949561 
L 255.734171 -319.117175 
L 254.419302 -316.638839 
L 253.104432 -321.779408 
L 251.789562 -322.095791 
L 250.474693 -322.254642 
L 249.159823 -323.506333 
L 247.844954 -322.425357 
L 246.530084 -323.862264 
L 245.215214 -323.862264 
L 243.900345 -324.508213 
L 242.585475 -323.216315 
L 241.270606 -323.677707 
L 239.955736 -323.720881 
L 238.640867 -323.88863 
L 237.325997 -324.521396 
L 236.011127 -323.216315 
L 234.696258 -321.436659 
L 233.381388 -321.278468 
L 232.066519 -315.346281 
L 230.751649 -318.116942 
L 229.43678 -319.617785 
L 228.12191 -316.468453 
L 226.80704 -319.973387 
L 225.492171 -317.788035 
L 224.177301 -317.719815 
L 222.862432 -314.331548 
L 221.547562 -310.205713 
L 220.232693 -309.454632 
L 218.917823 -304.945841 
L 217.602953 -314.59619 
L 216.288084 -299.923916 
L 214.973214 -305.091179 
L 213.658345 -306.580158 
L 212.343475 -293.04983 
L 211.028606 -294.522331 
L 209.713736 -304.497961 
L 208.398866 -307.292021 
L 207.083997 -298.776367 
L 205.769127 -308.926667 
L 204.454258 -313.803913 
L 203.139388 -301.40103 
L 201.824519 -313.243321 
L 200.509649 -297.803489 
L 199.194779 -304.484449 
L 197.87991 -308.414852 
L 196.56504 -307.149978 
L 195.250171 -311.5365 
L 193.935301 -301.333139 
L 192.620431 -302.796742 
L 191.305562 -306.711985 
L 189.990692 -306.461844 
L 188.675823 -306.506006 
L 187.360953 -298.002547 
L 186.046084 -291.936557 
L 184.731214 -283.410687 
L 183.416344 -284.743781 
L 182.101475 -291.855483 
L 180.786605 -284.843969 
L 179.471736 -291.420127 
L 178.156866 -289.260811 
L 176.841997 -287.995278 
L 175.527127 -266.058383 
L 174.212257 -292.612826 
L 172.897388 -287.299235 
L 171.582518 -285.466189 
L 170.267649 -282.442752 
L 168.952779 -290.498001 
L 167.63791 -285.04039 
L 166.32304 -270.962653 
L 165.00817 -278.148179 
L 163.693301 -283.536911 
L 162.378431 -283.343126 
L 161.063562 -285.316896 
L 159.748692 -278.067105 
L 158.433823 -276.367864 
L 157.118953 -272.469099 
L 155.804083 -274.83736 
L 154.489214 -274.111326 
L 153.174344 -272.160625 
L 151.859475 -264.570064 
L 150.544605 -255.064724 
L 149.229736 -258.097719 
L 147.914866 -252.177397 
L 146.599996 -259.59988 
L 145.285127 -242.394892 
L 143.970257 -253.336151 
L 142.655388 -262.438431 
L 141.340518 -254.034171 
L 140.025648 -240.640943 
L 138.710779 -248.314226 
L 137.395909 -253.832147 
L 136.08104 -244.688342 
L 134.76617 -240.43068 
L 133.451301 -258.02851 
L 132.136431 -251.621419 
L 130.821561 -251.845854 
L 129.506692 -251.845524 
L 128.191822 -247.442853 
L 126.876953 -243.118619 
L 125.562083 -244.410518 
L 124.247214 -244.4237 
L 122.932344 -244.410518 
L 121.617474 -244.384152 
L 120.302605 -244.305056 
L 118.987735 -244.331422 
L 117.672866 -244.094134 
L 116.357996 -243.342724 
L 115.043127 -242.696775 
L 113.728257 -240.258976 
L 112.413387 -241.905817 
L 111.098518 -237.346932 
L 109.783648 -235.717558 
L 108.468779 -236.161483 
L 107.153909 -233.82585 
L 105.83904 -226.273517 
L 104.52417 -218.218597 
L 103.2093 -204.770661 
L 101.894431 -194.436793 
L 100.579561 -196.745402 
L 99.264692 -187.667509 
L 97.949822 -178.815699 
L 96.634953 -163.208446 
L 95.320083 -152.62246 
L 94.005213 -146.569323 
L 92.690344 -152.729239 
L 91.375474 -145.069139 
L 90.060605 -148.546719 
L 88.745735 -149.302084 
L 87.430865 -152.6073 
L 86.115996 -148.851237 
L 84.801126 -149.526188 
L 83.486257 -155.595144 
L 82.171387 -148.666681 
L 80.856518 -158.501257 
L 79.541648 -149.297799 
L 78.226778 -148.256371 
L 76.911909 -149.297799 
L 75.597039 -136.31521 
L 74.28217 -127.823285 
L 72.9673 -114.29856 
L 71.652431 -92.454603 
L 70.337561 -81.606941 
L 69.022691 -71.771047 
L 67.707822 -64.679448 
L 66.392952 -62.609444 
z
" style="stroke: #d499a7; stroke-opacity: 0.2"/>
    </defs>
    <g clip-path="url(#p66df08768a)">
     <use xlink:href="#m7111a0bb77" x="0" y="362.097812" style="fill: #d499a7; fill-opacity: 0.2; stroke: #d499a7; stroke-opacity: 0.2"/>
    </g>
   </g>
   <g id="PolyCollection_3">
    <defs>
     <path id="m6c9224fde5" d="M 66.392952 -67.618187 
L 66.392952 -57.545994 
L 67.707822 -66.548087 
L 69.022691 -82.630902 
L 70.337561 -95.169567 
L 71.652431 -99.781841 
L 72.9673 -110.815048 
L 74.28217 -119.357067 
L 75.597039 -119.214365 
L 76.911909 -120.08376 
L 78.226778 -136.812525 
L 79.541648 -125.590476 
L 80.856518 -128.271495 
L 82.171387 -122.443781 
L 83.486257 -123.21892 
L 84.801126 -129.956565 
L 86.115996 -129.825069 
L 87.430865 -125.766135 
L 88.745735 -125.910814 
L 90.060605 -122.442463 
L 91.375474 -115.417766 
L 92.690344 -131.290319 
L 94.005213 -138.224056 
L 95.320083 -133.221904 
L 96.634953 -140.552109 
L 97.949822 -142.873571 
L 99.264692 -127.663775 
L 100.579561 -140.332618 
L 101.894431 -134.715497 
L 103.2093 -134.703962 
L 104.52417 -134.490074 
L 105.83904 -143.163589 
L 107.153909 -144.655204 
L 108.468779 -147.240319 
L 109.783648 -145.154497 
L 111.098518 -140.240999 
L 112.413387 -136.813184 
L 113.728257 -144.272908 
L 115.043127 -150.626609 
L 116.357996 -147.79399 
L 117.672866 -144.406712 
L 118.987735 -149.519597 
L 120.302605 -157.483557 
L 121.617474 -156.917033 
L 122.932344 -146.062121 
L 124.247214 -147.161553 
L 125.562083 -142.622772 
L 126.876953 -139.600652 
L 128.191822 -150.818746 
L 129.506692 -157.338878 
L 130.821561 -156.877156 
L 132.136431 -155.504184 
L 133.451301 -160.089764 
L 134.76617 -161.649929 
L 136.08104 -157.747869 
L 137.395909 -159.222347 
L 138.710779 -162.255671 
L 140.025648 -161.465372 
L 141.340518 -163.811222 
L 142.655388 -163.468474 
L 143.970257 -163.335329 
L 145.285127 -163.863953 
L 146.599996 -163.810563 
L 147.914866 -163.70642 
L 149.229736 -158.016136 
L 150.544605 -160.668811 
L 151.859475 -160.172156 
L 153.174344 -162.15021 
L 154.489214 -165.261971 
L 155.804083 -162.703881 
L 157.118953 -160.828651 
L 158.433823 -163.784857 
L 159.748692 -163.754867 
L 161.063562 -159.589483 
L 162.378431 -156.554511 
L 163.693301 -163.969414 
L 165.00817 -164.942952 
L 166.32304 -162.044749 
L 167.63791 -167.460505 
L 168.952779 -170.821089 
L 170.267649 -170.268737 
L 171.582518 -171.76892 
L 172.897388 -173.167598 
L 174.212257 -175.489719 
L 175.527127 -166.616487 
L 176.841997 -182.689416 
L 178.156866 -178.550068 
L 179.471736 -183.714366 
L 180.786605 -181.845727 
L 182.101475 -180.764751 
L 183.416344 -181.450248 
L 184.731214 -184.113141 
L 186.046084 -184.666811 
L 187.360953 -186.897313 
L 188.675823 -184.244967 
L 189.990692 -185.220482 
L 191.305562 -192.497297 
L 192.620431 -192.497297 
L 193.935301 -197.954908 
L 195.250171 -197.954908 
L 196.56504 -197.954908 
L 197.87991 -197.954908 
L 199.194779 -197.954908 
L 200.509649 -197.954908 
L 201.824519 -197.954908 
L 203.139388 -197.954908 
L 204.454258 -197.954908 
L 205.769127 -197.954908 
L 207.083997 -197.954908 
L 208.398866 -197.954908 
L 209.713736 -197.954908 
L 211.028606 -197.954908 
L 212.343475 -197.954908 
L 213.658345 -197.954908 
L 214.973214 -197.954908 
L 216.288084 -197.954908 
L 217.602953 -191.706339 
L 218.917823 -187.540626 
L 220.232693 -191.706339 
L 221.547562 -191.706339 
L 222.862432 -197.954908 
L 224.177301 -197.954908 
L 225.492171 -197.954908 
L 226.80704 -197.954908 
L 228.12191 -197.954908 
L 229.43678 -197.954908 
L 230.751649 -197.954908 
L 232.066519 -197.954908 
L 233.381388 -197.954908 
L 234.696258 -197.954908 
L 236.011127 -197.954908 
L 237.325997 -197.954908 
L 238.640867 -197.954908 
L 239.955736 -191.073573 
L 241.270606 -197.954908 
L 242.585475 -197.954908 
L 243.900345 -197.954908 
L 245.215214 -197.954908 
L 246.530084 -197.954908 
L 247.844954 -191.706339 
L 249.159823 -197.954908 
L 250.474693 -194.632884 
L 251.789562 -192.418201 
L 253.104432 -192.418201 
L 254.419302 -192.418201 
L 255.734171 -192.418201 
L 257.049041 -192.418201 
L 258.36391 -192.418201 
L 259.67878 -189.096177 
L 260.993649 -189.096177 
L 262.308519 -189.096177 
L 263.623389 -194.632884 
L 264.938258 -197.954908 
L 266.253128 -197.954908 
L 267.567997 -197.954908 
L 268.882867 -197.954908 
L 270.197736 -194.71198 
L 271.512606 -192.550028 
L 272.827476 -195.028363 
L 274.142345 -197.954908 
L 275.457215 -198.1131 
L 276.772084 -198.271292 
L 278.086954 -198.429483 
L 279.401823 -195.977513 
L 280.716693 -194.553788 
L 282.031563 -192.628464 
L 283.346432 -195.423842 
L 284.661302 -198.429483 
L 285.976171 -198.429483 
L 287.291041 -198.271292 
L 288.60591 -198.587675 
L 289.92078 -198.904058 
L 291.23565 -189.808039 
L 292.550519 -199.220442 
L 293.865389 -199.378633 
L 295.180258 -199.378633 
L 296.495128 -199.695016 
L 297.809997 -194.553788 
L 299.124867 -189.487701 
L 300.439737 -199.374678 
L 301.754606 -195.028363 
L 303.069476 -199.53287 
L 304.384345 -199.695016 
L 305.699215 -200.169591 
L 307.014085 -200.0114 
L 308.328954 -200.485975 
L 309.643824 -200.802358 
L 310.958693 -200.327783 
L 312.273563 -200.485975 
L 313.588432 -200.644166 
L 314.903302 -200.485975 
L 316.218172 -201.118741 
L 317.533041 -201.435124 
L 318.847911 -201.118741 
L 320.16278 -201.593316 
L 321.47765 -202.067891 
L 322.792519 -202.067891 
L 324.107389 -202.542466 
L 325.422259 -202.384274 
L 326.737128 -196.61028 
L 328.051998 -196.293896 
L 328.051998 -203.017041 
L 328.051998 -203.017041 
L 326.737128 -203.017041 
L 325.422259 -203.017041 
L 324.107389 -203.017041 
L 322.792519 -203.017041 
L 321.47765 -203.017041 
L 320.16278 -202.858849 
L 318.847911 -202.542466 
L 317.533041 -202.700657 
L 316.218172 -202.542466 
L 314.903302 -202.067891 
L 313.588432 -202.226083 
L 312.273563 -202.067891 
L 310.958693 -201.909699 
L 309.643824 -202.384274 
L 308.328954 -202.067891 
L 307.014085 -201.751508 
L 305.699215 -201.751508 
L 304.384345 -201.593316 
L 303.069476 -201.122696 
L 301.754606 -200.960549 
L 300.439737 -201.118741 
L 299.124867 -200.802358 
L 297.809997 -201.276933 
L 296.495128 -201.280888 
L 295.180258 -200.960549 
L 293.865389 -201.118741 
L 292.550519 -201.118741 
L 291.23565 -200.327783 
L 289.92078 -200.644166 
L 288.60591 -200.0114 
L 287.291041 -199.536825 
L 285.976171 -199.853208 
L 284.661302 -199.853208 
L 283.346432 -199.853208 
L 282.031563 -199.536825 
L 280.716693 -199.695016 
L 279.401823 -199.853208 
L 278.086954 -199.853208 
L 276.772084 -199.695016 
L 275.457215 -199.220442 
L 274.142345 -198.904058 
L 272.827476 -199.06225 
L 271.512606 -198.271292 
L 270.197736 -198.271292 
L 268.882867 -198.429483 
L 267.567997 -198.429483 
L 266.253128 -198.429483 
L 264.938258 -198.429483 
L 263.623389 -198.429483 
L 262.308519 -196.847567 
L 260.993649 -196.847567 
L 259.67878 -196.847567 
L 258.36391 -197.954908 
L 257.049041 -197.954908 
L 255.734171 -197.954908 
L 254.419302 -197.954908 
L 253.104432 -197.954908 
L 251.789562 -197.954908 
L 250.474693 -197.954908 
L 249.159823 -197.954908 
L 247.844954 -197.954908 
L 246.530084 -197.954908 
L 245.215214 -197.954908 
L 243.900345 -197.954908 
L 242.585475 -197.954908 
L 241.270606 -197.954908 
L 239.955736 -197.954908 
L 238.640867 -197.954908 
L 237.325997 -197.954908 
L 236.011127 -197.954908 
L 234.696258 -197.954908 
L 233.381388 -197.954908 
L 232.066519 -197.954908 
L 230.751649 -197.954908 
L 229.43678 -197.954908 
L 228.12191 -197.954908 
L 226.80704 -197.954908 
L 225.492171 -197.954908 
L 224.177301 -197.954908 
L 222.862432 -197.954908 
L 221.547562 -197.954908 
L 220.232693 -197.954908 
L 218.917823 -197.954908 
L 217.602953 -197.954908 
L 216.288084 -197.954908 
L 214.973214 -197.954908 
L 213.658345 -197.954908 
L 212.343475 -197.954908 
L 211.028606 -197.954908 
L 209.713736 -197.954908 
L 208.398866 -197.954908 
L 207.083997 -197.954908 
L 205.769127 -197.954908 
L 204.454258 -197.954908 
L 203.139388 -197.954908 
L 201.824519 -197.954908 
L 200.509649 -197.954908 
L 199.194779 -197.954908 
L 197.87991 -197.954908 
L 196.56504 -197.954908 
L 195.250171 -197.954908 
L 193.935301 -197.954908 
L 192.620431 -197.954908 
L 191.305562 -197.954908 
L 189.990692 -197.954908 
L 188.675823 -196.135705 
L 187.360953 -197.954908 
L 186.046084 -196.557549 
L 184.731214 -196.557549 
L 183.416344 -194.949268 
L 182.101475 -193.76283 
L 180.786605 -194.395597 
L 179.471736 -194.395597 
L 178.156866 -190.836285 
L 176.841997 -194.395597 
L 175.527127 -188.542506 
L 174.212257 -190.704459 
L 172.897388 -188.120662 
L 171.582518 -187.146465 
L 170.267649 -182.7171 
L 168.952779 -184.668789 
L 167.63791 -181.928119 
L 166.32304 -178.143055 
L 165.00817 -179.47483 
L 163.693301 -178.617629 
L 162.378431 -174.386333 
L 161.063562 -176.388775 
L 159.748692 -177.128321 
L 158.433823 -176.626063 
L 157.118953 -174.305919 
L 155.804083 -177.233123 
L 154.489214 -178.023422 
L 153.174344 -177.574553 
L 151.859475 -173.805638 
L 150.544605 -175.469946 
L 149.229736 -173.171553 
L 147.914866 -171.299619 
L 146.599996 -171.405739 
L 145.285127 -169.349248 
L 143.970257 -170.484273 
L 142.655388 -170.403859 
L 141.340518 -168.900379 
L 140.025648 -163.811881 
L 138.710779 -165.341067 
L 137.395909 -166.501139 
L 136.08104 -166.184756 
L 134.76617 -167.477313 
L 133.451301 -168.796236 
L 132.136431 -167.715919 
L 130.821561 -167.402831 
L 129.506692 -167.952547 
L 128.191822 -166.026894 
L 126.876953 -159.21246 
L 125.562083 -161.691125 
L 124.247214 -160.400874 
L 122.932344 -162.30972 
L 121.617474 -168.267942 
L 120.302605 -167.55608 
L 118.987735 -164.787726 
L 117.672866 -161.941265 
L 116.357996 -161.718479 
L 115.043127 -164.195167 
L 113.728257 -159.05295 
L 112.413387 -154.861531 
L 111.098518 -158.077764 
L 109.783648 -162.072433 
L 108.468779 -165.026661 
L 107.153909 -162.810331 
L 105.83904 -161.426483 
L 104.52417 -155.323582 
L 103.2093 -149.418091 
L 101.894431 -152.041435 
L 100.579561 -155.840341 
L 99.264692 -146.995781 
L 97.949822 -158.011522 
L 96.634953 -153.292138 
L 95.320083 -153.192279 
L 94.005213 -156.61548 
L 92.690344 -147.74126 
L 91.375474 -136.433524 
L 90.060605 -135.85184 
L 88.745735 -143.339577 
L 87.430865 -143.790094 
L 86.115996 -149.114561 
L 84.801126 -147.95317 
L 83.486257 -140.786101 
L 82.171387 -138.989308 
L 80.856518 -141.823574 
L 79.541648 -145.133734 
L 78.226778 -153.964782 
L 76.911909 -141.838405 
L 75.597039 -139.314589 
L 74.28217 -137.515818 
L 72.9673 -130.500679 
L 71.652431 -121.575045 
L 70.337561 -113.626575 
L 69.022691 -101.378918 
L 67.707822 -81.012734 
L 66.392952 -67.618187 
z
" style="stroke: #a9678f; stroke-opacity: 0.2"/>
    </defs>
    <g clip-path="url(#p66df08768a)">
     <use xlink:href="#m6c9224fde5" x="0" y="362.097812" style="fill: #a9678f; fill-opacity: 0.2; stroke: #a9678f; stroke-opacity: 0.2"/>
    </g>
   </g>
   <g id="PolyCollection_4">
    <defs>
     <path id="m9a7e3effb0" d="M 66.392952 -89.106213 
L 66.392952 -67.341352 
L 67.707822 -111.501534 
L 69.022691 -113.981188 
L 70.337561 -105.819818 
L 71.652431 -113.122998 
L 72.9673 -117.919501 
L 74.28217 -120.383665 
L 75.597039 -125.461287 
L 76.911909 -120.293693 
L 78.226778 -134.452174 
L 79.541648 -128.665326 
L 80.856518 -122.468828 
L 82.171387 -123.326029 
L 83.486257 -137.099247 
L 84.801126 -131.540459 
L 86.115996 -136.008714 
L 87.430865 -127.215566 
L 88.745735 -129.707743 
L 90.060605 -132.04074 
L 91.375474 -134.372748 
L 92.690344 -133.686922 
L 94.005213 -132.858723 
L 95.320083 -136.905792 
L 96.634953 -127.981147 
L 97.949822 -130.0439 
L 99.264692 -121.085311 
L 100.579561 -120.590632 
L 101.894431 -128.389809 
L 103.2093 -133.465454 
L 104.52417 -130.209013 
L 105.83904 -124.405687 
L 107.153909 -136.562714 
L 108.468779 -136.115163 
L 109.783648 -131.434668 
L 111.098518 -135.466907 
L 112.413387 -135.125147 
L 113.728257 -133.93871 
L 115.043127 -125.381861 
L 116.357996 -130.86419 
L 117.672866 -132.753262 
L 118.987735 -130.406752 
L 120.302605 -130.380058 
L 121.617474 -121.995901 
L 122.932344 -126.834258 
L 124.247214 -128.638302 
L 125.562083 -123.273958 
L 126.876953 -114.626478 
L 128.191822 -124.196413 
L 129.506692 -122.641191 
L 130.821561 -130.285472 
L 132.136431 -136.232159 
L 133.451301 -130.050821 
L 134.76617 -128.744752 
L 136.08104 -132.805992 
L 137.395909 -132.856416 
L 138.710779 -130.116405 
L 140.025648 -130.314474 
L 141.340518 -124.457429 
L 142.655388 -132.053593 
L 143.970257 -135.139319 
L 145.285127 -132.262868 
L 146.599996 -127.742542 
L 147.914866 -134.716486 
L 149.229736 -131.249123 
L 150.544605 -124.840714 
L 151.859475 -125.606625 
L 153.174344 -138.285025 
L 154.489214 -131.460375 
L 155.804083 -130.248561 
L 157.118953 -131.299217 
L 158.433823 -140.462467 
L 159.748692 -124.776778 
L 161.063562 -126.030117 
L 162.378431 -120.055747 
L 163.693301 -122.127727 
L 165.00817 -130.919227 
L 166.32304 -125.310016 
L 167.63791 -131.104773 
L 168.952779 -131.975486 
L 170.267649 -131.303172 
L 171.582518 -130.034343 
L 172.897388 -129.534721 
L 174.212257 -125.68671 
L 175.527127 -125.128425 
L 176.841997 -137.196139 
L 178.156866 -133.372186 
L 179.471736 -133.345162 
L 180.786605 -138.498913 
L 182.101475 -133.120728 
L 183.416344 -135.519638 
L 184.731214 -127.395179 
L 186.046084 -126.186002 
L 187.360953 -130.509907 
L 188.675823 -131.536834 
L 189.990692 -129.219326 
L 191.305562 -136.273025 
L 192.620431 -126.346171 
L 193.935301 -133.246622 
L 195.250171 -128.308736 
L 196.56504 -135.19172 
L 197.87991 -132.433583 
L 199.194779 -134.46239 
L 200.509649 -134.24224 
L 201.824519 -132.659006 
L 203.139388 -138.829139 
L 204.454258 -129.864287 
L 205.769127 -131.878923 
L 207.083997 -132.620447 
L 208.398866 -136.980933 
L 209.713736 -136.62632 
L 211.028606 -139.542319 
L 212.343475 -137.238653 
L 213.658345 -137.380696 
L 214.973214 -133.35406 
L 216.288084 -131.948791 
L 217.602953 -144.563256 
L 218.917823 -131.196392 
L 220.232693 -132.501473 
L 221.547562 -136.506688 
L 222.862432 -129.166266 
L 224.177301 -143.325406 
L 225.492171 -128.057936 
L 226.80704 -134.044501 
L 228.12191 -137.813746 
L 229.43678 -142.651773 
L 230.751649 -138.724996 
L 232.066519 -133.002413 
L 233.381388 -132.54926 
L 234.696258 -131.039848 
L 236.011127 -132.673507 
L 237.325997 -128.850872 
L 238.640867 -130.680622 
L 239.955736 -133.122046 
L 241.270606 -135.756596 
L 242.585475 -137.325329 
L 243.900345 -138.049715 
L 245.215214 -135.310034 
L 246.530084 -143.655302 
L 247.844954 -128.850213 
L 249.159823 -127.836138 
L 250.474693 -128.427709 
L 251.789562 -131.011506 
L 253.104432 -126.148102 
L 254.419302 -138.922406 
L 255.734171 -135.810974 
L 257.049041 -127.082092 
L 258.36391 -134.373078 
L 259.67878 -125.910814 
L 260.993649 -134.320347 
L 262.308519 -135.534468 
L 263.623389 -132.448743 
L 264.938258 -133.702411 
L 266.253128 -136.848777 
L 267.567997 -134.704621 
L 268.882867 -133.689229 
L 270.197736 -136.89195 
L 271.512606 -136.984888 
L 272.827476 -125.713404 
L 274.142345 -128.664008 
L 275.457215 -130.577797 
L 276.772084 -135.389459 
L 278.086954 -141.585628 
L 279.401823 -136.088798 
L 280.716693 -140.357995 
L 282.031563 -137.24887 
L 283.346432 -136.457582 
L 284.661302 -137.784415 
L 285.976171 -136.260172 
L 287.291041 -135.24445 
L 288.60591 -132.305382 
L 289.92078 -136.376839 
L 291.23565 -133.780519 
L 292.550519 -134.53127 
L 293.865389 -141.611663 
L 295.180258 -130.603503 
L 296.495128 -140.240999 
L 297.809997 -137.274247 
L 299.124867 -132.844551 
L 300.439737 -128.152522 
L 301.754606 -132.22299 
L 303.069476 -132.619458 
L 304.384345 -141.802812 
L 305.699215 -137.866806 
L 307.014085 -139.64778 
L 308.328954 -139.38248 
L 309.643824 -136.273025 
L 310.958693 -140.767645 
L 312.273563 -124.379651 
L 313.588432 -129.088489 
L 314.903302 -131.142673 
L 316.218172 -136.889973 
L 317.533041 -134.164133 
L 318.847911 -132.687678 
L 320.16278 -125.922679 
L 321.47765 -137.260405 
L 322.792519 -133.053167 
L 324.107389 -138.999524 
L 325.422259 -126.623006 
L 326.737128 -135.956313 
L 328.051998 -133.649351 
L 328.051998 -145.884485 
L 328.051998 -145.884485 
L 326.737128 -144.923471 
L 325.422259 -142.087557 
L 324.107389 -151.15721 
L 322.792519 -147.785092 
L 321.47765 -152.806028 
L 320.16278 -146.557788 
L 318.847911 -147.268992 
L 317.533041 -147.361929 
L 316.218172 -148.467623 
L 314.903302 -146.846159 
L 313.588432 -143.365943 
L 312.273563 -139.545285 
L 310.958693 -153.2984 
L 309.643824 -150.089746 
L 308.328954 -154.453858 
L 307.014085 -155.099148 
L 305.699215 -153.596327 
L 304.384345 -154.333566 
L 303.069476 -148.800814 
L 301.754606 -148.164093 
L 300.439737 -147.136506 
L 299.124867 -144.750449 
L 297.809997 -148.41621 
L 296.495128 -152.621471 
L 295.180258 -147.663482 
L 293.865389 -152.923354 
L 292.550519 -145.910521 
L 291.23565 -145.580296 
L 289.92078 -149.325153 
L 288.60591 -142.826114 
L 287.291041 -148.019084 
L 285.976171 -147.309199 
L 284.661302 -150.630234 
L 283.346432 -151.96201 
L 282.031563 -148.929345 
L 280.716693 -152.725614 
L 279.401823 -151.738235 
L 278.086954 -152.304759 
L 276.772084 -147.257127 
L 275.457215 -146.029494 
L 274.142345 -144.053088 
L 272.827476 -144.436043 
L 271.512606 -150.576515 
L 270.197736 -152.699578 
L 268.882867 -151.001655 
L 267.567997 -148.612632 
L 266.253128 -150.115782 
L 264.938258 -148.469271 
L 263.623389 -147.863858 
L 262.308519 -149.746668 
L 260.993649 -147.466072 
L 259.67878 -139.490577 
L 258.36391 -144.473284 
L 257.049041 -141.019104 
L 255.734171 -151.320016 
L 254.419302 -153.19986 
L 253.104432 -144.449226 
L 251.789562 -148.274497 
L 250.474693 -142.838637 
L 249.159823 -139.176171 
L 247.844954 -146.941403 
L 246.530084 -157.155969 
L 245.215214 -149.351189 
L 243.900345 -154.704657 
L 242.585475 -152.886113 
L 241.270606 -149.984285 
L 239.955736 -146.028506 
L 238.640867 -147.730054 
L 237.325997 -149.192338 
L 236.011127 -149.379202 
L 234.696258 -145.69894 
L 233.381388 -148.298226 
L 232.066519 -149.628683 
L 230.751649 -152.595106 
L 229.43678 -154.229094 
L 228.12191 -148.943516 
L 226.80704 -148.523319 
L 225.492171 -143.115143 
L 224.177301 -152.133055 
L 222.862432 -145.331803 
L 221.547562 -149.074024 
L 220.232693 -151.209611 
L 218.917823 -149.45632 
L 217.602953 -155.323253 
L 216.288084 -144.697059 
L 214.973214 -148.431041 
L 213.658345 -149.956931 
L 212.343475 -150.247279 
L 211.028606 -153.398588 
L 209.713736 -150.683953 
L 208.398866 -152.369353 
L 207.083997 -148.878591 
L 205.769127 -149.047988 
L 204.454258 -145.25106 
L 203.139388 -151.662105 
L 201.824519 -149.983296 
L 200.509649 -151.500618 
L 199.194779 -152.462291 
L 197.87991 -150.985836 
L 196.56504 -148.863431 
L 195.250171 -145.040137 
L 193.935301 -153.255886 
L 192.620431 -142.917733 
L 191.305562 -151.736587 
L 189.990692 -145.081004 
L 188.675823 -147.650958 
L 187.360953 -147.46772 
L 186.046084 -143.247629 
L 184.731214 -147.017533 
L 183.416344 -154.283802 
L 182.101475 -150.503022 
L 180.786605 -154.598867 
L 179.471736 -150.168512 
L 178.156866 -151.974863 
L 176.841997 -156.366329 
L 175.527127 -149.487959 
L 174.212257 -141.191467 
L 172.897388 -149.852788 
L 171.582518 -144.35497 
L 170.267649 -149.338995 
L 168.952779 -151.789977 
L 167.63791 -146.437167 
L 166.32304 -145.764853 
L 165.00817 -148.731275 
L 163.693301 -143.67145 
L 162.378431 -141.482474 
L 161.063562 -143.207751 
L 159.748692 -140.811148 
L 158.433823 -156.61548 
L 157.118953 -146.266452 
L 155.804083 -146.490227 
L 154.489214 -147.454537 
L 153.174344 -150.814132 
L 151.859475 -138.712143 
L 150.544605 -140.069954 
L 149.229736 -146.253269 
L 147.914866 -149.351189 
L 146.599996 -146.940744 
L 145.285127 -147.070263 
L 143.970257 -149.588476 
L 142.655388 -143.840518 
L 141.340518 -141.20432 
L 140.025648 -146.727844 
L 138.710779 -144.594894 
L 137.395909 -147.467061 
L 136.08104 -147.61174 
L 134.76617 -144.845034 
L 133.451301 -145.00059 
L 132.136431 -150.669123 
L 130.821561 -145.845267 
L 129.506692 -140.286808 
L 128.191822 -145.896679 
L 126.876953 -134.00726 
L 125.562083 -138.488697 
L 124.247214 -145.936227 
L 122.932344 -142.985953 
L 121.617474 -137.568549 
L 120.302605 -141.653189 
L 118.987735 -142.324514 
L 117.672866 -146.213722 
L 116.357996 -144.403416 
L 115.043127 -145.593479 
L 113.728257 -145.263913 
L 112.413387 -149.590124 
L 111.098518 -147.334575 
L 109.783648 -145.106051 
L 108.468779 -146.740368 
L 107.153909 -150.537626 
L 105.83904 -139.213742 
L 104.52417 -146.138251 
L 103.2093 -143.880395 
L 101.894431 -142.365051 
L 100.579561 -138.951407 
L 99.264692 -137.381026 
L 97.949822 -146.674784 
L 96.634953 -141.657143 
L 95.320083 -147.664471 
L 94.005213 -145.211182 
L 92.690344 -150.049869 
L 91.375474 -149.521904 
L 90.060605 -144.434395 
L 88.745735 -140.125651 
L 87.430865 -140.966703 
L 86.115996 -147.808821 
L 84.801126 -146.386085 
L 83.486257 -150.775243 
L 82.171387 -140.229134 
L 80.856518 -135.338047 
L 79.541648 -145.649175 
L 78.226778 -148.154206 
L 76.911909 -140.652297 
L 75.597039 -143.207751 
L 74.28217 -137.593926 
L 72.9673 -139.834644 
L 71.652431 -134.059002 
L 70.337561 -128.430346 
L 69.022691 -130.975583 
L 67.707822 -127.777146 
L 66.392952 -89.106213 
z
" style="stroke: #6c3f70; stroke-opacity: 0.2"/>
    </defs>
    <g clip-path="url(#p66df08768a)">
     <use xlink:href="#m9a7e3effb0" x="0" y="362.097812" style="fill: #6c3f70; fill-opacity: 0.2; stroke: #6c3f70; stroke-opacity: 0.2"/>
    </g>
   </g>
   <g id="PolyCollection_5">
    <defs>
     <path id="ma4323d3fd4" d="M 66.392952 -75.89886 
L 66.392952 -60.735862 
L 67.707822 -78.565377 
L 69.022691 -94.093204 
L 70.337561 -102.652031 
L 71.652431 -109.336945 
L 72.9673 -109.261145 
L 74.28217 -111.647532 
L 75.597039 -115.109292 
L 76.911909 -108.942125 
L 78.226778 -121.680177 
L 79.541648 -127.519755 
L 80.856518 -126.464815 
L 82.171387 -116.483911 
L 83.486257 -124.151592 
L 84.801126 -123.406114 
L 86.115996 -126.372866 
L 87.430865 -120.004664 
L 88.745735 -129.904164 
L 90.060605 -129.495173 
L 91.375474 -130.683588 
L 92.690344 -138.445524 
L 94.005213 -138.695005 
L 95.320083 -125.027578 
L 96.634953 -125.710768 
L 97.949822 -129.563393 
L 99.264692 -131.63109 
L 100.579561 -129.364995 
L 101.894431 -137.272928 
L 103.2093 -136.509983 
L 104.52417 -134.314086 
L 105.83904 -138.801125 
L 107.153909 -131.829818 
L 108.468779 -141.596833 
L 109.783648 -141.847303 
L 111.098518 -142.547301 
L 112.413387 -145.382556 
L 113.728257 -143.970367 
L 115.043127 -143.259822 
L 116.357996 -142.772065 
L 117.672866 -135.587199 
L 118.987735 -138.619205 
L 120.302605 -147.609104 
L 121.617474 -139.120804 
L 122.932344 -142.455682 
L 124.247214 -143.903794 
L 125.562083 -148.200345 
L 126.876953 -148.532877 
L 128.191822 -140.715574 
L 129.506692 -150.058767 
L 130.821561 -145.210523 
L 132.136431 -144.39254 
L 133.451301 -142.639909 
L 134.76617 -147.569226 
L 136.08104 -146.855386 
L 137.395909 -147.465083 
L 138.710779 -147.988104 
L 140.025648 -146.239098 
L 141.340518 -153.621704 
L 142.655388 -152.340022 
L 143.970257 -153.790442 
L 145.285127 -154.89976 
L 146.599996 -151.721427 
L 147.914866 -149.587158 
L 149.229736 -153.133946 
L 150.544605 -146.422666 
L 151.859475 -146.409154 
L 153.174344 -144.433077 
L 154.489214 -146.133637 
L 155.804083 -140.147732 
L 157.118953 -138.68413 
L 158.433823 -149.362394 
L 159.748692 -150.272985 
L 161.063562 -150.995064 
L 162.378431 -138.738178 
L 163.693301 -146.370595 
L 165.00817 -143.523475 
L 166.32304 -151.169074 
L 167.63791 -148.901661 
L 168.952779 -153.19953 
L 170.267649 -155.386529 
L 171.582518 -153.265773 
L 172.897388 -154.582388 
L 174.212257 -151.735928 
L 175.527127 -157.337559 
L 176.841997 -163.086507 
L 178.156866 -171.704985 
L 179.471736 -169.3476 
L 180.786605 -166.526516 
L 182.101475 -174.989768 
L 183.416344 -168.621237 
L 184.731214 -175.478185 
L 186.046084 -173.93285 
L 187.360953 -181.410371 
L 188.675823 -178.088017 
L 189.990692 -178.665746 
L 191.305562 -182.372374 
L 192.620431 -177.83491 
L 193.935301 -179.540743 
L 195.250171 -183.34723 
L 196.56504 -188.792317 
L 197.87991 -192.207279 
L 199.194779 -199.325903 
L 200.509649 -198.06037 
L 201.824519 -202.173352 
L 203.139388 -202.173352 
L 204.454258 -194.184675 
L 205.769127 -193.433264 
L 207.083997 -202.173352 
L 208.398866 -202.173352 
L 209.713736 -199.325903 
L 211.028606 -194.066031 
L 212.343475 -202.173352 
L 213.658345 -202.173352 
L 214.973214 -202.173352 
L 216.288084 -202.173352 
L 217.602953 -202.173352 
L 218.917823 -202.173352 
L 220.232693 -202.173352 
L 221.547562 -196.755289 
L 222.862432 -202.173352 
L 224.177301 -202.173352 
L 225.492171 -202.173352 
L 226.80704 -202.173352 
L 228.12191 -202.173352 
L 229.43678 -202.173352 
L 230.751649 -202.173352 
L 232.066519 -202.173352 
L 233.381388 -202.173352 
L 234.696258 -188.252488 
L 236.011127 -202.173352 
L 237.325997 -202.173352 
L 238.640867 -202.173352 
L 239.955736 -202.173352 
L 241.270606 -202.173352 
L 242.585475 -195.845687 
L 243.900345 -202.173352 
L 245.215214 -202.173352 
L 246.530084 -202.173352 
L 247.844954 -202.173352 
L 249.159823 -202.173352 
L 250.474693 -202.173352 
L 251.789562 -202.173352 
L 253.104432 -202.173352 
L 254.419302 -202.173352 
L 255.734171 -202.173352 
L 257.049041 -202.173352 
L 258.36391 -202.173352 
L 259.67878 -202.173352 
L 260.993649 -202.173352 
L 262.308519 -202.173352 
L 263.623389 -200.472792 
L 264.938258 -195.727043 
L 266.253128 -200.472792 
L 267.567997 -199.339085 
L 268.882867 -199.339085 
L 270.197736 -199.339085 
L 271.512606 -202.173352 
L 272.827476 -202.173352 
L 274.142345 -202.173352 
L 275.457215 -202.173352 
L 276.772084 -202.173352 
L 278.086954 -202.173352 
L 279.401823 -202.173352 
L 280.716693 -202.173352 
L 282.031563 -202.173352 
L 283.346432 -202.173352 
L 284.661302 -202.173352 
L 285.976171 -202.173352 
L 287.291041 -202.173352 
L 288.60591 -202.173352 
L 289.92078 -202.173352 
L 291.23565 -202.173352 
L 292.550519 -202.173352 
L 293.865389 -202.173352 
L 295.180258 -202.173352 
L 296.495128 -198.376753 
L 297.809997 -195.845687 
L 299.124867 -198.376753 
L 300.439737 -202.173352 
L 301.754606 -202.173352 
L 303.069476 -202.173352 
L 304.384345 -202.173352 
L 305.699215 -202.173352 
L 307.014085 -202.173352 
L 308.328954 -202.173352 
L 309.643824 -202.173352 
L 310.958693 -202.173352 
L 312.273563 -199.325903 
L 313.588432 -199.325903 
L 314.903302 -195.264333 
L 316.218172 -190.941087 
L 317.533041 -187.738366 
L 318.847911 -196.135705 
L 320.16278 -202.173352 
L 321.47765 -202.173352 
L 322.792519 -202.173352 
L 324.107389 -202.173352 
L 325.422259 -202.173352 
L 326.737128 -202.173352 
L 328.051998 -202.173352 
L 328.051998 -202.173352 
L 328.051998 -202.173352 
L 326.737128 -202.173352 
L 325.422259 -202.173352 
L 324.107389 -202.173352 
L 322.792519 -202.173352 
L 321.47765 -202.173352 
L 320.16278 -202.173352 
L 318.847911 -202.173352 
L 317.533041 -200.907819 
L 316.218172 -200.830701 
L 314.903302 -202.173352 
L 313.588432 -202.173352 
L 312.273563 -202.173352 
L 310.958693 -202.173352 
L 309.643824 -202.173352 
L 308.328954 -202.173352 
L 307.014085 -202.173352 
L 305.699215 -202.173352 
L 304.384345 -202.173352 
L 303.069476 -202.173352 
L 301.754606 -202.173352 
L 300.439737 -202.173352 
L 299.124867 -202.173352 
L 297.809997 -202.173352 
L 296.495128 -202.173352 
L 295.180258 -202.173352 
L 293.865389 -202.173352 
L 292.550519 -202.173352 
L 291.23565 -202.173352 
L 289.92078 -202.173352 
L 288.60591 -202.173352 
L 287.291041 -202.173352 
L 285.976171 -202.173352 
L 284.661302 -202.173352 
L 283.346432 -202.173352 
L 282.031563 -202.173352 
L 280.716693 -202.173352 
L 279.401823 -202.173352 
L 278.086954 -202.173352 
L 276.772084 -202.173352 
L 275.457215 -202.173352 
L 274.142345 -202.173352 
L 272.827476 -202.173352 
L 271.512606 -202.173352 
L 270.197736 -202.173352 
L 268.882867 -202.173352 
L 267.567997 -202.173352 
L 266.253128 -202.173352 
L 264.938258 -202.173352 
L 263.623389 -202.173352 
L 262.308519 -202.173352 
L 260.993649 -202.173352 
L 259.67878 -202.173352 
L 258.36391 -202.173352 
L 257.049041 -202.173352 
L 255.734171 -202.173352 
L 254.419302 -202.173352 
L 253.104432 -202.173352 
L 251.789562 -202.173352 
L 250.474693 -202.173352 
L 249.159823 -202.173352 
L 247.844954 -202.173352 
L 246.530084 -202.173352 
L 245.215214 -202.173352 
L 243.900345 -202.173352 
L 242.585475 -202.173352 
L 241.270606 -202.173352 
L 239.955736 -202.173352 
L 238.640867 -202.173352 
L 237.325997 -202.173352 
L 236.011127 -202.173352 
L 234.696258 -202.173352 
L 233.381388 -202.173352 
L 232.066519 -202.173352 
L 230.751649 -202.173352 
L 229.43678 -202.173352 
L 228.12191 -202.173352 
L 226.80704 -202.173352 
L 225.492171 -202.173352 
L 224.177301 -202.173352 
L 222.862432 -202.173352 
L 221.547562 -202.173352 
L 220.232693 -202.173352 
L 218.917823 -202.173352 
L 217.602953 -202.173352 
L 216.288084 -202.173352 
L 214.973214 -202.173352 
L 213.658345 -202.173352 
L 212.343475 -202.173352 
L 211.028606 -202.173352 
L 209.713736 -202.173352 
L 208.398866 -202.173352 
L 207.083997 -202.173352 
L 205.769127 -202.173352 
L 204.454258 -202.173352 
L 203.139388 -202.173352 
L 201.824519 -202.173352 
L 200.509649 -202.173352 
L 199.194779 -202.173352 
L 197.87991 -202.173352 
L 196.56504 -201.303298 
L 195.250171 -198.587675 
L 193.935301 -196.400017 
L 192.620431 -195.635094 
L 191.305562 -195.929396 
L 189.990692 -194.46151 
L 188.675823 -195.002328 
L 187.360953 -195.292016 
L 186.046084 -190.153425 
L 184.731214 -193.394376 
L 183.416344 -187.844486 
L 182.101475 -193.091505 
L 180.786605 -183.533764 
L 179.471736 -186.381872 
L 178.156866 -187.911388 
L 176.841997 -181.227132 
L 175.527127 -178.129213 
L 174.212257 -172.433325 
L 172.897388 -170.103954 
L 171.582518 -170.681023 
L 170.267649 -169.538089 
L 168.952779 -167.450619 
L 167.63791 -165.130475 
L 166.32304 -163.364001 
L 165.00817 -156.535396 
L 163.693301 -158.620889 
L 162.378431 -159.359117 
L 161.063562 -172.014118 
L 159.748692 -168.150287 
L 158.433823 -164.56461 
L 157.118953 -155.073112 
L 155.804083 -158.633412 
L 154.489214 -163.19823 
L 153.174344 -157.036007 
L 151.859475 -161.083405 
L 150.544605 -164.855946 
L 149.229736 -166.859707 
L 147.914866 -161.663112 
L 146.599996 -161.214902 
L 145.285127 -165.090927 
L 143.970257 -165.908909 
L 142.655388 -165.435982 
L 141.340518 -165.948457 
L 140.025648 -161.519091 
L 138.710779 -164.881323 
L 137.395909 -158.302199 
L 136.08104 -158.289675 
L 134.76617 -159.567732 
L 133.451301 -155.415201 
L 132.136431 -157.076543 
L 130.821561 -157.129603 
L 129.506692 -163.140226 
L 128.191822 -154.89218 
L 126.876953 -163.259199 
L 125.562083 -162.05892 
L 124.247214 -157.141797 
L 122.932344 -153.862617 
L 121.617474 -152.791527 
L 120.302605 -159.01505 
L 118.987735 -152.198309 
L 117.672866 -150.86884 
L 116.357996 -154.439357 
L 115.043127 -158.762932 
L 113.728257 -156.878804 
L 112.413387 -160.321449 
L 111.098518 -157.089396 
L 109.783648 -153.505038 
L 108.468779 -153.991147 
L 107.153909 -149.087536 
L 105.83904 -151.988705 
L 104.52417 -150.564651 
L 103.2093 -151.815683 
L 101.894431 -152.199297 
L 100.579561 -145.899975 
L 99.264692 -149.930895 
L 97.949822 -144.065941 
L 96.634953 -145.316973 
L 95.320083 -145.187783 
L 94.005213 -151.014508 
L 92.690344 -150.682306 
L 91.375474 -147.848039 
L 90.060605 -145.295881 
L 88.745735 -144.196119 
L 87.430865 -135.750334 
L 86.115996 -142.144242 
L 84.801126 -138.738837 
L 83.486257 -144.242918 
L 82.171387 -135.246428 
L 80.856518 -142.721971 
L 79.541648 -148.046438 
L 78.226778 -139.741706 
L 76.911909 -129.263159 
L 75.597039 -136.261161 
L 74.28217 -130.595264 
L 72.9673 -129.7786 
L 71.652431 -127.634115 
L 70.337561 -125.596409 
L 69.022691 -116.741962 
L 67.707822 -100.022095 
L 66.392952 -75.89886 
z
" style="stroke: #2d1e3e; stroke-opacity: 0.2"/>
    </defs>
    <g clip-path="url(#p66df08768a)">
     <use xlink:href="#ma4323d3fd4" x="0" y="362.097812" style="fill: #2d1e3e; fill-opacity: 0.2; stroke: #2d1e3e; stroke-opacity: 0.2"/>
    </g>
   </g>
   <g id="line2d_13">
    <path d="M 66.392952 294.9542 
L 67.707822 273.005112 
L 69.022691 245.229298 
L 70.337561 247.681268 
L 71.652431 249.263184 
L 72.9673 252.071086 
L 74.28217 238.295231 
L 75.597039 231.110695 
L 76.911909 228.131419 
L 78.226778 231.295251 
L 79.541648 229.805614 
L 80.856518 222.739721 
L 82.171387 222.805634 
L 83.486257 219.865906 
L 84.801126 219.404514 
L 86.115996 223.688871 
L 87.430865 222.027858 
L 88.745735 225.099413 
L 90.060605 216.517517 
L 91.375474 221.606014 
L 92.690344 221.48737 
L 94.005213 223.662505 
L 95.320083 219.668167 
L 96.634953 221.105074 
L 97.949822 214.751043 
L 99.264692 220.03728 
L 100.579561 218.653104 
L 101.894431 220.762325 
L 103.2093 225.08623 
L 104.52417 225.349883 
L 105.83904 222.818817 
L 107.153909 217.203014 
L 108.468779 222.43652 
L 109.783648 215.13334 
L 111.098518 214.790591 
L 112.413387 221.566466 
L 113.728257 223.412035 
L 115.043127 222.858364 
L 116.357996 223.860245 
L 117.672866 228.23688 
L 118.987735 222.621077 
L 120.302605 227.722757 
L 121.617474 219.206774 
L 122.932344 218.78493 
L 124.247214 219.523158 
L 125.562083 221.447822 
L 126.876953 216.702073 
L 128.191822 219.470427 
L 129.506692 213.274588 
L 130.821561 212.668187 
L 132.136431 218.745382 
L 133.451301 215.779289 
L 134.76617 221.223718 
L 136.08104 219.892271 
L 137.395909 215.265166 
L 138.710779 215.818837 
L 140.025648 222.265146 
L 141.340518 216.003394 
L 142.655388 219.061765 
L 143.970257 224.822577 
L 145.285127 223.319757 
L 146.599996 216.174768 
L 147.914866 220.946882 
L 149.229736 226.602233 
L 150.544605 220.656864 
L 151.859475 217.822598 
L 153.174344 225.639901 
L 154.489214 221.223718 
L 155.804083 227.551383 
L 157.118953 218.323538 
L 158.433823 226.351763 
L 159.748692 218.560825 
L 161.063562 225.508074 
L 162.378431 220.353664 
L 163.693301 215.924298 
L 165.00817 214.816957 
L 166.32304 221.461005 
L 167.63791 223.491131 
L 168.952779 222.502433 
L 170.267649 221.777388 
L 171.582518 223.570227 
L 172.897388 219.351783 
L 174.212257 222.093772 
L 175.527127 225.442161 
L 176.841997 221.105074 
L 178.156866 215.396993 
L 179.471736 217.400753 
L 180.786605 218.995852 
L 182.101475 220.300933 
L 183.416344 220.590951 
L 184.731214 216.649343 
L 186.046084 220.063646 
L 187.360953 214.342382 
L 188.675823 223.095652 
L 189.990692 219.061765 
L 191.305562 219.022217 
L 192.620431 219.470427 
L 193.935301 221.223718 
L 195.250171 224.282089 
L 196.56504 224.268906 
L 197.87991 222.594712 
L 200.509649 215.739741 
L 201.824519 220.775508 
L 203.139388 217.848963 
L 204.454258 215.990211 
L 205.769127 220.68323 
L 207.083997 215.212436 
L 208.398866 216.267046 
L 209.713736 220.393212 
L 211.028606 226.219937 
L 212.343475 218.165346 
L 213.658345 216.741621 
L 214.973214 225.692631 
L 216.288084 222.357424 
L 217.602953 217.624858 
L 218.917823 223.926158 
L 220.232693 224.440281 
L 221.547562 216.398873 
L 222.862432 215.041061 
L 224.177301 218.653104 
L 225.492171 216.807535 
L 226.80704 213.393232 
L 228.12191 218.468547 
L 229.43678 224.493011 
L 230.751649 212.892292 
L 232.066519 220.670047 
L 233.381388 215.911115 
L 234.696258 220.195472 
L 236.011127 218.073068 
L 237.325997 228.896012 
L 238.640867 222.581529 
L 239.955736 220.274568 
L 241.270606 217.703954 
L 242.585475 220.142741 
L 243.900345 222.054224 
L 245.215214 226.98453 
L 246.530084 226.193571 
L 247.844954 227.314095 
L 249.159823 217.189831 
L 250.474693 220.432759 
L 251.789562 216.464786 
L 253.104432 215.199253 
L 254.419302 219.312235 
L 255.734171 217.044822 
L 257.049041 217.163466 
L 258.36391 217.796232 
L 259.67878 222.502433 
L 260.993649 230.148362 
L 263.623389 223.280209 
L 264.938258 220.920517 
L 266.253128 219.074948 
L 267.567997 223.926158 
L 268.882867 217.651223 
L 270.197736 215.489271 
L 271.512606 217.83578 
L 272.827476 216.978909 
L 274.142345 217.255744 
L 275.457215 217.651223 
L 276.772084 214.961966 
L 278.086954 214.606034 
L 279.401823 211.574028 
L 280.716693 218.521277 
L 282.031563 218.455364 
L 283.346432 219.681349 
L 284.661302 221.803754 
L 285.976171 214.88287 
L 287.291041 217.413936 
L 288.60591 223.83388 
L 289.92078 221.645562 
L 291.23565 217.005274 
L 292.550519 218.481729 
L 293.865389 216.767987 
L 295.180258 219.826358 
L 296.495128 224.756664 
L 297.809997 218.824478 
L 300.439737 216.016576 
L 301.754606 213.907355 
L 303.069476 214.408295 
L 304.384345 216.649343 
L 305.699215 216.267046 
L 307.014085 212.98457 
L 308.328954 216.148403 
L 309.643824 219.681349 
L 310.958693 218.969487 
L 312.273563 214.751043 
L 313.588432 219.53634 
L 314.903302 218.007154 
L 316.218172 212.180429 
L 317.533041 217.756684 
L 318.847911 218.969487 
L 320.16278 218.297172 
L 321.47765 224.756664 
L 322.792519 216.847082 
L 324.107389 220.828239 
L 325.422259 217.163466 
L 326.737128 224.598472 
L 328.051998 221.645562 
L 328.051998 221.645562 
" clip-path="url(#p66df08768a)" style="fill: none; stroke: #edd1cb; stroke-width: 1.5; stroke-linecap: round"/>
   </g>
   <g id="line2d_14">
    <path d="M 66.392952 302.771503 
L 67.707822 300.741378 
L 69.022691 293.978685 
L 70.337561 286.319574 
L 71.652431 279.39869 
L 72.9673 258.491029 
L 74.28217 246.679388 
L 75.597039 238.38751 
L 76.911909 220.419577 
L 78.226778 222.146502 
L 79.541648 219.905454 
L 80.856518 213.604154 
L 82.171387 224.150263 
L 83.486257 215.858385 
L 84.801126 223.319757 
L 86.115996 223.108835 
L 87.430865 216.88663 
L 88.745735 222.370607 
L 90.060605 224.38755 
L 91.375474 227.525018 
L 92.690344 217.875328 
L 94.005213 223.306574 
L 95.320083 219.299053 
L 96.634953 214.289651 
L 97.949822 201.937521 
L 99.264692 195.491212 
L 100.579561 185.182391 
L 101.894431 189.651305 
L 103.2093 174.939483 
L 104.52417 161.915039 
L 107.153909 140.176872 
L 108.468779 140.836004 
L 109.783648 136.709839 
L 111.098518 137.487614 
L 112.413387 125.768251 
L 113.728257 133.045066 
L 115.043127 126.256008 
L 116.357996 125.003658 
L 117.672866 130.553548 
L 118.987735 121.523442 
L 120.302605 130.223982 
L 121.617474 121.352068 
L 122.932344 120.231544 
L 124.247214 120.205178 
L 125.562083 121.457529 
L 126.876953 124.634544 
L 128.191822 123.369011 
L 129.506692 120.903858 
L 130.821561 120.376553 
L 132.136431 117.225903 
L 133.451301 112.730624 
L 134.76617 133.031883 
L 136.08104 133.888755 
L 137.395909 120.139265 
L 138.710779 127.126062 
L 140.025648 139.636384 
L 141.340518 122.222122 
L 142.655388 109.869992 
L 145.285127 144.092115 
L 146.599996 114.431184 
L 147.914866 127.060149 
L 149.229736 115.841726 
L 150.544605 122.920801 
L 151.859475 114.338905 
L 153.174344 99.877554 
L 154.489214 102.118602 
L 155.804083 103.871893 
L 157.118953 107.971692 
L 158.433823 104.056449 
L 159.748692 101.129904 
L 161.063562 95.975494 
L 162.378431 92.719383 
L 166.32304 111.425543 
L 167.63791 92.772113 
L 168.952779 85.877594 
L 170.267649 100.338946 
L 171.582518 94.143107 
L 172.897388 92.785296 
L 174.212257 84.994358 
L 175.527127 126.981053 
L 176.841997 92.75893 
L 178.156866 94.564952 
L 179.471736 88.830505 
L 180.786605 106.50842 
L 182.101475 91.862511 
L 183.416344 101.512201 
L 184.731214 103.015021 
L 187.360953 82.832406 
L 188.675823 64.337167 
L 189.990692 70.730746 
L 191.305562 65.826805 
L 192.620431 80.591357 
L 193.935301 83.399259 
L 195.250171 57.653571 
L 196.56504 67.105521 
L 197.87991 62.267494 
L 200.509649 88.026364 
L 201.824519 61.937928 
L 203.139388 82.50284 
L 204.454258 59.3014 
L 205.769127 63.664853 
L 207.083997 85.020723 
L 208.398866 70.348449 
L 209.713736 66.934147 
L 211.028606 91.994338 
L 212.343475 96.041407 
L 213.658345 68.885177 
L 214.973214 72.259932 
L 216.288084 89.713742 
L 217.602953 55.14887 
L 218.917823 77.216603 
L 220.232693 68.608341 
L 221.547562 63.414383 
L 222.862432 65.734527 
L 224.177301 55.056592 
L 225.492171 60.303281 
L 226.80704 49.981277 
L 228.12191 60.026445 
L 229.43678 50.337208 
L 230.751649 52.222325 
L 232.066519 67.237347 
L 233.381388 58.945469 
L 234.696258 56.256212 
L 236.011127 50.020825 
L 237.325997 44.681857 
L 238.640867 48.201621 
L 241.270606 41.29392 
L 242.585475 55.201601 
L 243.900345 39.026506 
L 245.215214 45.723285 
L 246.530084 47.028366 
L 247.844954 56.308942 
L 249.159823 42.2958 
L 250.474693 54.885217 
L 251.789562 54.964313 
L 253.104432 48.214804 
L 254.419302 64.033967 
L 255.734171 58.259972 
L 257.049041 55.14887 
L 258.36391 49.137588 
L 259.67878 41.742129 
L 260.993649 40.924806 
L 262.308519 41.887138 
L 263.623389 51.378636 
L 266.253128 55.465253 
L 267.567997 50.416304 
L 268.882867 47.265654 
L 270.197736 45.960573 
L 271.512606 38.538749 
L 272.827476 45.024606 
L 274.142345 38.538749 
L 275.457215 37.589599 
L 276.772084 40.872075 
L 278.086954 37.589599 
L 287.291041 37.589599 
L 288.60591 40.331587 
L 289.92078 37.589599 
L 291.23565 43.49542 
L 292.550519 37.589599 
L 300.439737 37.589599 
L 301.754606 44.94551 
L 303.069476 51.233627 
L 304.384345 41.79486 
L 305.699215 47.727046 
L 307.014085 45.077336 
L 308.328954 45.077336 
L 309.643824 40.858893 
L 310.958693 37.576416 
L 312.273563 46.105582 
L 313.588432 43.04721 
L 314.903302 43.060393 
L 316.218172 37.24685 
L 317.533041 40.226126 
L 318.847911 38.44647 
L 320.16278 41.781677 
L 321.47765 40.028387 
L 322.792519 39.725186 
L 324.107389 37.589599 
L 328.051998 37.589599 
L 328.051998 37.589599 
" clip-path="url(#p66df08768a)" style="fill: none; stroke: #d499a7; stroke-width: 1.5; stroke-linecap: round"/>
   </g>
   <g id="line2d_15">
    <path d="M 66.392952 299.871324 
L 67.707822 288.863823 
L 69.022691 270.315854 
L 70.337561 257.726436 
L 71.652431 251.280128 
L 72.9673 241.709534 
L 74.28217 233.760404 
L 75.597039 232.58715 
L 76.911909 230.93932 
L 78.226778 216.504334 
L 79.541648 226.351763 
L 80.856518 226.707694 
L 82.171387 230.847042 
L 83.486257 229.370587 
L 84.801126 222.911095 
L 86.115996 222.594712 
L 87.430865 226.931799 
L 88.745735 227.142721 
L 90.060605 232.679428 
L 91.375474 236.23874 
L 92.690344 222.647442 
L 94.005213 214.368747 
L 95.320083 218.415816 
L 96.634953 215.370627 
L 97.949822 211.587211 
L 99.264692 224.651203 
L 100.579561 214.368747 
L 101.894431 218.389451 
L 103.2093 219.73408 
L 104.52417 216.715256 
L 105.83904 209.280249 
L 107.153909 207.922438 
L 108.468779 206.235061 
L 109.783648 208.687031 
L 111.098518 213.024118 
L 112.413387 216.412055 
L 113.728257 209.83392 
L 115.043127 204.455405 
L 116.357996 207.329219 
L 117.672866 208.317917 
L 118.987735 204.745423 
L 120.302605 199.446003 
L 121.617474 199.142802 
L 122.932344 206.960106 
L 124.247214 208.317917 
L 125.562083 209.992112 
L 126.876953 212.272708 
L 128.191822 203.506255 
L 129.506692 199.274629 
L 130.821561 199.551464 
L 132.136431 200.07877 
L 133.451301 197.653165 
L 134.76617 197.442242 
L 136.08104 199.867847 
L 137.395909 198.602314 
L 138.710779 198.470488 
L 140.025648 199.340542 
L 141.340518 196.097614 
L 142.655388 195.517578 
L 143.970257 195.438482 
L 145.285127 195.649404 
L 146.599996 194.752985 
L 147.914866 194.83208 
L 149.229736 195.688952 
L 150.544605 193.790652 
L 151.859475 194.805715 
L 153.174344 192.195553 
L 154.489214 190.560906 
L 155.804083 192.195553 
L 157.118953 194.542062 
L 158.433823 191.984631 
L 159.748692 191.786892 
L 162.378431 196.216257 
L 163.693301 190.310436 
L 165.00817 189.849044 
L 166.32304 191.760526 
L 167.63791 187.252065 
L 168.952779 184.391433 
L 170.267649 185.630601 
L 171.582518 182.888612 
L 172.897388 181.095774 
L 174.212257 178.459247 
L 175.527127 183.653205 
L 176.841997 173.555306 
L 178.156866 177.404636 
L 179.471736 172.790713 
L 180.786605 173.42348 
L 182.101475 173.92442 
L 183.416344 173.370749 
L 184.731214 171.47245 
L 186.046084 170.997875 
L 187.360953 169.178671 
L 188.675823 170.997875 
L 189.990692 169.600515 
L 191.305562 165.962108 
L 192.620431 165.962108 
L 193.935301 164.142904 
L 216.288084 164.142904 
L 218.917823 168.308617 
L 220.232693 166.22576 
L 221.547562 166.22576 
L 222.862432 164.142904 
L 238.640867 164.142904 
L 239.955736 166.436683 
L 241.270606 164.142904 
L 246.530084 164.142904 
L 247.844954 166.22576 
L 249.159823 164.142904 
L 251.789562 166.357587 
L 258.36391 166.357587 
L 259.67878 168.57227 
L 262.308519 168.57227 
L 263.623389 165.092054 
L 264.938258 163.984712 
L 268.882867 163.984712 
L 271.512606 166.146665 
L 272.827476 164.591114 
L 274.142345 163.668329 
L 275.457215 163.510137 
L 276.772084 163.193754 
L 278.086954 163.035563 
L 280.716693 164.432922 
L 282.031563 165.540263 
L 283.346432 163.984712 
L 284.661302 163.035563 
L 285.976171 163.035563 
L 287.291041 163.193754 
L 288.60591 162.877371 
L 289.92078 162.402796 
L 291.23565 165.487533 
L 292.550519 161.928221 
L 295.180258 161.928221 
L 296.495128 161.611838 
L 297.809997 163.431042 
L 299.124867 165.883012 
L 300.439737 161.928221 
L 301.754606 163.431042 
L 303.069476 161.77003 
L 305.699215 161.137263 
L 307.014085 161.137263 
L 309.643824 160.504496 
L 310.958693 160.979071 
L 313.588432 160.662688 
L 314.903302 160.82088 
L 316.218172 160.188113 
L 317.533041 160.029922 
L 318.847911 160.188113 
L 321.47765 159.555347 
L 322.792519 159.555347 
L 324.107389 159.238963 
L 325.422259 159.238963 
L 326.737128 161.32182 
L 328.051998 161.480012 
L 328.051998 161.480012 
" clip-path="url(#p66df08768a)" style="fill: none; stroke: #a9678f; stroke-width: 1.5; stroke-linecap: round"/>
   </g>
   <g id="line2d_16">
    <path d="M 66.392952 284.328996 
L 67.707822 242.395031 
L 69.022691 239.521216 
L 70.337561 244.649262 
L 71.652431 238.506153 
L 72.9673 233.061725 
L 74.28217 233.114455 
L 75.597039 227.656844 
L 76.911909 231.479808 
L 78.226778 220.722777 
L 79.541648 224.928038 
L 80.856518 233.180368 
L 82.171387 230.148362 
L 83.486257 217.993972 
L 84.801126 222.621077 
L 86.115996 220.366846 
L 87.430865 227.670027 
L 88.745735 227.314095 
L 90.060605 224.361185 
L 91.375474 220.076828 
L 92.690344 220.208655 
L 94.005213 223.069287 
L 95.320083 219.602253 
L 96.634953 226.997712 
L 97.949822 223.530679 
L 99.264692 232.508054 
L 100.579561 231.993931 
L 101.894431 226.364946 
L 103.2093 223.38567 
L 104.52417 223.609775 
L 105.83904 230.121997 
L 107.153909 218.152163 
L 108.468779 220.261385 
L 109.783648 223.425218 
L 111.098518 220.841421 
L 112.413387 219.140861 
L 113.728257 222.410155 
L 115.043127 226.219937 
L 116.357996 224.822577 
L 117.672866 222.251963 
L 118.987735 225.732179 
L 120.302605 226.167206 
L 121.617474 232.073027 
L 122.932344 227.182269 
L 124.247214 224.690751 
L 126.876953 236.93742 
L 128.191822 226.997712 
L 129.506692 230.741581 
L 130.821561 223.781149 
L 132.136431 218.732199 
L 133.451301 223.992071 
L 134.76617 225.191691 
L 136.08104 222.001493 
L 137.395909 221.869667 
L 138.710779 224.664386 
L 140.025648 223.451583 
L 141.340518 228.434619 
L 142.655388 224.176628 
L 143.970257 219.404514 
L 145.285127 221.856484 
L 146.599996 224.730299 
L 147.914866 220.261385 
L 149.229736 223.675688 
L 150.544605 229.120117 
L 151.859475 229.515596 
L 153.174344 217.941241 
L 154.489214 221.711475 
L 155.804083 223.754784 
L 157.118953 222.831999 
L 158.433823 212.98457 
L 159.748692 228.98829 
L 161.063562 227.393191 
L 162.378431 231.361165 
L 163.693301 229.027838 
L 165.00817 222.396972 
L 166.32304 226.391311 
L 168.952779 220.248203 
L 170.267649 221.43464 
L 171.582518 224.928038 
L 172.897388 221.197352 
L 174.212257 228.540081 
L 175.527127 224.651203 
L 176.841997 215.093792 
L 178.156866 219.404514 
L 179.471736 220.28775 
L 180.786605 215.370627 
L 182.101475 220.23502 
L 183.416344 217.176648 
L 184.731214 224.743481 
L 186.046084 227.353643 
L 187.360953 222.68699 
L 188.675823 222.726538 
L 189.990692 224.822577 
L 191.305562 217.875328 
L 192.620431 227.577748 
L 193.935301 218.613556 
L 195.250171 225.046682 
L 196.56504 220.208655 
L 197.87991 220.314116 
L 199.194779 218.666286 
L 200.509649 219.259505 
L 201.824519 220.48549 
L 203.139388 216.912996 
L 204.454258 223.88661 
L 205.769127 220.960065 
L 207.083997 220.472307 
L 208.398866 217.058005 
L 209.713736 217.967607 
L 211.028606 215.172888 
L 212.343475 218.442181 
L 213.658345 218.639921 
L 216.288084 223.728418 
L 217.602953 212.430899 
L 218.917823 222.423337 
L 220.232693 219.958185 
L 221.547562 219.575888 
L 222.862432 225.204874 
L 224.177301 214.157825 
L 225.492171 225.956284 
L 226.80704 220.327298 
L 228.12191 218.33672 
L 229.43678 213.946903 
L 230.751649 216.688891 
L 232.066519 220.815056 
L 233.381388 222.238781 
L 234.696258 223.912975 
L 236.011127 220.788691 
L 237.325997 222.38379 
L 238.640867 222.594712 
L 239.955736 222.607894 
L 241.270606 219.0354 
L 242.585475 217.110735 
L 243.900345 215.687011 
L 245.215214 219.654984 
L 246.530084 211.53448 
L 247.844954 223.820697 
L 249.159823 228.592811 
L 250.474693 226.312215 
L 251.789562 222.212415 
L 253.104432 226.971347 
L 254.419302 216.13522 
L 255.734171 218.218077 
L 257.049041 228.170967 
L 258.36391 222.779269 
L 259.67878 229.054203 
L 260.993649 221.025978 
L 262.308519 219.496792 
L 263.623389 221.777388 
L 264.938258 221.012795 
L 266.253128 218.442181 
L 267.567997 220.28775 
L 268.882867 219.48361 
L 270.197736 217.387571 
L 271.512606 218.191711 
L 272.827476 226.813155 
L 274.142345 226.03538 
L 275.457215 223.728418 
L 276.772084 220.393212 
L 278.086954 215.317897 
L 279.401823 217.928059 
L 280.716693 215.410175 
L 282.031563 219.259505 
L 283.346432 217.53258 
L 284.661302 217.572127 
L 285.976171 220.155924 
L 287.291041 220.248203 
L 288.60591 224.321637 
L 289.92078 219.206774 
L 291.23565 222.304694 
L 292.550519 221.711475 
L 293.865389 215.067427 
L 295.180258 222.858364 
L 296.495128 216.069307 
L 297.809997 218.969487 
L 299.124867 222.779269 
L 300.439737 223.912975 
L 301.754606 221.619197 
L 303.069476 221.18417 
L 304.384345 214.289651 
L 305.699215 215.977028 
L 307.014085 214.816957 
L 308.328954 215.568367 
L 309.643824 218.626738 
L 310.958693 215.251984 
L 312.273563 230.148362 
L 313.588432 225.943101 
L 316.218172 219.562705 
L 317.533041 221.68511 
L 318.847911 221.711475 
L 320.16278 225.310335 
L 321.47765 216.807535 
L 322.792519 221.368727 
L 324.107389 216.860265 
L 325.422259 227.511835 
L 326.737128 221.342361 
L 328.051998 222.080589 
L 328.051998 222.080589 
" clip-path="url(#p66df08768a)" style="fill: none; stroke: #6c3f70; stroke-width: 1.5; stroke-linecap: round"/>
   </g>
   <g id="line2d_17">
    <path d="M 66.392952 294.347799 
L 67.707822 273.374225 
L 69.022691 256.698191 
L 70.337561 247.325337 
L 71.652431 244.266965 
L 72.9673 242.513675 
L 74.28217 240.417636 
L 75.597039 235.605973 
L 76.911909 242.605953 
L 78.226778 231.638 
L 79.541648 223.649323 
L 80.856518 227.525018 
L 82.171387 235.698252 
L 83.486257 227.459104 
L 84.801126 230.899772 
L 86.115996 227.590931 
L 87.430865 233.720856 
L 88.745735 224.63802 
L 90.060605 224.651203 
L 91.375474 222.304694 
L 92.690344 217.78305 
L 94.005213 217.308475 
L 95.320083 226.140841 
L 96.634953 225.692631 
L 97.949822 225.428978 
L 99.264692 220.880969 
L 100.579561 223.741601 
L 101.894431 217.611675 
L 103.2093 217.58531 
L 104.52417 219.53634 
L 105.83904 216.794352 
L 107.153909 222.212415 
L 108.468779 214.144642 
L 109.783648 214.671948 
L 112.413387 209.649363 
L 113.728257 211.600393 
L 115.043127 210.848983 
L 116.357996 213.327319 
L 117.672866 218.138981 
L 118.987735 216.847082 
L 120.302605 208.542022 
L 121.617474 216.319777 
L 124.247214 211.758585 
L 125.562083 206.93374 
L 126.876953 205.813216 
L 128.191822 214.316016 
L 129.506692 205.760486 
L 130.821561 210.769887 
L 132.136431 211.666307 
L 133.451301 213.010935 
L 134.76617 208.370648 
L 136.08104 209.913016 
L 137.395909 209.003414 
L 138.710779 205.140902 
L 140.025648 207.474228 
L 141.340518 202.649384 
L 142.655388 203.598533 
L 143.970257 202.543922 
L 145.285127 202.201174 
L 146.599996 205.826399 
L 147.914866 206.248243 
L 149.229736 201.977069 
L 150.544605 206.38007 
L 151.859475 208.423378 
L 153.174344 211.48175 
L 154.489214 207.619237 
L 155.804083 212.417717 
L 157.118953 215.014696 
L 158.433823 205.536381 
L 161.063562 201.093833 
L 162.378431 213.287771 
L 163.693301 209.754824 
L 165.00817 211.943142 
L 166.32304 205.23318 
L 167.63791 205.23318 
L 168.952779 202.003434 
L 170.267649 199.828299 
L 171.582518 200.434701 
L 172.897388 200.07877 
L 174.212257 200.500614 
L 175.527127 193.8302 
L 176.841997 190.310436 
L 178.156866 182.387672 
L 180.786605 186.513837 
L 182.101475 177.562827 
L 183.416344 183.323639 
L 184.731214 176.705956 
L 186.046084 179.566588 
L 187.360953 173.397114 
L 188.675823 174.504456 
L 189.990692 175.348145 
L 191.305562 172.250225 
L 192.620431 175.150405 
L 193.935301 173.318019 
L 195.250171 170.839683 
L 196.56504 166.186213 
L 197.87991 164.195635 
L 199.194779 160.87361 
L 200.509649 161.295455 
L 201.824519 159.924461 
L 203.139388 159.924461 
L 204.454258 162.587353 
L 205.769127 162.837823 
L 207.083997 159.924461 
L 208.398866 159.924461 
L 209.713736 160.87361 
L 211.028606 162.626901 
L 212.343475 159.924461 
L 220.232693 159.924461 
L 221.547562 161.730482 
L 222.862432 159.924461 
L 233.381388 159.924461 
L 234.696258 164.564748 
L 236.011127 159.924461 
L 241.270606 159.924461 
L 242.585475 162.033682 
L 243.900345 159.924461 
L 262.308519 159.924461 
L 263.623389 160.491314 
L 264.938258 162.07323 
L 266.253128 160.491314 
L 267.567997 161.058167 
L 270.197736 161.058167 
L 271.512606 159.924461 
L 295.180258 159.924461 
L 297.809997 162.455527 
L 300.439737 159.924461 
L 310.958693 159.924461 
L 312.273563 160.87361 
L 313.588432 160.87361 
L 314.903302 163.035563 
L 316.218172 166.014838 
L 317.533041 167.240823 
L 318.847911 162.27097 
L 320.16278 159.924461 
L 328.051998 159.924461 
L 328.051998 159.924461 
" clip-path="url(#p66df08768a)" style="fill: none; stroke: #2d1e3e; stroke-width: 1.5; stroke-linecap: round"/>
   </g>
   <g id="line2d_18"/>
   <g id="line2d_19"/>
   <g id="line2d_20"/>
   <g id="line2d_21"/>
   <g id="line2d_22"/>
   <g id="patch_3">
    <path d="M 53.31 319.138125 
L 53.31 22.318125 
" style="fill: none; stroke: #ffffff; stroke-width: 1.25; stroke-linejoin: miter; stroke-linecap: square"/>
   </g>
   <g id="patch_4">
    <path d="M 53.31 319.138125 
L 341.13495 319.138125 
" style="fill: none; stroke: #ffffff; stroke-width: 1.25; stroke-linejoin: miter; stroke-linecap: square"/>
   </g>
   <g id="text_15">
    <!-- Evolved For Still Life For Still Life -->
    <g style="fill: #262626" transform="translate(99.354038 16.318125)scale(0.12 -0.12)">
     <defs>
      <path id="DejaVuSans-45" d="M 628 4666 
L 3578 4666 
L 3578 4134 
L 1259 4134 
L 1259 2753 
L 3481 2753 
L 3481 2222 
L 1259 2222 
L 1259 531 
L 3634 531 
L 3634 0 
L 628 0 
L 628 4666 
z
" transform="scale(0.015625)"/>
      <path id="DejaVuSans-76" d="M 191 3500 
L 800 3500 
L 1894 563 
L 2988 3500 
L 3597 3500 
L 2284 0 
L 1503 0 
L 191 3500 
z
" transform="scale(0.015625)"/>
      <path id="DejaVuSans-6c" d="M 603 4863 
L 1178 4863 
L 1178 0 
L 603 0 
L 603 4863 
z
" transform="scale(0.015625)"/>
      <path id="DejaVuSans-64" d="M 2906 2969 
L 2906 4863 
L 3481 4863 
L 3481 0 
L 2906 0 
L 2906 525 
Q 2725 213 2448 61 
Q 2172 -91 1784 -91 
Q 1150 -91 751 415 
Q 353 922 353 1747 
Q 353 2572 751 3078 
Q 1150 3584 1784 3584 
Q 2172 3584 2448 3432 
Q 2725 3281 2906 2969 
z
M 947 1747 
Q 947 1113 1208 752 
Q 1469 391 1925 391 
Q 2381 391 2643 752 
Q 2906 1113 2906 1747 
Q 2906 2381 2643 2742 
Q 2381 3103 1925 3103 
Q 1469 3103 1208 2742 
Q 947 2381 947 1747 
z
" transform="scale(0.015625)"/>
      <path id="DejaVuSans-20" transform="scale(0.015625)"/>
      <path id="DejaVuSans-53" d="M 3425 4513 
L 3425 3897 
Q 3066 4069 2747 4153 
Q 2428 4238 2131 4238 
Q 1616 4238 1336 4038 
Q 1056 3838 1056 3469 
Q 1056 3159 1242 3001 
Q 1428 2844 1947 2747 
L 2328 2669 
Q 3034 2534 3370 2195 
Q 3706 1856 3706 1288 
Q 3706 609 3251 259 
Q 2797 -91 1919 -91 
Q 1588 -91 1214 -16 
Q 841 59 441 206 
L 441 856 
Q 825 641 1194 531 
Q 1563 422 1919 422 
Q 2459 422 2753 634 
Q 3047 847 3047 1241 
Q 3047 1584 2836 1778 
Q 2625 1972 2144 2069 
L 1759 2144 
Q 1053 2284 737 2584 
Q 422 2884 422 3419 
Q 422 4038 858 4394 
Q 1294 4750 2059 4750 
Q 2388 4750 2728 4690 
Q 3069 4631 3425 4513 
z
" transform="scale(0.015625)"/>
      <path id="DejaVuSans-4c" d="M 628 4666 
L 1259 4666 
L 1259 531 
L 3531 531 
L 3531 0 
L 628 0 
L 628 4666 
z
" transform="scale(0.015625)"/>
      <path id="DejaVuSans-66" d="M 2375 4863 
L 2375 4384 
L 1825 4384 
Q 1516 4384 1395 4259 
Q 1275 4134 1275 3809 
L 1275 3500 
L 2222 3500 
L 2222 3053 
L 1275 3053 
L 1275 0 
L 697 0 
L 697 3053 
L 147 3053 
L 147 3500 
L 697 3500 
L 697 3744 
Q 697 4328 969 4595 
Q 1241 4863 1831 4863 
L 2375 4863 
z
" transform="scale(0.015625)"/>
     </defs>
     <use xlink:href="#DejaVuSans-45"/>
     <use xlink:href="#DejaVuSans-76" x="63.183594"/>
     <use xlink:href="#DejaVuSans-6f" x="122.363281"/>
     <use xlink:href="#DejaVuSans-6c" x="183.544922"/>
     <use xlink:href="#DejaVuSans-76" x="211.328125"/>
     <use xlink:href="#DejaVuSans-65" x="270.507812"/>
     <use xlink:href="#DejaVuSans-64" x="332.03125"/>
     <use xlink:href="#DejaVuSans-20" x="395.507812"/>
     <use xlink:href="#DejaVuSans-46" x="427.294922"/>
     <use xlink:href="#DejaVuSans-6f" x="481.189453"/>
     <use xlink:href="#DejaVuSans-72" x="542.371094"/>
     <use xlink:href="#DejaVuSans-20" x="583.484375"/>
     <use xlink:href="#DejaVuSans-53" x="615.271484"/>
     <use xlink:href="#DejaVuSans-74" x="678.748047"/>
     <use xlink:href="#DejaVuSans-69" x="717.957031"/>
     <use xlink:href="#DejaVuSans-6c" x="745.740234"/>
     <use xlink:href="#DejaVuSans-6c" x="773.523438"/>
     <use xlink:href="#DejaVuSans-20" x="801.306641"/>
     <use xlink:href="#DejaVuSans-4c" x="833.09375"/>
     <use xlink:href="#DejaVuSans-69" x="888.806641"/>
     <use xlink:href="#DejaVuSans-66" x="916.589844"/>
     <use xlink:href="#DejaVuSans-65" x="951.794922"/>
     <use xlink:href="#DejaVuSans-20" x="1013.318359"/>
     <use xlink:href="#DejaVuSans-46" x="1045.105469"/>
     <use xlink:href="#DejaVuSans-6f" x="1099"/>
     <use xlink:href="#DejaVuSans-72" x="1160.181641"/>
     <use xlink:href="#DejaVuSans-20" x="1201.294922"/>
     <use xlink:href="#DejaVuSans-53" x="1233.082031"/>
     <use xlink:href="#DejaVuSans-74" x="1296.558594"/>
     <use xlink:href="#DejaVuSans-69" x="1335.767578"/>
     <use xlink:href="#DejaVuSans-6c" x="1363.550781"/>
     <use xlink:href="#DejaVuSans-6c" x="1391.333984"/>
     <use xlink:href="#DejaVuSans-20" x="1419.117188"/>
     <use xlink:href="#DejaVuSans-4c" x="1450.904297"/>
     <use xlink:href="#DejaVuSans-69" x="1506.617188"/>
     <use xlink:href="#DejaVuSans-66" x="1534.400391"/>
     <use xlink:href="#DejaVuSans-65" x="1569.605469"/>
    </g>
   </g>
  </g>
  <g id="legend_1">
   <g id="text_16">
    <!-- Trial -->
    <g style="fill: #262626" transform="translate(352.4649 143.995312)scale(0.12 -0.12)">
     <defs>
      <path id="DejaVuSans-54" d="M -19 4666 
L 3928 4666 
L 3928 4134 
L 2272 4134 
L 2272 0 
L 1638 0 
L 1638 4134 
L -19 4134 
L -19 4666 
z
" transform="scale(0.015625)"/>
     </defs>
     <use xlink:href="#DejaVuSans-54"/>
     <use xlink:href="#DejaVuSans-72" x="46.333984"/>
     <use xlink:href="#DejaVuSans-69" x="87.447266"/>
     <use xlink:href="#DejaVuSans-61" x="115.230469"/>
     <use xlink:href="#DejaVuSans-6c" x="176.509766"/>
    </g>
   </g>
   <g id="line2d_23">
    <path d="M 345.8224 156.499219 
L 356.8224 156.499219 
L 367.8224 156.499219 
" style="fill: none; stroke: #edd1cb; stroke-width: 1.5; stroke-linecap: round"/>
   </g>
   <g id="text_17">
    <!-- 0 -->
    <g style="fill: #262626" transform="translate(376.6224 160.349219)scale(0.11 -0.11)">
     <use xlink:href="#DejaVuSans-30"/>
    </g>
   </g>
   <g id="line2d_24">
    <path d="M 345.8224 172.645156 
L 356.8224 172.645156 
L 367.8224 172.645156 
" style="fill: none; stroke: #d499a7; stroke-width: 1.5; stroke-linecap: round"/>
   </g>
   <g id="text_18">
    <!-- 1 -->
    <g style="fill: #262626" transform="translate(376.6224 176.495156)scale(0.11 -0.11)">
     <use xlink:href="#DejaVuSans-31"/>
    </g>
   </g>
   <g id="line2d_25">
    <path d="M 345.8224 188.791094 
L 356.8224 188.791094 
L 367.8224 188.791094 
" style="fill: none; stroke: #a9678f; stroke-width: 1.5; stroke-linecap: round"/>
   </g>
   <g id="text_19">
    <!-- 2 -->
    <g style="fill: #262626" transform="translate(376.6224 192.641094)scale(0.11 -0.11)">
     <use xlink:href="#DejaVuSans-32"/>
    </g>
   </g>
   <g id="line2d_26">
    <path d="M 345.8224 204.937031 
L 356.8224 204.937031 
L 367.8224 204.937031 
" style="fill: none; stroke: #6c3f70; stroke-width: 1.5; stroke-linecap: round"/>
   </g>
   <g id="text_20">
    <!-- 3 -->
    <g style="fill: #262626" transform="translate(376.6224 208.787031)scale(0.11 -0.11)">
     <use xlink:href="#DejaVuSans-33"/>
    </g>
   </g>
   <g id="line2d_27">
    <path d="M 345.8224 221.082969 
L 356.8224 221.082969 
L 367.8224 221.082969 
" style="fill: none; stroke: #2d1e3e; stroke-width: 1.5; stroke-linecap: round"/>
   </g>
   <g id="text_21">
    <!-- 4 -->
    <g style="fill: #262626" transform="translate(376.6224 224.932969)scale(0.11 -0.11)">
     <use xlink:href="#DejaVuSans-34"/>
    </g>
   </g>
  </g>
 </g>
 <defs>
  <clipPath id="p66df08768a">
   <rect x="53.31" y="22.318125" width="287.82495" height="296.82"/>
  </clipPath>
 </defs>
</svg>
