<?xml version="1.0" encoding="utf-8" standalone="no"?>
<!DOCTYPE svg PUBLIC "-//W3C//DTD SVG 1.1//EN"
  "http://www.w3.org/Graphics/SVG/1.1/DTD/svg11.dtd">
<svg xmlns:xlink="http://www.w3.org/1999/xlink" width="393.52115pt" height="362.097812pt" viewBox="0 0 393.52115 362.097812" xmlns="http://www.w3.org/2000/svg" version="1.1">
 <metadata>
  <rdf:RDF xmlns:dc="http://purl.org/dc/elements/1.1/" xmlns:cc="http://creativecommons.org/ns#" xmlns:rdf="http://www.w3.org/1999/02/22-rdf-syntax-ns#">
   <cc:Work>
    <dc:type rdf:resource="http://purl.org/dc/dcmitype/StillImage"/>
    <dc:date>2022-11-20T08:12:22.140952</dc:date>
    <dc:format>image/svg+xml</dc:format>
    <dc:creator>
     <cc:Agent>
      <dc:title>Matplotlib v3.5.2, https://matplotlib.org/</dc:title>
     </cc:Agent>
    </dc:creator>
   </cc:Work>
  </rdf:RDF>
 </metadata>
 <defs>
  <style type="text/css">*{stroke-linejoin: round; stroke-linecap: butt}</style>
 </defs>
 <g id="figure_1">
  <g id="patch_1">
   <path d="M 0 362.097812 
L 393.52115 362.097812 
L 393.52115 0 
L 0 0 
z
" style="fill: #ffffff"/>
  </g>
  <g id="axes_1">
   <g id="patch_2">
    <path d="M 53.31 319.138125 
L 341.13495 319.138125 
L 341.13495 22.318125 
L 53.31 22.318125 
z
" style="fill: #eaeaf2"/>
   </g>
   <g id="matplotlib.axis_1">
    <g id="xtick_1">
     <g id="line2d_1">
      <path d="M 66.392952 319.138125 
L 66.392952 22.318125 
" clip-path="url(#pcd27b0c974)" style="fill: none; stroke: #ffffff; stroke-linecap: round"/>
     </g>
     <g id="text_1">
      <!-- 0 -->
      <g style="fill: #262626" transform="translate(62.893577 336.996406)scale(0.11 -0.11)">
       <defs>
        <path id="DejaVuSans-30" d="M 2034 4250 
Q 1547 4250 1301 3770 
Q 1056 3291 1056 2328 
Q 1056 1369 1301 889 
Q 1547 409 2034 409 
Q 2525 409 2770 889 
Q 3016 1369 3016 2328 
Q 3016 3291 2770 3770 
Q 2525 4250 2034 4250 
z
M 2034 4750 
Q 2819 4750 3233 4129 
Q 3647 3509 3647 2328 
Q 3647 1150 3233 529 
Q 2819 -91 2034 -91 
Q 1250 -91 836 529 
Q 422 1150 422 2328 
Q 422 3509 836 4129 
Q 1250 4750 2034 4750 
z
" transform="scale(0.015625)"/>
       </defs>
       <use xlink:href="#DejaVuSans-30"/>
      </g>
     </g>
    </g>
    <g id="xtick_2">
     <g id="line2d_2">
      <path d="M 132.136431 319.138125 
L 132.136431 22.318125 
" clip-path="url(#pcd27b0c974)" style="fill: none; stroke: #ffffff; stroke-linecap: round"/>
     </g>
     <g id="text_2">
      <!-- 50 -->
      <g style="fill: #262626" transform="translate(125.137681 336.996406)scale(0.11 -0.11)">
       <defs>
        <path id="DejaVuSans-35" d="M 691 4666 
L 3169 4666 
L 3169 4134 
L 1269 4134 
L 1269 2991 
Q 1406 3038 1543 3061 
Q 1681 3084 1819 3084 
Q 2600 3084 3056 2656 
Q 3513 2228 3513 1497 
Q 3513 744 3044 326 
Q 2575 -91 1722 -91 
Q 1428 -91 1123 -41 
Q 819 9 494 109 
L 494 744 
Q 775 591 1075 516 
Q 1375 441 1709 441 
Q 2250 441 2565 725 
Q 2881 1009 2881 1497 
Q 2881 1984 2565 2268 
Q 2250 2553 1709 2553 
Q 1456 2553 1204 2497 
Q 953 2441 691 2322 
L 691 4666 
z
" transform="scale(0.015625)"/>
       </defs>
       <use xlink:href="#DejaVuSans-35"/>
       <use xlink:href="#DejaVuSans-30" x="63.623047"/>
      </g>
     </g>
    </g>
    <g id="xtick_3">
     <g id="line2d_3">
      <path d="M 197.87991 319.138125 
L 197.87991 22.318125 
" clip-path="url(#pcd27b0c974)" style="fill: none; stroke: #ffffff; stroke-linecap: round"/>
     </g>
     <g id="text_3">
      <!-- 100 -->
      <g style="fill: #262626" transform="translate(187.381785 336.996406)scale(0.11 -0.11)">
       <defs>
        <path id="DejaVuSans-31" d="M 794 531 
L 1825 531 
L 1825 4091 
L 703 3866 
L 703 4441 
L 1819 4666 
L 2450 4666 
L 2450 531 
L 3481 531 
L 3481 0 
L 794 0 
L 794 531 
z
" transform="scale(0.015625)"/>
       </defs>
       <use xlink:href="#DejaVuSans-31"/>
       <use xlink:href="#DejaVuSans-30" x="63.623047"/>
       <use xlink:href="#DejaVuSans-30" x="127.246094"/>
      </g>
     </g>
    </g>
    <g id="xtick_4">
     <g id="line2d_4">
      <path d="M 263.623389 319.138125 
L 263.623389 22.318125 
" clip-path="url(#pcd27b0c974)" style="fill: none; stroke: #ffffff; stroke-linecap: round"/>
     </g>
     <g id="text_4">
      <!-- 150 -->
      <g style="fill: #262626" transform="translate(253.125264 336.996406)scale(0.11 -0.11)">
       <use xlink:href="#DejaVuSans-31"/>
       <use xlink:href="#DejaVuSans-35" x="63.623047"/>
       <use xlink:href="#DejaVuSans-30" x="127.246094"/>
      </g>
     </g>
    </g>
    <g id="xtick_5">
     <g id="line2d_5">
      <path d="M 329.366867 319.138125 
L 329.366867 22.318125 
" clip-path="url(#pcd27b0c974)" style="fill: none; stroke: #ffffff; stroke-linecap: round"/>
     </g>
     <g id="text_5">
      <!-- 200 -->
      <g style="fill: #262626" transform="translate(318.868742 336.996406)scale(0.11 -0.11)">
       <defs>
        <path id="DejaVuSans-32" d="M 1228 531 
L 3431 531 
L 3431 0 
L 469 0 
L 469 531 
Q 828 903 1448 1529 
Q 2069 2156 2228 2338 
Q 2531 2678 2651 2914 
Q 2772 3150 2772 3378 
Q 2772 3750 2511 3984 
Q 2250 4219 1831 4219 
Q 1534 4219 1204 4116 
Q 875 4013 500 3803 
L 500 4441 
Q 881 4594 1212 4672 
Q 1544 4750 1819 4750 
Q 2544 4750 2975 4387 
Q 3406 4025 3406 3419 
Q 3406 3131 3298 2873 
Q 3191 2616 2906 2266 
Q 2828 2175 2409 1742 
Q 1991 1309 1228 531 
z
" transform="scale(0.015625)"/>
       </defs>
       <use xlink:href="#DejaVuSans-32"/>
       <use xlink:href="#DejaVuSans-30" x="63.623047"/>
       <use xlink:href="#DejaVuSans-30" x="127.246094"/>
      </g>
     </g>
    </g>
    <g id="text_6">
     <!-- Generation -->
     <g style="fill: #262626" transform="translate(163.750912 352.402187)scale(0.12 -0.12)">
      <defs>
       <path id="DejaVuSans-47" d="M 3809 666 
L 3809 1919 
L 2778 1919 
L 2778 2438 
L 4434 2438 
L 4434 434 
Q 4069 175 3628 42 
Q 3188 -91 2688 -91 
Q 1594 -91 976 548 
Q 359 1188 359 2328 
Q 359 3472 976 4111 
Q 1594 4750 2688 4750 
Q 3144 4750 3555 4637 
Q 3966 4525 4313 4306 
L 4313 3634 
Q 3963 3931 3569 4081 
Q 3175 4231 2741 4231 
Q 1884 4231 1454 3753 
Q 1025 3275 1025 2328 
Q 1025 1384 1454 906 
Q 1884 428 2741 428 
Q 3075 428 3337 486 
Q 3600 544 3809 666 
z
" transform="scale(0.015625)"/>
       <path id="DejaVuSans-65" d="M 3597 1894 
L 3597 1613 
L 953 1613 
Q 991 1019 1311 708 
Q 1631 397 2203 397 
Q 2534 397 2845 478 
Q 3156 559 3463 722 
L 3463 178 
Q 3153 47 2828 -22 
Q 2503 -91 2169 -91 
Q 1331 -91 842 396 
Q 353 884 353 1716 
Q 353 2575 817 3079 
Q 1281 3584 2069 3584 
Q 2775 3584 3186 3129 
Q 3597 2675 3597 1894 
z
M 3022 2063 
Q 3016 2534 2758 2815 
Q 2500 3097 2075 3097 
Q 1594 3097 1305 2825 
Q 1016 2553 972 2059 
L 3022 2063 
z
" transform="scale(0.015625)"/>
       <path id="DejaVuSans-6e" d="M 3513 2113 
L 3513 0 
L 2938 0 
L 2938 2094 
Q 2938 2591 2744 2837 
Q 2550 3084 2163 3084 
Q 1697 3084 1428 2787 
Q 1159 2491 1159 1978 
L 1159 0 
L 581 0 
L 581 3500 
L 1159 3500 
L 1159 2956 
Q 1366 3272 1645 3428 
Q 1925 3584 2291 3584 
Q 2894 3584 3203 3211 
Q 3513 2838 3513 2113 
z
" transform="scale(0.015625)"/>
       <path id="DejaVuSans-72" d="M 2631 2963 
Q 2534 3019 2420 3045 
Q 2306 3072 2169 3072 
Q 1681 3072 1420 2755 
Q 1159 2438 1159 1844 
L 1159 0 
L 581 0 
L 581 3500 
L 1159 3500 
L 1159 2956 
Q 1341 3275 1631 3429 
Q 1922 3584 2338 3584 
Q 2397 3584 2469 3576 
Q 2541 3569 2628 3553 
L 2631 2963 
z
" transform="scale(0.015625)"/>
       <path id="DejaVuSans-61" d="M 2194 1759 
Q 1497 1759 1228 1600 
Q 959 1441 959 1056 
Q 959 750 1161 570 
Q 1363 391 1709 391 
Q 2188 391 2477 730 
Q 2766 1069 2766 1631 
L 2766 1759 
L 2194 1759 
z
M 3341 1997 
L 3341 0 
L 2766 0 
L 2766 531 
Q 2569 213 2275 61 
Q 1981 -91 1556 -91 
Q 1019 -91 701 211 
Q 384 513 384 1019 
Q 384 1609 779 1909 
Q 1175 2209 1959 2209 
L 2766 2209 
L 2766 2266 
Q 2766 2663 2505 2880 
Q 2244 3097 1772 3097 
Q 1472 3097 1187 3025 
Q 903 2953 641 2809 
L 641 3341 
Q 956 3463 1253 3523 
Q 1550 3584 1831 3584 
Q 2591 3584 2966 3190 
Q 3341 2797 3341 1997 
z
" transform="scale(0.015625)"/>
       <path id="DejaVuSans-74" d="M 1172 4494 
L 1172 3500 
L 2356 3500 
L 2356 3053 
L 1172 3053 
L 1172 1153 
Q 1172 725 1289 603 
Q 1406 481 1766 481 
L 2356 481 
L 2356 0 
L 1766 0 
Q 1100 0 847 248 
Q 594 497 594 1153 
L 594 3053 
L 172 3053 
L 172 3500 
L 594 3500 
L 594 4494 
L 1172 4494 
z
" transform="scale(0.015625)"/>
       <path id="DejaVuSans-69" d="M 603 3500 
L 1178 3500 
L 1178 0 
L 603 0 
L 603 3500 
z
M 603 4863 
L 1178 4863 
L 1178 4134 
L 603 4134 
L 603 4863 
z
" transform="scale(0.015625)"/>
       <path id="DejaVuSans-6f" d="M 1959 3097 
Q 1497 3097 1228 2736 
Q 959 2375 959 1747 
Q 959 1119 1226 758 
Q 1494 397 1959 397 
Q 2419 397 2687 759 
Q 2956 1122 2956 1747 
Q 2956 2369 2687 2733 
Q 2419 3097 1959 3097 
z
M 1959 3584 
Q 2709 3584 3137 3096 
Q 3566 2609 3566 1747 
Q 3566 888 3137 398 
Q 2709 -91 1959 -91 
Q 1206 -91 779 398 
Q 353 888 353 1747 
Q 353 2609 779 3096 
Q 1206 3584 1959 3584 
z
" transform="scale(0.015625)"/>
      </defs>
      <use xlink:href="#DejaVuSans-47"/>
      <use xlink:href="#DejaVuSans-65" x="77.490234"/>
      <use xlink:href="#DejaVuSans-6e" x="139.013672"/>
      <use xlink:href="#DejaVuSans-65" x="202.392578"/>
      <use xlink:href="#DejaVuSans-72" x="263.916016"/>
      <use xlink:href="#DejaVuSans-61" x="305.029297"/>
      <use xlink:href="#DejaVuSans-74" x="366.308594"/>
      <use xlink:href="#DejaVuSans-69" x="405.517578"/>
      <use xlink:href="#DejaVuSans-6f" x="433.300781"/>
      <use xlink:href="#DejaVuSans-6e" x="494.482422"/>
     </g>
    </g>
   </g>
   <g id="matplotlib.axis_2">
    <g id="ytick_1">
     <g id="line2d_6">
      <path d="M 53.31 310.959188 
L 341.13495 310.959188 
" clip-path="url(#pcd27b0c974)" style="fill: none; stroke: #ffffff; stroke-linecap: round"/>
     </g>
     <g id="text_7">
      <!-- 0 -->
      <g style="fill: #262626" transform="translate(36.81125 315.138329)scale(0.11 -0.11)">
       <use xlink:href="#DejaVuSans-30"/>
      </g>
     </g>
    </g>
    <g id="ytick_2">
     <g id="line2d_7">
      <path d="M 53.31 268.772538 
L 341.13495 268.772538 
" clip-path="url(#pcd27b0c974)" style="fill: none; stroke: #ffffff; stroke-linecap: round"/>
     </g>
     <g id="text_8">
      <!-- 100 -->
      <g style="fill: #262626" transform="translate(22.81375 272.951678)scale(0.11 -0.11)">
       <use xlink:href="#DejaVuSans-31"/>
       <use xlink:href="#DejaVuSans-30" x="63.623047"/>
       <use xlink:href="#DejaVuSans-30" x="127.246094"/>
      </g>
     </g>
    </g>
    <g id="ytick_3">
     <g id="line2d_8">
      <path d="M 53.31 226.585887 
L 341.13495 226.585887 
" clip-path="url(#pcd27b0c974)" style="fill: none; stroke: #ffffff; stroke-linecap: round"/>
     </g>
     <g id="text_9">
      <!-- 200 -->
      <g style="fill: #262626" transform="translate(22.81375 230.765028)scale(0.11 -0.11)">
       <use xlink:href="#DejaVuSans-32"/>
       <use xlink:href="#DejaVuSans-30" x="63.623047"/>
       <use xlink:href="#DejaVuSans-30" x="127.246094"/>
      </g>
     </g>
    </g>
    <g id="ytick_4">
     <g id="line2d_9">
      <path d="M 53.31 184.399236 
L 341.13495 184.399236 
" clip-path="url(#pcd27b0c974)" style="fill: none; stroke: #ffffff; stroke-linecap: round"/>
     </g>
     <g id="text_10">
      <!-- 300 -->
      <g style="fill: #262626" transform="translate(22.81375 188.578377)scale(0.11 -0.11)">
       <defs>
        <path id="DejaVuSans-33" d="M 2597 2516 
Q 3050 2419 3304 2112 
Q 3559 1806 3559 1356 
Q 3559 666 3084 287 
Q 2609 -91 1734 -91 
Q 1441 -91 1130 -33 
Q 819 25 488 141 
L 488 750 
Q 750 597 1062 519 
Q 1375 441 1716 441 
Q 2309 441 2620 675 
Q 2931 909 2931 1356 
Q 2931 1769 2642 2001 
Q 2353 2234 1838 2234 
L 1294 2234 
L 1294 2753 
L 1863 2753 
Q 2328 2753 2575 2939 
Q 2822 3125 2822 3475 
Q 2822 3834 2567 4026 
Q 2313 4219 1838 4219 
Q 1578 4219 1281 4162 
Q 984 4106 628 3988 
L 628 4550 
Q 988 4650 1302 4700 
Q 1616 4750 1894 4750 
Q 2613 4750 3031 4423 
Q 3450 4097 3450 3541 
Q 3450 3153 3228 2886 
Q 3006 2619 2597 2516 
z
" transform="scale(0.015625)"/>
       </defs>
       <use xlink:href="#DejaVuSans-33"/>
       <use xlink:href="#DejaVuSans-30" x="63.623047"/>
       <use xlink:href="#DejaVuSans-30" x="127.246094"/>
      </g>
     </g>
    </g>
    <g id="ytick_5">
     <g id="line2d_10">
      <path d="M 53.31 142.212586 
L 341.13495 142.212586 
" clip-path="url(#pcd27b0c974)" style="fill: none; stroke: #ffffff; stroke-linecap: round"/>
     </g>
     <g id="text_11">
      <!-- 400 -->
      <g style="fill: #262626" transform="translate(22.81375 146.391727)scale(0.11 -0.11)">
       <defs>
        <path id="DejaVuSans-34" d="M 2419 4116 
L 825 1625 
L 2419 1625 
L 2419 4116 
z
M 2253 4666 
L 3047 4666 
L 3047 1625 
L 3713 1625 
L 3713 1100 
L 3047 1100 
L 3047 0 
L 2419 0 
L 2419 1100 
L 313 1100 
L 313 1709 
L 2253 4666 
z
" transform="scale(0.015625)"/>
       </defs>
       <use xlink:href="#DejaVuSans-34"/>
       <use xlink:href="#DejaVuSans-30" x="63.623047"/>
       <use xlink:href="#DejaVuSans-30" x="127.246094"/>
      </g>
     </g>
    </g>
    <g id="ytick_6">
     <g id="line2d_11">
      <path d="M 53.31 100.025935 
L 341.13495 100.025935 
" clip-path="url(#pcd27b0c974)" style="fill: none; stroke: #ffffff; stroke-linecap: round"/>
     </g>
     <g id="text_12">
      <!-- 500 -->
      <g style="fill: #262626" transform="translate(22.81375 104.205076)scale(0.11 -0.11)">
       <use xlink:href="#DejaVuSans-35"/>
       <use xlink:href="#DejaVuSans-30" x="63.623047"/>
       <use xlink:href="#DejaVuSans-30" x="127.246094"/>
      </g>
     </g>
    </g>
    <g id="ytick_7">
     <g id="line2d_12">
      <path d="M 53.31 57.839285 
L 341.13495 57.839285 
" clip-path="url(#pcd27b0c974)" style="fill: none; stroke: #ffffff; stroke-linecap: round"/>
     </g>
     <g id="text_13">
      <!-- 600 -->
      <g style="fill: #262626" transform="translate(22.81375 62.018425)scale(0.11 -0.11)">
       <defs>
        <path id="DejaVuSans-36" d="M 2113 2584 
Q 1688 2584 1439 2293 
Q 1191 2003 1191 1497 
Q 1191 994 1439 701 
Q 1688 409 2113 409 
Q 2538 409 2786 701 
Q 3034 994 3034 1497 
Q 3034 2003 2786 2293 
Q 2538 2584 2113 2584 
z
M 3366 4563 
L 3366 3988 
Q 3128 4100 2886 4159 
Q 2644 4219 2406 4219 
Q 1781 4219 1451 3797 
Q 1122 3375 1075 2522 
Q 1259 2794 1537 2939 
Q 1816 3084 2150 3084 
Q 2853 3084 3261 2657 
Q 3669 2231 3669 1497 
Q 3669 778 3244 343 
Q 2819 -91 2113 -91 
Q 1303 -91 875 529 
Q 447 1150 447 2328 
Q 447 3434 972 4092 
Q 1497 4750 2381 4750 
Q 2619 4750 2861 4703 
Q 3103 4656 3366 4563 
z
" transform="scale(0.015625)"/>
       </defs>
       <use xlink:href="#DejaVuSans-36"/>
       <use xlink:href="#DejaVuSans-30" x="63.623047"/>
       <use xlink:href="#DejaVuSans-30" x="127.246094"/>
      </g>
     </g>
    </g>
    <g id="text_14">
     <!-- Fitness -->
     <g style="fill: #262626" transform="translate(16.318125 191.50875)rotate(-90)scale(0.12 -0.12)">
      <defs>
       <path id="DejaVuSans-46" d="M 628 4666 
L 3309 4666 
L 3309 4134 
L 1259 4134 
L 1259 2759 
L 3109 2759 
L 3109 2228 
L 1259 2228 
L 1259 0 
L 628 0 
L 628 4666 
z
" transform="scale(0.015625)"/>
       <path id="DejaVuSans-73" d="M 2834 3397 
L 2834 2853 
Q 2591 2978 2328 3040 
Q 2066 3103 1784 3103 
Q 1356 3103 1142 2972 
Q 928 2841 928 2578 
Q 928 2378 1081 2264 
Q 1234 2150 1697 2047 
L 1894 2003 
Q 2506 1872 2764 1633 
Q 3022 1394 3022 966 
Q 3022 478 2636 193 
Q 2250 -91 1575 -91 
Q 1294 -91 989 -36 
Q 684 19 347 128 
L 347 722 
Q 666 556 975 473 
Q 1284 391 1588 391 
Q 1994 391 2212 530 
Q 2431 669 2431 922 
Q 2431 1156 2273 1281 
Q 2116 1406 1581 1522 
L 1381 1569 
Q 847 1681 609 1914 
Q 372 2147 372 2553 
Q 372 3047 722 3315 
Q 1072 3584 1716 3584 
Q 2034 3584 2315 3537 
Q 2597 3491 2834 3397 
z
" transform="scale(0.015625)"/>
      </defs>
      <use xlink:href="#DejaVuSans-46"/>
      <use xlink:href="#DejaVuSans-69" x="50.269531"/>
      <use xlink:href="#DejaVuSans-74" x="78.052734"/>
      <use xlink:href="#DejaVuSans-6e" x="117.261719"/>
      <use xlink:href="#DejaVuSans-65" x="180.640625"/>
      <use xlink:href="#DejaVuSans-73" x="242.164062"/>
      <use xlink:href="#DejaVuSans-73" x="294.263672"/>
     </g>
    </g>
   </g>
   <g id="PolyCollection_1">
    <defs>
     <path id="mdf6b0f4414" d="M 66.392952 -73.695629 
L 66.392952 -61.408437 
L 67.707822 -75.972389 
L 69.022691 -104.632945 
L 70.337561 -103.542025 
L 71.652431 -104.250299 
L 72.9673 -98.17674 
L 74.28217 -113.363275 
L 75.597039 -121.784126 
L 76.911909 -125.424372 
L 78.226778 -123.486753 
L 79.541648 -122.709266 
L 80.856518 -131.567144 
L 82.171387 -132.872953 
L 83.486257 -137.054045 
L 84.801126 -136.840805 
L 86.115996 -131.079691 
L 87.430865 -131.777418 
L 88.745735 -127.743979 
L 90.060605 -139.821556 
L 91.375474 -134.4566 
L 92.690344 -133.928278 
L 94.005213 -130.474905 
L 95.320083 -135.181354 
L 96.634953 -134.285546 
L 97.949822 -139.225339 
L 99.264692 -135.050179 
L 100.579561 -136.67107 
L 101.894431 -133.915424 
L 103.2093 -129.247537 
L 104.52417 -130.382952 
L 105.83904 -133.003138 
L 107.153909 -139.228635 
L 108.468779 -131.596147 
L 109.783648 -141.193281 
L 111.098518 -142.272995 
L 112.413387 -135.392946 
L 113.728257 -133.178147 
L 115.043127 -134.245667 
L 116.357996 -131.714138 
L 117.672866 -128.523773 
L 118.987735 -132.715412 
L 120.302605 -126.283266 
L 121.617474 -135.826018 
L 122.932344 -137.54084 
L 124.247214 -133.743712 
L 125.562083 -133.62605 
L 126.876953 -139.755639 
L 128.191822 -137.101505 
L 129.506692 -142.867564 
L 130.821561 -143.342823 
L 132.136431 -137.080082 
L 133.451301 -140.850844 
L 134.76617 -135.270341 
L 136.08104 -136.024098 
L 137.395909 -139.925374 
L 138.710779 -141.812897 
L 140.025648 -133.782932 
L 141.340518 -138.464661 
L 142.655388 -136.458159 
L 143.970257 -129.869461 
L 145.285127 -131.227344 
L 146.599996 -140.373607 
L 147.914866 -134.941087 
L 149.229736 -128.536626 
L 150.544605 -135.733735 
L 151.859475 -137.64334 
L 153.174344 -130.739231 
L 154.489214 -134.469124 
L 155.804083 -126.217349 
L 157.118953 -137.897119 
L 158.433823 -129.011885 
L 159.748692 -137.093925 
L 161.063562 -130.000965 
L 162.378431 -136.407403 
L 163.693301 -139.609634 
L 165.00817 -140.349548 
L 166.32304 -133.45269 
L 167.63791 -131.106057 
L 168.952779 -133.164634 
L 170.267649 -134.665556 
L 171.582518 -131.60966 
L 172.897388 -137.621258 
L 174.212257 -133.994524 
L 175.527127 -130.700011 
L 176.841997 -133.79249 
L 178.156866 -140.560811 
L 179.471736 -138.478174 
L 180.786605 -136.642725 
L 182.101475 -134.872534 
L 183.416344 -133.375897 
L 184.731214 -138.011155 
L 186.046084 -135.508959 
L 187.360953 -141.283916 
L 188.675823 -132.529857 
L 189.990692 -136.711279 
L 191.305562 -137.383958 
L 192.620431 -136.856625 
L 193.935301 -135.735712 
L 195.250171 -131.226685 
L 196.56504 -131.750063 
L 197.87991 -133.50806 
L 199.194779 -137.826918 
L 200.509649 -138.502893 
L 201.824519 -133.157053 
L 203.139388 -136.86816 
L 204.454258 -140.072698 
L 205.769127 -133.176828 
L 207.083997 -141.772029 
L 208.398866 -139.426056 
L 209.713736 -136.445305 
L 211.028606 -127.575232 
L 212.343475 -137.132816 
L 213.658345 -137.357591 
L 214.973214 -127.522829 
L 216.288084 -131.568792 
L 217.602953 -137.990062 
L 218.917823 -131.081668 
L 220.232693 -131.461677 
L 221.547562 -139.914168 
L 222.862432 -138.530578 
L 224.177301 -137.673332 
L 225.492171 -138.860491 
L 226.80704 -143.315797 
L 228.12191 -135.470398 
L 229.43678 -130.805477 
L 230.751649 -142.613125 
L 232.066519 -135.986196 
L 233.381388 -137.42186 
L 234.696258 -134.732132 
L 236.011127 -136.550442 
L 237.325997 -124.225349 
L 238.640867 -130.553676 
L 239.955736 -135.591025 
L 241.270606 -138.752717 
L 242.585475 -136.197459 
L 243.900345 -134.457259 
L 245.215214 -129.406067 
L 246.530084 -127.60061 
L 247.844954 -127.073277 
L 249.159823 -138.253728 
L 250.474693 -134.066044 
L 251.789562 -139.425067 
L 253.104432 -141.918034 
L 254.419302 -137.908325 
L 255.734171 -139.756628 
L 257.049041 -138.227691 
L 258.36391 -138.027634 
L 259.67878 -134.65468 
L 260.993649 -125.938192 
L 262.308519 -128.996725 
L 263.623389 -133.58683 
L 264.938258 -134.153054 
L 266.253128 -137.673332 
L 267.567997 -133.914765 
L 268.882867 -139.043739 
L 270.197736 -138.952115 
L 271.512606 -138.015769 
L 272.827476 -139.163707 
L 274.142345 -140.346911 
L 275.457215 -138.675265 
L 276.772084 -140.481052 
L 278.086954 -141.297759 
L 279.401823 -143.975293 
L 280.716693 -137.713212 
L 282.031563 -135.353726 
L 283.346432 -136.473649 
L 284.661302 -133.03346 
L 285.976171 -142.075245 
L 287.291041 -138.596824 
L 288.60591 -131.793568 
L 289.92078 -135.286491 
L 291.23565 -139.097132 
L 292.550519 -138.886198 
L 293.865389 -139.373652 
L 295.180258 -135.575865 
L 296.495128 -130.012171 
L 297.809997 -137.356273 
L 299.124867 -138.551671 
L 300.439737 -139.532511 
L 301.754606 -140.402611 
L 303.069476 -140.637274 
L 304.384345 -139.004189 
L 305.699215 -138.141011 
L 307.014085 -144.502296 
L 308.328954 -140.415794 
L 309.643824 -136.672058 
L 310.958693 -138.109041 
L 312.273563 -141.877496 
L 313.588432 -137.261683 
L 314.903302 -138.554308 
L 316.218172 -144.026708 
L 317.533041 -138.134089 
L 318.847911 -138.082015 
L 320.16278 -138.900041 
L 321.47765 -130.260017 
L 322.792519 -138.846978 
L 324.107389 -135.153669 
L 325.422259 -139.717078 
L 326.737128 -132.571055 
L 328.051998 -133.454338 
L 328.051998 -146.639314 
L 328.051998 -146.639314 
L 326.737128 -143.264052 
L 325.422259 -150.475333 
L 324.107389 -147.273761 
L 322.792519 -151.029692 
L 321.47765 -144.255768 
L 320.16278 -148.815222 
L 318.847911 -148.56375 
L 317.533041 -150.277253 
L 316.218172 -155.631332 
L 314.903302 -149.421655 
L 313.588432 -147.484365 
L 312.273563 -153.322932 
L 310.958693 -148.670865 
L 309.643824 -148.48498 
L 308.328954 -151.281164 
L 307.014085 -153.691735 
L 305.699215 -152.125556 
L 304.384345 -152.323635 
L 303.069476 -155.06379 
L 301.754606 -155.774701 
L 300.439737 -152.125556 
L 299.124867 -150.976629 
L 297.809997 -149.145135 
L 296.495128 -144.914275 
L 295.180258 -148.56375 
L 293.865389 -151.993393 
L 292.550519 -148.220984 
L 291.23565 -150.955865 
L 289.92078 -145.478522 
L 288.60591 -143.119365 
L 287.291041 -150.542238 
L 285.976171 -152.204985 
L 284.661302 -146.628437 
L 283.346432 -148.526178 
L 282.031563 -151.134829 
L 280.716693 -149.249942 
L 279.401823 -156.198875 
L 278.086954 -153.389837 
L 276.772084 -153.444877 
L 275.457215 -150.171787 
L 274.142345 -149.847477 
L 272.827476 -150.937738 
L 271.512606 -150.607496 
L 270.197736 -154.628411 
L 268.882867 -149.55217 
L 267.567997 -142.710352 
L 266.253128 -148.050259 
L 264.938258 -148.036417 
L 263.623389 -144.345085 
L 262.308519 -141.444423 
L 260.993649 -137.9515 
L 259.67878 -144.384965 
L 258.36391 -150.436771 
L 257.049041 -151.450899 
L 255.734171 -150.290766 
L 254.419302 -148.092446 
L 253.104432 -152.242228 
L 251.789562 -152.505895 
L 250.474693 -149.224235 
L 249.159823 -150.885005 
L 247.844954 -142.606534 
L 246.530084 -143.080804 
L 245.215214 -139.57272 
L 243.900345 -145.362179 
L 242.585475 -147.693321 
L 241.270606 -149.736737 
L 239.955736 -147.694969 
L 238.640867 -147.434268 
L 237.325997 -141.669858 
L 236.011127 -151.412997 
L 234.696258 -149.222587 
L 233.381388 -153.784348 
L 232.066519 -147.126767 
L 230.751649 -155.682418 
L 229.43678 -143.833572 
L 228.12191 -150.489505 
L 226.80704 -154.629729 
L 225.492171 -152.175982 
L 224.177301 -149.724872 
L 222.862432 -153.891463 
L 221.547562 -151.148342 
L 220.232693 -143.448619 
L 218.917823 -144.348381 
L 217.602953 -150.752183 
L 216.288084 -147.152804 
L 214.973214 -143.805887 
L 213.658345 -152.953798 
L 212.343475 -149.460546 
L 211.028606 -143.792374 
L 209.713736 -147.337701 
L 208.398866 -152.322976 
L 207.083997 -153.284041 
L 205.769127 -148.341281 
L 204.454258 -152.045138 
L 203.139388 -151.676004 
L 201.824519 -149.239725 
L 200.509649 -153.943866 
L 199.194779 -148.300084 
L 197.87991 -145.347018 
L 196.56504 -143.820718 
L 195.250171 -143.844448 
L 193.935301 -146.312367 
L 192.620431 -148.237133 
L 191.305562 -149.317836 
L 189.990692 -149.315859 
L 188.675823 -145.136085 
L 187.360953 -155.369314 
L 186.046084 -148.447737 
L 184.731214 -152.511827 
L 183.416344 -148.84027 
L 182.101475 -148.972763 
L 180.786605 -149.843522 
L 179.471736 -151.004314 
L 178.156866 -152.598837 
L 176.841997 -148.169898 
L 175.527127 -142.459869 
L 174.212257 -146.625801 
L 172.897388 -147.891071 
L 171.582518 -145.285386 
L 170.267649 -146.415197 
L 168.952779 -146.78466 
L 167.63791 -146.166691 
L 166.32304 -147.484365 
L 165.00817 -153.983087 
L 163.693301 -152.808782 
L 162.378431 -147.10106 
L 161.063562 -143.171769 
L 159.748692 -150.10587 
L 158.433823 -143.148698 
L 157.118953 -149.460546 
L 155.804083 -142.512932 
L 154.489214 -146.481773 
L 153.174344 -141.986588 
L 151.859475 -151.266662 
L 150.544605 -147.008777 
L 149.229736 -141.998453 
L 147.914866 -146.799491 
L 146.599996 -151.648649 
L 145.285127 -145.87501 
L 143.970257 -143.779191 
L 142.655388 -148.948374 
L 141.340518 -152.74682 
L 140.025648 -146.349281 
L 138.710779 -150.804586 
L 137.395909 -153.718431 
L 136.08104 -147.680797 
L 134.76617 -146.032551 
L 133.451301 -152.112372 
L 132.136431 -149.119098 
L 130.821561 -154.812977 
L 129.506692 -154.024285 
L 128.191822 -148.72195 
L 126.876953 -151.095279 
L 125.562083 -146.928688 
L 124.247214 -150.015235 
L 122.932344 -149.569968 
L 121.617474 -149.842533 
L 120.302605 -143.332605 
L 118.987735 -145.400081 
L 117.672866 -138.86148 
L 116.357996 -145.003922 
L 115.043127 -144.094602 
L 113.728257 -144.164803 
L 112.413387 -145.531914 
L 111.098518 -152.50952 
L 109.783648 -153.045752 
L 108.468779 -146.283034 
L 107.153909 -150.77822 
L 105.83904 -145.36086 
L 104.52417 -142.763086 
L 103.2093 -144.912627 
L 101.894431 -148.353476 
L 100.579561 -149.948329 
L 99.264692 -148.498822 
L 97.949822 -155.947403 
L 96.634953 -147.988298 
L 95.320083 -149.513609 
L 94.005213 -145.995308 
L 92.690344 -146.957691 
L 91.375474 -146.481114 
L 90.060605 -151.042545 
L 88.745735 -145.520708 
L 87.430865 -147.93128 
L 86.115996 -145.531255 
L 84.801126 -148.593083 
L 83.486257 -147.193673 
L 82.171387 -145.334164 
L 80.856518 -146.375647 
L 79.541648 -141.393338 
L 78.226778 -138.215167 
L 76.911909 -142.131604 
L 75.597039 -141.474086 
L 74.28217 -133.271748 
L 72.9673 -121.97825 
L 71.652431 -121.936723 
L 70.337561 -124.918132 
L 69.022691 -129.346412 
L 67.707822 -102.38354 
L 66.392952 -73.695629 
z
" style="stroke: #edd1cb; stroke-opacity: 0.2"/>
    </defs>
    <g clip-path="url(#pcd27b0c974)">
     <use xlink:href="#mdf6b0f4414" x="0" y="362.097812" style="fill: #edd1cb; fill-opacity: 0.2; stroke: #edd1cb; stroke-opacity: 0.2"/>
    </g>
   </g>
   <g id="PolyCollection_2">
    <defs>
     <path id="m726efadda0" d="M 66.392952 -62.58406 
L 66.392952 -56.451506 
L 67.707822 -58.375612 
L 69.022691 -64.043125 
L 70.337561 -70.596558 
L 71.652431 -74.732497 
L 72.9673 -92.164483 
L 74.28217 -102.206554 
L 75.597039 -111.543975 
L 76.911909 -132.925356 
L 78.226778 -131.59417 
L 79.541648 -135.340542 
L 80.856518 -139.083948 
L 82.171387 -126.215702 
L 83.486257 -136.658875 
L 84.801126 -126.95232 
L 86.115996 -128.669449 
L 87.430865 -136.932429 
L 88.745735 -128.918613 
L 90.060605 -126.465855 
L 91.375474 -123.737565 
L 92.690344 -135.603879 
L 94.005213 -132.293545 
L 95.320083 -133.861702 
L 96.634953 -133.473783 
L 97.949822 -143.931129 
L 99.264692 -145.806457 
L 100.579561 -154.355516 
L 101.894431 -151.155263 
L 103.2093 -167.797567 
L 104.52417 -180.809512 
L 105.83904 -192.107295 
L 107.153909 -209.456225 
L 108.468779 -203.89319 
L 109.783648 -212.792266 
L 111.098518 -208.230835 
L 112.413387 -229.824467 
L 113.728257 -214.967186 
L 115.043127 -225.975265 
L 116.357996 -228.045707 
L 117.672866 -216.903158 
L 118.987735 -233.160179 
L 120.302605 -215.094076 
L 121.617474 -234.742838 
L 122.932344 -238.03867 
L 124.247214 -238.11777 
L 125.562083 -236.799437 
L 126.876953 -231.117093 
L 128.191822 -226.780437 
L 129.506692 -227.21285 
L 130.821561 -228.742446 
L 132.136431 -239.093006 
L 133.451301 -241.876337 
L 134.76617 -217.037298 
L 136.08104 -208.244677 
L 137.395909 -227.951776 
L 138.710779 -219.000955 
L 140.025648 -203.245889 
L 141.340518 -221.700241 
L 142.655388 -240.80618 
L 143.970257 -215.019919 
L 145.285127 -192.529491 
L 146.599996 -234.056316 
L 147.914866 -214.383165 
L 149.229736 -232.461133 
L 150.544605 -220.595478 
L 151.859475 -229.568711 
L 153.174344 -251.946422 
L 154.489214 -243.229605 
L 155.804083 -238.476686 
L 157.118953 -233.00165 
L 158.433823 -236.503801 
L 159.748692 -240.938343 
L 161.063562 -243.118865 
L 162.378431 -252.380813 
L 163.693301 -240.625898 
L 165.00817 -233.211924 
L 166.32304 -226.084687 
L 167.63791 -251.129056 
L 168.952779 -258.535449 
L 170.267649 -238.738375 
L 171.582518 -245.524163 
L 172.897388 -248.388242 
L 174.212257 -255.992056 
L 175.527127 -204.041173 
L 176.841997 -247.13253 
L 178.156866 -241.586633 
L 179.471736 -254.469711 
L 180.786605 -224.954216 
L 182.101475 -244.801058 
L 183.416344 -231.67277 
L 184.731214 -229.612875 
L 186.046084 -244.544972 
L 187.360953 -253.539957 
L 188.675823 -284.34511 
L 189.990692 -269.331277 
L 191.305562 -281.95695 
L 192.620431 -254.47037 
L 193.935301 -249.296243 
L 195.250171 -295.451735 
L 196.56504 -280.759904 
L 197.87991 -289.518578 
L 199.194779 -265.642582 
L 200.509649 -246.376136 
L 201.824519 -281.844563 
L 203.139388 -251.946092 
L 204.454258 -287.18381 
L 205.769127 -283.626619 
L 207.083997 -248.928099 
L 208.398866 -273.498527 
L 209.713736 -284.97824 
L 211.028606 -241.333843 
L 212.343475 -235.96658 
L 213.658345 -277.693132 
L 214.973214 -269.116389 
L 216.288084 -240.316419 
L 217.602953 -297.451646 
L 218.917823 -259.401924 
L 220.232693 -273.755602 
L 221.547562 -284.44827 
L 222.862432 -273.03744 
L 224.177301 -291.294372 
L 225.492171 -280.119524 
L 226.80704 -300.224429 
L 228.12191 -284.926495 
L 229.43678 -300.472276 
L 230.751649 -297.440769 
L 232.066519 -269.358303 
L 233.381388 -278.669687 
L 234.696258 -284.480899 
L 236.011127 -292.815399 
L 237.325997 -305.45096 
L 238.640867 -296.532768 
L 239.955736 -306.008285 
L 241.270606 -317.560506 
L 242.585475 -284.312152 
L 243.900345 -320.843155 
L 245.215214 -302.822204 
L 246.530084 -298.12828 
L 247.844954 -282.213037 
L 249.159823 -315.186189 
L 250.474693 -286.028292 
L 251.789562 -284.71688 
L 253.104432 -301.86872 
L 254.419302 -273.36933 
L 255.734171 -283.928188 
L 257.049041 -288.118179 
L 258.36391 -297.860659 
L 259.67878 -317.122819 
L 260.993649 -317.995226 
L 262.308519 -316.558573 
L 263.623389 -292.021433 
L 264.938258 -293.197386 
L 266.253128 -286.052022 
L 267.567997 -296.822801 
L 268.882867 -301.832795 
L 270.197736 -299.39388 
L 271.512606 -321.660521 
L 272.827476 -304.100328 
L 274.142345 -321.660521 
L 275.457215 -324.50812 
L 276.772084 -314.660174 
L 278.086954 -324.50812 
L 279.401823 -324.50812 
L 280.716693 -324.50812 
L 282.031563 -324.50812 
L 283.346432 -324.50812 
L 284.661302 -324.50812 
L 285.976171 -324.50812 
L 287.291041 -324.50812 
L 288.60591 -316.281723 
L 289.92078 -324.50812 
L 291.23565 -306.789727 
L 292.550519 -324.50812 
L 293.865389 -324.50812 
L 295.180258 -324.50812 
L 296.495128 -324.50812 
L 297.809997 -324.50812 
L 299.124867 -324.50812 
L 300.439737 -324.50812 
L 301.754606 -302.439228 
L 303.069476 -290.903487 
L 304.384345 -311.891675 
L 305.699215 -298.256488 
L 307.014085 -306.24921 
L 308.328954 -305.326377 
L 309.643824 -314.660174 
L 310.958693 -324.50812 
L 312.273563 -298.892913 
L 313.588432 -308.06851 
L 314.903302 -308.055326 
L 316.218172 -324.50812 
L 317.533041 -316.598123 
L 318.847911 -320.157622 
L 320.16278 -313.539591 
L 321.47765 -316.281723 
L 322.792519 -316.58494 
L 324.107389 -324.50812 
L 325.422259 -324.50812 
L 326.737128 -324.50812 
L 328.051998 -324.50812 
L 328.051998 -324.50812 
L 328.051998 -324.50812 
L 326.737128 -324.50812 
L 325.422259 -324.50812 
L 324.107389 -324.50812 
L 322.792519 -325.720986 
L 321.47765 -325.41777 
L 320.16278 -324.50812 
L 318.847911 -326.287869 
L 317.533041 -324.50812 
L 316.218172 -325.53642 
L 314.903302 -324.534487 
L 313.588432 -324.560853 
L 312.273563 -324.574037 
L 310.958693 -324.54767 
L 309.643824 -324.54767 
L 308.328954 -324.50812 
L 307.014085 -324.50812 
L 305.699215 -324.50812 
L 304.384345 -324.50812 
L 303.069476 -324.50812 
L 301.754606 -324.50812 
L 300.439737 -324.50812 
L 299.124867 -324.50812 
L 297.809997 -324.50812 
L 296.495128 -324.50812 
L 295.180258 -324.50812 
L 293.865389 -324.50812 
L 292.550519 -324.50812 
L 291.23565 -324.50812 
L 289.92078 -324.50812 
L 288.60591 -324.50812 
L 287.291041 -324.50812 
L 285.976171 -324.50812 
L 284.661302 -324.50812 
L 283.346432 -324.50812 
L 282.031563 -324.50812 
L 280.716693 -324.50812 
L 279.401823 -324.50812 
L 278.086954 -324.50812 
L 276.772084 -324.50812 
L 275.457215 -324.50812 
L 274.142345 -324.50812 
L 272.827476 -324.50812 
L 271.512606 -324.50812 
L 270.197736 -324.50812 
L 268.882867 -323.55892 
L 267.567997 -321.014538 
L 266.253128 -321.001684 
L 264.938258 -320.856668 
L 263.623389 -321.805538 
L 262.308519 -322.926121 
L 260.993649 -323.71712 
L 259.67878 -323.562546 
L 258.36391 -322.912937 
L 257.049041 -320.557077 
L 255.734171 -319.710048 
L 254.419302 -319.067031 
L 253.104432 -321.899469 
L 251.789562 -322.100185 
L 250.474693 -322.425154 
L 249.159823 -323.506187 
L 247.844954 -322.899754 
L 246.530084 -323.862137 
L 245.215214 -323.71712 
L 243.900345 -324.50812 
L 242.585475 -323.216154 
L 241.270606 -323.71712 
L 239.955736 -323.862137 
L 238.640867 -324.204903 
L 237.325997 -324.521303 
L 236.011127 -323.216154 
L 234.696258 -321.278205 
L 233.381388 -320.632221 
L 232.066519 -314.820022 
L 230.751649 -318.154415 
L 229.43678 -319.736744 
L 228.12191 -316.652504 
L 226.80704 -319.986238 
L 225.492171 -317.903273 
L 224.177301 -317.890089 
L 222.862432 -314.233034 
L 221.547562 -310.454692 
L 220.232693 -309.192718 
L 218.917823 -305.855688 
L 217.602953 -314.516805 
L 216.288084 -299.961092 
L 214.973214 -305.064688 
L 213.658345 -306.647347 
L 212.343475 -294.440244 
L 211.028606 -294.059905 
L 209.713736 -304.535707 
L 208.398866 -307.304206 
L 207.083997 -298.553442 
L 205.769127 -309.241826 
L 204.454258 -313.818089 
L 203.139388 -302.795508 
L 201.824519 -312.82835 
L 200.509649 -299.300278 
L 199.194779 -304.709398 
L 197.87991 -308.625835 
L 196.56504 -307.291023 
L 195.250171 -310.612892 
L 193.935301 -300.053705 
L 192.620431 -302.802759 
L 191.305562 -306.697443 
L 189.990692 -305.434151 
L 188.675823 -306.790386 
L 187.360953 -297.536349 
L 186.046084 -290.561379 
L 184.731214 -284.095945 
L 183.416344 -284.905731 
L 182.101475 -291.523762 
L 180.786605 -283.615413 
L 179.471736 -289.997792 
L 178.156866 -289.061446 
L 176.841997 -288.304723 
L 175.527127 -266.897305 
L 174.212257 -291.513875 
L 172.897388 -286.813029 
L 171.582518 -286.122882 
L 170.267649 -282.74828 
L 168.952779 -290.509964 
L 167.63791 -286.055647 
L 166.32304 -273.057215 
L 165.00817 -276.854673 
L 163.693301 -282.255882 
L 162.378431 -284.128245 
L 161.063562 -285.790333 
L 159.748692 -277.542183 
L 158.433823 -274.676457 
L 157.118953 -272.897367 
L 155.804083 -274.758524 
L 154.489214 -273.700232 
L 153.174344 -271.82787 
L 151.859475 -265.117226 
L 150.544605 -255.772553 
L 149.229736 -257.97351 
L 147.914866 -253.990497 
L 146.599996 -259.251634 
L 145.285127 -242.471893 
L 143.970257 -252.569005 
L 142.655388 -263.193778 
L 141.340518 -253.913704 
L 140.025648 -240.174369 
L 138.710779 -248.269262 
L 137.395909 -253.68794 
L 136.08104 -245.460884 
L 134.76617 -240.183597 
L 133.451301 -258.037779 
L 132.136431 -251.855127 
L 130.821561 -251.881164 
L 129.506692 -251.802064 
L 128.191822 -247.438383 
L 126.876953 -242.510125 
L 125.562083 -244.406217 
L 124.247214 -244.419401 
L 122.932344 -244.406217 
L 121.617474 -244.379851 
L 120.302605 -244.275043 
L 118.987735 -244.327117 
L 117.672866 -244.037084 
L 116.357996 -243.338368 
L 115.043127 -242.706557 
L 113.728257 -240.517465 
L 112.413387 -241.901385 
L 111.098518 -236.641237 
L 109.783648 -235.90363 
L 108.468779 -236.577957 
L 107.153909 -232.740949 
L 105.83904 -227.967596 
L 104.52417 -218.489112 
L 103.2093 -205.661075 
L 101.894431 -194.575873 
L 100.579561 -199.266831 
L 99.264692 -187.193209 
L 97.949822 -178.793451 
L 96.634953 -162.723963 
L 95.320083 -152.888871 
L 94.005213 -146.022004 
L 92.690344 -152.848661 
L 91.375474 -145.289671 
L 90.060605 -148.36633 
L 88.745735 -148.434553 
L 87.430865 -152.637728 
L 86.115996 -149.341896 
L 84.801126 -150.06665 
L 83.486257 -156.434527 
L 82.171387 -149.342226 
L 80.856518 -158.438063 
L 79.541648 -150.24001 
L 78.226778 -148.064432 
L 76.911909 -149.369251 
L 75.597039 -136.60713 
L 74.28217 -127.973369 
L 72.9673 -114.352684 
L 71.652431 -91.374142 
L 70.337561 -81.053244 
L 69.022691 -72.140655 
L 67.707822 -65.007486 
L 66.392952 -62.58406 
z
" style="stroke: #d499a7; stroke-opacity: 0.2"/>
    </defs>
    <g clip-path="url(#pcd27b0c974)">
     <use xlink:href="#m726efadda0" x="0" y="362.097812" style="fill: #d499a7; fill-opacity: 0.2; stroke: #d499a7; stroke-opacity: 0.2"/>
    </g>
   </g>
   <g id="PolyCollection_3">
    <defs>
     <path id="m907f916886" d="M 66.392952 -67.132638 
L 66.392952 -57.466292 
L 67.707822 -66.297804 
L 69.022691 -82.578226 
L 70.337561 -94.867724 
L 71.652431 -99.70238 
L 72.9673 -110.871626 
L 74.28217 -118.277031 
L 75.597039 -119.177123 
L 76.911909 -119.255893 
L 78.226778 -137.159512 
L 79.541648 -126.505076 
L 80.856518 -128.02017 
L 82.171387 -122.73003 
L 83.486257 -123.578377 
L 84.801126 -130.685509 
L 86.115996 -129.288406 
L 87.430865 -126.545944 
L 88.745735 -126.138579 
L 90.060605 -122.68191 
L 91.375474 -115.314078 
L 92.690344 -130.418876 
L 94.005213 -138.450489 
L 95.320083 -132.980726 
L 96.634953 -139.940865 
L 97.949822 -142.986543 
L 99.264692 -127.62434 
L 100.579561 -139.175243 
L 101.894431 -134.852759 
L 103.2093 -134.891979 
L 104.52417 -135.142463 
L 105.83904 -143.05246 
L 107.153909 -144.290704 
L 108.468779 -146.676557 
L 109.783648 -143.848074 
L 111.098518 -139.927681 
L 112.413387 -137.091947 
L 113.728257 -144.792 
L 115.043127 -149.866593 
L 116.357996 -148.589458 
L 117.672866 -144.131186 
L 118.987735 -149.775957 
L 120.302605 -157.367906 
L 121.617474 -156.920332 
L 122.932344 -146.926381 
L 124.247214 -146.374329 
L 125.562083 -142.365938 
L 126.876953 -139.978108 
L 128.191822 -150.539931 
L 129.506692 -156.762792 
L 130.821561 -157.183999 
L 132.136431 -155.021933 
L 133.451301 -159.740905 
L 134.76617 -161.50879 
L 136.08104 -157.209047 
L 137.395909 -159.241257 
L 138.710779 -162.221349 
L 140.025648 -161.694015 
L 141.340518 -163.645148 
L 142.655388 -163.539681 
L 143.970257 -163.221963 
L 145.285127 -164.039989 
L 146.599996 -163.459922 
L 147.914866 -163.459263 
L 149.229736 -158.144404 
L 150.544605 -160.44094 
L 151.859475 -160.375024 
L 153.174344 -162.353182 
L 154.489214 -165.331296 
L 155.804083 -162.193664 
L 157.118953 -160.664398 
L 158.433823 -163.592415 
L 159.748692 -163.578243 
L 161.063562 -160.059283 
L 162.378431 -156.604921 
L 163.693301 -164.685972 
L 165.00817 -164.697837 
L 166.32304 -162.42569 
L 167.63791 -167.718137 
L 168.952779 -170.023901 
L 170.267649 -169.681135 
L 171.582518 -170.838631 
L 172.897388 -172.820085 
L 174.212257 -175.531896 
L 175.527127 -166.365857 
L 176.841997 -182.501922 
L 178.156866 -178.747969 
L 179.471736 -183.233596 
L 180.786605 -181.993704 
L 182.101475 -181.175679 
L 183.416344 -181.648301 
L 184.731214 -183.548678 
L 186.046084 -184.237507 
L 187.360953 -186.478673 
L 188.675823 -183.390478 
L 189.990692 -185.213073 
L 191.305562 -192.49027 
L 192.620431 -192.49027 
L 193.935301 -197.948168 
L 195.250171 -197.948168 
L 196.56504 -197.948168 
L 197.87991 -197.948168 
L 199.194779 -197.948168 
L 200.509649 -197.948168 
L 201.824519 -197.948168 
L 203.139388 -197.948168 
L 204.454258 -197.948168 
L 205.769127 -197.948168 
L 207.083997 -197.948168 
L 208.398866 -197.948168 
L 209.713736 -197.948168 
L 211.028606 -197.948168 
L 212.343475 -197.948168 
L 213.658345 -197.948168 
L 214.973214 -197.948168 
L 216.288084 -197.948168 
L 217.602953 -191.699271 
L 218.917823 -187.533339 
L 220.232693 -191.699271 
L 221.547562 -191.699271 
L 222.862432 -197.948168 
L 224.177301 -197.948168 
L 225.492171 -197.948168 
L 226.80704 -197.948168 
L 228.12191 -197.948168 
L 229.43678 -197.948168 
L 230.751649 -197.948168 
L 232.066519 -197.948168 
L 233.381388 -197.948168 
L 234.696258 -197.948168 
L 236.011127 -197.948168 
L 237.325997 -197.948168 
L 238.640867 -197.948168 
L 239.955736 -191.066471 
L 241.270606 -197.948168 
L 242.585475 -197.948168 
L 243.900345 -197.948168 
L 245.215214 -197.948168 
L 246.530084 -197.948168 
L 247.844954 -191.699271 
L 249.159823 -197.948168 
L 250.474693 -194.62597 
L 251.789562 -192.41117 
L 253.104432 -192.41117 
L 254.419302 -192.41117 
L 255.734171 -192.41117 
L 257.049041 -192.41117 
L 258.36391 -192.41117 
L 259.67878 -189.088972 
L 260.993649 -189.088972 
L 262.308519 -189.088972 
L 263.623389 -194.62597 
L 264.938258 -197.948168 
L 266.253128 -197.948168 
L 267.567997 -197.948168 
L 268.882867 -197.948168 
L 270.197736 -194.70507 
L 271.512606 -192.701204 
L 272.827476 -194.863269 
L 274.142345 -197.948168 
L 275.457215 -198.106368 
L 276.772084 -198.264568 
L 278.086954 -198.422768 
L 279.401823 -196.128869 
L 280.716693 -194.38867 
L 282.031563 -192.463904 
L 283.346432 -195.416969 
L 284.661302 -198.422768 
L 285.976171 -198.422768 
L 287.291041 -198.264568 
L 288.60591 -198.422768 
L 289.92078 -198.897368 
L 291.23565 -190.117271 
L 292.550519 -199.371968 
L 293.865389 -199.371968 
L 295.180258 -199.371968 
L 296.495128 -199.530168 
L 297.809997 -194.54687 
L 299.124867 -189.480517 
L 300.439737 -199.371968 
L 301.754606 -194.863269 
L 303.069476 -199.530168 
L 304.384345 -199.846568 
L 305.699215 -200.162967 
L 307.014085 -200.004768 
L 308.328954 -200.321167 
L 309.643824 -200.795767 
L 310.958693 -200.321167 
L 312.273563 -200.479367 
L 313.588432 -200.637567 
L 314.903302 -200.321167 
L 316.218172 -201.112167 
L 317.533041 -201.270367 
L 318.847911 -201.112167 
L 320.16278 -201.586767 
L 321.47765 -201.903167 
L 322.792519 -202.061367 
L 324.107389 -202.535967 
L 325.422259 -202.535967 
L 326.737128 -196.445269 
L 328.051998 -196.287069 
L 328.051998 -203.010566 
L 328.051998 -203.010566 
L 326.737128 -203.010566 
L 325.422259 -203.010566 
L 324.107389 -203.010566 
L 322.792519 -203.010566 
L 321.47765 -203.010566 
L 320.16278 -202.852366 
L 318.847911 -202.535967 
L 317.533041 -202.694167 
L 316.218172 -202.535967 
L 314.903302 -202.061367 
L 313.588432 -202.219567 
L 312.273563 -202.061367 
L 310.958693 -201.903167 
L 309.643824 -202.377767 
L 308.328954 -202.061367 
L 307.014085 -201.903167 
L 305.699215 -201.744967 
L 304.384345 -201.428567 
L 303.069476 -201.270367 
L 301.754606 -200.953967 
L 300.439737 -201.112167 
L 299.124867 -200.953967 
L 297.809997 -201.270367 
L 296.495128 -201.270367 
L 295.180258 -201.112167 
L 293.865389 -200.953967 
L 292.550519 -200.953967 
L 291.23565 -200.479367 
L 289.92078 -200.479367 
L 288.60591 -200.004768 
L 287.291041 -199.688368 
L 285.976171 -199.688368 
L 284.661302 -199.846568 
L 283.346432 -199.846568 
L 282.031563 -199.371968 
L 280.716693 -199.688368 
L 279.401823 -199.846568 
L 278.086954 -199.846568 
L 276.772084 -199.688368 
L 275.457215 -199.213768 
L 274.142345 -198.897368 
L 272.827476 -199.055568 
L 271.512606 -198.264568 
L 270.197736 -198.264568 
L 268.882867 -198.422768 
L 267.567997 -198.422768 
L 266.253128 -198.422768 
L 264.938258 -198.426723 
L 263.623389 -198.422768 
L 262.308519 -196.840769 
L 260.993649 -196.840769 
L 259.67878 -196.840769 
L 258.36391 -197.948168 
L 257.049041 -197.948168 
L 255.734171 -197.948168 
L 254.419302 -197.948168 
L 253.104432 -197.948168 
L 251.789562 -197.948168 
L 250.474693 -197.948168 
L 249.159823 -197.948168 
L 247.844954 -197.948168 
L 246.530084 -197.948168 
L 245.215214 -197.948168 
L 243.900345 -197.948168 
L 242.585475 -197.948168 
L 241.270606 -197.948168 
L 239.955736 -197.948168 
L 238.640867 -197.948168 
L 237.325997 -197.948168 
L 236.011127 -197.948168 
L 234.696258 -197.948168 
L 233.381388 -197.948168 
L 232.066519 -197.948168 
L 230.751649 -197.948168 
L 229.43678 -197.948168 
L 228.12191 -197.948168 
L 226.80704 -197.948168 
L 225.492171 -197.948168 
L 224.177301 -197.948168 
L 222.862432 -197.948168 
L 221.547562 -197.948168 
L 220.232693 -197.948168 
L 218.917823 -197.948168 
L 217.602953 -197.948168 
L 216.288084 -197.948168 
L 214.973214 -197.948168 
L 213.658345 -197.948168 
L 212.343475 -197.948168 
L 211.028606 -197.948168 
L 209.713736 -197.948168 
L 208.398866 -197.948168 
L 207.083997 -197.948168 
L 205.769127 -197.948168 
L 204.454258 -197.948168 
L 203.139388 -197.948168 
L 201.824519 -197.948168 
L 200.509649 -197.948168 
L 199.194779 -197.948168 
L 197.87991 -197.948168 
L 196.56504 -197.948168 
L 195.250171 -197.948168 
L 193.935301 -197.948168 
L 192.620431 -197.948168 
L 191.305562 -197.948168 
L 189.990692 -197.948168 
L 188.675823 -196.128869 
L 187.360953 -197.948168 
L 186.046084 -196.550736 
L 184.731214 -196.128869 
L 183.416344 -194.731436 
L 182.101475 -193.75587 
L 180.786605 -194.256836 
L 179.471736 -195.158576 
L 178.156866 -190.829171 
L 176.841997 -193.28127 
L 175.527127 -188.1022 
L 174.212257 -190.882564 
L 172.897388 -188.695449 
L 171.582518 -185.925632 
L 170.267649 -182.788659 
L 168.952779 -184.582251 
L 167.63791 -181.549426 
L 166.32304 -178.227557 
L 165.00817 -179.307601 
L 163.693301 -178.199872 
L 162.378431 -174.060307 
L 161.063562 -175.564195 
L 159.748692 -176.777061 
L 158.433823 -176.618202 
L 157.118953 -174.509529 
L 155.804083 -177.19761 
L 154.489214 -177.910168 
L 153.174344 -177.595087 
L 151.859475 -173.640748 
L 150.544605 -175.009177 
L 149.229736 -173.374774 
L 147.914866 -171.212379 
L 146.599996 -171.555145 
L 145.285127 -169.340346 
L 143.970257 -170.290864 
L 142.655388 -170.501138 
L 141.340518 -169.023946 
L 140.025648 -163.829715 
L 138.710779 -165.360299 
L 137.395909 -166.598214 
L 136.08104 -166.230399 
L 134.76617 -167.627832 
L 133.451301 -168.708205 
L 132.136431 -167.890839 
L 130.821561 -167.310113 
L 129.506692 -168.431026 
L 128.191822 -165.860606 
L 126.876953 -159.006264 
L 125.562083 -161.049021 
L 124.247214 -160.653521 
L 122.932344 -162.446124 
L 121.617474 -168.984726 
L 120.302605 -167.667382 
L 118.987735 -164.819123 
L 117.672866 -162.329452 
L 116.357996 -161.496595 
L 115.043127 -164.083494 
L 113.728257 -159.493059 
L 112.413387 -155.115535 
L 111.098518 -158.648996 
L 109.783648 -161.312358 
L 108.468779 -164.819123 
L 107.153909 -163.791813 
L 105.83904 -161.827826 
L 104.52417 -155.61749 
L 103.2093 -149.712348 
L 101.894431 -152.679915 
L 100.579561 -155.591453 
L 99.264692 -147.351213 
L 97.949822 -158.217572 
L 96.634953 -153.376324 
L 95.320083 -152.452832 
L 94.005213 -156.726537 
L 92.690344 -147.65443 
L 91.375474 -135.355044 
L 90.060605 -136.883321 
L 88.745735 -144.069883 
L 87.430865 -143.62132 
L 86.115996 -148.735133 
L 84.801126 -148.261193 
L 83.486257 -142.052175 
L 82.171387 -139.916805 
L 80.856518 -142.107215 
L 79.541648 -144.911639 
L 78.226778 -154.987986 
L 76.911909 -141.577245 
L 75.597039 -140.139933 
L 74.28217 -136.838168 
L 72.9673 -129.922853 
L 71.652431 -122.211266 
L 70.337561 -113.522134 
L 69.022691 -101.82951 
L 67.707822 -81.223309 
L 66.392952 -67.132638 
z
" style="stroke: #a9678f; stroke-opacity: 0.2"/>
    </defs>
    <g clip-path="url(#pcd27b0c974)">
     <use xlink:href="#m907f916886" x="0" y="362.097812" style="fill: #a9678f; fill-opacity: 0.2; stroke: #a9678f; stroke-opacity: 0.2"/>
    </g>
   </g>
   <g id="PolyCollection_4">
    <defs>
     <path id="m49daebb533" d="M 66.392952 -88.436567 
L 66.392952 -67.496169 
L 67.707822 -111.320518 
L 69.022691 -113.996075 
L 70.337561 -105.709034 
L 71.652431 -113.337238 
L 72.9673 -118.592112 
L 74.28217 -120.508639 
L 75.597039 -124.978117 
L 76.911909 -120.271339 
L 78.226778 -134.704447 
L 79.541648 -127.79869 
L 80.856518 -122.024392 
L 82.171387 -122.934701 
L 83.486257 -137.088652 
L 84.801126 -131.622514 
L 86.115996 -135.471716 
L 87.430865 -127.00769 
L 88.745735 -129.669074 
L 90.060605 -131.699307 
L 91.375474 -134.799696 
L 92.690344 -134.24336 
L 94.005213 -132.820549 
L 95.320083 -137.092277 
L 96.634953 -127.601599 
L 97.949822 -129.986133 
L 99.264692 -120.929187 
L 100.579561 -119.9144 
L 101.894431 -128.495429 
L 103.2093 -133.810617 
L 104.52417 -130.801522 
L 105.83904 -124.50088 
L 107.153909 -136.722814 
L 108.468779 -136.104187 
L 109.783648 -130.751096 
L 111.098518 -135.273637 
L 112.413387 -135.54818 
L 113.728257 -134.06143 
L 115.043127 -125.740772 
L 116.357996 -129.774541 
L 117.672866 -132.834392 
L 118.987735 -130.646289 
L 120.302605 -130.474905 
L 121.617474 -121.243609 
L 122.932344 -127.456582 
L 124.247214 -127.889984 
L 125.562083 -123.459397 
L 126.876953 -115.208611 
L 128.191822 -123.973547 
L 129.506692 -122.842088 
L 130.821561 -130.60575 
L 132.136431 -136.434429 
L 133.451301 -131.120888 
L 134.76617 -128.404134 
L 136.08104 -132.387147 
L 137.395909 -132.755951 
L 138.710779 -130.198385 
L 140.025648 -130.014478 
L 141.340518 -125.267491 
L 142.655388 -131.49101 
L 143.970257 -135.483911 
L 145.285127 -132.607968 
L 146.599996 -128.062027 
L 147.914866 -134.681376 
L 149.229736 -131.17461 
L 150.544605 -125.146204 
L 151.859475 -125.741431 
L 153.174344 -138.081027 
L 154.489214 -132.873942 
L 155.804083 -130.633435 
L 157.118953 -132.031197 
L 158.433823 -140.809316 
L 159.748692 -125.518303 
L 161.063562 -125.571366 
L 162.378431 -119.979987 
L 163.693301 -122.182921 
L 165.00817 -131.014433 
L 166.32304 -125.28364 
L 167.63791 -131.225366 
L 168.952779 -131.960007 
L 170.267649 -130.436015 
L 171.582518 -130.540163 
L 172.897388 -130.13082 
L 174.212257 -125.22827 
L 175.527127 -124.633043 
L 176.841997 -137.897778 
L 178.156866 -133.400615 
L 179.471736 -132.610605 
L 180.786605 -138.985733 
L 182.101475 -132.532493 
L 183.416344 -135.654965 
L 184.731214 -126.151103 
L 186.046084 -126.096392 
L 187.360953 -130.105113 
L 188.675823 -130.962688 
L 189.990692 -128.77096 
L 191.305562 -136.27524 
L 192.620431 -126.349183 
L 193.935301 -133.030164 
L 195.250171 -127.884381 
L 196.56504 -134.876159 
L 197.87991 -132.690364 
L 199.194779 -134.653032 
L 200.509649 -134.860999 
L 201.824519 -132.083601 
L 203.139388 -138.411269 
L 204.454258 -130.396135 
L 205.769127 -132.387147 
L 207.083997 -131.921116 
L 208.398866 -137.593903 
L 209.713736 -137.104801 
L 211.028606 -139.294882 
L 212.343475 -136.19614 
L 213.658345 -137.463058 
L 214.973214 -132.267179 
L 216.288084 -131.939244 
L 217.602953 -144.590954 
L 218.917823 -130.856233 
L 220.232693 -132.426697 
L 221.547562 -136.076172 
L 222.862432 -128.311192 
L 224.177301 -143.48751 
L 225.492171 -128.126295 
L 226.80704 -133.914765 
L 228.12191 -137.976219 
L 229.43678 -142.009329 
L 230.751649 -138.596824 
L 232.066519 -132.622799 
L 233.381388 -131.609001 
L 234.696258 -131.318968 
L 236.011127 -132.924697 
L 237.325997 -129.393872 
L 238.640867 -130.540163 
L 239.955736 -133.600013 
L 241.270606 -136.117699 
L 242.585475 -137.151932 
L 243.900345 -138.399074 
L 245.215214 -134.785195 
L 246.530084 -143.671747 
L 247.844954 -129.500328 
L 249.159823 -127.905145 
L 250.474693 -128.417647 
L 251.789562 -130.685509 
L 253.104432 -125.7032 
L 254.419302 -138.991665 
L 255.734171 -136.460796 
L 257.049041 -126.796098 
L 258.36391 -134.215016 
L 259.67878 -126.124407 
L 260.993649 -134.427597 
L 262.308519 -135.4849 
L 263.623389 -132.650814 
L 264.938258 -133.701855 
L 266.253128 -136.408062 
L 267.567997 -134.127346 
L 268.882867 -133.204184 
L 270.197736 -136.339509 
L 271.512606 -137.053386 
L 272.827476 -124.411563 
L 274.142345 -128.589689 
L 275.457215 -130.935992 
L 276.772084 -135.762079 
L 278.086954 -141.285564 
L 279.401823 -135.471387 
L 280.716693 -139.939217 
L 282.031563 -137.079094 
L 283.346432 -136.459148 
L 284.661302 -137.515132 
L 285.976171 -136.182298 
L 287.291041 -135.615415 
L 288.60591 -132.504479 
L 289.92078 -136.510563 
L 291.23565 -133.296797 
L 292.550519 -134.49648 
L 293.865389 -141.022227 
L 295.180258 -130.709239 
L 296.495128 -139.967561 
L 297.809997 -137.85724 
L 299.124867 -133.084875 
L 300.439737 -128.498065 
L 301.754606 -132.490307 
L 303.069476 -132.43988 
L 304.384345 -141.323466 
L 305.699215 -138.13343 
L 307.014085 -139.492302 
L 308.328954 -139.083619 
L 309.643824 -136.210312 
L 310.958693 -140.745048 
L 312.273563 -124.738839 
L 313.588432 -129.420898 
L 314.903302 -131.384225 
L 316.218172 -137.565888 
L 317.533041 -133.415117 
L 318.847911 -133.545632 
L 320.16278 -127.385392 
L 321.47765 -137.551057 
L 322.792519 -132.635982 
L 324.107389 -138.752388 
L 325.422259 -126.401916 
L 326.737128 -135.907425 
L 328.051998 -133.49158 
L 328.051998 -145.940268 
L 328.051998 -145.940268 
L 326.737128 -145.242211 
L 325.422259 -141.853436 
L 324.107389 -151.54483 
L 322.792519 -147.61521 
L 321.47765 -153.323591 
L 320.16278 -146.229971 
L 318.847911 -147.973796 
L 317.533041 -146.893093 
L 316.218172 -148.233837 
L 314.903302 -146.454088 
L 313.588432 -142.778246 
L 312.273563 -139.374641 
L 310.958693 -153.192087 
L 309.643824 -150.198812 
L 308.328954 -153.876631 
L 307.014085 -155.196283 
L 305.699215 -154.08328 
L 304.384345 -154.074381 
L 303.069476 -149.238737 
L 301.754606 -147.524245 
L 300.439737 -147.274421 
L 299.124867 -145.399751 
L 297.809997 -148.367978 
L 296.495128 -152.441297 
L 295.180258 -147.25926 
L 293.865389 -152.613339 
L 292.550519 -145.821947 
L 291.23565 -145.676601 
L 289.92078 -148.867955 
L 288.60591 -143.435435 
L 287.291041 -147.957317 
L 285.976171 -147.324847 
L 284.661302 -150.595301 
L 283.346432 -151.808826 
L 282.031563 -148.368637 
L 280.716693 -152.453162 
L 279.401823 -151.878368 
L 278.086954 -152.61235 
L 276.772084 -147.53545 
L 275.457215 -145.742847 
L 274.142345 -143.172428 
L 272.827476 -144.531629 
L 271.512606 -150.396892 
L 270.197736 -152.809111 
L 268.882867 -150.840181 
L 267.567997 -148.762489 
L 266.253128 -150.687914 
L 264.938258 -148.169569 
L 263.623389 -147.578626 
L 262.308519 -149.685651 
L 260.993649 -147.092161 
L 259.67878 -139.547672 
L 258.36391 -144.463735 
L 257.049041 -141.445082 
L 255.734171 -150.73043 
L 254.419302 -153.125182 
L 253.104432 -144.015502 
L 251.789562 -147.77275 
L 250.474693 -143.278554 
L 249.159823 -139.113611 
L 247.844954 -146.470567 
L 246.530084 -157.41207 
L 245.215214 -148.570671 
L 243.900345 -154.628411 
L 242.585475 -153.732604 
L 241.270606 -150.06665 
L 239.955736 -145.453803 
L 238.640867 -147.708811 
L 237.325997 -149.196879 
L 236.011127 -149.648408 
L 234.696258 -145.167395 
L 233.381388 -148.090798 
L 232.066519 -149.27565 
L 230.751649 -152.347695 
L 229.43678 -153.890474 
L 228.12191 -149.025826 
L 226.80704 -148.551226 
L 225.492171 -143.66087 
L 224.177301 -152.441956 
L 222.862432 -144.741903 
L 221.547562 -149.210722 
L 220.232693 -151.252819 
L 218.917823 -147.838997 
L 217.602953 -155.30109 
L 216.288084 -144.047801 
L 214.973214 -148.117824 
L 213.658345 -149.684992 
L 212.343475 -149.948 
L 211.028606 -153.670642 
L 209.713736 -150.976958 
L 208.398866 -152.083369 
L 207.083997 -149.409461 
L 205.769127 -149.092402 
L 204.454258 -145.257042 
L 203.139388 -151.636784 
L 201.824519 -150.317462 
L 200.509649 -151.772572 
L 199.194779 -152.29595 
L 197.87991 -151.493415 
L 196.56504 -148.56375 
L 195.250171 -145.137073 
L 193.935301 -153.560891 
L 192.620431 -142.960836 
L 191.305562 -152.031295 
L 189.990692 -145.400081 
L 188.675823 -147.128415 
L 187.360953 -148.129359 
L 186.046084 -142.898544 
L 184.731214 -146.058918 
L 183.416344 -153.350287 
L 182.101475 -150.43809 
L 180.786605 -154.11459 
L 179.471736 -150.120372 
L 178.156866 -151.794654 
L 176.841997 -156.065723 
L 175.527127 -149.633577 
L 174.212257 -141.538025 
L 172.897388 -150.119383 
L 171.582518 -143.699432 
L 170.267649 -149.051863 
L 168.952779 -150.873799 
L 167.63791 -145.979818 
L 166.32304 -146.23096 
L 165.00817 -148.657022 
L 163.693301 -142.450311 
L 162.378431 -141.552527 
L 161.063562 -143.082122 
L 159.748692 -141.221295 
L 158.433823 -156.52714 
L 157.118953 -146.455077 
L 155.804083 -145.59882 
L 154.489214 -147.601367 
L 153.174344 -150.541579 
L 151.859475 -138.730306 
L 150.544605 -140.246059 
L 149.229736 -146.148564 
L 147.914866 -149.03835 
L 146.599996 -146.403003 
L 145.285127 -147.363738 
L 143.970257 -148.788196 
L 142.655388 -144.239618 
L 141.340518 -141.273699 
L 140.025648 -147.074034 
L 138.710779 -143.896522 
L 137.395909 -147.023278 
L 136.08104 -147.839985 
L 134.76617 -144.344755 
L 133.451301 -145.901377 
L 132.136431 -150.543227 
L 130.821561 -146.546371 
L 129.506692 -139.572391 
L 128.191822 -145.505877 
L 126.876953 -134.63062 
L 125.562083 -138.166718 
L 124.247214 -146.678534 
L 122.932344 -142.856358 
L 121.617474 -137.700358 
L 120.302605 -141.234149 
L 118.987735 -141.98494 
L 117.672866 -146.38949 
L 116.357996 -144.623912 
L 115.043127 -145.637051 
L 113.728257 -145.67792 
L 112.413387 -149.869229 
L 111.098518 -147.378569 
L 109.783648 -145.545097 
L 108.468779 -147.483706 
L 107.153909 -150.200131 
L 105.83904 -139.731579 
L 104.52417 -146.365101 
L 103.2093 -143.778202 
L 101.894431 -142.288815 
L 100.579561 -138.323929 
L 99.264692 -138.047409 
L 97.949822 -146.903639 
L 96.634953 -142.486236 
L 95.320083 -148.208459 
L 94.005213 -145.612003 
L 92.690344 -149.988538 
L 91.375474 -149.359034 
L 90.060605 -144.702683 
L 88.745735 -139.837376 
L 87.430865 -141.089462 
L 86.115996 -147.839656 
L 84.801126 -146.139336 
L 83.486257 -151.385642 
L 82.171387 -140.20552 
L 80.856518 -135.130268 
L 79.541648 -146.179216 
L 78.226778 -148.102993 
L 76.911909 -140.523897 
L 75.597039 -143.370837 
L 74.28217 -137.292664 
L 72.9673 -140.088518 
L 71.652431 -134.142837 
L 70.337561 -130.279133 
L 69.022691 -131.005205 
L 67.707822 -127.311895 
L 66.392952 -88.436567 
z
" style="stroke: #6c3f70; stroke-opacity: 0.2"/>
    </defs>
    <g clip-path="url(#pcd27b0c974)">
     <use xlink:href="#m49daebb533" x="0" y="362.097812" style="fill: #6c3f70; fill-opacity: 0.2; stroke: #6c3f70; stroke-opacity: 0.2"/>
    </g>
   </g>
   <g id="PolyCollection_5">
    <defs>
     <path id="m4218709d92" d="M 66.392952 -75.963491 
L 66.392952 -60.61513 
L 67.707822 -77.202064 
L 69.022691 -93.955768 
L 70.337561 -103.027545 
L 71.652431 -108.549382 
L 72.9673 -108.86776 
L 74.28217 -111.807642 
L 75.597039 -116.183518 
L 76.911909 -110.080626 
L 78.226778 -121.752156 
L 79.541648 -127.664879 
L 80.856518 -126.10661 
L 82.171387 -117.002533 
L 83.486257 -123.277467 
L 84.801126 -123.698345 
L 86.115996 -125.964889 
L 87.430865 -120.331982 
L 88.745735 -130.446561 
L 90.060605 -129.684565 
L 91.375474 -131.200318 
L 92.690344 -138.504211 
L 94.005213 -138.13343 
L 95.320083 -126.308314 
L 96.634953 -127.074595 
L 97.949822 -128.089052 
L 99.264692 -131.499909 
L 100.579561 -129.511863 
L 101.894431 -136.654261 
L 103.2093 -135.9038 
L 104.52417 -133.534426 
L 105.83904 -138.702291 
L 107.153909 -130.36878 
L 108.468779 -141.758516 
L 109.783648 -142.034048 
L 111.098518 -143.579134 
L 112.413387 -145.478522 
L 113.728257 -144.595239 
L 115.043127 -142.894589 
L 116.357996 -142.999397 
L 117.672866 -135.480945 
L 118.987735 -138.763593 
L 120.302605 -147.731882 
L 121.617474 -138.952445 
L 122.932344 -142.602249 
L 124.247214 -143.893226 
L 125.562083 -148.323154 
L 126.876953 -147.955999 
L 128.191822 -140.542024 
L 129.506692 -149.787822 
L 130.821561 -145.240563 
L 132.136431 -144.39617 
L 133.451301 -142.77561 
L 134.76617 -147.877558 
L 136.08104 -146.33412 
L 137.395909 -147.678819 
L 138.710779 -148.339304 
L 140.025648 -146.201957 
L 141.340518 -153.757652 
L 142.655388 -152.02701 
L 143.970257 -153.465971 
L 145.285127 -155.220342 
L 146.599996 -151.791688 
L 147.914866 -149.986231 
L 149.229736 -153.414556 
L 150.544605 -146.427721 
L 151.859475 -146.609981 
L 153.174344 -144.27785 
L 154.489214 -146.203605 
L 155.804083 -139.316964 
L 157.118953 -139.331795 
L 158.433823 -148.997811 
L 159.748692 -149.169524 
L 161.063562 -150.579481 
L 162.378431 -138.337772 
L 163.693301 -146.556588 
L 165.00817 -143.065643 
L 166.32304 -150.633203 
L 167.63791 -148.853454 
L 168.952779 -153.452787 
L 170.267649 -155.708125 
L 171.582518 -153.729967 
L 172.897388 -154.218739 
L 174.212257 -151.513849 
L 175.527127 -157.275293 
L 176.841997 -162.508416 
L 178.156866 -171.552838 
L 179.471736 -168.996261 
L 180.786605 -166.847379 
L 182.101475 -175.069161 
L 183.416344 -168.468598 
L 184.731214 -176.40628 
L 186.046084 -173.980218 
L 187.360953 -181.613365 
L 188.675823 -179.135229 
L 189.990692 -178.764778 
L 191.305562 -182.521697 
L 192.620431 -177.644854 
L 193.935301 -178.805976 
L 195.250171 -182.888193 
L 196.56504 -187.823372 
L 197.87991 -191.725637 
L 199.194779 -199.319234 
L 200.509649 -198.053635 
L 201.824519 -202.166833 
L 203.139388 -202.166833 
L 204.454258 -194.177736 
L 205.769127 -193.426287 
L 207.083997 -202.166833 
L 208.398866 -202.166833 
L 209.713736 -199.319234 
L 211.028606 -194.059086 
L 212.343475 -202.166833 
L 213.658345 -202.166833 
L 214.973214 -202.166833 
L 216.288084 -202.166833 
L 217.602953 -202.166833 
L 218.917823 -202.166833 
L 220.232693 -202.166833 
L 221.547562 -196.748485 
L 222.862432 -202.166833 
L 224.177301 -202.166833 
L 225.492171 -202.166833 
L 226.80704 -202.166833 
L 228.12191 -202.166833 
L 229.43678 -202.166833 
L 230.751649 -202.166833 
L 232.066519 -202.166833 
L 233.381388 -202.166833 
L 234.696258 -188.245239 
L 236.011127 -202.166833 
L 237.325997 -202.166833 
L 238.640867 -202.166833 
L 239.955736 -202.166833 
L 241.270606 -202.166833 
L 242.585475 -195.838836 
L 243.900345 -202.166833 
L 245.215214 -202.166833 
L 246.530084 -202.166833 
L 247.844954 -202.166833 
L 249.159823 -202.166833 
L 250.474693 -202.166833 
L 251.789562 -202.166833 
L 253.104432 -202.166833 
L 254.419302 -202.166833 
L 255.734171 -202.166833 
L 257.049041 -202.166833 
L 258.36391 -202.166833 
L 259.67878 -202.166833 
L 260.993649 -202.166833 
L 262.308519 -202.166833 
L 263.623389 -200.466184 
L 264.938258 -195.720186 
L 266.253128 -200.466184 
L 267.567997 -199.332418 
L 268.882867 -199.332418 
L 270.197736 -199.332418 
L 271.512606 -202.166833 
L 272.827476 -202.166833 
L 274.142345 -202.166833 
L 275.457215 -202.166833 
L 276.772084 -202.166833 
L 278.086954 -202.166833 
L 279.401823 -202.166833 
L 280.716693 -202.166833 
L 282.031563 -202.166833 
L 283.346432 -202.166833 
L 284.661302 -202.166833 
L 285.976171 -202.166833 
L 287.291041 -202.166833 
L 288.60591 -202.166833 
L 289.92078 -202.166833 
L 291.23565 -202.166833 
L 292.550519 -202.166833 
L 293.865389 -202.166833 
L 295.180258 -202.166833 
L 296.495128 -198.370035 
L 297.809997 -195.838836 
L 299.124867 -198.370035 
L 300.439737 -202.166833 
L 301.754606 -202.166833 
L 303.069476 -202.166833 
L 304.384345 -202.166833 
L 305.699215 -202.166833 
L 307.014085 -202.166833 
L 308.328954 -202.166833 
L 309.643824 -202.166833 
L 310.958693 -202.166833 
L 312.273563 -199.319234 
L 313.588432 -199.319234 
L 314.903302 -195.311503 
L 316.218172 -190.433671 
L 317.533041 -187.202108 
L 318.847911 -196.471636 
L 320.16278 -202.166833 
L 321.47765 -202.166833 
L 322.792519 -202.166833 
L 324.107389 -202.166833 
L 325.422259 -202.166833 
L 326.737128 -202.166833 
L 328.051998 -202.166833 
L 328.051998 -202.166833 
L 328.051998 -202.166833 
L 326.737128 -202.166833 
L 325.422259 -202.166833 
L 324.107389 -202.166833 
L 322.792519 -202.166833 
L 321.47765 -202.166833 
L 320.16278 -202.166833 
L 318.847911 -202.166833 
L 317.533041 -200.822134 
L 316.218172 -200.322486 
L 314.903302 -202.166833 
L 313.588432 -202.166833 
L 312.273563 -202.166833 
L 310.958693 -202.166833 
L 309.643824 -202.166833 
L 308.328954 -202.166833 
L 307.014085 -202.166833 
L 305.699215 -202.166833 
L 304.384345 -202.166833 
L 303.069476 -202.166833 
L 301.754606 -202.166833 
L 300.439737 -202.166833 
L 299.124867 -202.166833 
L 297.809997 -202.166833 
L 296.495128 -202.166833 
L 295.180258 -202.166833 
L 293.865389 -202.166833 
L 292.550519 -202.166833 
L 291.23565 -202.166833 
L 289.92078 -202.166833 
L 288.60591 -202.166833 
L 287.291041 -202.166833 
L 285.976171 -202.166833 
L 284.661302 -202.166833 
L 283.346432 -202.166833 
L 282.031563 -202.166833 
L 280.716693 -202.166833 
L 279.401823 -202.166833 
L 278.086954 -202.166833 
L 276.772084 -202.166833 
L 275.457215 -202.166833 
L 274.142345 -202.166833 
L 272.827476 -202.166833 
L 271.512606 -202.166833 
L 270.197736 -202.166833 
L 268.882867 -202.166833 
L 267.567997 -202.166833 
L 266.253128 -202.166833 
L 264.938258 -202.166833 
L 263.623389 -202.166833 
L 262.308519 -202.166833 
L 260.993649 -202.166833 
L 259.67878 -202.166833 
L 258.36391 -202.166833 
L 257.049041 -202.166833 
L 255.734171 -202.166833 
L 254.419302 -202.166833 
L 253.104432 -202.166833 
L 251.789562 -202.166833 
L 250.474693 -202.166833 
L 249.159823 -202.166833 
L 247.844954 -202.166833 
L 246.530084 -202.166833 
L 245.215214 -202.166833 
L 243.900345 -202.166833 
L 242.585475 -202.166833 
L 241.270606 -202.166833 
L 239.955736 -202.166833 
L 238.640867 -202.166833 
L 237.325997 -202.166833 
L 236.011127 -202.166833 
L 234.696258 -202.166833 
L 233.381388 -202.166833 
L 232.066519 -202.166833 
L 230.751649 -202.166833 
L 229.43678 -202.166833 
L 228.12191 -202.166833 
L 226.80704 -202.166833 
L 225.492171 -202.166833 
L 224.177301 -202.166833 
L 222.862432 -202.166833 
L 221.547562 -202.166833 
L 220.232693 -202.166833 
L 218.917823 -202.166833 
L 217.602953 -202.166833 
L 216.288084 -202.166833 
L 214.973214 -202.166833 
L 213.658345 -202.166833 
L 212.343475 -202.166833 
L 211.028606 -202.166833 
L 209.713736 -202.166833 
L 208.398866 -202.166833 
L 207.083997 -202.166833 
L 205.769127 -202.166833 
L 204.454258 -202.166833 
L 203.139388 -202.166833 
L 201.824519 -202.166833 
L 200.509649 -202.166833 
L 199.194779 -202.166833 
L 197.87991 -202.166833 
L 196.56504 -201.296734 
L 195.250171 -198.027927 
L 193.935301 -197.184854 
L 192.620431 -194.694193 
L 191.305562 -196.194786 
L 189.990692 -194.679032 
L 188.675823 -195.510241 
L 187.360953 -195.245916 
L 186.046084 -189.963026 
L 184.731214 -193.783555 
L 183.416344 -187.731089 
L 182.101475 -193.175803 
L 180.786605 -184.093809 
L 179.471736 -186.046589 
L 178.156866 -187.745591 
L 176.841997 -180.468393 
L 175.527127 -178.582518 
L 174.212257 -171.768056 
L 172.897388 -169.797148 
L 171.582518 -170.619788 
L 170.267649 -169.182476 
L 168.952779 -167.469302 
L 167.63791 -165.069277 
L 166.32304 -162.854808 
L 165.00817 -156.515275 
L 163.693301 -159.216539 
L 162.378431 -158.689205 
L 161.063562 -171.306639 
L 159.748692 -168.220093 
L 158.433823 -164.778914 
L 157.118953 -155.551244 
L 155.804083 -158.991433 
L 154.489214 -163.450364 
L 153.174344 -157.079851 
L 151.859475 -161.57965 
L 150.544605 -165.030057 
L 149.229736 -167.600806 
L 147.914866 -162.170593 
L 146.599996 -160.890162 
L 145.285127 -165.110145 
L 143.970257 -166.441002 
L 142.655388 -165.254173 
L 141.340518 -165.531353 
L 140.025648 -161.799482 
L 138.710779 -164.267072 
L 137.395909 -158.109469 
L 136.08104 -157.832619 
L 134.76617 -159.243235 
L 133.451301 -155.300101 
L 132.136431 -156.869906 
L 130.821561 -158.057724 
L 129.506692 -162.605313 
L 128.191822 -154.153152 
L 126.876953 -163.819827 
L 125.562083 -161.946476 
L 124.247214 -157.12006 
L 122.932344 -153.838729 
L 121.617474 -152.373732 
L 120.302605 -159.163805 
L 118.987735 -151.437716 
L 117.672866 -151.480561 
L 116.357996 -154.550629 
L 115.043127 -159.074488 
L 113.728257 -156.316536 
L 112.413387 -160.180569 
L 111.098518 -156.699841 
L 109.783648 -153.179233 
L 108.468779 -154.576007 
L 107.153909 -148.857738 
L 105.83904 -151.925169 
L 104.52417 -150.05808 
L 103.2093 -151.820032 
L 101.894431 -151.569219 
L 100.579561 -146.111321 
L 99.264692 -149.635884 
L 97.949822 -143.250869 
L 96.634953 -145.37701 
L 95.320083 -145.057974 
L 94.005213 -150.963775 
L 92.690344 -150.501699 
L 91.375474 -148.04993 
L 90.060605 -145.414912 
L 88.745735 -145.00524 
L 87.430865 -135.973672 
L 86.115996 -142.318807 
L 84.801126 -138.768537 
L 83.486257 -145.16377 
L 82.171387 -135.292423 
L 80.856518 -142.986873 
L 79.541648 -147.575 
L 78.226778 -139.152172 
L 76.911909 -129.305544 
L 75.597039 -136.793675 
L 74.28217 -131.755666 
L 72.9673 -129.570529 
L 71.652431 -126.837625 
L 70.337561 -125.915122 
L 69.022691 -117.283997 
L 67.707822 -100.64367 
L 66.392952 -75.963491 
z
" style="stroke: #2d1e3e; stroke-opacity: 0.2"/>
    </defs>
    <g clip-path="url(#pcd27b0c974)">
     <use xlink:href="#m4218709d92" x="0" y="362.097812" style="fill: #2d1e3e; fill-opacity: 0.2; stroke: #2d1e3e; stroke-opacity: 0.2"/>
    </g>
   </g>
   <g id="line2d_13">
    <path d="M 66.392952 294.967811 
L 67.707822 273.017569 
L 69.022691 245.240297 
L 70.337561 247.692396 
L 71.652431 249.274395 
L 72.9673 252.082444 
L 74.28217 238.305866 
L 75.597039 231.120952 
L 76.911909 228.14152 
L 78.226778 231.305519 
L 79.541648 229.815802 
L 80.856518 222.749538 
L 82.171387 222.815455 
L 83.486257 219.875573 
L 84.801126 219.414156 
L 86.115996 223.698738 
L 87.430865 222.037639 
L 88.745735 225.109354 
L 90.060605 216.527008 
L 91.375474 221.615772 
L 92.690344 221.497122 
L 94.005213 223.672371 
L 95.320083 219.677823 
L 96.634953 221.114806 
L 97.949822 214.760442 
L 99.264692 220.046956 
L 100.579561 218.662707 
L 101.894431 220.772039 
L 103.2093 225.096171 
L 104.52417 225.359837 
L 105.83904 222.828638 
L 107.153909 217.212541 
L 108.468779 222.446322 
L 109.783648 215.142758 
L 111.098518 214.799992 
L 112.413387 221.576222 
L 113.728257 223.421888 
L 115.043127 222.868188 
L 116.357996 223.870121 
L 117.672866 228.246986 
L 118.987735 222.630889 
L 120.302605 227.732837 
L 121.617474 219.216406 
L 122.932344 218.79454 
L 124.247214 219.532806 
L 125.562083 221.457572 
L 126.876953 216.711574 
L 128.191822 219.480073 
L 129.506692 213.283909 
L 130.821561 212.677476 
L 132.136431 218.75499 
L 133.451301 215.788741 
L 134.76617 221.233456 
L 136.08104 219.90194 
L 137.395909 215.274591 
L 138.710779 215.828291 
L 140.025648 222.274939 
L 141.340518 216.012858 
L 142.655388 219.07139 
L 143.970257 224.832504 
L 145.285127 223.329605 
L 146.599996 216.184241 
L 147.914866 220.956606 
L 149.229736 226.612254 
L 150.544605 220.666573 
L 151.859475 217.832157 
L 153.174344 225.649871 
L 154.489214 221.233456 
L 155.804083 227.561453 
L 157.118953 218.333123 
L 158.433823 226.36177 
L 159.748692 218.570423 
L 161.063562 225.518037 
L 162.378431 220.363356 
L 163.693301 215.933758 
L 165.00817 214.826358 
L 166.32304 221.470756 
L 167.63791 223.500988 
L 168.952779 222.512239 
L 170.267649 221.787156 
L 171.582518 223.580088 
L 172.897388 219.361423 
L 174.212257 222.103555 
L 175.527127 225.452121 
L 176.841997 221.114806 
L 178.156866 215.406425 
L 179.471736 217.410291 
L 180.786605 219.005473 
L 182.101475 220.310623 
L 183.416344 220.600656 
L 184.731214 216.658841 
L 186.046084 220.073323 
L 187.360953 214.351758 
L 188.675823 223.105488 
L 189.990692 219.07139 
L 191.305562 219.03184 
L 192.620431 219.480073 
L 193.935301 221.233456 
L 195.250171 224.291988 
L 196.56504 224.278805 
L 197.87991 222.604522 
L 200.509649 215.749191 
L 201.824519 220.785223 
L 203.139388 217.858524 
L 204.454258 215.999674 
L 205.769127 220.692939 
L 207.083997 215.221858 
L 208.398866 216.276524 
L 209.713736 220.402906 
L 211.028606 226.229937 
L 212.343475 218.174924 
L 213.658345 216.751124 
L 214.973214 225.702604 
L 216.288084 222.367222 
L 217.602953 217.634407 
L 218.917823 223.936038 
L 220.232693 224.450188 
L 221.547562 216.408358 
L 222.862432 215.050475 
L 224.177301 218.662707 
L 225.492171 216.817041 
L 226.80704 213.402559 
L 228.12191 218.47814 
L 229.43678 224.502921 
L 230.751649 212.901592 
L 232.066519 220.679756 
L 233.381388 215.920574 
L 234.696258 220.205156 
L 236.011127 218.08264 
L 237.325997 228.906153 
L 238.640867 222.591339 
L 239.955736 220.284256 
L 241.270606 217.713507 
L 242.585475 220.152423 
L 243.900345 222.064005 
L 245.215214 226.99457 
L 246.530084 226.20357 
L 247.844954 227.324153 
L 249.159823 217.199357 
L 250.474693 220.442456 
L 251.789562 216.474274 
L 253.104432 215.208675 
L 254.419302 219.321873 
L 255.734171 217.054341 
L 257.049041 217.172991 
L 258.36391 217.80579 
L 259.67878 222.512239 
L 260.993649 230.158569 
L 263.623389 223.290055 
L 264.938258 220.930239 
L 266.253128 219.084573 
L 267.567997 223.936038 
L 268.882867 217.660774 
L 270.197736 215.498708 
L 271.512606 217.84534 
L 272.827476 216.988424 
L 274.142345 217.265274 
L 275.457215 217.660774 
L 276.772084 214.971375 
L 278.086954 214.615425 
L 279.401823 211.583259 
L 280.716693 218.530873 
L 282.031563 218.464957 
L 283.346432 219.691006 
L 284.661302 221.813522 
L 285.976171 214.892275 
L 287.291041 217.423474 
L 288.60591 223.843755 
L 289.92078 221.655322 
L 291.23565 217.014791 
L 292.550519 218.491323 
L 293.865389 216.777491 
L 295.180258 219.836023 
L 296.495128 224.766588 
L 297.809997 218.83409 
L 300.439737 216.026041 
L 301.754606 213.916709 
L 303.069476 214.417675 
L 304.384345 216.658841 
L 305.699215 216.276524 
L 307.014085 212.993876 
L 308.328954 216.157874 
L 309.643824 219.691006 
L 310.958693 218.979107 
L 312.273563 214.760442 
L 313.588432 219.54599 
L 314.903302 218.016724 
L 316.218172 212.189693 
L 317.533041 217.76624 
L 318.847911 218.979107 
L 320.16278 218.306757 
L 321.47765 224.766588 
L 322.792519 216.856591 
L 324.107389 220.837956 
L 325.422259 217.172991 
L 326.737128 224.608388 
L 328.051998 221.655322 
L 328.051998 221.655322 
" clip-path="url(#pcd27b0c974)" style="fill: none; stroke: #edd1cb; stroke-width: 1.5; stroke-linecap: round"/>
   </g>
   <g id="line2d_14">
    <path d="M 66.392952 302.785525 
L 67.707822 300.755292 
L 69.022691 293.992245 
L 70.337561 286.332731 
L 71.652431 279.411484 
L 72.9673 258.502725 
L 74.28217 246.690463 
L 75.597039 238.398149 
L 76.911909 220.429273 
L 78.226778 222.156289 
L 79.541648 219.915123 
L 80.856518 213.613492 
L 82.171387 224.160155 
L 83.486257 215.867841 
L 84.801126 223.329605 
L 86.115996 223.118672 
L 87.430865 216.896141 
L 88.745735 222.380405 
L 90.060605 224.397455 
L 91.375474 227.535087 
L 92.690344 217.88489 
L 94.005213 223.316422 
L 95.320083 219.30869 
L 96.634953 214.299025 
L 97.949822 201.946246 
L 99.264692 195.499599 
L 100.579561 185.190236 
L 101.894431 189.659384 
L 103.2093 174.94679 
L 104.52417 161.921662 
L 107.153909 140.182353 
L 108.468779 140.84152 
L 109.783648 136.715138 
L 111.098518 137.492954 
L 112.413387 125.772975 
L 113.728257 133.050173 
L 115.043127 126.260759 
L 116.357996 125.008342 
L 117.672866 130.558524 
L 118.987735 121.527944 
L 120.302605 130.22894 
L 121.617474 121.356561 
L 122.932344 120.235978 
L 124.247214 120.209611 
L 125.562083 121.462027 
L 126.876953 124.639209 
L 128.191822 123.37361 
L 129.506692 120.908327 
L 130.821561 120.380994 
L 132.136431 117.230179 
L 133.451301 112.734664 
L 134.76617 133.036989 
L 136.08104 133.893906 
L 137.395909 120.143694 
L 138.710779 127.130858 
L 140.025648 139.641837 
L 141.340518 122.22666 
L 142.655388 109.873882 
L 145.285127 144.097802 
L 146.599996 114.435313 
L 147.914866 127.064942 
L 149.229736 115.845929 
L 150.544605 122.925377 
L 151.859475 114.34303 
L 153.174344 99.880919 
L 154.489214 102.122085 
L 155.804083 103.875467 
L 157.118953 107.975482 
L 158.433823 104.060034 
L 159.748692 101.133335 
L 161.063562 95.978654 
L 162.378431 92.722371 
L 166.32304 111.429514 
L 167.63791 92.775105 
L 168.952779 85.880224 
L 170.267649 100.342335 
L 171.582518 94.146171 
L 172.897388 92.788288 
L 174.212257 84.996941 
L 175.527127 126.985842 
L 176.841997 92.761921 
L 178.156866 94.568037 
L 179.471736 88.83329 
L 180.786605 106.512133 
L 182.101475 91.865455 
L 183.416344 101.515651 
L 184.731214 103.018551 
L 187.360953 82.834875 
L 188.675823 64.338666 
L 189.990692 70.73258 
L 191.305562 65.828382 
L 192.620431 80.593709 
L 193.935301 83.401758 
L 195.250171 57.654718 
L 196.56504 67.107165 
L 197.87991 62.268883 
L 200.509649 88.029107 
L 201.824519 61.9393 
L 203.139388 82.505292 
L 204.454258 59.302634 
L 205.769127 63.666316 
L 207.083997 85.023308 
L 208.398866 70.350263 
L 209.713736 66.935781 
L 211.028606 91.997288 
L 212.343475 96.04457 
L 213.658345 68.886914 
L 214.973214 72.261846 
L 216.288084 89.716573 
L 217.602953 55.149886 
L 218.917823 77.218777 
L 220.232693 68.610064 
L 221.547562 63.415833 
L 222.862432 65.736098 
L 224.177301 55.057602 
L 225.492171 60.304567 
L 226.80704 49.982021 
L 228.12191 60.027717 
L 229.43678 50.337971 
L 230.751649 52.223187 
L 232.066519 67.238998 
L 233.381388 58.946684 
L 234.696258 56.257285 
L 236.011127 50.021571 
L 237.325997 44.682323 
L 238.640867 48.202272 
L 241.270606 41.294208 
L 242.585475 55.202619 
L 243.900345 39.026675 
L 245.215214 45.723806 
L 246.530084 47.028956 
L 247.844954 56.310019 
L 249.159823 42.296141 
L 250.474693 54.886219 
L 251.789562 54.965319 
L 253.104432 48.215455 
L 254.419302 64.035449 
L 255.734171 58.261151 
L 257.049041 55.149886 
L 258.36391 49.138288 
L 259.67878 41.742441 
L 260.993649 40.925075 
L 262.308519 41.887458 
L 263.623389 51.379454 
L 266.253128 55.466286 
L 267.567997 50.417071 
L 268.882867 47.266255 
L 270.197736 45.961106 
L 271.512606 38.538892 
L 272.827476 45.02509 
L 274.142345 38.538892 
L 275.457215 37.589693 
L 276.772084 40.872341 
L 278.086954 37.589693 
L 287.291041 37.589693 
L 288.60591 40.331825 
L 289.92078 37.589693 
L 291.23565 43.495824 
L 292.550519 37.589693 
L 300.439737 37.589693 
L 301.754606 44.94599 
L 303.069476 51.234437 
L 304.384345 41.795174 
L 305.699215 47.727672 
L 307.014085 45.077823 
L 308.328954 45.077823 
L 309.643824 40.859158 
L 310.958693 37.576509 
L 312.273563 46.106123 
L 313.588432 43.04759 
L 314.903302 43.060774 
L 316.218172 37.246926 
L 317.533041 40.226358 
L 318.847911 38.446609 
L 320.16278 41.781991 
L 321.47765 40.028608 
L 322.792519 39.725392 
L 324.107389 37.589693 
L 328.051998 37.589693 
L 328.051998 37.589693 
" clip-path="url(#pcd27b0c974)" style="fill: none; stroke: #d499a7; stroke-width: 1.5; stroke-linecap: round"/>
   </g>
   <g id="line2d_15">
    <path d="M 66.392952 299.885192 
L 67.707822 288.877113 
L 69.022691 270.32817 
L 70.337561 257.738092 
L 71.652431 251.291444 
L 72.9673 241.720348 
L 74.28217 233.770801 
L 75.597039 232.597485 
L 76.911909 230.949569 
L 78.226778 216.513824 
L 79.541648 226.36177 
L 80.856518 226.71772 
L 82.171387 230.857285 
L 83.486257 229.380753 
L 84.801126 222.920922 
L 86.115996 222.604522 
L 87.430865 226.941837 
L 88.745735 227.15277 
L 90.060605 232.689768 
L 91.375474 236.249267 
L 92.690344 222.657255 
L 94.005213 214.378125 
L 95.320083 218.425407 
L 96.634953 215.380058 
L 97.949822 211.596443 
L 99.264692 224.661121 
L 100.579561 214.378125 
L 101.894431 218.39904 
L 103.2093 219.74374 
L 104.52417 216.724757 
L 105.83904 209.28936 
L 107.153909 207.931477 
L 108.468779 206.244011 
L 109.783648 208.696111 
L 111.098518 213.033426 
L 112.413387 216.421541 
L 113.728257 209.84306 
L 115.043127 204.464262 
L 116.357996 207.338228 
L 117.672866 208.326977 
L 118.987735 204.754295 
L 120.302605 199.454597 
L 121.617474 199.151381 
L 122.932344 206.969094 
L 124.247214 208.326977 
L 125.562083 210.00126 
L 126.876953 212.281976 
L 128.191822 203.515062 
L 129.506692 199.283214 
L 130.821561 199.560064 
L 132.136431 200.087397 
L 133.451301 197.661665 
L 134.76617 197.450731 
L 136.08104 199.876464 
L 137.395909 198.610864 
L 138.710779 198.479031 
L 140.025648 199.349131 
L 141.340518 196.106032 
L 142.655388 195.525966 
L 143.970257 195.446866 
L 145.285127 195.657799 
L 146.599996 194.761332 
L 147.914866 194.840432 
L 149.229736 195.697349 
L 150.544605 193.79895 
L 151.859475 194.814066 
L 153.174344 192.203767 
L 154.489214 190.569034 
L 155.804083 192.203767 
L 157.118953 194.550399 
L 158.433823 191.992834 
L 159.748692 191.795084 
L 162.378431 196.224682 
L 163.693301 190.318551 
L 165.00817 189.857134 
L 166.32304 191.768717 
L 167.63791 187.260019 
L 168.952779 184.399236 
L 170.267649 185.638469 
L 171.582518 182.896337 
L 172.897388 181.103404 
L 174.212257 178.466739 
L 175.527127 183.66097 
L 176.841997 173.562541 
L 178.156866 177.412072 
L 179.471736 172.797908 
L 180.786605 173.430707 
L 182.101475 173.931674 
L 183.416344 173.377974 
L 184.731214 171.479575 
L 186.046084 171.004975 
L 187.360953 169.185676 
L 188.675823 171.004975 
L 189.990692 169.607542 
L 191.305562 165.968943 
L 192.620431 165.968943 
L 193.935301 164.149644 
L 216.288084 164.149644 
L 218.917823 168.315576 
L 220.232693 166.23261 
L 221.547562 166.23261 
L 222.862432 164.149644 
L 238.640867 164.149644 
L 239.955736 166.443543 
L 241.270606 164.149644 
L 246.530084 164.149644 
L 247.844954 166.23261 
L 249.159823 164.149644 
L 251.789562 166.364443 
L 258.36391 166.364443 
L 259.67878 168.579242 
L 262.308519 168.579242 
L 263.623389 165.098844 
L 264.938258 163.991444 
L 268.882867 163.991444 
L 271.512606 166.15351 
L 272.827476 164.597877 
L 274.142345 163.675044 
L 275.457215 163.516844 
L 276.772084 163.200445 
L 278.086954 163.042245 
L 280.716693 164.439677 
L 282.031563 165.547077 
L 283.346432 163.991444 
L 284.661302 163.042245 
L 285.976171 163.042245 
L 287.291041 163.200445 
L 288.60591 162.884045 
L 289.92078 162.409445 
L 291.23565 165.494344 
L 292.550519 161.934845 
L 295.180258 161.934845 
L 296.495128 161.618445 
L 297.809997 163.437744 
L 299.124867 165.889844 
L 300.439737 161.934845 
L 301.754606 163.437744 
L 303.069476 161.776645 
L 305.699215 161.143845 
L 307.014085 161.143845 
L 309.643824 160.511046 
L 310.958693 160.985645 
L 313.588432 160.669246 
L 314.903302 160.827445 
L 316.218172 160.194646 
L 317.533041 160.036446 
L 318.847911 160.194646 
L 321.47765 159.561846 
L 322.792519 159.561846 
L 324.107389 159.245446 
L 325.422259 159.245446 
L 326.737128 161.328412 
L 328.051998 161.486612 
L 328.051998 161.486612 
" clip-path="url(#pcd27b0c974)" style="fill: none; stroke: #a9678f; stroke-width: 1.5; stroke-linecap: round"/>
   </g>
   <g id="line2d_16">
    <path d="M 66.392952 284.342048 
L 67.707822 242.405881 
L 69.022691 239.531915 
L 70.337561 244.66023 
L 71.652431 238.516799 
L 72.9673 233.072085 
L 74.28217 233.124818 
L 75.597039 227.66692 
L 76.911909 231.490085 
L 78.226778 220.732489 
L 79.541648 224.937971 
L 80.856518 233.190734 
L 82.171387 230.158569 
L 83.486257 218.00354 
L 84.801126 222.630889 
L 86.115996 220.376539 
L 87.430865 227.680103 
L 88.745735 227.324153 
L 90.060605 224.371088 
L 91.375474 220.086506 
L 92.690344 220.218339 
L 94.005213 223.079122 
L 95.320083 219.611906 
L 96.634953 227.007754 
L 97.949822 223.540538 
L 99.264692 232.518385 
L 100.579561 232.004235 
L 101.894431 226.374954 
L 103.2093 223.395522 
L 104.52417 223.619638 
L 105.83904 230.132202 
L 107.153909 218.16174 
L 108.468779 220.271073 
L 109.783648 223.435072 
L 111.098518 220.851139 
L 112.413387 219.15049 
L 113.728257 222.419955 
L 115.043127 226.229937 
L 116.357996 224.832504 
L 117.672866 222.261755 
L 118.987735 225.742154 
L 120.302605 226.177204 
L 121.617474 232.083335 
L 122.932344 227.19232 
L 124.247214 224.700671 
L 126.876953 236.947983 
L 128.191822 227.007754 
L 129.506692 230.751819 
L 130.821561 223.791021 
L 132.136431 218.741807 
L 133.451301 224.001955 
L 134.76617 225.201638 
L 136.08104 222.011272 
L 137.395909 221.879439 
L 138.710779 224.674304 
L 140.025648 223.461438 
L 141.340518 228.444736 
L 142.655388 224.186521 
L 143.970257 219.414156 
L 145.285127 221.866255 
L 146.599996 224.740221 
L 147.914866 220.271073 
L 149.229736 223.685555 
L 150.544605 229.130269 
L 151.859475 229.525769 
L 153.174344 217.950807 
L 154.489214 221.721239 
L 155.804083 223.764655 
L 157.118953 222.841822 
L 158.433823 212.993876 
L 159.748692 228.998436 
L 161.063562 227.403253 
L 162.378431 231.371435 
L 163.693301 229.037986 
L 165.00817 222.406772 
L 166.32304 226.40132 
L 168.952779 220.257889 
L 170.267649 221.444389 
L 171.582518 224.937971 
L 172.897388 221.207089 
L 174.212257 228.550203 
L 175.527127 224.661121 
L 176.841997 215.103208 
L 178.156866 219.414156 
L 179.471736 220.297439 
L 180.786605 215.380058 
L 182.101475 220.244706 
L 183.416344 217.186174 
L 184.731214 224.753404 
L 186.046084 227.363703 
L 187.360953 222.696805 
L 188.675823 222.736355 
L 189.990692 224.832504 
L 191.305562 217.88489 
L 192.620431 227.58782 
L 193.935301 218.623157 
L 195.250171 225.056621 
L 196.56504 220.218339 
L 197.87991 220.323806 
L 199.194779 218.67589 
L 200.509649 219.26914 
L 201.824519 220.495189 
L 203.139388 216.922507 
L 204.454258 223.896488 
L 205.769127 220.969789 
L 207.083997 220.482006 
L 208.398866 217.067524 
L 209.713736 217.977174 
L 211.028606 215.182308 
L 212.343475 218.451773 
L 213.658345 218.649523 
L 216.288084 223.738288 
L 217.602953 212.440176 
L 218.917823 222.433139 
L 220.232693 219.967856 
L 221.547562 219.58554 
L 222.862432 225.214821 
L 224.177301 214.167192 
L 225.492171 225.966271 
L 226.80704 220.336989 
L 228.12191 218.346307 
L 229.43678 213.956258 
L 230.751649 216.698391 
L 232.066519 220.824773 
L 233.381388 222.248572 
L 234.696258 223.922855 
L 236.011127 220.798406 
L 237.325997 222.393589 
L 238.640867 222.604522 
L 239.955736 222.617705 
L 241.270606 219.045023 
L 242.585475 217.120257 
L 243.900345 215.696458 
L 245.215214 219.66464 
L 246.530084 211.543709 
L 247.844954 223.830571 
L 249.159823 228.602936 
L 250.474693 226.32222 
L 251.789562 222.222205 
L 253.104432 226.981387 
L 254.419302 216.144691 
L 255.734171 218.227657 
L 257.049041 228.18107 
L 258.36391 222.789088 
L 259.67878 229.064353 
L 260.993649 221.035706 
L 262.308519 219.50644 
L 263.623389 221.787156 
L 264.938258 221.022522 
L 266.253128 218.451773 
L 267.567997 220.297439 
L 268.882867 219.493256 
L 270.197736 217.397107 
L 271.512606 218.20129 
L 272.827476 226.823187 
L 274.142345 226.045371 
L 275.457215 223.738288 
L 276.772084 220.402906 
L 278.086954 215.327325 
L 279.401823 217.937624 
L 280.716693 215.419608 
L 282.031563 219.26914 
L 283.346432 217.542124 
L 284.661302 217.581674 
L 285.976171 220.165606 
L 287.291041 220.257889 
L 288.60591 224.331538 
L 289.92078 219.216406 
L 291.23565 222.314489 
L 292.550519 221.721239 
L 293.865389 215.076841 
L 295.180258 222.868188 
L 296.495128 216.078774 
L 297.809997 218.979107 
L 299.124867 222.789088 
L 300.439737 223.922855 
L 301.754606 221.628956 
L 303.069476 221.193906 
L 304.384345 214.299025 
L 305.699215 215.986491 
L 307.014085 214.826358 
L 308.328954 215.577808 
L 309.643824 218.63634 
L 310.958693 215.261408 
L 312.273563 230.158569 
L 313.588432 225.953087 
L 316.218172 219.572356 
L 317.533041 221.694872 
L 318.847911 221.721239 
L 320.16278 225.320287 
L 321.47765 216.817041 
L 322.792519 221.378472 
L 324.107389 216.869774 
L 325.422259 227.521903 
L 326.737128 221.352106 
L 328.051998 222.090372 
L 328.051998 222.090372 
" clip-path="url(#pcd27b0c974)" style="fill: none; stroke: #6c3f70; stroke-width: 1.5; stroke-linecap: round"/>
   </g>
   <g id="line2d_17">
    <path d="M 66.392952 294.361378 
L 67.707822 273.386702 
L 69.022691 256.709792 
L 70.337561 247.336446 
L 71.652431 244.277914 
L 72.9673 242.524531 
L 74.28217 240.428382 
L 75.597039 235.616467 
L 76.911909 242.616814 
L 78.226778 231.648285 
L 79.541648 223.659188 
L 80.856518 227.535087 
L 82.171387 235.70875 
L 83.486257 227.46917 
L 84.801126 230.910019 
L 86.115996 227.601003 
L 87.430865 233.731251 
L 88.745735 224.647938 
L 90.060605 224.661121 
L 91.375474 222.314489 
L 92.690344 217.792607 
L 94.005213 217.318007 
L 95.320083 226.150837 
L 96.634953 225.702604 
L 97.949822 225.438937 
L 99.264692 220.890689 
L 100.579561 223.751471 
L 101.894431 217.621224 
L 103.2093 217.594857 
L 104.52417 219.54599 
L 105.83904 216.803857 
L 107.153909 222.222205 
L 108.468779 214.154008 
L 109.783648 214.681342 
L 112.413387 209.658493 
L 113.728257 211.609626 
L 115.043127 210.858176 
L 116.357996 213.336642 
L 117.672866 218.148557 
L 118.987735 216.856591 
L 120.302605 208.551094 
L 121.617474 216.329258 
L 124.247214 211.767826 
L 125.562083 206.942728 
L 126.876953 205.822145 
L 128.191822 214.325392 
L 129.506692 205.769412 
L 130.821561 210.779076 
L 132.136431 211.675543 
L 133.451301 213.020242 
L 134.76617 208.379711 
L 136.08104 209.92216 
L 137.395909 209.01251 
L 138.710779 205.149795 
L 140.025648 207.483244 
L 141.340518 202.658146 
L 142.655388 203.607346 
L 143.970257 202.55268 
L 145.285127 202.209913 
L 146.599996 205.835328 
L 147.914866 206.257195 
L 149.229736 201.985796 
L 150.544605 206.389028 
L 151.859475 208.432444 
L 153.174344 211.490976 
L 154.489214 207.628261 
L 155.804083 212.426992 
L 157.118953 215.024108 
L 158.433823 205.545295 
L 161.063562 201.102513 
L 162.378431 213.297092 
L 163.693301 209.76396 
L 165.00817 211.952393 
L 166.32304 205.242078 
L 167.63791 205.242078 
L 168.952779 202.012163 
L 170.267649 199.836914 
L 171.582518 200.443347 
L 172.897388 200.087397 
L 174.212257 200.509264 
L 175.527127 193.8385 
L 176.841997 190.318551 
L 178.156866 182.395371 
L 180.786605 186.521752 
L 182.101475 177.570272 
L 183.416344 183.331387 
L 184.731214 176.713356 
L 186.046084 179.574138 
L 187.360953 173.404341 
L 188.675823 174.51174 
L 189.990692 175.355473 
L 191.305562 172.257391 
L 192.620431 175.157723 
L 193.935301 173.325241 
L 195.250171 170.846775 
L 196.56504 166.19306 
L 197.87991 164.202377 
L 199.194779 160.880179 
L 200.509649 161.302045 
L 201.824519 159.930979 
L 203.139388 159.930979 
L 204.454258 162.594011 
L 205.769127 162.844495 
L 207.083997 159.930979 
L 208.398866 159.930979 
L 209.713736 160.880179 
L 211.028606 162.633561 
L 212.343475 159.930979 
L 220.232693 159.930979 
L 221.547562 161.737095 
L 222.862432 159.930979 
L 233.381388 159.930979 
L 234.696258 164.571511 
L 236.011127 159.930979 
L 241.270606 159.930979 
L 242.585475 162.040312 
L 243.900345 159.930979 
L 262.308519 159.930979 
L 263.623389 160.497862 
L 264.938258 162.079862 
L 266.253128 160.497862 
L 267.567997 161.064745 
L 270.197736 161.064745 
L 271.512606 159.930979 
L 295.180258 159.930979 
L 297.809997 162.462178 
L 300.439737 159.930979 
L 310.958693 159.930979 
L 312.273563 160.880179 
L 313.588432 160.880179 
L 314.903302 163.042245 
L 316.218172 166.021677 
L 317.533041 167.247726 
L 318.847911 162.277612 
L 320.16278 159.930979 
L 328.051998 159.930979 
L 328.051998 159.930979 
" clip-path="url(#pcd27b0c974)" style="fill: none; stroke: #2d1e3e; stroke-width: 1.5; stroke-linecap: round"/>
   </g>
   <g id="line2d_18"/>
   <g id="line2d_19"/>
   <g id="line2d_20"/>
   <g id="line2d_21"/>
   <g id="line2d_22"/>
   <g id="patch_3">
    <path d="M 53.31 319.138125 
L 53.31 22.318125 
" style="fill: none; stroke: #ffffff; stroke-width: 1.25; stroke-linejoin: miter; stroke-linecap: square"/>
   </g>
   <g id="patch_4">
    <path d="M 53.31 319.138125 
L 341.13495 319.138125 
" style="fill: none; stroke: #ffffff; stroke-width: 1.25; stroke-linejoin: miter; stroke-linecap: square"/>
   </g>
   <g id="text_15">
    <!-- Vector x Fine-Grain For Still Life -->
    <g style="fill: #262626" transform="translate(102.8481 16.318125)scale(0.12 -0.12)">
     <defs>
      <path id="DejaVuSans-56" d="M 1831 0 
L 50 4666 
L 709 4666 
L 2188 738 
L 3669 4666 
L 4325 4666 
L 2547 0 
L 1831 0 
z
" transform="scale(0.015625)"/>
      <path id="DejaVuSans-63" d="M 3122 3366 
L 3122 2828 
Q 2878 2963 2633 3030 
Q 2388 3097 2138 3097 
Q 1578 3097 1268 2742 
Q 959 2388 959 1747 
Q 959 1106 1268 751 
Q 1578 397 2138 397 
Q 2388 397 2633 464 
Q 2878 531 3122 666 
L 3122 134 
Q 2881 22 2623 -34 
Q 2366 -91 2075 -91 
Q 1284 -91 818 406 
Q 353 903 353 1747 
Q 353 2603 823 3093 
Q 1294 3584 2113 3584 
Q 2378 3584 2631 3529 
Q 2884 3475 3122 3366 
z
" transform="scale(0.015625)"/>
      <path id="DejaVuSans-20" transform="scale(0.015625)"/>
      <path id="DejaVuSans-78" d="M 3513 3500 
L 2247 1797 
L 3578 0 
L 2900 0 
L 1881 1375 
L 863 0 
L 184 0 
L 1544 1831 
L 300 3500 
L 978 3500 
L 1906 2253 
L 2834 3500 
L 3513 3500 
z
" transform="scale(0.015625)"/>
      <path id="DejaVuSans-2d" d="M 313 2009 
L 1997 2009 
L 1997 1497 
L 313 1497 
L 313 2009 
z
" transform="scale(0.015625)"/>
      <path id="DejaVuSans-53" d="M 3425 4513 
L 3425 3897 
Q 3066 4069 2747 4153 
Q 2428 4238 2131 4238 
Q 1616 4238 1336 4038 
Q 1056 3838 1056 3469 
Q 1056 3159 1242 3001 
Q 1428 2844 1947 2747 
L 2328 2669 
Q 3034 2534 3370 2195 
Q 3706 1856 3706 1288 
Q 3706 609 3251 259 
Q 2797 -91 1919 -91 
Q 1588 -91 1214 -16 
Q 841 59 441 206 
L 441 856 
Q 825 641 1194 531 
Q 1563 422 1919 422 
Q 2459 422 2753 634 
Q 3047 847 3047 1241 
Q 3047 1584 2836 1778 
Q 2625 1972 2144 2069 
L 1759 2144 
Q 1053 2284 737 2584 
Q 422 2884 422 3419 
Q 422 4038 858 4394 
Q 1294 4750 2059 4750 
Q 2388 4750 2728 4690 
Q 3069 4631 3425 4513 
z
" transform="scale(0.015625)"/>
      <path id="DejaVuSans-6c" d="M 603 4863 
L 1178 4863 
L 1178 0 
L 603 0 
L 603 4863 
z
" transform="scale(0.015625)"/>
      <path id="DejaVuSans-4c" d="M 628 4666 
L 1259 4666 
L 1259 531 
L 3531 531 
L 3531 0 
L 628 0 
L 628 4666 
z
" transform="scale(0.015625)"/>
      <path id="DejaVuSans-66" d="M 2375 4863 
L 2375 4384 
L 1825 4384 
Q 1516 4384 1395 4259 
Q 1275 4134 1275 3809 
L 1275 3500 
L 2222 3500 
L 2222 3053 
L 1275 3053 
L 1275 0 
L 697 0 
L 697 3053 
L 147 3053 
L 147 3500 
L 697 3500 
L 697 3744 
Q 697 4328 969 4595 
Q 1241 4863 1831 4863 
L 2375 4863 
z
" transform="scale(0.015625)"/>
     </defs>
     <use xlink:href="#DejaVuSans-56"/>
     <use xlink:href="#DejaVuSans-65" x="60.658203"/>
     <use xlink:href="#DejaVuSans-63" x="122.181641"/>
     <use xlink:href="#DejaVuSans-74" x="177.162109"/>
     <use xlink:href="#DejaVuSans-6f" x="216.371094"/>
     <use xlink:href="#DejaVuSans-72" x="277.552734"/>
     <use xlink:href="#DejaVuSans-20" x="318.666016"/>
     <use xlink:href="#DejaVuSans-78" x="350.453125"/>
     <use xlink:href="#DejaVuSans-20" x="409.632812"/>
     <use xlink:href="#DejaVuSans-46" x="441.419922"/>
     <use xlink:href="#DejaVuSans-69" x="491.689453"/>
     <use xlink:href="#DejaVuSans-6e" x="519.472656"/>
     <use xlink:href="#DejaVuSans-65" x="582.851562"/>
     <use xlink:href="#DejaVuSans-2d" x="644.375"/>
     <use xlink:href="#DejaVuSans-47" x="684.083984"/>
     <use xlink:href="#DejaVuSans-72" x="761.574219"/>
     <use xlink:href="#DejaVuSans-61" x="802.6875"/>
     <use xlink:href="#DejaVuSans-69" x="863.966797"/>
     <use xlink:href="#DejaVuSans-6e" x="891.75"/>
     <use xlink:href="#DejaVuSans-20" x="955.128906"/>
     <use xlink:href="#DejaVuSans-46" x="986.916016"/>
     <use xlink:href="#DejaVuSans-6f" x="1040.810547"/>
     <use xlink:href="#DejaVuSans-72" x="1101.992188"/>
     <use xlink:href="#DejaVuSans-20" x="1143.105469"/>
     <use xlink:href="#DejaVuSans-53" x="1174.892578"/>
     <use xlink:href="#DejaVuSans-74" x="1238.369141"/>
     <use xlink:href="#DejaVuSans-69" x="1277.578125"/>
     <use xlink:href="#DejaVuSans-6c" x="1305.361328"/>
     <use xlink:href="#DejaVuSans-6c" x="1333.144531"/>
     <use xlink:href="#DejaVuSans-20" x="1360.927734"/>
     <use xlink:href="#DejaVuSans-4c" x="1392.714844"/>
     <use xlink:href="#DejaVuSans-69" x="1448.427734"/>
     <use xlink:href="#DejaVuSans-66" x="1476.210938"/>
     <use xlink:href="#DejaVuSans-65" x="1511.416016"/>
    </g>
   </g>
  </g>
  <g id="legend_1">
   <g id="text_16">
    <!-- Trial -->
    <g style="fill: #262626" transform="translate(352.4649 143.995312)scale(0.12 -0.12)">
     <defs>
      <path id="DejaVuSans-54" d="M -19 4666 
L 3928 4666 
L 3928 4134 
L 2272 4134 
L 2272 0 
L 1638 0 
L 1638 4134 
L -19 4134 
L -19 4666 
z
" transform="scale(0.015625)"/>
     </defs>
     <use xlink:href="#DejaVuSans-54"/>
     <use xlink:href="#DejaVuSans-72" x="46.333984"/>
     <use xlink:href="#DejaVuSans-69" x="87.447266"/>
     <use xlink:href="#DejaVuSans-61" x="115.230469"/>
     <use xlink:href="#DejaVuSans-6c" x="176.509766"/>
    </g>
   </g>
   <g id="line2d_23">
    <path d="M 345.8224 156.499219 
L 356.8224 156.499219 
L 367.8224 156.499219 
" style="fill: none; stroke: #edd1cb; stroke-width: 1.5; stroke-linecap: round"/>
   </g>
   <g id="text_17">
    <!-- 0 -->
    <g style="fill: #262626" transform="translate(376.6224 160.349219)scale(0.11 -0.11)">
     <use xlink:href="#DejaVuSans-30"/>
    </g>
   </g>
   <g id="line2d_24">
    <path d="M 345.8224 172.645156 
L 356.8224 172.645156 
L 367.8224 172.645156 
" style="fill: none; stroke: #d499a7; stroke-width: 1.5; stroke-linecap: round"/>
   </g>
   <g id="text_18">
    <!-- 1 -->
    <g style="fill: #262626" transform="translate(376.6224 176.495156)scale(0.11 -0.11)">
     <use xlink:href="#DejaVuSans-31"/>
    </g>
   </g>
   <g id="line2d_25">
    <path d="M 345.8224 188.791094 
L 356.8224 188.791094 
L 367.8224 188.791094 
" style="fill: none; stroke: #a9678f; stroke-width: 1.5; stroke-linecap: round"/>
   </g>
   <g id="text_19">
    <!-- 2 -->
    <g style="fill: #262626" transform="translate(376.6224 192.641094)scale(0.11 -0.11)">
     <use xlink:href="#DejaVuSans-32"/>
    </g>
   </g>
   <g id="line2d_26">
    <path d="M 345.8224 204.937031 
L 356.8224 204.937031 
L 367.8224 204.937031 
" style="fill: none; stroke: #6c3f70; stroke-width: 1.5; stroke-linecap: round"/>
   </g>
   <g id="text_20">
    <!-- 3 -->
    <g style="fill: #262626" transform="translate(376.6224 208.787031)scale(0.11 -0.11)">
     <use xlink:href="#DejaVuSans-33"/>
    </g>
   </g>
   <g id="line2d_27">
    <path d="M 345.8224 221.082969 
L 356.8224 221.082969 
L 367.8224 221.082969 
" style="fill: none; stroke: #2d1e3e; stroke-width: 1.5; stroke-linecap: round"/>
   </g>
   <g id="text_21">
    <!-- 4 -->
    <g style="fill: #262626" transform="translate(376.6224 224.932969)scale(0.11 -0.11)">
     <use xlink:href="#DejaVuSans-34"/>
    </g>
   </g>
  </g>
 </g>
 <defs>
  <clipPath id="pcd27b0c974">
   <rect x="53.31" y="22.318125" width="287.82495" height="296.82"/>
  </clipPath>
 </defs>
</svg>
