<?xml version="1.0" encoding="utf-8" standalone="no"?>
<!DOCTYPE svg PUBLIC "-//W3C//DTD SVG 1.1//EN"
  "http://www.w3.org/Graphics/SVG/1.1/DTD/svg11.dtd">
<svg xmlns:xlink="http://www.w3.org/1999/xlink" width="864pt" height="360pt" viewBox="0 0 864 360" xmlns="http://www.w3.org/2000/svg" version="1.1">
 <metadata>
  <rdf:RDF xmlns:dc="http://purl.org/dc/elements/1.1/" xmlns:cc="http://creativecommons.org/ns#" xmlns:rdf="http://www.w3.org/1999/02/22-rdf-syntax-ns#">
   <cc:Work>
    <dc:type rdf:resource="http://purl.org/dc/dcmitype/StillImage"/>
    <dc:date>2022-11-20T08:53:35.324012</dc:date>
    <dc:format>image/svg+xml</dc:format>
    <dc:creator>
     <cc:Agent>
      <dc:title>Matplotlib v3.5.2, https://matplotlib.org/</dc:title>
     </cc:Agent>
    </dc:creator>
   </cc:Work>
  </rdf:RDF>
 </metadata>
 <defs>
  <style type="text/css">*{stroke-linejoin: round; stroke-linecap: butt}</style>
 </defs>
 <g id="figure_1">
  <g id="patch_1">
   <path d="M 0 360 
L 864 360 
L 864 0 
L 0 0 
z
" style="fill: #ffffff"/>
  </g>
  <g id="axes_1">
   <g id="patch_2">
    <path d="M 60.3 309.78 
L 337.45 309.78 
L 337.45 55.68 
L 60.3 55.68 
z
" style="fill: #eaeaf2"/>
   </g>
   <g id="matplotlib.axis_1">
    <g id="xtick_1">
     <g id="line2d_1">
      <path d="M 72.897727 309.78 
L 72.897727 55.68 
" clip-path="url(#pa94654023f)" style="fill: none; stroke: #ffffff; stroke-linecap: round"/>
     </g>
     <g id="text_1">
      <!-- 0 -->
      <g style="fill: #262626" transform="translate(69.398352 327.638281)scale(0.11 -0.11)">
       <defs>
        <path id="DejaVuSans-30" d="M 2034 4250 
Q 1547 4250 1301 3770 
Q 1056 3291 1056 2328 
Q 1056 1369 1301 889 
Q 1547 409 2034 409 
Q 2525 409 2770 889 
Q 3016 1369 3016 2328 
Q 3016 3291 2770 3770 
Q 2525 4250 2034 4250 
z
M 2034 4750 
Q 2819 4750 3233 4129 
Q 3647 3509 3647 2328 
Q 3647 1150 3233 529 
Q 2819 -91 2034 -91 
Q 1250 -91 836 529 
Q 422 1150 422 2328 
Q 422 3509 836 4129 
Q 1250 4750 2034 4750 
z
" transform="scale(0.015625)"/>
       </defs>
       <use xlink:href="#DejaVuSans-30"/>
      </g>
     </g>
    </g>
    <g id="xtick_2">
     <g id="line2d_2">
      <path d="M 136.202889 309.78 
L 136.202889 55.68 
" clip-path="url(#pa94654023f)" style="fill: none; stroke: #ffffff; stroke-linecap: round"/>
     </g>
     <g id="text_2">
      <!-- 50 -->
      <g style="fill: #262626" transform="translate(129.204139 327.638281)scale(0.11 -0.11)">
       <defs>
        <path id="DejaVuSans-35" d="M 691 4666 
L 3169 4666 
L 3169 4134 
L 1269 4134 
L 1269 2991 
Q 1406 3038 1543 3061 
Q 1681 3084 1819 3084 
Q 2600 3084 3056 2656 
Q 3513 2228 3513 1497 
Q 3513 744 3044 326 
Q 2575 -91 1722 -91 
Q 1428 -91 1123 -41 
Q 819 9 494 109 
L 494 744 
Q 775 591 1075 516 
Q 1375 441 1709 441 
Q 2250 441 2565 725 
Q 2881 1009 2881 1497 
Q 2881 1984 2565 2268 
Q 2250 2553 1709 2553 
Q 1456 2553 1204 2497 
Q 953 2441 691 2322 
L 691 4666 
z
" transform="scale(0.015625)"/>
       </defs>
       <use xlink:href="#DejaVuSans-35"/>
       <use xlink:href="#DejaVuSans-30" x="63.623047"/>
      </g>
     </g>
    </g>
    <g id="xtick_3">
     <g id="line2d_3">
      <path d="M 199.508052 309.78 
L 199.508052 55.68 
" clip-path="url(#pa94654023f)" style="fill: none; stroke: #ffffff; stroke-linecap: round"/>
     </g>
     <g id="text_3">
      <!-- 100 -->
      <g style="fill: #262626" transform="translate(189.009927 327.638281)scale(0.11 -0.11)">
       <defs>
        <path id="DejaVuSans-31" d="M 794 531 
L 1825 531 
L 1825 4091 
L 703 3866 
L 703 4441 
L 1819 4666 
L 2450 4666 
L 2450 531 
L 3481 531 
L 3481 0 
L 794 0 
L 794 531 
z
" transform="scale(0.015625)"/>
       </defs>
       <use xlink:href="#DejaVuSans-31"/>
       <use xlink:href="#DejaVuSans-30" x="63.623047"/>
       <use xlink:href="#DejaVuSans-30" x="127.246094"/>
      </g>
     </g>
    </g>
    <g id="xtick_4">
     <g id="line2d_4">
      <path d="M 262.813214 309.78 
L 262.813214 55.68 
" clip-path="url(#pa94654023f)" style="fill: none; stroke: #ffffff; stroke-linecap: round"/>
     </g>
     <g id="text_4">
      <!-- 150 -->
      <g style="fill: #262626" transform="translate(252.315089 327.638281)scale(0.11 -0.11)">
       <use xlink:href="#DejaVuSans-31"/>
       <use xlink:href="#DejaVuSans-35" x="63.623047"/>
       <use xlink:href="#DejaVuSans-30" x="127.246094"/>
      </g>
     </g>
    </g>
    <g id="xtick_5">
     <g id="line2d_5">
      <path d="M 326.118376 309.78 
L 326.118376 55.68 
" clip-path="url(#pa94654023f)" style="fill: none; stroke: #ffffff; stroke-linecap: round"/>
     </g>
     <g id="text_5">
      <!-- 200 -->
      <g style="fill: #262626" transform="translate(315.620251 327.638281)scale(0.11 -0.11)">
       <defs>
        <path id="DejaVuSans-32" d="M 1228 531 
L 3431 531 
L 3431 0 
L 469 0 
L 469 531 
Q 828 903 1448 1529 
Q 2069 2156 2228 2338 
Q 2531 2678 2651 2914 
Q 2772 3150 2772 3378 
Q 2772 3750 2511 3984 
Q 2250 4219 1831 4219 
Q 1534 4219 1204 4116 
Q 875 4013 500 3803 
L 500 4441 
Q 881 4594 1212 4672 
Q 1544 4750 1819 4750 
Q 2544 4750 2975 4387 
Q 3406 4025 3406 3419 
Q 3406 3131 3298 2873 
Q 3191 2616 2906 2266 
Q 2828 2175 2409 1742 
Q 1991 1309 1228 531 
z
" transform="scale(0.015625)"/>
       </defs>
       <use xlink:href="#DejaVuSans-32"/>
       <use xlink:href="#DejaVuSans-30" x="63.623047"/>
       <use xlink:href="#DejaVuSans-30" x="127.246094"/>
      </g>
     </g>
    </g>
    <g id="text_6">
     <!-- Generation -->
     <g style="fill: #262626" transform="translate(165.403437 343.044062)scale(0.12 -0.12)">
      <defs>
       <path id="DejaVuSans-47" d="M 3809 666 
L 3809 1919 
L 2778 1919 
L 2778 2438 
L 4434 2438 
L 4434 434 
Q 4069 175 3628 42 
Q 3188 -91 2688 -91 
Q 1594 -91 976 548 
Q 359 1188 359 2328 
Q 359 3472 976 4111 
Q 1594 4750 2688 4750 
Q 3144 4750 3555 4637 
Q 3966 4525 4313 4306 
L 4313 3634 
Q 3963 3931 3569 4081 
Q 3175 4231 2741 4231 
Q 1884 4231 1454 3753 
Q 1025 3275 1025 2328 
Q 1025 1384 1454 906 
Q 1884 428 2741 428 
Q 3075 428 3337 486 
Q 3600 544 3809 666 
z
" transform="scale(0.015625)"/>
       <path id="DejaVuSans-65" d="M 3597 1894 
L 3597 1613 
L 953 1613 
Q 991 1019 1311 708 
Q 1631 397 2203 397 
Q 2534 397 2845 478 
Q 3156 559 3463 722 
L 3463 178 
Q 3153 47 2828 -22 
Q 2503 -91 2169 -91 
Q 1331 -91 842 396 
Q 353 884 353 1716 
Q 353 2575 817 3079 
Q 1281 3584 2069 3584 
Q 2775 3584 3186 3129 
Q 3597 2675 3597 1894 
z
M 3022 2063 
Q 3016 2534 2758 2815 
Q 2500 3097 2075 3097 
Q 1594 3097 1305 2825 
Q 1016 2553 972 2059 
L 3022 2063 
z
" transform="scale(0.015625)"/>
       <path id="DejaVuSans-6e" d="M 3513 2113 
L 3513 0 
L 2938 0 
L 2938 2094 
Q 2938 2591 2744 2837 
Q 2550 3084 2163 3084 
Q 1697 3084 1428 2787 
Q 1159 2491 1159 1978 
L 1159 0 
L 581 0 
L 581 3500 
L 1159 3500 
L 1159 2956 
Q 1366 3272 1645 3428 
Q 1925 3584 2291 3584 
Q 2894 3584 3203 3211 
Q 3513 2838 3513 2113 
z
" transform="scale(0.015625)"/>
       <path id="DejaVuSans-72" d="M 2631 2963 
Q 2534 3019 2420 3045 
Q 2306 3072 2169 3072 
Q 1681 3072 1420 2755 
Q 1159 2438 1159 1844 
L 1159 0 
L 581 0 
L 581 3500 
L 1159 3500 
L 1159 2956 
Q 1341 3275 1631 3429 
Q 1922 3584 2338 3584 
Q 2397 3584 2469 3576 
Q 2541 3569 2628 3553 
L 2631 2963 
z
" transform="scale(0.015625)"/>
       <path id="DejaVuSans-61" d="M 2194 1759 
Q 1497 1759 1228 1600 
Q 959 1441 959 1056 
Q 959 750 1161 570 
Q 1363 391 1709 391 
Q 2188 391 2477 730 
Q 2766 1069 2766 1631 
L 2766 1759 
L 2194 1759 
z
M 3341 1997 
L 3341 0 
L 2766 0 
L 2766 531 
Q 2569 213 2275 61 
Q 1981 -91 1556 -91 
Q 1019 -91 701 211 
Q 384 513 384 1019 
Q 384 1609 779 1909 
Q 1175 2209 1959 2209 
L 2766 2209 
L 2766 2266 
Q 2766 2663 2505 2880 
Q 2244 3097 1772 3097 
Q 1472 3097 1187 3025 
Q 903 2953 641 2809 
L 641 3341 
Q 956 3463 1253 3523 
Q 1550 3584 1831 3584 
Q 2591 3584 2966 3190 
Q 3341 2797 3341 1997 
z
" transform="scale(0.015625)"/>
       <path id="DejaVuSans-74" d="M 1172 4494 
L 1172 3500 
L 2356 3500 
L 2356 3053 
L 1172 3053 
L 1172 1153 
Q 1172 725 1289 603 
Q 1406 481 1766 481 
L 2356 481 
L 2356 0 
L 1766 0 
Q 1100 0 847 248 
Q 594 497 594 1153 
L 594 3053 
L 172 3053 
L 172 3500 
L 594 3500 
L 594 4494 
L 1172 4494 
z
" transform="scale(0.015625)"/>
       <path id="DejaVuSans-69" d="M 603 3500 
L 1178 3500 
L 1178 0 
L 603 0 
L 603 3500 
z
M 603 4863 
L 1178 4863 
L 1178 4134 
L 603 4134 
L 603 4863 
z
" transform="scale(0.015625)"/>
       <path id="DejaVuSans-6f" d="M 1959 3097 
Q 1497 3097 1228 2736 
Q 959 2375 959 1747 
Q 959 1119 1226 758 
Q 1494 397 1959 397 
Q 2419 397 2687 759 
Q 2956 1122 2956 1747 
Q 2956 2369 2687 2733 
Q 2419 3097 1959 3097 
z
M 1959 3584 
Q 2709 3584 3137 3096 
Q 3566 2609 3566 1747 
Q 3566 888 3137 398 
Q 2709 -91 1959 -91 
Q 1206 -91 779 398 
Q 353 888 353 1747 
Q 353 2609 779 3096 
Q 1206 3584 1959 3584 
z
" transform="scale(0.015625)"/>
      </defs>
      <use xlink:href="#DejaVuSans-47"/>
      <use xlink:href="#DejaVuSans-65" x="77.490234"/>
      <use xlink:href="#DejaVuSans-6e" x="139.013672"/>
      <use xlink:href="#DejaVuSans-65" x="202.392578"/>
      <use xlink:href="#DejaVuSans-72" x="263.916016"/>
      <use xlink:href="#DejaVuSans-61" x="305.029297"/>
      <use xlink:href="#DejaVuSans-74" x="366.308594"/>
      <use xlink:href="#DejaVuSans-69" x="405.517578"/>
      <use xlink:href="#DejaVuSans-6f" x="433.300781"/>
      <use xlink:href="#DejaVuSans-6e" x="494.482422"/>
     </g>
    </g>
   </g>
   <g id="matplotlib.axis_2">
    <g id="ytick_1">
     <g id="line2d_6">
      <path d="M 60.3 298.23 
L 337.45 298.23 
" clip-path="url(#pa94654023f)" style="fill: none; stroke: #ffffff; stroke-linecap: round"/>
     </g>
     <g id="text_7">
      <!-- 0 -->
      <g style="fill: #262626" transform="translate(43.80125 302.409141)scale(0.11 -0.11)">
       <use xlink:href="#DejaVuSans-30"/>
      </g>
     </g>
    </g>
    <g id="ytick_2">
     <g id="line2d_7">
      <path d="M 60.3 262.908899 
L 337.45 262.908899 
" clip-path="url(#pa94654023f)" style="fill: none; stroke: #ffffff; stroke-linecap: round"/>
     </g>
     <g id="text_8">
      <!-- 50 -->
      <g style="fill: #262626" transform="translate(36.8025 267.08804)scale(0.11 -0.11)">
       <use xlink:href="#DejaVuSans-35"/>
       <use xlink:href="#DejaVuSans-30" x="63.623047"/>
      </g>
     </g>
    </g>
    <g id="ytick_3">
     <g id="line2d_8">
      <path d="M 60.3 227.587798 
L 337.45 227.587798 
" clip-path="url(#pa94654023f)" style="fill: none; stroke: #ffffff; stroke-linecap: round"/>
     </g>
     <g id="text_9">
      <!-- 100 -->
      <g style="fill: #262626" transform="translate(29.80375 231.766939)scale(0.11 -0.11)">
       <use xlink:href="#DejaVuSans-31"/>
       <use xlink:href="#DejaVuSans-30" x="63.623047"/>
       <use xlink:href="#DejaVuSans-30" x="127.246094"/>
      </g>
     </g>
    </g>
    <g id="ytick_4">
     <g id="line2d_9">
      <path d="M 60.3 192.266697 
L 337.45 192.266697 
" clip-path="url(#pa94654023f)" style="fill: none; stroke: #ffffff; stroke-linecap: round"/>
     </g>
     <g id="text_10">
      <!-- 150 -->
      <g style="fill: #262626" transform="translate(29.80375 196.445838)scale(0.11 -0.11)">
       <use xlink:href="#DejaVuSans-31"/>
       <use xlink:href="#DejaVuSans-35" x="63.623047"/>
       <use xlink:href="#DejaVuSans-30" x="127.246094"/>
      </g>
     </g>
    </g>
    <g id="ytick_5">
     <g id="line2d_10">
      <path d="M 60.3 156.945596 
L 337.45 156.945596 
" clip-path="url(#pa94654023f)" style="fill: none; stroke: #ffffff; stroke-linecap: round"/>
     </g>
     <g id="text_11">
      <!-- 200 -->
      <g style="fill: #262626" transform="translate(29.80375 161.124737)scale(0.11 -0.11)">
       <use xlink:href="#DejaVuSans-32"/>
       <use xlink:href="#DejaVuSans-30" x="63.623047"/>
       <use xlink:href="#DejaVuSans-30" x="127.246094"/>
      </g>
     </g>
    </g>
    <g id="ytick_6">
     <g id="line2d_11">
      <path d="M 60.3 121.624495 
L 337.45 121.624495 
" clip-path="url(#pa94654023f)" style="fill: none; stroke: #ffffff; stroke-linecap: round"/>
     </g>
     <g id="text_12">
      <!-- 250 -->
      <g style="fill: #262626" transform="translate(29.80375 125.803636)scale(0.11 -0.11)">
       <use xlink:href="#DejaVuSans-32"/>
       <use xlink:href="#DejaVuSans-35" x="63.623047"/>
       <use xlink:href="#DejaVuSans-30" x="127.246094"/>
      </g>
     </g>
    </g>
    <g id="ytick_7">
     <g id="line2d_12">
      <path d="M 60.3 86.303394 
L 337.45 86.303394 
" clip-path="url(#pa94654023f)" style="fill: none; stroke: #ffffff; stroke-linecap: round"/>
     </g>
     <g id="text_13">
      <!-- 300 -->
      <g style="fill: #262626" transform="translate(29.80375 90.482535)scale(0.11 -0.11)">
       <defs>
        <path id="DejaVuSans-33" d="M 2597 2516 
Q 3050 2419 3304 2112 
Q 3559 1806 3559 1356 
Q 3559 666 3084 287 
Q 2609 -91 1734 -91 
Q 1441 -91 1130 -33 
Q 819 25 488 141 
L 488 750 
Q 750 597 1062 519 
Q 1375 441 1716 441 
Q 2309 441 2620 675 
Q 2931 909 2931 1356 
Q 2931 1769 2642 2001 
Q 2353 2234 1838 2234 
L 1294 2234 
L 1294 2753 
L 1863 2753 
Q 2328 2753 2575 2939 
Q 2822 3125 2822 3475 
Q 2822 3834 2567 4026 
Q 2313 4219 1838 4219 
Q 1578 4219 1281 4162 
Q 984 4106 628 3988 
L 628 4550 
Q 988 4650 1302 4700 
Q 1616 4750 1894 4750 
Q 2613 4750 3031 4423 
Q 3450 4097 3450 3541 
Q 3450 3153 3228 2886 
Q 3006 2619 2597 2516 
z
" transform="scale(0.015625)"/>
       </defs>
       <use xlink:href="#DejaVuSans-33"/>
       <use xlink:href="#DejaVuSans-30" x="63.623047"/>
       <use xlink:href="#DejaVuSans-30" x="127.246094"/>
      </g>
     </g>
    </g>
    <g id="text_14">
     <!-- Fitness -->
     <g style="fill: #262626" transform="translate(23.308125 203.510625)rotate(-90)scale(0.12 -0.12)">
      <defs>
       <path id="DejaVuSans-46" d="M 628 4666 
L 3309 4666 
L 3309 4134 
L 1259 4134 
L 1259 2759 
L 3109 2759 
L 3109 2228 
L 1259 2228 
L 1259 0 
L 628 0 
L 628 4666 
z
" transform="scale(0.015625)"/>
       <path id="DejaVuSans-73" d="M 2834 3397 
L 2834 2853 
Q 2591 2978 2328 3040 
Q 2066 3103 1784 3103 
Q 1356 3103 1142 2972 
Q 928 2841 928 2578 
Q 928 2378 1081 2264 
Q 1234 2150 1697 2047 
L 1894 2003 
Q 2506 1872 2764 1633 
Q 3022 1394 3022 966 
Q 3022 478 2636 193 
Q 2250 -91 1575 -91 
Q 1294 -91 989 -36 
Q 684 19 347 128 
L 347 722 
Q 666 556 975 473 
Q 1284 391 1588 391 
Q 1994 391 2212 530 
Q 2431 669 2431 922 
Q 2431 1156 2273 1281 
Q 2116 1406 1581 1522 
L 1381 1569 
Q 847 1681 609 1914 
Q 372 2147 372 2553 
Q 372 3047 722 3315 
Q 1072 3584 1716 3584 
Q 2034 3584 2315 3537 
Q 2597 3491 2834 3397 
z
" transform="scale(0.015625)"/>
      </defs>
      <use xlink:href="#DejaVuSans-46"/>
      <use xlink:href="#DejaVuSans-69" x="50.269531"/>
      <use xlink:href="#DejaVuSans-74" x="78.052734"/>
      <use xlink:href="#DejaVuSans-6e" x="117.261719"/>
      <use xlink:href="#DejaVuSans-65" x="180.640625"/>
      <use xlink:href="#DejaVuSans-73" x="242.164062"/>
      <use xlink:href="#DejaVuSans-73" x="294.263672"/>
     </g>
    </g>
   </g>
   <g id="PolyCollection_1">
    <defs>
     <path id="mb9a42ebf2a" d="M 72.897727 -80.843394 
L 72.897727 -61.77 
L 74.163831 -75.721835 
L 75.429934 -77.311284 
L 76.696037 -77.841101 
L 77.96214 -76.604862 
L 79.228243 -75.89844 
L 80.494347 -80.136972 
L 81.76045 -78.724128 
L 83.026553 -78.017706 
L 84.292656 -78.724128 
L 85.55876 -78.017706 
L 86.824863 -78.017706 
L 88.090966 -76.604862 
L 89.357069 -78.724128 
L 90.623173 -77.311284 
L 91.889276 -78.724128 
L 93.155379 -77.841101 
L 94.421482 -79.43055 
L 95.687586 -77.841101 
L 96.953689 -78.017706 
L 98.219792 -77.311284 
L 99.485895 -78.547523 
L 100.751999 -79.253945 
L 102.018102 -79.43055 
L 103.284205 -79.253945 
L 104.550308 -80.136972 
L 105.816412 -78.017706 
L 107.082515 -78.724128 
L 108.348618 -80.136972 
L 109.614721 -78.017706 
L 110.880825 -79.43055 
L 112.146928 -78.017706 
L 113.413031 -78.724128 
L 114.679134 -79.253945 
L 115.945238 -80.136972 
L 117.211341 -79.43055 
L 118.477444 -80.843394 
L 119.743547 -77.311284 
L 121.009651 -80.666789 
L 122.275754 -79.43055 
L 123.541857 -79.43055 
L 124.80796 -79.43055 
L 126.074063 -79.43055 
L 127.340167 -79.960367 
L 128.60627 -79.43055 
L 129.872373 -78.017706 
L 131.138476 -80.136972 
L 132.40458 -81.373211 
L 133.670683 -78.017706 
L 134.936786 -80.843394 
L 136.202889 -78.017706 
L 137.468993 -79.43055 
L 138.735096 -78.724128 
L 140.001199 -78.724128 
L 141.267302 -79.960367 
L 142.533406 -79.43055 
L 143.799509 -80.136972 
L 145.065612 -78.724128 
L 146.331715 -78.724128 
L 147.597819 -79.43055 
L 148.863922 -78.724128 
L 150.130025 -79.43055 
L 151.396128 -80.136972 
L 152.662232 -79.43055 
L 153.928335 -79.43055 
L 155.194438 -78.724128 
L 156.460541 -78.547523 
L 157.726645 -79.43055 
L 158.992748 -80.136972 
L 160.258851 -80.136972 
L 161.524954 -80.136972 
L 162.791058 -81.549817 
L 164.057161 -79.43055 
L 165.323264 -79.43055 
L 166.589367 -79.960367 
L 167.855471 -78.724128 
L 169.121574 -79.43055 
L 170.387677 -79.43055 
L 171.65378 -80.136972 
L 172.919884 -81.373211 
L 174.185987 -79.960367 
L 175.45209 -81.373211 
L 176.718193 -79.43055 
L 177.984296 -80.666789 
L 179.2504 -78.724128 
L 180.516503 -79.43055 
L 181.782606 -78.724128 
L 183.048709 -79.960367 
L 184.314813 -80.136972 
L 185.580916 -78.017706 
L 186.847019 -78.547523 
L 188.113122 -80.136972 
L 189.379226 -80.136972 
L 190.645329 -77.311284 
L 191.911432 -78.724128 
L 193.177535 -79.43055 
L 194.443639 -78.724128 
L 195.709742 -78.724128 
L 196.975845 -80.666789 
L 198.241948 -80.136972 
L 199.508052 -80.136972 
L 200.774155 -79.253945 
L 202.040258 -80.666789 
L 203.306361 -79.253945 
L 204.572465 -78.724128 
L 205.838568 -80.843394 
L 207.104671 -80.843394 
L 208.370774 -79.253945 
L 209.636878 -79.43055 
L 210.902981 -81.549817 
L 212.169084 -79.253945 
L 213.435187 -79.43055 
L 214.701291 -79.43055 
L 215.967394 -78.724128 
L 217.233497 -79.43055 
L 218.4996 -79.43055 
L 219.765704 -79.43055 
L 221.031807 -78.724128 
L 222.29791 -80.136972 
L 223.564013 -78.724128 
L 224.830116 -80.136972 
L 226.09622 -78.724128 
L 227.362323 -79.253945 
L 228.628426 -80.136972 
L 229.894529 -79.43055 
L 231.160633 -80.136972 
L 232.426736 -79.43055 
L 233.692839 -79.960367 
L 234.958942 -78.017706 
L 236.225046 -79.43055 
L 237.491149 -80.843394 
L 238.757252 -80.136972 
L 240.023355 -79.43055 
L 241.289459 -79.960367 
L 242.555562 -79.43055 
L 243.821665 -80.843394 
L 245.087768 -78.724128 
L 246.353872 -78.017706 
L 247.619975 -80.136972 
L 248.886078 -79.43055 
L 250.152181 -78.724128 
L 251.418285 -79.43055 
L 252.684388 -78.547523 
L 253.950491 -80.666789 
L 255.216594 -80.136972 
L 256.482698 -78.724128 
L 257.748801 -80.136972 
L 259.014904 -78.724128 
L 260.281007 -80.666789 
L 261.547111 -80.843394 
L 262.813214 -79.960367 
L 264.079317 -79.960367 
L 265.34542 -78.017706 
L 266.611524 -77.311284 
L 267.877627 -79.43055 
L 269.14373 -77.311284 
L 270.409833 -78.724128 
L 271.675937 -79.960367 
L 272.94204 -78.017706 
L 274.208143 -77.311284 
L 275.474246 -79.960367 
L 276.740349 -80.136972 
L 278.006453 -77.311284 
L 279.272556 -78.724128 
L 280.538659 -78.724128 
L 281.804762 -78.724128 
L 283.070866 -77.841101 
L 284.336969 -79.960367 
L 285.603072 -80.136972 
L 286.869175 -80.136972 
L 288.135279 -78.017706 
L 289.401382 -79.43055 
L 290.667485 -78.017706 
L 291.933588 -79.960367 
L 293.199692 -77.134679 
L 294.465795 -78.017706 
L 295.731898 -80.136972 
L 296.998001 -78.724128 
L 298.264105 -79.960367 
L 299.530208 -80.843394 
L 300.796311 -80.843394 
L 302.062414 -80.666789 
L 303.328518 -80.136972 
L 304.594621 -79.43055 
L 305.860724 -78.017706 
L 307.126827 -80.136972 
L 308.392931 -80.843394 
L 309.659034 -79.43055 
L 310.925137 -79.960367 
L 312.19124 -80.666789 
L 313.457344 -79.43055 
L 314.723447 -80.843394 
L 315.98955 -78.724128 
L 317.255653 -80.843394 
L 318.521757 -79.960367 
L 319.78786 -78.724128 
L 321.053963 -80.666789 
L 322.320066 -79.960367 
L 323.586169 -79.43055 
L 324.852273 -79.43055 
L 324.852273 -93.029174 
L 324.852273 -93.029174 
L 323.586169 -93.029174 
L 322.320066 -93.558991 
L 321.053963 -92.322752 
L 319.78786 -92.146147 
L 318.521757 -93.558991 
L 317.255653 -94.971835 
L 315.98955 -92.146147 
L 314.723447 -92.146147 
L 313.457344 -93.735596 
L 312.19124 -92.322752 
L 310.925137 -95.854862 
L 309.659034 -93.558991 
L 308.392931 -94.265413 
L 307.126827 -93.029174 
L 305.860724 -94.265413 
L 304.594621 -93.558991 
L 303.328518 -93.558991 
L 302.062414 -93.558991 
L 300.796311 -95.678257 
L 299.530208 -93.558991 
L 298.264105 -94.265413 
L 296.998001 -93.558991 
L 295.731898 -94.442018 
L 294.465795 -91.439725 
L 293.199692 -91.61633 
L 291.933588 -90.909908 
L 290.667485 -92.852569 
L 289.401382 -93.558991 
L 288.135279 -91.439725 
L 286.869175 -93.735596 
L 285.603072 -93.558991 
L 284.336969 -90.733303 
L 283.070866 -92.146147 
L 281.804762 -90.909908 
L 280.538659 -93.735596 
L 279.272556 -92.146147 
L 278.006453 -91.086514 
L 276.740349 -92.852569 
L 275.474246 -93.558991 
L 274.208143 -92.852569 
L 272.94204 -94.971835 
L 271.675937 -90.909908 
L 270.409833 -90.026881 
L 269.14373 -89.497064 
L 267.877627 -92.146147 
L 266.611524 -90.909908 
L 265.34542 -92.146147 
L 264.079317 -93.029174 
L 262.813214 -92.322752 
L 261.547111 -96.384679 
L 260.281007 -92.852569 
L 259.014904 -92.146147 
L 257.748801 -92.852569 
L 256.482698 -94.265413 
L 255.216594 -93.558991 
L 253.950491 -93.029174 
L 252.684388 -92.146147 
L 251.418285 -92.322752 
L 250.152181 -95.14844 
L 248.886078 -91.439725 
L 247.619975 -92.322752 
L 246.353872 -93.029174 
L 245.087768 -91.439725 
L 243.821665 -96.561284 
L 242.555562 -93.558991 
L 241.289459 -93.558991 
L 240.023355 -92.146147 
L 238.757252 -94.265413 
L 237.491149 -94.265413 
L 236.225046 -92.322752 
L 234.958942 -93.029174 
L 233.692839 -92.852569 
L 232.426736 -93.912202 
L 231.160633 -93.029174 
L 229.894529 -93.558991 
L 228.628426 -93.029174 
L 227.362323 -92.146147 
L 226.09622 -92.852569 
L 224.830116 -93.558991 
L 223.564013 -94.795229 
L 222.29791 -94.265413 
L 221.031807 -92.852569 
L 219.765704 -92.852569 
L 218.4996 -93.558991 
L 217.233497 -94.971835 
L 215.967394 -92.852569 
L 214.701291 -93.735596 
L 213.435187 -94.265413 
L 212.169084 -93.912202 
L 210.902981 -94.618624 
L 209.636878 -94.265413 
L 208.370774 -94.265413 
L 207.104671 -93.558991 
L 205.838568 -95.678257 
L 204.572465 -92.852569 
L 203.306361 -93.029174 
L 202.040258 -94.265413 
L 200.774155 -92.146147 
L 199.508052 -94.971835 
L 198.241948 -92.852569 
L 196.975845 -94.971835 
L 195.709742 -92.322752 
L 194.443639 -90.909908 
L 193.177535 -93.558991 
L 191.911432 -94.442018 
L 190.645329 -93.558991 
L 189.379226 -93.558991 
L 188.113122 -94.265413 
L 186.847019 -93.735596 
L 185.580916 -93.558991 
L 184.314813 -93.558991 
L 183.048709 -92.499358 
L 181.782606 -94.265413 
L 180.516503 -92.852569 
L 179.2504 -92.146147 
L 177.984296 -96.384679 
L 176.718193 -91.439725 
L 175.45209 -92.852569 
L 174.185987 -92.852569 
L 172.919884 -94.971835 
L 171.65378 -92.146147 
L 170.387677 -93.558991 
L 169.121574 -93.912202 
L 167.855471 -93.558991 
L 166.589367 -95.854862 
L 165.323264 -93.558991 
L 164.057161 -94.442018 
L 162.791058 -93.558991 
L 161.524954 -94.971835 
L 160.258851 -93.029174 
L 158.992748 -94.442018 
L 157.726645 -92.852569 
L 156.460541 -92.146147 
L 155.194438 -92.852569 
L 153.928335 -94.971835 
L 152.662232 -92.146147 
L 151.396128 -95.678257 
L 150.130025 -93.029174 
L 148.863922 -94.971835 
L 147.597819 -93.735596 
L 146.331715 -93.558991 
L 145.065612 -93.735596 
L 143.799509 -93.735596 
L 142.533406 -92.322752 
L 141.267302 -94.265413 
L 140.001199 -93.029174 
L 138.735096 -90.733303 
L 137.468993 -92.322752 
L 136.202889 -91.61633 
L 134.936786 -93.558991 
L 133.670683 -91.61633 
L 132.40458 -96.384679 
L 131.138476 -93.558991 
L 129.872373 -92.322752 
L 128.60627 -93.558991 
L 127.340167 -93.735596 
L 126.074063 -93.558991 
L 124.80796 -92.852569 
L 123.541857 -92.852569 
L 122.275754 -93.558991 
L 121.009651 -92.852569 
L 119.743547 -92.146147 
L 118.477444 -94.971835 
L 117.211341 -95.678257 
L 115.945238 -93.029174 
L 114.679134 -90.733303 
L 113.413031 -94.442018 
L 112.146928 -92.146147 
L 110.880825 -91.792936 
L 109.614721 -92.852569 
L 108.348618 -94.971835 
L 107.082515 -93.558991 
L 105.816412 -92.852569 
L 104.550308 -94.265413 
L 103.284205 -92.852569 
L 102.018102 -91.439725 
L 100.751999 -93.558991 
L 99.485895 -94.265413 
L 98.219792 -90.026881 
L 96.953689 -90.733303 
L 95.687586 -91.439725 
L 94.421482 -90.909908 
L 93.155379 -93.558991 
L 91.889276 -91.439725 
L 90.623173 -90.733303 
L 89.357069 -90.733303 
L 88.090966 -90.026881 
L 86.824863 -92.852569 
L 85.55876 -90.733303 
L 84.292656 -92.852569 
L 83.026553 -91.61633 
L 81.76045 -90.026881 
L 80.494347 -93.558991 
L 79.228243 -88.790642 
L 77.96214 -90.909908 
L 76.696037 -90.026881 
L 75.429934 -89.320459 
L 74.163831 -88.614037 
L 72.897727 -80.843394 
z
" style="stroke: #4c72b0; stroke-opacity: 0.2"/>
    </defs>
    <g clip-path="url(#pa94654023f)">
     <use xlink:href="#mb9a42ebf2a" x="0" y="360" style="fill: #4c72b0; fill-opacity: 0.2; stroke: #4c72b0; stroke-opacity: 0.2"/>
    </g>
   </g>
   <g id="PolyCollection_2">
    <defs>
     <path id="m821de6ae55" d="M 72.897727 -79.783761 
L 72.897727 -61.77 
L 74.163831 -72.36633 
L 75.429934 -78.017706 
L 76.696037 -78.724128 
L 77.96214 -79.783761 
L 79.228243 -81.373211 
L 80.494347 -79.43055 
L 81.76045 -78.017706 
L 83.026553 -81.549817 
L 84.292656 -80.843394 
L 85.55876 -80.136972 
L 86.824863 -81.549817 
L 88.090966 -79.43055 
L 89.357069 -79.43055 
L 90.623173 -79.43055 
L 91.889276 -81.373211 
L 93.155379 -81.549817 
L 94.421482 -81.373211 
L 95.687586 -80.843394 
L 96.953689 -81.02 
L 98.219792 -78.547523 
L 99.485895 -81.549817 
L 100.751999 -81.373211 
L 102.018102 -80.136972 
L 103.284205 -80.843394 
L 104.550308 -82.256239 
L 105.816412 -82.079633 
L 107.082515 -81.549817 
L 108.348618 -82.786055 
L 109.614721 -82.256239 
L 110.880825 -81.549817 
L 112.146928 -80.136972 
L 113.413031 -79.960367 
L 114.679134 -78.724128 
L 115.945238 -82.786055 
L 117.211341 -80.843394 
L 118.477444 -77.311284 
L 119.743547 -80.843394 
L 121.009651 -79.43055 
L 122.275754 -80.843394 
L 123.541857 -80.843394 
L 124.80796 -79.960367 
L 126.074063 -79.253945 
L 127.340167 -80.666789 
L 128.60627 -80.843394 
L 129.872373 -79.43055 
L 131.138476 -82.962661 
L 132.40458 -80.136972 
L 133.670683 -80.666789 
L 134.936786 -78.547523 
L 136.202889 -80.490183 
L 137.468993 -79.960367 
L 138.735096 -80.136972 
L 140.001199 -79.43055 
L 141.267302 -81.549817 
L 142.533406 -80.666789 
L 143.799509 -79.43055 
L 145.065612 -82.786055 
L 146.331715 -79.253945 
L 147.597819 -79.43055 
L 148.863922 -80.843394 
L 150.130025 -78.724128 
L 151.396128 -82.256239 
L 152.662232 -80.666789 
L 153.928335 -79.253945 
L 155.194438 -80.843394 
L 156.460541 -81.373211 
L 157.726645 -82.962661 
L 158.992748 -82.256239 
L 160.258851 -81.549817 
L 161.524954 -81.196606 
L 162.791058 -84.198899 
L 164.057161 -79.43055 
L 165.323264 -80.843394 
L 166.589367 -80.666789 
L 167.855471 -81.373211 
L 169.121574 -78.547523 
L 170.387677 -80.136972 
L 171.65378 -79.43055 
L 172.919884 -80.843394 
L 174.185987 -80.666789 
L 175.45209 -78.724128 
L 176.718193 -79.43055 
L 177.984296 -79.43055 
L 179.2504 -79.43055 
L 180.516503 -80.136972 
L 181.782606 -79.43055 
L 183.048709 -79.253945 
L 184.314813 -82.256239 
L 185.580916 -79.253945 
L 186.847019 -81.373211 
L 188.113122 -80.136972 
L 189.379226 -79.43055 
L 190.645329 -79.43055 
L 191.911432 -82.079633 
L 193.177535 -78.724128 
L 194.443639 -82.256239 
L 195.709742 -80.666789 
L 196.975845 -78.017706 
L 198.241948 -79.43055 
L 199.508052 -79.43055 
L 200.774155 -80.843394 
L 202.040258 -81.373211 
L 203.306361 -82.962661 
L 204.572465 -81.549817 
L 205.838568 -78.724128 
L 207.104671 -79.43055 
L 208.370774 -83.669083 
L 209.636878 -80.843394 
L 210.902981 -82.786055 
L 212.169084 -80.136972 
L 213.435187 -80.843394 
L 214.701291 -82.256239 
L 215.967394 -80.843394 
L 217.233497 -80.843394 
L 218.4996 -81.549817 
L 219.765704 -80.843394 
L 221.031807 -82.962661 
L 222.29791 -82.079633 
L 223.564013 -80.843394 
L 224.830116 -81.549817 
L 226.09622 -80.666789 
L 227.362323 -80.843394 
L 228.628426 -79.960367 
L 229.894529 -83.669083 
L 231.160633 -82.256239 
L 232.426736 -84.375505 
L 233.692839 -81.549817 
L 234.958942 -82.079633 
L 236.225046 -82.256239 
L 237.491149 -81.549817 
L 238.757252 -82.962661 
L 240.023355 -80.843394 
L 241.289459 -84.198899 
L 242.555562 -83.492477 
L 243.821665 -82.962661 
L 245.087768 -81.196606 
L 246.353872 -82.256239 
L 247.619975 -82.962661 
L 248.886078 -80.666789 
L 250.152181 -81.373211 
L 251.418285 -81.373211 
L 252.684388 -80.136972 
L 253.950491 -82.256239 
L 255.216594 -81.373211 
L 256.482698 -82.256239 
L 257.748801 -81.549817 
L 259.014904 -82.962661 
L 260.281007 -81.549817 
L 261.547111 -84.375505 
L 262.813214 -82.256239 
L 264.079317 -82.256239 
L 265.34542 -80.136972 
L 266.611524 -82.256239 
L 267.877627 -82.786055 
L 269.14373 -84.375505 
L 270.409833 -83.669083 
L 271.675937 -82.079633 
L 272.94204 -82.256239 
L 274.208143 -83.669083 
L 275.474246 -85.788349 
L 276.740349 -83.669083 
L 278.006453 -80.843394 
L 279.272556 -82.786055 
L 280.538659 -83.492477 
L 281.804762 -82.256239 
L 283.070866 -82.256239 
L 284.336969 -82.962661 
L 285.603072 -80.666789 
L 286.869175 -82.786055 
L 288.135279 -82.256239 
L 289.401382 -84.905321 
L 290.667485 -80.843394 
L 291.933588 -82.786055 
L 293.199692 -82.256239 
L 294.465795 -82.079633 
L 295.731898 -82.962661 
L 296.998001 -81.549817 
L 298.264105 -81.549817 
L 299.530208 -82.079633 
L 300.796311 -85.081927 
L 302.062414 -82.256239 
L 303.328518 -82.256239 
L 304.594621 -84.375505 
L 305.860724 -82.962661 
L 307.126827 -82.786055 
L 308.392931 -81.549817 
L 309.659034 -82.256239 
L 310.925137 -82.079633 
L 312.19124 -82.079633 
L 313.457344 -82.256239 
L 314.723447 -79.43055 
L 315.98955 -82.079633 
L 317.255653 -83.669083 
L 318.521757 -82.786055 
L 319.78786 -82.256239 
L 321.053963 -82.786055 
L 322.320066 -82.256239 
L 323.586169 -80.843394 
L 324.852273 -82.256239 
L 324.852273 -213.474128 
L 324.852273 -213.474128 
L 323.586169 -267.338807 
L 322.320066 -267.338807 
L 321.053963 -267.338807 
L 319.78786 -267.338807 
L 318.521757 -267.338807 
L 317.255653 -267.338807 
L 315.98955 -267.338807 
L 314.723447 -267.338807 
L 313.457344 -267.338807 
L 312.19124 -267.338807 
L 310.925137 -267.338807 
L 309.659034 -267.338807 
L 308.392931 -267.338807 
L 307.126827 -267.338807 
L 305.860724 -267.338807 
L 304.594621 -267.338807 
L 303.328518 -267.338807 
L 302.062414 -267.338807 
L 300.796311 -267.338807 
L 299.530208 -267.338807 
L 298.264105 -267.338807 
L 296.998001 -267.338807 
L 295.731898 -267.338807 
L 294.465795 -267.338807 
L 293.199692 -227.072752 
L 291.933588 -267.338807 
L 290.667485 -267.338807 
L 289.401382 -267.338807 
L 288.135279 -267.338807 
L 286.869175 -267.338807 
L 285.603072 -267.338807 
L 284.336969 -267.338807 
L 283.070866 -267.338807 
L 281.804762 -267.338807 
L 280.538659 -267.338807 
L 279.272556 -267.338807 
L 278.006453 -267.338807 
L 276.740349 -267.338807 
L 275.474246 -267.338807 
L 274.208143 -267.338807 
L 272.94204 -187.86633 
L 271.675937 -267.338807 
L 270.409833 -267.338807 
L 269.14373 -267.338807 
L 267.877627 -267.338807 
L 266.611524 -267.338807 
L 265.34542 -267.338807 
L 264.079317 -267.338807 
L 262.813214 -267.338807 
L 261.547111 -267.338807 
L 260.281007 -267.338807 
L 259.014904 -267.338807 
L 257.748801 -267.338807 
L 256.482698 -267.338807 
L 255.216594 -267.338807 
L 253.950491 -267.338807 
L 252.684388 -267.338807 
L 251.418285 -267.338807 
L 250.152181 -267.338807 
L 248.886078 -267.338807 
L 247.619975 -267.338807 
L 246.353872 -267.338807 
L 245.087768 -267.338807 
L 243.821665 -267.338807 
L 242.555562 -267.338807 
L 241.289459 -267.338807 
L 240.023355 -267.338807 
L 238.757252 -267.338807 
L 237.491149 -267.338807 
L 236.225046 -267.338807 
L 234.958942 -267.338807 
L 233.692839 -267.338807 
L 232.426736 -267.338807 
L 231.160633 -267.338807 
L 229.894529 -267.338807 
L 228.628426 -267.338807 
L 227.362323 -267.338807 
L 226.09622 -267.338807 
L 224.830116 -267.338807 
L 223.564013 -267.338807 
L 222.29791 -212.414495 
L 221.031807 -213.474128 
L 219.765704 -190.338807 
L 218.4996 -190.338807 
L 217.233497 -190.338807 
L 215.967394 -163.318165 
L 214.701291 -159.256239 
L 213.435187 -159.256239 
L 212.169084 -159.256239 
L 210.902981 -159.256239 
L 209.636878 -159.256239 
L 208.370774 -159.256239 
L 207.104671 -159.256239 
L 205.838568 -159.256239 
L 204.572465 -126.054404 
L 203.306361 -126.054404 
L 202.040258 -126.054404 
L 200.774155 -123.935138 
L 199.508052 -114.221835 
L 198.241948 -111.925963 
L 196.975845 -104.685138 
L 195.709742 -123.935138 
L 194.443639 -126.054404 
L 193.177535 -124.464954 
L 191.911432 -123.935138 
L 190.645329 -113.868624 
L 189.379226 -123.935138 
L 188.113122 -123.935138 
L 186.847019 -123.935138 
L 185.580916 -108.393853 
L 184.314813 -123.935138 
L 183.048709 -113.868624 
L 181.782606 -109.276881 
L 180.516503 -110.689725 
L 179.2504 -104.331927 
L 177.984296 -117.047523 
L 176.718193 -122.345688 
L 175.45209 -121.286055 
L 174.185987 -123.935138 
L 172.919884 -116.694312 
L 171.65378 -109.100275 
L 170.387677 -109.100275 
L 169.121574 -103.625505 
L 167.855471 -105.038349 
L 166.589367 -111.042936 
L 165.323264 -109.276881 
L 164.057161 -110.513119 
L 162.791058 -115.634679 
L 161.524954 -105.214954 
L 160.258851 -122.522294 
L 158.992748 -122.522294 
L 157.726645 -122.522294 
L 156.460541 -122.522294 
L 155.194438 -116.517706 
L 153.928335 -122.522294 
L 152.662232 -122.522294 
L 151.396128 -122.522294 
L 150.130025 -122.522294 
L 148.863922 -122.522294 
L 147.597819 -117.047523 
L 146.331715 -122.522294 
L 145.065612 -120.403028 
L 143.799509 -122.522294 
L 142.533406 -111.396147 
L 141.267302 -109.276881 
L 140.001199 -107.864037 
L 138.735096 -109.983303 
L 137.468993 -108.747064 
L 136.202889 -114.045229 
L 134.936786 -114.751651 
L 133.670683 -114.751651 
L 132.40458 -109.983303 
L 131.138476 -114.751651 
L 129.872373 -108.570459 
L 128.60627 -114.751651 
L 127.340167 -114.751651 
L 126.074063 -114.751651 
L 124.80796 -114.751651 
L 123.541857 -114.751651 
L 122.275754 -114.751651 
L 121.009651 -114.751651 
L 119.743547 -107.864037 
L 118.477444 -110.513119 
L 117.211341 -111.042936 
L 115.945238 -112.808991 
L 114.679134 -114.751651 
L 113.413031 -114.751651 
L 112.146928 -113.162202 
L 110.880825 -114.751651 
L 109.614721 -111.572752 
L 108.348618 -106.804404 
L 107.082515 -110.513119 
L 105.816412 -108.92367 
L 104.550308 -106.627798 
L 103.284205 -107.687431 
L 102.018102 -106.274587 
L 100.751999 -104.155321 
L 99.485895 -107.157615 
L 98.219792 -106.274587 
L 96.953689 -106.274587 
L 95.687586 -106.274587 
L 94.421482 -106.451193 
L 93.155379 -106.274587 
L 91.889276 -106.274587 
L 90.623173 -106.274587 
L 89.357069 -105.744771 
L 88.090966 -106.274587 
L 86.824863 -105.038349 
L 85.55876 -104.155321 
L 84.292656 -106.274587 
L 83.026553 -106.274587 
L 81.76045 -103.448899 
L 80.494347 -103.448899 
L 79.228243 -106.274587 
L 77.96214 -100.799817 
L 76.696037 -95.854862 
L 75.429934 -91.61633 
L 74.163831 -93.558991 
L 72.897727 -79.783761 
z
" style="stroke: #dd8452; stroke-opacity: 0.2"/>
    </defs>
    <g clip-path="url(#pa94654023f)">
     <use xlink:href="#m821de6ae55" x="0" y="360" style="fill: #dd8452; fill-opacity: 0.2; stroke: #dd8452; stroke-opacity: 0.2"/>
    </g>
   </g>
   <g id="line2d_13">
    <path d="M 72.897727 290.459358 
L 74.163831 278.450183 
L 76.696037 277.037339 
L 79.228243 277.037339 
L 80.494347 273.85844 
L 81.76045 275.271284 
L 83.026553 275.624495 
L 84.292656 273.505229 
L 85.55876 274.211651 
L 86.824863 275.624495 
L 88.090966 277.743761 
L 89.357069 276.330917 
L 90.623173 276.330917 
L 91.889276 274.918073 
L 93.155379 276.330917 
L 94.421482 275.624495 
L 95.687586 275.271284 
L 96.953689 275.624495 
L 98.219792 275.624495 
L 99.485895 273.505229 
L 100.751999 273.152018 
L 102.018102 273.85844 
L 103.284205 275.624495 
L 104.550308 274.211651 
L 107.082515 275.624495 
L 108.348618 272.798807 
L 109.614721 274.918073 
L 110.880825 274.211651 
L 112.146928 275.624495 
L 113.413031 274.211651 
L 114.679134 275.624495 
L 115.945238 273.152018 
L 118.477444 273.85844 
L 119.743547 276.330917 
L 121.009651 273.85844 
L 123.541857 274.564862 
L 124.80796 273.505229 
L 126.074063 274.564862 
L 127.340167 274.918073 
L 128.60627 273.505229 
L 129.872373 276.330917 
L 131.138476 272.798807 
L 132.40458 272.092385 
L 133.670683 274.918073 
L 134.936786 273.505229 
L 136.202889 274.918073 
L 137.468993 274.564862 
L 138.735096 274.918073 
L 140.001199 275.624495 
L 141.267302 273.505229 
L 142.533406 274.918073 
L 143.799509 273.152018 
L 145.065612 274.211651 
L 146.331715 273.85844 
L 147.597819 273.85844 
L 148.863922 274.211651 
L 150.130025 274.211651 
L 151.396128 272.798807 
L 152.662232 276.330917 
L 153.928335 273.505229 
L 156.460541 275.624495 
L 157.726645 274.918073 
L 158.992748 272.445596 
L 161.524954 273.85844 
L 162.791058 273.152018 
L 164.057161 274.211651 
L 165.323264 273.505229 
L 166.589367 274.211651 
L 167.855471 274.211651 
L 169.121574 274.564862 
L 170.387677 274.211651 
L 171.65378 275.624495 
L 172.919884 272.798807 
L 174.185987 274.211651 
L 175.45209 273.505229 
L 176.718193 275.624495 
L 177.984296 273.152018 
L 179.2504 275.624495 
L 180.516503 273.505229 
L 181.782606 274.564862 
L 183.048709 274.211651 
L 184.314813 273.505229 
L 185.580916 274.918073 
L 186.847019 275.624495 
L 188.113122 273.505229 
L 189.379226 274.211651 
L 190.645329 273.505229 
L 191.911432 274.211651 
L 193.177535 273.505229 
L 194.443639 275.271284 
L 195.709742 275.624495 
L 196.975845 272.798807 
L 198.241948 275.271284 
L 199.508052 271.385963 
L 200.774155 274.211651 
L 202.040258 272.798807 
L 204.572465 275.624495 
L 205.838568 272.798807 
L 207.104671 272.798807 
L 208.370774 274.211651 
L 209.636878 274.211651 
L 210.902981 272.798807 
L 212.169084 274.918073 
L 213.435187 274.564862 
L 214.701291 274.918073 
L 215.967394 275.624495 
L 218.4996 274.211651 
L 221.031807 274.918073 
L 222.29791 274.211651 
L 223.564013 274.564862 
L 224.830116 274.211651 
L 226.09622 273.505229 
L 227.362323 274.918073 
L 229.894529 273.505229 
L 231.160633 273.505229 
L 232.426736 274.211651 
L 233.692839 273.85844 
L 234.958942 275.624495 
L 236.225046 273.505229 
L 237.491149 273.85844 
L 238.757252 272.798807 
L 240.023355 274.918073 
L 242.555562 273.505229 
L 243.821665 273.505229 
L 245.087768 274.564862 
L 246.353872 277.037339 
L 247.619975 273.505229 
L 248.886078 275.271284 
L 250.152181 273.505229 
L 252.684388 274.918073 
L 253.950491 273.505229 
L 255.216594 272.798807 
L 256.482698 274.564862 
L 257.748801 274.211651 
L 259.014904 274.918073 
L 260.281007 274.918073 
L 261.547111 272.445596 
L 262.813214 274.918073 
L 264.079317 273.85844 
L 265.34542 275.624495 
L 266.611524 275.624495 
L 267.877627 274.918073 
L 269.14373 276.330917 
L 270.409833 275.624495 
L 271.675937 275.624495 
L 272.94204 273.505229 
L 274.208143 275.624495 
L 275.474246 272.445596 
L 278.006453 275.977706 
L 279.272556 275.624495 
L 280.538659 275.977706 
L 281.804762 275.624495 
L 283.070866 275.624495 
L 285.603072 273.505229 
L 288.135279 274.918073 
L 289.401382 274.211651 
L 290.667485 274.211651 
L 291.933588 274.918073 
L 293.199692 274.918073 
L 294.465795 275.977706 
L 295.731898 272.798807 
L 296.998001 276.330917 
L 298.264105 274.211651 
L 299.530208 274.211651 
L 300.796311 272.092385 
L 302.062414 273.505229 
L 303.328518 272.798807 
L 304.594621 273.505229 
L 305.860724 274.918073 
L 307.126827 274.918073 
L 308.392931 272.798807 
L 309.659034 274.211651 
L 310.925137 272.798807 
L 312.19124 274.211651 
L 313.457344 273.505229 
L 314.723447 273.505229 
L 315.98955 274.918073 
L 318.521757 274.211651 
L 319.78786 275.271284 
L 321.053963 273.505229 
L 322.320066 273.505229 
L 323.586169 272.798807 
L 324.852273 275.271284 
L 324.852273 275.271284 
" clip-path="url(#pa94654023f)" style="fill: none; stroke: #4c72b0; stroke-width: 1.5; stroke-linecap: round"/>
   </g>
   <g id="line2d_14">
    <path d="M 72.897727 297.523578 
L 74.163831 277.037339 
L 75.429934 276.684128 
L 76.696037 273.505229 
L 77.96214 272.798807 
L 79.228243 270.32633 
L 80.494347 272.092385 
L 81.76045 272.798807 
L 83.026553 270.32633 
L 84.292656 272.092385 
L 85.55876 271.385963 
L 86.824863 271.032752 
L 88.090966 272.798807 
L 89.357069 273.152018 
L 90.623173 270.679541 
L 93.155379 269.266697 
L 94.421482 269.619908 
L 95.687586 266.087798 
L 96.953689 268.560275 
L 100.751999 270.679541 
L 102.018102 270.679541 
L 103.284205 268.913486 
L 104.550308 268.207064 
L 105.816412 269.266697 
L 108.348618 269.266697 
L 109.614721 266.79422 
L 110.880825 267.500642 
L 112.146928 267.853853 
L 113.413031 269.619908 
L 114.679134 270.679541 
L 115.945238 269.266697 
L 117.211341 269.973119 
L 118.477444 272.092385 
L 119.743547 272.092385 
L 122.275754 269.266697 
L 123.541857 269.619908 
L 124.80796 269.266697 
L 126.074063 268.560275 
L 127.340167 268.913486 
L 128.60627 270.679541 
L 129.872373 271.385963 
L 131.138476 269.266697 
L 132.40458 270.32633 
L 133.670683 267.147431 
L 134.936786 269.973119 
L 136.202889 269.619908 
L 137.468993 271.739174 
L 138.735096 270.32633 
L 140.001199 271.739174 
L 141.267302 268.913486 
L 142.533406 271.032752 
L 143.799509 268.560275 
L 145.065612 270.679541 
L 146.331715 269.619908 
L 147.597819 271.385963 
L 148.863922 268.560275 
L 150.130025 271.739174 
L 151.396128 267.500642 
L 152.662232 269.266697 
L 153.928335 268.560275 
L 155.194438 269.266697 
L 156.460541 267.147431 
L 157.726645 266.441009 
L 158.992748 268.560275 
L 160.258851 268.560275 
L 161.524954 270.679541 
L 162.791058 266.79422 
L 164.057161 269.619908 
L 165.323264 269.266697 
L 167.855471 269.973119 
L 169.121574 273.505229 
L 170.387677 268.913486 
L 171.65378 272.092385 
L 172.919884 270.679541 
L 174.185987 267.853853 
L 175.45209 271.032752 
L 176.718193 273.505229 
L 177.984296 272.798807 
L 180.516503 269.973119 
L 181.782606 272.092385 
L 183.048709 272.092385 
L 184.314813 267.147431 
L 185.580916 272.798807 
L 186.847019 269.619908 
L 188.113122 269.973119 
L 189.379226 271.032752 
L 190.645329 269.266697 
L 191.911432 269.973119 
L 193.177535 271.385963 
L 194.443639 268.560275 
L 195.709742 268.913486 
L 196.975845 275.624495 
L 198.241948 271.739174 
L 199.508052 269.619908 
L 200.774155 270.32633 
L 202.040258 267.853853 
L 203.306361 267.500642 
L 204.572465 269.973119 
L 205.838568 271.385963 
L 207.104671 268.560275 
L 208.370774 269.266697 
L 209.636878 267.853853 
L 210.902981 267.500642 
L 212.169084 269.266697 
L 213.435187 270.679541 
L 214.701291 267.147431 
L 215.967394 268.913486 
L 217.233497 266.441009 
L 218.4996 267.853853 
L 219.765704 268.913486 
L 221.031807 268.207064 
L 222.29791 266.441009 
L 223.564013 264.321743 
L 224.830116 268.560275 
L 226.09622 263.968532 
L 227.362323 263.26211 
L 228.628426 269.266697 
L 229.894529 264.674954 
L 231.160633 267.853853 
L 232.426736 261.496055 
L 233.692839 268.207064 
L 234.958942 266.087798 
L 236.225046 265.734587 
L 237.491149 265.734587 
L 238.757252 268.207064 
L 240.023355 267.500642 
L 241.289459 262.908899 
L 242.555562 266.441009 
L 243.821665 263.26211 
L 245.087768 265.734587 
L 246.353872 266.441009 
L 247.619975 266.441009 
L 248.886078 267.147431 
L 250.152181 268.207064 
L 251.418285 267.147431 
L 252.684388 268.207064 
L 253.950491 263.968532 
L 255.216594 268.560275 
L 256.482698 265.381376 
L 257.748801 266.087798 
L 259.014904 265.734587 
L 260.281007 268.560275 
L 261.547111 266.087798 
L 262.813214 265.381376 
L 264.079317 266.79422 
L 265.34542 268.913486 
L 266.611524 267.853853 
L 267.877627 264.321743 
L 270.409833 264.321743 
L 271.675937 265.028165 
L 272.94204 267.147431 
L 274.208143 266.79422 
L 275.474246 266.087798 
L 276.740349 266.087798 
L 278.006453 264.321743 
L 279.272556 266.087798 
L 280.538659 265.734587 
L 281.804762 267.853853 
L 283.070866 268.560275 
L 285.603072 265.734587 
L 286.869175 265.734587 
L 288.135279 267.147431 
L 289.401382 265.381376 
L 290.667485 268.560275 
L 291.933588 266.441009 
L 293.199692 265.028165 
L 294.465795 267.147431 
L 295.731898 270.32633 
L 296.998001 266.441009 
L 298.264105 266.087798 
L 299.530208 266.441009 
L 300.796311 263.968532 
L 302.062414 266.087798 
L 303.328518 263.26211 
L 304.594621 266.441009 
L 305.860724 264.674954 
L 307.126827 266.087798 
L 308.392931 265.734587 
L 309.659034 269.266697 
L 310.925137 265.381376 
L 312.19124 267.500642 
L 313.457344 265.381376 
L 314.723447 267.147431 
L 315.98955 265.734587 
L 317.255653 265.734587 
L 318.521757 265.028165 
L 319.78786 265.734587 
L 321.053963 268.207064 
L 322.320066 264.674954 
L 323.586169 268.560275 
L 324.852273 266.79422 
L 324.852273 266.79422 
" clip-path="url(#pa94654023f)" style="fill: none; stroke: #dd8452; stroke-width: 1.5; stroke-linecap: round"/>
   </g>
   <g id="line2d_15"/>
   <g id="line2d_16"/>
   <g id="patch_3">
    <path d="M 60.3 309.78 
L 60.3 55.68 
" style="fill: none; stroke: #ffffff; stroke-width: 1.25; stroke-linejoin: miter; stroke-linecap: square"/>
   </g>
   <g id="patch_4">
    <path d="M 337.45 309.78 
L 337.45 55.68 
" style="fill: none; stroke: #ffffff; stroke-width: 1.25; stroke-linejoin: miter; stroke-linecap: square"/>
   </g>
   <g id="patch_5">
    <path d="M 60.3 309.78 
L 337.45 309.78 
" style="fill: none; stroke: #ffffff; stroke-width: 1.25; stroke-linejoin: miter; stroke-linecap: square"/>
   </g>
   <g id="patch_6">
    <path d="M 60.3 55.68 
L 337.45 55.68 
" style="fill: none; stroke: #ffffff; stroke-width: 1.25; stroke-linejoin: miter; stroke-linecap: square"/>
   </g>
   <g id="text_15">
    <!-- Median By Generation -->
    <g style="fill: #262626" transform="translate(132.097812 49.68)scale(0.12 -0.12)">
     <defs>
      <path id="DejaVuSans-4d" d="M 628 4666 
L 1569 4666 
L 2759 1491 
L 3956 4666 
L 4897 4666 
L 4897 0 
L 4281 0 
L 4281 4097 
L 3078 897 
L 2444 897 
L 1241 4097 
L 1241 0 
L 628 0 
L 628 4666 
z
" transform="scale(0.015625)"/>
      <path id="DejaVuSans-64" d="M 2906 2969 
L 2906 4863 
L 3481 4863 
L 3481 0 
L 2906 0 
L 2906 525 
Q 2725 213 2448 61 
Q 2172 -91 1784 -91 
Q 1150 -91 751 415 
Q 353 922 353 1747 
Q 353 2572 751 3078 
Q 1150 3584 1784 3584 
Q 2172 3584 2448 3432 
Q 2725 3281 2906 2969 
z
M 947 1747 
Q 947 1113 1208 752 
Q 1469 391 1925 391 
Q 2381 391 2643 752 
Q 2906 1113 2906 1747 
Q 2906 2381 2643 2742 
Q 2381 3103 1925 3103 
Q 1469 3103 1208 2742 
Q 947 2381 947 1747 
z
" transform="scale(0.015625)"/>
      <path id="DejaVuSans-20" transform="scale(0.015625)"/>
      <path id="DejaVuSans-42" d="M 1259 2228 
L 1259 519 
L 2272 519 
Q 2781 519 3026 730 
Q 3272 941 3272 1375 
Q 3272 1813 3026 2020 
Q 2781 2228 2272 2228 
L 1259 2228 
z
M 1259 4147 
L 1259 2741 
L 2194 2741 
Q 2656 2741 2882 2914 
Q 3109 3088 3109 3444 
Q 3109 3797 2882 3972 
Q 2656 4147 2194 4147 
L 1259 4147 
z
M 628 4666 
L 2241 4666 
Q 2963 4666 3353 4366 
Q 3744 4066 3744 3513 
Q 3744 3084 3544 2831 
Q 3344 2578 2956 2516 
Q 3422 2416 3680 2098 
Q 3938 1781 3938 1306 
Q 3938 681 3513 340 
Q 3088 0 2303 0 
L 628 0 
L 628 4666 
z
" transform="scale(0.015625)"/>
      <path id="DejaVuSans-79" d="M 2059 -325 
Q 1816 -950 1584 -1140 
Q 1353 -1331 966 -1331 
L 506 -1331 
L 506 -850 
L 844 -850 
Q 1081 -850 1212 -737 
Q 1344 -625 1503 -206 
L 1606 56 
L 191 3500 
L 800 3500 
L 1894 763 
L 2988 3500 
L 3597 3500 
L 2059 -325 
z
" transform="scale(0.015625)"/>
     </defs>
     <use xlink:href="#DejaVuSans-4d"/>
     <use xlink:href="#DejaVuSans-65" x="86.279297"/>
     <use xlink:href="#DejaVuSans-64" x="147.802734"/>
     <use xlink:href="#DejaVuSans-69" x="211.279297"/>
     <use xlink:href="#DejaVuSans-61" x="239.0625"/>
     <use xlink:href="#DejaVuSans-6e" x="300.341797"/>
     <use xlink:href="#DejaVuSans-20" x="363.720703"/>
     <use xlink:href="#DejaVuSans-42" x="395.507812"/>
     <use xlink:href="#DejaVuSans-79" x="464.111328"/>
     <use xlink:href="#DejaVuSans-20" x="523.291016"/>
     <use xlink:href="#DejaVuSans-47" x="555.078125"/>
     <use xlink:href="#DejaVuSans-65" x="632.568359"/>
     <use xlink:href="#DejaVuSans-6e" x="694.091797"/>
     <use xlink:href="#DejaVuSans-65" x="757.470703"/>
     <use xlink:href="#DejaVuSans-72" x="818.994141"/>
     <use xlink:href="#DejaVuSans-61" x="860.107422"/>
     <use xlink:href="#DejaVuSans-74" x="921.386719"/>
     <use xlink:href="#DejaVuSans-69" x="960.595703"/>
     <use xlink:href="#DejaVuSans-6f" x="988.378906"/>
     <use xlink:href="#DejaVuSans-6e" x="1049.560547"/>
    </g>
   </g>
   <g id="legend_1">
    <g id="text_16">
     <!-- GenomeConfig -->
     <g style="fill: #262626" transform="translate(383.545078 169.895312)scale(0.12 -0.12)">
      <defs>
       <path id="DejaVuSans-6d" d="M 3328 2828 
Q 3544 3216 3844 3400 
Q 4144 3584 4550 3584 
Q 5097 3584 5394 3201 
Q 5691 2819 5691 2113 
L 5691 0 
L 5113 0 
L 5113 2094 
Q 5113 2597 4934 2840 
Q 4756 3084 4391 3084 
Q 3944 3084 3684 2787 
Q 3425 2491 3425 1978 
L 3425 0 
L 2847 0 
L 2847 2094 
Q 2847 2600 2669 2842 
Q 2491 3084 2119 3084 
Q 1678 3084 1418 2786 
Q 1159 2488 1159 1978 
L 1159 0 
L 581 0 
L 581 3500 
L 1159 3500 
L 1159 2956 
Q 1356 3278 1631 3431 
Q 1906 3584 2284 3584 
Q 2666 3584 2933 3390 
Q 3200 3197 3328 2828 
z
" transform="scale(0.015625)"/>
       <path id="DejaVuSans-43" d="M 4122 4306 
L 4122 3641 
Q 3803 3938 3442 4084 
Q 3081 4231 2675 4231 
Q 1875 4231 1450 3742 
Q 1025 3253 1025 2328 
Q 1025 1406 1450 917 
Q 1875 428 2675 428 
Q 3081 428 3442 575 
Q 3803 722 4122 1019 
L 4122 359 
Q 3791 134 3420 21 
Q 3050 -91 2638 -91 
Q 1578 -91 968 557 
Q 359 1206 359 2328 
Q 359 3453 968 4101 
Q 1578 4750 2638 4750 
Q 3056 4750 3426 4639 
Q 3797 4528 4122 4306 
z
" transform="scale(0.015625)"/>
       <path id="DejaVuSans-66" d="M 2375 4863 
L 2375 4384 
L 1825 4384 
Q 1516 4384 1395 4259 
Q 1275 4134 1275 3809 
L 1275 3500 
L 2222 3500 
L 2222 3053 
L 1275 3053 
L 1275 0 
L 697 0 
L 697 3053 
L 147 3053 
L 147 3500 
L 697 3500 
L 697 3744 
Q 697 4328 969 4595 
Q 1241 4863 1831 4863 
L 2375 4863 
z
" transform="scale(0.015625)"/>
       <path id="DejaVuSans-67" d="M 2906 1791 
Q 2906 2416 2648 2759 
Q 2391 3103 1925 3103 
Q 1463 3103 1205 2759 
Q 947 2416 947 1791 
Q 947 1169 1205 825 
Q 1463 481 1925 481 
Q 2391 481 2648 825 
Q 2906 1169 2906 1791 
z
M 3481 434 
Q 3481 -459 3084 -895 
Q 2688 -1331 1869 -1331 
Q 1566 -1331 1297 -1286 
Q 1028 -1241 775 -1147 
L 775 -588 
Q 1028 -725 1275 -790 
Q 1522 -856 1778 -856 
Q 2344 -856 2625 -561 
Q 2906 -266 2906 331 
L 2906 616 
Q 2728 306 2450 153 
Q 2172 0 1784 0 
Q 1141 0 747 490 
Q 353 981 353 1791 
Q 353 2603 747 3093 
Q 1141 3584 1784 3584 
Q 2172 3584 2450 3431 
Q 2728 3278 2906 2969 
L 2906 3500 
L 3481 3500 
L 3481 434 
z
" transform="scale(0.015625)"/>
      </defs>
      <use xlink:href="#DejaVuSans-47"/>
      <use xlink:href="#DejaVuSans-65" x="77.490234"/>
      <use xlink:href="#DejaVuSans-6e" x="139.013672"/>
      <use xlink:href="#DejaVuSans-6f" x="202.392578"/>
      <use xlink:href="#DejaVuSans-6d" x="263.574219"/>
      <use xlink:href="#DejaVuSans-65" x="360.986328"/>
      <use xlink:href="#DejaVuSans-43" x="422.509766"/>
      <use xlink:href="#DejaVuSans-6f" x="492.333984"/>
      <use xlink:href="#DejaVuSans-6e" x="553.515625"/>
      <use xlink:href="#DejaVuSans-66" x="616.894531"/>
      <use xlink:href="#DejaVuSans-69" x="652.099609"/>
      <use xlink:href="#DejaVuSans-67" x="679.882812"/>
     </g>
    </g>
    <g id="line2d_17">
     <path d="M 347.35 182.399219 
L 358.35 182.399219 
L 369.35 182.399219 
" style="fill: none; stroke: #4c72b0; stroke-width: 1.5; stroke-linecap: round"/>
    </g>
    <g id="text_17">
     <!-- Control -->
     <g style="fill: #262626" transform="translate(378.15 186.249219)scale(0.11 -0.11)">
      <defs>
       <path id="DejaVuSans-6c" d="M 603 4863 
L 1178 4863 
L 1178 0 
L 603 0 
L 603 4863 
z
" transform="scale(0.015625)"/>
      </defs>
      <use xlink:href="#DejaVuSans-43"/>
      <use xlink:href="#DejaVuSans-6f" x="69.824219"/>
      <use xlink:href="#DejaVuSans-6e" x="131.005859"/>
      <use xlink:href="#DejaVuSans-74" x="194.384766"/>
      <use xlink:href="#DejaVuSans-72" x="233.59375"/>
      <use xlink:href="#DejaVuSans-6f" x="272.457031"/>
      <use xlink:href="#DejaVuSans-6c" x="333.638672"/>
     </g>
    </g>
    <g id="line2d_18">
     <path d="M 347.35 198.545156 
L 358.35 198.545156 
L 369.35 198.545156 
" style="fill: none; stroke: #dd8452; stroke-width: 1.5; stroke-linecap: round"/>
    </g>
    <g id="text_18">
     <!-- No Vector x Global Only -->
     <g style="fill: #262626" transform="translate(378.15 202.395156)scale(0.11 -0.11)">
      <defs>
       <path id="DejaVuSans-4e" d="M 628 4666 
L 1478 4666 
L 3547 763 
L 3547 4666 
L 4159 4666 
L 4159 0 
L 3309 0 
L 1241 3903 
L 1241 0 
L 628 0 
L 628 4666 
z
" transform="scale(0.015625)"/>
       <path id="DejaVuSans-56" d="M 1831 0 
L 50 4666 
L 709 4666 
L 2188 738 
L 3669 4666 
L 4325 4666 
L 2547 0 
L 1831 0 
z
" transform="scale(0.015625)"/>
       <path id="DejaVuSans-63" d="M 3122 3366 
L 3122 2828 
Q 2878 2963 2633 3030 
Q 2388 3097 2138 3097 
Q 1578 3097 1268 2742 
Q 959 2388 959 1747 
Q 959 1106 1268 751 
Q 1578 397 2138 397 
Q 2388 397 2633 464 
Q 2878 531 3122 666 
L 3122 134 
Q 2881 22 2623 -34 
Q 2366 -91 2075 -91 
Q 1284 -91 818 406 
Q 353 903 353 1747 
Q 353 2603 823 3093 
Q 1294 3584 2113 3584 
Q 2378 3584 2631 3529 
Q 2884 3475 3122 3366 
z
" transform="scale(0.015625)"/>
       <path id="DejaVuSans-78" d="M 3513 3500 
L 2247 1797 
L 3578 0 
L 2900 0 
L 1881 1375 
L 863 0 
L 184 0 
L 1544 1831 
L 300 3500 
L 978 3500 
L 1906 2253 
L 2834 3500 
L 3513 3500 
z
" transform="scale(0.015625)"/>
       <path id="DejaVuSans-62" d="M 3116 1747 
Q 3116 2381 2855 2742 
Q 2594 3103 2138 3103 
Q 1681 3103 1420 2742 
Q 1159 2381 1159 1747 
Q 1159 1113 1420 752 
Q 1681 391 2138 391 
Q 2594 391 2855 752 
Q 3116 1113 3116 1747 
z
M 1159 2969 
Q 1341 3281 1617 3432 
Q 1894 3584 2278 3584 
Q 2916 3584 3314 3078 
Q 3713 2572 3713 1747 
Q 3713 922 3314 415 
Q 2916 -91 2278 -91 
Q 1894 -91 1617 61 
Q 1341 213 1159 525 
L 1159 0 
L 581 0 
L 581 4863 
L 1159 4863 
L 1159 2969 
z
" transform="scale(0.015625)"/>
       <path id="DejaVuSans-4f" d="M 2522 4238 
Q 1834 4238 1429 3725 
Q 1025 3213 1025 2328 
Q 1025 1447 1429 934 
Q 1834 422 2522 422 
Q 3209 422 3611 934 
Q 4013 1447 4013 2328 
Q 4013 3213 3611 3725 
Q 3209 4238 2522 4238 
z
M 2522 4750 
Q 3503 4750 4090 4092 
Q 4678 3434 4678 2328 
Q 4678 1225 4090 567 
Q 3503 -91 2522 -91 
Q 1538 -91 948 565 
Q 359 1222 359 2328 
Q 359 3434 948 4092 
Q 1538 4750 2522 4750 
z
" transform="scale(0.015625)"/>
      </defs>
      <use xlink:href="#DejaVuSans-4e"/>
      <use xlink:href="#DejaVuSans-6f" x="74.804688"/>
      <use xlink:href="#DejaVuSans-20" x="135.986328"/>
      <use xlink:href="#DejaVuSans-56" x="167.773438"/>
      <use xlink:href="#DejaVuSans-65" x="228.431641"/>
      <use xlink:href="#DejaVuSans-63" x="289.955078"/>
      <use xlink:href="#DejaVuSans-74" x="344.935547"/>
      <use xlink:href="#DejaVuSans-6f" x="384.144531"/>
      <use xlink:href="#DejaVuSans-72" x="445.326172"/>
      <use xlink:href="#DejaVuSans-20" x="486.439453"/>
      <use xlink:href="#DejaVuSans-78" x="518.226562"/>
      <use xlink:href="#DejaVuSans-20" x="577.40625"/>
      <use xlink:href="#DejaVuSans-47" x="609.193359"/>
      <use xlink:href="#DejaVuSans-6c" x="686.683594"/>
      <use xlink:href="#DejaVuSans-6f" x="714.466797"/>
      <use xlink:href="#DejaVuSans-62" x="775.648438"/>
      <use xlink:href="#DejaVuSans-61" x="839.125"/>
      <use xlink:href="#DejaVuSans-6c" x="900.404297"/>
      <use xlink:href="#DejaVuSans-20" x="928.1875"/>
      <use xlink:href="#DejaVuSans-4f" x="959.974609"/>
      <use xlink:href="#DejaVuSans-6e" x="1038.685547"/>
      <use xlink:href="#DejaVuSans-6c" x="1102.064453"/>
      <use xlink:href="#DejaVuSans-79" x="1129.847656"/>
     </g>
    </g>
   </g>
  </g>
  <g id="axes_2">
   <g id="patch_7">
    <path d="M 573.89 309.78 
L 851.04 309.78 
L 851.04 55.68 
L 573.89 55.68 
z
" style="fill: #eaeaf2"/>
   </g>
   <g id="matplotlib.axis_3">
    <g id="xtick_6"/>
    <g id="xtick_7"/>
    <g id="text_19">
     <!-- GenomeConfig -->
     <g style="fill: #262626" transform="translate(667.8625 332.398125)scale(0.12 -0.12)">
      <use xlink:href="#DejaVuSans-47"/>
      <use xlink:href="#DejaVuSans-65" x="77.490234"/>
      <use xlink:href="#DejaVuSans-6e" x="139.013672"/>
      <use xlink:href="#DejaVuSans-6f" x="202.392578"/>
      <use xlink:href="#DejaVuSans-6d" x="263.574219"/>
      <use xlink:href="#DejaVuSans-65" x="360.986328"/>
      <use xlink:href="#DejaVuSans-43" x="422.509766"/>
      <use xlink:href="#DejaVuSans-6f" x="492.333984"/>
      <use xlink:href="#DejaVuSans-6e" x="553.515625"/>
      <use xlink:href="#DejaVuSans-66" x="616.894531"/>
      <use xlink:href="#DejaVuSans-69" x="652.099609"/>
      <use xlink:href="#DejaVuSans-67" x="679.882812"/>
     </g>
    </g>
   </g>
   <g id="matplotlib.axis_4">
    <g id="ytick_8">
     <g id="line2d_19">
      <path d="M 573.89 298.23 
L 851.04 298.23 
" clip-path="url(#p5af45165d8)" style="fill: none; stroke: #ffffff; stroke-linecap: round"/>
     </g>
     <g id="text_20">
      <!-- 0 -->
      <g style="fill: #262626" transform="translate(557.39125 302.409141)scale(0.11 -0.11)">
       <use xlink:href="#DejaVuSans-30"/>
      </g>
     </g>
    </g>
    <g id="ytick_9">
     <g id="line2d_20">
      <path d="M 573.89 262.908899 
L 851.04 262.908899 
" clip-path="url(#p5af45165d8)" style="fill: none; stroke: #ffffff; stroke-linecap: round"/>
     </g>
     <g id="text_21">
      <!-- 50 -->
      <g style="fill: #262626" transform="translate(550.3925 267.08804)scale(0.11 -0.11)">
       <use xlink:href="#DejaVuSans-35"/>
       <use xlink:href="#DejaVuSans-30" x="63.623047"/>
      </g>
     </g>
    </g>
    <g id="ytick_10">
     <g id="line2d_21">
      <path d="M 573.89 227.587798 
L 851.04 227.587798 
" clip-path="url(#p5af45165d8)" style="fill: none; stroke: #ffffff; stroke-linecap: round"/>
     </g>
     <g id="text_22">
      <!-- 100 -->
      <g style="fill: #262626" transform="translate(543.39375 231.766939)scale(0.11 -0.11)">
       <use xlink:href="#DejaVuSans-31"/>
       <use xlink:href="#DejaVuSans-30" x="63.623047"/>
       <use xlink:href="#DejaVuSans-30" x="127.246094"/>
      </g>
     </g>
    </g>
    <g id="ytick_11">
     <g id="line2d_22">
      <path d="M 573.89 192.266697 
L 851.04 192.266697 
" clip-path="url(#p5af45165d8)" style="fill: none; stroke: #ffffff; stroke-linecap: round"/>
     </g>
     <g id="text_23">
      <!-- 150 -->
      <g style="fill: #262626" transform="translate(543.39375 196.445838)scale(0.11 -0.11)">
       <use xlink:href="#DejaVuSans-31"/>
       <use xlink:href="#DejaVuSans-35" x="63.623047"/>
       <use xlink:href="#DejaVuSans-30" x="127.246094"/>
      </g>
     </g>
    </g>
    <g id="ytick_12">
     <g id="line2d_23">
      <path d="M 573.89 156.945596 
L 851.04 156.945596 
" clip-path="url(#p5af45165d8)" style="fill: none; stroke: #ffffff; stroke-linecap: round"/>
     </g>
     <g id="text_24">
      <!-- 200 -->
      <g style="fill: #262626" transform="translate(543.39375 161.124737)scale(0.11 -0.11)">
       <use xlink:href="#DejaVuSans-32"/>
       <use xlink:href="#DejaVuSans-30" x="63.623047"/>
       <use xlink:href="#DejaVuSans-30" x="127.246094"/>
      </g>
     </g>
    </g>
    <g id="ytick_13">
     <g id="line2d_24">
      <path d="M 573.89 121.624495 
L 851.04 121.624495 
" clip-path="url(#p5af45165d8)" style="fill: none; stroke: #ffffff; stroke-linecap: round"/>
     </g>
     <g id="text_25">
      <!-- 250 -->
      <g style="fill: #262626" transform="translate(543.39375 125.803636)scale(0.11 -0.11)">
       <use xlink:href="#DejaVuSans-32"/>
       <use xlink:href="#DejaVuSans-35" x="63.623047"/>
       <use xlink:href="#DejaVuSans-30" x="127.246094"/>
      </g>
     </g>
    </g>
    <g id="ytick_14">
     <g id="line2d_25">
      <path d="M 573.89 86.303394 
L 851.04 86.303394 
" clip-path="url(#p5af45165d8)" style="fill: none; stroke: #ffffff; stroke-linecap: round"/>
     </g>
     <g id="text_26">
      <!-- 300 -->
      <g style="fill: #262626" transform="translate(543.39375 90.482535)scale(0.11 -0.11)">
       <use xlink:href="#DejaVuSans-33"/>
       <use xlink:href="#DejaVuSans-30" x="63.623047"/>
       <use xlink:href="#DejaVuSans-30" x="127.246094"/>
      </g>
     </g>
    </g>
    <g id="text_27">
     <!-- Fitness -->
     <g style="fill: #262626" transform="translate(536.898125 203.510625)rotate(-90)scale(0.12 -0.12)">
      <use xlink:href="#DejaVuSans-46"/>
      <use xlink:href="#DejaVuSans-69" x="50.269531"/>
      <use xlink:href="#DejaVuSans-74" x="78.052734"/>
      <use xlink:href="#DejaVuSans-6e" x="117.261719"/>
      <use xlink:href="#DejaVuSans-65" x="180.640625"/>
      <use xlink:href="#DejaVuSans-73" x="242.164062"/>
      <use xlink:href="#DejaVuSans-73" x="294.263672"/>
     </g>
    </g>
   </g>
   <g id="patch_8">
    <path d="M 587.7475 268.913486 
L 698.6075 268.913486 
L 698.6075 268.560275 
L 587.7475 268.560275 
L 587.7475 268.913486 
z
" clip-path="url(#p5af45165d8)" style="fill: #5875a4; stroke: #4c4c4c; stroke-width: 1.5; stroke-linejoin: miter"/>
   </g>
   <g id="patch_9">
    <path d="M 726.3225 268.560275 
L 837.1825 268.560275 
L 837.1825 92.661193 
L 726.3225 92.661193 
L 726.3225 268.560275 
z
" clip-path="url(#p5af45165d8)" style="fill: #cc8963; stroke: #4c4c4c; stroke-width: 1.5; stroke-linejoin: miter"/>
   </g>
   <g id="line2d_26">
    <path d="M 643.1775 268.913486 
L 643.1775 268.913486 
" clip-path="url(#p5af45165d8)" style="fill: none; stroke: #4c4c4c; stroke-width: 1.5; stroke-linecap: round"/>
   </g>
   <g id="line2d_27">
    <path d="M 643.1775 268.560275 
L 643.1775 268.560275 
" clip-path="url(#p5af45165d8)" style="fill: none; stroke: #4c4c4c; stroke-width: 1.5; stroke-linecap: round"/>
   </g>
   <g id="line2d_28">
    <path d="M 615.4625 268.913486 
L 670.8925 268.913486 
" clip-path="url(#p5af45165d8)" style="fill: none; stroke: #4c4c4c; stroke-width: 1.5; stroke-linecap: round"/>
   </g>
   <g id="line2d_29">
    <path d="M 615.4625 268.560275 
L 670.8925 268.560275 
" clip-path="url(#p5af45165d8)" style="fill: none; stroke: #4c4c4c; stroke-width: 1.5; stroke-linecap: round"/>
   </g>
   <g id="line2d_30">
    <defs>
     <path id="maf768a46f3" d="M -0 3.535534 
L 2.12132 0 
L -0 -3.535534 
L -2.12132 -0 
z
" style="stroke: #4c4c4c; stroke-linejoin: miter"/>
    </defs>
    <g clip-path="url(#p5af45165d8)">
     <use xlink:href="#maf768a46f3" x="643.1775" y="269.619908" style="fill: #4c4c4c; stroke: #4c4c4c; stroke-linejoin: miter"/>
     <use xlink:href="#maf768a46f3" x="643.1775" y="267.853853" style="fill: #4c4c4c; stroke: #4c4c4c; stroke-linejoin: miter"/>
    </g>
   </g>
   <g id="line2d_31">
    <path d="M 781.7525 268.560275 
L 781.7525 268.560275 
" clip-path="url(#p5af45165d8)" style="fill: none; stroke: #4c4c4c; stroke-width: 1.5; stroke-linecap: round"/>
   </g>
   <g id="line2d_32">
    <path d="M 781.7525 92.661193 
L 781.7525 67.23 
" clip-path="url(#p5af45165d8)" style="fill: none; stroke: #4c4c4c; stroke-width: 1.5; stroke-linecap: round"/>
   </g>
   <g id="line2d_33">
    <path d="M 754.0375 268.560275 
L 809.4675 268.560275 
" clip-path="url(#p5af45165d8)" style="fill: none; stroke: #4c4c4c; stroke-width: 1.5; stroke-linecap: round"/>
   </g>
   <g id="line2d_34">
    <path d="M 754.0375 67.23 
L 809.4675 67.23 
" clip-path="url(#p5af45165d8)" style="fill: none; stroke: #4c4c4c; stroke-width: 1.5; stroke-linecap: round"/>
   </g>
   <g id="line2d_35"/>
   <g id="line2d_36">
    <path d="M 587.7475 268.560275 
L 698.6075 268.560275 
" clip-path="url(#p5af45165d8)" style="fill: none; stroke: #4c4c4c; stroke-width: 1.5; stroke-linecap: round"/>
   </g>
   <g id="line2d_37">
    <path d="M 726.3225 268.207064 
L 837.1825 268.207064 
" clip-path="url(#p5af45165d8)" style="fill: none; stroke: #4c4c4c; stroke-width: 1.5; stroke-linecap: round"/>
   </g>
   <g id="patch_10">
    <path d="M 573.89 309.78 
L 573.89 55.68 
" style="fill: none; stroke: #ffffff; stroke-width: 1.25; stroke-linejoin: miter; stroke-linecap: square"/>
   </g>
   <g id="patch_11">
    <path d="M 851.04 309.78 
L 851.04 55.68 
" style="fill: none; stroke: #ffffff; stroke-width: 1.25; stroke-linejoin: miter; stroke-linecap: square"/>
   </g>
   <g id="patch_12">
    <path d="M 573.89 309.78 
L 851.04 309.78 
" style="fill: none; stroke: #ffffff; stroke-width: 1.25; stroke-linejoin: miter; stroke-linecap: square"/>
   </g>
   <g id="patch_13">
    <path d="M 573.89 55.68 
L 851.04 55.68 
" style="fill: none; stroke: #ffffff; stroke-width: 1.25; stroke-linejoin: miter; stroke-linecap: square"/>
   </g>
   <g id="text_28">
    <!-- Best Performance Across Trials -->
    <g style="fill: #262626" transform="translate(620.504687 49.68)scale(0.12 -0.12)">
     <defs>
      <path id="DejaVuSans-50" d="M 1259 4147 
L 1259 2394 
L 2053 2394 
Q 2494 2394 2734 2622 
Q 2975 2850 2975 3272 
Q 2975 3691 2734 3919 
Q 2494 4147 2053 4147 
L 1259 4147 
z
M 628 4666 
L 2053 4666 
Q 2838 4666 3239 4311 
Q 3641 3956 3641 3272 
Q 3641 2581 3239 2228 
Q 2838 1875 2053 1875 
L 1259 1875 
L 1259 0 
L 628 0 
L 628 4666 
z
" transform="scale(0.015625)"/>
      <path id="DejaVuSans-41" d="M 2188 4044 
L 1331 1722 
L 3047 1722 
L 2188 4044 
z
M 1831 4666 
L 2547 4666 
L 4325 0 
L 3669 0 
L 3244 1197 
L 1141 1197 
L 716 0 
L 50 0 
L 1831 4666 
z
" transform="scale(0.015625)"/>
      <path id="DejaVuSans-54" d="M -19 4666 
L 3928 4666 
L 3928 4134 
L 2272 4134 
L 2272 0 
L 1638 0 
L 1638 4134 
L -19 4134 
L -19 4666 
z
" transform="scale(0.015625)"/>
     </defs>
     <use xlink:href="#DejaVuSans-42"/>
     <use xlink:href="#DejaVuSans-65" x="68.603516"/>
     <use xlink:href="#DejaVuSans-73" x="130.126953"/>
     <use xlink:href="#DejaVuSans-74" x="182.226562"/>
     <use xlink:href="#DejaVuSans-20" x="221.435547"/>
     <use xlink:href="#DejaVuSans-50" x="253.222656"/>
     <use xlink:href="#DejaVuSans-65" x="309.900391"/>
     <use xlink:href="#DejaVuSans-72" x="371.423828"/>
     <use xlink:href="#DejaVuSans-66" x="412.537109"/>
     <use xlink:href="#DejaVuSans-6f" x="447.742188"/>
     <use xlink:href="#DejaVuSans-72" x="508.923828"/>
     <use xlink:href="#DejaVuSans-6d" x="548.287109"/>
     <use xlink:href="#DejaVuSans-61" x="645.699219"/>
     <use xlink:href="#DejaVuSans-6e" x="706.978516"/>
     <use xlink:href="#DejaVuSans-63" x="770.357422"/>
     <use xlink:href="#DejaVuSans-65" x="825.337891"/>
     <use xlink:href="#DejaVuSans-20" x="886.861328"/>
     <use xlink:href="#DejaVuSans-41" x="918.648438"/>
     <use xlink:href="#DejaVuSans-63" x="985.306641"/>
     <use xlink:href="#DejaVuSans-72" x="1040.287109"/>
     <use xlink:href="#DejaVuSans-6f" x="1079.150391"/>
     <use xlink:href="#DejaVuSans-73" x="1140.332031"/>
     <use xlink:href="#DejaVuSans-73" x="1192.431641"/>
     <use xlink:href="#DejaVuSans-20" x="1244.53125"/>
     <use xlink:href="#DejaVuSans-54" x="1276.318359"/>
     <use xlink:href="#DejaVuSans-72" x="1322.652344"/>
     <use xlink:href="#DejaVuSans-69" x="1363.765625"/>
     <use xlink:href="#DejaVuSans-61" x="1391.548828"/>
     <use xlink:href="#DejaVuSans-6c" x="1452.828125"/>
     <use xlink:href="#DejaVuSans-73" x="1480.611328"/>
    </g>
   </g>
  </g>
  <g id="text_29">
   <!-- Compare Default To Evolved Rates For Symmetry -->
   <g style="fill: #262626" transform="translate(254.412 18.14175)scale(0.144 -0.144)">
    <defs>
     <path id="DejaVuSans-70" d="M 1159 525 
L 1159 -1331 
L 581 -1331 
L 581 3500 
L 1159 3500 
L 1159 2969 
Q 1341 3281 1617 3432 
Q 1894 3584 2278 3584 
Q 2916 3584 3314 3078 
Q 3713 2572 3713 1747 
Q 3713 922 3314 415 
Q 2916 -91 2278 -91 
Q 1894 -91 1617 61 
Q 1341 213 1159 525 
z
M 3116 1747 
Q 3116 2381 2855 2742 
Q 2594 3103 2138 3103 
Q 1681 3103 1420 2742 
Q 1159 2381 1159 1747 
Q 1159 1113 1420 752 
Q 1681 391 2138 391 
Q 2594 391 2855 752 
Q 3116 1113 3116 1747 
z
" transform="scale(0.015625)"/>
     <path id="DejaVuSans-44" d="M 1259 4147 
L 1259 519 
L 2022 519 
Q 2988 519 3436 956 
Q 3884 1394 3884 2338 
Q 3884 3275 3436 3711 
Q 2988 4147 2022 4147 
L 1259 4147 
z
M 628 4666 
L 1925 4666 
Q 3281 4666 3915 4102 
Q 4550 3538 4550 2338 
Q 4550 1131 3912 565 
Q 3275 0 1925 0 
L 628 0 
L 628 4666 
z
" transform="scale(0.015625)"/>
     <path id="DejaVuSans-75" d="M 544 1381 
L 544 3500 
L 1119 3500 
L 1119 1403 
Q 1119 906 1312 657 
Q 1506 409 1894 409 
Q 2359 409 2629 706 
Q 2900 1003 2900 1516 
L 2900 3500 
L 3475 3500 
L 3475 0 
L 2900 0 
L 2900 538 
Q 2691 219 2414 64 
Q 2138 -91 1772 -91 
Q 1169 -91 856 284 
Q 544 659 544 1381 
z
M 1991 3584 
L 1991 3584 
z
" transform="scale(0.015625)"/>
     <path id="DejaVuSans-45" d="M 628 4666 
L 3578 4666 
L 3578 4134 
L 1259 4134 
L 1259 2753 
L 3481 2753 
L 3481 2222 
L 1259 2222 
L 1259 531 
L 3634 531 
L 3634 0 
L 628 0 
L 628 4666 
z
" transform="scale(0.015625)"/>
     <path id="DejaVuSans-76" d="M 191 3500 
L 800 3500 
L 1894 563 
L 2988 3500 
L 3597 3500 
L 2284 0 
L 1503 0 
L 191 3500 
z
" transform="scale(0.015625)"/>
     <path id="DejaVuSans-52" d="M 2841 2188 
Q 3044 2119 3236 1894 
Q 3428 1669 3622 1275 
L 4263 0 
L 3584 0 
L 2988 1197 
Q 2756 1666 2539 1819 
Q 2322 1972 1947 1972 
L 1259 1972 
L 1259 0 
L 628 0 
L 628 4666 
L 2053 4666 
Q 2853 4666 3247 4331 
Q 3641 3997 3641 3322 
Q 3641 2881 3436 2590 
Q 3231 2300 2841 2188 
z
M 1259 4147 
L 1259 2491 
L 2053 2491 
Q 2509 2491 2742 2702 
Q 2975 2913 2975 3322 
Q 2975 3731 2742 3939 
Q 2509 4147 2053 4147 
L 1259 4147 
z
" transform="scale(0.015625)"/>
     <path id="DejaVuSans-53" d="M 3425 4513 
L 3425 3897 
Q 3066 4069 2747 4153 
Q 2428 4238 2131 4238 
Q 1616 4238 1336 4038 
Q 1056 3838 1056 3469 
Q 1056 3159 1242 3001 
Q 1428 2844 1947 2747 
L 2328 2669 
Q 3034 2534 3370 2195 
Q 3706 1856 3706 1288 
Q 3706 609 3251 259 
Q 2797 -91 1919 -91 
Q 1588 -91 1214 -16 
Q 841 59 441 206 
L 441 856 
Q 825 641 1194 531 
Q 1563 422 1919 422 
Q 2459 422 2753 634 
Q 3047 847 3047 1241 
Q 3047 1584 2836 1778 
Q 2625 1972 2144 2069 
L 1759 2144 
Q 1053 2284 737 2584 
Q 422 2884 422 3419 
Q 422 4038 858 4394 
Q 1294 4750 2059 4750 
Q 2388 4750 2728 4690 
Q 3069 4631 3425 4513 
z
" transform="scale(0.015625)"/>
    </defs>
    <use xlink:href="#DejaVuSans-43"/>
    <use xlink:href="#DejaVuSans-6f" x="69.824219"/>
    <use xlink:href="#DejaVuSans-6d" x="131.005859"/>
    <use xlink:href="#DejaVuSans-70" x="228.417969"/>
    <use xlink:href="#DejaVuSans-61" x="291.894531"/>
    <use xlink:href="#DejaVuSans-72" x="353.173828"/>
    <use xlink:href="#DejaVuSans-65" x="392.037109"/>
    <use xlink:href="#DejaVuSans-20" x="453.560547"/>
    <use xlink:href="#DejaVuSans-44" x="485.347656"/>
    <use xlink:href="#DejaVuSans-65" x="562.349609"/>
    <use xlink:href="#DejaVuSans-66" x="623.873047"/>
    <use xlink:href="#DejaVuSans-61" x="659.078125"/>
    <use xlink:href="#DejaVuSans-75" x="720.357422"/>
    <use xlink:href="#DejaVuSans-6c" x="783.736328"/>
    <use xlink:href="#DejaVuSans-74" x="811.519531"/>
    <use xlink:href="#DejaVuSans-20" x="850.728516"/>
    <use xlink:href="#DejaVuSans-54" x="882.515625"/>
    <use xlink:href="#DejaVuSans-6f" x="926.599609"/>
    <use xlink:href="#DejaVuSans-20" x="987.78125"/>
    <use xlink:href="#DejaVuSans-45" x="1019.568359"/>
    <use xlink:href="#DejaVuSans-76" x="1082.751953"/>
    <use xlink:href="#DejaVuSans-6f" x="1141.931641"/>
    <use xlink:href="#DejaVuSans-6c" x="1203.113281"/>
    <use xlink:href="#DejaVuSans-76" x="1230.896484"/>
    <use xlink:href="#DejaVuSans-65" x="1290.076172"/>
    <use xlink:href="#DejaVuSans-64" x="1351.599609"/>
    <use xlink:href="#DejaVuSans-20" x="1415.076172"/>
    <use xlink:href="#DejaVuSans-52" x="1446.863281"/>
    <use xlink:href="#DejaVuSans-61" x="1514.095703"/>
    <use xlink:href="#DejaVuSans-74" x="1575.375"/>
    <use xlink:href="#DejaVuSans-65" x="1614.583984"/>
    <use xlink:href="#DejaVuSans-73" x="1676.107422"/>
    <use xlink:href="#DejaVuSans-20" x="1728.207031"/>
    <use xlink:href="#DejaVuSans-46" x="1759.994141"/>
    <use xlink:href="#DejaVuSans-6f" x="1813.888672"/>
    <use xlink:href="#DejaVuSans-72" x="1875.070312"/>
    <use xlink:href="#DejaVuSans-20" x="1916.183594"/>
    <use xlink:href="#DejaVuSans-53" x="1947.970703"/>
    <use xlink:href="#DejaVuSans-79" x="2011.447266"/>
    <use xlink:href="#DejaVuSans-6d" x="2070.626953"/>
    <use xlink:href="#DejaVuSans-6d" x="2168.039062"/>
    <use xlink:href="#DejaVuSans-65" x="2265.451172"/>
    <use xlink:href="#DejaVuSans-74" x="2326.974609"/>
    <use xlink:href="#DejaVuSans-72" x="2366.183594"/>
    <use xlink:href="#DejaVuSans-79" x="2407.296875"/>
   </g>
  </g>
 </g>
 <defs>
  <clipPath id="pa94654023f">
   <rect x="60.3" y="55.68" width="277.15" height="254.1"/>
  </clipPath>
  <clipPath id="p5af45165d8">
   <rect x="573.89" y="55.68" width="277.15" height="254.1"/>
  </clipPath>
 </defs>
</svg>
