<?xml version="1.0" encoding="utf-8" standalone="no"?>
<!DOCTYPE svg PUBLIC "-//W3C//DTD SVG 1.1//EN"
  "http://www.w3.org/Graphics/SVG/1.1/DTD/svg11.dtd">
<svg xmlns:xlink="http://www.w3.org/1999/xlink" width="393.52115pt" height="362.097812pt" viewBox="0 0 393.52115 362.097812" xmlns="http://www.w3.org/2000/svg" version="1.1">
 <metadata>
  <rdf:RDF xmlns:dc="http://purl.org/dc/elements/1.1/" xmlns:cc="http://creativecommons.org/ns#" xmlns:rdf="http://www.w3.org/1999/02/22-rdf-syntax-ns#">
   <cc:Work>
    <dc:type rdf:resource="http://purl.org/dc/dcmitype/StillImage"/>
    <dc:date>2022-11-20T08:29:12.929545</dc:date>
    <dc:format>image/svg+xml</dc:format>
    <dc:creator>
     <cc:Agent>
      <dc:title>Matplotlib v3.5.2, https://matplotlib.org/</dc:title>
     </cc:Agent>
    </dc:creator>
   </cc:Work>
  </rdf:RDF>
 </metadata>
 <defs>
  <style type="text/css">*{stroke-linejoin: round; stroke-linecap: butt}</style>
 </defs>
 <g id="figure_1">
  <g id="patch_1">
   <path d="M 0 362.097812 
L 393.52115 362.097812 
L 393.52115 0 
L 0 0 
z
" style="fill: #ffffff"/>
  </g>
  <g id="axes_1">
   <g id="patch_2">
    <path d="M 53.31 319.138125 
L 341.13495 319.138125 
L 341.13495 22.318125 
L 53.31 22.318125 
z
" style="fill: #eaeaf2"/>
   </g>
   <g id="matplotlib.axis_1">
    <g id="xtick_1">
     <g id="line2d_1">
      <path d="M 66.392952 319.138125 
L 66.392952 22.318125 
" clip-path="url(#p119838ea01)" style="fill: none; stroke: #ffffff; stroke-linecap: round"/>
     </g>
     <g id="text_1">
      <!-- 0 -->
      <g style="fill: #262626" transform="translate(62.893577 336.996406)scale(0.11 -0.11)">
       <defs>
        <path id="DejaVuSans-30" d="M 2034 4250 
Q 1547 4250 1301 3770 
Q 1056 3291 1056 2328 
Q 1056 1369 1301 889 
Q 1547 409 2034 409 
Q 2525 409 2770 889 
Q 3016 1369 3016 2328 
Q 3016 3291 2770 3770 
Q 2525 4250 2034 4250 
z
M 2034 4750 
Q 2819 4750 3233 4129 
Q 3647 3509 3647 2328 
Q 3647 1150 3233 529 
Q 2819 -91 2034 -91 
Q 1250 -91 836 529 
Q 422 1150 422 2328 
Q 422 3509 836 4129 
Q 1250 4750 2034 4750 
z
" transform="scale(0.015625)"/>
       </defs>
       <use xlink:href="#DejaVuSans-30"/>
      </g>
     </g>
    </g>
    <g id="xtick_2">
     <g id="line2d_2">
      <path d="M 132.136431 319.138125 
L 132.136431 22.318125 
" clip-path="url(#p119838ea01)" style="fill: none; stroke: #ffffff; stroke-linecap: round"/>
     </g>
     <g id="text_2">
      <!-- 50 -->
      <g style="fill: #262626" transform="translate(125.137681 336.996406)scale(0.11 -0.11)">
       <defs>
        <path id="DejaVuSans-35" d="M 691 4666 
L 3169 4666 
L 3169 4134 
L 1269 4134 
L 1269 2991 
Q 1406 3038 1543 3061 
Q 1681 3084 1819 3084 
Q 2600 3084 3056 2656 
Q 3513 2228 3513 1497 
Q 3513 744 3044 326 
Q 2575 -91 1722 -91 
Q 1428 -91 1123 -41 
Q 819 9 494 109 
L 494 744 
Q 775 591 1075 516 
Q 1375 441 1709 441 
Q 2250 441 2565 725 
Q 2881 1009 2881 1497 
Q 2881 1984 2565 2268 
Q 2250 2553 1709 2553 
Q 1456 2553 1204 2497 
Q 953 2441 691 2322 
L 691 4666 
z
" transform="scale(0.015625)"/>
       </defs>
       <use xlink:href="#DejaVuSans-35"/>
       <use xlink:href="#DejaVuSans-30" x="63.623047"/>
      </g>
     </g>
    </g>
    <g id="xtick_3">
     <g id="line2d_3">
      <path d="M 197.87991 319.138125 
L 197.87991 22.318125 
" clip-path="url(#p119838ea01)" style="fill: none; stroke: #ffffff; stroke-linecap: round"/>
     </g>
     <g id="text_3">
      <!-- 100 -->
      <g style="fill: #262626" transform="translate(187.381785 336.996406)scale(0.11 -0.11)">
       <defs>
        <path id="DejaVuSans-31" d="M 794 531 
L 1825 531 
L 1825 4091 
L 703 3866 
L 703 4441 
L 1819 4666 
L 2450 4666 
L 2450 531 
L 3481 531 
L 3481 0 
L 794 0 
L 794 531 
z
" transform="scale(0.015625)"/>
       </defs>
       <use xlink:href="#DejaVuSans-31"/>
       <use xlink:href="#DejaVuSans-30" x="63.623047"/>
       <use xlink:href="#DejaVuSans-30" x="127.246094"/>
      </g>
     </g>
    </g>
    <g id="xtick_4">
     <g id="line2d_4">
      <path d="M 263.623389 319.138125 
L 263.623389 22.318125 
" clip-path="url(#p119838ea01)" style="fill: none; stroke: #ffffff; stroke-linecap: round"/>
     </g>
     <g id="text_4">
      <!-- 150 -->
      <g style="fill: #262626" transform="translate(253.125264 336.996406)scale(0.11 -0.11)">
       <use xlink:href="#DejaVuSans-31"/>
       <use xlink:href="#DejaVuSans-35" x="63.623047"/>
       <use xlink:href="#DejaVuSans-30" x="127.246094"/>
      </g>
     </g>
    </g>
    <g id="xtick_5">
     <g id="line2d_5">
      <path d="M 329.366867 319.138125 
L 329.366867 22.318125 
" clip-path="url(#p119838ea01)" style="fill: none; stroke: #ffffff; stroke-linecap: round"/>
     </g>
     <g id="text_5">
      <!-- 200 -->
      <g style="fill: #262626" transform="translate(318.868742 336.996406)scale(0.11 -0.11)">
       <defs>
        <path id="DejaVuSans-32" d="M 1228 531 
L 3431 531 
L 3431 0 
L 469 0 
L 469 531 
Q 828 903 1448 1529 
Q 2069 2156 2228 2338 
Q 2531 2678 2651 2914 
Q 2772 3150 2772 3378 
Q 2772 3750 2511 3984 
Q 2250 4219 1831 4219 
Q 1534 4219 1204 4116 
Q 875 4013 500 3803 
L 500 4441 
Q 881 4594 1212 4672 
Q 1544 4750 1819 4750 
Q 2544 4750 2975 4387 
Q 3406 4025 3406 3419 
Q 3406 3131 3298 2873 
Q 3191 2616 2906 2266 
Q 2828 2175 2409 1742 
Q 1991 1309 1228 531 
z
" transform="scale(0.015625)"/>
       </defs>
       <use xlink:href="#DejaVuSans-32"/>
       <use xlink:href="#DejaVuSans-30" x="63.623047"/>
       <use xlink:href="#DejaVuSans-30" x="127.246094"/>
      </g>
     </g>
    </g>
    <g id="text_6">
     <!-- Generation -->
     <g style="fill: #262626" transform="translate(163.750912 352.402187)scale(0.12 -0.12)">
      <defs>
       <path id="DejaVuSans-47" d="M 3809 666 
L 3809 1919 
L 2778 1919 
L 2778 2438 
L 4434 2438 
L 4434 434 
Q 4069 175 3628 42 
Q 3188 -91 2688 -91 
Q 1594 -91 976 548 
Q 359 1188 359 2328 
Q 359 3472 976 4111 
Q 1594 4750 2688 4750 
Q 3144 4750 3555 4637 
Q 3966 4525 4313 4306 
L 4313 3634 
Q 3963 3931 3569 4081 
Q 3175 4231 2741 4231 
Q 1884 4231 1454 3753 
Q 1025 3275 1025 2328 
Q 1025 1384 1454 906 
Q 1884 428 2741 428 
Q 3075 428 3337 486 
Q 3600 544 3809 666 
z
" transform="scale(0.015625)"/>
       <path id="DejaVuSans-65" d="M 3597 1894 
L 3597 1613 
L 953 1613 
Q 991 1019 1311 708 
Q 1631 397 2203 397 
Q 2534 397 2845 478 
Q 3156 559 3463 722 
L 3463 178 
Q 3153 47 2828 -22 
Q 2503 -91 2169 -91 
Q 1331 -91 842 396 
Q 353 884 353 1716 
Q 353 2575 817 3079 
Q 1281 3584 2069 3584 
Q 2775 3584 3186 3129 
Q 3597 2675 3597 1894 
z
M 3022 2063 
Q 3016 2534 2758 2815 
Q 2500 3097 2075 3097 
Q 1594 3097 1305 2825 
Q 1016 2553 972 2059 
L 3022 2063 
z
" transform="scale(0.015625)"/>
       <path id="DejaVuSans-6e" d="M 3513 2113 
L 3513 0 
L 2938 0 
L 2938 2094 
Q 2938 2591 2744 2837 
Q 2550 3084 2163 3084 
Q 1697 3084 1428 2787 
Q 1159 2491 1159 1978 
L 1159 0 
L 581 0 
L 581 3500 
L 1159 3500 
L 1159 2956 
Q 1366 3272 1645 3428 
Q 1925 3584 2291 3584 
Q 2894 3584 3203 3211 
Q 3513 2838 3513 2113 
z
" transform="scale(0.015625)"/>
       <path id="DejaVuSans-72" d="M 2631 2963 
Q 2534 3019 2420 3045 
Q 2306 3072 2169 3072 
Q 1681 3072 1420 2755 
Q 1159 2438 1159 1844 
L 1159 0 
L 581 0 
L 581 3500 
L 1159 3500 
L 1159 2956 
Q 1341 3275 1631 3429 
Q 1922 3584 2338 3584 
Q 2397 3584 2469 3576 
Q 2541 3569 2628 3553 
L 2631 2963 
z
" transform="scale(0.015625)"/>
       <path id="DejaVuSans-61" d="M 2194 1759 
Q 1497 1759 1228 1600 
Q 959 1441 959 1056 
Q 959 750 1161 570 
Q 1363 391 1709 391 
Q 2188 391 2477 730 
Q 2766 1069 2766 1631 
L 2766 1759 
L 2194 1759 
z
M 3341 1997 
L 3341 0 
L 2766 0 
L 2766 531 
Q 2569 213 2275 61 
Q 1981 -91 1556 -91 
Q 1019 -91 701 211 
Q 384 513 384 1019 
Q 384 1609 779 1909 
Q 1175 2209 1959 2209 
L 2766 2209 
L 2766 2266 
Q 2766 2663 2505 2880 
Q 2244 3097 1772 3097 
Q 1472 3097 1187 3025 
Q 903 2953 641 2809 
L 641 3341 
Q 956 3463 1253 3523 
Q 1550 3584 1831 3584 
Q 2591 3584 2966 3190 
Q 3341 2797 3341 1997 
z
" transform="scale(0.015625)"/>
       <path id="DejaVuSans-74" d="M 1172 4494 
L 1172 3500 
L 2356 3500 
L 2356 3053 
L 1172 3053 
L 1172 1153 
Q 1172 725 1289 603 
Q 1406 481 1766 481 
L 2356 481 
L 2356 0 
L 1766 0 
Q 1100 0 847 248 
Q 594 497 594 1153 
L 594 3053 
L 172 3053 
L 172 3500 
L 594 3500 
L 594 4494 
L 1172 4494 
z
" transform="scale(0.015625)"/>
       <path id="DejaVuSans-69" d="M 603 3500 
L 1178 3500 
L 1178 0 
L 603 0 
L 603 3500 
z
M 603 4863 
L 1178 4863 
L 1178 4134 
L 603 4134 
L 603 4863 
z
" transform="scale(0.015625)"/>
       <path id="DejaVuSans-6f" d="M 1959 3097 
Q 1497 3097 1228 2736 
Q 959 2375 959 1747 
Q 959 1119 1226 758 
Q 1494 397 1959 397 
Q 2419 397 2687 759 
Q 2956 1122 2956 1747 
Q 2956 2369 2687 2733 
Q 2419 3097 1959 3097 
z
M 1959 3584 
Q 2709 3584 3137 3096 
Q 3566 2609 3566 1747 
Q 3566 888 3137 398 
Q 2709 -91 1959 -91 
Q 1206 -91 779 398 
Q 353 888 353 1747 
Q 353 2609 779 3096 
Q 1206 3584 1959 3584 
z
" transform="scale(0.015625)"/>
      </defs>
      <use xlink:href="#DejaVuSans-47"/>
      <use xlink:href="#DejaVuSans-65" x="77.490234"/>
      <use xlink:href="#DejaVuSans-6e" x="139.013672"/>
      <use xlink:href="#DejaVuSans-65" x="202.392578"/>
      <use xlink:href="#DejaVuSans-72" x="263.916016"/>
      <use xlink:href="#DejaVuSans-61" x="305.029297"/>
      <use xlink:href="#DejaVuSans-74" x="366.308594"/>
      <use xlink:href="#DejaVuSans-69" x="405.517578"/>
      <use xlink:href="#DejaVuSans-6f" x="433.300781"/>
      <use xlink:href="#DejaVuSans-6e" x="494.482422"/>
     </g>
    </g>
   </g>
   <g id="matplotlib.axis_2">
    <g id="ytick_1">
     <g id="line2d_6">
      <path d="M 53.31 310.056553 
L 341.13495 310.056553 
" clip-path="url(#p119838ea01)" style="fill: none; stroke: #ffffff; stroke-linecap: round"/>
     </g>
     <g id="text_7">
      <!-- 0 -->
      <g style="fill: #262626" transform="translate(36.81125 314.235694)scale(0.11 -0.11)">
       <use xlink:href="#DejaVuSans-30"/>
      </g>
     </g>
    </g>
    <g id="ytick_2">
     <g id="line2d_7">
      <path d="M 53.31 249.219011 
L 341.13495 249.219011 
" clip-path="url(#p119838ea01)" style="fill: none; stroke: #ffffff; stroke-linecap: round"/>
     </g>
     <g id="text_8">
      <!-- 100 -->
      <g style="fill: #262626" transform="translate(22.81375 253.398152)scale(0.11 -0.11)">
       <use xlink:href="#DejaVuSans-31"/>
       <use xlink:href="#DejaVuSans-30" x="63.623047"/>
       <use xlink:href="#DejaVuSans-30" x="127.246094"/>
      </g>
     </g>
    </g>
    <g id="ytick_3">
     <g id="line2d_8">
      <path d="M 53.31 188.381469 
L 341.13495 188.381469 
" clip-path="url(#p119838ea01)" style="fill: none; stroke: #ffffff; stroke-linecap: round"/>
     </g>
     <g id="text_9">
      <!-- 200 -->
      <g style="fill: #262626" transform="translate(22.81375 192.560609)scale(0.11 -0.11)">
       <use xlink:href="#DejaVuSans-32"/>
       <use xlink:href="#DejaVuSans-30" x="63.623047"/>
       <use xlink:href="#DejaVuSans-30" x="127.246094"/>
      </g>
     </g>
    </g>
    <g id="ytick_4">
     <g id="line2d_9">
      <path d="M 53.31 127.543926 
L 341.13495 127.543926 
" clip-path="url(#p119838ea01)" style="fill: none; stroke: #ffffff; stroke-linecap: round"/>
     </g>
     <g id="text_10">
      <!-- 300 -->
      <g style="fill: #262626" transform="translate(22.81375 131.723067)scale(0.11 -0.11)">
       <defs>
        <path id="DejaVuSans-33" d="M 2597 2516 
Q 3050 2419 3304 2112 
Q 3559 1806 3559 1356 
Q 3559 666 3084 287 
Q 2609 -91 1734 -91 
Q 1441 -91 1130 -33 
Q 819 25 488 141 
L 488 750 
Q 750 597 1062 519 
Q 1375 441 1716 441 
Q 2309 441 2620 675 
Q 2931 909 2931 1356 
Q 2931 1769 2642 2001 
Q 2353 2234 1838 2234 
L 1294 2234 
L 1294 2753 
L 1863 2753 
Q 2328 2753 2575 2939 
Q 2822 3125 2822 3475 
Q 2822 3834 2567 4026 
Q 2313 4219 1838 4219 
Q 1578 4219 1281 4162 
Q 984 4106 628 3988 
L 628 4550 
Q 988 4650 1302 4700 
Q 1616 4750 1894 4750 
Q 2613 4750 3031 4423 
Q 3450 4097 3450 3541 
Q 3450 3153 3228 2886 
Q 3006 2619 2597 2516 
z
" transform="scale(0.015625)"/>
       </defs>
       <use xlink:href="#DejaVuSans-33"/>
       <use xlink:href="#DejaVuSans-30" x="63.623047"/>
       <use xlink:href="#DejaVuSans-30" x="127.246094"/>
      </g>
     </g>
    </g>
    <g id="ytick_5">
     <g id="line2d_10">
      <path d="M 53.31 66.706384 
L 341.13495 66.706384 
" clip-path="url(#p119838ea01)" style="fill: none; stroke: #ffffff; stroke-linecap: round"/>
     </g>
     <g id="text_11">
      <!-- 400 -->
      <g style="fill: #262626" transform="translate(22.81375 70.885525)scale(0.11 -0.11)">
       <defs>
        <path id="DejaVuSans-34" d="M 2419 4116 
L 825 1625 
L 2419 1625 
L 2419 4116 
z
M 2253 4666 
L 3047 4666 
L 3047 1625 
L 3713 1625 
L 3713 1100 
L 3047 1100 
L 3047 0 
L 2419 0 
L 2419 1100 
L 313 1100 
L 313 1709 
L 2253 4666 
z
" transform="scale(0.015625)"/>
       </defs>
       <use xlink:href="#DejaVuSans-34"/>
       <use xlink:href="#DejaVuSans-30" x="63.623047"/>
       <use xlink:href="#DejaVuSans-30" x="127.246094"/>
      </g>
     </g>
    </g>
    <g id="text_12">
     <!-- Fitness -->
     <g style="fill: #262626" transform="translate(16.318125 191.50875)rotate(-90)scale(0.12 -0.12)">
      <defs>
       <path id="DejaVuSans-46" d="M 628 4666 
L 3309 4666 
L 3309 4134 
L 1259 4134 
L 1259 2759 
L 3109 2759 
L 3109 2228 
L 1259 2228 
L 1259 0 
L 628 0 
L 628 4666 
z
" transform="scale(0.015625)"/>
       <path id="DejaVuSans-73" d="M 2834 3397 
L 2834 2853 
Q 2591 2978 2328 3040 
Q 2066 3103 1784 3103 
Q 1356 3103 1142 2972 
Q 928 2841 928 2578 
Q 928 2378 1081 2264 
Q 1234 2150 1697 2047 
L 1894 2003 
Q 2506 1872 2764 1633 
Q 3022 1394 3022 966 
Q 3022 478 2636 193 
Q 2250 -91 1575 -91 
Q 1294 -91 989 -36 
Q 684 19 347 128 
L 347 722 
Q 666 556 975 473 
Q 1284 391 1588 391 
Q 1994 391 2212 530 
Q 2431 669 2431 922 
Q 2431 1156 2273 1281 
Q 2116 1406 1581 1522 
L 1381 1569 
Q 847 1681 609 1914 
Q 372 2147 372 2553 
Q 372 3047 722 3315 
Q 1072 3584 1716 3584 
Q 2034 3584 2315 3537 
Q 2597 3491 2834 3397 
z
" transform="scale(0.015625)"/>
      </defs>
      <use xlink:href="#DejaVuSans-46"/>
      <use xlink:href="#DejaVuSans-69" x="50.269531"/>
      <use xlink:href="#DejaVuSans-74" x="78.052734"/>
      <use xlink:href="#DejaVuSans-6e" x="117.261719"/>
      <use xlink:href="#DejaVuSans-65" x="180.640625"/>
      <use xlink:href="#DejaVuSans-73" x="242.164062"/>
      <use xlink:href="#DejaVuSans-73" x="294.263672"/>
     </g>
    </g>
   </g>
   <g id="PolyCollection_1">
    <defs>
     <path id="mc9f3bac7c0" d="M 66.392952 -84.449133 
L 66.392952 -66.924118 
L 67.707822 -91.072345 
L 69.022691 -118.561883 
L 70.337561 -133.276964 
L 71.652431 -149.685039 
L 72.9673 -149.321915 
L 74.28217 -158.54308 
L 75.597039 -158.714186 
L 76.911909 -155.639514 
L 78.226778 -167.534204 
L 79.541648 -161.718515 
L 80.856518 -172.703494 
L 82.171387 -168.752856 
L 83.486257 -177.42173 
L 84.801126 -178.221174 
L 86.115996 -182.213162 
L 87.430865 -174.741076 
L 88.745735 -173.772904 
L 90.060605 -179.39895 
L 91.375474 -176.98351 
L 92.690344 -181.414669 
L 94.005213 -190.995632 
L 95.320083 -179.679374 
L 96.634953 -179.474047 
L 97.949822 -175.84043 
L 99.264692 -176.165055 
L 100.579561 -176.947863 
L 101.894431 -170.519046 
L 103.2093 -170.765723 
L 104.52417 -170.862683 
L 105.83904 -177.363745 
L 107.153909 -174.220155 
L 108.468779 -178.101875 
L 109.783648 -182.895683 
L 111.098518 -174.22871 
L 112.413387 -173.924522 
L 113.728257 -192.090707 
L 115.043127 -194.229527 
L 116.357996 -189.017936 
L 117.672866 -187.054024 
L 118.987735 -197.708199 
L 120.302605 -213.867221 
L 121.617474 -207.858087 
L 122.932344 -204.239679 
L 124.247214 -208.164652 
L 125.562083 -224.510939 
L 126.876953 -222.556533 
L 128.191822 -222.290844 
L 129.506692 -229.7962 
L 130.821561 -242.004584 
L 132.136431 -240.485071 
L 133.451301 -244.913854 
L 134.76617 -244.687139 
L 136.08104 -248.575989 
L 137.395909 -246.415306 
L 138.710779 -246.374906 
L 140.025648 -249.813653 
L 141.340518 -247.994705 
L 142.655388 -258.755821 
L 143.970257 -251.28421 
L 145.285127 -255.922598 
L 146.599996 -260.884184 
L 147.914866 -242.631496 
L 149.229736 -256.587058 
L 150.544605 -251.227175 
L 151.859475 -254.415918 
L 153.174344 -251.645433 
L 154.489214 -264.7987 
L 155.804083 -257.993926 
L 157.118953 -262.320521 
L 158.433823 -262.059585 
L 159.748692 -268.846773 
L 161.063562 -270.7142 
L 162.378431 -258.906014 
L 163.693301 -269.040217 
L 165.00817 -268.678994 
L 166.32304 -248.655363 
L 167.63791 -248.959551 
L 168.952779 -261.050062 
L 170.267649 -270.444234 
L 171.582518 -265.312967 
L 172.897388 -264.03728 
L 174.212257 -268.869587 
L 175.527127 -266.740273 
L 176.841997 -274.021766 
L 178.156866 -273.603984 
L 179.471736 -264.924177 
L 180.786605 -254.076558 
L 182.101475 -254.608412 
L 183.416344 -279.725286 
L 184.731214 -268.545437 
L 186.046084 -262.899903 
L 187.360953 -255.884099 
L 188.675823 -242.937109 
L 189.990692 -245.959975 
L 191.305562 -256.413576 
L 192.620431 -259.345185 
L 193.935301 -271.3221 
L 195.250171 -257.32804 
L 196.56504 -265.402798 
L 197.87991 -260.997779 
L 199.194779 -256.053303 
L 200.509649 -249.457658 
L 201.824519 -255.990564 
L 203.139388 -259.438342 
L 204.454258 -256.714436 
L 205.769127 -248.691961 
L 207.083997 -261.089986 
L 208.398866 -245.386771 
L 209.713736 -258.223492 
L 211.028606 -268.467014 
L 212.343475 -266.794456 
L 213.658345 -267.138094 
L 214.973214 -271.732279 
L 216.288084 -266.981247 
L 217.602953 -272.763665 
L 218.917823 -284.135532 
L 220.232693 -276.529414 
L 221.547562 -266.073437 
L 222.862432 -259.781504 
L 224.177301 -249.41203 
L 225.492171 -250.637811 
L 226.80704 -250.445793 
L 228.12191 -257.233932 
L 229.43678 -243.06021 
L 230.751649 -257.724434 
L 232.066519 -254.126464 
L 233.381388 -271.929525 
L 234.696258 -266.297775 
L 236.011127 -280.941562 
L 237.325997 -273.386775 
L 238.640867 -282.822297 
L 239.955736 -283.452061 
L 241.270606 -276.642534 
L 242.585475 -274.209032 
L 243.900345 -266.398537 
L 245.215214 -279.306553 
L 246.530084 -276.852138 
L 247.844954 -268.261212 
L 249.159823 -268.717493 
L 250.474693 -271.488928 
L 251.789562 -264.550597 
L 253.104432 -257.801907 
L 254.419302 -265.216958 
L 255.734171 -275.493274 
L 257.049041 -272.671458 
L 258.36391 -274.344966 
L 259.67878 -274.286029 
L 260.993649 -279.169193 
L 262.308519 -281.926845 
L 263.623389 -263.660372 
L 264.938258 -240.319669 
L 266.253128 -263.310081 
L 267.567997 -274.590217 
L 268.882867 -273.013194 
L 270.197736 -285.464453 
L 271.512606 -288.279139 
L 272.827476 -289.915099 
L 274.142345 -292.937964 
L 275.457215 -293.888076 
L 276.772084 -288.182655 
L 278.086954 -295.448464 
L 279.401823 -284.440671 
L 280.716693 -271.793116 
L 282.031563 -263.051997 
L 283.346432 -263.888513 
L 284.661302 -272.550734 
L 285.976171 -270.408111 
L 287.291041 -264.53111 
L 288.60591 -260.386552 
L 289.92078 -274.111597 
L 291.23565 -273.200935 
L 292.550519 -282.957756 
L 293.865389 -300.179533 
L 295.180258 -291.588131 
L 296.495128 -283.944465 
L 297.809997 -294.779251 
L 299.124867 -282.0162 
L 300.439737 -272.969467 
L 301.754606 -285.480137 
L 303.069476 -287.557644 
L 304.384345 -285.845638 
L 305.699215 -285.750579 
L 307.014085 -289.133717 
L 308.328954 -287.859455 
L 309.643824 -270.702318 
L 310.958693 -280.121681 
L 312.273563 -277.404429 
L 313.588432 -278.867857 
L 314.903302 -276.282737 
L 316.218172 -289.609485 
L 317.533041 -274.608754 
L 318.847911 -284.249603 
L 320.16278 -286.145073 
L 321.47765 -301.453319 
L 322.792519 -290.330981 
L 324.107389 -307.044194 
L 325.422259 -300.921941 
L 326.737128 -298.393381 
L 328.051998 -300.161472 
L 328.051998 -325.757442 
L 328.051998 -325.757442 
L 326.737128 -324.102471 
L 325.422259 -322.312991 
L 324.107389 -326.287869 
L 322.792519 -320.031584 
L 321.47765 -323.624326 
L 320.16278 -321.062019 
L 318.847911 -315.659836 
L 317.533041 -307.906852 
L 316.218172 -318.606179 
L 314.903302 -308.662093 
L 313.588432 -309.387865 
L 312.273563 -310.870781 
L 310.958693 -308.452964 
L 309.643824 -305.620691 
L 308.328954 -310.830381 
L 307.014085 -313.739176 
L 305.699215 -313.56807 
L 304.384345 -311.931635 
L 303.069476 -311.704445 
L 301.754606 -312.066619 
L 300.439737 -303.892049 
L 299.124867 -309.802321 
L 297.809997 -316.704055 
L 296.495128 -312.160251 
L 295.180258 -314.214469 
L 293.865389 -317.368991 
L 292.550519 -306.441047 
L 291.23565 -308.054192 
L 289.92078 -307.298951 
L 288.60591 -293.62809 
L 287.291041 -295.848661 
L 285.976171 -298.456595 
L 284.661302 -300.15862 
L 283.346432 -293.604801 
L 282.031563 -292.428925 
L 280.716693 -296.818734 
L 279.401823 -306.096459 
L 278.086954 -309.783785 
L 276.772084 -306.249504 
L 275.457215 -311.419269 
L 274.142345 -306.155396 
L 272.827476 -307.430132 
L 271.512606 -304.593107 
L 270.197736 -305.982389 
L 268.882867 -298.766961 
L 267.567997 -299.29121 
L 266.253128 -299.276476 
L 264.938258 -289.346648 
L 263.623389 -293.054411 
L 262.308519 -303.262761 
L 260.993649 -303.228064 
L 259.67878 -298.186628 
L 258.36391 -297.998887 
L 257.049041 -293.719822 
L 255.734171 -298.190906 
L 254.419302 -292.922755 
L 253.104432 -284.461108 
L 251.789562 -290.659884 
L 250.474693 -294.808244 
L 249.159823 -295.698943 
L 247.844954 -296.057314 
L 246.530084 -298.01885 
L 245.215214 -300.545509 
L 243.900345 -298.246991 
L 242.585475 -298.035485 
L 241.270606 -301.247042 
L 239.955736 -304.062679 
L 238.640867 -301.039814 
L 237.325997 -299.862988 
L 236.011127 -298.437108 
L 234.696258 -290.449329 
L 233.381388 -291.817223 
L 232.066519 -283.634098 
L 230.751649 -285.449718 
L 229.43678 -277.297963 
L 228.12191 -283.851782 
L 226.80704 -282.241013 
L 225.492171 -282.368867 
L 224.177301 -281.550888 
L 222.862432 -283.417364 
L 221.547562 -290.948387 
L 220.232693 -294.196541 
L 218.917823 -299.004608 
L 217.602953 -295.96178 
L 216.288084 -291.819124 
L 214.973214 -294.101482 
L 213.658345 -288.397012 
L 212.343475 -290.260162 
L 211.028606 -293.416585 
L 209.713736 -289.783443 
L 208.398866 -284.405499 
L 207.083997 -287.734453 
L 205.769127 -276.28844 
L 204.454258 -280.318927 
L 203.139388 -282.142152 
L 201.824519 -280.353148 
L 200.509649 -277.752343 
L 199.194779 -283.623642 
L 197.87991 -284.95779 
L 196.56504 -286.227774 
L 195.250171 -287.862783 
L 193.935301 -287.406501 
L 192.620431 -282.121239 
L 191.305562 -281.475791 
L 189.990692 -274.616834 
L 188.675823 -273.494666 
L 187.360953 -281.40022 
L 186.046084 -284.288577 
L 184.731214 -286.152677 
L 183.416344 -287.786736 
L 182.101475 -283.623166 
L 180.786605 -282.388354 
L 179.471736 -287.06429 
L 178.156866 -286.532912 
L 176.841997 -285.01435 
L 175.527127 -283.415938 
L 174.212257 -285.467304 
L 172.897388 -285.429281 
L 171.582518 -286.455914 
L 170.267649 -289.270601 
L 168.952779 -282.351281 
L 167.63791 -281.095081 
L 166.32304 -280.527581 
L 165.00817 -284.139335 
L 163.693301 -285.963511 
L 162.378431 -283.700164 
L 161.063562 -283.606056 
L 159.748692 -285.410744 
L 158.433823 -282.806612 
L 157.118953 -282.636457 
L 155.804083 -281.704883 
L 154.489214 -282.312307 
L 153.174344 -274.367305 
L 151.859475 -277.756621 
L 150.544605 -276.646811 
L 149.229736 -281.780454 
L 147.914866 -274.138213 
L 146.599996 -278.320794 
L 145.285127 -274.079277 
L 143.970257 -270.733687 
L 142.655388 -275.866855 
L 141.340518 -270.303547 
L 140.025648 -270.830647 
L 138.710779 -268.852476 
L 137.395909 -269.919985 
L 136.08104 -270.923329 
L 134.76617 -268.835841 
L 133.451301 -270.374841 
L 132.136431 -265.14804 
L 130.821561 -264.459816 
L 129.506692 -256.114616 
L 128.191822 -252.215785 
L 126.876953 -251.178695 
L 125.562083 -250.108335 
L 124.247214 -246.67339 
L 122.932344 -238.524011 
L 121.617474 -238.074384 
L 120.302605 -242.33016 
L 118.987735 -230.390792 
L 117.672866 -222.336947 
L 116.357996 -223.396376 
L 115.043127 -221.189589 
L 113.728257 -217.86824 
L 112.413387 -202.823305 
L 111.098518 -198.26144 
L 109.783648 -204.236828 
L 108.468779 -200.620796 
L 107.153909 -196.626431 
L 105.83904 -199.876962 
L 104.52417 -195.83079 
L 103.2093 -194.803682 
L 101.894431 -192.463337 
L 100.579561 -195.679172 
L 99.264692 -195.049884 
L 97.949822 -198.395473 
L 96.634953 -199.80044 
L 95.320083 -200.466326 
L 94.005213 -209.783976 
L 92.690344 -200.390754 
L 91.375474 -201.059017 
L 90.060605 -197.919229 
L 88.745735 -198.73816 
L 87.430865 -199.650723 
L 86.115996 -202.332327 
L 84.801126 -201.949716 
L 83.486257 -200.047593 
L 82.171387 -189.53458 
L 80.856518 -195.922047 
L 79.541648 -187.785025 
L 78.226778 -188.016969 
L 76.911909 -176.779134 
L 75.597039 -186.303061 
L 74.28217 -184.743148 
L 72.9673 -177.51869 
L 71.652431 -172.746745 
L 70.337561 -162.121088 
L 69.022691 -146.681661 
L 67.707822 -118.088967 
L 66.392952 -84.449133 
z
" style="stroke: #edd1cb; stroke-opacity: 0.2"/>
    </defs>
    <g clip-path="url(#p119838ea01)">
     <use xlink:href="#mc9f3bac7c0" x="0" y="362.097812" style="fill: #edd1cb; fill-opacity: 0.2; stroke: #edd1cb; stroke-opacity: 0.2"/>
    </g>
   </g>
   <g id="PolyCollection_2">
    <defs>
     <path id="m689b1ddceb" d="M 66.392952 -91.644123 
L 66.392952 -67.781547 
L 67.707822 -109.930082 
L 69.022691 -139.636864 
L 70.337561 -140.746673 
L 71.652431 -146.281464 
L 72.9673 -144.353674 
L 74.28217 -156.704171 
L 75.597039 -159.850137 
L 76.911909 -154.452706 
L 78.226778 -159.510302 
L 79.541648 -163.943838 
L 80.856518 -172.099871 
L 82.171387 -169.208187 
L 83.486257 -161.548835 
L 84.801126 -166.795598 
L 86.115996 -173.902659 
L 87.430865 -167.479545 
L 88.745735 -156.738867 
L 90.060605 -166.090738 
L 91.375474 -165.654894 
L 92.690344 -166.468596 
L 94.005213 -186.984632 
L 95.320083 -201.746766 
L 96.634953 -207.042484 
L 97.949822 -220.117327 
L 99.264692 -219.429578 
L 100.579561 -237.934647 
L 101.894431 -236.529205 
L 103.2093 -248.996148 
L 104.52417 -256.605119 
L 105.83904 -262.329076 
L 107.153909 -264.000207 
L 108.468779 -266.188933 
L 109.783648 -264.283482 
L 111.098518 -270.314954 
L 112.413387 -279.953427 
L 113.728257 -278.889245 
L 115.043127 -274.402001 
L 116.357996 -260.728763 
L 117.672866 -275.200494 
L 118.987735 -269.172349 
L 120.302605 -263.944123 
L 121.617474 -269.972267 
L 122.932344 -274.742786 
L 124.247214 -256.737726 
L 125.562083 -265.438445 
L 126.876953 -279.343625 
L 128.191822 -278.450074 
L 129.506692 -276.77514 
L 130.821561 -267.159006 
L 132.136431 -267.385246 
L 133.451301 -269.439939 
L 134.76617 -264.550597 
L 136.08104 -270.9566 
L 137.395909 -275.959537 
L 138.710779 -276.341673 
L 140.025648 -275.238993 
L 141.340518 -275.200018 
L 142.655388 -260.691215 
L 143.970257 -284.534779 
L 145.285127 -284.668336 
L 146.599996 -285.199714 
L 147.914866 -285.010072 
L 149.229736 -278.089802 
L 150.544605 -284.630788 
L 151.859475 -285.049046 
L 153.174344 -274.398674 
L 154.489214 -259.877513 
L 155.804083 -271.433794 
L 157.118953 -277.367356 
L 158.433823 -278.808445 
L 159.748692 -285.42833 
L 161.063562 -268.888123 
L 162.378431 -279.378797 
L 163.693301 -279.097899 
L 165.00817 -289.193128 
L 166.32304 -271.131983 
L 167.63791 -275.276065 
L 168.952779 -277.765176 
L 170.267649 -272.307383 
L 171.582518 -277.653007 
L 172.897388 -269.781675 
L 174.212257 -267.423745 
L 175.527127 -260.027706 
L 176.841997 -287.824759 
L 178.156866 -279.891163 
L 179.471736 -279.231456 
L 180.786605 -280.17729 
L 182.101475 -275.408197 
L 183.416344 -262.647998 
L 184.731214 -256.756262 
L 186.046084 -270.389575 
L 187.360953 -269.630532 
L 188.675823 -278.373077 
L 189.990692 -277.634471 
L 191.305562 -279.686787 
L 192.620431 -288.640838 
L 193.935301 -287.539108 
L 195.250171 -286.759627 
L 196.56504 -286.948794 
L 197.87991 -284.324699 
L 199.194779 -268.541159 
L 200.509649 -277.974305 
L 201.824519 -282.439211 
L 203.139388 -284.204925 
L 204.454258 -283.748644 
L 205.769127 -263.432232 
L 207.083997 -260.579521 
L 208.398866 -264.012565 
L 209.713736 -273.811687 
L 211.028606 -282.957756 
L 212.343475 -270.646709 
L 213.658345 -273.277457 
L 214.973214 -271.074948 
L 216.288084 -269.971792 
L 217.602953 -266.261653 
L 218.917823 -267.838201 
L 220.232693 -273.07118 
L 221.547562 -275.409623 
L 222.862432 -275.407722 
L 224.177301 -274.608754 
L 225.492171 -271.651479 
L 226.80704 -290.274896 
L 228.12191 -296.720824 
L 229.43678 -301.094948 
L 230.751649 -300.828308 
L 232.066519 -273.920054 
L 233.381388 -281.944906 
L 234.696258 -281.208676 
L 236.011127 -285.350857 
L 237.325997 -282.290919 
L 238.640867 -275.654399 
L 239.955736 -268.829187 
L 241.270606 -279.475282 
L 242.585475 -285.920259 
L 243.900345 -290.162252 
L 245.215214 -287.632265 
L 246.530084 -280.024245 
L 247.844954 -274.552194 
L 249.159823 -288.71831 
L 250.474693 -294.516889 
L 251.789562 -294.894747 
L 253.104432 -278.965292 
L 254.419302 -299.288833 
L 255.734171 -292.953649 
L 257.049041 -294.211275 
L 258.36391 -294.782102 
L 259.67878 -289.075256 
L 260.993649 -294.035892 
L 262.308519 -295.125264 
L 263.623389 -288.395111 
L 264.938258 -295.980792 
L 266.253128 -292.157533 
L 267.567997 -288.642264 
L 268.882867 -291.264932 
L 270.197736 -292.900892 
L 271.512606 -297.919513 
L 272.827476 -296.969402 
L 274.142345 -300.600643 
L 275.457215 -298.660971 
L 276.772084 -299.098241 
L 278.086954 -289.668897 
L 279.401823 -285.027658 
L 280.716693 -285.771492 
L 282.031563 -287.361348 
L 283.346432 -299.628193 
L 284.661302 -299.022194 
L 285.976171 -283.544743 
L 287.291041 -297.71086 
L 288.60591 -298.964683 
L 289.92078 -294.87621 
L 291.23565 -293.946061 
L 292.550519 -282.914504 
L 293.865389 -284.170704 
L 295.180258 -271.150995 
L 296.495128 -283.433049 
L 297.809997 -283.469171 
L 299.124867 -284.060436 
L 300.439737 -291.283944 
L 301.754606 -291.150862 
L 303.069476 -277.481426 
L 304.384345 -285.8656 
L 305.699215 -295.314906 
L 307.014085 -287.175508 
L 308.328954 -288.641788 
L 309.643824 -284.877465 
L 310.958693 -284.87699 
L 312.273563 -282.817069 
L 313.588432 -291.530621 
L 314.903302 -272.932394 
L 316.218172 -264.778738 
L 317.533041 -273.815489 
L 318.847911 -272.098254 
L 320.16278 -282.229606 
L 321.47765 -298.641484 
L 322.792519 -301.492293 
L 324.107389 -290.674618 
L 325.422259 -288.54673 
L 326.737128 -290.977855 
L 328.051998 -293.241677 
L 328.051998 -304.710029 
L 328.051998 -304.710029 
L 326.737128 -304.402989 
L 325.422259 -303.414379 
L 324.107389 -304.57457 
L 322.792519 -306.760444 
L 321.47765 -306.60835 
L 320.16278 -302.122532 
L 318.847911 -300.129152 
L 317.533041 -299.745115 
L 316.218172 -299.442828 
L 314.903302 -299.294537 
L 313.588432 -304.176274 
L 312.273563 -302.182894 
L 310.958693 -302.958573 
L 309.643824 -300.7746 
L 308.328954 -304.083117 
L 307.014085 -304.594533 
L 305.699215 -306.190567 
L 304.384345 -302.733284 
L 303.069476 -305.070776 
L 301.754606 -304.709078 
L 300.439737 -305.030377 
L 299.124867 -303.73948 
L 297.809997 -305.600728 
L 296.495128 -305.411562 
L 295.180258 -300.867282 
L 293.865389 -303.549363 
L 292.550519 -305.22192 
L 291.23565 -306.477169 
L 289.92078 -306.037998 
L 288.60591 -306.21148 
L 287.291041 -306.646374 
L 285.976171 -307.083644 
L 284.661302 -306.571753 
L 283.346432 -307.102655 
L 282.031563 -305.790846 
L 280.716693 -306.874515 
L 279.401823 -305.812709 
L 278.086954 -305.467646 
L 276.772084 -306.991437 
L 275.457215 -307.102655 
L 274.142345 -307.102655 
L 272.827476 -305.961951 
L 271.512606 -306.228591 
L 270.197736 -305.0684 
L 268.882867 -304.840259 
L 267.567997 -303.015133 
L 266.253128 -305.676775 
L 264.938258 -307.558937 
L 263.623389 -306.760444 
L 262.308519 -306.760444 
L 260.993649 -307.558937 
L 259.67878 -306.304163 
L 258.36391 -306.817479 
L 257.049041 -306.93155 
L 255.734171 -306.589339 
L 254.419302 -307.558937 
L 253.104432 -307.558937 
L 251.789562 -306.361198 
L 250.474693 -306.361198 
L 249.159823 -304.1373 
L 247.844954 -299.471821 
L 246.530084 -299.95567 
L 245.215214 -305.163934 
L 243.900345 -304.688641 
L 242.585475 -304.537497 
L 241.270606 -302.578338 
L 239.955736 -301.419098 
L 238.640867 -304.008021 
L 237.325997 -304.726664 
L 236.011127 -303.35877 
L 234.696258 -300.88772 
L 233.381388 -302.009412 
L 232.066519 -304.859271 
L 230.751649 -305.429623 
L 229.43678 -305.544169 
L 228.12191 -304.174849 
L 226.80704 -302.654385 
L 225.492171 -300.923842 
L 224.177301 -299.783614 
L 222.862432 -297.408573 
L 221.547562 -296.914268 
L 220.232693 -296.402377 
L 218.917823 -295.412341 
L 217.602953 -290.286778 
L 216.288084 -290.092859 
L 214.973214 -292.996901 
L 213.658345 -291.893745 
L 212.343475 -293.832466 
L 211.028606 -297.066362 
L 209.713736 -294.422305 
L 208.398866 -292.178921 
L 207.083997 -291.343355 
L 205.769127 -293.416109 
L 204.454258 -297.845368 
L 203.139388 -299.212787 
L 201.824519 -296.703238 
L 200.509649 -295.335344 
L 199.194779 -290.793441 
L 197.87991 -296.685652 
L 196.56504 -295.22365 
L 195.250171 -295.429452 
L 193.935301 -296.21226 
L 192.620431 -296.874343 
L 191.305562 -295.905696 
L 189.990692 -293.929426 
L 188.675823 -295.032107 
L 187.360953 -293.512119 
L 186.046084 -292.693664 
L 184.731214 -286.364658 
L 183.416344 -287.318096 
L 182.101475 -296.058265 
L 180.786605 -296.418062 
L 179.471736 -296.057314 
L 178.156866 -296.912842 
L 176.841997 -296.132886 
L 175.527127 -290.453131 
L 174.212257 -290.676519 
L 172.897388 -289.270126 
L 171.582518 -291.931293 
L 170.267649 -289.193604 
L 168.952779 -292.368563 
L 167.63791 -291.608569 
L 166.32304 -291.343355 
L 165.00817 -294.30871 
L 163.693301 -290.982608 
L 162.378431 -291.057229 
L 161.063562 -288.130848 
L 159.748692 -289.421745 
L 158.433823 -288.128947 
L 157.118953 -287.862783 
L 155.804083 -287.17836 
L 154.489214 -286.722079 
L 153.174344 -287.482548 
L 151.859475 -287.634642 
L 150.544605 -288.509181 
L 149.229736 -288.509181 
L 147.914866 -288.509181 
L 146.599996 -288.566692 
L 145.285127 -288.167446 
L 143.970257 -287.88227 
L 142.655388 -286.265797 
L 141.340518 -285.809515 
L 140.025648 -285.657422 
L 138.710779 -286.456865 
L 137.395909 -286.648883 
L 136.08104 -288.090923 
L 134.76617 -284.858929 
L 133.451301 -286.970182 
L 132.136431 -286.152677 
L 130.821561 -283.129337 
L 129.506692 -286.798601 
L 128.191822 -287.102313 
L 126.876953 -287.938829 
L 125.562083 -287.82571 
L 124.247214 -285.336599 
L 122.932344 -286.818088 
L 121.617474 -285.657422 
L 120.302605 -285.03051 
L 118.987735 -286.018645 
L 117.672866 -287.541009 
L 116.357996 -286.455914 
L 115.043127 -287.997766 
L 113.728257 -286.608484 
L 112.413387 -288.471633 
L 111.098518 -284.915964 
L 109.783648 -283.605105 
L 108.468779 -283.60558 
L 107.153909 -283.624592 
L 105.83904 -282.805662 
L 104.52417 -279.081264 
L 103.2093 -274.501337 
L 101.894431 -266.631431 
L 100.579561 -266.081517 
L 99.264692 -253.30183 
L 97.949822 -254.991498 
L 96.634953 -243.377706 
L 95.320083 -240.156643 
L 94.005213 -227.490077 
L 92.690344 -203.812391 
L 91.375474 -200.968236 
L 90.060605 -193.509933 
L 88.745735 -182.312023 
L 87.430865 -196.114541 
L 86.115996 -193.775622 
L 84.801126 -188.64293 
L 83.486257 -185.314451 
L 82.171387 -191.952397 
L 80.856518 -193.234263 
L 79.541648 -189.53458 
L 78.226778 -183.22316 
L 76.911909 -179.648955 
L 75.597039 -186.663809 
L 74.28217 -183.267363 
L 72.9673 -173.641247 
L 71.652431 -173.509116 
L 70.337561 -165.503751 
L 69.022691 -167.367376 
L 67.707822 -145.98393 
L 66.392952 -91.644123 
z
" style="stroke: #d499a7; stroke-opacity: 0.2"/>
    </defs>
    <g clip-path="url(#p119838ea01)">
     <use xlink:href="#m689b1ddceb" x="0" y="362.097812" style="fill: #d499a7; fill-opacity: 0.2; stroke: #d499a7; stroke-opacity: 0.2"/>
    </g>
   </g>
   <g id="PolyCollection_3">
    <defs>
     <path id="m06f18cc843" d="M 66.392952 -90.204459 
L 66.392952 -64.999656 
L 67.707822 -117.362243 
L 69.022691 -145.519094 
L 70.337561 -152.247345 
L 71.652431 -138.766126 
L 72.9673 -141.58319 
L 74.28217 -152.345256 
L 75.597039 -152.27016 
L 76.911909 -149.304805 
L 78.226778 -146.504852 
L 79.541648 -140.076035 
L 80.856518 -136.35734 
L 82.171387 -148.962593 
L 83.486257 -153.715051 
L 84.801126 -165.311257 
L 86.115996 -156.870523 
L 87.430865 -172.499118 
L 88.745735 -169.741941 
L 90.060605 -158.258855 
L 91.375474 -163.450009 
L 92.690344 -162.080213 
L 94.005213 -160.501764 
L 95.320083 -168.088871 
L 96.634953 -170.902607 
L 97.949822 -171.395011 
L 99.264692 -180.826256 
L 100.579561 -191.509424 
L 101.894431 -203.067606 
L 103.2093 -201.796197 
L 104.52417 -202.080897 
L 105.83904 -202.667885 
L 107.153909 -200.769088 
L 108.468779 -213.602957 
L 109.783648 -214.152872 
L 111.098518 -211.321074 
L 112.413387 -213.335843 
L 113.728257 -209.968865 
L 115.043127 -206.71976 
L 116.357996 -203.218749 
L 117.672866 -198.583214 
L 118.987735 -197.9929 
L 120.302605 -198.657835 
L 121.617474 -197.251917 
L 122.932344 -204.571434 
L 124.247214 -216.359659 
L 125.562083 -209.971717 
L 126.876953 -216.530764 
L 128.191822 -210.370963 
L 129.506692 -209.173224 
L 130.821561 -213.602482 
L 132.136431 -215.504131 
L 133.451301 -217.671468 
L 134.76617 -217.956644 
L 136.08104 -217.956644 
L 137.395909 -211.682773 
L 138.710779 -218.526996 
L 140.025648 -218.526996 
L 141.340518 -217.956644 
L 142.655388 -217.671468 
L 143.970257 -210.713174 
L 145.285127 -216.473729 
L 146.599996 -204.780088 
L 147.914866 -206.150359 
L 149.229736 -200.805685 
L 150.544605 -208.487376 
L 151.859475 -208.031094 
L 153.174344 -208.449828 
L 154.489214 -207.176992 
L 155.804083 -213.679004 
L 157.118953 -214.534532 
L 158.433823 -216.530764 
L 159.748692 -218.24182 
L 161.063562 -217.671468 
L 162.378431 -217.557398 
L 163.693301 -205.769649 
L 165.00817 -198.751943 
L 166.32304 -215.504131 
L 167.63791 -210.560605 
L 168.952779 -211.587714 
L 170.267649 -213.90667 
L 171.582518 -209.438913 
L 172.897388 -215.846342 
L 174.212257 -214.242227 
L 175.527127 -207.747344 
L 176.841997 -203.64081 
L 178.156866 -207.253039 
L 179.471736 -201.435449 
L 180.786605 -206.359488 
L 182.101475 -212.082019 
L 183.416344 -211.682773 
L 184.731214 -219.952876 
L 186.046084 -211.682773 
L 187.360953 -211.682773 
L 188.675823 -212.082019 
L 189.990692 -212.082019 
L 191.305562 -214.477497 
L 192.620431 -211.622886 
L 193.935301 -206.643713 
L 195.250171 -201.772432 
L 196.56504 -204.4355 
L 197.87991 -208.807723 
L 199.194779 -212.971768 
L 200.509649 -214.83872 
L 201.824519 -212.082019 
L 203.139388 -216.454717 
L 204.454258 -202.709235 
L 205.769127 -212.5383 
L 207.083997 -215.504131 
L 208.398866 -219.952876 
L 209.713736 -212.5383 
L 211.028606 -212.082019 
L 212.343475 -218.926242 
L 213.658345 -211.682773 
L 214.973214 -211.967949 
L 216.288084 -210.066775 
L 217.602953 -217.215187 
L 218.917823 -209.762588 
L 220.232693 -210.789221 
L 221.547562 -212.671383 
L 222.862432 -212.671383 
L 224.177301 -214.705638 
L 225.492171 -219.952876 
L 226.80704 -212.5383 
L 228.12191 -207.024898 
L 229.43678 -211.967949 
L 230.751649 -219.952876 
L 232.066519 -199.420205 
L 233.381388 -216.302623 
L 234.696258 -201.77766 
L 236.011127 -198.411158 
L 237.325997 -213.070629 
L 238.640867 -210.370963 
L 239.955736 -211.43562 
L 241.270606 -209.382353 
L 242.585475 -216.302623 
L 243.900345 -215.104884 
L 245.215214 -216.302623 
L 246.530084 -216.302623 
L 247.844954 -219.952876 
L 249.159823 -219.952876 
L 250.474693 -212.082019 
L 251.789562 -213.679004 
L 253.104432 -211.967949 
L 254.419302 -210.903292 
L 255.734171 -206.338575 
L 257.049041 -202.34421 
L 258.36391 -207.100945 
L 259.67878 -204.610408 
L 260.993649 -209.610494 
L 262.308519 -204.055266 
L 263.623389 -209.191285 
L 264.938258 -213.774063 
L 266.253128 -211.701784 
L 267.567997 -205.236845 
L 268.882867 -195.692955 
L 270.197736 -199.534276 
L 271.512606 -208.996415 
L 272.827476 -218.35589 
L 274.142345 -218.35589 
L 275.457215 -218.35589 
L 276.772084 -210.485033 
L 278.086954 -209.939397 
L 279.401823 -217.215187 
L 280.716693 -207.443156 
L 282.031563 -206.602838 
L 283.346432 -207.291062 
L 284.661302 -209.268283 
L 285.976171 -207.215016 
L 287.291041 -211.359573 
L 288.60591 -218.35589 
L 289.92078 -219.952876 
L 291.23565 -219.952876 
L 292.550519 -219.952876 
L 293.865389 -216.872975 
L 295.180258 -216.302623 
L 296.495128 -211.619083 
L 297.809997 -205.465936 
L 299.124867 -203.104679 
L 300.439737 -202.614176 
L 301.754606 -197.460096 
L 303.069476 -203.791003 
L 304.384345 -199.192065 
L 305.699215 -197.975314 
L 307.014085 -205.998265 
L 308.328954 -205.998265 
L 309.643824 -201.472522 
L 310.958693 -201.169285 
L 312.273563 -214.62864 
L 313.588432 -214.4005 
L 314.903302 -206.471181 
L 316.218172 -203.714956 
L 317.533041 -210.370963 
L 318.847911 -208.42939 
L 320.16278 -206.869002 
L 321.47765 -211.530203 
L 322.792519 -215.351086 
L 324.107389 -207.498766 
L 325.422259 -205.103287 
L 326.737128 -212.024984 
L 328.051998 -212.706079 
L 328.051998 -219.610665 
L 328.051998 -219.610665 
L 326.737128 -219.268454 
L 325.422259 -217.215187 
L 324.107389 -217.557398 
L 322.792519 -218.698102 
L 321.47765 -218.699052 
L 320.16278 -218.584031 
L 318.847911 -218.869683 
L 317.533041 -219.458571 
L 316.218172 -217.785538 
L 314.903302 -217.748466 
L 313.588432 -219.572641 
L 312.273563 -219.724735 
L 310.958693 -218.926242 
L 309.643824 -218.375853 
L 308.328954 -219.952876 
L 307.014085 -219.952876 
L 305.699215 -217.481351 
L 304.384345 -216.758905 
L 303.069476 -219.420547 
L 301.754606 -219.420547 
L 300.439737 -219.420547 
L 299.124867 -218.888219 
L 297.809997 -219.420547 
L 296.495128 -219.952876 
L 295.180258 -219.952876 
L 293.865389 -219.952876 
L 292.550519 -221.20765 
L 291.23565 -221.20765 
L 289.92078 -221.20765 
L 288.60591 -219.952876 
L 287.291041 -219.952876 
L 285.976171 -219.952876 
L 284.661302 -219.952876 
L 283.346432 -219.420547 
L 282.031563 -219.952876 
L 280.716693 -219.952876 
L 279.401823 -219.952876 
L 278.086954 -219.420547 
L 276.772084 -219.952876 
L 275.457215 -219.952876 
L 274.142345 -219.952876 
L 272.827476 -219.952876 
L 271.512606 -219.952876 
L 270.197736 -219.420547 
L 268.882867 -219.420547 
L 267.567997 -219.040313 
L 266.253128 -219.952876 
L 264.938258 -219.952876 
L 263.623389 -219.040313 
L 262.308519 -217.215187 
L 260.993649 -218.469961 
L 259.67878 -218.12775 
L 258.36391 -219.952876 
L 257.049041 -219.040313 
L 255.734171 -219.952876 
L 254.419302 -219.952876 
L 253.104432 -219.952876 
L 251.789562 -219.952876 
L 250.474693 -219.952876 
L 249.159823 -219.952876 
L 247.844954 -219.952876 
L 246.530084 -219.952876 
L 245.215214 -219.952876 
L 243.900345 -219.952876 
L 242.585475 -219.952876 
L 241.270606 -219.952876 
L 239.955736 -219.952876 
L 238.640867 -219.952876 
L 237.325997 -219.952876 
L 236.011127 -218.736125 
L 234.696258 -219.952876 
L 233.381388 -219.952876 
L 232.066519 -218.086399 
L 230.751649 -219.952876 
L 229.43678 -219.952876 
L 228.12191 -219.952876 
L 226.80704 -219.952876 
L 225.492171 -219.952876 
L 224.177301 -219.952876 
L 222.862432 -219.952876 
L 221.547562 -219.952876 
L 220.232693 -219.952876 
L 218.917823 -219.952876 
L 217.602953 -219.952876 
L 216.288084 -219.952876 
L 214.973214 -219.952876 
L 213.658345 -219.952876 
L 212.343475 -219.952876 
L 211.028606 -219.952876 
L 209.713736 -219.952876 
L 208.398866 -219.952876 
L 207.083997 -219.952876 
L 205.769127 -219.952876 
L 204.454258 -219.952876 
L 203.139388 -219.952876 
L 201.824519 -219.952876 
L 200.509649 -219.952876 
L 199.194779 -219.952876 
L 197.87991 -219.610665 
L 196.56504 -218.926242 
L 195.250171 -218.032691 
L 193.935301 -219.325489 
L 192.620431 -219.325489 
L 191.305562 -219.952876 
L 189.990692 -219.952876 
L 188.675823 -219.952876 
L 187.360953 -219.952876 
L 186.046084 -219.952876 
L 184.731214 -219.952876 
L 183.416344 -219.952876 
L 182.101475 -219.952876 
L 180.786605 -219.952876 
L 179.471736 -219.952876 
L 178.156866 -219.952876 
L 176.841997 -219.952876 
L 175.527127 -219.952876 
L 174.212257 -219.952876 
L 172.897388 -220.123982 
L 171.582518 -219.325489 
L 170.267649 -219.382524 
L 168.952779 -218.642017 
L 167.63791 -218.641066 
L 166.32304 -218.984703 
L 165.00817 -216.440934 
L 163.693301 -219.382524 
L 162.378431 -219.6677 
L 161.063562 -219.6677 
L 159.748692 -219.952876 
L 158.433823 -219.382524 
L 157.118953 -219.389653 
L 155.804083 -219.097348 
L 154.489214 -218.24182 
L 153.174344 -218.184785 
L 151.859475 -218.469961 
L 150.544605 -218.412926 
L 149.229736 -217.158151 
L 147.914866 -217.729929 
L 146.599996 -218.755137 
L 145.285127 -219.097348 
L 143.970257 -219.097348 
L 142.655388 -219.6677 
L 141.340518 -219.952876 
L 140.025648 -219.952876 
L 138.710779 -219.952876 
L 137.395909 -219.952876 
L 136.08104 -219.952876 
L 134.76617 -219.952876 
L 133.451301 -219.6677 
L 132.136431 -219.382524 
L 130.821561 -219.097348 
L 129.506692 -218.812172 
L 128.191822 -219.382524 
L 126.876953 -219.382524 
L 125.562083 -219.097348 
L 124.247214 -219.382524 
L 122.932344 -218.450949 
L 121.617474 -218.089726 
L 120.302605 -214.325879 
L 118.987735 -213.12909 
L 117.672866 -214.021691 
L 116.357996 -214.11675 
L 115.043127 -217.064043 
L 113.728257 -217.217088 
L 112.413387 -217.349219 
L 111.098518 -217.880597 
L 109.783648 -218.869683 
L 108.468779 -218.699052 
L 107.153909 -214.592043 
L 105.83904 -214.783111 
L 104.52417 -213.431852 
L 103.2093 -212.63431 
L 101.894431 -213.621969 
L 100.579561 -204.725429 
L 99.264692 -198.491007 
L 97.949822 -193.283694 
L 96.634953 -193.43246 
L 95.320083 -188.737038 
L 94.005213 -183.491701 
L 92.690344 -182.881424 
L 91.375474 -184.384777 
L 90.060605 -182.065346 
L 88.745735 -190.222805 
L 87.430865 -191.418167 
L 86.115996 -181.057249 
L 84.801126 -184.952277 
L 83.486257 -175.465898 
L 82.171387 -171.131699 
L 80.856518 -160.658611 
L 79.541648 -163.41246 
L 78.226778 -170.42874 
L 76.911909 -174.276715 
L 75.597039 -171.418301 
L 74.28217 -176.378937 
L 72.9673 -167.864533 
L 71.652431 -169.519504 
L 70.337561 -176.903185 
L 69.022691 -173.98631 
L 67.707822 -148.531978 
L 66.392952 -90.204459 
z
" style="stroke: #a9678f; stroke-opacity: 0.2"/>
    </defs>
    <g clip-path="url(#p119838ea01)">
     <use xlink:href="#m06f18cc843" x="0" y="362.097812" style="fill: #a9678f; fill-opacity: 0.2; stroke: #a9678f; stroke-opacity: 0.2"/>
    </g>
   </g>
   <g id="PolyCollection_4">
    <defs>
     <path id="m9fd3f2ed79" d="M 66.392952 -71.510223 
L 66.392952 -60.006224 
L 67.707822 -75.04498 
L 69.022691 -83.274208 
L 70.337561 -87.287584 
L 71.652431 -102.116735 
L 72.9673 -112.991921 
L 74.28217 -115.820392 
L 75.597039 -128.276403 
L 76.911909 -132.245578 
L 78.226778 -144.720601 
L 79.541648 -143.316584 
L 80.856518 -160.9243 
L 82.171387 -149.625628 
L 83.486257 -157.404278 
L 84.801126 -167.229541 
L 86.115996 -175.425974 
L 87.430865 -180.591461 
L 88.745735 -191.640129 
L 90.060605 -193.183882 
L 91.375474 -184.020227 
L 92.690344 -184.433257 
L 94.005213 -179.913218 
L 95.320083 -184.547803 
L 96.634953 -174.606093 
L 97.949822 -189.058811 
L 99.264692 -182.157077 
L 100.579561 -190.08497 
L 101.894431 -200.445888 
L 103.2093 -197.933963 
L 104.52417 -195.845524 
L 105.83904 -190.31216 
L 107.153909 -195.723849 
L 108.468779 -199.854148 
L 109.783648 -200.632203 
L 111.098518 -209.742625 
L 112.413387 -208.030144 
L 113.728257 -212.385731 
L 115.043127 -202.020535 
L 116.357996 -205.0434 
L 117.672866 -207.252564 
L 118.987735 -215.369623 
L 120.302605 -209.762588 
L 121.617474 -211.282576 
L 122.932344 -208.805347 
L 124.247214 -208.018261 
L 125.562083 -209.016852 
L 126.876953 -195.646852 
L 128.191822 -205.710712 
L 129.506692 -201.206358 
L 130.821561 -210.426572 
L 132.136431 -210.977913 
L 133.451301 -212.861025 
L 134.76617 -191.868745 
L 136.08104 -206.546753 
L 137.395909 -211.300637 
L 138.710779 -201.852281 
L 140.025648 -206.580499 
L 141.340518 -212.992206 
L 142.655388 -208.773502 
L 143.970257 -210.56108 
L 145.285127 -211.624787 
L 146.599996 -193.426757 
L 147.914866 -206.585727 
L 149.229736 -206.354735 
L 150.544605 -208.008755 
L 151.859475 -210.519255 
L 153.174344 -218.733273 
L 154.489214 -214.114373 
L 155.804083 -218.184785 
L 157.118953 -208.711714 
L 158.433823 -210.342445 
L 159.748692 -212.020231 
L 161.063562 -212.289722 
L 162.378431 -212.272136 
L 163.693301 -215.156691 
L 165.00817 -210.394252 
L 166.32304 -219.076435 
L 167.63791 -231.416475 
L 168.952779 -217.86016 
L 170.267649 -232.043387 
L 171.582518 -225.921134 
L 172.897388 -212.195139 
L 174.212257 -222.64969 
L 175.527127 -227.440171 
L 176.841997 -229.703993 
L 178.156866 -233.712142 
L 179.471736 -238.98362 
L 180.786605 -239.341991 
L 182.101475 -236.128057 
L 183.416344 -230.82521 
L 184.731214 -230.345164 
L 186.046084 -240.082973 
L 187.360953 -228.261003 
L 188.675823 -230.884622 
L 189.990692 -233.542937 
L 191.305562 -234.515387 
L 192.620431 -232.230652 
L 193.935301 -236.147069 
L 195.250171 -232.480181 
L 196.56504 -235.478807 
L 197.87991 -236.41561 
L 199.194779 -222.589328 
L 200.509649 -237.100032 
L 201.824519 -223.602178 
L 203.139388 -229.971583 
L 204.454258 -218.998487 
L 205.769127 -219.454293 
L 207.083997 -236.034425 
L 208.398866 -226.584168 
L 209.713736 -225.845562 
L 211.028606 -228.125069 
L 212.343475 -224.679193 
L 213.658345 -212.736973 
L 214.973214 -220.346419 
L 216.288084 -224.615028 
L 217.602953 -228.789054 
L 218.917823 -218.544107 
L 220.232693 -223.716724 
L 221.547562 -221.529424 
L 222.862432 -220.997571 
L 224.177301 -210.027326 
L 225.492171 -209.113337 
L 226.80704 -213.108177 
L 228.12191 -230.143164 
L 229.43678 -226.37694 
L 230.751649 -234.32527 
L 232.066519 -227.820406 
L 233.381388 -228.431633 
L 234.696258 -226.302319 
L 236.011127 -221.910609 
L 237.325997 -226.093665 
L 238.640867 -225.576546 
L 239.955736 -216.49179 
L 241.270606 -227.857004 
L 242.585475 -222.743798 
L 243.900345 -223.577938 
L 245.215214 -234.628032 
L 246.530084 -233.584288 
L 247.844954 -229.154554 
L 249.159823 -230.731102 
L 250.474693 -230.142689 
L 251.789562 -225.255248 
L 253.104432 -221.282747 
L 254.419302 -225.294697 
L 255.734171 -220.142518 
L 257.049041 -225.974842 
L 258.36391 -220.671995 
L 259.67878 -239.751218 
L 260.993649 -234.799613 
L 262.308519 -240.276417 
L 263.623389 -241.188981 
L 264.938258 -232.13797 
L 266.253128 -222.860245 
L 267.567997 -217.440951 
L 268.882867 -218.676238 
L 270.197736 -222.271832 
L 271.512606 -224.629762 
L 272.827476 -237.462681 
L 274.142345 -222.156811 
L 275.457215 -239.838672 
L 276.772084 -239.268796 
L 278.086954 -239.415186 
L 279.401823 -245.276503 
L 280.716693 -243.527424 
L 282.031563 -240.029265 
L 283.346432 -239.820136 
L 284.661302 -243.299283 
L 285.976171 -238.237409 
L 287.291041 -246.040775 
L 288.60591 -233.964522 
L 289.92078 -223.962925 
L 291.23565 -231.168847 
L 292.550519 -229.153128 
L 293.865389 -219.532717 
L 295.180258 -230.309517 
L 296.495128 -211.291131 
L 297.809997 -226.813259 
L 299.124867 -223.640201 
L 300.439737 -220.21809 
L 301.754606 -242.348221 
L 303.069476 -233.427916 
L 304.384345 -237.67181 
L 305.699215 -244.98895 
L 307.014085 -227.157847 
L 308.328954 -232.841404 
L 309.643824 -228.506254 
L 310.958693 -227.119824 
L 312.273563 -222.223352 
L 313.588432 -227.78571 
L 314.903302 -217.080203 
L 316.218172 -222.024679 
L 317.533041 -204.055741 
L 318.847911 -218.621579 
L 320.16278 -224.742407 
L 321.47765 -218.504657 
L 322.792519 -208.86761 
L 324.107389 -205.579531 
L 325.422259 -224.378807 
L 326.737128 -221.871635 
L 328.051998 -220.028923 
L 328.051998 -242.368183 
L 328.051998 -242.368183 
L 326.737128 -242.501265 
L 325.422259 -242.76838 
L 324.107389 -233.281526 
L 322.792519 -235.829098 
L 321.47765 -239.022594 
L 320.16278 -241.817318 
L 318.847911 -240.051128 
L 317.533041 -233.299587 
L 316.218172 -240.029265 
L 314.903302 -239.36433 
L 313.588432 -244.326392 
L 312.273563 -241.170919 
L 310.958693 -244.953779 
L 309.643824 -245.884878 
L 308.328954 -248.566008 
L 307.014085 -248.147274 
L 305.699215 -253.869806 
L 304.384345 -254.0219 
L 303.069476 -253.014278 
L 301.754606 -254.0219 
L 300.439737 -248.166761 
L 299.124867 -249.749013 
L 297.809997 -250.903976 
L 296.495128 -242.807354 
L 295.180258 -251.630224 
L 293.865389 -246.151518 
L 292.550519 -249.460035 
L 291.23565 -250.789905 
L 289.92078 -248.664869 
L 288.60591 -252.063691 
L 287.291041 -254.0219 
L 285.976171 -252.672067 
L 284.661302 -254.0219 
L 283.346432 -252.27282 
L 282.031563 -252.27282 
L 280.716693 -254.0219 
L 279.401823 -254.0219 
L 278.086954 -252.424914 
L 276.772084 -252.27282 
L 275.457215 -252.27282 
L 274.142345 -248.64253 
L 272.827476 -253.337477 
L 271.512606 -248.622568 
L 270.197736 -246.476143 
L 268.882867 -245.087336 
L 267.567997 -244.48609 
L 266.253128 -248.736638 
L 264.938258 -252.063691 
L 263.623389 -253.717712 
L 262.308519 -254.0219 
L 260.993649 -252.196773 
L 259.67878 -254.0219 
L 258.36391 -245.525081 
L 257.049041 -247.272735 
L 255.734171 -242.942813 
L 254.419302 -246.181461 
L 253.104432 -245.713773 
L 251.789562 -245.334489 
L 250.474693 -247.539374 
L 249.159823 -249.137786 
L 247.844954 -247.806014 
L 246.530084 -249.478096 
L 245.215214 -249.611653 
L 243.900345 -244.592081 
L 242.585475 -247.064081 
L 241.270606 -249.117823 
L 239.955736 -244.536947 
L 238.640867 -247.10258 
L 237.325997 -246.22804 
L 236.011127 -245.297891 
L 234.696258 -245.087811 
L 233.381388 -245.884878 
L 232.066519 -247.044594 
L 230.751649 -248.147274 
L 229.43678 -245.828794 
L 228.12191 -246.247527 
L 226.80704 -239.652357 
L 225.492171 -239.555397 
L 224.177301 -234.858549 
L 222.862432 -243.434266 
L 221.547562 -244.060227 
L 220.232693 -245.221369 
L 218.917823 -243.111067 
L 217.602953 -249.040826 
L 216.288084 -246.018911 
L 214.973214 -246.691451 
L 213.658345 -242.044984 
L 212.343475 -248.283208 
L 211.028606 -244.516034 
L 209.713736 -243.623433 
L 208.398866 -244.630579 
L 207.083997 -249.50091 
L 205.769127 -243.299283 
L 204.454258 -245.010814 
L 203.139388 -249.175334 
L 201.824519 -245.315002 
L 200.509649 -250.772319 
L 199.194779 -247.238038 
L 197.87991 -251.303222 
L 196.56504 -250.713858 
L 195.250171 -250.371647 
L 193.935301 -251.15493 
L 192.620431 -249.706712 
L 191.305562 -250.489045 
L 189.990692 -250.849317 
L 188.675823 -252.139738 
L 187.360953 -251.740492 
L 186.046084 -251.740492 
L 184.731214 -248.320757 
L 183.416344 -249.366402 
L 182.101475 -250.390659 
L 180.786605 -251.740492 
L 179.471736 -250.980023 
L 178.156866 -250.219553 
L 176.841997 -245.582592 
L 175.527127 -244.459949 
L 174.212257 -244.217549 
L 172.897388 -240.390963 
L 171.582518 -243.852524 
L 170.267649 -245.447609 
L 168.952779 -240.999814 
L 167.63791 -243.794538 
L 166.32304 -241.954203 
L 165.00817 -238.356708 
L 163.693301 -235.181273 
L 162.378431 -233.110896 
L 161.063562 -231.477313 
L 159.748692 -232.158883 
L 158.433823 -227.465362 
L 157.118953 -229.194954 
L 155.804083 -233.10947 
L 154.489214 -229.953047 
L 153.174344 -233.113747 
L 151.859475 -231.018655 
L 150.544605 -227.78666 
L 149.229736 -225.751929 
L 147.914866 -225.603163 
L 146.599996 -218.83261 
L 145.285127 -226.245759 
L 143.970257 -226.248611 
L 142.655388 -226.530935 
L 141.340518 -226.913071 
L 140.025648 -223.755698 
L 138.710779 -224.174906 
L 137.395909 -226.702041 
L 136.08104 -224.518068 
L 134.76617 -219.154383 
L 133.451301 -228.679736 
L 132.136431 -228.203968 
L 130.821561 -228.01385 
L 129.506692 -224.633089 
L 128.191822 -227.234845 
L 126.876953 -222.406815 
L 125.562083 -227.06469 
L 124.247214 -227.559945 
L 122.932344 -228.203968 
L 121.617474 -225.962484 
L 120.302605 -224.364073 
L 118.987735 -226.055642 
L 117.672866 -224.440595 
L 116.357996 -225.980546 
L 115.043127 -225.564664 
L 113.728257 -227.348915 
L 112.413387 -226.040908 
L 111.098518 -223.889255 
L 109.783648 -222.463375 
L 108.468779 -220.527981 
L 107.153909 -213.813988 
L 105.83904 -213.357231 
L 104.52417 -215.865829 
L 103.2093 -217.102542 
L 101.894431 -215.846817 
L 100.579561 -208.79489 
L 99.264692 -204.535312 
L 97.949822 -205.067165 
L 96.634953 -197.502872 
L 95.320083 -207.217392 
L 94.005213 -209.497374 
L 92.690344 -212.217953 
L 91.375474 -209.122843 
L 90.060605 -213.796402 
L 88.745735 -216.569263 
L 87.430865 -212.425181 
L 86.115996 -209.120466 
L 84.801126 -200.467752 
L 83.486257 -194.004238 
L 82.171387 -184.611017 
L 80.856518 -190.57975 
L 79.541648 -177.387509 
L 78.226778 -172.328963 
L 76.911909 -166.996647 
L 75.597039 -159.306877 
L 74.28217 -145.134106 
L 72.9673 -135.066443 
L 71.652431 -129.114821 
L 70.337561 -114.059905 
L 69.022691 -102.59393 
L 67.707822 -89.438287 
L 66.392952 -71.510223 
z
" style="stroke: #6c3f70; stroke-opacity: 0.2"/>
    </defs>
    <g clip-path="url(#p119838ea01)">
     <use xlink:href="#m9fd3f2ed79" x="0" y="362.097812" style="fill: #6c3f70; fill-opacity: 0.2; stroke: #6c3f70; stroke-opacity: 0.2"/>
    </g>
   </g>
   <g id="PolyCollection_5">
    <defs>
     <path id="m95b0f22e23" d="M 66.392952 -71.739315 
L 66.392952 -56.451506 
L 67.707822 -92.203068 
L 69.022691 -131.072554 
L 70.337561 -165.673906 
L 71.652431 -152.442216 
L 72.9673 -162.574994 
L 74.28217 -151.681271 
L 75.597039 -153.29109 
L 76.911909 -158.21893 
L 78.226778 -157.285454 
L 79.541648 -158.810195 
L 80.856518 -158.940426 
L 82.171387 -154.454608 
L 83.486257 -167.725747 
L 84.801126 -159.532641 
L 86.115996 -155.617175 
L 87.430865 -166.907767 
L 88.745735 -165.864498 
L 90.060605 -174.666455 
L 91.375474 -179.265393 
L 92.690344 -176.488254 
L 94.005213 -167.288002 
L 95.320083 -175.465423 
L 96.634953 -176.14937 
L 97.949822 -170.065616 
L 99.264692 -162.992301 
L 100.579561 -163.562653 
L 101.894431 -166.730483 
L 103.2093 -175.652689 
L 104.52417 -180.80772 
L 105.83904 -175.521032 
L 107.153909 -175.532915 
L 108.468779 -176.70071 
L 109.783648 -160.083031 
L 111.098518 -163.884902 
L 112.413387 -178.867097 
L 113.728257 -177.897974 
L 115.043127 -186.258859 
L 116.357996 -173.078025 
L 117.672866 -173.521949 
L 118.987735 -155.157091 
L 120.302605 -162.838306 
L 121.617474 -166.016592 
L 122.932344 -168.296574 
L 124.247214 -162.839257 
L 125.562083 -178.030581 
L 126.876953 -159.112957 
L 128.191822 -163.69621 
L 129.506692 -168.766164 
L 130.821561 -170.977704 
L 132.136431 -164.565997 
L 133.451301 -171.733895 
L 134.76617 -181.52874 
L 136.08104 -161.788858 
L 137.395909 -161.943804 
L 138.710779 -174.094202 
L 140.025648 -176.752993 
L 141.340518 -167.764246 
L 142.655388 -171.60319 
L 143.970257 -179.704564 
L 145.285127 -181.47218 
L 146.599996 -181.09147 
L 147.914866 -191.034606 
L 149.229736 -192.613055 
L 150.544605 -190.003219 
L 151.859475 -177.442643 
L 153.174344 -170.927798 
L 154.489214 -176.186918 
L 155.804083 -188.069726 
L 157.118953 -182.308221 
L 158.433823 -175.425023 
L 159.748692 -174.932144 
L 161.063562 -175.765808 
L 162.378431 -174.00152 
L 163.693301 -189.605874 
L 165.00817 -184.21082 
L 166.32304 -188.086837 
L 167.63791 -183.275918 
L 168.952779 -181.584349 
L 170.267649 -174.913608 
L 171.582518 -173.10274 
L 172.897388 -172.517654 
L 174.212257 -175.838528 
L 175.527127 -186.083475 
L 176.841997 -179.914168 
L 178.156866 -179.588117 
L 179.471736 -168.79183 
L 180.786605 -182.137115 
L 182.101475 -186.30116 
L 183.416344 -175.064751 
L 184.731214 -169.510949 
L 186.046084 -180.92179 
L 187.360953 -180.730722 
L 188.675823 -175.216845 
L 189.990692 -175.103725 
L 191.305562 -181.16419 
L 192.620431 -183.178958 
L 193.935301 -183.865757 
L 195.250171 -177.877537 
L 196.56504 -177.404144 
L 197.87991 -189.457107 
L 199.194779 -179.209308 
L 200.509649 -178.792001 
L 201.824519 -187.157638 
L 203.139388 -184.817294 
L 204.454258 -194.001386 
L 205.769127 -202.133655 
L 207.083997 -203.553831 
L 208.398866 -201.568531 
L 209.713736 -204.914596 
L 211.028606 -200.167366 
L 212.343475 -193.981899 
L 213.658345 -217.899609 
L 214.973214 -211.358622 
L 216.288084 -207.288686 
L 217.602953 -196.130225 
L 218.917823 -190.597811 
L 220.232693 -197.712477 
L 221.547562 -190.8231 
L 222.862432 -217.442852 
L 224.177301 -208.696029 
L 225.492171 -211.430867 
L 226.80704 -210.996449 
L 228.12191 -221.22381 
L 229.43678 -215.502705 
L 230.751649 -215.025035 
L 232.066519 -217.358725 
L 233.381388 -223.032777 
L 234.696258 -215.272188 
L 236.011127 -229.323759 
L 237.325997 -223.126885 
L 238.640867 -227.708237 
L 239.955736 -215.674761 
L 241.270606 -234.761589 
L 242.585475 -230.07995 
L 243.900345 -218.504657 
L 245.215214 -232.497767 
L 246.530084 -212.441341 
L 247.844954 -212.036866 
L 249.159823 -220.065996 
L 250.474693 -226.492436 
L 251.789562 -232.632751 
L 253.104432 -220.103069 
L 254.419302 -225.764287 
L 255.734171 -235.134694 
L 257.049041 -219.528914 
L 258.36391 -225.154961 
L 259.67878 -214.799746 
L 260.993649 -215.159543 
L 262.308519 -227.167353 
L 263.623389 -234.272988 
L 264.938258 -217.327831 
L 266.253128 -227.481047 
L 267.567997 -236.451257 
L 268.882867 -227.972975 
L 270.197736 -227.005278 
L 271.512606 -235.199334 
L 272.827476 -239.485529 
L 274.142345 -228.845614 
L 275.457215 -235.957902 
L 276.772084 -230.845648 
L 278.086954 -234.418903 
L 279.401823 -242.325882 
L 280.716693 -230.254383 
L 282.031563 -237.859551 
L 283.346432 -240.521669 
L 284.661302 -231.340428 
L 285.976171 -230.202101 
L 287.291041 -224.285174 
L 288.60591 -235.977865 
L 289.92078 -230.102289 
L 291.23565 -223.713397 
L 292.550519 -239.130485 
L 293.865389 -233.582387 
L 295.180258 -221.186737 
L 296.495128 -226.26287 
L 297.809997 -238.066779 
L 299.124867 -231.392235 
L 300.439737 -247.534621 
L 301.754606 -252.04468 
L 303.069476 -257.006266 
L 304.384345 -250.218127 
L 305.699215 -245.998949 
L 307.014085 -238.387602 
L 308.328954 -232.651762 
L 309.643824 -234.683641 
L 310.958693 -243.257932 
L 312.273563 -224.191542 
L 313.588432 -229.797151 
L 314.903302 -223.675848 
L 316.218172 -234.455976 
L 317.533041 -227.709187 
L 318.847911 -236.644226 
L 320.16278 -239.00073 
L 321.47765 -239.391897 
L 322.792519 -226.107449 
L 324.107389 -229.606083 
L 325.422259 -236.619986 
L 326.737128 -222.595031 
L 328.051998 -231.397939 
L 328.051998 -258.565704 
L 328.051998 -258.565704 
L 326.737128 -253.168748 
L 325.422259 -258.812856 
L 324.107389 -254.059923 
L 322.792519 -254.238158 
L 321.47765 -261.37944 
L 320.16278 -259.668384 
L 318.847911 -258.584715 
L 317.533041 -257.180224 
L 316.218172 -258.280528 
L 314.903302 -254.023801 
L 313.588432 -255.871266 
L 312.273563 -255.79712 
L 310.958693 -259.021985 
L 309.643824 -255.087032 
L 308.328954 -257.731564 
L 307.014085 -257.43308 
L 305.699215 -259.744431 
L 304.384345 -261.647981 
L 303.069476 -262.881367 
L 301.754606 -263.052472 
L 300.439737 -262.770148 
L 299.124867 -262.881367 
L 297.809997 -262.881367 
L 296.495128 -257.177847 
L 295.180258 -250.56319 
L 293.865389 -257.578044 
L 292.550519 -260.029607 
L 291.23565 -249.388741 
L 289.92078 -252.902109 
L 288.60591 -255.966325 
L 287.291041 -251.571763 
L 285.976171 -256.155491 
L 284.661302 -256.265759 
L 283.346432 -259.269613 
L 282.031563 -256.935448 
L 280.716693 -252.560373 
L 279.401823 -258.719699 
L 278.086954 -254.68731 
L 276.772084 -252.333658 
L 275.457215 -255.241502 
L 274.142345 -254.497668 
L 272.827476 -259.992059 
L 271.512606 -259.043849 
L 270.197736 -255.337511 
L 268.882867 -255.507666 
L 267.567997 -261.588569 
L 266.253128 -257.786223 
L 264.938258 -252.27282 
L 263.623389 -259.004875 
L 262.308519 -257.329941 
L 260.993649 -251.493815 
L 259.67878 -245.829744 
L 258.36391 -251.666346 
L 257.049041 -249.499009 
L 255.734171 -255.94351 
L 254.419302 -249.556519 
L 253.104432 -248.280357 
L 251.789562 -250.67631 
L 250.474693 -247.957632 
L 249.159823 -244.250345 
L 247.844954 -241.039263 
L 246.530084 -241.132896 
L 245.215214 -253.301355 
L 243.900345 -248.074555 
L 242.585475 -254.313254 
L 241.270606 -253.890719 
L 239.955736 -244.902447 
L 238.640867 -250.469558 
L 237.325997 -247.196688 
L 236.011127 -247.997082 
L 234.696258 -246.437169 
L 233.381388 -248.832172 
L 232.066519 -246.588788 
L 230.751649 -242.882926 
L 229.43678 -239.668517 
L 228.12191 -239.991717 
L 226.80704 -232.217344 
L 225.492171 -234.613298 
L 224.177301 -233.820033 
L 222.862432 -238.280186 
L 221.547562 -220.656785 
L 220.232693 -226.211063 
L 218.917823 -221.664407 
L 217.602953 -224.581282 
L 216.288084 -232.84283 
L 214.973214 -236.192697 
L 213.658345 -240.295904 
L 212.343475 -226.894535 
L 211.028606 -225.182053 
L 209.713736 -226.837024 
L 208.398866 -226.530935 
L 207.083997 -229.059496 
L 205.769127 -223.908742 
L 204.454258 -213.279758 
L 203.139388 -211.060138 
L 201.824519 -206.553883 
L 200.509649 -196.418728 
L 199.194779 -196.723391 
L 197.87991 -203.945473 
L 196.56504 -195.352645 
L 195.250171 -199.137881 
L 193.935301 -204.688356 
L 192.620431 -203.831878 
L 191.305562 -201.4364 
L 189.990692 -193.279891 
L 188.675823 -194.650637 
L 187.360953 -198.491007 
L 186.046084 -198.433972 
L 184.731214 -193.071713 
L 183.416344 -195.942009 
L 182.101475 -198.699185 
L 180.786605 -198.146895 
L 179.471736 -192.445752 
L 178.156866 -198.412584 
L 176.841997 -198.868865 
L 175.527127 -204.344719 
L 174.212257 -196.378804 
L 172.897388 -196.59221 
L 171.582518 -195.183441 
L 170.267649 -196.5751 
L 168.952779 -201.473472 
L 167.63791 -207.882803 
L 166.32304 -209.060104 
L 165.00817 -212.024984 
L 163.693301 -212.348658 
L 162.378431 -197.425399 
L 161.063562 -202.138883 
L 159.748692 -195.657784 
L 158.433823 -195.888776 
L 157.118953 -199.992459 
L 155.804083 -204.364682 
L 154.489214 -198.698235 
L 153.174344 -192.197173 
L 151.859475 -200.01147 
L 150.544605 -204.992069 
L 149.229736 -208.718844 
L 147.914866 -208.038699 
L 146.599996 -203.470655 
L 145.285127 -205.903681 
L 143.970257 -202.15837 
L 142.655388 -190.542202 
L 141.340518 -189.250355 
L 140.025648 -194.990472 
L 138.710779 -192.007056 
L 137.395909 -191.150577 
L 136.08104 -194.119735 
L 134.76617 -204.255839 
L 133.451301 -198.224367 
L 132.136431 -194.691512 
L 130.821561 -202.170252 
L 129.506692 -196.455326 
L 128.191822 -193.344056 
L 126.876953 -188.836374 
L 125.562083 -197.902119 
L 124.247214 -190.488494 
L 122.932344 -194.249965 
L 121.617474 -190.525567 
L 120.302605 -186.092981 
L 118.987735 -185.011689 
L 117.672866 -198.242904 
L 116.357996 -197.881681 
L 115.043127 -207.9598 
L 113.728257 -207.463594 
L 112.413387 -205.410802 
L 111.098518 -190.809792 
L 109.783648 -184.250269 
L 108.468779 -199.501005 
L 107.153909 -202.237744 
L 105.83904 -202.046676 
L 104.52417 -202.865607 
L 103.2093 -196.114541 
L 101.894431 -192.181488 
L 100.579561 -186.449927 
L 99.264692 -188.185222 
L 97.949822 -192.598321 
L 96.634953 -200.676406 
L 95.320083 -200.450641 
L 94.005213 -188.436177 
L 92.690344 -196.969118 
L 91.375474 -200.453018 
L 90.060605 -193.22951 
L 88.745735 -184.821572 
L 87.430865 -191.190977 
L 86.115996 -182.235026 
L 84.801126 -184.630504 
L 83.486257 -186.473691 
L 82.171387 -179.249233 
L 80.856518 -180.110465 
L 79.541648 -183.512139 
L 78.226778 -182.217915 
L 76.911909 -178.773464 
L 75.597039 -174.591359 
L 74.28217 -177.159844 
L 72.9673 -178.184576 
L 71.652431 -179.343816 
L 70.337561 -180.561043 
L 69.022691 -166.247585 
L 67.707822 -127.956056 
L 66.392952 -71.739315 
z
" style="stroke: #2d1e3e; stroke-opacity: 0.2"/>
    </defs>
    <g clip-path="url(#p119838ea01)">
     <use xlink:href="#m95b0f22e23" x="0" y="362.097812" style="fill: #2d1e3e; fill-opacity: 0.2; stroke: #2d1e3e; stroke-opacity: 0.2"/>
    </g>
   </g>
   <g id="line2d_11">
    <path d="M 66.392952 286.995322 
L 69.022691 229.750997 
L 70.337561 214.028295 
L 71.652431 200.606012 
L 72.9673 197.488088 
L 74.28217 190.054501 
L 75.597039 189.198973 
L 76.911909 195.035575 
L 78.226778 183.837665 
L 79.541648 186.822507 
L 80.856518 177.278617 
L 82.171387 183.039172 
L 83.486257 174.046623 
L 84.801126 172.069403 
L 86.115996 168.85642 
L 87.430865 174.23674 
L 88.745735 174.597963 
L 90.060605 173.476271 
L 91.375474 172.563708 
L 92.690344 170.947711 
L 94.005213 161.784056 
L 95.320083 171.537074 
L 96.634953 172.620743 
L 97.949822 174.883139 
L 99.264692 176.65123 
L 100.579561 175.700643 
L 101.894431 180.187412 
L 103.2093 179.103744 
L 104.52417 178.913626 
L 105.83904 173.058013 
L 107.153909 176.860359 
L 109.783648 168.038916 
L 111.098518 175.605585 
L 112.413387 173.723423 
L 113.728257 156.612865 
L 115.043127 154.388492 
L 116.357996 155.415125 
L 117.672866 157.373334 
L 118.987735 147.943515 
L 120.302605 133.304481 
L 121.617474 138.437649 
L 122.932344 139.825505 
L 124.247214 133.646692 
L 125.562083 124.330944 
L 126.876953 124.711178 
L 128.191822 124.064779 
L 129.506692 118.855565 
L 130.821561 107.657655 
L 132.136431 109.197605 
L 133.451301 103.627168 
L 134.76617 104.653801 
L 136.08104 101.402795 
L 138.710779 104.292578 
L 140.025648 101.364771 
L 141.340518 102.220299 
L 142.655388 94.007231 
L 143.970257 100.927502 
L 145.285127 97.125155 
L 146.599996 92.087046 
L 147.914866 102.828675 
L 149.229736 91.915941 
L 150.544605 96.687885 
L 151.859475 95.166947 
L 153.174344 98.417953 
L 154.489214 87.695336 
L 155.804083 91.288554 
L 157.118953 88.817028 
L 158.433823 88.83604 
L 159.748692 83.607814 
L 161.063562 84.064095 
L 162.378431 89.292322 
L 163.693301 84.216189 
L 165.00817 85.052705 
L 166.32304 94.938806 
L 167.63791 94.482525 
L 168.952779 89.007146 
L 170.267649 81.687629 
L 171.582518 85.642069 
L 172.897388 87.067949 
L 174.212257 84.292236 
L 175.527127 86.326491 
L 176.841997 82.46711 
L 178.156866 81.877746 
L 179.471736 85.470964 
L 180.786605 92.847516 
L 182.101475 92.752457 
L 183.416344 78.588717 
L 184.731214 83.835955 
L 186.046084 88.113594 
L 187.360953 92.809492 
L 188.675823 102.714604 
L 189.990692 100.680349 
L 191.305562 92.277164 
L 192.620431 90.242908 
L 193.935301 81.782688 
L 195.250171 87.714348 
L 196.56504 85.31887 
L 197.87991 88.037547 
L 199.194779 91.193495 
L 200.509649 97.980683 
L 201.824519 92.923562 
L 203.139388 90.337967 
L 204.454258 93.379844 
L 205.769127 99.330516 
L 207.083997 87.124984 
L 208.398866 96.706897 
L 209.713736 86.801785 
L 211.028606 80.718031 
L 212.343475 83.265603 
L 213.658345 84.349271 
L 214.973214 79.216104 
L 216.288084 81.877746 
L 217.602953 76.668532 
L 218.917823 69.862332 
L 220.232693 75.546839 
L 221.547562 82.372051 
L 222.862432 90.109826 
L 224.177301 95.509158 
L 225.492171 94.349442 
L 226.80704 94.159325 
L 228.12191 91.022389 
L 229.43678 100.718373 
L 230.751649 90.604131 
L 232.066519 92.182105 
L 233.381388 79.482268 
L 234.696258 82.35304 
L 236.011127 71.535364 
L 237.325997 73.550608 
L 238.640867 69.748261 
L 239.955736 67.5429 
L 241.270606 72.485951 
L 242.585475 75.033523 
L 243.900345 78.417611 
L 245.215214 71.345247 
L 246.530084 74.101948 
L 247.844954 79.767444 
L 249.159823 78.62674 
L 250.474693 78.322552 
L 251.789562 83.227579 
L 253.104432 90.604131 
L 255.734171 74.330089 
L 257.049041 77.999353 
L 258.36391 74.900441 
L 259.67878 75.33771 
L 260.993649 69.29198 
L 262.308519 69.215933 
L 263.623389 83.056474 
L 264.938258 95.166947 
L 266.253128 78.18947 
L 267.567997 74.501194 
L 268.882867 75.489804 
L 270.197736 65.698762 
L 271.512606 65.090387 
L 272.827476 62.561827 
L 274.142345 62.637873 
L 275.457215 59.348844 
L 276.772084 64.805211 
L 278.086954 59.538961 
L 279.401823 66.021962 
L 280.716693 77.543071 
L 282.031563 84.083107 
L 283.346432 82.619204 
L 284.661302 75.299687 
L 285.976171 76.934696 
L 287.291041 81.421465 
L 288.60591 84.8816 
L 289.92078 70.698848 
L 291.23565 70.128496 
L 292.550519 66.782431 
L 293.865389 53.132007 
L 296.495128 63.341308 
L 297.809997 56.839295 
L 299.124867 65.793821 
L 300.439737 72.181763 
L 301.754606 61.782346 
L 303.069476 61.744322 
L 304.384345 62.16258 
L 305.699215 61.364087 
L 307.014085 60.033266 
L 308.328954 62.656885 
L 309.643824 72.352868 
L 310.958693 67.029584 
L 312.273563 66.744408 
L 313.588432 67.124642 
L 314.903302 68.170287 
L 316.218172 57.542729 
L 317.533041 69.634191 
L 318.847911 61.250017 
L 320.16278 55.90772 
L 321.47765 48.150934 
L 322.792519 54.728993 
L 324.107389 44.424634 
L 325.422259 49.481755 
L 326.737128 49.671872 
L 328.051998 48.226981 
L 328.051998 48.226981 
" clip-path="url(#p119838ea01)" style="fill: none; stroke: #edd1cb; stroke-width: 1.5; stroke-linecap: round"/>
   </g>
   <g id="line2d_12">
    <path d="M 66.392952 283.326058 
L 67.707822 233.439273 
L 69.022691 207.773435 
L 70.337561 208.229717 
L 71.652431 201.955845 
L 72.9673 202.069916 
L 74.28217 192.24085 
L 75.597039 188.666645 
L 76.911909 194.275106 
L 78.226778 190.643865 
L 79.541648 186.385237 
L 80.856518 179.826189 
L 82.171387 181.879456 
L 83.486257 188.533563 
L 84.801126 184.655169 
L 86.115996 178.19118 
L 87.430865 181.309104 
L 88.745735 192.164803 
L 90.060605 182.620914 
L 91.375474 178.95165 
L 92.690344 176.632218 
L 94.005213 155.396114 
L 95.320083 140.966209 
L 96.634953 136.669558 
L 97.949822 124.121815 
L 99.264692 126.498281 
L 100.579561 109.387722 
L 101.894431 109.996098 
L 103.2093 99.102375 
L 104.52417 93.056645 
L 105.83904 88.037547 
L 108.468779 86.516609 
L 109.783648 86.953879 
L 111.098518 84.178166 
L 112.413387 77.7522 
L 115.043127 80.109655 
L 116.357996 86.30748 
L 117.672866 79.197092 
L 118.987735 83.037462 
L 120.302605 85.261835 
L 121.617474 82.067864 
L 122.932344 80.204714 
L 124.247214 89.444416 
L 125.562083 82.809321 
L 126.876953 78.151447 
L 128.191822 78.968951 
L 129.506692 80.261749 
L 130.821561 85.508987 
L 132.136431 84.045084 
L 133.451301 82.372051 
L 134.76617 86.364515 
L 136.08104 80.737042 
L 137.395909 79.634362 
L 138.710779 79.786456 
L 140.025648 80.432855 
L 141.340518 80.280761 
L 142.655388 85.832186 
L 143.970257 75.927074 
L 145.285127 75.77498 
L 146.599996 75.128581 
L 147.914866 75.375734 
L 149.229736 77.467024 
L 150.544605 75.489804 
L 151.859475 75.527828 
L 153.174344 79.17808 
L 154.489214 86.478585 
L 155.804083 80.508902 
L 157.118953 78.493658 
L 158.433823 77.581095 
L 159.748692 74.805382 
L 161.063562 81.820711 
L 162.378431 75.927074 
L 163.693301 76.136203 
L 165.00817 70.451695 
L 166.32304 79.691397 
L 167.63791 77.771212 
L 168.952779 76.231262 
L 170.267649 80.48989 
L 171.582518 76.193238 
L 172.897388 81.839723 
L 174.212257 81.630594 
L 175.527127 84.786541 
L 176.841997 70.090472 
L 178.156866 73.550608 
L 179.471736 73.702701 
L 180.786605 73.24642 
L 182.101475 74.919452 
L 183.416344 86.212421 
L 184.731214 90.052791 
L 186.046084 79.425233 
L 187.360953 79.273139 
L 188.675823 74.197006 
L 189.990692 75.10957 
L 191.305562 72.885197 
L 192.620431 69.120874 
L 195.250171 70.793906 
L 196.56504 70.793906 
L 197.87991 70.660824 
L 199.194779 80.965183 
L 200.509649 74.501194 
L 201.824519 71.060071 
L 203.139388 68.892733 
L 204.454258 70.489719 
L 205.769127 83.189556 
L 207.083997 84.5584 
L 208.398866 83.436708 
L 209.713736 76.250274 
L 211.028606 71.649434 
L 212.343475 78.170458 
L 213.658345 79.025986 
L 214.973214 78.474646 
L 216.288084 81.402453 
L 217.602953 83.132521 
L 218.917823 79.159069 
L 220.232693 76.32632 
L 221.547562 74.596253 
L 222.862432 74.520206 
L 224.177301 73.740725 
L 225.492171 73.79776 
L 226.80704 64.805211 
L 228.12191 61.154958 
L 229.43678 58.569363 
L 230.751649 58.683433 
L 232.066519 68.797675 
L 234.696258 70.242566 
L 236.011127 67.162666 
L 237.325997 67.352783 
L 238.640867 70.166519 
L 239.955736 75.870039 
L 241.270606 70.413672 
L 242.585475 65.831844 
L 243.900345 63.835613 
L 245.215214 64.196835 
L 246.530084 71.630423 
L 247.844954 73.208396 
L 249.159823 64.634105 
L 250.474693 60.62263 
L 251.789562 60.62263 
L 253.104432 66.592314 
L 254.419302 58.09407 
L 255.734171 60.926818 
L 257.049041 60.356466 
L 258.36391 60.394489 
L 259.67878 62.751944 
L 260.993649 60.166348 
L 262.308519 60.014254 
L 263.623389 62.124557 
L 264.938258 59.500938 
L 266.253128 62.276651 
L 267.567997 65.907891 
L 268.882867 63.246249 
L 270.197736 62.637873 
L 271.512606 59.919196 
L 272.827476 60.318442 
L 274.142345 57.846917 
L 275.457215 58.493316 
L 276.772084 58.151105 
L 278.086954 63.607472 
L 279.401823 65.489633 
L 280.716693 63.436366 
L 282.031563 64.101777 
L 283.346432 58.018023 
L 284.661302 58.702445 
L 285.976171 64.063753 
L 287.291041 59.31082 
L 288.60591 59.139715 
L 289.92078 60.489548 
L 291.23565 60.7367 
L 292.550519 66.535279 
L 293.865389 67.333771 
L 295.180258 74.577241 
L 296.495128 66.535279 
L 297.809997 65.717774 
L 299.124867 67.162666 
L 300.439737 63.208225 
L 301.754606 63.58846 
L 303.069476 67.485865 
L 304.384345 66.839466 
L 305.699215 60.907806 
L 307.014085 65.56568 
L 308.328954 65.166434 
L 309.643824 68.588546 
L 310.958693 67.31476 
L 312.273563 68.53151 
L 313.588432 64.02573 
L 314.903302 74.216018 
L 316.218172 78.284529 
L 317.533041 74.025901 
L 318.847911 75.204628 
L 320.16278 68.96878 
L 321.47765 58.987621 
L 322.792519 57.580753 
L 324.107389 63.47439 
L 325.422259 65.755798 
L 328.051998 62.409733 
L 328.051998 62.409733 
" clip-path="url(#p119838ea01)" style="fill: none; stroke: #d499a7; stroke-width: 1.5; stroke-linecap: round"/>
   </g>
   <g id="line2d_13">
    <path d="M 66.392952 285.702525 
L 67.707822 230.511467 
L 69.022691 202.640268 
L 70.337561 197.107854 
L 71.652431 208.210705 
L 72.9673 207.431224 
L 74.28217 197.735241 
L 75.597039 200.548977 
L 76.911909 199.997637 
L 78.226778 202.88742 
L 79.541648 210.340019 
L 80.856518 212.963638 
L 82.171387 201.822763 
L 83.486257 197.792276 
L 84.801126 186.556342 
L 86.115996 193.153413 
L 87.430865 180.092354 
L 88.745735 182.392773 
L 90.060605 191.119158 
L 91.375474 187.697046 
L 92.690344 189.82636 
L 94.005213 190.092525 
L 95.320083 183.362371 
L 96.634953 179.388919 
L 97.949822 179.731131 
L 100.579561 163.780288 
L 101.894431 153.418894 
L 103.2093 154.122328 
L 104.52417 154.046281 
L 105.83904 152.848542 
L 107.153909 153.93221 
L 108.468779 145.719142 
L 109.783648 145.433966 
L 111.098518 147.164034 
L 112.413387 146.688741 
L 115.043127 149.635559 
L 116.357996 153.190753 
L 117.672866 155.167973 
L 118.987735 155.928442 
L 120.302605 154.92082 
L 121.617474 152.411272 
L 122.932344 149.445442 
L 124.247214 144.103145 
L 125.562083 146.327518 
L 126.876953 144.141168 
L 128.191822 146.194435 
L 129.506692 147.106999 
L 130.821561 145.433966 
L 132.136431 144.48338 
L 133.451301 143.28564 
L 134.76617 143.000465 
L 136.08104 143.000465 
L 137.395909 145.186814 
L 138.710779 142.715289 
L 140.025648 142.715289 
L 142.655388 143.28564 
L 143.970257 146.175424 
L 145.285127 144.198204 
L 146.599996 149.160266 
L 147.914866 149.160266 
L 149.229736 152.088072 
L 150.544605 147.677351 
L 151.859475 147.677351 
L 153.174344 148.057585 
L 154.489214 148.171656 
L 155.804083 145.129778 
L 157.118953 144.616462 
L 159.748692 143.000465 
L 161.063562 143.28564 
L 162.378431 143.342676 
L 165.00817 153.551976 
L 166.32304 144.673497 
L 167.63791 146.992928 
L 168.952779 146.403565 
L 170.267649 144.996696 
L 171.582518 146.707752 
L 172.897388 143.684887 
L 174.212257 144.48338 
L 176.841997 149.274336 
L 178.156866 147.164034 
L 179.471736 150.091841 
L 180.786605 147.56328 
L 182.101475 144.768556 
L 183.416344 144.901638 
L 184.731214 142.144937 
L 186.046084 144.901638 
L 187.360953 144.901638 
L 188.675823 144.768556 
L 189.990692 144.768556 
L 191.305562 144.179192 
L 192.620431 145.795189 
L 193.935301 148.703984 
L 195.250171 150.985392 
L 199.194779 145.243849 
L 200.509649 144.16018 
L 201.824519 144.768556 
L 203.139388 143.475758 
L 204.454258 148.55189 
L 205.769127 145.110767 
L 208.398866 142.144937 
L 209.713736 144.616462 
L 211.028606 144.768556 
L 212.343475 142.487148 
L 213.658345 144.901638 
L 214.973214 144.806579 
L 216.288084 145.529025 
L 217.602953 143.0575 
L 218.917823 145.985306 
L 220.232693 145.985306 
L 221.547562 145.433966 
L 222.862432 145.433966 
L 224.177301 144.103145 
L 225.492171 142.144937 
L 228.12191 147.278104 
L 230.751649 142.144937 
L 232.066519 151.878943 
L 233.381388 143.361687 
L 234.696258 148.608925 
L 236.011127 152.848542 
L 237.325997 144.844603 
L 238.640867 146.327518 
L 239.955736 146.061353 
L 241.270606 146.973916 
L 242.585475 143.361687 
L 243.900345 143.760934 
L 245.215214 143.361687 
L 246.530084 143.361687 
L 247.844954 142.144937 
L 249.159823 142.144937 
L 250.474693 144.768556 
L 251.789562 144.236227 
L 254.419302 145.338908 
L 257.049041 150.700216 
L 258.36391 147.601304 
L 259.67878 149.958758 
L 260.993649 147.601304 
L 262.308519 150.681204 
L 263.623389 147.44921 
L 264.938258 144.616462 
L 266.253128 145.776177 
L 268.882867 152.487319 
L 270.197736 150.472075 
L 271.512606 146.783799 
L 272.827476 142.677265 
L 275.457215 142.677265 
L 276.772084 145.833213 
L 278.086954 146.365541 
L 279.401823 143.0575 
L 280.716693 147.087987 
L 282.031563 147.772409 
L 283.346432 148.00055 
L 284.661302 146.327518 
L 285.976171 147.354151 
L 287.291041 145.186814 
L 288.60591 142.677265 
L 289.92078 141.726678 
L 292.550519 141.726678 
L 293.865389 143.399711 
L 295.180258 143.0575 
L 297.809997 148.152644 
L 299.124867 150.814286 
L 300.439737 150.129864 
L 301.754606 152.791506 
L 303.069476 149.160266 
L 304.384345 153.019647 
L 305.699215 153.856163 
L 307.014085 147.88648 
L 308.328954 148.228691 
L 309.643824 150.85231 
L 310.958693 150.814286 
L 312.273563 144.312274 
L 313.588432 144.464368 
L 314.903302 149.464453 
L 316.218172 150.795275 
L 317.533041 146.1374 
L 318.847911 147.030952 
L 320.16278 148.513867 
L 321.47765 146.498623 
L 322.792519 145.110767 
L 324.107389 148.780031 
L 325.422259 150.281958 
L 326.737128 145.70013 
L 328.051998 145.015708 
L 328.051998 145.015708 
" clip-path="url(#p119838ea01)" style="fill: none; stroke: #a9678f; stroke-width: 1.5; stroke-linecap: round"/>
   </g>
   <g id="line2d_14">
    <path d="M 66.392952 296.8434 
L 67.707822 280.436275 
L 69.022691 269.314412 
L 70.337561 261.633672 
L 71.652431 246.690451 
L 72.9673 238.002089 
L 74.28217 232.051417 
L 75.597039 218.458029 
L 76.911909 212.65945 
L 78.226778 203.229631 
L 79.541648 200.720083 
L 80.856518 186.537331 
L 82.171387 194.959528 
L 86.115996 168.666303 
L 87.430865 165.624426 
L 88.745735 157.601475 
L 90.060605 158.133803 
L 91.375474 164.940003 
L 92.690344 162.772666 
L 94.005213 167.012282 
L 95.320083 165.548379 
L 96.634953 175.282385 
L 97.949822 164.312616 
L 99.264692 169.464795 
L 100.579561 162.05022 
L 101.894431 153.494941 
L 103.2093 154.103316 
L 104.52417 155.396114 
L 105.83904 159.407589 
L 107.153909 157.088158 
L 108.468779 151.384638 
L 109.783648 149.293348 
L 111.098518 144.616462 
L 112.413387 144.198204 
L 113.728257 141.346444 
L 115.043127 146.973916 
L 116.357996 145.281872 
L 117.672866 145.262861 
L 118.987735 140.909174 
L 120.302605 144.426344 
L 121.617474 142.829359 
L 122.932344 141.916796 
L 124.247214 142.430113 
L 125.562083 143.28564 
L 126.876953 152.563366 
L 128.191822 144.274251 
L 129.506692 147.848456 
L 130.821561 141.859761 
L 132.136431 141.783714 
L 133.451301 140.795104 
L 134.76617 155.700301 
L 136.08104 145.719142 
L 137.395909 142.18296 
L 138.710779 148.475843 
L 140.025648 146.536647 
L 141.340518 141.213362 
L 142.655388 143.589828 
L 143.970257 142.943429 
L 145.285127 142.544183 
L 146.599996 154.882797 
L 147.914866 145.186814 
L 149.229736 144.977685 
L 150.544605 143.209594 
L 151.859475 140.414869 
L 153.174344 135.300713 
L 154.489214 139.6544 
L 155.804083 136.080194 
L 157.118953 142.06889 
L 158.433823 143.038488 
L 159.748692 139.426259 
L 161.063562 139.407247 
L 162.378431 138.969977 
L 163.693301 136.36537 
L 165.00817 135.852053 
L 167.63791 124.197862 
L 168.952779 131.783543 
L 170.267649 122.886052 
L 171.582518 126.650375 
L 172.897388 134.426173 
L 174.212257 127.277762 
L 175.527127 125.471648 
L 176.841997 123.874662 
L 178.156866 119.425917 
L 179.471736 116.231946 
L 180.786605 115.94677 
L 182.101475 118.285213 
L 183.416344 121.194008 
L 184.731214 121.76436 
L 186.046084 115.357406 
L 187.360953 120.243421 
L 188.675823 119.863187 
L 189.990692 119.102717 
L 191.305562 118.874577 
L 192.620431 120.566621 
L 193.935301 118.114107 
L 195.250171 119.46394 
L 196.56504 118.722483 
L 197.87991 117.771896 
L 199.194779 125.680777 
L 200.509649 117.37265 
L 201.824519 126.821481 
L 203.139388 121.688313 
L 204.454258 129.159924 
L 205.769127 130.262604 
L 207.083997 119.102717 
L 208.398866 126.27014 
L 209.713736 126.517293 
L 211.028606 126.003976 
L 212.343475 124.159838 
L 213.658345 133.912857 
L 214.973214 127.448868 
L 216.288084 125.927929 
L 217.602953 122.372735 
L 218.917823 130.072487 
L 220.232693 127.829102 
L 221.547562 128.228349 
L 222.862432 129.026842 
L 224.177301 138.969977 
L 225.492171 136.536476 
L 226.80704 134.464197 
L 228.12191 123.228263 
L 229.43678 125.110425 
L 230.751649 120.471562 
L 232.066519 124.273909 
L 233.381388 124.521061 
L 236.011127 127.657997 
L 237.325997 124.787225 
L 238.640867 125.072401 
L 239.955736 130.528768 
L 241.270606 123.057158 
L 242.585475 125.433624 
L 243.900345 127.049621 
L 245.215214 119.387893 
L 246.530084 119.673069 
L 247.844954 122.829017 
L 249.159823 121.155984 
L 250.474693 122.790993 
L 251.789562 126.213105 
L 253.104432 127.753055 
L 254.419302 125.60473 
L 255.734171 129.273994 
L 257.049041 124.901296 
L 258.36391 127.657997 
L 259.67878 114.63496 
L 260.993649 116.859333 
L 262.308519 113.247104 
L 263.623389 113.209081 
L 266.253128 125.376589 
L 267.567997 129.502135 
L 268.882867 128.969806 
L 270.197736 127.353809 
L 271.512606 123.703557 
L 272.827476 115.5095 
L 274.142345 125.414612 
L 275.457215 114.787054 
L 276.772084 115.452465 
L 278.086954 115.300371 
L 279.401823 111.574072 
L 282.031563 115.07223 
L 283.346432 115.281359 
L 284.661302 112.258494 
L 285.976171 115.965782 
L 287.291041 111.383954 
L 289.92078 124.901296 
L 291.23565 120.110339 
L 292.550519 122.353724 
L 293.865389 128.266372 
L 295.180258 120.490574 
L 296.495128 133.342505 
L 297.809997 121.022902 
L 300.439737 126.821481 
L 301.754606 112.942916 
L 303.069476 117.37265 
L 304.384345 113.817456 
L 305.699215 112.068377 
L 307.014085 123.323322 
L 308.328954 120.680691 
L 309.643824 124.578096 
L 310.958693 125.528683 
L 312.273563 129.768299 
L 313.588432 125.395601 
L 314.903302 133.798786 
L 316.218172 130.604815 
L 317.533041 142.753312 
L 318.847911 132.125754 
L 320.16278 128.665619 
L 321.47765 132.486977 
L 322.792519 139.027013 
L 324.107389 141.802725 
L 325.422259 128.665619 
L 326.737128 129.197947 
L 328.051998 130.129522 
L 328.051998 130.129522 
" clip-path="url(#p119838ea01)" style="fill: none; stroke: #6c3f70; stroke-width: 1.5; stroke-linecap: round"/>
   </g>
   <g id="line2d_15">
    <path d="M 66.392952 299.448007 
L 67.707822 252.184841 
L 69.022691 212.773521 
L 70.337561 188.742692 
L 71.652431 194.636329 
L 72.9673 191.765557 
L 74.28217 197.754253 
L 75.597039 197.735241 
L 76.911909 193.457601 
L 78.226778 192.545038 
L 79.541648 190.967064 
L 80.856518 192.944284 
L 82.171387 195.64395 
L 83.486257 184.617146 
L 84.801126 189.655255 
L 86.115996 192.221839 
L 87.430865 182.658937 
L 88.745735 186.879542 
L 90.060605 178.001063 
L 91.375474 172.449637 
L 92.690344 174.750057 
L 94.005213 183.628536 
L 95.320083 174.255752 
L 96.634953 173.400224 
L 97.949822 180.643694 
L 99.264692 186.727448 
L 100.579561 186.708436 
L 101.894431 181.632304 
L 104.52417 169.807007 
L 105.83904 173.267142 
L 107.153909 172.905919 
L 108.468779 173.704412 
L 109.783648 189.370079 
L 111.098518 183.647547 
L 112.413387 169.807007 
L 113.728257 168.495197 
L 115.043127 164.426686 
L 116.357996 175.700643 
L 117.672866 175.852737 
L 118.987735 191.670498 
L 121.617474 183.514465 
L 122.932344 179.959271 
L 124.247214 185.358603 
L 125.562083 174.331799 
L 126.876953 187.506929 
L 128.191822 183.628536 
L 129.506692 178.989673 
L 130.821561 174.864127 
L 132.136431 181.974515 
L 133.451301 176.822336 
L 134.76617 169.521831 
L 136.08104 182.90609 
L 137.395909 184.731216 
L 138.710779 178.970661 
L 140.025648 176.404078 
L 141.340518 183.34336 
L 142.655388 181.385151 
L 143.970257 170.966722 
L 145.285127 168.152986 
L 146.599996 169.350725 
L 147.914866 162.658595 
L 149.229736 161.232715 
L 150.544605 163.609182 
L 153.174344 180.453576 
L 154.489214 174.027611 
L 155.804083 165.301226 
L 157.118953 170.510441 
L 158.433823 176.442101 
L 159.748692 177.012453 
L 161.063562 172.772837 
L 162.378431 175.795702 
L 163.693301 161.574927 
L 165.00817 164.730874 
L 166.32304 163.875346 
L 167.63791 166.061695 
L 168.952779 170.339335 
L 170.267649 175.149303 
L 171.582518 177.715887 
L 172.897388 175.567561 
L 174.212257 176.137913 
L 175.527127 166.556 
L 176.841997 172.050391 
L 178.156866 172.829872 
L 179.471736 180.852823 
L 180.786605 171.917309 
L 182.101475 169.464795 
L 183.416344 175.66262 
L 184.731214 179.712119 
L 186.046084 172.487661 
L 187.360953 172.088414 
L 188.675823 176.290007 
L 189.990692 177.944028 
L 191.305562 170.605499 
L 192.620431 167.810775 
L 193.935301 167.259435 
L 195.250171 172.506673 
L 196.56504 175.320409 
L 197.87991 165.054074 
L 199.194779 173.951564 
L 200.509649 173.951564 
L 201.824519 165.396285 
L 203.139388 164.483722 
L 204.454258 158.742179 
L 205.769127 148.799043 
L 207.083997 145.643095 
L 208.398866 148.076597 
L 209.713736 145.757166 
L 211.028606 149.31236 
L 212.343475 150.85231 
L 213.658345 132.715118 
L 214.973214 138.209508 
L 216.288084 141.859761 
L 217.602953 151.479697 
L 218.917823 155.966466 
L 220.232693 150.167887 
L 221.547562 155.415125 
L 222.862432 133.285469 
L 224.177301 140.566963 
L 225.492171 138.399625 
L 226.80704 139.939576 
L 228.12191 131.004062 
L 229.43678 133.817798 
L 230.751649 132.372906 
L 232.066519 129.273994 
L 233.381388 124.102803 
L 234.696258 130.11051 
L 236.011127 123.361345 
L 237.325997 126.15607 
L 238.640867 122.657911 
L 239.955736 130.414698 
L 241.270606 116.93538 
L 242.585475 118.380272 
L 243.900345 128.380443 
L 245.215214 118.152131 
L 246.530084 134.559256 
L 247.844954 134.597279 
L 249.159823 130.015452 
L 250.474693 124.140826 
L 251.789562 120.22441 
L 253.104432 126.688398 
L 254.419302 123.513439 
L 255.734171 115.851711 
L 257.049041 126.365199 
L 258.36391 122.353724 
L 259.67878 130.889991 
L 260.993649 126.403222 
L 262.308519 118.000037 
L 263.623389 114.178679 
L 264.938258 125.60473 
L 266.253128 117.733873 
L 267.567997 111.041743 
L 268.882867 118.665448 
L 270.197736 120.053304 
L 271.512606 113.817456 
L 272.827476 111.022731 
L 274.142345 119.406905 
L 275.457215 115.547524 
L 276.772084 119.140741 
L 278.086954 116.555145 
L 279.401823 110.376332 
L 280.716693 120.566621 
L 282.031563 114.235714 
L 283.346432 111.326919 
L 284.661302 117.277591 
L 285.976171 116.707239 
L 287.291041 122.86704 
L 288.60591 115.8327 
L 289.92078 120.015281 
L 291.23565 124.84426 
L 292.550519 111.098778 
L 293.865389 116.117875 
L 295.180258 125.205483 
L 296.495128 118.9126 
L 297.809997 109.159582 
L 299.124867 112.619717 
L 300.439737 106.003634 
L 301.754606 103.151874 
L 303.069476 101.592912 
L 305.699215 109.007488 
L 307.014085 113.456233 
L 308.328954 115.984793 
L 309.643824 116.288981 
L 310.958693 110.12918 
L 312.273563 119.444929 
L 313.588432 118.760506 
L 314.903302 122.239653 
L 316.218172 114.63496 
L 317.533041 118.190154 
L 318.847911 113.798444 
L 320.16278 111.364943 
L 321.47765 109.824992 
L 322.792519 120.680691 
L 324.107389 119.425917 
L 325.422259 113.722397 
L 326.737128 122.86704 
L 328.051998 115.604559 
L 328.051998 115.604559 
" clip-path="url(#p119838ea01)" style="fill: none; stroke: #2d1e3e; stroke-width: 1.5; stroke-linecap: round"/>
   </g>
   <g id="line2d_16"/>
   <g id="line2d_17"/>
   <g id="line2d_18"/>
   <g id="line2d_19"/>
   <g id="line2d_20"/>
   <g id="patch_3">
    <path d="M 53.31 319.138125 
L 53.31 22.318125 
" style="fill: none; stroke: #ffffff; stroke-width: 1.25; stroke-linejoin: miter; stroke-linecap: square"/>
   </g>
   <g id="patch_4">
    <path d="M 53.31 319.138125 
L 341.13495 319.138125 
" style="fill: none; stroke: #ffffff; stroke-width: 1.25; stroke-linejoin: miter; stroke-linecap: square"/>
   </g>
   <g id="text_13">
    <!-- Stamp For Still Life -->
    <g style="fill: #262626" transform="translate(140.6631 16.318125)scale(0.12 -0.12)">
     <defs>
      <path id="DejaVuSans-53" d="M 3425 4513 
L 3425 3897 
Q 3066 4069 2747 4153 
Q 2428 4238 2131 4238 
Q 1616 4238 1336 4038 
Q 1056 3838 1056 3469 
Q 1056 3159 1242 3001 
Q 1428 2844 1947 2747 
L 2328 2669 
Q 3034 2534 3370 2195 
Q 3706 1856 3706 1288 
Q 3706 609 3251 259 
Q 2797 -91 1919 -91 
Q 1588 -91 1214 -16 
Q 841 59 441 206 
L 441 856 
Q 825 641 1194 531 
Q 1563 422 1919 422 
Q 2459 422 2753 634 
Q 3047 847 3047 1241 
Q 3047 1584 2836 1778 
Q 2625 1972 2144 2069 
L 1759 2144 
Q 1053 2284 737 2584 
Q 422 2884 422 3419 
Q 422 4038 858 4394 
Q 1294 4750 2059 4750 
Q 2388 4750 2728 4690 
Q 3069 4631 3425 4513 
z
" transform="scale(0.015625)"/>
      <path id="DejaVuSans-6d" d="M 3328 2828 
Q 3544 3216 3844 3400 
Q 4144 3584 4550 3584 
Q 5097 3584 5394 3201 
Q 5691 2819 5691 2113 
L 5691 0 
L 5113 0 
L 5113 2094 
Q 5113 2597 4934 2840 
Q 4756 3084 4391 3084 
Q 3944 3084 3684 2787 
Q 3425 2491 3425 1978 
L 3425 0 
L 2847 0 
L 2847 2094 
Q 2847 2600 2669 2842 
Q 2491 3084 2119 3084 
Q 1678 3084 1418 2786 
Q 1159 2488 1159 1978 
L 1159 0 
L 581 0 
L 581 3500 
L 1159 3500 
L 1159 2956 
Q 1356 3278 1631 3431 
Q 1906 3584 2284 3584 
Q 2666 3584 2933 3390 
Q 3200 3197 3328 2828 
z
" transform="scale(0.015625)"/>
      <path id="DejaVuSans-70" d="M 1159 525 
L 1159 -1331 
L 581 -1331 
L 581 3500 
L 1159 3500 
L 1159 2969 
Q 1341 3281 1617 3432 
Q 1894 3584 2278 3584 
Q 2916 3584 3314 3078 
Q 3713 2572 3713 1747 
Q 3713 922 3314 415 
Q 2916 -91 2278 -91 
Q 1894 -91 1617 61 
Q 1341 213 1159 525 
z
M 3116 1747 
Q 3116 2381 2855 2742 
Q 2594 3103 2138 3103 
Q 1681 3103 1420 2742 
Q 1159 2381 1159 1747 
Q 1159 1113 1420 752 
Q 1681 391 2138 391 
Q 2594 391 2855 752 
Q 3116 1113 3116 1747 
z
" transform="scale(0.015625)"/>
      <path id="DejaVuSans-20" transform="scale(0.015625)"/>
      <path id="DejaVuSans-6c" d="M 603 4863 
L 1178 4863 
L 1178 0 
L 603 0 
L 603 4863 
z
" transform="scale(0.015625)"/>
      <path id="DejaVuSans-4c" d="M 628 4666 
L 1259 4666 
L 1259 531 
L 3531 531 
L 3531 0 
L 628 0 
L 628 4666 
z
" transform="scale(0.015625)"/>
      <path id="DejaVuSans-66" d="M 2375 4863 
L 2375 4384 
L 1825 4384 
Q 1516 4384 1395 4259 
Q 1275 4134 1275 3809 
L 1275 3500 
L 2222 3500 
L 2222 3053 
L 1275 3053 
L 1275 0 
L 697 0 
L 697 3053 
L 147 3053 
L 147 3500 
L 697 3500 
L 697 3744 
Q 697 4328 969 4595 
Q 1241 4863 1831 4863 
L 2375 4863 
z
" transform="scale(0.015625)"/>
     </defs>
     <use xlink:href="#DejaVuSans-53"/>
     <use xlink:href="#DejaVuSans-74" x="63.476562"/>
     <use xlink:href="#DejaVuSans-61" x="102.685547"/>
     <use xlink:href="#DejaVuSans-6d" x="163.964844"/>
     <use xlink:href="#DejaVuSans-70" x="261.376953"/>
     <use xlink:href="#DejaVuSans-20" x="324.853516"/>
     <use xlink:href="#DejaVuSans-46" x="356.640625"/>
     <use xlink:href="#DejaVuSans-6f" x="410.535156"/>
     <use xlink:href="#DejaVuSans-72" x="471.716797"/>
     <use xlink:href="#DejaVuSans-20" x="512.830078"/>
     <use xlink:href="#DejaVuSans-53" x="544.617188"/>
     <use xlink:href="#DejaVuSans-74" x="608.09375"/>
     <use xlink:href="#DejaVuSans-69" x="647.302734"/>
     <use xlink:href="#DejaVuSans-6c" x="675.085938"/>
     <use xlink:href="#DejaVuSans-6c" x="702.869141"/>
     <use xlink:href="#DejaVuSans-20" x="730.652344"/>
     <use xlink:href="#DejaVuSans-4c" x="762.439453"/>
     <use xlink:href="#DejaVuSans-69" x="818.152344"/>
     <use xlink:href="#DejaVuSans-66" x="845.935547"/>
     <use xlink:href="#DejaVuSans-65" x="881.140625"/>
    </g>
   </g>
  </g>
  <g id="legend_1">
   <g id="text_14">
    <!-- Trial -->
    <g style="fill: #262626" transform="translate(352.4649 143.995312)scale(0.12 -0.12)">
     <defs>
      <path id="DejaVuSans-54" d="M -19 4666 
L 3928 4666 
L 3928 4134 
L 2272 4134 
L 2272 0 
L 1638 0 
L 1638 4134 
L -19 4134 
L -19 4666 
z
" transform="scale(0.015625)"/>
     </defs>
     <use xlink:href="#DejaVuSans-54"/>
     <use xlink:href="#DejaVuSans-72" x="46.333984"/>
     <use xlink:href="#DejaVuSans-69" x="87.447266"/>
     <use xlink:href="#DejaVuSans-61" x="115.230469"/>
     <use xlink:href="#DejaVuSans-6c" x="176.509766"/>
    </g>
   </g>
   <g id="line2d_21">
    <path d="M 345.8224 156.499219 
L 356.8224 156.499219 
L 367.8224 156.499219 
" style="fill: none; stroke: #edd1cb; stroke-width: 1.5; stroke-linecap: round"/>
   </g>
   <g id="text_15">
    <!-- 0 -->
    <g style="fill: #262626" transform="translate(376.6224 160.349219)scale(0.11 -0.11)">
     <use xlink:href="#DejaVuSans-30"/>
    </g>
   </g>
   <g id="line2d_22">
    <path d="M 345.8224 172.645156 
L 356.8224 172.645156 
L 367.8224 172.645156 
" style="fill: none; stroke: #d499a7; stroke-width: 1.5; stroke-linecap: round"/>
   </g>
   <g id="text_16">
    <!-- 1 -->
    <g style="fill: #262626" transform="translate(376.6224 176.495156)scale(0.11 -0.11)">
     <use xlink:href="#DejaVuSans-31"/>
    </g>
   </g>
   <g id="line2d_23">
    <path d="M 345.8224 188.791094 
L 356.8224 188.791094 
L 367.8224 188.791094 
" style="fill: none; stroke: #a9678f; stroke-width: 1.5; stroke-linecap: round"/>
   </g>
   <g id="text_17">
    <!-- 2 -->
    <g style="fill: #262626" transform="translate(376.6224 192.641094)scale(0.11 -0.11)">
     <use xlink:href="#DejaVuSans-32"/>
    </g>
   </g>
   <g id="line2d_24">
    <path d="M 345.8224 204.937031 
L 356.8224 204.937031 
L 367.8224 204.937031 
" style="fill: none; stroke: #6c3f70; stroke-width: 1.5; stroke-linecap: round"/>
   </g>
   <g id="text_18">
    <!-- 3 -->
    <g style="fill: #262626" transform="translate(376.6224 208.787031)scale(0.11 -0.11)">
     <use xlink:href="#DejaVuSans-33"/>
    </g>
   </g>
   <g id="line2d_25">
    <path d="M 345.8224 221.082969 
L 356.8224 221.082969 
L 367.8224 221.082969 
" style="fill: none; stroke: #2d1e3e; stroke-width: 1.5; stroke-linecap: round"/>
   </g>
   <g id="text_19">
    <!-- 4 -->
    <g style="fill: #262626" transform="translate(376.6224 224.932969)scale(0.11 -0.11)">
     <use xlink:href="#DejaVuSans-34"/>
    </g>
   </g>
  </g>
 </g>
 <defs>
  <clipPath id="p119838ea01">
   <rect x="53.31" y="22.318125" width="287.82495" height="296.82"/>
  </clipPath>
 </defs>
</svg>
