<?xml version="1.0" encoding="utf-8" standalone="no"?>
<!DOCTYPE svg PUBLIC "-//W3C//DTD SVG 1.1//EN"
  "http://www.w3.org/Graphics/SVG/1.1/DTD/svg11.dtd">
<svg xmlns:xlink="http://www.w3.org/1999/xlink" width="391.965435pt" height="362.097812pt" viewBox="0 0 391.965435 362.097812" xmlns="http://www.w3.org/2000/svg" version="1.1">
 <metadata>
  <rdf:RDF xmlns:dc="http://purl.org/dc/elements/1.1/" xmlns:cc="http://creativecommons.org/ns#" xmlns:rdf="http://www.w3.org/1999/02/22-rdf-syntax-ns#">
   <cc:Work>
    <dc:type rdf:resource="http://purl.org/dc/dcmitype/StillImage"/>
    <dc:date>2022-11-20T08:26:51.040875</dc:date>
    <dc:format>image/svg+xml</dc:format>
    <dc:creator>
     <cc:Agent>
      <dc:title>Matplotlib v3.5.2, https://matplotlib.org/</dc:title>
     </cc:Agent>
    </dc:creator>
   </cc:Work>
  </rdf:RDF>
 </metadata>
 <defs>
  <style type="text/css">*{stroke-linejoin: round; stroke-linecap: butt}</style>
 </defs>
 <g id="figure_1">
  <g id="patch_1">
   <path d="M 0 362.097812 
L 391.965435 362.097812 
L 391.965435 0 
L 0 0 
z
" style="fill: #ffffff"/>
  </g>
  <g id="axes_1">
   <g id="patch_2">
    <path d="M 67.3075 319.138125 
L 339.579235 319.138125 
L 339.579235 22.318125 
L 67.3075 22.318125 
z
" style="fill: #eaeaf2"/>
   </g>
   <g id="matplotlib.axis_1">
    <g id="xtick_1">
     <g id="line2d_1">
      <path d="M 79.683488 319.138125 
L 79.683488 22.318125 
" clip-path="url(#pd2baa0fd7b)" style="fill: none; stroke: #ffffff; stroke-linecap: round"/>
     </g>
     <g id="text_1">
      <!-- 0 -->
      <g style="fill: #262626" transform="translate(76.184113 336.996406)scale(0.11 -0.11)">
       <defs>
        <path id="DejaVuSans-30" d="M 2034 4250 
Q 1547 4250 1301 3770 
Q 1056 3291 1056 2328 
Q 1056 1369 1301 889 
Q 1547 409 2034 409 
Q 2525 409 2770 889 
Q 3016 1369 3016 2328 
Q 3016 3291 2770 3770 
Q 2525 4250 2034 4250 
z
M 2034 4750 
Q 2819 4750 3233 4129 
Q 3647 3509 3647 2328 
Q 3647 1150 3233 529 
Q 2819 -91 2034 -91 
Q 1250 -91 836 529 
Q 422 1150 422 2328 
Q 422 3509 836 4129 
Q 1250 4750 2034 4750 
z
" transform="scale(0.015625)"/>
       </defs>
       <use xlink:href="#DejaVuSans-30"/>
      </g>
     </g>
    </g>
    <g id="xtick_2">
     <g id="line2d_2">
      <path d="M 141.874382 319.138125 
L 141.874382 22.318125 
" clip-path="url(#pd2baa0fd7b)" style="fill: none; stroke: #ffffff; stroke-linecap: round"/>
     </g>
     <g id="text_2">
      <!-- 50 -->
      <g style="fill: #262626" transform="translate(134.875632 336.996406)scale(0.11 -0.11)">
       <defs>
        <path id="DejaVuSans-35" d="M 691 4666 
L 3169 4666 
L 3169 4134 
L 1269 4134 
L 1269 2991 
Q 1406 3038 1543 3061 
Q 1681 3084 1819 3084 
Q 2600 3084 3056 2656 
Q 3513 2228 3513 1497 
Q 3513 744 3044 326 
Q 2575 -91 1722 -91 
Q 1428 -91 1123 -41 
Q 819 9 494 109 
L 494 744 
Q 775 591 1075 516 
Q 1375 441 1709 441 
Q 2250 441 2565 725 
Q 2881 1009 2881 1497 
Q 2881 1984 2565 2268 
Q 2250 2553 1709 2553 
Q 1456 2553 1204 2497 
Q 953 2441 691 2322 
L 691 4666 
z
" transform="scale(0.015625)"/>
       </defs>
       <use xlink:href="#DejaVuSans-35"/>
       <use xlink:href="#DejaVuSans-30" x="63.623047"/>
      </g>
     </g>
    </g>
    <g id="xtick_3">
     <g id="line2d_3">
      <path d="M 204.065276 319.138125 
L 204.065276 22.318125 
" clip-path="url(#pd2baa0fd7b)" style="fill: none; stroke: #ffffff; stroke-linecap: round"/>
     </g>
     <g id="text_3">
      <!-- 100 -->
      <g style="fill: #262626" transform="translate(193.567151 336.996406)scale(0.11 -0.11)">
       <defs>
        <path id="DejaVuSans-31" d="M 794 531 
L 1825 531 
L 1825 4091 
L 703 3866 
L 703 4441 
L 1819 4666 
L 2450 4666 
L 2450 531 
L 3481 531 
L 3481 0 
L 794 0 
L 794 531 
z
" transform="scale(0.015625)"/>
       </defs>
       <use xlink:href="#DejaVuSans-31"/>
       <use xlink:href="#DejaVuSans-30" x="63.623047"/>
       <use xlink:href="#DejaVuSans-30" x="127.246094"/>
      </g>
     </g>
    </g>
    <g id="xtick_4">
     <g id="line2d_4">
      <path d="M 266.256171 319.138125 
L 266.256171 22.318125 
" clip-path="url(#pd2baa0fd7b)" style="fill: none; stroke: #ffffff; stroke-linecap: round"/>
     </g>
     <g id="text_4">
      <!-- 150 -->
      <g style="fill: #262626" transform="translate(255.758046 336.996406)scale(0.11 -0.11)">
       <use xlink:href="#DejaVuSans-31"/>
       <use xlink:href="#DejaVuSans-35" x="63.623047"/>
       <use xlink:href="#DejaVuSans-30" x="127.246094"/>
      </g>
     </g>
    </g>
    <g id="xtick_5">
     <g id="line2d_5">
      <path d="M 328.447065 319.138125 
L 328.447065 22.318125 
" clip-path="url(#pd2baa0fd7b)" style="fill: none; stroke: #ffffff; stroke-linecap: round"/>
     </g>
     <g id="text_5">
      <!-- 200 -->
      <g style="fill: #262626" transform="translate(317.94894 336.996406)scale(0.11 -0.11)">
       <defs>
        <path id="DejaVuSans-32" d="M 1228 531 
L 3431 531 
L 3431 0 
L 469 0 
L 469 531 
Q 828 903 1448 1529 
Q 2069 2156 2228 2338 
Q 2531 2678 2651 2914 
Q 2772 3150 2772 3378 
Q 2772 3750 2511 3984 
Q 2250 4219 1831 4219 
Q 1534 4219 1204 4116 
Q 875 4013 500 3803 
L 500 4441 
Q 881 4594 1212 4672 
Q 1544 4750 1819 4750 
Q 2544 4750 2975 4387 
Q 3406 4025 3406 3419 
Q 3406 3131 3298 2873 
Q 3191 2616 2906 2266 
Q 2828 2175 2409 1742 
Q 1991 1309 1228 531 
z
" transform="scale(0.015625)"/>
       </defs>
       <use xlink:href="#DejaVuSans-32"/>
       <use xlink:href="#DejaVuSans-30" x="63.623047"/>
       <use xlink:href="#DejaVuSans-30" x="127.246094"/>
      </g>
     </g>
    </g>
    <g id="text_6">
     <!-- Generation -->
     <g style="fill: #262626" transform="translate(169.971805 352.402187)scale(0.12 -0.12)">
      <defs>
       <path id="DejaVuSans-47" d="M 3809 666 
L 3809 1919 
L 2778 1919 
L 2778 2438 
L 4434 2438 
L 4434 434 
Q 4069 175 3628 42 
Q 3188 -91 2688 -91 
Q 1594 -91 976 548 
Q 359 1188 359 2328 
Q 359 3472 976 4111 
Q 1594 4750 2688 4750 
Q 3144 4750 3555 4637 
Q 3966 4525 4313 4306 
L 4313 3634 
Q 3963 3931 3569 4081 
Q 3175 4231 2741 4231 
Q 1884 4231 1454 3753 
Q 1025 3275 1025 2328 
Q 1025 1384 1454 906 
Q 1884 428 2741 428 
Q 3075 428 3337 486 
Q 3600 544 3809 666 
z
" transform="scale(0.015625)"/>
       <path id="DejaVuSans-65" d="M 3597 1894 
L 3597 1613 
L 953 1613 
Q 991 1019 1311 708 
Q 1631 397 2203 397 
Q 2534 397 2845 478 
Q 3156 559 3463 722 
L 3463 178 
Q 3153 47 2828 -22 
Q 2503 -91 2169 -91 
Q 1331 -91 842 396 
Q 353 884 353 1716 
Q 353 2575 817 3079 
Q 1281 3584 2069 3584 
Q 2775 3584 3186 3129 
Q 3597 2675 3597 1894 
z
M 3022 2063 
Q 3016 2534 2758 2815 
Q 2500 3097 2075 3097 
Q 1594 3097 1305 2825 
Q 1016 2553 972 2059 
L 3022 2063 
z
" transform="scale(0.015625)"/>
       <path id="DejaVuSans-6e" d="M 3513 2113 
L 3513 0 
L 2938 0 
L 2938 2094 
Q 2938 2591 2744 2837 
Q 2550 3084 2163 3084 
Q 1697 3084 1428 2787 
Q 1159 2491 1159 1978 
L 1159 0 
L 581 0 
L 581 3500 
L 1159 3500 
L 1159 2956 
Q 1366 3272 1645 3428 
Q 1925 3584 2291 3584 
Q 2894 3584 3203 3211 
Q 3513 2838 3513 2113 
z
" transform="scale(0.015625)"/>
       <path id="DejaVuSans-72" d="M 2631 2963 
Q 2534 3019 2420 3045 
Q 2306 3072 2169 3072 
Q 1681 3072 1420 2755 
Q 1159 2438 1159 1844 
L 1159 0 
L 581 0 
L 581 3500 
L 1159 3500 
L 1159 2956 
Q 1341 3275 1631 3429 
Q 1922 3584 2338 3584 
Q 2397 3584 2469 3576 
Q 2541 3569 2628 3553 
L 2631 2963 
z
" transform="scale(0.015625)"/>
       <path id="DejaVuSans-61" d="M 2194 1759 
Q 1497 1759 1228 1600 
Q 959 1441 959 1056 
Q 959 750 1161 570 
Q 1363 391 1709 391 
Q 2188 391 2477 730 
Q 2766 1069 2766 1631 
L 2766 1759 
L 2194 1759 
z
M 3341 1997 
L 3341 0 
L 2766 0 
L 2766 531 
Q 2569 213 2275 61 
Q 1981 -91 1556 -91 
Q 1019 -91 701 211 
Q 384 513 384 1019 
Q 384 1609 779 1909 
Q 1175 2209 1959 2209 
L 2766 2209 
L 2766 2266 
Q 2766 2663 2505 2880 
Q 2244 3097 1772 3097 
Q 1472 3097 1187 3025 
Q 903 2953 641 2809 
L 641 3341 
Q 956 3463 1253 3523 
Q 1550 3584 1831 3584 
Q 2591 3584 2966 3190 
Q 3341 2797 3341 1997 
z
" transform="scale(0.015625)"/>
       <path id="DejaVuSans-74" d="M 1172 4494 
L 1172 3500 
L 2356 3500 
L 2356 3053 
L 1172 3053 
L 1172 1153 
Q 1172 725 1289 603 
Q 1406 481 1766 481 
L 2356 481 
L 2356 0 
L 1766 0 
Q 1100 0 847 248 
Q 594 497 594 1153 
L 594 3053 
L 172 3053 
L 172 3500 
L 594 3500 
L 594 4494 
L 1172 4494 
z
" transform="scale(0.015625)"/>
       <path id="DejaVuSans-69" d="M 603 3500 
L 1178 3500 
L 1178 0 
L 603 0 
L 603 3500 
z
M 603 4863 
L 1178 4863 
L 1178 4134 
L 603 4134 
L 603 4863 
z
" transform="scale(0.015625)"/>
       <path id="DejaVuSans-6f" d="M 1959 3097 
Q 1497 3097 1228 2736 
Q 959 2375 959 1747 
Q 959 1119 1226 758 
Q 1494 397 1959 397 
Q 2419 397 2687 759 
Q 2956 1122 2956 1747 
Q 2956 2369 2687 2733 
Q 2419 3097 1959 3097 
z
M 1959 3584 
Q 2709 3584 3137 3096 
Q 3566 2609 3566 1747 
Q 3566 888 3137 398 
Q 2709 -91 1959 -91 
Q 1206 -91 779 398 
Q 353 888 353 1747 
Q 353 2609 779 3096 
Q 1206 3584 1959 3584 
z
" transform="scale(0.015625)"/>
      </defs>
      <use xlink:href="#DejaVuSans-47"/>
      <use xlink:href="#DejaVuSans-65" x="77.490234"/>
      <use xlink:href="#DejaVuSans-6e" x="139.013672"/>
      <use xlink:href="#DejaVuSans-65" x="202.392578"/>
      <use xlink:href="#DejaVuSans-72" x="263.916016"/>
      <use xlink:href="#DejaVuSans-61" x="305.029297"/>
      <use xlink:href="#DejaVuSans-74" x="366.308594"/>
      <use xlink:href="#DejaVuSans-69" x="405.517578"/>
      <use xlink:href="#DejaVuSans-6f" x="433.300781"/>
      <use xlink:href="#DejaVuSans-6e" x="494.482422"/>
     </g>
    </g>
   </g>
   <g id="matplotlib.axis_2">
    <g id="ytick_1">
     <g id="line2d_6">
      <path d="M 67.3075 305.64805 
L 339.579235 305.64805 
" clip-path="url(#pd2baa0fd7b)" style="fill: none; stroke: #ffffff; stroke-linecap: round"/>
     </g>
     <g id="text_7">
      <!-- 0 -->
      <g style="fill: #262626" transform="translate(50.80875 309.827191)scale(0.11 -0.11)">
       <use xlink:href="#DejaVuSans-30"/>
      </g>
     </g>
    </g>
    <g id="ytick_2">
     <g id="line2d_7">
      <path d="M 67.3075 268.449525 
L 339.579235 268.449525 
" clip-path="url(#pd2baa0fd7b)" style="fill: none; stroke: #ffffff; stroke-linecap: round"/>
     </g>
     <g id="text_8">
      <!-- 2000 -->
      <g style="fill: #262626" transform="translate(29.8125 272.628665)scale(0.11 -0.11)">
       <use xlink:href="#DejaVuSans-32"/>
       <use xlink:href="#DejaVuSans-30" x="63.623047"/>
       <use xlink:href="#DejaVuSans-30" x="127.246094"/>
       <use xlink:href="#DejaVuSans-30" x="190.869141"/>
      </g>
     </g>
    </g>
    <g id="ytick_3">
     <g id="line2d_8">
      <path d="M 67.3075 231.250999 
L 339.579235 231.250999 
" clip-path="url(#pd2baa0fd7b)" style="fill: none; stroke: #ffffff; stroke-linecap: round"/>
     </g>
     <g id="text_9">
      <!-- 4000 -->
      <g style="fill: #262626" transform="translate(29.8125 235.430139)scale(0.11 -0.11)">
       <defs>
        <path id="DejaVuSans-34" d="M 2419 4116 
L 825 1625 
L 2419 1625 
L 2419 4116 
z
M 2253 4666 
L 3047 4666 
L 3047 1625 
L 3713 1625 
L 3713 1100 
L 3047 1100 
L 3047 0 
L 2419 0 
L 2419 1100 
L 313 1100 
L 313 1709 
L 2253 4666 
z
" transform="scale(0.015625)"/>
       </defs>
       <use xlink:href="#DejaVuSans-34"/>
       <use xlink:href="#DejaVuSans-30" x="63.623047"/>
       <use xlink:href="#DejaVuSans-30" x="127.246094"/>
       <use xlink:href="#DejaVuSans-30" x="190.869141"/>
      </g>
     </g>
    </g>
    <g id="ytick_4">
     <g id="line2d_9">
      <path d="M 67.3075 194.052473 
L 339.579235 194.052473 
" clip-path="url(#pd2baa0fd7b)" style="fill: none; stroke: #ffffff; stroke-linecap: round"/>
     </g>
     <g id="text_10">
      <!-- 6000 -->
      <g style="fill: #262626" transform="translate(29.8125 198.231613)scale(0.11 -0.11)">
       <defs>
        <path id="DejaVuSans-36" d="M 2113 2584 
Q 1688 2584 1439 2293 
Q 1191 2003 1191 1497 
Q 1191 994 1439 701 
Q 1688 409 2113 409 
Q 2538 409 2786 701 
Q 3034 994 3034 1497 
Q 3034 2003 2786 2293 
Q 2538 2584 2113 2584 
z
M 3366 4563 
L 3366 3988 
Q 3128 4100 2886 4159 
Q 2644 4219 2406 4219 
Q 1781 4219 1451 3797 
Q 1122 3375 1075 2522 
Q 1259 2794 1537 2939 
Q 1816 3084 2150 3084 
Q 2853 3084 3261 2657 
Q 3669 2231 3669 1497 
Q 3669 778 3244 343 
Q 2819 -91 2113 -91 
Q 1303 -91 875 529 
Q 447 1150 447 2328 
Q 447 3434 972 4092 
Q 1497 4750 2381 4750 
Q 2619 4750 2861 4703 
Q 3103 4656 3366 4563 
z
" transform="scale(0.015625)"/>
       </defs>
       <use xlink:href="#DejaVuSans-36"/>
       <use xlink:href="#DejaVuSans-30" x="63.623047"/>
       <use xlink:href="#DejaVuSans-30" x="127.246094"/>
       <use xlink:href="#DejaVuSans-30" x="190.869141"/>
      </g>
     </g>
    </g>
    <g id="ytick_5">
     <g id="line2d_10">
      <path d="M 67.3075 156.853947 
L 339.579235 156.853947 
" clip-path="url(#pd2baa0fd7b)" style="fill: none; stroke: #ffffff; stroke-linecap: round"/>
     </g>
     <g id="text_11">
      <!-- 8000 -->
      <g style="fill: #262626" transform="translate(29.8125 161.033087)scale(0.11 -0.11)">
       <defs>
        <path id="DejaVuSans-38" d="M 2034 2216 
Q 1584 2216 1326 1975 
Q 1069 1734 1069 1313 
Q 1069 891 1326 650 
Q 1584 409 2034 409 
Q 2484 409 2743 651 
Q 3003 894 3003 1313 
Q 3003 1734 2745 1975 
Q 2488 2216 2034 2216 
z
M 1403 2484 
Q 997 2584 770 2862 
Q 544 3141 544 3541 
Q 544 4100 942 4425 
Q 1341 4750 2034 4750 
Q 2731 4750 3128 4425 
Q 3525 4100 3525 3541 
Q 3525 3141 3298 2862 
Q 3072 2584 2669 2484 
Q 3125 2378 3379 2068 
Q 3634 1759 3634 1313 
Q 3634 634 3220 271 
Q 2806 -91 2034 -91 
Q 1263 -91 848 271 
Q 434 634 434 1313 
Q 434 1759 690 2068 
Q 947 2378 1403 2484 
z
M 1172 3481 
Q 1172 3119 1398 2916 
Q 1625 2713 2034 2713 
Q 2441 2713 2670 2916 
Q 2900 3119 2900 3481 
Q 2900 3844 2670 4047 
Q 2441 4250 2034 4250 
Q 1625 4250 1398 4047 
Q 1172 3844 1172 3481 
z
" transform="scale(0.015625)"/>
       </defs>
       <use xlink:href="#DejaVuSans-38"/>
       <use xlink:href="#DejaVuSans-30" x="63.623047"/>
       <use xlink:href="#DejaVuSans-30" x="127.246094"/>
       <use xlink:href="#DejaVuSans-30" x="190.869141"/>
      </g>
     </g>
    </g>
    <g id="ytick_6">
     <g id="line2d_11">
      <path d="M 67.3075 119.655421 
L 339.579235 119.655421 
" clip-path="url(#pd2baa0fd7b)" style="fill: none; stroke: #ffffff; stroke-linecap: round"/>
     </g>
     <g id="text_12">
      <!-- 10000 -->
      <g style="fill: #262626" transform="translate(22.81375 123.834561)scale(0.11 -0.11)">
       <use xlink:href="#DejaVuSans-31"/>
       <use xlink:href="#DejaVuSans-30" x="63.623047"/>
       <use xlink:href="#DejaVuSans-30" x="127.246094"/>
       <use xlink:href="#DejaVuSans-30" x="190.869141"/>
       <use xlink:href="#DejaVuSans-30" x="254.492188"/>
      </g>
     </g>
    </g>
    <g id="ytick_7">
     <g id="line2d_12">
      <path d="M 67.3075 82.456895 
L 339.579235 82.456895 
" clip-path="url(#pd2baa0fd7b)" style="fill: none; stroke: #ffffff; stroke-linecap: round"/>
     </g>
     <g id="text_13">
      <!-- 12000 -->
      <g style="fill: #262626" transform="translate(22.81375 86.636035)scale(0.11 -0.11)">
       <use xlink:href="#DejaVuSans-31"/>
       <use xlink:href="#DejaVuSans-32" x="63.623047"/>
       <use xlink:href="#DejaVuSans-30" x="127.246094"/>
       <use xlink:href="#DejaVuSans-30" x="190.869141"/>
       <use xlink:href="#DejaVuSans-30" x="254.492188"/>
      </g>
     </g>
    </g>
    <g id="ytick_8">
     <g id="line2d_13">
      <path d="M 67.3075 45.258369 
L 339.579235 45.258369 
" clip-path="url(#pd2baa0fd7b)" style="fill: none; stroke: #ffffff; stroke-linecap: round"/>
     </g>
     <g id="text_14">
      <!-- 14000 -->
      <g style="fill: #262626" transform="translate(22.81375 49.437509)scale(0.11 -0.11)">
       <use xlink:href="#DejaVuSans-31"/>
       <use xlink:href="#DejaVuSans-34" x="63.623047"/>
       <use xlink:href="#DejaVuSans-30" x="127.246094"/>
       <use xlink:href="#DejaVuSans-30" x="190.869141"/>
       <use xlink:href="#DejaVuSans-30" x="254.492188"/>
      </g>
     </g>
    </g>
    <g id="text_15">
     <!-- Fitness -->
     <g style="fill: #262626" transform="translate(16.318125 191.50875)rotate(-90)scale(0.12 -0.12)">
      <defs>
       <path id="DejaVuSans-46" d="M 628 4666 
L 3309 4666 
L 3309 4134 
L 1259 4134 
L 1259 2759 
L 3109 2759 
L 3109 2228 
L 1259 2228 
L 1259 0 
L 628 0 
L 628 4666 
z
" transform="scale(0.015625)"/>
       <path id="DejaVuSans-73" d="M 2834 3397 
L 2834 2853 
Q 2591 2978 2328 3040 
Q 2066 3103 1784 3103 
Q 1356 3103 1142 2972 
Q 928 2841 928 2578 
Q 928 2378 1081 2264 
Q 1234 2150 1697 2047 
L 1894 2003 
Q 2506 1872 2764 1633 
Q 3022 1394 3022 966 
Q 3022 478 2636 193 
Q 2250 -91 1575 -91 
Q 1294 -91 989 -36 
Q 684 19 347 128 
L 347 722 
Q 666 556 975 473 
Q 1284 391 1588 391 
Q 1994 391 2212 530 
Q 2431 669 2431 922 
Q 2431 1156 2273 1281 
Q 2116 1406 1581 1522 
L 1381 1569 
Q 847 1681 609 1914 
Q 372 2147 372 2553 
Q 372 3047 722 3315 
Q 1072 3584 1716 3584 
Q 2034 3584 2315 3537 
Q 2597 3491 2834 3397 
z
" transform="scale(0.015625)"/>
      </defs>
      <use xlink:href="#DejaVuSans-46"/>
      <use xlink:href="#DejaVuSans-69" x="50.269531"/>
      <use xlink:href="#DejaVuSans-74" x="78.052734"/>
      <use xlink:href="#DejaVuSans-6e" x="117.261719"/>
      <use xlink:href="#DejaVuSans-65" x="180.640625"/>
      <use xlink:href="#DejaVuSans-73" x="242.164062"/>
      <use xlink:href="#DejaVuSans-73" x="294.263672"/>
     </g>
    </g>
   </g>
   <g id="PolyCollection_1">
    <defs>
     <path id="m40af98fb8e" d="M 79.683488 -56.47243 
L 79.683488 -56.454993 
L 80.927306 -56.471849 
L 82.171124 -56.484621 
L 83.414942 -56.524159 
L 84.658759 -56.598556 
L 85.902577 -56.612506 
L 87.146395 -56.837368 
L 88.390213 -56.960355 
L 89.634031 -58.628666 
L 90.877849 -60.324061 
L 92.121667 -60.909444 
L 93.365485 -61.70805 
L 94.609303 -62.56302 
L 95.85312 -62.793651 
L 97.096938 -63.364009 
L 98.340756 -64.993493 
L 99.584574 -64.725083 
L 100.828392 -66.178877 
L 102.07221 -78.896471 
L 103.316028 -78.14509 
L 104.559846 -102.654531 
L 105.803664 -113.428008 
L 107.047481 -106.174775 
L 108.291299 -110.564172 
L 109.535117 -110.403303 
L 110.778935 -109.897941 
L 112.022753 -110.434675 
L 113.266571 -104.194927 
L 114.510389 -111.294499 
L 115.754207 -100.694706 
L 116.998025 -104.125572 
L 118.241842 -93.292984 
L 119.48566 -103.649431 
L 120.729478 -98.151039 
L 121.973296 -106.703459 
L 123.217114 -111.215263 
L 124.460932 -98.178807 
L 125.70475 -100.692236 
L 126.948568 -100.973942 
L 128.192385 -100.793849 
L 129.436203 -101.066328 
L 130.680021 -105.620038 
L 131.923839 -107.172161 
L 133.167657 -101.208583 
L 134.411475 -106.809838 
L 135.655293 -105.286065 
L 136.899111 -104.333724 
L 138.142929 -109.783032 
L 139.386746 -111.027672 
L 140.630564 -104.051495 
L 141.874382 -108.705205 
L 143.1182 -105.636152 
L 144.362018 -100.56717 
L 145.605836 -102.165719 
L 146.849654 -101.876151 
L 148.093472 -113.797683 
L 149.33729 -107.358502 
L 150.581107 -110.329139 
L 151.824925 -108.203504 
L 153.068743 -104.537401 
L 154.312561 -105.978364 
L 155.556379 -103.644738 
L 156.800197 -103.863584 
L 158.044015 -97.602593 
L 159.287833 -100.923724 
L 160.53165 -109.898479 
L 161.775468 -113.52625 
L 163.019286 -94.413953 
L 164.263104 -110.945254 
L 165.506922 -104.119441 
L 166.75074 -109.284892 
L 167.994558 -101.136235 
L 169.238376 -103.156159 
L 170.482194 -104.267653 
L 171.726011 -107.466712 
L 172.969829 -104.528101 
L 174.213647 -103.63692 
L 175.457465 -104.840133 
L 176.701283 -96.724068 
L 177.945101 -96.202679 
L 179.188919 -103.982663 
L 180.432737 -99.298904 
L 181.676555 -104.635163 
L 182.920372 -103.448269 
L 184.16419 -102.040363 
L 185.408008 -104.573611 
L 186.651826 -102.111069 
L 187.895644 -109.652155 
L 189.139462 -112.023764 
L 190.38328 -110.992101 
L 191.627098 -113.276904 
L 192.870915 -107.563312 
L 194.114733 -115.863262 
L 195.358551 -162.747558 
L 196.602369 -217.144488 
L 197.846187 -226.897433 
L 199.090005 -246.958089 
L 200.333823 -237.881591 
L 201.577641 -268.173818 
L 202.821459 -268.315289 
L 204.065276 -283.67132 
L 205.309094 -286.488818 
L 206.552912 -255.047795 
L 207.79673 -245.884229 
L 209.040548 -256.873749 
L 210.284366 -249.517086 
L 211.528184 -249.508891 
L 212.772002 -273.694181 
L 214.01582 -247.555707 
L 215.259637 -264.931371 
L 216.503455 -279.625399 
L 217.747273 -256.029996 
L 218.991091 -257.227469 
L 220.234909 -278.433114 
L 221.478727 -294.722711 
L 222.722545 -222.352456 
L 223.966363 -249.040524 
L 225.21018 -273.253248 
L 226.453998 -259.364321 
L 227.697816 -238.198781 
L 228.941634 -255.359115 
L 230.185452 -283.287478 
L 231.42927 -238.901775 
L 232.673088 -292.524002 
L 233.916906 -254.00102 
L 235.160724 -263.645058 
L 236.404541 -261.427648 
L 237.648359 -291.102045 
L 238.892177 -234.42781 
L 240.135995 -278.343445 
L 241.379813 -260.19116 
L 242.623631 -263.508295 
L 243.867449 -235.701249 
L 245.111267 -228.206647 
L 246.355085 -269.647839 
L 247.598902 -240.466743 
L 248.84272 -223.454288 
L 250.086538 -197.670043 
L 251.330356 -238.452414 
L 252.574174 -202.336888 
L 253.817992 -219.980367 
L 255.06181 -237.581329 
L 256.305628 -221.961813 
L 257.549445 -245.285246 
L 258.793263 -224.706585 
L 260.037081 -234.317493 
L 261.280899 -246.841655 
L 262.524717 -276.893385 
L 263.768535 -265.009502 
L 265.012353 -215.53523 
L 266.256171 -308.09747 
L 267.499989 -297.154158 
L 268.743806 -272.821382 
L 269.987624 -304.275118 
L 271.231442 -283.44098 
L 272.47526 -269.193218 
L 273.719078 -274.938516 
L 274.962896 -282.874981 
L 276.206714 -232.601972 
L 277.450532 -279.693228 
L 278.69435 -241.031405 
L 279.938167 -272.105281 
L 281.181985 -295.949565 
L 282.425803 -231.610675 
L 283.669621 -270.964536 
L 284.913439 -271.438105 
L 286.157257 -268.954595 
L 287.401075 -241.433948 
L 288.644893 -211.695848 
L 289.88871 -234.868539 
L 291.132528 -256.808855 
L 292.376346 -271.10403 
L 293.620164 -220.247266 
L 294.863982 -230.872255 
L 296.1078 -200.982034 
L 297.351618 -203.87929 
L 298.595436 -272.591826 
L 299.839254 -248.767551 
L 301.083071 -263.273988 
L 302.326889 -241.924533 
L 303.570707 -166.886243 
L 304.814525 -235.293736 
L 306.058343 -264.545349 
L 307.302161 -251.199027 
L 308.545979 -262.730323 
L 309.789797 -273.705675 
L 311.033615 -227.388788 
L 312.277432 -258.255587 
L 313.52125 -226.591054 
L 314.765068 -224.088087 
L 316.008886 -259.314292 
L 317.252704 -235.731008 
L 318.496522 -245.910224 
L 319.74034 -230.016413 
L 320.984158 -245.458727 
L 322.227976 -224.70041 
L 323.471793 -213.451604 
L 324.715611 -247.671051 
L 325.959429 -277.642282 
L 327.203247 -279.58111 
L 327.203247 -318.169291 
L 327.203247 -318.169291 
L 325.959429 -318.881236 
L 324.715611 -304.543355 
L 323.471793 -288.545199 
L 322.227976 -294.853415 
L 320.984158 -305.822316 
L 319.74034 -298.805395 
L 318.496522 -305.726137 
L 317.252704 -299.314869 
L 316.008886 -307.74545 
L 314.765068 -292.893634 
L 313.52125 -296.253097 
L 312.277432 -311.997184 
L 311.033615 -297.908881 
L 309.789797 -313.901283 
L 308.545979 -312.396312 
L 307.302161 -306.924787 
L 306.058343 -313.233279 
L 304.814525 -298.522831 
L 303.570707 -249.142587 
L 302.326889 -303.805879 
L 301.083071 -310.409577 
L 299.839254 -308.639436 
L 298.595436 -316.770423 
L 297.351618 -278.111753 
L 296.1078 -281.738435 
L 294.863982 -297.435007 
L 293.620164 -294.352513 
L 292.376346 -322.06171 
L 291.132528 -314.905135 
L 289.88871 -307.181835 
L 288.644893 -288.809163 
L 287.401075 -306.096568 
L 286.157257 -322.254212 
L 284.913439 -322.417944 
L 283.669621 -322.043401 
L 282.425803 -305.670703 
L 281.181985 -324.447065 
L 279.938167 -321.852991 
L 278.69435 -306.202118 
L 277.450532 -321.600855 
L 276.206714 -304.134432 
L 274.962896 -321.519774 
L 273.719078 -321.872869 
L 272.47526 -323.003298 
L 271.231442 -324.300073 
L 269.987624 -326.287869 
L 268.743806 -323.503502 
L 267.499989 -325.367031 
L 266.256171 -323.959053 
L 265.012353 -290.580568 
L 263.768535 -315.816208 
L 262.524717 -319.733024 
L 261.280899 -307.68371 
L 260.037081 -300.531029 
L 258.793263 -299.06593 
L 257.549445 -310.911336 
L 256.305628 -295.279047 
L 255.06181 -303.329753 
L 253.817992 -291.626893 
L 252.574174 -278.845872 
L 251.330356 -298.735459 
L 250.086538 -273.829316 
L 248.84272 -296.488043 
L 247.598902 -304.967316 
L 246.355085 -317.898701 
L 245.111267 -294.970735 
L 243.867449 -300.284777 
L 242.623631 -315.289762 
L 241.379813 -312.276754 
L 240.135995 -316.579301 
L 238.892177 -298.700367 
L 237.648359 -317.976382 
L 236.404541 -316.892306 
L 235.160724 -315.718722 
L 233.916906 -311.663356 
L 232.673088 -319.989694 
L 231.42927 -304.776151 
L 230.185452 -321.622302 
L 228.941634 -313.359057 
L 227.697816 -304.475511 
L 226.453998 -314.662632 
L 225.21018 -320.810968 
L 223.966363 -311.75766 
L 222.722545 -302.326541 
L 221.478727 -321.245144 
L 220.234909 -319.905997 
L 218.991091 -313.05416 
L 217.747273 -312.556905 
L 216.503455 -321.47531 
L 215.259637 -320.345405 
L 214.01582 -312.374342 
L 212.772002 -321.245144 
L 211.528184 -311.978425 
L 210.284366 -307.074133 
L 209.040548 -313.43171 
L 207.79673 -311.225256 
L 206.552912 -312.936911 
L 205.309094 -320.324481 
L 204.065276 -318.755487 
L 202.821459 -317.961967 
L 201.577641 -319.256941 
L 200.333823 -306.633055 
L 199.090005 -307.834378 
L 197.846187 -296.355799 
L 196.602369 -285.790212 
L 195.358551 -234.134929 
L 194.114733 -173.415121 
L 192.870915 -139.908041 
L 191.627098 -127.712896 
L 190.38328 -124.969766 
L 189.139462 -128.482499 
L 187.895644 -123.981128 
L 186.651826 -117.952918 
L 185.408008 -118.900333 
L 184.16419 -117.725978 
L 182.920372 -116.623434 
L 181.676555 -118.984654 
L 180.432737 -115.22878 
L 179.188919 -118.342951 
L 177.945101 -113.632702 
L 176.701283 -114.848382 
L 175.457465 -118.284988 
L 174.213647 -118.404968 
L 172.969829 -118.415561 
L 171.726011 -119.48637 
L 170.482194 -118.532126 
L 169.238376 -116.979247 
L 167.994558 -116.514236 
L 166.75074 -120.133755 
L 165.506922 -117.579015 
L 164.263104 -120.161784 
L 163.019286 -112.096199 
L 161.775468 -120.222217 
L 160.53165 -118.918642 
L 159.287833 -116.432734 
L 158.044015 -113.895024 
L 156.800197 -117.5442 
L 155.556379 -117.323304 
L 154.312561 -119.208441 
L 153.068743 -117.267841 
L 151.824925 -118.706145 
L 150.581107 -118.82704 
L 149.33729 -118.209545 
L 148.093472 -118.636514 
L 146.849654 -116.319162 
L 145.605836 -116.144213 
L 144.362018 -115.021805 
L 143.1182 -116.890624 
L 141.874382 -118.032154 
L 140.630564 -116.743051 
L 139.386746 -118.966535 
L 138.142929 -118.910853 
L 136.899111 -117.217739 
L 135.655293 -117.364484 
L 134.411475 -117.88615 
L 133.167657 -114.332383 
L 131.923839 -121.243143 
L 130.680021 -119.852644 
L 129.436203 -117.553616 
L 128.192385 -114.522793 
L 126.948568 -113.485521 
L 125.70475 -114.363915 
L 124.460932 -113.169973 
L 123.217114 -118.14917 
L 121.973296 -116.820485 
L 120.729478 -113.111269 
L 119.48566 -116.937791 
L 118.241842 -111.310439 
L 116.998025 -120.68499 
L 115.754207 -119.015648 
L 114.510389 -124.235706 
L 113.266571 -118.121649 
L 112.022753 -120.119689 
L 110.778935 -119.975545 
L 109.535117 -120.110389 
L 108.291299 -120.157004 
L 107.047481 -119.185541 
L 105.803664 -120.208384 
L 104.559846 -116.756841 
L 103.316028 -96.771177 
L 102.07221 -96.545283 
L 100.828392 -78.509026 
L 99.584574 -76.569442 
L 98.340756 -73.896452 
L 97.096938 -70.592002 
L 95.85312 -65.216103 
L 94.609303 -64.914824 
L 93.365485 -64.662078 
L 92.121667 -62.96071 
L 90.877849 -62.044711 
L 89.634031 -60.521896 
L 88.390213 -58.115893 
L 87.146395 -57.557581 
L 85.902577 -56.910704 
L 84.658759 -56.832805 
L 83.414942 -56.631134 
L 82.171124 -56.570091 
L 80.927306 -56.512535 
L 79.683488 -56.47243 
z
" style="stroke: #edd1cb; stroke-opacity: 0.2"/>
    </defs>
    <g clip-path="url(#pd2baa0fd7b)">
     <use xlink:href="#m40af98fb8e" x="0" y="362.097812" style="fill: #edd1cb; fill-opacity: 0.2; stroke: #edd1cb; stroke-opacity: 0.2"/>
    </g>
   </g>
   <g id="PolyCollection_2">
    <defs>
     <path id="mb483a907b4" d="M 79.683488 -56.513711 
L 79.683488 -56.454412 
L 80.927306 -56.518928 
L 82.171124 -56.857202 
L 83.414942 -56.936249 
L 84.658759 -57.026339 
L 85.902577 -56.975772 
L 87.146395 -56.972285 
L 88.390213 -57.026339 
L 89.634031 -57.026339 
L 90.877849 -56.977516 
L 92.121667 -57.026339 
L 93.365485 -56.972285 
L 94.609303 -56.972285 
L 95.85312 -57.026339 
L 97.096938 -57.026339 
L 98.340756 -56.97926 
L 99.584574 -56.936249 
L 100.828392 -56.978867 
L 102.07221 -57.026339 
L 103.316028 -57.026339 
L 104.559846 -56.974029 
L 105.803664 -57.026339 
L 107.047481 -56.972285 
L 108.291299 -57.026339 
L 109.535117 -57.026339 
L 110.778935 -56.982747 
L 112.022753 -56.918216 
L 113.266571 -57.01239 
L 114.510389 -57.01239 
L 115.754207 -56.975772 
L 116.998025 -56.937397 
L 118.241842 -56.972285 
L 119.48566 -57.026339 
L 120.729478 -57.026339 
L 121.973296 -56.972285 
L 123.217114 -56.975772 
L 124.460932 -57.026339 
L 125.70475 -56.972285 
L 126.948568 -57.026339 
L 128.192385 -56.972285 
L 129.436203 -56.910094 
L 130.680021 -56.972285 
L 131.923839 -56.937411 
L 133.167657 -56.94148 
L 134.411475 -56.936249 
L 135.655293 -56.954848 
L 136.899111 -56.928112 
L 138.142929 -56.919393 
L 139.386746 -56.943776 
L 140.630564 -56.991466 
L 141.874382 -56.956011 
L 143.1182 -56.97926 
L 144.362018 -57.026339 
L 145.605836 -57.026339 
L 146.849654 -56.953105 
L 148.093472 -57.026339 
L 149.33729 -56.977516 
L 150.581107 -56.936249 
L 151.824925 -56.977516 
L 153.068743 -56.972285 
L 154.312561 -56.921123 
L 155.556379 -57.026339 
L 156.800197 -57.026339 
L 158.044015 -56.952523 
L 159.287833 -56.954267 
L 160.53165 -57.026339 
L 161.775468 -56.941436 
L 163.019286 -56.977516 
L 164.263104 -56.974029 
L 165.506922 -56.940318 
L 166.75074 -56.972285 
L 167.994558 -56.907188 
L 169.238376 -57.026339 
L 170.482194 -57.026339 
L 171.726011 -57.026339 
L 172.969829 -56.972285 
L 174.213647 -57.026339 
L 175.457465 -57.026339 
L 176.701283 -56.940841 
L 177.945101 -56.975772 
L 179.188919 -56.972285 
L 180.432737 -57.026339 
L 181.676555 -57.026339 
L 182.920372 -57.026339 
L 184.16419 -57.026339 
L 185.408008 -56.936249 
L 186.651826 -57.026339 
L 187.895644 -56.94148 
L 189.139462 -56.97926 
L 190.38328 -56.982747 
L 191.627098 -57.026339 
L 192.870915 -56.972285 
L 194.114733 -56.938574 
L 195.358551 -57.026339 
L 196.602369 -56.972285 
L 197.846187 -56.943209 
L 199.090005 -56.972285 
L 200.333823 -57.026339 
L 201.577641 -56.982747 
L 202.821459 -57.026339 
L 204.065276 -57.026339 
L 205.309094 -57.026339 
L 206.552912 -56.991466 
L 207.79673 -56.900213 
L 209.040548 -56.936249 
L 210.284366 -56.975772 
L 211.528184 -57.026339 
L 212.772002 -56.972285 
L 214.01582 -57.026339 
L 215.259637 -56.972285 
L 216.503455 -57.01239 
L 217.747273 -56.967621 
L 218.991091 -57.026339 
L 220.234909 -56.939155 
L 221.478727 -57.026339 
L 222.722545 -56.917621 
L 223.966363 -56.948978 
L 225.21018 -56.89148 
L 226.453998 -56.937411 
L 227.697816 -56.972285 
L 228.941634 -57.026339 
L 230.185452 -56.972285 
L 231.42927 -57.026339 
L 232.673088 -56.936249 
L 233.916906 -56.972285 
L 235.160724 -57.026339 
L 236.404541 -56.977516 
L 237.648359 -56.972285 
L 238.892177 -57.026339 
L 240.135995 -57.026339 
L 241.379813 -56.93683 
L 242.623631 -57.026339 
L 243.867449 -56.924624 
L 245.111267 -57.026339 
L 246.355085 -56.99844 
L 247.598902 -57.026339 
L 248.84272 -57.026339 
L 250.086538 -56.972285 
L 251.330356 -56.989141 
L 252.574174 -57.010646 
L 253.817992 -57.010646 
L 255.06181 -56.954194 
L 256.305628 -56.930437 
L 257.549445 -56.922881 
L 258.793263 -56.924043 
L 260.037081 -56.956592 
L 261.280899 -56.927531 
L 262.524717 -56.883357 
L 263.768535 -56.880451 
L 265.012353 -56.961692 
L 266.256171 -56.982747 
L 267.499989 -57.026339 
L 268.743806 -56.953686 
L 269.987624 -57.026339 
L 271.231442 -56.926339 
L 272.47526 -56.930437 
L 273.719078 -56.962404 
L 274.962896 -56.932747 
L 276.206714 -56.953686 
L 277.450532 -57.010646 
L 278.69435 -57.026339 
L 279.938167 -57.010646 
L 281.181985 -57.000184 
L 282.425803 -56.956592 
L 283.669621 -56.953686 
L 284.913439 -56.972285 
L 286.157257 -57.026339 
L 287.401075 -57.026339 
L 288.644893 -56.972285 
L 289.88871 -56.953105 
L 291.132528 -56.99844 
L 292.376346 -56.972285 
L 293.620164 -56.953686 
L 294.863982 -56.956592 
L 296.1078 -56.913538 
L 297.351618 -56.972285 
L 298.595436 -56.910675 
L 299.839254 -56.936234 
L 301.083071 -56.9223 
L 302.326889 -56.903119 
L 303.570707 -56.897292 
L 304.814525 -56.93683 
L 306.058343 -56.972285 
L 307.302161 -56.954165 
L 308.545979 -56.994953 
L 309.789797 -56.873462 
L 311.033615 -56.936249 
L 312.277432 -56.890318 
L 313.52125 -56.986234 
L 314.765068 -56.910094 
L 316.008886 -57.137906 
L 317.252704 -57.240231 
L 318.496522 -57.375075 
L 319.74034 -57.42727 
L 320.984158 -57.520963 
L 322.227976 -57.526107 
L 323.471793 -57.52618 
L 324.715611 -57.504674 
L 325.959429 -57.406999 
L 327.203247 -57.5477 
L 327.203247 -57.75171 
L 327.203247 -57.75171 
L 325.959429 -57.711025 
L 324.715611 -57.75171 
L 323.471793 -57.75171 
L 322.227976 -57.75171 
L 320.984158 -57.75171 
L 319.74034 -57.711025 
L 318.496522 -57.667432 
L 317.252704 -57.534913 
L 316.008886 -57.443704 
L 314.765068 -57.208263 
L 313.52125 -57.253134 
L 312.277432 -57.111227 
L 311.033615 -57.103061 
L 309.789797 -57.072285 
L 308.545979 -57.162346 
L 307.302161 -57.076325 
L 306.058343 -57.026339 
L 304.814525 -57.026339 
L 303.570707 -57.011808 
L 302.326889 -57.015877 
L 301.083071 -57.026339 
L 299.839254 -57.026339 
L 298.595436 -57.026339 
L 297.351618 -57.026339 
L 296.1078 -57.01191 
L 294.863982 -57.026339 
L 293.620164 -57.026339 
L 292.376346 -57.026339 
L 291.132528 -57.026339 
L 289.88871 -57.026339 
L 288.644893 -57.026339 
L 287.401075 -57.026339 
L 286.157257 -57.026339 
L 284.913439 -57.026339 
L 283.669621 -57.026339 
L 282.425803 -57.026339 
L 281.181985 -57.026339 
L 279.938167 -57.026339 
L 278.69435 -57.026339 
L 277.450532 -57.026339 
L 276.206714 -57.026339 
L 274.962896 -57.026339 
L 273.719078 -57.026339 
L 272.47526 -57.026339 
L 271.231442 -57.01704 
L 269.987624 -57.026339 
L 268.743806 -57.026339 
L 267.499989 -57.026339 
L 266.256171 -57.026339 
L 265.012353 -57.026339 
L 263.768535 -57.008321 
L 262.524717 -56.994372 
L 261.280899 -57.026339 
L 260.037081 -57.026339 
L 258.793263 -57.026339 
L 257.549445 -57.026339 
L 256.305628 -57.021108 
L 255.06181 -57.026339 
L 253.817992 -57.026339 
L 252.574174 -57.026339 
L 251.330356 -57.026339 
L 250.086538 -57.026339 
L 248.84272 -57.026339 
L 247.598902 -57.026339 
L 246.355085 -57.026339 
L 245.111267 -57.026339 
L 243.867449 -57.026339 
L 242.623631 -57.026339 
L 241.379813 -57.026339 
L 240.135995 -57.026339 
L 238.892177 -57.026339 
L 237.648359 -57.026339 
L 236.404541 -57.026339 
L 235.160724 -57.026339 
L 233.916906 -57.026339 
L 232.673088 -57.026339 
L 231.42927 -57.026339 
L 230.185452 -57.026339 
L 228.941634 -57.026339 
L 227.697816 -57.026339 
L 226.453998 -57.026339 
L 225.21018 -57.011808 
L 223.966363 -57.026339 
L 222.722545 -57.026339 
L 221.478727 -57.026339 
L 220.234909 -57.026339 
L 218.991091 -57.026339 
L 217.747273 -57.026339 
L 216.503455 -57.026339 
L 215.259637 -57.026339 
L 214.01582 -57.026339 
L 212.772002 -57.026339 
L 211.528184 -57.026339 
L 210.284366 -57.026339 
L 209.040548 -57.026339 
L 207.79673 -57.026339 
L 206.552912 -57.026339 
L 205.309094 -57.026339 
L 204.065276 -57.026339 
L 202.821459 -57.026339 
L 201.577641 -57.026339 
L 200.333823 -57.026339 
L 199.090005 -57.026339 
L 197.846187 -57.026339 
L 196.602369 -57.026339 
L 195.358551 -57.026339 
L 194.114733 -57.026339 
L 192.870915 -57.026339 
L 191.627098 -57.026339 
L 190.38328 -57.026339 
L 189.139462 -57.026339 
L 187.895644 -57.026339 
L 186.651826 -57.026339 
L 185.408008 -57.026339 
L 184.16419 -57.026339 
L 182.920372 -57.026339 
L 181.676555 -57.052494 
L 180.432737 -57.052494 
L 179.188919 -57.026339 
L 177.945101 -57.026339 
L 176.701283 -57.026339 
L 175.457465 -57.026339 
L 174.213647 -57.026339 
L 172.969829 -57.026339 
L 171.726011 -57.026339 
L 170.482194 -57.026339 
L 169.238376 -57.026339 
L 167.994558 -57.026339 
L 166.75074 -57.026339 
L 165.506922 -57.026339 
L 164.263104 -57.026339 
L 163.019286 -57.026339 
L 161.775468 -57.026339 
L 160.53165 -57.026339 
L 159.287833 -57.026339 
L 158.044015 -57.026339 
L 156.800197 -57.026339 
L 155.556379 -57.026339 
L 154.312561 -57.026339 
L 153.068743 -57.026339 
L 151.824925 -57.026339 
L 150.581107 -57.026339 
L 149.33729 -57.026339 
L 148.093472 -57.026339 
L 146.849654 -57.026339 
L 145.605836 -57.026339 
L 144.362018 -57.026339 
L 143.1182 -57.026339 
L 141.874382 -57.026339 
L 140.630564 -57.026339 
L 139.386746 -57.026339 
L 138.142929 -57.026339 
L 136.899111 -57.026339 
L 135.655293 -57.026339 
L 134.411475 -57.026339 
L 133.167657 -57.026339 
L 131.923839 -57.026339 
L 130.680021 -57.026339 
L 129.436203 -57.026339 
L 128.192385 -57.026339 
L 126.948568 -57.026339 
L 125.70475 -57.026339 
L 124.460932 -57.026339 
L 123.217114 -57.026339 
L 121.973296 -57.026339 
L 120.729478 -57.026339 
L 119.48566 -57.026339 
L 118.241842 -57.026339 
L 116.998025 -57.026339 
L 115.754207 -57.026339 
L 114.510389 -57.026339 
L 113.266571 -57.026339 
L 112.022753 -57.021689 
L 110.778935 -57.026339 
L 109.535117 -57.026339 
L 108.291299 -57.026339 
L 107.047481 -57.026339 
L 105.803664 -57.026339 
L 104.559846 -57.026339 
L 103.316028 -57.026339 
L 102.07221 -57.026339 
L 100.828392 -57.026339 
L 99.584574 -57.026339 
L 98.340756 -57.026339 
L 97.096938 -57.026339 
L 95.85312 -57.026339 
L 94.609303 -57.026339 
L 93.365485 -57.026339 
L 92.121667 -57.026339 
L 90.877849 -57.026339 
L 89.634031 -57.026339 
L 88.390213 -57.026339 
L 87.146395 -57.026339 
L 85.902577 -57.026339 
L 84.658759 -57.026339 
L 83.414942 -57.026339 
L 82.171124 -56.995534 
L 80.927306 -56.672386 
L 79.683488 -56.513711 
z
" style="stroke: #d499a7; stroke-opacity: 0.2"/>
    </defs>
    <g clip-path="url(#pd2baa0fd7b)">
     <use xlink:href="#mb483a907b4" x="0" y="362.097812" style="fill: #d499a7; fill-opacity: 0.2; stroke: #d499a7; stroke-opacity: 0.2"/>
    </g>
   </g>
   <g id="PolyCollection_3">
    <defs>
     <path id="md2706b0933" d="M 79.683488 -56.474174 
L 79.683488 -56.452668 
L 80.927306 -56.502639 
L 82.171124 -56.744386 
L 83.414942 -56.864075 
L 84.658759 -57.054819 
L 85.902577 -57.138516 
L 87.146395 -57.083852 
L 88.390213 -57.152393 
L 89.634031 -57.177909 
L 90.877849 -56.89318 
L 92.121667 -57.14661 
L 93.365485 -57.207057 
L 94.609303 -57.041989 
L 95.85312 -57.088937 
L 97.096938 -57.181512 
L 98.340756 -57.040289 
L 99.584574 -57.351201 
L 100.828392 -57.359934 
L 102.07221 -57.597642 
L 103.316028 -57.255197 
L 104.559846 -57.485959 
L 105.803664 -57.447118 
L 107.047481 -57.277269 
L 108.291299 -57.411097 
L 109.535117 -57.259978 
L 110.778935 -56.916444 
L 112.022753 -57.21813 
L 113.266571 -57.278432 
L 114.510389 -57.019917 
L 115.754207 -57.02166 
L 116.998025 -57.037964 
L 118.241842 -57.179478 
L 119.48566 -57.094808 
L 120.729478 -57.270324 
L 121.973296 -57.284331 
L 123.217114 -57.093122 
L 124.460932 -57.057115 
L 125.70475 -57.473201 
L 126.948568 -57.518028 
L 128.192385 -57.35062 
L 129.436203 -57.136758 
L 130.680021 -57.205313 
L 131.923839 -57.222707 
L 133.167657 -57.070498 
L 134.411475 -57.170948 
L 135.655293 -56.83032 
L 136.899111 -57.015267 
L 138.142929 -56.779899 
L 139.386746 -56.898426 
L 140.630564 -57.003628 
L 141.874382 -57.776049 
L 143.1182 -56.924552 
L 144.362018 -56.746667 
L 145.605836 -56.750838 
L 146.849654 -56.981541 
L 148.093472 -56.78048 
L 149.33729 -57.150707 
L 150.581107 -56.890826 
L 151.824925 -56.779768 
L 153.068743 -56.951114 
L 154.312561 -56.768187 
L 155.556379 -56.638646 
L 156.800197 -56.577051 
L 158.044015 -56.613653 
L 159.287833 -56.719451 
L 160.53165 -56.649094 
L 161.775468 -56.667126 
L 163.019286 -56.76765 
L 164.263104 -56.683982 
L 165.506922 -56.693296 
L 166.75074 -56.821689 
L 167.994558 -56.822299 
L 169.238376 -56.980989 
L 170.482194 -57.164003 
L 171.726011 -57.05418 
L 172.969829 -56.84379 
L 174.213647 -56.955996 
L 175.457465 -57.119161 
L 176.701283 -57.003511 
L 177.945101 -57.000126 
L 179.188919 -56.817068 
L 180.432737 -56.891349 
L 181.676555 -56.717097 
L 182.920372 -56.733982 
L 184.16419 -56.668856 
L 185.408008 -56.717039 
L 186.651826 -56.64966 
L 187.895644 -56.645054 
L 189.139462 -56.554354 
L 190.38328 -56.54565 
L 191.627098 -56.55322 
L 192.870915 -56.564845 
L 194.114733 -56.625845 
L 195.358551 -56.536932 
L 196.602369 -56.521834 
L 197.846187 -56.502654 
L 199.090005 -56.511953 
L 200.333823 -56.504383 
L 201.577641 -56.500314 
L 202.821459 -56.492192 
L 204.065276 -56.493339 
L 205.309094 -56.485798 
L 206.552912 -56.486961 
L 207.79673 -56.493921 
L 209.040548 -56.476498 
L 210.284366 -56.480552 
L 211.528184 -56.477661 
L 212.772002 -56.478242 
L 214.01582 -56.478823 
L 215.259637 -56.480567 
L 216.503455 -56.474755 
L 217.747273 -56.475917 
L 218.991091 -56.477646 
L 220.234909 -56.483473 
L 221.478727 -56.473578 
L 222.722545 -56.47708 
L 223.966363 -56.474174 
L 225.21018 -56.470686 
L 226.453998 -56.473011 
L 227.697816 -56.47243 
L 228.941634 -56.469524 
L 230.185452 -56.470686 
L 231.42927 -56.474174 
L 232.673088 -56.471849 
L 233.916906 -56.474174 
L 235.160724 -56.470686 
L 236.404541 -56.46778 
L 237.648359 -56.468347 
L 238.892177 -56.468361 
L 240.135995 -56.478242 
L 241.379813 -56.475903 
L 242.623631 -56.468942 
L 243.867449 -56.467199 
L 245.111267 -56.476498 
L 246.355085 -56.46778 
L 247.598902 -56.470686 
L 248.84272 -56.46313 
L 250.086538 -56.464874 
L 251.330356 -56.467199 
L 252.574174 -56.466036 
L 253.817992 -56.464874 
L 255.06181 -56.466618 
L 256.305628 -56.461387 
L 257.549445 -56.463711 
L 258.793263 -56.464859 
L 260.037081 -56.467199 
L 261.280899 -56.468361 
L 262.524717 -56.464874 
L 263.768535 -56.464293 
L 265.012353 -56.466036 
L 266.256171 -56.464874 
L 267.499989 -56.460805 
L 268.743806 -56.466618 
L 269.987624 -56.467199 
L 271.231442 -56.46313 
L 272.47526 -56.464874 
L 273.719078 -56.463711 
L 274.962896 -56.464874 
L 276.206714 -56.468361 
L 277.450532 -56.464874 
L 278.69435 -56.468942 
L 279.938167 -56.468942 
L 281.181985 -56.468361 
L 282.425803 -56.468942 
L 283.669621 -56.465455 
L 284.913439 -56.467199 
L 286.157257 -56.461968 
L 287.401075 -56.466036 
L 288.644893 -56.462549 
L 289.88871 -56.463711 
L 291.132528 -56.470105 
L 292.376346 -56.464874 
L 293.620164 -56.463711 
L 294.863982 -56.467199 
L 296.1078 -56.46778 
L 297.351618 -56.460224 
L 298.595436 -56.466618 
L 299.839254 -56.464874 
L 301.083071 -56.46313 
L 302.326889 -56.466618 
L 303.570707 -56.468942 
L 304.814525 -56.461968 
L 306.058343 -56.466618 
L 307.302161 -56.466036 
L 308.545979 -56.466036 
L 309.789797 -56.465455 
L 311.033615 -56.465455 
L 312.277432 -56.46313 
L 313.52125 -56.466036 
L 314.765068 -56.459643 
L 316.008886 -56.460805 
L 317.252704 -56.468361 
L 318.496522 -56.461387 
L 319.74034 -56.464293 
L 320.984158 -56.468361 
L 322.227976 -56.465455 
L 323.471793 -56.468361 
L 324.715611 -56.459047 
L 325.959429 -56.460224 
L 327.203247 -56.461968 
L 327.203247 -56.468361 
L 327.203247 -56.468361 
L 325.959429 -56.466036 
L 324.715611 -56.46778 
L 323.471793 -56.47708 
L 322.227976 -56.475336 
L 320.984158 -56.481729 
L 319.74034 -56.47243 
L 318.496522 -56.470105 
L 317.252704 -56.478823 
L 316.008886 -56.473011 
L 314.765068 -56.46778 
L 313.52125 -56.477661 
L 312.277432 -56.479405 
L 311.033615 -56.471849 
L 309.789797 -56.476498 
L 308.545979 -56.474174 
L 307.302161 -56.474755 
L 306.058343 -56.475336 
L 304.814525 -56.473011 
L 303.570707 -56.47708 
L 302.326889 -56.475336 
L 301.083071 -56.471849 
L 299.839254 -56.471849 
L 298.595436 -56.474755 
L 297.351618 -56.468942 
L 296.1078 -56.475351 
L 294.863982 -56.479986 
L 293.620164 -56.472444 
L 292.376346 -56.476498 
L 291.132528 -56.481148 
L 289.88871 -56.473011 
L 288.644893 -56.470686 
L 287.401075 -56.474755 
L 286.157257 -56.474174 
L 284.913439 -56.478242 
L 283.669621 -56.474755 
L 282.425803 -56.478823 
L 281.181985 -56.47708 
L 279.938167 -56.48 
L 278.69435 -56.481729 
L 277.450532 -56.475336 
L 276.206714 -56.478242 
L 274.962896 -56.474174 
L 273.719078 -56.477094 
L 272.47526 -56.473011 
L 271.231442 -56.475336 
L 269.987624 -56.479405 
L 268.743806 -56.476498 
L 267.499989 -56.468942 
L 266.256171 -56.475917 
L 265.012353 -56.477661 
L 263.768535 -56.47243 
L 262.524717 -56.473026 
L 261.280899 -56.482311 
L 260.037081 -56.480567 
L 258.793263 -56.478242 
L 257.549445 -56.475336 
L 256.305628 -56.470105 
L 255.06181 -56.479405 
L 253.817992 -56.474174 
L 252.574174 -56.476498 
L 251.330356 -56.474174 
L 250.086538 -56.473011 
L 248.84272 -56.473026 
L 247.598902 -56.483473 
L 246.355085 -56.47708 
L 245.111267 -56.487542 
L 243.867449 -56.481148 
L 242.623631 -56.481148 
L 241.379813 -56.488123 
L 240.135995 -56.492773 
L 238.892177 -56.479986 
L 237.648359 -56.477661 
L 236.404541 -56.479986 
L 235.160724 -56.481729 
L 233.916906 -56.486379 
L 232.673088 -56.484054 
L 231.42927 -56.487542 
L 230.185452 -56.482311 
L 228.941634 -56.484054 
L 227.697816 -56.485217 
L 226.453998 -56.489867 
L 225.21018 -56.484636 
L 223.966363 -56.492773 
L 222.722545 -56.491044 
L 221.478727 -56.485217 
L 220.234909 -56.499762 
L 218.991091 -56.49626 
L 217.747273 -56.493354 
L 216.503455 -56.489867 
L 215.259637 -56.497423 
L 214.01582 -56.498585 
L 212.772002 -56.531148 
L 211.528184 -56.506141 
L 210.284366 -56.501491 
L 209.040548 -56.511953 
L 207.79673 -56.561939 
L 206.552912 -56.513697 
L 205.309094 -56.509628 
L 204.065276 -56.521834 
L 202.821459 -56.515441 
L 201.577641 -56.529971 
L 200.333823 -56.536365 
L 199.090005 -56.572997 
L 197.846187 -56.586946 
L 196.602369 -56.581119 
L 195.358551 -56.74504 
L 194.114733 -56.894473 
L 192.870915 -56.685755 
L 191.627098 -57.037412 
L 190.38328 -56.892236 
L 189.139462 -56.7927 
L 187.895644 -57.050169 
L 186.651826 -57.136787 
L 185.408008 -57.222256 
L 184.16419 -57.199559 
L 182.920372 -57.23391 
L 181.676555 -57.293718 
L 180.432737 -57.672722 
L 179.188919 -57.471036 
L 177.945101 -57.697177 
L 176.701283 -57.801187 
L 175.457465 -57.836235 
L 174.213647 -57.725628 
L 172.969829 -57.559935 
L 171.726011 -57.898819 
L 170.482194 -57.845419 
L 169.238376 -57.455866 
L 167.994558 -57.397772 
L 166.75074 -57.435567 
L 165.506922 -57.26239 
L 164.263104 -57.087949 
L 163.019286 -57.318885 
L 161.775468 -56.996159 
L 160.53165 -57.084622 
L 159.287833 -57.244416 
L 158.044015 -57.011256 
L 156.800197 -56.900823 
L 155.556379 -57.0113 
L 154.312561 -57.553585 
L 153.068743 -57.655227 
L 151.824925 -57.346624 
L 150.581107 -57.639664 
L 149.33729 -57.951435 
L 148.093472 -57.265427 
L 146.849654 -57.665108 
L 145.605836 -57.322198 
L 144.362018 -57.232791 
L 143.1182 -57.586686 
L 141.874382 -58.52358 
L 140.630564 -57.756956 
L 139.386746 -57.603192 
L 138.142929 -57.402538 
L 136.899111 -57.82108 
L 135.655293 -57.421021 
L 134.411475 -58.028491 
L 133.167657 -57.845898 
L 131.923839 -58.122664 
L 130.680021 -57.931382 
L 129.436203 -57.808133 
L 128.192385 -58.037761 
L 126.948568 -58.356274 
L 125.70475 -58.43176 
L 124.460932 -57.892963 
L 123.217114 -57.810516 
L 121.973296 -58.056927 
L 120.729478 -57.963001 
L 119.48566 -57.679144 
L 118.241842 -57.884274 
L 116.998025 -57.583808 
L 115.754207 -57.665791 
L 114.510389 -57.779667 
L 113.266571 -58.045913 
L 112.022753 -58.032458 
L 110.778935 -57.543079 
L 109.535117 -58.066794 
L 108.291299 -58.176645 
L 107.047481 -57.949952 
L 105.803664 -58.270223 
L 104.559846 -58.227198 
L 103.316028 -58.014541 
L 102.07221 -58.286512 
L 100.828392 -58.035524 
L 99.584574 -57.970252 
L 98.340756 -57.526209 
L 97.096938 -57.739069 
L 95.85312 -57.655256 
L 94.609303 -57.480873 
L 93.365485 -57.775047 
L 92.121667 -57.708758 
L 90.877849 -57.323375 
L 89.634031 -57.830859 
L 88.390213 -57.746639 
L 87.146395 -57.502945 
L 85.902577 -57.588981 
L 84.658759 -57.501826 
L 83.414942 -57.285072 
L 82.171124 -57.139766 
L 80.927306 -56.682296 
L 79.683488 -56.474174 
z
" style="stroke: #a9678f; stroke-opacity: 0.2"/>
    </defs>
    <g clip-path="url(#pd2baa0fd7b)">
     <use xlink:href="#md2706b0933" x="0" y="362.097812" style="fill: #a9678f; fill-opacity: 0.2; stroke: #a9678f; stroke-opacity: 0.2"/>
    </g>
   </g>
   <g id="PolyCollection_4">
    <defs>
     <path id="m6fb7386b1a" d="M 79.683488 -56.475336 
L 79.683488 -56.451506 
L 80.927306 -56.514278 
L 82.171124 -56.82987 
L 83.414942 -57.004834 
L 84.658759 -56.888559 
L 85.902577 -56.653177 
L 87.146395 -56.914162 
L 88.390213 -56.861823 
L 89.634031 -57.055255 
L 90.877849 -56.838007 
L 92.121667 -57.052364 
L 93.365485 -56.819989 
L 94.609303 -56.82057 
L 95.85312 -56.754296 
L 97.096938 -56.912956 
L 98.340756 -56.861213 
L 99.584574 -56.677603 
L 100.828392 -57.054224 
L 102.07221 -56.850794 
L 103.316028 -56.84023 
L 104.559846 -56.823389 
L 105.803664 -56.682137 
L 107.047481 -56.819335 
L 108.291299 -56.777559 
L 109.535117 -56.77583 
L 110.778935 -56.81239 
L 112.022753 -56.817083 
L 113.266571 -56.8147 
L 114.510389 -56.826935 
L 115.754207 -57.121065 
L 116.998025 -56.689751 
L 118.241842 -56.945534 
L 119.48566 -56.665906 
L 120.729478 -56.700198 
L 121.973296 -56.594473 
L 123.217114 -56.908888 
L 124.460932 -56.620643 
L 125.70475 -56.750809 
L 126.948568 -56.650852 
L 128.192385 -56.63109 
L 129.436203 -56.711285 
L 130.680021 -56.618318 
L 131.923839 -56.636336 
L 133.167657 -56.887382 
L 134.411475 -56.732108 
L 135.655293 -56.864671 
L 136.899111 -56.753686 
L 138.142929 -57.119335 
L 139.386746 -56.649704 
L 140.630564 -56.835697 
L 141.874382 -56.618303 
L 143.1182 -56.638065 
L 144.362018 -56.817083 
L 145.605836 -56.625859 
L 146.849654 -56.658946 
L 148.093472 -56.770599 
L 149.33729 -56.570047 
L 150.581107 -56.576469 
L 151.824925 -56.587498 
L 153.068743 -56.560776 
L 154.312561 -56.542758 
L 155.556379 -56.57413 
L 156.800197 -56.54334 
L 158.044015 -56.568914 
L 159.287833 -56.581701 
L 160.53165 -56.528228 
L 161.775468 -56.55322 
L 163.019286 -56.541581 
L 164.263104 -56.542163 
L 165.506922 -56.522997 
L 166.75074 -56.56252 
L 167.994558 -56.527632 
L 169.238376 -56.513116 
L 170.482194 -56.511372 
L 171.726011 -56.506722 
L 172.969829 -56.50322 
L 174.213647 -56.504397 
L 175.457465 -56.500329 
L 176.701283 -56.504397 
L 177.945101 -56.502072 
L 179.188919 -56.519509 
L 180.432737 -56.496841 
L 181.676555 -56.506126 
L 182.920372 -56.499166 
L 184.16419 -56.49626 
L 185.408008 -56.50091 
L 186.651826 -56.489271 
L 187.895644 -56.50787 
L 189.139462 -56.495098 
L 190.38328 -56.499748 
L 191.627098 -56.485798 
L 192.870915 -56.492192 
L 194.114733 -56.489285 
L 195.358551 -56.483473 
L 196.602369 -56.482311 
L 197.846187 -56.479405 
L 199.090005 -56.493354 
L 200.333823 -56.478823 
L 201.577641 -56.491029 
L 202.821459 -56.491029 
L 204.065276 -56.494502 
L 205.309094 -56.52474 
L 206.552912 -56.552639 
L 207.79673 -56.579361 
L 209.040548 -56.577632 
L 210.284366 -56.600866 
L 211.528184 -56.578794 
L 212.772002 -56.581686 
L 214.01582 -56.621805 
L 215.259637 -56.671209 
L 216.503455 -56.724101 
L 217.747273 -56.766516 
L 218.991091 -56.81592 
L 220.234909 -56.800809 
L 221.478727 -56.824639 
L 222.722545 -56.86935 
L 223.966363 -57.04488 
L 225.21018 -57.249501 
L 226.453998 -57.392992 
L 227.697816 -58.306724 
L 228.941634 -59.36633 
L 230.185452 -60.27271 
L 231.42927 -60.906567 
L 232.673088 -60.856538 
L 233.916906 -61.139101 
L 235.160724 -61.278014 
L 236.404541 -61.80635 
L 237.648359 -61.042618 
L 238.892177 -61.349505 
L 240.135995 -60.833579 
L 241.379813 -61.342531 
L 242.623631 -61.80635 
L 243.867449 -61.42274 
L 245.111267 -61.008906 
L 246.355085 -61.80635 
L 247.598902 -61.42274 
L 248.84272 -61.80635 
L 250.086538 -61.309401 
L 251.330356 -61.80635 
L 252.574174 -61.80635 
L 253.817992 -61.30417 
L 255.06181 -61.80635 
L 256.305628 -60.974033 
L 257.549445 -61.506437 
L 258.793263 -61.053661 
L 260.037081 -61.506437 
L 261.280899 -61.021112 
L 262.524717 -60.812452 
L 263.768535 -61.506437 
L 265.012353 -61.42274 
L 266.256171 -61.368686 
L 267.499989 -61.414603 
L 268.743806 -60.650217 
L 269.987624 -61.30417 
L 271.231442 -61.42274 
L 272.47526 -61.325094 
L 273.719078 -61.80635 
L 274.962896 -61.128639 
L 276.206714 -61.80635 
L 277.450532 -60.914675 
L 278.69435 -60.862205 
L 279.938167 -61.050173 
L 281.181985 -61.318119 
L 282.425803 -60.969383 
L 283.669621 -60.995538 
L 284.913439 -61.80635 
L 286.157257 -61.80635 
L 287.401075 -61.203472 
L 288.644893 -61.457614 
L 289.88871 -61.173975 
L 291.132528 -60.92691 
L 292.376346 -61.626751 
L 293.620164 -61.183551 
L 294.863982 -62.088826 
L 296.1078 -61.524367 
L 297.351618 -63.218731 
L 298.595436 -61.646309 
L 299.839254 -62.946717 
L 301.083071 -62.523439 
L 302.326889 -63.924922 
L 303.570707 -62.447806 
L 304.814525 -63.568252 
L 306.058343 -62.122653 
L 307.302161 -63.185601 
L 308.545979 -63.152471 
L 309.789797 -63.611059 
L 311.033615 -62.614807 
L 312.277432 -64.31725 
L 313.52125 -63.160027 
L 314.765068 -63.124573 
L 316.008886 -63.459359 
L 317.252704 -64.31725 
L 318.496522 -63.182695 
L 319.74034 -63.788915 
L 320.984158 -63.736605 
L 322.227976 -64.31725 
L 323.471793 -63.588392 
L 324.715611 -63.105392 
L 325.959429 -63.581417 
L 327.203247 -63.611059 
L 327.203247 -64.31725 
L 327.203247 -64.31725 
L 325.959429 -64.31725 
L 324.715611 -64.31725 
L 323.471793 -64.31725 
L 322.227976 -64.31725 
L 320.984158 -64.31725 
L 319.74034 -64.31725 
L 318.496522 -64.348636 
L 317.252704 -64.36433 
L 316.008886 -64.348636 
L 314.765068 -64.348636 
L 313.52125 -64.348636 
L 312.277432 -64.36433 
L 311.033615 -64.332943 
L 309.789797 -64.395716 
L 308.545979 -64.36433 
L 307.302161 -64.348636 
L 306.058343 -63.994655 
L 304.814525 -64.31725 
L 303.570707 -63.94759 
L 302.326889 -64.31725 
L 301.083071 -64.081853 
L 299.839254 -64.081853 
L 298.595436 -63.356133 
L 297.351618 -64.003388 
L 296.1078 -63.29371 
L 294.863982 -63.218731 
L 293.620164 -62.502078 
L 292.376346 -62.58345 
L 291.132528 -62.050857 
L 289.88871 -62.198678 
L 288.644893 -62.198678 
L 287.401075 -62.120212 
L 286.157257 -62.219602 
L 284.913439 -62.088826 
L 283.669621 -61.827274 
L 282.425803 -61.827274 
L 281.181985 -61.848198 
L 279.938167 -61.827274 
L 278.69435 -61.837736 
L 277.450532 -61.837736 
L 276.206714 -61.869122 
L 274.962896 -61.837736 
L 273.719078 -61.837998 
L 272.47526 -61.827274 
L 271.231442 -61.837736 
L 269.987624 -61.80635 
L 268.743806 -61.660462 
L 267.499989 -61.80635 
L 266.256171 -61.80635 
L 265.012353 -61.80635 
L 263.768535 -61.80635 
L 262.524717 -61.80635 
L 261.280899 -61.80635 
L 260.037081 -61.80635 
L 258.793263 -61.80635 
L 257.549445 -61.80635 
L 256.305628 -61.80635 
L 255.06181 -61.80635 
L 253.817992 -61.80635 
L 252.574174 -61.80635 
L 251.330356 -61.80635 
L 250.086538 -61.80635 
L 248.84272 -61.80635 
L 247.598902 -61.80635 
L 246.355085 -61.80635 
L 245.111267 -61.80635 
L 243.867449 -61.837736 
L 242.623631 -61.85866 
L 241.379813 -61.837736 
L 240.135995 -61.806611 
L 238.892177 -61.837736 
L 237.648359 -61.827274 
L 236.404541 -61.80635 
L 235.160724 -61.80635 
L 233.916906 -61.827274 
L 232.673088 -61.869122 
L 231.42927 -61.869122 
L 230.185452 -61.487619 
L 228.941634 -60.960752 
L 227.697816 -59.759486 
L 226.453998 -58.293487 
L 225.21018 -57.816227 
L 223.966363 -57.34892 
L 222.722545 -57.139097 
L 221.478727 -57.016487 
L 220.234909 -56.9223 
L 218.991091 -56.851971 
L 217.747273 -56.841509 
L 216.503455 -56.817112 
L 215.259637 -56.771195 
L 214.01582 -56.725264 
L 212.772002 -56.670628 
L 211.528184 -56.645635 
L 210.284366 -56.657841 
L 209.040548 -56.625307 
L 207.79673 -56.628199 
L 206.552912 -56.599748 
L 205.309094 -56.57182 
L 204.065276 -56.539271 
L 202.821459 -56.531134 
L 201.577641 -56.52243 
L 200.333823 -56.504979 
L 199.090005 -56.517184 
L 197.846187 -56.507885 
L 196.602369 -56.502087 
L 195.358551 -56.50091 
L 194.114733 -56.514859 
L 192.870915 -56.516603 
L 191.627098 -56.514293 
L 190.38328 -56.543935 
L 189.139462 -56.525903 
L 187.895644 -56.539867 
L 186.651826 -56.54161 
L 185.408008 -56.536961 
L 184.16419 -56.527065 
L 182.920372 -56.536946 
L 181.676555 -56.55322 
L 180.432737 -56.52474 
L 179.188919 -56.55556 
L 177.945101 -56.568347 
L 176.701283 -56.534621 
L 175.457465 -56.528809 
L 174.213647 -56.535798 
L 172.969829 -56.535784 
L 171.726011 -56.542177 
L 170.482194 -56.541596 
L 169.238376 -56.548571 
L 167.994558 -56.583444 
L 166.75074 -56.684621 
L 165.506922 -56.571238 
L 164.263104 -57.087978 
L 163.019286 -56.653773 
L 161.775468 -56.728809 
L 160.53165 -56.868289 
L 159.287833 -56.709033 
L 158.044015 -56.643311 
L 156.800197 -56.809556 
L 155.556379 -56.859556 
L 154.312561 -56.593325 
L 153.068743 -56.637527 
L 151.824925 -56.736917 
L 150.581107 -56.697379 
L 149.33729 -56.757246 
L 148.093472 -57.709877 
L 146.849654 -57.088007 
L 145.605836 -57.31595 
L 144.362018 -57.742483 
L 143.1182 -57.259411 
L 141.874382 -57.11765 
L 140.630564 -57.747119 
L 139.386746 -57.131774 
L 138.142929 -57.974989 
L 136.899111 -57.30713 
L 135.655293 -57.643108 
L 134.411475 -57.415848 
L 133.167657 -57.725584 
L 131.923839 -57.199617 
L 130.680021 -57.150155 
L 129.436203 -57.13853 
L 128.192385 -56.86595 
L 126.948568 -57.111256 
L 125.70475 -57.354761 
L 124.460932 -56.98683 
L 123.217114 -57.644997 
L 121.973296 -57.035072 
L 120.729478 -57.239097 
L 119.48566 -57.22076 
L 118.241842 -57.90947 
L 116.998025 -57.286729 
L 115.754207 -57.890638 
L 114.510389 -57.32355 
L 113.266571 -57.535044 
L 112.022753 -57.48439 
L 110.778935 -57.489098 
L 109.535117 -57.44135 
L 108.291299 -57.455357 
L 107.047481 -57.776442 
L 105.803664 -57.170658 
L 104.559846 -57.482675 
L 103.316028 -57.472155 
L 102.07221 -57.51922 
L 100.828392 -58.237108 
L 99.584574 -57.131556 
L 98.340756 -57.579188 
L 97.096938 -58.041859 
L 95.85312 -57.633809 
L 94.609303 -57.772664 
L 93.365485 -57.440202 
L 92.121667 -57.853774 
L 90.877849 -57.86396 
L 89.634031 -58.316736 
L 88.390213 -57.365238 
L 87.146395 -58.104631 
L 85.902577 -56.916545 
L 84.658759 -57.702713 
L 83.414942 -58.064033 
L 82.171124 -57.738618 
L 80.927306 -57.19148 
L 79.683488 -56.475336 
z
" style="stroke: #6c3f70; stroke-opacity: 0.2"/>
    </defs>
    <g clip-path="url(#pd2baa0fd7b)">
     <use xlink:href="#m6fb7386b1a" x="0" y="362.097812" style="fill: #6c3f70; fill-opacity: 0.2; stroke: #6c3f70; stroke-opacity: 0.2"/>
    </g>
   </g>
   <g id="PolyCollection_5">
    <defs>
     <path id="mba172fa731" d="M 79.683488 -56.460805 
L 79.683488 -56.453249 
L 80.927306 -56.456155 
L 82.171124 -56.460805 
L 83.414942 -56.478228 
L 84.658759 -56.467199 
L 85.902577 -56.509614 
L 87.146395 -56.57878 
L 88.390213 -56.65896 
L 89.634031 -56.7113 
L 90.877849 -56.680509 
L 92.121667 -56.9037 
L 93.365485 -56.85883 
L 94.609303 -57.034985 
L 95.85312 -57.183227 
L 97.096938 -57.411039 
L 98.340756 -57.482544 
L 99.584574 -57.541873 
L 100.828392 -57.676122 
L 102.07221 -58.082966 
L 103.316028 -58.440435 
L 104.559846 -58.607843 
L 105.803664 -58.500316 
L 107.047481 -58.272446 
L 108.291299 -58.705112 
L 109.535117 -59.01646 
L 110.778935 -58.842034 
L 112.022753 -59.003499 
L 113.266571 -58.714774 
L 114.510389 -58.305402 
L 115.754207 -59.137937 
L 116.998025 -58.858846 
L 118.241842 -59.019919 
L 119.48566 -59.0798 
L 120.729478 -59.186702 
L 121.973296 -58.723507 
L 123.217114 -58.742034 
L 124.460932 -58.931558 
L 125.70475 -58.626413 
L 126.948568 -58.707233 
L 128.192385 -58.906521 
L 129.436203 -58.613539 
L 130.680021 -58.686759 
L 131.923839 -58.50841 
L 133.167657 -59.062871 
L 134.411475 -58.570543 
L 135.655293 -58.716504 
L 136.899111 -58.42823 
L 138.142929 -58.827518 
L 139.386746 -59.257626 
L 140.630564 -58.588517 
L 141.874382 -59.288402 
L 143.1182 -59.537211 
L 144.362018 -59.231979 
L 145.605836 -59.330773 
L 146.849654 -58.947643 
L 148.093472 -59.03506 
L 149.33729 -59.180889 
L 150.581107 -59.736499 
L 151.824925 -59.692863 
L 153.068743 -59.752236 
L 154.312561 -60.58573 
L 155.556379 -60.281007 
L 156.800197 -60.377549 
L 158.044015 -60.843707 
L 159.287833 -60.610054 
L 160.53165 -61.680732 
L 161.775468 -61.881096 
L 163.019286 -62.812381 
L 164.263104 -62.56132 
L 165.506922 -63.237621 
L 166.75074 -62.085862 
L 167.994558 -62.16007 
L 169.238376 -62.622799 
L 170.482194 -63.713937 
L 171.726011 -62.657266 
L 172.969829 -61.733551 
L 174.213647 -63.406264 
L 175.457465 -63.76741 
L 176.701283 -62.172363 
L 177.945101 -62.946601 
L 179.188919 -63.462847 
L 180.432737 -62.098998 
L 181.676555 -63.740019 
L 182.920372 -62.958778 
L 184.16419 -64.205655 
L 185.408008 -63.422844 
L 186.651826 -62.023714 
L 187.895644 -64.247503 
L 189.139462 -63.208269 
L 190.38328 -62.971129 
L 191.627098 -62.845584 
L 192.870915 -63.536081 
L 194.114733 -62.945511 
L 195.358551 -62.680341 
L 196.602369 -62.890919 
L 197.846187 -64.979849 
L 199.090005 -64.972874 
L 200.333823 -62.62588 
L 201.577641 -63.389045 
L 202.821459 -62.894407 
L 204.065276 -62.178146 
L 205.309094 -62.650291 
L 206.552912 -63.96677 
L 207.79673 -61.569136 
L 209.040548 -63.802792 
L 210.284366 -62.374775 
L 211.528184 -63.358705 
L 212.772002 -64.931026 
L 214.01582 -64.149857 
L 215.259637 -64.141138 
L 216.503455 -63.355901 
L 217.747273 -64.207224 
L 218.991091 -64.175838 
L 220.234909 -63.626753 
L 221.478727 -64.176012 
L 222.722545 -64.938001 
L 223.966363 -62.853721 
L 225.21018 -63.355901 
L 226.453998 -64.135907 
L 227.697816 -63.364416 
L 228.941634 -63.385689 
L 230.185452 -63.488246 
L 231.42927 -62.85112 
L 232.673088 -64.216117 
L 233.916906 -64.931026 
L 235.160724 -64.931026 
L 236.404541 -64.931026 
L 237.648359 -63.917947 
L 238.892177 -62.887214 
L 240.135995 -63.961539 
L 241.379813 -64.931026 
L 242.623631 -63.605828 
L 243.867449 -64.148113 
L 245.111267 -63.340789 
L 246.355085 -63.650583 
L 247.598902 -63.650583 
L 248.84272 -64.144626 
L 250.086538 -64.135907 
L 251.330356 -64.931026 
L 252.574174 -64.931026 
L 253.817992 -63.641865 
L 255.06181 -64.177756 
L 256.305628 -63.66337 
L 257.549445 -63.641865 
L 258.793263 -64.931026 
L 260.037081 -64.14637 
L 261.280899 -64.931026 
L 262.524717 -64.931026 
L 263.768535 -64.931026 
L 265.012353 -64.162063 
L 266.256171 -63.697662 
L 267.499989 -63.201876 
L 268.743806 -63.665695 
L 269.987624 -64.189962 
L 271.231442 -63.155959 
L 272.47526 -64.16555 
L 273.719078 -63.360856 
L 274.962896 -64.931026 
L 276.206714 -64.931026 
L 277.450532 -64.931026 
L 278.69435 -64.189962 
L 279.938167 -64.256221 
L 281.181985 -64.135907 
L 282.425803 -64.931026 
L 283.669621 -64.931026 
L 284.913439 -63.665114 
L 286.157257 -64.931026 
L 287.401075 -64.135907 
L 288.644893 -64.135907 
L 289.88871 -64.135907 
L 291.132528 -64.931026 
L 292.376346 -64.931026 
L 293.620164 -64.931026 
L 294.863982 -64.189962 
L 296.1078 -63.374006 
L 297.351618 -63.650583 
L 298.595436 -64.931026 
L 299.839254 -64.174268 
L 301.083071 -64.135907 
L 302.326889 -64.931026 
L 303.570707 -64.931026 
L 304.814525 -64.931026 
L 306.058343 -63.612803 
L 307.302161 -64.135907 
L 308.545979 -63.107121 
L 309.789797 -64.195193 
L 311.033615 -64.931026 
L 312.277432 -64.135907 
L 313.52125 -63.612803 
L 314.765068 -63.945265 
L 316.008886 -64.142882 
L 317.252704 -63.643027 
L 318.496522 -64.135907 
L 319.74034 -64.931026 
L 320.984158 -64.191705 
L 322.227976 -64.931026 
L 323.471793 -63.148345 
L 324.715611 -63.16228 
L 325.959429 -63.617453 
L 327.203247 -64.931026 
L 327.203247 -64.95195 
L 327.203247 -64.95195 
L 325.959429 -64.944975 
L 324.715611 -64.944975 
L 323.471793 -64.944975 
L 322.227976 -64.95195 
L 320.984158 -64.931026 
L 319.74034 -64.931026 
L 318.496522 -64.931026 
L 317.252704 -64.931026 
L 316.008886 -64.931026 
L 314.765068 -64.931026 
L 313.52125 -64.931026 
L 312.277432 -64.931026 
L 311.033615 -64.931026 
L 309.789797 -64.931026 
L 308.545979 -64.931026 
L 307.302161 -64.931026 
L 306.058343 -64.931026 
L 304.814525 -64.931026 
L 303.570707 -64.931026 
L 302.326889 -64.931026 
L 301.083071 -64.931026 
L 299.839254 -64.931026 
L 298.595436 -64.931026 
L 297.351618 -64.931026 
L 296.1078 -64.931026 
L 294.863982 -64.931026 
L 293.620164 -64.931026 
L 292.376346 -64.931026 
L 291.132528 -64.931026 
L 289.88871 -64.931026 
L 288.644893 -64.931026 
L 287.401075 -64.931026 
L 286.157257 -64.931026 
L 284.913439 -64.931026 
L 283.669621 -65.121087 
L 282.425803 -64.931026 
L 281.181985 -64.931026 
L 279.938167 -64.931026 
L 278.69435 -64.931026 
L 277.450532 -64.931026 
L 276.206714 -64.931026 
L 274.962896 -64.931026 
L 273.719078 -64.931026 
L 272.47526 -64.931026 
L 271.231442 -64.931026 
L 269.987624 -64.931026 
L 268.743806 -64.944975 
L 267.499989 -64.931026 
L 266.256171 -64.931026 
L 265.012353 -64.931026 
L 263.768535 -64.931026 
L 262.524717 -64.931026 
L 261.280899 -64.931026 
L 260.037081 -64.931026 
L 258.793263 -64.931026 
L 257.549445 -64.931026 
L 256.305628 -64.931026 
L 255.06181 -64.931026 
L 253.817992 -64.931026 
L 252.574174 -64.931026 
L 251.330356 -64.931026 
L 250.086538 -64.931026 
L 248.84272 -64.931026 
L 247.598902 -64.931026 
L 246.355085 -64.931026 
L 245.111267 -64.931026 
L 243.867449 -64.931026 
L 242.623631 -64.931026 
L 241.379813 -64.931026 
L 240.135995 -64.931026 
L 238.892177 -64.688654 
L 237.648359 -64.931026 
L 236.404541 -64.931026 
L 235.160724 -64.931026 
L 233.916906 -64.931026 
L 232.673088 -64.931026 
L 231.42927 -64.665986 
L 230.185452 -64.938001 
L 228.941634 -64.944975 
L 227.697816 -64.944975 
L 226.453998 -64.958925 
L 225.21018 -64.938001 
L 223.966363 -64.69156 
L 222.722545 -64.986824 
L 221.478727 -64.972874 
L 220.234909 -64.95195 
L 218.991091 -64.972874 
L 217.747273 -64.972874 
L 216.503455 -64.944975 
L 215.259637 -64.958925 
L 214.01582 -64.944975 
L 212.772002 -64.9659 
L 211.528184 -64.94515 
L 210.284366 -64.469604 
L 209.040548 -65.000773 
L 207.79673 -63.948186 
L 206.552912 -65.021872 
L 205.309094 -64.681156 
L 204.065276 -64.517817 
L 202.821459 -64.774095 
L 201.577641 -65.021697 
L 200.333823 -64.721915 
L 199.090005 -65.042621 
L 197.846187 -65.049596 
L 196.602369 -64.74977 
L 195.358551 -64.749683 
L 194.114733 -64.766539 
L 192.870915 -64.918471 
L 191.627098 -64.770782 
L 190.38328 -64.812456 
L 189.139462 -65.07052 
L 187.895644 -65.091445 
L 186.651826 -64.357384 
L 185.408008 -65.042621 
L 184.16419 -65.077495 
L 182.920372 -64.835123 
L 181.676555 -65.08447 
L 180.432737 -64.272525 
L 179.188919 -65.056571 
L 177.945101 -64.784731 
L 176.701283 -64.399029 
L 175.457465 -65.07052 
L 174.213647 -65.042621 
L 172.969829 -64.107863 
L 171.726011 -64.775838 
L 170.482194 -65.063546 
L 169.238376 -64.76372 
L 167.994558 -64.444001 
L 166.75074 -64.265027 
L 165.506922 -64.720041 
L 164.263104 -64.428018 
L 163.019286 -64.610363 
L 161.775468 -63.825183 
L 160.53165 -63.725082 
L 159.287833 -62.90731 
L 158.044015 -62.714822 
L 156.800197 -62.372508 
L 155.556379 -62.141151 
L 154.312561 -61.970604 
L 153.068743 -61.236326 
L 151.824925 -61.048546 
L 150.581107 -60.878726 
L 149.33729 -60.568641 
L 148.093472 -60.338214 
L 146.849654 -60.233956 
L 145.605836 -60.406828 
L 144.362018 -60.373582 
L 143.1182 -60.494055 
L 141.874382 -60.416316 
L 140.630564 -59.980164 
L 139.386746 -60.257409 
L 138.142929 -59.930919 
L 136.899111 -59.665822 
L 135.655293 -59.743081 
L 134.411475 -59.60735 
L 133.167657 -59.787385 
L 131.923839 -59.439652 
L 130.680021 -59.453587 
L 129.436203 -59.390233 
L 128.192385 -59.512421 
L 126.948568 -59.414078 
L 125.70475 -59.379175 
L 124.460932 -59.477388 
L 123.217114 -59.388489 
L 121.973296 -59.387864 
L 120.729478 -59.488417 
L 119.48566 -59.4815 
L 118.241842 -59.479117 
L 116.998025 -59.454938 
L 115.754207 -59.483767 
L 114.510389 -59.169904 
L 113.266571 -59.335554 
L 112.022753 -59.460518 
L 110.778935 -59.677373 
L 109.535117 -59.49715 
L 108.291299 -59.394316 
L 107.047481 -59.150172 
L 105.803664 -59.224118 
L 104.559846 -59.227533 
L 103.316028 -59.096888 
L 102.07221 -58.78458 
L 100.828392 -58.355649 
L 99.584574 -58.142469 
L 98.340756 -58.023754 
L 97.096938 -57.912289 
L 95.85312 -57.676747 
L 94.609303 -57.540158 
L 93.365485 -57.228621 
L 92.121667 -57.206723 
L 90.877849 -56.921835 
L 89.634031 -56.963 
L 88.390213 -56.793877 
L 87.146395 -56.725845 
L 85.902577 -56.622997 
L 84.658759 -56.514874 
L 83.414942 -56.503235 
L 82.171124 -56.474755 
L 80.927306 -56.464874 
L 79.683488 -56.460805 
z
" style="stroke: #2d1e3e; stroke-opacity: 0.2"/>
    </defs>
    <g clip-path="url(#pd2baa0fd7b)">
     <use xlink:href="#mba172fa731" x="0" y="362.097812" style="fill: #2d1e3e; fill-opacity: 0.2; stroke: #2d1e3e; stroke-opacity: 0.2"/>
    </g>
   </g>
   <g id="line2d_14">
    <path d="M 79.683488 305.634682 
L 83.414942 305.523087 
L 85.902577 305.347556 
L 88.390213 304.604167 
L 89.634031 302.533836 
L 90.877849 300.883733 
L 92.121667 300.168824 
L 93.365485 299.079023 
L 94.609303 298.353071 
L 95.85312 298.131042 
L 98.340756 293.363819 
L 99.584574 291.920051 
L 100.828392 290.183345 
L 102.07221 274.371065 
L 103.316028 274.640754 
L 104.559846 251.856657 
L 105.803664 244.784287 
L 107.047481 248.948779 
L 108.291299 246.07868 
L 109.535117 246.019395 
L 110.778935 246.192019 
L 112.022753 245.94616 
L 113.266571 250.60295 
L 114.510389 244.412302 
L 115.754207 252.185632 
L 116.998025 249.494551 
L 118.241842 259.366109 
L 119.48566 251.364358 
L 120.729478 256.053697 
L 121.973296 250.121113 
L 123.217114 247.127213 
L 124.460932 255.488163 
L 125.70475 254.028702 
L 126.948568 254.401269 
L 128.192385 253.874096 
L 129.436203 252.1897 
L 130.680021 249.345175 
L 131.923839 247.431195 
L 133.167657 253.727045 
L 134.411475 249.441659 
L 135.655293 250.409983 
L 136.899111 250.82556 
L 138.142929 246.859268 
L 139.386746 246.416373 
L 140.630564 251.430618 
L 141.874382 248.161216 
L 143.1182 250.078684 
L 144.362018 253.943843 
L 145.605836 252.872061 
L 146.849654 252.588422 
L 148.093472 245.202771 
L 149.33729 249.092923 
L 150.581107 247.04991 
L 151.824925 247.913032 
L 153.068743 250.546571 
L 154.312561 248.579118 
L 155.556379 251.094087 
L 156.800197 250.860434 
L 158.044015 256.026379 
L 159.287833 252.439628 
L 160.53165 247.169643 
L 161.775468 244.33093 
L 163.019286 258.3478 
L 164.263104 245.749124 
L 165.506922 250.518673 
L 166.75074 246.862755 
L 167.994558 252.433234 
L 169.238376 251.483509 
L 170.482194 250.134482 
L 171.726011 248.096119 
L 172.969829 249.774702 
L 174.213647 250.753488 
L 175.457465 249.969413 
L 176.701283 255.859567 
L 177.945101 257.220801 
L 179.188919 250.17633 
L 180.432737 254.110074 
L 181.676555 249.827594 
L 182.920372 251.31786 
L 184.16419 251.430618 
L 185.408008 249.744478 
L 186.651826 251.406787 
L 187.895644 245.135348 
L 189.139462 242.225726 
L 190.38328 244.037992 
L 191.627098 242.162954 
L 192.870915 240.892392 
L 194.114733 219.547412 
L 195.358551 162.283188 
L 196.602369 110.987002 
L 197.846187 99.791408 
L 199.090005 79.755352 
L 200.333823 88.504561 
L 201.577641 66.090125 
L 202.821459 68.012823 
L 204.065276 57.890756 
L 205.309094 56.602757 
L 206.552912 74.014573 
L 207.79673 82.448176 
L 209.040548 73.057873 
L 210.284366 80.333673 
L 211.528184 79.616439 
L 212.772002 61.984337 
L 214.01582 81.458347 
L 215.259637 65.905876 
L 216.503455 57.759398 
L 217.747273 75.141572 
L 218.991091 73.194462 
L 220.234909 59.171199 
L 221.478727 50.22321 
L 222.722545 99.094517 
L 223.966363 79.839048 
L 225.21018 63.93726 
L 226.453998 72.077344 
L 227.697816 90.340657 
L 228.941634 73.869848 
L 230.185452 55.915746 
L 231.42927 87.85475 
L 232.673088 51.89075 
L 233.916906 76.67543 
L 235.160724 70.453395 
L 236.404541 69.790797 
L 237.648359 54.11743 
L 238.892177 94.515611 
L 240.135995 61.822175 
L 241.379813 73.249097 
L 242.623631 68.280769 
L 243.867449 91.198548 
L 245.111267 98.414481 
L 246.355085 67.124709 
L 247.598902 88.19128 
L 248.84272 99.439766 
L 250.086538 125.665308 
L 251.330356 90.037257 
L 252.574174 121.20904 
L 253.817992 105.128234 
L 255.06181 85.932051 
L 256.305628 101.941948 
L 257.549445 82.013419 
L 258.793263 96.962576 
L 260.037081 93.271204 
L 261.280899 81.736755 
L 262.524717 60.837576 
L 263.768535 69.812302 
L 265.012353 109.167761 
L 266.256171 44.590539 
L 267.499989 46.692837 
L 268.743806 63.597242 
L 269.987624 43.928521 
L 272.47526 62.535922 
L 273.719078 60.584743 
L 274.962896 56.820136 
L 276.206714 90.535368 
L 277.450532 57.43333 
L 278.69435 84.346464 
L 279.938167 64.601021 
L 281.181985 47.910507 
L 282.425803 89.211333 
L 283.669621 62.749813 
L 284.913439 63.671058 
L 286.157257 63.530982 
L 288.644893 110.229663 
L 289.88871 86.734725 
L 291.132528 72.796321 
L 292.376346 64.643451 
L 293.620164 102.735322 
L 294.863982 96.251736 
L 296.1078 120.220373 
L 297.351618 123.100353 
L 298.595436 64.524299 
L 299.839254 83.685027 
L 301.083071 73.679786 
L 302.326889 85.95995 
L 303.570707 154.137873 
L 304.814525 94.36856 
L 306.058343 70.795157 
L 307.302161 80.066308 
L 308.545979 73.017188 
L 309.789797 64.369693 
L 311.033615 96.42901 
L 312.277432 72.749242 
L 313.52125 97.565309 
L 314.765068 101.247963 
L 316.008886 74.78993 
L 317.252704 90.354607 
L 318.496522 84.801564 
L 319.74034 94.015174 
L 320.984158 84.539431 
L 322.227976 100.59757 
L 323.471793 107.31481 
L 324.715611 82.622544 
L 325.959429 60.245306 
L 327.203247 59.653036 
L 327.203247 59.653036 
" clip-path="url(#pd2baa0fd7b)" style="fill: none; stroke: #edd1cb; stroke-width: 1.5; stroke-linecap: round"/>
   </g>
   <g id="line2d_15">
    <path d="M 79.683488 305.622477 
L 80.927306 305.506231 
L 82.171124 305.165051 
L 85.902577 305.088329 
L 179.188919 305.089491 
L 184.16419 305.071473 
L 187.895644 305.105766 
L 195.358551 305.071473 
L 202.821459 305.071473 
L 314.765068 305.044156 
L 316.008886 304.811665 
L 320.984158 304.450142 
L 327.203247 304.436773 
L 327.203247 304.436773 
" clip-path="url(#pd2baa0fd7b)" style="fill: none; stroke: #d499a7; stroke-width: 1.5; stroke-linecap: round"/>
   </g>
   <g id="line2d_16">
    <path d="M 79.683488 305.637007 
L 80.927306 305.52483 
L 82.171124 305.170863 
L 85.902577 304.731456 
L 87.146395 304.807015 
L 88.390213 304.664033 
L 89.634031 304.634972 
L 90.877849 304.995914 
L 92.121667 304.671589 
L 93.365485 304.61521 
L 94.609303 304.841307 
L 97.096938 304.655896 
L 98.340756 304.807596 
L 99.584574 304.446654 
L 100.828392 304.410037 
L 102.07221 304.165341 
L 103.316028 304.453048 
L 104.559846 304.265893 
L 105.803664 304.242644 
L 107.047481 304.482109 
L 108.291299 304.319366 
L 109.535117 304.45886 
L 110.778935 304.896524 
L 112.022753 304.498965 
L 113.266571 304.446654 
L 114.510389 304.699488 
L 116.998025 304.801784 
L 118.241842 304.585568 
L 119.48566 304.727968 
L 120.729478 304.479203 
L 121.973296 304.444911 
L 123.217114 304.65764 
L 124.460932 304.674495 
L 125.70475 304.156041 
L 126.948568 304.167084 
L 129.436203 304.648921 
L 131.923839 304.473972 
L 133.167657 304.669264 
L 134.411475 304.54895 
L 135.655293 304.993589 
L 136.899111 304.725062 
L 138.142929 305.058686 
L 140.630564 304.736687 
L 141.874382 303.960167 
L 143.1182 304.871531 
L 144.362018 305.13134 
L 145.605836 305.086004 
L 146.849654 304.772141 
L 148.093472 305.083679 
L 149.33729 304.5629 
L 151.824925 305.062755 
L 153.068743 304.824452 
L 154.312561 304.981964 
L 155.556379 305.296408 
L 156.800197 305.395217 
L 160.53165 305.281878 
L 161.775468 305.286527 
L 163.019286 305.080773 
L 164.263104 305.228986 
L 169.238376 304.885481 
L 170.482194 304.611723 
L 171.726011 304.622185 
L 172.969829 304.913961 
L 175.457465 304.632066 
L 179.188919 304.988358 
L 180.432737 304.853513 
L 181.676555 305.128434 
L 187.895644 305.260953 
L 189.139462 305.446946 
L 194.114733 305.348719 
L 196.602369 305.548079 
L 216.503455 305.616083 
L 266.256171 305.627708 
L 292.376346 305.627126 
L 327.203247 305.632939 
L 327.203247 305.632939 
" clip-path="url(#pd2baa0fd7b)" style="fill: none; stroke: #a9678f; stroke-width: 1.5; stroke-linecap: round"/>
   </g>
   <g id="line2d_17">
    <path d="M 79.683488 305.637588 
L 80.927306 305.346975 
L 82.171124 304.876181 
L 83.414942 304.630322 
L 84.658759 304.869788 
L 85.902577 305.324888 
L 87.146395 304.664033 
L 88.390213 305.00347 
L 89.634031 304.489665 
L 90.877849 304.819802 
L 92.121667 304.691932 
L 93.365485 305.022069 
L 94.609303 304.869206 
L 95.85312 304.99882 
L 97.096938 304.661708 
L 99.584574 305.208643 
L 100.828392 304.523958 
L 102.07221 304.938954 
L 104.559846 304.971502 
L 105.803664 305.189462 
L 107.047481 304.852351 
L 108.291299 305.013351 
L 114.510389 305.042993 
L 115.754207 304.605329 
L 116.998025 305.162145 
L 118.241842 304.712275 
L 119.48566 305.194112 
L 120.729478 305.166795 
L 121.973296 305.352787 
L 123.217114 304.829683 
L 124.460932 305.313845 
L 125.70475 305.070892 
L 128.192385 305.369643 
L 129.436203 305.205156 
L 131.923839 305.214455 
L 133.167657 304.839564 
L 134.411475 305.046481 
L 135.655293 304.888968 
L 136.899111 305.094722 
L 138.142929 304.590799 
L 139.386746 305.243517 
L 140.630564 304.824452 
L 141.874382 305.276065 
L 143.1182 305.198762 
L 144.362018 304.871531 
L 145.605836 305.15517 
L 146.849654 305.230148 
L 148.093472 304.907567 
L 149.33729 305.441715 
L 154.312561 305.530643 
L 155.556379 305.416722 
L 159.287833 305.457989 
L 164.263104 305.350462 
L 165.506922 305.553311 
L 166.75074 305.478332 
L 170.482194 305.57191 
L 206.552912 305.520762 
L 222.722545 305.104022 
L 225.21018 304.602423 
L 226.453998 304.303673 
L 228.941634 301.899718 
L 230.185452 301.154004 
L 231.42927 300.695997 
L 233.916906 300.556502 
L 236.404541 300.291463 
L 237.648359 300.584401 
L 238.892177 300.433282 
L 240.135995 300.724477 
L 241.379813 300.435607 
L 242.623631 300.270539 
L 245.111267 300.606488 
L 246.355085 300.291463 
L 247.598902 300.419333 
L 248.84272 300.291463 
L 250.086538 300.457112 
L 251.330356 300.291463 
L 252.574174 300.291463 
L 253.817992 300.458856 
L 255.06181 300.291463 
L 256.305628 300.623925 
L 257.549445 300.391434 
L 258.793263 300.584982 
L 260.037081 300.391434 
L 262.524717 300.743657 
L 263.768535 300.391434 
L 267.499989 300.437351 
L 268.743806 300.866877 
L 269.987624 300.458856 
L 273.719078 300.281001 
L 274.962896 300.536741 
L 276.206714 300.260077 
L 277.450532 300.666935 
L 278.69435 300.68321 
L 281.181985 300.43677 
L 282.425803 300.615787 
L 283.669621 300.610556 
L 284.913439 300.197304 
L 286.157257 300.124069 
L 287.401075 300.385622 
L 288.644893 300.221716 
L 291.132528 300.533253 
L 292.376346 299.974694 
L 293.620164 300.243802 
L 294.863982 299.438803 
L 296.1078 299.617821 
L 297.351618 298.486753 
L 298.595436 299.478326 
L 299.839254 298.502446 
L 301.083071 298.699482 
L 302.326889 297.937494 
L 303.570707 298.769229 
L 304.814525 298.056064 
L 306.058343 298.99242 
L 307.302161 298.207764 
L 308.545979 298.228688 
L 309.789797 297.984573 
L 311.033615 298.501865 
L 312.277432 297.764869 
L 313.52125 298.229851 
L 314.765068 298.246125 
L 316.008886 298.078732 
L 317.252704 297.764869 
L 318.496522 298.217064 
L 319.74034 297.956674 
L 320.984158 297.974111 
L 322.227976 297.780562 
L 324.715611 298.263562 
L 325.959429 298.02584 
L 327.203247 298.015959 
L 327.203247 298.015959 
" clip-path="url(#pd2baa0fd7b)" style="fill: none; stroke: #6c3f70; stroke-width: 1.5; stroke-linecap: round"/>
   </g>
   <g id="line2d_18">
    <path d="M 79.683488 305.641076 
L 85.902577 305.538199 
L 89.634031 305.280134 
L 90.877849 305.301639 
L 92.121667 305.057524 
L 93.365485 305.069148 
L 97.096938 304.430961 
L 100.828392 304.080481 
L 103.316028 303.318493 
L 104.559846 303.172024 
L 105.803664 303.201085 
L 107.047481 303.366735 
L 109.535117 302.796551 
L 112.022753 302.836656 
L 114.510389 303.338836 
L 115.754207 302.742497 
L 116.998025 302.924421 
L 119.48566 302.777371 
L 120.729478 302.714598 
L 121.973296 302.998237 
L 124.460932 302.867461 
L 125.70475 303.087164 
L 128.192385 302.863392 
L 129.436203 303.059847 
L 130.680021 302.992424 
L 131.923839 303.106345 
L 133.167657 302.649501 
L 134.411475 302.984287 
L 135.655293 302.837818 
L 136.899111 303.01393 
L 139.386746 302.313551 
L 140.630564 302.812825 
L 141.874382 302.196725 
L 143.1182 302.025844 
L 144.362018 302.262985 
L 145.605836 302.218811 
L 146.849654 302.464089 
L 149.33729 302.1851 
L 150.581107 301.75848 
L 153.068743 301.607361 
L 154.312561 300.779693 
L 155.556379 300.932556 
L 156.800197 300.654148 
L 158.044015 300.25717 
L 159.287833 300.299019 
L 160.53165 299.298146 
L 161.775468 299.184807 
L 163.019286 298.273443 
L 164.263104 298.560569 
L 165.506922 298.007822 
L 166.75074 298.766904 
L 167.994558 298.768067 
L 169.238376 298.383295 
L 170.482194 297.581783 
L 172.969829 299.076117 
L 174.213647 297.854378 
L 175.457465 297.560858 
L 176.701283 298.740749 
L 179.188919 297.709071 
L 180.432737 298.856995 
L 181.676555 297.56144 
L 182.920372 298.074663 
L 184.16419 297.32023 
L 185.408008 297.825317 
L 186.651826 298.804103 
L 187.895644 297.306281 
L 189.139462 297.83171 
L 190.38328 298.094425 
L 191.627098 298.226945 
L 192.870915 297.752663 
L 194.114733 298.119999 
L 195.358551 298.362952 
L 196.602369 298.160685 
L 197.846187 297.08309 
L 199.090005 297.090065 
L 200.333823 298.392594 
L 201.577641 297.831129 
L 202.821459 298.132786 
L 204.065276 298.634966 
L 205.309094 298.310641 
L 206.552912 297.48588 
L 207.79673 299.269085 
L 209.040548 297.6277 
L 210.284366 298.642522 
L 212.772002 297.152837 
L 214.01582 297.420202 
L 215.259637 297.416133 
L 216.503455 297.943887 
L 217.747273 297.391721 
L 218.991091 297.402184 
L 220.234909 297.675941 
L 222.722545 297.138888 
L 223.966363 298.19614 
L 225.21018 297.947374 
L 226.453998 297.417877 
L 227.697816 297.918313 
L 230.185452 297.823573 
L 231.42927 298.229851 
L 232.673088 297.45275 
L 233.916906 297.166787 
L 236.404541 297.166787 
L 237.648359 297.549815 
L 238.892177 298.186259 
L 240.135995 297.409158 
L 241.379813 297.166787 
L 242.623631 297.696866 
L 243.867449 297.427757 
L 245.111267 297.943887 
L 246.355085 297.675941 
L 247.598902 297.675941 
L 248.84272 297.42892 
L 250.086538 297.431826 
L 251.330356 297.166787 
L 252.574174 297.166787 
L 253.817992 297.678848 
L 255.06181 297.417877 
L 256.305628 297.673035 
L 257.549445 297.678848 
L 258.793263 297.166787 
L 260.037081 297.428339 
L 261.280899 297.166787 
L 263.768535 297.166787 
L 267.499989 297.925869 
L 269.987624 297.413808 
L 271.231442 297.9404 
L 272.47526 297.421945 
L 273.719078 297.941562 
L 274.962896 297.166787 
L 277.450532 297.166787 
L 278.69435 297.413808 
L 281.181985 297.431826 
L 282.425803 297.166787 
L 283.669621 297.103433 
L 284.913439 297.668967 
L 286.157257 297.166787 
L 287.401075 297.431826 
L 289.88871 297.431826 
L 291.132528 297.166787 
L 293.620164 297.166787 
L 294.863982 297.413808 
L 296.1078 297.933425 
L 297.351618 297.675941 
L 298.595436 297.166787 
L 299.839254 297.419039 
L 301.083071 297.431826 
L 302.326889 297.166787 
L 304.814525 297.166787 
L 306.058343 297.693378 
L 307.302161 297.431826 
L 308.545979 297.951443 
L 309.789797 297.412064 
L 311.033615 297.166787 
L 313.52125 297.693378 
L 314.765068 297.413227 
L 316.008886 297.429501 
L 317.252704 297.678266 
L 319.74034 297.166787 
L 320.984158 297.413227 
L 322.227976 297.159812 
L 323.471793 297.925288 
L 324.715611 297.92645 
L 325.959429 297.687566 
L 327.203247 297.159812 
L 327.203247 297.159812 
" clip-path="url(#pd2baa0fd7b)" style="fill: none; stroke: #2d1e3e; stroke-width: 1.5; stroke-linecap: round"/>
   </g>
   <g id="line2d_19"/>
   <g id="line2d_20"/>
   <g id="line2d_21"/>
   <g id="line2d_22"/>
   <g id="line2d_23"/>
   <g id="patch_3">
    <path d="M 67.3075 319.138125 
L 67.3075 22.318125 
" style="fill: none; stroke: #ffffff; stroke-width: 1.25; stroke-linejoin: miter; stroke-linecap: square"/>
   </g>
   <g id="patch_4">
    <path d="M 67.3075 319.138125 
L 339.579235 319.138125 
" style="fill: none; stroke: #ffffff; stroke-width: 1.25; stroke-linejoin: miter; stroke-linecap: square"/>
   </g>
   <g id="text_16">
    <!-- Evolved For Explode For Left To Right -->
    <g style="fill: #262626" transform="translate(92.13118 16.318125)scale(0.12 -0.12)">
     <defs>
      <path id="DejaVuSans-45" d="M 628 4666 
L 3578 4666 
L 3578 4134 
L 1259 4134 
L 1259 2753 
L 3481 2753 
L 3481 2222 
L 1259 2222 
L 1259 531 
L 3634 531 
L 3634 0 
L 628 0 
L 628 4666 
z
" transform="scale(0.015625)"/>
      <path id="DejaVuSans-76" d="M 191 3500 
L 800 3500 
L 1894 563 
L 2988 3500 
L 3597 3500 
L 2284 0 
L 1503 0 
L 191 3500 
z
" transform="scale(0.015625)"/>
      <path id="DejaVuSans-6c" d="M 603 4863 
L 1178 4863 
L 1178 0 
L 603 0 
L 603 4863 
z
" transform="scale(0.015625)"/>
      <path id="DejaVuSans-64" d="M 2906 2969 
L 2906 4863 
L 3481 4863 
L 3481 0 
L 2906 0 
L 2906 525 
Q 2725 213 2448 61 
Q 2172 -91 1784 -91 
Q 1150 -91 751 415 
Q 353 922 353 1747 
Q 353 2572 751 3078 
Q 1150 3584 1784 3584 
Q 2172 3584 2448 3432 
Q 2725 3281 2906 2969 
z
M 947 1747 
Q 947 1113 1208 752 
Q 1469 391 1925 391 
Q 2381 391 2643 752 
Q 2906 1113 2906 1747 
Q 2906 2381 2643 2742 
Q 2381 3103 1925 3103 
Q 1469 3103 1208 2742 
Q 947 2381 947 1747 
z
" transform="scale(0.015625)"/>
      <path id="DejaVuSans-20" transform="scale(0.015625)"/>
      <path id="DejaVuSans-78" d="M 3513 3500 
L 2247 1797 
L 3578 0 
L 2900 0 
L 1881 1375 
L 863 0 
L 184 0 
L 1544 1831 
L 300 3500 
L 978 3500 
L 1906 2253 
L 2834 3500 
L 3513 3500 
z
" transform="scale(0.015625)"/>
      <path id="DejaVuSans-70" d="M 1159 525 
L 1159 -1331 
L 581 -1331 
L 581 3500 
L 1159 3500 
L 1159 2969 
Q 1341 3281 1617 3432 
Q 1894 3584 2278 3584 
Q 2916 3584 3314 3078 
Q 3713 2572 3713 1747 
Q 3713 922 3314 415 
Q 2916 -91 2278 -91 
Q 1894 -91 1617 61 
Q 1341 213 1159 525 
z
M 3116 1747 
Q 3116 2381 2855 2742 
Q 2594 3103 2138 3103 
Q 1681 3103 1420 2742 
Q 1159 2381 1159 1747 
Q 1159 1113 1420 752 
Q 1681 391 2138 391 
Q 2594 391 2855 752 
Q 3116 1113 3116 1747 
z
" transform="scale(0.015625)"/>
      <path id="DejaVuSans-4c" d="M 628 4666 
L 1259 4666 
L 1259 531 
L 3531 531 
L 3531 0 
L 628 0 
L 628 4666 
z
" transform="scale(0.015625)"/>
      <path id="DejaVuSans-66" d="M 2375 4863 
L 2375 4384 
L 1825 4384 
Q 1516 4384 1395 4259 
Q 1275 4134 1275 3809 
L 1275 3500 
L 2222 3500 
L 2222 3053 
L 1275 3053 
L 1275 0 
L 697 0 
L 697 3053 
L 147 3053 
L 147 3500 
L 697 3500 
L 697 3744 
Q 697 4328 969 4595 
Q 1241 4863 1831 4863 
L 2375 4863 
z
" transform="scale(0.015625)"/>
      <path id="DejaVuSans-54" d="M -19 4666 
L 3928 4666 
L 3928 4134 
L 2272 4134 
L 2272 0 
L 1638 0 
L 1638 4134 
L -19 4134 
L -19 4666 
z
" transform="scale(0.015625)"/>
      <path id="DejaVuSans-52" d="M 2841 2188 
Q 3044 2119 3236 1894 
Q 3428 1669 3622 1275 
L 4263 0 
L 3584 0 
L 2988 1197 
Q 2756 1666 2539 1819 
Q 2322 1972 1947 1972 
L 1259 1972 
L 1259 0 
L 628 0 
L 628 4666 
L 2053 4666 
Q 2853 4666 3247 4331 
Q 3641 3997 3641 3322 
Q 3641 2881 3436 2590 
Q 3231 2300 2841 2188 
z
M 1259 4147 
L 1259 2491 
L 2053 2491 
Q 2509 2491 2742 2702 
Q 2975 2913 2975 3322 
Q 2975 3731 2742 3939 
Q 2509 4147 2053 4147 
L 1259 4147 
z
" transform="scale(0.015625)"/>
      <path id="DejaVuSans-67" d="M 2906 1791 
Q 2906 2416 2648 2759 
Q 2391 3103 1925 3103 
Q 1463 3103 1205 2759 
Q 947 2416 947 1791 
Q 947 1169 1205 825 
Q 1463 481 1925 481 
Q 2391 481 2648 825 
Q 2906 1169 2906 1791 
z
M 3481 434 
Q 3481 -459 3084 -895 
Q 2688 -1331 1869 -1331 
Q 1566 -1331 1297 -1286 
Q 1028 -1241 775 -1147 
L 775 -588 
Q 1028 -725 1275 -790 
Q 1522 -856 1778 -856 
Q 2344 -856 2625 -561 
Q 2906 -266 2906 331 
L 2906 616 
Q 2728 306 2450 153 
Q 2172 0 1784 0 
Q 1141 0 747 490 
Q 353 981 353 1791 
Q 353 2603 747 3093 
Q 1141 3584 1784 3584 
Q 2172 3584 2450 3431 
Q 2728 3278 2906 2969 
L 2906 3500 
L 3481 3500 
L 3481 434 
z
" transform="scale(0.015625)"/>
      <path id="DejaVuSans-68" d="M 3513 2113 
L 3513 0 
L 2938 0 
L 2938 2094 
Q 2938 2591 2744 2837 
Q 2550 3084 2163 3084 
Q 1697 3084 1428 2787 
Q 1159 2491 1159 1978 
L 1159 0 
L 581 0 
L 581 4863 
L 1159 4863 
L 1159 2956 
Q 1366 3272 1645 3428 
Q 1925 3584 2291 3584 
Q 2894 3584 3203 3211 
Q 3513 2838 3513 2113 
z
" transform="scale(0.015625)"/>
     </defs>
     <use xlink:href="#DejaVuSans-45"/>
     <use xlink:href="#DejaVuSans-76" x="63.183594"/>
     <use xlink:href="#DejaVuSans-6f" x="122.363281"/>
     <use xlink:href="#DejaVuSans-6c" x="183.544922"/>
     <use xlink:href="#DejaVuSans-76" x="211.328125"/>
     <use xlink:href="#DejaVuSans-65" x="270.507812"/>
     <use xlink:href="#DejaVuSans-64" x="332.03125"/>
     <use xlink:href="#DejaVuSans-20" x="395.507812"/>
     <use xlink:href="#DejaVuSans-46" x="427.294922"/>
     <use xlink:href="#DejaVuSans-6f" x="481.189453"/>
     <use xlink:href="#DejaVuSans-72" x="542.371094"/>
     <use xlink:href="#DejaVuSans-20" x="583.484375"/>
     <use xlink:href="#DejaVuSans-45" x="615.271484"/>
     <use xlink:href="#DejaVuSans-78" x="678.455078"/>
     <use xlink:href="#DejaVuSans-70" x="737.634766"/>
     <use xlink:href="#DejaVuSans-6c" x="801.111328"/>
     <use xlink:href="#DejaVuSans-6f" x="828.894531"/>
     <use xlink:href="#DejaVuSans-64" x="890.076172"/>
     <use xlink:href="#DejaVuSans-65" x="953.552734"/>
     <use xlink:href="#DejaVuSans-20" x="1015.076172"/>
     <use xlink:href="#DejaVuSans-46" x="1046.863281"/>
     <use xlink:href="#DejaVuSans-6f" x="1100.757812"/>
     <use xlink:href="#DejaVuSans-72" x="1161.939453"/>
     <use xlink:href="#DejaVuSans-20" x="1203.052734"/>
     <use xlink:href="#DejaVuSans-4c" x="1234.839844"/>
     <use xlink:href="#DejaVuSans-65" x="1288.802734"/>
     <use xlink:href="#DejaVuSans-66" x="1350.326172"/>
     <use xlink:href="#DejaVuSans-74" x="1383.78125"/>
     <use xlink:href="#DejaVuSans-20" x="1422.990234"/>
     <use xlink:href="#DejaVuSans-54" x="1454.777344"/>
     <use xlink:href="#DejaVuSans-6f" x="1498.861328"/>
     <use xlink:href="#DejaVuSans-20" x="1560.042969"/>
     <use xlink:href="#DejaVuSans-52" x="1591.830078"/>
     <use xlink:href="#DejaVuSans-69" x="1661.3125"/>
     <use xlink:href="#DejaVuSans-67" x="1689.095703"/>
     <use xlink:href="#DejaVuSans-68" x="1752.572266"/>
     <use xlink:href="#DejaVuSans-74" x="1815.951172"/>
    </g>
   </g>
  </g>
  <g id="legend_1">
   <g id="text_17">
    <!-- Trial -->
    <g style="fill: #262626" transform="translate(350.909185 143.995312)scale(0.12 -0.12)">
     <use xlink:href="#DejaVuSans-54"/>
     <use xlink:href="#DejaVuSans-72" x="46.333984"/>
     <use xlink:href="#DejaVuSans-69" x="87.447266"/>
     <use xlink:href="#DejaVuSans-61" x="115.230469"/>
     <use xlink:href="#DejaVuSans-6c" x="176.509766"/>
    </g>
   </g>
   <g id="line2d_24">
    <path d="M 344.266685 156.499219 
L 355.266685 156.499219 
L 366.266685 156.499219 
" style="fill: none; stroke: #edd1cb; stroke-width: 1.5; stroke-linecap: round"/>
   </g>
   <g id="text_18">
    <!-- 0 -->
    <g style="fill: #262626" transform="translate(375.066685 160.349219)scale(0.11 -0.11)">
     <use xlink:href="#DejaVuSans-30"/>
    </g>
   </g>
   <g id="line2d_25">
    <path d="M 344.266685 172.645156 
L 355.266685 172.645156 
L 366.266685 172.645156 
" style="fill: none; stroke: #d499a7; stroke-width: 1.5; stroke-linecap: round"/>
   </g>
   <g id="text_19">
    <!-- 1 -->
    <g style="fill: #262626" transform="translate(375.066685 176.495156)scale(0.11 -0.11)">
     <use xlink:href="#DejaVuSans-31"/>
    </g>
   </g>
   <g id="line2d_26">
    <path d="M 344.266685 188.791094 
L 355.266685 188.791094 
L 366.266685 188.791094 
" style="fill: none; stroke: #a9678f; stroke-width: 1.5; stroke-linecap: round"/>
   </g>
   <g id="text_20">
    <!-- 2 -->
    <g style="fill: #262626" transform="translate(375.066685 192.641094)scale(0.11 -0.11)">
     <use xlink:href="#DejaVuSans-32"/>
    </g>
   </g>
   <g id="line2d_27">
    <path d="M 344.266685 204.937031 
L 355.266685 204.937031 
L 366.266685 204.937031 
" style="fill: none; stroke: #6c3f70; stroke-width: 1.5; stroke-linecap: round"/>
   </g>
   <g id="text_21">
    <!-- 3 -->
    <g style="fill: #262626" transform="translate(375.066685 208.787031)scale(0.11 -0.11)">
     <defs>
      <path id="DejaVuSans-33" d="M 2597 2516 
Q 3050 2419 3304 2112 
Q 3559 1806 3559 1356 
Q 3559 666 3084 287 
Q 2609 -91 1734 -91 
Q 1441 -91 1130 -33 
Q 819 25 488 141 
L 488 750 
Q 750 597 1062 519 
Q 1375 441 1716 441 
Q 2309 441 2620 675 
Q 2931 909 2931 1356 
Q 2931 1769 2642 2001 
Q 2353 2234 1838 2234 
L 1294 2234 
L 1294 2753 
L 1863 2753 
Q 2328 2753 2575 2939 
Q 2822 3125 2822 3475 
Q 2822 3834 2567 4026 
Q 2313 4219 1838 4219 
Q 1578 4219 1281 4162 
Q 984 4106 628 3988 
L 628 4550 
Q 988 4650 1302 4700 
Q 1616 4750 1894 4750 
Q 2613 4750 3031 4423 
Q 3450 4097 3450 3541 
Q 3450 3153 3228 2886 
Q 3006 2619 2597 2516 
z
" transform="scale(0.015625)"/>
     </defs>
     <use xlink:href="#DejaVuSans-33"/>
    </g>
   </g>
   <g id="line2d_28">
    <path d="M 344.266685 221.082969 
L 355.266685 221.082969 
L 366.266685 221.082969 
" style="fill: none; stroke: #2d1e3e; stroke-width: 1.5; stroke-linecap: round"/>
   </g>
   <g id="text_22">
    <!-- 4 -->
    <g style="fill: #262626" transform="translate(375.066685 224.932969)scale(0.11 -0.11)">
     <use xlink:href="#DejaVuSans-34"/>
    </g>
   </g>
  </g>
 </g>
 <defs>
  <clipPath id="pd2baa0fd7b">
   <rect x="67.3075" y="22.318125" width="272.271735" height="296.82"/>
  </clipPath>
 </defs>
</svg>
