<?xml version="1.0" encoding="utf-8" standalone="no"?>
<!DOCTYPE svg PUBLIC "-//W3C//DTD SVG 1.1//EN"
  "http://www.w3.org/Graphics/SVG/1.1/DTD/svg11.dtd">
<svg xmlns:xlink="http://www.w3.org/1999/xlink" width="393.52115pt" height="362.097812pt" viewBox="0 0 393.52115 362.097812" xmlns="http://www.w3.org/2000/svg" version="1.1">
 <metadata>
  <rdf:RDF xmlns:dc="http://purl.org/dc/elements/1.1/" xmlns:cc="http://creativecommons.org/ns#" xmlns:rdf="http://www.w3.org/1999/02/22-rdf-syntax-ns#">
   <cc:Work>
    <dc:type rdf:resource="http://purl.org/dc/dcmitype/StillImage"/>
    <dc:date>2022-11-20T08:16:06.895158</dc:date>
    <dc:format>image/svg+xml</dc:format>
    <dc:creator>
     <cc:Agent>
      <dc:title>Matplotlib v3.5.2, https://matplotlib.org/</dc:title>
     </cc:Agent>
    </dc:creator>
   </cc:Work>
  </rdf:RDF>
 </metadata>
 <defs>
  <style type="text/css">*{stroke-linejoin: round; stroke-linecap: butt}</style>
 </defs>
 <g id="figure_1">
  <g id="patch_1">
   <path d="M 0 362.097812 
L 393.52115 362.097812 
L 393.52115 0 
L 0 0 
z
" style="fill: #ffffff"/>
  </g>
  <g id="axes_1">
   <g id="patch_2">
    <path d="M 53.31 319.138125 
L 341.13495 319.138125 
L 341.13495 22.318125 
L 53.31 22.318125 
z
" style="fill: #eaeaf2"/>
   </g>
   <g id="matplotlib.axis_1">
    <g id="xtick_1">
     <g id="line2d_1">
      <path d="M 66.392952 319.138125 
L 66.392952 22.318125 
" clip-path="url(#pb7b359b181)" style="fill: none; stroke: #ffffff; stroke-linecap: round"/>
     </g>
     <g id="text_1">
      <!-- 0 -->
      <g style="fill: #262626" transform="translate(62.893577 336.996406)scale(0.11 -0.11)">
       <defs>
        <path id="DejaVuSans-30" d="M 2034 4250 
Q 1547 4250 1301 3770 
Q 1056 3291 1056 2328 
Q 1056 1369 1301 889 
Q 1547 409 2034 409 
Q 2525 409 2770 889 
Q 3016 1369 3016 2328 
Q 3016 3291 2770 3770 
Q 2525 4250 2034 4250 
z
M 2034 4750 
Q 2819 4750 3233 4129 
Q 3647 3509 3647 2328 
Q 3647 1150 3233 529 
Q 2819 -91 2034 -91 
Q 1250 -91 836 529 
Q 422 1150 422 2328 
Q 422 3509 836 4129 
Q 1250 4750 2034 4750 
z
" transform="scale(0.015625)"/>
       </defs>
       <use xlink:href="#DejaVuSans-30"/>
      </g>
     </g>
    </g>
    <g id="xtick_2">
     <g id="line2d_2">
      <path d="M 132.136431 319.138125 
L 132.136431 22.318125 
" clip-path="url(#pb7b359b181)" style="fill: none; stroke: #ffffff; stroke-linecap: round"/>
     </g>
     <g id="text_2">
      <!-- 50 -->
      <g style="fill: #262626" transform="translate(125.137681 336.996406)scale(0.11 -0.11)">
       <defs>
        <path id="DejaVuSans-35" d="M 691 4666 
L 3169 4666 
L 3169 4134 
L 1269 4134 
L 1269 2991 
Q 1406 3038 1543 3061 
Q 1681 3084 1819 3084 
Q 2600 3084 3056 2656 
Q 3513 2228 3513 1497 
Q 3513 744 3044 326 
Q 2575 -91 1722 -91 
Q 1428 -91 1123 -41 
Q 819 9 494 109 
L 494 744 
Q 775 591 1075 516 
Q 1375 441 1709 441 
Q 2250 441 2565 725 
Q 2881 1009 2881 1497 
Q 2881 1984 2565 2268 
Q 2250 2553 1709 2553 
Q 1456 2553 1204 2497 
Q 953 2441 691 2322 
L 691 4666 
z
" transform="scale(0.015625)"/>
       </defs>
       <use xlink:href="#DejaVuSans-35"/>
       <use xlink:href="#DejaVuSans-30" x="63.623047"/>
      </g>
     </g>
    </g>
    <g id="xtick_3">
     <g id="line2d_3">
      <path d="M 197.87991 319.138125 
L 197.87991 22.318125 
" clip-path="url(#pb7b359b181)" style="fill: none; stroke: #ffffff; stroke-linecap: round"/>
     </g>
     <g id="text_3">
      <!-- 100 -->
      <g style="fill: #262626" transform="translate(187.381785 336.996406)scale(0.11 -0.11)">
       <defs>
        <path id="DejaVuSans-31" d="M 794 531 
L 1825 531 
L 1825 4091 
L 703 3866 
L 703 4441 
L 1819 4666 
L 2450 4666 
L 2450 531 
L 3481 531 
L 3481 0 
L 794 0 
L 794 531 
z
" transform="scale(0.015625)"/>
       </defs>
       <use xlink:href="#DejaVuSans-31"/>
       <use xlink:href="#DejaVuSans-30" x="63.623047"/>
       <use xlink:href="#DejaVuSans-30" x="127.246094"/>
      </g>
     </g>
    </g>
    <g id="xtick_4">
     <g id="line2d_4">
      <path d="M 263.623389 319.138125 
L 263.623389 22.318125 
" clip-path="url(#pb7b359b181)" style="fill: none; stroke: #ffffff; stroke-linecap: round"/>
     </g>
     <g id="text_4">
      <!-- 150 -->
      <g style="fill: #262626" transform="translate(253.125264 336.996406)scale(0.11 -0.11)">
       <use xlink:href="#DejaVuSans-31"/>
       <use xlink:href="#DejaVuSans-35" x="63.623047"/>
       <use xlink:href="#DejaVuSans-30" x="127.246094"/>
      </g>
     </g>
    </g>
    <g id="xtick_5">
     <g id="line2d_5">
      <path d="M 329.366867 319.138125 
L 329.366867 22.318125 
" clip-path="url(#pb7b359b181)" style="fill: none; stroke: #ffffff; stroke-linecap: round"/>
     </g>
     <g id="text_5">
      <!-- 200 -->
      <g style="fill: #262626" transform="translate(318.868742 336.996406)scale(0.11 -0.11)">
       <defs>
        <path id="DejaVuSans-32" d="M 1228 531 
L 3431 531 
L 3431 0 
L 469 0 
L 469 531 
Q 828 903 1448 1529 
Q 2069 2156 2228 2338 
Q 2531 2678 2651 2914 
Q 2772 3150 2772 3378 
Q 2772 3750 2511 3984 
Q 2250 4219 1831 4219 
Q 1534 4219 1204 4116 
Q 875 4013 500 3803 
L 500 4441 
Q 881 4594 1212 4672 
Q 1544 4750 1819 4750 
Q 2544 4750 2975 4387 
Q 3406 4025 3406 3419 
Q 3406 3131 3298 2873 
Q 3191 2616 2906 2266 
Q 2828 2175 2409 1742 
Q 1991 1309 1228 531 
z
" transform="scale(0.015625)"/>
       </defs>
       <use xlink:href="#DejaVuSans-32"/>
       <use xlink:href="#DejaVuSans-30" x="63.623047"/>
       <use xlink:href="#DejaVuSans-30" x="127.246094"/>
      </g>
     </g>
    </g>
    <g id="text_6">
     <!-- Generation -->
     <g style="fill: #262626" transform="translate(163.750912 352.402187)scale(0.12 -0.12)">
      <defs>
       <path id="DejaVuSans-47" d="M 3809 666 
L 3809 1919 
L 2778 1919 
L 2778 2438 
L 4434 2438 
L 4434 434 
Q 4069 175 3628 42 
Q 3188 -91 2688 -91 
Q 1594 -91 976 548 
Q 359 1188 359 2328 
Q 359 3472 976 4111 
Q 1594 4750 2688 4750 
Q 3144 4750 3555 4637 
Q 3966 4525 4313 4306 
L 4313 3634 
Q 3963 3931 3569 4081 
Q 3175 4231 2741 4231 
Q 1884 4231 1454 3753 
Q 1025 3275 1025 2328 
Q 1025 1384 1454 906 
Q 1884 428 2741 428 
Q 3075 428 3337 486 
Q 3600 544 3809 666 
z
" transform="scale(0.015625)"/>
       <path id="DejaVuSans-65" d="M 3597 1894 
L 3597 1613 
L 953 1613 
Q 991 1019 1311 708 
Q 1631 397 2203 397 
Q 2534 397 2845 478 
Q 3156 559 3463 722 
L 3463 178 
Q 3153 47 2828 -22 
Q 2503 -91 2169 -91 
Q 1331 -91 842 396 
Q 353 884 353 1716 
Q 353 2575 817 3079 
Q 1281 3584 2069 3584 
Q 2775 3584 3186 3129 
Q 3597 2675 3597 1894 
z
M 3022 2063 
Q 3016 2534 2758 2815 
Q 2500 3097 2075 3097 
Q 1594 3097 1305 2825 
Q 1016 2553 972 2059 
L 3022 2063 
z
" transform="scale(0.015625)"/>
       <path id="DejaVuSans-6e" d="M 3513 2113 
L 3513 0 
L 2938 0 
L 2938 2094 
Q 2938 2591 2744 2837 
Q 2550 3084 2163 3084 
Q 1697 3084 1428 2787 
Q 1159 2491 1159 1978 
L 1159 0 
L 581 0 
L 581 3500 
L 1159 3500 
L 1159 2956 
Q 1366 3272 1645 3428 
Q 1925 3584 2291 3584 
Q 2894 3584 3203 3211 
Q 3513 2838 3513 2113 
z
" transform="scale(0.015625)"/>
       <path id="DejaVuSans-72" d="M 2631 2963 
Q 2534 3019 2420 3045 
Q 2306 3072 2169 3072 
Q 1681 3072 1420 2755 
Q 1159 2438 1159 1844 
L 1159 0 
L 581 0 
L 581 3500 
L 1159 3500 
L 1159 2956 
Q 1341 3275 1631 3429 
Q 1922 3584 2338 3584 
Q 2397 3584 2469 3576 
Q 2541 3569 2628 3553 
L 2631 2963 
z
" transform="scale(0.015625)"/>
       <path id="DejaVuSans-61" d="M 2194 1759 
Q 1497 1759 1228 1600 
Q 959 1441 959 1056 
Q 959 750 1161 570 
Q 1363 391 1709 391 
Q 2188 391 2477 730 
Q 2766 1069 2766 1631 
L 2766 1759 
L 2194 1759 
z
M 3341 1997 
L 3341 0 
L 2766 0 
L 2766 531 
Q 2569 213 2275 61 
Q 1981 -91 1556 -91 
Q 1019 -91 701 211 
Q 384 513 384 1019 
Q 384 1609 779 1909 
Q 1175 2209 1959 2209 
L 2766 2209 
L 2766 2266 
Q 2766 2663 2505 2880 
Q 2244 3097 1772 3097 
Q 1472 3097 1187 3025 
Q 903 2953 641 2809 
L 641 3341 
Q 956 3463 1253 3523 
Q 1550 3584 1831 3584 
Q 2591 3584 2966 3190 
Q 3341 2797 3341 1997 
z
" transform="scale(0.015625)"/>
       <path id="DejaVuSans-74" d="M 1172 4494 
L 1172 3500 
L 2356 3500 
L 2356 3053 
L 1172 3053 
L 1172 1153 
Q 1172 725 1289 603 
Q 1406 481 1766 481 
L 2356 481 
L 2356 0 
L 1766 0 
Q 1100 0 847 248 
Q 594 497 594 1153 
L 594 3053 
L 172 3053 
L 172 3500 
L 594 3500 
L 594 4494 
L 1172 4494 
z
" transform="scale(0.015625)"/>
       <path id="DejaVuSans-69" d="M 603 3500 
L 1178 3500 
L 1178 0 
L 603 0 
L 603 3500 
z
M 603 4863 
L 1178 4863 
L 1178 4134 
L 603 4134 
L 603 4863 
z
" transform="scale(0.015625)"/>
       <path id="DejaVuSans-6f" d="M 1959 3097 
Q 1497 3097 1228 2736 
Q 959 2375 959 1747 
Q 959 1119 1226 758 
Q 1494 397 1959 397 
Q 2419 397 2687 759 
Q 2956 1122 2956 1747 
Q 2956 2369 2687 2733 
Q 2419 3097 1959 3097 
z
M 1959 3584 
Q 2709 3584 3137 3096 
Q 3566 2609 3566 1747 
Q 3566 888 3137 398 
Q 2709 -91 1959 -91 
Q 1206 -91 779 398 
Q 353 888 353 1747 
Q 353 2609 779 3096 
Q 1206 3584 1959 3584 
z
" transform="scale(0.015625)"/>
      </defs>
      <use xlink:href="#DejaVuSans-47"/>
      <use xlink:href="#DejaVuSans-65" x="77.490234"/>
      <use xlink:href="#DejaVuSans-6e" x="139.013672"/>
      <use xlink:href="#DejaVuSans-65" x="202.392578"/>
      <use xlink:href="#DejaVuSans-72" x="263.916016"/>
      <use xlink:href="#DejaVuSans-61" x="305.029297"/>
      <use xlink:href="#DejaVuSans-74" x="366.308594"/>
      <use xlink:href="#DejaVuSans-69" x="405.517578"/>
      <use xlink:href="#DejaVuSans-6f" x="433.300781"/>
      <use xlink:href="#DejaVuSans-6e" x="494.482422"/>
     </g>
    </g>
   </g>
   <g id="matplotlib.axis_2">
    <g id="ytick_1">
     <g id="line2d_6">
      <path d="M 53.31 309.871162 
L 341.13495 309.871162 
" clip-path="url(#pb7b359b181)" style="fill: none; stroke: #ffffff; stroke-linecap: round"/>
     </g>
     <g id="text_7">
      <!-- 0 -->
      <g style="fill: #262626" transform="translate(36.81125 314.050303)scale(0.11 -0.11)">
       <use xlink:href="#DejaVuSans-30"/>
      </g>
     </g>
    </g>
    <g id="ytick_2">
     <g id="line2d_7">
      <path d="M 53.31 248.696783 
L 341.13495 248.696783 
" clip-path="url(#pb7b359b181)" style="fill: none; stroke: #ffffff; stroke-linecap: round"/>
     </g>
     <g id="text_8">
      <!-- 100 -->
      <g style="fill: #262626" transform="translate(22.81375 252.875924)scale(0.11 -0.11)">
       <use xlink:href="#DejaVuSans-31"/>
       <use xlink:href="#DejaVuSans-30" x="63.623047"/>
       <use xlink:href="#DejaVuSans-30" x="127.246094"/>
      </g>
     </g>
    </g>
    <g id="ytick_3">
     <g id="line2d_8">
      <path d="M 53.31 187.522404 
L 341.13495 187.522404 
" clip-path="url(#pb7b359b181)" style="fill: none; stroke: #ffffff; stroke-linecap: round"/>
     </g>
     <g id="text_9">
      <!-- 200 -->
      <g style="fill: #262626" transform="translate(22.81375 191.701544)scale(0.11 -0.11)">
       <use xlink:href="#DejaVuSans-32"/>
       <use xlink:href="#DejaVuSans-30" x="63.623047"/>
       <use xlink:href="#DejaVuSans-30" x="127.246094"/>
      </g>
     </g>
    </g>
    <g id="ytick_4">
     <g id="line2d_9">
      <path d="M 53.31 126.348025 
L 341.13495 126.348025 
" clip-path="url(#pb7b359b181)" style="fill: none; stroke: #ffffff; stroke-linecap: round"/>
     </g>
     <g id="text_10">
      <!-- 300 -->
      <g style="fill: #262626" transform="translate(22.81375 130.527165)scale(0.11 -0.11)">
       <defs>
        <path id="DejaVuSans-33" d="M 2597 2516 
Q 3050 2419 3304 2112 
Q 3559 1806 3559 1356 
Q 3559 666 3084 287 
Q 2609 -91 1734 -91 
Q 1441 -91 1130 -33 
Q 819 25 488 141 
L 488 750 
Q 750 597 1062 519 
Q 1375 441 1716 441 
Q 2309 441 2620 675 
Q 2931 909 2931 1356 
Q 2931 1769 2642 2001 
Q 2353 2234 1838 2234 
L 1294 2234 
L 1294 2753 
L 1863 2753 
Q 2328 2753 2575 2939 
Q 2822 3125 2822 3475 
Q 2822 3834 2567 4026 
Q 2313 4219 1838 4219 
Q 1578 4219 1281 4162 
Q 984 4106 628 3988 
L 628 4550 
Q 988 4650 1302 4700 
Q 1616 4750 1894 4750 
Q 2613 4750 3031 4423 
Q 3450 4097 3450 3541 
Q 3450 3153 3228 2886 
Q 3006 2619 2597 2516 
z
" transform="scale(0.015625)"/>
       </defs>
       <use xlink:href="#DejaVuSans-33"/>
       <use xlink:href="#DejaVuSans-30" x="63.623047"/>
       <use xlink:href="#DejaVuSans-30" x="127.246094"/>
      </g>
     </g>
    </g>
    <g id="ytick_5">
     <g id="line2d_10">
      <path d="M 53.31 65.173645 
L 341.13495 65.173645 
" clip-path="url(#pb7b359b181)" style="fill: none; stroke: #ffffff; stroke-linecap: round"/>
     </g>
     <g id="text_11">
      <!-- 400 -->
      <g style="fill: #262626" transform="translate(22.81375 69.352786)scale(0.11 -0.11)">
       <defs>
        <path id="DejaVuSans-34" d="M 2419 4116 
L 825 1625 
L 2419 1625 
L 2419 4116 
z
M 2253 4666 
L 3047 4666 
L 3047 1625 
L 3713 1625 
L 3713 1100 
L 3047 1100 
L 3047 0 
L 2419 0 
L 2419 1100 
L 313 1100 
L 313 1709 
L 2253 4666 
z
" transform="scale(0.015625)"/>
       </defs>
       <use xlink:href="#DejaVuSans-34"/>
       <use xlink:href="#DejaVuSans-30" x="63.623047"/>
       <use xlink:href="#DejaVuSans-30" x="127.246094"/>
      </g>
     </g>
    </g>
    <g id="text_12">
     <!-- Fitness -->
     <g style="fill: #262626" transform="translate(16.318125 191.50875)rotate(-90)scale(0.12 -0.12)">
      <defs>
       <path id="DejaVuSans-46" d="M 628 4666 
L 3309 4666 
L 3309 4134 
L 1259 4134 
L 1259 2759 
L 3109 2759 
L 3109 2228 
L 1259 2228 
L 1259 0 
L 628 0 
L 628 4666 
z
" transform="scale(0.015625)"/>
       <path id="DejaVuSans-73" d="M 2834 3397 
L 2834 2853 
Q 2591 2978 2328 3040 
Q 2066 3103 1784 3103 
Q 1356 3103 1142 2972 
Q 928 2841 928 2578 
Q 928 2378 1081 2264 
Q 1234 2150 1697 2047 
L 1894 2003 
Q 2506 1872 2764 1633 
Q 3022 1394 3022 966 
Q 3022 478 2636 193 
Q 2250 -91 1575 -91 
Q 1294 -91 989 -36 
Q 684 19 347 128 
L 347 722 
Q 666 556 975 473 
Q 1284 391 1588 391 
Q 1994 391 2212 530 
Q 2431 669 2431 922 
Q 2431 1156 2273 1281 
Q 2116 1406 1581 1522 
L 1381 1569 
Q 847 1681 609 1914 
Q 372 2147 372 2553 
Q 372 3047 722 3315 
Q 1072 3584 1716 3584 
Q 2034 3584 2315 3537 
Q 2597 3491 2834 3397 
z
" transform="scale(0.015625)"/>
      </defs>
      <use xlink:href="#DejaVuSans-46"/>
      <use xlink:href="#DejaVuSans-69" x="50.269531"/>
      <use xlink:href="#DejaVuSans-74" x="78.052734"/>
      <use xlink:href="#DejaVuSans-6e" x="117.261719"/>
      <use xlink:href="#DejaVuSans-65" x="180.640625"/>
      <use xlink:href="#DejaVuSans-73" x="242.164062"/>
      <use xlink:href="#DejaVuSans-73" x="294.263672"/>
     </g>
    </g>
   </g>
   <g id="PolyCollection_1">
    <defs>
     <path id="me02711c3d0" d="M 66.392952 -73.236226 
L 66.392952 -59.987194 
L 67.707822 -79.009558 
L 69.022691 -94.87045 
L 70.337561 -103.459715 
L 71.652431 -108.142422 
L 72.9673 -110.587964 
L 74.28217 -113.074129 
L 75.597039 -115.693157 
L 76.911909 -111.966299 
L 78.226778 -113.687784 
L 79.541648 -119.995436 
L 80.856518 -123.148306 
L 82.171387 -120.147894 
L 83.486257 -120.071904 
L 84.801126 -139.437419 
L 86.115996 -147.847462 
L 87.430865 -164.068709 
L 88.745735 -173.607133 
L 90.060605 -198.984464 
L 91.375474 -202.924476 
L 92.690344 -216.957783 
L 94.005213 -212.388822 
L 95.320083 -201.777935 
L 96.634953 -212.928877 
L 97.949822 -199.350554 
L 99.264692 -207.91449 
L 100.579561 -194.312749 
L 101.894431 -198.871196 
L 103.2093 -208.869383 
L 104.52417 -202.273543 
L 105.83904 -197.974131 
L 107.153909 -197.912479 
L 108.468779 -189.464201 
L 109.783648 -193.118414 
L 111.098518 -186.154094 
L 112.413387 -197.30408 
L 113.728257 -226.037877 
L 115.043127 -194.012612 
L 116.357996 -197.933985 
L 117.672866 -196.443816 
L 118.987735 -193.32679 
L 120.302605 -193.996362 
L 121.617474 -201.453424 
L 122.932344 -186.824622 
L 124.247214 -197.935897 
L 125.562083 -206.786587 
L 126.876953 -179.430647 
L 128.191822 -183.310919 
L 129.506692 -179.79387 
L 130.821561 -191.073374 
L 132.136431 -193.46252 
L 133.451301 -191.718095 
L 134.76617 -205.543027 
L 136.08104 -207.127347 
L 137.395909 -190.365089 
L 138.710779 -168.722741 
L 140.025648 -191.739123 
L 141.340518 -195.278157 
L 142.655388 -187.58739 
L 143.970257 -209.016106 
L 145.285127 -204.19719 
L 146.599996 -210.839867 
L 147.914866 -199.124974 
L 149.229736 -202.302696 
L 150.544605 -191.319983 
L 151.859475 -209.002724 
L 153.174344 -234.028781 
L 154.489214 -207.814603 
L 155.804083 -213.299269 
L 157.118953 -205.899081 
L 158.433823 -214.028104 
L 159.748692 -212.624917 
L 161.063562 -219.824377 
L 162.378431 -220.319985 
L 163.693301 -211.313491 
L 165.00817 -208.372342 
L 166.32304 -193.213999 
L 167.63791 -212.805572 
L 168.952779 -215.73334 
L 170.267649 -225.444295 
L 171.582518 -237.775711 
L 172.897388 -234.525345 
L 174.212257 -222.195362 
L 175.527127 -213.647676 
L 176.841997 -235.519906 
L 178.156866 -242.778629 
L 179.471736 -249.968052 
L 180.786605 -222.501234 
L 182.101475 -248.315866 
L 183.416344 -226.172174 
L 184.731214 -200.106154 
L 186.046084 -219.936689 
L 187.360953 -193.627882 
L 188.675823 -205.512439 
L 189.990692 -206.601152 
L 191.305562 -215.076193 
L 192.620431 -205.465125 
L 193.935301 -208.100402 
L 195.250171 -223.513 
L 196.56504 -223.552668 
L 197.87991 -224.622742 
L 199.194779 -234.373364 
L 200.509649 -239.952181 
L 201.824519 -253.373744 
L 203.139388 -226.632416 
L 204.454258 -231.733308 
L 205.769127 -238.272275 
L 207.083997 -257.753448 
L 208.398866 -271.039758 
L 209.713736 -235.944781 
L 211.028606 -244.792126 
L 212.343475 -227.641793 
L 213.658345 -215.198542 
L 214.973214 -229.192659 
L 216.288084 -242.244787 
L 217.602953 -221.141537 
L 218.917823 -240.987844 
L 220.232693 -242.31074 
L 221.547562 -229.294935 
L 222.862432 -232.359389 
L 224.177301 -229.364712 
L 225.492171 -271.230928 
L 226.80704 -243.167181 
L 228.12191 -247.583207 
L 229.43678 -232.857865 
L 230.751649 -231.209024 
L 232.066519 -228.271698 
L 233.381388 -235.176278 
L 234.696258 -246.392218 
L 236.011127 -246.933229 
L 237.325997 -225.844318 
L 238.640867 -235.286201 
L 239.955736 -230.087812 
L 241.270606 -231.160754 
L 242.585475 -225.769762 
L 243.900345 -246.2259 
L 245.215214 -247.219984 
L 246.530084 -230.109797 
L 247.844954 -257.409342 
L 249.159823 -237.317381 
L 250.474693 -241.82947 
L 251.789562 -235.976324 
L 253.104432 -223.846114 
L 254.419302 -256.434375 
L 255.734171 -238.502635 
L 257.049041 -231.67739 
L 258.36391 -231.16171 
L 259.67878 -230.836721 
L 260.993649 -225.729616 
L 262.308519 -238.534178 
L 263.623389 -238.440027 
L 264.938258 -238.148015 
L 266.253128 -246.678973 
L 267.567997 -253.049233 
L 268.882867 -240.525691 
L 270.197736 -231.515374 
L 271.512606 -240.911376 
L 272.827476 -227.757929 
L 274.142345 -229.478458 
L 275.457215 -239.761967 
L 276.772084 -238.004637 
L 278.086954 -241.71429 
L 279.401823 -222.787033 
L 280.716693 -239.527306 
L 282.031563 -240.204047 
L 283.346432 -217.721985 
L 284.661302 -232.627983 
L 285.976171 -246.072964 
L 287.291041 -236.590936 
L 288.60591 -246.875878 
L 289.92078 -244.811243 
L 291.23565 -223.331867 
L 292.550519 -250.520533 
L 293.865389 -244.333318 
L 295.180258 -220.666002 
L 296.495128 -225.4247 
L 297.809997 -234.445053 
L 299.124867 -257.007885 
L 300.439737 -222.23264 
L 301.754606 -251.999232 
L 303.069476 -237.561601 
L 304.384345 -214.387026 
L 305.699215 -217.388394 
L 307.014085 -213.560694 
L 308.328954 -240.865495 
L 309.643824 -218.617138 
L 310.958693 -230.011822 
L 312.273563 -227.43055 
L 313.588432 -253.202647 
L 314.903302 -231.027891 
L 316.218172 -216.630883 
L 317.533041 -219.767026 
L 318.847911 -227.486945 
L 320.16278 -252.202828 
L 321.47765 -230.683785 
L 322.792519 -249.896363 
L 324.107389 -232.07598 
L 325.422259 -245.40387 
L 326.737128 -228.994798 
L 328.051998 -240.337866 
L 328.051998 -269.433931 
L 328.051998 -269.433931 
L 326.737128 -263.985587 
L 325.422259 -269.433931 
L 324.107389 -266.017246 
L 322.792519 -271.230928 
L 321.47765 -269.433931 
L 320.16278 -271.230928 
L 318.847911 -264.331127 
L 317.533041 -259.779849 
L 316.218172 -257.563233 
L 314.903302 -265.973755 
L 313.588432 -269.433931 
L 312.273563 -263.679716 
L 310.958693 -263.28017 
L 309.643824 -259.992047 
L 308.328954 -267.789869 
L 307.014085 -256.130415 
L 305.699215 -259.093071 
L 304.384345 -257.830393 
L 303.069476 -267.930857 
L 301.754606 -272.722053 
L 300.439737 -263.245282 
L 299.124867 -273.219095 
L 297.809997 -272.225012 
L 296.495128 -266.760419 
L 295.180258 -262.710006 
L 293.865389 -270.236844 
L 292.550519 -271.230928 
L 291.23565 -265.687 
L 289.92078 -272.225012 
L 288.60591 -271.230928 
L 287.291041 -271.230928 
L 285.976171 -271.230928 
L 284.661302 -266.593145 
L 283.346432 -260.564601 
L 282.031563 -269.433931 
L 280.716693 -266.726964 
L 279.401823 -261.481261 
L 278.086954 -268.822187 
L 276.772084 -268.822187 
L 275.457215 -270.925056 
L 274.142345 -267.139891 
L 272.827476 -263.355682 
L 271.512606 -269.433931 
L 270.197736 -267.375986 
L 268.882867 -269.433931 
L 267.567997 -271.230928 
L 266.253128 -271.230928 
L 264.938258 -271.230928 
L 263.623389 -271.230928 
L 262.308519 -268.285955 
L 260.993649 -263.354727 
L 259.67878 -266.275803 
L 258.36391 -266.413446 
L 257.049041 -266.528148 
L 255.734171 -271.230928 
L 254.419302 -271.230928 
L 253.104432 -261.876505 
L 251.789562 -269.280995 
L 250.474693 -270.676535 
L 249.159823 -271.230928 
L 247.844954 -271.230928 
L 246.530084 -265.648766 
L 245.215214 -271.230928 
L 243.900345 -271.230928 
L 242.585475 -266.184042 
L 241.270606 -266.222276 
L 239.955736 -266.566382 
L 238.640867 -265.075256 
L 237.325997 -265.075256 
L 236.011127 -271.230928 
L 234.696258 -271.230928 
L 233.381388 -270.96329 
L 232.066519 -264.234108 
L 230.751649 -266.623733 
L 229.43678 -265.555093 
L 228.12191 -271.230928 
L 226.80704 -271.230928 
L 225.492171 -271.230928 
L 224.177301 -266.623733 
L 222.862432 -271.230928 
L 221.547562 -266.853136 
L 220.232693 -271.230928 
L 218.917823 -271.230928 
L 217.602953 -262.742983 
L 216.288084 -269.433931 
L 214.973214 -265.667883 
L 213.658345 -258.621359 
L 212.343475 -266.184042 
L 211.028606 -271.230928 
L 209.713736 -271.230928 
L 208.398866 -271.230928 
L 207.083997 -271.230928 
L 205.769127 -266.627556 
L 204.454258 -266.872253 
L 203.139388 -266.547265 
L 201.824519 -270.886822 
L 200.509649 -268.939756 
L 199.194779 -268.031699 
L 197.87991 -261.84783 
L 196.56504 -258.205086 
L 195.250171 -256.800943 
L 193.935301 -251.579137 
L 192.620431 -248.965844 
L 191.305562 -253.057358 
L 189.990692 -248.814819 
L 188.675823 -250.78387 
L 187.360953 -243.129425 
L 186.046084 -252.49962 
L 184.731214 -246.570962 
L 183.416344 -261.084584 
L 182.101475 -270.028947 
L 180.786605 -262.957093 
L 179.471736 -272.000865 
L 178.156866 -266.711671 
L 176.841997 -265.994306 
L 175.527127 -257.295596 
L 174.212257 -257.953698 
L 172.897388 -263.088045 
L 171.582518 -262.744417 
L 170.267649 -258.155382 
L 168.952779 -254.109749 
L 167.63791 -253.837331 
L 166.32304 -245.578312 
L 165.00817 -252.175587 
L 163.693301 -250.088011 
L 162.378431 -261.061165 
L 161.063562 -255.516759 
L 159.748692 -247.699821 
L 158.433823 -249.689422 
L 157.118953 -243.893627 
L 155.804083 -248.235096 
L 154.489214 -246.53225 
L 153.174344 -255.383896 
L 151.859475 -246.592469 
L 150.544605 -233.154656 
L 149.229736 -239.862331 
L 147.914866 -236.209552 
L 146.599996 -240.474553 
L 145.285127 -235.157639 
L 143.970257 -237.585975 
L 142.655388 -226.443158 
L 141.340518 -228.831348 
L 140.025648 -224.361795 
L 138.710779 -209.824277 
L 137.395909 -221.395793 
L 136.08104 -230.206816 
L 134.76617 -231.180827 
L 133.451301 -224.567781 
L 132.136431 -224.346023 
L 130.821561 -225.390289 
L 129.506692 -218.717981 
L 128.191822 -217.131748 
L 126.876953 -213.481358 
L 125.562083 -228.065712 
L 124.247214 -225.407972 
L 122.932344 -222.429067 
L 121.617474 -226.899098 
L 120.302605 -226.21232 
L 118.987735 -225.085373 
L 117.672866 -227.377023 
L 116.357996 -222.98346 
L 115.043127 -224.07265 
L 113.728257 -229.288244 
L 112.413387 -225.639288 
L 111.098518 -221.492812 
L 109.783648 -222.389877 
L 108.468779 -220.000731 
L 107.153909 -225.676088 
L 105.83904 -225.392679 
L 104.52417 -226.458929 
L 103.2093 -228.829436 
L 101.894431 -226.423563 
L 100.579561 -222.390833 
L 99.264692 -228.48533 
L 97.949822 -227.223609 
L 96.634953 -228.370628 
L 95.320083 -228.144092 
L 94.005213 -228.48533 
L 92.690344 -228.48533 
L 91.375474 -224.508996 
L 90.060605 -221.413955 
L 88.745735 -208.81729 
L 87.430865 -204.609161 
L 86.115996 -187.924805 
L 84.801126 -180.321499 
L 83.486257 -159.645993 
L 82.171387 -150.175912 
L 80.856518 -152.743802 
L 79.541648 -144.907746 
L 78.226778 -138.827109 
L 76.911909 -132.882202 
L 75.597039 -132.310126 
L 74.28217 -131.258213 
L 72.9673 -127.777486 
L 71.652431 -125.866265 
L 70.337561 -120.666921 
L 69.022691 -113.593633 
L 67.707822 -97.478008 
L 66.392952 -73.236226 
z
" style="stroke: #edd1cb; stroke-opacity: 0.2"/>
    </defs>
    <g clip-path="url(#pb7b359b181)">
     <use xlink:href="#me02711c3d0" x="0" y="362.097812" style="fill: #edd1cb; fill-opacity: 0.2; stroke: #edd1cb; stroke-opacity: 0.2"/>
    </g>
   </g>
   <g id="PolyCollection_2">
    <defs>
     <path id="m53941abb4b" d="M 66.392952 -62.760591 
L 66.392952 -56.852963 
L 67.707822 -60.924882 
L 69.022691 -68.72366 
L 70.337561 -73.807346 
L 71.652431 -83.042766 
L 72.9673 -92.599829 
L 74.28217 -91.066168 
L 75.597039 -93.863462 
L 76.911909 -85.08685 
L 78.226778 -88.222037 
L 79.541648 -101.603455 
L 80.856518 -107.588985 
L 82.171387 -113.008175 
L 83.486257 -121.71501 
L 84.801126 -124.482195 
L 86.115996 -147.311708 
L 87.430865 -161.477401 
L 88.745735 -187.110421 
L 90.060605 -185.331107 
L 91.375474 -194.724242 
L 92.690344 -195.787147 
L 94.005213 -192.966434 
L 95.320083 -212.752045 
L 96.634953 -194.666891 
L 97.949822 -220.838533 
L 99.264692 -219.385642 
L 100.579561 -204.927459 
L 101.894431 -215.810764 
L 103.2093 -187.646653 
L 104.52417 -206.003746 
L 105.83904 -217.926537 
L 107.153909 -229.976456 
L 108.468779 -200.133873 
L 109.783648 -217.703346 
L 111.098518 -221.163522 
L 112.413387 -211.107983 
L 113.728257 -191.360129 
L 115.043127 -210.037432 
L 116.357996 -198.672379 
L 117.672866 -194.453259 
L 118.987735 -181.015924 
L 120.302605 -189.458944 
L 121.617474 -204.608206 
L 122.932344 -200.237583 
L 124.247214 -209.040958 
L 125.562083 -200.076044 
L 126.876953 -199.844251 
L 128.191822 -201.048621 
L 129.506692 -198.010453 
L 130.821561 -240.643738 
L 132.136431 -219.385642 
L 133.451301 -206.193004 
L 134.76617 -208.77571 
L 136.08104 -207.686041 
L 137.395909 -178.195689 
L 138.710779 -197.343748 
L 140.025648 -232.098442 
L 141.340518 -206.153337 
L 142.655388 -205.174546 
L 143.970257 -232.098442 
L 145.285127 -210.914424 
L 146.599996 -206.6131 
L 147.914866 -193.556672 
L 149.229736 -188.91172 
L 150.544605 -179.811553 
L 151.859475 -196.730092 
L 153.174344 -196.515026 
L 154.489214 -196.252646 
L 155.804083 -184.702636 
L 157.118953 -192.047385 
L 158.433823 -191.070984 
L 159.748692 -189.615703 
L 161.063562 -193.596817 
L 162.378431 -191.508764 
L 163.693301 -210.763877 
L 165.00817 -213.121003 
L 166.32304 -197.817371 
L 167.63791 -208.46936 
L 168.952779 -186.370116 
L 170.267649 -201.146118 
L 171.582518 -213.092327 
L 172.897388 -221.756149 
L 174.212257 -203.516625 
L 175.527127 -200.300191 
L 176.841997 -200.379527 
L 178.156866 -213.077034 
L 179.471736 -211.315881 
L 180.786605 -223.20904 
L 182.101475 -218.162154 
L 183.416344 -223.78255 
L 184.731214 -222.884051 
L 186.046084 -209.385064 
L 187.360953 -202.04605 
L 188.675823 -212.672231 
L 189.990692 -188.760218 
L 191.305562 -213.176442 
L 192.620431 -206.019518 
L 193.935301 -215.67121 
L 195.250171 -212.407939 
L 196.56504 -214.300521 
L 197.87991 -191.549865 
L 199.194779 -200.670105 
L 200.509649 -194.360063 
L 201.824519 -212.708076 
L 203.139388 -189.849887 
L 204.454258 -203.248031 
L 205.769127 -178.437041 
L 207.083997 -205.692139 
L 208.398866 -196.253601 
L 209.713736 -201.759296 
L 211.028606 -194.091469 
L 212.343475 -206.844894 
L 213.658345 -195.101325 
L 214.973214 -204.816103 
L 216.288084 -202.482396 
L 217.602953 -196.079159 
L 218.917823 -206.080214 
L 220.232693 -222.731115 
L 221.547562 -212.941781 
L 222.862432 -196.78362 
L 224.177301 -208.323593 
L 225.492171 -202.867125 
L 226.80704 -198.470695 
L 228.12191 -195.331684 
L 229.43678 -195.544839 
L 230.751649 -203.014804 
L 232.066519 -204.202925 
L 233.381388 -213.419228 
L 234.696258 -207.616264 
L 236.011127 -198.278091 
L 237.325997 -179.896624 
L 238.640867 -210.186066 
L 239.955736 -215.543126 
L 241.270606 -202.524453 
L 242.585475 -207.813647 
L 243.900345 -208.679169 
L 245.215214 -193.799457 
L 246.530084 -196.190993 
L 247.844954 -228.772085 
L 249.159823 -228.141225 
L 250.474693 -193.804237 
L 251.789562 -202.975614 
L 253.104432 -211.203568 
L 254.419302 -161.765111 
L 255.734171 -185.469705 
L 257.049041 -204.052857 
L 258.36391 -205.079439 
L 259.67878 -208.527189 
L 260.993649 -191.063338 
L 262.308519 -200.839768 
L 263.623389 -208.431604 
L 264.938258 -210.357641 
L 266.253128 -182.37323 
L 267.567997 -198.507017 
L 268.882867 -180.214444 
L 270.197736 -194.511565 
L 271.512606 -227.338311 
L 272.827476 -200.396732 
L 274.142345 -191.224398 
L 275.457215 -194.906331 
L 276.772084 -204.436153 
L 278.086954 -198.375588 
L 279.401823 -212.46529 
L 280.716693 -204.158 
L 282.031563 -212.330515 
L 283.346432 -228.772085 
L 284.661302 -201.243615 
L 285.976171 -197.66109 
L 287.291041 -192.752324 
L 288.60591 -221.775266 
L 289.92078 -208.871295 
L 291.23565 -209.291869 
L 292.550519 -211.275735 
L 293.865389 -207.590457 
L 295.180258 -204.393139 
L 296.495128 -197.109087 
L 297.809997 -203.478391 
L 299.124867 -205.927278 
L 300.439737 -182.068314 
L 301.754606 -199.828479 
L 303.069476 -202.887198 
L 304.384345 -200.743227 
L 305.699215 -210.017359 
L 307.014085 -214.145674 
L 308.328954 -211.160555 
L 309.643824 -210.724688 
L 310.958693 -205.62045 
L 312.273563 -211.624142 
L 313.588432 -208.40723 
L 314.903302 -197.564071 
L 316.218172 -201.697643 
L 317.533041 -221.215616 
L 318.847911 -185.847744 
L 320.16278 -208.603179 
L 321.47765 -194.761042 
L 322.792519 -214.185819 
L 324.107389 -205.064624 
L 325.422259 -208.125732 
L 326.737128 -210.092871 
L 328.051998 -217.703346 
L 328.051998 -240.643738 
L 328.051998 -240.643738 
L 326.737128 -240.643738 
L 325.422259 -237.030627 
L 324.107389 -237.814423 
L 322.792519 -240.643738 
L 321.47765 -235.09981 
L 320.16278 -237.355615 
L 318.847911 -227.147619 
L 317.533041 -239.3629 
L 316.218172 -234.774821 
L 314.903302 -230.868264 
L 313.588432 -239.3629 
L 312.273563 -240.643738 
L 310.958693 -237.412966 
L 309.643824 -237.412966 
L 308.328954 -240.643738 
L 307.014085 -240.643738 
L 305.699215 -237.776189 
L 304.384345 -233.627802 
L 303.069476 -235.019519 
L 301.754606 -232.805771 
L 300.439737 -224.281026 
L 299.124867 -236.839457 
L 297.809997 -236.285064 
L 296.495128 -234.946874 
L 295.180258 -236.62917 
L 293.865389 -237.412966 
L 292.550519 -240.643738 
L 291.23565 -240.643738 
L 289.92078 -240.643738 
L 288.60591 -240.643738 
L 287.291041 -231.508683 
L 285.976171 -234.144916 
L 284.661302 -236.05566 
L 283.346432 -240.643738 
L 282.031563 -240.643738 
L 280.716693 -240.643738 
L 279.401823 -240.643738 
L 278.086954 -232.351742 
L 276.772084 -237.087978 
L 275.457215 -235.09981 
L 274.142345 -233.178074 
L 272.827476 -236.05566 
L 271.512606 -240.643738 
L 270.197736 -232.232261 
L 268.882867 -226.062729 
L 267.567997 -232.502289 
L 266.253128 -225.493043 
L 264.938258 -236.973276 
L 263.623389 -240.643738 
L 262.308519 -236.05566 
L 260.993649 -229.877525 
L 259.67878 -236.361532 
L 258.36391 -237.087978 
L 257.049041 -237.087978 
L 255.734171 -226.655356 
L 254.419302 -210.667815 
L 253.104432 -240.643738 
L 251.789562 -236.361532 
L 250.474693 -235.176278 
L 249.159823 -240.643738 
L 247.844954 -240.643738 
L 246.530084 -231.849921 
L 245.215214 -232.308729 
L 243.900345 -236.973276 
L 242.585475 -236.973276 
L 241.270606 -236.132128 
L 239.955736 -240.643738 
L 238.640867 -240.643738 
L 237.325997 -225.681345 
L 236.011127 -233.073409 
L 234.696258 -234.90864 
L 233.381388 -239.343783 
L 232.066519 -233.761621 
L 230.751649 -236.476234 
L 229.43678 -231.429825 
L 228.12191 -234.90864 
L 226.80704 -235.826256 
L 225.492171 -236.05566 
L 224.177301 -240.643738 
L 222.862432 -233.341047 
L 221.547562 -240.643738 
L 220.232693 -240.643738 
L 218.917823 -240.643738 
L 217.602953 -233.207228 
L 216.288084 -237.26003 
L 214.973214 -237.087978 
L 213.658345 -234.832172 
L 212.343475 -240.643738 
L 211.028606 -235.386565 
L 209.713736 -233.188111 
L 208.398866 -233.455749 
L 207.083997 -236.066652 
L 205.769127 -220.811769 
L 204.454258 -235.195395 
L 203.139388 -228.951307 
L 201.824519 -239.343783 
L 200.509649 -231.012119 
L 199.194779 -233.455749 
L 197.87991 -231.467581 
L 196.56504 -236.776371 
L 195.250171 -238.043827 
L 193.935301 -239.343783 
L 192.620431 -236.776371 
L 191.305562 -239.343783 
L 189.990692 -227.894615 
L 188.675823 -236.380649 
L 187.360953 -232.978302 
L 186.046084 -236.170362 
L 184.731214 -240.643738 
L 183.416344 -240.643738 
L 182.101475 -240.643738 
L 180.786605 -240.643738 
L 179.471736 -240.643738 
L 178.156866 -240.643738 
L 176.841997 -237.814423 
L 175.527127 -234.755704 
L 174.212257 -237.814423 
L 172.897388 -240.643738 
L 171.582518 -240.643738 
L 170.267649 -236.132128 
L 168.952779 -225.737263 
L 167.63791 -240.643738 
L 166.32304 -235.34403 
L 165.00817 -240.643738 
L 163.693301 -240.643738 
L 162.378431 -231.478574 
L 161.063562 -229.05884 
L 159.748692 -229.007224 
L 158.433823 -229.982191 
L 157.118953 -230.65033 
L 155.804083 -226.32511 
L 154.489214 -232.519016 
L 153.174344 -236.05566 
L 151.859475 -235.826256 
L 150.544605 -226.82263 
L 149.229736 -231.085242 
L 147.914866 -231.623863 
L 146.599996 -236.514468 
L 145.285127 -237.795306 
L 143.970257 -240.643738 
L 142.655388 -237.795306 
L 141.340518 -236.476234 
L 140.025648 -240.643738 
L 138.710779 -235.86449 
L 137.395909 -225.121217 
L 136.08104 -237.565902 
L 134.76617 -240.643738 
L 133.451301 -236.724755 
L 132.136431 -240.643738 
L 130.821561 -240.643738 
L 129.506692 -235.86449 
L 128.191822 -234.036905 
L 126.876953 -235.979192 
L 125.562083 -236.285064 
L 124.247214 -236.82034 
L 122.932344 -236.074299 
L 121.617474 -236.724755 
L 120.302605 -231.830804 
L 118.987735 -223.902987 
L 117.672866 -230.137039 
L 116.357996 -232.558684 
L 115.043127 -240.643738 
L 113.728257 -235.061576 
L 112.413387 -240.643738 
L 111.098518 -240.643738 
L 109.783648 -240.643738 
L 108.468779 -236.05566 
L 107.153909 -240.643738 
L 105.83904 -240.643738 
L 104.52417 -237.087978 
L 103.2093 -228.492499 
L 101.894431 -240.643738 
L 100.579561 -237.470317 
L 99.264692 -240.643738 
L 97.949822 -240.643738 
L 96.634953 -234.832172 
L 95.320083 -240.643738 
L 94.005213 -234.832172 
L 92.690344 -235.138044 
L 91.375474 -233.054292 
L 90.060605 -228.371106 
L 88.745735 -228.239199 
L 87.430865 -205.857023 
L 86.115996 -193.944747 
L 84.801126 -167.508334 
L 83.486257 -158.804367 
L 82.171387 -145.104174 
L 80.856518 -131.780107 
L 79.541648 -118.411593 
L 78.226778 -106.255097 
L 76.911909 -104.780699 
L 75.597039 -108.508513 
L 74.28217 -105.505711 
L 72.9673 -109.310949 
L 71.652431 -96.562782 
L 70.337561 -86.67834 
L 69.022691 -78.378697 
L 67.707822 -68.610391 
L 66.392952 -62.760591 
z
" style="stroke: #d499a7; stroke-opacity: 0.2"/>
    </defs>
    <g clip-path="url(#pb7b359b181)">
     <use xlink:href="#m53941abb4b" x="0" y="362.097812" style="fill: #d499a7; fill-opacity: 0.2; stroke: #d499a7; stroke-opacity: 0.2"/>
    </g>
   </g>
   <g id="PolyCollection_3">
    <defs>
     <path id="md642bf739d" d="M 66.392952 -65.627663 
L 66.392952 -56.451506 
L 67.707822 -69.40996 
L 69.022691 -89.50431 
L 70.337561 -96.194779 
L 71.652431 -103.898928 
L 72.9673 -100.227987 
L 74.28217 -121.964009 
L 75.597039 -124.544325 
L 76.911909 -134.238074 
L 78.226778 -134.503801 
L 79.541648 -142.876088 
L 80.856518 -137.142424 
L 82.171387 -152.241981 
L 83.486257 -155.207983 
L 84.801126 -163.258149 
L 86.115996 -167.401279 
L 87.430865 -179.698763 
L 88.745735 -182.984974 
L 90.060605 -196.415618 
L 91.375474 -186.729993 
L 92.690344 -199.040859 
L 94.005213 -197.398709 
L 95.320083 -205.174546 
L 96.634953 -204.185242 
L 97.949822 -189.808307 
L 99.264692 -224.346023 
L 100.579561 -213.15159 
L 101.894431 -227.030527 
L 103.2093 -211.488411 
L 104.52417 -199.979981 
L 105.83904 -233.532217 
L 107.153909 -218.770074 
L 108.468779 -231.914919 
L 109.783648 -224.659542 
L 111.098518 -219.987827 
L 112.413387 -214.927081 
L 113.728257 -230.778414 
L 115.043127 -236.889161 
L 116.357996 -233.08918 
L 117.672866 -234.368585 
L 118.987735 -239.649655 
L 120.302605 -231.073771 
L 121.617474 -232.021018 
L 122.932344 -234.908162 
L 124.247214 -217.26031 
L 125.562083 -236.93313 
L 126.876953 -236.282196 
L 128.191822 -247.515342 
L 129.506692 -256.778481 
L 130.821561 -230.739224 
L 132.136431 -240.545764 
L 133.451301 -236.341937 
L 134.76617 -240.411467 
L 136.08104 -221.832617 
L 137.395909 -232.484605 
L 138.710779 -242.06891 
L 140.025648 -265.551747 
L 141.340518 -234.311234 
L 142.655388 -282.777592 
L 143.970257 -258.591728 
L 145.285127 -263.668245 
L 146.599996 -270.596722 
L 147.914866 -221.835006 
L 149.229736 -248.670486 
L 150.544605 -294.247788 
L 151.859475 -266.680128 
L 153.174344 -261.169654 
L 154.489214 -274.499934 
L 155.804083 -284.154016 
L 157.118953 -262.260279 
L 158.433823 -255.820242 
L 159.748692 -252.829388 
L 161.063562 -253.488924 
L 162.378431 -254.827114 
L 163.693301 -281.573221 
L 165.00817 -284.555472 
L 166.32304 -262.645008 
L 167.63791 -297.325624 
L 168.952779 -283.121698 
L 170.267649 -289.812646 
L 171.582518 -289.812646 
L 172.897388 -304.265093 
L 174.212257 -304.265093 
L 175.527127 -281.821742 
L 176.841997 -273.677903 
L 178.156866 -256.353128 
L 179.471736 -265.448037 
L 180.786605 -241.440917 
L 182.101475 -272.00421 
L 183.416344 -277.874083 
L 184.731214 -273.324239 
L 186.046084 -263.315537 
L 187.360953 -271.34563 
L 188.675823 -275.971942 
L 189.990692 -273.849956 
L 191.305562 -277.626996 
L 192.620431 -268.910125 
L 193.935301 -254.250258 
L 195.250171 -279.870853 
L 196.56504 -281.324701 
L 197.87991 -299.677014 
L 199.194779 -268.136843 
L 200.509649 -258.862233 
L 201.824519 -267.139891 
L 203.139388 -283.695208 
L 204.454258 -280.177681 
L 205.769127 -304.265093 
L 207.083997 -274.671987 
L 208.398866 -271.976491 
L 209.713736 -283.662709 
L 211.028606 -253.910454 
L 212.343475 -241.097767 
L 213.658345 -260.768675 
L 214.973214 -268.860421 
L 216.288084 -265.763468 
L 217.602953 -263.353771 
L 218.917823 -264.692916 
L 220.232693 -254.769285 
L 221.547562 -255.746163 
L 222.862432 -280.215915 
L 224.177301 -278.839491 
L 225.492171 -276.545452 
L 226.80704 -271.230928 
L 228.12191 -257.85429 
L 229.43678 -272.397065 
L 230.751649 -289.869997 
L 232.066519 -287.996531 
L 233.381388 -287.193618 
L 234.696258 -288.092116 
L 236.011127 -304.953305 
L 237.325997 -269.051591 
L 238.640867 -262.284175 
L 239.955736 -278.72001 
L 241.270606 -275.662247 
L 242.585475 -272.14472 
L 243.900345 -281.133531 
L 245.215214 -276.730887 
L 246.530084 -278.954193 
L 247.844954 -254.918875 
L 249.159823 -266.178307 
L 250.474693 -273.048954 
L 251.789562 -244.675034 
L 253.104432 -255.400624 
L 254.419302 -259.220677 
L 255.734171 -270.987186 
L 257.049041 -273.752459 
L 258.36391 -280.69145 
L 259.67878 -284.651057 
L 260.993649 -290.021499 
L 262.308519 -280.166689 
L 263.623389 -270.993399 
L 264.938258 -298.262357 
L 266.253128 -280.160476 
L 267.567997 -277.49031 
L 268.882867 -276.268256 
L 270.197736 -275.625447 
L 271.512606 -282.694433 
L 272.827476 -279.642405 
L 274.142345 -271.343718 
L 275.457215 -264.994965 
L 276.772084 -283.69473 
L 278.086954 -260.331374 
L 279.401823 -257.558454 
L 280.716693 -276.37101 
L 282.031563 -264.417631 
L 283.346432 -262.061462 
L 284.661302 -270.233021 
L 285.976171 -288.378393 
L 287.291041 -284.532532 
L 288.60591 -265.322343 
L 289.92078 -267.644102 
L 291.23565 -282.38187 
L 292.550519 -286.064759 
L 293.865389 -260.600446 
L 295.180258 -262.786952 
L 296.495128 -266.82016 
L 297.809997 -268.474257 
L 299.124867 -307.935556 
L 300.439737 -280.271354 
L 301.754606 -321.470387 
L 303.069476 -293.483108 
L 304.384345 -277.113227 
L 305.699215 -299.32574 
L 307.014085 -297.899134 
L 308.328954 -299.046154 
L 309.643824 -298.147655 
L 310.958693 -282.737446 
L 312.273563 -291.214399 
L 313.588432 -273.290306 
L 314.903302 -290.419132 
L 316.218172 -285.012369 
L 317.533041 -252.545978 
L 318.847911 -275.411337 
L 320.16278 -285.948145 
L 321.47765 -298.238938 
L 322.792519 -278.826587 
L 324.107389 -274.569233 
L 325.422259 -256.115121 
L 326.737128 -298.300591 
L 328.051998 -291.418473 
L 328.051998 -326.287869 
L 328.051998 -326.287869 
L 326.737128 -326.287869 
L 325.422259 -312.225409 
L 324.107389 -314.895575 
L 322.792519 -319.487477 
L 321.47765 -326.287869 
L 320.16278 -325.599658 
L 318.847911 -320.30425 
L 317.533041 -307.249733 
L 316.218172 -324.911446 
L 314.903302 -324.911446 
L 313.588432 -319.654273 
L 312.273563 -324.911446 
L 310.958693 -320.093963 
L 309.643824 -325.599658 
L 308.328954 -326.287869 
L 307.014085 -326.287869 
L 305.699215 -326.287869 
L 304.384345 -322.540939 
L 303.069476 -325.599658 
L 301.754606 -326.287869 
L 300.439737 -324.911446 
L 299.124867 -324.911446 
L 297.809997 -316.58026 
L 296.495128 -313.861346 
L 295.180258 -310.559363 
L 293.865389 -308.051691 
L 292.550519 -315.735289 
L 291.23565 -314.014759 
L 289.92078 -313.825501 
L 288.60591 -310.032212 
L 287.291041 -316.652905 
L 285.976171 -316.00914 
L 284.661302 -310.939791 
L 283.346432 -309.542817 
L 282.031563 -309.448666 
L 280.716693 -310.502012 
L 279.401823 -303.541515 
L 278.086954 -305.667324 
L 276.772084 -312.29423 
L 275.457215 -303.350345 
L 274.142345 -303.653349 
L 272.827476 -307.71571 
L 271.512606 -307.407927 
L 270.197736 -305.838899 
L 268.882867 -307.01794 
L 267.567997 -307.947026 
L 266.253128 -309.082575 
L 264.938258 -310.019308 
L 263.623389 -304.762135 
L 262.308519 -308.642884 
L 260.993649 -308.394363 
L 259.67878 -309.770787 
L 258.36391 -307.01794 
L 257.049041 -304.953305 
L 255.734171 -305.641516 
L 254.419302 -300.91006 
L 253.104432 -298.647564 
L 251.789562 -293.965813 
L 250.474693 -306.329728 
L 249.159823 -304.265093 
L 247.844954 -299.831862 
L 246.530084 -306.329728 
L 245.215214 -306.329728 
L 243.900345 -308.394363 
L 242.585475 -304.655079 
L 241.270606 -303.959221 
L 239.955736 -307.706152 
L 238.640867 -301.294312 
L 237.325997 -301.310561 
L 236.011127 -309.770787 
L 234.696258 -307.01794 
L 233.381388 -306.329728 
L 232.066519 -305.641516 
L 230.751649 -306.329728 
L 229.43678 -304.265093 
L 228.12191 -302.200457 
L 226.80704 -304.265093 
L 225.492171 -304.265093 
L 224.177301 -304.265093 
L 222.862432 -304.265093 
L 221.547562 -294.649723 
L 220.232693 -298.110377 
L 218.917823 -298.702048 
L 217.602953 -298.702048 
L 216.288084 -298.147655 
L 214.973214 -301.206374 
L 213.658345 -296.388891 
L 212.343475 -290.328804 
L 211.028606 -296.388891 
L 209.713736 -304.265093 
L 208.398866 -304.265093 
L 207.083997 -304.265093 
L 205.769127 -304.265093 
L 204.454258 -304.265093 
L 203.139388 -304.265093 
L 201.824519 -301.206374 
L 200.509649 -297.363858 
L 199.194779 -299.677014 
L 197.87991 -304.265093 
L 196.56504 -304.265093 
L 195.250171 -304.265093 
L 193.935301 -299.44761 
L 192.620431 -298.147655 
L 191.305562 -304.265093 
L 189.990692 -304.265093 
L 188.675823 -304.265093 
L 187.360953 -300.384343 
L 186.046084 -299.26122 
L 184.731214 -302.735733 
L 183.416344 -302.353393 
L 182.101475 -301.74165 
L 180.786605 -289.756728 
L 179.471736 -302.353393 
L 178.156866 -299.44761 
L 176.841997 -301.206374 
L 175.527127 -304.265093 
L 174.212257 -304.265093 
L 172.897388 -304.265093 
L 171.582518 -304.265093 
L 170.267649 -304.265093 
L 168.952779 -304.265093 
L 167.63791 -304.265093 
L 166.32304 -299.887301 
L 165.00817 -304.265093 
L 163.693301 -304.265093 
L 162.378431 -295.973575 
L 161.063562 -294.956551 
L 159.748692 -294.763947 
L 158.433823 -296.08302 
L 157.118953 -296.756894 
L 155.804083 -304.265093 
L 154.489214 -302.735733 
L 153.174344 -299.677014 
L 151.859475 -299.677014 
L 150.544605 -304.953305 
L 149.229736 -293.581083 
L 147.914866 -278.784052 
L 146.599996 -298.013836 
L 145.285127 -296.369774 
L 143.970257 -296.08302 
L 142.655388 -299.677014 
L 141.340518 -281.4676 
L 140.025648 -296.618295 
L 138.710779 -291.800813 
L 137.395909 -281.865711 
L 136.08104 -277.940993 
L 134.76617 -283.296618 
L 133.451301 -279.164958 
L 132.136431 -281.825088 
L 130.821561 -276.326085 
L 129.506692 -289.697944 
L 128.191822 -281.613845 
L 126.876953 -275.975766 
L 125.562083 -275.85724 
L 124.247214 -262.57332 
L 122.932344 -269.704436 
L 121.617474 -264.508915 
L 120.302605 -261.710665 
L 118.987735 -265.266426 
L 117.672866 -260.296008 
L 116.357996 -256.472609 
L 115.043127 -255.614734 
L 113.728257 -254.56091 
L 112.413387 -247.544973 
L 111.098518 -250.355171 
L 109.783648 -251.884531 
L 108.468779 -253.41389 
L 107.153909 -249.055215 
L 105.83904 -250.966915 
L 104.52417 -239.826009 
L 103.2093 -247.604714 
L 101.894431 -250.968827 
L 100.579561 -246.227812 
L 99.264692 -247.29693 
L 97.949822 -234.186018 
L 96.634953 -242.576466 
L 95.320083 -237.207937 
L 94.005213 -233.781693 
L 92.690344 -226.879981 
L 91.375474 -220.800777 
L 90.060605 -223.916369 
L 88.745735 -214.034795 
L 87.430865 -203.807203 
L 86.115996 -194.613363 
L 84.801126 -186.890576 
L 83.486257 -181.015924 
L 82.171387 -174.365122 
L 80.856518 -159.516953 
L 79.541648 -159.377877 
L 78.226778 -153.260439 
L 76.911909 -150.833059 
L 75.597039 -148.562438 
L 74.28217 -144.565074 
L 72.9673 -127.531833 
L 71.652431 -128.738115 
L 70.337561 -118.585558 
L 69.022691 -108.316387 
L 67.707822 -87.040129 
L 66.392952 -65.627663 
z
" style="stroke: #a9678f; stroke-opacity: 0.2"/>
    </defs>
    <g clip-path="url(#pb7b359b181)">
     <use xlink:href="#md642bf739d" x="0" y="362.097812" style="fill: #a9678f; fill-opacity: 0.2; stroke: #a9678f; stroke-opacity: 0.2"/>
    </g>
   </g>
   <g id="PolyCollection_4">
    <defs>
     <path id="m16a2e995ac" d="M 66.392952 -66.430576 
L 66.392952 -58.668599 
L 67.707822 -69.068243 
L 69.022691 -75.930288 
L 70.337561 -88.680367 
L 71.652431 -100.095124 
L 72.9673 -105.428765 
L 74.28217 -111.7541 
L 75.597039 -114.483529 
L 76.911909 -122.921292 
L 78.226778 -125.346761 
L 79.541648 -137.679133 
L 80.856518 -141.005012 
L 82.171387 -140.642745 
L 83.486257 -136.182751 
L 84.801126 -135.268002 
L 86.115996 -138.119302 
L 87.430865 -131.5421 
L 88.745735 -128.865243 
L 90.060605 -132.746949 
L 91.375474 -128.847082 
L 92.690344 -125.272682 
L 94.005213 -132.554345 
L 95.320083 -128.386363 
L 96.634953 -122.572407 
L 97.949822 -126.438341 
L 99.264692 -135.710561 
L 100.579561 -127.164787 
L 101.894431 -129.918112 
L 103.2093 -125.289888 
L 104.52417 -122.344437 
L 105.83904 -118.541589 
L 107.153909 -113.85697 
L 108.468779 -126.092323 
L 109.783648 -129.362763 
L 111.098518 -131.101454 
L 112.413387 -127.680946 
L 113.728257 -118.255312 
L 115.043127 -124.276687 
L 116.357996 -122.421861 
L 117.672866 -131.920617 
L 118.987735 -126.362351 
L 120.302605 -131.809738 
L 121.617474 -136.130657 
L 122.932344 -140.489809 
L 124.247214 -137.596452 
L 125.562083 -126.725096 
L 126.876953 -134.256236 
L 128.191822 -139.415912 
L 129.506692 -137.831591 
L 130.821561 -129.152476 
L 132.136431 -143.414709 
L 133.451301 -133.759672 
L 134.76617 -140.011406 
L 136.08104 -135.481157 
L 137.395909 -129.937229 
L 138.710779 -132.249907 
L 140.025648 -118.06462 
L 141.340518 -114.794658 
L 142.655388 -127.030012 
L 143.970257 -134.791511 
L 145.285127 -127.622639 
L 146.599996 -133.56898 
L 147.914866 -128.578966 
L 149.229736 -126.608004 
L 150.544605 -129.974507 
L 151.859475 -132.976353 
L 153.174344 -134.849818 
L 154.489214 -132.613608 
L 155.804083 -138.213931 
L 157.118953 -137.793835 
L 158.433823 -146.300419 
L 159.748692 -136.855191 
L 161.063562 -140.33305 
L 162.378431 -136.3787 
L 163.693301 -133.340054 
L 165.00817 -128.214788 
L 166.32304 -144.08237 
L 167.63791 -150.717401 
L 168.952779 -137.677222 
L 170.267649 -146.14366 
L 171.582518 -169.965824 
L 172.897388 -155.361396 
L 174.212257 -159.756871 
L 175.527127 -157.805504 
L 176.841997 -160.046016 
L 178.156866 -162.710925 
L 179.471736 -162.223441 
L 180.786605 -163.697839 
L 182.101475 -161.36461 
L 183.416344 -167.066254 
L 184.731214 -159.182405 
L 186.046084 -167.959973 
L 187.360953 -159.320048 
L 188.675823 -156.237911 
L 189.990692 -166.769462 
L 191.305562 -146.301375 
L 192.620431 -155.878033 
L 193.935301 -163.716478 
L 195.250171 -161.17344 
L 196.56504 -156.528011 
L 197.87991 -162.794084 
L 199.194779 -155.582198 
L 200.509649 -153.866925 
L 201.824519 -152.225254 
L 203.139388 -156.222139 
L 204.454258 -162.815112 
L 205.769127 -162.489167 
L 207.083997 -163.523875 
L 208.398866 -156.297173 
L 209.713736 -161.478834 
L 211.028606 -168.400142 
L 212.343475 -162.835663 
L 213.658345 -171.361842 
L 214.973214 -156.944761 
L 216.288084 -156.943806 
L 217.602953 -167.805603 
L 218.917823 -168.839833 
L 220.232693 -177.289544 
L 221.547562 -167.665571 
L 222.862432 -164.997317 
L 224.177301 -171.955903 
L 225.492171 -161.365566 
L 226.80704 -151.423774 
L 228.12191 -171.936786 
L 229.43678 -175.509752 
L 230.751649 -175.146051 
L 232.066519 -170.652602 
L 233.381388 -169.795204 
L 234.696258 -172.279458 
L 236.011127 -170.445182 
L 237.325997 -161.955803 
L 238.640867 -170.119237 
L 239.955736 -187.191669 
L 241.270606 -165.683617 
L 242.585475 -166.507082 
L 243.900345 -169.871195 
L 245.215214 -179.444985 
L 246.530084 -200.682053 
L 247.844954 -214.138983 
L 249.159823 -238.233563 
L 250.474693 -237.408665 
L 251.789562 -258.055496 
L 253.104432 -246.258877 
L 254.419302 -271.230928 
L 255.734171 -247.380567 
L 257.049041 -280.823835 
L 258.36391 -273.219095 
L 259.67878 -271.30644 
L 260.993649 -275.03521 
L 262.308519 -268.055595 
L 263.623389 -274.507581 
L 264.938258 -276.316048 
L 266.253128 -299.371142 
L 267.567997 -269.508965 
L 268.882867 -286.964214 
L 270.197736 -264.701997 
L 271.512606 -278.64641 
L 272.827476 -268.316542 
L 274.142345 -294.477192 
L 275.457215 -306.712068 
L 276.772084 -279.600348 
L 278.086954 -286.371587 
L 279.401823 -286.977596 
L 280.716693 -268.091918 
L 282.031563 -254.102102 
L 283.346432 -268.706529 
L 284.661302 -272.03193 
L 285.976171 -247.632911 
L 287.291041 -238.937069 
L 288.60591 -266.623733 
L 289.92078 -242.206553 
L 291.23565 -274.573534 
L 292.550519 -247.201823 
L 293.865389 -253.966371 
L 295.180258 -275.207263 
L 296.495128 -276.990878 
L 297.809997 -272.416182 
L 299.124867 -249.39263 
L 300.439737 -240.342168 
L 301.754606 -257.046119 
L 303.069476 -268.933065 
L 304.384345 -239.561716 
L 305.699215 -243.605439 
L 307.014085 -233.702358 
L 308.328954 -242.604186 
L 309.643824 -268.286433 
L 310.958693 -258.061231 
L 312.273563 -262.928418 
L 313.588432 -233.086791 
L 314.903302 -246.859629 
L 316.218172 -262.838568 
L 317.533041 -267.474439 
L 318.847911 -268.958395 
L 320.16278 -260.218106 
L 321.47765 -270.215816 
L 322.792519 -270.375442 
L 324.107389 -266.716928 
L 325.422259 -273.40453 
L 326.737128 -247.617618 
L 328.051998 -268.22956 
L 328.051998 -301.818118 
L 328.051998 -301.818118 
L 326.737128 -294.305139 
L 325.422259 -301.971054 
L 324.107389 -300.728449 
L 322.792519 -300.862268 
L 321.47765 -298.338825 
L 320.16278 -297.612379 
L 318.847911 -297.994719 
L 317.533041 -300.826901 
L 316.218172 -301.129906 
L 314.903302 -291.801769 
L 313.588432 -283.65793 
L 312.273563 -296.886889 
L 310.958693 -300.154939 
L 309.643824 -301.669005 
L 308.328954 -292.03643 
L 307.014085 -286.947964 
L 305.699215 -292.341346 
L 304.384345 -291.038045 
L 303.069476 -301.209241 
L 301.754606 -295.931995 
L 300.439737 -289.893415 
L 299.124867 -294.687957 
L 297.809997 -304.495453 
L 296.495128 -303.466002 
L 295.180258 -304.036645 
L 293.865389 -297.631496 
L 292.550519 -296.296652 
L 291.23565 -306.520898 
L 289.92078 -298.147655 
L 288.60591 -304.570965 
L 287.291041 -285.685287 
L 285.976171 -294.900633 
L 284.661302 -303.768051 
L 283.346432 -304.078702 
L 282.031563 -296.162355 
L 280.716693 -302.894404 
L 279.401823 -304.800369 
L 278.086954 -304.800369 
L 276.772084 -306.712068 
L 275.457215 -306.712068 
L 274.142345 -306.712068 
L 272.827476 -304.265093 
L 271.512606 -306.712068 
L 270.197736 -304.265093 
L 268.882867 -306.712068 
L 267.567997 -304.265093 
L 266.253128 -306.712068 
L 264.938258 -306.520898 
L 263.623389 -304.876837 
L 262.308519 -304.685667 
L 260.993649 -304.876837 
L 259.67878 -303.920987 
L 258.36391 -303.920987 
L 257.049041 -304.265093 
L 255.734171 -298.338825 
L 254.419302 -306.712068 
L 253.104432 -296.465359 
L 251.789562 -298.897997 
L 250.474693 -290.349833 
L 249.159823 -289.016423 
L 247.844954 -269.260444 
L 246.530084 -246.346337 
L 245.215214 -229.712641 
L 243.900345 -211.453523 
L 242.585475 -208.394804 
L 241.270606 -199.468124 
L 239.955736 -208.509984 
L 238.640867 -194.841811 
L 237.325997 -188.808488 
L 236.011127 -187.27196 
L 234.696258 -188.496403 
L 233.381388 -187.118546 
L 232.066519 -188.670368 
L 230.751649 -189.849887 
L 229.43678 -189.873783 
L 228.12191 -187.824441 
L 226.80704 -178.974707 
L 225.492171 -182.263308 
L 224.177301 -189.754779 
L 222.862432 -188.22542 
L 221.547562 -188.837164 
L 220.232693 -189.836027 
L 218.917823 -187.557759 
L 217.602953 -186.199497 
L 216.288084 -180.312418 
L 214.973214 -181.517267 
L 213.658345 -188.244059 
L 212.343475 -185.226442 
L 211.028606 -185.606392 
L 209.713736 -182.778033 
L 208.398866 -179.509027 
L 207.083997 -182.567746 
L 205.769127 -183.143645 
L 204.454258 -182.470727 
L 203.139388 -176.507659 
L 201.824519 -173.698895 
L 200.509649 -176.162597 
L 199.194779 -177.826731 
L 197.87991 -179.986474 
L 196.56504 -178.169881 
L 195.250171 -179.929123 
L 193.935301 -180.884494 
L 192.620431 -177.637951 
L 191.305562 -174.078845 
L 189.990692 -181.572228 
L 188.675823 -179.201721 
L 187.360953 -179.720747 
L 186.046084 -182.336908 
L 184.731214 -179.507593 
L 183.416344 -182.336908 
L 182.101475 -181.094303 
L 180.786605 -180.922251 
L 179.471736 -179.929123 
L 178.156866 -180.463921 
L 176.841997 -179.319291 
L 175.527127 -176.852243 
L 174.212257 -179.207934 
L 172.897388 -175.60916 
L 171.582518 -181.403521 
L 170.267649 -169.83535 
L 168.952779 -163.682546 
L 167.63791 -169.53139 
L 166.32304 -166.642812 
L 165.00817 -152.402564 
L 163.693301 -154.619657 
L 162.378431 -155.938252 
L 161.063562 -160.798747 
L 159.748692 -154.82851 
L 158.433823 -161.270937 
L 157.118953 -155.536317 
L 155.804083 -154.810827 
L 154.489214 -149.514464 
L 153.174344 -151.789386 
L 151.859475 -149.972316 
L 150.544605 -147.372883 
L 149.229736 -144.619558 
L 147.914866 -144.104355 
L 146.599996 -145.480778 
L 145.285127 -141.713775 
L 143.970257 -145.958225 
L 142.655388 -142.575473 
L 141.340518 -134.200318 
L 140.025648 -137.3183 
L 138.710779 -146.742022 
L 137.395909 -146.343911 
L 136.08104 -147.335127 
L 134.76617 -149.111573 
L 133.451301 -145.881279 
L 132.136431 -149.303699 
L 130.821561 -145.846869 
L 129.506692 -147.066533 
L 128.191822 -148.385128 
L 126.876953 -146.742978 
L 125.562083 -144.23674 
L 124.247214 -146.513096 
L 122.932344 -147.545414 
L 121.617474 -145.843045 
L 120.302605 -144.582758 
L 118.987735 -143.186739 
L 117.672866 -143.357358 
L 116.357996 -137.833025 
L 115.043127 -139.037396 
L 113.728257 -133.206713 
L 112.413387 -139.208971 
L 111.098518 -141.273606 
L 109.783648 -140.396614 
L 108.468779 -139.192243 
L 107.153909 -131.562651 
L 105.83904 -133.685593 
L 104.52417 -135.674239 
L 103.2093 -137.049228 
L 101.894431 -142.096115 
L 100.579561 -141.963729 
L 99.264692 -144.180345 
L 97.949822 -140.738808 
L 96.634953 -138.2947 
L 95.320083 -142.249528 
L 94.005213 -143.549006 
L 92.690344 -140.185371 
L 91.375474 -142.325041 
L 90.060605 -143.759293 
L 88.745735 -142.669146 
L 87.430865 -142.498049 
L 86.115996 -145.288175 
L 84.801126 -145.001898 
L 83.486257 -144.524451 
L 82.171387 -146.186673 
L 80.856518 -146.741066 
L 79.541648 -145.575407 
L 78.226778 -142.459337 
L 76.911909 -139.6305 
L 75.597039 -133.493468 
L 74.28217 -130.225417 
L 72.9673 -125.277462 
L 71.652431 -120.609092 
L 70.337561 -111.451574 
L 69.022691 -92.415828 
L 67.707822 -82.125628 
L 66.392952 -66.430576 
z
" style="stroke: #6c3f70; stroke-opacity: 0.2"/>
    </defs>
    <g clip-path="url(#pb7b359b181)">
     <use xlink:href="#m16a2e995ac" x="0" y="362.097812" style="fill: #6c3f70; fill-opacity: 0.2; stroke: #6c3f70; stroke-opacity: 0.2"/>
    </g>
   </g>
   <g id="PolyCollection_5">
    <defs>
     <path id="mf642dbc2f4" d="M 66.392952 -68.7466 
L 66.392952 -57.081889 
L 67.707822 -79.809604 
L 69.022691 -96.405066 
L 70.337561 -101.297583 
L 71.652431 -97.992733 
L 72.9673 -95.886996 
L 74.28217 -106.115065 
L 75.597039 -104.299907 
L 76.911909 -100.381879 
L 78.226778 -99.287909 
L 79.541648 -99.252065 
L 80.856518 -103.935728 
L 82.171387 -102.179354 
L 83.486257 -100.858848 
L 84.801126 -92.028231 
L 86.115996 -100.322138 
L 87.430865 -105.810627 
L 88.745735 -100.475074 
L 90.060605 -92.503288 
L 91.375474 -107.798794 
L 92.690344 -100.400518 
L 94.005213 -113.018212 
L 95.320083 -126.897149 
L 96.634953 -204.164691 
L 97.949822 -228.99432 
L 99.264692 -241.232542 
L 100.579561 -265.170841 
L 101.894431 -265.11349 
L 103.2093 -265.11349 
L 104.52417 -285.301035 
L 105.83904 -279.986511 
L 107.153909 -287.136267 
L 108.468779 -254.102102 
L 109.783648 -287.136267 
L 111.098518 -271.517683 
L 112.413387 -266.336978 
L 113.728257 -266.489914 
L 115.043127 -286.524523 
L 116.357996 -254.957587 
L 117.672866 -267.399882 
L 118.987735 -234.446965 
L 120.302605 -263.498104 
L 121.617474 -256.925682 
L 122.932344 -247.0919 
L 124.247214 -265.340982 
L 125.562083 -265.109667 
L 126.876953 -256.724953 
L 128.191822 -264.117495 
L 129.506692 -265.534064 
L 130.821561 -259.451992 
L 132.136431 -250.985554 
L 133.451301 -286.600991 
L 134.76617 -261.824889 
L 136.08104 -252.725678 
L 137.395909 -241.255482 
L 138.710779 -263.876621 
L 140.025648 -265.245397 
L 141.340518 -256.241293 
L 142.655388 -265.189958 
L 143.970257 -287.212735 
L 145.285127 -287.289203 
L 146.599996 -287.212735 
L 147.914866 -280.751191 
L 149.229736 -251.729683 
L 150.544605 -287.36567 
L 151.859475 -265.340982 
L 153.174344 -287.212735 
L 154.489214 -265.266426 
L 155.804083 -257.21626 
L 157.118953 -265.11349 
L 158.433823 -268.860421 
L 159.748692 -265.725234 
L 161.063562 -282.624656 
L 162.378431 -287.136267 
L 163.693301 -265.189958 
L 165.00817 -251.769829 
L 166.32304 -287.136267 
L 167.63791 -287.136267 
L 168.952779 -265.189958 
L 170.267649 -287.136267 
L 171.582518 -287.212735 
L 172.897388 -251.502191 
L 174.212257 -287.136267 
L 175.527127 -265.419362 
L 176.841997 -265.189958 
L 178.156866 -253.490358 
L 179.471736 -229.133397 
L 180.786605 -265.859053 
L 182.101475 -265.11349 
L 183.416344 -265.11349 
L 184.731214 -265.11349 
L 186.046084 -250.431639 
L 187.360953 -265.11349 
L 188.675823 -271.651502 
L 189.990692 -257.772565 
L 191.305562 -265.801702 
L 192.620431 -265.11349 
L 193.935301 -243.090713 
L 195.250171 -268.783953 
L 196.56504 -268.783953 
L 197.87991 -265.11349 
L 199.194779 -287.136267 
L 200.509649 -273.027925 
L 201.824519 -287.136267 
L 203.139388 -287.136267 
L 204.454258 -258.589816 
L 205.769127 -287.136267 
L 207.083997 -265.725234 
L 208.398866 -251.043383 
L 209.713736 -266.184042 
L 211.028606 -287.74801 
L 212.343475 -287.74801 
L 213.658345 -287.74801 
L 214.973214 -267.866337 
L 216.288084 -287.74801 
L 217.602953 -268.233383 
L 218.917823 -272.397065 
L 220.232693 -288.359754 
L 221.547562 -238.502635 
L 222.862432 -288.971498 
L 224.177301 -272.11031 
L 225.492171 -289.583242 
L 226.80704 -244.925945 
L 228.12191 -254.698552 
L 229.43678 -288.971498 
L 230.751649 -253.794318 
L 232.066519 -290.806729 
L 233.381388 -279.973607 
L 234.696258 -257.791682 
L 236.011127 -266.184042 
L 237.325997 -239.184156 
L 238.640867 -269.929061 
L 239.955736 -267.327238 
L 241.270606 -266.336978 
L 242.585475 -250.200323 
L 243.900345 -250.435462 
L 245.215214 -267.713401 
L 246.530084 -290.806729 
L 247.844954 -263.733243 
L 249.159823 -274.289647 
L 250.474693 -248.588761 
L 251.789562 -277.348366 
L 253.104432 -253.938651 
L 254.419302 -298.797633 
L 255.734171 -278.170397 
L 257.049041 -267.302864 
L 258.36391 -299.428493 
L 259.67878 -278.704717 
L 260.993649 -274.289647 
L 262.308519 -275.230203 
L 263.623389 -275.712429 
L 264.938258 -276.468984 
L 266.253128 -304.876837 
L 267.567997 -281.630572 
L 268.882867 -278.829933 
L 270.197736 -286.448055 
L 271.512606 -259.368833 
L 272.827476 -242.47897 
L 274.142345 -304.876837 
L 275.457215 -288.015648 
L 276.772084 -291.112601 
L 278.086954 -306.712068 
L 279.401823 -289.392072 
L 280.716693 -304.876837 
L 282.031563 -281.343818 
L 283.346432 -260.620997 
L 284.661302 -282.85406 
L 285.976171 -268.439847 
L 287.291041 -306.712068 
L 288.60591 -282.85406 
L 289.92078 -304.876837 
L 291.23565 -285.492205 
L 292.550519 -264.654682 
L 293.865389 -300.207511 
L 295.180258 -267.789869 
L 296.495128 -301.044835 
L 297.809997 -258.899511 
L 299.124867 -280.093566 
L 300.439737 -280.101213 
L 301.754606 -283.351102 
L 303.069476 -267.636933 
L 304.384345 -300.747566 
L 305.699215 -301.74165 
L 307.014085 -302.506329 
L 308.328954 -304.876837 
L 309.643824 -304.876837 
L 310.958693 -281.018829 
L 312.273563 -281.630572 
L 313.588432 -281.630572 
L 314.903302 -268.592783 
L 316.218172 -304.876837 
L 317.533041 -302.027927 
L 318.847911 -267.176214 
L 320.16278 -270.089643 
L 321.47765 -252.796889 
L 322.792519 -286.237768 
L 324.107389 -268.879538 
L 325.422259 -306.712068 
L 326.737128 -275.513135 
L 328.051998 -306.712068 
L 328.051998 -306.712068 
L 328.051998 -306.712068 
L 326.737128 -306.712068 
L 325.422259 -306.712068 
L 324.107389 -306.712068 
L 322.792519 -306.712068 
L 321.47765 -302.066639 
L 320.16278 -306.712068 
L 318.847911 -305.163591 
L 317.533041 -306.712068 
L 316.218172 -306.712068 
L 314.903302 -306.712068 
L 313.588432 -306.712068 
L 312.273563 -306.712068 
L 310.958693 -306.712068 
L 309.643824 -306.712068 
L 308.328954 -306.712068 
L 307.014085 -306.712068 
L 305.699215 -306.712068 
L 304.384345 -306.712068 
L 303.069476 -305.717984 
L 301.754606 -306.712068 
L 300.439737 -305.717984 
L 299.124867 -305.717984 
L 297.809997 -304.044291 
L 296.495128 -306.712068 
L 295.180258 -306.712068 
L 293.865389 -306.712068 
L 292.550519 -306.712068 
L 291.23565 -306.712068 
L 289.92078 -306.712068 
L 288.60591 -306.712068 
L 287.291041 -306.712068 
L 285.976171 -306.712068 
L 284.661302 -306.712068 
L 283.346432 -306.712068 
L 282.031563 -306.712068 
L 280.716693 -306.712068 
L 279.401823 -306.712068 
L 278.086954 -306.712068 
L 276.772084 -306.712068 
L 275.457215 -306.712068 
L 274.142345 -306.712068 
L 272.827476 -298.759399 
L 271.512606 -304.876837 
L 270.197736 -306.100324 
L 268.882867 -306.100324 
L 267.567997 -306.712068 
L 266.253128 -306.712068 
L 264.938258 -306.712068 
L 263.623389 -305.48858 
L 262.308519 -306.100324 
L 260.993649 -305.48858 
L 259.67878 -306.100324 
L 258.36391 -306.100324 
L 257.049041 -302.430339 
L 255.734171 -303.672466 
L 254.419302 -305.48858 
L 253.104432 -300.002481 
L 251.789562 -304.265093 
L 250.474693 -301.818118 
L 249.159823 -302.429861 
L 247.844954 -299.982886 
L 246.530084 -298.147655 
L 245.215214 -295.853616 
L 243.900345 -290.810553 
L 242.585475 -290.577325 
L 241.270606 -293.483108 
L 239.955736 -293.943828 
L 238.640867 -292.259621 
L 237.325997 -287.379052 
L 236.011127 -295.70068 
L 234.696258 -295.70068 
L 233.381388 -296.924167 
L 232.066519 -297.535911 
L 230.751649 -293.865448 
L 229.43678 -294.477192 
L 228.12191 -292.030217 
L 226.80704 -291.433767 
L 225.492171 -295.088936 
L 224.177301 -293.268998 
L 222.862432 -294.477192 
L 221.547562 -290.806729 
L 220.232693 -293.865448 
L 218.917823 -292.657254 
L 217.602953 -293.253705 
L 216.288084 -292.030217 
L 214.973214 -292.641961 
L 213.658345 -292.641961 
L 212.343475 -292.030217 
L 211.028606 -292.030217 
L 209.713736 -289.583242 
L 208.398866 -288.971498 
L 207.083997 -289.583242 
L 205.769127 -290.194986 
L 204.454258 -288.359754 
L 203.139388 -288.971498 
L 201.824519 -288.971498 
L 200.509649 -288.971498 
L 199.194779 -287.136267 
L 197.87991 -287.136267 
L 196.56504 -287.136267 
L 195.250171 -287.136267 
L 193.935301 -287.136267 
L 192.620431 -287.136267 
L 191.305562 -287.136267 
L 189.990692 -287.136267 
L 188.675823 -287.136267 
L 187.360953 -287.136267 
L 186.046084 -287.136267 
L 184.731214 -287.136267 
L 183.416344 -287.36567 
L 182.101475 -287.36567 
L 180.786605 -287.289203 
L 179.471736 -280.12033 
L 178.156866 -287.36567 
L 176.841997 -287.442138 
L 175.527127 -287.442138 
L 174.212257 -287.671542 
L 172.897388 -287.36567 
L 171.582518 -287.74801 
L 170.267649 -287.596986 
L 168.952779 -287.518606 
L 167.63791 -287.518606 
L 166.32304 -287.36567 
L 165.00817 -287.289203 
L 163.693301 -287.442138 
L 162.378431 -287.671542 
L 161.063562 -287.518606 
L 159.748692 -287.595074 
L 158.433823 -287.595074 
L 157.118953 -287.595074 
L 155.804083 -287.44405 
L 154.489214 -287.824478 
L 153.174344 -287.824478 
L 151.859475 -287.977414 
L 150.544605 -288.053882 
L 149.229736 -287.74801 
L 147.914866 -287.900946 
L 146.599996 -287.824478 
L 145.285127 -287.902858 
L 143.970257 -287.74801 
L 142.655388 -287.442138 
L 141.340518 -287.518606 
L 140.025648 -287.442138 
L 138.710779 -287.36567 
L 137.395909 -286.602902 
L 136.08104 -288.436222 
L 134.76617 -289.65971 
L 133.451301 -291.112601 
L 132.136431 -287.403904 
L 130.821561 -288.89503 
L 129.506692 -290.959665 
L 128.191822 -289.736178 
L 126.876953 -289.508685 
L 125.562083 -289.65971 
L 124.247214 -290.426301 
L 122.932344 -289.27737 
L 121.617474 -288.820474 
L 120.302605 -290.577325 
L 118.987735 -282.263345 
L 117.672866 -289.124434 
L 116.357996 -288.97341 
L 115.043127 -293.330172 
L 113.728257 -292.185065 
L 112.413387 -290.806729 
L 111.098518 -290.806729 
L 109.783648 -290.806729 
L 108.468779 -289.583242 
L 107.153909 -290.194986 
L 105.83904 -288.359754 
L 104.52417 -288.971498 
L 103.2093 -288.971498 
L 101.894431 -288.971498 
L 100.579561 -288.359754 
L 99.264692 -282.08938 
L 97.949822 -276.851324 
L 96.634953 -258.831646 
L 95.320083 -190.027675 
L 94.005213 -155.901451 
L 92.690344 -126.748992 
L 91.375474 -131.145423 
L 90.060605 -108.545791 
L 88.745735 -115.02693 
L 87.430865 -118.43071 
L 86.115996 -113.095635 
L 84.801126 -111.60451 
L 83.486257 -116.844 
L 82.171387 -118.449827 
L 80.856518 -120.264508 
L 79.541648 -114.474449 
L 78.226778 -113.53676 
L 76.911909 -113.460292 
L 75.597039 -116.269056 
L 74.28217 -117.971425 
L 72.9673 -111.969167 
L 71.652431 -112.503009 
L 70.337561 -111.967255 
L 69.022691 -108.851185 
L 67.707822 -96.233969 
L 66.392952 -68.7466 
z
" style="stroke: #2d1e3e; stroke-opacity: 0.2"/>
    </defs>
    <g clip-path="url(#pb7b359b181)">
     <use xlink:href="#mf642dbc2f4" x="0" y="362.097812" style="fill: #2d1e3e; fill-opacity: 0.2; stroke: #2d1e3e; stroke-opacity: 0.2"/>
    </g>
   </g>
   <g id="line2d_11">
    <path d="M 66.392952 296.049576 
L 67.707822 274.084151 
L 69.022691 257.968525 
L 70.337561 249.86292 
L 71.652431 244.605746 
L 72.9673 242.789632 
L 74.28217 240.055902 
L 75.597039 237.876565 
L 76.911909 239.788264 
L 78.226778 235.62076 
L 80.856518 224.131446 
L 82.171387 227.47692 
L 83.486257 221.990343 
L 84.801126 202.070436 
L 86.115996 193.52514 
L 87.430865 177.75362 
L 88.745735 170.336227 
L 90.060605 150.511904 
L 91.375474 148.007578 
L 92.690344 137.913806 
L 94.005213 139.863739 
L 95.320083 145.637071 
L 96.634953 139.213761 
L 97.949822 147.453185 
L 99.264692 142.368065 
L 100.579561 152.76771 
L 101.894431 147.338483 
L 103.2093 142.578352 
L 105.83904 149.517821 
L 107.153909 148.772258 
L 108.468779 155.902897 
L 109.783648 152.920646 
L 111.098518 156.858746 
L 112.413387 149.07813 
L 113.728257 134.26246 
L 115.043127 151.62069 
L 116.357996 150.167798 
L 117.672866 147.73994 
L 118.987735 150.760425 
L 120.302605 151.639807 
L 121.617474 145.713539 
L 122.932344 156.1323 
L 125.562083 143.170979 
L 126.876953 165.308457 
L 128.191822 162.020334 
L 129.506692 161.561527 
L 130.821561 152.041264 
L 132.136431 151.295701 
L 133.451301 152.519189 
L 134.76617 140.857823 
L 136.08104 142.46365 
L 137.395909 155.998481 
L 138.710779 172.037639 
L 140.025648 153.494155 
L 141.340518 148.848726 
L 142.655388 153.360336 
L 143.970257 137.18736 
L 145.285127 141.775438 
L 146.599996 134.988906 
L 147.914866 144.375349 
L 149.229736 139.557867 
L 150.544605 148.619322 
L 151.859475 133.765418 
L 153.174344 116.216018 
L 154.489214 132.905153 
L 155.804083 130.687582 
L 157.118953 135.925638 
L 158.433823 129.119989 
L 159.748692 131.203741 
L 161.063562 123.289306 
L 162.378431 120.40264 
L 163.693301 130.553763 
L 165.00817 130.687582 
L 166.32304 143.591553 
L 167.63791 128.106788 
L 168.952779 125.48776 
L 170.267649 118.968865 
L 171.582518 110.270633 
L 172.897388 111.914694 
L 174.212257 120.632043 
L 175.527127 124.742197 
L 176.841997 110.366218 
L 178.156866 105.548736 
L 179.471736 99.565117 
L 180.786605 116.770411 
L 182.101475 101.495933 
L 183.416344 117.018932 
L 184.731214 136.766786 
L 186.046084 124.417208 
L 187.360953 141.565151 
L 188.675823 132.465462 
L 189.990692 134.377162 
L 191.305562 127.07447 
L 192.620431 134.300694 
L 193.935301 131.968421 
L 195.250171 120.555575 
L 196.56504 120.918798 
L 197.87991 116.846879 
L 199.194779 109.391251 
L 200.509649 106.064894 
L 201.824519 98.20781 
L 203.139388 113.195533 
L 204.454258 110.500037 
L 205.769127 107.001627 
L 207.083997 95.359378 
L 208.398866 90.943353 
L 209.713736 106.638404 
L 211.028606 101.362114 
L 212.343475 113.157299 
L 213.658345 122.715796 
L 214.973214 111.991162 
L 216.288084 104.210546 
L 217.602953 119.083567 
L 218.917823 102.184145 
L 220.232693 103.082643 
L 221.547562 111.150015 
L 222.862432 107.670722 
L 224.177301 111.589706 
L 225.492171 90.866885 
L 226.80704 101.744454 
L 228.12191 99.450415 
L 229.43678 111.952928 
L 230.751649 112.124981 
L 232.066519 113.78816 
L 233.381388 106.676638 
L 234.696258 101.362114 
L 236.011127 100.329796 
L 237.325997 114.763126 
L 238.640867 110.423569 
L 239.955736 111.398536 
L 241.270606 111.475004 
L 242.585475 114.380787 
L 243.900345 102.566485 
L 245.215214 101.056242 
L 246.530084 112.373502 
L 247.844954 95.47408 
L 249.159823 107.097212 
L 250.474693 103.522334 
L 251.789562 107.881009 
L 253.104432 118.758578 
L 254.419302 95.799069 
L 255.734171 105.625204 
L 257.049041 110.576505 
L 258.36391 110.805909 
L 259.67878 110.652973 
L 260.993649 115.680742 
L 262.308519 106.198713 
L 263.623389 105.83549 
L 264.938258 105.854607 
L 267.567997 97.882821 
L 270.197736 111.264717 
L 271.512606 104.936992 
L 272.827476 115.145466 
L 274.142345 111.111781 
L 275.457215 105.988426 
L 276.772084 107.326616 
L 278.086954 104.707588 
L 279.401823 118.089483 
L 280.716693 107.651605 
L 282.031563 105.3958 
L 283.346432 122.008467 
L 284.661302 110.920611 
L 285.976171 100.922423 
L 287.291041 107.192797 
L 288.60591 100.540083 
L 289.92078 101.056242 
L 291.23565 116.617475 
L 292.550519 98.953373 
L 293.865389 103.29293 
L 295.180258 118.892397 
L 296.495128 114.896945 
L 297.809997 106.428117 
L 299.124867 94.613815 
L 300.439737 118.1086 
L 301.754606 97.921055 
L 303.069476 107.708956 
L 304.384345 124.703963 
L 305.699215 122.276105 
L 307.014085 124.245155 
L 308.328954 105.911958 
L 309.643824 122.792264 
L 310.958693 113.616107 
L 312.273563 115.030764 
L 313.588432 100.501849 
L 316.218172 123.308423 
L 317.533041 120.899681 
L 318.847911 114.266085 
L 320.16278 97.672534 
L 321.47765 110.155931 
L 322.792519 100.119509 
L 324.107389 111.322068 
L 325.422259 102.929707 
L 326.737128 114.724892 
L 328.051998 105.567853 
L 328.051998 105.567853 
" clip-path="url(#pb7b359b181)" style="fill: none; stroke: #edd1cb; stroke-width: 1.5; stroke-linecap: round"/>
   </g>
   <g id="line2d_12">
    <path d="M 66.392952 302.472886 
L 67.707822 297.426 
L 69.022691 288.918937 
L 70.337561 281.788299 
L 71.652431 272.573908 
L 72.9673 261.218414 
L 74.28217 263.703623 
L 75.597039 261.084595 
L 76.911909 266.991746 
L 78.226778 265.271216 
L 79.541648 251.812853 
L 82.171387 233.766411 
L 83.486257 221.62712 
L 84.801126 216.121426 
L 86.115996 191.881078 
L 87.430865 176.912472 
L 88.745735 152.308902 
L 90.060605 155.252919 
L 91.375474 146.497336 
L 92.690344 145.942943 
L 94.005213 146.554687 
L 95.320083 135.122725 
L 96.634953 145.407667 
L 97.949822 129.100872 
L 99.264692 129.846434 
L 100.579561 139.060825 
L 101.894431 132.828685 
L 103.2093 152.76771 
L 104.52417 138.77407 
L 105.83904 131.394911 
L 107.153909 125.009835 
L 108.468779 143.572436 
L 109.783648 132.178708 
L 111.098518 129.215574 
L 112.413387 135.46683 
L 113.728257 148.370801 
L 115.043127 134.396279 
L 116.357996 145.312082 
L 117.672866 149.135481 
L 118.987735 157.986649 
L 120.302605 150.167798 
L 121.617474 139.576984 
L 122.932344 141.278396 
L 124.247214 137.321179 
L 125.562083 142.406299 
L 126.876953 143.113628 
L 128.191822 142.922458 
L 129.506692 145.140029 
L 130.821561 121.454074 
L 133.451301 138.678485 
L 134.76617 135.84917 
L 136.08104 137.5697 
L 137.395909 158.999849 
L 138.710779 143.304798 
L 140.025648 124.302506 
L 141.340518 139.194644 
L 142.655388 138.238795 
L 143.970257 124.302506 
L 145.285127 135.982989 
L 146.599996 138.468198 
L 147.914866 148.485503 
L 149.229736 150.110447 
L 150.544605 157.183735 
L 151.859475 145.292965 
L 153.174344 145.082678 
L 154.489214 145.828241 
L 155.804083 155.577908 
L 157.118953 149.517821 
L 158.433823 150.110447 
L 159.748692 151.028063 
L 161.063562 150.244266 
L 162.378431 148.88696 
L 163.693301 133.899237 
L 165.00817 134.797736 
L 166.32304 142.788639 
L 167.63791 137.703519 
L 168.952779 155.616142 
L 170.267649 142.673937 
L 171.582518 134.300694 
L 172.897388 128.814117 
L 174.212257 138.96524 
L 175.527127 143.247447 
L 176.841997 140.169611 
L 178.156866 132.503696 
L 179.471736 134.205109 
L 180.786605 127.26564 
L 182.101475 130.247891 
L 183.416344 127.07447 
L 184.731214 128.431777 
L 186.046084 137.531466 
L 187.360953 142.559235 
L 188.675823 137.282945 
L 189.990692 152.653008 
L 191.305562 133.841886 
L 192.620431 138.621134 
L 193.935301 133.11544 
L 195.250171 134.568332 
L 196.56504 135.065374 
L 197.87991 148.714907 
L 199.194779 143.170979 
L 200.509649 147.701706 
L 201.824519 134.549215 
L 203.139388 150.531021 
L 204.454258 140.513717 
L 205.769127 161.102719 
L 207.083997 138.716719 
L 208.398866 145.57972 
L 209.713736 142.788639 
L 211.028606 146.401751 
L 212.343475 136.518265 
L 213.658345 144.81504 
L 214.973214 138.869655 
L 216.288084 139.768154 
L 217.602953 146.038528 
L 220.232693 128.450894 
L 221.547562 133.803652 
L 222.862432 144.413583 
L 224.177301 136.097691 
L 225.492171 142.196012 
L 226.80704 144.260647 
L 228.12191 145.235614 
L 229.43678 148.141397 
L 230.751649 140.341664 
L 232.066519 141.431332 
L 233.381388 134.26246 
L 234.696258 140.074026 
L 236.011127 143.534202 
L 237.325997 157.604309 
L 238.640867 134.931555 
L 239.955736 132.790451 
L 241.270606 140.551951 
L 242.585475 137.990274 
L 243.900345 137.512349 
L 245.215214 147.128196 
L 246.530084 146.975261 
L 247.844954 125.411292 
L 249.159823 125.621579 
L 250.474693 146.612038 
L 251.789562 140.379898 
L 253.104432 135.180076 
L 254.419302 173.853753 
L 255.734171 155.080866 
L 257.049041 139.72992 
L 258.36391 139.118176 
L 259.67878 139.500516 
L 260.993649 150.320734 
L 262.308519 143.209213 
L 263.623389 134.874204 
L 264.938258 137.053541 
L 266.253128 157.107267 
L 267.567997 145.96206 
L 268.882867 157.986649 
L 270.197736 147.242898 
L 271.512606 125.889217 
L 272.827476 143.190096 
L 274.142345 148.600205 
L 275.457215 145.790007 
L 276.772084 139.041708 
L 278.086954 145.350316 
L 279.401823 133.325727 
L 280.716693 137.397647 
L 282.031563 133.669833 
L 283.346432 125.411292 
L 284.661302 140.724004 
L 285.976171 145.503252 
L 287.291041 148.581088 
L 288.60591 128.928819 
L 289.92078 135.600649 
L 291.23565 134.893321 
L 292.550519 135.772702 
L 293.865389 138.525549 
L 295.180258 139.500516 
L 296.495128 144.184179 
L 297.809997 141.679853 
L 299.124867 138.812304 
L 300.439737 158.292521 
L 301.754606 144.470934 
L 303.069476 140.456366 
L 304.384345 143.99301 
L 305.699215 136.632967 
L 307.014085 133.268376 
L 308.328954 134.300694 
L 309.643824 137.130009 
L 310.958693 138.257911 
L 312.273563 134.128641 
L 313.588432 136.728552 
L 314.903302 145.732656 
L 316.218172 142.425416 
L 317.533041 129.884668 
L 318.847911 153.704442 
L 320.16278 137.474115 
L 321.47765 145.790007 
L 322.792519 133.153674 
L 324.107389 138.449081 
L 325.422259 138.410847 
L 326.737128 136.212393 
L 328.051998 130.630231 
L 328.051998 130.630231 
" clip-path="url(#pb7b359b181)" style="fill: none; stroke: #d499a7; stroke-width: 1.5; stroke-linecap: round"/>
   </g>
   <g id="line2d_13">
    <path d="M 66.392952 301.631738 
L 67.707822 284.38821 
L 69.022691 263.378634 
L 71.652431 245.771883 
L 72.9673 248.257092 
L 74.28217 228.279834 
L 75.597039 225.393168 
L 76.911909 218.606635 
L 78.226778 217.975775 
L 79.541648 210.11869 
L 80.856518 213.578866 
L 82.171387 198.897015 
L 83.486257 193.620725 
L 86.115996 180.582935 
L 87.430865 170.393578 
L 88.745735 163.282056 
L 90.060605 151.697158 
L 91.375474 156.954331 
L 92.690344 148.867843 
L 94.005213 145.235614 
L 95.320083 139.825505 
L 96.634953 137.340296 
L 97.949822 148.906077 
L 99.264692 125.659813 
L 100.579561 130.171423 
L 101.894431 121.60701 
L 104.52417 140.762238 
L 105.83904 118.854163 
L 107.153909 126.462726 
L 108.468779 117.707143 
L 111.098518 126.195089 
L 112.413387 128.775883 
L 113.728257 117.898313 
L 115.043127 114.399904 
L 116.357996 116.426305 
L 117.672866 113.233767 
L 118.987735 108.263349 
L 120.302605 113.577873 
L 122.932344 109.123613 
L 124.247214 120.727628 
L 125.562083 103.063526 
L 126.876953 105.089928 
L 128.191822 96.850504 
L 129.506692 87.292007 
L 130.821561 106.313415 
L 132.136431 98.20781 
L 133.451301 104.229663 
L 134.76617 98.609267 
L 136.08104 110.614739 
L 137.395909 100.960657 
L 138.710779 93.466796 
L 140.025648 79.989315 
L 141.340518 102.050326 
L 142.655388 70.602871 
L 143.970257 82.493641 
L 145.285127 79.836379 
L 146.599996 75.229184 
L 147.914866 110.404452 
L 149.229736 89.490461 
L 150.544605 61.732586 
L 151.859475 77.217351 
L 153.174344 78.612892 
L 154.489214 70.813158 
L 155.804083 64.389849 
L 157.118953 80.945165 
L 158.433823 84.940617 
L 161.063562 86.106753 
L 162.378431 83.277438 
L 163.693301 66.167729 
L 165.00817 65.173645 
L 166.32304 78.68936 
L 167.63791 60.145876 
L 168.952779 65.900091 
L 170.267649 62.650202 
L 171.582518 62.650202 
L 172.897388 57.83272 
L 174.212257 57.83272 
L 175.527127 67.525035 
L 176.841997 72.361635 
L 178.156866 82.111302 
L 179.471736 76.357086 
L 180.786605 94.766751 
L 182.101475 73.795409 
L 183.416344 70.832275 
L 184.731214 71.329317 
L 186.046084 79.186401 
L 187.360953 74.292451 
L 188.675823 70.602871 
L 189.990692 71.099913 
L 191.305562 69.570554 
L 192.620431 77.446755 
L 193.935301 83.028917 
L 195.250171 67.81179 
L 196.56504 67.008877 
L 197.87991 59.362079 
L 199.194779 76.318852 
L 200.509649 82.340705 
L 201.824519 75.305652 
L 203.139388 65.708921 
L 204.454258 67.467684 
L 205.769127 57.83272 
L 207.083997 70.908743 
L 208.398866 73.413069 
L 209.713736 65.708921 
L 211.028606 85.189137 
L 212.343475 95.321144 
L 213.658345 81.365739 
L 214.973214 74.885078 
L 216.288084 78.612892 
L 217.602953 79.817262 
L 218.917823 79.148168 
L 220.232693 84.367107 
L 221.547562 83.20097 
L 222.862432 67.448567 
L 224.177301 67.964726 
L 225.492171 69.207331 
L 226.80704 73.088081 
L 228.12191 80.27607 
L 229.43678 72.323401 
L 230.751649 61.942873 
L 232.066519 63.338414 
L 233.381388 63.395765 
L 234.696258 61.847288 
L 236.011127 55.079873 
L 237.325997 74.980663 
L 238.640867 77.867329 
L 239.955736 65.823623 
L 241.270606 71.291083 
L 242.585475 71.596955 
L 243.900345 64.925124 
L 245.215214 69.876426 
L 246.530084 68.232364 
L 247.844954 82.130418 
L 249.159823 75.267418 
L 250.474693 70.449935 
L 251.789562 91.172756 
L 253.104432 82.474524 
L 254.419302 80.199602 
L 255.734171 72.342518 
L 257.049041 69.838192 
L 258.36391 66.60742 
L 259.67878 62.764904 
L 260.993649 60.662035 
L 262.308519 65.670687 
L 263.623389 71.252849 
L 264.938258 57.144508 
L 266.253128 64.714837 
L 267.567997 67.42945 
L 268.882867 68.920576 
L 270.197736 69.761724 
L 271.512606 64.982475 
L 272.827476 65.555985 
L 274.142345 72.170465 
L 275.457215 75.687992 
L 276.772084 63.472233 
L 278.086954 75.993864 
L 279.401823 81.556909 
L 280.716693 67.716205 
L 282.031563 72.916028 
L 283.346432 74.101281 
L 284.661302 69.035278 
L 285.976171 57.890071 
L 287.291041 60.298812 
L 288.60591 72.935145 
L 289.92078 69.322033 
L 291.23565 61.847288 
L 292.550519 59.457664 
L 293.865389 77.484989 
L 295.180258 73.27925 
L 296.495128 69.972011 
L 297.809997 66.110378 
L 299.124867 44.144952 
L 300.439737 56.991572 
L 301.754606 37.874578 
L 303.069476 49.497711 
L 304.384345 59.973823 
L 305.699215 46.534577 
L 307.014085 47.012501 
L 308.328954 47.222788 
L 309.643824 48.121287 
L 310.958693 59.03709 
L 312.273563 51.313825 
L 313.588432 63.089893 
L 314.903302 52.881418 
L 316.218172 55.404862 
L 317.533041 79.549624 
L 318.847911 60.604684 
L 320.16278 54.926937 
L 321.47765 47.222788 
L 322.792519 60.528216 
L 324.107389 66.951526 
L 325.422259 76.376203 
L 326.737128 48.350691 
L 328.051998 50.032986 
L 328.051998 50.032986 
" clip-path="url(#pb7b359b181)" style="fill: none; stroke: #a9678f; stroke-width: 1.5; stroke-linecap: round"/>
   </g>
   <g id="line2d_14">
    <path d="M 66.392952 299.605337 
L 67.707822 287.102823 
L 69.022691 277.945783 
L 70.337561 261.772807 
L 71.652431 251.602566 
L 74.28217 241.011752 
L 75.597039 237.264821 
L 76.911909 230.076831 
L 78.226778 227.782792 
L 79.541648 220.212463 
L 80.856518 217.899307 
L 82.171387 218.358114 
L 83.486257 221.62712 
L 84.801126 221.130078 
L 86.115996 219.963942 
L 87.430865 224.724073 
L 88.745735 225.50787 
L 90.060605 223.232948 
L 91.375474 225.947561 
L 92.690344 229.044514 
L 94.005213 223.481469 
L 95.320083 226.062263 
L 96.634953 231.090032 
L 97.949822 227.935728 
L 99.264692 222.047694 
L 100.579561 226.712241 
L 101.894431 225.871093 
L 103.2093 230.803277 
L 104.52417 232.94438 
L 107.153909 239.214754 
L 108.468779 229.216567 
L 109.783648 226.826943 
L 111.098518 225.622572 
L 112.413387 228.279834 
L 113.728257 236.156035 
L 115.043127 230.076831 
L 116.357996 231.74001 
L 117.672866 224.207914 
L 118.987735 226.329901 
L 120.302605 223.309416 
L 121.617474 220.690388 
L 122.932344 217.784605 
L 124.247214 219.390432 
L 125.562083 225.450519 
L 126.876953 221.091844 
L 128.191822 217.669903 
L 129.506692 219.199262 
L 130.821561 223.844692 
L 132.136431 215.261161 
L 133.451301 221.588886 
L 134.76617 217.039042 
L 136.08104 220.288931 
L 137.395909 222.831491 
L 138.710779 222.372683 
L 140.025648 234.378155 
L 141.340518 237.20747 
L 142.655388 227.247516 
L 143.970257 221.397716 
L 145.285127 227.438686 
L 146.599996 222.047694 
L 147.914866 225.144647 
L 149.229736 226.100497 
L 150.544605 223.060895 
L 151.859475 220.384516 
L 153.174344 218.683103 
L 154.489214 220.652154 
L 155.804083 215.605267 
L 157.118953 215.490565 
L 158.433823 208.512863 
L 159.748692 215.643501 
L 161.063562 211.323061 
L 162.378431 215.318512 
L 165.00817 221.206546 
L 166.32304 206.486461 
L 167.63791 201.496926 
L 168.952779 210.749551 
L 170.267649 204.192422 
L 171.582518 185.629821 
L 172.897388 196.411806 
L 174.212257 191.460504 
L 175.527127 193.850129 
L 176.841997 191.976663 
L 178.156866 189.529688 
L 179.471736 190.084081 
L 180.786605 188.803242 
L 182.101475 189.357635 
L 183.416344 186.279799 
L 184.731214 191.957546 
L 186.046084 186.012161 
L 187.360953 191.919312 
L 188.675823 193.085449 
L 189.990692 187.503287 
L 191.305562 200.846948 
L 192.620431 194.691276 
L 193.935301 189.357635 
L 195.250171 190.428187 
L 196.56504 193.467789 
L 197.87991 189.83556 
L 199.194779 194.653042 
L 200.509649 195.800062 
L 201.824519 197.922048 
L 203.139388 194.805978 
L 204.454258 189.032646 
L 205.769127 188.554721 
L 207.083997 188.478253 
L 208.398866 193.467789 
L 209.713736 189.83556 
L 211.028606 184.482802 
L 212.343475 187.006245 
L 213.658345 181.404966 
L 214.973214 191.575206 
L 216.288084 192.875162 
L 217.602953 184.673972 
L 218.917823 182.762272 
L 220.232693 177.294812 
L 221.547562 182.743155 
L 222.862432 184.157813 
L 224.177301 180.124127 
L 225.492171 189.032646 
L 226.80704 196.144168 
L 228.12191 181.577019 
L 229.43678 178.556534 
L 230.751649 179.072693 
L 232.066519 181.462317 
L 233.381388 182.685804 
L 234.696258 180.602052 
L 236.011127 182.666687 
L 237.325997 186.566554 
L 238.640867 180.29618 
L 239.955736 165.212872 
L 241.270606 179.397682 
L 242.585475 175.555166 
L 243.900345 171.292076 
L 245.215214 156.782278 
L 247.844954 119.25562 
L 249.159823 97.309311 
L 250.474693 97.175492 
L 251.789562 81.862781 
L 253.104432 88.209622 
L 254.419302 71.367551 
L 255.734171 88.496377 
L 257.049041 68.155896 
L 258.36391 71.864593 
L 259.67878 72.533688 
L 260.993649 69.876426 
L 262.308519 71.921944 
L 263.623389 69.417618 
L 264.938258 67.639737 
L 266.253128 57.83272 
L 267.567997 72.45722 
L 268.882867 62.784021 
L 270.197736 74.961546 
L 271.512606 67.085345 
L 272.827476 72.552805 
L 274.142345 60.279695 
L 275.457215 55.385745 
L 276.772084 65.326581 
L 278.086954 65.555985 
L 279.401823 65.250113 
L 280.716693 73.890994 
L 282.031563 84.711213 
L 283.346432 73.049847 
L 284.661302 72.26605 
L 285.976171 89.108121 
L 287.291041 97.290194 
L 288.60591 74.827727 
L 289.92078 88.458143 
L 291.23565 70.220532 
L 292.550519 88.916951 
L 293.865389 85.36119 
L 295.180258 70.794041 
L 296.495128 70.335233 
L 297.809997 69.570554 
L 299.124867 87.444943 
L 300.439737 96.009356 
L 301.754606 83.181853 
L 303.069476 75.458588 
L 304.384345 95.435846 
L 305.699215 92.319776 
L 307.014085 100.94154 
L 308.328954 93.830019 
L 309.643824 75.611524 
L 310.958693 80.983399 
L 312.273563 80.199602 
L 313.588432 101.992975 
L 314.903302 90.713949 
L 316.218172 77.771744 
L 317.533041 76.299735 
L 318.847911 77.657042 
L 320.16278 81.289271 
L 321.47765 76.165917 
L 322.792519 75.114482 
L 324.107389 76.739426 
L 325.422259 72.151348 
L 326.737128 90.446311 
L 328.051998 75.611524 
L 328.051998 75.611524 
" clip-path="url(#pb7b359b181)" style="fill: none; stroke: #6c3f70; stroke-width: 1.5; stroke-linecap: round"/>
   </g>
   <g id="line2d_15">
    <path d="M 66.392952 299.681805 
L 67.707822 274.256203 
L 69.022691 259.21113 
L 70.337561 255.158327 
L 71.652431 256.477399 
L 72.9673 257.987642 
L 74.28217 249.958505 
L 75.597039 251.430513 
L 76.911909 255.215678 
L 78.226778 255.368614 
L 79.541648 255.062742 
L 80.856518 249.767335 
L 82.171387 251.736385 
L 83.486257 252.711352 
L 84.801126 260.281681 
L 87.430865 250.05409 
L 88.745735 254.106892 
L 90.060605 261.122829 
L 91.375474 244.682214 
L 92.690344 250.207026 
L 94.005213 229.120982 
L 95.320083 205.014453 
L 96.634953 129.712615 
L 97.949822 106.045777 
L 99.264692 98.20781 
L 100.579561 81.671611 
L 103.2093 81.690728 
L 104.52417 74.961546 
L 105.83904 77.140883 
L 107.153909 73.738058 
L 108.468779 86.89055 
L 109.783648 73.126315 
L 111.098518 78.536424 
L 112.413387 80.46724 
L 113.728257 79.167285 
L 115.043127 72.438103 
L 116.357996 88.266973 
L 117.672866 82.531875 
L 118.987735 100.826838 
L 120.302605 79.587858 
L 122.932344 92.281542 
L 124.247214 80.84958 
L 125.562083 81.384856 
L 126.876953 86.183221 
L 128.191822 82.073068 
L 129.506692 80.734878 
L 130.821561 83.258321 
L 132.136431 89.24194 
L 133.451301 73.432186 
L 134.76617 83.96565 
L 136.08104 89.261057 
L 137.395909 97.519598 
L 138.710779 82.761279 
L 140.025648 82.130418 
L 141.340518 86.69938 
L 142.655388 82.149535 
L 143.970257 74.655674 
L 145.285127 74.502738 
L 146.599996 74.579206 
L 147.914866 76.682075 
L 149.229736 88.802249 
L 150.544605 74.42627 
L 151.859475 81.767196 
L 153.174344 74.579206 
L 154.489214 81.843664 
L 155.804083 86.374391 
L 157.118953 82.073068 
L 158.433823 80.84958 
L 159.748692 81.920132 
L 161.063562 76.337969 
L 162.378431 74.732142 
L 165.00817 89.012536 
L 166.32304 74.885078 
L 167.63791 74.80861 
L 168.952779 82.073068 
L 170.267649 74.732142 
L 171.582518 74.655674 
L 172.897388 88.955185 
L 174.212257 74.732142 
L 175.527127 82.073068 
L 176.841997 82.149535 
L 178.156866 88.075803 
L 179.471736 103.923791 
L 180.786605 81.977483 
L 182.101475 82.226003 
L 184.731214 82.302471 
L 186.046084 89.643397 
L 187.360953 82.302471 
L 188.675823 80.352538 
L 189.990692 87.005252 
L 191.305562 82.073068 
L 192.620431 82.302471 
L 193.935301 96.984322 
L 195.250171 81.078984 
L 196.56504 81.078984 
L 197.87991 82.302471 
L 199.194779 74.961546 
L 200.509649 79.052583 
L 201.824519 74.349802 
L 203.139388 74.349802 
L 204.454258 85.819998 
L 205.769127 73.738058 
L 208.398866 88.419909 
L 209.713736 80.926048 
L 211.028606 72.514571 
L 212.343475 72.514571 
L 213.658345 71.902827 
L 214.973214 78.937881 
L 216.288084 72.514571 
L 217.602953 78.402605 
L 218.917823 76.815894 
L 220.232693 71.291083 
L 221.547562 93.619732 
L 222.862432 70.679339 
L 224.177301 76.299735 
L 225.492171 70.067596 
L 226.80704 92.396244 
L 228.12191 85.972934 
L 229.43678 70.679339 
L 230.751649 84.672979 
L 232.066519 68.232364 
L 233.381388 72.418986 
L 234.696258 82.359822 
L 236.011127 76.643841 
L 237.325997 95.722601 
L 238.640867 78.402605 
L 239.955736 78.402605 
L 241.270606 79.243752 
L 242.585475 88.266973 
L 243.900345 89.605163 
L 245.215214 76.643841 
L 246.530084 67.62062 
L 247.844954 76.949713 
L 249.159823 70.067596 
L 250.474693 83.220087 
L 251.789562 67.62062 
L 253.104432 82.952449 
L 254.419302 59.648834 
L 255.734171 67.735322 
L 257.049041 73.566005 
L 258.36391 59.03709 
L 259.67878 65.536868 
L 260.993649 68.366183 
L 262.308519 67.754439 
L 263.623389 67.888258 
L 264.938258 67.142696 
L 266.253128 55.997488 
L 267.567997 63.950158 
L 268.882867 65.900091 
L 270.197736 62.956074 
L 271.512606 78.249669 
L 272.827476 87.808166 
L 274.142345 55.997488 
L 275.457215 61.617884 
L 276.772084 60.585567 
L 278.086954 55.385745 
L 279.401823 61.159077 
L 280.716693 55.997488 
L 282.031563 64.906007 
L 283.346432 77.618808 
L 284.661302 63.338414 
L 285.976171 70.54552 
L 287.291041 55.385745 
L 288.60591 63.338414 
L 289.92078 55.997488 
L 291.23565 62.841372 
L 292.550519 72.438103 
L 293.865389 57.870954 
L 295.180258 71.616072 
L 296.495128 57.718018 
L 297.809997 79.32022 
L 299.124867 66.645654 
L 300.439737 66.645654 
L 301.754606 63.835456 
L 303.069476 72.591039 
L 304.384345 58.367996 
L 305.699215 57.373912 
L 307.014085 56.991572 
L 308.328954 55.997488 
L 309.643824 55.997488 
L 310.958693 64.561901 
L 312.273563 63.950158 
L 313.588432 63.950158 
L 314.903302 70.774924 
L 316.218172 55.997488 
L 317.533041 56.934221 
L 318.847911 72.763092 
L 320.16278 70.755807 
L 321.47765 80.792229 
L 322.792519 62.210511 
L 324.107389 70.507286 
L 325.422259 55.385745 
L 326.737128 63.185478 
L 328.051998 55.385745 
L 328.051998 55.385745 
" clip-path="url(#pb7b359b181)" style="fill: none; stroke: #2d1e3e; stroke-width: 1.5; stroke-linecap: round"/>
   </g>
   <g id="line2d_16"/>
   <g id="line2d_17"/>
   <g id="line2d_18"/>
   <g id="line2d_19"/>
   <g id="line2d_20"/>
   <g id="patch_3">
    <path d="M 53.31 319.138125 
L 53.31 22.318125 
" style="fill: none; stroke: #ffffff; stroke-width: 1.25; stroke-linejoin: miter; stroke-linecap: square"/>
   </g>
   <g id="patch_4">
    <path d="M 53.31 319.138125 
L 341.13495 319.138125 
" style="fill: none; stroke: #ffffff; stroke-width: 1.25; stroke-linejoin: miter; stroke-linecap: square"/>
   </g>
   <g id="text_13">
    <!-- Vector x Fine-Grain For Two Cycle -->
    <g style="fill: #262626" transform="translate(97.172475 16.318125)scale(0.12 -0.12)">
     <defs>
      <path id="DejaVuSans-56" d="M 1831 0 
L 50 4666 
L 709 4666 
L 2188 738 
L 3669 4666 
L 4325 4666 
L 2547 0 
L 1831 0 
z
" transform="scale(0.015625)"/>
      <path id="DejaVuSans-63" d="M 3122 3366 
L 3122 2828 
Q 2878 2963 2633 3030 
Q 2388 3097 2138 3097 
Q 1578 3097 1268 2742 
Q 959 2388 959 1747 
Q 959 1106 1268 751 
Q 1578 397 2138 397 
Q 2388 397 2633 464 
Q 2878 531 3122 666 
L 3122 134 
Q 2881 22 2623 -34 
Q 2366 -91 2075 -91 
Q 1284 -91 818 406 
Q 353 903 353 1747 
Q 353 2603 823 3093 
Q 1294 3584 2113 3584 
Q 2378 3584 2631 3529 
Q 2884 3475 3122 3366 
z
" transform="scale(0.015625)"/>
      <path id="DejaVuSans-20" transform="scale(0.015625)"/>
      <path id="DejaVuSans-78" d="M 3513 3500 
L 2247 1797 
L 3578 0 
L 2900 0 
L 1881 1375 
L 863 0 
L 184 0 
L 1544 1831 
L 300 3500 
L 978 3500 
L 1906 2253 
L 2834 3500 
L 3513 3500 
z
" transform="scale(0.015625)"/>
      <path id="DejaVuSans-2d" d="M 313 2009 
L 1997 2009 
L 1997 1497 
L 313 1497 
L 313 2009 
z
" transform="scale(0.015625)"/>
      <path id="DejaVuSans-54" d="M -19 4666 
L 3928 4666 
L 3928 4134 
L 2272 4134 
L 2272 0 
L 1638 0 
L 1638 4134 
L -19 4134 
L -19 4666 
z
" transform="scale(0.015625)"/>
      <path id="DejaVuSans-77" d="M 269 3500 
L 844 3500 
L 1563 769 
L 2278 3500 
L 2956 3500 
L 3675 769 
L 4391 3500 
L 4966 3500 
L 4050 0 
L 3372 0 
L 2619 2869 
L 1863 0 
L 1184 0 
L 269 3500 
z
" transform="scale(0.015625)"/>
      <path id="DejaVuSans-43" d="M 4122 4306 
L 4122 3641 
Q 3803 3938 3442 4084 
Q 3081 4231 2675 4231 
Q 1875 4231 1450 3742 
Q 1025 3253 1025 2328 
Q 1025 1406 1450 917 
Q 1875 428 2675 428 
Q 3081 428 3442 575 
Q 3803 722 4122 1019 
L 4122 359 
Q 3791 134 3420 21 
Q 3050 -91 2638 -91 
Q 1578 -91 968 557 
Q 359 1206 359 2328 
Q 359 3453 968 4101 
Q 1578 4750 2638 4750 
Q 3056 4750 3426 4639 
Q 3797 4528 4122 4306 
z
" transform="scale(0.015625)"/>
      <path id="DejaVuSans-79" d="M 2059 -325 
Q 1816 -950 1584 -1140 
Q 1353 -1331 966 -1331 
L 506 -1331 
L 506 -850 
L 844 -850 
Q 1081 -850 1212 -737 
Q 1344 -625 1503 -206 
L 1606 56 
L 191 3500 
L 800 3500 
L 1894 763 
L 2988 3500 
L 3597 3500 
L 2059 -325 
z
" transform="scale(0.015625)"/>
      <path id="DejaVuSans-6c" d="M 603 4863 
L 1178 4863 
L 1178 0 
L 603 0 
L 603 4863 
z
" transform="scale(0.015625)"/>
     </defs>
     <use xlink:href="#DejaVuSans-56"/>
     <use xlink:href="#DejaVuSans-65" x="60.658203"/>
     <use xlink:href="#DejaVuSans-63" x="122.181641"/>
     <use xlink:href="#DejaVuSans-74" x="177.162109"/>
     <use xlink:href="#DejaVuSans-6f" x="216.371094"/>
     <use xlink:href="#DejaVuSans-72" x="277.552734"/>
     <use xlink:href="#DejaVuSans-20" x="318.666016"/>
     <use xlink:href="#DejaVuSans-78" x="350.453125"/>
     <use xlink:href="#DejaVuSans-20" x="409.632812"/>
     <use xlink:href="#DejaVuSans-46" x="441.419922"/>
     <use xlink:href="#DejaVuSans-69" x="491.689453"/>
     <use xlink:href="#DejaVuSans-6e" x="519.472656"/>
     <use xlink:href="#DejaVuSans-65" x="582.851562"/>
     <use xlink:href="#DejaVuSans-2d" x="644.375"/>
     <use xlink:href="#DejaVuSans-47" x="684.083984"/>
     <use xlink:href="#DejaVuSans-72" x="761.574219"/>
     <use xlink:href="#DejaVuSans-61" x="802.6875"/>
     <use xlink:href="#DejaVuSans-69" x="863.966797"/>
     <use xlink:href="#DejaVuSans-6e" x="891.75"/>
     <use xlink:href="#DejaVuSans-20" x="955.128906"/>
     <use xlink:href="#DejaVuSans-46" x="986.916016"/>
     <use xlink:href="#DejaVuSans-6f" x="1040.810547"/>
     <use xlink:href="#DejaVuSans-72" x="1101.992188"/>
     <use xlink:href="#DejaVuSans-20" x="1143.105469"/>
     <use xlink:href="#DejaVuSans-54" x="1174.892578"/>
     <use xlink:href="#DejaVuSans-77" x="1219.476562"/>
     <use xlink:href="#DejaVuSans-6f" x="1301.263672"/>
     <use xlink:href="#DejaVuSans-20" x="1362.445312"/>
     <use xlink:href="#DejaVuSans-43" x="1394.232422"/>
     <use xlink:href="#DejaVuSans-79" x="1464.056641"/>
     <use xlink:href="#DejaVuSans-63" x="1523.236328"/>
     <use xlink:href="#DejaVuSans-6c" x="1578.216797"/>
     <use xlink:href="#DejaVuSans-65" x="1606"/>
    </g>
   </g>
  </g>
  <g id="legend_1">
   <g id="text_14">
    <!-- Trial -->
    <g style="fill: #262626" transform="translate(352.4649 143.995312)scale(0.12 -0.12)">
     <use xlink:href="#DejaVuSans-54"/>
     <use xlink:href="#DejaVuSans-72" x="46.333984"/>
     <use xlink:href="#DejaVuSans-69" x="87.447266"/>
     <use xlink:href="#DejaVuSans-61" x="115.230469"/>
     <use xlink:href="#DejaVuSans-6c" x="176.509766"/>
    </g>
   </g>
   <g id="line2d_21">
    <path d="M 345.8224 156.499219 
L 356.8224 156.499219 
L 367.8224 156.499219 
" style="fill: none; stroke: #edd1cb; stroke-width: 1.5; stroke-linecap: round"/>
   </g>
   <g id="text_15">
    <!-- 0 -->
    <g style="fill: #262626" transform="translate(376.6224 160.349219)scale(0.11 -0.11)">
     <use xlink:href="#DejaVuSans-30"/>
    </g>
   </g>
   <g id="line2d_22">
    <path d="M 345.8224 172.645156 
L 356.8224 172.645156 
L 367.8224 172.645156 
" style="fill: none; stroke: #d499a7; stroke-width: 1.5; stroke-linecap: round"/>
   </g>
   <g id="text_16">
    <!-- 1 -->
    <g style="fill: #262626" transform="translate(376.6224 176.495156)scale(0.11 -0.11)">
     <use xlink:href="#DejaVuSans-31"/>
    </g>
   </g>
   <g id="line2d_23">
    <path d="M 345.8224 188.791094 
L 356.8224 188.791094 
L 367.8224 188.791094 
" style="fill: none; stroke: #a9678f; stroke-width: 1.5; stroke-linecap: round"/>
   </g>
   <g id="text_17">
    <!-- 2 -->
    <g style="fill: #262626" transform="translate(376.6224 192.641094)scale(0.11 -0.11)">
     <use xlink:href="#DejaVuSans-32"/>
    </g>
   </g>
   <g id="line2d_24">
    <path d="M 345.8224 204.937031 
L 356.8224 204.937031 
L 367.8224 204.937031 
" style="fill: none; stroke: #6c3f70; stroke-width: 1.5; stroke-linecap: round"/>
   </g>
   <g id="text_18">
    <!-- 3 -->
    <g style="fill: #262626" transform="translate(376.6224 208.787031)scale(0.11 -0.11)">
     <use xlink:href="#DejaVuSans-33"/>
    </g>
   </g>
   <g id="line2d_25">
    <path d="M 345.8224 221.082969 
L 356.8224 221.082969 
L 367.8224 221.082969 
" style="fill: none; stroke: #2d1e3e; stroke-width: 1.5; stroke-linecap: round"/>
   </g>
   <g id="text_19">
    <!-- 4 -->
    <g style="fill: #262626" transform="translate(376.6224 224.932969)scale(0.11 -0.11)">
     <use xlink:href="#DejaVuSans-34"/>
    </g>
   </g>
  </g>
 </g>
 <defs>
  <clipPath id="pb7b359b181">
   <rect x="53.31" y="22.318125" width="287.82495" height="296.82"/>
  </clipPath>
 </defs>
</svg>
