<?xml version="1.0" encoding="utf-8" standalone="no"?>
<!DOCTYPE svg PUBLIC "-//W3C//DTD SVG 1.1//EN"
  "http://www.w3.org/Graphics/SVG/1.1/DTD/svg11.dtd">
<svg xmlns:xlink="http://www.w3.org/1999/xlink" width="864pt" height="360pt" viewBox="0 0 864 360" xmlns="http://www.w3.org/2000/svg" version="1.1">
 <metadata>
  <rdf:RDF xmlns:dc="http://purl.org/dc/elements/1.1/" xmlns:cc="http://creativecommons.org/ns#" xmlns:rdf="http://www.w3.org/1999/02/22-rdf-syntax-ns#">
   <cc:Work>
    <dc:type rdf:resource="http://purl.org/dc/dcmitype/StillImage"/>
    <dc:date>2022-11-20T08:53:32.643936</dc:date>
    <dc:format>image/svg+xml</dc:format>
    <dc:creator>
     <cc:Agent>
      <dc:title>Matplotlib v3.5.2, https://matplotlib.org/</dc:title>
     </cc:Agent>
    </dc:creator>
   </cc:Work>
  </rdf:RDF>
 </metadata>
 <defs>
  <style type="text/css">*{stroke-linejoin: round; stroke-linecap: butt}</style>
 </defs>
 <g id="figure_1">
  <g id="patch_1">
   <path d="M 0 360 
L 864 360 
L 864 0 
L 0 0 
z
" style="fill: #ffffff"/>
  </g>
  <g id="axes_1">
   <g id="patch_2">
    <path d="M 60.3 309.78 
L 337.45 309.78 
L 337.45 55.68 
L 60.3 55.68 
z
" style="fill: #eaeaf2"/>
   </g>
   <g id="matplotlib.axis_1">
    <g id="xtick_1">
     <g id="line2d_1">
      <path d="M 72.897727 309.78 
L 72.897727 55.68 
" clip-path="url(#pfdacb828fa)" style="fill: none; stroke: #ffffff; stroke-linecap: round"/>
     </g>
     <g id="text_1">
      <!-- 0 -->
      <g style="fill: #262626" transform="translate(69.398352 327.638281)scale(0.11 -0.11)">
       <defs>
        <path id="DejaVuSans-30" d="M 2034 4250 
Q 1547 4250 1301 3770 
Q 1056 3291 1056 2328 
Q 1056 1369 1301 889 
Q 1547 409 2034 409 
Q 2525 409 2770 889 
Q 3016 1369 3016 2328 
Q 3016 3291 2770 3770 
Q 2525 4250 2034 4250 
z
M 2034 4750 
Q 2819 4750 3233 4129 
Q 3647 3509 3647 2328 
Q 3647 1150 3233 529 
Q 2819 -91 2034 -91 
Q 1250 -91 836 529 
Q 422 1150 422 2328 
Q 422 3509 836 4129 
Q 1250 4750 2034 4750 
z
" transform="scale(0.015625)"/>
       </defs>
       <use xlink:href="#DejaVuSans-30"/>
      </g>
     </g>
    </g>
    <g id="xtick_2">
     <g id="line2d_2">
      <path d="M 136.202889 309.78 
L 136.202889 55.68 
" clip-path="url(#pfdacb828fa)" style="fill: none; stroke: #ffffff; stroke-linecap: round"/>
     </g>
     <g id="text_2">
      <!-- 50 -->
      <g style="fill: #262626" transform="translate(129.204139 327.638281)scale(0.11 -0.11)">
       <defs>
        <path id="DejaVuSans-35" d="M 691 4666 
L 3169 4666 
L 3169 4134 
L 1269 4134 
L 1269 2991 
Q 1406 3038 1543 3061 
Q 1681 3084 1819 3084 
Q 2600 3084 3056 2656 
Q 3513 2228 3513 1497 
Q 3513 744 3044 326 
Q 2575 -91 1722 -91 
Q 1428 -91 1123 -41 
Q 819 9 494 109 
L 494 744 
Q 775 591 1075 516 
Q 1375 441 1709 441 
Q 2250 441 2565 725 
Q 2881 1009 2881 1497 
Q 2881 1984 2565 2268 
Q 2250 2553 1709 2553 
Q 1456 2553 1204 2497 
Q 953 2441 691 2322 
L 691 4666 
z
" transform="scale(0.015625)"/>
       </defs>
       <use xlink:href="#DejaVuSans-35"/>
       <use xlink:href="#DejaVuSans-30" x="63.623047"/>
      </g>
     </g>
    </g>
    <g id="xtick_3">
     <g id="line2d_3">
      <path d="M 199.508052 309.78 
L 199.508052 55.68 
" clip-path="url(#pfdacb828fa)" style="fill: none; stroke: #ffffff; stroke-linecap: round"/>
     </g>
     <g id="text_3">
      <!-- 100 -->
      <g style="fill: #262626" transform="translate(189.009927 327.638281)scale(0.11 -0.11)">
       <defs>
        <path id="DejaVuSans-31" d="M 794 531 
L 1825 531 
L 1825 4091 
L 703 3866 
L 703 4441 
L 1819 4666 
L 2450 4666 
L 2450 531 
L 3481 531 
L 3481 0 
L 794 0 
L 794 531 
z
" transform="scale(0.015625)"/>
       </defs>
       <use xlink:href="#DejaVuSans-31"/>
       <use xlink:href="#DejaVuSans-30" x="63.623047"/>
       <use xlink:href="#DejaVuSans-30" x="127.246094"/>
      </g>
     </g>
    </g>
    <g id="xtick_4">
     <g id="line2d_4">
      <path d="M 262.813214 309.78 
L 262.813214 55.68 
" clip-path="url(#pfdacb828fa)" style="fill: none; stroke: #ffffff; stroke-linecap: round"/>
     </g>
     <g id="text_4">
      <!-- 150 -->
      <g style="fill: #262626" transform="translate(252.315089 327.638281)scale(0.11 -0.11)">
       <use xlink:href="#DejaVuSans-31"/>
       <use xlink:href="#DejaVuSans-35" x="63.623047"/>
       <use xlink:href="#DejaVuSans-30" x="127.246094"/>
      </g>
     </g>
    </g>
    <g id="xtick_5">
     <g id="line2d_5">
      <path d="M 326.118376 309.78 
L 326.118376 55.68 
" clip-path="url(#pfdacb828fa)" style="fill: none; stroke: #ffffff; stroke-linecap: round"/>
     </g>
     <g id="text_5">
      <!-- 200 -->
      <g style="fill: #262626" transform="translate(315.620251 327.638281)scale(0.11 -0.11)">
       <defs>
        <path id="DejaVuSans-32" d="M 1228 531 
L 3431 531 
L 3431 0 
L 469 0 
L 469 531 
Q 828 903 1448 1529 
Q 2069 2156 2228 2338 
Q 2531 2678 2651 2914 
Q 2772 3150 2772 3378 
Q 2772 3750 2511 3984 
Q 2250 4219 1831 4219 
Q 1534 4219 1204 4116 
Q 875 4013 500 3803 
L 500 4441 
Q 881 4594 1212 4672 
Q 1544 4750 1819 4750 
Q 2544 4750 2975 4387 
Q 3406 4025 3406 3419 
Q 3406 3131 3298 2873 
Q 3191 2616 2906 2266 
Q 2828 2175 2409 1742 
Q 1991 1309 1228 531 
z
" transform="scale(0.015625)"/>
       </defs>
       <use xlink:href="#DejaVuSans-32"/>
       <use xlink:href="#DejaVuSans-30" x="63.623047"/>
       <use xlink:href="#DejaVuSans-30" x="127.246094"/>
      </g>
     </g>
    </g>
    <g id="text_6">
     <!-- Generation -->
     <g style="fill: #262626" transform="translate(165.403437 343.044062)scale(0.12 -0.12)">
      <defs>
       <path id="DejaVuSans-47" d="M 3809 666 
L 3809 1919 
L 2778 1919 
L 2778 2438 
L 4434 2438 
L 4434 434 
Q 4069 175 3628 42 
Q 3188 -91 2688 -91 
Q 1594 -91 976 548 
Q 359 1188 359 2328 
Q 359 3472 976 4111 
Q 1594 4750 2688 4750 
Q 3144 4750 3555 4637 
Q 3966 4525 4313 4306 
L 4313 3634 
Q 3963 3931 3569 4081 
Q 3175 4231 2741 4231 
Q 1884 4231 1454 3753 
Q 1025 3275 1025 2328 
Q 1025 1384 1454 906 
Q 1884 428 2741 428 
Q 3075 428 3337 486 
Q 3600 544 3809 666 
z
" transform="scale(0.015625)"/>
       <path id="DejaVuSans-65" d="M 3597 1894 
L 3597 1613 
L 953 1613 
Q 991 1019 1311 708 
Q 1631 397 2203 397 
Q 2534 397 2845 478 
Q 3156 559 3463 722 
L 3463 178 
Q 3153 47 2828 -22 
Q 2503 -91 2169 -91 
Q 1331 -91 842 396 
Q 353 884 353 1716 
Q 353 2575 817 3079 
Q 1281 3584 2069 3584 
Q 2775 3584 3186 3129 
Q 3597 2675 3597 1894 
z
M 3022 2063 
Q 3016 2534 2758 2815 
Q 2500 3097 2075 3097 
Q 1594 3097 1305 2825 
Q 1016 2553 972 2059 
L 3022 2063 
z
" transform="scale(0.015625)"/>
       <path id="DejaVuSans-6e" d="M 3513 2113 
L 3513 0 
L 2938 0 
L 2938 2094 
Q 2938 2591 2744 2837 
Q 2550 3084 2163 3084 
Q 1697 3084 1428 2787 
Q 1159 2491 1159 1978 
L 1159 0 
L 581 0 
L 581 3500 
L 1159 3500 
L 1159 2956 
Q 1366 3272 1645 3428 
Q 1925 3584 2291 3584 
Q 2894 3584 3203 3211 
Q 3513 2838 3513 2113 
z
" transform="scale(0.015625)"/>
       <path id="DejaVuSans-72" d="M 2631 2963 
Q 2534 3019 2420 3045 
Q 2306 3072 2169 3072 
Q 1681 3072 1420 2755 
Q 1159 2438 1159 1844 
L 1159 0 
L 581 0 
L 581 3500 
L 1159 3500 
L 1159 2956 
Q 1341 3275 1631 3429 
Q 1922 3584 2338 3584 
Q 2397 3584 2469 3576 
Q 2541 3569 2628 3553 
L 2631 2963 
z
" transform="scale(0.015625)"/>
       <path id="DejaVuSans-61" d="M 2194 1759 
Q 1497 1759 1228 1600 
Q 959 1441 959 1056 
Q 959 750 1161 570 
Q 1363 391 1709 391 
Q 2188 391 2477 730 
Q 2766 1069 2766 1631 
L 2766 1759 
L 2194 1759 
z
M 3341 1997 
L 3341 0 
L 2766 0 
L 2766 531 
Q 2569 213 2275 61 
Q 1981 -91 1556 -91 
Q 1019 -91 701 211 
Q 384 513 384 1019 
Q 384 1609 779 1909 
Q 1175 2209 1959 2209 
L 2766 2209 
L 2766 2266 
Q 2766 2663 2505 2880 
Q 2244 3097 1772 3097 
Q 1472 3097 1187 3025 
Q 903 2953 641 2809 
L 641 3341 
Q 956 3463 1253 3523 
Q 1550 3584 1831 3584 
Q 2591 3584 2966 3190 
Q 3341 2797 3341 1997 
z
" transform="scale(0.015625)"/>
       <path id="DejaVuSans-74" d="M 1172 4494 
L 1172 3500 
L 2356 3500 
L 2356 3053 
L 1172 3053 
L 1172 1153 
Q 1172 725 1289 603 
Q 1406 481 1766 481 
L 2356 481 
L 2356 0 
L 1766 0 
Q 1100 0 847 248 
Q 594 497 594 1153 
L 594 3053 
L 172 3053 
L 172 3500 
L 594 3500 
L 594 4494 
L 1172 4494 
z
" transform="scale(0.015625)"/>
       <path id="DejaVuSans-69" d="M 603 3500 
L 1178 3500 
L 1178 0 
L 603 0 
L 603 3500 
z
M 603 4863 
L 1178 4863 
L 1178 4134 
L 603 4134 
L 603 4863 
z
" transform="scale(0.015625)"/>
       <path id="DejaVuSans-6f" d="M 1959 3097 
Q 1497 3097 1228 2736 
Q 959 2375 959 1747 
Q 959 1119 1226 758 
Q 1494 397 1959 397 
Q 2419 397 2687 759 
Q 2956 1122 2956 1747 
Q 2956 2369 2687 2733 
Q 2419 3097 1959 3097 
z
M 1959 3584 
Q 2709 3584 3137 3096 
Q 3566 2609 3566 1747 
Q 3566 888 3137 398 
Q 2709 -91 1959 -91 
Q 1206 -91 779 398 
Q 353 888 353 1747 
Q 353 2609 779 3096 
Q 1206 3584 1959 3584 
z
" transform="scale(0.015625)"/>
      </defs>
      <use xlink:href="#DejaVuSans-47"/>
      <use xlink:href="#DejaVuSans-65" x="77.490234"/>
      <use xlink:href="#DejaVuSans-6e" x="139.013672"/>
      <use xlink:href="#DejaVuSans-65" x="202.392578"/>
      <use xlink:href="#DejaVuSans-72" x="263.916016"/>
      <use xlink:href="#DejaVuSans-61" x="305.029297"/>
      <use xlink:href="#DejaVuSans-74" x="366.308594"/>
      <use xlink:href="#DejaVuSans-69" x="405.517578"/>
      <use xlink:href="#DejaVuSans-6f" x="433.300781"/>
      <use xlink:href="#DejaVuSans-6e" x="494.482422"/>
     </g>
    </g>
   </g>
   <g id="matplotlib.axis_2">
    <g id="ytick_1">
     <g id="line2d_6">
      <path d="M 60.3 298.23 
L 337.45 298.23 
" clip-path="url(#pfdacb828fa)" style="fill: none; stroke: #ffffff; stroke-linecap: round"/>
     </g>
     <g id="text_7">
      <!-- 0 -->
      <g style="fill: #262626" transform="translate(43.80125 302.409141)scale(0.11 -0.11)">
       <use xlink:href="#DejaVuSans-30"/>
      </g>
     </g>
    </g>
    <g id="ytick_2">
     <g id="line2d_7">
      <path d="M 60.3 262.13625 
L 337.45 262.13625 
" clip-path="url(#pfdacb828fa)" style="fill: none; stroke: #ffffff; stroke-linecap: round"/>
     </g>
     <g id="text_8">
      <!-- 50 -->
      <g style="fill: #262626" transform="translate(36.8025 266.315391)scale(0.11 -0.11)">
       <use xlink:href="#DejaVuSans-35"/>
       <use xlink:href="#DejaVuSans-30" x="63.623047"/>
      </g>
     </g>
    </g>
    <g id="ytick_3">
     <g id="line2d_8">
      <path d="M 60.3 226.0425 
L 337.45 226.0425 
" clip-path="url(#pfdacb828fa)" style="fill: none; stroke: #ffffff; stroke-linecap: round"/>
     </g>
     <g id="text_9">
      <!-- 100 -->
      <g style="fill: #262626" transform="translate(29.80375 230.221641)scale(0.11 -0.11)">
       <use xlink:href="#DejaVuSans-31"/>
       <use xlink:href="#DejaVuSans-30" x="63.623047"/>
       <use xlink:href="#DejaVuSans-30" x="127.246094"/>
      </g>
     </g>
    </g>
    <g id="ytick_4">
     <g id="line2d_9">
      <path d="M 60.3 189.94875 
L 337.45 189.94875 
" clip-path="url(#pfdacb828fa)" style="fill: none; stroke: #ffffff; stroke-linecap: round"/>
     </g>
     <g id="text_10">
      <!-- 150 -->
      <g style="fill: #262626" transform="translate(29.80375 194.127891)scale(0.11 -0.11)">
       <use xlink:href="#DejaVuSans-31"/>
       <use xlink:href="#DejaVuSans-35" x="63.623047"/>
       <use xlink:href="#DejaVuSans-30" x="127.246094"/>
      </g>
     </g>
    </g>
    <g id="ytick_5">
     <g id="line2d_10">
      <path d="M 60.3 153.855 
L 337.45 153.855 
" clip-path="url(#pfdacb828fa)" style="fill: none; stroke: #ffffff; stroke-linecap: round"/>
     </g>
     <g id="text_11">
      <!-- 200 -->
      <g style="fill: #262626" transform="translate(29.80375 158.034141)scale(0.11 -0.11)">
       <use xlink:href="#DejaVuSans-32"/>
       <use xlink:href="#DejaVuSans-30" x="63.623047"/>
       <use xlink:href="#DejaVuSans-30" x="127.246094"/>
      </g>
     </g>
    </g>
    <g id="ytick_6">
     <g id="line2d_11">
      <path d="M 60.3 117.76125 
L 337.45 117.76125 
" clip-path="url(#pfdacb828fa)" style="fill: none; stroke: #ffffff; stroke-linecap: round"/>
     </g>
     <g id="text_12">
      <!-- 250 -->
      <g style="fill: #262626" transform="translate(29.80375 121.940391)scale(0.11 -0.11)">
       <use xlink:href="#DejaVuSans-32"/>
       <use xlink:href="#DejaVuSans-35" x="63.623047"/>
       <use xlink:href="#DejaVuSans-30" x="127.246094"/>
      </g>
     </g>
    </g>
    <g id="ytick_7">
     <g id="line2d_12">
      <path d="M 60.3 81.6675 
L 337.45 81.6675 
" clip-path="url(#pfdacb828fa)" style="fill: none; stroke: #ffffff; stroke-linecap: round"/>
     </g>
     <g id="text_13">
      <!-- 300 -->
      <g style="fill: #262626" transform="translate(29.80375 85.846641)scale(0.11 -0.11)">
       <defs>
        <path id="DejaVuSans-33" d="M 2597 2516 
Q 3050 2419 3304 2112 
Q 3559 1806 3559 1356 
Q 3559 666 3084 287 
Q 2609 -91 1734 -91 
Q 1441 -91 1130 -33 
Q 819 25 488 141 
L 488 750 
Q 750 597 1062 519 
Q 1375 441 1716 441 
Q 2309 441 2620 675 
Q 2931 909 2931 1356 
Q 2931 1769 2642 2001 
Q 2353 2234 1838 2234 
L 1294 2234 
L 1294 2753 
L 1863 2753 
Q 2328 2753 2575 2939 
Q 2822 3125 2822 3475 
Q 2822 3834 2567 4026 
Q 2313 4219 1838 4219 
Q 1578 4219 1281 4162 
Q 984 4106 628 3988 
L 628 4550 
Q 988 4650 1302 4700 
Q 1616 4750 1894 4750 
Q 2613 4750 3031 4423 
Q 3450 4097 3450 3541 
Q 3450 3153 3228 2886 
Q 3006 2619 2597 2516 
z
" transform="scale(0.015625)"/>
       </defs>
       <use xlink:href="#DejaVuSans-33"/>
       <use xlink:href="#DejaVuSans-30" x="63.623047"/>
       <use xlink:href="#DejaVuSans-30" x="127.246094"/>
      </g>
     </g>
    </g>
    <g id="text_14">
     <!-- Fitness -->
     <g style="fill: #262626" transform="translate(23.308125 203.510625)rotate(-90)scale(0.12 -0.12)">
      <defs>
       <path id="DejaVuSans-46" d="M 628 4666 
L 3309 4666 
L 3309 4134 
L 1259 4134 
L 1259 2759 
L 3109 2759 
L 3109 2228 
L 1259 2228 
L 1259 0 
L 628 0 
L 628 4666 
z
" transform="scale(0.015625)"/>
       <path id="DejaVuSans-73" d="M 2834 3397 
L 2834 2853 
Q 2591 2978 2328 3040 
Q 2066 3103 1784 3103 
Q 1356 3103 1142 2972 
Q 928 2841 928 2578 
Q 928 2378 1081 2264 
Q 1234 2150 1697 2047 
L 1894 2003 
Q 2506 1872 2764 1633 
Q 3022 1394 3022 966 
Q 3022 478 2636 193 
Q 2250 -91 1575 -91 
Q 1294 -91 989 -36 
Q 684 19 347 128 
L 347 722 
Q 666 556 975 473 
Q 1284 391 1588 391 
Q 1994 391 2212 530 
Q 2431 669 2431 922 
Q 2431 1156 2273 1281 
Q 2116 1406 1581 1522 
L 1381 1569 
Q 847 1681 609 1914 
Q 372 2147 372 2553 
Q 372 3047 722 3315 
Q 1072 3584 1716 3584 
Q 2034 3584 2315 3537 
Q 2597 3491 2834 3397 
z
" transform="scale(0.015625)"/>
      </defs>
      <use xlink:href="#DejaVuSans-46"/>
      <use xlink:href="#DejaVuSans-69" x="50.269531"/>
      <use xlink:href="#DejaVuSans-74" x="78.052734"/>
      <use xlink:href="#DejaVuSans-6e" x="117.261719"/>
      <use xlink:href="#DejaVuSans-65" x="180.640625"/>
      <use xlink:href="#DejaVuSans-73" x="242.164062"/>
      <use xlink:href="#DejaVuSans-73" x="294.263672"/>
     </g>
    </g>
   </g>
   <g id="PolyCollection_1">
    <defs>
     <path id="m2fe1d203c2" d="M 72.897727 -76.387969 
L 72.897727 -61.77 
L 74.163831 -72.417656 
L 75.429934 -71.87625 
L 76.696037 -72.417656 
L 77.96214 -73.32 
L 79.228243 -74.041875 
L 80.494347 -74.041875 
L 81.76045 -74.041875 
L 83.026553 -74.041875 
L 84.292656 -75.485625 
L 85.55876 -74.76375 
L 86.824863 -75.485625 
L 88.090966 -75.305156 
L 89.357069 -74.76375 
L 90.623173 -76.027031 
L 91.889276 -74.041875 
L 93.155379 -77.65125 
L 94.421482 -76.929375 
L 95.687586 -75.485625 
L 96.953689 -77.65125 
L 98.219792 -75.485625 
L 99.485895 -76.2075 
L 100.751999 -76.027031 
L 102.018102 -78.192656 
L 103.284205 -76.748906 
L 104.550308 -77.470781 
L 105.816412 -78.373125 
L 107.082515 -77.470781 
L 108.348618 -76.748906 
L 109.614721 -76.2075 
L 110.880825 -76.2075 
L 112.146928 -77.470781 
L 113.413031 -76.929375 
L 114.679134 -78.192656 
L 115.945238 -77.65125 
L 117.211341 -78.192656 
L 118.477444 -78.373125 
L 119.743547 -77.65125 
L 121.009651 -78.373125 
L 122.275754 -77.65125 
L 123.541857 -79.636406 
L 124.80796 -77.470781 
L 126.074063 -78.734062 
L 127.340167 -76.929375 
L 128.60627 -76.2075 
L 129.872373 -77.65125 
L 131.138476 -76.748906 
L 132.40458 -76.748906 
L 133.670683 -77.65125 
L 134.936786 -76.2075 
L 136.202889 -76.748906 
L 137.468993 -76.929375 
L 138.735096 -78.914531 
L 140.001199 -78.373125 
L 141.267302 -80.53875 
L 142.533406 -76.2075 
L 143.799509 -76.2075 
L 145.065612 -77.65125 
L 146.331715 -78.914531 
L 147.597819 -76.748906 
L 148.863922 -76.748906 
L 150.130025 -76.748906 
L 151.396128 -77.65125 
L 152.662232 -76.748906 
L 153.928335 -77.65125 
L 155.194438 -76.929375 
L 156.460541 -78.373125 
L 157.726645 -76.929375 
L 158.992748 -76.929375 
L 160.258851 -77.65125 
L 161.524954 -77.65125 
L 162.791058 -76.929375 
L 164.057161 -75.485625 
L 165.323264 -75.485625 
L 166.589367 -79.095 
L 167.855471 -76.748906 
L 169.121574 -78.914531 
L 170.387677 -79.816875 
L 171.65378 -78.192656 
L 172.919884 -79.095 
L 174.185987 -79.816875 
L 175.45209 -80.358281 
L 176.718193 -80.358281 
L 177.984296 -79.636406 
L 179.2504 -78.373125 
L 180.516503 -78.373125 
L 181.782606 -78.373125 
L 183.048709 -80.177812 
L 184.314813 -80.53875 
L 185.580916 -79.636406 
L 186.847019 -78.192656 
L 188.113122 -79.095 
L 189.379226 -76.929375 
L 190.645329 -78.192656 
L 191.911432 -80.358281 
L 193.177535 -77.470781 
L 194.443639 -77.65125 
L 195.709742 -77.65125 
L 196.975845 -78.192656 
L 198.241948 -76.929375 
L 199.508052 -78.373125 
L 200.774155 -81.080156 
L 202.040258 -76.2075 
L 203.306361 -77.65125 
L 204.572465 -78.914531 
L 205.838568 -76.929375 
L 207.104671 -78.192656 
L 208.370774 -78.373125 
L 209.636878 -77.65125 
L 210.902981 -76.2075 
L 212.169084 -76.929375 
L 213.435187 -76.929375 
L 214.701291 -76.748906 
L 215.967394 -76.929375 
L 217.233497 -76.929375 
L 218.4996 -76.2075 
L 219.765704 -76.929375 
L 221.031807 -76.2075 
L 222.29791 -74.76375 
L 223.564013 -78.192656 
L 224.830116 -80.53875 
L 226.09622 -76.2075 
L 227.362323 -76.929375 
L 228.628426 -76.2075 
L 229.894529 -76.929375 
L 231.160633 -76.929375 
L 232.426736 -76.929375 
L 233.692839 -78.373125 
L 234.958942 -78.373125 
L 236.225046 -77.65125 
L 237.491149 -75.305156 
L 238.757252 -80.53875 
L 240.023355 -78.914531 
L 241.289459 -83.42625 
L 242.555562 -79.636406 
L 243.821665 -79.636406 
L 245.087768 -78.914531 
L 246.353872 -78.373125 
L 247.619975 -80.53875 
L 248.886078 -80.358281 
L 250.152181 -79.455937 
L 251.418285 -79.636406 
L 252.684388 -79.095 
L 253.950491 -78.373125 
L 255.216594 -78.373125 
L 256.482698 -77.65125 
L 257.748801 -77.470781 
L 259.014904 -78.914531 
L 260.281007 -81.9825 
L 261.547111 -79.095 
L 262.813214 -77.65125 
L 264.079317 -77.65125 
L 265.34542 -77.65125 
L 266.611524 -79.095 
L 267.877627 -78.373125 
L 269.14373 -79.816875 
L 270.409833 -76.929375 
L 271.675937 -77.65125 
L 272.94204 -76.748906 
L 274.208143 -76.929375 
L 275.474246 -78.192656 
L 276.740349 -76.929375 
L 278.006453 -77.470781 
L 279.272556 -78.373125 
L 280.538659 -77.65125 
L 281.804762 -78.373125 
L 283.070866 -76.929375 
L 284.336969 -78.192656 
L 285.603072 -78.373125 
L 286.869175 -78.373125 
L 288.135279 -76.2075 
L 289.401382 -78.373125 
L 290.667485 -76.2075 
L 291.933588 -76.929375 
L 293.199692 -76.2075 
L 294.465795 -79.095 
L 295.731898 -76.929375 
L 296.998001 -76.2075 
L 298.264105 -76.748906 
L 299.530208 -77.65125 
L 300.796311 -76.929375 
L 302.062414 -77.470781 
L 303.328518 -75.485625 
L 304.594621 -77.65125 
L 305.860724 -76.027031 
L 307.126827 -76.929375 
L 308.392931 -76.2075 
L 309.659034 -76.929375 
L 310.925137 -77.65125 
L 312.19124 -77.470781 
L 313.457344 -76.027031 
L 314.723447 -76.2075 
L 315.98955 -76.929375 
L 317.255653 -75.305156 
L 318.521757 -75.305156 
L 319.78786 -75.485625 
L 321.053963 -76.929375 
L 322.320066 -76.748906 
L 323.586169 -76.2075 
L 324.852273 -76.2075 
L 324.852273 -100.931719 
L 324.852273 -100.931719 
L 323.586169 -98.585625 
L 322.320066 -97.322344 
L 321.053963 -103.63875 
L 319.78786 -99.3075 
L 318.521757 -100.029375 
L 317.255653 -98.766094 
L 315.98955 -100.75125 
L 314.723447 -98.044219 
L 313.457344 -100.209844 
L 312.19124 -100.75125 
L 310.925137 -101.473125 
L 309.659034 -99.487969 
L 308.392931 -99.3075 
L 307.126827 -97.86375 
L 305.860724 -99.3075 
L 304.594621 -98.585625 
L 303.328518 -102.916875 
L 302.062414 -102.916875 
L 300.796311 -99.3075 
L 299.530208 -100.390312 
L 298.264105 -101.112188 
L 296.998001 -101.473125 
L 295.731898 -102.375469 
L 294.465795 -105.262969 
L 293.199692 -102.375469 
L 291.933588 -102.916875 
L 290.667485 -103.097344 
L 289.401382 -102.916875 
L 288.135279 -107.428594 
L 286.869175 -102.555937 
L 285.603072 -105.443438 
L 284.336969 -108.691875 
L 283.070866 -105.443438 
L 281.804762 -105.262969 
L 280.538659 -105.0825 
L 279.272556 -103.277813 
L 278.006453 -107.97 
L 276.740349 -102.195 
L 275.474246 -105.262969 
L 274.208143 -100.029375 
L 272.94204 -101.473125 
L 271.675937 -102.375469 
L 270.409833 -105.0825 
L 269.14373 -105.804375 
L 267.877627 -106.52625 
L 266.611524 -105.804375 
L 265.34542 -108.691875 
L 264.079317 -107.789531 
L 262.813214 -108.691875 
L 261.547111 -113.023125 
L 260.281007 -110.316094 
L 259.014904 -112.481719 
L 257.748801 -116.993437 
L 256.482698 -118.798125 
L 255.216594 -107.609063 
L 253.950491 -105.262969 
L 252.684388 -109.955156 
L 251.418285 -116.6325 
L 250.152181 -112.662188 
L 248.886078 -110.8575 
L 247.619975 -113.384062 
L 246.353872 -114.647344 
L 245.087768 -108.150469 
L 243.821665 -114.466875 
L 242.555562 -114.647344 
L 241.289459 -115.910625 
L 240.023355 -115.549688 
L 238.757252 -111.579375 
L 237.491149 -112.662188 
L 236.225046 -109.774687 
L 234.958942 -115.910625 
L 233.692839 -112.120781 
L 232.426736 -113.925469 
L 231.160633 -116.6325 
L 229.894529 -107.97 
L 228.628426 -103.819219 
L 227.362323 -113.384062 
L 226.09622 -114.647344 
L 224.830116 -108.150469 
L 223.564013 -111.037969 
L 222.29791 -107.428594 
L 221.031807 -100.209844 
L 219.765704 -104.541094 
L 218.4996 -112.120781 
L 217.233497 -106.706719 
L 215.967394 -111.218438 
L 214.701291 -104.360625 
L 213.435187 -103.277813 
L 212.169084 -105.262969 
L 210.902981 -105.262969 
L 209.636878 -107.248125 
L 208.370774 -103.819219 
L 207.104671 -105.262969 
L 205.838568 -103.63875 
L 204.572465 -106.52625 
L 203.306361 -98.585625 
L 202.040258 -98.766094 
L 200.774155 -104.541094 
L 199.508052 -104.541094 
L 198.241948 -100.029375 
L 196.975845 -100.209844 
L 195.709742 -102.195 
L 194.443639 -99.487969 
L 193.177535 -101.473125 
L 191.911432 -101.473125 
L 190.645329 -102.916875 
L 189.379226 -100.931719 
L 188.113122 -100.209844 
L 186.847019 -100.209844 
L 185.580916 -100.75125 
L 184.314813 -102.195 
L 183.048709 -101.473125 
L 181.782606 -101.653594 
L 180.516503 -100.75125 
L 179.2504 -103.819219 
L 177.984296 -102.916875 
L 176.718193 -103.63875 
L 175.45209 -101.653594 
L 174.185987 -100.029375 
L 172.919884 -100.029375 
L 171.65378 -99.668438 
L 170.387677 -102.195 
L 169.121574 -103.63875 
L 167.855471 -101.473125 
L 166.589367 -101.473125 
L 165.323264 -98.585625 
L 164.057161 -99.3075 
L 162.791058 -100.75125 
L 161.524954 -100.029375 
L 160.258851 -102.916875 
L 158.992748 -101.473125 
L 157.726645 -97.86375 
L 156.460541 -100.029375 
L 155.194438 -100.029375 
L 153.928335 -99.487969 
L 152.662232 -98.585625 
L 151.396128 -100.390312 
L 150.130025 -103.097344 
L 148.863922 -99.3075 
L 147.597819 -100.029375 
L 146.331715 -100.931719 
L 145.065612 -102.195 
L 143.799509 -98.585625 
L 142.533406 -99.3075 
L 141.267302 -99.3075 
L 140.001199 -100.029375 
L 138.735096 -100.75125 
L 137.468993 -100.029375 
L 136.202889 -100.75125 
L 134.936786 -100.931719 
L 133.670683 -101.473125 
L 132.40458 -100.029375 
L 131.138476 -99.3075 
L 129.872373 -100.029375 
L 128.60627 -96.600469 
L 127.340167 -100.209844 
L 126.074063 -100.029375 
L 124.80796 -98.585625 
L 123.541857 -100.029375 
L 122.275754 -100.029375 
L 121.009651 -98.585625 
L 119.743547 -99.3075 
L 118.477444 -99.3075 
L 117.211341 -98.766094 
L 115.945238 -100.029375 
L 114.679134 -99.3075 
L 113.413031 -99.3075 
L 112.146928 -100.029375 
L 110.880825 -98.585625 
L 109.614721 -97.322344 
L 108.348618 -97.86375 
L 107.082515 -97.86375 
L 105.816412 -97.322344 
L 104.550308 -97.86375 
L 103.284205 -97.86375 
L 102.018102 -97.86375 
L 100.751999 -95.698125 
L 99.485895 -95.878594 
L 98.219792 -96.42 
L 96.953689 -96.42 
L 95.687586 -97.141875 
L 94.421482 -95.878594 
L 93.155379 -98.044219 
L 91.889276 -97.86375 
L 90.623173 -95.156719 
L 89.357069 -93.5325 
L 88.090966 -94.97625 
L 86.824863 -95.878594 
L 85.55876 -94.97625 
L 84.292656 -92.08875 
L 83.026553 -90.645 
L 81.76045 -91.366875 
L 80.494347 -90.103594 
L 79.228243 -90.825469 
L 77.96214 -86.494219 
L 76.696037 -84.87 
L 75.429934 -81.9825 
L 74.163831 -81.441094 
L 72.897727 -76.387969 
z
" style="stroke: #4c72b0; stroke-opacity: 0.2"/>
    </defs>
    <g clip-path="url(#pfdacb828fa)">
     <use xlink:href="#m2fe1d203c2" x="0" y="360" style="fill: #4c72b0; fill-opacity: 0.2; stroke: #4c72b0; stroke-opacity: 0.2"/>
    </g>
   </g>
   <g id="PolyCollection_2">
    <defs>
     <path id="mbacd7b7f08" d="M 72.897727 -69.710625 
L 72.897727 -61.77 
L 74.163831 -70.4325 
L 75.429934 -74.76375 
L 76.696037 -77.470781 
L 77.96214 -76.027031 
L 79.228243 -80.53875 
L 80.494347 -81.080156 
L 81.76045 -80.358281 
L 83.026553 -80.358281 
L 84.292656 -79.095 
L 85.55876 -82.523906 
L 86.824863 -82.523906 
L 88.090966 -88.840312 
L 89.357069 -90.645 
L 90.623173 -92.08875 
L 91.889276 -93.893438 
L 93.155379 -94.073906 
L 94.421482 -94.254375 
L 95.687586 -92.08875 
L 96.953689 -93.352031 
L 98.219792 -93.5325 
L 99.485895 -93.5325 
L 100.751999 -93.171562 
L 102.018102 -94.073906 
L 103.284205 -94.073906 
L 104.550308 -93.171562 
L 105.816412 -93.5325 
L 107.082515 -96.239531 
L 108.348618 -96.42 
L 109.614721 -93.352031 
L 110.880825 -92.08875 
L 112.146928 -93.5325 
L 113.413031 -93.5325 
L 114.679134 -90.645 
L 115.945238 -90.645 
L 117.211341 -89.923125 
L 118.477444 -92.08875 
L 119.743547 -93.352031 
L 121.009651 -93.5325 
L 122.275754 -93.5325 
L 123.541857 -93.5325 
L 124.80796 -92.630156 
L 126.074063 -91.366875 
L 127.340167 -94.073906 
L 128.60627 -92.630156 
L 129.872373 -94.97625 
L 131.138476 -94.073906 
L 132.40458 -94.434844 
L 133.670683 -94.97625 
L 134.936786 -93.5325 
L 136.202889 -93.352031 
L 137.468993 -92.08875 
L 138.735096 -92.08875 
L 140.001199 -93.5325 
L 141.267302 -93.352031 
L 142.533406 -94.073906 
L 143.799509 -92.810625 
L 145.065612 -93.5325 
L 146.331715 -92.630156 
L 147.597819 -92.630156 
L 148.863922 -92.08875 
L 150.130025 -94.254375 
L 151.396128 -94.254375 
L 152.662232 -94.073906 
L 153.928335 -92.810625 
L 155.194438 -91.186406 
L 156.460541 -91.186406 
L 157.726645 -86.133281 
L 158.992748 -87.577031 
L 160.258851 -91.005938 
L 161.524954 -90.464531 
L 162.791058 -91.186406 
L 164.057161 -92.810625 
L 165.323264 -92.810625 
L 166.589367 -92.810625 
L 167.855471 -92.08875 
L 169.121574 -92.630156 
L 170.387677 -95.698125 
L 171.65378 -93.5325 
L 172.919884 -93.352031 
L 174.185987 -94.97625 
L 175.45209 -95.698125 
L 176.718193 -97.683281 
L 177.984296 -95.698125 
L 179.2504 -95.517656 
L 180.516503 -93.5325 
L 181.782606 -92.810625 
L 183.048709 -94.97625 
L 184.314813 -98.585625 
L 185.580916 -99.127031 
L 186.847019 -96.239531 
L 188.113122 -96.42 
L 189.379226 -100.029375 
L 190.645329 -97.141875 
L 191.911432 -96.42 
L 193.177535 -97.86375 
L 194.443639 -98.585625 
L 195.709742 -99.3075 
L 196.975845 -101.292656 
L 198.241948 -100.75125 
L 199.508052 -99.848906 
L 200.774155 -97.683281 
L 202.040258 -96.780937 
L 203.306361 -97.683281 
L 204.572465 -98.585625 
L 205.838568 -96.239531 
L 207.104671 -98.405156 
L 208.370774 -96.42 
L 209.636878 -101.834063 
L 210.902981 -103.63875 
L 212.169084 -105.804375 
L 213.435187 -105.804375 
L 214.701291 -103.63875 
L 215.967394 -103.63875 
L 217.233497 -100.75125 
L 218.4996 -102.195 
L 219.765704 -101.473125 
L 221.031807 -100.570781 
L 222.29791 -102.195 
L 223.564013 -100.029375 
L 224.830116 -101.292656 
L 226.09622 -101.473125 
L 227.362323 -102.916875 
L 228.628426 -97.141875 
L 229.894529 -99.3075 
L 231.160633 -99.127031 
L 232.426736 -97.86375 
L 233.692839 -99.848906 
L 234.958942 -98.585625 
L 236.225046 -97.141875 
L 237.491149 -102.736406 
L 238.757252 -103.458281 
L 240.023355 -102.014531 
L 241.289459 -100.75125 
L 242.555562 -102.014531 
L 243.821665 -96.961406 
L 245.087768 -100.570781 
L 246.353872 -100.75125 
L 247.619975 -98.585625 
L 248.886078 -97.86375 
L 250.152181 -101.292656 
L 251.418285 -101.473125 
L 252.684388 -102.195 
L 253.950491 -98.585625 
L 255.216594 -98.585625 
L 256.482698 -99.3075 
L 257.748801 -99.3075 
L 259.014904 -98.585625 
L 260.281007 -97.683281 
L 261.547111 -100.75125 
L 262.813214 -98.585625 
L 264.079317 -101.292656 
L 265.34542 -99.3075 
L 266.611524 -101.292656 
L 267.877627 -97.86375 
L 269.14373 -98.585625 
L 270.409833 -96.239531 
L 271.675937 -95.337187 
L 272.94204 -97.141875 
L 274.208143 -99.3075 
L 275.474246 -101.473125 
L 276.740349 -99.848906 
L 278.006453 -99.3075 
L 279.272556 -97.141875 
L 280.538659 -97.86375 
L 281.804762 -100.029375 
L 283.070866 -100.75125 
L 284.336969 -94.97625 
L 285.603072 -100.029375 
L 286.869175 -93.5325 
L 288.135279 -100.029375 
L 289.401382 -97.86375 
L 290.667485 -101.473125 
L 291.933588 -99.127031 
L 293.199692 -98.405156 
L 294.465795 -102.014531 
L 295.731898 -105.262969 
L 296.998001 -101.473125 
L 298.264105 -100.390312 
L 299.530208 -103.999688 
L 300.796311 -103.277813 
L 302.062414 -100.029375 
L 303.328518 -100.029375 
L 304.594621 -100.570781 
L 305.860724 -99.848906 
L 307.126827 -95.517656 
L 308.392931 -97.141875 
L 309.659034 -98.405156 
L 310.925137 -97.86375 
L 312.19124 -101.834063 
L 313.457344 -104.180156 
L 314.723447 -104.180156 
L 315.98955 -104.360625 
L 317.255653 -101.473125 
L 318.521757 -104.360625 
L 319.78786 -102.736406 
L 321.053963 -104.902031 
L 322.320066 -103.458281 
L 323.586169 -104.360625 
L 324.852273 -104.902031 
L 324.852273 -147.131719 
L 324.852273 -147.131719 
L 323.586169 -147.492656 
L 322.320066 -150.199688 
L 321.053963 -140.995781 
L 319.78786 -149.658281 
L 318.521757 -140.454375 
L 317.255653 -137.747344 
L 315.98955 -139.371563 
L 314.723447 -139.010625 
L 313.457344 -141.537188 
L 312.19124 -133.416094 
L 310.925137 -130.528594 
L 309.659034 -133.416094 
L 308.392931 -136.303594 
L 307.126827 -149.116875 
L 305.860724 -154.17 
L 304.594621 -154.17 
L 303.328518 -150.560625 
L 302.062414 -148.575469 
L 300.796311 -151.102031 
L 299.530208 -153.628594 
L 298.264105 -148.755938 
L 296.998001 -142.800469 
L 295.731898 -135.581719 
L 294.465795 -136.484063 
L 293.199692 -132.51375 
L 291.933588 -126.377813 
L 290.667485 -129.265313 
L 289.401382 -127.641094 
L 288.135279 -125.475469 
L 286.869175 -123.85125 
L 285.603072 -128.362969 
L 284.336969 -128.1825 
L 283.070866 -126.73875 
L 281.804762 -126.016875 
L 280.538659 -126.016875 
L 279.272556 -125.295 
L 278.006453 -125.295 
L 276.740349 -124.753594 
L 275.474246 -124.753594 
L 274.208143 -123.670781 
L 272.94204 -122.4075 
L 271.675937 -122.587969 
L 270.409833 -124.212188 
L 269.14373 -123.309844 
L 267.877627 -122.587969 
L 266.611524 -123.85125 
L 265.34542 -124.212188 
L 264.079317 -126.016875 
L 262.813214 -127.821563 
L 261.547111 -127.821563 
L 260.281007 -129.62625 
L 259.014904 -127.641094 
L 257.748801 -124.031719 
L 256.482698 -124.573125 
L 255.216594 -123.85125 
L 253.950491 -124.031719 
L 252.684388 -124.031719 
L 251.418285 -122.4075 
L 250.152181 -122.4075 
L 248.886078 -124.934063 
L 247.619975 -123.490313 
L 246.353872 -125.475469 
L 245.087768 -126.016875 
L 243.821665 -123.85125 
L 242.555562 -123.309844 
L 241.289459 -121.866094 
L 240.023355 -126.197344 
L 238.757252 -126.016875 
L 237.491149 -126.558281 
L 236.225046 -124.573125 
L 234.958942 -124.753594 
L 233.692839 -123.129375 
L 232.426736 -123.129375 
L 231.160633 -123.670781 
L 229.894529 -122.4075 
L 228.628426 -122.4075 
L 227.362323 -122.046563 
L 226.09622 -124.392656 
L 224.830116 -123.309844 
L 223.564013 -126.73875 
L 222.29791 -127.641094 
L 221.031807 -125.475469 
L 219.765704 -126.197344 
L 218.4996 -129.084844 
L 217.233497 -132.694219 
L 215.967394 -129.806719 
L 214.701291 -129.084844 
L 213.435187 -129.806719 
L 212.169084 -127.641094 
L 210.902981 -128.904375 
L 209.636878 -129.084844 
L 208.370774 -129.084844 
L 207.104671 -126.73875 
L 205.838568 -124.753594 
L 204.572465 -124.031719 
L 203.306361 -123.129375 
L 202.040258 -119.52 
L 200.774155 -119.52 
L 199.508052 -118.978594 
L 198.241948 -121.144219 
L 196.975845 -120.241875 
L 195.709742 -122.768438 
L 194.443639 -123.85125 
L 193.177535 -122.4075 
L 191.911432 -120.061406 
L 190.645329 -121.324688 
L 189.379226 -120.96375 
L 188.113122 -120.422344 
L 186.847019 -121.324688 
L 185.580916 -123.129375 
L 184.314813 -123.490313 
L 183.048709 -119.52 
L 181.782606 -118.978594 
L 180.516503 -118.978594 
L 179.2504 -118.978594 
L 177.984296 -120.061406 
L 176.718193 -121.685625 
L 175.45209 -118.978594 
L 174.185987 -120.061406 
L 172.919884 -116.452031 
L 171.65378 -114.466875 
L 170.387677 -112.30125 
L 169.121574 -112.842656 
L 167.855471 -112.30125 
L 166.589367 -112.30125 
L 165.323264 -112.30125 
L 164.057161 -112.30125 
L 162.791058 -112.30125 
L 161.524954 -112.30125 
L 160.258851 -112.30125 
L 158.992748 -112.30125 
L 157.726645 -112.30125 
L 156.460541 -112.30125 
L 155.194438 -112.30125 
L 153.928335 -112.30125 
L 152.662232 -112.30125 
L 151.396128 -112.30125 
L 150.130025 -112.30125 
L 148.863922 -112.30125 
L 147.597819 -113.023125 
L 146.331715 -112.30125 
L 145.065612 -115.18875 
L 143.799509 -115.18875 
L 142.533406 -115.18875 
L 141.267302 -115.549688 
L 140.001199 -114.647344 
L 138.735096 -114.466875 
L 137.468993 -113.925469 
L 136.202889 -113.925469 
L 134.936786 -115.18875 
L 133.670683 -116.812969 
L 132.40458 -117.354375 
L 131.138476 -116.812969 
L 129.872373 -122.4075 
L 128.60627 -120.241875 
L 127.340167 -113.564531 
L 126.074063 -112.842656 
L 124.80796 -112.30125 
L 123.541857 -112.30125 
L 122.275754 -112.30125 
L 121.009651 -112.30125 
L 119.743547 -112.30125 
L 118.477444 -112.842656 
L 117.211341 -112.30125 
L 115.945238 -112.30125 
L 114.679134 -112.30125 
L 113.413031 -112.30125 
L 112.146928 -112.30125 
L 110.880825 -112.30125 
L 109.614721 -112.30125 
L 108.348618 -112.30125 
L 107.082515 -115.18875 
L 105.816412 -114.647344 
L 104.550308 -114.466875 
L 103.284205 -114.466875 
L 102.018102 -114.647344 
L 100.751999 -112.30125 
L 99.485895 -112.30125 
L 98.219792 -112.30125 
L 96.953689 -112.30125 
L 95.687586 -112.30125 
L 94.421482 -112.30125 
L 93.155379 -112.30125 
L 91.889276 -112.30125 
L 90.623173 -112.30125 
L 89.357069 -112.30125 
L 88.090966 -112.30125 
L 86.824863 -112.30125 
L 85.55876 -112.30125 
L 84.292656 -112.30125 
L 83.026553 -112.30125 
L 81.76045 -112.30125 
L 80.494347 -112.30125 
L 79.228243 -112.30125 
L 77.96214 -112.30125 
L 76.696037 -112.30125 
L 75.429934 -112.30125 
L 74.163831 -87.035625 
L 72.897727 -69.710625 
z
" style="stroke: #dd8452; stroke-opacity: 0.2"/>
    </defs>
    <g clip-path="url(#pfdacb828fa)">
     <use xlink:href="#mbacd7b7f08" x="0" y="360" style="fill: #dd8452; fill-opacity: 0.2; stroke: #dd8452; stroke-opacity: 0.2"/>
    </g>
   </g>
   <g id="line2d_13">
    <path d="M 72.897727 291.01125 
L 74.163831 283.431563 
L 75.429934 283.7925 
L 76.696037 282.34875 
L 77.96214 283.070625 
L 79.228243 280.905 
L 80.494347 280.905 
L 81.76045 278.739375 
L 83.026553 281.626875 
L 84.292656 278.0175 
L 85.55876 275.851875 
L 86.824863 272.2425 
L 88.090966 276.57375 
L 89.357069 275.13 
L 90.623173 271.520625 
L 91.889276 269.355 
L 93.155379 268.994062 
L 94.421482 270.79875 
L 96.953689 269.355 
L 98.219792 270.076875 
L 99.485895 271.159688 
L 100.751999 272.603437 
L 102.018102 269.355 
L 103.284205 268.633125 
L 104.550308 269.355 
L 107.082515 269.355 
L 108.348618 268.272188 
L 109.614721 270.437813 
L 110.880825 271.881563 
L 112.146928 268.633125 
L 113.413031 267.91125 
L 114.679134 269.355 
L 115.945238 267.91125 
L 117.211341 269.355 
L 118.477444 268.272188 
L 119.743547 270.076875 
L 121.009651 267.91125 
L 122.275754 268.633125 
L 123.541857 268.633125 
L 126.074063 267.189375 
L 128.60627 270.076875 
L 129.872373 270.437813 
L 131.138476 270.076875 
L 132.40458 270.437813 
L 133.670683 270.076875 
L 134.936786 267.91125 
L 136.202889 268.272188 
L 137.468993 267.189375 
L 140.001199 267.91125 
L 141.267302 268.633125 
L 142.533406 271.881563 
L 143.799509 270.076875 
L 145.065612 268.633125 
L 146.331715 266.828438 
L 147.597819 269.355 
L 148.863922 268.272188 
L 150.130025 268.272188 
L 151.396128 274.047188 
L 152.662232 273.325312 
L 153.928335 271.881563 
L 155.194438 271.159688 
L 156.460541 271.520625 
L 157.726645 272.2425 
L 158.992748 272.2425 
L 160.258851 266.4675 
L 161.524954 268.633125 
L 162.791058 268.272188 
L 164.057161 271.520625 
L 165.323264 270.79875 
L 166.589367 267.91125 
L 167.855471 268.633125 
L 169.121574 265.02375 
L 170.387677 266.106562 
L 171.65378 267.550313 
L 172.919884 268.272188 
L 174.185987 268.633125 
L 175.45209 266.4675 
L 176.718193 267.189375 
L 177.984296 266.828438 
L 179.2504 265.745625 
L 180.516503 267.91125 
L 181.782606 267.91125 
L 183.048709 269.355 
L 184.314813 266.4675 
L 185.580916 266.106562 
L 186.847019 269.355 
L 188.113122 266.4675 
L 189.379226 268.633125 
L 190.645329 267.91125 
L 191.911432 266.4675 
L 193.177535 267.550313 
L 194.443639 270.076875 
L 196.975845 267.91125 
L 198.241948 271.159688 
L 199.508052 265.745625 
L 200.774155 266.828438 
L 202.040258 271.881563 
L 203.306361 269.355 
L 204.572465 266.4675 
L 205.838568 268.633125 
L 207.104671 266.4675 
L 208.370774 267.91125 
L 209.636878 267.91125 
L 210.902981 267.189375 
L 212.169084 267.550313 
L 213.435187 272.2425 
L 214.701291 267.189375 
L 215.967394 268.272188 
L 217.233497 267.550313 
L 218.4996 271.520625 
L 219.765704 271.159688 
L 221.031807 271.520625 
L 222.29791 268.272188 
L 223.564013 266.4675 
L 224.830116 266.4675 
L 226.09622 271.881563 
L 227.362323 267.550313 
L 228.628426 270.437813 
L 229.894529 267.189375 
L 231.160633 265.02375 
L 232.426736 266.4675 
L 233.692839 265.745625 
L 234.958942 265.745625 
L 236.225046 267.189375 
L 237.491149 270.79875 
L 238.757252 264.662813 
L 240.023355 264.301875 
L 241.289459 262.13625 
L 242.555562 263.58 
L 243.821665 261.053437 
L 245.087768 264.301875 
L 246.353872 263.58 
L 247.619975 264.301875 
L 250.152181 264.301875 
L 251.418285 266.106562 
L 252.684388 264.301875 
L 253.950491 267.550313 
L 255.216594 266.828438 
L 256.482698 265.745625 
L 257.748801 263.219063 
L 259.014904 265.384687 
L 260.281007 264.301875 
L 261.547111 264.662813 
L 262.813214 266.828438 
L 264.079317 265.745625 
L 265.34542 267.189375 
L 266.611524 266.106562 
L 267.877627 267.91125 
L 269.14373 267.189375 
L 270.409833 268.633125 
L 271.675937 267.550313 
L 274.208143 271.159688 
L 275.474246 267.189375 
L 276.740349 269.355 
L 278.006453 265.745625 
L 279.272556 267.91125 
L 280.538659 266.106562 
L 281.804762 267.550313 
L 283.070866 266.106562 
L 284.336969 266.4675 
L 285.603072 266.106562 
L 286.869175 268.633125 
L 288.135279 267.91125 
L 289.401382 263.58 
L 290.667485 269.715937 
L 291.933588 268.633125 
L 293.199692 272.603437 
L 294.465795 264.662813 
L 295.731898 270.076875 
L 296.998001 270.437813 
L 298.264105 273.68625 
L 299.530208 268.994062 
L 300.796311 269.715937 
L 302.062414 270.076875 
L 303.328518 267.550313 
L 304.594621 275.490938 
L 305.860724 277.295625 
L 307.126827 272.964375 
L 308.392931 273.68625 
L 309.659034 272.603437 
L 310.925137 271.881563 
L 312.19124 272.964375 
L 313.457344 270.437813 
L 314.723447 274.047188 
L 315.98955 269.715937 
L 317.255653 277.295625 
L 318.521757 276.57375 
L 319.78786 276.934687 
L 321.053963 272.2425 
L 322.320066 276.57375 
L 323.586169 277.656563 
L 324.852273 274.047188 
L 324.852273 274.047188 
" clip-path="url(#pfdacb828fa)" style="fill: none; stroke: #4c72b0; stroke-width: 1.5; stroke-linecap: round"/>
   </g>
   <g id="line2d_14">
    <path d="M 72.897727 298.23 
L 74.163831 281.626875 
L 75.429934 278.0175 
L 76.696037 271.881563 
L 79.228243 262.13625 
L 80.494347 263.219063 
L 83.026553 263.219063 
L 84.292656 264.301875 
L 85.55876 260.6925 
L 86.824863 260.6925 
L 88.090966 259.609688 
L 89.357069 257.083125 
L 90.623173 256.36125 
L 93.155379 257.805 
L 94.421482 257.444062 
L 95.687586 257.444062 
L 96.953689 256.36125 
L 98.219792 253.834688 
L 99.485895 253.47375 
L 100.751999 254.195625 
L 102.018102 251.669062 
L 103.284205 252.751875 
L 104.550308 253.47375 
L 105.816412 254.9175 
L 107.082515 254.9175 
L 108.348618 252.751875 
L 109.614721 255.278437 
L 110.880825 256.000313 
L 112.146928 257.083125 
L 113.413031 256.000313 
L 114.679134 259.609688 
L 115.945238 259.970625 
L 117.211341 259.24875 
L 118.477444 257.805 
L 119.743547 255.639375 
L 121.009651 256.722188 
L 122.275754 255.639375 
L 123.541857 256.722188 
L 124.80796 255.639375 
L 126.074063 255.639375 
L 127.340167 252.03 
L 128.60627 250.947187 
L 129.872373 250.58625 
L 132.40458 252.03 
L 133.670683 250.947187 
L 134.936786 251.669062 
L 136.202889 254.9175 
L 137.468993 254.9175 
L 138.735096 256.36125 
L 140.001199 254.556563 
L 141.267302 250.947187 
L 142.533406 248.420625 
L 143.799509 252.751875 
L 145.065612 252.390938 
L 146.331715 257.083125 
L 147.597819 256.36125 
L 148.863922 256.36125 
L 150.130025 254.556563 
L 151.396128 253.834688 
L 152.662232 253.834688 
L 153.928335 254.195625 
L 155.194438 256.36125 
L 156.460541 256.36125 
L 157.726645 256.722188 
L 158.992748 258.526875 
L 160.258851 258.526875 
L 161.524954 258.165937 
L 164.057161 256.722188 
L 166.589367 256.722188 
L 167.855471 254.556563 
L 169.121574 251.308125 
L 170.387677 252.751875 
L 171.65378 252.03 
L 172.919884 247.69875 
L 212.169084 247.69875 
L 213.435187 245.533125 
L 214.701291 247.69875 
L 215.967394 246.976875 
L 217.233497 247.69875 
L 314.723447 247.69875 
L 315.98955 246.615938 
L 317.255653 247.69875 
L 319.78786 246.255 
L 321.053963 247.69875 
L 323.586169 246.976875 
L 324.852273 245.894062 
L 324.852273 245.894062 
" clip-path="url(#pfdacb828fa)" style="fill: none; stroke: #dd8452; stroke-width: 1.5; stroke-linecap: round"/>
   </g>
   <g id="line2d_15"/>
   <g id="line2d_16"/>
   <g id="patch_3">
    <path d="M 60.3 309.78 
L 60.3 55.68 
" style="fill: none; stroke: #ffffff; stroke-width: 1.25; stroke-linejoin: miter; stroke-linecap: square"/>
   </g>
   <g id="patch_4">
    <path d="M 337.45 309.78 
L 337.45 55.68 
" style="fill: none; stroke: #ffffff; stroke-width: 1.25; stroke-linejoin: miter; stroke-linecap: square"/>
   </g>
   <g id="patch_5">
    <path d="M 60.3 309.78 
L 337.45 309.78 
" style="fill: none; stroke: #ffffff; stroke-width: 1.25; stroke-linejoin: miter; stroke-linecap: square"/>
   </g>
   <g id="patch_6">
    <path d="M 60.3 55.68 
L 337.45 55.68 
" style="fill: none; stroke: #ffffff; stroke-width: 1.25; stroke-linejoin: miter; stroke-linecap: square"/>
   </g>
   <g id="text_15">
    <!-- Median By Generation -->
    <g style="fill: #262626" transform="translate(132.097812 49.68)scale(0.12 -0.12)">
     <defs>
      <path id="DejaVuSans-4d" d="M 628 4666 
L 1569 4666 
L 2759 1491 
L 3956 4666 
L 4897 4666 
L 4897 0 
L 4281 0 
L 4281 4097 
L 3078 897 
L 2444 897 
L 1241 4097 
L 1241 0 
L 628 0 
L 628 4666 
z
" transform="scale(0.015625)"/>
      <path id="DejaVuSans-64" d="M 2906 2969 
L 2906 4863 
L 3481 4863 
L 3481 0 
L 2906 0 
L 2906 525 
Q 2725 213 2448 61 
Q 2172 -91 1784 -91 
Q 1150 -91 751 415 
Q 353 922 353 1747 
Q 353 2572 751 3078 
Q 1150 3584 1784 3584 
Q 2172 3584 2448 3432 
Q 2725 3281 2906 2969 
z
M 947 1747 
Q 947 1113 1208 752 
Q 1469 391 1925 391 
Q 2381 391 2643 752 
Q 2906 1113 2906 1747 
Q 2906 2381 2643 2742 
Q 2381 3103 1925 3103 
Q 1469 3103 1208 2742 
Q 947 2381 947 1747 
z
" transform="scale(0.015625)"/>
      <path id="DejaVuSans-20" transform="scale(0.015625)"/>
      <path id="DejaVuSans-42" d="M 1259 2228 
L 1259 519 
L 2272 519 
Q 2781 519 3026 730 
Q 3272 941 3272 1375 
Q 3272 1813 3026 2020 
Q 2781 2228 2272 2228 
L 1259 2228 
z
M 1259 4147 
L 1259 2741 
L 2194 2741 
Q 2656 2741 2882 2914 
Q 3109 3088 3109 3444 
Q 3109 3797 2882 3972 
Q 2656 4147 2194 4147 
L 1259 4147 
z
M 628 4666 
L 2241 4666 
Q 2963 4666 3353 4366 
Q 3744 4066 3744 3513 
Q 3744 3084 3544 2831 
Q 3344 2578 2956 2516 
Q 3422 2416 3680 2098 
Q 3938 1781 3938 1306 
Q 3938 681 3513 340 
Q 3088 0 2303 0 
L 628 0 
L 628 4666 
z
" transform="scale(0.015625)"/>
      <path id="DejaVuSans-79" d="M 2059 -325 
Q 1816 -950 1584 -1140 
Q 1353 -1331 966 -1331 
L 506 -1331 
L 506 -850 
L 844 -850 
Q 1081 -850 1212 -737 
Q 1344 -625 1503 -206 
L 1606 56 
L 191 3500 
L 800 3500 
L 1894 763 
L 2988 3500 
L 3597 3500 
L 2059 -325 
z
" transform="scale(0.015625)"/>
     </defs>
     <use xlink:href="#DejaVuSans-4d"/>
     <use xlink:href="#DejaVuSans-65" x="86.279297"/>
     <use xlink:href="#DejaVuSans-64" x="147.802734"/>
     <use xlink:href="#DejaVuSans-69" x="211.279297"/>
     <use xlink:href="#DejaVuSans-61" x="239.0625"/>
     <use xlink:href="#DejaVuSans-6e" x="300.341797"/>
     <use xlink:href="#DejaVuSans-20" x="363.720703"/>
     <use xlink:href="#DejaVuSans-42" x="395.507812"/>
     <use xlink:href="#DejaVuSans-79" x="464.111328"/>
     <use xlink:href="#DejaVuSans-20" x="523.291016"/>
     <use xlink:href="#DejaVuSans-47" x="555.078125"/>
     <use xlink:href="#DejaVuSans-65" x="632.568359"/>
     <use xlink:href="#DejaVuSans-6e" x="694.091797"/>
     <use xlink:href="#DejaVuSans-65" x="757.470703"/>
     <use xlink:href="#DejaVuSans-72" x="818.994141"/>
     <use xlink:href="#DejaVuSans-61" x="860.107422"/>
     <use xlink:href="#DejaVuSans-74" x="921.386719"/>
     <use xlink:href="#DejaVuSans-69" x="960.595703"/>
     <use xlink:href="#DejaVuSans-6f" x="988.378906"/>
     <use xlink:href="#DejaVuSans-6e" x="1049.560547"/>
    </g>
   </g>
   <g id="legend_1">
    <g id="text_16">
     <!-- GenomeConfig -->
     <g style="fill: #262626" transform="translate(383.545078 169.895312)scale(0.12 -0.12)">
      <defs>
       <path id="DejaVuSans-6d" d="M 3328 2828 
Q 3544 3216 3844 3400 
Q 4144 3584 4550 3584 
Q 5097 3584 5394 3201 
Q 5691 2819 5691 2113 
L 5691 0 
L 5113 0 
L 5113 2094 
Q 5113 2597 4934 2840 
Q 4756 3084 4391 3084 
Q 3944 3084 3684 2787 
Q 3425 2491 3425 1978 
L 3425 0 
L 2847 0 
L 2847 2094 
Q 2847 2600 2669 2842 
Q 2491 3084 2119 3084 
Q 1678 3084 1418 2786 
Q 1159 2488 1159 1978 
L 1159 0 
L 581 0 
L 581 3500 
L 1159 3500 
L 1159 2956 
Q 1356 3278 1631 3431 
Q 1906 3584 2284 3584 
Q 2666 3584 2933 3390 
Q 3200 3197 3328 2828 
z
" transform="scale(0.015625)"/>
       <path id="DejaVuSans-43" d="M 4122 4306 
L 4122 3641 
Q 3803 3938 3442 4084 
Q 3081 4231 2675 4231 
Q 1875 4231 1450 3742 
Q 1025 3253 1025 2328 
Q 1025 1406 1450 917 
Q 1875 428 2675 428 
Q 3081 428 3442 575 
Q 3803 722 4122 1019 
L 4122 359 
Q 3791 134 3420 21 
Q 3050 -91 2638 -91 
Q 1578 -91 968 557 
Q 359 1206 359 2328 
Q 359 3453 968 4101 
Q 1578 4750 2638 4750 
Q 3056 4750 3426 4639 
Q 3797 4528 4122 4306 
z
" transform="scale(0.015625)"/>
       <path id="DejaVuSans-66" d="M 2375 4863 
L 2375 4384 
L 1825 4384 
Q 1516 4384 1395 4259 
Q 1275 4134 1275 3809 
L 1275 3500 
L 2222 3500 
L 2222 3053 
L 1275 3053 
L 1275 0 
L 697 0 
L 697 3053 
L 147 3053 
L 147 3500 
L 697 3500 
L 697 3744 
Q 697 4328 969 4595 
Q 1241 4863 1831 4863 
L 2375 4863 
z
" transform="scale(0.015625)"/>
       <path id="DejaVuSans-67" d="M 2906 1791 
Q 2906 2416 2648 2759 
Q 2391 3103 1925 3103 
Q 1463 3103 1205 2759 
Q 947 2416 947 1791 
Q 947 1169 1205 825 
Q 1463 481 1925 481 
Q 2391 481 2648 825 
Q 2906 1169 2906 1791 
z
M 3481 434 
Q 3481 -459 3084 -895 
Q 2688 -1331 1869 -1331 
Q 1566 -1331 1297 -1286 
Q 1028 -1241 775 -1147 
L 775 -588 
Q 1028 -725 1275 -790 
Q 1522 -856 1778 -856 
Q 2344 -856 2625 -561 
Q 2906 -266 2906 331 
L 2906 616 
Q 2728 306 2450 153 
Q 2172 0 1784 0 
Q 1141 0 747 490 
Q 353 981 353 1791 
Q 353 2603 747 3093 
Q 1141 3584 1784 3584 
Q 2172 3584 2450 3431 
Q 2728 3278 2906 2969 
L 2906 3500 
L 3481 3500 
L 3481 434 
z
" transform="scale(0.015625)"/>
      </defs>
      <use xlink:href="#DejaVuSans-47"/>
      <use xlink:href="#DejaVuSans-65" x="77.490234"/>
      <use xlink:href="#DejaVuSans-6e" x="139.013672"/>
      <use xlink:href="#DejaVuSans-6f" x="202.392578"/>
      <use xlink:href="#DejaVuSans-6d" x="263.574219"/>
      <use xlink:href="#DejaVuSans-65" x="360.986328"/>
      <use xlink:href="#DejaVuSans-43" x="422.509766"/>
      <use xlink:href="#DejaVuSans-6f" x="492.333984"/>
      <use xlink:href="#DejaVuSans-6e" x="553.515625"/>
      <use xlink:href="#DejaVuSans-66" x="616.894531"/>
      <use xlink:href="#DejaVuSans-69" x="652.099609"/>
      <use xlink:href="#DejaVuSans-67" x="679.882812"/>
     </g>
    </g>
    <g id="line2d_17">
     <path d="M 347.35 182.399219 
L 358.35 182.399219 
L 369.35 182.399219 
" style="fill: none; stroke: #4c72b0; stroke-width: 1.5; stroke-linecap: round"/>
    </g>
    <g id="text_17">
     <!-- Control -->
     <g style="fill: #262626" transform="translate(378.15 186.249219)scale(0.11 -0.11)">
      <defs>
       <path id="DejaVuSans-6c" d="M 603 4863 
L 1178 4863 
L 1178 0 
L 603 0 
L 603 4863 
z
" transform="scale(0.015625)"/>
      </defs>
      <use xlink:href="#DejaVuSans-43"/>
      <use xlink:href="#DejaVuSans-6f" x="69.824219"/>
      <use xlink:href="#DejaVuSans-6e" x="131.005859"/>
      <use xlink:href="#DejaVuSans-74" x="194.384766"/>
      <use xlink:href="#DejaVuSans-72" x="233.59375"/>
      <use xlink:href="#DejaVuSans-6f" x="272.457031"/>
      <use xlink:href="#DejaVuSans-6c" x="333.638672"/>
     </g>
    </g>
    <g id="line2d_18">
     <path d="M 347.35 198.545156 
L 358.35 198.545156 
L 369.35 198.545156 
" style="fill: none; stroke: #dd8452; stroke-width: 1.5; stroke-linecap: round"/>
    </g>
    <g id="text_18">
     <!-- No Vector x Global Only -->
     <g style="fill: #262626" transform="translate(378.15 202.395156)scale(0.11 -0.11)">
      <defs>
       <path id="DejaVuSans-4e" d="M 628 4666 
L 1478 4666 
L 3547 763 
L 3547 4666 
L 4159 4666 
L 4159 0 
L 3309 0 
L 1241 3903 
L 1241 0 
L 628 0 
L 628 4666 
z
" transform="scale(0.015625)"/>
       <path id="DejaVuSans-56" d="M 1831 0 
L 50 4666 
L 709 4666 
L 2188 738 
L 3669 4666 
L 4325 4666 
L 2547 0 
L 1831 0 
z
" transform="scale(0.015625)"/>
       <path id="DejaVuSans-63" d="M 3122 3366 
L 3122 2828 
Q 2878 2963 2633 3030 
Q 2388 3097 2138 3097 
Q 1578 3097 1268 2742 
Q 959 2388 959 1747 
Q 959 1106 1268 751 
Q 1578 397 2138 397 
Q 2388 397 2633 464 
Q 2878 531 3122 666 
L 3122 134 
Q 2881 22 2623 -34 
Q 2366 -91 2075 -91 
Q 1284 -91 818 406 
Q 353 903 353 1747 
Q 353 2603 823 3093 
Q 1294 3584 2113 3584 
Q 2378 3584 2631 3529 
Q 2884 3475 3122 3366 
z
" transform="scale(0.015625)"/>
       <path id="DejaVuSans-78" d="M 3513 3500 
L 2247 1797 
L 3578 0 
L 2900 0 
L 1881 1375 
L 863 0 
L 184 0 
L 1544 1831 
L 300 3500 
L 978 3500 
L 1906 2253 
L 2834 3500 
L 3513 3500 
z
" transform="scale(0.015625)"/>
       <path id="DejaVuSans-62" d="M 3116 1747 
Q 3116 2381 2855 2742 
Q 2594 3103 2138 3103 
Q 1681 3103 1420 2742 
Q 1159 2381 1159 1747 
Q 1159 1113 1420 752 
Q 1681 391 2138 391 
Q 2594 391 2855 752 
Q 3116 1113 3116 1747 
z
M 1159 2969 
Q 1341 3281 1617 3432 
Q 1894 3584 2278 3584 
Q 2916 3584 3314 3078 
Q 3713 2572 3713 1747 
Q 3713 922 3314 415 
Q 2916 -91 2278 -91 
Q 1894 -91 1617 61 
Q 1341 213 1159 525 
L 1159 0 
L 581 0 
L 581 4863 
L 1159 4863 
L 1159 2969 
z
" transform="scale(0.015625)"/>
       <path id="DejaVuSans-4f" d="M 2522 4238 
Q 1834 4238 1429 3725 
Q 1025 3213 1025 2328 
Q 1025 1447 1429 934 
Q 1834 422 2522 422 
Q 3209 422 3611 934 
Q 4013 1447 4013 2328 
Q 4013 3213 3611 3725 
Q 3209 4238 2522 4238 
z
M 2522 4750 
Q 3503 4750 4090 4092 
Q 4678 3434 4678 2328 
Q 4678 1225 4090 567 
Q 3503 -91 2522 -91 
Q 1538 -91 948 565 
Q 359 1222 359 2328 
Q 359 3434 948 4092 
Q 1538 4750 2522 4750 
z
" transform="scale(0.015625)"/>
      </defs>
      <use xlink:href="#DejaVuSans-4e"/>
      <use xlink:href="#DejaVuSans-6f" x="74.804688"/>
      <use xlink:href="#DejaVuSans-20" x="135.986328"/>
      <use xlink:href="#DejaVuSans-56" x="167.773438"/>
      <use xlink:href="#DejaVuSans-65" x="228.431641"/>
      <use xlink:href="#DejaVuSans-63" x="289.955078"/>
      <use xlink:href="#DejaVuSans-74" x="344.935547"/>
      <use xlink:href="#DejaVuSans-6f" x="384.144531"/>
      <use xlink:href="#DejaVuSans-72" x="445.326172"/>
      <use xlink:href="#DejaVuSans-20" x="486.439453"/>
      <use xlink:href="#DejaVuSans-78" x="518.226562"/>
      <use xlink:href="#DejaVuSans-20" x="577.40625"/>
      <use xlink:href="#DejaVuSans-47" x="609.193359"/>
      <use xlink:href="#DejaVuSans-6c" x="686.683594"/>
      <use xlink:href="#DejaVuSans-6f" x="714.466797"/>
      <use xlink:href="#DejaVuSans-62" x="775.648438"/>
      <use xlink:href="#DejaVuSans-61" x="839.125"/>
      <use xlink:href="#DejaVuSans-6c" x="900.404297"/>
      <use xlink:href="#DejaVuSans-20" x="928.1875"/>
      <use xlink:href="#DejaVuSans-4f" x="959.974609"/>
      <use xlink:href="#DejaVuSans-6e" x="1038.685547"/>
      <use xlink:href="#DejaVuSans-6c" x="1102.064453"/>
      <use xlink:href="#DejaVuSans-79" x="1129.847656"/>
     </g>
    </g>
   </g>
  </g>
  <g id="axes_2">
   <g id="patch_7">
    <path d="M 573.89 309.78 
L 851.04 309.78 
L 851.04 55.68 
L 573.89 55.68 
z
" style="fill: #eaeaf2"/>
   </g>
   <g id="matplotlib.axis_3">
    <g id="xtick_6"/>
    <g id="xtick_7"/>
    <g id="text_19">
     <!-- GenomeConfig -->
     <g style="fill: #262626" transform="translate(667.8625 332.398125)scale(0.12 -0.12)">
      <use xlink:href="#DejaVuSans-47"/>
      <use xlink:href="#DejaVuSans-65" x="77.490234"/>
      <use xlink:href="#DejaVuSans-6e" x="139.013672"/>
      <use xlink:href="#DejaVuSans-6f" x="202.392578"/>
      <use xlink:href="#DejaVuSans-6d" x="263.574219"/>
      <use xlink:href="#DejaVuSans-65" x="360.986328"/>
      <use xlink:href="#DejaVuSans-43" x="422.509766"/>
      <use xlink:href="#DejaVuSans-6f" x="492.333984"/>
      <use xlink:href="#DejaVuSans-6e" x="553.515625"/>
      <use xlink:href="#DejaVuSans-66" x="616.894531"/>
      <use xlink:href="#DejaVuSans-69" x="652.099609"/>
      <use xlink:href="#DejaVuSans-67" x="679.882812"/>
     </g>
    </g>
   </g>
   <g id="matplotlib.axis_4">
    <g id="ytick_8">
     <g id="line2d_19">
      <path d="M 573.89 298.23 
L 851.04 298.23 
" clip-path="url(#p67634c08aa)" style="fill: none; stroke: #ffffff; stroke-linecap: round"/>
     </g>
     <g id="text_20">
      <!-- 0 -->
      <g style="fill: #262626" transform="translate(557.39125 302.409141)scale(0.11 -0.11)">
       <use xlink:href="#DejaVuSans-30"/>
      </g>
     </g>
    </g>
    <g id="ytick_9">
     <g id="line2d_20">
      <path d="M 573.89 262.13625 
L 851.04 262.13625 
" clip-path="url(#p67634c08aa)" style="fill: none; stroke: #ffffff; stroke-linecap: round"/>
     </g>
     <g id="text_21">
      <!-- 50 -->
      <g style="fill: #262626" transform="translate(550.3925 266.315391)scale(0.11 -0.11)">
       <use xlink:href="#DejaVuSans-35"/>
       <use xlink:href="#DejaVuSans-30" x="63.623047"/>
      </g>
     </g>
    </g>
    <g id="ytick_10">
     <g id="line2d_21">
      <path d="M 573.89 226.0425 
L 851.04 226.0425 
" clip-path="url(#p67634c08aa)" style="fill: none; stroke: #ffffff; stroke-linecap: round"/>
     </g>
     <g id="text_22">
      <!-- 100 -->
      <g style="fill: #262626" transform="translate(543.39375 230.221641)scale(0.11 -0.11)">
       <use xlink:href="#DejaVuSans-31"/>
       <use xlink:href="#DejaVuSans-30" x="63.623047"/>
       <use xlink:href="#DejaVuSans-30" x="127.246094"/>
      </g>
     </g>
    </g>
    <g id="ytick_11">
     <g id="line2d_22">
      <path d="M 573.89 189.94875 
L 851.04 189.94875 
" clip-path="url(#p67634c08aa)" style="fill: none; stroke: #ffffff; stroke-linecap: round"/>
     </g>
     <g id="text_23">
      <!-- 150 -->
      <g style="fill: #262626" transform="translate(543.39375 194.127891)scale(0.11 -0.11)">
       <use xlink:href="#DejaVuSans-31"/>
       <use xlink:href="#DejaVuSans-35" x="63.623047"/>
       <use xlink:href="#DejaVuSans-30" x="127.246094"/>
      </g>
     </g>
    </g>
    <g id="ytick_12">
     <g id="line2d_23">
      <path d="M 573.89 153.855 
L 851.04 153.855 
" clip-path="url(#p67634c08aa)" style="fill: none; stroke: #ffffff; stroke-linecap: round"/>
     </g>
     <g id="text_24">
      <!-- 200 -->
      <g style="fill: #262626" transform="translate(543.39375 158.034141)scale(0.11 -0.11)">
       <use xlink:href="#DejaVuSans-32"/>
       <use xlink:href="#DejaVuSans-30" x="63.623047"/>
       <use xlink:href="#DejaVuSans-30" x="127.246094"/>
      </g>
     </g>
    </g>
    <g id="ytick_13">
     <g id="line2d_24">
      <path d="M 573.89 117.76125 
L 851.04 117.76125 
" clip-path="url(#p67634c08aa)" style="fill: none; stroke: #ffffff; stroke-linecap: round"/>
     </g>
     <g id="text_25">
      <!-- 250 -->
      <g style="fill: #262626" transform="translate(543.39375 121.940391)scale(0.11 -0.11)">
       <use xlink:href="#DejaVuSans-32"/>
       <use xlink:href="#DejaVuSans-35" x="63.623047"/>
       <use xlink:href="#DejaVuSans-30" x="127.246094"/>
      </g>
     </g>
    </g>
    <g id="ytick_14">
     <g id="line2d_25">
      <path d="M 573.89 81.6675 
L 851.04 81.6675 
" clip-path="url(#p67634c08aa)" style="fill: none; stroke: #ffffff; stroke-linecap: round"/>
     </g>
     <g id="text_26">
      <!-- 300 -->
      <g style="fill: #262626" transform="translate(543.39375 85.846641)scale(0.11 -0.11)">
       <use xlink:href="#DejaVuSans-33"/>
       <use xlink:href="#DejaVuSans-30" x="63.623047"/>
       <use xlink:href="#DejaVuSans-30" x="127.246094"/>
      </g>
     </g>
    </g>
    <g id="text_27">
     <!-- Fitness -->
     <g style="fill: #262626" transform="translate(536.898125 203.510625)rotate(-90)scale(0.12 -0.12)">
      <use xlink:href="#DejaVuSans-46"/>
      <use xlink:href="#DejaVuSans-69" x="50.269531"/>
      <use xlink:href="#DejaVuSans-74" x="78.052734"/>
      <use xlink:href="#DejaVuSans-6e" x="117.261719"/>
      <use xlink:href="#DejaVuSans-65" x="180.640625"/>
      <use xlink:href="#DejaVuSans-73" x="242.164062"/>
      <use xlink:href="#DejaVuSans-73" x="294.263672"/>
     </g>
    </g>
   </g>
   <g id="patch_8">
    <path d="M 587.7475 265.02375 
L 698.6075 265.02375 
L 698.6075 241.562813 
L 587.7475 241.562813 
L 587.7475 265.02375 
z
" clip-path="url(#p67634c08aa)" style="fill: #5875a4; stroke: #4c4c4c; stroke-width: 1.5; stroke-linejoin: miter"/>
   </g>
   <g id="patch_9">
    <path d="M 726.3225 244.089375 
L 837.1825 244.089375 
L 837.1825 214.4925 
L 726.3225 214.4925 
L 726.3225 244.089375 
z
" clip-path="url(#p67634c08aa)" style="fill: #cc8963; stroke: #4c4c4c; stroke-width: 1.5; stroke-linejoin: miter"/>
   </g>
   <g id="line2d_26">
    <path d="M 643.1775 265.02375 
L 643.1775 265.745625 
" clip-path="url(#p67634c08aa)" style="fill: none; stroke: #4c4c4c; stroke-width: 1.5; stroke-linecap: round"/>
   </g>
   <g id="line2d_27">
    <path d="M 643.1775 241.562813 
L 643.1775 222.433125 
" clip-path="url(#p67634c08aa)" style="fill: none; stroke: #4c4c4c; stroke-width: 1.5; stroke-linecap: round"/>
   </g>
   <g id="line2d_28">
    <path d="M 615.4625 265.745625 
L 670.8925 265.745625 
" clip-path="url(#p67634c08aa)" style="fill: none; stroke: #4c4c4c; stroke-width: 1.5; stroke-linecap: round"/>
   </g>
   <g id="line2d_29">
    <path d="M 615.4625 222.433125 
L 670.8925 222.433125 
" clip-path="url(#p67634c08aa)" style="fill: none; stroke: #4c4c4c; stroke-width: 1.5; stroke-linecap: round"/>
   </g>
   <g id="line2d_30"/>
   <g id="line2d_31">
    <path d="M 781.7525 244.089375 
L 781.7525 247.69875 
" clip-path="url(#p67634c08aa)" style="fill: none; stroke: #4c4c4c; stroke-width: 1.5; stroke-linecap: round"/>
   </g>
   <g id="line2d_32">
    <path d="M 781.7525 214.4925 
L 781.7525 214.4925 
" clip-path="url(#p67634c08aa)" style="fill: none; stroke: #4c4c4c; stroke-width: 1.5; stroke-linecap: round"/>
   </g>
   <g id="line2d_33">
    <path d="M 754.0375 247.69875 
L 809.4675 247.69875 
" clip-path="url(#p67634c08aa)" style="fill: none; stroke: #4c4c4c; stroke-width: 1.5; stroke-linecap: round"/>
   </g>
   <g id="line2d_34">
    <path d="M 754.0375 214.4925 
L 809.4675 214.4925 
" clip-path="url(#p67634c08aa)" style="fill: none; stroke: #4c4c4c; stroke-width: 1.5; stroke-linecap: round"/>
   </g>
   <g id="line2d_35">
    <defs>
     <path id="mb5948b3b57" d="M -0 3.535534 
L 2.12132 0 
L -0 -3.535534 
L -2.12132 -0 
z
" style="stroke: #4c4c4c; stroke-linejoin: miter"/>
    </defs>
    <g clip-path="url(#p67634c08aa)">
     <use xlink:href="#mb5948b3b57" x="781.7525" y="67.23" style="fill: #4c4c4c; stroke: #4c4c4c; stroke-linejoin: miter"/>
    </g>
   </g>
   <g id="line2d_36">
    <path d="M 587.7475 246.255 
L 698.6075 246.255 
" clip-path="url(#p67634c08aa)" style="fill: none; stroke: #4c4c4c; stroke-width: 1.5; stroke-linecap: round"/>
   </g>
   <g id="line2d_37">
    <path d="M 726.3225 243.3675 
L 837.1825 243.3675 
" clip-path="url(#p67634c08aa)" style="fill: none; stroke: #4c4c4c; stroke-width: 1.5; stroke-linecap: round"/>
   </g>
   <g id="patch_10">
    <path d="M 573.89 309.78 
L 573.89 55.68 
" style="fill: none; stroke: #ffffff; stroke-width: 1.25; stroke-linejoin: miter; stroke-linecap: square"/>
   </g>
   <g id="patch_11">
    <path d="M 851.04 309.78 
L 851.04 55.68 
" style="fill: none; stroke: #ffffff; stroke-width: 1.25; stroke-linejoin: miter; stroke-linecap: square"/>
   </g>
   <g id="patch_12">
    <path d="M 573.89 309.78 
L 851.04 309.78 
" style="fill: none; stroke: #ffffff; stroke-width: 1.25; stroke-linejoin: miter; stroke-linecap: square"/>
   </g>
   <g id="patch_13">
    <path d="M 573.89 55.68 
L 851.04 55.68 
" style="fill: none; stroke: #ffffff; stroke-width: 1.25; stroke-linejoin: miter; stroke-linecap: square"/>
   </g>
   <g id="text_28">
    <!-- Best Performance Across Trials -->
    <g style="fill: #262626" transform="translate(620.504687 49.68)scale(0.12 -0.12)">
     <defs>
      <path id="DejaVuSans-50" d="M 1259 4147 
L 1259 2394 
L 2053 2394 
Q 2494 2394 2734 2622 
Q 2975 2850 2975 3272 
Q 2975 3691 2734 3919 
Q 2494 4147 2053 4147 
L 1259 4147 
z
M 628 4666 
L 2053 4666 
Q 2838 4666 3239 4311 
Q 3641 3956 3641 3272 
Q 3641 2581 3239 2228 
Q 2838 1875 2053 1875 
L 1259 1875 
L 1259 0 
L 628 0 
L 628 4666 
z
" transform="scale(0.015625)"/>
      <path id="DejaVuSans-41" d="M 2188 4044 
L 1331 1722 
L 3047 1722 
L 2188 4044 
z
M 1831 4666 
L 2547 4666 
L 4325 0 
L 3669 0 
L 3244 1197 
L 1141 1197 
L 716 0 
L 50 0 
L 1831 4666 
z
" transform="scale(0.015625)"/>
      <path id="DejaVuSans-54" d="M -19 4666 
L 3928 4666 
L 3928 4134 
L 2272 4134 
L 2272 0 
L 1638 0 
L 1638 4134 
L -19 4134 
L -19 4666 
z
" transform="scale(0.015625)"/>
     </defs>
     <use xlink:href="#DejaVuSans-42"/>
     <use xlink:href="#DejaVuSans-65" x="68.603516"/>
     <use xlink:href="#DejaVuSans-73" x="130.126953"/>
     <use xlink:href="#DejaVuSans-74" x="182.226562"/>
     <use xlink:href="#DejaVuSans-20" x="221.435547"/>
     <use xlink:href="#DejaVuSans-50" x="253.222656"/>
     <use xlink:href="#DejaVuSans-65" x="309.900391"/>
     <use xlink:href="#DejaVuSans-72" x="371.423828"/>
     <use xlink:href="#DejaVuSans-66" x="412.537109"/>
     <use xlink:href="#DejaVuSans-6f" x="447.742188"/>
     <use xlink:href="#DejaVuSans-72" x="508.923828"/>
     <use xlink:href="#DejaVuSans-6d" x="548.287109"/>
     <use xlink:href="#DejaVuSans-61" x="645.699219"/>
     <use xlink:href="#DejaVuSans-6e" x="706.978516"/>
     <use xlink:href="#DejaVuSans-63" x="770.357422"/>
     <use xlink:href="#DejaVuSans-65" x="825.337891"/>
     <use xlink:href="#DejaVuSans-20" x="886.861328"/>
     <use xlink:href="#DejaVuSans-41" x="918.648438"/>
     <use xlink:href="#DejaVuSans-63" x="985.306641"/>
     <use xlink:href="#DejaVuSans-72" x="1040.287109"/>
     <use xlink:href="#DejaVuSans-6f" x="1079.150391"/>
     <use xlink:href="#DejaVuSans-73" x="1140.332031"/>
     <use xlink:href="#DejaVuSans-73" x="1192.431641"/>
     <use xlink:href="#DejaVuSans-20" x="1244.53125"/>
     <use xlink:href="#DejaVuSans-54" x="1276.318359"/>
     <use xlink:href="#DejaVuSans-72" x="1322.652344"/>
     <use xlink:href="#DejaVuSans-69" x="1363.765625"/>
     <use xlink:href="#DejaVuSans-61" x="1391.548828"/>
     <use xlink:href="#DejaVuSans-6c" x="1452.828125"/>
     <use xlink:href="#DejaVuSans-73" x="1480.611328"/>
    </g>
   </g>
  </g>
  <g id="text_29">
   <!-- Compare Default To Evolved Rates For Three Cycle -->
   <g style="fill: #262626" transform="translate(249.159375 18.14175)scale(0.144 -0.144)">
    <defs>
     <path id="DejaVuSans-70" d="M 1159 525 
L 1159 -1331 
L 581 -1331 
L 581 3500 
L 1159 3500 
L 1159 2969 
Q 1341 3281 1617 3432 
Q 1894 3584 2278 3584 
Q 2916 3584 3314 3078 
Q 3713 2572 3713 1747 
Q 3713 922 3314 415 
Q 2916 -91 2278 -91 
Q 1894 -91 1617 61 
Q 1341 213 1159 525 
z
M 3116 1747 
Q 3116 2381 2855 2742 
Q 2594 3103 2138 3103 
Q 1681 3103 1420 2742 
Q 1159 2381 1159 1747 
Q 1159 1113 1420 752 
Q 1681 391 2138 391 
Q 2594 391 2855 752 
Q 3116 1113 3116 1747 
z
" transform="scale(0.015625)"/>
     <path id="DejaVuSans-44" d="M 1259 4147 
L 1259 519 
L 2022 519 
Q 2988 519 3436 956 
Q 3884 1394 3884 2338 
Q 3884 3275 3436 3711 
Q 2988 4147 2022 4147 
L 1259 4147 
z
M 628 4666 
L 1925 4666 
Q 3281 4666 3915 4102 
Q 4550 3538 4550 2338 
Q 4550 1131 3912 565 
Q 3275 0 1925 0 
L 628 0 
L 628 4666 
z
" transform="scale(0.015625)"/>
     <path id="DejaVuSans-75" d="M 544 1381 
L 544 3500 
L 1119 3500 
L 1119 1403 
Q 1119 906 1312 657 
Q 1506 409 1894 409 
Q 2359 409 2629 706 
Q 2900 1003 2900 1516 
L 2900 3500 
L 3475 3500 
L 3475 0 
L 2900 0 
L 2900 538 
Q 2691 219 2414 64 
Q 2138 -91 1772 -91 
Q 1169 -91 856 284 
Q 544 659 544 1381 
z
M 1991 3584 
L 1991 3584 
z
" transform="scale(0.015625)"/>
     <path id="DejaVuSans-45" d="M 628 4666 
L 3578 4666 
L 3578 4134 
L 1259 4134 
L 1259 2753 
L 3481 2753 
L 3481 2222 
L 1259 2222 
L 1259 531 
L 3634 531 
L 3634 0 
L 628 0 
L 628 4666 
z
" transform="scale(0.015625)"/>
     <path id="DejaVuSans-76" d="M 191 3500 
L 800 3500 
L 1894 563 
L 2988 3500 
L 3597 3500 
L 2284 0 
L 1503 0 
L 191 3500 
z
" transform="scale(0.015625)"/>
     <path id="DejaVuSans-52" d="M 2841 2188 
Q 3044 2119 3236 1894 
Q 3428 1669 3622 1275 
L 4263 0 
L 3584 0 
L 2988 1197 
Q 2756 1666 2539 1819 
Q 2322 1972 1947 1972 
L 1259 1972 
L 1259 0 
L 628 0 
L 628 4666 
L 2053 4666 
Q 2853 4666 3247 4331 
Q 3641 3997 3641 3322 
Q 3641 2881 3436 2590 
Q 3231 2300 2841 2188 
z
M 1259 4147 
L 1259 2491 
L 2053 2491 
Q 2509 2491 2742 2702 
Q 2975 2913 2975 3322 
Q 2975 3731 2742 3939 
Q 2509 4147 2053 4147 
L 1259 4147 
z
" transform="scale(0.015625)"/>
     <path id="DejaVuSans-68" d="M 3513 2113 
L 3513 0 
L 2938 0 
L 2938 2094 
Q 2938 2591 2744 2837 
Q 2550 3084 2163 3084 
Q 1697 3084 1428 2787 
Q 1159 2491 1159 1978 
L 1159 0 
L 581 0 
L 581 4863 
L 1159 4863 
L 1159 2956 
Q 1366 3272 1645 3428 
Q 1925 3584 2291 3584 
Q 2894 3584 3203 3211 
Q 3513 2838 3513 2113 
z
" transform="scale(0.015625)"/>
    </defs>
    <use xlink:href="#DejaVuSans-43"/>
    <use xlink:href="#DejaVuSans-6f" x="69.824219"/>
    <use xlink:href="#DejaVuSans-6d" x="131.005859"/>
    <use xlink:href="#DejaVuSans-70" x="228.417969"/>
    <use xlink:href="#DejaVuSans-61" x="291.894531"/>
    <use xlink:href="#DejaVuSans-72" x="353.173828"/>
    <use xlink:href="#DejaVuSans-65" x="392.037109"/>
    <use xlink:href="#DejaVuSans-20" x="453.560547"/>
    <use xlink:href="#DejaVuSans-44" x="485.347656"/>
    <use xlink:href="#DejaVuSans-65" x="562.349609"/>
    <use xlink:href="#DejaVuSans-66" x="623.873047"/>
    <use xlink:href="#DejaVuSans-61" x="659.078125"/>
    <use xlink:href="#DejaVuSans-75" x="720.357422"/>
    <use xlink:href="#DejaVuSans-6c" x="783.736328"/>
    <use xlink:href="#DejaVuSans-74" x="811.519531"/>
    <use xlink:href="#DejaVuSans-20" x="850.728516"/>
    <use xlink:href="#DejaVuSans-54" x="882.515625"/>
    <use xlink:href="#DejaVuSans-6f" x="926.599609"/>
    <use xlink:href="#DejaVuSans-20" x="987.78125"/>
    <use xlink:href="#DejaVuSans-45" x="1019.568359"/>
    <use xlink:href="#DejaVuSans-76" x="1082.751953"/>
    <use xlink:href="#DejaVuSans-6f" x="1141.931641"/>
    <use xlink:href="#DejaVuSans-6c" x="1203.113281"/>
    <use xlink:href="#DejaVuSans-76" x="1230.896484"/>
    <use xlink:href="#DejaVuSans-65" x="1290.076172"/>
    <use xlink:href="#DejaVuSans-64" x="1351.599609"/>
    <use xlink:href="#DejaVuSans-20" x="1415.076172"/>
    <use xlink:href="#DejaVuSans-52" x="1446.863281"/>
    <use xlink:href="#DejaVuSans-61" x="1514.095703"/>
    <use xlink:href="#DejaVuSans-74" x="1575.375"/>
    <use xlink:href="#DejaVuSans-65" x="1614.583984"/>
    <use xlink:href="#DejaVuSans-73" x="1676.107422"/>
    <use xlink:href="#DejaVuSans-20" x="1728.207031"/>
    <use xlink:href="#DejaVuSans-46" x="1759.994141"/>
    <use xlink:href="#DejaVuSans-6f" x="1813.888672"/>
    <use xlink:href="#DejaVuSans-72" x="1875.070312"/>
    <use xlink:href="#DejaVuSans-20" x="1916.183594"/>
    <use xlink:href="#DejaVuSans-54" x="1947.970703"/>
    <use xlink:href="#DejaVuSans-68" x="2009.054688"/>
    <use xlink:href="#DejaVuSans-72" x="2072.433594"/>
    <use xlink:href="#DejaVuSans-65" x="2111.296875"/>
    <use xlink:href="#DejaVuSans-65" x="2172.820312"/>
    <use xlink:href="#DejaVuSans-20" x="2234.34375"/>
    <use xlink:href="#DejaVuSans-43" x="2266.130859"/>
    <use xlink:href="#DejaVuSans-79" x="2335.955078"/>
    <use xlink:href="#DejaVuSans-63" x="2395.134766"/>
    <use xlink:href="#DejaVuSans-6c" x="2450.115234"/>
    <use xlink:href="#DejaVuSans-65" x="2477.898438"/>
   </g>
  </g>
 </g>
 <defs>
  <clipPath id="pfdacb828fa">
   <rect x="60.3" y="55.68" width="277.15" height="254.1"/>
  </clipPath>
  <clipPath id="p67634c08aa">
   <rect x="573.89" y="55.68" width="277.15" height="254.1"/>
  </clipPath>
 </defs>
</svg>
